<?xml version="1.0" encoding="UTF-8" standalone="no"?>
<!DOCTYPE svg PUBLIC "-//W3C//DTD SVG 1.1//EN"
 "http://www.w3.org/Graphics/SVG/1.1/DTD/svg11.dtd">
<!-- Generated by graphviz version 2.49.3 (20211027.1534)
 -->
<!-- Title: controller::Group Pages: 1 -->
<svg width="1319pt" height="310pt"
 viewBox="0.00 0.00 1319.00 310.14" xmlns="http://www.w3.org/2000/svg" xmlns:xlink="http://www.w3.org/1999/xlink">
<g id="graph0" class="graph" transform="scale(1 1) rotate(0) translate(4 306.14)">
<title>controller::Group</title>
<polygon fill="white" stroke="transparent" points="-4,4 -4,-306.14 1315,-306.14 1315,4 -4,4"/>
<!-- Node1 -->
<g id="node1" class="node">
<title>Node1</title>
<g id="a_node1"><a xlink:title="Main entry point for adding and searching for transactions TODO: validate transaction on startup.">
<polygon fill="#bfbfbf" stroke="black" points="862,-137.64 862,-156.64 960,-156.64 960,-137.64 862,-137.64"/>
<text text-anchor="middle" x="911" y="-144.64" font-family="Helvetica,sans-Serif" font-size="10.00">controller::Group</text>
</a>
</g>
</g>
<!-- Node13 -->
<g id="node13" class="node">
<title>Node13</title>
<g id="a_node13"><a xlink:href="classcontroller_1_1_archive_transactions_ordering.html" target="_top" xlink:title=" ">
<polygon fill="white" stroke="black" points="1144,-166.14 1144,-196.14 1311,-196.14 1311,-166.14 1144,-166.14"/>
<text text-anchor="start" x="1152" y="-184.14" font-family="Helvetica,sans-Serif" font-size="10.00">controller::ArchiveTransactions</text>
<text text-anchor="middle" x="1227.5" y="-173.14" font-family="Helvetica,sans-Serif" font-size="10.00">Ordering</text>
</a>
</g>
</g>
<!-- Node1&#45;&gt;Node13 -->
<g id="edge18" class="edge">
<title>Node1&#45;&gt;Node13</title>
<path fill="none" stroke="#9a32cd" stroke-dasharray="5,2" d="M970.3,-158.04C972.9,-158.43 975.48,-158.8 978,-159.14 1033.05,-166.57 1095.31,-172.08 1143.74,-175.72"/>
<polygon fill="#9a32cd" stroke="#9a32cd" points="970.65,-154.55 960.22,-156.44 969.55,-161.47 970.65,-154.55"/>
<text text-anchor="middle" x="1052" y="-177.14" font-family="Helvetica,sans-Serif" font-size="10.00"> mParentGroup</text>
</g>
<!-- Node2 -->
<g id="node2" class="node">
<title>Node2</title>
<g id="a_node2"><a xlink:href="classcontroller_1_1_controller_base.html" target="_top" xlink:title=" ">
<polygon fill="white" stroke="black" points="329,-231.64 329,-250.64 470,-250.64 470,-231.64 329,-231.64"/>
<text text-anchor="middle" x="399.5" y="-238.64" font-family="Helvetica,sans-Serif" font-size="10.00">controller::ControllerBase</text>
</a>
</g>
</g>
<!-- Node2&#45;&gt;Node1 -->
<g id="edge1" class="edge">
<title>Node2&#45;&gt;Node1</title>
<path fill="none" stroke="midnightblue" d="M458.17,-252.31C546.27,-266.45 717.47,-282.2 844,-221.14 873.3,-207 895.31,-173.41 904.83,-156.79"/>
<polygon fill="midnightblue" stroke="midnightblue" points="458.54,-248.83 448.1,-250.65 457.4,-255.73 458.54,-248.83"/>
</g>
<!-- Node11 -->
<g id="node11" class="node">
<title>Node11</title>
<g id="a_node11"><a xlink:href="classcontroller_1_1_deferred_transfer.html" target="_top" xlink:title=" ">
<polygon fill="white" stroke="black" points="545,-199.64 545,-218.64 696,-218.64 696,-199.64 545,-199.64"/>
<text text-anchor="middle" x="620.5" y="-206.64" font-family="Helvetica,sans-Serif" font-size="10.00">controller::DeferredTransfer</text>
</a>
</g>
</g>
<!-- Node2&#45;&gt;Node11 -->
<g id="edge12" class="edge">
<title>Node2&#45;&gt;Node11</title>
<path fill="none" stroke="midnightblue" d="M475.63,-230.17C501.19,-226.43 529.54,-222.29 554.26,-218.68"/>
<polygon fill="midnightblue" stroke="midnightblue" points="475,-226.72 465.61,-231.63 476.02,-233.65 475,-226.72"/>
</g>
<!-- Node3 -->
<g id="node3" class="node">
<title>Node3</title>
<g id="a_node3"><a xlink:title=" ">
<polygon fill="white" stroke="#bfbfbf" points="546.5,-114.64 546.5,-133.64 694.5,-133.64 694.5,-114.64 546.5,-114.64"/>
<text text-anchor="middle" x="620.5" y="-121.64" font-family="Helvetica,sans-Serif" font-size="10.00">model::IGradidoBlockchain</text>
</a>
</g>
</g>
<!-- Node3&#45;&gt;Node1 -->
<g id="edge2" class="edge">
<title>Node3&#45;&gt;Node1</title>
<path fill="none" stroke="midnightblue" d="M704.69,-130.78C755.64,-134.84 819.05,-139.89 861.82,-143.3"/>
<polygon fill="midnightblue" stroke="midnightblue" points="704.92,-127.28 694.67,-129.98 704.36,-134.26 704.92,-127.28"/>
</g>
<!-- Node4 -->
<g id="node4" class="node">
<title>Node4</title>
<g id="a_node4"><a xlink:href="class_task_observer.html" target="_top" xlink:title=" ">
<polygon fill="white" stroke="black" points="579,-76.64 579,-95.64 662,-95.64 662,-76.64 579,-76.64"/>
<text text-anchor="middle" x="620.5" y="-83.64" font-family="Helvetica,sans-Serif" font-size="10.00">TaskObserver</text>
</a>
</g>
</g>
<!-- Node4&#45;&gt;Node1 -->
<g id="edge3" class="edge">
<title>Node4&#45;&gt;Node1</title>
<path fill="none" stroke="#9a32cd" stroke-dasharray="5,2" d="M672.31,-88.58C718.01,-91.81 786.59,-99.23 844,-116.14 861.61,-121.33 880.44,-130.59 893.47,-137.64"/>
<polygon fill="#9a32cd" stroke="#9a32cd" points="672.27,-85.07 662.06,-87.9 671.81,-92.06 672.27,-85.07"/>
<text text-anchor="middle" x="779" y="-119.14" font-family="Helvetica,sans-Serif" font-size="10.00"> mTaskObserver</text>
</g>
<!-- Node5 -->
<g id="node5" class="node">
<title>Node5</title>
<g id="a_node5"><a xlink:title=" ">
<polygon fill="white" stroke="#bfbfbf" points="339.5,-70.64 339.5,-89.64 459.5,-89.64 459.5,-70.64 339.5,-70.64"/>
<text text-anchor="middle" x="399.5" y="-77.64" font-family="Helvetica,sans-Serif" font-size="10.00">MultithreadContainer</text>
</a>
</g>
</g>
<!-- Node5&#45;&gt;Node4 -->
<g id="edge4" class="edge">
<title>Node5&#45;&gt;Node4</title>
<path fill="none" stroke="midnightblue" d="M470.17,-82.05C506.01,-83.03 548.44,-84.2 578.9,-85.03"/>
<polygon fill="midnightblue" stroke="midnightblue" points="469.86,-78.54 459.76,-81.77 469.66,-85.54 469.86,-78.54"/>
</g>
<!-- Node6 -->
<g id="node6" class="node">
<title>Node6</title>
<g id="a_node6"><a xlink:href="classiota_1_1_message_listener.html" target="_top" xlink:title="call iota regular and check if new message on the listening index are available">
<polygon fill="white" stroke="black" points="558.5,-38.64 558.5,-57.64 682.5,-57.64 682.5,-38.64 558.5,-38.64"/>
<text text-anchor="middle" x="620.5" y="-45.64" font-family="Helvetica,sans-Serif" font-size="10.00">iota::MessageListener</text>
</a>
</g>
</g>
<!-- Node5&#45;&gt;Node6 -->
<g id="edge6" class="edge">
<title>Node5&#45;&gt;Node6</title>
<path fill="none" stroke="midnightblue" d="M470,-69.99C498.35,-65.85 530.84,-61.1 558.28,-57.09"/>
<polygon fill="midnightblue" stroke="midnightblue" points="469.15,-66.57 459.76,-71.48 470.17,-73.5 469.15,-66.57"/>
</g>
<!-- Node6&#45;&gt;Node1 -->
<g id="edge5" class="edge">
<title>Node6&#45;&gt;Node1</title>
<path fill="none" stroke="#9a32cd" stroke-dasharray="5,2" d="M692.91,-45.44C738.43,-46.53 797.39,-53.34 844,-77.14 871.67,-91.27 893.97,-121.82 904.1,-137.47"/>
<polygon fill="#9a32cd" stroke="#9a32cd" points="692.88,-41.94 682.83,-45.28 692.77,-48.94 692.88,-41.94"/>
<text text-anchor="middle" x="779" y="-80.14" font-family="Helvetica,sans-Serif" font-size="10.00"> mIotaMessageListener</text>
</g>
<!-- Node7 -->
<g id="node7" class="node">
<title>Node7</title>
<g id="a_node7"><a xlink:href="class_timer_callback.html" target="_top" xlink:title=" ">
<polygon fill="white" stroke="black" points="356,-26.64 356,-45.64 443,-45.64 443,-26.64 356,-26.64"/>
<text text-anchor="middle" x="399.5" y="-33.64" font-family="Helvetica,sans-Serif" font-size="10.00">TimerCallback</text>
</a>
</g>
</g>
<!-- Node7&#45;&gt;Node6 -->
<g id="edge7" class="edge">
<title>Node7&#45;&gt;Node6</title>
<path fill="none" stroke="midnightblue" d="M453.6,-39.05C485.16,-40.78 525.31,-42.98 558.22,-44.79"/>
<polygon fill="midnightblue" stroke="midnightblue" points="453.42,-35.54 443.25,-38.49 453.04,-42.53 453.42,-35.54"/>
</g>
<!-- Node8 -->
<g id="node8" class="node">
<title>Node8</title>
<g id="a_node8"><a xlink:href="classmodel_1_1files_1_1_state.html" target="_top" xlink:title=" ">
<polygon fill="white" stroke="black" points="347,-176.64 347,-195.64 452,-195.64 452,-176.64 347,-176.64"/>
<text text-anchor="middle" x="399.5" y="-183.64" font-family="Helvetica,sans-Serif" font-size="10.00">model::files::State</text>
</a>
</g>
</g>
<!-- Node8&#45;&gt;Node1 -->
<g id="edge8" class="edge">
<title>Node8&#45;&gt;Node1</title>
<path fill="none" stroke="#9a32cd" stroke-dasharray="5,2" d="M462.39,-181.41C565.21,-173.54 769.11,-157.93 861.95,-150.82"/>
<polygon fill="#9a32cd" stroke="#9a32cd" points="461.86,-177.94 452.16,-182.19 462.4,-184.92 461.86,-177.94"/>
<text text-anchor="middle" x="620.5" y="-177.14" font-family="Helvetica,sans-Serif" font-size="10.00"> mGroupState</text>
</g>
<!-- Node8&#45;&gt;Node11 -->
<g id="edge13" class="edge">
<title>Node8&#45;&gt;Node11</title>
<path fill="none" stroke="#9a32cd" stroke-dasharray="5,2" d="M462.08,-192.61C487.71,-195.3 517.7,-198.45 544.58,-201.28"/>
<polygon fill="#9a32cd" stroke="#9a32cd" points="462.43,-189.13 452.12,-191.57 461.7,-196.09 462.43,-189.13"/>
<text text-anchor="middle" x="507.5" y="-201.14" font-family="Helvetica,sans-Serif" font-size="10.00"> mState</text>
</g>
<!-- Node9 -->
<g id="node9" class="node">
<title>Node9</title>
<g id="a_node9"><a xlink:href="classmodel_1_1files_1_1_file_base.html" target="_top" xlink:title=" ">
<polygon fill="white" stroke="black" points="171,-176.64 171,-195.64 292,-195.64 292,-176.64 171,-176.64"/>
<text text-anchor="middle" x="231.5" y="-183.64" font-family="Helvetica,sans-Serif" font-size="10.00">model::files::FileBase</text>
</a>
</g>
</g>
<!-- Node9&#45;&gt;Node8 -->
<g id="edge9" class="edge">
<title>Node9&#45;&gt;Node8</title>
<path fill="none" stroke="midnightblue" d="M302.6,-186.14C317.45,-186.14 332.87,-186.14 346.89,-186.14"/>
<polygon fill="midnightblue" stroke="midnightblue" points="302.43,-182.64 292.43,-186.14 302.43,-189.64 302.43,-182.64"/>
</g>
<!-- Node10 -->
<g id="node10" class="node">
<title>Node10</title>
<g id="a_node10"><a xlink:title=" ">
<polygon fill="white" stroke="#bfbfbf" points="0,-176.64 0,-195.64 134,-195.64 134,-176.64 0,-176.64"/>
<text text-anchor="middle" x="67" y="-183.64" font-family="Helvetica,sans-Serif" font-size="10.00">Poco::RefCountedObject</text>
</a>
</g>
</g>
<!-- Node10&#45;&gt;Node9 -->
<g id="edge10" class="edge">
<title>Node10&#45;&gt;Node9</title>
<path fill="none" stroke="midnightblue" d="M144.12,-186.14C153.06,-186.14 162.08,-186.14 170.74,-186.14"/>
<polygon fill="midnightblue" stroke="midnightblue" points="144.1,-182.64 134.09,-186.14 144.09,-189.64 144.1,-182.64"/>
</g>
<!-- Node11&#45;&gt;Node1 -->
<g id="edge11" class="edge">
<title>Node11&#45;&gt;Node1</title>
<path fill="none" stroke="#9a32cd" stroke-dasharray="5,2" d="M706.45,-207.52C748.64,-204.73 799.9,-198.34 844,-184.14 863.51,-177.86 883.75,-165.5 896.58,-156.8"/>
<polygon fill="#9a32cd" stroke="#9a32cd" points="705.98,-204.04 696.2,-208.13 706.4,-211.03 705.98,-204.04"/>
<text text-anchor="middle" x="779" y="-209.14" font-family="Helvetica,sans-Serif" font-size="10.00"> mDeferredTransfersCache</text>
</g>
<!-- Node12 -->
<g id="node12" class="node">
<title>Node12</title>
<g id="a_node12"><a xlink:href="classclient_1_1_base.html" target="_top" xlink:title=" ">
<polygon fill="white" stroke="black" points="583.5,-0.64 583.5,-19.64 657.5,-19.64 657.5,-0.64 583.5,-0.64"/>
<text text-anchor="middle" x="620.5" y="-7.64" font-family="Helvetica,sans-Serif" font-size="10.00">client::Base</text>
</a>
</g>
</g>
<!-- Node12&#45;&gt;Node1 -->
<g id="edge14" class="edge">
<title>Node12&#45;&gt;Node1</title>
<path fill="none" stroke="#9a32cd" stroke-dasharray="5,2" d="M667.61,-2.81C715.6,2.32 791.02,3.1 844,-31.14 883.5,-56.68 901.86,-114.66 907.76,-137.57"/>
<polygon fill="#9a32cd" stroke="#9a32cd" points="667.03,0.64 657.5,-4 667.84,-6.31 667.03,0.64"/>
<text text-anchor="middle" x="779" y="-34.14" font-family="Helvetica,sans-Serif" font-size="10.00"> mCommunityServer</text>
</g>
<!-- Node13&#45;&gt;Node1 -->
<g id="edge15" class="edge">
<title>Node13&#45;&gt;Node1</title>
<path fill="none" stroke="#9a32cd" stroke-dasharray="5,2" d="M1180.38,-162.65C1163.55,-156.8 1144.18,-151.1 1126,-148.14 1069.71,-139 1003.98,-140.46 960.38,-143.1"/>
<polygon fill="#9a32cd" stroke="#9a32cd" points="1179.37,-166.01 1189.96,-166.09 1181.73,-159.42 1179.37,-166.01"/>
<text text-anchor="middle" x="1052" y="-151.14" font-family="Helvetica,sans-Serif" font-size="10.00"> mArchiveTransactionOrdering</text>
</g>
<!-- Node14 -->
<g id="node14" class="node">
<title>Node14</title>
<g id="a_node14"><a xlink:href="classtask_1_1_thread.html" target="_top" xlink:title=" ">
<polygon fill="white" stroke="black" points="872.5,-266.64 872.5,-285.64 949.5,-285.64 949.5,-266.64 872.5,-266.64"/>
<text text-anchor="middle" x="911" y="-273.64" font-family="Helvetica,sans-Serif" font-size="10.00">task::Thread</text>
</a>
</g>
</g>
<!-- Node14&#45;&gt;Node13 -->
<g id="edge16" class="edge">
<title>Node14&#45;&gt;Node13</title>
<path fill="none" stroke="midnightblue" d="M953.44,-263.63C1010.99,-246.24 1114.96,-214.83 1176.67,-196.2"/>
<polygon fill="midnightblue" stroke="midnightblue" points="952.16,-260.36 943.6,-266.6 954.18,-267.06 952.16,-260.36"/>
</g>
<!-- Node15 -->
<g id="node15" class="node">
<title>Node15</title>
<g id="a_node15"><a xlink:title=" ">
<polygon fill="white" stroke="#bfbfbf" points="574.5,-282.64 574.5,-301.64 666.5,-301.64 666.5,-282.64 574.5,-282.64"/>
<text text-anchor="middle" x="620.5" y="-289.64" font-family="Helvetica,sans-Serif" font-size="10.00">Poco::Runnable</text>
</a>
</g>
</g>
<!-- Node15&#45;&gt;Node14 -->
<g id="edge17" class="edge">
<title>Node15&#45;&gt;Node14</title>
<path fill="none" stroke="midnightblue" d="M676.91,-289.07C734.26,-285.89 822.28,-281.01 872.14,-278.24"/>
<polygon fill="midnightblue" stroke="midnightblue" points="676.37,-285.6 666.58,-289.64 676.76,-292.58 676.37,-285.6"/>
</g>
</g>
</svg>
