<?xml version="1.0" encoding="UTF-8" standalone="no"?>
<!DOCTYPE svg PUBLIC "-//W3C//DTD SVG 1.1//EN"
 "http://www.w3.org/Graphics/SVG/1.1/DTD/svg11.dtd">
<!-- Generated by graphviz version 2.49.3 (20211027.1534)
 -->
<!-- Title: controller::Group::addTransaction Pages: 1 -->
<svg width="451pt" height="39pt"
 viewBox="0.00 0.00 451.00 39.00" xmlns="http://www.w3.org/2000/svg" xmlns:xlink="http://www.w3.org/1999/xlink">
<g id="graph0" class="graph" transform="scale(1 1) rotate(0) translate(4 35)">
<title>controller::Group::addTransaction</title>
<polygon fill="white" stroke="transparent" points="-4,4 -4,-35 447,-35 447,4 -4,4"/>
<!-- Node1 -->
<g id="node1" class="node">
<title>Node1</title>
<g id="a_node1"><a xlink:title="add transaction from iota into blockchain, important! must be called in correct order">
<polygon fill="#bfbfbf" stroke="black" points="0,-0.5 0,-30.5 104,-30.5 104,-0.5 0,-0.5"/>
<text text-anchor="start" x="8" y="-18.5" font-family="Helvetica,sans-Serif" font-size="10.00">controller::Group::</text>
<text text-anchor="middle" x="52" y="-7.5" font-family="Helvetica,sans-Serif" font-size="10.00">addTransaction</text>
</a>
</g>
</g>
<!-- Node2 -->
<g id="node2" class="node">
<title>Node2</title>
<g id="a_node2"><a xlink:href="class_group_manager.html#ac42a491ca23c0fec6a46f5cf9bee8a99" target="_top" xlink:title="getting group object from Poco::AccessExpireCache or create if not in cache and put in cache">
<polygon fill="white" stroke="black" points="140,-6 140,-25 282,-25 282,-6 140,-6"/>
<text text-anchor="middle" x="211" y="-13" font-family="Helvetica,sans-Serif" font-size="10.00">GroupManager::findGroup</text>
</a>
</g>
</g>
<!-- Node1&#45;&gt;Node2 -->
<g id="edge1" class="edge">
<title>Node1&#45;&gt;Node2</title>
<path fill="none" stroke="midnightblue" d="M104.41,-15.5C112.57,-15.5 121.18,-15.5 129.82,-15.5"/>
<polygon fill="midnightblue" stroke="midnightblue" points="129.94,-19 139.94,-15.5 129.94,-12 129.94,-19"/>
</g>
<!-- Node3 -->
<g id="node3" class="node">
<title>Node3</title>
<g id="a_node3"><a xlink:href="classcontroller_1_1_group_index.html#a1cdd2b99d1d916c582200cae9545dd2e" target="_top" xlink:title="get full folder path for group public key if the hash from groupPublicKey exist multiple time,...">
<polygon fill="white" stroke="black" points="318,-0.5 318,-30.5 443,-30.5 443,-0.5 318,-0.5"/>
<text text-anchor="start" x="326" y="-18.5" font-family="Helvetica,sans-Serif" font-size="10.00">controller::GroupIndex</text>
<text text-anchor="middle" x="380.5" y="-7.5" font-family="Helvetica,sans-Serif" font-size="10.00">::getFolder</text>
</a>
</g>
</g>
<!-- Node2&#45;&gt;Node3 -->
<g id="edge2" class="edge">
<title>Node2&#45;&gt;Node3</title>
<path fill="none" stroke="midnightblue" d="M282.06,-15.5C290.54,-15.5 299.21,-15.5 307.71,-15.5"/>
<polygon fill="midnightblue" stroke="midnightblue" points="307.97,-19 317.97,-15.5 307.97,-12 307.97,-19"/>
</g>
</g>
</svg>
