<?xml version="1.0" encoding="UTF-8" standalone="no"?>
<!DOCTYPE svg PUBLIC "-//W3C//DTD SVG 1.1//EN"
 "http://www.w3.org/Graphics/SVG/1.1/DTD/svg11.dtd">
<!-- Generated by graphviz version 2.49.3 (20211027.1534)
 -->
<!-- Title: model::files::AddressIndex::add Pages: 1 -->
<svg width="724pt" height="88pt"
 viewBox="0.00 0.00 724.00 88.00" xmlns="http://www.w3.org/2000/svg" xmlns:xlink="http://www.w3.org/1999/xlink">
<g id="graph0" class="graph" transform="scale(1 1) rotate(0) translate(4 84)">
<title>model::files::AddressIndex::add</title>
<polygon fill="white" stroke="transparent" points="-4,4 -4,-84 720,-84 720,4 -4,4"/>
<!-- Node1 -->
<g id="node1" class="node">
<title>Node1</title>
<g id="a_node1"><a xlink:title="Adding new index, account address public key pair into memory, use Poco::FastMutex::ScopedLock.">
<polygon fill="#bfbfbf" stroke="black" points="0,-30 0,-49 170,-49 170,-30 0,-30"/>
<text text-anchor="middle" x="85" y="-37" font-family="Helvetica,sans-Serif" font-size="10.00">model::files::AddressIndex::add</text>
</a>
</g>
</g>
<!-- Node2 -->
<g id="node2" class="node">
<title>Node2</title>
<g id="a_node2"><a xlink:href="classmodel_1_1files_1_1_address_index.html#ac530703f10a574559e0885acd257a2ea" target="_top" xlink:title="Write new index file if checkFile return true, use Poco::FastMutex::ScopedLock, fileLock via FileLock...">
<polygon fill="white" stroke="black" points="206,-24.5 206,-54.5 352,-54.5 352,-24.5 206,-24.5"/>
<text text-anchor="start" x="214" y="-42.5" font-family="Helvetica,sans-Serif" font-size="10.00">model::files::AddressIndex</text>
<text text-anchor="middle" x="279" y="-31.5" font-family="Helvetica,sans-Serif" font-size="10.00">::writeToFile</text>
</a>
</g>
</g>
<!-- Node1&#45;&gt;Node2 -->
<g id="edge1" class="edge">
<title>Node1&#45;&gt;Node2</title>
<path fill="none" stroke="midnightblue" d="M170.21,-39.5C178.67,-39.5 187.24,-39.5 195.68,-39.5"/>
<polygon fill="midnightblue" stroke="midnightblue" points="195.87,-43 205.87,-39.5 195.87,-36 195.87,-43"/>
</g>
<!-- Node3 -->
<g id="node3" class="node">
<title>Node3</title>
<g id="a_node3"><a xlink:href="classmodel_1_1files_1_1_address_index.html#af0ff6103a23eaa7b57f9eb053bf5b8c1" target="_top" xlink:title="Calculate file hash from map entrys sorted by indices.">
<polygon fill="white" stroke="black" points="388,-49.5 388,-79.5 534,-79.5 534,-49.5 388,-49.5"/>
<text text-anchor="start" x="396" y="-67.5" font-family="Helvetica,sans-Serif" font-size="10.00">model::files::AddressIndex</text>
<text text-anchor="middle" x="461" y="-56.5" font-family="Helvetica,sans-Serif" font-size="10.00">::calculateHash</text>
</a>
</g>
</g>
<!-- Node2&#45;&gt;Node3 -->
<g id="edge2" class="edge">
<title>Node2&#45;&gt;Node3</title>
<path fill="none" stroke="midnightblue" d="M352.18,-49.52C360.61,-50.7 369.27,-51.9 377.82,-53.09"/>
<polygon fill="midnightblue" stroke="midnightblue" points="377.42,-56.56 387.81,-54.47 378.38,-49.63 377.42,-56.56"/>
</g>
<!-- Node4 -->
<g id="node4" class="node">
<title>Node4</title>
<g id="a_node4"><a xlink:href="classmodel_1_1files_1_1_address_index.html#af316cd9ce255efa0b2cfd80d6778d7b1" target="_top" xlink:title="Check if index file contains current indices (compare sizes), fileLock via FileLockManager,...">
<polygon fill="white" stroke="black" points="388,-0.5 388,-30.5 534,-30.5 534,-0.5 388,-0.5"/>
<text text-anchor="start" x="396" y="-18.5" font-family="Helvetica,sans-Serif" font-size="10.00">model::files::AddressIndex</text>
<text text-anchor="middle" x="461" y="-7.5" font-family="Helvetica,sans-Serif" font-size="10.00">::checkFile</text>
</a>
</g>
</g>
<!-- Node2&#45;&gt;Node4 -->
<g id="edge3" class="edge">
<title>Node2&#45;&gt;Node4</title>
<path fill="none" stroke="midnightblue" d="M352.18,-29.88C360.61,-28.75 369.27,-27.6 377.82,-26.46"/>
<polygon fill="midnightblue" stroke="midnightblue" points="378.36,-29.92 387.81,-25.13 377.43,-22.98 378.36,-29.92"/>
</g>
<!-- Node5 -->
<g id="node5" class="node">
<title>Node5</title>
<g id="a_node5"><a xlink:href="classmodel_1_1files_1_1_address_index.html#a45a9ec196ac5eea967c8eb11f77ac6cb" target="_top" xlink:title="Calculate file size from map entry count + space for hash, use Poco::FastMutex::ScopedLock.">
<polygon fill="white" stroke="black" points="570,-0.5 570,-30.5 716,-30.5 716,-0.5 570,-0.5"/>
<text text-anchor="start" x="578" y="-18.5" font-family="Helvetica,sans-Serif" font-size="10.00">model::files::AddressIndex</text>
<text text-anchor="middle" x="643" y="-7.5" font-family="Helvetica,sans-Serif" font-size="10.00">::calculateFileSize</text>
</a>
</g>
</g>
<!-- Node4&#45;&gt;Node5 -->
<g id="edge4" class="edge">
<title>Node4&#45;&gt;Node5</title>
<path fill="none" stroke="midnightblue" d="M534.18,-15.5C542.52,-15.5 551.08,-15.5 559.54,-15.5"/>
<polygon fill="midnightblue" stroke="midnightblue" points="559.81,-19 569.81,-15.5 559.81,-12 559.81,-19"/>
</g>
</g>
</svg>
