<?xml version="1.0" encoding="UTF-8" standalone="no"?>
<!DOCTYPE svg PUBLIC "-//W3C//DTD SVG 1.1//EN"
 "http://www.w3.org/Graphics/SVG/1.1/DTD/svg11.dtd">
<!-- Generated by graphviz version 2.49.3 (20211027.1534)
 -->
<!-- Title: controller::ControllerBase Pages: 1 -->
<svg width="336pt" height="218pt"
 viewBox="0.00 0.00 336.00 218.00" xmlns="http://www.w3.org/2000/svg" xmlns:xlink="http://www.w3.org/1999/xlink">
<g id="graph0" class="graph" transform="scale(1 1) rotate(0) translate(4 214)">
<title>controller::ControllerBase</title>
<polygon fill="white" stroke="transparent" points="-4,4 -4,-214 332,-214 332,4 -4,4"/>
<!-- Node1 -->
<g id="node1" class="node">
<title>Node1</title>
<g id="a_node1"><a xlink:title=" ">
<polygon fill="#bfbfbf" stroke="black" points="0,-95.5 0,-114.5 141,-114.5 141,-95.5 0,-95.5"/>
<text text-anchor="middle" x="70.5" y="-102.5" font-family="Helvetica,sans-Serif" font-size="10.00">controller::ControllerBase</text>
</a>
</g>
</g>
<!-- Node2 -->
<g id="node2" class="node">
<title>Node2</title>
<g id="a_node2"><a xlink:href="classcontroller_1_1_address_index.html" target="_top" xlink:title=" ">
<polygon fill="white" stroke="black" points="185,-190.5 185,-209.5 320,-209.5 320,-190.5 185,-190.5"/>
<text text-anchor="middle" x="252.5" y="-197.5" font-family="Helvetica,sans-Serif" font-size="10.00">controller::AddressIndex</text>
</a>
</g>
</g>
<!-- Node1&#45;&gt;Node2 -->
<g id="edge1" class="edge">
<title>Node1&#45;&gt;Node2</title>
<path fill="none" stroke="midnightblue" d="M89.72,-121.44C109.75,-138.67 143.53,-165.37 177,-181 185.1,-184.78 194.07,-187.89 202.89,-190.41"/>
<polygon fill="midnightblue" stroke="midnightblue" points="91.85,-118.65 82.03,-114.69 87.24,-123.92 91.85,-118.65"/>
</g>
<!-- Node3 -->
<g id="node3" class="node">
<title>Node3</title>
<g id="a_node3"><a xlink:href="classcontroller_1_1_block.html" target="_top" xlink:title="interface for adding and getting transactions from specific block">
<polygon fill="white" stroke="black" points="204.5,-152.5 204.5,-171.5 300.5,-171.5 300.5,-152.5 204.5,-152.5"/>
<text text-anchor="middle" x="252.5" y="-159.5" font-family="Helvetica,sans-Serif" font-size="10.00">controller::Block</text>
</a>
</g>
</g>
<!-- Node1&#45;&gt;Node3 -->
<g id="edge2" class="edge">
<title>Node1&#45;&gt;Node3</title>
<path fill="none" stroke="midnightblue" d="M105.54,-118.2C126.07,-125.93 152.85,-135.59 177,-143 187.97,-146.37 199.98,-149.62 211.09,-152.45"/>
<polygon fill="midnightblue" stroke="midnightblue" points="106.59,-114.86 96,-114.58 104.11,-121.4 106.59,-114.86"/>
</g>
<!-- Node4 -->
<g id="node4" class="node">
<title>Node4</title>
<g id="a_node4"><a xlink:href="classcontroller_1_1_block_index.html" target="_top" xlink:title="store block index in memory for fast finding transactions">
<polygon fill="white" stroke="black" points="191,-114.5 191,-133.5 314,-133.5 314,-114.5 191,-114.5"/>
<text text-anchor="middle" x="252.5" y="-121.5" font-family="Helvetica,sans-Serif" font-size="10.00">controller::BlockIndex</text>
</a>
</g>
</g>
<!-- Node1&#45;&gt;Node4 -->
<g id="edge3" class="edge">
<title>Node1&#45;&gt;Node4</title>
<path fill="none" stroke="midnightblue" d="M151.2,-113.41C164.52,-114.82 178.14,-116.26 190.88,-117.6"/>
<polygon fill="midnightblue" stroke="midnightblue" points="151.4,-109.92 141.09,-112.35 150.67,-116.88 151.4,-109.92"/>
</g>
<!-- Node5 -->
<g id="node5" class="node">
<title>Node5</title>
<g id="a_node5"><a xlink:href="classcontroller_1_1_deferred_transfer.html" target="_top" xlink:title=" ">
<polygon fill="white" stroke="black" points="177,-76.5 177,-95.5 328,-95.5 328,-76.5 177,-76.5"/>
<text text-anchor="middle" x="252.5" y="-83.5" font-family="Helvetica,sans-Serif" font-size="10.00">controller::DeferredTransfer</text>
</a>
</g>
</g>
<!-- Node1&#45;&gt;Node5 -->
<g id="edge4" class="edge">
<title>Node1&#45;&gt;Node5</title>
<path fill="none" stroke="midnightblue" d="M151.04,-96.6C159.58,-95.7 168.24,-94.79 176.72,-93.89"/>
<polygon fill="midnightblue" stroke="midnightblue" points="150.67,-93.12 141.09,-97.65 151.4,-100.08 150.67,-93.12"/>
</g>
<!-- Node6 -->
<g id="node6" class="node">
<title>Node6</title>
<g id="a_node6"><a xlink:href="classcontroller_1_1_group.html" target="_top" xlink:title="Main entry point for adding and searching for transactions TODO: validate transaction on startup.">
<polygon fill="white" stroke="black" points="203.5,-38.5 203.5,-57.5 301.5,-57.5 301.5,-38.5 203.5,-38.5"/>
<text text-anchor="middle" x="252.5" y="-45.5" font-family="Helvetica,sans-Serif" font-size="10.00">controller::Group</text>
</a>
</g>
</g>
<!-- Node1&#45;&gt;Node6 -->
<g id="edge5" class="edge">
<title>Node1&#45;&gt;Node6</title>
<path fill="none" stroke="midnightblue" d="M105.54,-91.8C126.07,-84.07 152.85,-74.41 177,-67 187.97,-63.63 199.98,-60.38 211.09,-57.55"/>
<polygon fill="midnightblue" stroke="midnightblue" points="104.11,-88.6 96,-95.42 106.59,-95.14 104.11,-88.6"/>
</g>
<!-- Node7 -->
<g id="node7" class="node">
<title>Node7</title>
<g id="a_node7"><a xlink:href="classcontroller_1_1_group_index.html" target="_top" xlink:title="storing group folder name in memory in hash list for fast access">
<polygon fill="white" stroke="black" points="190,-0.5 190,-19.5 315,-19.5 315,-0.5 190,-0.5"/>
<text text-anchor="middle" x="252.5" y="-7.5" font-family="Helvetica,sans-Serif" font-size="10.00">controller::GroupIndex</text>
</a>
</g>
</g>
<!-- Node1&#45;&gt;Node7 -->
<g id="edge6" class="edge">
<title>Node1&#45;&gt;Node7</title>
<path fill="none" stroke="midnightblue" d="M89.72,-88.56C109.75,-71.33 143.53,-44.63 177,-29 185.1,-25.22 194.07,-22.11 202.89,-19.59"/>
<polygon fill="midnightblue" stroke="midnightblue" points="87.24,-86.08 82.03,-95.31 91.85,-91.35 87.24,-86.08"/>
</g>
</g>
</svg>
