<?xml version="1.0" encoding="UTF-8" standalone="no"?>
<!DOCTYPE svg PUBLIC "-//W3C//DTD SVG 1.1//EN"
 "http://www.w3.org/Graphics/SVG/1.1/DTD/svg11.dtd">
<!-- Generated by graphviz version 2.49.3 (20211027.1534)
 -->
<!-- Title: controller::GroupRegisterGroup Pages: 1 -->
<svg width="1144pt" height="282pt"
 viewBox="0.00 0.00 1144.00 281.74" xmlns="http://www.w3.org/2000/svg" xmlns:xlink="http://www.w3.org/1999/xlink">
<g id="graph0" class="graph" transform="scale(1 1) rotate(0) translate(4 277.74)">
<title>controller::GroupRegisterGroup</title>
<polygon fill="white" stroke="transparent" points="-4,4 -4,-277.74 1140,-277.74 1140,4 -4,4"/>
<!-- Node1 -->
<g id="node1" class="node">
<title>Node1</title>
<g id="a_node1"><a xlink:title="Special Group on which all Gradido Node Server listen, contain group registries.">
<polygon fill="#bfbfbf" stroke="black" points="997,-109 997,-139 1136,-139 1136,-109 997,-109"/>
<text text-anchor="start" x="1005" y="-127" font-family="Helvetica,sans-Serif" font-size="10.00">controller::GroupRegister</text>
<text text-anchor="middle" x="1066.5" y="-116" font-family="Helvetica,sans-Serif" font-size="10.00">Group</text>
</a>
</g>
</g>
<!-- Node2 -->
<g id="node2" class="node">
<title>Node2</title>
<g id="a_node2"><a xlink:href="classcontroller_1_1_group.html" target="_top" xlink:title="Main entry point for adding and searching for transactions TODO: validate transaction on startup.">
<polygon fill="white" stroke="black" points="862,-114.5 862,-133.5 960,-133.5 960,-114.5 862,-114.5"/>
<text text-anchor="middle" x="911" y="-121.5" font-family="Helvetica,sans-Serif" font-size="10.00">controller::Group</text>
</a>
</g>
</g>
<!-- Node2&#45;&gt;Node1 -->
<g id="edge1" class="edge">
<title>Node2&#45;&gt;Node1</title>
<path fill="none" stroke="midnightblue" d="M970.15,-124C978.83,-124 987.85,-124 996.72,-124"/>
<polygon fill="midnightblue" stroke="midnightblue" points="970.15,-120.5 960.15,-124 970.15,-127.5 970.15,-120.5"/>
</g>
<!-- Node3 -->
<g id="node3" class="node">
<title>Node3</title>
<g id="a_node3"><a xlink:href="classcontroller_1_1_controller_base.html" target="_top" xlink:title=" ">
<polygon fill="white" stroke="black" points="329,-231.5 329,-250.5 470,-250.5 470,-231.5 329,-231.5"/>
<text text-anchor="middle" x="399.5" y="-238.5" font-family="Helvetica,sans-Serif" font-size="10.00">controller::ControllerBase</text>
</a>
</g>
</g>
<!-- Node3&#45;&gt;Node2 -->
<g id="edge2" class="edge">
<title>Node3&#45;&gt;Node2</title>
<path fill="none" stroke="midnightblue" d="M447.38,-252.77C532.72,-271.47 716.38,-298.86 844,-226 880.63,-205.09 900.31,-154.59 907.17,-133.5"/>
<polygon fill="midnightblue" stroke="midnightblue" points="448,-249.33 437.47,-250.54 446.46,-256.15 448,-249.33"/>
</g>
<!-- Node12 -->
<g id="node12" class="node">
<title>Node12</title>
<g id="a_node12"><a xlink:href="classcontroller_1_1_deferred_transfer.html" target="_top" xlink:title=" ">
<polygon fill="white" stroke="black" points="545,-199.5 545,-218.5 696,-218.5 696,-199.5 545,-199.5"/>
<text text-anchor="middle" x="620.5" y="-206.5" font-family="Helvetica,sans-Serif" font-size="10.00">controller::DeferredTransfer</text>
</a>
</g>
</g>
<!-- Node3&#45;&gt;Node12 -->
<g id="edge13" class="edge">
<title>Node3&#45;&gt;Node12</title>
<path fill="none" stroke="midnightblue" d="M475.63,-230.02C501.19,-226.29 529.54,-222.15 554.26,-218.53"/>
<polygon fill="midnightblue" stroke="midnightblue" points="475,-226.58 465.61,-231.49 476.02,-233.5 475,-226.58"/>
</g>
<!-- Node4 -->
<g id="node4" class="node">
<title>Node4</title>
<g id="a_node4"><a xlink:title=" ">
<polygon fill="white" stroke="#bfbfbf" points="546.5,-114.5 546.5,-133.5 694.5,-133.5 694.5,-114.5 546.5,-114.5"/>
<text text-anchor="middle" x="620.5" y="-121.5" font-family="Helvetica,sans-Serif" font-size="10.00">model::IGradidoBlockchain</text>
</a>
</g>
</g>
<!-- Node4&#45;&gt;Node2 -->
<g id="edge3" class="edge">
<title>Node4&#45;&gt;Node2</title>
<path fill="none" stroke="midnightblue" d="M704.69,-124C755.64,-124 819.05,-124 861.82,-124"/>
<polygon fill="midnightblue" stroke="midnightblue" points="704.67,-120.5 694.67,-124 704.67,-127.5 704.67,-120.5"/>
</g>
<!-- Node5 -->
<g id="node5" class="node">
<title>Node5</title>
<g id="a_node5"><a xlink:href="class_task_observer.html" target="_top" xlink:title=" ">
<polygon fill="white" stroke="black" points="579,-76.5 579,-95.5 662,-95.5 662,-76.5 579,-76.5"/>
<text text-anchor="middle" x="620.5" y="-83.5" font-family="Helvetica,sans-Serif" font-size="10.00">TaskObserver</text>
</a>
</g>
</g>
<!-- Node5&#45;&gt;Node2 -->
<g id="edge4" class="edge">
<title>Node5&#45;&gt;Node2</title>
<path fill="none" stroke="#9a32cd" stroke-dasharray="5,2" d="M672.44,-89.51C717.69,-93.05 785.52,-99.37 844,-109 853.04,-110.49 862.7,-112.46 871.76,-114.49"/>
<polygon fill="#9a32cd" stroke="#9a32cd" points="672.53,-86.01 662.3,-88.74 672,-92.99 672.53,-86.01"/>
<text text-anchor="middle" x="779" y="-112" font-family="Helvetica,sans-Serif" font-size="10.00"> mTaskObserver</text>
</g>
<!-- Node6 -->
<g id="node6" class="node">
<title>Node6</title>
<g id="a_node6"><a xlink:title=" ">
<polygon fill="white" stroke="#bfbfbf" points="339.5,-70.5 339.5,-89.5 459.5,-89.5 459.5,-70.5 339.5,-70.5"/>
<text text-anchor="middle" x="399.5" y="-77.5" font-family="Helvetica,sans-Serif" font-size="10.00">MultithreadContainer</text>
</a>
</g>
</g>
<!-- Node6&#45;&gt;Node5 -->
<g id="edge5" class="edge">
<title>Node6&#45;&gt;Node5</title>
<path fill="none" stroke="midnightblue" d="M470.17,-81.91C506.01,-82.89 548.44,-84.05 578.9,-84.89"/>
<polygon fill="midnightblue" stroke="midnightblue" points="469.86,-78.4 459.76,-81.62 469.66,-85.4 469.86,-78.4"/>
</g>
<!-- Node7 -->
<g id="node7" class="node">
<title>Node7</title>
<g id="a_node7"><a xlink:href="classiota_1_1_message_listener.html" target="_top" xlink:title="call iota regular and check if new message on the listening index are available">
<polygon fill="white" stroke="black" points="558.5,-38.5 558.5,-57.5 682.5,-57.5 682.5,-38.5 558.5,-38.5"/>
<text text-anchor="middle" x="620.5" y="-45.5" font-family="Helvetica,sans-Serif" font-size="10.00">iota::MessageListener</text>
</a>
</g>
</g>
<!-- Node6&#45;&gt;Node7 -->
<g id="edge7" class="edge">
<title>Node6&#45;&gt;Node7</title>
<path fill="none" stroke="midnightblue" d="M470,-69.84C498.35,-65.7 530.84,-60.95 558.28,-56.95"/>
<polygon fill="midnightblue" stroke="midnightblue" points="469.15,-66.43 459.76,-71.34 470.17,-73.36 469.15,-66.43"/>
</g>
<!-- Node7&#45;&gt;Node2 -->
<g id="edge6" class="edge">
<title>Node7&#45;&gt;Node2</title>
<path fill="none" stroke="#9a32cd" stroke-dasharray="5,2" d="M693.12,-49.11C737.82,-51.86 795.81,-59.24 844,-78 865.86,-86.51 887.46,-103.66 899.72,-114.45"/>
<polygon fill="#9a32cd" stroke="#9a32cd" points="693.1,-45.61 682.92,-48.55 692.72,-52.6 693.1,-45.61"/>
<text text-anchor="middle" x="779" y="-81" font-family="Helvetica,sans-Serif" font-size="10.00"> mIotaMessageListener</text>
</g>
<!-- Node8 -->
<g id="node8" class="node">
<title>Node8</title>
<g id="a_node8"><a xlink:href="class_timer_callback.html" target="_top" xlink:title=" ">
<polygon fill="white" stroke="black" points="356,-26.5 356,-45.5 443,-45.5 443,-26.5 356,-26.5"/>
<text text-anchor="middle" x="399.5" y="-33.5" font-family="Helvetica,sans-Serif" font-size="10.00">TimerCallback</text>
</a>
</g>
</g>
<!-- Node8&#45;&gt;Node7 -->
<g id="edge8" class="edge">
<title>Node8&#45;&gt;Node7</title>
<path fill="none" stroke="midnightblue" d="M453.6,-38.91C485.16,-40.64 525.31,-42.84 558.22,-44.64"/>
<polygon fill="midnightblue" stroke="midnightblue" points="453.42,-35.39 443.25,-38.34 453.04,-42.38 453.42,-35.39"/>
</g>
<!-- Node9 -->
<g id="node9" class="node">
<title>Node9</title>
<g id="a_node9"><a xlink:href="classmodel_1_1files_1_1_state.html" target="_top" xlink:title=" ">
<polygon fill="white" stroke="black" points="347,-176.5 347,-195.5 452,-195.5 452,-176.5 347,-176.5"/>
<text text-anchor="middle" x="399.5" y="-183.5" font-family="Helvetica,sans-Serif" font-size="10.00">model::files::State</text>
</a>
</g>
</g>
<!-- Node9&#45;&gt;Node2 -->
<g id="edge9" class="edge">
<title>Node9&#45;&gt;Node2</title>
<path fill="none" stroke="#9a32cd" stroke-dasharray="5,2" d="M462.39,-181.29C548.35,-174.3 708.6,-159.63 844,-138 851.87,-136.74 860.21,-135.17 868.22,-133.53"/>
<polygon fill="#9a32cd" stroke="#9a32cd" points="461.97,-177.81 452.28,-182.11 462.53,-184.79 461.97,-177.81"/>
<text text-anchor="middle" x="620.5" y="-176" font-family="Helvetica,sans-Serif" font-size="10.00"> mGroupState</text>
</g>
<!-- Node9&#45;&gt;Node12 -->
<g id="edge14" class="edge">
<title>Node9&#45;&gt;Node12</title>
<path fill="none" stroke="#9a32cd" stroke-dasharray="5,2" d="M462.08,-192.47C487.71,-195.16 517.7,-198.31 544.58,-201.13"/>
<polygon fill="#9a32cd" stroke="#9a32cd" points="462.43,-188.99 452.12,-191.42 461.7,-195.95 462.43,-188.99"/>
<text text-anchor="middle" x="507.5" y="-201" font-family="Helvetica,sans-Serif" font-size="10.00"> mState</text>
</g>
<!-- Node10 -->
<g id="node10" class="node">
<title>Node10</title>
<g id="a_node10"><a xlink:href="classmodel_1_1files_1_1_file_base.html" target="_top" xlink:title=" ">
<polygon fill="white" stroke="black" points="171,-176.5 171,-195.5 292,-195.5 292,-176.5 171,-176.5"/>
<text text-anchor="middle" x="231.5" y="-183.5" font-family="Helvetica,sans-Serif" font-size="10.00">model::files::FileBase</text>
</a>
</g>
</g>
<!-- Node10&#45;&gt;Node9 -->
<g id="edge10" class="edge">
<title>Node10&#45;&gt;Node9</title>
<path fill="none" stroke="midnightblue" d="M302.6,-186C317.45,-186 332.87,-186 346.89,-186"/>
<polygon fill="midnightblue" stroke="midnightblue" points="302.43,-182.5 292.43,-186 302.43,-189.5 302.43,-182.5"/>
</g>
<!-- Node11 -->
<g id="node11" class="node">
<title>Node11</title>
<g id="a_node11"><a xlink:title=" ">
<polygon fill="white" stroke="#bfbfbf" points="0,-176.5 0,-195.5 134,-195.5 134,-176.5 0,-176.5"/>
<text text-anchor="middle" x="67" y="-183.5" font-family="Helvetica,sans-Serif" font-size="10.00">Poco::RefCountedObject</text>
</a>
</g>
</g>
<!-- Node11&#45;&gt;Node10 -->
<g id="edge11" class="edge">
<title>Node11&#45;&gt;Node10</title>
<path fill="none" stroke="midnightblue" d="M144.12,-186C153.06,-186 162.08,-186 170.74,-186"/>
<polygon fill="midnightblue" stroke="midnightblue" points="144.1,-182.5 134.09,-186 144.09,-189.5 144.1,-182.5"/>
</g>
<!-- Node12&#45;&gt;Node2 -->
<g id="edge12" class="edge">
<title>Node12&#45;&gt;Node2</title>
<path fill="none" stroke="#9a32cd" stroke-dasharray="5,2" d="M706.31,-211.64C749.26,-210.01 801.21,-203.36 844,-184 869.4,-172.51 891.71,-147.52 902.72,-133.69"/>
<polygon fill="#9a32cd" stroke="#9a32cd" points="706.06,-208.15 696.17,-211.94 706.27,-215.15 706.06,-208.15"/>
<text text-anchor="middle" x="779" y="-214" font-family="Helvetica,sans-Serif" font-size="10.00"> mDeferredTransfersCache</text>
</g>
<!-- Node13 -->
<g id="node13" class="node">
<title>Node13</title>
<g id="a_node13"><a xlink:href="classclient_1_1_base.html" target="_top" xlink:title=" ">
<polygon fill="white" stroke="black" points="583.5,-0.5 583.5,-19.5 657.5,-19.5 657.5,-0.5 583.5,-0.5"/>
<text text-anchor="middle" x="620.5" y="-7.5" font-family="Helvetica,sans-Serif" font-size="10.00">client::Base</text>
</a>
</g>
</g>
<!-- Node13&#45;&gt;Node2 -->
<g id="edge15" class="edge">
<title>Node13&#45;&gt;Node2</title>
<path fill="none" stroke="#9a32cd" stroke-dasharray="5,2" d="M667.71,-4.91C715.15,-1.93 789.55,-3.65 844,-35 876.51,-53.71 897.79,-95.56 906.08,-114.44"/>
<polygon fill="#9a32cd" stroke="#9a32cd" points="667.44,-1.42 657.72,-5.63 667.95,-8.4 667.44,-1.42"/>
<text text-anchor="middle" x="779" y="-38" font-family="Helvetica,sans-Serif" font-size="10.00"> mCommunityServer</text>
</g>
</g>
</svg>
