<?xml version="1.0" encoding="UTF-8" standalone="no"?>
<!DOCTYPE svg PUBLIC "-//W3C//DTD SVG 1.1//EN"
 "http://www.w3.org/Graphics/SVG/1.1/DTD/svg11.dtd">
<!-- Generated by graphviz version 2.49.3 (20211027.1534)
 -->
<!-- Title: CacheManager Pages: 1 -->
<svg width="124pt" height="152pt"
 viewBox="0.00 0.00 124.00 152.00" xmlns="http://www.w3.org/2000/svg" xmlns:xlink="http://www.w3.org/1999/xlink">
<g id="graph0" class="graph" transform="scale(1 1) rotate(0) translate(4 148)">
<title>CacheManager</title>
<polygon fill="white" stroke="transparent" points="-4,4 -4,-148 120,-148 120,4 -4,4"/>
<!-- Node1 -->
<g id="node1" class="node">
<title>Node1</title>
<g id="a_node1"><a xlink:title=" ">
<polygon fill="#bfbfbf" stroke="black" points="1.5,-0.5 1.5,-19.5 90.5,-19.5 90.5,-0.5 1.5,-0.5"/>
<text text-anchor="middle" x="46" y="-7.5" font-family="Helvetica,sans-Serif" font-size="10.00">CacheManager</text>
</a>
</g>
</g>
<!-- Node2 -->
<g id="node2" class="node">
<title>Node2</title>
<g id="a_node2"><a xlink:href="class_fuzzy_timer.html" target="_top" xlink:title=" ">
<polygon fill="white" stroke="black" points="9.5,-67.5 9.5,-86.5 82.5,-86.5 82.5,-67.5 9.5,-67.5"/>
<text text-anchor="middle" x="46" y="-74.5" font-family="Helvetica,sans-Serif" font-size="10.00">FuzzyTimer</text>
</a>
</g>
</g>
<!-- Node2&#45;&gt;Node1 -->
<g id="edge1" class="edge">
<title>Node2&#45;&gt;Node1</title>
<path fill="none" stroke="#9a32cd" stroke-dasharray="5,2" d="M46,-57.04C46,-44.67 46,-29.12 46,-19.63"/>
<polygon fill="#9a32cd" stroke="#9a32cd" points="42.5,-57.23 46,-67.23 49.5,-57.23 42.5,-57.23"/>
<text text-anchor="middle" x="81" y="-41" font-family="Helvetica,sans-Serif" font-size="10.00"> mFuzzyTimer</text>
</g>
<!-- Node3 -->
<g id="node3" class="node">
<title>Node3</title>
<g id="a_node3"><a xlink:title=" ">
<polygon fill="white" stroke="#bfbfbf" points="0,-124.5 0,-143.5 92,-143.5 92,-124.5 0,-124.5"/>
<text text-anchor="middle" x="46" y="-131.5" font-family="Helvetica,sans-Serif" font-size="10.00">Poco::Runnable</text>
</a>
</g>
</g>
<!-- Node3&#45;&gt;Node2 -->
<g id="edge2" class="edge">
<title>Node3&#45;&gt;Node2</title>
<path fill="none" stroke="midnightblue" d="M46,-114.12C46,-104.82 46,-94.06 46,-86.71"/>
<polygon fill="midnightblue" stroke="midnightblue" points="42.5,-114.41 46,-124.41 49.5,-114.41 42.5,-114.41"/>
</g>
</g>
</svg>
