<?xml version="1.0" encoding="UTF-8" standalone="no"?>
<!DOCTYPE svg PUBLIC "-//W3C//DTD SVG 1.1//EN"
 "http://www.w3.org/Graphics/SVG/1.1/DTD/svg11.dtd">
<!-- Generated by graphviz version 3.0.0 (20220413.0242)
 -->
<!-- Title: controller::BlockIndex Pages: 1 -->
<svg width="304pt" height="95pt"
 viewBox="0.00 0.00 304.00 95.00" xmlns="http://www.w3.org/2000/svg" xmlns:xlink="http://www.w3.org/1999/xlink">
<g id="graph0" class="graph" transform="scale(1 1) rotate(0) translate(4 91)">
<title>controller::BlockIndex</title>
<polygon fill="white" stroke="transparent" points="-4,4 -4,-91 300,-91 300,4 -4,4"/>
<!-- Node1 -->
<g id="node1" class="node">
<title>Node1</title>
<g id="a_node1"><a xlink:title="store block index in memory for fast finding transactions">
<polygon fill="#bfbfbf" stroke="black" points="87,-0.5 87,-19.5 210,-19.5 210,-0.5 87,-0.5"/>
<text text-anchor="middle" x="148.5" y="-7.5" font-family="Helvetica,sans-Serif" font-size="10.00">controller::BlockIndex</text>
</a>
</g>
</g>
<!-- Node2 -->
<g id="node2" class="node">
<title>Node2</title>
<g id="a_node2"><a xlink:href="classcontroller_1_1_controller_base.html" target="_top" xlink:title=" ">
<polygon fill="white" stroke="#bfbfbf" points="0,-62 0,-81 141,-81 141,-62 0,-62"/>
<text text-anchor="middle" x="70.5" y="-69" font-family="Helvetica,sans-Serif" font-size="10.00">controller::ControllerBase</text>
</a>
</g>
</g>
<!-- Node2&#45;&gt;Node1 -->
<g id="edge1" class="edge">
<title>Node2&#45;&gt;Node1</title>
<path fill="none" stroke="midnightblue" d="M89.78,-55.79C104.74,-44.38 124.96,-28.96 137.35,-19.51"/>
<polygon fill="midnightblue" stroke="midnightblue" points="87.5,-53.13 81.68,-61.98 91.75,-58.69 87.5,-53.13"/>
</g>
<!-- Node3 -->
<g id="node3" class="node">
<title>Node3</title>
<g id="a_node3"><a xlink:href="classmodel_1_1files_1_1_i_block_index_receiver.html" target="_top" xlink:title=" ">
<polygon fill="white" stroke="#bfbfbf" points="159,-56.5 159,-86.5 296,-86.5 296,-56.5 159,-56.5"/>
<text text-anchor="start" x="167" y="-74.5" font-family="Helvetica,sans-Serif" font-size="10.00">model::files::IBlockIndex</text>
<text text-anchor="middle" x="227.5" y="-63.5" font-family="Helvetica,sans-Serif" font-size="10.00">Receiver</text>
</a>
</g>
</g>
<!-- Node3&#45;&gt;Node1 -->
<g id="edge2" class="edge">
<title>Node3&#45;&gt;Node1</title>
<path fill="none" stroke="midnightblue" d="M200.53,-50.19C186.7,-39.77 170.58,-27.63 160,-19.66"/>
<polygon fill="midnightblue" stroke="midnightblue" points="198.68,-53.18 208.78,-56.4 202.9,-47.59 198.68,-53.18"/>
</g>
</g>
</svg>
