<?xml version="1.0" encoding="UTF-8" standalone="no"?>
<!DOCTYPE svg PUBLIC "-//W3C//DTD SVG 1.1//EN"
 "http://www.w3.org/Graphics/SVG/1.1/DTD/svg11.dtd">
<!-- Generated by graphviz version 3.0.0 (20220413.0242)
 -->
<!-- Title: controller::AddressIndex Pages: 1 -->
<svg width="1319pt" height="392pt"
 viewBox="0.00 0.00 1319.00 392.13" xmlns="http://www.w3.org/2000/svg" xmlns:xlink="http://www.w3.org/1999/xlink">
<g id="graph0" class="graph" transform="scale(1 1) rotate(0) translate(4 388.13)">
<title>controller::AddressIndex</title>
<polygon fill="white" stroke="transparent" points="-4,4 -4,-388.13 1315,-388.13 1315,4 -4,4"/>
<!-- Node1 -->
<g id="node1" class="node">
<title>Node1</title>
<g id="a_node1"><a xlink:title=" ">
<polygon fill="#bfbfbf" stroke="black" points="1160,-191.63 1160,-210.63 1295,-210.63 1295,-191.63 1160,-191.63"/>
<text text-anchor="middle" x="1227.5" y="-198.63" font-family="Helvetica,sans-Serif" font-size="10.00">controller::AddressIndex</text>
</a>
</g>
</g>
<!-- Node2 -->
<g id="node2" class="node">
<title>Node2</title>
<g id="a_node2"><a xlink:href="classcontroller_1_1_controller_base.html" target="_top" xlink:title=" ">
<polygon fill="white" stroke="#bfbfbf" points="329,-236.63 329,-255.63 470,-255.63 470,-236.63 329,-236.63"/>
<text text-anchor="middle" x="399.5" y="-243.63" font-family="Helvetica,sans-Serif" font-size="10.00">controller::ControllerBase</text>
</a>
</g>
</g>
<!-- Node2&#45;&gt;Node1 -->
<g id="edge1" class="edge">
<title>Node2&#45;&gt;Node1</title>
<path fill="none" stroke="midnightblue" d="M430.94,-259.89C459.67,-272.09 504.29,-289.04 545,-296.13 672.2,-318.27 1006.65,-350.39 1126,-301.13 1171.5,-282.35 1207.25,-231.87 1220.71,-210.69"/>
<polygon fill="midnightblue" stroke="midnightblue" points="432.04,-256.55 421.47,-255.79 429.26,-262.97 432.04,-256.55"/>
</g>
<!-- Node4 -->
<g id="node4" class="node">
<title>Node4</title>
<g id="a_node4"><a xlink:href="classcontroller_1_1_group.html" target="_top" xlink:title="Main entry point for adding and searching for transactions TODO: validate transaction on startup.">
<polygon fill="white" stroke="black" points="862,-191.63 862,-210.63 960,-210.63 960,-191.63 862,-191.63"/>
<text text-anchor="middle" x="911" y="-198.63" font-family="Helvetica,sans-Serif" font-size="10.00">controller::Group</text>
</a>
</g>
</g>
<!-- Node2&#45;&gt;Node4 -->
<g id="edge4" class="edge">
<title>Node2&#45;&gt;Node4</title>
<path fill="none" stroke="midnightblue" d="M480.41,-244.47C569.52,-241.75 717.72,-234.63 844,-216.13 853.42,-214.75 863.48,-212.74 872.84,-210.64"/>
<polygon fill="midnightblue" stroke="midnightblue" points="480.27,-240.97 470.38,-244.76 480.47,-247.97 480.27,-240.97"/>
</g>
<!-- Node12 -->
<g id="node12" class="node">
<title>Node12</title>
<g id="a_node12"><a xlink:href="classcontroller_1_1_deferred_transfer.html" target="_top" xlink:title=" ">
<polygon fill="white" stroke="#bfbfbf" points="545,-191.63 545,-210.63 696,-210.63 696,-191.63 545,-191.63"/>
<text text-anchor="middle" x="620.5" y="-198.63" font-family="Helvetica,sans-Serif" font-size="10.00">controller::DeferredTransfer</text>
</a>
</g>
</g>
<!-- Node2&#45;&gt;Node12 -->
<g id="edge15" class="edge">
<title>Node2&#45;&gt;Node12</title>
<path fill="none" stroke="midnightblue" d="M456.83,-234.55C492.92,-227.14 539.17,-217.63 573.12,-210.66"/>
<polygon fill="midnightblue" stroke="midnightblue" points="456.04,-231.14 446.94,-236.58 457.44,-238 456.04,-231.14"/>
</g>
<!-- Node3 -->
<g id="node3" class="node">
<title>Node3</title>
<g id="a_node3"><a xlink:href="class_timer_callback.html" target="_top" xlink:title=" ">
<polygon fill="white" stroke="#bfbfbf" points="356,-8.63 356,-27.63 443,-27.63 443,-8.63 356,-8.63"/>
<text text-anchor="middle" x="399.5" y="-15.63" font-family="Helvetica,sans-Serif" font-size="10.00">TimerCallback</text>
</a>
</g>
</g>
<!-- Node3&#45;&gt;Node1 -->
<g id="edge2" class="edge">
<title>Node3&#45;&gt;Node1</title>
<path fill="none" stroke="midnightblue" d="M453.13,-11.08C537.04,-1.46 705.79,11.25 844,-20.13 998.39,-55.18 1163.9,-159.48 1212.4,-191.6"/>
<polygon fill="midnightblue" stroke="midnightblue" points="452.6,-7.62 443.08,-12.26 453.42,-14.57 452.6,-7.62"/>
</g>
<!-- Node8 -->
<g id="node8" class="node">
<title>Node8</title>
<g id="a_node8"><a xlink:href="classiota_1_1_message_listener.html" target="_top" xlink:title="call iota regular and check if new message on the listening index are available">
<polygon fill="white" stroke="black" points="558.5,-30.63 558.5,-49.63 682.5,-49.63 682.5,-30.63 558.5,-30.63"/>
<text text-anchor="middle" x="620.5" y="-37.63" font-family="Helvetica,sans-Serif" font-size="10.00">iota::MessageListener</text>
</a>
</g>
</g>
<!-- Node3&#45;&gt;Node8 -->
<g id="edge10" class="edge">
<title>Node3&#45;&gt;Node8</title>
<path fill="none" stroke="midnightblue" d="M453.6,-23.46C485.16,-26.63 525.31,-30.67 558.22,-33.97"/>
<polygon fill="midnightblue" stroke="midnightblue" points="453.55,-19.94 443.25,-22.42 452.85,-26.9 453.55,-19.94"/>
</g>
<!-- Node4&#45;&gt;Node1 -->
<g id="edge3" class="edge">
<title>Node4&#45;&gt;Node1</title>
<path fill="none" stroke="#9a32cd" stroke-dasharray="5,2" d="M970.15,-201.13C1023.82,-201.13 1103.48,-201.13 1159.73,-201.13"/>
<polygon fill="#9a32cd" stroke="#9a32cd" points="970.11,-197.63 960.11,-201.13 970.11,-204.63 970.11,-197.63"/>
<text text-anchor="middle" x="1052" y="-204.13" font-family="Helvetica,sans-Serif" font-size="10.00"> mParent</text>
</g>
<!-- Node14 -->
<g id="node14" class="node">
<title>Node14</title>
<g id="a_node14"><a xlink:href="classcontroller_1_1_archive_transactions_ordering.html" target="_top" xlink:title=" ">
<polygon fill="white" stroke="#bfbfbf" points="1144,-333.13 1144,-363.13 1311,-363.13 1311,-333.13 1144,-333.13"/>
<text text-anchor="start" x="1152" y="-351.13" font-family="Helvetica,sans-Serif" font-size="10.00">controller::ArchiveTransactions</text>
<text text-anchor="middle" x="1227.5" y="-340.13" font-family="Helvetica,sans-Serif" font-size="10.00">Ordering</text>
</a>
</g>
</g>
<!-- Node4&#45;&gt;Node14 -->
<g id="edge21" class="edge">
<title>Node4&#45;&gt;Node14</title>
<path fill="none" stroke="#9a32cd" stroke-dasharray="5,2" d="M917.4,-220.68C925.73,-246.88 944.39,-292.67 978,-315.13 1004.55,-332.87 1082.32,-341.11 1143.86,-344.92"/>
<polygon fill="#9a32cd" stroke="#9a32cd" points="920.65,-219.36 914.44,-210.78 913.95,-221.36 920.65,-219.36"/>
<text text-anchor="middle" x="1052" y="-346.13" font-family="Helvetica,sans-Serif" font-size="10.00"> mParentGroup</text>
</g>
<!-- Node5 -->
<g id="node5" class="node">
<title>Node5</title>
<g id="a_node5"><a xlink:title=" ">
<polygon fill="white" stroke="#bfbfbf" points="546.5,-267.63 546.5,-286.63 694.5,-286.63 694.5,-267.63 546.5,-267.63"/>
<text text-anchor="middle" x="620.5" y="-274.63" font-family="Helvetica,sans-Serif" font-size="10.00">model::IGradidoBlockchain</text>
</a>
</g>
</g>
<!-- Node5&#45;&gt;Node4 -->
<g id="edge5" class="edge">
<title>Node5&#45;&gt;Node4</title>
<path fill="none" stroke="midnightblue" d="M704.77,-278.99C747.75,-277.3 800.21,-270.99 844,-253.13 867.5,-243.54 889.55,-222.96 901.26,-210.76"/>
<polygon fill="midnightblue" stroke="midnightblue" points="704.51,-275.5 694.62,-279.31 704.73,-282.49 704.51,-275.5"/>
</g>
<!-- Node6 -->
<g id="node6" class="node">
<title>Node6</title>
<g id="a_node6"><a xlink:href="class_task_observer.html" target="_top" xlink:title=" ">
<polygon fill="white" stroke="#bfbfbf" points="579,-106.63 579,-125.63 662,-125.63 662,-106.63 579,-106.63"/>
<text text-anchor="middle" x="620.5" y="-113.63" font-family="Helvetica,sans-Serif" font-size="10.00">TaskObserver</text>
</a>
</g>
</g>
<!-- Node6&#45;&gt;Node4 -->
<g id="edge6" class="edge">
<title>Node6&#45;&gt;Node4</title>
<path fill="none" stroke="#9a32cd" stroke-dasharray="5,2" d="M672.34,-111.6C719.11,-109.55 789.3,-111.9 844,-137.13 870.38,-149.29 892.61,-176.51 903.26,-191.22"/>
<polygon fill="#9a32cd" stroke="#9a32cd" points="671.95,-108.12 662.14,-112.14 672.31,-115.11 671.95,-108.12"/>
<text text-anchor="middle" x="779" y="-140.13" font-family="Helvetica,sans-Serif" font-size="10.00"> mTaskObserver</text>
</g>
<!-- Node7 -->
<g id="node7" class="node">
<title>Node7</title>
<g id="a_node7"><a xlink:title=" ">
<polygon fill="white" stroke="#bfbfbf" points="339.5,-91.63 339.5,-110.63 459.5,-110.63 459.5,-91.63 339.5,-91.63"/>
<text text-anchor="middle" x="399.5" y="-98.63" font-family="Helvetica,sans-Serif" font-size="10.00">MultithreadContainer</text>
</a>
</g>
</g>
<!-- Node7&#45;&gt;Node6 -->
<g id="edge7" class="edge">
<title>Node7&#45;&gt;Node6</title>
<path fill="none" stroke="midnightblue" d="M470.17,-105.9C506.01,-108.35 548.44,-111.26 578.9,-113.35"/>
<polygon fill="midnightblue" stroke="midnightblue" points="469.98,-102.38 459.76,-105.19 469.5,-109.36 469.98,-102.38"/>
</g>
<!-- Node7&#45;&gt;Node8 -->
<g id="edge9" class="edge">
<title>Node7&#45;&gt;Node8</title>
<path fill="none" stroke="midnightblue" d="M442,-88.67C470.83,-80.11 510.17,-68.63 545,-59.13 556.72,-55.93 569.52,-52.61 581.15,-49.65"/>
<polygon fill="midnightblue" stroke="midnightblue" points="440.86,-85.36 432.27,-91.56 442.85,-92.07 440.86,-85.36"/>
</g>
<!-- Node8&#45;&gt;Node4 -->
<g id="edge8" class="edge">
<title>Node8&#45;&gt;Node4</title>
<path fill="none" stroke="#9a32cd" stroke-dasharray="5,2" d="M672.01,-28.83C720.5,-21 793.61,-17.37 844,-52.13 892.67,-85.7 905.86,-163.77 909.06,-191.3"/>
<polygon fill="#9a32cd" stroke="#9a32cd" points="671.31,-25.4 662.05,-30.56 672.51,-32.3 671.31,-25.4"/>
<text text-anchor="middle" x="779" y="-55.13" font-family="Helvetica,sans-Serif" font-size="10.00"> mIotaMessageListener</text>
</g>
<!-- Node9 -->
<g id="node9" class="node">
<title>Node9</title>
<g id="a_node9"><a xlink:href="classmodel_1_1files_1_1_state.html" target="_top" xlink:title=" ">
<polygon fill="white" stroke="#bfbfbf" points="347,-169.63 347,-188.63 452,-188.63 452,-169.63 347,-169.63"/>
<text text-anchor="middle" x="399.5" y="-176.63" font-family="Helvetica,sans-Serif" font-size="10.00">model::files::State</text>
</a>
</g>
</g>
<!-- Node9&#45;&gt;Node4 -->
<g id="edge11" class="edge">
<title>Node9&#45;&gt;Node4</title>
<path fill="none" stroke="#9a32cd" stroke-dasharray="5,2" d="M462.59,-174.94C488.1,-173.41 517.96,-171.87 545,-171.13 612.09,-169.27 629.05,-166.46 696,-171.13 753.26,-175.12 818.52,-185.06 861.76,-192.41"/>
<polygon fill="#9a32cd" stroke="#9a32cd" points="462.07,-171.46 452.3,-175.56 462.5,-178.45 462.07,-171.46"/>
<text text-anchor="middle" x="620.5" y="-174.13" font-family="Helvetica,sans-Serif" font-size="10.00"> mGroupState</text>
</g>
<!-- Node9&#45;&gt;Node12 -->
<g id="edge16" class="edge">
<title>Node9&#45;&gt;Node12</title>
<path fill="none" stroke="#9a32cd" stroke-dasharray="5,2" d="M462.08,-185.31C487.71,-187.89 517.7,-190.9 544.58,-193.6"/>
<polygon fill="#9a32cd" stroke="#9a32cd" points="462.42,-181.83 452.12,-184.31 461.72,-188.79 462.42,-181.83"/>
<text text-anchor="middle" x="507.5" y="-194.13" font-family="Helvetica,sans-Serif" font-size="10.00"> mState</text>
</g>
<!-- Node10 -->
<g id="node10" class="node">
<title>Node10</title>
<g id="a_node10"><a xlink:href="classmodel_1_1files_1_1_file_base.html" target="_top" xlink:title=" ">
<polygon fill="white" stroke="#bfbfbf" points="171,-169.63 171,-188.63 292,-188.63 292,-169.63 171,-169.63"/>
<text text-anchor="middle" x="231.5" y="-176.63" font-family="Helvetica,sans-Serif" font-size="10.00">model::files::FileBase</text>
</a>
</g>
</g>
<!-- Node10&#45;&gt;Node9 -->
<g id="edge12" class="edge">
<title>Node10&#45;&gt;Node9</title>
<path fill="none" stroke="midnightblue" d="M302.6,-179.13C317.45,-179.13 332.87,-179.13 346.89,-179.13"/>
<polygon fill="midnightblue" stroke="midnightblue" points="302.43,-175.63 292.43,-179.13 302.43,-182.63 302.43,-175.63"/>
</g>
<!-- Node11 -->
<g id="node11" class="node">
<title>Node11</title>
<g id="a_node11"><a xlink:title=" ">
<polygon fill="white" stroke="#bfbfbf" points="0,-169.63 0,-188.63 134,-188.63 134,-169.63 0,-169.63"/>
<text text-anchor="middle" x="67" y="-176.63" font-family="Helvetica,sans-Serif" font-size="10.00">Poco::RefCountedObject</text>
</a>
</g>
</g>
<!-- Node11&#45;&gt;Node10 -->
<g id="edge13" class="edge">
<title>Node11&#45;&gt;Node10</title>
<path fill="none" stroke="midnightblue" d="M144.12,-179.13C153.06,-179.13 162.08,-179.13 170.74,-179.13"/>
<polygon fill="midnightblue" stroke="midnightblue" points="144.1,-175.63 134.09,-179.13 144.09,-182.63 144.1,-175.63"/>
</g>
<!-- Node12&#45;&gt;Node4 -->
<g id="edge14" class="edge">
<title>Node12&#45;&gt;Node4</title>
<path fill="none" stroke="#9a32cd" stroke-dasharray="5,2" d="M706.46,-201.13C757.13,-201.13 819.62,-201.13 861.89,-201.13"/>
<polygon fill="#9a32cd" stroke="#9a32cd" points="706.17,-197.63 696.17,-201.13 706.17,-204.63 706.17,-197.63"/>
<text text-anchor="middle" x="779" y="-204.13" font-family="Helvetica,sans-Serif" font-size="10.00"> mDeferredTransfersCache</text>
</g>
<!-- Node13 -->
<g id="node13" class="node">
<title>Node13</title>
<g id="a_node13"><a xlink:href="classclient_1_1_base.html" target="_top" xlink:title=" ">
<polygon fill="white" stroke="#bfbfbf" points="583.5,-68.63 583.5,-87.63 657.5,-87.63 657.5,-68.63 583.5,-68.63"/>
<text text-anchor="middle" x="620.5" y="-75.63" font-family="Helvetica,sans-Serif" font-size="10.00">client::Base</text>
</a>
</g>
</g>
<!-- Node13&#45;&gt;Node4 -->
<g id="edge17" class="edge">
<title>Node13&#45;&gt;Node4</title>
<path fill="none" stroke="#9a32cd" stroke-dasharray="5,2" d="M667.66,-70.47C715.38,-65.01 790.28,-63.55 844,-96.13 880.82,-118.46 900.39,-169.98 907.19,-191.46"/>
<polygon fill="#9a32cd" stroke="#9a32cd" points="667.1,-67.01 657.61,-71.72 667.97,-73.96 667.1,-67.01"/>
<text text-anchor="middle" x="779" y="-99.13" font-family="Helvetica,sans-Serif" font-size="10.00"> mCommunityServer</text>
</g>
<!-- Node14&#45;&gt;Node4 -->
<g id="edge18" class="edge">
<title>Node14&#45;&gt;Node4</title>
<path fill="none" stroke="#9a32cd" stroke-dasharray="5,2" d="M1184.79,-328.63C1116.59,-296.75 983.67,-234.62 932.64,-210.77"/>
<polygon fill="#9a32cd" stroke="#9a32cd" points="1183.43,-331.86 1193.97,-332.92 1186.4,-325.52 1183.43,-331.86"/>
<text text-anchor="middle" x="1052" y="-303.13" font-family="Helvetica,sans-Serif" font-size="10.00"> mArchiveTransactionOrdering</text>
</g>
<!-- Node15 -->
<g id="node15" class="node">
<title>Node15</title>
<g id="a_node15"><a xlink:href="classtask_1_1_thread.html" target="_top" xlink:title=" ">
<polygon fill="white" stroke="#bfbfbf" points="872.5,-364.63 872.5,-383.63 949.5,-383.63 949.5,-364.63 872.5,-364.63"/>
<text text-anchor="middle" x="911" y="-371.63" font-family="Helvetica,sans-Serif" font-size="10.00">task::Thread</text>
</a>
</g>
</g>
<!-- Node15&#45;&gt;Node14 -->
<g id="edge19" class="edge">
<title>Node15&#45;&gt;Node14</title>
<path fill="none" stroke="midnightblue" d="M959.53,-371.75C1002.94,-369.4 1068.85,-365.4 1126,-360.13 1131.86,-359.59 1137.91,-358.98 1144,-358.34"/>
<polygon fill="midnightblue" stroke="midnightblue" points="959.35,-368.25 949.55,-372.28 959.72,-375.24 959.35,-368.25"/>
</g>
<!-- Node16 -->
<g id="node16" class="node">
<title>Node16</title>
<g id="a_node16"><a xlink:title=" ">
<polygon fill="white" stroke="#bfbfbf" points="574.5,-364.63 574.5,-383.63 666.5,-383.63 666.5,-364.63 574.5,-364.63"/>
<text text-anchor="middle" x="620.5" y="-371.63" font-family="Helvetica,sans-Serif" font-size="10.00">Poco::Runnable</text>
</a>
</g>
</g>
<!-- Node16&#45;&gt;Node15 -->
<g id="edge20" class="edge">
<title>Node16&#45;&gt;Node15</title>
<path fill="none" stroke="midnightblue" d="M676.91,-374.13C734.26,-374.13 822.28,-374.13 872.14,-374.13"/>
<polygon fill="midnightblue" stroke="midnightblue" points="676.58,-370.63 666.58,-374.13 676.58,-377.63 676.58,-370.63"/>
</g>
</g>
</svg>
