<?xml version="1.0" encoding="UTF-8" standalone="no"?>
<!DOCTYPE svg PUBLIC "-//W3C//DTD SVG 1.1//EN"
 "http://www.w3.org/Graphics/SVG/1.1/DTD/svg11.dtd">
<!-- Generated by graphviz version 2.49.3 (20211027.1534)
 -->
<!-- Title: WriteTransactionsToBlockTask Pages: 1 -->
<svg width="182pt" height="209pt"
 viewBox="0.00 0.00 181.50 209.00" xmlns="http://www.w3.org/2000/svg" xmlns:xlink="http://www.w3.org/1999/xlink">
<g id="graph0" class="graph" transform="scale(1 1) rotate(0) translate(4 205)">
<title>WriteTransactionsToBlockTask</title>
<polygon fill="white" stroke="transparent" points="-4,4 -4,-205 177.5,-205 177.5,4 -4,4"/>
<!-- Node1 -->
<g id="node1" class="node">
<title>Node1</title>
<g id="a_node1"><a xlink:title="Task for collecting transactions and write it to block chain after timeout.">
<polygon fill="#bfbfbf" stroke="black" points="0,-0.5 0,-19.5 163,-19.5 163,-0.5 0,-0.5"/>
<text text-anchor="middle" x="81.5" y="-7.5" font-family="Helvetica,sans-Serif" font-size="10.00">WriteTransactionsToBlockTask</text>
</a>
</g>
</g>
<!-- Node2 -->
<g id="node2" class="node">
<title>Node2</title>
<g id="a_node2"><a xlink:href="classtask_1_1_c_p_u_task.html" target="_top" xlink:title=" ">
<polygon fill="white" stroke="black" points="38.5,-57.5 38.5,-76.5 124.5,-76.5 124.5,-57.5 38.5,-57.5"/>
<text text-anchor="middle" x="81.5" y="-64.5" font-family="Helvetica,sans-Serif" font-size="10.00">task::CPUTask</text>
</a>
</g>
</g>
<!-- Node2&#45;&gt;Node1 -->
<g id="edge1" class="edge">
<title>Node2&#45;&gt;Node1</title>
<path fill="none" stroke="midnightblue" d="M81.5,-47.12C81.5,-37.82 81.5,-27.06 81.5,-19.71"/>
<polygon fill="midnightblue" stroke="midnightblue" points="78,-47.41 81.5,-57.41 85,-47.41 78,-47.41"/>
</g>
<!-- Node3 -->
<g id="node3" class="node">
<title>Node3</title>
<g id="a_node3"><a xlink:href="classtask_1_1_task.html" target="_top" xlink:title=" ">
<polygon fill="white" stroke="black" points="49,-114.5 49,-133.5 114,-133.5 114,-114.5 49,-114.5"/>
<text text-anchor="middle" x="81.5" y="-121.5" font-family="Helvetica,sans-Serif" font-size="10.00">task::Task</text>
</a>
</g>
</g>
<!-- Node3&#45;&gt;Node2 -->
<g id="edge2" class="edge">
<title>Node3&#45;&gt;Node2</title>
<path fill="none" stroke="midnightblue" d="M81.5,-104.12C81.5,-94.82 81.5,-84.06 81.5,-76.71"/>
<polygon fill="midnightblue" stroke="midnightblue" points="78,-104.41 81.5,-114.41 85,-104.41 78,-104.41"/>
</g>
<!-- Node4 -->
<g id="node4" class="node">
<title>Node4</title>
<g id="a_node4"><a xlink:href="classtask_1_1_command.html" target="_top" xlink:title=" ">
<polygon fill="white" stroke="black" points="34.5,-181.5 34.5,-200.5 128.5,-200.5 128.5,-181.5 34.5,-181.5"/>
<text text-anchor="middle" x="81.5" y="-188.5" font-family="Helvetica,sans-Serif" font-size="10.00">task::Command</text>
</a>
</g>
</g>
<!-- Node4&#45;&gt;Node3 -->
<g id="edge3" class="edge">
<title>Node4&#45;&gt;Node3</title>
<path fill="none" stroke="#9a32cd" stroke-dasharray="5,2" d="M81.5,-171.04C81.5,-158.67 81.5,-143.12 81.5,-133.63"/>
<polygon fill="#9a32cd" stroke="#9a32cd" points="78,-171.23 81.5,-181.23 85,-171.23 78,-171.23"/>
<text text-anchor="middle" x="127.5" y="-155" font-family="Helvetica,sans-Serif" font-size="10.00"> mFinishCommand</text>
</g>
</g>
</svg>
