<?xml version="1.0" encoding="UTF-8" standalone="no"?>
<!DOCTYPE svg PUBLIC "-//W3C//DTD SVG 1.1//EN"
 "http://www.w3.org/Graphics/SVG/1.1/DTD/svg11.dtd">
<!-- Generated by graphviz version 3.0.0 (20220413.0242)
 -->
<!-- Title: VirtualFile::read Pages: 1 -->
<svg width="458pt" height="213pt"
 viewBox="0.00 0.00 458.00 212.89" xmlns="http://www.w3.org/2000/svg" xmlns:xlink="http://www.w3.org/1999/xlink">
<g id="graph0" class="graph" transform="scale(1 1) rotate(0) translate(4 208.89)">
<title>VirtualFile::read</title>
<polygon fill="white" stroke="transparent" points="-4,4 -4,-208.89 454,-208.89 454,4 -4,4"/>
<!-- Node1 -->
<g id="node1" class="node">
<title>Node1</title>
<g id="a_node1"><a xlink:title="copy from buffer over into dst, move cursor">
<polygon fill="#bfbfbf" stroke="black" points="356,-104 356,-123 450,-123 450,-104 356,-104"/>
<text text-anchor="middle" x="403" y="-111" font-family="Helvetica,sans-Serif" font-size="10.00">VirtualFile::read</text>
</a>
</g>
</g>
<!-- Node2 -->
<g id="node2" class="node">
<title>Node2</title>
<g id="a_node2"><a xlink:href="classmodel_1_1files_1_1_block_index.html#ae197b4a43d106d58b23a102f2598ca0c" target="_top" xlink:title="read from file, put content into receiver">
<polygon fill="white" stroke="black" points="0,-169.5 0,-199.5 134,-199.5 134,-169.5 0,-169.5"/>
<text text-anchor="start" x="8" y="-187.5" font-family="Helvetica,sans-Serif" font-size="10.00">model::files::BlockIndex</text>
<text text-anchor="middle" x="67" y="-176.5" font-family="Helvetica,sans-Serif" font-size="10.00">::readFromFile</text>
</a>
</g>
</g>
<!-- Node1&#45;&gt;Node2 -->
<g id="edge1" class="edge">
<title>Node1&#45;&gt;Node2</title>
<path fill="none" stroke="midnightblue" d="M389.02,-131.17C374.53,-149.26 349.22,-176.26 320,-187.5 260.17,-210.5 186.29,-206.2 134.04,-198.3"/>
<polygon fill="midnightblue" stroke="midnightblue" points="391.9,-133.17 395.24,-123.11 386.36,-128.89 391.9,-133.17"/>
</g>
<!-- Node3 -->
<g id="node3" class="node">
<title>Node3</title>
<g id="a_node3"><a xlink:href="structmodel_1_1files_1_1_block_index_1_1_block.html#af6656e044626dfb1bf1c7efdb43794c5" target="_top" xlink:title="return false if reading failed, file to short?">
<polygon fill="white" stroke="black" points="178,-147.5 178,-177.5 312,-177.5 312,-147.5 178,-147.5"/>
<text text-anchor="start" x="186" y="-165.5" font-family="Helvetica,sans-Serif" font-size="10.00">model::files::BlockIndex</text>
<text text-anchor="middle" x="245" y="-154.5" font-family="Helvetica,sans-Serif" font-size="10.00">::Block::readFromFile</text>
</a>
</g>
</g>
<!-- Node1&#45;&gt;Node3 -->
<g id="edge2" class="edge">
<title>Node1&#45;&gt;Node3</title>
<path fill="none" stroke="midnightblue" d="M361.79,-126.13C341.05,-132.64 315.62,-140.63 293.87,-147.46"/>
<polygon fill="midnightblue" stroke="midnightblue" points="363.06,-129.4 371.55,-123.06 360.96,-122.72 363.06,-129.4"/>
</g>
<!-- Node4 -->
<g id="node4" class="node">
<title>Node4</title>
<g id="a_node4"><a xlink:href="structmodel_1_1files_1_1_block_index_1_1_year_block.html#a71a29b5956b8dd001a6afbce0c2a7397" target="_top" xlink:title="return false if reading failed, file to short?">
<polygon fill="white" stroke="black" points="175,-98.5 175,-128.5 315,-128.5 315,-98.5 175,-98.5"/>
<text text-anchor="start" x="183" y="-116.5" font-family="Helvetica,sans-Serif" font-size="10.00">model::files::BlockIndex</text>
<text text-anchor="middle" x="245" y="-105.5" font-family="Helvetica,sans-Serif" font-size="10.00">::YearBlock::readFromFile</text>
</a>
</g>
</g>
<!-- Node1&#45;&gt;Node4 -->
<g id="edge4" class="edge">
<title>Node1&#45;&gt;Node4</title>
<path fill="none" stroke="midnightblue" d="M345.51,-113.5C335.61,-113.5 325.21,-113.5 315.02,-113.5"/>
<polygon fill="midnightblue" stroke="midnightblue" points="345.62,-117 355.62,-113.5 345.62,-110 345.62,-117"/>
</g>
<!-- Node5 -->
<g id="node5" class="node">
<title>Node5</title>
<g id="a_node5"><a xlink:href="structmodel_1_1files_1_1_block_index_1_1_month_block.html#a0cac5c5a963728dfe4022bbb66299e27" target="_top" xlink:title="return false if reading failed, file to short?">
<polygon fill="white" stroke="black" points="170,-49.5 170,-79.5 320,-79.5 320,-49.5 170,-49.5"/>
<text text-anchor="start" x="178" y="-67.5" font-family="Helvetica,sans-Serif" font-size="10.00">model::files::BlockIndex</text>
<text text-anchor="middle" x="245" y="-56.5" font-family="Helvetica,sans-Serif" font-size="10.00">::MonthBlock::readFromFile</text>
</a>
</g>
</g>
<!-- Node1&#45;&gt;Node5 -->
<g id="edge5" class="edge">
<title>Node1&#45;&gt;Node5</title>
<path fill="none" stroke="midnightblue" d="M361.79,-100.87C341.05,-94.36 315.62,-86.37 293.87,-79.54"/>
<polygon fill="midnightblue" stroke="midnightblue" points="360.96,-104.28 371.55,-103.94 363.06,-97.6 360.96,-104.28"/>
</g>
<!-- Node6 -->
<g id="node6" class="node">
<title>Node6</title>
<g id="a_node6"><a xlink:href="structmodel_1_1files_1_1_block_index_1_1_data_block.html#a10fd3d1ca94ecfa28e43bcda086b8eef" target="_top" xlink:title="return false if reading failed, file to short?">
<polygon fill="white" stroke="black" points="173.5,-0.5 173.5,-30.5 316.5,-30.5 316.5,-0.5 173.5,-0.5"/>
<text text-anchor="start" x="181.5" y="-18.5" font-family="Helvetica,sans-Serif" font-size="10.00">model::files::BlockIndex</text>
<text text-anchor="middle" x="245" y="-7.5" font-family="Helvetica,sans-Serif" font-size="10.00">::DataBlock::readFromFile</text>
</a>
</g>
</g>
<!-- Node1&#45;&gt;Node6 -->
<g id="edge6" class="edge">
<title>Node1&#45;&gt;Node6</title>
<path fill="none" stroke="midnightblue" d="M386.21,-95.84C370.75,-79.49 345.82,-55.51 320,-40.5 313.55,-36.75 306.46,-33.46 299.3,-30.6"/>
<polygon fill="midnightblue" stroke="midnightblue" points="384.03,-98.64 393.38,-103.61 389.17,-93.89 384.03,-98.64"/>
</g>
<!-- Node3&#45;&gt;Node2 -->
<g id="edge3" class="edge">
<title>Node3&#45;&gt;Node2</title>
<path fill="none" stroke="midnightblue" d="M167.77,-172.03C156.56,-173.43 145.09,-174.86 134.11,-176.24"/>
<polygon fill="midnightblue" stroke="midnightblue" points="168.47,-175.47 177.96,-170.75 167.61,-168.52 168.47,-175.47"/>
</g>
</g>
</svg>
