<?xml version="1.0" encoding="UTF-8" standalone="no"?>
<!DOCTYPE svg PUBLIC "-//W3C//DTD SVG 1.1//EN"
 "http://www.w3.org/Graphics/SVG/1.1/DTD/svg11.dtd">
<!-- Generated by graphviz version 3.0.0 (20220413.0242)
 -->
<!-- Title: model::files::AddressIndex::calculateHash Pages: 1 -->
<svg width="518pt" height="137pt"
 viewBox="0.00 0.00 518.00 137.00" xmlns="http://www.w3.org/2000/svg" xmlns:xlink="http://www.w3.org/1999/xlink">
<g id="graph0" class="graph" transform="scale(1 1) rotate(0) translate(4 133)">
<title>model::files::AddressIndex::calculateHash</title>
<polygon fill="white" stroke="transparent" points="-4,4 -4,-133 514,-133 514,4 -4,4"/>
<!-- Node1 -->
<g id="node1" class="node">
<title>Node1</title>
<g id="a_node1"><a xlink:title="Calculate file hash from map entrys sorted by indices.">
<polygon fill="#bfbfbf" stroke="black" points="364,-49.5 364,-79.5 510,-79.5 510,-49.5 364,-49.5"/>
<text text-anchor="start" x="372" y="-67.5" font-family="Helvetica,sans-Serif" font-size="10.00">model::files::AddressIndex</text>
<text text-anchor="middle" x="437" y="-56.5" font-family="Helvetica,sans-Serif" font-size="10.00">::calculateHash</text>
</a>
</g>
</g>
<!-- Node2 -->
<g id="node2" class="node">
<title>Node2</title>
<g id="a_node2"><a xlink:href="classmodel_1_1files_1_1_address_index.html#a1fd0f56e79272681f80bf099238a485a" target="_top" xlink:title="Load index, public key pairs from file and check file integrity with sha256 hash at end of file,...">
<polygon fill="white" stroke="black" points="182,-98.5 182,-128.5 328,-128.5 328,-98.5 182,-98.5"/>
<text text-anchor="start" x="190" y="-116.5" font-family="Helvetica,sans-Serif" font-size="10.00">model::files::AddressIndex</text>
<text text-anchor="middle" x="255" y="-105.5" font-family="Helvetica,sans-Serif" font-size="10.00">::loadFromFile</text>
</a>
</g>
</g>
<!-- Node1&#45;&gt;Node2 -->
<g id="edge1" class="edge">
<title>Node1&#45;&gt;Node2</title>
<path fill="none" stroke="midnightblue" d="M370.8,-82.25C351.29,-87.56 330.1,-93.33 311.29,-98.45"/>
<polygon fill="midnightblue" stroke="midnightblue" points="371.8,-85.61 380.53,-79.6 369.96,-78.85 371.8,-85.61"/>
</g>
<!-- Node4 -->
<g id="node4" class="node">
<title>Node4</title>
<g id="a_node4"><a xlink:href="classmodel_1_1files_1_1_address_index.html#a2d88a425287729406bd2331e83c00451" target="_top" xlink:title="serialize address indices for writing with hdd write buffer task">
<polygon fill="white" stroke="black" points="182,-49.5 182,-79.5 328,-79.5 328,-49.5 182,-49.5"/>
<text text-anchor="start" x="190" y="-67.5" font-family="Helvetica,sans-Serif" font-size="10.00">model::files::AddressIndex</text>
<text text-anchor="middle" x="255" y="-56.5" font-family="Helvetica,sans-Serif" font-size="10.00">::serialize</text>
</a>
</g>
</g>
<!-- Node1&#45;&gt;Node4 -->
<g id="edge3" class="edge">
<title>Node1&#45;&gt;Node4</title>
<path fill="none" stroke="midnightblue" d="M353.56,-64.5C345.09,-64.5 336.54,-64.5 328.19,-64.5"/>
<polygon fill="midnightblue" stroke="midnightblue" points="353.82,-68 363.82,-64.5 353.82,-61 353.82,-68"/>
</g>
<!-- Node5 -->
<g id="node5" class="node">
<title>Node5</title>
<g id="a_node5"><a xlink:href="classmodel_1_1files_1_1_address_index.html#ac530703f10a574559e0885acd257a2ea" target="_top" xlink:title="Write new index file if checkFile return true, use Poco::FastMutex::ScopedLock, fileLock via FileLock...">
<polygon fill="white" stroke="black" points="182,-0.5 182,-30.5 328,-30.5 328,-0.5 182,-0.5"/>
<text text-anchor="start" x="190" y="-18.5" font-family="Helvetica,sans-Serif" font-size="10.00">model::files::AddressIndex</text>
<text text-anchor="middle" x="255" y="-7.5" font-family="Helvetica,sans-Serif" font-size="10.00">::writeToFile</text>
</a>
</g>
</g>
<!-- Node1&#45;&gt;Node5 -->
<g id="edge4" class="edge">
<title>Node1&#45;&gt;Node5</title>
<path fill="none" stroke="midnightblue" d="M370.8,-46.75C351.29,-41.44 330.1,-35.67 311.29,-30.55"/>
<polygon fill="midnightblue" stroke="midnightblue" points="369.96,-50.15 380.53,-49.4 371.8,-43.39 369.96,-50.15"/>
</g>
<!-- Node3 -->
<g id="node3" class="node">
<title>Node3</title>
<g id="a_node3"><a xlink:href="classmodel_1_1files_1_1_address_index.html#a41141dcd1983c745a3472e8ebbb191e5" target="_top" xlink:title="Load from file if exist, fileLock via FileLockManager, I/O read if exist.">
<polygon fill="white" stroke="black" points="0,-98.5 0,-128.5 146,-128.5 146,-98.5 0,-98.5"/>
<text text-anchor="start" x="8" y="-116.5" font-family="Helvetica,sans-Serif" font-size="10.00">model::files::AddressIndex</text>
<text text-anchor="middle" x="73" y="-105.5" font-family="Helvetica,sans-Serif" font-size="10.00">::AddressIndex</text>
</a>
</g>
</g>
<!-- Node2&#45;&gt;Node3 -->
<g id="edge2" class="edge">
<title>Node2&#45;&gt;Node3</title>
<path fill="none" stroke="midnightblue" d="M171.56,-113.5C163.09,-113.5 154.54,-113.5 146.19,-113.5"/>
<polygon fill="midnightblue" stroke="midnightblue" points="171.82,-117 181.82,-113.5 171.82,-110 171.82,-117"/>
</g>
</g>
</svg>
