<?xml version="1.0" encoding="UTF-8" standalone="no"?>
<!DOCTYPE svg PUBLIC "-//W3C//DTD SVG 1.1//EN"
 "http://www.w3.org/Graphics/SVG/1.1/DTD/svg11.dtd">
<!-- Generated by graphviz version 2.49.3 (20211027.1534)
 -->
<!-- Title: model::files::State::getValueForKey Pages: 1 -->
<svg width="412pt" height="88pt"
 viewBox="0.00 0.00 412.00 88.00" xmlns="http://www.w3.org/2000/svg" xmlns:xlink="http://www.w3.org/1999/xlink">
<g id="graph0" class="graph" transform="scale(1 1) rotate(0) translate(4 84)">
<title>model::files::State::getValueForKey</title>
<polygon fill="white" stroke="transparent" points="-4,4 -4,-84 408,-84 408,4 -4,4"/>
<!-- Node1 -->
<g id="node1" class="node">
<title>Node1</title>
<g id="a_node1"><a xlink:title=" ">
<polygon fill="#bfbfbf" stroke="black" points="299,-24.5 299,-54.5 404,-54.5 404,-24.5 299,-24.5"/>
<text text-anchor="start" x="307" y="-42.5" font-family="Helvetica,sans-Serif" font-size="10.00">model::files::State</text>
<text text-anchor="middle" x="351.5" y="-31.5" font-family="Helvetica,sans-Serif" font-size="10.00">::getValueForKey</text>
</a>
</g>
</g>
<!-- Node2 -->
<g id="node2" class="node">
<title>Node2</title>
<g id="a_node2"><a xlink:href="classmodel_1_1files_1_1_state.html#a0ca70c716759d3055f0cb12f67f16f0f" target="_top" xlink:title=" ">
<polygon fill="white" stroke="black" points="149,-49.5 149,-79.5 254,-79.5 254,-49.5 149,-49.5"/>
<text text-anchor="start" x="157" y="-67.5" font-family="Helvetica,sans-Serif" font-size="10.00">model::files::State</text>
<text text-anchor="middle" x="201.5" y="-56.5" font-family="Helvetica,sans-Serif" font-size="10.00">::addKeyValue</text>
</a>
</g>
</g>
<!-- Node1&#45;&gt;Node2 -->
<g id="edge1" class="edge">
<title>Node1&#45;&gt;Node2</title>
<path fill="none" stroke="midnightblue" d="M288.77,-49.93C277.28,-51.87 265.39,-53.88 254.23,-55.76"/>
<polygon fill="midnightblue" stroke="midnightblue" points="289.46,-53.36 298.74,-48.24 288.29,-46.46 289.46,-53.36"/>
</g>
<!-- Node3 -->
<g id="node3" class="node">
<title>Node3</title>
<g id="a_node3"><a xlink:href="classmodel_1_1files_1_1_state.html#aea0bf6dc774c0846f2b36cb8ffd5574b" target="_top" xlink:title=" ">
<polygon fill="white" stroke="black" points="140,-0.5 140,-30.5 263,-30.5 263,-0.5 140,-0.5"/>
<text text-anchor="start" x="148" y="-18.5" font-family="Helvetica,sans-Serif" font-size="10.00">model::files::State</text>
<text text-anchor="middle" x="201.5" y="-7.5" font-family="Helvetica,sans-Serif" font-size="10.00">::getInt32ValueForKey</text>
</a>
</g>
</g>
<!-- Node1&#45;&gt;Node3 -->
<g id="edge2" class="edge">
<title>Node1&#45;&gt;Node3</title>
<path fill="none" stroke="midnightblue" d="M288.59,-29.46C280.17,-28.09 271.52,-26.69 263.12,-25.33"/>
<polygon fill="midnightblue" stroke="midnightblue" points="288.31,-32.96 298.74,-31.11 289.43,-26.05 288.31,-32.96"/>
</g>
<!-- Node4 -->
<g id="node4" class="node">
<title>Node4</title>
<g id="a_node4"><a xlink:href="classcontroller_1_1_group.html#a6a5994004f8d4f6d2d3b7df0498b8bb8" target="_top" xlink:title="Load group states via model::files::GroupState.">
<polygon fill="white" stroke="black" points="0,-0.5 0,-30.5 104,-30.5 104,-0.5 0,-0.5"/>
<text text-anchor="start" x="8" y="-18.5" font-family="Helvetica,sans-Serif" font-size="10.00">controller::Group::</text>
<text text-anchor="middle" x="52" y="-7.5" font-family="Helvetica,sans-Serif" font-size="10.00">Group</text>
</a>
</g>
</g>
<!-- Node3&#45;&gt;Node4 -->
<g id="edge3" class="edge">
<title>Node3&#45;&gt;Node4</title>
<path fill="none" stroke="midnightblue" d="M129.39,-15.5C120.93,-15.5 112.42,-15.5 104.31,-15.5"/>
<polygon fill="midnightblue" stroke="midnightblue" points="129.65,-19 139.65,-15.5 129.65,-12 129.65,-19"/>
</g>
</g>
</svg>
