<?xml version="1.0" encoding="UTF-8" standalone="no"?>
<!DOCTYPE svg PUBLIC "-//W3C//DTD SVG 1.1//EN"
 "http://www.w3.org/Graphics/SVG/1.1/DTD/svg11.dtd">
<!-- Generated by graphviz version 3.0.0 (20220413.0242)
 -->
<!-- Title: task::SerializeToVFileTask Pages: 1 -->
<svg width="171pt" height="209pt"
 viewBox="0.00 0.00 171.00 209.00" xmlns="http://www.w3.org/2000/svg" xmlns:xlink="http://www.w3.org/1999/xlink">
<g id="graph0" class="graph" transform="scale(1 1) rotate(0) translate(4 205)">
<title>task::SerializeToVFileTask</title>
<polygon fill="white" stroke="transparent" points="-4,4 -4,-205 167,-205 167,4 -4,4"/>
<!-- Node1 -->
<g id="node1" class="node">
<title>Node1</title>
<g id="a_node1"><a xlink:title="Task for serializing binary data in preparing for saving in file.">
<polygon fill="#bfbfbf" stroke="black" points="0,-0.5 0,-19.5 142,-19.5 142,-0.5 0,-0.5"/>
<text text-anchor="middle" x="71" y="-7.5" font-family="Helvetica,sans-Serif" font-size="10.00">task::SerializeToVFileTask</text>
</a>
</g>
</g>
<!-- Node2 -->
<g id="node2" class="node">
<title>Node2</title>
<g id="a_node2"><a xlink:href="classtask_1_1_c_p_u_task.html" target="_top" xlink:title=" ">
<polygon fill="white" stroke="#bfbfbf" points="28,-57.5 28,-76.5 114,-76.5 114,-57.5 28,-57.5"/>
<text text-anchor="middle" x="71" y="-64.5" font-family="Helvetica,sans-Serif" font-size="10.00">task::CPUTask</text>
</a>
</g>
</g>
<!-- Node2&#45;&gt;Node1 -->
<g id="edge1" class="edge">
<title>Node2&#45;&gt;Node1</title>
<path fill="none" stroke="midnightblue" d="M71,-47.12C71,-37.82 71,-27.06 71,-19.71"/>
<polygon fill="midnightblue" stroke="midnightblue" points="67.5,-47.41 71,-57.41 74.5,-47.41 67.5,-47.41"/>
</g>
<!-- Node3 -->
<g id="node3" class="node">
<title>Node3</title>
<g id="a_node3"><a xlink:href="classtask_1_1_task.html" target="_top" xlink:title=" ">
<polygon fill="white" stroke="#bfbfbf" points="38.5,-114.5 38.5,-133.5 103.5,-133.5 103.5,-114.5 38.5,-114.5"/>
<text text-anchor="middle" x="71" y="-121.5" font-family="Helvetica,sans-Serif" font-size="10.00">task::Task</text>
</a>
</g>
</g>
<!-- Node3&#45;&gt;Node2 -->
<g id="edge2" class="edge">
<title>Node3&#45;&gt;Node2</title>
<path fill="none" stroke="midnightblue" d="M71,-104.12C71,-94.82 71,-84.06 71,-76.71"/>
<polygon fill="midnightblue" stroke="midnightblue" points="67.5,-104.41 71,-114.41 74.5,-104.41 67.5,-104.41"/>
</g>
<!-- Node4 -->
<g id="node4" class="node">
<title>Node4</title>
<g id="a_node4"><a xlink:href="classtask_1_1_command.html" target="_top" xlink:title=" ">
<polygon fill="white" stroke="#bfbfbf" points="24,-181.5 24,-200.5 118,-200.5 118,-181.5 24,-181.5"/>
<text text-anchor="middle" x="71" y="-188.5" font-family="Helvetica,sans-Serif" font-size="10.00">task::Command</text>
</a>
</g>
</g>
<!-- Node4&#45;&gt;Node3 -->
<g id="edge3" class="edge">
<title>Node4&#45;&gt;Node3</title>
<path fill="none" stroke="#9a32cd" stroke-dasharray="5,2" d="M71,-171.04C71,-158.67 71,-143.12 71,-133.63"/>
<polygon fill="#9a32cd" stroke="#9a32cd" points="67.5,-171.23 71,-181.23 74.5,-171.23 67.5,-171.23"/>
<text text-anchor="middle" x="117" y="-155" font-family="Helvetica,sans-Serif" font-size="10.00"> mFinishCommand</text>
</g>
</g>
</svg>
