<?xml version="1.0" encoding="UTF-8" standalone="no"?>
<!DOCTYPE svg PUBLIC "-//W3C//DTD SVG 1.1//EN"
 "http://www.w3.org/Graphics/SVG/1.1/DTD/svg11.dtd">
<!-- Generated by graphviz version 2.49.3 (20211027.1534)
 -->
<!-- Title: controller::BlockIndex Pages: 1 -->
<svg width="722pt" height="116pt"
 viewBox="0.00 0.00 722.00 116.00" xmlns="http://www.w3.org/2000/svg" xmlns:xlink="http://www.w3.org/1999/xlink">
<g id="graph0" class="graph" transform="scale(1 1) rotate(0) translate(4 112)">
<title>controller::BlockIndex</title>
<polygon fill="white" stroke="transparent" points="-4,4 -4,-112 718,-112 718,4 -4,4"/>
<!-- Node1 -->
<g id="node1" class="node">
<title>Node1</title>
<g id="a_node1"><a xlink:title="store block index in memory for fast finding transactions">
<polygon fill="#bfbfbf" stroke="black" points="591,-44.5 591,-63.5 714,-63.5 714,-44.5 591,-44.5"/>
<text text-anchor="middle" x="652.5" y="-51.5" font-family="Helvetica,sans-Serif" font-size="10.00">controller::BlockIndex</text>
</a>
</g>
</g>
<!-- Node2 -->
<g id="node2" class="node">
<title>Node2</title>
<g id="a_node2"><a xlink:href="classcontroller_1_1_controller_base.html" target="_top" xlink:title=" ">
<polygon fill="white" stroke="black" points="329,-88.5 329,-107.5 470,-107.5 470,-88.5 329,-88.5"/>
<text text-anchor="middle" x="399.5" y="-95.5" font-family="Helvetica,sans-Serif" font-size="10.00">controller::ControllerBase</text>
</a>
</g>
</g>
<!-- Node2&#45;&gt;Node1 -->
<g id="edge1" class="edge">
<title>Node2&#45;&gt;Node1</title>
<path fill="none" stroke="midnightblue" d="M465.87,-86.7C498.13,-81.11 537.61,-74.23 573,-68 581.18,-66.56 589.84,-65.02 598.3,-63.52"/>
<polygon fill="midnightblue" stroke="midnightblue" points="464.92,-83.31 455.67,-88.47 466.12,-90.21 464.92,-83.31"/>
</g>
<!-- Node3 -->
<g id="node3" class="node">
<title>Node3</title>
<g id="a_node3"><a xlink:href="classmodel_1_1files_1_1_i_block_index_receiver.html" target="_top" xlink:title=" ">
<polygon fill="white" stroke="black" points="331,-39 331,-69 468,-69 468,-39 331,-39"/>
<text text-anchor="start" x="339" y="-57" font-family="Helvetica,sans-Serif" font-size="10.00">model::files::IBlockIndex</text>
<text text-anchor="middle" x="399.5" y="-46" font-family="Helvetica,sans-Serif" font-size="10.00">Receiver</text>
</a>
</g>
</g>
<!-- Node3&#45;&gt;Node1 -->
<g id="edge2" class="edge">
<title>Node3&#45;&gt;Node1</title>
<path fill="none" stroke="midnightblue" d="M478.13,-54C514.34,-54 556.81,-54 590.65,-54"/>
<polygon fill="midnightblue" stroke="midnightblue" points="478.09,-50.5 468.09,-54 478.09,-57.5 478.09,-50.5"/>
</g>
<!-- Node4 -->
<g id="node4" class="node">
<title>Node4</title>
<g id="a_node4"><a xlink:href="classmodel_1_1files_1_1_block_index.html" target="_top" xlink:title="Store Block Index Data in binary file.">
<polygon fill="white" stroke="black" points="332.5,-0.5 332.5,-19.5 466.5,-19.5 466.5,-0.5 332.5,-0.5"/>
<text text-anchor="middle" x="399.5" y="-7.5" font-family="Helvetica,sans-Serif" font-size="10.00">model::files::BlockIndex</text>
</a>
</g>
</g>
<!-- Node4&#45;&gt;Node1 -->
<g id="edge3" class="edge">
<title>Node4&#45;&gt;Node1</title>
<path fill="none" stroke="#9a32cd" stroke-dasharray="5,2" d="M469.27,-21.2C500.89,-26.44 538.88,-32.87 573,-39 582.56,-40.72 592.76,-42.62 602.54,-44.47"/>
<polygon fill="#9a32cd" stroke="#9a32cd" points="469.68,-17.72 459.24,-19.54 468.53,-24.63 469.68,-17.72"/>
<text text-anchor="middle" x="530.5" y="-42" font-family="Helvetica,sans-Serif" font-size="10.00"> mBlockIndexFile</text>
</g>
<!-- Node5 -->
<g id="node5" class="node">
<title>Node5</title>
<g id="a_node5"><a xlink:href="classmodel_1_1files_1_1_file_base.html" target="_top" xlink:title=" ">
<polygon fill="white" stroke="black" points="171,-0.5 171,-19.5 292,-19.5 292,-0.5 171,-0.5"/>
<text text-anchor="middle" x="231.5" y="-7.5" font-family="Helvetica,sans-Serif" font-size="10.00">model::files::FileBase</text>
</a>
</g>
</g>
<!-- Node5&#45;&gt;Node4 -->
<g id="edge4" class="edge">
<title>Node5&#45;&gt;Node4</title>
<path fill="none" stroke="midnightblue" d="M302.62,-10C312.52,-10 322.66,-10 332.48,-10"/>
<polygon fill="midnightblue" stroke="midnightblue" points="302.43,-6.5 292.43,-10 302.43,-13.5 302.43,-6.5"/>
</g>
<!-- Node6 -->
<g id="node6" class="node">
<title>Node6</title>
<g id="a_node6"><a xlink:title=" ">
<polygon fill="white" stroke="#bfbfbf" points="0,-0.5 0,-19.5 134,-19.5 134,-0.5 0,-0.5"/>
<text text-anchor="middle" x="67" y="-7.5" font-family="Helvetica,sans-Serif" font-size="10.00">Poco::RefCountedObject</text>
</a>
</g>
</g>
<!-- Node6&#45;&gt;Node5 -->
<g id="edge5" class="edge">
<title>Node6&#45;&gt;Node5</title>
<path fill="none" stroke="midnightblue" d="M144.12,-10C153.06,-10 162.08,-10 170.74,-10"/>
<polygon fill="midnightblue" stroke="midnightblue" points="144.1,-6.5 134.09,-10 144.09,-13.5 144.1,-6.5"/>
</g>
</g>
</svg>
