<?xml version="1.0" encoding="UTF-8" standalone="no"?>
<!DOCTYPE svg PUBLIC "-//W3C//DTD SVG 1.1//EN"
 "http://www.w3.org/Graphics/SVG/1.1/DTD/svg11.dtd">
<!-- Generated by graphviz version 2.49.3 (20211027.1534)
 -->
<!-- Title: model::files::BlockIndex::readFromFile Pages: 1 -->
<svg width="472pt" height="94pt"
 viewBox="0.00 0.00 472.00 94.00" xmlns="http://www.w3.org/2000/svg" xmlns:xlink="http://www.w3.org/1999/xlink">
<g id="graph0" class="graph" transform="scale(1 1) rotate(0) translate(4 90)">
<title>model::files::BlockIndex::readFromFile</title>
<polygon fill="white" stroke="transparent" points="-4,4 -4,-90 468,-90 468,4 -4,4"/>
<!-- Node1 -->
<g id="node1" class="node">
<title>Node1</title>
<g id="a_node1"><a xlink:title="read from file, put content into receiver">
<polygon fill="#bfbfbf" stroke="black" points="0,-39 0,-69 134,-69 134,-39 0,-39"/>
<text text-anchor="start" x="8" y="-57" font-family="Helvetica,sans-Serif" font-size="10.00">model::files::BlockIndex</text>
<text text-anchor="middle" x="67" y="-46" font-family="Helvetica,sans-Serif" font-size="10.00">::readFromFile</text>
</a>
</g>
</g>
<!-- Node2 -->
<g id="node2" class="node">
<title>Node2</title>
<g id="a_node2"><a xlink:href="class_virtual_file.html#a888acb75cb32b3d1b1790e97309c0a05" target="_top" xlink:title="copy from buffer over into dst, move cursor">
<polygon fill="white" stroke="black" points="356,-66.5 356,-85.5 450,-85.5 450,-66.5 356,-66.5"/>
<text text-anchor="middle" x="403" y="-73.5" font-family="Helvetica,sans-Serif" font-size="10.00">VirtualFile::read</text>
</a>
</g>
</g>
<!-- Node1&#45;&gt;Node2 -->
<g id="edge1" class="edge">
<title>Node1&#45;&gt;Node2</title>
<path fill="none" stroke="midnightblue" d="M118.92,-69.03C135.1,-73.11 153.17,-76.97 170,-79 229.61,-86.2 298.46,-84 345.58,-80.9"/>
<polygon fill="midnightblue" stroke="midnightblue" points="345.85,-84.39 355.59,-80.21 345.37,-77.41 345.85,-84.39"/>
</g>
<!-- Node3 -->
<g id="node3" class="node">
<title>Node3</title>
<g id="a_node3"><a xlink:href="class_virtual_file.html#abbdc300573ac1c30d2ae09b585af0a2b" target="_top" xlink:title="get memory bin in file size and fill it with file content">
<polygon fill="white" stroke="black" points="170,-0.5 170,-19.5 306,-19.5 306,-0.5 170,-0.5"/>
<text text-anchor="middle" x="238" y="-7.5" font-family="Helvetica,sans-Serif" font-size="10.00">VirtualFile::readFromFile</text>
</a>
</g>
</g>
<!-- Node1&#45;&gt;Node3 -->
<g id="edge2" class="edge">
<title>Node1&#45;&gt;Node3</title>
<path fill="none" stroke="midnightblue" d="M125.69,-38.98C146.87,-33.46 170.57,-27.3 190.63,-22.07"/>
<polygon fill="midnightblue" stroke="midnightblue" points="191.67,-25.42 200.46,-19.51 189.9,-18.64 191.67,-25.42"/>
</g>
<!-- Node5 -->
<g id="node5" class="node">
<title>Node5</title>
<g id="a_node5"><a xlink:href="structmodel_1_1files_1_1_block_index_1_1_block.html#af6656e044626dfb1bf1c7efdb43794c5" target="_top" xlink:title="return false if reading failed, file to short?">
<polygon fill="white" stroke="black" points="171,-39 171,-69 305,-69 305,-39 171,-39"/>
<text text-anchor="start" x="179" y="-57" font-family="Helvetica,sans-Serif" font-size="10.00">model::files::BlockIndex</text>
<text text-anchor="middle" x="238" y="-46" font-family="Helvetica,sans-Serif" font-size="10.00">::Block::readFromFile</text>
</a>
</g>
</g>
<!-- Node1&#45;&gt;Node5 -->
<g id="edge4" class="edge">
<title>Node1&#45;&gt;Node5</title>
<path fill="none" stroke="midnightblue" d="M134.31,-54C142.95,-54 151.86,-54 160.64,-54"/>
<polygon fill="midnightblue" stroke="midnightblue" points="160.88,-57.5 170.88,-54 160.88,-50.5 160.88,-57.5"/>
</g>
<!-- Node4 -->
<g id="node4" class="node">
<title>Node4</title>
<g id="a_node4"><a xlink:href="class_virtual_file.html#ab4fefe3e765c9cc319863a021e115fae" target="_top" xlink:title="get memory bin from memory manager by his own">
<polygon fill="white" stroke="black" points="342,-0.5 342,-19.5 464,-19.5 464,-0.5 342,-0.5"/>
<text text-anchor="middle" x="403" y="-7.5" font-family="Helvetica,sans-Serif" font-size="10.00">VirtualFile::VirtualFile</text>
</a>
</g>
</g>
<!-- Node3&#45;&gt;Node4 -->
<g id="edge3" class="edge">
<title>Node3&#45;&gt;Node4</title>
<path fill="none" stroke="midnightblue" d="M306.24,-10C314.66,-10 323.28,-10 331.74,-10"/>
<polygon fill="midnightblue" stroke="midnightblue" points="331.96,-13.5 341.96,-10 331.96,-6.5 331.96,-13.5"/>
</g>
<!-- Node5&#45;&gt;Node2 -->
<g id="edge5" class="edge">
<title>Node5&#45;&gt;Node2</title>
<path fill="none" stroke="midnightblue" d="M305.3,-62.95C318.65,-64.75 332.57,-66.63 345.55,-68.38"/>
<polygon fill="midnightblue" stroke="midnightblue" points="345.35,-71.89 355.73,-69.75 346.28,-64.95 345.35,-71.89"/>
</g>
</g>
</svg>
