<?xml version="1.0" encoding="UTF-8" standalone="no"?>
<!DOCTYPE svg PUBLIC "-//W3C//DTD SVG 1.1//EN"
 "http://www.w3.org/Graphics/SVG/1.1/DTD/svg11.dtd">
<!-- Generated by graphviz version 2.49.3 (20211027.1534)
 -->
<!-- Title: controller::GroupIndex::getFolder Pages: 1 -->
<svg width="457pt" height="78pt"
 viewBox="0.00 0.00 457.00 77.50" xmlns="http://www.w3.org/2000/svg" xmlns:xlink="http://www.w3.org/1999/xlink">
<g id="graph0" class="graph" transform="scale(1 1) rotate(0) translate(4 73.5)">
<title>controller::GroupIndex::getFolder</title>
<polygon fill="white" stroke="transparent" points="-4,4 -4,-73.5 453,-73.5 453,4 -4,4"/>
<!-- Node1 -->
<g id="node1" class="node">
<title>Node1</title>
<g id="a_node1"><a xlink:title="get full folder path for group public key if the hash from groupPublicKey exist multiple time,...">
<polygon fill="#bfbfbf" stroke="black" points="324,-17 324,-47 449,-47 449,-17 324,-17"/>
<text text-anchor="start" x="332" y="-35" font-family="Helvetica,sans-Serif" font-size="10.00">controller::GroupIndex</text>
<text text-anchor="middle" x="386.5" y="-24" font-family="Helvetica,sans-Serif" font-size="10.00">::getFolder</text>
</a>
</g>
</g>
<!-- Node2 -->
<g id="node2" class="node">
<title>Node2</title>
<g id="a_node2"><a xlink:href="class_group_manager.html#ac42a491ca23c0fec6a46f5cf9bee8a99" target="_top" xlink:title="getting group object from Poco::AccessExpireCache or create if not in cache and put in cache">
<polygon fill="white" stroke="black" points="146,-22.5 146,-41.5 288,-41.5 288,-22.5 146,-22.5"/>
<text text-anchor="middle" x="217" y="-29.5" font-family="Helvetica,sans-Serif" font-size="10.00">GroupManager::findGroup</text>
</a>
</g>
</g>
<!-- Node1&#45;&gt;Node2 -->
<g id="edge1" class="edge">
<title>Node1&#45;&gt;Node2</title>
<path fill="none" stroke="midnightblue" d="M313.46,-32C305.05,-32 296.49,-32 288.11,-32"/>
<polygon fill="midnightblue" stroke="midnightblue" points="313.61,-35.5 323.61,-32 313.61,-28.5 313.61,-35.5"/>
</g>
<!-- Node3 -->
<g id="node3" class="node">
<title>Node3</title>
<g id="a_node3"><a xlink:href="classcontroller_1_1_group.html#a9d18405e4740fc3f2386e1ed68f3c94c" target="_top" xlink:title="add transaction from iota into blockchain, important! must be called in correct order">
<polygon fill="white" stroke="black" points="3,-39 3,-69 107,-69 107,-39 3,-39"/>
<text text-anchor="start" x="11" y="-57" font-family="Helvetica,sans-Serif" font-size="10.00">controller::Group::</text>
<text text-anchor="middle" x="55" y="-46" font-family="Helvetica,sans-Serif" font-size="10.00">addTransaction</text>
</a>
</g>
</g>
<!-- Node2&#45;&gt;Node3 -->
<g id="edge2" class="edge">
<title>Node2&#45;&gt;Node3</title>
<path fill="none" stroke="midnightblue" d="M136.69,-42.9C126.6,-44.29 116.5,-45.68 107.02,-46.98"/>
<polygon fill="midnightblue" stroke="midnightblue" points="137.32,-46.35 146.75,-41.52 136.37,-39.42 137.32,-46.35"/>
</g>
<!-- Node4 -->
<g id="node4" class="node">
<title>Node4</title>
<g id="a_node4"><a xlink:href="class_group_manager.html#a020d987bd819a1a76f3ca8dcbdd03ab7" target="_top" xlink:title="load group index file and fill hash list with group public key = folder name pairs">
<polygon fill="white" stroke="black" points="0,-0.5 0,-19.5 110,-19.5 110,-0.5 0,-0.5"/>
<text text-anchor="middle" x="55" y="-7.5" font-family="Helvetica,sans-Serif" font-size="10.00">GroupManager::init</text>
</a>
</g>
</g>
<!-- Node2&#45;&gt;Node4 -->
<g id="edge3" class="edge">
<title>Node2&#45;&gt;Node4</title>
<path fill="none" stroke="midnightblue" d="M136.72,-21.1C127.82,-19.87 118.9,-18.65 110.41,-17.48"/>
<polygon fill="midnightblue" stroke="midnightblue" points="136.37,-24.58 146.75,-22.48 137.32,-17.65 136.37,-24.58"/>
</g>
</g>
</svg>
