<?xml version="1.0" encoding="UTF-8" standalone="no"?>
<!DOCTYPE svg PUBLIC "-//W3C//DTD SVG 1.1//EN"
 "http://www.w3.org/Graphics/SVG/1.1/DTD/svg11.dtd">
<!-- Generated by graphviz version 2.49.3 (20211027.1534)
 -->
<!-- Title: controller::AddressIndex Pages: 1 -->
<!--zoomable 284 -->
<svg id="main" version="1.1" xmlns="http://www.w3.org/2000/svg" xmlns:xlink="http://www.w3.org/1999/xlink" xml:space="preserve" onload="init(evt)">
<style type="text/css"><![CDATA[
.edge:hover path { stroke: red; }
.edge:hover polygon { stroke: red; fill: red; }
]]></style>
<script type="text/javascript"><![CDATA[
var edges = document.getElementsByTagName('g');
if (edges && edges.length) {
  for (var i=0;i<edges.length;i++) {
    if (edges[i].id.substr(0,4)=='edge') {
      edges[i].setAttribute('class','edge');
    }
  }
}
]]></script>
        <defs>
                <circle id="rim" cx="0" cy="0" r="7"/>
                <circle id="rim2" cx="0" cy="0" r="3.5"/>
                <g id="zoomPlus">
                        <use xlink:href="#rim" fill="#404040">
                                <set attributeName="fill" to="#808080" begin="zoomplus.mouseover" end="zoomplus.mouseout"/>
                        </use>
                        <path d="M-4,0h8M0,-4v8" fill="none" stroke="white" stroke-width="1.5" pointer-events="none"/>
                </g>
                <g id="zoomMin">
                        <use xlink:href="#rim" fill="#404040">
                                <set attributeName="fill" to="#808080" begin="zoomminus.mouseover" end="zoomminus.mouseout"/>
                        </use>
                        <path d="M-4,0h8" fill="none" stroke="white" stroke-width="1.5" pointer-events="none"/>
                </g>
                <g id="dirArrow">
                        <path fill="none" stroke="white" stroke-width="1.5" d="M0,-3.0v7 M-2.5,-0.5L0,-3.0L2.5,-0.5"/>
                </g>
               <g id="resetDef">
                       <use xlink:href="#rim2" fill="#404040">
                               <set attributeName="fill" to="#808080" begin="reset.mouseover" end="reset.mouseout"/>
                       </use>
               </g>
        </defs>

<script type="text/javascript">
var viewWidth = 1183;
var viewHeight = 284;
var sectionId = 'dynsection-1';
</script>
<script xlink:href="svgpan.js"/>
<svg id="graph" class="graph">
<g id="viewport">
<title>controller::AddressIndex</title>
<polygon fill="white" stroke="transparent" points="-4,4 -4,-279.62 1179,-279.62 1179,4 -4,4"/>
<!-- Node1 -->
<g id="node1" class="node">
<title>Node1</title>
<g id="a_node1"><a xlink:title=" ">
<polygon fill="#bfbfbf" stroke="black" points="1040,-221.9 1040,-240.9 1175,-240.9 1175,-221.9 1040,-221.9"/>
<text text-anchor="middle" x="1107.5" y="-228.9" font-family="Helvetica,sans-Serif" font-size="10.00">controller::AddressIndex</text>
</a>
</g>
</g>
<!-- Node2 -->
<g id="node2" class="node">
<title>Node2</title>
<g id="a_node2"><a xlink:href="classcontroller_1_1_controller_base.html" target="_top" xlink:title=" ">
<polygon fill="white" stroke="black" points="329,-240.9 329,-259.9 470,-259.9 470,-240.9 329,-240.9"/>
<text text-anchor="middle" x="399.5" y="-247.9" font-family="Helvetica,sans-Serif" font-size="10.00">controller::ControllerBase</text>
</a>
</g>
</g>
<!-- Node2&#45;&gt;Node1 -->
<g id="edge1" class="edge">
<title>Node2&#45;&gt;Node1</title>
<path fill="none" stroke="midnightblue" d="M437.75,-262.98C453.11,-267.55 471.22,-272.14 488,-274.4 505.18,-276.71 509.67,-274.45 527,-274.4 602.11,-274.18 621,-277.45 696,-273.4 817.61,-266.83 958.73,-250.47 1039.82,-240.21"/>
<polygon fill="midnightblue" stroke="midnightblue" points="438.67,-259.6 428.08,-260.01 436.61,-266.3 438.67,-259.6"/>
</g>
<!-- Node3 -->
<g id="node3" class="node">
<title>Node3</title>
<g id="a_node3"><a xlink:href="classcontroller_1_1_group.html" target="_top" xlink:title="Main entry point for adding and searching for transactions TODO: validate transaction on startup.">
<polygon fill="white" stroke="black" points="862,-145.9 862,-164.9 960,-164.9 960,-145.9 862,-145.9"/>
<text text-anchor="middle" x="911" y="-152.9" font-family="Helvetica,sans-Serif" font-size="10.00">controller::Group</text>
</a>
</g>
</g>
<!-- Node2&#45;&gt;Node3 -->
<g id="edge3" class="edge">
<title>Node2&#45;&gt;Node3</title>
<path fill="none" stroke="midnightblue" d="M480.21,-259.75C572.17,-267.08 725.87,-268.54 844,-215.4 869.42,-203.96 891.72,-178.95 902.72,-165.1"/>
<polygon fill="midnightblue" stroke="midnightblue" points="480.39,-256.25 470.14,-258.9 479.81,-263.22 480.39,-256.25"/>
</g>
<!-- Node12 -->
<g id="node12" class="node">
<title>Node12</title>
<g id="a_node12"><a xlink:href="classcontroller_1_1_deferred_transfer.html" target="_top" xlink:title=" ">
<polygon fill="white" stroke="black" points="545,-126.9 545,-145.9 696,-145.9 696,-126.9 545,-126.9"/>
<text text-anchor="middle" x="620.5" y="-133.9" font-family="Helvetica,sans-Serif" font-size="10.00">controller::DeferredTransfer</text>
</a>
</g>
</g>
<!-- Node2&#45;&gt;Node12 -->
<g id="edge14" class="edge">
<title>Node2&#45;&gt;Node12</title>
<path fill="none" stroke="midnightblue" d="M420.22,-234.33C446.95,-213.3 496.88,-176.64 545,-155.4 553.55,-151.63 562.99,-148.5 572.2,-145.94"/>
<polygon fill="midnightblue" stroke="midnightblue" points="417.72,-231.85 412.08,-240.82 422.08,-237.32 417.72,-231.85"/>
</g>
<!-- Node3&#45;&gt;Node1 -->
<g id="edge2" class="edge">
<title>Node3&#45;&gt;Node1</title>
<path fill="none" stroke="#9a32cd" stroke-dasharray="5,2" d="M945.98,-168.68C984.89,-183.88 1047.69,-208.42 1082.07,-221.85"/>
<polygon fill="#9a32cd" stroke="#9a32cd" points="947.22,-165.4 936.63,-165.03 944.67,-171.92 947.22,-165.4"/>
<text text-anchor="middle" x="1000" y="-200.4" font-family="Helvetica,sans-Serif" font-size="10.00"> mParent</text>
</g>
<!-- Node4 -->
<g id="node4" class="node">
<title>Node4</title>
<g id="a_node4"><a xlink:title=" ">
<polygon fill="white" stroke="#bfbfbf" points="546.5,-164.9 546.5,-183.9 694.5,-183.9 694.5,-164.9 546.5,-164.9"/>
<text text-anchor="middle" x="620.5" y="-171.9" font-family="Helvetica,sans-Serif" font-size="10.00">model::IGradidoBlockchain</text>
</a>
</g>
</g>
<!-- Node4&#45;&gt;Node3 -->
<g id="edge4" class="edge">
<title>Node4&#45;&gt;Node3</title>
<path fill="none" stroke="midnightblue" d="M704.69,-168.92C755.64,-165.57 819.05,-161.39 861.82,-158.57"/>
<polygon fill="midnightblue" stroke="midnightblue" points="704.42,-165.43 694.67,-169.58 704.88,-172.42 704.42,-165.43"/>
</g>
<!-- Node5 -->
<g id="node5" class="node">
<title>Node5</title>
<g id="a_node5"><a xlink:href="class_task_observer.html" target="_top" xlink:title=" ">
<polygon fill="white" stroke="black" points="579,-3.9 579,-22.9 662,-22.9 662,-3.9 579,-3.9"/>
<text text-anchor="middle" x="620.5" y="-10.9" font-family="Helvetica,sans-Serif" font-size="10.00">TaskObserver</text>
</a>
</g>
</g>
<!-- Node5&#45;&gt;Node3 -->
<g id="edge5" class="edge">
<title>Node5&#45;&gt;Node3</title>
<path fill="none" stroke="#9a32cd" stroke-dasharray="5,2" d="M672.36,-3.83C720.57,2.38 793,4.02 844,-29.4 886.34,-57.14 903.19,-121.25 908.23,-145.69"/>
<polygon fill="#9a32cd" stroke="#9a32cd" points="671.58,-0.41 662.16,-5.26 672.55,-7.34 671.58,-0.41"/>
<text text-anchor="middle" x="779" y="-32.4" font-family="Helvetica,sans-Serif" font-size="10.00"> mTaskObserver</text>
</g>
<!-- Node6 -->
<g id="node6" class="node">
<title>Node6</title>
<g id="a_node6"><a xlink:title=" ">
<polygon fill="white" stroke="#bfbfbf" points="339.5,-9.9 339.5,-28.9 459.5,-28.9 459.5,-9.9 339.5,-9.9"/>
<text text-anchor="middle" x="399.5" y="-16.9" font-family="Helvetica,sans-Serif" font-size="10.00">MultithreadContainer</text>
</a>
</g>
</g>
<!-- Node6&#45;&gt;Node5 -->
<g id="edge6" class="edge">
<title>Node6&#45;&gt;Node5</title>
<path fill="none" stroke="midnightblue" d="M470.17,-17.49C506.01,-16.51 548.44,-15.35 578.9,-14.51"/>
<polygon fill="midnightblue" stroke="midnightblue" points="469.66,-14 459.76,-17.78 469.86,-21 469.66,-14"/>
</g>
<!-- Node7 -->
<g id="node7" class="node">
<title>Node7</title>
<g id="a_node7"><a xlink:href="classiota_1_1_message_listener.html" target="_top" xlink:title="call iota regular and check if new message on the listening index are available">
<polygon fill="white" stroke="black" points="558.5,-41.9 558.5,-60.9 682.5,-60.9 682.5,-41.9 558.5,-41.9"/>
<text text-anchor="middle" x="620.5" y="-48.9" font-family="Helvetica,sans-Serif" font-size="10.00">iota::MessageListener</text>
</a>
</g>
</g>
<!-- Node6&#45;&gt;Node7 -->
<g id="edge8" class="edge">
<title>Node6&#45;&gt;Node7</title>
<path fill="none" stroke="midnightblue" d="M470,-29.56C498.35,-33.7 530.84,-38.45 558.28,-42.45"/>
<polygon fill="midnightblue" stroke="midnightblue" points="470.17,-26.04 459.76,-28.06 469.15,-32.97 470.17,-26.04"/>
</g>
<!-- Node7&#45;&gt;Node3 -->
<g id="edge7" class="edge">
<title>Node7&#45;&gt;Node3</title>
<path fill="none" stroke="#9a32cd" stroke-dasharray="5,2" d="M692.97,-44.31C738.76,-42.98 798.01,-47.48 844,-72.4 875.24,-89.33 896.89,-127.91 905.65,-145.87"/>
<polygon fill="#9a32cd" stroke="#9a32cd" points="692.67,-40.82 682.82,-44.7 692.95,-47.81 692.67,-40.82"/>
<text text-anchor="middle" x="779" y="-75.4" font-family="Helvetica,sans-Serif" font-size="10.00"> mIotaMessageListener</text>
</g>
<!-- Node8 -->
<g id="node8" class="node">
<title>Node8</title>
<g id="a_node8"><a xlink:href="class_timer_callback.html" target="_top" xlink:title=" ">
<polygon fill="white" stroke="black" points="356,-53.9 356,-72.9 443,-72.9 443,-53.9 356,-53.9"/>
<text text-anchor="middle" x="399.5" y="-60.9" font-family="Helvetica,sans-Serif" font-size="10.00">TimerCallback</text>
</a>
</g>
</g>
<!-- Node8&#45;&gt;Node7 -->
<g id="edge9" class="edge">
<title>Node8&#45;&gt;Node7</title>
<path fill="none" stroke="midnightblue" d="M453.6,-60.49C485.16,-58.76 525.31,-56.56 558.22,-54.76"/>
<polygon fill="midnightblue" stroke="midnightblue" points="453.04,-57.02 443.25,-61.06 453.42,-64.01 453.04,-57.02"/>
</g>
<!-- Node9 -->
<g id="node9" class="node">
<title>Node9</title>
<g id="a_node9"><a xlink:href="classmodel_1_1files_1_1_state.html" target="_top" xlink:title=" ">
<polygon fill="white" stroke="black" points="347,-109.9 347,-128.9 452,-128.9 452,-109.9 347,-109.9"/>
<text text-anchor="middle" x="399.5" y="-116.9" font-family="Helvetica,sans-Serif" font-size="10.00">model::files::State</text>
</a>
</g>
</g>
<!-- Node9&#45;&gt;Node3 -->
<g id="edge10" class="edge">
<title>Node9&#45;&gt;Node3</title>
<path fill="none" stroke="#9a32cd" stroke-dasharray="5,2" d="M462.53,-112.59C488.05,-110.11 517.91,-107.62 545,-106.4 678.26,-100.42 714.91,-98.8 844,-132.4 857.97,-136.04 873.22,-141.26 885.53,-145.81"/>
<polygon fill="#9a32cd" stroke="#9a32cd" points="461.86,-109.14 452.26,-113.61 462.55,-116.1 461.86,-109.14"/>
<text text-anchor="middle" x="620.5" y="-109.4" font-family="Helvetica,sans-Serif" font-size="10.00"> mGroupState</text>
</g>
<!-- Node9&#45;&gt;Node12 -->
<g id="edge15" class="edge">
<title>Node9&#45;&gt;Node12</title>
<path fill="none" stroke="#9a32cd" stroke-dasharray="5,2" d="M462.42,-124.21C487.97,-126.19 517.81,-128.51 544.58,-130.58"/>
<polygon fill="#9a32cd" stroke="#9a32cd" points="462.36,-120.69 452.12,-123.41 461.82,-127.67 462.36,-120.69"/>
<text text-anchor="middle" x="507.5" y="-132.4" font-family="Helvetica,sans-Serif" font-size="10.00"> mState</text>
</g>
<!-- Node10 -->
<g id="node10" class="node">
<title>Node10</title>
<g id="a_node10"><a xlink:href="classmodel_1_1files_1_1_file_base.html" target="_top" xlink:title=" ">
<polygon fill="white" stroke="black" points="171,-109.9 171,-128.9 292,-128.9 292,-109.9 171,-109.9"/>
<text text-anchor="middle" x="231.5" y="-116.9" font-family="Helvetica,sans-Serif" font-size="10.00">model::files::FileBase</text>
</a>
</g>
</g>
<!-- Node10&#45;&gt;Node9 -->
<g id="edge11" class="edge">
<title>Node10&#45;&gt;Node9</title>
<path fill="none" stroke="midnightblue" d="M302.6,-119.4C317.45,-119.4 332.87,-119.4 346.89,-119.4"/>
<polygon fill="midnightblue" stroke="midnightblue" points="302.43,-115.9 292.43,-119.4 302.43,-122.9 302.43,-115.9"/>
</g>
<!-- Node11 -->
<g id="node11" class="node">
<title>Node11</title>
<g id="a_node11"><a xlink:title=" ">
<polygon fill="white" stroke="#bfbfbf" points="0,-109.9 0,-128.9 134,-128.9 134,-109.9 0,-109.9"/>
<text text-anchor="middle" x="67" y="-116.9" font-family="Helvetica,sans-Serif" font-size="10.00">Poco::RefCountedObject</text>
</a>
</g>
</g>
<!-- Node11&#45;&gt;Node10 -->
<g id="edge12" class="edge">
<title>Node11&#45;&gt;Node10</title>
<path fill="none" stroke="midnightblue" d="M144.12,-119.4C153.06,-119.4 162.08,-119.4 170.74,-119.4"/>
<polygon fill="midnightblue" stroke="midnightblue" points="144.1,-115.9 134.09,-119.4 144.09,-122.9 144.1,-115.9"/>
</g>
<!-- Node12&#45;&gt;Node3 -->
<g id="edge13" class="edge">
<title>Node12&#45;&gt;Node3</title>
<path fill="none" stroke="#9a32cd" stroke-dasharray="5,2" d="M706.18,-136.88C747.78,-137.76 798.61,-139.82 844,-144.4 849.78,-144.98 855.82,-145.76 861.8,-146.63"/>
<polygon fill="#9a32cd" stroke="#9a32cd" points="706.15,-133.37 696.08,-136.68 706.01,-140.37 706.15,-133.37"/>
<text text-anchor="middle" x="779" y="-147.4" font-family="Helvetica,sans-Serif" font-size="10.00"> mDeferredTransfersCache</text>
</g>
<!-- Node13 -->
<g id="node13" class="node">
<title>Node13</title>
<g id="a_node13"><a xlink:href="classclient_1_1_base.html" target="_top" xlink:title=" ">
<polygon fill="white" stroke="black" points="583.5,-202.9 583.5,-221.9 657.5,-221.9 657.5,-202.9 583.5,-202.9"/>
<text text-anchor="middle" x="620.5" y="-209.9" font-family="Helvetica,sans-Serif" font-size="10.00">client::Base</text>
</a>
</g>
</g>
<!-- Node13&#45;&gt;Node3 -->
<g id="edge16" class="edge">
<title>Node13&#45;&gt;Node3</title>
<path fill="none" stroke="#9a32cd" stroke-dasharray="5,2" d="M667.81,-207.39C713.13,-201.95 783.9,-192.04 844,-177.4 857.61,-174.08 872.44,-169.26 884.59,-164.97"/>
<polygon fill="#9a32cd" stroke="#9a32cd" points="667.22,-203.93 657.7,-208.57 668.04,-210.88 667.22,-203.93"/>
<text text-anchor="middle" x="779" y="-203.4" font-family="Helvetica,sans-Serif" font-size="10.00"> mCommunityServer</text>
</g>
</g>
</svg>
        <g id="navigator" transform="translate(0 0)" fill="#404254">
                <rect fill="#f2f5e9" fill-opacity="0.5" stroke="#606060" stroke-width=".5" x="0" y="0" width="60" height="60"/>
                <use id="zoomplus" xlink:href="#zoomPlus" x="17" y="9" onmousedown="handleZoom(evt,'in')"/>
                <use id="zoomminus" xlink:href="#zoomMin" x="42" y="9" onmousedown="handleZoom(evt,'out')"/>
                <use id="reset" xlink:href="#resetDef" x="30" y="36" onmousedown="handleReset()"/>
                <g id="arrowUp" xlink:href="#dirArrow" transform="translate(30 24)" onmousedown="handlePan(0,-1)">
                  <use xlink:href="#rim" fill="#404040">
                        <set attributeName="fill" to="#808080" begin="arrowUp.mouseover" end="arrowUp.mouseout"/>
                  </use>
                  <path fill="none" stroke="white" stroke-width="1.5" d="M0,-3.0v7 M-2.5,-0.5L0,-3.0L2.5,-0.5"/>
                </g>
                <g id="arrowRight" xlink:href="#dirArrow" transform="rotate(90) translate(36 -43)" onmousedown="handlePan(1,0)">
                  <use xlink:href="#rim" fill="#404040">
                        <set attributeName="fill" to="#808080" begin="arrowRight.mouseover" end="arrowRight.mouseout"/>
                  </use>
                  <path fill="none" stroke="white" stroke-width="1.5" d="M0,-3.0v7 M-2.5,-0.5L0,-3.0L2.5,-0.5"/>
                </g>
                <g id="arrowDown" xlink:href="#dirArrow" transform="rotate(180) translate(-30 -48)" onmousedown="handlePan(0,1)">
                  <use xlink:href="#rim" fill="#404040">
                        <set attributeName="fill" to="#808080" begin="arrowDown.mouseover" end="arrowDown.mouseout"/>
                  </use>
                  <path fill="none" stroke="white" stroke-width="1.5" d="M0,-3.0v7 M-2.5,-0.5L0,-3.0L2.5,-0.5"/>
                </g>
                <g id="arrowLeft" xlink:href="#dirArrow" transform="rotate(270) translate(-36 17)" onmousedown="handlePan(-1,0)">
                  <use xlink:href="#rim" fill="#404040">
                        <set attributeName="fill" to="#808080" begin="arrowLeft.mouseover" end="arrowLeft.mouseout"/>
                  </use>
                  <path fill="none" stroke="white" stroke-width="1.5" d="M0,-3.0v7 M-2.5,-0.5L0,-3.0L2.5,-0.5"/>
                </g>
        </g>
        <svg viewBox="0 0 15 15" width="100%" height="30px" preserveAspectRatio="xMaxYMin meet">
         <g id="arrow_out" transform="scale(0.3 0.3)">
          <a xlink:href="classcontroller_1_1_address_index__coll__graph_org.svg" target="_base">
           <rect id="button" ry="5" rx="5" y="6" x="6" height="38" width="38"
                fill="#f2f5e9" fill-opacity="0.5" stroke="#606060" stroke-width="1.0"/>
           <path id="arrow"
             d="M 11.500037,31.436501 C 11.940474,20.09759 22.043105,11.32322 32.158766,21.979434 L 37.068811,17.246167 C 37.068811,17.246167 37.088388,32 37.088388,32 L 22.160133,31.978069 C 22.160133,31.978069 26.997745,27.140456 26.997745,27.140456 C 18.528582,18.264221 13.291696,25.230495 11.500037,31.436501 z"
             style="fill:#404040;"/>
          </a>
         </g>
        </svg>
</svg>
