<?xml version="1.0" encoding="UTF-8" standalone="no"?>
<!DOCTYPE svg PUBLIC "-//W3C//DTD SVG 1.1//EN"
 "http://www.w3.org/Graphics/SVG/1.1/DTD/svg11.dtd">
<!-- Generated by graphviz version 2.49.3 (20211027.1534)
 -->
<!-- Title: controller::Block Pages: 1 -->
<svg width="374pt" height="152pt"
 viewBox="0.00 0.00 373.50 152.00" xmlns="http://www.w3.org/2000/svg" xmlns:xlink="http://www.w3.org/1999/xlink">
<g id="graph0" class="graph" transform="scale(1 1) rotate(0) translate(4 148)">
<title>controller::Block</title>
<polygon fill="white" stroke="transparent" points="-4,4 -4,-148 369.5,-148 369.5,4 -4,4"/>
<!-- Node1 -->
<g id="node1" class="node">
<title>Node1</title>
<g id="a_node1"><a xlink:title="interface for adding and getting transactions from specific block">
<polygon fill="#bfbfbf" stroke="black" points="154.5,-0.5 154.5,-19.5 250.5,-19.5 250.5,-0.5 154.5,-0.5"/>
<text text-anchor="middle" x="202.5" y="-7.5" font-family="Helvetica,sans-Serif" font-size="10.00">controller::Block</text>
</a>
</g>
</g>
<!-- Node2 -->
<g id="node2" class="node">
<title>Node2</title>
<g id="a_node2"><a xlink:href="classcontroller_1_1_controller_base.html" target="_top" xlink:title=" ">
<polygon fill="white" stroke="black" points="0,-67.5 0,-86.5 141,-86.5 141,-67.5 0,-67.5"/>
<text text-anchor="middle" x="70.5" y="-74.5" font-family="Helvetica,sans-Serif" font-size="10.00">controller::ControllerBase</text>
</a>
</g>
</g>
<!-- Node2&#45;&gt;Node1 -->
<g id="edge1" class="edge">
<title>Node2&#45;&gt;Node1</title>
<path fill="none" stroke="midnightblue" d="M97.01,-62.94C123.16,-50.07 162.38,-30.76 184.9,-19.67"/>
<polygon fill="midnightblue" stroke="midnightblue" points="95.45,-59.81 88.03,-67.37 98.55,-66.09 95.45,-59.81"/>
</g>
<!-- Node3 -->
<g id="node3" class="node">
<title>Node3</title>
<g id="a_node3"><a xlink:href="class_timer_callback.html" target="_top" xlink:title=" ">
<polygon fill="white" stroke="black" points="159,-67.5 159,-86.5 246,-86.5 246,-67.5 159,-67.5"/>
<text text-anchor="middle" x="202.5" y="-74.5" font-family="Helvetica,sans-Serif" font-size="10.00">TimerCallback</text>
</a>
</g>
</g>
<!-- Node3&#45;&gt;Node1 -->
<g id="edge2" class="edge">
<title>Node3&#45;&gt;Node1</title>
<path fill="none" stroke="midnightblue" d="M202.5,-57.04C202.5,-44.67 202.5,-29.12 202.5,-19.63"/>
<polygon fill="midnightblue" stroke="midnightblue" points="199,-57.23 202.5,-67.23 206,-57.23 199,-57.23"/>
</g>
<!-- Node4 -->
<g id="node4" class="node">
<title>Node4</title>
<g id="a_node4"><a xlink:href="class_task_observer.html" target="_top" xlink:title=" ">
<polygon fill="white" stroke="black" points="264,-67.5 264,-86.5 347,-86.5 347,-67.5 264,-67.5"/>
<text text-anchor="middle" x="305.5" y="-74.5" font-family="Helvetica,sans-Serif" font-size="10.00">TaskObserver</text>
</a>
</g>
</g>
<!-- Node4&#45;&gt;Node1 -->
<g id="edge3" class="edge">
<title>Node4&#45;&gt;Node1</title>
<path fill="none" stroke="#9a32cd" stroke-dasharray="5,2" d="M282.95,-61.77C262.56,-48.9 233.21,-30.38 216.17,-19.63"/>
<polygon fill="#9a32cd" stroke="#9a32cd" points="281.28,-64.86 291.61,-67.23 285.02,-58.94 281.28,-64.86"/>
<text text-anchor="middle" x="299" y="-41" font-family="Helvetica,sans-Serif" font-size="10.00"> mTaskObserver</text>
</g>
<!-- Node5 -->
<g id="node5" class="node">
<title>Node5</title>
<g id="a_node5"><a xlink:title=" ">
<polygon fill="white" stroke="#bfbfbf" points="245.5,-124.5 245.5,-143.5 365.5,-143.5 365.5,-124.5 245.5,-124.5"/>
<text text-anchor="middle" x="305.5" y="-131.5" font-family="Helvetica,sans-Serif" font-size="10.00">MultithreadContainer</text>
</a>
</g>
</g>
<!-- Node5&#45;&gt;Node4 -->
<g id="edge4" class="edge">
<title>Node5&#45;&gt;Node4</title>
<path fill="none" stroke="midnightblue" d="M305.5,-114.12C305.5,-104.82 305.5,-94.06 305.5,-86.71"/>
<polygon fill="midnightblue" stroke="midnightblue" points="302,-114.41 305.5,-124.41 309,-114.41 302,-114.41"/>
</g>
</g>
</svg>
