<?xml version="1.0" encoding="UTF-8" standalone="no"?>
<!DOCTYPE svg PUBLIC "-//W3C//DTD SVG 1.1//EN"
 "http://www.w3.org/Graphics/SVG/1.1/DTD/svg11.dtd">
<!-- Generated by graphviz version 2.49.3 (20211027.1534)
 -->
<!-- Title: model::files::RebuildBlockIndexTask Pages: 1 -->
<svg width="172pt" height="220pt"
 viewBox="0.00 0.00 171.50 220.00" xmlns="http://www.w3.org/2000/svg" xmlns:xlink="http://www.w3.org/1999/xlink">
<g id="graph0" class="graph" transform="scale(1 1) rotate(0) translate(4 216)">
<title>model::files::RebuildBlockIndexTask</title>
<polygon fill="white" stroke="transparent" points="-4,4 -4,-216 167.5,-216 167.5,4 -4,4"/>
<!-- Node1 -->
<g id="node1" class="node">
<title>Node1</title>
<g id="a_node1"><a xlink:title=" ">
<polygon fill="#bfbfbf" stroke="black" points="0,-0.5 0,-30.5 143,-30.5 143,-0.5 0,-0.5"/>
<text text-anchor="start" x="8" y="-18.5" font-family="Helvetica,sans-Serif" font-size="10.00">model::files::RebuildBlock</text>
<text text-anchor="middle" x="71.5" y="-7.5" font-family="Helvetica,sans-Serif" font-size="10.00">IndexTask</text>
</a>
</g>
</g>
<!-- Node2 -->
<g id="node2" class="node">
<title>Node2</title>
<g id="a_node2"><a xlink:href="classtask_1_1_c_p_u_task.html" target="_top" xlink:title=" ">
<polygon fill="white" stroke="black" points="28.5,-68.5 28.5,-87.5 114.5,-87.5 114.5,-68.5 28.5,-68.5"/>
<text text-anchor="middle" x="71.5" y="-75.5" font-family="Helvetica,sans-Serif" font-size="10.00">task::CPUTask</text>
</a>
</g>
</g>
<!-- Node2&#45;&gt;Node1 -->
<g id="edge1" class="edge">
<title>Node2&#45;&gt;Node1</title>
<path fill="none" stroke="midnightblue" d="M71.5,-58.22C71.5,-49.36 71.5,-38.96 71.5,-30.76"/>
<polygon fill="midnightblue" stroke="midnightblue" points="68,-58.33 71.5,-68.33 75,-58.33 68,-58.33"/>
</g>
<!-- Node3 -->
<g id="node3" class="node">
<title>Node3</title>
<g id="a_node3"><a xlink:href="classtask_1_1_task.html" target="_top" xlink:title=" ">
<polygon fill="white" stroke="black" points="39,-125.5 39,-144.5 104,-144.5 104,-125.5 39,-125.5"/>
<text text-anchor="middle" x="71.5" y="-132.5" font-family="Helvetica,sans-Serif" font-size="10.00">task::Task</text>
</a>
</g>
</g>
<!-- Node3&#45;&gt;Node2 -->
<g id="edge2" class="edge">
<title>Node3&#45;&gt;Node2</title>
<path fill="none" stroke="midnightblue" d="M71.5,-115.12C71.5,-105.82 71.5,-95.06 71.5,-87.71"/>
<polygon fill="midnightblue" stroke="midnightblue" points="68,-115.41 71.5,-125.41 75,-115.41 68,-115.41"/>
</g>
<!-- Node4 -->
<g id="node4" class="node">
<title>Node4</title>
<g id="a_node4"><a xlink:href="classtask_1_1_command.html" target="_top" xlink:title=" ">
<polygon fill="white" stroke="black" points="24.5,-192.5 24.5,-211.5 118.5,-211.5 118.5,-192.5 24.5,-192.5"/>
<text text-anchor="middle" x="71.5" y="-199.5" font-family="Helvetica,sans-Serif" font-size="10.00">task::Command</text>
</a>
</g>
</g>
<!-- Node4&#45;&gt;Node3 -->
<g id="edge3" class="edge">
<title>Node4&#45;&gt;Node3</title>
<path fill="none" stroke="#9a32cd" stroke-dasharray="5,2" d="M71.5,-182.04C71.5,-169.67 71.5,-154.12 71.5,-144.63"/>
<polygon fill="#9a32cd" stroke="#9a32cd" points="68,-182.23 71.5,-192.23 75,-182.23 68,-182.23"/>
<text text-anchor="middle" x="117.5" y="-166" font-family="Helvetica,sans-Serif" font-size="10.00"> mFinishCommand</text>
</g>
</g>
</svg>
