<?xml version="1.0" encoding="UTF-8" standalone="no"?>
<!DOCTYPE svg PUBLIC "-//W3C//DTD SVG 1.1//EN"
 "http://www.w3.org/Graphics/SVG/1.1/DTD/svg11.dtd">
<!-- Generated by graphviz version 3.0.0 (20220413.0242)
 -->
<!-- Title: task::CPUTask Pages: 1 -->
<svg width="147pt" height="152pt"
 viewBox="0.00 0.00 147.00 152.00" xmlns="http://www.w3.org/2000/svg" xmlns:xlink="http://www.w3.org/1999/xlink">
<g id="graph0" class="graph" transform="scale(1 1) rotate(0) translate(4 148)">
<title>task::CPUTask</title>
<polygon fill="white" stroke="transparent" points="-4,4 -4,-148 143,-148 143,4 -4,4"/>
<!-- Node1 -->
<g id="node1" class="node">
<title>Node1</title>
<g id="a_node1"><a xlink:title=" ">
<polygon fill="#bfbfbf" stroke="black" points="4,-0.5 4,-19.5 90,-19.5 90,-0.5 4,-0.5"/>
<text text-anchor="middle" x="47" y="-7.5" font-family="Helvetica,sans-Serif" font-size="10.00">task::CPUTask</text>
</a>
</g>
</g>
<!-- Node2 -->
<g id="node2" class="node">
<title>Node2</title>
<g id="a_node2"><a xlink:href="classtask_1_1_task.html" target="_top" xlink:title=" ">
<polygon fill="white" stroke="#bfbfbf" points="14.5,-57.5 14.5,-76.5 79.5,-76.5 79.5,-57.5 14.5,-57.5"/>
<text text-anchor="middle" x="47" y="-64.5" font-family="Helvetica,sans-Serif" font-size="10.00">task::Task</text>
</a>
</g>
</g>
<!-- Node2&#45;&gt;Node1 -->
<g id="edge1" class="edge">
<title>Node2&#45;&gt;Node1</title>
<path fill="none" stroke="midnightblue" d="M47,-47.12C47,-37.82 47,-27.06 47,-19.71"/>
<polygon fill="midnightblue" stroke="midnightblue" points="43.5,-47.41 47,-57.41 50.5,-47.41 43.5,-47.41"/>
</g>
<!-- Node3 -->
<g id="node3" class="node">
<title>Node3</title>
<g id="a_node3"><a xlink:href="classtask_1_1_command.html" target="_top" xlink:title=" ">
<polygon fill="white" stroke="#bfbfbf" points="0,-124.5 0,-143.5 94,-143.5 94,-124.5 0,-124.5"/>
<text text-anchor="middle" x="47" y="-131.5" font-family="Helvetica,sans-Serif" font-size="10.00">task::Command</text>
</a>
</g>
</g>
<!-- Node3&#45;&gt;Node2 -->
<g id="edge2" class="edge">
<title>Node3&#45;&gt;Node2</title>
<path fill="none" stroke="#9a32cd" stroke-dasharray="5,2" d="M47,-114.04C47,-101.67 47,-86.12 47,-76.63"/>
<polygon fill="#9a32cd" stroke="#9a32cd" points="43.5,-114.23 47,-124.23 50.5,-114.23 43.5,-114.23"/>
<text text-anchor="middle" x="93" y="-98" font-family="Helvetica,sans-Serif" font-size="10.00"> mFinishCommand</text>
</g>
</g>
</svg>
