<?xml version="1.0" encoding="UTF-8" standalone="no"?>
<!DOCTYPE svg PUBLIC "-//W3C//DTD SVG 1.1//EN"
 "http://www.w3.org/Graphics/SVG/1.1/DTD/svg11.dtd">
<!-- Generated by graphviz version 3.0.0 (20220413.0242)
 -->
<!-- Title: controller::DeferredTransfer Pages: 1 -->
<svg width="287pt" height="209pt"
 viewBox="0.00 0.00 286.50 209.00" xmlns="http://www.w3.org/2000/svg" xmlns:xlink="http://www.w3.org/1999/xlink">
<g id="graph0" class="graph" transform="scale(1 1) rotate(0) translate(4 205)">
<title>controller::DeferredTransfer</title>
<polygon fill="white" stroke="transparent" points="-4,4 -4,-205 282.5,-205 282.5,4 -4,4"/>
<!-- Node1 -->
<g id="node1" class="node">
<title>Node1</title>
<g id="a_node1"><a xlink:title=" ">
<polygon fill="#bfbfbf" stroke="black" points="38,-0.5 38,-19.5 189,-19.5 189,-0.5 38,-0.5"/>
<text text-anchor="middle" x="113.5" y="-7.5" font-family="Helvetica,sans-Serif" font-size="10.00">controller::DeferredTransfer</text>
</a>
</g>
</g>
<!-- Node2 -->
<g id="node2" class="node">
<title>Node2</title>
<g id="a_node2"><a xlink:href="classcontroller_1_1_controller_base.html" target="_top" xlink:title=" ">
<polygon fill="white" stroke="#bfbfbf" points="0,-67.5 0,-86.5 141,-86.5 141,-67.5 0,-67.5"/>
<text text-anchor="middle" x="70.5" y="-74.5" font-family="Helvetica,sans-Serif" font-size="10.00">controller::ControllerBase</text>
</a>
</g>
</g>
<!-- Node2&#45;&gt;Node1 -->
<g id="edge1" class="edge">
<title>Node2&#45;&gt;Node1</title>
<path fill="none" stroke="midnightblue" d="M82.05,-58.53C90.38,-45.95 101.26,-29.51 107.79,-19.63"/>
<polygon fill="midnightblue" stroke="midnightblue" points="78.9,-56.96 76.3,-67.23 84.74,-60.82 78.9,-56.96"/>
</g>
<!-- Node3 -->
<g id="node3" class="node">
<title>Node3</title>
<g id="a_node3"><a xlink:href="classmodel_1_1files_1_1_state.html" target="_top" xlink:title=" ">
<polygon fill="white" stroke="#bfbfbf" points="159,-67.5 159,-86.5 264,-86.5 264,-67.5 159,-67.5"/>
<text text-anchor="middle" x="211.5" y="-74.5" font-family="Helvetica,sans-Serif" font-size="10.00">model::files::State</text>
</a>
</g>
</g>
<!-- Node3&#45;&gt;Node1 -->
<g id="edge2" class="edge">
<title>Node3&#45;&gt;Node1</title>
<path fill="none" stroke="#9a32cd" stroke-dasharray="5,2" d="M189.78,-61.59C170.39,-48.74 142.64,-30.33 126.51,-19.63"/>
<polygon fill="#9a32cd" stroke="#9a32cd" points="188.02,-64.62 198.28,-67.23 191.88,-58.79 188.02,-64.62"/>
<text text-anchor="middle" x="187" y="-41" font-family="Helvetica,sans-Serif" font-size="10.00"> mState</text>
</g>
<!-- Node4 -->
<g id="node4" class="node">
<title>Node4</title>
<g id="a_node4"><a xlink:href="classmodel_1_1files_1_1_file_base.html" target="_top" xlink:title=" ">
<polygon fill="white" stroke="#bfbfbf" points="151,-124.5 151,-143.5 272,-143.5 272,-124.5 151,-124.5"/>
<text text-anchor="middle" x="211.5" y="-131.5" font-family="Helvetica,sans-Serif" font-size="10.00">model::files::FileBase</text>
</a>
</g>
</g>
<!-- Node4&#45;&gt;Node3 -->
<g id="edge3" class="edge">
<title>Node4&#45;&gt;Node3</title>
<path fill="none" stroke="midnightblue" d="M211.5,-114.12C211.5,-104.82 211.5,-94.06 211.5,-86.71"/>
<polygon fill="midnightblue" stroke="midnightblue" points="208,-114.41 211.5,-124.41 215,-114.41 208,-114.41"/>
</g>
<!-- Node5 -->
<g id="node5" class="node">
<title>Node5</title>
<g id="a_node5"><a xlink:title=" ">
<polygon fill="white" stroke="#bfbfbf" points="144.5,-181.5 144.5,-200.5 278.5,-200.5 278.5,-181.5 144.5,-181.5"/>
<text text-anchor="middle" x="211.5" y="-188.5" font-family="Helvetica,sans-Serif" font-size="10.00">Poco::RefCountedObject</text>
</a>
</g>
</g>
<!-- Node5&#45;&gt;Node4 -->
<g id="edge4" class="edge">
<title>Node5&#45;&gt;Node4</title>
<path fill="none" stroke="midnightblue" d="M211.5,-171.12C211.5,-161.82 211.5,-151.06 211.5,-143.71"/>
<polygon fill="midnightblue" stroke="midnightblue" points="208,-171.41 211.5,-181.41 215,-171.41 208,-171.41"/>
</g>
</g>
</svg>
