<?xml version="1.0" encoding="UTF-8" standalone="no"?>
<!DOCTYPE svg PUBLIC "-//W3C//DTD SVG 1.1//EN"
 "http://www.w3.org/Graphics/SVG/1.1/DTD/svg11.dtd">
<!-- Generated by graphviz version 3.0.0 (20220413.0242)
 -->
<!-- Title: model::files::AddressIndex::calculateFileSize Pages: 1 -->
<svg width="518pt" height="88pt"
 viewBox="0.00 0.00 518.00 88.00" xmlns="http://www.w3.org/2000/svg" xmlns:xlink="http://www.w3.org/1999/xlink">
<g id="graph0" class="graph" transform="scale(1 1) rotate(0) translate(4 84)">
<title>model::files::AddressIndex::calculateFileSize</title>
<polygon fill="white" stroke="transparent" points="-4,4 -4,-84 514,-84 514,4 -4,4"/>
<!-- Node1 -->
<g id="node1" class="node">
<title>Node1</title>
<g id="a_node1"><a xlink:title="Calculate file size from map entry count + space for hash, use Poco::FastMutex::ScopedLock.">
<polygon fill="#bfbfbf" stroke="black" points="364,-24.5 364,-54.5 510,-54.5 510,-24.5 364,-24.5"/>
<text text-anchor="start" x="372" y="-42.5" font-family="Helvetica,sans-Serif" font-size="10.00">model::files::AddressIndex</text>
<text text-anchor="middle" x="437" y="-31.5" font-family="Helvetica,sans-Serif" font-size="10.00">::calculateFileSize</text>
</a>
</g>
</g>
<!-- Node2 -->
<g id="node2" class="node">
<title>Node2</title>
<g id="a_node2"><a xlink:href="classmodel_1_1files_1_1_address_index.html#af316cd9ce255efa0b2cfd80d6778d7b1" target="_top" xlink:title="Check if index file contains current indices (compare sizes), fileLock via FileLockManager,...">
<polygon fill="white" stroke="black" points="182,-24.5 182,-54.5 328,-54.5 328,-24.5 182,-24.5"/>
<text text-anchor="start" x="190" y="-42.5" font-family="Helvetica,sans-Serif" font-size="10.00">model::files::AddressIndex</text>
<text text-anchor="middle" x="255" y="-31.5" font-family="Helvetica,sans-Serif" font-size="10.00">::checkFile</text>
</a>
</g>
</g>
<!-- Node1&#45;&gt;Node2 -->
<g id="edge1" class="edge">
<title>Node1&#45;&gt;Node2</title>
<path fill="none" stroke="midnightblue" d="M353.56,-39.5C345.09,-39.5 336.54,-39.5 328.19,-39.5"/>
<polygon fill="midnightblue" stroke="midnightblue" points="353.82,-43 363.82,-39.5 353.82,-36 353.82,-43"/>
</g>
<!-- Node3 -->
<g id="node3" class="node">
<title>Node3</title>
<g id="a_node3"><a xlink:href="classmodel_1_1files_1_1_address_index.html#a2d88a425287729406bd2331e83c00451" target="_top" xlink:title="serialize address indices for writing with hdd write buffer task">
<polygon fill="white" stroke="black" points="0,-49.5 0,-79.5 146,-79.5 146,-49.5 0,-49.5"/>
<text text-anchor="start" x="8" y="-67.5" font-family="Helvetica,sans-Serif" font-size="10.00">model::files::AddressIndex</text>
<text text-anchor="middle" x="73" y="-56.5" font-family="Helvetica,sans-Serif" font-size="10.00">::serialize</text>
</a>
</g>
</g>
<!-- Node2&#45;&gt;Node3 -->
<g id="edge2" class="edge">
<title>Node2&#45;&gt;Node3</title>
<path fill="none" stroke="midnightblue" d="M171.84,-50.91C163.28,-52.1 154.63,-53.3 146.19,-54.47"/>
<polygon fill="midnightblue" stroke="midnightblue" points="172.4,-54.37 181.82,-49.52 171.44,-47.43 172.4,-54.37"/>
</g>
<!-- Node4 -->
<g id="node4" class="node">
<title>Node4</title>
<g id="a_node4"><a xlink:href="classmodel_1_1files_1_1_address_index.html#ac530703f10a574559e0885acd257a2ea" target="_top" xlink:title="Write new index file if checkFile return true, use Poco::FastMutex::ScopedLock, fileLock via FileLock...">
<polygon fill="white" stroke="black" points="0,-0.5 0,-30.5 146,-30.5 146,-0.5 0,-0.5"/>
<text text-anchor="start" x="8" y="-18.5" font-family="Helvetica,sans-Serif" font-size="10.00">model::files::AddressIndex</text>
<text text-anchor="middle" x="73" y="-7.5" font-family="Helvetica,sans-Serif" font-size="10.00">::writeToFile</text>
</a>
</g>
</g>
<!-- Node2&#45;&gt;Node4 -->
<g id="edge3" class="edge">
<title>Node2&#45;&gt;Node4</title>
<path fill="none" stroke="midnightblue" d="M171.84,-28.55C163.28,-27.4 154.63,-26.25 146.19,-25.13"/>
<polygon fill="midnightblue" stroke="midnightblue" points="171.45,-32.02 181.82,-29.88 172.37,-25.09 171.45,-32.02"/>
</g>
</g>
</svg>
