<?xml version="1.0" encoding="UTF-8" standalone="no"?>
<!DOCTYPE svg PUBLIC "-//W3C//DTD SVG 1.1//EN"
 "http://www.w3.org/Graphics/SVG/1.1/DTD/svg11.dtd">
<!-- Generated by graphviz version 3.0.0 (20220413.0242)
 -->
<!-- Title: task::Command Pages: 1 -->
<svg width="322pt" height="95pt"
 viewBox="0.00 0.00 321.50 95.00" xmlns="http://www.w3.org/2000/svg" xmlns:xlink="http://www.w3.org/1999/xlink">
<g id="graph0" class="graph" transform="scale(1 1) rotate(0) translate(4 91)">
<title>task::Command</title>
<polygon fill="white" stroke="transparent" points="-4,4 -4,-91 317.5,-91 317.5,4 -4,4"/>
<!-- Node1 -->
<g id="node1" class="node">
<title>Node1</title>
<g id="a_node1"><a xlink:title=" ">
<polygon fill="#bfbfbf" stroke="black" points="116.5,-67.5 116.5,-86.5 210.5,-86.5 210.5,-67.5 116.5,-67.5"/>
<text text-anchor="middle" x="163.5" y="-74.5" font-family="Helvetica,sans-Serif" font-size="10.00">task::Command</text>
</a>
</g>
</g>
<!-- Node2 -->
<g id="node2" class="node">
<title>Node2</title>
<g id="a_node2"><a xlink:href="class_task_observer_finish_command.html" target="_top" xlink:title=" ">
<polygon fill="white" stroke="#bfbfbf" points="0,-6 0,-25 161,-25 161,-6 0,-6"/>
<text text-anchor="middle" x="80.5" y="-13" font-family="Helvetica,sans-Serif" font-size="10.00">TaskObserverFinishCommand</text>
</a>
</g>
</g>
<!-- Node1&#45;&gt;Node2 -->
<g id="edge1" class="edge">
<title>Node1&#45;&gt;Node2</title>
<path fill="none" stroke="midnightblue" d="M143.43,-61.61C127.47,-50.17 105.67,-34.55 92.37,-25.01"/>
<polygon fill="midnightblue" stroke="midnightblue" points="141.44,-64.49 151.61,-67.48 145.52,-58.8 141.44,-64.49"/>
</g>
<!-- Node3 -->
<g id="node3" class="node">
<title>Node3</title>
<g id="a_node3"><a xlink:href="classmodel_1_1files_1_1_successfull_written_to_file_command.html" target="_top" xlink:title=" ">
<polygon fill="white" stroke="#bfbfbf" points="179.5,-0.5 179.5,-30.5 313.5,-30.5 313.5,-0.5 179.5,-0.5"/>
<text text-anchor="start" x="187.5" y="-18.5" font-family="Helvetica,sans-Serif" font-size="10.00">model::files::Successfull</text>
<text text-anchor="middle" x="246.5" y="-7.5" font-family="Helvetica,sans-Serif" font-size="10.00">WrittenToFileCommand</text>
</a>
</g>
</g>
<!-- Node1&#45;&gt;Node3 -->
<g id="edge2" class="edge">
<title>Node1&#45;&gt;Node3</title>
<path fill="none" stroke="midnightblue" d="M183.77,-61.47C196.91,-52.05 213.94,-39.84 226.94,-30.52"/>
<polygon fill="midnightblue" stroke="midnightblue" points="181.48,-58.8 175.39,-67.48 185.56,-64.49 181.48,-58.8"/>
</g>
</g>
</svg>
