<?xml version="1.0" encoding="UTF-8" standalone="no"?>
<!DOCTYPE svg PUBLIC "-//W3C//DTD SVG 1.1//EN"
 "http://www.w3.org/Graphics/SVG/1.1/DTD/svg11.dtd">
<!-- Generated by graphviz version 3.0.0 (20220413.0242)
 -->
<!-- Title: task::Task Pages: 1 -->
<svg width="398pt" height="317pt"
 viewBox="0.00 0.00 398.00 317.00" xmlns="http://www.w3.org/2000/svg" xmlns:xlink="http://www.w3.org/1999/xlink">
<g id="graph0" class="graph" transform="scale(1 1) rotate(0) translate(4 313)">
<title>task::Task</title>
<polygon fill="white" stroke="transparent" points="-4,4 -4,-313 394,-313 394,4 -4,4"/>
<!-- Node1 -->
<g id="node1" class="node">
<title>Node1</title>
<g id="a_node1"><a xlink:title=" ">
<polygon fill="#bfbfbf" stroke="black" points="0,-144.5 0,-163.5 65,-163.5 65,-144.5 0,-144.5"/>
<text text-anchor="middle" x="32.5" y="-151.5" font-family="Helvetica,sans-Serif" font-size="10.00">task::Task</text>
</a>
</g>
</g>
<!-- Node2 -->
<g id="node2" class="node">
<title>Node2</title>
<g id="a_node2"><a xlink:href="classtask_1_1_c_p_u_task.html" target="_top" xlink:title=" ">
<polygon fill="white" stroke="#bfbfbf" points="101,-144.5 101,-163.5 187,-163.5 187,-144.5 101,-144.5"/>
<text text-anchor="middle" x="144" y="-151.5" font-family="Helvetica,sans-Serif" font-size="10.00">task::CPUTask</text>
</a>
</g>
</g>
<!-- Node1&#45;&gt;Node2 -->
<g id="edge1" class="edge">
<title>Node1&#45;&gt;Node2</title>
<path fill="none" stroke="midnightblue" d="M75.42,-154C83.74,-154 92.47,-154 100.8,-154"/>
<polygon fill="midnightblue" stroke="midnightblue" points="75.17,-150.5 65.17,-154 75.17,-157.5 75.17,-150.5"/>
</g>
<!-- Node3 -->
<g id="node3" class="node">
<title>Node3</title>
<g id="a_node3"><a xlink:href="class_iota_message_to_transaction_task.html" target="_top" xlink:title=": Get confirmed transaction id from Iota, process it">
<polygon fill="white" stroke="black" points="223,-289.5 223,-308.5 390,-308.5 390,-289.5 223,-289.5"/>
<text text-anchor="middle" x="306.5" y="-296.5" font-family="Helvetica,sans-Serif" font-size="10.00">IotaMessageToTransactionTask</text>
</a>
</g>
</g>
<!-- Node2&#45;&gt;Node3 -->
<g id="edge2" class="edge">
<title>Node2&#45;&gt;Node3</title>
<path fill="none" stroke="midnightblue" d="M151.43,-173.18C161.85,-201.19 185.16,-252.91 223,-280 228.38,-283.85 234.41,-286.93 240.71,-289.4"/>
<polygon fill="midnightblue" stroke="midnightblue" points="154.71,-171.95 148.07,-163.7 148.12,-174.3 154.71,-171.95"/>
</g>
<!-- Node4 -->
<g id="node4" class="node">
<title>Node4</title>
<g id="a_node4"><a xlink:href="class_write_transactions_to_block_task.html" target="_top" xlink:title="Task for collecting transactions and write it to block chain after timeout.">
<polygon fill="white" stroke="black" points="225,-251.5 225,-270.5 388,-270.5 388,-251.5 225,-251.5"/>
<text text-anchor="middle" x="306.5" y="-258.5" font-family="Helvetica,sans-Serif" font-size="10.00">WriteTransactionsToBlockTask</text>
</a>
</g>
</g>
<!-- Node2&#45;&gt;Node4 -->
<g id="edge3" class="edge">
<title>Node2&#45;&gt;Node4</title>
<path fill="none" stroke="midnightblue" d="M156.19,-172.34C169.54,-192.59 193.75,-224.63 223,-242 229.57,-245.9 236.88,-249 244.35,-251.47"/>
<polygon fill="midnightblue" stroke="midnightblue" points="159.02,-170.26 150.69,-163.71 153.11,-174.02 159.02,-170.26"/>
</g>
<!-- Node5 -->
<g id="node5" class="node">
<title>Node5</title>
<g id="a_node5"><a xlink:href="classiota_1_1_milestone_loading_task.html" target="_top" xlink:title=" ">
<polygon fill="white" stroke="#bfbfbf" points="232,-213.5 232,-232.5 381,-232.5 381,-213.5 232,-213.5"/>
<text text-anchor="middle" x="306.5" y="-220.5" font-family="Helvetica,sans-Serif" font-size="10.00">iota::MilestoneLoadingTask</text>
</a>
</g>
</g>
<!-- Node2&#45;&gt;Node5 -->
<g id="edge4" class="edge">
<title>Node2&#45;&gt;Node5</title>
<path fill="none" stroke="midnightblue" d="M165.07,-169.62C180.22,-180.71 201.93,-195.14 223,-204 232.08,-207.82 242.05,-210.94 251.84,-213.47"/>
<polygon fill="midnightblue" stroke="midnightblue" points="167.06,-166.74 156.96,-163.55 162.86,-172.34 167.06,-166.74"/>
</g>
<!-- Node6 -->
<g id="node6" class="node">
<title>Node6</title>
<g id="a_node6"><a xlink:href="classmodel_1_1files_1_1_block_append_line_task.html" target="_top" xlink:title=" ">
<polygon fill="white" stroke="#bfbfbf" points="235,-164 235,-194 378,-194 378,-164 235,-164"/>
<text text-anchor="start" x="243" y="-182" font-family="Helvetica,sans-Serif" font-size="10.00">model::files::BlockAppend</text>
<text text-anchor="middle" x="306.5" y="-171" font-family="Helvetica,sans-Serif" font-size="10.00">LineTask</text>
</a>
</g>
</g>
<!-- Node2&#45;&gt;Node6 -->
<g id="edge5" class="edge">
<title>Node2&#45;&gt;Node6</title>
<path fill="none" stroke="#8b1a1a" d="M197.39,-162.16C209.32,-164.02 222.2,-166.02 234.76,-167.98"/>
<polygon fill="#8b1a1a" stroke="#8b1a1a" points="197.59,-158.65 187.17,-160.57 196.51,-165.57 197.59,-158.65"/>
</g>
<!-- Node7 -->
<g id="node7" class="node">
<title>Node7</title>
<g id="a_node7"><a xlink:href="classmodel_1_1files_1_1_rebuild_block_index_task.html" target="_top" xlink:title=" ">
<polygon fill="white" stroke="#bfbfbf" points="235,-115 235,-145 378,-145 378,-115 235,-115"/>
<text text-anchor="start" x="243" y="-133" font-family="Helvetica,sans-Serif" font-size="10.00">model::files::RebuildBlock</text>
<text text-anchor="middle" x="306.5" y="-122" font-family="Helvetica,sans-Serif" font-size="10.00">IndexTask</text>
</a>
</g>
</g>
<!-- Node2&#45;&gt;Node7 -->
<g id="edge6" class="edge">
<title>Node2&#45;&gt;Node7</title>
<path fill="none" stroke="midnightblue" d="M197.39,-146.17C209.32,-144.38 222.2,-142.46 234.76,-140.58"/>
<polygon fill="midnightblue" stroke="midnightblue" points="196.54,-142.75 187.17,-147.69 197.58,-149.68 196.54,-142.75"/>
</g>
<!-- Node8 -->
<g id="node8" class="node">
<title>Node8</title>
<g id="a_node8"><a xlink:href="classtask_1_1_hdd_write_buffer_task.html" target="_top" xlink:title=" ">
<polygon fill="white" stroke="#bfbfbf" points="236.5,-76.5 236.5,-95.5 376.5,-95.5 376.5,-76.5 236.5,-76.5"/>
<text text-anchor="middle" x="306.5" y="-83.5" font-family="Helvetica,sans-Serif" font-size="10.00">task::HddWriteBufferTask</text>
</a>
</g>
</g>
<!-- Node2&#45;&gt;Node8 -->
<g id="edge7" class="edge">
<title>Node2&#45;&gt;Node8</title>
<path fill="none" stroke="midnightblue" d="M166,-138.55C181.17,-128.04 202.51,-114.54 223,-106 233.07,-101.81 244.21,-98.37 254.96,-95.59"/>
<polygon fill="midnightblue" stroke="midnightblue" points="163.98,-135.7 157.84,-144.33 168.02,-141.41 163.98,-135.7"/>
</g>
<!-- Node9 -->
<g id="node9" class="node">
<title>Node9</title>
<g id="a_node9"><a xlink:href="classtask_1_1_notify_client.html" target="_top" xlink:title=" ">
<polygon fill="white" stroke="#bfbfbf" points="256,-38.5 256,-57.5 357,-57.5 357,-38.5 256,-38.5"/>
<text text-anchor="middle" x="306.5" y="-45.5" font-family="Helvetica,sans-Serif" font-size="10.00">task::NotifyClient</text>
</a>
</g>
</g>
<!-- Node2&#45;&gt;Node9 -->
<g id="edge8" class="edge">
<title>Node2&#45;&gt;Node9</title>
<path fill="none" stroke="midnightblue" d="M156.24,-135.87C169.63,-115.85 193.89,-84.18 223,-67 232.87,-61.17 244.39,-57.13 255.63,-54.33"/>
<polygon fill="midnightblue" stroke="midnightblue" points="153.21,-134.1 150.72,-144.4 159.09,-137.91 153.21,-134.1"/>
</g>
<!-- Node10 -->
<g id="node10" class="node">
<title>Node10</title>
<g id="a_node10"><a xlink:href="classtask_1_1_serialize_to_v_file_task.html" target="_top" xlink:title="Task for serializing binary data in preparing for saving in file.">
<polygon fill="white" stroke="black" points="235.5,-0.5 235.5,-19.5 377.5,-19.5 377.5,-0.5 235.5,-0.5"/>
<text text-anchor="middle" x="306.5" y="-7.5" font-family="Helvetica,sans-Serif" font-size="10.00">task::SerializeToVFileTask</text>
</a>
</g>
</g>
<!-- Node2&#45;&gt;Node10 -->
<g id="edge9" class="edge">
<title>Node2&#45;&gt;Node10</title>
<path fill="none" stroke="midnightblue" d="M151.61,-134.6C162.16,-106.73 185.5,-55.75 223,-29 228.38,-25.16 234.43,-22.08 240.72,-19.62"/>
<polygon fill="midnightblue" stroke="midnightblue" points="148.19,-133.78 148.09,-144.37 154.78,-136.16 148.19,-133.78"/>
</g>
</g>
</svg>
