<?xml version="1.0" encoding="UTF-8" standalone="no"?>
<!DOCTYPE svg PUBLIC "-//W3C//DTD SVG 1.1//EN"
 "http://www.w3.org/Graphics/SVG/1.1/DTD/svg11.dtd">
<!-- Generated by graphviz version 3.0.0 (20220413.0242)
 -->
<!-- Title: model::files::FileBase Pages: 1 -->
<svg width="481pt" height="142pt"
 viewBox="0.00 0.00 481.00 142.00" xmlns="http://www.w3.org/2000/svg" xmlns:xlink="http://www.w3.org/1999/xlink">
<g id="graph0" class="graph" transform="scale(1 1) rotate(0) translate(4 138)">
<title>model::files::FileBase</title>
<polygon fill="white" stroke="transparent" points="-4,4 -4,-138 477,-138 477,4 -4,4"/>
<!-- Node1 -->
<g id="node1" class="node">
<title>Node1</title>
<g id="a_node1"><a xlink:title=" ">
<polygon fill="#bfbfbf" stroke="black" points="170,-57.5 170,-76.5 291,-76.5 291,-57.5 170,-57.5"/>
<text text-anchor="middle" x="230.5" y="-64.5" font-family="Helvetica,sans-Serif" font-size="10.00">model::files::FileBase</text>
</a>
</g>
</g>
<!-- Node3 -->
<g id="node3" class="node">
<title>Node3</title>
<g id="a_node3"><a xlink:href="classmodel_1_1files_1_1_address_index.html" target="_top" xlink:title="File for storing account address indices.">
<polygon fill="white" stroke="black" points="327,-114.5 327,-133.5 473,-133.5 473,-114.5 327,-114.5"/>
<text text-anchor="middle" x="400" y="-121.5" font-family="Helvetica,sans-Serif" font-size="10.00">model::files::AddressIndex</text>
</a>
</g>
</g>
<!-- Node1&#45;&gt;Node3 -->
<g id="edge2" class="edge">
<title>Node1&#45;&gt;Node3</title>
<path fill="none" stroke="midnightblue" d="M262.62,-80.49C281.12,-88.23 305.16,-97.8 327,-105 337.44,-108.44 348.88,-111.69 359.51,-114.5"/>
<polygon fill="midnightblue" stroke="midnightblue" points="263.8,-77.19 253.22,-76.52 261.07,-83.63 263.8,-77.19"/>
</g>
<!-- Node4 -->
<g id="node4" class="node">
<title>Node4</title>
<g id="a_node4"><a xlink:href="classmodel_1_1files_1_1_block.html" target="_top" xlink:title=" ">
<polygon fill="white" stroke="#bfbfbf" points="346.5,-76.5 346.5,-95.5 453.5,-95.5 453.5,-76.5 346.5,-76.5"/>
<text text-anchor="middle" x="400" y="-83.5" font-family="Helvetica,sans-Serif" font-size="10.00">model::files::Block</text>
</a>
</g>
</g>
<!-- Node1&#45;&gt;Node4 -->
<g id="edge3" class="edge">
<title>Node1&#45;&gt;Node4</title>
<path fill="none" stroke="midnightblue" d="M301.33,-74.92C316.39,-76.63 332.07,-78.41 346.35,-80.03"/>
<polygon fill="midnightblue" stroke="midnightblue" points="301.36,-71.4 291.03,-73.75 300.57,-78.36 301.36,-71.4"/>
</g>
<!-- Node5 -->
<g id="node5" class="node">
<title>Node5</title>
<g id="a_node5"><a xlink:href="classmodel_1_1files_1_1_block_index.html" target="_top" xlink:title="Store Block Index Data in binary file.">
<polygon fill="white" stroke="black" points="333,-38.5 333,-57.5 467,-57.5 467,-38.5 333,-38.5"/>
<text text-anchor="middle" x="400" y="-45.5" font-family="Helvetica,sans-Serif" font-size="10.00">model::files::BlockIndex</text>
</a>
</g>
</g>
<!-- Node1&#45;&gt;Node5 -->
<g id="edge4" class="edge">
<title>Node1&#45;&gt;Node5</title>
<path fill="none" stroke="midnightblue" d="M301,-59.12C311.53,-57.92 322.37,-56.69 332.83,-55.51"/>
<polygon fill="midnightblue" stroke="midnightblue" points="300.57,-55.64 291.03,-60.25 301.36,-62.6 300.57,-55.64"/>
</g>
<!-- Node6 -->
<g id="node6" class="node">
<title>Node6</title>
<g id="a_node6"><a xlink:href="classmodel_1_1files_1_1_state.html" target="_top" xlink:title=" ">
<polygon fill="white" stroke="#bfbfbf" points="347.5,-0.5 347.5,-19.5 452.5,-19.5 452.5,-0.5 347.5,-0.5"/>
<text text-anchor="middle" x="400" y="-7.5" font-family="Helvetica,sans-Serif" font-size="10.00">model::files::State</text>
</a>
</g>
</g>
<!-- Node1&#45;&gt;Node6 -->
<g id="edge5" class="edge">
<title>Node1&#45;&gt;Node6</title>
<path fill="none" stroke="midnightblue" d="M262.62,-53.51C281.12,-45.77 305.16,-36.2 327,-29 337.44,-25.56 348.88,-22.31 359.51,-19.5"/>
<polygon fill="midnightblue" stroke="midnightblue" points="261.07,-50.37 253.22,-57.48 263.8,-56.81 261.07,-50.37"/>
</g>
<!-- Node2 -->
<g id="node2" class="node">
<title>Node2</title>
<g id="a_node2"><a xlink:title=" ">
<polygon fill="white" stroke="#bfbfbf" points="0,-57.5 0,-76.5 134,-76.5 134,-57.5 0,-57.5"/>
<text text-anchor="middle" x="67" y="-64.5" font-family="Helvetica,sans-Serif" font-size="10.00">Poco::RefCountedObject</text>
</a>
</g>
</g>
<!-- Node2&#45;&gt;Node1 -->
<g id="edge1" class="edge">
<title>Node2&#45;&gt;Node1</title>
<path fill="none" stroke="midnightblue" d="M144.23,-67C152.86,-67 161.56,-67 169.93,-67"/>
<polygon fill="midnightblue" stroke="midnightblue" points="144.15,-63.5 134.15,-67 144.15,-70.5 144.15,-63.5"/>
</g>
</g>
</svg>
