<?xml version="1.0" encoding="UTF-8" standalone="no"?>
<!DOCTYPE svg PUBLIC "-//W3C//DTD SVG 1.1//EN"
 "http://www.w3.org/Graphics/SVG/1.1/DTD/svg11.dtd">
<!-- Generated by graphviz version 3.0.0 (20220413.0242)
 -->
<!-- Title: task::NotifyClient Pages: 1 -->
<svg width="190pt" height="219pt"
 viewBox="0.00 0.00 190.00 219.00" xmlns="http://www.w3.org/2000/svg" xmlns:xlink="http://www.w3.org/1999/xlink">
<g id="graph0" class="graph" transform="scale(1 1) rotate(0) translate(4 215)">
<title>task::NotifyClient</title>
<polygon fill="white" stroke="transparent" points="-4,4 -4,-215 186,-215 186,4 -4,4"/>
<!-- Node1 -->
<g id="node1" class="node">
<title>Node1</title>
<g id="a_node1"><a xlink:title=" ">
<polygon fill="#bfbfbf" stroke="black" points="69.5,-0.5 69.5,-19.5 170.5,-19.5 170.5,-0.5 69.5,-0.5"/>
<text text-anchor="middle" x="120" y="-7.5" font-family="Helvetica,sans-Serif" font-size="10.00">task::NotifyClient</text>
</a>
</g>
</g>
<!-- Node2 -->
<g id="node2" class="node">
<title>Node2</title>
<g id="a_node2"><a xlink:href="classtask_1_1_c_p_u_task.html" target="_top" xlink:title=" ">
<polygon fill="white" stroke="#bfbfbf" points="4,-67.5 4,-86.5 90,-86.5 90,-67.5 4,-67.5"/>
<text text-anchor="middle" x="47" y="-74.5" font-family="Helvetica,sans-Serif" font-size="10.00">task::CPUTask</text>
</a>
</g>
</g>
<!-- Node2&#45;&gt;Node1 -->
<g id="edge1" class="edge">
<title>Node2&#45;&gt;Node1</title>
<path fill="none" stroke="midnightblue" d="M64.57,-60.36C78.92,-47.58 98.67,-29.99 110.31,-19.63"/>
<polygon fill="midnightblue" stroke="midnightblue" points="61.99,-57.97 56.85,-67.23 66.64,-63.2 61.99,-57.97"/>
</g>
<!-- Node3 -->
<g id="node3" class="node">
<title>Node3</title>
<g id="a_node3"><a xlink:href="classtask_1_1_task.html" target="_top" xlink:title=" ">
<polygon fill="white" stroke="#bfbfbf" points="14.5,-124.5 14.5,-143.5 79.5,-143.5 79.5,-124.5 14.5,-124.5"/>
<text text-anchor="middle" x="47" y="-131.5" font-family="Helvetica,sans-Serif" font-size="10.00">task::Task</text>
</a>
</g>
</g>
<!-- Node3&#45;&gt;Node2 -->
<g id="edge2" class="edge">
<title>Node3&#45;&gt;Node2</title>
<path fill="none" stroke="midnightblue" d="M47,-114.12C47,-104.82 47,-94.06 47,-86.71"/>
<polygon fill="midnightblue" stroke="midnightblue" points="43.5,-114.41 47,-124.41 50.5,-114.41 43.5,-114.41"/>
</g>
<!-- Node4 -->
<g id="node4" class="node">
<title>Node4</title>
<g id="a_node4"><a xlink:href="classtask_1_1_command.html" target="_top" xlink:title=" ">
<polygon fill="white" stroke="#bfbfbf" points="0,-191.5 0,-210.5 94,-210.5 94,-191.5 0,-191.5"/>
<text text-anchor="middle" x="47" y="-198.5" font-family="Helvetica,sans-Serif" font-size="10.00">task::Command</text>
</a>
</g>
</g>
<!-- Node4&#45;&gt;Node3 -->
<g id="edge3" class="edge">
<title>Node4&#45;&gt;Node3</title>
<path fill="none" stroke="#9a32cd" stroke-dasharray="5,2" d="M47,-181.04C47,-168.67 47,-153.12 47,-143.63"/>
<polygon fill="#9a32cd" stroke="#9a32cd" points="43.5,-181.23 47,-191.23 50.5,-181.23 43.5,-181.23"/>
<text text-anchor="middle" x="93" y="-165" font-family="Helvetica,sans-Serif" font-size="10.00"> mFinishCommand</text>
</g>
<!-- Node5 -->
<g id="node5" class="node">
<title>Node5</title>
<g id="a_node5"><a xlink:href="classclient_1_1_base.html" target="_top" xlink:title=" ">
<polygon fill="white" stroke="#bfbfbf" points="108,-67.5 108,-86.5 182,-86.5 182,-67.5 108,-67.5"/>
<text text-anchor="middle" x="145" y="-74.5" font-family="Helvetica,sans-Serif" font-size="10.00">client::Base</text>
</a>
</g>
</g>
<!-- Node5&#45;&gt;Node1 -->
<g id="edge4" class="edge">
<title>Node5&#45;&gt;Node1</title>
<path fill="none" stroke="#9a32cd" stroke-dasharray="5,2" d="M138,-57.79C133.2,-45.31 127.04,-29.31 123.32,-19.63"/>
<polygon fill="#9a32cd" stroke="#9a32cd" points="134.77,-59.16 141.63,-67.23 141.31,-56.64 134.77,-59.16"/>
<text text-anchor="middle" x="154" y="-41" font-family="Helvetica,sans-Serif" font-size="10.00"> mClient</text>
</g>
</g>
</svg>
