<?xml version="1.0" encoding="UTF-8" standalone="no"?>
<!DOCTYPE svg PUBLIC "-//W3C//DTD SVG 1.1//EN"
 "http://www.w3.org/Graphics/SVG/1.1/DTD/svg11.dtd">
<!-- Generated by graphviz version 2.49.3 (20211027.1534)
 -->
<!-- Title: controller::ArchiveTransactionsOrdering Pages: 1 -->
<!--zoomable 362 -->
<svg id="main" version="1.1" xmlns="http://www.w3.org/2000/svg" xmlns:xlink="http://www.w3.org/1999/xlink" xml:space="preserve" onload="init(evt)">
<style type="text/css"><![CDATA[
.edge:hover path { stroke: red; }
.edge:hover polygon { stroke: red; fill: red; }
]]></style>
<script type="text/javascript"><![CDATA[
var edges = document.getElementsByTagName('g');
if (edges && edges.length) {
  for (var i=0;i<edges.length;i++) {
    if (edges[i].id.substr(0,4)=='edge') {
      edges[i].setAttribute('class','edge');
    }
  }
}
]]></script>
        <defs>
                <circle id="rim" cx="0" cy="0" r="7"/>
                <circle id="rim2" cx="0" cy="0" r="3.5"/>
                <g id="zoomPlus">
                        <use xlink:href="#rim" fill="#404040">
                                <set attributeName="fill" to="#808080" begin="zoomplus.mouseover" end="zoomplus.mouseout"/>
                        </use>
                        <path d="M-4,0h8M0,-4v8" fill="none" stroke="white" stroke-width="1.5" pointer-events="none"/>
                </g>
                <g id="zoomMin">
                        <use xlink:href="#rim" fill="#404040">
                                <set attributeName="fill" to="#808080" begin="zoomminus.mouseover" end="zoomminus.mouseout"/>
                        </use>
                        <path d="M-4,0h8" fill="none" stroke="white" stroke-width="1.5" pointer-events="none"/>
                </g>
                <g id="dirArrow">
                        <path fill="none" stroke="white" stroke-width="1.5" d="M0,-3.0v7 M-2.5,-0.5L0,-3.0L2.5,-0.5"/>
                </g>
               <g id="resetDef">
                       <use xlink:href="#rim2" fill="#404040">
                               <set attributeName="fill" to="#808080" begin="reset.mouseover" end="reset.mouseout"/>
                       </use>
               </g>
        </defs>

<script type="text/javascript">
var viewWidth = 1002;
var viewHeight = 362;
var sectionId = 'dynsection-1';
</script>
<script xlink:href="svgpan.js"/>
<svg id="graph" class="graph">
<g id="viewport">
<title>controller::ArchiveTransactionsOrdering</title>
<polygon fill="white" stroke="transparent" points="-4,4 -4,-358.11 998,-358.11 998,4 -4,4"/>
<!-- Node1 -->
<g id="node1" class="node">
<title>Node1</title>
<g id="a_node1"><a xlink:title=" ">
<polygon fill="#bfbfbf" stroke="black" points="545,-14.05 545,-44.05 712,-44.05 712,-14.05 545,-14.05"/>
<text text-anchor="start" x="553" y="-32.05" font-family="Helvetica,sans-Serif" font-size="10.00">controller::ArchiveTransactions</text>
<text text-anchor="middle" x="628.5" y="-21.05" font-family="Helvetica,sans-Serif" font-size="10.00">Ordering</text>
</a>
</g>
</g>
<!-- Node4 -->
<g id="node4" class="node">
<title>Node4</title>
<g id="a_node4"><a xlink:href="classcontroller_1_1_group.html" target="_top" xlink:title="Main entry point for adding and searching for transactions TODO: validate transaction on startup.">
<polygon fill="white" stroke="black" points="896,-150.55 896,-169.55 994,-169.55 994,-150.55 896,-150.55"/>
<text text-anchor="middle" x="945" y="-157.55" font-family="Helvetica,sans-Serif" font-size="10.00">controller::Group</text>
</a>
</g>
</g>
<!-- Node1&#45;&gt;Node4 -->
<g id="edge18" class="edge">
<title>Node1&#45;&gt;Node4</title>
<path fill="none" stroke="#9a32cd" stroke-dasharray="5,2" d="M722.55,-37.29C787.43,-43.67 864.67,-52.78 878,-61.05 912.75,-82.62 933.23,-130.05 940.72,-150.43"/>
<polygon fill="#9a32cd" stroke="#9a32cd" points="722.55,-33.77 712.26,-36.29 721.88,-40.74 722.55,-33.77"/>
<text text-anchor="middle" x="804" y="-64.05" font-family="Helvetica,sans-Serif" font-size="10.00"> mArchiveTransactionOrdering</text>
</g>
<!-- Node2 -->
<g id="node2" class="node">
<title>Node2</title>
<g id="a_node2"><a xlink:href="classtask_1_1_thread.html" target="_top" xlink:title=" ">
<polygon fill="white" stroke="black" points="361,-19.55 361,-38.55 438,-38.55 438,-19.55 361,-19.55"/>
<text text-anchor="middle" x="399.5" y="-26.55" font-family="Helvetica,sans-Serif" font-size="10.00">task::Thread</text>
</a>
</g>
</g>
<!-- Node2&#45;&gt;Node1 -->
<g id="edge1" class="edge">
<title>Node2&#45;&gt;Node1</title>
<path fill="none" stroke="midnightblue" d="M448.54,-29.05C476.5,-29.05 512.51,-29.05 544.89,-29.05"/>
<polygon fill="midnightblue" stroke="midnightblue" points="448.24,-25.55 438.24,-29.05 448.24,-32.55 448.24,-25.55"/>
</g>
<!-- Node3 -->
<g id="node3" class="node">
<title>Node3</title>
<g id="a_node3"><a xlink:title=" ">
<polygon fill="white" stroke="#bfbfbf" points="185.5,-19.55 185.5,-38.55 277.5,-38.55 277.5,-19.55 185.5,-19.55"/>
<text text-anchor="middle" x="231.5" y="-26.55" font-family="Helvetica,sans-Serif" font-size="10.00">Poco::Runnable</text>
</a>
</g>
</g>
<!-- Node3&#45;&gt;Node2 -->
<g id="edge2" class="edge">
<title>Node3&#45;&gt;Node2</title>
<path fill="none" stroke="midnightblue" d="M287.88,-29.05C311.82,-29.05 339.23,-29.05 360.77,-29.05"/>
<polygon fill="midnightblue" stroke="midnightblue" points="287.86,-25.55 277.86,-29.05 287.86,-32.55 287.86,-25.55"/>
</g>
<!-- Node4&#45;&gt;Node1 -->
<g id="edge3" class="edge">
<title>Node4&#45;&gt;Node1</title>
<path fill="none" stroke="#9a32cd" stroke-dasharray="5,2" d="M940.97,-140.24C935.06,-109.32 918.8,-50.52 878,-25.05 817.06,12.99 730.27,-0.15 677.04,-13.98"/>
<polygon fill="#9a32cd" stroke="#9a32cd" points="937.55,-141 942.71,-150.25 944.45,-139.8 937.55,-141"/>
<text text-anchor="middle" x="804" y="-28.05" font-family="Helvetica,sans-Serif" font-size="10.00"> mParentGroup</text>
</g>
<!-- Node5 -->
<g id="node5" class="node">
<title>Node5</title>
<g id="a_node5"><a xlink:href="classcontroller_1_1_controller_base.html" target="_top" xlink:title=" ">
<polygon fill="white" stroke="black" points="329,-299.55 329,-318.55 470,-318.55 470,-299.55 329,-299.55"/>
<text text-anchor="middle" x="399.5" y="-306.55" font-family="Helvetica,sans-Serif" font-size="10.00">controller::ControllerBase</text>
</a>
</g>
</g>
<!-- Node5&#45;&gt;Node4 -->
<g id="edge4" class="edge">
<title>Node5&#45;&gt;Node4</title>
<path fill="none" stroke="midnightblue" d="M440.87,-321.4C528.58,-345.62 739.8,-389.64 878,-300.05 924.9,-269.65 939.16,-196.23 942.86,-169.77"/>
<polygon fill="midnightblue" stroke="midnightblue" points="441.61,-317.97 431.04,-318.62 439.71,-324.71 441.61,-317.97"/>
</g>
<!-- Node14 -->
<g id="node14" class="node">
<title>Node14</title>
<g id="a_node14"><a xlink:href="classcontroller_1_1_deferred_transfer.html" target="_top" xlink:title=" ">
<polygon fill="white" stroke="black" points="553,-267.55 553,-286.55 704,-286.55 704,-267.55 553,-267.55"/>
<text text-anchor="middle" x="628.5" y="-274.55" font-family="Helvetica,sans-Serif" font-size="10.00">controller::DeferredTransfer</text>
</a>
</g>
</g>
<!-- Node5&#45;&gt;Node14 -->
<g id="edge15" class="edge">
<title>Node5&#45;&gt;Node14</title>
<path fill="none" stroke="midnightblue" d="M478.02,-298.13C504.61,-294.38 534.14,-290.22 559.88,-286.59"/>
<polygon fill="midnightblue" stroke="midnightblue" points="477.41,-294.68 467.99,-299.54 478.38,-301.61 477.41,-294.68"/>
</g>
<!-- Node6 -->
<g id="node6" class="node">
<title>Node6</title>
<g id="a_node6"><a xlink:title=" ">
<polygon fill="white" stroke="#bfbfbf" points="554.5,-182.55 554.5,-201.55 702.5,-201.55 702.5,-182.55 554.5,-182.55"/>
<text text-anchor="middle" x="628.5" y="-189.55" font-family="Helvetica,sans-Serif" font-size="10.00">model::IGradidoBlockchain</text>
</a>
</g>
</g>
<!-- Node6&#45;&gt;Node4 -->
<g id="edge5" class="edge">
<title>Node6&#45;&gt;Node4</title>
<path fill="none" stroke="midnightblue" d="M712.7,-188.15C761.09,-185.27 823.17,-180.52 878,-173.05 884.94,-172.11 892.26,-170.89 899.39,-169.58"/>
<polygon fill="midnightblue" stroke="midnightblue" points="712.37,-184.67 702.59,-188.74 712.78,-191.66 712.37,-184.67"/>
</g>
<!-- Node7 -->
<g id="node7" class="node">
<title>Node7</title>
<g id="a_node7"><a xlink:href="class_task_observer.html" target="_top" xlink:title=" ">
<polygon fill="white" stroke="black" points="587,-144.55 587,-163.55 670,-163.55 670,-144.55 587,-144.55"/>
<text text-anchor="middle" x="628.5" y="-151.55" font-family="Helvetica,sans-Serif" font-size="10.00">TaskObserver</text>
</a>
</g>
</g>
<!-- Node7&#45;&gt;Node4 -->
<g id="edge6" class="edge">
<title>Node7&#45;&gt;Node4</title>
<path fill="none" stroke="#9a32cd" stroke-dasharray="5,2" d="M680.58,-155.03C740.07,-156.16 837.59,-158.02 895.81,-159.14"/>
<polygon fill="#9a32cd" stroke="#9a32cd" points="680.36,-151.52 670.29,-154.83 680.22,-158.52 680.36,-151.52"/>
<text text-anchor="middle" x="804" y="-161.05" font-family="Helvetica,sans-Serif" font-size="10.00"> mTaskObserver</text>
</g>
<!-- Node8 -->
<g id="node8" class="node">
<title>Node8</title>
<g id="a_node8"><a xlink:title=" ">
<polygon fill="white" stroke="#bfbfbf" points="339.5,-138.55 339.5,-157.55 459.5,-157.55 459.5,-138.55 339.5,-138.55"/>
<text text-anchor="middle" x="399.5" y="-145.55" font-family="Helvetica,sans-Serif" font-size="10.00">MultithreadContainer</text>
</a>
</g>
</g>
<!-- Node8&#45;&gt;Node7 -->
<g id="edge7" class="edge">
<title>Node8&#45;&gt;Node7</title>
<path fill="none" stroke="midnightblue" d="M469.63,-149.88C508.02,-150.9 554.45,-152.12 586.99,-152.98"/>
<polygon fill="midnightblue" stroke="midnightblue" points="469.64,-146.38 459.55,-149.62 469.45,-153.38 469.64,-146.38"/>
</g>
<!-- Node9 -->
<g id="node9" class="node">
<title>Node9</title>
<g id="a_node9"><a xlink:href="classiota_1_1_message_listener.html" target="_top" xlink:title="call iota regular and check if new message on the listening index are available">
<polygon fill="white" stroke="black" points="566.5,-106.55 566.5,-125.55 690.5,-125.55 690.5,-106.55 566.5,-106.55"/>
<text text-anchor="middle" x="628.5" y="-113.55" font-family="Helvetica,sans-Serif" font-size="10.00">iota::MessageListener</text>
</a>
</g>
</g>
<!-- Node8&#45;&gt;Node9 -->
<g id="edge9" class="edge">
<title>Node8&#45;&gt;Node9</title>
<path fill="none" stroke="midnightblue" d="M469.79,-138.29C500.6,-133.94 536.57,-128.87 566.37,-124.67"/>
<polygon fill="midnightblue" stroke="midnightblue" points="468.96,-134.87 459.55,-139.73 469.94,-141.8 468.96,-134.87"/>
</g>
<!-- Node9&#45;&gt;Node4 -->
<g id="edge8" class="edge">
<title>Node9&#45;&gt;Node4</title>
<path fill="none" stroke="#9a32cd" stroke-dasharray="5,2" d="M700.81,-119.19C750.79,-122.3 818.93,-128.37 878,-140.05 890.92,-142.61 904.92,-146.66 916.69,-150.45"/>
<polygon fill="#9a32cd" stroke="#9a32cd" points="700.95,-115.69 690.75,-118.59 700.53,-122.68 700.95,-115.69"/>
<text text-anchor="middle" x="804" y="-143.05" font-family="Helvetica,sans-Serif" font-size="10.00"> mIotaMessageListener</text>
</g>
<!-- Node10 -->
<g id="node10" class="node">
<title>Node10</title>
<g id="a_node10"><a xlink:href="class_timer_callback.html" target="_top" xlink:title=" ">
<polygon fill="white" stroke="black" points="356,-94.55 356,-113.55 443,-113.55 443,-94.55 356,-94.55"/>
<text text-anchor="middle" x="399.5" y="-101.55" font-family="Helvetica,sans-Serif" font-size="10.00">TimerCallback</text>
</a>
</g>
</g>
<!-- Node10&#45;&gt;Node9 -->
<g id="edge10" class="edge">
<title>Node10&#45;&gt;Node9</title>
<path fill="none" stroke="midnightblue" d="M453.32,-106.85C487.04,-108.63 530.88,-110.95 566.14,-112.81"/>
<polygon fill="midnightblue" stroke="midnightblue" points="453.37,-103.34 443.2,-106.31 453,-110.33 453.37,-103.34"/>
</g>
<!-- Node11 -->
<g id="node11" class="node">
<title>Node11</title>
<g id="a_node11"><a xlink:href="classmodel_1_1files_1_1_state.html" target="_top" xlink:title=" ">
<polygon fill="white" stroke="black" points="347,-238.55 347,-257.55 452,-257.55 452,-238.55 347,-238.55"/>
<text text-anchor="middle" x="399.5" y="-245.55" font-family="Helvetica,sans-Serif" font-size="10.00">model::files::State</text>
</a>
</g>
</g>
<!-- Node11&#45;&gt;Node4 -->
<g id="edge11" class="edge">
<title>Node11&#45;&gt;Node4</title>
<path fill="none" stroke="#9a32cd" stroke-dasharray="5,2" d="M462.21,-247.75C554.54,-245.78 733.26,-236.12 878,-193.05 896.3,-187.61 915.65,-177.33 928.64,-169.68"/>
<polygon fill="#9a32cd" stroke="#9a32cd" points="462.13,-244.25 452.2,-247.94 462.27,-251.25 462.13,-244.25"/>
<text text-anchor="middle" x="628.5" y="-247.05" font-family="Helvetica,sans-Serif" font-size="10.00"> mGroupState</text>
</g>
<!-- Node11&#45;&gt;Node14 -->
<g id="edge16" class="edge">
<title>Node11&#45;&gt;Node14</title>
<path fill="none" stroke="#9a32cd" stroke-dasharray="5,2" d="M462.07,-255.92C490.1,-259.5 523.51,-263.77 552.95,-267.53"/>
<polygon fill="#9a32cd" stroke="#9a32cd" points="462.37,-252.43 452.01,-254.64 461.49,-259.37 462.37,-252.43"/>
<text text-anchor="middle" x="507.5" y="-266.05" font-family="Helvetica,sans-Serif" font-size="10.00"> mState</text>
</g>
<!-- Node12 -->
<g id="node12" class="node">
<title>Node12</title>
<g id="a_node12"><a xlink:href="classmodel_1_1files_1_1_file_base.html" target="_top" xlink:title=" ">
<polygon fill="white" stroke="black" points="171,-238.55 171,-257.55 292,-257.55 292,-238.55 171,-238.55"/>
<text text-anchor="middle" x="231.5" y="-245.55" font-family="Helvetica,sans-Serif" font-size="10.00">model::files::FileBase</text>
</a>
</g>
</g>
<!-- Node12&#45;&gt;Node11 -->
<g id="edge12" class="edge">
<title>Node12&#45;&gt;Node11</title>
<path fill="none" stroke="midnightblue" d="M302.6,-248.05C317.45,-248.05 332.87,-248.05 346.89,-248.05"/>
<polygon fill="midnightblue" stroke="midnightblue" points="302.43,-244.55 292.43,-248.05 302.43,-251.55 302.43,-244.55"/>
</g>
<!-- Node13 -->
<g id="node13" class="node">
<title>Node13</title>
<g id="a_node13"><a xlink:title=" ">
<polygon fill="white" stroke="#bfbfbf" points="0,-238.55 0,-257.55 134,-257.55 134,-238.55 0,-238.55"/>
<text text-anchor="middle" x="67" y="-245.55" font-family="Helvetica,sans-Serif" font-size="10.00">Poco::RefCountedObject</text>
</a>
</g>
</g>
<!-- Node13&#45;&gt;Node12 -->
<g id="edge13" class="edge">
<title>Node13&#45;&gt;Node12</title>
<path fill="none" stroke="midnightblue" d="M144.12,-248.05C153.06,-248.05 162.08,-248.05 170.74,-248.05"/>
<polygon fill="midnightblue" stroke="midnightblue" points="144.1,-244.55 134.09,-248.05 144.09,-251.55 144.1,-244.55"/>
</g>
<!-- Node14&#45;&gt;Node4 -->
<g id="edge14" class="edge">
<title>Node14&#45;&gt;Node4</title>
<path fill="none" stroke="#9a32cd" stroke-dasharray="5,2" d="M714.51,-285.34C765.16,-286.35 828.93,-280.44 878,-252.05 911.35,-232.76 932.32,-189.08 940.32,-169.67"/>
<polygon fill="#9a32cd" stroke="#9a32cd" points="714.34,-281.83 704.24,-285.04 714.13,-288.83 714.34,-281.83"/>
<text text-anchor="middle" x="804" y="-288.05" font-family="Helvetica,sans-Serif" font-size="10.00"> mDeferredTransfersCache</text>
</g>
<!-- Node15 -->
<g id="node15" class="node">
<title>Node15</title>
<g id="a_node15"><a xlink:href="classclient_1_1_base.html" target="_top" xlink:title=" ">
<polygon fill="white" stroke="black" points="591.5,-68.55 591.5,-87.55 665.5,-87.55 665.5,-68.55 591.5,-68.55"/>
<text text-anchor="middle" x="628.5" y="-75.55" font-family="Helvetica,sans-Serif" font-size="10.00">client::Base</text>
</a>
</g>
</g>
<!-- Node15&#45;&gt;Node4 -->
<g id="edge17" class="edge">
<title>Node15&#45;&gt;Node4</title>
<path fill="none" stroke="#9a32cd" stroke-dasharray="5,2" d="M675.8,-75.62C727.24,-74.61 811.75,-78.13 878,-106.05 902.01,-116.18 924.2,-137.9 935.73,-150.5"/>
<polygon fill="#9a32cd" stroke="#9a32cd" points="675.56,-72.12 665.66,-75.88 675.75,-79.12 675.56,-72.12"/>
<text text-anchor="middle" x="804" y="-109.05" font-family="Helvetica,sans-Serif" font-size="10.00"> mCommunityServer</text>
</g>
</g>
</svg>
        <g id="navigator" transform="translate(0 0)" fill="#404254">
                <rect fill="#f2f5e9" fill-opacity="0.5" stroke="#606060" stroke-width=".5" x="0" y="0" width="60" height="60"/>
                <use id="zoomplus" xlink:href="#zoomPlus" x="17" y="9" onmousedown="handleZoom(evt,'in')"/>
                <use id="zoomminus" xlink:href="#zoomMin" x="42" y="9" onmousedown="handleZoom(evt,'out')"/>
                <use id="reset" xlink:href="#resetDef" x="30" y="36" onmousedown="handleReset()"/>
                <g id="arrowUp" xlink:href="#dirArrow" transform="translate(30 24)" onmousedown="handlePan(0,-1)">
                  <use xlink:href="#rim" fill="#404040">
                        <set attributeName="fill" to="#808080" begin="arrowUp.mouseover" end="arrowUp.mouseout"/>
                  </use>
                  <path fill="none" stroke="white" stroke-width="1.5" d="M0,-3.0v7 M-2.5,-0.5L0,-3.0L2.5,-0.5"/>
                </g>
                <g id="arrowRight" xlink:href="#dirArrow" transform="rotate(90) translate(36 -43)" onmousedown="handlePan(1,0)">
                  <use xlink:href="#rim" fill="#404040">
                        <set attributeName="fill" to="#808080" begin="arrowRight.mouseover" end="arrowRight.mouseout"/>
                  </use>
                  <path fill="none" stroke="white" stroke-width="1.5" d="M0,-3.0v7 M-2.5,-0.5L0,-3.0L2.5,-0.5"/>
                </g>
                <g id="arrowDown" xlink:href="#dirArrow" transform="rotate(180) translate(-30 -48)" onmousedown="handlePan(0,1)">
                  <use xlink:href="#rim" fill="#404040">
                        <set attributeName="fill" to="#808080" begin="arrowDown.mouseover" end="arrowDown.mouseout"/>
                  </use>
                  <path fill="none" stroke="white" stroke-width="1.5" d="M0,-3.0v7 M-2.5,-0.5L0,-3.0L2.5,-0.5"/>
                </g>
                <g id="arrowLeft" xlink:href="#dirArrow" transform="rotate(270) translate(-36 17)" onmousedown="handlePan(-1,0)">
                  <use xlink:href="#rim" fill="#404040">
                        <set attributeName="fill" to="#808080" begin="arrowLeft.mouseover" end="arrowLeft.mouseout"/>
                  </use>
                  <path fill="none" stroke="white" stroke-width="1.5" d="M0,-3.0v7 M-2.5,-0.5L0,-3.0L2.5,-0.5"/>
                </g>
        </g>
        <svg viewBox="0 0 15 15" width="100%" height="30px" preserveAspectRatio="xMaxYMin meet">
         <g id="arrow_out" transform="scale(0.3 0.3)">
          <a xlink:href="classcontroller_1_1_archive_transactions_ordering__coll__graph_org.svg" target="_base">
           <rect id="button" ry="5" rx="5" y="6" x="6" height="38" width="38"
                fill="#f2f5e9" fill-opacity="0.5" stroke="#606060" stroke-width="1.0"/>
           <path id="arrow"
             d="M 11.500037,31.436501 C 11.940474,20.09759 22.043105,11.32322 32.158766,21.979434 L 37.068811,17.246167 C 37.068811,17.246167 37.088388,32 37.088388,32 L 22.160133,31.978069 C 22.160133,31.978069 26.997745,27.140456 26.997745,27.140456 C 18.528582,18.264221 13.291696,25.230495 11.500037,31.436501 z"
             style="fill:#404040;"/>
          </a>
         </g>
        </svg>
</svg>
