<?xml version="1.0" encoding="UTF-8" standalone="no"?>
<!DOCTYPE svg PUBLIC "-//W3C//DTD SVG 1.1//EN"
 "http://www.w3.org/Graphics/SVG/1.1/DTD/svg11.dtd">
<!-- Generated by graphviz version 2.49.3 (20211027.1534)
 -->
<!-- Title: GlobalStateManager Pages: 1 -->
<svg width="163pt" height="209pt"
 viewBox="0.00 0.00 163.00 209.00" xmlns="http://www.w3.org/2000/svg" xmlns:xlink="http://www.w3.org/1999/xlink">
<g id="graph0" class="graph" transform="scale(1 1) rotate(0) translate(4 205)">
<title>GlobalStateManager</title>
<polygon fill="white" stroke="transparent" points="-4,4 -4,-205 159,-205 159,4 -4,4"/>
<!-- Node1 -->
<g id="node1" class="node">
<title>Node1</title>
<g id="a_node1"><a xlink:title=": control global states which needed for the whole node server state a variables which must be saved ...">
<polygon fill="#bfbfbf" stroke="black" points="9,-0.5 9,-19.5 125,-19.5 125,-0.5 9,-0.5"/>
<text text-anchor="middle" x="67" y="-7.5" font-family="Helvetica,sans-Serif" font-size="10.00">GlobalStateManager</text>
</a>
</g>
</g>
<!-- Node2 -->
<g id="node2" class="node">
<title>Node2</title>
<g id="a_node2"><a xlink:href="classmodel_1_1files_1_1_state.html" target="_top" xlink:title=" ">
<polygon fill="white" stroke="black" points="14.5,-67.5 14.5,-86.5 119.5,-86.5 119.5,-67.5 14.5,-67.5"/>
<text text-anchor="middle" x="67" y="-74.5" font-family="Helvetica,sans-Serif" font-size="10.00">model::files::State</text>
</a>
</g>
</g>
<!-- Node2&#45;&gt;Node1 -->
<g id="edge1" class="edge">
<title>Node2&#45;&gt;Node1</title>
<path fill="none" stroke="#9a32cd" stroke-dasharray="5,2" d="M67,-57.04C67,-44.67 67,-29.12 67,-19.63"/>
<polygon fill="#9a32cd" stroke="#9a32cd" points="63.5,-57.23 67,-67.23 70.5,-57.23 63.5,-57.23"/>
<text text-anchor="middle" x="111" y="-41" font-family="Helvetica,sans-Serif" font-size="10.00"> mGlobalStateFile</text>
</g>
<!-- Node3 -->
<g id="node3" class="node">
<title>Node3</title>
<g id="a_node3"><a xlink:href="classmodel_1_1files_1_1_file_base.html" target="_top" xlink:title=" ">
<polygon fill="white" stroke="black" points="6.5,-124.5 6.5,-143.5 127.5,-143.5 127.5,-124.5 6.5,-124.5"/>
<text text-anchor="middle" x="67" y="-131.5" font-family="Helvetica,sans-Serif" font-size="10.00">model::files::FileBase</text>
</a>
</g>
</g>
<!-- Node3&#45;&gt;Node2 -->
<g id="edge2" class="edge">
<title>Node3&#45;&gt;Node2</title>
<path fill="none" stroke="midnightblue" d="M67,-114.12C67,-104.82 67,-94.06 67,-86.71"/>
<polygon fill="midnightblue" stroke="midnightblue" points="63.5,-114.41 67,-124.41 70.5,-114.41 63.5,-114.41"/>
</g>
<!-- Node4 -->
<g id="node4" class="node">
<title>Node4</title>
<g id="a_node4"><a xlink:title=" ">
<polygon fill="white" stroke="#bfbfbf" points="0,-181.5 0,-200.5 134,-200.5 134,-181.5 0,-181.5"/>
<text text-anchor="middle" x="67" y="-188.5" font-family="Helvetica,sans-Serif" font-size="10.00">Poco::RefCountedObject</text>
</a>
</g>
</g>
<!-- Node4&#45;&gt;Node3 -->
<g id="edge3" class="edge">
<title>Node4&#45;&gt;Node3</title>
<path fill="none" stroke="midnightblue" d="M67,-171.12C67,-161.82 67,-151.06 67,-143.71"/>
<polygon fill="midnightblue" stroke="midnightblue" points="63.5,-171.41 67,-181.41 70.5,-171.41 63.5,-171.41"/>
</g>
</g>
</svg>
