<?xml version="1.0" encoding="UTF-8" standalone="no"?>
<!DOCTYPE svg PUBLIC "-//W3C//DTD SVG 1.1//EN"
 "http://www.w3.org/Graphics/SVG/1.1/DTD/svg11.dtd">
<!-- Generated by graphviz version 3.0.0 (20220413.0242)
 -->
<!-- Title: controller::MemoryAddressIndex Pages: 1 -->
<svg width="254pt" height="151pt"
 viewBox="0.00 0.00 254.00 151.00" xmlns="http://www.w3.org/2000/svg" xmlns:xlink="http://www.w3.org/1999/xlink">
<g id="graph0" class="graph" transform="scale(1 1) rotate(0) translate(4 147)">
<title>controller::MemoryAddressIndex</title>
<polygon fill="white" stroke="transparent" points="-4,4 -4,-147 250,-147 250,4 -4,4"/>
<!-- Node1 -->
<g id="node1" class="node">
<title>Node1</title>
<g id="a_node1"><a xlink:title=" ">
<polygon fill="#bfbfbf" stroke="black" points="62,-0.5 62,-30.5 211,-30.5 211,-0.5 62,-0.5"/>
<text text-anchor="start" x="70" y="-18.5" font-family="Helvetica,sans-Serif" font-size="10.00">controller::MemoryAddress</text>
<text text-anchor="middle" x="136.5" y="-7.5" font-family="Helvetica,sans-Serif" font-size="10.00">Index</text>
</a>
</g>
</g>
<!-- Node2 -->
<g id="node2" class="node">
<title>Node2</title>
<g id="a_node2"><a xlink:href="classcontroller_1_1_address_index.html" target="_top" xlink:title=" ">
<polygon fill="white" stroke="#bfbfbf" points="69,-67.5 69,-86.5 204,-86.5 204,-67.5 69,-67.5"/>
<text text-anchor="middle" x="136.5" y="-74.5" font-family="Helvetica,sans-Serif" font-size="10.00">controller::AddressIndex</text>
</a>
</g>
</g>
<!-- Node2&#45;&gt;Node1 -->
<g id="edge1" class="edge">
<title>Node2&#45;&gt;Node1</title>
<path fill="none" stroke="midnightblue" d="M136.5,-57.23C136.5,-48.59 136.5,-38.5 136.5,-30.52"/>
<polygon fill="midnightblue" stroke="midnightblue" points="133,-57.48 136.5,-67.48 140,-57.48 133,-57.48"/>
</g>
<!-- Node3 -->
<g id="node3" class="node">
<title>Node3</title>
<g id="a_node3"><a xlink:href="classcontroller_1_1_controller_base.html" target="_top" xlink:title=" ">
<polygon fill="white" stroke="#bfbfbf" points="0,-123.5 0,-142.5 141,-142.5 141,-123.5 0,-123.5"/>
<text text-anchor="middle" x="70.5" y="-130.5" font-family="Helvetica,sans-Serif" font-size="10.00">controller::ControllerBase</text>
</a>
</g>
</g>
<!-- Node3&#45;&gt;Node2 -->
<g id="edge2" class="edge">
<title>Node3&#45;&gt;Node2</title>
<path fill="none" stroke="midnightblue" d="M89.05,-116.82C100.88,-107.15 115.79,-94.95 125.7,-86.83"/>
<polygon fill="midnightblue" stroke="midnightblue" points="86.63,-114.28 81.1,-123.32 91.06,-119.7 86.63,-114.28"/>
</g>
<!-- Node4 -->
<g id="node4" class="node">
<title>Node4</title>
<g id="a_node4"><a xlink:href="class_timer_callback.html" target="_top" xlink:title=" ">
<polygon fill="white" stroke="#bfbfbf" points="159,-123.5 159,-142.5 246,-142.5 246,-123.5 159,-123.5"/>
<text text-anchor="middle" x="202.5" y="-130.5" font-family="Helvetica,sans-Serif" font-size="10.00">TimerCallback</text>
</a>
</g>
</g>
<!-- Node4&#45;&gt;Node2 -->
<g id="edge3" class="edge">
<title>Node4&#45;&gt;Node2</title>
<path fill="none" stroke="midnightblue" d="M183.95,-116.82C172.12,-107.15 157.21,-94.95 147.3,-86.83"/>
<polygon fill="midnightblue" stroke="midnightblue" points="181.94,-119.7 191.9,-123.32 186.37,-114.28 181.94,-119.7"/>
</g>
</g>
</svg>
