<?xml version="1.0" encoding="UTF-8" standalone="no"?>
<!DOCTYPE svg PUBLIC "-//W3C//DTD SVG 1.1//EN"
 "http://www.w3.org/Graphics/SVG/1.1/DTD/svg11.dtd">
<!-- Generated by graphviz version 3.0.0 (20220413.0242)
 -->
<!-- Title: task::Task Pages: 1 -->
<svg width="398pt" height="279pt"
 viewBox="0.00 0.00 398.00 279.00" xmlns="http://www.w3.org/2000/svg" xmlns:xlink="http://www.w3.org/1999/xlink">
<g id="graph0" class="graph" transform="scale(1 1) rotate(0) translate(4 275)">
<title>task::Task</title>
<polygon fill="white" stroke="transparent" points="-4,4 -4,-275 394,-275 394,4 -4,4"/>
<!-- Node1 -->
<g id="node1" class="node">
<title>Node1</title>
<g id="a_node1"><a xlink:title=" ">
<polygon fill="#bfbfbf" stroke="black" points="0,-131.5 0,-150.5 65,-150.5 65,-131.5 0,-131.5"/>
<text text-anchor="middle" x="32.5" y="-138.5" font-family="Helvetica,sans-Serif" font-size="10.00">task::Task</text>
</a>
</g>
</g>
<!-- Node2 -->
<g id="node2" class="node">
<title>Node2</title>
<g id="a_node2"><a xlink:href="classtask_1_1_c_p_u_task.html" target="_top" xlink:title=" ">
<polygon fill="white" stroke="#bfbfbf" points="101,-131.5 101,-150.5 187,-150.5 187,-131.5 101,-131.5"/>
<text text-anchor="middle" x="144" y="-138.5" font-family="Helvetica,sans-Serif" font-size="10.00">task::CPUTask</text>
</a>
</g>
</g>
<!-- Node1&#45;&gt;Node2 -->
<g id="edge1" class="edge">
<title>Node1&#45;&gt;Node2</title>
<path fill="none" stroke="midnightblue" d="M75.42,-141C83.74,-141 92.47,-141 100.8,-141"/>
<polygon fill="midnightblue" stroke="midnightblue" points="75.17,-137.5 65.17,-141 75.17,-144.5 75.17,-137.5"/>
</g>
<!-- Node3 -->
<g id="node3" class="node">
<title>Node3</title>
<g id="a_node3"><a xlink:href="class_iota_message_to_transaction_task.html" target="_top" xlink:title=": Get confirmed transaction id from Iota, process it">
<polygon fill="white" stroke="black" points="223,-251.5 223,-270.5 390,-270.5 390,-251.5 223,-251.5"/>
<text text-anchor="middle" x="306.5" y="-258.5" font-family="Helvetica,sans-Serif" font-size="10.00">IotaMessageToTransactionTask</text>
</a>
</g>
</g>
<!-- Node2&#45;&gt;Node3 -->
<g id="edge2" class="edge">
<title>Node2&#45;&gt;Node3</title>
<path fill="none" stroke="midnightblue" d="M154.22,-159.66C166.6,-182.7 190.82,-221.39 223,-242 229.06,-245.89 235.83,-248.98 242.81,-251.44"/>
<polygon fill="midnightblue" stroke="midnightblue" points="157.21,-157.83 149.51,-150.56 151,-161.05 157.21,-157.83"/>
</g>
<!-- Node4 -->
<g id="node4" class="node">
<title>Node4</title>
<g id="a_node4"><a xlink:href="class_write_transactions_to_block_task.html" target="_top" xlink:title="Task for collecting transactions and write it to block chain after timeout.">
<polygon fill="white" stroke="black" points="225,-213.5 225,-232.5 388,-232.5 388,-213.5 225,-213.5"/>
<text text-anchor="middle" x="306.5" y="-220.5" font-family="Helvetica,sans-Serif" font-size="10.00">WriteTransactionsToBlockTask</text>
</a>
</g>
</g>
<!-- Node2&#45;&gt;Node4 -->
<g id="edge3" class="edge">
<title>Node2&#45;&gt;Node4</title>
<path fill="none" stroke="midnightblue" d="M161.42,-158.05C176.21,-172.42 199.23,-192.43 223,-204 230.93,-207.86 239.67,-210.95 248.42,-213.43"/>
<polygon fill="midnightblue" stroke="midnightblue" points="163.64,-155.32 154.09,-150.74 158.7,-160.28 163.64,-155.32"/>
</g>
<!-- Node5 -->
<g id="node5" class="node">
<title>Node5</title>
<g id="a_node5"><a xlink:href="classiota_1_1_milestone_loading_task.html" target="_top" xlink:title=" ">
<polygon fill="white" stroke="#bfbfbf" points="232,-175.5 232,-194.5 381,-194.5 381,-175.5 232,-175.5"/>
<text text-anchor="middle" x="306.5" y="-182.5" font-family="Helvetica,sans-Serif" font-size="10.00">iota::MilestoneLoadingTask</text>
</a>
</g>
</g>
<!-- Node2&#45;&gt;Node5 -->
<g id="edge4" class="edge">
<title>Node2&#45;&gt;Node5</title>
<path fill="none" stroke="midnightblue" d="M182.79,-153.82C195.5,-157.94 209.8,-162.37 223,-166 235.19,-169.35 248.5,-172.59 260.8,-175.42"/>
<polygon fill="midnightblue" stroke="midnightblue" points="183.58,-150.39 172.99,-150.6 181.4,-157.04 183.58,-150.39"/>
</g>
<!-- Node6 -->
<g id="node6" class="node">
<title>Node6</title>
<g id="a_node6"><a xlink:href="classmodel_1_1files_1_1_block_append_line_task.html" target="_top" xlink:title=" ">
<polygon fill="white" stroke="#bfbfbf" points="235,-126 235,-156 378,-156 378,-126 235,-126"/>
<text text-anchor="start" x="243" y="-144" font-family="Helvetica,sans-Serif" font-size="10.00">model::files::BlockAppend</text>
<text text-anchor="middle" x="306.5" y="-133" font-family="Helvetica,sans-Serif" font-size="10.00">LineTask</text>
</a>
</g>
</g>
<!-- Node2&#45;&gt;Node6 -->
<g id="edge5" class="edge">
<title>Node2&#45;&gt;Node6</title>
<path fill="none" stroke="#8b1a1a" d="M197.39,-141C209.32,-141 222.2,-141 234.76,-141"/>
<polygon fill="#8b1a1a" stroke="#8b1a1a" points="197.17,-137.5 187.17,-141 197.17,-144.5 197.17,-137.5"/>
</g>
<!-- Node7 -->
<g id="node7" class="node">
<title>Node7</title>
<g id="a_node7"><a xlink:href="classmodel_1_1files_1_1_rebuild_block_index_task.html" target="_top" xlink:title=" ">
<polygon fill="white" stroke="#bfbfbf" points="235,-77 235,-107 378,-107 378,-77 235,-77"/>
<text text-anchor="start" x="243" y="-95" font-family="Helvetica,sans-Serif" font-size="10.00">model::files::RebuildBlock</text>
<text text-anchor="middle" x="306.5" y="-84" font-family="Helvetica,sans-Serif" font-size="10.00">IndexTask</text>
</a>
</g>
</g>
<!-- Node2&#45;&gt;Node7 -->
<g id="edge6" class="edge">
<title>Node2&#45;&gt;Node7</title>
<path fill="none" stroke="midnightblue" d="M185.85,-128.39C197.82,-124.71 210.93,-120.69 223,-117 233.59,-113.77 244.95,-110.31 255.76,-107.04"/>
<polygon fill="midnightblue" stroke="midnightblue" points="184.64,-125.1 176.11,-131.39 186.7,-131.79 184.64,-125.1"/>
</g>
<!-- Node8 -->
<g id="node8" class="node">
<title>Node8</title>
<g id="a_node8"><a xlink:href="classtask_1_1_hdd_write_buffer_task.html" target="_top" xlink:title=" ">
<polygon fill="white" stroke="#bfbfbf" points="236.5,-38.5 236.5,-57.5 376.5,-57.5 376.5,-38.5 236.5,-38.5"/>
<text text-anchor="middle" x="306.5" y="-45.5" font-family="Helvetica,sans-Serif" font-size="10.00">task::HddWriteBufferTask</text>
</a>
</g>
</g>
<!-- Node2&#45;&gt;Node8 -->
<g id="edge7" class="edge">
<title>Node2&#45;&gt;Node8</title>
<path fill="none" stroke="midnightblue" d="M159.1,-123.34C173.43,-106.59 197.15,-81.96 223,-68 231.04,-63.66 240.03,-60.25 249.03,-57.57"/>
<polygon fill="midnightblue" stroke="midnightblue" points="156.2,-121.36 152.5,-131.29 161.58,-125.83 156.2,-121.36"/>
</g>
<!-- Node9 -->
<g id="node9" class="node">
<title>Node9</title>
<g id="a_node9"><a xlink:href="classtask_1_1_serialize_to_v_file_task.html" target="_top" xlink:title="Task for serializing binary data in preparing for saving in file.">
<polygon fill="white" stroke="black" points="235.5,-0.5 235.5,-19.5 377.5,-19.5 377.5,-0.5 235.5,-0.5"/>
<text text-anchor="middle" x="306.5" y="-7.5" font-family="Helvetica,sans-Serif" font-size="10.00">task::SerializeToVFileTask</text>
</a>
</g>
</g>
<!-- Node2&#45;&gt;Node9 -->
<g id="edge8" class="edge">
<title>Node2&#45;&gt;Node9</title>
<path fill="none" stroke="midnightblue" d="M152.84,-122.15C164.36,-96.87 188.32,-52.44 223,-29 228.72,-25.13 235.13,-22.04 241.77,-19.58"/>
<polygon fill="midnightblue" stroke="midnightblue" points="149.59,-120.84 148.79,-131.41 156,-123.65 149.59,-120.84"/>
</g>
</g>
</svg>
