<?xml version="1.0" encoding="UTF-8" standalone="no"?>
<!DOCTYPE svg PUBLIC "-//W3C//DTD SVG 1.1//EN"
 "http://www.w3.org/Graphics/SVG/1.1/DTD/svg11.dtd">
<!-- Generated by graphviz version 2.49.3 (20211027.1534)
 -->
<!-- Title: task::Task Pages: 1 -->
<svg width="398pt" height="203pt"
 viewBox="0.00 0.00 398.00 202.50" xmlns="http://www.w3.org/2000/svg" xmlns:xlink="http://www.w3.org/1999/xlink">
<g id="graph0" class="graph" transform="scale(1 1) rotate(0) translate(4 198.5)">
<title>task::Task</title>
<polygon fill="white" stroke="transparent" points="-4,4 -4,-198.5 394,-198.5 394,4 -4,4"/>
<!-- Node1 -->
<g id="node1" class="node">
<title>Node1</title>
<g id="a_node1"><a xlink:title=" ">
<polygon fill="#bfbfbf" stroke="black" points="0,-99 0,-118 65,-118 65,-99 0,-99"/>
<text text-anchor="middle" x="32.5" y="-106" font-family="Helvetica,sans-Serif" font-size="10.00">task::Task</text>
</a>
</g>
</g>
<!-- Node2 -->
<g id="node2" class="node">
<title>Node2</title>
<g id="a_node2"><a xlink:href="classtask_1_1_c_p_u_task.html" target="_top" xlink:title=" ">
<polygon fill="white" stroke="black" points="101,-99 101,-118 187,-118 187,-99 101,-99"/>
<text text-anchor="middle" x="144" y="-106" font-family="Helvetica,sans-Serif" font-size="10.00">task::CPUTask</text>
</a>
</g>
</g>
<!-- Node1&#45;&gt;Node2 -->
<g id="edge1" class="edge">
<title>Node1&#45;&gt;Node2</title>
<path fill="none" stroke="midnightblue" d="M75.42,-108.5C83.74,-108.5 92.47,-108.5 100.8,-108.5"/>
<polygon fill="midnightblue" stroke="midnightblue" points="75.17,-105 65.17,-108.5 75.17,-112 75.17,-105"/>
</g>
<!-- Node3 -->
<g id="node3" class="node">
<title>Node3</title>
<g id="a_node3"><a xlink:href="class_iota_message_to_transaction_task.html" target="_top" xlink:title=": Get confirmed transaction id from Iota, process it">
<polygon fill="white" stroke="black" points="223,-175 223,-194 390,-194 390,-175 223,-175"/>
<text text-anchor="middle" x="306.5" y="-182" font-family="Helvetica,sans-Serif" font-size="10.00">IotaMessageToTransactionTask</text>
</a>
</g>
</g>
<!-- Node2&#45;&gt;Node3 -->
<g id="edge2" class="edge">
<title>Node2&#45;&gt;Node3</title>
<path fill="none" stroke="midnightblue" d="M163.15,-125.09C178.15,-137.95 200.56,-155.24 223,-165.5 231.42,-169.35 240.69,-172.45 249.89,-174.95"/>
<polygon fill="midnightblue" stroke="midnightblue" points="165.05,-122.1 155.23,-118.13 160.42,-127.36 165.05,-122.1"/>
</g>
<!-- Node4 -->
<g id="node4" class="node">
<title>Node4</title>
<g id="a_node4"><a xlink:href="class_write_transactions_to_block_task.html" target="_top" xlink:title="Task for collecting transactions and write it to block chain after timeout.">
<polygon fill="white" stroke="black" points="225,-137 225,-156 388,-156 388,-137 225,-137"/>
<text text-anchor="middle" x="306.5" y="-144" font-family="Helvetica,sans-Serif" font-size="10.00">WriteTransactionsToBlockTask</text>
</a>
</g>
</g>
<!-- Node2&#45;&gt;Node4 -->
<g id="edge3" class="edge">
<title>Node2&#45;&gt;Node4</title>
<path fill="none" stroke="midnightblue" d="M193.76,-120.48C203.44,-122.83 213.54,-125.26 223,-127.5 236.16,-130.62 250.51,-133.95 263.51,-136.94"/>
<polygon fill="midnightblue" stroke="midnightblue" points="194.4,-117.03 183.86,-118.07 192.75,-123.83 194.4,-117.03"/>
</g>
<!-- Node5 -->
<g id="node5" class="node">
<title>Node5</title>
<g id="a_node5"><a xlink:href="classiota_1_1_milestone_loading_task.html" target="_top" xlink:title=" ">
<polygon fill="white" stroke="black" points="232,-99 232,-118 381,-118 381,-99 232,-99"/>
<text text-anchor="middle" x="306.5" y="-106" font-family="Helvetica,sans-Serif" font-size="10.00">iota::MilestoneLoadingTask</text>
</a>
</g>
</g>
<!-- Node2&#45;&gt;Node5 -->
<g id="edge4" class="edge">
<title>Node2&#45;&gt;Node5</title>
<path fill="none" stroke="midnightblue" d="M197.47,-108.5C208.49,-108.5 220.32,-108.5 231.96,-108.5"/>
<polygon fill="midnightblue" stroke="midnightblue" points="197.17,-105 187.17,-108.5 197.17,-112 197.17,-105"/>
</g>
<!-- Node6 -->
<g id="node6" class="node">
<title>Node6</title>
<g id="a_node6"><a xlink:href="classmodel_1_1files_1_1_block_append_line_task.html" target="_top" xlink:title=" ">
<polygon fill="white" stroke="black" points="235,-49.5 235,-79.5 378,-79.5 378,-49.5 235,-49.5"/>
<text text-anchor="start" x="243" y="-67.5" font-family="Helvetica,sans-Serif" font-size="10.00">model::files::BlockAppend</text>
<text text-anchor="middle" x="306.5" y="-56.5" font-family="Helvetica,sans-Serif" font-size="10.00">LineTask</text>
</a>
</g>
</g>
<!-- Node2&#45;&gt;Node6 -->
<g id="edge5" class="edge">
<title>Node2&#45;&gt;Node6</title>
<path fill="none" stroke="#8b1a1a" d="M189.65,-96.26C208.52,-91.09 230.68,-85.01 250.55,-79.57"/>
<polygon fill="#8b1a1a" stroke="#8b1a1a" points="188.54,-92.93 179.83,-98.95 190.4,-99.68 188.54,-92.93"/>
</g>
<!-- Node7 -->
<g id="node7" class="node">
<title>Node7</title>
<g id="a_node7"><a xlink:href="classmodel_1_1files_1_1_rebuild_block_index_task.html" target="_top" xlink:title=" ">
<polygon fill="white" stroke="black" points="235,-0.5 235,-30.5 378,-30.5 378,-0.5 235,-0.5"/>
<text text-anchor="start" x="243" y="-18.5" font-family="Helvetica,sans-Serif" font-size="10.00">model::files::RebuildBlock</text>
<text text-anchor="middle" x="306.5" y="-7.5" font-family="Helvetica,sans-Serif" font-size="10.00">IndexTask</text>
</a>
</g>
</g>
<!-- Node2&#45;&gt;Node7 -->
<g id="edge6" class="edge">
<title>Node2&#45;&gt;Node7</title>
<path fill="none" stroke="midnightblue" d="M160.47,-91.39C175.19,-76.07 198.64,-53.99 223,-40.5 229.81,-36.73 237.26,-33.46 244.8,-30.64"/>
<polygon fill="midnightblue" stroke="midnightblue" points="157.9,-89.02 153.61,-98.71 163.01,-93.81 157.9,-89.02"/>
</g>
</g>
</svg>
