<?xml version="1.0" encoding="UTF-8" standalone="no"?>
<!DOCTYPE svg PUBLIC "-//W3C//DTD SVG 1.1//EN"
 "http://www.w3.org/Graphics/SVG/1.1/DTD/svg11.dtd">
<!-- Generated by graphviz version 3.0.0 (20220413.0242)
 -->
<!-- Title: TimerCallback Pages: 1 -->
<svg width="451pt" height="148pt"
 viewBox="0.00 0.00 451.00 147.50" xmlns="http://www.w3.org/2000/svg" xmlns:xlink="http://www.w3.org/1999/xlink">
<g id="graph0" class="graph" transform="scale(1 1) rotate(0) translate(4 143.5)">
<title>TimerCallback</title>
<polygon fill="white" stroke="transparent" points="-4,4 -4,-143.5 447,-143.5 447,4 -4,4"/>
<!-- Node1 -->
<g id="node1" class="node">
<title>Node1</title>
<g id="a_node1"><a xlink:title=" ">
<polygon fill="#bfbfbf" stroke="black" points="0,-57.5 0,-76.5 87,-76.5 87,-57.5 0,-57.5"/>
<text text-anchor="middle" x="43.5" y="-64.5" font-family="Helvetica,sans-Serif" font-size="10.00">TimerCallback</text>
</a>
</g>
</g>
<!-- Node2 -->
<g id="node2" class="node">
<title>Node2</title>
<g id="a_node2"><a xlink:href="classcontroller_1_1_address_index.html" target="_top" xlink:title=" ">
<polygon fill="white" stroke="#bfbfbf" points="123,-114.5 123,-133.5 258,-133.5 258,-114.5 123,-114.5"/>
<text text-anchor="middle" x="190.5" y="-121.5" font-family="Helvetica,sans-Serif" font-size="10.00">controller::AddressIndex</text>
</a>
</g>
</g>
<!-- Node1&#45;&gt;Node2 -->
<g id="edge1" class="edge">
<title>Node1&#45;&gt;Node2</title>
<path fill="none" stroke="midnightblue" d="M71.35,-81.42C86.28,-89.08 105.36,-98.27 123,-105 132.2,-108.51 142.33,-111.72 151.85,-114.46"/>
<polygon fill="midnightblue" stroke="midnightblue" points="72.68,-78.17 62.19,-76.66 69.45,-84.38 72.68,-78.17"/>
</g>
<!-- Node4 -->
<g id="node4" class="node">
<title>Node4</title>
<g id="a_node4"><a xlink:href="classcontroller_1_1_block.html" target="_top" xlink:title="interface for adding and getting transactions from specific block">
<polygon fill="white" stroke="black" points="142.5,-76.5 142.5,-95.5 238.5,-95.5 238.5,-76.5 142.5,-76.5"/>
<text text-anchor="middle" x="190.5" y="-83.5" font-family="Helvetica,sans-Serif" font-size="10.00">controller::Block</text>
</a>
</g>
</g>
<!-- Node1&#45;&gt;Node4 -->
<g id="edge3" class="edge">
<title>Node1&#45;&gt;Node4</title>
<path fill="none" stroke="midnightblue" d="M97.2,-73.91C111.94,-75.84 127.86,-77.92 142.27,-79.81"/>
<polygon fill="midnightblue" stroke="midnightblue" points="97.59,-70.43 87.22,-72.6 96.68,-77.37 97.59,-70.43"/>
</g>
<!-- Node5 -->
<g id="node5" class="node">
<title>Node5</title>
<g id="a_node5"><a xlink:href="classiota_1_1_message_listener.html" target="_top" xlink:title="call iota regular and check if new message on the listening index are available">
<polygon fill="white" stroke="black" points="128.5,-38.5 128.5,-57.5 252.5,-57.5 252.5,-38.5 128.5,-38.5"/>
<text text-anchor="middle" x="190.5" y="-45.5" font-family="Helvetica,sans-Serif" font-size="10.00">iota::MessageListener</text>
</a>
</g>
</g>
<!-- Node1&#45;&gt;Node5 -->
<g id="edge4" class="edge">
<title>Node1&#45;&gt;Node5</title>
<path fill="none" stroke="midnightblue" d="M97.44,-60.06C107.46,-58.75 118.03,-57.37 128.28,-56.02"/>
<polygon fill="midnightblue" stroke="midnightblue" points="96.68,-56.63 87.22,-61.4 97.59,-63.57 96.68,-56.63"/>
</g>
<!-- Node6 -->
<g id="node6" class="node">
<title>Node6</title>
<g id="a_node6"><a xlink:href="classmodel_1_1files_1_1_block.html" target="_top" xlink:title=" ">
<polygon fill="white" stroke="#bfbfbf" points="137,-0.5 137,-19.5 244,-19.5 244,-0.5 137,-0.5"/>
<text text-anchor="middle" x="190.5" y="-7.5" font-family="Helvetica,sans-Serif" font-size="10.00">model::files::Block</text>
</a>
</g>
</g>
<!-- Node1&#45;&gt;Node6 -->
<g id="edge5" class="edge">
<title>Node1&#45;&gt;Node6</title>
<path fill="none" stroke="midnightblue" d="M71.35,-52.58C86.28,-44.92 105.36,-35.73 123,-29 132.2,-25.49 142.33,-22.28 151.85,-19.54"/>
<polygon fill="midnightblue" stroke="midnightblue" points="69.45,-49.62 62.19,-57.34 72.68,-55.83 69.45,-49.62"/>
</g>
<!-- Node3 -->
<g id="node3" class="node">
<title>Node3</title>
<g id="a_node3"><a xlink:href="classcontroller_1_1_memory_address_index.html" target="_top" xlink:title=" ">
<polygon fill="white" stroke="#bfbfbf" points="294,-109 294,-139 443,-139 443,-109 294,-109"/>
<text text-anchor="start" x="302" y="-127" font-family="Helvetica,sans-Serif" font-size="10.00">controller::MemoryAddress</text>
<text text-anchor="middle" x="368.5" y="-116" font-family="Helvetica,sans-Serif" font-size="10.00">Index</text>
</a>
</g>
</g>
<!-- Node2&#45;&gt;Node3 -->
<g id="edge2" class="edge">
<title>Node2&#45;&gt;Node3</title>
<path fill="none" stroke="midnightblue" d="M268.28,-124C276.75,-124 285.37,-124 293.8,-124"/>
<polygon fill="midnightblue" stroke="midnightblue" points="268.04,-120.5 258.04,-124 268.04,-127.5 268.04,-120.5"/>
</g>
</g>
</svg>
