<?xml version="1.0" encoding="UTF-8" standalone="no"?>
<!DOCTYPE svg PUBLIC "-//W3C//DTD SVG 1.1//EN"
 "http://www.w3.org/Graphics/SVG/1.1/DTD/svg11.dtd">
<!-- Generated by graphviz version 2.49.3 (20211027.1534)
 -->
<!-- Title: task::Thread Pages: 1 -->
<svg width="268pt" height="140pt"
 viewBox="0.00 0.00 267.50 140.00" xmlns="http://www.w3.org/2000/svg" xmlns:xlink="http://www.w3.org/1999/xlink">
<g id="graph0" class="graph" transform="scale(1 1) rotate(0) translate(4 136)">
<title>task::Thread</title>
<polygon fill="white" stroke="transparent" points="-4,4 -4,-136 263.5,-136 263.5,4 -4,4"/>
<!-- Node1 -->
<g id="node1" class="node">
<title>Node1</title>
<g id="a_node1"><a xlink:title=" ">
<polygon fill="#bfbfbf" stroke="black" points="81,-56.5 81,-75.5 158,-75.5 158,-56.5 81,-56.5"/>
<text text-anchor="middle" x="119.5" y="-63.5" font-family="Helvetica,sans-Serif" font-size="10.00">task::Thread</text>
</a>
</g>
</g>
<!-- Node3 -->
<g id="node3" class="node">
<title>Node3</title>
<g id="a_node3"><a xlink:href="class_ordering_manager.html" target="_top" xlink:title=" ">
<polygon fill="white" stroke="black" points="0,-0.5 0,-19.5 101,-19.5 101,-0.5 0,-0.5"/>
<text text-anchor="middle" x="50.5" y="-7.5" font-family="Helvetica,sans-Serif" font-size="10.00">OrderingManager</text>
</a>
</g>
</g>
<!-- Node1&#45;&gt;Node3 -->
<g id="edge2" class="edge">
<title>Node1&#45;&gt;Node3</title>
<path fill="none" stroke="midnightblue" d="M100.46,-50.1C88.04,-40.38 72.26,-28.03 61.79,-19.83"/>
<polygon fill="midnightblue" stroke="midnightblue" points="98.38,-52.92 108.41,-56.32 102.7,-47.4 98.38,-52.92"/>
</g>
<!-- Node4 -->
<g id="node4" class="node">
<title>Node4</title>
<g id="a_node4"><a xlink:href="classtask_1_1_c_p_u_sheduler_thread.html" target="_top" xlink:title=" ">
<polygon fill="white" stroke="black" points="119.5,-0.5 119.5,-19.5 259.5,-19.5 259.5,-0.5 119.5,-0.5"/>
<text text-anchor="middle" x="189.5" y="-7.5" font-family="Helvetica,sans-Serif" font-size="10.00">task::CPUShedulerThread</text>
</a>
</g>
</g>
<!-- Node1&#45;&gt;Node4 -->
<g id="edge3" class="edge">
<title>Node1&#45;&gt;Node4</title>
<path fill="none" stroke="midnightblue" d="M138.81,-50.1C151.41,-40.38 167.43,-28.03 178.05,-19.83"/>
<polygon fill="midnightblue" stroke="midnightblue" points="136.53,-47.44 130.75,-56.32 140.8,-52.99 136.53,-47.44"/>
</g>
<!-- Node2 -->
<g id="node2" class="node">
<title>Node2</title>
<g id="a_node2"><a xlink:title=" ">
<polygon fill="white" stroke="#bfbfbf" points="73.5,-112.5 73.5,-131.5 165.5,-131.5 165.5,-112.5 73.5,-112.5"/>
<text text-anchor="middle" x="119.5" y="-119.5" font-family="Helvetica,sans-Serif" font-size="10.00">Poco::Runnable</text>
</a>
</g>
</g>
<!-- Node2&#45;&gt;Node1 -->
<g id="edge1" class="edge">
<title>Node2&#45;&gt;Node1</title>
<path fill="none" stroke="midnightblue" d="M119.5,-101.8C119.5,-92.91 119.5,-82.78 119.5,-75.75"/>
<polygon fill="midnightblue" stroke="midnightblue" points="116,-102.08 119.5,-112.08 123,-102.08 116,-102.08"/>
</g>
</g>
</svg>
