<?xml version="1.0" encoding="UTF-8" standalone="no"?>
<!DOCTYPE svg PUBLIC "-//W3C//DTD SVG 1.1//EN"
 "http://www.w3.org/Graphics/SVG/1.1/DTD/svg11.dtd">
<!-- Generated by graphviz version 2.49.3 (20211027.1534)
 -->
<!-- Title: OrderingManager Pages: 1 -->
<svg width="241pt" height="152pt"
 viewBox="0.00 0.00 240.50 152.00" xmlns="http://www.w3.org/2000/svg" xmlns:xlink="http://www.w3.org/1999/xlink">
<g id="graph0" class="graph" transform="scale(1 1) rotate(0) translate(4 148)">
<title>OrderingManager</title>
<polygon fill="white" stroke="transparent" points="-4,4 -4,-148 236.5,-148 236.5,4 -4,4"/>
<!-- Node1 -->
<g id="node1" class="node">
<title>Node1</title>
<g id="a_node1"><a xlink:title=" ">
<polygon fill="#bfbfbf" stroke="black" points="48,-0.5 48,-19.5 149,-19.5 149,-0.5 48,-0.5"/>
<text text-anchor="middle" x="98.5" y="-7.5" font-family="Helvetica,sans-Serif" font-size="10.00">OrderingManager</text>
</a>
</g>
</g>
<!-- Node2 -->
<g id="node2" class="node">
<title>Node2</title>
<g id="a_node2"><a xlink:href="classtask_1_1_thread.html" target="_top" xlink:title=" ">
<polygon fill="white" stroke="black" points="0,-67.5 0,-86.5 77,-86.5 77,-67.5 0,-67.5"/>
<text text-anchor="middle" x="38.5" y="-74.5" font-family="Helvetica,sans-Serif" font-size="10.00">task::Thread</text>
</a>
</g>
</g>
<!-- Node2&#45;&gt;Node1 -->
<g id="edge1" class="edge">
<title>Node2&#45;&gt;Node1</title>
<path fill="none" stroke="midnightblue" d="M53.61,-59.63C65.34,-46.92 81.15,-29.8 90.54,-19.63"/>
<polygon fill="midnightblue" stroke="midnightblue" points="50.8,-57.51 46.59,-67.23 55.95,-62.26 50.8,-57.51"/>
</g>
<!-- Node3 -->
<g id="node3" class="node">
<title>Node3</title>
<g id="a_node3"><a xlink:title=" ">
<polygon fill="white" stroke="#bfbfbf" points="52.5,-124.5 52.5,-143.5 144.5,-143.5 144.5,-124.5 52.5,-124.5"/>
<text text-anchor="middle" x="98.5" y="-131.5" font-family="Helvetica,sans-Serif" font-size="10.00">Poco::Runnable</text>
</a>
</g>
</g>
<!-- Node3&#45;&gt;Node2 -->
<g id="edge2" class="edge">
<title>Node3&#45;&gt;Node2</title>
<path fill="none" stroke="midnightblue" d="M81.5,-117.42C70.65,-107.47 56.98,-94.94 48.01,-86.71"/>
<polygon fill="midnightblue" stroke="midnightblue" points="79.39,-120.23 89.12,-124.41 84.12,-115.07 79.39,-120.23"/>
</g>
<!-- Node4 -->
<g id="node4" class="node">
<title>Node4</title>
<g id="a_node4"><a xlink:href="classiota_1_1_message_validator.html" target="_top" xlink:title="get messages and milestones from listener and check if messages where confirmed">
<polygon fill="white" stroke="black" points="95.5,-67.5 95.5,-86.5 223.5,-86.5 223.5,-67.5 95.5,-67.5"/>
<text text-anchor="middle" x="159.5" y="-74.5" font-family="Helvetica,sans-Serif" font-size="10.00">iota::MessageValidator</text>
</a>
</g>
</g>
<!-- Node3&#45;&gt;Node4 -->
<g id="edge4" class="edge">
<title>Node3&#45;&gt;Node4</title>
<path fill="none" stroke="midnightblue" d="M115.46,-117.71C126.54,-107.72 140.62,-95.02 149.83,-86.71"/>
<polygon fill="midnightblue" stroke="midnightblue" points="113.11,-115.11 108.03,-124.41 117.8,-120.31 113.11,-115.11"/>
</g>
<!-- Node4&#45;&gt;Node1 -->
<g id="edge3" class="edge">
<title>Node4&#45;&gt;Node1</title>
<path fill="none" stroke="#9a32cd" stroke-dasharray="5,2" d="M144.14,-59.63C132.21,-46.92 116.14,-29.8 106.6,-19.63"/>
<polygon fill="#9a32cd" stroke="#9a32cd" points="141.88,-62.34 151.27,-67.23 146.98,-57.55 141.88,-62.34"/>
<text text-anchor="middle" x="182.5" y="-41" font-family="Helvetica,sans-Serif" font-size="10.00"> mMessageValidator</text>
</g>
</g>
</svg>
