<?xml version="1.0" encoding="UTF-8" standalone="no"?>
<!DOCTYPE svg PUBLIC "-//W3C//DTD SVG 1.1//EN"
 "http://www.w3.org/Graphics/SVG/1.1/DTD/svg11.dtd">
<!-- Generated by graphviz version 2.49.3 (20211027.1534)
 -->
<!-- Title: task::Thread Pages: 1 -->
<svg width="453pt" height="151pt"
 viewBox="0.00 0.00 452.50 151.00" xmlns="http://www.w3.org/2000/svg" xmlns:xlink="http://www.w3.org/1999/xlink">
<g id="graph0" class="graph" transform="scale(1 1) rotate(0) translate(4 147)">
<title>task::Thread</title>
<polygon fill="white" stroke="transparent" points="-4,4 -4,-147 448.5,-147 448.5,4 -4,4"/>
<!-- Node1 -->
<g id="node1" class="node">
<title>Node1</title>
<g id="a_node1"><a xlink:title=" ">
<polygon fill="#bfbfbf" stroke="black" points="164,-67.5 164,-86.5 241,-86.5 241,-67.5 164,-67.5"/>
<text text-anchor="middle" x="202.5" y="-74.5" font-family="Helvetica,sans-Serif" font-size="10.00">task::Thread</text>
</a>
</g>
</g>
<!-- Node3 -->
<g id="node3" class="node">
<title>Node3</title>
<g id="a_node3"><a xlink:href="class_ordering_manager.html" target="_top" xlink:title=" ">
<polygon fill="white" stroke="black" points="0,-6 0,-25 101,-25 101,-6 0,-6"/>
<text text-anchor="middle" x="50.5" y="-13" font-family="Helvetica,sans-Serif" font-size="10.00">OrderingManager</text>
</a>
</g>
</g>
<!-- Node1&#45;&gt;Node3 -->
<g id="edge2" class="edge">
<title>Node1&#45;&gt;Node3</title>
<path fill="none" stroke="midnightblue" d="M171.29,-63.78C141.75,-52.22 98.18,-35.16 72.24,-25.01"/>
<polygon fill="midnightblue" stroke="midnightblue" points="170.13,-67.09 180.72,-67.48 172.69,-60.57 170.13,-67.09"/>
</g>
<!-- Node4 -->
<g id="node4" class="node">
<title>Node4</title>
<g id="a_node4"><a xlink:href="classcontroller_1_1_archive_transactions_ordering.html" target="_top" xlink:title=" ">
<polygon fill="white" stroke="black" points="119,-0.5 119,-30.5 286,-30.5 286,-0.5 119,-0.5"/>
<text text-anchor="start" x="127" y="-18.5" font-family="Helvetica,sans-Serif" font-size="10.00">controller::ArchiveTransactions</text>
<text text-anchor="middle" x="202.5" y="-7.5" font-family="Helvetica,sans-Serif" font-size="10.00">Ordering</text>
</a>
</g>
</g>
<!-- Node1&#45;&gt;Node4 -->
<g id="edge3" class="edge">
<title>Node1&#45;&gt;Node4</title>
<path fill="none" stroke="midnightblue" d="M202.5,-57.23C202.5,-48.59 202.5,-38.5 202.5,-30.52"/>
<polygon fill="midnightblue" stroke="midnightblue" points="199,-57.48 202.5,-67.48 206,-57.48 199,-57.48"/>
</g>
<!-- Node5 -->
<g id="node5" class="node">
<title>Node5</title>
<g id="a_node5"><a xlink:href="classtask_1_1_c_p_u_sheduler_thread.html" target="_top" xlink:title=" ">
<polygon fill="white" stroke="black" points="304.5,-6 304.5,-25 444.5,-25 444.5,-6 304.5,-6"/>
<text text-anchor="middle" x="374.5" y="-13" font-family="Helvetica,sans-Serif" font-size="10.00">task::CPUShedulerThread</text>
</a>
</g>
</g>
<!-- Node1&#45;&gt;Node5 -->
<g id="edge4" class="edge">
<title>Node1&#45;&gt;Node5</title>
<path fill="none" stroke="midnightblue" d="M236.95,-64.08C270.38,-52.52 320.29,-35.25 349.9,-25.01"/>
<polygon fill="midnightblue" stroke="midnightblue" points="235.45,-60.9 227.14,-67.48 237.74,-67.51 235.45,-60.9"/>
</g>
<!-- Node2 -->
<g id="node2" class="node">
<title>Node2</title>
<g id="a_node2"><a xlink:title=" ">
<polygon fill="white" stroke="#bfbfbf" points="156.5,-123.5 156.5,-142.5 248.5,-142.5 248.5,-123.5 156.5,-123.5"/>
<text text-anchor="middle" x="202.5" y="-130.5" font-family="Helvetica,sans-Serif" font-size="10.00">Poco::Runnable</text>
</a>
</g>
</g>
<!-- Node2&#45;&gt;Node1 -->
<g id="edge1" class="edge">
<title>Node2&#45;&gt;Node1</title>
<path fill="none" stroke="midnightblue" d="M202.5,-112.8C202.5,-103.91 202.5,-93.78 202.5,-86.75"/>
<polygon fill="midnightblue" stroke="midnightblue" points="199,-113.08 202.5,-123.08 206,-113.08 199,-113.08"/>
</g>
</g>
</svg>
