<?xml version="1.0" encoding="UTF-8" standalone="no"?>
<!DOCTYPE svg PUBLIC "-//W3C//DTD SVG 1.1//EN"
 "http://www.w3.org/Graphics/SVG/1.1/DTD/svg11.dtd">
<!-- Generated by graphviz version 2.49.3 (20211027.1534)
 -->
<!-- Title: controller::GroupRegisterGroup Pages: 1 -->
<svg width="316pt" height="151pt"
 viewBox="0.00 0.00 315.50 151.00" xmlns="http://www.w3.org/2000/svg" xmlns:xlink="http://www.w3.org/1999/xlink">
<g id="graph0" class="graph" transform="scale(1 1) rotate(0) translate(4 147)">
<title>controller::GroupRegisterGroup</title>
<polygon fill="white" stroke="transparent" points="-4,4 -4,-147 311.5,-147 311.5,4 -4,4"/>
<!-- Node1 -->
<g id="node1" class="node">
<title>Node1</title>
<g id="a_node1"><a xlink:title="Special Group on which all Gradido Node Server listen, contain group registries.">
<polygon fill="#bfbfbf" stroke="black" points="82,-0.5 82,-30.5 221,-30.5 221,-0.5 82,-0.5"/>
<text text-anchor="start" x="90" y="-18.5" font-family="Helvetica,sans-Serif" font-size="10.00">controller::GroupRegister</text>
<text text-anchor="middle" x="151.5" y="-7.5" font-family="Helvetica,sans-Serif" font-size="10.00">Group</text>
</a>
</g>
</g>
<!-- Node2 -->
<g id="node2" class="node">
<title>Node2</title>
<g id="a_node2"><a xlink:href="classcontroller_1_1_group.html" target="_top" xlink:title="Main entry point for adding and searching for transactions TODO: validate transaction on startup.">
<polygon fill="white" stroke="black" points="102.5,-67.5 102.5,-86.5 200.5,-86.5 200.5,-67.5 102.5,-67.5"/>
<text text-anchor="middle" x="151.5" y="-74.5" font-family="Helvetica,sans-Serif" font-size="10.00">controller::Group</text>
</a>
</g>
</g>
<!-- Node2&#45;&gt;Node1 -->
<g id="edge1" class="edge">
<title>Node2&#45;&gt;Node1</title>
<path fill="none" stroke="midnightblue" d="M151.5,-57.23C151.5,-48.59 151.5,-38.5 151.5,-30.52"/>
<polygon fill="midnightblue" stroke="midnightblue" points="148,-57.48 151.5,-67.48 155,-57.48 148,-57.48"/>
</g>
<!-- Node3 -->
<g id="node3" class="node">
<title>Node3</title>
<g id="a_node3"><a xlink:href="classcontroller_1_1_controller_base.html" target="_top" xlink:title=" ">
<polygon fill="white" stroke="black" points="0,-123.5 0,-142.5 141,-142.5 141,-123.5 0,-123.5"/>
<text text-anchor="middle" x="70.5" y="-130.5" font-family="Helvetica,sans-Serif" font-size="10.00">controller::ControllerBase</text>
</a>
</g>
</g>
<!-- Node3&#45;&gt;Node2 -->
<g id="edge2" class="edge">
<title>Node3&#45;&gt;Node2</title>
<path fill="none" stroke="midnightblue" d="M92.07,-117.62C106.86,-107.76 126.01,-94.99 138.52,-86.65"/>
<polygon fill="midnightblue" stroke="midnightblue" points="89.89,-114.86 83.51,-123.32 93.78,-120.69 89.89,-114.86"/>
</g>
<!-- Node4 -->
<g id="node4" class="node">
<title>Node4</title>
<g id="a_node4"><a xlink:title=" ">
<polygon fill="white" stroke="#bfbfbf" points="159.5,-123.5 159.5,-142.5 307.5,-142.5 307.5,-123.5 159.5,-123.5"/>
<text text-anchor="middle" x="233.5" y="-130.5" font-family="Helvetica,sans-Serif" font-size="10.00">model::IGradidoBlockchain</text>
</a>
</g>
</g>
<!-- Node4&#45;&gt;Node2 -->
<g id="edge3" class="edge">
<title>Node4&#45;&gt;Node2</title>
<path fill="none" stroke="midnightblue" d="M211.67,-117.62C196.69,-107.76 177.3,-94.99 164.64,-86.65"/>
<polygon fill="midnightblue" stroke="midnightblue" points="210.05,-120.75 220.33,-123.32 213.9,-114.9 210.05,-120.75"/>
</g>
</g>
</svg>
