<?xml version="1.0" encoding="UTF-8" standalone="no"?>
<!DOCTYPE svg PUBLIC "-//W3C//DTD SVG 1.1//EN"
 "http://www.w3.org/Graphics/SVG/1.1/DTD/svg11.dtd">
<!-- Generated by graphviz version 2.49.3 (20211027.1534)
 -->
<!-- Title: GroupManager Pages: 1 -->
<svg width="304pt" height="162pt"
 viewBox="0.00 0.00 303.50 162.00" xmlns="http://www.w3.org/2000/svg" xmlns:xlink="http://www.w3.org/1999/xlink">
<g id="graph0" class="graph" transform="scale(1 1) rotate(0) translate(4 158)">
<title>GroupManager</title>
<polygon fill="white" stroke="transparent" points="-4,4 -4,-158 299.5,-158 299.5,4 -4,4"/>
<!-- Node1 -->
<g id="node1" class="node">
<title>Node1</title>
<g id="a_node1"><a xlink:title="for getting controller::Group for group public key">
<polygon fill="#bfbfbf" stroke="black" points="104,-0.5 104,-19.5 193,-19.5 193,-0.5 104,-0.5"/>
<text text-anchor="middle" x="148.5" y="-7.5" font-family="Helvetica,sans-Serif" font-size="10.00">GroupManager</text>
</a>
</g>
</g>
<!-- Node2 -->
<g id="node2" class="node">
<title>Node2</title>
<g id="a_node2"><a xlink:href="classcontroller_1_1_group_index.html" target="_top" xlink:title="storing group folder name in memory in hash list for fast access">
<polygon fill="white" stroke="black" points="86,-67.5 86,-86.5 211,-86.5 211,-67.5 86,-67.5"/>
<text text-anchor="middle" x="148.5" y="-74.5" font-family="Helvetica,sans-Serif" font-size="10.00">controller::GroupIndex</text>
</a>
</g>
</g>
<!-- Node2&#45;&gt;Node1 -->
<g id="edge1" class="edge">
<title>Node2&#45;&gt;Node1</title>
<path fill="none" stroke="#9a32cd" stroke-dasharray="5,2" d="M148.5,-57.04C148.5,-44.67 148.5,-29.12 148.5,-19.63"/>
<polygon fill="#9a32cd" stroke="#9a32cd" points="145,-57.23 148.5,-67.23 152,-57.23 145,-57.23"/>
<text text-anchor="middle" x="183.5" y="-41" font-family="Helvetica,sans-Serif" font-size="10.00"> mGroupIndex</text>
</g>
<!-- Node3 -->
<g id="node3" class="node">
<title>Node3</title>
<g id="a_node3"><a xlink:href="classcontroller_1_1_controller_base.html" target="_top" xlink:title=" ">
<polygon fill="white" stroke="black" points="0,-134.5 0,-153.5 141,-153.5 141,-134.5 0,-134.5"/>
<text text-anchor="middle" x="70.5" y="-141.5" font-family="Helvetica,sans-Serif" font-size="10.00">controller::ControllerBase</text>
</a>
</g>
</g>
<!-- Node3&#45;&gt;Node2 -->
<g id="edge2" class="edge">
<title>Node3&#45;&gt;Node2</title>
<path fill="none" stroke="midnightblue" d="M88.84,-127.71C104.21,-114.91 125.59,-97.09 138.15,-86.63"/>
<polygon fill="midnightblue" stroke="midnightblue" points="86.46,-125.14 81.02,-134.23 90.94,-130.52 86.46,-125.14"/>
</g>
<!-- Node4 -->
<g id="node4" class="node">
<title>Node4</title>
<g id="a_node4"><a xlink:href="classmodel_1_1files_1_1_group_index.html" target="_top" xlink:title="load group.index file with group alias = folder assignments">
<polygon fill="white" stroke="black" points="159.5,-134.5 159.5,-153.5 295.5,-153.5 295.5,-134.5 159.5,-134.5"/>
<text text-anchor="middle" x="227.5" y="-141.5" font-family="Helvetica,sans-Serif" font-size="10.00">model::files::GroupIndex</text>
</a>
</g>
</g>
<!-- Node4&#45;&gt;Node2 -->
<g id="edge3" class="edge">
<title>Node4&#45;&gt;Node2</title>
<path fill="none" stroke="#9a32cd" stroke-dasharray="5,2" d="M208.92,-127.71C193.36,-114.91 171.7,-97.09 158.99,-86.63"/>
<polygon fill="#9a32cd" stroke="#9a32cd" points="206.9,-130.58 216.85,-134.23 211.35,-125.18 206.9,-130.58"/>
<text text-anchor="middle" x="215" y="-108" font-family="Helvetica,sans-Serif" font-size="10.00"> mModel</text>
</g>
</g>
</svg>
