<?xml version="1.0" encoding="UTF-8" standalone="no"?>
<!DOCTYPE svg PUBLIC "-//W3C//DTD SVG 1.1//EN"
 "http://www.w3.org/Graphics/SVG/1.1/DTD/svg11.dtd">
<!-- Generated by graphviz version 2.49.3 (20211027.1534)
 -->
<!-- Title: TaskObserverFinishCommand Pages: 1 -->
<svg width="240pt" height="152pt"
 viewBox="0.00 0.00 239.50 152.00" xmlns="http://www.w3.org/2000/svg" xmlns:xlink="http://www.w3.org/1999/xlink">
<g id="graph0" class="graph" transform="scale(1 1) rotate(0) translate(4 148)">
<title>TaskObserverFinishCommand</title>
<polygon fill="white" stroke="transparent" points="-4,4 -4,-148 235.5,-148 235.5,4 -4,4"/>
<!-- Node1 -->
<g id="node1" class="node">
<title>Node1</title>
<g id="a_node1"><a xlink:title=" ">
<polygon fill="#bfbfbf" stroke="black" points="0,-0.5 0,-19.5 161,-19.5 161,-0.5 0,-0.5"/>
<text text-anchor="middle" x="80.5" y="-7.5" font-family="Helvetica,sans-Serif" font-size="10.00">TaskObserverFinishCommand</text>
</a>
</g>
</g>
<!-- Node2 -->
<g id="node2" class="node">
<title>Node2</title>
<g id="a_node2"><a xlink:href="classtask_1_1_command.html" target="_top" xlink:title=" ">
<polygon fill="white" stroke="black" points="17.5,-67.5 17.5,-86.5 111.5,-86.5 111.5,-67.5 17.5,-67.5"/>
<text text-anchor="middle" x="64.5" y="-74.5" font-family="Helvetica,sans-Serif" font-size="10.00">task::Command</text>
</a>
</g>
</g>
<!-- Node2&#45;&gt;Node1 -->
<g id="edge1" class="edge">
<title>Node2&#45;&gt;Node1</title>
<path fill="none" stroke="midnightblue" d="M69.07,-57.41C72.13,-44.99 76.02,-29.22 78.38,-19.63"/>
<polygon fill="midnightblue" stroke="midnightblue" points="65.65,-56.69 66.66,-67.23 72.45,-58.36 65.65,-56.69"/>
</g>
<!-- Node3 -->
<g id="node3" class="node">
<title>Node3</title>
<g id="a_node3"><a xlink:href="class_task_observer.html" target="_top" xlink:title=" ">
<polygon fill="white" stroke="black" points="130,-67.5 130,-86.5 213,-86.5 213,-67.5 130,-67.5"/>
<text text-anchor="middle" x="171.5" y="-74.5" font-family="Helvetica,sans-Serif" font-size="10.00">TaskObserver</text>
</a>
</g>
</g>
<!-- Node3&#45;&gt;Node1 -->
<g id="edge2" class="edge">
<title>Node3&#45;&gt;Node1</title>
<path fill="none" stroke="#9a32cd" stroke-dasharray="5,2" d="M151.09,-61.42C133.1,-48.57 107.49,-30.28 92.58,-19.63"/>
<polygon fill="#9a32cd" stroke="#9a32cd" points="149.06,-64.27 159.23,-67.23 153.12,-58.57 149.06,-64.27"/>
<text text-anchor="middle" x="170" y="-41" font-family="Helvetica,sans-Serif" font-size="10.00"> mTaskObserver</text>
</g>
<!-- Node4 -->
<g id="node4" class="node">
<title>Node4</title>
<g id="a_node4"><a xlink:title=" ">
<polygon fill="white" stroke="#bfbfbf" points="111.5,-124.5 111.5,-143.5 231.5,-143.5 231.5,-124.5 111.5,-124.5"/>
<text text-anchor="middle" x="171.5" y="-131.5" font-family="Helvetica,sans-Serif" font-size="10.00">MultithreadContainer</text>
</a>
</g>
</g>
<!-- Node4&#45;&gt;Node3 -->
<g id="edge3" class="edge">
<title>Node4&#45;&gt;Node3</title>
<path fill="none" stroke="midnightblue" d="M171.5,-114.12C171.5,-104.82 171.5,-94.06 171.5,-86.71"/>
<polygon fill="midnightblue" stroke="midnightblue" points="168,-114.41 171.5,-124.41 175,-114.41 168,-114.41"/>
</g>
</g>
</svg>
