<?xml version="1.0" encoding="UTF-8" standalone="no"?>
<!DOCTYPE svg PUBLIC "-//W3C//DTD SVG 1.1//EN"
 "http://www.w3.org/Graphics/SVG/1.1/DTD/svg11.dtd">
<!-- Generated by graphviz version 3.0.0 (20220413.0242)
 -->
<!-- Title: controller::SerializeBlockIndexTask Pages: 1 -->
<svg width="169pt" height="220pt"
 viewBox="0.00 0.00 169.00 220.00" xmlns="http://www.w3.org/2000/svg" xmlns:xlink="http://www.w3.org/1999/xlink">
<g id="graph0" class="graph" transform="scale(1 1) rotate(0) translate(4 216)">
<title>controller::SerializeBlockIndexTask</title>
<polygon fill="white" stroke="transparent" points="-4,4 -4,-216 165,-216 165,4 -4,4"/>
<!-- Node1 -->
<g id="node1" class="node">
<title>Node1</title>
<g id="a_node1"><a xlink:title="bring block index in serialized format">
<polygon fill="#bfbfbf" stroke="black" points="0,-0.5 0,-30.5 138,-30.5 138,-0.5 0,-0.5"/>
<text text-anchor="start" x="8" y="-18.5" font-family="Helvetica,sans-Serif" font-size="10.00">controller::SerializeBlock</text>
<text text-anchor="middle" x="69" y="-7.5" font-family="Helvetica,sans-Serif" font-size="10.00">IndexTask</text>
</a>
</g>
</g>
<!-- Node2 -->
<g id="node2" class="node">
<title>Node2</title>
<g id="a_node2"><a xlink:href="classtask_1_1_c_p_u_task.html" target="_top" xlink:title=" ">
<polygon fill="white" stroke="#bfbfbf" points="26,-68.5 26,-87.5 112,-87.5 112,-68.5 26,-68.5"/>
<text text-anchor="middle" x="69" y="-75.5" font-family="Helvetica,sans-Serif" font-size="10.00">task::CPUTask</text>
</a>
</g>
</g>
<!-- Node2&#45;&gt;Node1 -->
<g id="edge1" class="edge">
<title>Node2&#45;&gt;Node1</title>
<path fill="none" stroke="midnightblue" d="M69,-58.22C69,-49.36 69,-38.96 69,-30.76"/>
<polygon fill="midnightblue" stroke="midnightblue" points="65.5,-58.33 69,-68.33 72.5,-58.33 65.5,-58.33"/>
</g>
<!-- Node3 -->
<g id="node3" class="node">
<title>Node3</title>
<g id="a_node3"><a xlink:href="classtask_1_1_task.html" target="_top" xlink:title=" ">
<polygon fill="white" stroke="#bfbfbf" points="36.5,-125.5 36.5,-144.5 101.5,-144.5 101.5,-125.5 36.5,-125.5"/>
<text text-anchor="middle" x="69" y="-132.5" font-family="Helvetica,sans-Serif" font-size="10.00">task::Task</text>
</a>
</g>
</g>
<!-- Node3&#45;&gt;Node2 -->
<g id="edge2" class="edge">
<title>Node3&#45;&gt;Node2</title>
<path fill="none" stroke="midnightblue" d="M69,-115.12C69,-105.82 69,-95.06 69,-87.71"/>
<polygon fill="midnightblue" stroke="midnightblue" points="65.5,-115.41 69,-125.41 72.5,-115.41 65.5,-115.41"/>
</g>
<!-- Node4 -->
<g id="node4" class="node">
<title>Node4</title>
<g id="a_node4"><a xlink:href="classtask_1_1_command.html" target="_top" xlink:title=" ">
<polygon fill="white" stroke="#bfbfbf" points="22,-192.5 22,-211.5 116,-211.5 116,-192.5 22,-192.5"/>
<text text-anchor="middle" x="69" y="-199.5" font-family="Helvetica,sans-Serif" font-size="10.00">task::Command</text>
</a>
</g>
</g>
<!-- Node4&#45;&gt;Node3 -->
<g id="edge3" class="edge">
<title>Node4&#45;&gt;Node3</title>
<path fill="none" stroke="#9a32cd" stroke-dasharray="5,2" d="M69,-182.04C69,-169.67 69,-154.12 69,-144.63"/>
<polygon fill="#9a32cd" stroke="#9a32cd" points="65.5,-182.23 69,-192.23 72.5,-182.23 65.5,-182.23"/>
<text text-anchor="middle" x="115" y="-166" font-family="Helvetica,sans-Serif" font-size="10.00"> mFinishCommand</text>
</g>
</g>
</svg>
