<?xml version="1.0" encoding="UTF-8" standalone="no"?>
<!DOCTYPE svg PUBLIC "-//W3C//DTD SVG 1.1//EN"
 "http://www.w3.org/Graphics/SVG/1.1/DTD/svg11.dtd">
<!-- Generated by graphviz version 3.0.0 (20220413.0242)
 -->
<!-- Title: controller::MemoryAddressIndex Pages: 1 -->
<!--zoomable 333 -->
<svg id="main" version="1.1" xmlns="http://www.w3.org/2000/svg" xmlns:xlink="http://www.w3.org/1999/xlink" xml:space="preserve" onload="init(evt)">
<style type="text/css"><![CDATA[
.edge:hover path { stroke: red; }
.edge:hover polygon { stroke: red; fill: red; }
]]></style>
<script type="text/javascript"><![CDATA[
var edges = document.getElementsByTagName('g');
if (edges && edges.length) {
  for (var i=0;i<edges.length;i++) {
    if (edges[i].id.substr(0,4)=='edge') {
      edges[i].setAttribute('class','edge');
    }
  }
}
]]></script>
        <defs>
                <circle id="rim" cx="0" cy="0" r="7"/>
                <circle id="rim2" cx="0" cy="0" r="3.5"/>
                <g id="zoomPlus">
                        <use xlink:href="#rim" fill="#404040">
                                <set attributeName="fill" to="#808080" begin="zoomplus.mouseover" end="zoomplus.mouseout"/>
                        </use>
                        <path d="M-4,0h8M0,-4v8" fill="none" stroke="white" stroke-width="1.5" pointer-events="none"/>
                </g>
                <g id="zoomMin">
                        <use xlink:href="#rim" fill="#404040">
                                <set attributeName="fill" to="#808080" begin="zoomminus.mouseover" end="zoomminus.mouseout"/>
                        </use>
                        <path d="M-4,0h8" fill="none" stroke="white" stroke-width="1.5" pointer-events="none"/>
                </g>
                <g id="dirArrow">
                        <path fill="none" stroke="white" stroke-width="1.5" d="M0,-3.0v7 M-2.5,-0.5L0,-3.0L2.5,-0.5"/>
                </g>
               <g id="resetDef">
                       <use xlink:href="#rim2" fill="#404040">
                               <set attributeName="fill" to="#808080" begin="reset.mouseover" end="reset.mouseout"/>
                       </use>
               </g>
        </defs>

<script type="text/javascript">
var viewWidth = 1505;
var viewHeight = 333;
var sectionId = 'dynsection-1';
</script>
<script xlink:href="svgpan.js"/>
<svg id="graph" class="graph">
<g id="viewport">
<title>controller::MemoryAddressIndex</title>
<polygon fill="white" stroke="transparent" points="-4,4 -4,-329.03 1501,-329.03 1501,4 -4,4"/>
<!-- Node1 -->
<g id="node1" class="node">
<title>Node1</title>
<g id="a_node1"><a xlink:title=" ">
<polygon fill="#bfbfbf" stroke="black" points="1348,-269 1348,-299 1497,-299 1497,-269 1348,-269"/>
<text text-anchor="start" x="1356" y="-287" font-family="Helvetica,sans-Serif" font-size="10.00">controller::MemoryAddress</text>
<text text-anchor="middle" x="1422.5" y="-276" font-family="Helvetica,sans-Serif" font-size="10.00">Index</text>
</a>
</g>
</g>
<!-- Node2 -->
<g id="node2" class="node">
<title>Node2</title>
<g id="a_node2"><a xlink:href="classcontroller_1_1_address_index.html" target="_top" xlink:title=" ">
<polygon fill="white" stroke="#bfbfbf" points="1160,-274.5 1160,-293.5 1295,-293.5 1295,-274.5 1160,-274.5"/>
<text text-anchor="middle" x="1227.5" y="-281.5" font-family="Helvetica,sans-Serif" font-size="10.00">controller::AddressIndex</text>
</a>
</g>
</g>
<!-- Node2&#45;&gt;Node1 -->
<g id="edge1" class="edge">
<title>Node2&#45;&gt;Node1</title>
<path fill="none" stroke="midnightblue" d="M1305.29,-284C1319.32,-284 1333.94,-284 1347.87,-284"/>
<polygon fill="midnightblue" stroke="midnightblue" points="1305.19,-280.5 1295.19,-284 1305.19,-287.5 1305.19,-280.5"/>
</g>
<!-- Node3 -->
<g id="node3" class="node">
<title>Node3</title>
<g id="a_node3"><a xlink:href="classcontroller_1_1_controller_base.html" target="_top" xlink:title=" ">
<polygon fill="white" stroke="#bfbfbf" points="329,-237.5 329,-256.5 470,-256.5 470,-237.5 329,-237.5"/>
<text text-anchor="middle" x="399.5" y="-244.5" font-family="Helvetica,sans-Serif" font-size="10.00">controller::ControllerBase</text>
</a>
</g>
</g>
<!-- Node3&#45;&gt;Node2 -->
<g id="edge2" class="edge">
<title>Node3&#45;&gt;Node2</title>
<path fill="none" stroke="midnightblue" d="M427.8,-261.37C456.18,-275.43 502.34,-295.89 545,-304 774.37,-347.6 1054.87,-312.14 1171.54,-293.57"/>
<polygon fill="midnightblue" stroke="midnightblue" points="429.04,-258.07 418.54,-256.69 425.88,-264.32 429.04,-258.07"/>
</g>
<!-- Node4 -->
<g id="node4" class="node">
<title>Node4</title>
<g id="a_node4"><a xlink:href="classcontroller_1_1_group.html" target="_top" xlink:title="Main entry point for adding and searching for transactions TODO: validate transaction on startup.">
<polygon fill="white" stroke="black" points="862,-152.5 862,-171.5 960,-171.5 960,-152.5 862,-152.5"/>
<text text-anchor="middle" x="911" y="-159.5" font-family="Helvetica,sans-Serif" font-size="10.00">controller::Group</text>
</a>
</g>
</g>
<!-- Node3&#45;&gt;Node4 -->
<g id="edge4" class="edge">
<title>Node3&#45;&gt;Node4</title>
<path fill="none" stroke="midnightblue" d="M480.52,-245.9C570.64,-242.77 720.62,-231.84 844,-195 862.29,-189.54 881.65,-179.26 894.63,-171.61"/>
<polygon fill="midnightblue" stroke="midnightblue" points="480.25,-242.4 470.37,-246.22 480.48,-249.4 480.25,-242.4"/>
</g>
<!-- Node13 -->
<g id="node13" class="node">
<title>Node13</title>
<g id="a_node13"><a xlink:href="classcontroller_1_1_deferred_transfer.html" target="_top" xlink:title=" ">
<polygon fill="white" stroke="#bfbfbf" points="545,-152.5 545,-171.5 696,-171.5 696,-152.5 545,-152.5"/>
<text text-anchor="middle" x="620.5" y="-159.5" font-family="Helvetica,sans-Serif" font-size="10.00">controller::DeferredTransfer</text>
</a>
</g>
</g>
<!-- Node3&#45;&gt;Node13 -->
<g id="edge15" class="edge">
<title>Node3&#45;&gt;Node13</title>
<path fill="none" stroke="midnightblue" d="M431.01,-233.2C460.04,-220.29 505.09,-200.82 545,-186 558.89,-180.84 574.45,-175.73 587.75,-171.55"/>
<polygon fill="midnightblue" stroke="midnightblue" points="429.51,-230.03 421.81,-237.31 432.37,-236.43 429.51,-230.03"/>
</g>
<!-- Node4&#45;&gt;Node2 -->
<g id="edge3" class="edge">
<title>Node4&#45;&gt;Node2</title>
<path fill="none" stroke="#9a32cd" stroke-dasharray="5,2" d="M946.3,-175.31C1010.25,-200.11 1146.24,-252.87 1201.94,-274.47"/>
<polygon fill="#9a32cd" stroke="#9a32cd" points="947.27,-171.93 936.68,-171.57 944.74,-178.45 947.27,-171.93"/>
<text text-anchor="middle" x="1052" y="-247" font-family="Helvetica,sans-Serif" font-size="10.00"> mParent</text>
</g>
<!-- Node15 -->
<g id="node15" class="node">
<title>Node15</title>
<g id="a_node15"><a xlink:href="classcontroller_1_1_archive_transactions_ordering.html" target="_top" xlink:title=" ">
<polygon fill="white" stroke="#bfbfbf" points="1144,-113 1144,-143 1311,-143 1311,-113 1144,-113"/>
<text text-anchor="start" x="1152" y="-131" font-family="Helvetica,sans-Serif" font-size="10.00">controller::ArchiveTransactions</text>
<text text-anchor="middle" x="1227.5" y="-120" font-family="Helvetica,sans-Serif" font-size="10.00">Ordering</text>
</a>
</g>
</g>
<!-- Node4&#45;&gt;Node15 -->
<g id="edge21" class="edge">
<title>Node4&#45;&gt;Node15</title>
<path fill="none" stroke="#9a32cd" stroke-dasharray="5,2" d="M934.01,-146.83C946.34,-139.26 962.35,-130.89 978,-127 1032.11,-113.54 1094.93,-113.93 1143.87,-117.61"/>
<polygon fill="#9a32cd" stroke="#9a32cd" points="931.88,-144.04 925.36,-152.39 935.66,-149.93 931.88,-144.04"/>
<text text-anchor="middle" x="1052" y="-130" font-family="Helvetica,sans-Serif" font-size="10.00"> mParentGroup</text>
</g>
<!-- Node5 -->
<g id="node5" class="node">
<title>Node5</title>
<g id="a_node5"><a xlink:title=" ">
<polygon fill="white" stroke="#bfbfbf" points="546.5,-275.5 546.5,-294.5 694.5,-294.5 694.5,-275.5 546.5,-275.5"/>
<text text-anchor="middle" x="620.5" y="-282.5" font-family="Helvetica,sans-Serif" font-size="10.00">model::IGradidoBlockchain</text>
</a>
</g>
</g>
<!-- Node5&#45;&gt;Node4 -->
<g id="edge5" class="edge">
<title>Node5&#45;&gt;Node4</title>
<path fill="none" stroke="midnightblue" d="M704.77,-292.36C749.04,-292.43 802.7,-286.04 844,-261 878.97,-239.79 899.33,-192.17 906.76,-171.68"/>
<polygon fill="midnightblue" stroke="midnightblue" points="704.65,-288.86 694.6,-292.24 704.56,-295.86 704.65,-288.86"/>
</g>
<!-- Node6 -->
<g id="node6" class="node">
<title>Node6</title>
<g id="a_node6"><a xlink:href="class_task_observer.html" target="_top" xlink:title=" ">
<polygon fill="white" stroke="#bfbfbf" points="579,-114.5 579,-133.5 662,-133.5 662,-114.5 579,-114.5"/>
<text text-anchor="middle" x="620.5" y="-121.5" font-family="Helvetica,sans-Serif" font-size="10.00">TaskObserver</text>
</a>
</g>
</g>
<!-- Node6&#45;&gt;Node4 -->
<g id="edge6" class="edge">
<title>Node6&#45;&gt;Node4</title>
<path fill="none" stroke="#9a32cd" stroke-dasharray="5,2" d="M672.44,-127.51C717.69,-131.05 785.52,-137.37 844,-147 853.04,-148.49 862.7,-150.46 871.76,-152.49"/>
<polygon fill="#9a32cd" stroke="#9a32cd" points="672.53,-124.01 662.3,-126.74 672,-130.99 672.53,-124.01"/>
<text text-anchor="middle" x="779" y="-150" font-family="Helvetica,sans-Serif" font-size="10.00"> mTaskObserver</text>
</g>
<!-- Node7 -->
<g id="node7" class="node">
<title>Node7</title>
<g id="a_node7"><a xlink:title=" ">
<polygon fill="white" stroke="#bfbfbf" points="339.5,-108.5 339.5,-127.5 459.5,-127.5 459.5,-108.5 339.5,-108.5"/>
<text text-anchor="middle" x="399.5" y="-115.5" font-family="Helvetica,sans-Serif" font-size="10.00">MultithreadContainer</text>
</a>
</g>
</g>
<!-- Node7&#45;&gt;Node6 -->
<g id="edge7" class="edge">
<title>Node7&#45;&gt;Node6</title>
<path fill="none" stroke="midnightblue" d="M470.17,-119.91C506.01,-120.89 548.44,-122.05 578.9,-122.89"/>
<polygon fill="midnightblue" stroke="midnightblue" points="469.86,-116.4 459.76,-119.62 469.66,-123.4 469.86,-116.4"/>
</g>
<!-- Node8 -->
<g id="node8" class="node">
<title>Node8</title>
<g id="a_node8"><a xlink:href="classiota_1_1_message_listener.html" target="_top" xlink:title="call iota regular and check if new message on the listening index are available">
<polygon fill="white" stroke="black" points="558.5,-76.5 558.5,-95.5 682.5,-95.5 682.5,-76.5 558.5,-76.5"/>
<text text-anchor="middle" x="620.5" y="-83.5" font-family="Helvetica,sans-Serif" font-size="10.00">iota::MessageListener</text>
</a>
</g>
</g>
<!-- Node7&#45;&gt;Node8 -->
<g id="edge9" class="edge">
<title>Node7&#45;&gt;Node8</title>
<path fill="none" stroke="midnightblue" d="M470,-107.84C498.35,-103.7 530.84,-98.95 558.28,-94.95"/>
<polygon fill="midnightblue" stroke="midnightblue" points="469.15,-104.43 459.76,-109.34 470.17,-111.36 469.15,-104.43"/>
</g>
<!-- Node8&#45;&gt;Node4 -->
<g id="edge8" class="edge">
<title>Node8&#45;&gt;Node4</title>
<path fill="none" stroke="#9a32cd" stroke-dasharray="5,2" d="M693.12,-87.11C737.82,-89.86 795.81,-97.24 844,-116 865.86,-124.51 887.46,-141.66 899.72,-152.45"/>
<polygon fill="#9a32cd" stroke="#9a32cd" points="693.1,-83.61 682.92,-86.55 692.72,-90.6 693.1,-83.61"/>
<text text-anchor="middle" x="779" y="-119" font-family="Helvetica,sans-Serif" font-size="10.00"> mIotaMessageListener</text>
</g>
<!-- Node9 -->
<g id="node9" class="node">
<title>Node9</title>
<g id="a_node9"><a xlink:href="class_timer_callback.html" target="_top" xlink:title=" ">
<polygon fill="white" stroke="#bfbfbf" points="356,-64.5 356,-83.5 443,-83.5 443,-64.5 356,-64.5"/>
<text text-anchor="middle" x="399.5" y="-71.5" font-family="Helvetica,sans-Serif" font-size="10.00">TimerCallback</text>
</a>
</g>
</g>
<!-- Node9&#45;&gt;Node8 -->
<g id="edge10" class="edge">
<title>Node9&#45;&gt;Node8</title>
<path fill="none" stroke="midnightblue" d="M453.6,-76.91C485.16,-78.64 525.31,-80.84 558.22,-82.64"/>
<polygon fill="midnightblue" stroke="midnightblue" points="453.42,-73.39 443.25,-76.34 453.04,-80.38 453.42,-73.39"/>
</g>
<!-- Node10 -->
<g id="node10" class="node">
<title>Node10</title>
<g id="a_node10"><a xlink:href="classmodel_1_1files_1_1_state.html" target="_top" xlink:title=" ">
<polygon fill="white" stroke="#bfbfbf" points="347,-172.5 347,-191.5 452,-191.5 452,-172.5 347,-172.5"/>
<text text-anchor="middle" x="399.5" y="-179.5" font-family="Helvetica,sans-Serif" font-size="10.00">model::files::State</text>
</a>
</g>
</g>
<!-- Node10&#45;&gt;Node4 -->
<g id="edge11" class="edge">
<title>Node10&#45;&gt;Node4</title>
<path fill="none" stroke="#9a32cd" stroke-dasharray="5,2" d="M462.39,-182.83C482.95,-183.02 505.96,-183.12 527,-183 667.91,-182.17 704.19,-194.6 844,-177 853.79,-175.77 864.27,-173.73 873.92,-171.55"/>
<polygon fill="#9a32cd" stroke="#9a32cd" points="462.23,-179.33 452.2,-182.73 462.16,-186.33 462.23,-179.33"/>
<text text-anchor="middle" x="620.5" y="-189" font-family="Helvetica,sans-Serif" font-size="10.00"> mGroupState</text>
</g>
<!-- Node10&#45;&gt;Node13 -->
<g id="edge16" class="edge">
<title>Node10&#45;&gt;Node13</title>
<path fill="none" stroke="#9a32cd" stroke-dasharray="5,2" d="M462.31,-174.64C470.94,-173.7 479.69,-172.79 488,-172 506.35,-170.25 526.16,-168.62 544.7,-167.19"/>
<polygon fill="#9a32cd" stroke="#9a32cd" points="461.84,-171.17 452.29,-175.75 462.61,-178.13 461.84,-171.17"/>
<text text-anchor="middle" x="507.5" y="-175" font-family="Helvetica,sans-Serif" font-size="10.00"> mState</text>
</g>
<!-- Node11 -->
<g id="node11" class="node">
<title>Node11</title>
<g id="a_node11"><a xlink:href="classmodel_1_1files_1_1_file_base.html" target="_top" xlink:title=" ">
<polygon fill="white" stroke="#bfbfbf" points="171,-172.5 171,-191.5 292,-191.5 292,-172.5 171,-172.5"/>
<text text-anchor="middle" x="231.5" y="-179.5" font-family="Helvetica,sans-Serif" font-size="10.00">model::files::FileBase</text>
</a>
</g>
</g>
<!-- Node11&#45;&gt;Node10 -->
<g id="edge12" class="edge">
<title>Node11&#45;&gt;Node10</title>
<path fill="none" stroke="midnightblue" d="M302.6,-182C317.45,-182 332.87,-182 346.89,-182"/>
<polygon fill="midnightblue" stroke="midnightblue" points="302.43,-178.5 292.43,-182 302.43,-185.5 302.43,-178.5"/>
</g>
<!-- Node12 -->
<g id="node12" class="node">
<title>Node12</title>
<g id="a_node12"><a xlink:title=" ">
<polygon fill="white" stroke="#bfbfbf" points="0,-172.5 0,-191.5 134,-191.5 134,-172.5 0,-172.5"/>
<text text-anchor="middle" x="67" y="-179.5" font-family="Helvetica,sans-Serif" font-size="10.00">Poco::RefCountedObject</text>
</a>
</g>
</g>
<!-- Node12&#45;&gt;Node11 -->
<g id="edge13" class="edge">
<title>Node12&#45;&gt;Node11</title>
<path fill="none" stroke="midnightblue" d="M144.12,-182C153.06,-182 162.08,-182 170.74,-182"/>
<polygon fill="midnightblue" stroke="midnightblue" points="144.1,-178.5 134.09,-182 144.09,-185.5 144.1,-178.5"/>
</g>
<!-- Node13&#45;&gt;Node4 -->
<g id="edge14" class="edge">
<title>Node13&#45;&gt;Node4</title>
<path fill="none" stroke="#9a32cd" stroke-dasharray="5,2" d="M706.46,-162C757.13,-162 819.62,-162 861.89,-162"/>
<polygon fill="#9a32cd" stroke="#9a32cd" points="706.17,-158.5 696.17,-162 706.17,-165.5 706.17,-158.5"/>
<text text-anchor="middle" x="779" y="-165" font-family="Helvetica,sans-Serif" font-size="10.00"> mDeferredTransfersCache</text>
</g>
<!-- Node14 -->
<g id="node14" class="node">
<title>Node14</title>
<g id="a_node14"><a xlink:href="classclient_1_1_base.html" target="_top" xlink:title=" ">
<polygon fill="white" stroke="#bfbfbf" points="583.5,-38.5 583.5,-57.5 657.5,-57.5 657.5,-38.5 583.5,-38.5"/>
<text text-anchor="middle" x="620.5" y="-45.5" font-family="Helvetica,sans-Serif" font-size="10.00">client::Base</text>
</a>
</g>
</g>
<!-- Node14&#45;&gt;Node4 -->
<g id="edge17" class="edge">
<title>Node14&#45;&gt;Node4</title>
<path fill="none" stroke="#9a32cd" stroke-dasharray="5,2" d="M667.71,-42.91C715.15,-39.93 789.55,-41.65 844,-73 876.51,-91.71 897.79,-133.56 906.08,-152.44"/>
<polygon fill="#9a32cd" stroke="#9a32cd" points="667.44,-39.42 657.72,-43.63 667.95,-46.4 667.44,-39.42"/>
<text text-anchor="middle" x="779" y="-76" font-family="Helvetica,sans-Serif" font-size="10.00"> mCommunityServer</text>
</g>
<!-- Node15&#45;&gt;Node4 -->
<g id="edge18" class="edge">
<title>Node15&#45;&gt;Node4</title>
<path fill="none" stroke="#9a32cd" stroke-dasharray="5,2" d="M1133.78,-139.13C1131.16,-139.42 1128.56,-139.72 1126,-140 1069.02,-146.33 1003.43,-152.98 960.04,-157.29"/>
<polygon fill="#9a32cd" stroke="#9a32cd" points="1134.43,-142.58 1143.97,-137.96 1133.64,-135.62 1134.43,-142.58"/>
<text text-anchor="middle" x="1052" y="-158" font-family="Helvetica,sans-Serif" font-size="10.00"> mArchiveTransactionOrdering</text>
</g>
<!-- Node16 -->
<g id="node16" class="node">
<title>Node16</title>
<g id="a_node16"><a xlink:href="classtask_1_1_thread.html" target="_top" xlink:title=" ">
<polygon fill="white" stroke="#bfbfbf" points="872.5,-22.5 872.5,-41.5 949.5,-41.5 949.5,-22.5 872.5,-22.5"/>
<text text-anchor="middle" x="911" y="-29.5" font-family="Helvetica,sans-Serif" font-size="10.00">task::Thread</text>
</a>
</g>
</g>
<!-- Node16&#45;&gt;Node15 -->
<g id="edge19" class="edge">
<title>Node16&#45;&gt;Node15</title>
<path fill="none" stroke="midnightblue" d="M953.16,-44.56C1010.79,-62.15 1115.37,-94.08 1177.12,-112.93"/>
<polygon fill="midnightblue" stroke="midnightblue" points="953.89,-41.13 943.31,-41.56 951.85,-47.82 953.89,-41.13"/>
</g>
<!-- Node17 -->
<g id="node17" class="node">
<title>Node17</title>
<g id="a_node17"><a xlink:title=" ">
<polygon fill="white" stroke="#bfbfbf" points="574.5,-0.5 574.5,-19.5 666.5,-19.5 666.5,-0.5 574.5,-0.5"/>
<text text-anchor="middle" x="620.5" y="-7.5" font-family="Helvetica,sans-Serif" font-size="10.00">Poco::Runnable</text>
</a>
</g>
</g>
<!-- Node17&#45;&gt;Node16 -->
<g id="edge20" class="edge">
<title>Node17&#45;&gt;Node16</title>
<path fill="none" stroke="midnightblue" d="M676.83,-13.69C721.87,-16.76 787.06,-21.36 844,-26 853.17,-26.75 863.06,-27.61 872.32,-28.45"/>
<polygon fill="midnightblue" stroke="midnightblue" points="676.9,-10.18 666.69,-13 676.43,-17.17 676.9,-10.18"/>
</g>
</g>
</svg>
        <g id="navigator" transform="translate(0 0)" fill="#404254">
                <rect fill="#f2f5e9" fill-opacity="0.5" stroke="#606060" stroke-width=".5" x="0" y="0" width="60" height="60"/>
                <use id="zoomplus" xlink:href="#zoomPlus" x="17" y="9" onmousedown="handleZoom(evt,'in')"/>
                <use id="zoomminus" xlink:href="#zoomMin" x="42" y="9" onmousedown="handleZoom(evt,'out')"/>
                <use id="reset" xlink:href="#resetDef" x="30" y="36" onmousedown="handleReset()"/>
                <g id="arrowUp" xlink:href="#dirArrow" transform="translate(30 24)" onmousedown="handlePan(0,-1)">
                  <use xlink:href="#rim" fill="#404040">
                        <set attributeName="fill" to="#808080" begin="arrowUp.mouseover" end="arrowUp.mouseout"/>
                  </use>
                  <path fill="none" stroke="white" stroke-width="1.5" d="M0,-3.0v7 M-2.5,-0.5L0,-3.0L2.5,-0.5"/>
                </g>
                <g id="arrowRight" xlink:href="#dirArrow" transform="rotate(90) translate(36 -43)" onmousedown="handlePan(1,0)">
                  <use xlink:href="#rim" fill="#404040">
                        <set attributeName="fill" to="#808080" begin="arrowRight.mouseover" end="arrowRight.mouseout"/>
                  </use>
                  <path fill="none" stroke="white" stroke-width="1.5" d="M0,-3.0v7 M-2.5,-0.5L0,-3.0L2.5,-0.5"/>
                </g>
                <g id="arrowDown" xlink:href="#dirArrow" transform="rotate(180) translate(-30 -48)" onmousedown="handlePan(0,1)">
                  <use xlink:href="#rim" fill="#404040">
                        <set attributeName="fill" to="#808080" begin="arrowDown.mouseover" end="arrowDown.mouseout"/>
                  </use>
                  <path fill="none" stroke="white" stroke-width="1.5" d="M0,-3.0v7 M-2.5,-0.5L0,-3.0L2.5,-0.5"/>
                </g>
                <g id="arrowLeft" xlink:href="#dirArrow" transform="rotate(270) translate(-36 17)" onmousedown="handlePan(-1,0)">
                  <use xlink:href="#rim" fill="#404040">
                        <set attributeName="fill" to="#808080" begin="arrowLeft.mouseover" end="arrowLeft.mouseout"/>
                  </use>
                  <path fill="none" stroke="white" stroke-width="1.5" d="M0,-3.0v7 M-2.5,-0.5L0,-3.0L2.5,-0.5"/>
                </g>
        </g>
        <svg viewBox="0 0 15 15" width="100%" height="30px" preserveAspectRatio="xMaxYMin meet">
         <g id="arrow_out" transform="scale(0.3 0.3)">
          <a xlink:href="classcontroller_1_1_memory_address_index__coll__graph_org.svg" target="_base">
           <rect id="button" ry="5" rx="5" y="6" x="6" height="38" width="38"
                fill="#f2f5e9" fill-opacity="0.5" stroke="#606060" stroke-width="1.0"/>
           <path id="arrow"
             d="M 11.500037,31.436501 C 11.940474,20.09759 22.043105,11.32322 32.158766,21.979434 L 37.068811,17.246167 C 37.068811,17.246167 37.088388,32 37.088388,32 L 22.160133,31.978069 C 22.160133,31.978069 26.997745,27.140456 26.997745,27.140456 C 18.528582,18.264221 13.291696,25.230495 11.500037,31.436501 z"
             style="fill:#404040;"/>
          </a>
         </g>
        </svg>
</svg>
