<?xml version="1.0" encoding="UTF-8" standalone="no"?>
<!DOCTYPE svg PUBLIC "-//W3C//DTD SVG 1.1//EN"
 "http://www.w3.org/Graphics/SVG/1.1/DTD/svg11.dtd">
<!-- Generated by graphviz version 2.49.3 (20211027.1534)
 -->
<!-- Title: Graphical Class Hierarchy Pages: 1 -->
<svg width="558pt" height="758pt"
 viewBox="0.00 0.00 558.00 758.00" xmlns="http://www.w3.org/2000/svg" xmlns:xlink="http://www.w3.org/1999/xlink">
<g id="graph0" class="graph" transform="scale(1 1) rotate(0) translate(4 754)">
<title>Graphical Class Hierarchy</title>
<polygon fill="white" stroke="transparent" points="-4,4 -4,-754 554,-754 554,4 -4,4"/>
<!-- Node24 -->
<g id="node1" class="node">
<title>Node24</title>
<g id="a_node1"><a xlink:title=" ">
<polygon fill="white" stroke="#bfbfbf" points="0,-387.5 0,-406.5 156,-406.5 156,-387.5 0,-387.5"/>
<text text-anchor="middle" x="78" y="-394.5" font-family="Helvetica,sans-Serif" font-size="10.00">GradidoBlockchainException</text>
</a>
</g>
</g>
<!-- Node0 -->
<g id="node2" class="node">
<title>Node0</title>
<g id="a_node2"><a xlink:href="class_buffer_overflow_exception.html" target="_top" xlink:title=" ">
<polygon fill="white" stroke="black" points="216,-730.5 216,-749.5 353,-749.5 353,-730.5 216,-730.5"/>
<text text-anchor="middle" x="284.5" y="-737.5" font-family="Helvetica,sans-Serif" font-size="10.00">BufferOverflowException</text>
</a>
</g>
</g>
<!-- Node24&#45;&gt;Node0 -->
<g id="edge1" class="edge">
<title>Node24&#45;&gt;Node0</title>
<path fill="none" stroke="midnightblue" d="M79.52,-416.61C82.16,-473.28 97.93,-638.5 192,-721 198.83,-726.99 207.05,-731.27 215.73,-734.3"/>
<polygon fill="midnightblue" stroke="midnightblue" points="83.02,-416.37 79.14,-406.5 76.02,-416.63 83.02,-416.37"/>
</g>
<!-- Node26 -->
<g id="node3" class="node">
<title>Node26</title>
<g id="a_node3"><a xlink:href="class_level_d_b_key_already_exist_exception.html" target="_top" xlink:title=" ">
<polygon fill="white" stroke="black" points="192,-692.5 192,-711.5 377,-711.5 377,-692.5 192,-692.5"/>
<text text-anchor="middle" x="284.5" y="-699.5" font-family="Helvetica,sans-Serif" font-size="10.00">LevelDBKeyAlreadyExistException</text>
</a>
</g>
</g>
<!-- Node24&#45;&gt;Node26 -->
<g id="edge2" class="edge">
<title>Node24&#45;&gt;Node26</title>
<path fill="none" stroke="midnightblue" d="M80.56,-416.73C85.79,-469.01 107.52,-611.9 192,-683 196.47,-686.76 201.49,-689.84 206.82,-692.35"/>
<polygon fill="midnightblue" stroke="midnightblue" points="84.04,-416.4 79.65,-406.76 77.07,-417.03 84.04,-416.4"/>
</g>
<!-- Node27 -->
<g id="node4" class="node">
<title>Node27</title>
<g id="a_node4"><a xlink:href="class_level_d_b_status_exception.html" target="_top" xlink:title=" ">
<polygon fill="white" stroke="black" points="216.5,-654.5 216.5,-673.5 352.5,-673.5 352.5,-654.5 216.5,-654.5"/>
<text text-anchor="middle" x="284.5" y="-661.5" font-family="Helvetica,sans-Serif" font-size="10.00">LevelDBStatusException</text>
</a>
</g>
</g>
<!-- Node24&#45;&gt;Node27 -->
<g id="edge3" class="edge">
<title>Node24&#45;&gt;Node27</title>
<path fill="none" stroke="midnightblue" d="M81.85,-416.63C89.82,-463.99 116.88,-584.99 192,-645 199.1,-650.67 207.47,-654.77 216.22,-657.71"/>
<polygon fill="midnightblue" stroke="midnightblue" points="85.3,-416.07 80.29,-406.73 78.39,-417.16 85.3,-416.07"/>
</g>
<!-- Node28 -->
<g id="node5" class="node">
<title>Node28</title>
<g id="a_node5"><a xlink:href="class_message_id_format_exception.html" target="_top" xlink:title=" ">
<polygon fill="white" stroke="black" points="208.5,-616.5 208.5,-635.5 360.5,-635.5 360.5,-616.5 208.5,-616.5"/>
<text text-anchor="middle" x="284.5" y="-623.5" font-family="Helvetica,sans-Serif" font-size="10.00">MessageIdFormatException</text>
</a>
</g>
</g>
<!-- Node24&#45;&gt;Node28 -->
<g id="edge4" class="edge">
<title>Node24&#45;&gt;Node28</title>
<path fill="none" stroke="midnightblue" d="M83.61,-416.73C94.54,-458.89 126.2,-557.91 192,-607 197.07,-610.78 202.72,-613.86 208.66,-616.34"/>
<polygon fill="midnightblue" stroke="midnightblue" points="86.97,-415.73 81.16,-406.86 80.17,-417.41 86.97,-415.73"/>
</g>
<!-- Node29 -->
<g id="node6" class="node">
<title>Node29</title>
<g id="a_node6"><a xlink:href="class_no_space_left_on_device.html" target="_top" xlink:title=" ">
<polygon fill="white" stroke="black" points="222,-578.5 222,-597.5 347,-597.5 347,-578.5 222,-578.5"/>
<text text-anchor="middle" x="284.5" y="-585.5" font-family="Helvetica,sans-Serif" font-size="10.00">NoSpaceLeftOnDevice</text>
</a>
</g>
</g>
<!-- Node24&#45;&gt;Node29 -->
<g id="edge5" class="edge">
<title>Node24&#45;&gt;Node29</title>
<path fill="none" stroke="midnightblue" d="M85.81,-416.1C99.72,-452.19 134.99,-530.24 192,-569 200.85,-575.02 211.23,-579.2 221.74,-582.09"/>
<polygon fill="midnightblue" stroke="midnightblue" points="89.09,-414.87 82.32,-406.72 82.53,-417.31 89.09,-414.87"/>
</g>
<!-- Node30 -->
<g id="node7" class="node">
<title>Node30</title>
<g id="a_node7"><a xlink:href="classclient_1_1_missing_parameter_exception.html" target="_top" xlink:title=" ">
<polygon fill="white" stroke="black" points="216,-529 216,-559 353,-559 353,-529 216,-529"/>
<text text-anchor="start" x="224" y="-547" font-family="Helvetica,sans-Serif" font-size="10.00">client::MissingParameter</text>
<text text-anchor="middle" x="284.5" y="-536" font-family="Helvetica,sans-Serif" font-size="10.00">Exception</text>
</a>
</g>
</g>
<!-- Node24&#45;&gt;Node30 -->
<g id="edge6" class="edge">
<title>Node24&#45;&gt;Node30</title>
<path fill="none" stroke="midnightblue" d="M90.66,-415.25C108.92,-442.32 146.89,-492.83 192,-520 199.32,-524.41 207.43,-528.01 215.73,-530.96"/>
<polygon fill="midnightblue" stroke="midnightblue" points="93.47,-413.15 85.04,-406.73 87.62,-417 93.47,-413.15"/>
</g>
<!-- Node31 -->
<g id="node8" class="node">
<title>Node31</title>
<g id="a_node8"><a xlink:href="classcontroller_1_1_archive_pending_transactions_map_full.html" target="_top" xlink:title=" ">
<polygon fill="white" stroke="black" points="212,-480 212,-510 357,-510 357,-480 212,-480"/>
<text text-anchor="start" x="220" y="-498" font-family="Helvetica,sans-Serif" font-size="10.00">controller::ArchivePending</text>
<text text-anchor="middle" x="284.5" y="-487" font-family="Helvetica,sans-Serif" font-size="10.00">TransactionsMapFull</text>
</a>
</g>
</g>
<!-- Node24&#45;&gt;Node31 -->
<g id="edge7" class="edge">
<title>Node24&#45;&gt;Node31</title>
<path fill="none" stroke="midnightblue" d="M98.88,-412.91C120.6,-429.57 156.97,-455.43 192,-471 199.5,-474.33 207.57,-477.28 215.68,-479.87"/>
<polygon fill="midnightblue" stroke="midnightblue" points="100.82,-409.99 90.79,-406.6 96.52,-415.51 100.82,-409.99"/>
</g>
<!-- Node32 -->
<g id="node9" class="node">
<title>Node32</title>
<g id="a_node9"><a xlink:href="classcontroller_1_1_archive_transaction_doublette_exception.html" target="_top" xlink:title=" ">
<polygon fill="white" stroke="black" points="204,-431 204,-461 365,-461 365,-431 204,-431"/>
<text text-anchor="start" x="212" y="-449" font-family="Helvetica,sans-Serif" font-size="10.00">controller::ArchiveTransaction</text>
<text text-anchor="middle" x="284.5" y="-438" font-family="Helvetica,sans-Serif" font-size="10.00">DoubletteException</text>
</a>
</g>
</g>
<!-- Node24&#45;&gt;Node32 -->
<g id="edge8" class="edge">
<title>Node24&#45;&gt;Node32</title>
<path fill="none" stroke="midnightblue" d="M128.78,-408.93C156.47,-415.56 191.2,-423.89 220.74,-430.96"/>
<polygon fill="midnightblue" stroke="midnightblue" points="129.46,-405.49 118.92,-406.56 127.82,-412.3 129.46,-405.49"/>
</g>
<!-- Node33 -->
<g id="node10" class="node">
<title>Node33</title>
<g id="a_node10"><a xlink:href="classcontroller_1_1_block_not_loaded_exception.html" target="_top" xlink:title=" ">
<polygon fill="white" stroke="black" points="210,-382 210,-412 359,-412 359,-382 210,-382"/>
<text text-anchor="start" x="218" y="-400" font-family="Helvetica,sans-Serif" font-size="10.00">controller::BlockNotLoaded</text>
<text text-anchor="middle" x="284.5" y="-389" font-family="Helvetica,sans-Serif" font-size="10.00">Exception</text>
</a>
</g>
</g>
<!-- Node24&#45;&gt;Node33 -->
<g id="edge9" class="edge">
<title>Node24&#45;&gt;Node33</title>
<path fill="none" stroke="midnightblue" d="M166.05,-397C180.67,-397 195.7,-397 209.93,-397"/>
<polygon fill="midnightblue" stroke="midnightblue" points="166.02,-393.5 156.02,-397 166.02,-400.5 166.02,-393.5"/>
</g>
<!-- Node34 -->
<g id="node11" class="node">
<title>Node34</title>
<g id="a_node11"><a xlink:href="classcontroller_1_1_group_not_found_exception.html" target="_top" xlink:title=" ">
<polygon fill="white" stroke="black" points="212,-333 212,-363 357,-363 357,-333 212,-333"/>
<text text-anchor="start" x="220" y="-351" font-family="Helvetica,sans-Serif" font-size="10.00">controller::GroupNotFound</text>
<text text-anchor="middle" x="284.5" y="-340" font-family="Helvetica,sans-Serif" font-size="10.00">Exception</text>
</a>
</g>
</g>
<!-- Node24&#45;&gt;Node34 -->
<g id="edge10" class="edge">
<title>Node24&#45;&gt;Node34</title>
<path fill="none" stroke="midnightblue" d="M128.78,-385.07C156.47,-378.44 191.2,-370.11 220.74,-363.04"/>
<polygon fill="midnightblue" stroke="midnightblue" points="127.82,-381.7 118.92,-387.44 129.46,-388.51 127.82,-381.7"/>
</g>
<!-- Node35 -->
<g id="node12" class="node">
<title>Node35</title>
<g id="a_node12"><a xlink:href="classcontroller_1_1_wrong_transaction_type_exception.html" target="_top" xlink:title=" ">
<polygon fill="white" stroke="black" points="206.5,-284 206.5,-314 362.5,-314 362.5,-284 206.5,-284"/>
<text text-anchor="start" x="214.5" y="-302" font-family="Helvetica,sans-Serif" font-size="10.00">controller::WrongTransaction</text>
<text text-anchor="middle" x="284.5" y="-291" font-family="Helvetica,sans-Serif" font-size="10.00">TypeException</text>
</a>
</g>
</g>
<!-- Node24&#45;&gt;Node35 -->
<g id="edge11" class="edge">
<title>Node24&#45;&gt;Node35</title>
<path fill="none" stroke="midnightblue" d="M99.3,-381.12C121.11,-364.75 157.33,-339.49 192,-324 200.42,-320.24 209.53,-316.93 218.64,-314.05"/>
<polygon fill="midnightblue" stroke="midnightblue" points="96.98,-378.49 91.15,-387.34 101.23,-384.06 96.98,-378.49"/>
</g>
<!-- Node36 -->
<g id="node13" class="node">
<title>Node36</title>
<g id="a_node13"><a xlink:href="classmodel_1_1files_1_1_end_reaching_exception.html" target="_top" xlink:title=" ">
<polygon fill="white" stroke="black" points="213,-235 213,-265 356,-265 356,-235 213,-235"/>
<text text-anchor="start" x="221" y="-253" font-family="Helvetica,sans-Serif" font-size="10.00">model::files::EndReaching</text>
<text text-anchor="middle" x="284.5" y="-242" font-family="Helvetica,sans-Serif" font-size="10.00">Exception</text>
</a>
</g>
</g>
<!-- Node24&#45;&gt;Node36 -->
<g id="edge12" class="edge">
<title>Node24&#45;&gt;Node36</title>
<path fill="none" stroke="midnightblue" d="M90.73,-378.96C109.09,-352.19 147.18,-302.19 192,-275 198.48,-271.07 205.58,-267.75 212.88,-264.94"/>
<polygon fill="midnightblue" stroke="midnightblue" points="87.74,-377.13 85.08,-387.39 93.56,-381.03 87.74,-377.13"/>
</g>
<!-- Node38 -->
<g id="node15" class="node">
<title>Node38</title>
<g id="a_node15"><a xlink:href="classmodel_1_1files_1_1_file_stream_exception.html" target="_top" xlink:title=" ">
<polygon fill="white" stroke="black" points="218.5,-186 218.5,-216 350.5,-216 350.5,-186 218.5,-186"/>
<text text-anchor="start" x="226.5" y="-204" font-family="Helvetica,sans-Serif" font-size="10.00">model::files::FileStream</text>
<text text-anchor="middle" x="284.5" y="-193" font-family="Helvetica,sans-Serif" font-size="10.00">Exception</text>
</a>
</g>
</g>
<!-- Node24&#45;&gt;Node38 -->
<g id="edge14" class="edge">
<title>Node24&#45;&gt;Node38</title>
<path fill="none" stroke="midnightblue" d="M86.46,-377.36C101.06,-341.61 136.89,-265.91 192,-226 199.87,-220.3 208.97,-215.9 218.32,-212.5"/>
<polygon fill="midnightblue" stroke="midnightblue" points="83.03,-376.5 82.61,-387.09 89.54,-379.08 83.03,-376.5"/>
</g>
<!-- Node39 -->
<g id="node16" class="node">
<title>Node39</title>
<g id="a_node16"><a xlink:href="classmodel_1_1files_1_1_hash_mismatch_exception.html" target="_top" xlink:title=" ">
<polygon fill="white" stroke="black" points="208.5,-137 208.5,-167 360.5,-167 360.5,-137 208.5,-137"/>
<text text-anchor="start" x="216.5" y="-155" font-family="Helvetica,sans-Serif" font-size="10.00">model::files::HashMismatch</text>
<text text-anchor="middle" x="284.5" y="-144" font-family="Helvetica,sans-Serif" font-size="10.00">Exception</text>
</a>
</g>
</g>
<!-- Node24&#45;&gt;Node39 -->
<g id="edge15" class="edge">
<title>Node24&#45;&gt;Node39</title>
<path fill="none" stroke="midnightblue" d="M83.34,-377.55C93.97,-334.55 125.43,-231 192,-177 196.99,-172.95 202.58,-169.56 208.48,-166.71"/>
<polygon fill="midnightblue" stroke="midnightblue" points="79.92,-376.79 81.03,-387.32 86.74,-378.4 79.92,-376.79"/>
</g>
<!-- Node40 -->
<g id="node17" class="node">
<title>Node40</title>
<g id="a_node17"><a xlink:href="classmodel_1_1files_1_1_hash_missing_exception.html" target="_top" xlink:title=" ">
<polygon fill="white" stroke="black" points="213.5,-88 213.5,-118 355.5,-118 355.5,-88 213.5,-88"/>
<text text-anchor="start" x="221.5" y="-106" font-family="Helvetica,sans-Serif" font-size="10.00">model::files::HashMissing</text>
<text text-anchor="middle" x="284.5" y="-95" font-family="Helvetica,sans-Serif" font-size="10.00">Exception</text>
</a>
</g>
</g>
<!-- Node24&#45;&gt;Node40 -->
<g id="edge16" class="edge">
<title>Node24&#45;&gt;Node40</title>
<path fill="none" stroke="midnightblue" d="M81.37,-377.4C88.42,-327.81 113.91,-196.47 192,-128 198.19,-122.57 205.45,-118.31 213.13,-114.97"/>
<polygon fill="midnightblue" stroke="midnightblue" points="77.88,-377.06 80.04,-387.43 84.82,-377.98 77.88,-377.06"/>
</g>
<!-- Node41 -->
<g id="node18" class="node">
<title>Node41</title>
<g id="a_node18"><a xlink:href="classmodel_1_1files_1_1_index_address_pair_already_exist_exception.html" target="_top" xlink:title=" ">
<polygon fill="white" stroke="black" points="211.5,-39 211.5,-69 357.5,-69 357.5,-39 211.5,-39"/>
<text text-anchor="start" x="219.5" y="-57" font-family="Helvetica,sans-Serif" font-size="10.00">model::files::IndexAddress</text>
<text text-anchor="middle" x="284.5" y="-46" font-family="Helvetica,sans-Serif" font-size="10.00">PairAlreadyExistException</text>
</a>
</g>
</g>
<!-- Node24&#45;&gt;Node41 -->
<g id="edge17" class="edge">
<title>Node24&#45;&gt;Node41</title>
<path fill="none" stroke="midnightblue" d="M79.97,-376.93C83.78,-321.02 102.39,-162.16 192,-79 197.67,-73.74 204.35,-69.56 211.46,-66.25"/>
<polygon fill="midnightblue" stroke="midnightblue" points="76.46,-377.04 79.36,-387.23 83.44,-377.46 76.46,-377.04"/>
</g>
<!-- Node42 -->
<g id="node19" class="node">
<title>Node42</title>
<g id="a_node19"><a xlink:href="classmodel_1_1files_1_1_lock_exception.html" target="_top" xlink:title=" ">
<polygon fill="white" stroke="black" points="209.5,-0.5 209.5,-19.5 359.5,-19.5 359.5,-0.5 209.5,-0.5"/>
<text text-anchor="middle" x="284.5" y="-7.5" font-family="Helvetica,sans-Serif" font-size="10.00">model::files::LockException</text>
</a>
</g>
</g>
<!-- Node24&#45;&gt;Node42 -->
<g id="edge18" class="edge">
<title>Node24&#45;&gt;Node42</title>
<path fill="none" stroke="midnightblue" d="M78.65,-376.96C78.72,-315.14 87.82,-125.82 192,-30 197.03,-25.38 202.87,-21.73 209.12,-18.87"/>
<polygon fill="midnightblue" stroke="midnightblue" points="75.15,-377.29 78.72,-387.26 82.15,-377.24 75.15,-377.29"/>
</g>
<!-- Node37 -->
<g id="node14" class="node">
<title>Node37</title>
<g id="a_node14"><a xlink:href="classmodel_1_1files_1_1_invalid_read_block_size.html" target="_top" xlink:title=" ">
<polygon fill="white" stroke="black" points="413,-235 413,-265 550,-265 550,-235 413,-235"/>
<text text-anchor="start" x="421" y="-253" font-family="Helvetica,sans-Serif" font-size="10.00">model::files::InvalidRead</text>
<text text-anchor="middle" x="481.5" y="-242" font-family="Helvetica,sans-Serif" font-size="10.00">BlockSize</text>
</a>
</g>
</g>
<!-- Node36&#45;&gt;Node37 -->
<g id="edge13" class="edge">
<title>Node36&#45;&gt;Node37</title>
<path fill="none" stroke="midnightblue" d="M366.28,-250C381.82,-250 397.93,-250 412.99,-250"/>
<polygon fill="midnightblue" stroke="midnightblue" points="366.18,-246.5 356.18,-250 366.18,-253.5 366.18,-246.5"/>
</g>
</g>
</svg>
