<?xml version="1.0" encoding="UTF-8" standalone="no"?>
<!DOCTYPE svg PUBLIC "-//W3C//DTD SVG 1.1//EN"
 "http://www.w3.org/Graphics/SVG/1.1/DTD/svg11.dtd">
<!-- Generated by graphviz version 2.49.3 (20211027.1534)
 -->
<!-- Title: Graphical Class Hierarchy Pages: 1 -->
<svg width="558pt" height="611pt"
 viewBox="0.00 0.00 558.00 611.00" xmlns="http://www.w3.org/2000/svg" xmlns:xlink="http://www.w3.org/1999/xlink">
<g id="graph0" class="graph" transform="scale(1 1) rotate(0) translate(4 607)">
<title>Graphical Class Hierarchy</title>
<polygon fill="white" stroke="transparent" points="-4,4 -4,-607 554,-607 554,4 -4,4"/>
<!-- Node24 -->
<g id="node1" class="node">
<title>Node24</title>
<g id="a_node1"><a xlink:title=" ">
<polygon fill="white" stroke="#bfbfbf" points="0,-313.5 0,-332.5 156,-332.5 156,-313.5 0,-313.5"/>
<text text-anchor="middle" x="78" y="-320.5" font-family="Helvetica,sans-Serif" font-size="10.00">GradidoBlockchainException</text>
</a>
</g>
</g>
<!-- Node0 -->
<g id="node2" class="node">
<title>Node0</title>
<g id="a_node2"><a xlink:href="class_buffer_overflow_exception.html" target="_top" xlink:title=" ">
<polygon fill="white" stroke="black" points="216,-583.5 216,-602.5 353,-602.5 353,-583.5 216,-583.5"/>
<text text-anchor="middle" x="284.5" y="-590.5" font-family="Helvetica,sans-Serif" font-size="10.00">BufferOverflowException</text>
</a>
</g>
</g>
<!-- Node24&#45;&gt;Node0 -->
<g id="edge1" class="edge">
<title>Node24&#45;&gt;Node0</title>
<path fill="none" stroke="midnightblue" d="M81.72,-342.54C89.44,-390.22 116.09,-513.08 192,-574 198.96,-579.58 207.15,-583.65 215.73,-586.58"/>
<polygon fill="midnightblue" stroke="midnightblue" points="85.17,-341.95 80.21,-332.59 78.25,-343 85.17,-341.95"/>
</g>
<!-- Node26 -->
<g id="node3" class="node">
<title>Node26</title>
<g id="a_node3"><a xlink:href="class_level_d_b_key_already_exist_exception.html" target="_top" xlink:title=" ">
<polygon fill="white" stroke="black" points="192,-545.5 192,-564.5 377,-564.5 377,-545.5 192,-545.5"/>
<text text-anchor="middle" x="284.5" y="-552.5" font-family="Helvetica,sans-Serif" font-size="10.00">LevelDBKeyAlreadyExistException</text>
</a>
</g>
</g>
<!-- Node24&#45;&gt;Node26 -->
<g id="edge2" class="edge">
<title>Node24&#45;&gt;Node26</title>
<path fill="none" stroke="midnightblue" d="M83.37,-342.41C93.99,-384.82 125.31,-485.94 192,-536 197.06,-539.8 202.7,-542.88 208.63,-545.38"/>
<polygon fill="midnightblue" stroke="midnightblue" points="86.74,-341.44 81.01,-332.53 79.93,-343.07 86.74,-341.44"/>
</g>
<!-- Node27 -->
<g id="node4" class="node">
<title>Node27</title>
<g id="a_node4"><a xlink:href="class_level_d_b_status_exception.html" target="_top" xlink:title=" ">
<polygon fill="white" stroke="black" points="216.5,-507.5 216.5,-526.5 352.5,-526.5 352.5,-507.5 216.5,-507.5"/>
<text text-anchor="middle" x="284.5" y="-514.5" font-family="Helvetica,sans-Serif" font-size="10.00">LevelDBStatusException</text>
</a>
</g>
</g>
<!-- Node24&#45;&gt;Node27 -->
<g id="edge3" class="edge">
<title>Node24&#45;&gt;Node27</title>
<path fill="none" stroke="midnightblue" d="M85.71,-342.43C99.46,-379.14 134.45,-458.54 192,-498 199.36,-503.05 207.78,-506.8 216.47,-509.59"/>
<polygon fill="midnightblue" stroke="midnightblue" points="88.95,-341.1 82.26,-332.89 82.37,-343.48 88.95,-341.1"/>
</g>
<!-- Node28 -->
<g id="node5" class="node">
<title>Node28</title>
<g id="a_node5"><a xlink:href="class_message_id_format_exception.html" target="_top" xlink:title=" ">
<polygon fill="white" stroke="black" points="208.5,-469.5 208.5,-488.5 360.5,-488.5 360.5,-469.5 208.5,-469.5"/>
<text text-anchor="middle" x="284.5" y="-476.5" font-family="Helvetica,sans-Serif" font-size="10.00">MessageIdFormatException</text>
</a>
</g>
</g>
<!-- Node24&#45;&gt;Node28 -->
<g id="edge4" class="edge">
<title>Node24&#45;&gt;Node28</title>
<path fill="none" stroke="midnightblue" d="M88.72,-341.49C105.51,-371.49 142.91,-430.38 192,-460 198.39,-463.86 205.44,-466.94 212.7,-469.4"/>
<polygon fill="midnightblue" stroke="midnightblue" points="91.68,-339.62 83.83,-332.51 85.54,-342.97 91.68,-339.62"/>
</g>
<!-- Node29 -->
<g id="node6" class="node">
<title>Node29</title>
<g id="a_node6"><a xlink:href="class_no_space_left_on_device.html" target="_top" xlink:title=" ">
<polygon fill="white" stroke="black" points="222,-431.5 222,-450.5 347,-450.5 347,-431.5 222,-431.5"/>
<text text-anchor="middle" x="284.5" y="-438.5" font-family="Helvetica,sans-Serif" font-size="10.00">NoSpaceLeftOnDevice</text>
</a>
</g>
</g>
<!-- Node24&#45;&gt;Node29 -->
<g id="edge5" class="edge">
<title>Node24&#45;&gt;Node29</title>
<path fill="none" stroke="midnightblue" d="M93.62,-340.47C113.48,-363 151.22,-401.69 192,-422 201.29,-426.63 211.66,-430.13 221.98,-432.78"/>
<polygon fill="midnightblue" stroke="midnightblue" points="96.09,-337.99 86.91,-332.7 90.79,-342.56 96.09,-337.99"/>
</g>
<!-- Node30 -->
<g id="node7" class="node">
<title>Node30</title>
<g id="a_node7"><a xlink:href="classclient_1_1_missing_parameter_exception.html" target="_top" xlink:title=" ">
<polygon fill="white" stroke="black" points="216,-382 216,-412 353,-412 353,-382 216,-382"/>
<text text-anchor="start" x="224" y="-400" font-family="Helvetica,sans-Serif" font-size="10.00">client::MissingParameter</text>
<text text-anchor="middle" x="284.5" y="-389" font-family="Helvetica,sans-Serif" font-size="10.00">Exception</text>
</a>
</g>
</g>
<!-- Node24&#45;&gt;Node30 -->
<g id="edge6" class="edge">
<title>Node24&#45;&gt;Node30</title>
<path fill="none" stroke="midnightblue" d="M107.23,-337C129.78,-347.82 162.41,-362.65 192,-373 201.15,-376.2 210.94,-379.2 220.59,-381.92"/>
<polygon fill="midnightblue" stroke="midnightblue" points="108.74,-333.85 98.22,-332.64 105.69,-340.15 108.74,-333.85"/>
</g>
<!-- Node31 -->
<g id="node8" class="node">
<title>Node31</title>
<g id="a_node8"><a xlink:href="classcontroller_1_1_block_not_loaded_exception.html" target="_top" xlink:title=" ">
<polygon fill="white" stroke="black" points="210,-333 210,-363 359,-363 359,-333 210,-333"/>
<text text-anchor="start" x="218" y="-351" font-family="Helvetica,sans-Serif" font-size="10.00">controller::BlockNotLoaded</text>
<text text-anchor="middle" x="284.5" y="-340" font-family="Helvetica,sans-Serif" font-size="10.00">Exception</text>
</a>
</g>
</g>
<!-- Node24&#45;&gt;Node31 -->
<g id="edge7" class="edge">
<title>Node24&#45;&gt;Node31</title>
<path fill="none" stroke="midnightblue" d="M166.05,-333.64C180.67,-335.43 195.7,-337.27 209.93,-339.01"/>
<polygon fill="midnightblue" stroke="midnightblue" points="166.37,-330.16 156.02,-332.42 165.52,-337.1 166.37,-330.16"/>
</g>
<!-- Node32 -->
<g id="node9" class="node">
<title>Node32</title>
<g id="a_node9"><a xlink:href="classcontroller_1_1_group_not_found_exception.html" target="_top" xlink:title=" ">
<polygon fill="white" stroke="black" points="212,-284 212,-314 357,-314 357,-284 212,-284"/>
<text text-anchor="start" x="220" y="-302" font-family="Helvetica,sans-Serif" font-size="10.00">controller::GroupNotFound</text>
<text text-anchor="middle" x="284.5" y="-291" font-family="Helvetica,sans-Serif" font-size="10.00">Exception</text>
</a>
</g>
</g>
<!-- Node24&#45;&gt;Node32 -->
<g id="edge8" class="edge">
<title>Node24&#45;&gt;Node32</title>
<path fill="none" stroke="midnightblue" d="M166.01,-312.79C181.32,-310.99 197.11,-309.14 211.95,-307.4"/>
<polygon fill="midnightblue" stroke="midnightblue" points="165.55,-309.32 156.02,-313.96 166.36,-316.27 165.55,-309.32"/>
</g>
<!-- Node33 -->
<g id="node10" class="node">
<title>Node33</title>
<g id="a_node10"><a xlink:href="classmodel_1_1files_1_1_end_reaching_exception.html" target="_top" xlink:title=" ">
<polygon fill="white" stroke="black" points="213,-235 213,-265 356,-265 356,-235 213,-235"/>
<text text-anchor="start" x="221" y="-253" font-family="Helvetica,sans-Serif" font-size="10.00">model::files::EndReaching</text>
<text text-anchor="middle" x="284.5" y="-242" font-family="Helvetica,sans-Serif" font-size="10.00">Exception</text>
</a>
</g>
</g>
<!-- Node24&#45;&gt;Node33 -->
<g id="edge9" class="edge">
<title>Node24&#45;&gt;Node33</title>
<path fill="none" stroke="midnightblue" d="M108.44,-309.2C131,-298.94 163.06,-285.05 192,-275 202.11,-271.49 212.99,-268.15 223.59,-265.12"/>
<polygon fill="midnightblue" stroke="midnightblue" points="106.72,-306.14 99.09,-313.49 109.64,-312.5 106.72,-306.14"/>
</g>
<!-- Node35 -->
<g id="node12" class="node">
<title>Node35</title>
<g id="a_node12"><a xlink:href="classmodel_1_1files_1_1_file_stream_exception.html" target="_top" xlink:title=" ">
<polygon fill="white" stroke="black" points="218.5,-186 218.5,-216 350.5,-216 350.5,-186 218.5,-186"/>
<text text-anchor="start" x="226.5" y="-204" font-family="Helvetica,sans-Serif" font-size="10.00">model::files::FileStream</text>
<text text-anchor="middle" x="284.5" y="-193" font-family="Helvetica,sans-Serif" font-size="10.00">Exception</text>
</a>
</g>
</g>
<!-- Node24&#45;&gt;Node35 -->
<g id="edge11" class="edge">
<title>Node24&#45;&gt;Node35</title>
<path fill="none" stroke="midnightblue" d="M94.19,-305.94C114.43,-284.24 152.31,-247.07 192,-226 200.15,-221.68 209.11,-218.05 218.13,-215.02"/>
<polygon fill="midnightblue" stroke="midnightblue" points="91.51,-303.69 87.34,-313.43 96.67,-308.42 91.51,-303.69"/>
</g>
<!-- Node36 -->
<g id="node13" class="node">
<title>Node36</title>
<g id="a_node13"><a xlink:href="classmodel_1_1files_1_1_hash_mismatch_exception.html" target="_top" xlink:title=" ">
<polygon fill="white" stroke="black" points="208.5,-137 208.5,-167 360.5,-167 360.5,-137 208.5,-137"/>
<text text-anchor="start" x="216.5" y="-155" font-family="Helvetica,sans-Serif" font-size="10.00">model::files::HashMismatch</text>
<text text-anchor="middle" x="284.5" y="-144" font-family="Helvetica,sans-Serif" font-size="10.00">Exception</text>
</a>
</g>
</g>
<!-- Node24&#45;&gt;Node36 -->
<g id="edge12" class="edge">
<title>Node24&#45;&gt;Node36</title>
<path fill="none" stroke="midnightblue" d="M88.16,-304.5C104.57,-273.32 141.99,-210.44 192,-177 197.75,-173.16 204.08,-169.9 210.63,-167.14"/>
<polygon fill="midnightblue" stroke="midnightblue" points="85.03,-302.94 83.58,-313.44 91.26,-306.13 85.03,-302.94"/>
</g>
<!-- Node37 -->
<g id="node14" class="node">
<title>Node37</title>
<g id="a_node14"><a xlink:href="classmodel_1_1files_1_1_hash_missing_exception.html" target="_top" xlink:title=" ">
<polygon fill="white" stroke="black" points="213.5,-88 213.5,-118 355.5,-118 355.5,-88 213.5,-88"/>
<text text-anchor="start" x="221.5" y="-106" font-family="Helvetica,sans-Serif" font-size="10.00">model::files::HashMissing</text>
<text text-anchor="middle" x="284.5" y="-95" font-family="Helvetica,sans-Serif" font-size="10.00">Exception</text>
</a>
</g>
</g>
<!-- Node24&#45;&gt;Node37 -->
<g id="edge13" class="edge">
<title>Node24&#45;&gt;Node37</title>
<path fill="none" stroke="midnightblue" d="M84.77,-303.36C97.41,-263.88 131.36,-174.69 192,-128 198.39,-123.08 205.69,-119.12 213.31,-115.95"/>
<polygon fill="midnightblue" stroke="midnightblue" points="81.37,-302.51 81.77,-313.1 88.06,-304.58 81.37,-302.51"/>
</g>
<!-- Node38 -->
<g id="node15" class="node">
<title>Node38</title>
<g id="a_node15"><a xlink:href="classmodel_1_1files_1_1_index_address_pair_already_exist_exception.html" target="_top" xlink:title=" ">
<polygon fill="white" stroke="black" points="211.5,-39 211.5,-69 357.5,-69 357.5,-39 211.5,-39"/>
<text text-anchor="start" x="219.5" y="-57" font-family="Helvetica,sans-Serif" font-size="10.00">model::files::IndexAddress</text>
<text text-anchor="middle" x="284.5" y="-46" font-family="Helvetica,sans-Serif" font-size="10.00">PairAlreadyExistException</text>
</a>
</g>
</g>
<!-- Node24&#45;&gt;Node38 -->
<g id="edge14" class="edge">
<title>Node24&#45;&gt;Node38</title>
<path fill="none" stroke="midnightblue" d="M82.31,-303.36C91.17,-256.97 119.88,-139.98 192,-79 197.78,-74.11 204.44,-70.17 211.48,-66.99"/>
<polygon fill="midnightblue" stroke="midnightblue" points="78.84,-302.86 80.51,-313.32 85.73,-304.1 78.84,-302.86"/>
</g>
<!-- Node39 -->
<g id="node16" class="node">
<title>Node39</title>
<g id="a_node16"><a xlink:href="classmodel_1_1files_1_1_lock_exception.html" target="_top" xlink:title=" ">
<polygon fill="white" stroke="black" points="209.5,-0.5 209.5,-19.5 359.5,-19.5 359.5,-0.5 209.5,-0.5"/>
<text text-anchor="middle" x="284.5" y="-7.5" font-family="Helvetica,sans-Serif" font-size="10.00">model::files::LockException</text>
</a>
</g>
</g>
<!-- Node24&#45;&gt;Node39 -->
<g id="edge15" class="edge">
<title>Node24&#45;&gt;Node39</title>
<path fill="none" stroke="midnightblue" d="M80.4,-303.2C85.27,-250.11 106.22,-103.58 192,-30 197.18,-25.55 203.13,-22.03 209.45,-19.24"/>
<polygon fill="midnightblue" stroke="midnightblue" points="76.9,-303.07 79.57,-313.32 83.88,-303.64 76.9,-303.07"/>
</g>
<!-- Node34 -->
<g id="node11" class="node">
<title>Node34</title>
<g id="a_node11"><a xlink:href="classmodel_1_1files_1_1_invalid_read_block_size.html" target="_top" xlink:title=" ">
<polygon fill="white" stroke="black" points="413,-235 413,-265 550,-265 550,-235 413,-235"/>
<text text-anchor="start" x="421" y="-253" font-family="Helvetica,sans-Serif" font-size="10.00">model::files::InvalidRead</text>
<text text-anchor="middle" x="481.5" y="-242" font-family="Helvetica,sans-Serif" font-size="10.00">BlockSize</text>
</a>
</g>
</g>
<!-- Node33&#45;&gt;Node34 -->
<g id="edge10" class="edge">
<title>Node33&#45;&gt;Node34</title>
<path fill="none" stroke="midnightblue" d="M366.28,-250C381.82,-250 397.93,-250 412.99,-250"/>
<polygon fill="midnightblue" stroke="midnightblue" points="366.18,-246.5 356.18,-250 366.18,-253.5 366.18,-246.5"/>
</g>
</g>
</svg>
