<?xml version="1.0" encoding="UTF-8" standalone="no"?>
<!DOCTYPE svg PUBLIC "-//W3C//DTD SVG 1.1//EN"
 "http://www.w3.org/Graphics/SVG/1.1/DTD/svg11.dtd">
<!-- Generated by graphviz version 2.49.3 (20211027.1534)
 -->
<!-- Title: Graphical Class Hierarchy Pages: 1 -->
<svg width="558pt" height="709pt"
 viewBox="0.00 0.00 558.00 709.00" xmlns="http://www.w3.org/2000/svg" xmlns:xlink="http://www.w3.org/1999/xlink">
<g id="graph0" class="graph" transform="scale(1 1) rotate(0) translate(4 705)">
<title>Graphical Class Hierarchy</title>
<polygon fill="white" stroke="transparent" points="-4,4 -4,-705 554,-705 554,4 -4,4"/>
<!-- Node24 -->
<g id="node1" class="node">
<title>Node24</title>
<g id="a_node1"><a xlink:title=" ">
<polygon fill="white" stroke="#bfbfbf" points="0,-362.5 0,-381.5 156,-381.5 156,-362.5 0,-362.5"/>
<text text-anchor="middle" x="78" y="-369.5" font-family="Helvetica,sans-Serif" font-size="10.00">GradidoBlockchainException</text>
</a>
</g>
</g>
<!-- Node0 -->
<g id="node2" class="node">
<title>Node0</title>
<g id="a_node2"><a xlink:href="class_buffer_overflow_exception.html" target="_top" xlink:title=" ">
<polygon fill="white" stroke="black" points="216,-681.5 216,-700.5 353,-700.5 353,-681.5 216,-681.5"/>
<text text-anchor="middle" x="284.5" y="-688.5" font-family="Helvetica,sans-Serif" font-size="10.00">BufferOverflowException</text>
</a>
</g>
</g>
<!-- Node24&#45;&gt;Node0 -->
<g id="edge1" class="edge">
<title>Node24&#45;&gt;Node0</title>
<path fill="none" stroke="midnightblue" d="M80.17,-391.94C84.46,-446.09 104.14,-596.84 192,-672 198.9,-677.91 207.17,-682.14 215.86,-685.14"/>
<polygon fill="midnightblue" stroke="midnightblue" points="83.64,-391.38 79.45,-381.65 76.65,-391.87 83.64,-391.38"/>
</g>
<!-- Node26 -->
<g id="node3" class="node">
<title>Node26</title>
<g id="a_node3"><a xlink:href="class_level_d_b_key_already_exist_exception.html" target="_top" xlink:title=" ">
<polygon fill="white" stroke="black" points="192,-643.5 192,-662.5 377,-662.5 377,-643.5 192,-643.5"/>
<text text-anchor="middle" x="284.5" y="-650.5" font-family="Helvetica,sans-Serif" font-size="10.00">LevelDBKeyAlreadyExistException</text>
</a>
</g>
</g>
<!-- Node24&#45;&gt;Node26 -->
<g id="edge2" class="edge">
<title>Node24&#45;&gt;Node26</title>
<path fill="none" stroke="midnightblue" d="M81.34,-391.72C88.29,-440.97 113.47,-569.95 192,-634 196.65,-637.79 201.87,-640.89 207.39,-643.41"/>
<polygon fill="midnightblue" stroke="midnightblue" points="84.8,-391.2 80.03,-381.73 77.86,-392.1 84.8,-391.2"/>
</g>
<!-- Node27 -->
<g id="node4" class="node">
<title>Node27</title>
<g id="a_node4"><a xlink:href="class_level_d_b_status_exception.html" target="_top" xlink:title=" ">
<polygon fill="white" stroke="black" points="216.5,-605.5 216.5,-624.5 352.5,-624.5 352.5,-605.5 216.5,-605.5"/>
<text text-anchor="middle" x="284.5" y="-612.5" font-family="Helvetica,sans-Serif" font-size="10.00">LevelDBStatusException</text>
</a>
</g>
</g>
<!-- Node24&#45;&gt;Node27 -->
<g id="edge3" class="edge">
<title>Node24&#45;&gt;Node27</title>
<path fill="none" stroke="midnightblue" d="M82.85,-391.5C92.62,-435.51 122.68,-542.85 192,-596 199.21,-601.53 207.64,-605.55 216.42,-608.45"/>
<polygon fill="midnightblue" stroke="midnightblue" points="86.24,-390.59 80.75,-381.52 79.39,-392.03 86.24,-390.59"/>
</g>
<!-- Node28 -->
<g id="node5" class="node">
<title>Node28</title>
<g id="a_node5"><a xlink:href="class_message_id_format_exception.html" target="_top" xlink:title=" ">
<polygon fill="white" stroke="black" points="208.5,-567.5 208.5,-586.5 360.5,-586.5 360.5,-567.5 208.5,-567.5"/>
<text text-anchor="middle" x="284.5" y="-574.5" font-family="Helvetica,sans-Serif" font-size="10.00">MessageIdFormatException</text>
</a>
</g>
</g>
<!-- Node24&#45;&gt;Node28 -->
<g id="edge4" class="edge">
<title>Node24&#45;&gt;Node28</title>
<path fill="none" stroke="midnightblue" d="M84.98,-391.54C97.83,-430.03 131.88,-515.55 192,-558 197.43,-561.84 203.47,-564.93 209.79,-567.42"/>
<polygon fill="midnightblue" stroke="midnightblue" points="88.18,-390.06 81.79,-381.61 81.52,-392.2 88.18,-390.06"/>
</g>
<!-- Node29 -->
<g id="node6" class="node">
<title>Node29</title>
<g id="a_node6"><a xlink:href="class_no_space_left_on_device.html" target="_top" xlink:title=" ">
<polygon fill="white" stroke="black" points="222,-529.5 222,-548.5 347,-548.5 347,-529.5 222,-529.5"/>
<text text-anchor="middle" x="284.5" y="-536.5" font-family="Helvetica,sans-Serif" font-size="10.00">NoSpaceLeftOnDevice</text>
</a>
</g>
</g>
<!-- Node24&#45;&gt;Node29 -->
<g id="edge5" class="edge">
<title>Node24&#45;&gt;Node29</title>
<path fill="none" stroke="midnightblue" d="M87.88,-391.09C103.85,-423.2 140.65,-487.68 192,-520 200.93,-525.62 211.22,-529.61 221.61,-532.43"/>
<polygon fill="midnightblue" stroke="midnightblue" points="90.93,-389.36 83.43,-381.88 84.63,-392.41 90.93,-389.36"/>
</g>
<!-- Node30 -->
<g id="node7" class="node">
<title>Node30</title>
<g id="a_node7"><a xlink:href="classclient_1_1_missing_parameter_exception.html" target="_top" xlink:title=" ">
<polygon fill="white" stroke="black" points="216,-480 216,-510 353,-510 353,-480 216,-480"/>
<text text-anchor="start" x="224" y="-498" font-family="Helvetica,sans-Serif" font-size="10.00">client::MissingParameter</text>
<text text-anchor="middle" x="284.5" y="-487" font-family="Helvetica,sans-Serif" font-size="10.00">Exception</text>
</a>
</g>
</g>
<!-- Node24&#45;&gt;Node30 -->
<g id="edge6" class="edge">
<title>Node24&#45;&gt;Node30</title>
<path fill="none" stroke="midnightblue" d="M93.78,-389.15C113.82,-411.33 151.76,-449.64 192,-471 199.4,-474.93 207.48,-478.24 215.68,-481.03"/>
<polygon fill="midnightblue" stroke="midnightblue" points="96.26,-386.68 87.01,-381.51 91.02,-391.32 96.26,-386.68"/>
</g>
<!-- Node31 -->
<g id="node8" class="node">
<title>Node31</title>
<g id="a_node8"><a xlink:href="classcontroller_1_1_archive_transaction_doublette_exception.html" target="_top" xlink:title=" ">
<polygon fill="white" stroke="black" points="204,-431 204,-461 365,-461 365,-431 204,-431"/>
<text text-anchor="start" x="212" y="-449" font-family="Helvetica,sans-Serif" font-size="10.00">controller::ArchiveTransaction</text>
<text text-anchor="middle" x="284.5" y="-438" font-family="Helvetica,sans-Serif" font-size="10.00">DoubletteException</text>
</a>
</g>
</g>
<!-- Node24&#45;&gt;Node31 -->
<g id="edge7" class="edge">
<title>Node24&#45;&gt;Node31</title>
<path fill="none" stroke="midnightblue" d="M107.23,-386C129.78,-396.82 162.41,-411.65 192,-422 201.15,-425.2 210.94,-428.2 220.59,-430.92"/>
<polygon fill="midnightblue" stroke="midnightblue" points="108.74,-382.85 98.22,-381.64 105.69,-389.15 108.74,-382.85"/>
</g>
<!-- Node32 -->
<g id="node9" class="node">
<title>Node32</title>
<g id="a_node9"><a xlink:href="classcontroller_1_1_block_not_loaded_exception.html" target="_top" xlink:title=" ">
<polygon fill="white" stroke="black" points="210,-382 210,-412 359,-412 359,-382 210,-382"/>
<text text-anchor="start" x="218" y="-400" font-family="Helvetica,sans-Serif" font-size="10.00">controller::BlockNotLoaded</text>
<text text-anchor="middle" x="284.5" y="-389" font-family="Helvetica,sans-Serif" font-size="10.00">Exception</text>
</a>
</g>
</g>
<!-- Node24&#45;&gt;Node32 -->
<g id="edge8" class="edge">
<title>Node24&#45;&gt;Node32</title>
<path fill="none" stroke="midnightblue" d="M166.05,-382.64C180.67,-384.43 195.7,-386.27 209.93,-388.01"/>
<polygon fill="midnightblue" stroke="midnightblue" points="166.37,-379.16 156.02,-381.42 165.52,-386.1 166.37,-379.16"/>
</g>
<!-- Node33 -->
<g id="node10" class="node">
<title>Node33</title>
<g id="a_node10"><a xlink:href="classcontroller_1_1_group_not_found_exception.html" target="_top" xlink:title=" ">
<polygon fill="white" stroke="black" points="212,-333 212,-363 357,-363 357,-333 212,-333"/>
<text text-anchor="start" x="220" y="-351" font-family="Helvetica,sans-Serif" font-size="10.00">controller::GroupNotFound</text>
<text text-anchor="middle" x="284.5" y="-340" font-family="Helvetica,sans-Serif" font-size="10.00">Exception</text>
</a>
</g>
</g>
<!-- Node24&#45;&gt;Node33 -->
<g id="edge9" class="edge">
<title>Node24&#45;&gt;Node33</title>
<path fill="none" stroke="midnightblue" d="M166.01,-361.79C181.32,-359.99 197.11,-358.14 211.95,-356.4"/>
<polygon fill="midnightblue" stroke="midnightblue" points="165.55,-358.32 156.02,-362.96 166.36,-365.27 165.55,-358.32"/>
</g>
<!-- Node34 -->
<g id="node11" class="node">
<title>Node34</title>
<g id="a_node11"><a xlink:href="classcontroller_1_1_wrong_transaction_type_exception.html" target="_top" xlink:title=" ">
<polygon fill="white" stroke="black" points="206.5,-284 206.5,-314 362.5,-314 362.5,-284 206.5,-284"/>
<text text-anchor="start" x="214.5" y="-302" font-family="Helvetica,sans-Serif" font-size="10.00">controller::WrongTransaction</text>
<text text-anchor="middle" x="284.5" y="-291" font-family="Helvetica,sans-Serif" font-size="10.00">TypeException</text>
</a>
</g>
</g>
<!-- Node24&#45;&gt;Node34 -->
<g id="edge10" class="edge">
<title>Node24&#45;&gt;Node34</title>
<path fill="none" stroke="midnightblue" d="M108.44,-358.2C131,-347.94 163.06,-334.05 192,-324 202.11,-320.49 212.99,-317.15 223.59,-314.12"/>
<polygon fill="midnightblue" stroke="midnightblue" points="106.72,-355.14 99.09,-362.49 109.64,-361.5 106.72,-355.14"/>
</g>
<!-- Node35 -->
<g id="node12" class="node">
<title>Node35</title>
<g id="a_node12"><a xlink:href="classmodel_1_1files_1_1_end_reaching_exception.html" target="_top" xlink:title=" ">
<polygon fill="white" stroke="black" points="213,-235 213,-265 356,-265 356,-235 213,-235"/>
<text text-anchor="start" x="221" y="-253" font-family="Helvetica,sans-Serif" font-size="10.00">model::files::EndReaching</text>
<text text-anchor="middle" x="284.5" y="-242" font-family="Helvetica,sans-Serif" font-size="10.00">Exception</text>
</a>
</g>
</g>
<!-- Node24&#45;&gt;Node35 -->
<g id="edge11" class="edge">
<title>Node24&#45;&gt;Node35</title>
<path fill="none" stroke="midnightblue" d="M94.19,-354.94C114.43,-333.24 152.31,-296.07 192,-275 199.27,-271.14 207.19,-267.83 215.24,-265.01"/>
<polygon fill="midnightblue" stroke="midnightblue" points="91.51,-352.69 87.34,-362.43 96.67,-357.42 91.51,-352.69"/>
</g>
<!-- Node37 -->
<g id="node14" class="node">
<title>Node37</title>
<g id="a_node14"><a xlink:href="classmodel_1_1files_1_1_file_stream_exception.html" target="_top" xlink:title=" ">
<polygon fill="white" stroke="black" points="218.5,-186 218.5,-216 350.5,-216 350.5,-186 218.5,-186"/>
<text text-anchor="start" x="226.5" y="-204" font-family="Helvetica,sans-Serif" font-size="10.00">model::files::FileStream</text>
<text text-anchor="middle" x="284.5" y="-193" font-family="Helvetica,sans-Serif" font-size="10.00">Exception</text>
</a>
</g>
</g>
<!-- Node24&#45;&gt;Node37 -->
<g id="edge13" class="edge">
<title>Node24&#45;&gt;Node37</title>
<path fill="none" stroke="midnightblue" d="M88.16,-353.5C104.57,-322.32 141.99,-259.44 192,-226 199.94,-220.69 208.98,-216.5 218.21,-213.2"/>
<polygon fill="midnightblue" stroke="midnightblue" points="85.03,-351.94 83.58,-362.44 91.26,-355.13 85.03,-351.94"/>
</g>
<!-- Node38 -->
<g id="node15" class="node">
<title>Node38</title>
<g id="a_node15"><a xlink:href="classmodel_1_1files_1_1_hash_mismatch_exception.html" target="_top" xlink:title=" ">
<polygon fill="white" stroke="black" points="208.5,-137 208.5,-167 360.5,-167 360.5,-137 208.5,-137"/>
<text text-anchor="start" x="216.5" y="-155" font-family="Helvetica,sans-Serif" font-size="10.00">model::files::HashMismatch</text>
<text text-anchor="middle" x="284.5" y="-144" font-family="Helvetica,sans-Serif" font-size="10.00">Exception</text>
</a>
</g>
</g>
<!-- Node24&#45;&gt;Node38 -->
<g id="edge14" class="edge">
<title>Node24&#45;&gt;Node38</title>
<path fill="none" stroke="midnightblue" d="M84.77,-352.36C97.41,-312.88 131.36,-223.69 192,-177 196.96,-173.18 202.46,-169.95 208.24,-167.21"/>
<polygon fill="midnightblue" stroke="midnightblue" points="81.37,-351.51 81.77,-362.1 88.06,-353.58 81.37,-351.51"/>
</g>
<!-- Node39 -->
<g id="node16" class="node">
<title>Node39</title>
<g id="a_node16"><a xlink:href="classmodel_1_1files_1_1_hash_missing_exception.html" target="_top" xlink:title=" ">
<polygon fill="white" stroke="black" points="213.5,-88 213.5,-118 355.5,-118 355.5,-88 213.5,-88"/>
<text text-anchor="start" x="221.5" y="-106" font-family="Helvetica,sans-Serif" font-size="10.00">model::files::HashMissing</text>
<text text-anchor="middle" x="284.5" y="-95" font-family="Helvetica,sans-Serif" font-size="10.00">Exception</text>
</a>
</g>
</g>
<!-- Node24&#45;&gt;Node39 -->
<g id="edge15" class="edge">
<title>Node24&#45;&gt;Node39</title>
<path fill="none" stroke="midnightblue" d="M82.31,-352.36C91.17,-305.97 119.88,-188.98 192,-128 198.29,-122.68 205.61,-118.49 213.32,-115.18"/>
<polygon fill="midnightblue" stroke="midnightblue" points="78.84,-351.86 80.51,-362.32 85.73,-353.1 78.84,-351.86"/>
</g>
<!-- Node40 -->
<g id="node17" class="node">
<title>Node40</title>
<g id="a_node17"><a xlink:href="classmodel_1_1files_1_1_index_address_pair_already_exist_exception.html" target="_top" xlink:title=" ">
<polygon fill="white" stroke="black" points="211.5,-39 211.5,-69 357.5,-69 357.5,-39 211.5,-39"/>
<text text-anchor="start" x="219.5" y="-57" font-family="Helvetica,sans-Serif" font-size="10.00">model::files::IndexAddress</text>
<text text-anchor="middle" x="284.5" y="-46" font-family="Helvetica,sans-Serif" font-size="10.00">PairAlreadyExistException</text>
</a>
</g>
</g>
<!-- Node24&#45;&gt;Node40 -->
<g id="edge16" class="edge">
<title>Node24&#45;&gt;Node40</title>
<path fill="none" stroke="midnightblue" d="M80.61,-352.44C86,-299.94 108.14,-154.76 192,-79 197.62,-73.92 204.18,-69.86 211.15,-66.62"/>
<polygon fill="midnightblue" stroke="midnightblue" points="77.12,-352.16 79.67,-362.44 84.09,-352.81 77.12,-352.16"/>
</g>
<!-- Node41 -->
<g id="node18" class="node">
<title>Node41</title>
<g id="a_node18"><a xlink:href="classmodel_1_1files_1_1_lock_exception.html" target="_top" xlink:title=" ">
<polygon fill="white" stroke="black" points="209.5,-0.5 209.5,-19.5 359.5,-19.5 359.5,-0.5 209.5,-0.5"/>
<text text-anchor="middle" x="284.5" y="-7.5" font-family="Helvetica,sans-Serif" font-size="10.00">model::files::LockException</text>
</a>
</g>
</g>
<!-- Node24&#45;&gt;Node41 -->
<g id="edge17" class="edge">
<title>Node24&#45;&gt;Node41</title>
<path fill="none" stroke="midnightblue" d="M79.16,-352.15C80.78,-293.28 94.01,-118.3 192,-30 197.07,-25.43 202.94,-21.82 209.22,-18.98"/>
<polygon fill="midnightblue" stroke="midnightblue" points="75.66,-352.25 78.97,-362.31 82.66,-352.38 75.66,-352.25"/>
</g>
<!-- Node36 -->
<g id="node13" class="node">
<title>Node36</title>
<g id="a_node13"><a xlink:href="classmodel_1_1files_1_1_invalid_read_block_size.html" target="_top" xlink:title=" ">
<polygon fill="white" stroke="black" points="413,-235 413,-265 550,-265 550,-235 413,-235"/>
<text text-anchor="start" x="421" y="-253" font-family="Helvetica,sans-Serif" font-size="10.00">model::files::InvalidRead</text>
<text text-anchor="middle" x="481.5" y="-242" font-family="Helvetica,sans-Serif" font-size="10.00">BlockSize</text>
</a>
</g>
</g>
<!-- Node35&#45;&gt;Node36 -->
<g id="edge12" class="edge">
<title>Node35&#45;&gt;Node36</title>
<path fill="none" stroke="midnightblue" d="M366.28,-250C381.82,-250 397.93,-250 412.99,-250"/>
<polygon fill="midnightblue" stroke="midnightblue" points="366.18,-246.5 356.18,-250 366.18,-253.5 366.18,-246.5"/>
</g>
</g>
</svg>
