<?xml version="1.0" encoding="UTF-8" standalone="no"?>
<!DOCTYPE svg PUBLIC "-//W3C//DTD SVG 1.1//EN"
 "http://www.w3.org/Graphics/SVG/1.1/DTD/svg11.dtd">
<!-- Generated by graphviz version 3.0.0 (20220413.0242)
 -->
<!-- Title: Graphical Class Hierarchy Pages: 1 -->
<svg width="577pt" height="797pt"
 viewBox="0.00 0.00 577.00 797.00" xmlns="http://www.w3.org/2000/svg" xmlns:xlink="http://www.w3.org/1999/xlink">
<g id="graph0" class="graph" transform="scale(1 1) rotate(0) translate(4 793)">
<title>Graphical Class Hierarchy</title>
<polygon fill="white" stroke="transparent" points="-4,4 -4,-793 573,-793 573,4 -4,4"/>
<!-- Node0 -->
<g id="node1" class="node">
<title>Node0</title>
<g id="a_node1"><a xlink:title=" ">
<polygon fill="white" stroke="#bfbfbf" points="0,-409.5 0,-428.5 156,-428.5 156,-409.5 0,-409.5"/>
<text text-anchor="middle" x="78" y="-416.5" font-family="Helvetica,sans-Serif" font-size="10.00">GradidoBlockchainException</text>
</a>
</g>
</g>
<!-- Node1 -->
<g id="node2" class="node">
<title>Node1</title>
<g id="a_node2"><a xlink:href="class_buffer_overflow_exception.html" target="_top" xlink:title=" ">
<polygon fill="white" stroke="black" points="216,-769.5 216,-788.5 353,-788.5 353,-769.5 216,-769.5"/>
<text text-anchor="middle" x="284.5" y="-776.5" font-family="Helvetica,sans-Serif" font-size="10.00">BufferOverflowException</text>
</a>
</g>
</g>
<!-- Node0&#45;&gt;Node1 -->
<g id="edge1" class="edge">
<title>Node0&#45;&gt;Node1</title>
<path fill="none" stroke="midnightblue" d="M79.14,-438.84C80.7,-497.67 93.77,-672.49 192,-760 198.78,-766.04 206.98,-770.35 215.64,-773.4"/>
<polygon fill="midnightblue" stroke="midnightblue" points="82.64,-438.62 78.96,-428.68 75.64,-438.74 82.64,-438.62"/>
</g>
<!-- Node2 -->
<g id="node3" class="node">
<title>Node2</title>
<g id="a_node3"><a xlink:href="class_level_d_b_key_already_exist_exception.html" target="_top" xlink:title=" ">
<polygon fill="white" stroke="black" points="192,-731.5 192,-750.5 377,-750.5 377,-731.5 192,-731.5"/>
<text text-anchor="middle" x="284.5" y="-738.5" font-family="Helvetica,sans-Serif" font-size="10.00">LevelDBKeyAlreadyExistException</text>
</a>
</g>
</g>
<!-- Node0&#45;&gt;Node2 -->
<g id="edge2" class="edge">
<title>Node0&#45;&gt;Node2</title>
<path fill="none" stroke="midnightblue" d="M80.07,-438.79C84.14,-493.17 103.3,-645.87 192,-722 196.43,-725.8 201.43,-728.91 206.74,-731.45"/>
<polygon fill="midnightblue" stroke="midnightblue" points="83.56,-438.49 79.41,-428.74 76.57,-438.95 83.56,-438.49"/>
</g>
<!-- Node3 -->
<g id="node4" class="node">
<title>Node3</title>
<g id="a_node4"><a xlink:href="class_level_d_b_status_exception.html" target="_top" xlink:title=" ">
<polygon fill="white" stroke="black" points="216.5,-693.5 216.5,-712.5 352.5,-712.5 352.5,-693.5 216.5,-693.5"/>
<text text-anchor="middle" x="284.5" y="-700.5" font-family="Helvetica,sans-Serif" font-size="10.00">LevelDBStatusException</text>
</a>
</g>
</g>
<!-- Node0&#45;&gt;Node3 -->
<g id="edge3" class="edge">
<title>Node0&#45;&gt;Node3</title>
<path fill="none" stroke="midnightblue" d="M81.22,-438.61C87.93,-488.15 112.67,-619.02 192,-684 199.03,-689.76 207.36,-693.9 216.09,-696.87"/>
<polygon fill="midnightblue" stroke="midnightblue" points="84.68,-438.07 79.96,-428.58 77.73,-438.94 84.68,-438.07"/>
</g>
<!-- Node4 -->
<g id="node5" class="node">
<title>Node4</title>
<g id="a_node5"><a xlink:href="class_message_id_format_exception.html" target="_top" xlink:title=" ">
<polygon fill="white" stroke="black" points="208.5,-655.5 208.5,-674.5 360.5,-674.5 360.5,-655.5 208.5,-655.5"/>
<text text-anchor="middle" x="284.5" y="-662.5" font-family="Helvetica,sans-Serif" font-size="10.00">MessageIdFormatException</text>
</a>
</g>
</g>
<!-- Node0&#45;&gt;Node4 -->
<g id="edge4" class="edge">
<title>Node0&#45;&gt;Node4</title>
<path fill="none" stroke="midnightblue" d="M82.71,-438.47C92.24,-482.88 121.94,-591.98 192,-646 196.88,-649.76 202.33,-652.83 208.07,-655.32"/>
<polygon fill="midnightblue" stroke="midnightblue" points="86.13,-437.75 80.71,-428.65 79.27,-439.14 86.13,-437.75"/>
</g>
<!-- Node5 -->
<g id="node6" class="node">
<title>Node5</title>
<g id="a_node6"><a xlink:href="class_no_space_left_on_device.html" target="_top" xlink:title=" ">
<polygon fill="white" stroke="black" points="222,-617.5 222,-636.5 347,-636.5 347,-617.5 222,-617.5"/>
<text text-anchor="middle" x="284.5" y="-624.5" font-family="Helvetica,sans-Serif" font-size="10.00">NoSpaceLeftOnDevice</text>
</a>
</g>
</g>
<!-- Node0&#45;&gt;Node5 -->
<g id="edge5" class="edge">
<title>Node0&#45;&gt;Node5</title>
<path fill="none" stroke="midnightblue" d="M84.73,-438.35C97.28,-477.2 131.06,-564.65 192,-608 200.73,-614.21 211.03,-618.48 221.53,-621.4"/>
<polygon fill="midnightblue" stroke="midnightblue" points="88.05,-437.27 81.74,-428.76 81.37,-439.35 88.05,-437.27"/>
</g>
<!-- Node6 -->
<g id="node7" class="node">
<title>Node6</title>
<g id="a_node7"><a xlink:href="classclient_1_1_missing_parameter_exception.html" target="_top" xlink:title=" ">
<polygon fill="white" stroke="black" points="216,-568 216,-598 353,-598 353,-568 216,-568"/>
<text text-anchor="start" x="224" y="-586" font-family="Helvetica,sans-Serif" font-size="10.00">client::MissingParameter</text>
<text text-anchor="middle" x="284.5" y="-575" font-family="Helvetica,sans-Serif" font-size="10.00">Exception</text>
</a>
</g>
</g>
<!-- Node0&#45;&gt;Node6 -->
<g id="edge6" class="edge">
<title>Node0&#45;&gt;Node6</title>
<path fill="none" stroke="midnightblue" d="M88.79,-437.61C105.68,-467.85 143.22,-527.45 192,-559 199.31,-563.73 207.51,-567.53 215.93,-570.58"/>
<polygon fill="midnightblue" stroke="midnightblue" points="91.72,-435.68 83.87,-428.56 85.57,-439.02 91.72,-435.68"/>
</g>
<!-- Node7 -->
<g id="node8" class="node">
<title>Node7</title>
<g id="a_node8"><a xlink:href="classcontroller_1_1_archive_pending_transactions_map_full.html" target="_top" xlink:title=" ">
<polygon fill="white" stroke="black" points="212,-519 212,-549 357,-549 357,-519 212,-519"/>
<text text-anchor="start" x="220" y="-537" font-family="Helvetica,sans-Serif" font-size="10.00">controller::ArchivePending</text>
<text text-anchor="middle" x="284.5" y="-526" font-family="Helvetica,sans-Serif" font-size="10.00">TransactionsMapFull</text>
</a>
</g>
</g>
<!-- Node0&#45;&gt;Node7 -->
<g id="edge7" class="edge">
<title>Node0&#45;&gt;Node7</title>
<path fill="none" stroke="midnightblue" d="M95.29,-435.92C115.93,-456.41 153.48,-490.57 192,-510 198.74,-513.4 206.02,-516.36 213.42,-518.92"/>
<polygon fill="midnightblue" stroke="midnightblue" points="97.52,-433.2 88,-428.55 92.54,-438.13 97.52,-433.2"/>
</g>
<!-- Node8 -->
<g id="node9" class="node">
<title>Node8</title>
<g id="a_node9"><a xlink:href="classcontroller_1_1_archive_transaction_doublette_exception.html" target="_top" xlink:title=" ">
<polygon fill="white" stroke="black" points="204,-470 204,-500 365,-500 365,-470 204,-470"/>
<text text-anchor="start" x="212" y="-488" font-family="Helvetica,sans-Serif" font-size="10.00">controller::ArchiveTransaction</text>
<text text-anchor="middle" x="284.5" y="-477" font-family="Helvetica,sans-Serif" font-size="10.00">DoubletteException</text>
</a>
</g>
</g>
<!-- Node0&#45;&gt;Node8 -->
<g id="edge8" class="edge">
<title>Node0&#45;&gt;Node8</title>
<path fill="none" stroke="midnightblue" d="M112.86,-432.1C135.18,-440.54 165.14,-451.47 192,-460 202.83,-463.44 214.47,-466.84 225.69,-469.97"/>
<polygon fill="midnightblue" stroke="midnightblue" points="114.08,-428.82 103.49,-428.54 111.59,-435.37 114.08,-428.82"/>
</g>
<!-- Node9 -->
<g id="node10" class="node">
<title>Node9</title>
<g id="a_node10"><a xlink:href="classcontroller_1_1_block_index_exception.html" target="_top" xlink:title=" ">
<polygon fill="white" stroke="black" points="199,-431.5 199,-450.5 370,-450.5 370,-431.5 199,-431.5"/>
<text text-anchor="middle" x="284.5" y="-438.5" font-family="Helvetica,sans-Serif" font-size="10.00">controller::BlockIndexException</text>
</a>
</g>
</g>
<!-- Node0&#45;&gt;Node9 -->
<g id="edge9" class="edge">
<title>Node0&#45;&gt;Node9</title>
<path fill="none" stroke="midnightblue" d="M166.24,-428.39C176.99,-429.54 187.96,-430.72 198.67,-431.87"/>
<polygon fill="midnightblue" stroke="midnightblue" points="166.34,-424.88 156.02,-427.29 165.59,-431.84 166.34,-424.88"/>
</g>
<!-- Node11 -->
<g id="node12" class="node">
<title>Node11</title>
<g id="a_node12"><a xlink:href="classcontroller_1_1_block_not_loaded_exception.html" target="_top" xlink:title=" ">
<polygon fill="white" stroke="black" points="210,-382 210,-412 359,-412 359,-382 210,-382"/>
<text text-anchor="start" x="218" y="-400" font-family="Helvetica,sans-Serif" font-size="10.00">controller::BlockNotLoaded</text>
<text text-anchor="middle" x="284.5" y="-389" font-family="Helvetica,sans-Serif" font-size="10.00">Exception</text>
</a>
</g>
</g>
<!-- Node0&#45;&gt;Node11 -->
<g id="edge11" class="edge">
<title>Node0&#45;&gt;Node11</title>
<path fill="none" stroke="midnightblue" d="M166.05,-409.63C180.67,-408.06 195.7,-406.45 209.93,-404.91"/>
<polygon fill="midnightblue" stroke="midnightblue" points="165.59,-406.16 156.02,-410.71 166.34,-413.12 165.59,-406.16"/>
</g>
<!-- Node12 -->
<g id="node13" class="node">
<title>Node12</title>
<g id="a_node13"><a xlink:href="classcontroller_1_1_group_not_found_exception.html" target="_top" xlink:title=" ">
<polygon fill="white" stroke="black" points="212,-333 212,-363 357,-363 357,-333 212,-333"/>
<text text-anchor="start" x="220" y="-351" font-family="Helvetica,sans-Serif" font-size="10.00">controller::GroupNotFound</text>
<text text-anchor="middle" x="284.5" y="-340" font-family="Helvetica,sans-Serif" font-size="10.00">Exception</text>
</a>
</g>
</g>
<!-- Node0&#45;&gt;Node12 -->
<g id="edge12" class="edge">
<title>Node0&#45;&gt;Node12</title>
<path fill="none" stroke="midnightblue" d="M109.74,-405.32C132.25,-395.59 163.69,-382.59 192,-373 202.29,-369.51 213.36,-366.16 224.12,-363.11"/>
<polygon fill="midnightblue" stroke="midnightblue" points="108.14,-402.2 100.37,-409.4 110.94,-408.61 108.14,-402.2"/>
</g>
<!-- Node13 -->
<g id="node14" class="node">
<title>Node13</title>
<g id="a_node14"><a xlink:href="classcontroller_1_1_wrong_transaction_type_exception.html" target="_top" xlink:title=" ">
<polygon fill="white" stroke="black" points="206.5,-284 206.5,-314 362.5,-314 362.5,-284 206.5,-284"/>
<text text-anchor="start" x="214.5" y="-302" font-family="Helvetica,sans-Serif" font-size="10.00">controller::WrongTransaction</text>
<text text-anchor="middle" x="284.5" y="-291" font-family="Helvetica,sans-Serif" font-size="10.00">TypeException</text>
</a>
</g>
</g>
<!-- Node0&#45;&gt;Node13 -->
<g id="edge13" class="edge">
<title>Node0&#45;&gt;Node13</title>
<path fill="none" stroke="midnightblue" d="M94.58,-401.98C114.97,-380.7 152.75,-344.58 192,-324 199.29,-320.18 207.23,-316.89 215.27,-314.08"/>
<polygon fill="midnightblue" stroke="midnightblue" points="91.95,-399.66 87.65,-409.34 97.05,-404.46 91.95,-399.66"/>
</g>
<!-- Node14 -->
<g id="node15" class="node">
<title>Node14</title>
<g id="a_node15"><a xlink:href="classmodel_1_1files_1_1_end_reaching_exception.html" target="_top" xlink:title=" ">
<polygon fill="white" stroke="black" points="213,-235 213,-265 356,-265 356,-235 213,-235"/>
<text text-anchor="start" x="221" y="-253" font-family="Helvetica,sans-Serif" font-size="10.00">model::files::EndReaching</text>
<text text-anchor="middle" x="284.5" y="-242" font-family="Helvetica,sans-Serif" font-size="10.00">Exception</text>
</a>
</g>
</g>
<!-- Node0&#45;&gt;Node14 -->
<g id="edge14" class="edge">
<title>Node0&#45;&gt;Node14</title>
<path fill="none" stroke="midnightblue" d="M88.16,-400.58C104.57,-369.53 141.98,-306.96 192,-274 198.31,-269.84 205.3,-266.41 212.54,-263.56"/>
<polygon fill="midnightblue" stroke="midnightblue" points="85.05,-398.98 83.58,-409.47 91.27,-402.18 85.05,-398.98"/>
</g>
<!-- Node16 -->
<g id="node17" class="node">
<title>Node16</title>
<g id="a_node17"><a xlink:href="classmodel_1_1files_1_1_file_stream_exception.html" target="_top" xlink:title=" ">
<polygon fill="white" stroke="black" points="218.5,-186 218.5,-216 350.5,-216 350.5,-186 218.5,-186"/>
<text text-anchor="start" x="226.5" y="-204" font-family="Helvetica,sans-Serif" font-size="10.00">model::files::FileStream</text>
<text text-anchor="middle" x="284.5" y="-193" font-family="Helvetica,sans-Serif" font-size="10.00">Exception</text>
</a>
</g>
</g>
<!-- Node0&#45;&gt;Node16 -->
<g id="edge16" class="edge">
<title>Node0&#45;&gt;Node16</title>
<path fill="none" stroke="midnightblue" d="M84.76,-399.41C97.39,-360.03 131.3,-271.14 192,-225 199.71,-219.14 208.73,-214.7 218.04,-211.35"/>
<polygon fill="midnightblue" stroke="midnightblue" points="81.37,-398.54 81.76,-409.12 88.06,-400.6 81.37,-398.54"/>
</g>
<!-- Node17 -->
<g id="node18" class="node">
<title>Node17</title>
<g id="a_node18"><a xlink:href="classmodel_1_1files_1_1_hash_mismatch_exception.html" target="_top" xlink:title=" ">
<polygon fill="white" stroke="black" points="208.5,-137 208.5,-167 360.5,-167 360.5,-137 208.5,-137"/>
<text text-anchor="start" x="216.5" y="-155" font-family="Helvetica,sans-Serif" font-size="10.00">model::files::HashMismatch</text>
<text text-anchor="middle" x="284.5" y="-144" font-family="Helvetica,sans-Serif" font-size="10.00">Exception</text>
</a>
</g>
</g>
<!-- Node0&#45;&gt;Node17 -->
<g id="edge17" class="edge">
<title>Node0&#45;&gt;Node17</title>
<path fill="none" stroke="midnightblue" d="M82.29,-399.39C91.13,-353.09 119.76,-236.35 192,-176 196.92,-171.89 202.46,-168.48 208.32,-165.65"/>
<polygon fill="midnightblue" stroke="midnightblue" points="78.83,-398.87 80.5,-409.33 85.72,-400.11 78.83,-398.87"/>
</g>
<!-- Node18 -->
<g id="node19" class="node">
<title>Node18</title>
<g id="a_node19"><a xlink:href="classmodel_1_1files_1_1_hash_missing_exception.html" target="_top" xlink:title=" ">
<polygon fill="white" stroke="black" points="213.5,-88 213.5,-118 355.5,-118 355.5,-88 213.5,-88"/>
<text text-anchor="start" x="221.5" y="-106" font-family="Helvetica,sans-Serif" font-size="10.00">model::files::HashMissing</text>
<text text-anchor="middle" x="284.5" y="-95" font-family="Helvetica,sans-Serif" font-size="10.00">Exception</text>
</a>
</g>
</g>
<!-- Node0&#45;&gt;Node18 -->
<g id="edge18" class="edge">
<title>Node0&#45;&gt;Node18</title>
<path fill="none" stroke="midnightblue" d="M80.59,-399.46C85.93,-347.02 107.96,-202.06 192,-127 198.25,-121.42 205.64,-117.11 213.46,-113.79"/>
<polygon fill="midnightblue" stroke="midnightblue" points="77.1,-399.17 79.66,-409.45 84.07,-399.81 77.1,-399.17"/>
</g>
<!-- Node19 -->
<g id="node20" class="node">
<title>Node19</title>
<g id="a_node20"><a xlink:href="classmodel_1_1files_1_1_index_address_pair_already_exist_exception.html" target="_top" xlink:title=" ">
<polygon fill="white" stroke="black" points="211.5,-39 211.5,-69 357.5,-69 357.5,-39 211.5,-39"/>
<text text-anchor="start" x="219.5" y="-57" font-family="Helvetica,sans-Serif" font-size="10.00">model::files::IndexAddress</text>
<text text-anchor="middle" x="284.5" y="-46" font-family="Helvetica,sans-Serif" font-size="10.00">PairAlreadyExistException</text>
</a>
</g>
</g>
<!-- Node0&#45;&gt;Node19 -->
<g id="edge19" class="edge">
<title>Node0&#45;&gt;Node19</title>
<path fill="none" stroke="midnightblue" d="M79.35,-399.39C81.51,-341.21 96.07,-168.03 192,-78 197.63,-72.72 204.27,-68.57 211.37,-65.31"/>
<polygon fill="midnightblue" stroke="midnightblue" points="75.85,-399.34 79.07,-409.43 82.85,-399.54 75.85,-399.34"/>
</g>
<!-- Node20 -->
<g id="node21" class="node">
<title>Node20</title>
<g id="a_node21"><a xlink:href="classmodel_1_1files_1_1_lock_exception.html" target="_top" xlink:title=" ">
<polygon fill="white" stroke="black" points="209.5,-0.5 209.5,-19.5 359.5,-19.5 359.5,-0.5 209.5,-0.5"/>
<text text-anchor="middle" x="284.5" y="-7.5" font-family="Helvetica,sans-Serif" font-size="10.00">model::files::LockException</text>
</a>
</g>
</g>
<!-- Node0&#45;&gt;Node20 -->
<g id="edge20" class="edge">
<title>Node0&#45;&gt;Node20</title>
<path fill="none" stroke="midnightblue" d="M81.95,-399.54C93.19,-328.03 135.53,-81.27 192,-29 197,-24.37 202.82,-20.75 209.06,-17.93"/>
<polygon fill="midnightblue" stroke="midnightblue" points="78.49,-399.04 80.42,-409.45 85.41,-400.11 78.49,-399.04"/>
</g>
<!-- Node10 -->
<g id="node11" class="node">
<title>Node10</title>
<g id="a_node11"><a xlink:href="classcontroller_1_1_block_index_invalid_file_cursor_exception.html" target="_top" xlink:title=" ">
<polygon fill="white" stroke="black" points="413,-426 413,-456 569,-456 569,-426 413,-426"/>
<text text-anchor="start" x="421" y="-444" font-family="Helvetica,sans-Serif" font-size="10.00">controller::BlockIndexInvalid</text>
<text text-anchor="middle" x="491" y="-433" font-family="Helvetica,sans-Serif" font-size="10.00">FileCursorException</text>
</a>
</g>
</g>
<!-- Node9&#45;&gt;Node10 -->
<g id="edge10" class="edge">
<title>Node9&#45;&gt;Node10</title>
<path fill="none" stroke="midnightblue" d="M380.18,-441C391.15,-441 402.24,-441 412.94,-441"/>
<polygon fill="midnightblue" stroke="midnightblue" points="380.15,-437.5 370.15,-441 380.15,-444.5 380.15,-437.5"/>
</g>
<!-- Node15 -->
<g id="node16" class="node">
<title>Node15</title>
<g id="a_node16"><a xlink:href="classmodel_1_1files_1_1_invalid_read_block_size.html" target="_top" xlink:title=" ">
<polygon fill="white" stroke="black" points="422.5,-235 422.5,-265 559.5,-265 559.5,-235 422.5,-235"/>
<text text-anchor="start" x="430.5" y="-253" font-family="Helvetica,sans-Serif" font-size="10.00">model::files::InvalidRead</text>
<text text-anchor="middle" x="491" y="-242" font-family="Helvetica,sans-Serif" font-size="10.00">BlockSize</text>
</a>
</g>
</g>
<!-- Node14&#45;&gt;Node15 -->
<g id="edge15" class="edge">
<title>Node14&#45;&gt;Node15</title>
<path fill="none" stroke="midnightblue" d="M366.36,-250C384.94,-250 404.49,-250 422.44,-250"/>
<polygon fill="midnightblue" stroke="midnightblue" points="366.16,-246.5 356.16,-250 366.16,-253.5 366.16,-246.5"/>
</g>
</g>
</svg>
