<?xml version="1.0" encoding="UTF-8" standalone="no"?>
<!DOCTYPE svg PUBLIC "-//W3C//DTD SVG 1.1//EN"
 "http://www.w3.org/Graphics/SVG/1.1/DTD/svg11.dtd">
<!-- Generated by graphviz version 3.0.0 (20220413.0242)
 -->
<!-- Title: Graphical Class Hierarchy Pages: 1 -->
<svg width="299pt" height="78pt"
 viewBox="0.00 0.00 299.00 77.50" xmlns="http://www.w3.org/2000/svg" xmlns:xlink="http://www.w3.org/1999/xlink">
<g id="graph0" class="graph" transform="scale(1 1) rotate(0) translate(4 73.5)">
<title>Graphical Class Hierarchy</title>
<polygon fill="white" stroke="transparent" points="-4,4 -4,-73.5 295,-73.5 295,4 -4,4"/>
<!-- Node0 -->
<g id="node1" class="node">
<title>Node0</title>
<g id="a_node1"><a xlink:href="classtask_1_1_command.html" target="_top" xlink:title=" ">
<polygon fill="white" stroke="black" points="0,-28 0,-47 94,-47 94,-28 0,-28"/>
<text text-anchor="middle" x="47" y="-35" font-family="Helvetica,sans-Serif" font-size="10.00">task::Command</text>
</a>
</g>
</g>
<!-- Node1 -->
<g id="node2" class="node">
<title>Node1</title>
<g id="a_node2"><a xlink:href="class_task_observer_finish_command.html" target="_top" xlink:title=" ">
<polygon fill="white" stroke="black" points="130,-50 130,-69 291,-69 291,-50 130,-50"/>
<text text-anchor="middle" x="210.5" y="-57" font-family="Helvetica,sans-Serif" font-size="10.00">TaskObserverFinishCommand</text>
</a>
</g>
</g>
<!-- Node0&#45;&gt;Node1 -->
<g id="edge1" class="edge">
<title>Node0&#45;&gt;Node1</title>
<path fill="none" stroke="midnightblue" d="M104.5,-45.2C115.88,-46.75 127.96,-48.39 139.73,-50"/>
<polygon fill="midnightblue" stroke="midnightblue" points="104.66,-41.69 94.28,-43.8 103.72,-48.62 104.66,-41.69"/>
</g>
<!-- Node2 -->
<g id="node3" class="node">
<title>Node2</title>
<g id="a_node3"><a xlink:href="classmodel_1_1files_1_1_successfull_written_to_file_command.html" target="_top" xlink:title=" ">
<polygon fill="white" stroke="black" points="143.5,-0.5 143.5,-30.5 277.5,-30.5 277.5,-0.5 143.5,-0.5"/>
<text text-anchor="start" x="151.5" y="-18.5" font-family="Helvetica,sans-Serif" font-size="10.00">model::files::Successfull</text>
<text text-anchor="middle" x="210.5" y="-7.5" font-family="Helvetica,sans-Serif" font-size="10.00">WrittenToFileCommand</text>
</a>
</g>
</g>
<!-- Node0&#45;&gt;Node2 -->
<g id="edge2" class="edge">
<title>Node0&#45;&gt;Node2</title>
<path fill="none" stroke="midnightblue" d="M104.2,-29.84C116.83,-28.12 130.36,-26.28 143.36,-24.51"/>
<polygon fill="midnightblue" stroke="midnightblue" points="103.72,-26.38 94.28,-31.2 104.66,-33.31 103.72,-26.38"/>
</g>
</g>
</svg>
