<?xml version="1.0" encoding="UTF-8" standalone="no"?>
<!DOCTYPE svg PUBLIC "-//W3C//DTD SVG 1.1//EN"
 "http://www.w3.org/Graphics/SVG/1.1/DTD/svg11.dtd">
<!-- Generated by graphviz version 2.49.3 (20211027.1534)
 -->
<!-- Title: Graphical Class Hierarchy Pages: 1 -->
<svg width="482pt" height="28pt"
 viewBox="0.00 0.00 482.00 28.00" xmlns="http://www.w3.org/2000/svg" xmlns:xlink="http://www.w3.org/1999/xlink">
<g id="graph0" class="graph" transform="scale(1 1) rotate(0) translate(4 24)">
<title>Graphical Class Hierarchy</title>
<polygon fill="white" stroke="transparent" points="-4,4 -4,-24 478,-24 478,4 -4,4"/>
<!-- Node47 -->
<g id="node1" class="node">
<title>Node47</title>
<g id="a_node1"><a xlink:title=" ">
<polygon fill="white" stroke="#bfbfbf" points="0,-0.5 0,-19.5 173,-19.5 173,-0.5 0,-0.5"/>
<text text-anchor="middle" x="86.5" y="-7.5" font-family="Helvetica,sans-Serif" font-size="10.00">Poco::Net::HTTPRequestHandler</text>
</a>
</g>
</g>
<!-- Node0 -->
<g id="node2" class="node">
<title>Node0</title>
<g id="a_node2"><a xlink:href="class_json_r_p_c_request_handler.html" target="_top" xlink:title=" ">
<polygon fill="white" stroke="black" points="209,-0.5 209,-19.5 343,-19.5 343,-0.5 209,-0.5"/>
<text text-anchor="middle" x="276" y="-7.5" font-family="Helvetica,sans-Serif" font-size="10.00">JsonRPCRequestHandler</text>
</a>
</g>
</g>
<!-- Node47&#45;&gt;Node0 -->
<g id="edge1" class="edge">
<title>Node47&#45;&gt;Node0</title>
<path fill="none" stroke="midnightblue" d="M183.23,-10C191.94,-10 200.62,-10 208.98,-10"/>
<polygon fill="midnightblue" stroke="midnightblue" points="183.02,-6.5 173.02,-10 183.02,-13.5 183.02,-6.5"/>
</g>
<!-- Node1 -->
<g id="node3" class="node">
<title>Node1</title>
<g id="a_node3"><a xlink:href="class_json_r_p_c_handler.html" target="_top" xlink:title=" ">
<polygon fill="white" stroke="black" points="379,-0.5 379,-19.5 474,-19.5 474,-0.5 379,-0.5"/>
<text text-anchor="middle" x="426.5" y="-7.5" font-family="Helvetica,sans-Serif" font-size="10.00">JsonRPCHandler</text>
</a>
</g>
</g>
<!-- Node0&#45;&gt;Node1 -->
<g id="edge2" class="edge">
<title>Node0&#45;&gt;Node1</title>
<path fill="none" stroke="midnightblue" d="M353.5,-10C362.09,-10 370.64,-10 378.68,-10"/>
<polygon fill="midnightblue" stroke="midnightblue" points="353.43,-6.5 343.43,-10 353.43,-13.5 353.43,-6.5"/>
</g>
</g>
</svg>
