<?xml version="1.0" encoding="UTF-8" standalone="no"?>
<!DOCTYPE svg PUBLIC "-//W3C//DTD SVG 1.1//EN"
 "http://www.w3.org/Graphics/SVG/1.1/DTD/svg11.dtd">
<!-- Generated by graphviz version 3.0.0 (20220413.0242)
 -->
<!-- Title: Graphical Class Hierarchy Pages: 1 -->
<svg width="398pt" height="291pt"
 viewBox="0.00 0.00 398.00 291.00" xmlns="http://www.w3.org/2000/svg" xmlns:xlink="http://www.w3.org/1999/xlink">
<g id="graph0" class="graph" transform="scale(1 1) rotate(0) translate(4 287)">
<title>Graphical Class Hierarchy</title>
<polygon fill="white" stroke="transparent" points="-4,4 -4,-287 394,-287 394,4 -4,4"/>
<!-- Node0 -->
<g id="node1" class="node">
<title>Node0</title>
<g id="a_node1"><a xlink:href="classtask_1_1_task.html" target="_top" xlink:title=" ">
<polygon fill="white" stroke="black" points="0,-137.5 0,-156.5 65,-156.5 65,-137.5 0,-137.5"/>
<text text-anchor="middle" x="32.5" y="-144.5" font-family="Helvetica,sans-Serif" font-size="10.00">task::Task</text>
</a>
</g>
</g>
<!-- Node1 -->
<g id="node2" class="node">
<title>Node1</title>
<g id="a_node2"><a xlink:href="classtask_1_1_c_p_u_task.html" target="_top" xlink:title=" ">
<polygon fill="white" stroke="black" points="101,-137.5 101,-156.5 187,-156.5 187,-137.5 101,-137.5"/>
<text text-anchor="middle" x="144" y="-144.5" font-family="Helvetica,sans-Serif" font-size="10.00">task::CPUTask</text>
</a>
</g>
</g>
<!-- Node0&#45;&gt;Node1 -->
<g id="edge1" class="edge">
<title>Node0&#45;&gt;Node1</title>
<path fill="none" stroke="midnightblue" d="M75.42,-147C83.74,-147 92.47,-147 100.8,-147"/>
<polygon fill="midnightblue" stroke="midnightblue" points="75.17,-143.5 65.17,-147 75.17,-150.5 75.17,-143.5"/>
</g>
<!-- Node2 -->
<g id="node3" class="node">
<title>Node2</title>
<g id="a_node3"><a xlink:href="class_iota_message_to_transaction_task.html" target="_top" xlink:title=": Get confirmed transaction id from Iota, process it">
<polygon fill="white" stroke="black" points="223,-263.5 223,-282.5 390,-282.5 390,-263.5 223,-263.5"/>
<text text-anchor="middle" x="306.5" y="-270.5" font-family="Helvetica,sans-Serif" font-size="10.00">IotaMessageToTransactionTask</text>
</a>
</g>
</g>
<!-- Node1&#45;&gt;Node2 -->
<g id="edge2" class="edge">
<title>Node1&#45;&gt;Node2</title>
<path fill="none" stroke="midnightblue" d="M153.58,-166.06C165.55,-190.39 189.6,-231.94 223,-254 228.89,-257.89 235.47,-260.99 242.27,-263.45"/>
<polygon fill="midnightblue" stroke="midnightblue" points="156.64,-164.35 149.2,-156.8 150.31,-167.34 156.64,-164.35"/>
</g>
<!-- Node3 -->
<g id="node4" class="node">
<title>Node3</title>
<g id="a_node4"><a xlink:href="class_write_transactions_to_block_task.html" target="_top" xlink:title="Task for collecting transactions and write it to block chain after timeout.">
<polygon fill="white" stroke="black" points="225,-225.5 225,-244.5 388,-244.5 388,-225.5 225,-225.5"/>
<text text-anchor="middle" x="306.5" y="-232.5" font-family="Helvetica,sans-Serif" font-size="10.00">WriteTransactionsToBlockTask</text>
</a>
</g>
</g>
<!-- Node1&#45;&gt;Node3 -->
<g id="edge3" class="edge">
<title>Node1&#45;&gt;Node3</title>
<path fill="none" stroke="midnightblue" d="M159.74,-164.24C174.24,-180.09 197.81,-203.04 223,-216 230.58,-219.9 238.96,-223.01 247.39,-225.48"/>
<polygon fill="midnightblue" stroke="midnightblue" points="162.28,-161.84 153.02,-156.69 157.05,-166.49 162.28,-161.84"/>
</g>
<!-- Node4 -->
<g id="node5" class="node">
<title>Node4</title>
<g id="a_node5"><a xlink:href="classcontroller_1_1_serialize_block_index_task.html" target="_top" xlink:title="bring block index in serialized format">
<polygon fill="white" stroke="black" points="237.5,-176 237.5,-206 375.5,-206 375.5,-176 237.5,-176"/>
<text text-anchor="start" x="245.5" y="-194" font-family="Helvetica,sans-Serif" font-size="10.00">controller::SerializeBlock</text>
<text text-anchor="middle" x="306.5" y="-183" font-family="Helvetica,sans-Serif" font-size="10.00">IndexTask</text>
</a>
</g>
</g>
<!-- Node1&#45;&gt;Node4 -->
<g id="edge4" class="edge">
<title>Node1&#45;&gt;Node4</title>
<path fill="none" stroke="midnightblue" d="M189.65,-159.24C208.52,-164.41 230.68,-170.49 250.55,-175.93"/>
<polygon fill="midnightblue" stroke="midnightblue" points="190.4,-155.82 179.83,-156.55 188.54,-162.57 190.4,-155.82"/>
</g>
<!-- Node5 -->
<g id="node6" class="node">
<title>Node5</title>
<g id="a_node6"><a xlink:href="classiota_1_1_milestone_loading_task.html" target="_top" xlink:title=" ">
<polygon fill="white" stroke="black" points="232,-137.5 232,-156.5 381,-156.5 381,-137.5 232,-137.5"/>
<text text-anchor="middle" x="306.5" y="-144.5" font-family="Helvetica,sans-Serif" font-size="10.00">iota::MilestoneLoadingTask</text>
</a>
</g>
</g>
<!-- Node1&#45;&gt;Node5 -->
<g id="edge5" class="edge">
<title>Node1&#45;&gt;Node5</title>
<path fill="none" stroke="midnightblue" d="M197.47,-147C208.49,-147 220.32,-147 231.96,-147"/>
<polygon fill="midnightblue" stroke="midnightblue" points="197.17,-143.5 187.17,-147 197.17,-150.5 197.17,-143.5"/>
</g>
<!-- Node6 -->
<g id="node7" class="node">
<title>Node6</title>
<g id="a_node7"><a xlink:href="classmodel_1_1files_1_1_block_append_line_task.html" target="_top" xlink:title=" ">
<polygon fill="white" stroke="black" points="235,-88 235,-118 378,-118 378,-88 235,-88"/>
<text text-anchor="start" x="243" y="-106" font-family="Helvetica,sans-Serif" font-size="10.00">model::files::BlockAppend</text>
<text text-anchor="middle" x="306.5" y="-95" font-family="Helvetica,sans-Serif" font-size="10.00">LineTask</text>
</a>
</g>
</g>
<!-- Node1&#45;&gt;Node6 -->
<g id="edge6" class="edge">
<title>Node1&#45;&gt;Node6</title>
<path fill="none" stroke="#8b1a1a" d="M189.65,-134.76C208.52,-129.59 230.68,-123.51 250.55,-118.07"/>
<polygon fill="#8b1a1a" stroke="#8b1a1a" points="188.54,-131.43 179.83,-137.45 190.4,-138.18 188.54,-131.43"/>
</g>
<!-- Node7 -->
<g id="node8" class="node">
<title>Node7</title>
<g id="a_node8"><a xlink:href="classmodel_1_1files_1_1_rebuild_block_index_task.html" target="_top" xlink:title=" ">
<polygon fill="white" stroke="black" points="235,-39 235,-69 378,-69 378,-39 235,-39"/>
<text text-anchor="start" x="243" y="-57" font-family="Helvetica,sans-Serif" font-size="10.00">model::files::RebuildBlock</text>
<text text-anchor="middle" x="306.5" y="-46" font-family="Helvetica,sans-Serif" font-size="10.00">IndexTask</text>
</a>
</g>
</g>
<!-- Node1&#45;&gt;Node7 -->
<g id="edge7" class="edge">
<title>Node1&#45;&gt;Node7</title>
<path fill="none" stroke="midnightblue" d="M160.47,-129.89C175.19,-114.57 198.64,-92.49 223,-79 229.81,-75.23 237.26,-71.96 244.8,-69.14"/>
<polygon fill="midnightblue" stroke="midnightblue" points="157.9,-127.52 153.61,-137.21 163.01,-132.31 157.9,-127.52"/>
</g>
<!-- Node8 -->
<g id="node9" class="node">
<title>Node8</title>
<g id="a_node9"><a xlink:href="classtask_1_1_hdd_write_buffer_task.html" target="_top" xlink:title=" ">
<polygon fill="white" stroke="black" points="236.5,-0.5 236.5,-19.5 376.5,-19.5 376.5,-0.5 236.5,-0.5"/>
<text text-anchor="middle" x="306.5" y="-7.5" font-family="Helvetica,sans-Serif" font-size="10.00">task::HddWriteBufferTask</text>
</a>
</g>
</g>
<!-- Node1&#45;&gt;Node8 -->
<g id="edge8" class="edge">
<title>Node1&#45;&gt;Node8</title>
<path fill="none" stroke="midnightblue" d="M152.48,-127.77C163.71,-101.5 187.48,-54.84 223,-30 229.16,-25.69 236.14,-22.31 243.37,-19.65"/>
<polygon fill="midnightblue" stroke="midnightblue" points="149.11,-126.77 148.55,-137.35 155.58,-129.42 149.11,-126.77"/>
</g>
</g>
</svg>
