<?xml version="1.0" encoding="UTF-8" standalone="no"?>
<!DOCTYPE svg PUBLIC "-//W3C//DTD SVG 1.1//EN"
 "http://www.w3.org/Graphics/SVG/1.1/DTD/svg11.dtd">
<!-- Generated by graphviz version 2.49.3 (20211027.1534)
 -->
<!-- Title: Graphical Class Hierarchy Pages: 1 -->
<svg width="440pt" height="123pt"
 viewBox="0.00 0.00 440.00 123.00" xmlns="http://www.w3.org/2000/svg" xmlns:xlink="http://www.w3.org/1999/xlink">
<g id="graph0" class="graph" transform="scale(1 1) rotate(0) translate(4 119)">
<title>Graphical Class Hierarchy</title>
<polygon fill="white" stroke="transparent" points="-4,4 -4,-119 436,-119 436,4 -4,4"/>
<!-- Node67 -->
<g id="node1" class="node">
<title>Node67</title>
<g id="a_node1"><a xlink:title=" ">
<polygon fill="white" stroke="#bfbfbf" points="0,-57.5 0,-76.5 92,-76.5 92,-57.5 0,-57.5"/>
<text text-anchor="middle" x="46" y="-64.5" font-family="Helvetica,sans-Serif" font-size="10.00">Poco::Runnable</text>
</a>
</g>
</g>
<!-- Node0 -->
<g id="node2" class="node">
<title>Node0</title>
<g id="a_node2"><a xlink:href="class_fuzzy_timer.html" target="_top" xlink:title=" ">
<polygon fill="white" stroke="black" points="155.5,-95.5 155.5,-114.5 228.5,-114.5 228.5,-95.5 155.5,-95.5"/>
<text text-anchor="middle" x="192" y="-102.5" font-family="Helvetica,sans-Serif" font-size="10.00">FuzzyTimer</text>
</a>
</g>
</g>
<!-- Node67&#45;&gt;Node0 -->
<g id="edge1" class="edge">
<title>Node67&#45;&gt;Node0</title>
<path fill="none" stroke="midnightblue" d="M93.21,-79.19C113.28,-84.49 136.44,-90.6 155.17,-95.55"/>
<polygon fill="midnightblue" stroke="midnightblue" points="93.9,-75.76 83.34,-76.59 92.11,-82.52 93.9,-75.76"/>
</g>
<!-- Node69 -->
<g id="node3" class="node">
<title>Node69</title>
<g id="a_node3"><a xlink:href="classiota_1_1_message_validator.html" target="_top" xlink:title="get messages and milestones from listener and check if messages where confirmed">
<polygon fill="white" stroke="black" points="128,-57.5 128,-76.5 256,-76.5 256,-57.5 128,-57.5"/>
<text text-anchor="middle" x="192" y="-64.5" font-family="Helvetica,sans-Serif" font-size="10.00">iota::MessageValidator</text>
</a>
</g>
</g>
<!-- Node67&#45;&gt;Node69 -->
<g id="edge2" class="edge">
<title>Node67&#45;&gt;Node69</title>
<path fill="none" stroke="midnightblue" d="M102.19,-67C110.57,-67 119.26,-67 127.79,-67"/>
<polygon fill="midnightblue" stroke="midnightblue" points="102.17,-63.5 92.17,-67 102.17,-70.5 102.17,-63.5"/>
</g>
<!-- Node70 -->
<g id="node4" class="node">
<title>Node70</title>
<g id="a_node4"><a xlink:href="classtask_1_1_thread.html" target="_top" xlink:title=" ">
<polygon fill="white" stroke="black" points="153.5,-19.5 153.5,-38.5 230.5,-38.5 230.5,-19.5 153.5,-19.5"/>
<text text-anchor="middle" x="192" y="-26.5" font-family="Helvetica,sans-Serif" font-size="10.00">task::Thread</text>
</a>
</g>
</g>
<!-- Node67&#45;&gt;Node70 -->
<g id="edge3" class="edge">
<title>Node67&#45;&gt;Node70</title>
<path fill="none" stroke="midnightblue" d="M93.17,-54.82C113.16,-49.54 136.22,-43.46 154.92,-38.52"/>
<polygon fill="midnightblue" stroke="midnightblue" points="92.11,-51.48 83.34,-57.41 93.9,-58.24 92.11,-51.48"/>
</g>
<!-- Node71 -->
<g id="node5" class="node">
<title>Node71</title>
<g id="a_node5"><a xlink:href="class_ordering_manager.html" target="_top" xlink:title=" ">
<polygon fill="white" stroke="black" points="311.5,-38.5 311.5,-57.5 412.5,-57.5 412.5,-38.5 311.5,-38.5"/>
<text text-anchor="middle" x="362" y="-45.5" font-family="Helvetica,sans-Serif" font-size="10.00">OrderingManager</text>
</a>
</g>
</g>
<!-- Node70&#45;&gt;Node71 -->
<g id="edge4" class="edge">
<title>Node70&#45;&gt;Node71</title>
<path fill="none" stroke="midnightblue" d="M240.84,-34.41C262.88,-36.9 289.04,-39.86 311.31,-42.38"/>
<polygon fill="midnightblue" stroke="midnightblue" points="241.03,-30.91 230.7,-33.26 240.25,-37.87 241.03,-30.91"/>
</g>
<!-- Node72 -->
<g id="node6" class="node">
<title>Node72</title>
<g id="a_node6"><a xlink:href="classtask_1_1_c_p_u_sheduler_thread.html" target="_top" xlink:title=" ">
<polygon fill="white" stroke="black" points="292,-0.5 292,-19.5 432,-19.5 432,-0.5 292,-0.5"/>
<text text-anchor="middle" x="362" y="-7.5" font-family="Helvetica,sans-Serif" font-size="10.00">task::CPUShedulerThread</text>
</a>
</g>
</g>
<!-- Node70&#45;&gt;Node72 -->
<g id="edge5" class="edge">
<title>Node70&#45;&gt;Node72</title>
<path fill="none" stroke="midnightblue" d="M240.77,-23.6C256.6,-21.81 274.56,-19.78 291.68,-17.84"/>
<polygon fill="midnightblue" stroke="midnightblue" points="240.25,-20.13 230.7,-24.74 241.03,-27.09 240.25,-20.13"/>
</g>
</g>
</svg>
