<?xml version="1.0" encoding="UTF-8" standalone="no"?>
<!DOCTYPE svg PUBLIC "-//W3C//DTD SVG 1.1//EN"
 "http://www.w3.org/Graphics/SVG/1.1/DTD/svg11.dtd">
<!-- Generated by graphviz version 2.49.3 (20211027.1534)
 -->
<!-- Title: Graphical Class Hierarchy Pages: 1 -->
<svg width="467pt" height="148pt"
 viewBox="0.00 0.00 467.00 148.00" xmlns="http://www.w3.org/2000/svg" xmlns:xlink="http://www.w3.org/1999/xlink">
<g id="graph0" class="graph" transform="scale(1 1) rotate(0) translate(4 144)">
<title>Graphical Class Hierarchy</title>
<polygon fill="white" stroke="transparent" points="-4,4 -4,-144 463,-144 463,4 -4,4"/>
<!-- Node68 -->
<g id="node1" class="node">
<title>Node68</title>
<g id="a_node1"><a xlink:title=" ">
<polygon fill="white" stroke="#bfbfbf" points="0,-82.5 0,-101.5 92,-101.5 92,-82.5 0,-82.5"/>
<text text-anchor="middle" x="46" y="-89.5" font-family="Helvetica,sans-Serif" font-size="10.00">Poco::Runnable</text>
</a>
</g>
</g>
<!-- Node0 -->
<g id="node2" class="node">
<title>Node0</title>
<g id="a_node2"><a xlink:href="class_fuzzy_timer.html" target="_top" xlink:title=" ">
<polygon fill="white" stroke="black" points="155.5,-120.5 155.5,-139.5 228.5,-139.5 228.5,-120.5 155.5,-120.5"/>
<text text-anchor="middle" x="192" y="-127.5" font-family="Helvetica,sans-Serif" font-size="10.00">FuzzyTimer</text>
</a>
</g>
</g>
<!-- Node68&#45;&gt;Node0 -->
<g id="edge1" class="edge">
<title>Node68&#45;&gt;Node0</title>
<path fill="none" stroke="midnightblue" d="M93.21,-104.19C113.28,-109.49 136.44,-115.6 155.17,-120.55"/>
<polygon fill="midnightblue" stroke="midnightblue" points="93.9,-100.76 83.34,-101.59 92.11,-107.52 93.9,-100.76"/>
</g>
<!-- Node70 -->
<g id="node3" class="node">
<title>Node70</title>
<g id="a_node3"><a xlink:href="classiota_1_1_message_validator.html" target="_top" xlink:title="get messages and milestones from listener and check if messages where confirmed">
<polygon fill="white" stroke="black" points="128,-82.5 128,-101.5 256,-101.5 256,-82.5 128,-82.5"/>
<text text-anchor="middle" x="192" y="-89.5" font-family="Helvetica,sans-Serif" font-size="10.00">iota::MessageValidator</text>
</a>
</g>
</g>
<!-- Node68&#45;&gt;Node70 -->
<g id="edge2" class="edge">
<title>Node68&#45;&gt;Node70</title>
<path fill="none" stroke="midnightblue" d="M102.19,-92C110.57,-92 119.26,-92 127.79,-92"/>
<polygon fill="midnightblue" stroke="midnightblue" points="102.17,-88.5 92.17,-92 102.17,-95.5 102.17,-88.5"/>
</g>
<!-- Node71 -->
<g id="node4" class="node">
<title>Node71</title>
<g id="a_node4"><a xlink:href="classtask_1_1_thread.html" target="_top" xlink:title=" ">
<polygon fill="white" stroke="black" points="153.5,-44.5 153.5,-63.5 230.5,-63.5 230.5,-44.5 153.5,-44.5"/>
<text text-anchor="middle" x="192" y="-51.5" font-family="Helvetica,sans-Serif" font-size="10.00">task::Thread</text>
</a>
</g>
</g>
<!-- Node68&#45;&gt;Node71 -->
<g id="edge3" class="edge">
<title>Node68&#45;&gt;Node71</title>
<path fill="none" stroke="midnightblue" d="M93.17,-79.82C113.16,-74.54 136.22,-68.46 154.92,-63.52"/>
<polygon fill="midnightblue" stroke="midnightblue" points="92.11,-76.48 83.34,-82.41 93.9,-83.24 92.11,-76.48"/>
</g>
<!-- Node72 -->
<g id="node5" class="node">
<title>Node72</title>
<g id="a_node5"><a xlink:href="class_ordering_manager.html" target="_top" xlink:title=" ">
<polygon fill="white" stroke="black" points="325,-88.5 325,-107.5 426,-107.5 426,-88.5 325,-88.5"/>
<text text-anchor="middle" x="375.5" y="-95.5" font-family="Helvetica,sans-Serif" font-size="10.00">OrderingManager</text>
</a>
</g>
</g>
<!-- Node71&#45;&gt;Node72 -->
<g id="edge4" class="edge">
<title>Node71&#45;&gt;Node72</title>
<path fill="none" stroke="midnightblue" d="M240.01,-66.09C256.44,-70.25 275.02,-74.9 292,-79 305,-82.14 319.18,-85.45 332.07,-88.41"/>
<polygon fill="midnightblue" stroke="midnightblue" points="240.65,-62.64 230.09,-63.56 238.92,-69.42 240.65,-62.64"/>
</g>
<!-- Node73 -->
<g id="node6" class="node">
<title>Node73</title>
<g id="a_node6"><a xlink:href="classcontroller_1_1_archive_transactions_ordering.html" target="_top" xlink:title=" ">
<polygon fill="white" stroke="black" points="292,-39 292,-69 459,-69 459,-39 292,-39"/>
<text text-anchor="start" x="300" y="-57" font-family="Helvetica,sans-Serif" font-size="10.00">controller::ArchiveTransactions</text>
<text text-anchor="middle" x="375.5" y="-46" font-family="Helvetica,sans-Serif" font-size="10.00">Ordering</text>
</a>
</g>
</g>
<!-- Node71&#45;&gt;Node73 -->
<g id="edge5" class="edge">
<title>Node71&#45;&gt;Node73</title>
<path fill="none" stroke="midnightblue" d="M241,-54C256.57,-54 274.31,-54 291.67,-54"/>
<polygon fill="midnightblue" stroke="midnightblue" points="240.61,-50.5 230.61,-54 240.61,-57.5 240.61,-50.5"/>
</g>
<!-- Node74 -->
<g id="node7" class="node">
<title>Node74</title>
<g id="a_node7"><a xlink:href="classtask_1_1_c_p_u_sheduler_thread.html" target="_top" xlink:title=" ">
<polygon fill="white" stroke="black" points="305.5,-0.5 305.5,-19.5 445.5,-19.5 445.5,-0.5 305.5,-0.5"/>
<text text-anchor="middle" x="375.5" y="-7.5" font-family="Helvetica,sans-Serif" font-size="10.00">task::CPUShedulerThread</text>
</a>
</g>
</g>
<!-- Node71&#45;&gt;Node74 -->
<g id="edge6" class="edge">
<title>Node71&#45;&gt;Node74</title>
<path fill="none" stroke="midnightblue" d="M240.65,-42.45C270.05,-35.32 307.32,-26.29 335.06,-19.56"/>
<polygon fill="midnightblue" stroke="midnightblue" points="239.5,-39.13 230.61,-44.88 241.15,-45.93 239.5,-39.13"/>
</g>
</g>
</svg>
