<?xml version="1.0" encoding="UTF-8" standalone="no"?>
<!DOCTYPE svg PUBLIC "-//W3C//DTD SVG 1.1//EN"
 "http://www.w3.org/Graphics/SVG/1.1/DTD/svg11.dtd">
<!-- Generated by graphviz version 3.0.0 (20220413.0242)
 -->
<!-- Title: Graphical Class Hierarchy Pages: 1 -->
<svg width="698pt" height="490pt"
 viewBox="0.00 0.00 698.00 489.50" xmlns="http://www.w3.org/2000/svg" xmlns:xlink="http://www.w3.org/1999/xlink">
<g id="graph0" class="graph" transform="scale(1 1) rotate(0) translate(4 485.5)">
<title>Graphical Class Hierarchy</title>
<polygon fill="white" stroke="transparent" points="-4,4 -4,-485.5 694,-485.5 694,4 -4,4"/>
<!-- Node0 -->
<g id="node1" class="node">
<title>Node0</title>
<g id="a_node1"><a xlink:href="classcontroller_1_1_controller_base.html" target="_top" xlink:title=" ">
<polygon fill="white" stroke="black" points="173.5,-361.5 173.5,-380.5 314.5,-380.5 314.5,-361.5 173.5,-361.5"/>
<text text-anchor="middle" x="244" y="-368.5" font-family="Helvetica,sans-Serif" font-size="10.00">controller::ControllerBase</text>
</a>
</g>
</g>
<!-- Node1 -->
<g id="node2" class="node">
<title>Node1</title>
<g id="a_node2"><a xlink:href="classcontroller_1_1_address_index.html" target="_top" xlink:title=" ">
<polygon fill="white" stroke="black" points="362,-304.5 362,-323.5 497,-323.5 497,-304.5 362,-304.5"/>
<text text-anchor="middle" x="429.5" y="-311.5" font-family="Helvetica,sans-Serif" font-size="10.00">controller::AddressIndex</text>
</a>
</g>
</g>
<!-- Node0&#45;&gt;Node1 -->
<g id="edge1" class="edge">
<title>Node0&#45;&gt;Node1</title>
<path fill="none" stroke="midnightblue" d="M279.92,-357.97C301.18,-350.25 328.99,-340.53 354,-333 365.12,-329.65 377.29,-326.38 388.5,-323.53"/>
<polygon fill="midnightblue" stroke="midnightblue" points="278.53,-354.75 270.35,-361.47 280.94,-361.32 278.53,-354.75"/>
</g>
<!-- Node4 -->
<g id="node4" class="node">
<title>Node4</title>
<g id="a_node4"><a xlink:href="classcontroller_1_1_block.html" target="_top" xlink:title="interface for adding and getting transactions from specific block">
<polygon fill="white" stroke="black" points="381.5,-228.5 381.5,-247.5 477.5,-247.5 477.5,-228.5 381.5,-228.5"/>
<text text-anchor="middle" x="429.5" y="-235.5" font-family="Helvetica,sans-Serif" font-size="10.00">controller::Block</text>
</a>
</g>
</g>
<!-- Node0&#45;&gt;Node4 -->
<g id="edge3" class="edge">
<title>Node0&#45;&gt;Node4</title>
<path fill="none" stroke="midnightblue" d="M268.6,-355.72C283.81,-345.16 303.39,-330.14 318,-314 338.11,-291.78 329.76,-274.62 354,-257 361.99,-251.19 371.59,-247.15 381.19,-244.35"/>
<polygon fill="midnightblue" stroke="midnightblue" points="266.54,-352.89 260.23,-361.4 270.47,-358.68 266.54,-352.89"/>
</g>
<!-- Node15 -->
<g id="node5" class="node">
<title>Node15</title>
<g id="a_node5"><a xlink:href="classcontroller_1_1_block_index.html" target="_top" xlink:title="store block index in memory for fast finding transactions">
<polygon fill="white" stroke="black" points="368,-456.5 368,-475.5 491,-475.5 491,-456.5 368,-456.5"/>
<text text-anchor="middle" x="429.5" y="-463.5" font-family="Helvetica,sans-Serif" font-size="10.00">controller::BlockIndex</text>
</a>
</g>
</g>
<!-- Node0&#45;&gt;Node15 -->
<g id="edge4" class="edge">
<title>Node0&#45;&gt;Node15</title>
<path fill="none" stroke="midnightblue" d="M263.65,-387.18C284.39,-404.37 319.52,-431.22 354,-447 362.25,-450.78 371.38,-453.89 380.33,-456.42"/>
<polygon fill="midnightblue" stroke="midnightblue" points="265.84,-384.45 255.94,-380.67 261.33,-389.8 265.84,-384.45"/>
</g>
<!-- Node17 -->
<g id="node6" class="node">
<title>Node17</title>
<g id="a_node6"><a xlink:href="classcontroller_1_1_deferred_transfer.html" target="_top" xlink:title=" ">
<polygon fill="white" stroke="black" points="354,-380.5 354,-399.5 505,-399.5 505,-380.5 354,-380.5"/>
<text text-anchor="middle" x="429.5" y="-387.5" font-family="Helvetica,sans-Serif" font-size="10.00">controller::DeferredTransfer</text>
</a>
</g>
</g>
<!-- Node0&#45;&gt;Node17 -->
<g id="edge5" class="edge">
<title>Node0&#45;&gt;Node17</title>
<path fill="none" stroke="midnightblue" d="M324.62,-379.24C334.28,-380.24 344.12,-381.26 353.71,-382.26"/>
<polygon fill="midnightblue" stroke="midnightblue" points="324.94,-375.76 314.64,-378.21 324.22,-382.72 324.94,-375.76"/>
</g>
<!-- Node18 -->
<g id="node7" class="node">
<title>Node18</title>
<g id="a_node7"><a xlink:href="classcontroller_1_1_group.html" target="_top" xlink:title="Main entry point for adding and searching for transactions TODO: validate transaction on startup.">
<polygon fill="white" stroke="black" points="380.5,-342.5 380.5,-361.5 478.5,-361.5 478.5,-342.5 380.5,-342.5"/>
<text text-anchor="middle" x="429.5" y="-349.5" font-family="Helvetica,sans-Serif" font-size="10.00">controller::Group</text>
</a>
</g>
</g>
<!-- Node0&#45;&gt;Node18 -->
<g id="edge6" class="edge">
<title>Node0&#45;&gt;Node18</title>
<path fill="none" stroke="midnightblue" d="M324.75,-362.74C343.67,-360.78 363.28,-358.75 380.29,-356.99"/>
<polygon fill="midnightblue" stroke="midnightblue" points="324.22,-359.28 314.64,-363.79 324.94,-366.24 324.22,-359.28"/>
</g>
<!-- Node21 -->
<g id="node8" class="node">
<title>Node21</title>
<g id="a_node8"><a xlink:href="classcontroller_1_1_group_index.html" target="_top" xlink:title="storing group folder name in memory in hash list for fast access">
<polygon fill="white" stroke="black" points="367,-418.5 367,-437.5 492,-437.5 492,-418.5 367,-418.5"/>
<text text-anchor="middle" x="429.5" y="-425.5" font-family="Helvetica,sans-Serif" font-size="10.00">controller::GroupIndex</text>
</a>
</g>
</g>
<!-- Node0&#45;&gt;Node21 -->
<g id="edge7" class="edge">
<title>Node0&#45;&gt;Node21</title>
<path fill="none" stroke="midnightblue" d="M279.92,-384.03C301.18,-391.75 328.99,-401.47 354,-409 365.12,-412.35 377.29,-415.62 388.5,-418.47"/>
<polygon fill="midnightblue" stroke="midnightblue" points="280.94,-380.68 270.35,-380.53 278.53,-387.25 280.94,-380.68"/>
</g>
<!-- Node2 -->
<g id="node3" class="node">
<title>Node2</title>
<g id="a_node3"><a xlink:href="classcontroller_1_1_memory_address_index.html" target="_top" xlink:title=" ">
<polygon fill="white" stroke="black" points="541,-299 541,-329 690,-329 690,-299 541,-299"/>
<text text-anchor="start" x="549" y="-317" font-family="Helvetica,sans-Serif" font-size="10.00">controller::MemoryAddress</text>
<text text-anchor="middle" x="615.5" y="-306" font-family="Helvetica,sans-Serif" font-size="10.00">Index</text>
</a>
</g>
</g>
<!-- Node1&#45;&gt;Node2 -->
<g id="edge2" class="edge">
<title>Node1&#45;&gt;Node2</title>
<path fill="none" stroke="midnightblue" d="M507.29,-314C518.41,-314 529.83,-314 540.88,-314"/>
<polygon fill="midnightblue" stroke="midnightblue" points="507.19,-310.5 497.19,-314 507.19,-317.5 507.19,-310.5"/>
</g>
<!-- Node16 -->
<g id="node9" class="node">
<title>Node16</title>
<g id="a_node9"><a xlink:href="classmodel_1_1files_1_1_i_block_index_receiver.html" target="_top" xlink:title=" ">
<polygon fill="white" stroke="black" points="175.5,-451 175.5,-481 312.5,-481 312.5,-451 175.5,-451"/>
<text text-anchor="start" x="183.5" y="-469" font-family="Helvetica,sans-Serif" font-size="10.00">model::files::IBlockIndex</text>
<text text-anchor="middle" x="244" y="-458" font-family="Helvetica,sans-Serif" font-size="10.00">Receiver</text>
</a>
</g>
</g>
<!-- Node16&#45;&gt;Node15 -->
<g id="edge8" class="edge">
<title>Node16&#45;&gt;Node15</title>
<path fill="none" stroke="midnightblue" d="M322.84,-466C337.86,-466 353.39,-466 367.77,-466"/>
<polygon fill="midnightblue" stroke="midnightblue" points="322.55,-462.5 312.55,-466 322.55,-469.5 322.55,-462.5"/>
</g>
<!-- Node19 -->
<g id="node10" class="node">
<title>Node19</title>
<g id="a_node10"><a xlink:title=" ">
<polygon fill="white" stroke="#bfbfbf" points="170,-285.5 170,-304.5 318,-304.5 318,-285.5 170,-285.5"/>
<text text-anchor="middle" x="244" y="-292.5" font-family="Helvetica,sans-Serif" font-size="10.00">model::IGradidoBlockchain</text>
</a>
</g>
</g>
<!-- Node19&#45;&gt;Node18 -->
<g id="edge9" class="edge">
<title>Node19&#45;&gt;Node18</title>
<path fill="none" stroke="midnightblue" d="M279.92,-308.03C301.18,-315.75 328.99,-325.47 354,-333 365.12,-336.35 377.29,-339.62 388.5,-342.47"/>
<polygon fill="midnightblue" stroke="midnightblue" points="280.94,-304.68 270.35,-304.53 278.53,-311.25 280.94,-304.68"/>
</g>
<!-- Node20 -->
<g id="node11" class="node">
<title>Node20</title>
<g id="a_node11"><a xlink:href="classcontroller_1_1_remote_group.html" target="_top" xlink:title="Class for accessing blockchain with this server don&#39;t listen, it will be call the transaction from an...">
<polygon fill="white" stroke="black" points="361,-266.5 361,-285.5 498,-285.5 498,-266.5 361,-266.5"/>
<text text-anchor="middle" x="429.5" y="-273.5" font-family="Helvetica,sans-Serif" font-size="10.00">controller::RemoteGroup</text>
</a>
</g>
</g>
<!-- Node19&#45;&gt;Node20 -->
<g id="edge10" class="edge">
<title>Node19&#45;&gt;Node20</title>
<path fill="none" stroke="midnightblue" d="M328.04,-286.4C338.99,-285.27 350.11,-284.12 360.76,-283.01"/>
<polygon fill="midnightblue" stroke="midnightblue" points="327.64,-282.92 318.05,-287.44 328.36,-289.89 327.64,-282.92"/>
</g>
<!-- Node11 -->
<g id="node12" class="node">
<title>Node11</title>
<g id="a_node12"><a xlink:href="classtask_1_1_i_serialize_to_v_file.html" target="_top" xlink:title=" ">
<polygon fill="white" stroke="black" points="182.5,-76.5 182.5,-95.5 305.5,-95.5 305.5,-76.5 182.5,-76.5"/>
<text text-anchor="middle" x="244" y="-83.5" font-family="Helvetica,sans-Serif" font-size="10.00">task::ISerializeToVFile</text>
</a>
</g>
</g>
<!-- Node10 -->
<g id="node13" class="node">
<title>Node10</title>
<g id="a_node13"><a xlink:href="classmodel_1_1files_1_1_address_index.html" target="_top" xlink:title=" ">
<polygon fill="white" stroke="black" points="356.5,-76.5 356.5,-95.5 502.5,-95.5 502.5,-76.5 356.5,-76.5"/>
<text text-anchor="middle" x="429.5" y="-83.5" font-family="Helvetica,sans-Serif" font-size="10.00">model::files::AddressIndex</text>
</a>
</g>
</g>
<!-- Node11&#45;&gt;Node10 -->
<g id="edge11" class="edge">
<title>Node11&#45;&gt;Node10</title>
<path fill="none" stroke="midnightblue" d="M315.68,-86C329.06,-86 343.07,-86 356.49,-86"/>
<polygon fill="midnightblue" stroke="midnightblue" points="315.59,-82.5 305.59,-86 315.59,-89.5 315.59,-82.5"/>
</g>
<!-- Node6 -->
<g id="node14" class="node">
<title>Node6</title>
<g id="a_node14"><a xlink:title=" ">
<polygon fill="white" stroke="#bfbfbf" points="184,-161.5 184,-180.5 304,-180.5 304,-161.5 184,-161.5"/>
<text text-anchor="middle" x="244" y="-168.5" font-family="Helvetica,sans-Serif" font-size="10.00">MultithreadContainer</text>
</a>
</g>
</g>
<!-- Node7 -->
<g id="node15" class="node">
<title>Node7</title>
<g id="a_node15"><a xlink:href="class_task_observer.html" target="_top" xlink:title=" ">
<polygon fill="white" stroke="black" points="388,-152.5 388,-171.5 471,-171.5 471,-152.5 388,-152.5"/>
<text text-anchor="middle" x="429.5" y="-159.5" font-family="Helvetica,sans-Serif" font-size="10.00">TaskObserver</text>
</a>
</g>
</g>
<!-- Node6&#45;&gt;Node7 -->
<g id="edge12" class="edge">
<title>Node6&#45;&gt;Node7</title>
<path fill="none" stroke="midnightblue" d="M314.18,-167.61C339.01,-166.39 366.2,-165.06 387.82,-164"/>
<polygon fill="midnightblue" stroke="midnightblue" points="313.89,-164.12 304.07,-168.1 314.23,-171.11 313.89,-164.12"/>
</g>
<!-- Node5 -->
<g id="node16" class="node">
<title>Node5</title>
<g id="a_node16"><a xlink:href="classiota_1_1_message_listener.html" target="_top" xlink:title="call iota regular and check if new message on the listening index are available">
<polygon fill="white" stroke="black" points="367.5,-190.5 367.5,-209.5 491.5,-209.5 491.5,-190.5 367.5,-190.5"/>
<text text-anchor="middle" x="429.5" y="-197.5" font-family="Helvetica,sans-Serif" font-size="10.00">iota::MessageListener</text>
</a>
</g>
</g>
<!-- Node6&#45;&gt;Node5 -->
<g id="edge13" class="edge">
<title>Node6&#45;&gt;Node5</title>
<path fill="none" stroke="midnightblue" d="M314.36,-181.96C332.1,-184.77 351.04,-187.76 368.28,-190.48"/>
<polygon fill="midnightblue" stroke="midnightblue" points="314.49,-178.44 304.07,-180.34 313.4,-185.35 314.49,-178.44"/>
</g>
<!-- Node14 -->
<g id="node17" class="node">
<title>Node14</title>
<g id="a_node17"><a xlink:title=" ">
<polygon fill="white" stroke="#bfbfbf" points="0,-38.5 0,-57.5 134,-57.5 134,-38.5 0,-38.5"/>
<text text-anchor="middle" x="67" y="-45.5" font-family="Helvetica,sans-Serif" font-size="10.00">Poco::RefCountedObject</text>
</a>
</g>
</g>
<!-- Node9 -->
<g id="node18" class="node">
<title>Node9</title>
<g id="a_node18"><a xlink:href="classmodel_1_1files_1_1_file_base.html" target="_top" xlink:title=" ">
<polygon fill="white" stroke="black" points="183.5,-38.5 183.5,-57.5 304.5,-57.5 304.5,-38.5 183.5,-38.5"/>
<text text-anchor="middle" x="244" y="-45.5" font-family="Helvetica,sans-Serif" font-size="10.00">model::files::FileBase</text>
</a>
</g>
</g>
<!-- Node14&#45;&gt;Node9 -->
<g id="edge14" class="edge">
<title>Node14&#45;&gt;Node9</title>
<path fill="none" stroke="midnightblue" d="M144.5,-48C157.52,-48 170.86,-48 183.36,-48"/>
<polygon fill="midnightblue" stroke="midnightblue" points="144.16,-44.5 134.16,-48 144.16,-51.5 144.16,-44.5"/>
</g>
<!-- Node9&#45;&gt;Node10 -->
<g id="edge15" class="edge">
<title>Node9&#45;&gt;Node10</title>
<path fill="none" stroke="midnightblue" d="M301.41,-59.68C327.43,-65.07 357.93,-71.39 382.53,-76.48"/>
<polygon fill="midnightblue" stroke="midnightblue" points="301.81,-56.19 291.3,-57.59 300.39,-63.04 301.81,-56.19"/>
</g>
<!-- Node8 -->
<g id="node19" class="node">
<title>Node8</title>
<g id="a_node19"><a xlink:href="classmodel_1_1files_1_1_block.html" target="_top" xlink:title=" ">
<polygon fill="white" stroke="black" points="376,-114.5 376,-133.5 483,-133.5 483,-114.5 376,-114.5"/>
<text text-anchor="middle" x="429.5" y="-121.5" font-family="Helvetica,sans-Serif" font-size="10.00">model::files::Block</text>
</a>
</g>
</g>
<!-- Node9&#45;&gt;Node8 -->
<g id="edge16" class="edge">
<title>Node9&#45;&gt;Node8</title>
<path fill="none" stroke="midnightblue" d="M306.34,-61.19C310.39,-62.9 314.32,-64.83 318,-67 338.03,-78.83 333.94,-93.22 354,-105 360.68,-108.92 368.15,-112.04 375.72,-114.52"/>
<polygon fill="midnightblue" stroke="midnightblue" points="307.31,-57.82 296.72,-57.58 304.86,-64.37 307.31,-57.82"/>
</g>
<!-- Node12 -->
<g id="node20" class="node">
<title>Node12</title>
<g id="a_node20"><a xlink:href="classmodel_1_1files_1_1_block_index.html" target="_top" xlink:title="Store Block Index Data in binary file.">
<polygon fill="white" stroke="black" points="362.5,-0.5 362.5,-19.5 496.5,-19.5 496.5,-0.5 362.5,-0.5"/>
<text text-anchor="middle" x="429.5" y="-7.5" font-family="Helvetica,sans-Serif" font-size="10.00">model::files::BlockIndex</text>
</a>
</g>
</g>
<!-- Node9&#45;&gt;Node12 -->
<g id="edge17" class="edge">
<title>Node9&#45;&gt;Node12</title>
<path fill="none" stroke="midnightblue" d="M301.41,-36.32C327.43,-30.93 357.93,-24.61 382.53,-19.52"/>
<polygon fill="midnightblue" stroke="midnightblue" points="300.39,-32.96 291.3,-38.41 301.81,-39.81 300.39,-32.96"/>
</g>
<!-- Node13 -->
<g id="node21" class="node">
<title>Node13</title>
<g id="a_node21"><a xlink:href="classmodel_1_1files_1_1_state.html" target="_top" xlink:title=" ">
<polygon fill="white" stroke="black" points="377,-38.5 377,-57.5 482,-57.5 482,-38.5 377,-38.5"/>
<text text-anchor="middle" x="429.5" y="-45.5" font-family="Helvetica,sans-Serif" font-size="10.00">model::files::State</text>
</a>
</g>
</g>
<!-- Node9&#45;&gt;Node13 -->
<g id="edge18" class="edge">
<title>Node9&#45;&gt;Node13</title>
<path fill="none" stroke="midnightblue" d="M314.59,-48C335.29,-48 357.59,-48 376.93,-48"/>
<polygon fill="midnightblue" stroke="midnightblue" points="314.58,-44.5 304.58,-48 314.58,-51.5 314.58,-44.5"/>
</g>
<!-- Node3 -->
<g id="node22" class="node">
<title>Node3</title>
<g id="a_node22"><a xlink:href="class_timer_callback.html" target="_top" xlink:title=" ">
<polygon fill="white" stroke="black" points="200.5,-209.5 200.5,-228.5 287.5,-228.5 287.5,-209.5 200.5,-209.5"/>
<text text-anchor="middle" x="244" y="-216.5" font-family="Helvetica,sans-Serif" font-size="10.00">TimerCallback</text>
</a>
</g>
</g>
<!-- Node3&#45;&gt;Node1 -->
<g id="edge19" class="edge">
<title>Node3&#45;&gt;Node1</title>
<path fill="none" stroke="midnightblue" d="M263.65,-235.18C284.39,-252.37 319.52,-279.22 354,-295 362.25,-298.78 371.38,-301.89 380.33,-304.42"/>
<polygon fill="midnightblue" stroke="midnightblue" points="265.84,-232.45 255.94,-228.67 261.33,-237.8 265.84,-232.45"/>
</g>
<!-- Node3&#45;&gt;Node4 -->
<g id="edge20" class="edge">
<title>Node3&#45;&gt;Node4</title>
<path fill="none" stroke="midnightblue" d="M297.76,-224.46C324.13,-227.19 355.78,-230.47 381.33,-233.12"/>
<polygon fill="midnightblue" stroke="midnightblue" points="297.87,-220.96 287.56,-223.41 297.15,-227.92 297.87,-220.96"/>
</g>
<!-- Node3&#45;&gt;Node5 -->
<g id="edge21" class="edge">
<title>Node3&#45;&gt;Node5</title>
<path fill="none" stroke="midnightblue" d="M297.61,-213.55C319.39,-211.3 344.8,-208.67 367.4,-206.33"/>
<polygon fill="midnightblue" stroke="midnightblue" points="297.15,-210.08 287.56,-214.59 297.87,-217.04 297.15,-210.08"/>
</g>
<!-- Node3&#45;&gt;Node8 -->
<g id="edge22" class="edge">
<title>Node3&#45;&gt;Node8</title>
<path fill="none" stroke="midnightblue" d="M289.47,-205.75C299.41,-201.62 309.51,-196.42 318,-190 338.98,-174.13 332.04,-157.5 354,-143 360.57,-138.66 368.07,-135.31 375.72,-132.73"/>
<polygon fill="midnightblue" stroke="midnightblue" points="288.12,-202.52 280.05,-209.39 290.64,-209.05 288.12,-202.52"/>
</g>
</g>
</svg>
