<?xml version="1.0" encoding="UTF-8" standalone="no"?>
<!DOCTYPE svg PUBLIC "-//W3C//DTD SVG 1.1//EN"
 "http://www.w3.org/Graphics/SVG/1.1/DTD/svg11.dtd">
<!-- Generated by graphviz version 2.49.3 (20211027.1534)
 -->
<!-- Title: Graphical Class Hierarchy Pages: 1 -->
<svg width="513pt" height="490pt"
 viewBox="0.00 0.00 513.00 489.50" xmlns="http://www.w3.org/2000/svg" xmlns:xlink="http://www.w3.org/1999/xlink">
<g id="graph0" class="graph" transform="scale(1 1) rotate(0) translate(4 485.5)">
<title>Graphical Class Hierarchy</title>
<polygon fill="white" stroke="transparent" points="-4,4 -4,-485.5 509,-485.5 509,4 -4,4"/>
<!-- Node0 -->
<g id="node1" class="node">
<title>Node0</title>
<g id="a_node1"><a xlink:href="classcontroller_1_1_controller_base.html" target="_top" xlink:title=" ">
<polygon fill="white" stroke="black" points="173.5,-361.5 173.5,-380.5 314.5,-380.5 314.5,-361.5 173.5,-361.5"/>
<text text-anchor="middle" x="244" y="-368.5" font-family="Helvetica,sans-Serif" font-size="10.00">controller::ControllerBase</text>
</a>
</g>
</g>
<!-- Node1 -->
<g id="node2" class="node">
<title>Node1</title>
<g id="a_node2"><a xlink:href="classcontroller_1_1_address_index.html" target="_top" xlink:title=" ">
<polygon fill="white" stroke="black" points="362,-418.5 362,-437.5 497,-437.5 497,-418.5 362,-418.5"/>
<text text-anchor="middle" x="429.5" y="-425.5" font-family="Helvetica,sans-Serif" font-size="10.00">controller::AddressIndex</text>
</a>
</g>
</g>
<!-- Node0&#45;&gt;Node1 -->
<g id="edge1" class="edge">
<title>Node0&#45;&gt;Node1</title>
<path fill="none" stroke="midnightblue" d="M279.92,-384.03C301.18,-391.75 328.99,-401.47 354,-409 365.12,-412.35 377.29,-415.62 388.5,-418.47"/>
<polygon fill="midnightblue" stroke="midnightblue" points="280.94,-380.68 270.35,-380.53 278.53,-387.25 280.94,-380.68"/>
</g>
<!-- Node2 -->
<g id="node3" class="node">
<title>Node2</title>
<g id="a_node3"><a xlink:href="classcontroller_1_1_block.html" target="_top" xlink:title="interface for adding and getting transactions from specific block">
<polygon fill="white" stroke="black" points="381.5,-304.5 381.5,-323.5 477.5,-323.5 477.5,-304.5 381.5,-304.5"/>
<text text-anchor="middle" x="429.5" y="-311.5" font-family="Helvetica,sans-Serif" font-size="10.00">controller::Block</text>
</a>
</g>
</g>
<!-- Node0&#45;&gt;Node2 -->
<g id="edge2" class="edge">
<title>Node0&#45;&gt;Node2</title>
<path fill="none" stroke="midnightblue" d="M279.92,-357.97C301.18,-350.25 328.99,-340.53 354,-333 365.12,-329.65 377.29,-326.38 388.5,-323.53"/>
<polygon fill="midnightblue" stroke="midnightblue" points="278.53,-354.75 270.35,-361.47 280.94,-361.32 278.53,-354.75"/>
</g>
<!-- Node3 -->
<g id="node4" class="node">
<title>Node3</title>
<g id="a_node4"><a xlink:href="classcontroller_1_1_block_index.html" target="_top" xlink:title="store block index in memory for fast finding transactions">
<polygon fill="white" stroke="black" points="368,-456.5 368,-475.5 491,-475.5 491,-456.5 368,-456.5"/>
<text text-anchor="middle" x="429.5" y="-463.5" font-family="Helvetica,sans-Serif" font-size="10.00">controller::BlockIndex</text>
</a>
</g>
</g>
<!-- Node0&#45;&gt;Node3 -->
<g id="edge3" class="edge">
<title>Node0&#45;&gt;Node3</title>
<path fill="none" stroke="midnightblue" d="M263.65,-387.18C284.39,-404.37 319.52,-431.22 354,-447 362.25,-450.78 371.38,-453.89 380.33,-456.42"/>
<polygon fill="midnightblue" stroke="midnightblue" points="265.84,-384.45 255.94,-380.67 261.33,-389.8 265.84,-384.45"/>
</g>
<!-- Node4 -->
<g id="node5" class="node">
<title>Node4</title>
<g id="a_node5"><a xlink:href="classcontroller_1_1_deferred_transfer.html" target="_top" xlink:title=" ">
<polygon fill="white" stroke="black" points="354,-380.5 354,-399.5 505,-399.5 505,-380.5 354,-380.5"/>
<text text-anchor="middle" x="429.5" y="-387.5" font-family="Helvetica,sans-Serif" font-size="10.00">controller::DeferredTransfer</text>
</a>
</g>
</g>
<!-- Node0&#45;&gt;Node4 -->
<g id="edge4" class="edge">
<title>Node0&#45;&gt;Node4</title>
<path fill="none" stroke="midnightblue" d="M324.62,-379.24C334.28,-380.24 344.12,-381.26 353.71,-382.26"/>
<polygon fill="midnightblue" stroke="midnightblue" points="324.94,-375.76 314.64,-378.21 324.22,-382.72 324.94,-375.76"/>
</g>
<!-- Node5 -->
<g id="node6" class="node">
<title>Node5</title>
<g id="a_node6"><a xlink:href="classcontroller_1_1_group.html" target="_top" xlink:title="Main entry point for adding and searching for transactions TODO: validate transaction on startup.">
<polygon fill="white" stroke="black" points="380.5,-266.5 380.5,-285.5 478.5,-285.5 478.5,-266.5 380.5,-266.5"/>
<text text-anchor="middle" x="429.5" y="-273.5" font-family="Helvetica,sans-Serif" font-size="10.00">controller::Group</text>
</a>
</g>
</g>
<!-- Node0&#45;&gt;Node5 -->
<g id="edge5" class="edge">
<title>Node0&#45;&gt;Node5</title>
<path fill="none" stroke="midnightblue" d="M263.65,-354.82C284.39,-337.63 319.52,-310.78 354,-295 362.25,-291.22 371.38,-288.11 380.33,-285.58"/>
<polygon fill="midnightblue" stroke="midnightblue" points="261.33,-352.2 255.94,-361.33 265.84,-357.55 261.33,-352.2"/>
</g>
<!-- Node6 -->
<g id="node7" class="node">
<title>Node6</title>
<g id="a_node7"><a xlink:href="classcontroller_1_1_group_index.html" target="_top" xlink:title="storing group folder name in memory in hash list for fast access">
<polygon fill="white" stroke="black" points="367,-342.5 367,-361.5 492,-361.5 492,-342.5 367,-342.5"/>
<text text-anchor="middle" x="429.5" y="-349.5" font-family="Helvetica,sans-Serif" font-size="10.00">controller::GroupIndex</text>
</a>
</g>
</g>
<!-- Node0&#45;&gt;Node6 -->
<g id="edge6" class="edge">
<title>Node0&#45;&gt;Node6</title>
<path fill="none" stroke="midnightblue" d="M324.78,-362.74C338.83,-361.28 353.27,-359.79 366.73,-358.4"/>
<polygon fill="midnightblue" stroke="midnightblue" points="324.22,-359.28 314.64,-363.79 324.94,-366.24 324.22,-359.28"/>
</g>
<!-- Node52 -->
<g id="node8" class="node">
<title>Node52</title>
<g id="a_node8"><a xlink:href="classmodel_1_1files_1_1_i_block_index_receiver.html" target="_top" xlink:title=" ">
<polygon fill="white" stroke="black" points="175.5,-451 175.5,-481 312.5,-481 312.5,-451 175.5,-451"/>
<text text-anchor="start" x="183.5" y="-469" font-family="Helvetica,sans-Serif" font-size="10.00">model::files::IBlockIndex</text>
<text text-anchor="middle" x="244" y="-458" font-family="Helvetica,sans-Serif" font-size="10.00">Receiver</text>
</a>
</g>
</g>
<!-- Node52&#45;&gt;Node3 -->
<g id="edge7" class="edge">
<title>Node52&#45;&gt;Node3</title>
<path fill="none" stroke="midnightblue" d="M322.84,-466C337.86,-466 353.39,-466 367.77,-466"/>
<polygon fill="midnightblue" stroke="midnightblue" points="322.55,-462.5 312.55,-466 322.55,-469.5 322.55,-462.5"/>
</g>
<!-- Node53 -->
<g id="node9" class="node">
<title>Node53</title>
<g id="a_node9"><a xlink:title=" ">
<polygon fill="white" stroke="#bfbfbf" points="170,-133.5 170,-152.5 318,-152.5 318,-133.5 170,-133.5"/>
<text text-anchor="middle" x="244" y="-140.5" font-family="Helvetica,sans-Serif" font-size="10.00">model::IGradidoBlockchain</text>
</a>
</g>
</g>
<!-- Node53&#45;&gt;Node5 -->
<g id="edge8" class="edge">
<title>Node53&#45;&gt;Node5</title>
<path fill="none" stroke="midnightblue" d="M282.39,-156.74C294.89,-162.72 308.13,-170.75 318,-181 343.93,-207.92 325.15,-233.24 354,-257 361.52,-263.2 370.81,-267.4 380.25,-270.25"/>
<polygon fill="midnightblue" stroke="midnightblue" points="283.61,-153.45 273.05,-152.56 280.75,-159.84 283.61,-153.45"/>
</g>
<!-- Node54 -->
<g id="node10" class="node">
<title>Node54</title>
<g id="a_node10"><a xlink:href="classcontroller_1_1_remote_group.html" target="_top" xlink:title="Class for accessing blockchain with this server don&#39;t listen, it will be call the transaction from an...">
<polygon fill="white" stroke="black" points="361,-114.5 361,-133.5 498,-133.5 498,-114.5 361,-114.5"/>
<text text-anchor="middle" x="429.5" y="-121.5" font-family="Helvetica,sans-Serif" font-size="10.00">controller::RemoteGroup</text>
</a>
</g>
</g>
<!-- Node53&#45;&gt;Node54 -->
<g id="edge9" class="edge">
<title>Node53&#45;&gt;Node54</title>
<path fill="none" stroke="midnightblue" d="M328.04,-134.4C338.99,-133.27 350.11,-132.12 360.76,-131.01"/>
<polygon fill="midnightblue" stroke="midnightblue" points="327.64,-130.92 318.05,-135.44 328.36,-137.89 327.64,-130.92"/>
</g>
<!-- Node58 -->
<g id="node11" class="node">
<title>Node58</title>
<g id="a_node11"><a xlink:title=" ">
<polygon fill="white" stroke="#bfbfbf" points="184,-190.5 184,-209.5 304,-209.5 304,-190.5 184,-190.5"/>
<text text-anchor="middle" x="244" y="-197.5" font-family="Helvetica,sans-Serif" font-size="10.00">MultithreadContainer</text>
</a>
</g>
</g>
<!-- Node59 -->
<g id="node12" class="node">
<title>Node59</title>
<g id="a_node12"><a xlink:href="class_task_observer.html" target="_top" xlink:title=" ">
<polygon fill="white" stroke="black" points="388,-190.5 388,-209.5 471,-209.5 471,-190.5 388,-190.5"/>
<text text-anchor="middle" x="429.5" y="-197.5" font-family="Helvetica,sans-Serif" font-size="10.00">TaskObserver</text>
</a>
</g>
</g>
<!-- Node58&#45;&gt;Node59 -->
<g id="edge10" class="edge">
<title>Node58&#45;&gt;Node59</title>
<path fill="none" stroke="midnightblue" d="M314.18,-200C339.01,-200 366.2,-200 387.82,-200"/>
<polygon fill="midnightblue" stroke="midnightblue" points="314.07,-196.5 304.07,-200 314.07,-203.5 314.07,-196.5"/>
</g>
<!-- Node60 -->
<g id="node13" class="node">
<title>Node60</title>
<g id="a_node13"><a xlink:href="classiota_1_1_message_listener.html" target="_top" xlink:title="call iota regular and check if new message on the listening index are available">
<polygon fill="white" stroke="black" points="367.5,-228.5 367.5,-247.5 491.5,-247.5 491.5,-228.5 367.5,-228.5"/>
<text text-anchor="middle" x="429.5" y="-235.5" font-family="Helvetica,sans-Serif" font-size="10.00">iota::MessageListener</text>
</a>
</g>
</g>
<!-- Node58&#45;&gt;Node60 -->
<g id="edge11" class="edge">
<title>Node58&#45;&gt;Node60</title>
<path fill="none" stroke="midnightblue" d="M301.41,-211.68C327.43,-217.07 357.93,-223.39 382.53,-228.48"/>
<polygon fill="midnightblue" stroke="midnightblue" points="301.81,-208.19 291.3,-209.59 300.39,-215.04 301.81,-208.19"/>
</g>
<!-- Node61 -->
<g id="node14" class="node">
<title>Node61</title>
<g id="a_node14"><a xlink:title=" ">
<polygon fill="white" stroke="#bfbfbf" points="0,-57.5 0,-76.5 134,-76.5 134,-57.5 0,-57.5"/>
<text text-anchor="middle" x="67" y="-64.5" font-family="Helvetica,sans-Serif" font-size="10.00">Poco::RefCountedObject</text>
</a>
</g>
</g>
<!-- Node62 -->
<g id="node15" class="node">
<title>Node62</title>
<g id="a_node15"><a xlink:href="classmodel_1_1files_1_1_file_base.html" target="_top" xlink:title=" ">
<polygon fill="white" stroke="black" points="183.5,-57.5 183.5,-76.5 304.5,-76.5 304.5,-57.5 183.5,-57.5"/>
<text text-anchor="middle" x="244" y="-64.5" font-family="Helvetica,sans-Serif" font-size="10.00">model::files::FileBase</text>
</a>
</g>
</g>
<!-- Node61&#45;&gt;Node62 -->
<g id="edge12" class="edge">
<title>Node61&#45;&gt;Node62</title>
<path fill="none" stroke="midnightblue" d="M144.5,-67C157.52,-67 170.86,-67 183.36,-67"/>
<polygon fill="midnightblue" stroke="midnightblue" points="144.16,-63.5 134.16,-67 144.16,-70.5 144.16,-63.5"/>
</g>
<!-- Node63 -->
<g id="node16" class="node">
<title>Node63</title>
<g id="a_node16"><a xlink:href="classmodel_1_1files_1_1_address_index.html" target="_top" xlink:title="File for storing account address indices.">
<polygon fill="white" stroke="black" points="356.5,-76.5 356.5,-95.5 502.5,-95.5 502.5,-76.5 356.5,-76.5"/>
<text text-anchor="middle" x="429.5" y="-83.5" font-family="Helvetica,sans-Serif" font-size="10.00">model::files::AddressIndex</text>
</a>
</g>
</g>
<!-- Node62&#45;&gt;Node63 -->
<g id="edge13" class="edge">
<title>Node62&#45;&gt;Node63</title>
<path fill="none" stroke="midnightblue" d="M314.83,-74.23C328.44,-75.64 342.73,-77.12 356.41,-78.54"/>
<polygon fill="midnightblue" stroke="midnightblue" points="314.88,-70.72 304.58,-73.17 314.16,-77.68 314.88,-70.72"/>
</g>
<!-- Node64 -->
<g id="node17" class="node">
<title>Node64</title>
<g id="a_node17"><a xlink:href="classmodel_1_1files_1_1_block.html" target="_top" xlink:title=" ">
<polygon fill="white" stroke="black" points="376,-152.5 376,-171.5 483,-171.5 483,-152.5 376,-152.5"/>
<text text-anchor="middle" x="429.5" y="-159.5" font-family="Helvetica,sans-Serif" font-size="10.00">model::files::Block</text>
</a>
</g>
</g>
<!-- Node62&#45;&gt;Node64 -->
<g id="edge14" class="edge">
<title>Node62&#45;&gt;Node64</title>
<path fill="none" stroke="midnightblue" d="M263.65,-83.18C284.39,-100.37 319.52,-127.22 354,-143 362.25,-146.78 371.38,-149.89 380.33,-152.42"/>
<polygon fill="midnightblue" stroke="midnightblue" points="265.84,-80.45 255.94,-76.67 261.33,-85.8 265.84,-80.45"/>
</g>
<!-- Node65 -->
<g id="node18" class="node">
<title>Node65</title>
<g id="a_node18"><a xlink:href="classmodel_1_1files_1_1_block_index.html" target="_top" xlink:title="Store Block Index Data in binary file.">
<polygon fill="white" stroke="black" points="362.5,-38.5 362.5,-57.5 496.5,-57.5 496.5,-38.5 362.5,-38.5"/>
<text text-anchor="middle" x="429.5" y="-45.5" font-family="Helvetica,sans-Serif" font-size="10.00">model::files::BlockIndex</text>
</a>
</g>
</g>
<!-- Node62&#45;&gt;Node65 -->
<g id="edge15" class="edge">
<title>Node62&#45;&gt;Node65</title>
<path fill="none" stroke="midnightblue" d="M314.68,-59.79C330.28,-58.17 346.78,-56.46 362.24,-54.86"/>
<polygon fill="midnightblue" stroke="midnightblue" points="314.16,-56.32 304.58,-60.83 314.88,-63.28 314.16,-56.32"/>
</g>
<!-- Node66 -->
<g id="node19" class="node">
<title>Node66</title>
<g id="a_node19"><a xlink:href="classmodel_1_1files_1_1_state.html" target="_top" xlink:title=" ">
<polygon fill="white" stroke="black" points="377,-0.5 377,-19.5 482,-19.5 482,-0.5 377,-0.5"/>
<text text-anchor="middle" x="429.5" y="-7.5" font-family="Helvetica,sans-Serif" font-size="10.00">model::files::State</text>
</a>
</g>
</g>
<!-- Node62&#45;&gt;Node66 -->
<g id="edge16" class="edge">
<title>Node62&#45;&gt;Node66</title>
<path fill="none" stroke="midnightblue" d="M279.92,-53.97C301.18,-46.25 328.99,-36.53 354,-29 365.12,-25.65 377.29,-22.38 388.5,-19.53"/>
<polygon fill="midnightblue" stroke="midnightblue" points="278.53,-50.75 270.35,-57.47 280.94,-57.32 278.53,-50.75"/>
</g>
<!-- Node82 -->
<g id="node20" class="node">
<title>Node82</title>
<g id="a_node20"><a xlink:href="class_timer_callback.html" target="_top" xlink:title=" ">
<polygon fill="white" stroke="black" points="200.5,-228.5 200.5,-247.5 287.5,-247.5 287.5,-228.5 200.5,-228.5"/>
<text text-anchor="middle" x="244" y="-235.5" font-family="Helvetica,sans-Serif" font-size="10.00">TimerCallback</text>
</a>
</g>
</g>
<!-- Node82&#45;&gt;Node2 -->
<g id="edge17" class="edge">
<title>Node82&#45;&gt;Node2</title>
<path fill="none" stroke="midnightblue" d="M269.53,-252.94C291.13,-265.57 323.77,-283.42 354,-295 363.47,-298.63 373.89,-301.78 383.85,-304.41"/>
<polygon fill="midnightblue" stroke="midnightblue" points="271.09,-249.8 260.71,-247.71 267.52,-255.82 271.09,-249.8"/>
</g>
<!-- Node82&#45;&gt;Node60 -->
<g id="edge18" class="edge">
<title>Node82&#45;&gt;Node60</title>
<path fill="none" stroke="midnightblue" d="M297.61,-238C319.39,-238 344.8,-238 367.4,-238"/>
<polygon fill="midnightblue" stroke="midnightblue" points="297.56,-234.5 287.56,-238 297.56,-241.5 297.56,-234.5"/>
</g>
<!-- Node82&#45;&gt;Node64 -->
<g id="edge19" class="edge">
<title>Node82&#45;&gt;Node64</title>
<path fill="none" stroke="midnightblue" d="M297.34,-228.21C304.55,-225.78 311.64,-222.75 318,-219 338.03,-207.17 333.94,-192.78 354,-181 360.68,-177.08 368.15,-173.96 375.72,-171.48"/>
<polygon fill="midnightblue" stroke="midnightblue" points="296.08,-224.93 287.51,-231.17 298.1,-231.64 296.08,-224.93"/>
</g>
</g>
</svg>
