<?xml version="1.0" encoding="UTF-8" standalone="no"?>
<!DOCTYPE svg PUBLIC "-//W3C//DTD SVG 1.1//EN"
 "http://www.w3.org/Graphics/SVG/1.1/DTD/svg11.dtd">
<!-- Generated by graphviz version 2.50.0 (20211204.2007)
 -->
<!-- Title: src/lib/BinTextConverter.h Pages: 1 -->
<svg width="878pt" height="95pt"
 viewBox="0.00 0.00 877.50 95.00" xmlns="http://www.w3.org/2000/svg" xmlns:xlink="http://www.w3.org/1999/xlink">
<g id="graph0" class="graph" transform="scale(1 1) rotate(0) translate(4 91)">
<title>src/lib/BinTextConverter.h</title>
<polygon fill="white" stroke="transparent" points="-4,4 -4,-91 873.5,-91 873.5,4 -4,4"/>
<!-- Node1 -->
<g id="node1" class="node">
<title>Node1</title>
<g id="a_node1"><a xlink:title=" ">
<polygon fill="#bfbfbf" stroke="black" points="330,-67.5 330,-86.5 458,-86.5 458,-67.5 330,-67.5"/>
<text text-anchor="middle" x="394" y="-74.5" font-family="Helvetica,sans-Serif" font-size="10.00">src/lib/BinTextConverter.h</text>
</a>
</g>
</g>
<!-- Node2 -->
<g id="node2" class="node">
<title>Node2</title>
<g id="a_node2"><a xlink:href="_json_r_p_c_handler_8cpp.html" target="_top" xlink:title=" ">
<polygon fill="white" stroke="black" points="0,-0.5 0,-30.5 116,-30.5 116,-0.5 0,-0.5"/>
<text text-anchor="start" x="8" y="-18.5" font-family="Helvetica,sans-Serif" font-size="10.00">src/JSONRPCInterface</text>
<text text-anchor="middle" x="58" y="-7.5" font-family="Helvetica,sans-Serif" font-size="10.00">/JsonRPCHandler.cpp</text>
</a>
</g>
</g>
<!-- Node1&#45;&gt;Node2 -->
<g id="edge1" class="edge">
<title>Node1&#45;&gt;Node2</title>
<path fill="none" stroke="midnightblue" d="M328.59,-65.95C274.02,-57.35 194.28,-44.28 125,-31 122.08,-30.44 119.09,-29.85 116.07,-29.24"/>
<polygon fill="midnightblue" stroke="midnightblue" points="328.06,-69.41 338.48,-67.5 329.14,-62.49 328.06,-69.41"/>
</g>
<!-- Node3 -->
<g id="node3" class="node">
<title>Node3</title>
<g id="a_node3"><a xlink:href="_h_t_t_p_api_8cpp.html" target="_top" xlink:title=" ">
<polygon fill="white" stroke="black" points="134.5,-6 134.5,-25 243.5,-25 243.5,-6 134.5,-6"/>
<text text-anchor="middle" x="189" y="-13" font-family="Helvetica,sans-Serif" font-size="10.00">src/iota/HTTPApi.cpp</text>
</a>
</g>
</g>
<!-- Node1&#45;&gt;Node3 -->
<g id="edge2" class="edge">
<title>Node1&#45;&gt;Node3</title>
<path fill="none" stroke="midnightblue" d="M354.98,-64.68C315.15,-53.11 254.22,-35.43 218.32,-25.01"/>
<polygon fill="midnightblue" stroke="midnightblue" points="354.05,-68.05 364.63,-67.48 356,-61.33 354.05,-68.05"/>
</g>
<!-- Node4 -->
<g id="node4" class="node">
<title>Node4</title>
<g id="a_node4"><a xlink:href="_message_id_8cpp.html" target="_top" xlink:title=" ">
<polygon fill="white" stroke="black" points="262,-6 262,-25 380,-25 380,-6 262,-6"/>
<text text-anchor="middle" x="321" y="-13" font-family="Helvetica,sans-Serif" font-size="10.00">src/iota/MessageId.cpp</text>
</a>
</g>
</g>
<!-- Node1&#45;&gt;Node4 -->
<g id="edge3" class="edge">
<title>Node1&#45;&gt;Node4</title>
<path fill="none" stroke="midnightblue" d="M375.56,-60.97C361.6,-49.59 342.92,-34.37 331.44,-25.01"/>
<polygon fill="midnightblue" stroke="midnightblue" points="373.58,-63.87 383.54,-67.48 378,-58.44 373.58,-63.87"/>
</g>
<!-- Node5 -->
<g id="node5" class="node">
<title>Node5</title>
<g id="a_node5"><a xlink:href="_bin_text_converter_8cpp.html" target="_top" xlink:title=" ">
<polygon fill="white" stroke="black" points="398,-6 398,-25 536,-25 536,-6 398,-6"/>
<text text-anchor="middle" x="467" y="-13" font-family="Helvetica,sans-Serif" font-size="10.00">src/lib/BinTextConverter.cpp</text>
</a>
</g>
</g>
<!-- Node1&#45;&gt;Node5 -->
<g id="edge4" class="edge">
<title>Node1&#45;&gt;Node5</title>
<path fill="none" stroke="midnightblue" d="M412.44,-60.97C426.4,-49.59 445.08,-34.37 456.56,-25.01"/>
<polygon fill="midnightblue" stroke="midnightblue" points="410,-58.44 404.46,-67.48 414.42,-63.87 410,-58.44"/>
</g>
<!-- Node6 -->
<g id="node6" class="node">
<title>Node6</title>
<g id="a_node6"><a xlink:href="model_2files_2_block_8cpp.html" target="_top" xlink:title=" ">
<polygon fill="white" stroke="black" points="554,-6 554,-25 680,-25 680,-6 554,-6"/>
<text text-anchor="middle" x="617" y="-13" font-family="Helvetica,sans-Serif" font-size="10.00">src/model/files/Block.cpp</text>
</a>
</g>
</g>
<!-- Node1&#45;&gt;Node6 -->
<g id="edge5" class="edge">
<title>Node1&#45;&gt;Node6</title>
<path fill="none" stroke="midnightblue" d="M435.62,-64.9C478.93,-53.34 545.81,-35.5 585.11,-25.01"/>
<polygon fill="midnightblue" stroke="midnightblue" points="434.71,-61.52 425.95,-67.48 436.51,-68.28 434.71,-61.52"/>
</g>
<!-- Node7 -->
<g id="node7" class="node">
<title>Node7</title>
<g id="a_node7"><a xlink:href="_iota_message_to_transaction_task_8cpp.html" target="_top" xlink:title=" ">
<polygon fill="white" stroke="black" points="698.5,-0.5 698.5,-30.5 869.5,-30.5 869.5,-0.5 698.5,-0.5"/>
<text text-anchor="start" x="706.5" y="-18.5" font-family="Helvetica,sans-Serif" font-size="10.00">src/task/IotaMessageToTransaction</text>
<text text-anchor="middle" x="784" y="-7.5" font-family="Helvetica,sans-Serif" font-size="10.00">Task.cpp</text>
</a>
</g>
</g>
<!-- Node1&#45;&gt;Node7 -->
<g id="edge6" class="edge">
<title>Node1&#45;&gt;Node7</title>
<path fill="none" stroke="midnightblue" d="M460.06,-65.92C519.85,-56.81 610.33,-43 689,-31 692.05,-30.53 695.16,-30.06 698.3,-29.58"/>
<polygon fill="midnightblue" stroke="midnightblue" points="459.36,-62.49 450,-67.46 460.42,-69.41 459.36,-62.49"/>
</g>
</g>
</svg>
