<?xml version="1.0" encoding="UTF-8" standalone="no"?>
<!DOCTYPE svg PUBLIC "-//W3C//DTD SVG 1.1//EN"
 "http://www.w3.org/Graphics/SVG/1.1/DTD/svg11.dtd">
<!-- Generated by graphviz version 2.50.0 (20211204.2007)
 -->
<!-- Title: convertBinTransportStringToBin Pages: 1 -->
<svg width="378pt" height="142pt"
 viewBox="0.00 0.00 378.00 142.00" xmlns="http://www.w3.org/2000/svg" xmlns:xlink="http://www.w3.org/1999/xlink">
<g id="graph0" class="graph" transform="scale(1 1) rotate(0) translate(4 138)">
<title>convertBinTransportStringToBin</title>
<polygon fill="white" stroke="transparent" points="-4,4 -4,-138 374,-138 374,4 -4,4"/>
<!-- Node1 -->
<g id="node1" class="node">
<title>Node1</title>
<g id="a_node1"><a xlink:title=" ">
<polygon fill="#bfbfbf" stroke="black" points="0,-52 0,-82 128,-82 128,-52 0,-52"/>
<text text-anchor="start" x="8" y="-70" font-family="Helvetica,sans-Serif" font-size="10.00">convertBinTransportString</text>
<text text-anchor="middle" x="64" y="-59" font-family="Helvetica,sans-Serif" font-size="10.00">ToBin</text>
</a>
</g>
</g>
<!-- Node2 -->
<g id="node2" class="node">
<title>Node2</title>
<g id="a_node2"><a xlink:href="_bin_text_converter_8cpp.html#a82729a7fc72c60d4b9b86627f42aa788" target="_top" xlink:title=" ">
<polygon fill="white" stroke="black" points="170,-114.5 170,-133.5 275,-133.5 275,-114.5 170,-114.5"/>
<text text-anchor="middle" x="222.5" y="-121.5" font-family="Helvetica,sans-Serif" font-size="10.00">convertBase58ToBin</text>
</a>
</g>
</g>
<!-- Node1&#45;&gt;Node2 -->
<g id="edge1" class="edge">
<title>Node1&#45;&gt;Node2</title>
<path fill="none" stroke="midnightblue" d="M102.92,-82.04C121.29,-89.2 143.71,-97.76 164,-105 169.71,-107.04 175.76,-109.12 181.72,-111.13"/>
<polygon fill="midnightblue" stroke="midnightblue" points="180.97,-114.57 191.56,-114.41 183.18,-107.93 180.97,-114.57"/>
</g>
<!-- Node4 -->
<g id="node4" class="node">
<title>Node4</title>
<g id="a_node4"><a xlink:href="_bin_text_converter_8cpp.html#a6aa1003f8879deb532ffdadedbc94673" target="_top" xlink:title=" ">
<polygon fill="white" stroke="black" points="170,-76.5 170,-95.5 275,-95.5 275,-76.5 170,-76.5"/>
<text text-anchor="middle" x="222.5" y="-83.5" font-family="Helvetica,sans-Serif" font-size="10.00">convertBase64ToBin</text>
</a>
</g>
</g>
<!-- Node1&#45;&gt;Node4 -->
<g id="edge3" class="edge">
<title>Node1&#45;&gt;Node4</title>
<path fill="none" stroke="midnightblue" d="M128.2,-74.67C138.51,-75.92 149.18,-77.22 159.46,-78.47"/>
<polygon fill="midnightblue" stroke="midnightblue" points="159.23,-81.97 169.58,-79.7 160.07,-75.02 159.23,-81.97"/>
</g>
<!-- Node5 -->
<g id="node5" class="node">
<title>Node5</title>
<g id="a_node5"><a xlink:href="_bin_text_converter_8cpp.html#abc148f267e9f9ce50b2bd6d5569db08a" target="_top" xlink:title=" ">
<polygon fill="white" stroke="black" points="178,-38.5 178,-57.5 267,-57.5 267,-38.5 178,-38.5"/>
<text text-anchor="middle" x="222.5" y="-45.5" font-family="Helvetica,sans-Serif" font-size="10.00">convertHexToBin</text>
</a>
</g>
</g>
<!-- Node1&#45;&gt;Node5 -->
<g id="edge4" class="edge">
<title>Node1&#45;&gt;Node5</title>
<path fill="none" stroke="midnightblue" d="M128.2,-59.33C141.32,-57.73 155.03,-56.07 167.77,-54.52"/>
<polygon fill="midnightblue" stroke="midnightblue" points="168.25,-57.99 177.75,-53.31 167.4,-51.04 168.25,-57.99"/>
</g>
<!-- Node6 -->
<g id="node6" class="node">
<title>Node6</title>
<g id="a_node6"><a xlink:href="_bin_text_converter_8cpp.html#aa185e175e92b47a8887299c5769362dc" target="_top" xlink:title=" ">
<polygon fill="white" stroke="black" points="164,-0.5 164,-19.5 281,-19.5 281,-0.5 164,-0.5"/>
<text text-anchor="middle" x="222.5" y="-7.5" font-family="Helvetica,sans-Serif" font-size="10.00">getStringTransportType</text>
</a>
</g>
</g>
<!-- Node1&#45;&gt;Node6 -->
<g id="edge5" class="edge">
<title>Node1&#45;&gt;Node6</title>
<path fill="none" stroke="midnightblue" d="M102.92,-51.96C121.29,-44.8 143.71,-36.24 164,-29 169.71,-26.96 175.76,-24.88 181.72,-22.87"/>
<polygon fill="midnightblue" stroke="midnightblue" points="183.18,-26.07 191.56,-19.59 180.97,-19.43 183.18,-26.07"/>
</g>
<!-- Node3 -->
<g id="node3" class="node">
<title>Node3</title>
<g id="a_node3"><a xlink:href="base58_8c.html#ace0e1d88e939d18316cf7bd4962d5263" target="_top" xlink:title=" ">
<polygon fill="white" stroke="black" points="317,-114.5 317,-133.5 370,-133.5 370,-114.5 317,-114.5"/>
<text text-anchor="middle" x="343.5" y="-121.5" font-family="Helvetica,sans-Serif" font-size="10.00">b58tobin</text>
</a>
</g>
</g>
<!-- Node2&#45;&gt;Node3 -->
<g id="edge2" class="edge">
<title>Node2&#45;&gt;Node3</title>
<path fill="none" stroke="midnightblue" d="M275,-124C285.61,-124 296.57,-124 306.49,-124"/>
<polygon fill="midnightblue" stroke="midnightblue" points="306.78,-127.5 316.78,-124 306.78,-120.5 306.78,-127.5"/>
</g>
</g>
</svg>
