<?xml version="1.0" encoding="UTF-8" standalone="no"?>
<!DOCTYPE svg PUBLIC "-//W3C//DTD SVG 1.1//EN"
 "http://www.w3.org/Graphics/SVG/1.1/DTD/svg11.dtd">
<!-- Generated by graphviz version 2.50.0 (20211204.2007)
 -->
<!-- Title: convertHexToBin Pages: 1 -->
<svg width="589pt" height="165pt"
 viewBox="0.00 0.00 589.00 165.00" xmlns="http://www.w3.org/2000/svg" xmlns:xlink="http://www.w3.org/1999/xlink">
<g id="graph0" class="graph" transform="scale(1 1) rotate(0) translate(4 161)">
<title>convertHexToBin</title>
<polygon fill="white" stroke="transparent" points="-4,4 -4,-161 585,-161 585,4 -4,4"/>
<!-- Node1 -->
<g id="node1" class="node">
<title>Node1</title>
<g id="a_node1"><a xlink:title=" ">
<polygon fill="#bfbfbf" stroke="black" points="492,-66 492,-85 581,-85 581,-66 492,-66"/>
<text text-anchor="middle" x="536.5" y="-73" font-family="Helvetica,sans-Serif" font-size="10.00">convertHexToBin</text>
</a>
</g>
</g>
<!-- Node2 -->
<g id="node2" class="node">
<title>Node2</title>
<g id="a_node2"><a xlink:href="_bin_text_converter_8cpp.html#a5fa79eece2ed43855634d3558fff24ed" target="_top" xlink:title=" ">
<polygon fill="white" stroke="black" points="323,-126.5 323,-156.5 451,-156.5 451,-126.5 323,-126.5"/>
<text text-anchor="start" x="331" y="-144.5" font-family="Helvetica,sans-Serif" font-size="10.00">convertBinTransportString</text>
<text text-anchor="middle" x="387" y="-133.5" font-family="Helvetica,sans-Serif" font-size="10.00">ToBin</text>
</a>
</g>
</g>
<!-- Node1&#45;&gt;Node2 -->
<g id="edge1" class="edge">
<title>Node1&#45;&gt;Node2</title>
<path fill="none" stroke="midnightblue" d="M509.53,-89.93C494.18,-98.19 474.25,-108.48 456,-116.5 448.17,-119.94 439.7,-123.32 431.49,-126.42"/>
<polygon fill="midnightblue" stroke="midnightblue" points="511.32,-92.94 518.43,-85.09 507.97,-86.79 511.32,-92.94"/>
</g>
<!-- Node4 -->
<g id="node4" class="node">
<title>Node4</title>
<g id="a_node4"><a xlink:href="classiota_1_1_message_id.html#a3d240c5e3ecad4f54f8e290b27fb2841" target="_top" xlink:title=" ">
<polygon fill="white" stroke="black" points="323,-88 323,-107 451,-107 451,-88 323,-88"/>
<text text-anchor="middle" x="387" y="-95" font-family="Helvetica,sans-Serif" font-size="10.00">iota::MessageId::fromHex</text>
</a>
</g>
</g>
<!-- Node1&#45;&gt;Node4 -->
<g id="edge3" class="edge">
<title>Node1&#45;&gt;Node4</title>
<path fill="none" stroke="midnightblue" d="M481.54,-83.55C471.63,-85.03 461.21,-86.58 451.07,-88.09"/>
<polygon fill="midnightblue" stroke="midnightblue" points="482.27,-86.98 491.64,-82.04 481.24,-80.05 482.27,-86.98"/>
</g>
<!-- Node8 -->
<g id="node8" class="node">
<title>Node8</title>
<g id="a_node8"><a xlink:href="namespaceiota.html#af852ecc37afebca4da3e8a2b369b9211" target="_top" xlink:title=" ">
<polygon fill="white" stroke="black" points="318,-38.5 318,-68.5 456,-68.5 456,-38.5 318,-38.5"/>
<text text-anchor="start" x="326" y="-56.5" font-family="Helvetica,sans-Serif" font-size="10.00">iota::getIndexiationMessage</text>
<text text-anchor="middle" x="387" y="-45.5" font-family="Helvetica,sans-Serif" font-size="10.00">DataIndex</text>
</a>
</g>
</g>
<!-- Node1&#45;&gt;Node8 -->
<g id="edge7" class="edge">
<title>Node1&#45;&gt;Node8</title>
<path fill="none" stroke="midnightblue" d="M481.68,-67.47C473.33,-66.23 464.62,-64.93 456.01,-63.64"/>
<polygon fill="midnightblue" stroke="midnightblue" points="481.24,-70.95 491.64,-68.96 482.27,-64.02 481.24,-70.95"/>
</g>
<!-- Node9 -->
<g id="node9" class="node">
<title>Node9</title>
<g id="a_node9"><a xlink:href="class_iota_message_to_transaction_task.html#afc547eb27e6a9e33d9ec6777c764aa2e" target="_top" xlink:title="called from task scheduler, maybe from another thread">
<polygon fill="white" stroke="black" points="149,-0.5 149,-30.5 282,-30.5 282,-0.5 149,-0.5"/>
<text text-anchor="start" x="157" y="-18.5" font-family="Helvetica,sans-Serif" font-size="10.00">IotaMessageToTransaction</text>
<text text-anchor="middle" x="215.5" y="-7.5" font-family="Helvetica,sans-Serif" font-size="10.00">Task::run</text>
</a>
</g>
</g>
<!-- Node1&#45;&gt;Node9 -->
<g id="edge9" class="edge">
<title>Node1&#45;&gt;Node9</title>
<path fill="none" stroke="midnightblue" d="M515.24,-59.79C499.9,-48.86 477.81,-35.1 456,-28.5 399.11,-11.27 331.2,-9.21 282.24,-10.77"/>
<polygon fill="midnightblue" stroke="midnightblue" points="513.32,-62.72 523.44,-65.83 517.46,-57.08 513.32,-62.72"/>
</g>
<!-- Node3 -->
<g id="node3" class="node">
<title>Node3</title>
<g id="a_node3"><a xlink:href="class_json_r_p_c_handler.html#a4ff8c43e6411cabcd25f2e1978f43e49" target="_top" xlink:title=" ">
<polygon fill="white" stroke="black" points="153,-132 153,-151 278,-151 278,-132 153,-132"/>
<text text-anchor="middle" x="215.5" y="-139" font-family="Helvetica,sans-Serif" font-size="10.00">JsonRPCHandler::handle</text>
</a>
</g>
</g>
<!-- Node2&#45;&gt;Node3 -->
<g id="edge2" class="edge">
<title>Node2&#45;&gt;Node3</title>
<path fill="none" stroke="midnightblue" d="M312.85,-141.5C301.32,-141.5 289.5,-141.5 278.26,-141.5"/>
<polygon fill="midnightblue" stroke="midnightblue" points="312.88,-145 322.88,-141.5 312.88,-138 312.88,-145"/>
</g>
<!-- Node5 -->
<g id="node5" class="node">
<title>Node5</title>
<g id="a_node5"><a xlink:href="namespaceiota.html#a6c89580c398001df96c6ce3a8a41cb0f" target="_top" xlink:title=" ">
<polygon fill="white" stroke="black" points="171,-91 171,-110 260,-110 260,-91 171,-91"/>
<text text-anchor="middle" x="215.5" y="-98" font-family="Helvetica,sans-Serif" font-size="10.00">iota::findByIndex</text>
</a>
</g>
</g>
<!-- Node4&#45;&gt;Node5 -->
<g id="edge4" class="edge">
<title>Node4&#45;&gt;Node5</title>
<path fill="none" stroke="midnightblue" d="M312.72,-98.8C294.79,-99.11 276.15,-99.44 260.12,-99.73"/>
<polygon fill="midnightblue" stroke="midnightblue" points="312.95,-102.29 322.88,-98.62 312.82,-95.29 312.95,-102.29"/>
</g>
<!-- Node7 -->
<g id="node7" class="node">
<title>Node7</title>
<g id="a_node7"><a xlink:href="namespaceiota.html#a6f12b7e240b305cb19dc06eab1a93d9b" target="_top" xlink:title=" ">
<polygon fill="white" stroke="black" points="151,-53 151,-72 280,-72 280,-53 151,-53"/>
<text text-anchor="middle" x="215.5" y="-60" font-family="Helvetica,sans-Serif" font-size="10.00">iota::getMilestoneByIndex</text>
</a>
</g>
</g>
<!-- Node4&#45;&gt;Node7 -->
<g id="edge6" class="edge">
<title>Node4&#45;&gt;Node7</title>
<path fill="none" stroke="midnightblue" d="M329.61,-85.86C307.91,-81.37 283.4,-76.31 262.76,-72.05"/>
<polygon fill="midnightblue" stroke="midnightblue" points="329.18,-89.34 339.68,-87.94 330.6,-82.49 329.18,-89.34"/>
</g>
<!-- Node6 -->
<g id="node6" class="node">
<title>Node6</title>
<g id="a_node6"><a xlink:href="classiota_1_1_message_listener.html#ac74a94a38ef22e72295d183ea71af35d" target="_top" xlink:title=" ">
<polygon fill="white" stroke="black" points="0,-85.5 0,-115.5 113,-115.5 113,-85.5 0,-85.5"/>
<text text-anchor="start" x="8" y="-103.5" font-family="Helvetica,sans-Serif" font-size="10.00">iota::MessageListener</text>
<text text-anchor="middle" x="56.5" y="-92.5" font-family="Helvetica,sans-Serif" font-size="10.00">::callFromTimer</text>
</a>
</g>
</g>
<!-- Node5&#45;&gt;Node6 -->
<g id="edge5" class="edge">
<title>Node5&#45;&gt;Node6</title>
<path fill="none" stroke="midnightblue" d="M160.43,-100.5C145.13,-100.5 128.45,-100.5 113.07,-100.5"/>
<polygon fill="midnightblue" stroke="midnightblue" points="160.77,-104 170.77,-100.5 160.77,-97 160.77,-104"/>
</g>
<!-- Node8&#45;&gt;Node9 -->
<g id="edge8" class="edge">
<title>Node8&#45;&gt;Node9</title>
<path fill="none" stroke="midnightblue" d="M308.97,-36.23C300.02,-34.22 290.95,-32.19 282.17,-30.22"/>
<polygon fill="midnightblue" stroke="midnightblue" points="308.49,-39.71 319.01,-38.48 310.02,-32.88 308.49,-39.71"/>
</g>
</g>
</svg>
