<?xml version="1.0" encoding="UTF-8" standalone="no"?>
<!DOCTYPE svg PUBLIC "-//W3C//DTD SVG 1.1//EN"
 "http://www.w3.org/Graphics/SVG/1.1/DTD/svg11.dtd">
<!-- Generated by graphviz version 2.50.0 (20211204.2007)
 -->
<!-- Title: src/lib/BinTextConverter.cpp Pages: 1 -->
<svg width="662pt" height="151pt"
 viewBox="0.00 0.00 662.00 151.00" xmlns="http://www.w3.org/2000/svg" xmlns:xlink="http://www.w3.org/1999/xlink">
<g id="graph0" class="graph" transform="scale(1 1) rotate(0) translate(4 147)">
<title>src/lib/BinTextConverter.cpp</title>
<polygon fill="white" stroke="transparent" points="-4,4 -4,-147 658,-147 658,4 -4,4"/>
<!-- Node1 -->
<g id="node1" class="node">
<title>Node1</title>
<g id="a_node1"><a xlink:title=" ">
<polygon fill="#bfbfbf" stroke="black" points="304,-123.5 304,-142.5 442,-142.5 442,-123.5 304,-123.5"/>
<text text-anchor="middle" x="373" y="-130.5" font-family="Helvetica,sans-Serif" font-size="10.00">src/lib/BinTextConverter.cpp</text>
</a>
</g>
</g>
<!-- Node2 -->
<g id="node2" class="node">
<title>Node2</title>
<g id="a_node2"><a xlink:href="_bin_text_converter_8h.html" target="_top" xlink:title=" ">
<polygon fill="white" stroke="black" points="0,-62 0,-81 98,-81 98,-62 0,-62"/>
<text text-anchor="middle" x="49" y="-69" font-family="Helvetica,sans-Serif" font-size="10.00">BinTextConverter.h</text>
</a>
</g>
</g>
<!-- Node1&#45;&gt;Node2 -->
<g id="edge1" class="edge">
<title>Node1&#45;&gt;Node2</title>
<path fill="none" stroke="midnightblue" d="M314.9,-123.5C260.85,-115.27 178.17,-101.89 107,-87 101.92,-85.94 96.62,-84.74 91.37,-83.49"/>
<polygon fill="midnightblue" stroke="midnightblue" points="91.96,-80.04 81.41,-81.07 90.3,-86.84 91.96,-80.04"/>
</g>
<!-- Node4 -->
<g id="node4" class="node">
<title>Node4</title>
<g id="a_node4"><a xlink:title=" ">
<polygon fill="white" stroke="#bfbfbf" points="116,-62 116,-81 248,-81 248,-62 116,-62"/>
<text text-anchor="middle" x="182" y="-69" font-family="Helvetica,sans-Serif" font-size="10.00">Poco/RegularExpression.h</text>
</a>
</g>
</g>
<!-- Node1&#45;&gt;Node4 -->
<g id="edge3" class="edge">
<title>Node1&#45;&gt;Node4</title>
<path fill="none" stroke="midnightblue" d="M345.63,-123.48C312.45,-113.14 256.35,-95.66 219.24,-84.1"/>
<polygon fill="midnightblue" stroke="midnightblue" points="219.9,-80.64 209.31,-81.01 217.82,-87.32 219.9,-80.64"/>
</g>
<!-- Node5 -->
<g id="node5" class="node">
<title>Node5</title>
<g id="a_node5"><a xlink:title=" ">
<polygon fill="white" stroke="#bfbfbf" points="266,-62 266,-81 322,-81 322,-62 266,-62"/>
<text text-anchor="middle" x="294" y="-69" font-family="Helvetica,sans-Serif" font-size="10.00">sodium.h</text>
</a>
</g>
</g>
<!-- Node1&#45;&gt;Node5 -->
<g id="edge4" class="edge">
<title>Node1&#45;&gt;Node5</title>
<path fill="none" stroke="midnightblue" d="M361.68,-123.48C349.13,-114.02 328.65,-98.6 313.5,-87.19"/>
<polygon fill="midnightblue" stroke="midnightblue" points="315.39,-84.23 305.3,-81.01 311.18,-89.82 315.39,-84.23"/>
</g>
<!-- Node6 -->
<g id="node6" class="node">
<title>Node6</title>
<g id="a_node6"><a xlink:href="libbase58_8h.html" target="_top" xlink:title=" ">
<polygon fill="white" stroke="black" points="340,-62 340,-81 406,-81 406,-62 340,-62"/>
<text text-anchor="middle" x="373" y="-69" font-family="Helvetica,sans-Serif" font-size="10.00">libbase58.h</text>
</a>
</g>
</g>
<!-- Node1&#45;&gt;Node6 -->
<g id="edge5" class="edge">
<title>Node1&#45;&gt;Node6</title>
<path fill="none" stroke="midnightblue" d="M373,-123.48C373,-115.08 373,-101.98 373,-91.16"/>
<polygon fill="midnightblue" stroke="midnightblue" points="376.5,-91.01 373,-81.01 369.5,-91.01 376.5,-91.01"/>
</g>
<!-- Node9 -->
<g id="node9" class="node">
<title>Node9</title>
<g id="a_node9"><a xlink:title=" ">
<polygon fill="white" stroke="#bfbfbf" points="424,-56.5 424,-86.5 528,-86.5 528,-56.5 424,-56.5"/>
<text text-anchor="start" x="432" y="-74.5" font-family="Helvetica,sans-Serif" font-size="10.00">../SingletonManager</text>
<text text-anchor="middle" x="476" y="-63.5" font-family="Helvetica,sans-Serif" font-size="10.00">/MemoryManager.h</text>
</a>
</g>
</g>
<!-- Node1&#45;&gt;Node9 -->
<g id="edge8" class="edge">
<title>Node1&#45;&gt;Node9</title>
<path fill="none" stroke="midnightblue" d="M387.76,-123.48C402.1,-115.19 424.37,-102.32 442.95,-91.59"/>
<polygon fill="midnightblue" stroke="midnightblue" points="444.82,-94.56 451.72,-86.52 441.32,-88.49 444.82,-94.56"/>
</g>
<!-- Node10 -->
<g id="node10" class="node">
<title>Node10</title>
<g id="a_node10"><a xlink:title=" ">
<polygon fill="white" stroke="#bfbfbf" points="546,-62 546,-81 592,-81 592,-62 546,-62"/>
<text text-anchor="middle" x="569" y="-69" font-family="Helvetica,sans-Serif" font-size="10.00">cstring</text>
</a>
</g>
</g>
<!-- Node1&#45;&gt;Node10 -->
<g id="edge9" class="edge">
<title>Node1&#45;&gt;Node10</title>
<path fill="none" stroke="midnightblue" d="M410.65,-123.46C444.23,-115.42 494.51,-102.35 537,-87 538.62,-86.42 540.27,-85.78 541.92,-85.12"/>
<polygon fill="midnightblue" stroke="midnightblue" points="543.44,-88.28 551.27,-81.14 540.69,-81.84 543.44,-88.28"/>
</g>
<!-- Node11 -->
<g id="node11" class="node">
<title>Node11</title>
<g id="a_node11"><a xlink:title=" ">
<polygon fill="white" stroke="#bfbfbf" points="610,-62 610,-81 654,-81 654,-62 610,-62"/>
<text text-anchor="middle" x="632" y="-69" font-family="Helvetica,sans-Serif" font-size="10.00">cmath</text>
</a>
</g>
</g>
<!-- Node1&#45;&gt;Node11 -->
<g id="edge10" class="edge">
<title>Node1&#45;&gt;Node11</title>
<path fill="none" stroke="midnightblue" d="M437.95,-123.47C484.16,-116.38 547.31,-104.56 601,-87 602.67,-86.45 604.37,-85.84 606.06,-85.18"/>
<polygon fill="midnightblue" stroke="midnightblue" points="607.77,-88.26 615.57,-81.09 605,-81.83 607.77,-88.26"/>
</g>
<!-- Node3 -->
<g id="node3" class="node">
<title>Node3</title>
<g id="a_node3"><a xlink:title=" ">
<polygon fill="white" stroke="#bfbfbf" points="28.5,-0.5 28.5,-19.5 69.5,-19.5 69.5,-0.5 28.5,-0.5"/>
<text text-anchor="middle" x="49" y="-7.5" font-family="Helvetica,sans-Serif" font-size="10.00">string</text>
</a>
</g>
</g>
<!-- Node2&#45;&gt;Node3 -->
<g id="edge2" class="edge">
<title>Node2&#45;&gt;Node3</title>
<path fill="none" stroke="midnightblue" d="M49,-61.98C49,-53.58 49,-40.48 49,-29.66"/>
<polygon fill="midnightblue" stroke="midnightblue" points="52.5,-29.51 49,-19.51 45.5,-29.51 52.5,-29.51"/>
</g>
<!-- Node7 -->
<g id="node7" class="node">
<title>Node7</title>
<g id="a_node7"><a xlink:title=" ">
<polygon fill="white" stroke="#bfbfbf" points="309,-0.5 309,-19.5 365,-19.5 365,-0.5 309,-0.5"/>
<text text-anchor="middle" x="337" y="-7.5" font-family="Helvetica,sans-Serif" font-size="10.00">stdbool.h</text>
</a>
</g>
</g>
<!-- Node6&#45;&gt;Node7 -->
<g id="edge6" class="edge">
<title>Node6&#45;&gt;Node7</title>
<path fill="none" stroke="midnightblue" d="M367.84,-61.98C362.55,-53.23 354.16,-39.37 347.47,-28.31"/>
<polygon fill="midnightblue" stroke="midnightblue" points="350.32,-26.25 342.15,-19.51 344.33,-29.88 350.32,-26.25"/>
</g>
<!-- Node8 -->
<g id="node8" class="node">
<title>Node8</title>
<g id="a_node8"><a xlink:title=" ">
<polygon fill="white" stroke="#bfbfbf" points="383.5,-0.5 383.5,-19.5 434.5,-19.5 434.5,-0.5 383.5,-0.5"/>
<text text-anchor="middle" x="409" y="-7.5" font-family="Helvetica,sans-Serif" font-size="10.00">stddef.h</text>
</a>
</g>
</g>
<!-- Node6&#45;&gt;Node8 -->
<g id="edge7" class="edge">
<title>Node6&#45;&gt;Node8</title>
<path fill="none" stroke="midnightblue" d="M378.16,-61.98C383.45,-53.23 391.84,-39.37 398.53,-28.31"/>
<polygon fill="midnightblue" stroke="midnightblue" points="401.67,-29.88 403.85,-19.51 395.68,-26.25 401.67,-29.88"/>
</g>
</g>
</svg>
