<?xml version="1.0" encoding="UTF-8" standalone="no"?>
<!DOCTYPE svg PUBLIC "-//W3C//DTD SVG 1.1//EN"
 "http://www.w3.org/Graphics/SVG/1.1/DTD/svg11.dtd">
<!-- Generated by graphviz version 2.50.0 (20211204.2007)
 -->
<!-- Title: src/task/CPUShedulerThread.h Pages: 1 -->
<svg width="320pt" height="84pt"
 viewBox="0.00 0.00 319.50 84.00" xmlns="http://www.w3.org/2000/svg" xmlns:xlink="http://www.w3.org/1999/xlink">
<g id="graph0" class="graph" transform="scale(1 1) rotate(0) translate(4 80)">
<title>src/task/CPUShedulerThread.h</title>
<polygon fill="white" stroke="transparent" points="-4,4 -4,-80 315.5,-80 315.5,4 -4,4"/>
<!-- Node1 -->
<g id="node1" class="node">
<title>Node1</title>
<g id="a_node1"><a xlink:title=" ">
<polygon fill="#bfbfbf" stroke="black" points="72.5,-56.5 72.5,-75.5 223.5,-75.5 223.5,-56.5 72.5,-56.5"/>
<text text-anchor="middle" x="148" y="-63.5" font-family="Helvetica,sans-Serif" font-size="10.00">src/task/CPUShedulerThread.h</text>
</a>
</g>
</g>
<!-- Node2 -->
<g id="node2" class="node">
<title>Node2</title>
<g id="a_node2"><a xlink:href="_c_p_u_sheduler_8cpp.html" target="_top" xlink:title=" ">
<polygon fill="white" stroke="black" points="0,-0.5 0,-19.5 132,-19.5 132,-0.5 0,-0.5"/>
<text text-anchor="middle" x="66" y="-7.5" font-family="Helvetica,sans-Serif" font-size="10.00">src/task/CPUSheduler.cpp</text>
</a>
</g>
</g>
<!-- Node1&#45;&gt;Node2 -->
<g id="edge1" class="edge">
<title>Node1&#45;&gt;Node2</title>
<path fill="none" stroke="midnightblue" d="M126.17,-50.62C111.19,-40.76 91.8,-27.99 79.14,-19.65"/>
<polygon fill="midnightblue" stroke="midnightblue" points="124.55,-53.75 134.83,-56.32 128.4,-47.9 124.55,-53.75"/>
</g>
<!-- Node3 -->
<g id="node3" class="node">
<title>Node3</title>
<g id="a_node3"><a xlink:href="_c_p_u_sheduler_thread_8cpp.html" target="_top" xlink:title=" ">
<polygon fill="white" stroke="black" points="150.5,-0.5 150.5,-19.5 311.5,-19.5 311.5,-0.5 150.5,-0.5"/>
<text text-anchor="middle" x="231" y="-7.5" font-family="Helvetica,sans-Serif" font-size="10.00">src/task/CPUShedulerThread.cpp</text>
</a>
</g>
</g>
<!-- Node1&#45;&gt;Node3 -->
<g id="edge2" class="edge">
<title>Node1&#45;&gt;Node3</title>
<path fill="none" stroke="midnightblue" d="M170.1,-50.62C185.26,-40.76 204.88,-27.99 217.7,-19.65"/>
<polygon fill="midnightblue" stroke="midnightblue" points="167.81,-47.94 161.34,-56.32 171.63,-53.8 167.81,-47.94"/>
</g>
</g>
</svg>
