<?xml version="1.0" encoding="UTF-8" standalone="no"?>
<!DOCTYPE svg PUBLIC "-//W3C//DTD SVG 1.1//EN"
 "http://www.w3.org/Graphics/SVG/1.1/DTD/svg11.dtd">
<!-- Generated by graphviz version 2.50.0 (20211204.2007)
 -->
<!-- Title: src/task/CPUTask.cpp Pages: 1 -->
<!--zoomable 274 -->
<svg id="main" version="1.1" xmlns="http://www.w3.org/2000/svg" xmlns:xlink="http://www.w3.org/1999/xlink" xml:space="preserve" onload="init(evt)">
<style type="text/css"><![CDATA[
.edge:hover path { stroke: red; }
.edge:hover polygon { stroke: red; fill: red; }
]]></style>
<script type="text/javascript"><![CDATA[
var edges = document.getElementsByTagName('g');
if (edges && edges.length) {
  for (var i=0;i<edges.length;i++) {
    if (edges[i].id.substr(0,4)=='edge') {
      edges[i].setAttribute('class','edge');
    }
  }
}
]]></script>
        <defs>
                <circle id="rim" cx="0" cy="0" r="7"/>
                <circle id="rim2" cx="0" cy="0" r="3.5"/>
                <g id="zoomPlus">
                        <use xlink:href="#rim" fill="#404040">
                                <set attributeName="fill" to="#808080" begin="zoomplus.mouseover" end="zoomplus.mouseout"/>
                        </use>
                        <path d="M-4,0h8M0,-4v8" fill="none" stroke="white" stroke-width="1.5" pointer-events="none"/>
                </g>
                <g id="zoomMin">
                        <use xlink:href="#rim" fill="#404040">
                                <set attributeName="fill" to="#808080" begin="zoomminus.mouseover" end="zoomminus.mouseout"/>
                        </use>
                        <path d="M-4,0h8" fill="none" stroke="white" stroke-width="1.5" pointer-events="none"/>
                </g>
                <g id="dirArrow">
                        <path fill="none" stroke="white" stroke-width="1.5" d="M0,-3.0v7 M-2.5,-0.5L0,-3.0L2.5,-0.5"/>
                </g>
               <g id="resetDef">
                       <use xlink:href="#rim2" fill="#404040">
                               <set attributeName="fill" to="#808080" begin="reset.mouseover" end="reset.mouseout"/>
                       </use>
               </g>
        </defs>

<script type="text/javascript">
var viewWidth = 837;
var viewHeight = 274;
var sectionId = 'dynsection-0';
</script>
<script xlink:href="svgpan.js"/>
<svg id="graph" class="graph">
<g id="viewport">
<title>src/task/CPUTask.cpp</title>
<polygon fill="white" stroke="transparent" points="-4,4 -4,-270 833,-270 833,4 -4,4"/>
<!-- Node1 -->
<g id="node1" class="node">
<title>Node1</title>
<g id="a_node1"><a xlink:title=" ">
<polygon fill="#bfbfbf" stroke="black" points="234,-246.5 234,-265.5 349,-265.5 349,-246.5 234,-246.5"/>
<text text-anchor="middle" x="291.5" y="-253.5" font-family="Helvetica,sans-Serif" font-size="10.00">src/task/CPUTask.cpp</text>
</a>
</g>
</g>
<!-- Node2 -->
<g id="node2" class="node">
<title>Node2</title>
<g id="a_node2"><a xlink:href="_c_p_u_task_8h.html" target="_top" xlink:title=" ">
<polygon fill="white" stroke="black" points="160.5,-190.5 160.5,-209.5 226.5,-209.5 226.5,-190.5 160.5,-190.5"/>
<text text-anchor="middle" x="193.5" y="-197.5" font-family="Helvetica,sans-Serif" font-size="10.00">CPUTask.h</text>
</a>
</g>
</g>
<!-- Node1&#45;&gt;Node2 -->
<g id="edge1" class="edge">
<title>Node1&#45;&gt;Node2</title>
<path fill="none" stroke="midnightblue" d="M275.75,-246.32C260.18,-237.74 236.12,-224.49 218.04,-214.52"/>
<polygon fill="midnightblue" stroke="midnightblue" points="219.65,-211.42 209.21,-209.65 216.28,-217.55 219.65,-211.42"/>
</g>
<!-- Node3 -->
<g id="node3" class="node">
<title>Node3</title>
<g id="a_node3"><a xlink:href="_c_p_u_sheduler_8h.html" target="_top" xlink:title=" ">
<polygon fill="white" stroke="black" points="0,-129 0,-148 83,-148 83,-129 0,-129"/>
<text text-anchor="middle" x="41.5" y="-136" font-family="Helvetica,sans-Serif" font-size="10.00">CPUSheduler.h</text>
</a>
</g>
</g>
<!-- Node1&#45;&gt;Node3 -->
<g id="edge2" class="edge">
<title>Node1&#45;&gt;Node3</title>
<path fill="none" stroke="midnightblue" d="M286.5,-246.36C277.92,-232.32 259.02,-204.65 235.5,-190 235.09,-189.74 141.15,-165.35 84.16,-150.56"/>
<polygon fill="midnightblue" stroke="midnightblue" points="84.88,-147.13 74.32,-148.01 83.12,-153.91 84.88,-147.13"/>
</g>
<!-- Node4 -->
<g id="node4" class="node">
<title>Node4</title>
<g id="a_node4"><a xlink:href="_server_globals_8h.html" target="_top" xlink:title=" ">
<polygon fill="white" stroke="black" points="282.5,-190.5 282.5,-209.5 376.5,-209.5 376.5,-190.5 282.5,-190.5"/>
<text text-anchor="middle" x="329.5" y="-197.5" font-family="Helvetica,sans-Serif" font-size="10.00">../ServerGlobals.h</text>
</a>
</g>
</g>
<!-- Node1&#45;&gt;Node4 -->
<g id="edge3" class="edge">
<title>Node1&#45;&gt;Node4</title>
<path fill="none" stroke="midnightblue" d="M297.77,-246.08C303.14,-238.46 311.02,-227.26 317.58,-217.94"/>
<polygon fill="midnightblue" stroke="midnightblue" points="320.45,-219.94 323.34,-209.75 314.72,-215.91 320.45,-219.94"/>
</g>
<!-- Node9 -->
<g id="node9" class="node">
<title>Node9</title>
<g id="a_node9"><a xlink:title=" ">
<polygon fill="white" stroke="#bfbfbf" points="711,-129 711,-148 826,-148 826,-129 711,-129"/>
<text text-anchor="middle" x="768.5" y="-136" font-family="Helvetica,sans-Serif" font-size="10.00">Poco/AtomicCounter.h</text>
</a>
</g>
</g>
<!-- Node1&#45;&gt;Node9 -->
<g id="edge19" class="edge">
<title>Node1&#45;&gt;Node9</title>
<path fill="none" stroke="midnightblue" d="M326.96,-246.41C412.27,-225.76 628.85,-173.31 723.3,-150.44"/>
<polygon fill="midnightblue" stroke="midnightblue" points="724.23,-153.82 733.13,-148.06 722.59,-147.02 724.23,-153.82"/>
</g>
<!-- Node4&#45;&gt;Node3 -->
<g id="edge9" class="edge">
<title>Node4&#45;&gt;Node3</title>
<path fill="none" stroke="midnightblue" d="M282.22,-190.71C235.21,-182.27 161.13,-168.39 97.5,-154 92.79,-152.93 87.87,-151.76 82.99,-150.55"/>
<polygon fill="midnightblue" stroke="midnightblue" points="83.66,-147.11 73.11,-148.05 81.94,-153.89 83.66,-147.11"/>
</g>
<!-- Node5 -->
<g id="node5" class="node">
<title>Node5</title>
<g id="a_node5"><a xlink:title=" ">
<polygon fill="white" stroke="#bfbfbf" points="129.5,-0.5 129.5,-19.5 287.5,-19.5 287.5,-0.5 129.5,-0.5"/>
<text text-anchor="middle" x="208.5" y="-7.5" font-family="Helvetica,sans-Serif" font-size="10.00">Poco/Util/LayeredConfiguration.h</text>
</a>
</g>
</g>
<!-- Node4&#45;&gt;Node5 -->
<g id="edge4" class="edge">
<title>Node4&#45;&gt;Node5</title>
<path fill="none" stroke="midnightblue" d="M282.36,-191.49C226.57,-182.12 140.01,-165.9 130.5,-154 96.95,-112.02 156.18,-53.57 188.94,-26.24"/>
<polygon fill="midnightblue" stroke="midnightblue" points="191.45,-28.71 197,-19.69 187.04,-23.27 191.45,-28.71"/>
</g>
<!-- Node6 -->
<g id="node6" class="node">
<title>Node6</title>
<g id="a_node6"><a xlink:title=" ">
<polygon fill="white" stroke="#bfbfbf" points="140,-129 140,-148 217,-148 217,-129 140,-129"/>
<text text-anchor="middle" x="178.5" y="-136" font-family="Helvetica,sans-Serif" font-size="10.00">Poco/Types.h</text>
</a>
</g>
</g>
<!-- Node4&#45;&gt;Node6 -->
<g id="edge5" class="edge">
<title>Node4&#45;&gt;Node6</title>
<path fill="none" stroke="midnightblue" d="M307.87,-190.48C282.08,-180.31 238.79,-163.26 209.46,-151.7"/>
<polygon fill="midnightblue" stroke="midnightblue" points="210.68,-148.42 200.09,-148.01 208.12,-154.93 210.68,-148.42"/>
</g>
<!-- Node7 -->
<g id="node7" class="node">
<title>Node7</title>
<g id="a_node7"><a xlink:title=" ">
<polygon fill="white" stroke="#bfbfbf" points="235.5,-129 235.5,-148 315.5,-148 315.5,-129 235.5,-129"/>
<text text-anchor="middle" x="275.5" y="-136" font-family="Helvetica,sans-Serif" font-size="10.00">Poco/Logger.h</text>
</a>
</g>
</g>
<!-- Node4&#45;&gt;Node7 -->
<g id="edge6" class="edge">
<title>Node4&#45;&gt;Node7</title>
<path fill="none" stroke="midnightblue" d="M321.76,-190.48C313.5,-181.37 300.22,-166.74 290.01,-155.48"/>
<polygon fill="midnightblue" stroke="midnightblue" points="292.53,-153.06 283.22,-148.01 287.35,-157.77 292.53,-153.06"/>
</g>
<!-- Node8 -->
<g id="node8" class="node">
<title>Node8</title>
<g id="a_node8"><a xlink:title=" ">
<polygon fill="white" stroke="#bfbfbf" points="333.5,-129 333.5,-148 435.5,-148 435.5,-129 333.5,-129"/>
<text text-anchor="middle" x="384.5" y="-136" font-family="Helvetica,sans-Serif" font-size="10.00">Poco/Net/Context.h</text>
</a>
</g>
</g>
<!-- Node4&#45;&gt;Node8 -->
<g id="edge7" class="edge">
<title>Node4&#45;&gt;Node8</title>
<path fill="none" stroke="midnightblue" d="M337.38,-190.48C345.79,-181.37 359.32,-166.74 369.73,-155.48"/>
<polygon fill="midnightblue" stroke="midnightblue" points="372.42,-157.73 376.63,-148.01 367.28,-152.98 372.42,-157.73"/>
</g>
<!-- Node4&#45;&gt;Node9 -->
<g id="edge8" class="edge">
<title>Node4&#45;&gt;Node9</title>
<path fill="none" stroke="midnightblue" d="M376.52,-194.79C447.46,-188.11 585.94,-173.79 702.5,-154 709.11,-152.88 716.05,-151.54 722.85,-150.13"/>
<polygon fill="midnightblue" stroke="midnightblue" points="723.61,-153.54 732.66,-148.03 722.15,-146.7 723.61,-153.54"/>
</g>
<!-- Node10 -->
<g id="node10" class="node">
<title>Node10</title>
<g id="a_node10"><a xlink:title=" ">
<polygon fill="white" stroke="#bfbfbf" points="453.5,-123.5 453.5,-153.5 557.5,-153.5 557.5,-123.5 453.5,-123.5"/>
<text text-anchor="start" x="461.5" y="-141.5" font-family="Helvetica,sans-Serif" font-size="10.00">gradido_blockchain</text>
<text text-anchor="middle" x="505.5" y="-130.5" font-family="Helvetica,sans-Serif" font-size="10.00">/http/JsonRequest.h</text>
</a>
</g>
</g>
<!-- Node4&#45;&gt;Node10 -->
<g id="edge10" class="edge">
<title>Node4&#45;&gt;Node10</title>
<path fill="none" stroke="midnightblue" d="M354.72,-190.48C380.56,-181.74 421.47,-167.91 454.16,-156.86"/>
<polygon fill="midnightblue" stroke="midnightblue" points="455.67,-160.04 464.02,-153.52 453.43,-153.41 455.67,-160.04"/>
</g>
<!-- Node11 -->
<g id="node11" class="node">
<title>Node11</title>
<g id="a_node11"><a xlink:href="controller_2_group_index_8h.html" target="_top" xlink:title=" ">
<polygon fill="white" stroke="black" points="576,-129 576,-148 693,-148 693,-129 576,-129"/>
<text text-anchor="middle" x="634.5" y="-136" font-family="Helvetica,sans-Serif" font-size="10.00">controller/GroupIndex.h</text>
</a>
</g>
</g>
<!-- Node4&#45;&gt;Node11 -->
<g id="edge11" class="edge">
<title>Node4&#45;&gt;Node11</title>
<path fill="none" stroke="midnightblue" d="M376.33,-190.43C424.18,-181.6 500.61,-167.28 566.5,-154 572.63,-152.76 579.07,-151.43 585.44,-150.1"/>
<polygon fill="midnightblue" stroke="midnightblue" points="586.28,-153.5 595.34,-148.01 584.83,-146.65 586.28,-153.5"/>
</g>
<!-- Node12 -->
<g id="node12" class="node">
<title>Node12</title>
<g id="a_node12"><a xlink:href="model_2files_2_group_index_8h.html" target="_top" xlink:title=" ">
<polygon fill="white" stroke="black" points="235,-62 235,-81 368,-81 368,-62 235,-62"/>
<text text-anchor="middle" x="301.5" y="-69" font-family="Helvetica,sans-Serif" font-size="10.00">../model/files/GroupIndex.h</text>
</a>
</g>
</g>
<!-- Node11&#45;&gt;Node12 -->
<g id="edge12" class="edge">
<title>Node11&#45;&gt;Node12</title>
<path fill="none" stroke="midnightblue" d="M595.34,-129C585.9,-126.99 575.85,-124.89 566.5,-123 494.69,-108.5 411.7,-92.87 358,-82.9"/>
<polygon fill="midnightblue" stroke="midnightblue" points="358.46,-79.42 347.99,-81.04 357.19,-86.31 358.46,-79.42"/>
</g>
<!-- Node13 -->
<g id="node13" class="node">
<title>Node13</title>
<g id="a_node13"><a xlink:title=" ">
<polygon fill="white" stroke="#bfbfbf" points="431.5,-56.5 431.5,-86.5 531.5,-86.5 531.5,-56.5 431.5,-56.5"/>
<text text-anchor="start" x="439.5" y="-74.5" font-family="Helvetica,sans-Serif" font-size="10.00">gradido_blockchain</text>
<text text-anchor="middle" x="481.5" y="-63.5" font-family="Helvetica,sans-Serif" font-size="10.00">/lib/DRHashList.h</text>
</a>
</g>
</g>
<!-- Node11&#45;&gt;Node13 -->
<g id="edge14" class="edge">
<title>Node11&#45;&gt;Node13</title>
<path fill="none" stroke="midnightblue" d="M614.18,-128.87C591.22,-119.12 553.22,-102.97 523.76,-90.45"/>
<polygon fill="midnightblue" stroke="midnightblue" points="525.09,-87.22 514.52,-86.53 522.36,-93.66 525.09,-87.22"/>
</g>
<!-- Node14 -->
<g id="node14" class="node">
<title>Node14</title>
<g id="a_node14"><a xlink:title=" ">
<polygon fill="white" stroke="#bfbfbf" points="550,-62 550,-81 621,-81 621,-62 550,-62"/>
<text text-anchor="middle" x="585.5" y="-69" font-family="Helvetica,sans-Serif" font-size="10.00">Poco/Path.h</text>
</a>
</g>
</g>
<!-- Node11&#45;&gt;Node14 -->
<g id="edge15" class="edge">
<title>Node11&#45;&gt;Node14</title>
<path fill="none" stroke="midnightblue" d="M627.89,-128.73C620.32,-118.7 607.75,-102.01 598.26,-89.42"/>
<polygon fill="midnightblue" stroke="midnightblue" points="600.82,-87.01 592,-81.13 595.23,-91.22 600.82,-87.01"/>
</g>
<!-- Node15 -->
<g id="node15" class="node">
<title>Node15</title>
<g id="a_node15"><a xlink:href="_controller_base_8h.html" target="_top" xlink:title=" ">
<polygon fill="white" stroke="black" points="639,-62 639,-81 728,-81 728,-62 639,-62"/>
<text text-anchor="middle" x="683.5" y="-69" font-family="Helvetica,sans-Serif" font-size="10.00">ControllerBase.h</text>
</a>
</g>
</g>
<!-- Node11&#45;&gt;Node15 -->
<g id="edge16" class="edge">
<title>Node11&#45;&gt;Node15</title>
<path fill="none" stroke="midnightblue" d="M641.11,-128.73C648.68,-118.7 661.25,-102.01 670.74,-89.42"/>
<polygon fill="midnightblue" stroke="midnightblue" points="673.77,-91.22 677,-81.13 668.18,-87.01 673.77,-91.22"/>
</g>
<!-- Node17 -->
<g id="node17" class="node">
<title>Node17</title>
<g id="a_node17"><a xlink:title=" ">
<polygon fill="white" stroke="#bfbfbf" points="746,-62 746,-81 829,-81 829,-62 746,-62"/>
<text text-anchor="middle" x="787.5" y="-69" font-family="Helvetica,sans-Serif" font-size="10.00">unordered_map</text>
</a>
</g>
</g>
<!-- Node11&#45;&gt;Node17 -->
<g id="edge18" class="edge">
<title>Node11&#45;&gt;Node17</title>
<path fill="none" stroke="midnightblue" d="M654.82,-128.87C681.22,-117.65 727.53,-97.98 757.86,-85.09"/>
<polygon fill="midnightblue" stroke="midnightblue" points="759.26,-88.3 767.1,-81.17 756.53,-81.86 759.26,-88.3"/>
</g>
<!-- Node12&#45;&gt;Node5 -->
<g id="edge13" class="edge">
<title>Node12&#45;&gt;Node5</title>
<path fill="none" stroke="midnightblue" d="M288.18,-61.98C273.12,-52.34 248.38,-36.52 230.46,-25.05"/>
<polygon fill="midnightblue" stroke="midnightblue" points="232.11,-21.95 221.8,-19.51 228.34,-27.85 232.11,-21.95"/>
</g>
<!-- Node16 -->
<g id="node16" class="node">
<title>Node16</title>
<g id="a_node16"><a xlink:title=" ">
<polygon fill="white" stroke="#bfbfbf" points="645,-0.5 645,-19.5 722,-19.5 722,-0.5 645,-0.5"/>
<text text-anchor="middle" x="683.5" y="-7.5" font-family="Helvetica,sans-Serif" font-size="10.00">Poco/Mutex.h</text>
</a>
</g>
</g>
<!-- Node15&#45;&gt;Node16 -->
<g id="edge17" class="edge">
<title>Node15&#45;&gt;Node16</title>
<path fill="none" stroke="midnightblue" d="M683.5,-61.98C683.5,-53.58 683.5,-40.48 683.5,-29.66"/>
<polygon fill="midnightblue" stroke="midnightblue" points="687,-29.51 683.5,-19.51 680,-29.51 687,-29.51"/>
</g>
</g>
</svg>
        <g id="navigator" transform="translate(0 0)" fill="#404254">
                <rect fill="#f2f5e9" fill-opacity="0.5" stroke="#606060" stroke-width=".5" x="0" y="0" width="60" height="60"/>
                <use id="zoomplus" xlink:href="#zoomPlus" x="17" y="9" onmousedown="handleZoom(evt,'in')"/>
                <use id="zoomminus" xlink:href="#zoomMin" x="42" y="9" onmousedown="handleZoom(evt,'out')"/>
                <use id="reset" xlink:href="#resetDef" x="30" y="36" onmousedown="handleReset()"/>
                <g id="arrowUp" xlink:href="#dirArrow" transform="translate(30 24)" onmousedown="handlePan(0,-1)">
                  <use xlink:href="#rim" fill="#404040">
                        <set attributeName="fill" to="#808080" begin="arrowUp.mouseover" end="arrowUp.mouseout"/>
                  </use>
                  <path fill="none" stroke="white" stroke-width="1.5" d="M0,-3.0v7 M-2.5,-0.5L0,-3.0L2.5,-0.5"/>
                </g>
                <g id="arrowRight" xlink:href="#dirArrow" transform="rotate(90) translate(36 -43)" onmousedown="handlePan(1,0)">
                  <use xlink:href="#rim" fill="#404040">
                        <set attributeName="fill" to="#808080" begin="arrowRight.mouseover" end="arrowRight.mouseout"/>
                  </use>
                  <path fill="none" stroke="white" stroke-width="1.5" d="M0,-3.0v7 M-2.5,-0.5L0,-3.0L2.5,-0.5"/>
                </g>
                <g id="arrowDown" xlink:href="#dirArrow" transform="rotate(180) translate(-30 -48)" onmousedown="handlePan(0,1)">
                  <use xlink:href="#rim" fill="#404040">
                        <set attributeName="fill" to="#808080" begin="arrowDown.mouseover" end="arrowDown.mouseout"/>
                  </use>
                  <path fill="none" stroke="white" stroke-width="1.5" d="M0,-3.0v7 M-2.5,-0.5L0,-3.0L2.5,-0.5"/>
                </g>
                <g id="arrowLeft" xlink:href="#dirArrow" transform="rotate(270) translate(-36 17)" onmousedown="handlePan(-1,0)">
                  <use xlink:href="#rim" fill="#404040">
                        <set attributeName="fill" to="#808080" begin="arrowLeft.mouseover" end="arrowLeft.mouseout"/>
                  </use>
                  <path fill="none" stroke="white" stroke-width="1.5" d="M0,-3.0v7 M-2.5,-0.5L0,-3.0L2.5,-0.5"/>
                </g>
        </g>
        <svg viewBox="0 0 15 15" width="100%" height="30px" preserveAspectRatio="xMaxYMin meet">
         <g id="arrow_out" transform="scale(0.3 0.3)">
          <a xlink:href="_c_p_u_task_8cpp__incl_org.svg" target="_base">
           <rect id="button" ry="5" rx="5" y="6" x="6" height="38" width="38"
                fill="#f2f5e9" fill-opacity="0.5" stroke="#606060" stroke-width="1.0"/>
           <path id="arrow"
             d="M 11.500037,31.436501 C 11.940474,20.09759 22.043105,11.32322 32.158766,21.979434 L 37.068811,17.246167 C 37.068811,17.246167 37.088388,32 37.088388,32 L 22.160133,31.978069 C 22.160133,31.978069 26.997745,27.140456 26.997745,27.140456 C 18.528582,18.264221 13.291696,25.230495 11.500037,31.436501 z"
             style="fill:#404040;"/>
          </a>
         </g>
        </svg>
</svg>
