<?xml version="1.0" encoding="UTF-8" standalone="no"?>
<!DOCTYPE svg PUBLIC "-//W3C//DTD SVG 1.1//EN"
 "http://www.w3.org/Graphics/SVG/1.1/DTD/svg11.dtd">
<!-- Generated by graphviz version 2.50.0 (20211204.2007)
 -->
<!-- Title: src/task/CPUTask.h Pages: 1 -->
<svg width="1360pt" height="218pt"
 viewBox="0.00 0.00 1359.50 218.00" xmlns="http://www.w3.org/2000/svg" xmlns:xlink="http://www.w3.org/1999/xlink">
<g id="graph0" class="graph" transform="scale(1 1) rotate(0) translate(4 214)">
<title>src/task/CPUTask.h</title>
<polygon fill="white" stroke="transparent" points="-4,4 -4,-214 1355.5,-214 1355.5,4 -4,4"/>
<!-- Node1 -->
<g id="node1" class="node">
<title>Node1</title>
<g id="a_node1"><a xlink:title=" ">
<polygon fill="#bfbfbf" stroke="black" points="844.5,-190.5 844.5,-209.5 948.5,-209.5 948.5,-190.5 844.5,-190.5"/>
<text text-anchor="middle" x="896.5" y="-197.5" font-family="Helvetica,sans-Serif" font-size="10.00">src/task/CPUTask.h</text>
</a>
</g>
</g>
<!-- Node2 -->
<g id="node2" class="node">
<title>Node2</title>
<g id="a_node2"><a xlink:href="_message_validator_8h.html" target="_top" xlink:title=" ">
<polygon fill="white" stroke="black" points="343.5,-134.5 343.5,-153.5 481.5,-153.5 481.5,-134.5 343.5,-134.5"/>
<text text-anchor="middle" x="412.5" y="-141.5" font-family="Helvetica,sans-Serif" font-size="10.00">src/iota/MessageValidator.h</text>
</a>
</g>
</g>
<!-- Node1&#45;&gt;Node2 -->
<g id="edge1" class="edge">
<title>Node1&#45;&gt;Node2</title>
<path fill="none" stroke="midnightblue" d="M834.11,-192.04C743.47,-181.93 575.9,-163.23 481.61,-152.71"/>
<polygon fill="midnightblue" stroke="midnightblue" points="833.92,-195.54 844.24,-193.17 834.69,-188.58 833.92,-195.54"/>
</g>
<!-- Node9 -->
<g id="node9" class="node">
<title>Node9</title>
<g id="a_node9"><a xlink:href="model_2files_2_block_8h.html" target="_top" xlink:title=" ">
<polygon fill="white" stroke="black" points="838.5,-134.5 838.5,-153.5 954.5,-153.5 954.5,-134.5 838.5,-134.5"/>
<text text-anchor="middle" x="896.5" y="-141.5" font-family="Helvetica,sans-Serif" font-size="10.00">src/model/files/Block.h</text>
</a>
</g>
</g>
<!-- Node1&#45;&gt;Node9 -->
<g id="edge9" class="edge">
<title>Node1&#45;&gt;Node9</title>
<path fill="none" stroke="midnightblue" d="M896.5,-179.8C896.5,-170.91 896.5,-160.78 896.5,-153.75"/>
<polygon fill="midnightblue" stroke="midnightblue" points="893,-180.08 896.5,-190.08 900,-180.08 893,-180.08"/>
</g>
<!-- Node14 -->
<g id="node14" class="node">
<title>Node14</title>
<g id="a_node14"><a xlink:href="_write_transactions_to_block_task_8h.html" target="_top" xlink:title=" ">
<polygon fill="white" stroke="black" points="1045.5,-67.5 1045.5,-97.5 1179.5,-97.5 1179.5,-67.5 1045.5,-67.5"/>
<text text-anchor="start" x="1053.5" y="-85.5" font-family="Helvetica,sans-Serif" font-size="10.00">src/task/WriteTransactions</text>
<text text-anchor="middle" x="1112.5" y="-74.5" font-family="Helvetica,sans-Serif" font-size="10.00">ToBlockTask.h</text>
</a>
</g>
</g>
<!-- Node1&#45;&gt;Node14 -->
<g id="edge21" class="edge">
<title>Node1&#45;&gt;Node14</title>
<path fill="none" stroke="midnightblue" d="M917.53,-184.87C938.4,-171.12 971.52,-150.02 1001.5,-134 1026.71,-120.53 1056.2,-107.23 1078.44,-97.65"/>
<polygon fill="midnightblue" stroke="midnightblue" points="915.52,-182.01 909.12,-190.46 919.39,-187.84 915.52,-182.01"/>
</g>
<!-- Node17 -->
<g id="node17" class="node">
<title>Node17</title>
<g id="a_node17"><a xlink:href="_c_p_u_task_8cpp.html" target="_top" xlink:title=" ">
<polygon fill="white" stroke="black" points="1011,-134.5 1011,-153.5 1126,-153.5 1126,-134.5 1011,-134.5"/>
<text text-anchor="middle" x="1068.5" y="-141.5" font-family="Helvetica,sans-Serif" font-size="10.00">src/task/CPUTask.cpp</text>
</a>
</g>
</g>
<!-- Node1&#45;&gt;Node17 -->
<g id="edge17" class="edge">
<title>Node1&#45;&gt;Node17</title>
<path fill="none" stroke="midnightblue" d="M933.33,-187.44C965.76,-177.26 1012.24,-162.66 1041.37,-153.52"/>
<polygon fill="midnightblue" stroke="midnightblue" points="932.25,-184.11 923.75,-190.44 934.34,-190.79 932.25,-184.11"/>
</g>
<!-- Node18 -->
<g id="node18" class="node">
<title>Node18</title>
<g id="a_node18"><a xlink:href="_iota_message_to_transaction_task_8h.html" target="_top" xlink:title=" ">
<polygon fill="white" stroke="black" points="167,-67.5 167,-97.5 338,-97.5 338,-67.5 167,-67.5"/>
<text text-anchor="start" x="175" y="-85.5" font-family="Helvetica,sans-Serif" font-size="10.00">src/task/IotaMessageToTransaction</text>
<text text-anchor="middle" x="252.5" y="-74.5" font-family="Helvetica,sans-Serif" font-size="10.00">Task.h</text>
</a>
</g>
</g>
<!-- Node1&#45;&gt;Node18 -->
<g id="edge18" class="edge">
<title>Node1&#45;&gt;Node18</title>
<path fill="none" stroke="midnightblue" d="M838.8,-188.65C722.94,-167.87 461.93,-121.06 330.8,-97.54"/>
<polygon fill="midnightblue" stroke="midnightblue" points="838.42,-192.14 848.88,-190.46 839.66,-185.25 838.42,-192.14"/>
</g>
<!-- Node3 -->
<g id="node3" class="node">
<title>Node3</title>
<g id="a_node3"><a xlink:href="_ordering_manager_8h.html" target="_top" xlink:title=" ">
<polygon fill="white" stroke="black" points="357,-67.5 357,-97.5 468,-97.5 468,-67.5 357,-67.5"/>
<text text-anchor="start" x="365" y="-85.5" font-family="Helvetica,sans-Serif" font-size="10.00">src/SingletonManager</text>
<text text-anchor="middle" x="412.5" y="-74.5" font-family="Helvetica,sans-Serif" font-size="10.00">/OrderingManager.h</text>
</a>
</g>
</g>
<!-- Node2&#45;&gt;Node3 -->
<g id="edge2" class="edge">
<title>Node2&#45;&gt;Node3</title>
<path fill="none" stroke="midnightblue" d="M412.5,-124.23C412.5,-115.59 412.5,-105.5 412.5,-97.52"/>
<polygon fill="midnightblue" stroke="midnightblue" points="409,-124.48 412.5,-134.48 416,-124.48 409,-124.48"/>
</g>
<!-- Node7 -->
<g id="node7" class="node">
<title>Node7</title>
<g id="a_node7"><a xlink:href="_message_validator_8cpp.html" target="_top" xlink:title=" ">
<polygon fill="white" stroke="black" points="0,-6 0,-25 149,-25 149,-6 0,-6"/>
<text text-anchor="middle" x="74.5" y="-13" font-family="Helvetica,sans-Serif" font-size="10.00">src/iota/MessageValidator.cpp</text>
</a>
</g>
</g>
<!-- Node2&#45;&gt;Node7 -->
<g id="edge8" class="edge">
<title>Node2&#45;&gt;Node7</title>
<path fill="none" stroke="midnightblue" d="M333.24,-141.09C280.84,-137 212.02,-126.07 157.5,-98 122.49,-79.97 92.66,-42.12 80.43,-25.11"/>
<polygon fill="midnightblue" stroke="midnightblue" points="333.27,-144.6 343.49,-141.82 333.76,-137.62 333.27,-144.6"/>
</g>
<!-- Node4 -->
<g id="node4" class="node">
<title>Node4</title>
<g id="a_node4"><a xlink:href="_main_server_8cpp.html" target="_top" xlink:title=" ">
<polygon fill="white" stroke="black" points="650.5,-6 650.5,-25 750.5,-25 750.5,-6 650.5,-6"/>
<text text-anchor="middle" x="700.5" y="-13" font-family="Helvetica,sans-Serif" font-size="10.00">src/MainServer.cpp</text>
</a>
</g>
</g>
<!-- Node3&#45;&gt;Node4 -->
<g id="edge3" class="edge">
<title>Node3&#45;&gt;Node4</title>
<path fill="none" stroke="midnightblue" d="M478.37,-67.26C523.94,-57.32 585.97,-43.63 640.5,-31 648.64,-29.11 657.39,-27.03 665.63,-25.05"/>
<polygon fill="midnightblue" stroke="midnightblue" points="477.35,-63.9 468.32,-69.45 478.84,-70.74 477.35,-63.9"/>
</g>
<!-- Node5 -->
<g id="node5" class="node">
<title>Node5</title>
<g id="a_node5"><a xlink:href="_ordering_manager_8cpp.html" target="_top" xlink:title=" ">
<polygon fill="white" stroke="black" points="356,-0.5 356,-30.5 469,-30.5 469,-0.5 356,-0.5"/>
<text text-anchor="start" x="364" y="-18.5" font-family="Helvetica,sans-Serif" font-size="10.00">src/SingletonManager</text>
<text text-anchor="middle" x="412.5" y="-7.5" font-family="Helvetica,sans-Serif" font-size="10.00">/OrderingManager.cpp</text>
</a>
</g>
</g>
<!-- Node3&#45;&gt;Node5 -->
<g id="edge4" class="edge">
<title>Node3&#45;&gt;Node5</title>
<path fill="none" stroke="midnightblue" d="M412.5,-57.11C412.5,-48.15 412.5,-38.32 412.5,-30.58"/>
<polygon fill="midnightblue" stroke="midnightblue" points="409,-57.4 412.5,-67.4 416,-57.4 409,-57.4"/>
</g>
<!-- Node6 -->
<g id="node6" class="node">
<title>Node6</title>
<g id="a_node6"><a xlink:href="_message_listener_8cpp.html" target="_top" xlink:title=" ">
<polygon fill="white" stroke="black" points="487,-6 487,-25 632,-25 632,-6 487,-6"/>
<text text-anchor="middle" x="559.5" y="-13" font-family="Helvetica,sans-Serif" font-size="10.00">src/iota/MessageListener.cpp</text>
</a>
</g>
</g>
<!-- Node3&#45;&gt;Node6 -->
<g id="edge5" class="edge">
<title>Node3&#45;&gt;Node6</title>
<path fill="none" stroke="midnightblue" d="M453.67,-63.3C482.02,-50.76 518.38,-34.68 540.26,-25.01"/>
<polygon fill="midnightblue" stroke="midnightblue" points="452.13,-60.15 444.4,-67.4 454.96,-66.55 452.13,-60.15"/>
</g>
<!-- Node3&#45;&gt;Node7 -->
<g id="edge6" class="edge">
<title>Node3&#45;&gt;Node7</title>
<path fill="none" stroke="midnightblue" d="M346.81,-67.06C346.71,-67.04 346.6,-67.02 346.5,-67 268.59,-51.21 177.74,-34.73 123.24,-25.05"/>
<polygon fill="midnightblue" stroke="midnightblue" points="346.21,-70.51 356.71,-69.11 347.63,-63.66 346.21,-70.51"/>
</g>
<!-- Node8 -->
<g id="node8" class="node">
<title>Node8</title>
<g id="a_node8"><a xlink:href="_iota_message_to_transaction_task_8cpp.html" target="_top" xlink:title=" ">
<polygon fill="white" stroke="black" points="167,-0.5 167,-30.5 338,-30.5 338,-0.5 167,-0.5"/>
<text text-anchor="start" x="175" y="-18.5" font-family="Helvetica,sans-Serif" font-size="10.00">src/task/IotaMessageToTransaction</text>
<text text-anchor="middle" x="252.5" y="-7.5" font-family="Helvetica,sans-Serif" font-size="10.00">Task.cpp</text>
</a>
</g>
</g>
<!-- Node3&#45;&gt;Node8 -->
<g id="edge7" class="edge">
<title>Node3&#45;&gt;Node8</title>
<path fill="none" stroke="midnightblue" d="M368.3,-63.54C342.7,-53.14 310.93,-40.24 287.15,-30.58"/>
<polygon fill="midnightblue" stroke="midnightblue" points="367.2,-66.87 377.78,-67.4 369.84,-60.39 367.2,-66.87"/>
</g>
<!-- Node10 -->
<g id="node10" class="node">
<title>Node10</title>
<g id="a_node10"><a xlink:href="controller_2_block_8h.html" target="_top" xlink:title=" ">
<polygon fill="white" stroke="black" points="774,-73 774,-92 883,-92 883,-73 774,-73"/>
<text text-anchor="middle" x="828.5" y="-80" font-family="Helvetica,sans-Serif" font-size="10.00">src/controller/Block.h</text>
</a>
</g>
</g>
<!-- Node9&#45;&gt;Node10 -->
<g id="edge10" class="edge">
<title>Node9&#45;&gt;Node10</title>
<path fill="none" stroke="midnightblue" d="M878.96,-127.65C865.99,-116.31 848.82,-101.28 838.22,-92.01"/>
<polygon fill="midnightblue" stroke="midnightblue" points="876.93,-130.52 886.76,-134.48 881.54,-125.26 876.93,-130.52"/>
</g>
<!-- Node13 -->
<g id="node13" class="node">
<title>Node13</title>
<g id="a_node13"><a xlink:href="model_2files_2_block_8cpp.html" target="_top" xlink:title=" ">
<polygon fill="white" stroke="black" points="901.5,-73 901.5,-92 1027.5,-92 1027.5,-73 901.5,-73"/>
<text text-anchor="middle" x="964.5" y="-80" font-family="Helvetica,sans-Serif" font-size="10.00">src/model/files/Block.cpp</text>
</a>
</g>
</g>
<!-- Node9&#45;&gt;Node13 -->
<g id="edge13" class="edge">
<title>Node9&#45;&gt;Node13</title>
<path fill="none" stroke="midnightblue" d="M914.04,-127.65C927.01,-116.31 944.18,-101.28 954.78,-92.01"/>
<polygon fill="midnightblue" stroke="midnightblue" points="911.46,-125.26 906.24,-134.48 916.07,-130.52 911.46,-125.26"/>
</g>
<!-- Node9&#45;&gt;Node14 -->
<g id="edge14" class="edge">
<title>Node9&#45;&gt;Node14</title>
<path fill="none" stroke="midnightblue" d="M937.4,-131.73C972.65,-122.02 1023.7,-107.96 1061.59,-97.52"/>
<polygon fill="midnightblue" stroke="midnightblue" points="936.16,-128.44 927.45,-134.48 938.02,-135.19 936.16,-128.44"/>
</g>
<!-- Node11 -->
<g id="node11" class="node">
<title>Node11</title>
<g id="a_node11"><a xlink:href="controller_2_block_8cpp.html" target="_top" xlink:title=" ">
<polygon fill="white" stroke="black" points="908,-6 908,-25 1027,-25 1027,-6 908,-6"/>
<text text-anchor="middle" x="967.5" y="-13" font-family="Helvetica,sans-Serif" font-size="10.00">src/controller/Block.cpp</text>
</a>
</g>
</g>
<!-- Node10&#45;&gt;Node11 -->
<g id="edge11" class="edge">
<title>Node10&#45;&gt;Node11</title>
<path fill="none" stroke="midnightblue" d="M856.06,-68.61C883.59,-55.74 925.15,-36.31 948.97,-25.17"/>
<polygon fill="midnightblue" stroke="midnightblue" points="854.53,-65.46 846.96,-72.87 857.5,-71.8 854.53,-65.46"/>
</g>
<!-- Node12 -->
<g id="node12" class="node">
<title>Node12</title>
<g id="a_node12"><a xlink:href="_group_8cpp.html" target="_top" xlink:title=" ">
<polygon fill="white" stroke="black" points="769,-6 769,-25 890,-25 890,-6 769,-6"/>
<text text-anchor="middle" x="829.5" y="-13" font-family="Helvetica,sans-Serif" font-size="10.00">src/controller/Group.cpp</text>
</a>
</g>
</g>
<!-- Node10&#45;&gt;Node12 -->
<g id="edge12" class="edge">
<title>Node10&#45;&gt;Node12</title>
<path fill="none" stroke="midnightblue" d="M828.79,-62.54C828.98,-50.17 829.22,-34.62 829.37,-25.13"/>
<polygon fill="midnightblue" stroke="midnightblue" points="825.29,-62.68 828.63,-72.73 832.29,-62.79 825.29,-62.68"/>
</g>
<!-- Node15 -->
<g id="node15" class="node">
<title>Node15</title>
<g id="a_node15"><a xlink:href="_task_observer_8cpp.html" target="_top" xlink:title=" ">
<polygon fill="white" stroke="black" points="1197.5,-6 1197.5,-25 1351.5,-25 1351.5,-6 1197.5,-6"/>
<text text-anchor="middle" x="1274.5" y="-13" font-family="Helvetica,sans-Serif" font-size="10.00">src/controller/TaskObserver.cpp</text>
</a>
</g>
</g>
<!-- Node14&#45;&gt;Node15 -->
<g id="edge15" class="edge">
<title>Node14&#45;&gt;Node15</title>
<path fill="none" stroke="midnightblue" d="M1157.06,-63.62C1188.42,-51.04 1228.98,-34.77 1253.3,-25.01"/>
<polygon fill="midnightblue" stroke="midnightblue" points="1155.63,-60.42 1147.65,-67.4 1158.24,-66.92 1155.63,-60.42"/>
</g>
<!-- Node16 -->
<g id="node16" class="node">
<title>Node16</title>
<g id="a_node16"><a xlink:href="_write_transactions_to_block_task_8cpp.html" target="_top" xlink:title=" ">
<polygon fill="white" stroke="black" points="1045.5,-0.5 1045.5,-30.5 1179.5,-30.5 1179.5,-0.5 1045.5,-0.5"/>
<text text-anchor="start" x="1053.5" y="-18.5" font-family="Helvetica,sans-Serif" font-size="10.00">src/task/WriteTransactions</text>
<text text-anchor="middle" x="1112.5" y="-7.5" font-family="Helvetica,sans-Serif" font-size="10.00">ToBlockTask.cpp</text>
</a>
</g>
</g>
<!-- Node14&#45;&gt;Node16 -->
<g id="edge16" class="edge">
<title>Node14&#45;&gt;Node16</title>
<path fill="none" stroke="midnightblue" d="M1112.5,-57.11C1112.5,-48.15 1112.5,-38.32 1112.5,-30.58"/>
<polygon fill="midnightblue" stroke="midnightblue" points="1109,-57.4 1112.5,-67.4 1116,-57.4 1109,-57.4"/>
</g>
<!-- Node18&#45;&gt;Node7 -->
<g id="edge19" class="edge">
<title>Node18&#45;&gt;Node7</title>
<path fill="none" stroke="midnightblue" d="M204.43,-63.95C169.86,-51.32 124.75,-34.85 97.8,-25.01"/>
<polygon fill="midnightblue" stroke="midnightblue" points="203.28,-67.25 213.88,-67.4 205.68,-60.68 203.28,-67.25"/>
</g>
<!-- Node18&#45;&gt;Node8 -->
<g id="edge20" class="edge">
<title>Node18&#45;&gt;Node8</title>
<path fill="none" stroke="midnightblue" d="M252.5,-57.11C252.5,-48.15 252.5,-38.32 252.5,-30.58"/>
<polygon fill="midnightblue" stroke="midnightblue" points="249,-57.4 252.5,-67.4 256,-57.4 249,-57.4"/>
</g>
</g>
</svg>
