<?xml version="1.0" encoding="UTF-8" standalone="no"?>
<!DOCTYPE svg PUBLIC "-//W3C//DTD SVG 1.1//EN"
 "http://www.w3.org/Graphics/SVG/1.1/DTD/svg11.dtd">
<!-- Generated by graphviz version 2.50.0 (20211204.2007)
 -->
<!-- Title: src/task/CPUSheduler.h Pages: 1 -->
<!--zoomable 151 -->
<svg id="main" version="1.1" xmlns="http://www.w3.org/2000/svg" xmlns:xlink="http://www.w3.org/1999/xlink" xml:space="preserve" onload="init(evt)">
<style type="text/css"><![CDATA[
.edge:hover path { stroke: red; }
.edge:hover polygon { stroke: red; fill: red; }
]]></style>
<script type="text/javascript"><![CDATA[
var edges = document.getElementsByTagName('g');
if (edges && edges.length) {
  for (var i=0;i<edges.length;i++) {
    if (edges[i].id.substr(0,4)=='edge') {
      edges[i].setAttribute('class','edge');
    }
  }
}
]]></script>
        <defs>
                <circle id="rim" cx="0" cy="0" r="7"/>
                <circle id="rim2" cx="0" cy="0" r="3.5"/>
                <g id="zoomPlus">
                        <use xlink:href="#rim" fill="#404040">
                                <set attributeName="fill" to="#808080" begin="zoomplus.mouseover" end="zoomplus.mouseout"/>
                        </use>
                        <path d="M-4,0h8M0,-4v8" fill="none" stroke="white" stroke-width="1.5" pointer-events="none"/>
                </g>
                <g id="zoomMin">
                        <use xlink:href="#rim" fill="#404040">
                                <set attributeName="fill" to="#808080" begin="zoomminus.mouseover" end="zoomminus.mouseout"/>
                        </use>
                        <path d="M-4,0h8" fill="none" stroke="white" stroke-width="1.5" pointer-events="none"/>
                </g>
                <g id="dirArrow">
                        <path fill="none" stroke="white" stroke-width="1.5" d="M0,-3.0v7 M-2.5,-0.5L0,-3.0L2.5,-0.5"/>
                </g>
               <g id="resetDef">
                       <use xlink:href="#rim2" fill="#404040">
                               <set attributeName="fill" to="#808080" begin="reset.mouseover" end="reset.mouseout"/>
                       </use>
               </g>
        </defs>

<script type="text/javascript">
var viewWidth = 1973;
var viewHeight = 151;
var sectionId = 'dynsection-0';
</script>
<script xlink:href="svgpan.js"/>
<svg id="graph" class="graph">
<g id="viewport">
<title>src/task/CPUSheduler.h</title>
<polygon fill="white" stroke="transparent" points="-4,4 -4,-147 1968.5,-147 1968.5,4 -4,4"/>
<!-- Node1 -->
<g id="node1" class="node">
<title>Node1</title>
<g id="a_node1"><a xlink:title=" ">
<polygon fill="#bfbfbf" stroke="black" points="1505,-123.5 1505,-142.5 1627,-142.5 1627,-123.5 1505,-123.5"/>
<text text-anchor="middle" x="1566" y="-130.5" font-family="Helvetica,sans-Serif" font-size="10.00">src/task/CPUSheduler.h</text>
</a>
</g>
</g>
<!-- Node2 -->
<g id="node2" class="node">
<title>Node2</title>
<g id="a_node2"><a xlink:href="_server_globals_8h.html" target="_top" xlink:title=" ">
<polygon fill="white" stroke="black" points="1001.5,-67.5 1001.5,-86.5 1102.5,-86.5 1102.5,-67.5 1001.5,-67.5"/>
<text text-anchor="middle" x="1052" y="-74.5" font-family="Helvetica,sans-Serif" font-size="10.00">src/ServerGlobals.h</text>
</a>
</g>
</g>
<!-- Node1&#45;&gt;Node2 -->
<g id="edge1" class="edge">
<title>Node1&#45;&gt;Node2</title>
<path fill="none" stroke="midnightblue" d="M1494.55,-124.49C1389.22,-113.43 1194.85,-93.01 1102.84,-83.34"/>
<polygon fill="midnightblue" stroke="midnightblue" points="1494.45,-128 1504.76,-125.57 1495.19,-121.04 1494.45,-128"/>
</g>
<!-- Node15 -->
<g id="node15" class="node">
<title>Node15</title>
<g id="a_node15"><a xlink:href="_c_p_u_task_8cpp.html" target="_top" xlink:title=" ">
<polygon fill="white" stroke="black" points="1849.5,-6 1849.5,-25 1964.5,-25 1964.5,-6 1849.5,-6"/>
<text text-anchor="middle" x="1907" y="-13" font-family="Helvetica,sans-Serif" font-size="10.00">src/task/CPUTask.cpp</text>
</a>
</g>
</g>
<!-- Node1&#45;&gt;Node15 -->
<g id="edge18" class="edge">
<title>Node1&#45;&gt;Node15</title>
<path fill="none" stroke="midnightblue" d="M1550.18,-115.95C1538.09,-101.75 1525.45,-81.13 1538,-67 1582.87,-16.46 1773.34,-42.16 1840,-31 1849.98,-29.33 1860.72,-27.17 1870.61,-25.03"/>
<polygon fill="midnightblue" stroke="midnightblue" points="1547.72,-118.45 1557.04,-123.48 1552.89,-113.73 1547.72,-118.45"/>
</g>
<!-- Node17 -->
<g id="node17" class="node">
<title>Node17</title>
<g id="a_node17"><a xlink:href="_c_p_u_sheduler_8cpp.html" target="_top" xlink:title=" ">
<polygon fill="white" stroke="black" points="1547,-67.5 1547,-86.5 1679,-86.5 1679,-67.5 1547,-67.5"/>
<text text-anchor="middle" x="1613" y="-74.5" font-family="Helvetica,sans-Serif" font-size="10.00">src/task/CPUSheduler.cpp</text>
</a>
</g>
</g>
<!-- Node1&#45;&gt;Node17 -->
<g id="edge16" class="edge">
<title>Node1&#45;&gt;Node17</title>
<path fill="none" stroke="midnightblue" d="M1580.42,-115.43C1588.66,-105.97 1598.65,-94.48 1605.38,-86.75"/>
<polygon fill="midnightblue" stroke="midnightblue" points="1577.69,-113.24 1573.76,-123.08 1582.97,-117.84 1577.69,-113.24"/>
</g>
<!-- Node18 -->
<g id="node18" class="node">
<title>Node18</title>
<g id="a_node18"><a xlink:href="_c_p_u_sheduler_thread_8cpp.html" target="_top" xlink:title=" ">
<polygon fill="white" stroke="black" points="1697.5,-67.5 1697.5,-86.5 1858.5,-86.5 1858.5,-67.5 1697.5,-67.5"/>
<text text-anchor="middle" x="1778" y="-74.5" font-family="Helvetica,sans-Serif" font-size="10.00">src/task/CPUShedulerThread.cpp</text>
</a>
</g>
</g>
<!-- Node1&#45;&gt;Node18 -->
<g id="edge17" class="edge">
<title>Node1&#45;&gt;Node18</title>
<path fill="none" stroke="midnightblue" d="M1609.35,-120.96C1649.39,-110.76 1708.03,-95.82 1744.57,-86.52"/>
<polygon fill="midnightblue" stroke="midnightblue" points="1608.42,-117.58 1599.59,-123.44 1610.15,-124.37 1608.42,-117.58"/>
</g>
<!-- Node3 -->
<g id="node3" class="node">
<title>Node3</title>
<g id="a_node3"><a xlink:href="_main_server_8cpp.html" target="_top" xlink:title=" ">
<polygon fill="white" stroke="black" points="0,-6 0,-25 100,-25 100,-6 0,-6"/>
<text text-anchor="middle" x="50" y="-13" font-family="Helvetica,sans-Serif" font-size="10.00">src/MainServer.cpp</text>
</a>
</g>
</g>
<!-- Node2&#45;&gt;Node3 -->
<g id="edge2" class="edge">
<title>Node2&#45;&gt;Node3</title>
<path fill="none" stroke="midnightblue" d="M991.39,-74.64C811.15,-70.35 280.34,-55.9 109,-31 99.4,-29.6 89.08,-27.34 79.79,-25.01"/>
<polygon fill="midnightblue" stroke="midnightblue" points="991.41,-78.14 1001.49,-74.88 991.58,-71.14 991.41,-78.14"/>
</g>
<!-- Node4 -->
<g id="node4" class="node">
<title>Node4</title>
<g id="a_node4"><a xlink:href="_server_globals_8cpp.html" target="_top" xlink:title=" ">
<polygon fill="white" stroke="black" points="118,-6 118,-25 230,-25 230,-6 118,-6"/>
<text text-anchor="middle" x="174" y="-13" font-family="Helvetica,sans-Serif" font-size="10.00">src/ServerGlobals.cpp</text>
</a>
</g>
</g>
<!-- Node2&#45;&gt;Node4 -->
<g id="edge3" class="edge">
<title>Node2&#45;&gt;Node4</title>
<path fill="none" stroke="midnightblue" d="M991.11,-76.03C855.4,-75.37 518.09,-69.59 239,-31 228.58,-29.56 217.35,-27.31 207.21,-25.01"/>
<polygon fill="midnightblue" stroke="midnightblue" points="991.28,-79.53 1001.3,-76.08 991.31,-72.53 991.28,-79.53"/>
</g>
<!-- Node5 -->
<g id="node5" class="node">
<title>Node5</title>
<g id="a_node5"><a xlink:href="_global_state_manager_8cpp.html" target="_top" xlink:title=" ">
<polygon fill="white" stroke="black" points="248.5,-0.5 248.5,-30.5 375.5,-30.5 375.5,-0.5 248.5,-0.5"/>
<text text-anchor="start" x="256.5" y="-18.5" font-family="Helvetica,sans-Serif" font-size="10.00">src/SingletonManager</text>
<text text-anchor="middle" x="312" y="-7.5" font-family="Helvetica,sans-Serif" font-size="10.00">/GlobalStateManager.cpp</text>
</a>
</g>
</g>
<!-- Node2&#45;&gt;Node5 -->
<g id="edge4" class="edge">
<title>Node2&#45;&gt;Node5</title>
<path fill="none" stroke="midnightblue" d="M991.25,-74.58C873.58,-71.24 606.55,-60.77 384,-31 381.22,-30.63 378.39,-30.21 375.53,-29.76"/>
<polygon fill="midnightblue" stroke="midnightblue" points="991.4,-78.08 1001.5,-74.86 991.6,-71.09 991.4,-78.08"/>
</g>
<!-- Node6 -->
<g id="node6" class="node">
<title>Node6</title>
<g id="a_node6"><a xlink:href="_group_manager_8cpp.html" target="_top" xlink:title=" ">
<polygon fill="white" stroke="black" points="393.5,-0.5 393.5,-30.5 504.5,-30.5 504.5,-0.5 393.5,-0.5"/>
<text text-anchor="start" x="401.5" y="-18.5" font-family="Helvetica,sans-Serif" font-size="10.00">src/SingletonManager</text>
<text text-anchor="middle" x="449" y="-7.5" font-family="Helvetica,sans-Serif" font-size="10.00">/GroupManager.cpp</text>
</a>
</g>
</g>
<!-- Node2&#45;&gt;Node6 -->
<g id="edge5" class="edge">
<title>Node2&#45;&gt;Node6</title>
<path fill="none" stroke="midnightblue" d="M991.07,-73.61C891.01,-69.07 685.82,-57.23 514,-31 510.91,-30.53 507.76,-30 504.58,-29.42"/>
<polygon fill="midnightblue" stroke="midnightblue" points="991.15,-77.11 1001.29,-74.06 991.46,-70.12 991.15,-77.11"/>
</g>
<!-- Node7 -->
<g id="node7" class="node">
<title>Node7</title>
<g id="a_node7"><a xlink:href="controller_2_address_index_8cpp.html" target="_top" xlink:title=" ">
<polygon fill="white" stroke="black" points="523,-6 523,-25 677,-25 677,-6 523,-6"/>
<text text-anchor="middle" x="600" y="-13" font-family="Helvetica,sans-Serif" font-size="10.00">src/controller/AddressIndex.cpp</text>
</a>
</g>
</g>
<!-- Node2&#45;&gt;Node7 -->
<g id="edge6" class="edge">
<title>Node2&#45;&gt;Node7</title>
<path fill="none" stroke="midnightblue" d="M990.94,-69.34C918.19,-61.2 793.03,-46.59 686,-31 673.71,-29.21 660.47,-27.08 648.15,-25.01"/>
<polygon fill="midnightblue" stroke="midnightblue" points="990.96,-72.86 1001.28,-70.49 991.73,-65.9 990.96,-72.86"/>
</g>
<!-- Node8 -->
<g id="node8" class="node">
<title>Node8</title>
<g id="a_node8"><a xlink:href="_group_8cpp.html" target="_top" xlink:title=" ">
<polygon fill="white" stroke="black" points="695.5,-6 695.5,-25 816.5,-25 816.5,-6 695.5,-6"/>
<text text-anchor="middle" x="756" y="-13" font-family="Helvetica,sans-Serif" font-size="10.00">src/controller/Group.cpp</text>
</a>
</g>
</g>
<!-- Node2&#45;&gt;Node8 -->
<g id="edge7" class="edge">
<title>Node2&#45;&gt;Node8</title>
<path fill="none" stroke="midnightblue" d="M998.65,-65.5C952.84,-56.45 885.05,-42.99 826,-31 816.63,-29.1 806.57,-27.03 797.08,-25.06"/>
<polygon fill="midnightblue" stroke="midnightblue" points="998.17,-68.97 1008.65,-67.47 999.52,-62.1 998.17,-68.97"/>
</g>
<!-- Node9 -->
<g id="node9" class="node">
<title>Node9</title>
<g id="a_node9"><a xlink:href="controller_2_group_index_8cpp.html" target="_top" xlink:title=" ">
<polygon fill="white" stroke="black" points="835,-6 835,-25 979,-25 979,-6 835,-6"/>
<text text-anchor="middle" x="907" y="-13" font-family="Helvetica,sans-Serif" font-size="10.00">src/controller/GroupIndex.cpp</text>
</a>
</g>
</g>
<!-- Node2&#45;&gt;Node9 -->
<g id="edge8" class="edge">
<title>Node2&#45;&gt;Node9</title>
<path fill="none" stroke="midnightblue" d="M1021.86,-63.63C993.69,-52.07 952.38,-35.12 927.74,-25.01"/>
<polygon fill="midnightblue" stroke="midnightblue" points="1020.64,-66.92 1031.23,-67.48 1023.3,-60.44 1020.64,-66.92"/>
</g>
<!-- Node10 -->
<g id="node10" class="node">
<title>Node10</title>
<g id="a_node10"><a xlink:href="_h_t_t_p_api_8cpp.html" target="_top" xlink:title=" ">
<polygon fill="white" stroke="black" points="997.5,-6 997.5,-25 1106.5,-25 1106.5,-6 997.5,-6"/>
<text text-anchor="middle" x="1052" y="-13" font-family="Helvetica,sans-Serif" font-size="10.00">src/iota/HTTPApi.cpp</text>
</a>
</g>
</g>
<!-- Node2&#45;&gt;Node10 -->
<g id="edge9" class="edge">
<title>Node2&#45;&gt;Node10</title>
<path fill="none" stroke="midnightblue" d="M1052,-57.32C1052,-46.5 1052,-33.4 1052,-25.01"/>
<polygon fill="midnightblue" stroke="midnightblue" points="1048.5,-57.48 1052,-67.48 1055.5,-57.48 1048.5,-57.48"/>
</g>
<!-- Node11 -->
<g id="node11" class="node">
<title>Node11</title>
<g id="a_node11"><a xlink:href="_message_validator_8cpp.html" target="_top" xlink:title=" ">
<polygon fill="white" stroke="black" points="1124.5,-6 1124.5,-25 1273.5,-25 1273.5,-6 1124.5,-6"/>
<text text-anchor="middle" x="1199" y="-13" font-family="Helvetica,sans-Serif" font-size="10.00">src/iota/MessageValidator.cpp</text>
</a>
</g>
</g>
<!-- Node2&#45;&gt;Node11 -->
<g id="edge10" class="edge">
<title>Node2&#45;&gt;Node11</title>
<path fill="none" stroke="midnightblue" d="M1082.56,-63.63C1111.12,-52.07 1153,-35.12 1177.98,-25.01"/>
<polygon fill="midnightblue" stroke="midnightblue" points="1081.02,-60.48 1073.06,-67.48 1083.64,-66.97 1081.02,-60.48"/>
</g>
<!-- Node12 -->
<g id="node12" class="node">
<title>Node12</title>
<g id="a_node12"><a xlink:href="main_8cpp.html" target="_top" xlink:title=" ">
<polygon fill="white" stroke="black" points="1291.5,-6 1291.5,-25 1364.5,-25 1364.5,-6 1291.5,-6"/>
<text text-anchor="middle" x="1328" y="-13" font-family="Helvetica,sans-Serif" font-size="10.00">src/main.cpp</text>
</a>
</g>
</g>
<!-- Node2&#45;&gt;Node12 -->
<g id="edge11" class="edge">
<title>Node2&#45;&gt;Node12</title>
<path fill="none" stroke="midnightblue" d="M1112.55,-66.07C1159.18,-57.96 1225.06,-45.5 1282,-31 1288.65,-29.31 1295.76,-27.21 1302.36,-25.14"/>
<polygon fill="midnightblue" stroke="midnightblue" points="1111.87,-62.63 1102.61,-67.78 1113.06,-69.53 1111.87,-62.63"/>
</g>
<!-- Node13 -->
<g id="node13" class="node">
<title>Node13</title>
<g id="a_node13"><a xlink:href="model_2files_2_block_8cpp.html" target="_top" xlink:title=" ">
<polygon fill="white" stroke="black" points="1383,-6 1383,-25 1509,-25 1509,-6 1383,-6"/>
<text text-anchor="middle" x="1446" y="-13" font-family="Helvetica,sans-Serif" font-size="10.00">src/model/files/Block.cpp</text>
</a>
</g>
</g>
<!-- Node2&#45;&gt;Node13 -->
<g id="edge12" class="edge">
<title>Node2&#45;&gt;Node13</title>
<path fill="none" stroke="midnightblue" d="M1112.75,-68.53C1177.42,-60.33 1282.68,-46.29 1373,-31 1383.45,-29.23 1394.69,-27.11 1405.15,-25.04"/>
<polygon fill="midnightblue" stroke="midnightblue" points="1112.21,-65.07 1102.73,-69.79 1113.09,-72.01 1112.21,-65.07"/>
</g>
<!-- Node14 -->
<g id="node14" class="node">
<title>Node14</title>
<g id="a_node14"><a xlink:href="model_2files_2_group_index_8cpp.html" target="_top" xlink:title=" ">
<polygon fill="white" stroke="black" points="1527.5,-6 1527.5,-25 1678.5,-25 1678.5,-6 1527.5,-6"/>
<text text-anchor="middle" x="1603" y="-13" font-family="Helvetica,sans-Serif" font-size="10.00">src/model/files/GroupIndex.cpp</text>
</a>
</g>
</g>
<!-- Node2&#45;&gt;Node14 -->
<g id="edge13" class="edge">
<title>Node2&#45;&gt;Node14</title>
<path fill="none" stroke="midnightblue" d="M1113.02,-71.53C1202.2,-64.68 1373.27,-50.31 1518,-31 1530.61,-29.32 1544.22,-27.15 1556.77,-25.01"/>
<polygon fill="midnightblue" stroke="midnightblue" points="1112.53,-68.06 1102.82,-72.31 1113.06,-75.04 1112.53,-68.06"/>
</g>
<!-- Node2&#45;&gt;Node15 -->
<g id="edge14" class="edge">
<title>Node2&#45;&gt;Node15</title>
<path fill="none" stroke="midnightblue" d="M1112.86,-75.75C1245.56,-74.5 1570.64,-67.61 1840,-31 1850.61,-29.56 1862.05,-27.34 1872.41,-25.06"/>
<polygon fill="midnightblue" stroke="midnightblue" points="1112.47,-72.25 1102.5,-75.84 1112.53,-79.25 1112.47,-72.25"/>
</g>
<!-- Node16 -->
<g id="node16" class="node">
<title>Node16</title>
<g id="a_node16"><a xlink:href="_write_transactions_to_block_task_8cpp.html" target="_top" xlink:title=" ">
<polygon fill="white" stroke="black" points="1697,-0.5 1697,-30.5 1831,-30.5 1831,-0.5 1697,-0.5"/>
<text text-anchor="start" x="1705" y="-18.5" font-family="Helvetica,sans-Serif" font-size="10.00">src/task/WriteTransactions</text>
<text text-anchor="middle" x="1764" y="-7.5" font-family="Helvetica,sans-Serif" font-size="10.00">ToBlockTask.cpp</text>
</a>
</g>
</g>
<!-- Node2&#45;&gt;Node16 -->
<g id="edge15" class="edge">
<title>Node2&#45;&gt;Node16</title>
<path fill="none" stroke="midnightblue" d="M1113.14,-74.07C1226.77,-69.96 1478.04,-58.36 1688,-31 1690.93,-30.62 1693.92,-30.19 1696.93,-29.74"/>
<polygon fill="midnightblue" stroke="midnightblue" points="1112.77,-70.58 1102.91,-74.44 1113.02,-77.58 1112.77,-70.58"/>
</g>
</g>
</svg>
        <g id="navigator" transform="translate(0 0)" fill="#404254">
                <rect fill="#f2f5e9" fill-opacity="0.5" stroke="#606060" stroke-width=".5" x="0" y="0" width="60" height="60"/>
                <use id="zoomplus" xlink:href="#zoomPlus" x="17" y="9" onmousedown="handleZoom(evt,'in')"/>
                <use id="zoomminus" xlink:href="#zoomMin" x="42" y="9" onmousedown="handleZoom(evt,'out')"/>
                <use id="reset" xlink:href="#resetDef" x="30" y="36" onmousedown="handleReset()"/>
                <g id="arrowUp" xlink:href="#dirArrow" transform="translate(30 24)" onmousedown="handlePan(0,-1)">
                  <use xlink:href="#rim" fill="#404040">
                        <set attributeName="fill" to="#808080" begin="arrowUp.mouseover" end="arrowUp.mouseout"/>
                  </use>
                  <path fill="none" stroke="white" stroke-width="1.5" d="M0,-3.0v7 M-2.5,-0.5L0,-3.0L2.5,-0.5"/>
                </g>
                <g id="arrowRight" xlink:href="#dirArrow" transform="rotate(90) translate(36 -43)" onmousedown="handlePan(1,0)">
                  <use xlink:href="#rim" fill="#404040">
                        <set attributeName="fill" to="#808080" begin="arrowRight.mouseover" end="arrowRight.mouseout"/>
                  </use>
                  <path fill="none" stroke="white" stroke-width="1.5" d="M0,-3.0v7 M-2.5,-0.5L0,-3.0L2.5,-0.5"/>
                </g>
                <g id="arrowDown" xlink:href="#dirArrow" transform="rotate(180) translate(-30 -48)" onmousedown="handlePan(0,1)">
                  <use xlink:href="#rim" fill="#404040">
                        <set attributeName="fill" to="#808080" begin="arrowDown.mouseover" end="arrowDown.mouseout"/>
                  </use>
                  <path fill="none" stroke="white" stroke-width="1.5" d="M0,-3.0v7 M-2.5,-0.5L0,-3.0L2.5,-0.5"/>
                </g>
                <g id="arrowLeft" xlink:href="#dirArrow" transform="rotate(270) translate(-36 17)" onmousedown="handlePan(-1,0)">
                  <use xlink:href="#rim" fill="#404040">
                        <set attributeName="fill" to="#808080" begin="arrowLeft.mouseover" end="arrowLeft.mouseout"/>
                  </use>
                  <path fill="none" stroke="white" stroke-width="1.5" d="M0,-3.0v7 M-2.5,-0.5L0,-3.0L2.5,-0.5"/>
                </g>
        </g>
        <svg viewBox="0 0 15 15" width="100%" height="30px" preserveAspectRatio="xMaxYMin meet">
         <g id="arrow_out" transform="scale(0.3 0.3)">
          <a xlink:href="_c_p_u_sheduler_8h__dep__incl_org.svg" target="_base">
           <rect id="button" ry="5" rx="5" y="6" x="6" height="38" width="38"
                fill="#f2f5e9" fill-opacity="0.5" stroke="#606060" stroke-width="1.0"/>
           <path id="arrow"
             d="M 11.500037,31.436501 C 11.940474,20.09759 22.043105,11.32322 32.158766,21.979434 L 37.068811,17.246167 C 37.068811,17.246167 37.088388,32 37.088388,32 L 22.160133,31.978069 C 22.160133,31.978069 26.997745,27.140456 26.997745,27.140456 C 18.528582,18.264221 13.291696,25.230495 11.500037,31.436501 z"
             style="fill:#404040;"/>
          </a>
         </g>
        </svg>
</svg>
