<?xml version="1.0" encoding="UTF-8" standalone="no"?>
<!DOCTYPE svg PUBLIC "-//W3C//DTD SVG 1.1//EN"
 "http://www.w3.org/Graphics/SVG/1.1/DTD/svg11.dtd">
<!-- Generated by graphviz version 2.50.0 (20211204.2007)
 -->
<!-- Title: src/controller/ControllerBase.h Pages: 1 -->
<svg width="2943pt" height="352pt"
 viewBox="0.00 0.00 2942.50 352.00" xmlns="http://www.w3.org/2000/svg" xmlns:xlink="http://www.w3.org/1999/xlink">
<g id="graph0" class="graph" transform="scale(1 1) rotate(0) translate(4 348)">
<title>src/controller/ControllerBase.h</title>
<polygon fill="white" stroke="transparent" points="-4,4 -4,-348 2938.5,-348 2938.5,4 -4,4"/>
<!-- Node1 -->
<g id="node1" class="node">
<title>Node1</title>
<g id="a_node1"><a xlink:title=" ">
<polygon fill="#bfbfbf" stroke="black" points="600,-313.5 600,-343.5 717,-343.5 717,-313.5 600,-313.5"/>
<text text-anchor="start" x="608" y="-331.5" font-family="Helvetica,sans-Serif" font-size="10.00">src/controller/Controller</text>
<text text-anchor="middle" x="658.5" y="-320.5" font-family="Helvetica,sans-Serif" font-size="10.00">Base.h</text>
</a>
</g>
</g>
<!-- Node2 -->
<g id="node2" class="node">
<title>Node2</title>
<g id="a_node2"><a xlink:href="controller_2_address_index_8h.html" target="_top" xlink:title=" ">
<polygon fill="white" stroke="black" points="687,-257.5 687,-276.5 830,-276.5 830,-257.5 687,-257.5"/>
<text text-anchor="middle" x="758.5" y="-264.5" font-family="Helvetica,sans-Serif" font-size="10.00">src/controller/AddressIndex.h</text>
</a>
</g>
</g>
<!-- Node1&#45;&gt;Node2 -->
<g id="edge1" class="edge">
<title>Node1&#45;&gt;Node2</title>
<path fill="none" stroke="midnightblue" d="M691.16,-308.07C708.98,-297.46 730.17,-284.86 743.95,-276.66"/>
<polygon fill="midnightblue" stroke="midnightblue" points="689,-305.28 682.2,-313.4 692.58,-311.29 689,-305.28"/>
</g>
<!-- Node4 -->
<g id="node4" class="node">
<title>Node4</title>
<g id="a_node4"><a xlink:href="_group_8h.html" target="_top" xlink:title=" ">
<polygon fill="white" stroke="black" points="653.5,-201.5 653.5,-220.5 763.5,-220.5 763.5,-201.5 653.5,-201.5"/>
<text text-anchor="middle" x="708.5" y="-208.5" font-family="Helvetica,sans-Serif" font-size="10.00">src/controller/Group.h</text>
</a>
</g>
</g>
<!-- Node1&#45;&gt;Node4 -->
<g id="edge29" class="edge">
<title>Node1&#45;&gt;Node4</title>
<path fill="none" stroke="midnightblue" d="M662.87,-303.39C665.92,-289.43 670.67,-271.76 677.5,-257 683.79,-243.4 694.13,-229.44 701.12,-220.75"/>
<polygon fill="midnightblue" stroke="midnightblue" points="659.43,-302.74 660.87,-313.23 666.29,-304.13 659.43,-302.74"/>
</g>
<!-- Node13 -->
<g id="node13" class="node">
<title>Node13</title>
<g id="a_node13"><a xlink:href="controller_2_block_8h.html" target="_top" xlink:title=" ">
<polygon fill="white" stroke="black" points="5,-73 5,-92 114,-92 114,-73 5,-73"/>
<text text-anchor="middle" x="59.5" y="-80" font-family="Helvetica,sans-Serif" font-size="10.00">src/controller/Block.h</text>
</a>
</g>
</g>
<!-- Node1&#45;&gt;Node13 -->
<g id="edge22" class="edge">
<title>Node1&#45;&gt;Node13</title>
<path fill="none" stroke="midnightblue" d="M589.77,-318.85C537.93,-311.13 465.55,-297.79 404.5,-277 298.38,-240.87 275.21,-221.7 178.5,-165 137.46,-140.94 91.79,-107.7 70.97,-92.16"/>
<polygon fill="midnightblue" stroke="midnightblue" points="589.46,-322.34 599.86,-320.32 590.47,-315.42 589.46,-322.34"/>
</g>
<!-- Node21 -->
<g id="node21" class="node">
<title>Node21</title>
<g id="a_node21"><a xlink:href="controller_2_block_index_8h.html" target="_top" xlink:title=" ">
<polygon fill="white" stroke="black" points="413.5,-257.5 413.5,-276.5 545.5,-276.5 545.5,-257.5 413.5,-257.5"/>
<text text-anchor="middle" x="479.5" y="-264.5" font-family="Helvetica,sans-Serif" font-size="10.00">src/controller/BlockIndex.h</text>
</a>
</g>
</g>
<!-- Node1&#45;&gt;Node21 -->
<g id="edge23" class="edge">
<title>Node1&#45;&gt;Node21</title>
<path fill="none" stroke="midnightblue" d="M606.51,-310.22C573.28,-299.17 531.63,-285.33 505.28,-276.57"/>
<polygon fill="midnightblue" stroke="midnightblue" points="605.49,-313.57 616.08,-313.4 607.69,-306.92 605.49,-313.57"/>
</g>
<!-- Node22 -->
<g id="node22" class="node">
<title>Node22</title>
<g id="a_node22"><a xlink:href="controller_2_group_index_8h.html" target="_top" xlink:title=" ">
<polygon fill="white" stroke="black" points="1742.5,-201.5 1742.5,-220.5 1876.5,-220.5 1876.5,-201.5 1742.5,-201.5"/>
<text text-anchor="middle" x="1809.5" y="-208.5" font-family="Helvetica,sans-Serif" font-size="10.00">src/controller/GroupIndex.h</text>
</a>
</g>
</g>
<!-- Node1&#45;&gt;Node22 -->
<g id="edge30" class="edge">
<title>Node1&#45;&gt;Node22</title>
<path fill="none" stroke="midnightblue" d="M727.21,-320.61C932.46,-300.01 1539.41,-239.1 1742.46,-218.73"/>
<polygon fill="midnightblue" stroke="midnightblue" points="726.76,-317.13 717.16,-321.61 727.46,-324.1 726.76,-317.13"/>
</g>
<!-- Node3 -->
<g id="node3" class="node">
<title>Node3</title>
<g id="a_node3"><a xlink:href="controller_2_address_index_8cpp.html" target="_top" xlink:title=" ">
<polygon fill="white" stroke="black" points="1433.5,-73 1433.5,-92 1587.5,-92 1587.5,-73 1433.5,-73"/>
<text text-anchor="middle" x="1510.5" y="-80" font-family="Helvetica,sans-Serif" font-size="10.00">src/controller/AddressIndex.cpp</text>
</a>
</g>
</g>
<!-- Node2&#45;&gt;Node3 -->
<g id="edge2" class="edge">
<title>Node2&#45;&gt;Node3</title>
<path fill="none" stroke="midnightblue" d="M811.61,-255.5C897.94,-238.18 1073.89,-201.88 1221.5,-165 1317.85,-140.93 1430.84,-107.55 1482.35,-92.05"/>
<polygon fill="midnightblue" stroke="midnightblue" points="810.91,-252.07 801.79,-257.46 812.28,-258.93 810.91,-252.07"/>
</g>
<!-- Node2&#45;&gt;Node4 -->
<g id="edge3" class="edge">
<title>Node2&#45;&gt;Node4</title>
<path fill="none" stroke="midnightblue" d="M743.42,-249.72C734.61,-240.2 723.83,-228.56 716.6,-220.75"/>
<polygon fill="midnightblue" stroke="midnightblue" points="740.88,-252.12 750.24,-257.08 746.02,-247.37 740.88,-252.12"/>
</g>
<!-- Node5 -->
<g id="node5" class="node">
<title>Node5</title>
<g id="a_node5"><a xlink:href="_group_manager_8h.html" target="_top" xlink:title=" ">
<polygon fill="white" stroke="black" points="1102,-134.5 1102,-164.5 1213,-164.5 1213,-134.5 1102,-134.5"/>
<text text-anchor="start" x="1110" y="-152.5" font-family="Helvetica,sans-Serif" font-size="10.00">src/SingletonManager</text>
<text text-anchor="middle" x="1157.5" y="-141.5" font-family="Helvetica,sans-Serif" font-size="10.00">/GroupManager.h</text>
</a>
</g>
</g>
<!-- Node4&#45;&gt;Node5 -->
<g id="edge4" class="edge">
<title>Node4&#45;&gt;Node5</title>
<path fill="none" stroke="midnightblue" d="M773.47,-201.39C861.93,-189.67 1018.75,-168.89 1101.99,-157.86"/>
<polygon fill="midnightblue" stroke="midnightblue" points="773.01,-197.92 763.56,-202.7 773.93,-204.86 773.01,-197.92"/>
</g>
<!-- Node9 -->
<g id="node9" class="node">
<title>Node9</title>
<g id="a_node9"><a xlink:href="_group_8cpp.html" target="_top" xlink:title=" ">
<polygon fill="white" stroke="black" points="946,-6 946,-25 1067,-25 1067,-6 946,-6"/>
<text text-anchor="middle" x="1006.5" y="-13" font-family="Helvetica,sans-Serif" font-size="10.00">src/controller/Group.cpp</text>
</a>
</g>
</g>
<!-- Node4&#45;&gt;Node9 -->
<g id="edge11" class="edge">
<title>Node4&#45;&gt;Node9</title>
<path fill="none" stroke="midnightblue" d="M735.04,-196.37C748.03,-188.61 763.07,-177.87 773.5,-165 803.22,-128.31 778.88,-97.99 814.5,-67 850.78,-35.45 904.53,-23.28 945.94,-18.75"/>
<polygon fill="midnightblue" stroke="midnightblue" points="733.01,-193.49 726.04,-201.47 736.46,-199.58 733.01,-193.49"/>
</g>
<!-- Node11 -->
<g id="node11" class="node">
<title>Node11</title>
<g id="a_node11"><a xlink:href="_ordering_manager_8cpp.html" target="_top" xlink:title=" ">
<polygon fill="white" stroke="black" points="652,-134.5 652,-164.5 765,-164.5 765,-134.5 652,-134.5"/>
<text text-anchor="start" x="660" y="-152.5" font-family="Helvetica,sans-Serif" font-size="10.00">src/SingletonManager</text>
<text text-anchor="middle" x="708.5" y="-141.5" font-family="Helvetica,sans-Serif" font-size="10.00">/OrderingManager.cpp</text>
</a>
</g>
</g>
<!-- Node4&#45;&gt;Node11 -->
<g id="edge10" class="edge">
<title>Node4&#45;&gt;Node11</title>
<path fill="none" stroke="midnightblue" d="M708.5,-191.23C708.5,-182.59 708.5,-172.5 708.5,-164.52"/>
<polygon fill="midnightblue" stroke="midnightblue" points="705,-191.48 708.5,-201.48 712,-191.48 705,-191.48"/>
</g>
<!-- Node12 -->
<g id="node12" class="node">
<title>Node12</title>
<g id="a_node12"><a xlink:href="_transaction_entry_8h.html" target="_top" xlink:title=" ">
<polygon fill="white" stroke="black" points="439.5,-140 439.5,-159 583.5,-159 583.5,-140 439.5,-140"/>
<text text-anchor="middle" x="511.5" y="-147" font-family="Helvetica,sans-Serif" font-size="10.00">src/model/TransactionEntry.h</text>
</a>
</g>
</g>
<!-- Node4&#45;&gt;Node12 -->
<g id="edge12" class="edge">
<title>Node4&#45;&gt;Node12</title>
<path fill="none" stroke="midnightblue" d="M670.52,-198.53C632.23,-186.96 574.03,-169.38 539.67,-159.01"/>
<polygon fill="midnightblue" stroke="midnightblue" points="669.69,-201.93 680.27,-201.48 671.71,-195.23 669.69,-201.93"/>
</g>
<!-- Node6 -->
<g id="node6" class="node">
<title>Node6</title>
<g id="a_node6"><a xlink:href="_json_r_p_c_handler_8cpp.html" target="_top" xlink:title=" ">
<polygon fill="white" stroke="black" points="823.5,-67.5 823.5,-97.5 939.5,-97.5 939.5,-67.5 823.5,-67.5"/>
<text text-anchor="start" x="831.5" y="-85.5" font-family="Helvetica,sans-Serif" font-size="10.00">src/JSONRPCInterface</text>
<text text-anchor="middle" x="881.5" y="-74.5" font-family="Helvetica,sans-Serif" font-size="10.00">/JsonRPCHandler.cpp</text>
</a>
</g>
</g>
<!-- Node5&#45;&gt;Node6 -->
<g id="edge5" class="edge">
<title>Node5&#45;&gt;Node6</title>
<path fill="none" stroke="midnightblue" d="M1092.06,-133.09C1045.8,-122.19 984.36,-107.72 939.79,-97.23"/>
<polygon fill="midnightblue" stroke="midnightblue" points="1091.44,-136.54 1101.98,-135.42 1093.05,-129.73 1091.44,-136.54"/>
</g>
<!-- Node7 -->
<g id="node7" class="node">
<title>Node7</title>
<g id="a_node7"><a xlink:href="_main_server_8cpp.html" target="_top" xlink:title=" ">
<polygon fill="white" stroke="black" points="1185.5,-73 1185.5,-92 1285.5,-92 1285.5,-73 1185.5,-73"/>
<text text-anchor="middle" x="1235.5" y="-80" font-family="Helvetica,sans-Serif" font-size="10.00">src/MainServer.cpp</text>
</a>
</g>
</g>
<!-- Node5&#45;&gt;Node7 -->
<g id="edge6" class="edge">
<title>Node5&#45;&gt;Node7</title>
<path fill="none" stroke="midnightblue" d="M1182.49,-127.67C1196.9,-115.67 1214.24,-101.22 1225.07,-92.19"/>
<polygon fill="midnightblue" stroke="midnightblue" points="1179.87,-125.31 1174.42,-134.4 1184.35,-130.68 1179.87,-125.31"/>
</g>
<!-- Node8 -->
<g id="node8" class="node">
<title>Node8</title>
<g id="a_node8"><a xlink:href="_group_manager_8cpp.html" target="_top" xlink:title=" ">
<polygon fill="white" stroke="black" points="1304,-67.5 1304,-97.5 1415,-97.5 1415,-67.5 1304,-67.5"/>
<text text-anchor="start" x="1312" y="-85.5" font-family="Helvetica,sans-Serif" font-size="10.00">src/SingletonManager</text>
<text text-anchor="middle" x="1359.5" y="-74.5" font-family="Helvetica,sans-Serif" font-size="10.00">/GroupManager.cpp</text>
</a>
</g>
</g>
<!-- Node5&#45;&gt;Node8 -->
<g id="edge7" class="edge">
<title>Node5&#45;&gt;Node8</title>
<path fill="none" stroke="midnightblue" d="M1211.18,-131.23C1243.85,-120.71 1285.07,-107.45 1315.75,-97.58"/>
<polygon fill="midnightblue" stroke="midnightblue" points="1209.78,-128 1201.33,-134.4 1211.92,-134.66 1209.78,-128"/>
</g>
<!-- Node5&#45;&gt;Node9 -->
<g id="edge8" class="edge">
<title>Node5&#45;&gt;Node9</title>
<path fill="none" stroke="midnightblue" d="M1157.3,-124.12C1155.91,-106.32 1151.29,-82.67 1137.5,-67 1117.69,-44.5 1086.68,-31.96 1059.8,-25.01"/>
<polygon fill="midnightblue" stroke="midnightblue" points="1153.82,-124.51 1157.81,-134.32 1160.81,-124.16 1153.82,-124.51"/>
</g>
<!-- Node10 -->
<g id="node10" class="node">
<title>Node10</title>
<g id="a_node10"><a xlink:href="_iota_message_to_transaction_task_8cpp.html" target="_top" xlink:title=" ">
<polygon fill="white" stroke="black" points="958,-67.5 958,-97.5 1129,-97.5 1129,-67.5 958,-67.5"/>
<text text-anchor="start" x="966" y="-85.5" font-family="Helvetica,sans-Serif" font-size="10.00">src/task/IotaMessageToTransaction</text>
<text text-anchor="middle" x="1043.5" y="-74.5" font-family="Helvetica,sans-Serif" font-size="10.00">Task.cpp</text>
</a>
</g>
</g>
<!-- Node5&#45;&gt;Node10 -->
<g id="edge9" class="edge">
<title>Node5&#45;&gt;Node10</title>
<path fill="none" stroke="midnightblue" d="M1123.82,-129.3C1105.98,-119.12 1084.46,-106.85 1068.19,-97.58"/>
<polygon fill="midnightblue" stroke="midnightblue" points="1122.34,-132.48 1132.76,-134.4 1125.81,-126.4 1122.34,-132.48"/>
</g>
<!-- Node12&#45;&gt;Node13 -->
<g id="edge13" class="edge">
<title>Node12&#45;&gt;Node13</title>
<path fill="none" stroke="midnightblue" d="M429.11,-140.15C350.13,-131.6 227.7,-116.89 122.5,-98 113.11,-96.31 103.01,-94.15 93.71,-92.01"/>
<polygon fill="midnightblue" stroke="midnightblue" points="429.17,-143.68 439.48,-141.27 429.91,-136.72 429.17,-143.68"/>
</g>
<!-- Node15 -->
<g id="node15" class="node">
<title>Node15</title>
<g id="a_node15"><a xlink:href="controller_2_block_index_8cpp.html" target="_top" xlink:title=" ">
<polygon fill="white" stroke="black" points="132,-73 132,-92 275,-92 275,-73 132,-73"/>
<text text-anchor="middle" x="203.5" y="-80" font-family="Helvetica,sans-Serif" font-size="10.00">src/controller/BlockIndex.cpp</text>
</a>
</g>
</g>
<!-- Node12&#45;&gt;Node15 -->
<g id="edge16" class="edge">
<title>Node12&#45;&gt;Node15</title>
<path fill="none" stroke="midnightblue" d="M460.81,-137.8C400.2,-125.01 299.96,-103.86 244.17,-92.08"/>
<polygon fill="midnightblue" stroke="midnightblue" points="460.41,-141.3 470.92,-139.94 461.86,-134.45 460.41,-141.3"/>
</g>
<!-- Node16 -->
<g id="node16" class="node">
<title>Node16</title>
<g id="a_node16"><a xlink:href="_transaction_entry_8cpp.html" target="_top" xlink:title=" ">
<polygon fill="white" stroke="black" points="460,-73 460,-92 615,-92 615,-73 460,-73"/>
<text text-anchor="middle" x="537.5" y="-80" font-family="Helvetica,sans-Serif" font-size="10.00">src/model/TransactionEntry.cpp</text>
</a>
</g>
</g>
<!-- Node12&#45;&gt;Node16 -->
<g id="edge17" class="edge">
<title>Node12&#45;&gt;Node16</title>
<path fill="none" stroke="midnightblue" d="M518.78,-130.29C523.78,-117.81 530.17,-101.81 534.05,-92.13"/>
<polygon fill="midnightblue" stroke="midnightblue" points="515.47,-129.15 515.01,-139.73 521.97,-131.75 515.47,-129.15"/>
</g>
<!-- Node17 -->
<g id="node17" class="node">
<title>Node17</title>
<g id="a_node17"><a xlink:href="model_2files_2_block_index_8cpp.html" target="_top" xlink:title=" ">
<polygon fill="white" stroke="black" points="293,-73 293,-92 442,-92 442,-73 293,-73"/>
<text text-anchor="middle" x="367.5" y="-80" font-family="Helvetica,sans-Serif" font-size="10.00">src/model/files/BlockIndex.cpp</text>
</a>
</g>
</g>
<!-- Node12&#45;&gt;Node17 -->
<g id="edge18" class="edge">
<title>Node12&#45;&gt;Node17</title>
<path fill="none" stroke="midnightblue" d="M482.95,-135.61C454.43,-122.74 411.38,-103.31 386.7,-92.17"/>
<polygon fill="midnightblue" stroke="midnightblue" points="481.82,-138.94 492.38,-139.87 484.7,-132.56 481.82,-138.94"/>
</g>
<!-- Node18 -->
<g id="node18" class="node">
<title>Node18</title>
<g id="a_node18"><a xlink:href="_write_transactions_to_block_task_8h.html" target="_top" xlink:title=" ">
<polygon fill="white" stroke="black" points="633.5,-67.5 633.5,-97.5 767.5,-97.5 767.5,-67.5 633.5,-67.5"/>
<text text-anchor="start" x="641.5" y="-85.5" font-family="Helvetica,sans-Serif" font-size="10.00">src/task/WriteTransactions</text>
<text text-anchor="middle" x="700.5" y="-74.5" font-family="Helvetica,sans-Serif" font-size="10.00">ToBlockTask.h</text>
</a>
</g>
</g>
<!-- Node12&#45;&gt;Node18 -->
<g id="edge19" class="edge">
<title>Node12&#45;&gt;Node18</title>
<path fill="none" stroke="midnightblue" d="M546.42,-136.49C578.46,-125.47 625.94,-109.14 659.71,-97.53"/>
<polygon fill="midnightblue" stroke="midnightblue" points="544.92,-133.31 536.6,-139.87 547.19,-139.93 544.92,-133.31"/>
</g>
<!-- Node13&#45;&gt;Node9 -->
<g id="edge15" class="edge">
<title>Node13&#45;&gt;Node9</title>
<path fill="none" stroke="midnightblue" d="M101.63,-70.75C108.56,-69.29 115.71,-67.96 122.5,-67 415.15,-25.7 491.49,-48.72 786.5,-31 840.37,-27.76 901.64,-23.69 945.82,-20.69"/>
<polygon fill="midnightblue" stroke="midnightblue" points="100.67,-67.38 91.67,-72.97 102.2,-74.21 100.67,-67.38"/>
</g>
<!-- Node14 -->
<g id="node14" class="node">
<title>Node14</title>
<g id="a_node14"><a xlink:href="controller_2_block_8cpp.html" target="_top" xlink:title=" ">
<polygon fill="white" stroke="black" points="0,-6 0,-25 119,-25 119,-6 0,-6"/>
<text text-anchor="middle" x="59.5" y="-13" font-family="Helvetica,sans-Serif" font-size="10.00">src/controller/Block.cpp</text>
</a>
</g>
</g>
<!-- Node13&#45;&gt;Node14 -->
<g id="edge14" class="edge">
<title>Node13&#45;&gt;Node14</title>
<path fill="none" stroke="midnightblue" d="M59.5,-62.54C59.5,-50.17 59.5,-34.62 59.5,-25.13"/>
<polygon fill="midnightblue" stroke="midnightblue" points="56,-62.73 59.5,-72.73 63,-62.73 56,-62.73"/>
</g>
<!-- Node19 -->
<g id="node19" class="node">
<title>Node19</title>
<g id="a_node19"><a xlink:href="_task_observer_8cpp.html" target="_top" xlink:title=" ">
<polygon fill="white" stroke="black" points="623.5,-6 623.5,-25 777.5,-25 777.5,-6 623.5,-6"/>
<text text-anchor="middle" x="700.5" y="-13" font-family="Helvetica,sans-Serif" font-size="10.00">src/controller/TaskObserver.cpp</text>
</a>
</g>
</g>
<!-- Node18&#45;&gt;Node19 -->
<g id="edge20" class="edge">
<title>Node18&#45;&gt;Node19</title>
<path fill="none" stroke="midnightblue" d="M700.5,-57.25C700.5,-46.02 700.5,-33.38 700.5,-25.19"/>
<polygon fill="midnightblue" stroke="midnightblue" points="697,-57.4 700.5,-67.4 704,-57.4 697,-57.4"/>
</g>
<!-- Node20 -->
<g id="node20" class="node">
<title>Node20</title>
<g id="a_node20"><a xlink:href="_write_transactions_to_block_task_8cpp.html" target="_top" xlink:title=" ">
<polygon fill="white" stroke="black" points="1760.5,-0.5 1760.5,-30.5 1894.5,-30.5 1894.5,-0.5 1760.5,-0.5"/>
<text text-anchor="start" x="1768.5" y="-18.5" font-family="Helvetica,sans-Serif" font-size="10.00">src/task/WriteTransactions</text>
<text text-anchor="middle" x="1827.5" y="-7.5" font-family="Helvetica,sans-Serif" font-size="10.00">ToBlockTask.cpp</text>
</a>
</g>
</g>
<!-- Node18&#45;&gt;Node20 -->
<g id="edge21" class="edge">
<title>Node18&#45;&gt;Node20</title>
<path fill="none" stroke="midnightblue" d="M777.82,-70.85C790.08,-69.4 802.62,-68.05 814.5,-67 1170.13,-35.57 1597.85,-22.25 1760.41,-18.07"/>
<polygon fill="midnightblue" stroke="midnightblue" points="777.12,-67.41 767.62,-72.09 777.97,-74.36 777.12,-67.41"/>
</g>
<!-- Node21&#45;&gt;Node4 -->
<g id="edge26" class="edge">
<title>Node21&#45;&gt;Node4</title>
<path fill="none" stroke="midnightblue" d="M525.77,-255.09C569.04,-244.89 632.76,-229.86 672.38,-220.52"/>
<polygon fill="midnightblue" stroke="midnightblue" points="524.72,-251.74 515.79,-257.44 526.32,-258.55 524.72,-251.74"/>
</g>
<!-- Node21&#45;&gt;Node13 -->
<g id="edge24" class="edge">
<title>Node21&#45;&gt;Node13</title>
<path fill="none" stroke="midnightblue" d="M450.3,-253.31C369.89,-218.37 146.74,-121.41 79.15,-92.04"/>
<polygon fill="midnightblue" stroke="midnightblue" points="449.24,-256.67 459.81,-257.44 452.03,-250.25 449.24,-256.67"/>
</g>
<!-- Node21&#45;&gt;Node15 -->
<g id="edge25" class="edge">
<title>Node21&#45;&gt;Node15</title>
<path fill="none" stroke="midnightblue" d="M457.99,-251.78C403.31,-215.62 260.2,-120.99 216.41,-92.04"/>
<polygon fill="midnightblue" stroke="midnightblue" points="456.29,-254.85 466.56,-257.44 460.15,-249.01 456.29,-254.85"/>
</g>
<!-- Node21&#45;&gt;Node17 -->
<g id="edge27" class="edge">
<title>Node21&#45;&gt;Node17</title>
<path fill="none" stroke="midnightblue" d="M468.58,-248.21C445.03,-209.83 390.18,-120.45 372.85,-92.21"/>
<polygon fill="midnightblue" stroke="midnightblue" points="465.88,-250.51 474.1,-257.2 471.85,-246.84 465.88,-250.51"/>
</g>
<!-- Node21&#45;&gt;Node18 -->
<g id="edge28" class="edge">
<title>Node21&#45;&gt;Node18</title>
<path fill="none" stroke="midnightblue" d="M497.59,-251.06C539.4,-216.53 642.25,-131.6 683.24,-97.75"/>
<polygon fill="midnightblue" stroke="midnightblue" points="495.35,-248.38 489.86,-257.44 499.8,-253.77 495.35,-248.38"/>
</g>
<!-- Node22&#45;&gt;Node5 -->
<g id="edge46" class="edge">
<title>Node22&#45;&gt;Node5</title>
<path fill="none" stroke="midnightblue" d="M1732.37,-202.96C1599.33,-190.82 1329.78,-166.22 1213.25,-155.59"/>
<polygon fill="midnightblue" stroke="midnightblue" points="1732.21,-206.46 1742.48,-203.88 1732.84,-199.49 1732.21,-206.46"/>
</g>
<!-- Node23 -->
<g id="node23" class="node">
<title>Node23</title>
<g id="a_node23"><a xlink:href="_server_globals_8h.html" target="_top" xlink:title=" ">
<polygon fill="white" stroke="black" points="1964,-140 1964,-159 2065,-159 2065,-140 1964,-140"/>
<text text-anchor="middle" x="2014.5" y="-147" font-family="Helvetica,sans-Serif" font-size="10.00">src/ServerGlobals.h</text>
</a>
</g>
</g>
<!-- Node22&#45;&gt;Node23 -->
<g id="edge31" class="edge">
<title>Node22&#45;&gt;Node23</title>
<path fill="none" stroke="midnightblue" d="M1848.52,-198.68C1888.35,-187.11 1949.28,-169.43 1985.18,-159.01"/>
<polygon fill="midnightblue" stroke="midnightblue" points="1847.5,-195.33 1838.87,-201.48 1849.45,-202.05 1847.5,-195.33"/>
</g>
<!-- Node26 -->
<g id="node26" class="node">
<title>Node26</title>
<g id="a_node26"><a xlink:href="controller_2_group_index_8cpp.html" target="_top" xlink:title=" ">
<polygon fill="white" stroke="black" points="2790.5,-73 2790.5,-92 2934.5,-92 2934.5,-73 2790.5,-73"/>
<text text-anchor="middle" x="2862.5" y="-80" font-family="Helvetica,sans-Serif" font-size="10.00">src/controller/GroupIndex.cpp</text>
</a>
</g>
</g>
<!-- Node22&#45;&gt;Node26 -->
<g id="edge47" class="edge">
<title>Node22&#45;&gt;Node26</title>
<path fill="none" stroke="midnightblue" d="M1886.6,-202.77C2051.32,-186.95 2449.6,-146.78 2781.5,-98 2793.23,-96.28 2805.87,-94.15 2817.59,-92.05"/>
<polygon fill="midnightblue" stroke="midnightblue" points="1886.19,-199.29 1876.56,-203.73 1886.85,-206.26 1886.19,-199.29"/>
</g>
<!-- Node23&#45;&gt;Node3 -->
<g id="edge36" class="edge">
<title>Node23&#45;&gt;Node3</title>
<path fill="none" stroke="midnightblue" d="M1953.91,-141.79C1873.33,-132.7 1726.52,-115.6 1601.5,-98 1588.67,-96.19 1574.85,-94.08 1561.95,-92.03"/>
<polygon fill="midnightblue" stroke="midnightblue" points="1953.55,-145.27 1963.88,-142.91 1954.33,-138.31 1953.55,-145.27"/>
</g>
<!-- Node23&#45;&gt;Node7 -->
<g id="edge32" class="edge">
<title>Node23&#45;&gt;Node7</title>
<path fill="none" stroke="midnightblue" d="M1953.89,-147.74C1829.53,-145.41 1536.83,-135.99 1294.5,-98 1285.12,-96.53 1275.05,-94.3 1265.92,-92.03"/>
<polygon fill="midnightblue" stroke="midnightblue" points="1953.91,-151.24 1963.98,-147.92 1954.04,-144.24 1953.91,-151.24"/>
</g>
<!-- Node23&#45;&gt;Node8 -->
<g id="edge35" class="edge">
<title>Node23&#45;&gt;Node8</title>
<path fill="none" stroke="midnightblue" d="M1953.72,-145.99C1846.38,-140.96 1616.45,-127.49 1424.5,-98 1421.41,-97.53 1418.26,-96.99 1415.08,-96.41"/>
<polygon fill="midnightblue" stroke="midnightblue" points="1953.57,-149.49 1963.72,-146.45 1953.89,-142.49 1953.57,-149.49"/>
</g>
<!-- Node23&#45;&gt;Node9 -->
<g id="edge37" class="edge">
<title>Node23&#45;&gt;Node9</title>
<path fill="none" stroke="midnightblue" d="M1953.63,-144.46C1861.26,-137.66 1690.51,-122.22 1634.5,-98 1614.49,-89.35 1616.7,-75.18 1596.5,-67 1501.69,-28.6 1197.76,-19.38 1067.12,-17.18"/>
<polygon fill="midnightblue" stroke="midnightblue" points="1953.45,-147.96 1963.68,-145.19 1953.95,-140.98 1953.45,-147.96"/>
</g>
<!-- Node23&#45;&gt;Node20 -->
<g id="edge45" class="edge">
<title>Node23&#45;&gt;Node20</title>
<path fill="none" stroke="midnightblue" d="M2075.36,-146.41C2196.3,-141.63 2457.62,-127.92 2484.5,-98 2493.71,-87.75 2493.86,-77.11 2484.5,-67 2445,-24.35 2054.08,-17.59 1894.66,-16.62"/>
<polygon fill="midnightblue" stroke="midnightblue" points="2075,-142.92 2065.15,-146.81 2075.28,-149.92 2075,-142.92"/>
</g>
<!-- Node24 -->
<g id="node24" class="node">
<title>Node24</title>
<g id="a_node24"><a xlink:href="_server_globals_8cpp.html" target="_top" xlink:title=" ">
<polygon fill="white" stroke="black" points="2090.5,-73 2090.5,-92 2202.5,-92 2202.5,-73 2090.5,-73"/>
<text text-anchor="middle" x="2146.5" y="-80" font-family="Helvetica,sans-Serif" font-size="10.00">src/ServerGlobals.cpp</text>
</a>
</g>
</g>
<!-- Node23&#45;&gt;Node24 -->
<g id="edge33" class="edge">
<title>Node23&#45;&gt;Node24</title>
<path fill="none" stroke="midnightblue" d="M2041.01,-135.44C2067.16,-122.57 2106.38,-103.26 2128.9,-92.17"/>
<polygon fill="midnightblue" stroke="midnightblue" points="2039.45,-132.31 2032.03,-139.87 2042.55,-138.59 2039.45,-132.31"/>
</g>
<!-- Node25 -->
<g id="node25" class="node">
<title>Node25</title>
<g id="a_node25"><a xlink:href="_global_state_manager_8cpp.html" target="_top" xlink:title=" ">
<polygon fill="white" stroke="black" points="2221,-67.5 2221,-97.5 2348,-97.5 2348,-67.5 2221,-67.5"/>
<text text-anchor="start" x="2229" y="-85.5" font-family="Helvetica,sans-Serif" font-size="10.00">src/SingletonManager</text>
<text text-anchor="middle" x="2284.5" y="-74.5" font-family="Helvetica,sans-Serif" font-size="10.00">/GlobalStateManager.cpp</text>
</a>
</g>
</g>
<!-- Node23&#45;&gt;Node25 -->
<g id="edge34" class="edge">
<title>Node23&#45;&gt;Node25</title>
<path fill="none" stroke="midnightblue" d="M2060,-137.55C2105.69,-126.55 2176.29,-109.55 2226.1,-97.56"/>
<polygon fill="midnightblue" stroke="midnightblue" points="2058.98,-134.19 2050.08,-139.94 2060.62,-141 2058.98,-134.19"/>
</g>
<!-- Node23&#45;&gt;Node26 -->
<g id="edge38" class="edge">
<title>Node23&#45;&gt;Node26</title>
<path fill="none" stroke="midnightblue" d="M2075.56,-146.79C2205.73,-142.64 2520.01,-129.91 2781.5,-98 2793.98,-96.48 2807.45,-94.29 2819.76,-92.07"/>
<polygon fill="midnightblue" stroke="midnightblue" points="2075.28,-143.3 2065.39,-147.11 2075.5,-150.29 2075.28,-143.3"/>
</g>
<!-- Node27 -->
<g id="node27" class="node">
<title>Node27</title>
<g id="a_node27"><a xlink:href="_h_t_t_p_api_8cpp.html" target="_top" xlink:title=" ">
<polygon fill="white" stroke="black" points="2366,-73 2366,-92 2475,-92 2475,-73 2366,-73"/>
<text text-anchor="middle" x="2420.5" y="-80" font-family="Helvetica,sans-Serif" font-size="10.00">src/iota/HTTPApi.cpp</text>
</a>
</g>
</g>
<!-- Node23&#45;&gt;Node27 -->
<g id="edge39" class="edge">
<title>Node23&#45;&gt;Node27</title>
<path fill="none" stroke="midnightblue" d="M2075.49,-141.02C2144.27,-132.24 2259.32,-116.49 2357.5,-98 2366.65,-96.28 2376.5,-94.14 2385.62,-92.05"/>
<polygon fill="midnightblue" stroke="midnightblue" points="2074.75,-137.58 2065.27,-142.32 2075.63,-144.53 2074.75,-137.58"/>
</g>
<!-- Node28 -->
<g id="node28" class="node">
<title>Node28</title>
<g id="a_node28"><a xlink:href="_message_validator_8cpp.html" target="_top" xlink:title=" ">
<polygon fill="white" stroke="black" points="2532,-73 2532,-92 2681,-92 2681,-73 2532,-73"/>
<text text-anchor="middle" x="2606.5" y="-80" font-family="Helvetica,sans-Serif" font-size="10.00">src/iota/MessageValidator.cpp</text>
</a>
</g>
</g>
<!-- Node23&#45;&gt;Node28 -->
<g id="edge40" class="edge">
<title>Node23&#45;&gt;Node28</title>
<path fill="none" stroke="midnightblue" d="M2075.28,-143.61C2169.98,-135.72 2358.4,-118.93 2517.5,-98 2530.54,-96.29 2544.6,-94.13 2557.62,-92.02"/>
<polygon fill="midnightblue" stroke="midnightblue" points="2074.99,-140.12 2065.31,-144.44 2075.57,-147.1 2074.99,-140.12"/>
</g>
<!-- Node29 -->
<g id="node29" class="node">
<title>Node29</title>
<g id="a_node29"><a xlink:href="main_8cpp.html" target="_top" xlink:title=" ">
<polygon fill="white" stroke="black" points="2699,-73 2699,-92 2772,-92 2772,-73 2699,-73"/>
<text text-anchor="middle" x="2735.5" y="-80" font-family="Helvetica,sans-Serif" font-size="10.00">src/main.cpp</text>
</a>
</g>
</g>
<!-- Node23&#45;&gt;Node29 -->
<g id="edge41" class="edge">
<title>Node23&#45;&gt;Node29</title>
<path fill="none" stroke="midnightblue" d="M2075.09,-148.76C2194.17,-148.22 2466.6,-141.79 2690.5,-98 2697.75,-96.58 2705.46,-94.37 2712.42,-92.1"/>
<polygon fill="midnightblue" stroke="midnightblue" points="2075.07,-145.26 2065.08,-148.79 2075.09,-152.26 2075.07,-145.26"/>
</g>
<!-- Node30 -->
<g id="node30" class="node">
<title>Node30</title>
<g id="a_node30"><a xlink:href="model_2files_2_block_8cpp.html" target="_top" xlink:title=" ">
<polygon fill="white" stroke="black" points="1643.5,-73 1643.5,-92 1769.5,-92 1769.5,-73 1643.5,-73"/>
<text text-anchor="middle" x="1706.5" y="-80" font-family="Helvetica,sans-Serif" font-size="10.00">src/model/files/Block.cpp</text>
</a>
</g>
</g>
<!-- Node23&#45;&gt;Node30 -->
<g id="edge42" class="edge">
<title>Node23&#45;&gt;Node30</title>
<path fill="none" stroke="midnightblue" d="M1963.81,-137.8C1903.2,-125.01 1802.96,-103.86 1747.17,-92.08"/>
<polygon fill="midnightblue" stroke="midnightblue" points="1963.41,-141.3 1973.92,-139.94 1964.86,-134.45 1963.41,-141.3"/>
</g>
<!-- Node31 -->
<g id="node31" class="node">
<title>Node31</title>
<g id="a_node31"><a xlink:href="model_2files_2_group_index_8cpp.html" target="_top" xlink:title=" ">
<polygon fill="white" stroke="black" points="1788,-73 1788,-92 1939,-92 1939,-73 1788,-73"/>
<text text-anchor="middle" x="1863.5" y="-80" font-family="Helvetica,sans-Serif" font-size="10.00">src/model/files/GroupIndex.cpp</text>
</a>
</g>
</g>
<!-- Node23&#45;&gt;Node31 -->
<g id="edge43" class="edge">
<title>Node23&#45;&gt;Node31</title>
<path fill="none" stroke="midnightblue" d="M1984.95,-135.78C1955.05,-122.91 1909.62,-103.35 1883.63,-92.17"/>
<polygon fill="midnightblue" stroke="midnightblue" points="1983.88,-139.13 1994.45,-139.87 1986.65,-132.7 1983.88,-139.13"/>
</g>
<!-- Node32 -->
<g id="node32" class="node">
<title>Node32</title>
<g id="a_node32"><a xlink:href="_c_p_u_task_8cpp.html" target="_top" xlink:title=" ">
<polygon fill="white" stroke="black" points="1957,-73 1957,-92 2072,-92 2072,-73 1957,-73"/>
<text text-anchor="middle" x="2014.5" y="-80" font-family="Helvetica,sans-Serif" font-size="10.00">src/task/CPUTask.cpp</text>
</a>
</g>
</g>
<!-- Node23&#45;&gt;Node32 -->
<g id="edge44" class="edge">
<title>Node23&#45;&gt;Node32</title>
<path fill="none" stroke="midnightblue" d="M2014.5,-129.54C2014.5,-117.17 2014.5,-101.62 2014.5,-92.13"/>
<polygon fill="midnightblue" stroke="midnightblue" points="2011,-129.73 2014.5,-139.73 2018,-129.73 2011,-129.73"/>
</g>
</g>
</svg>
