<?xml version="1.0" encoding="UTF-8" standalone="no"?>
<!DOCTYPE svg PUBLIC "-//W3C//DTD SVG 1.1//EN"
 "http://www.w3.org/Graphics/SVG/1.1/DTD/svg11.dtd">
<!-- Generated by graphviz version 2.50.0 (20211204.2007)
 -->
<!-- Title: src/SingletonManager/FileLockManager.h Pages: 1 -->
<svg width="186pt" height="95pt"
 viewBox="0.00 0.00 186.00 95.00" xmlns="http://www.w3.org/2000/svg" xmlns:xlink="http://www.w3.org/1999/xlink">
<g id="graph0" class="graph" transform="scale(1 1) rotate(0) translate(4 91)">
<title>src/SingletonManager/FileLockManager.h</title>
<polygon fill="white" stroke="transparent" points="-4,4 -4,-91 182,-91 182,4 -4,4"/>
<!-- Node1 -->
<g id="node1" class="node">
<title>Node1</title>
<g id="a_node1"><a xlink:title=" ">
<polygon fill="#bfbfbf" stroke="black" points="35,-56.5 35,-86.5 146,-86.5 146,-56.5 35,-56.5"/>
<text text-anchor="start" x="43" y="-74.5" font-family="Helvetica,sans-Serif" font-size="10.00">src/SingletonManager</text>
<text text-anchor="middle" x="90.5" y="-63.5" font-family="Helvetica,sans-Serif" font-size="10.00">/FileLockManager.h</text>
</a>
</g>
</g>
<!-- Node2 -->
<g id="node2" class="node">
<title>Node2</title>
<g id="a_node2"><a xlink:title=" ">
<polygon fill="white" stroke="#bfbfbf" points="0,-0.5 0,-19.5 83,-19.5 83,-0.5 0,-0.5"/>
<text text-anchor="middle" x="41.5" y="-7.5" font-family="Helvetica,sans-Serif" font-size="10.00">unordered_map</text>
</a>
</g>
</g>
<!-- Node1&#45;&gt;Node2 -->
<g id="edge1" class="edge">
<title>Node1&#45;&gt;Node2</title>
<path fill="none" stroke="midnightblue" d="M78.89,-56.4C71.77,-47.75 62.62,-36.64 55.15,-27.58"/>
<polygon fill="midnightblue" stroke="midnightblue" points="57.69,-25.15 48.63,-19.66 52.29,-29.6 57.69,-25.15"/>
</g>
<!-- Node3 -->
<g id="node3" class="node">
<title>Node3</title>
<g id="a_node3"><a xlink:title=" ">
<polygon fill="white" stroke="#bfbfbf" points="101,-0.5 101,-19.5 178,-19.5 178,-0.5 101,-0.5"/>
<text text-anchor="middle" x="139.5" y="-7.5" font-family="Helvetica,sans-Serif" font-size="10.00">Poco/Mutex.h</text>
</a>
</g>
</g>
<!-- Node1&#45;&gt;Node3 -->
<g id="edge2" class="edge">
<title>Node1&#45;&gt;Node3</title>
<path fill="none" stroke="midnightblue" d="M102.11,-56.4C109.23,-47.75 118.38,-36.64 125.85,-27.58"/>
<polygon fill="midnightblue" stroke="midnightblue" points="128.71,-29.6 132.37,-19.66 123.31,-25.15 128.71,-29.6"/>
</g>
</g>
</svg>
