<?xml version="1.0" encoding="UTF-8" standalone="no"?>
<!DOCTYPE svg PUBLIC "-//W3C//DTD SVG 1.1//EN"
 "http://www.w3.org/Graphics/SVG/1.1/DTD/svg11.dtd">
<!-- Generated by graphviz version 2.50.0 (20211204.2007)
 -->
<!-- Title: src/model/files/FileExceptions.cpp Pages: 1 -->
<svg width="209pt" height="151pt"
 viewBox="0.00 0.00 208.50 151.00" xmlns="http://www.w3.org/2000/svg" xmlns:xlink="http://www.w3.org/1999/xlink">
<g id="graph0" class="graph" transform="scale(1 1) rotate(0) translate(4 147)">
<title>src/model/files/FileExceptions.cpp</title>
<polygon fill="white" stroke="transparent" points="-4,4 -4,-147 204.5,-147 204.5,4 -4,4"/>
<!-- Node1 -->
<g id="node1" class="node">
<title>Node1</title>
<g id="a_node1"><a xlink:title=" ">
<polygon fill="#bfbfbf" stroke="black" points="34.5,-123.5 34.5,-142.5 200.5,-142.5 200.5,-123.5 34.5,-123.5"/>
<text text-anchor="middle" x="117.5" y="-130.5" font-family="Helvetica,sans-Serif" font-size="10.00">src/model/files/FileExceptions.cpp</text>
</a>
</g>
</g>
<!-- Node2 -->
<g id="node2" class="node">
<title>Node2</title>
<g id="a_node2"><a xlink:href="_file_exceptions_8h.html" target="_top" xlink:title=" ">
<polygon fill="white" stroke="black" points="32,-67.5 32,-86.5 121,-86.5 121,-67.5 32,-67.5"/>
<text text-anchor="middle" x="76.5" y="-74.5" font-family="Helvetica,sans-Serif" font-size="10.00">FileExceptions.h</text>
</a>
</g>
</g>
<!-- Node1&#45;&gt;Node2 -->
<g id="edge1" class="edge">
<title>Node1&#45;&gt;Node2</title>
<path fill="none" stroke="midnightblue" d="M110.73,-123.08C104.94,-115.46 96.44,-104.26 89.36,-94.94"/>
<polygon fill="midnightblue" stroke="midnightblue" points="91.98,-92.6 83.14,-86.75 86.4,-96.83 91.98,-92.6"/>
</g>
<!-- Node4 -->
<g id="node4" class="node">
<title>Node4</title>
<g id="a_node4"><a xlink:title=" ">
<polygon fill="white" stroke="#bfbfbf" points="139,-67.5 139,-86.5 180,-86.5 180,-67.5 139,-67.5"/>
<text text-anchor="middle" x="159.5" y="-74.5" font-family="Helvetica,sans-Serif" font-size="10.00">string</text>
</a>
</g>
</g>
<!-- Node1&#45;&gt;Node4 -->
<g id="edge3" class="edge">
<title>Node1&#45;&gt;Node4</title>
<path fill="none" stroke="midnightblue" d="M124.44,-123.08C130.43,-115.38 139.25,-104.03 146.55,-94.65"/>
<polygon fill="midnightblue" stroke="midnightblue" points="149.32,-96.79 152.69,-86.75 143.79,-92.5 149.32,-96.79"/>
</g>
<!-- Node3 -->
<g id="node3" class="node">
<title>Node3</title>
<g id="a_node3"><a xlink:title=" ">
<polygon fill="white" stroke="#bfbfbf" points="0,-0.5 0,-30.5 153,-30.5 153,-0.5 0,-0.5"/>
<text text-anchor="start" x="8" y="-18.5" font-family="Helvetica,sans-Serif" font-size="10.00">gradido_blockchain</text>
<text text-anchor="middle" x="76.5" y="-7.5" font-family="Helvetica,sans-Serif" font-size="10.00">/GradidoBlockchainException.h</text>
</a>
</g>
</g>
<!-- Node2&#45;&gt;Node3 -->
<g id="edge2" class="edge">
<title>Node2&#45;&gt;Node3</title>
<path fill="none" stroke="midnightblue" d="M76.5,-67.48C76.5,-60.47 76.5,-50.19 76.5,-40.7"/>
<polygon fill="midnightblue" stroke="midnightblue" points="80,-40.52 76.5,-30.52 73,-40.52 80,-40.52"/>
</g>
</g>
</svg>
