<?xml version="1.0" encoding="UTF-8" standalone="no"?>
<!DOCTYPE svg PUBLIC "-//W3C//DTD SVG 1.1//EN"
 "http://www.w3.org/Graphics/SVG/1.1/DTD/svg11.dtd">
<!-- Generated by graphviz version 2.50.0 (20211204.2007)
 -->
<!-- Title: src/SingletonManager/FileLockManager.cpp Pages: 1 -->
<svg width="485pt" height="162pt"
 viewBox="0.00 0.00 485.00 162.00" xmlns="http://www.w3.org/2000/svg" xmlns:xlink="http://www.w3.org/1999/xlink">
<g id="graph0" class="graph" transform="scale(1 1) rotate(0) translate(4 158)">
<title>src/SingletonManager/FileLockManager.cpp</title>
<polygon fill="white" stroke="transparent" points="-4,4 -4,-158 481,-158 481,4 -4,4"/>
<!-- Node1 -->
<g id="node1" class="node">
<title>Node1</title>
<g id="a_node1"><a xlink:title=" ">
<polygon fill="#bfbfbf" stroke="black" points="170,-123.5 170,-153.5 283,-153.5 283,-123.5 170,-123.5"/>
<text text-anchor="start" x="178" y="-141.5" font-family="Helvetica,sans-Serif" font-size="10.00">src/SingletonManager</text>
<text text-anchor="middle" x="226.5" y="-130.5" font-family="Helvetica,sans-Serif" font-size="10.00">/FileLockManager.cpp</text>
</a>
</g>
</g>
<!-- Node2 -->
<g id="node2" class="node">
<title>Node2</title>
<g id="a_node2"><a xlink:href="_file_lock_manager_8h.html" target="_top" xlink:title=" ">
<polygon fill="white" stroke="black" points="41,-67.5 41,-86.5 140,-86.5 140,-67.5 41,-67.5"/>
<text text-anchor="middle" x="90.5" y="-74.5" font-family="Helvetica,sans-Serif" font-size="10.00">FileLockManager.h</text>
</a>
</g>
</g>
<!-- Node1&#45;&gt;Node2 -->
<g id="edge1" class="edge">
<title>Node1&#45;&gt;Node2</title>
<path fill="none" stroke="midnightblue" d="M194.27,-123.4C171.66,-113.51 141.66,-100.38 119.74,-90.79"/>
<polygon fill="midnightblue" stroke="midnightblue" points="120.85,-87.46 110.29,-86.66 118.05,-93.87 120.85,-87.46"/>
</g>
<!-- Node5 -->
<g id="node5" class="node">
<title>Node5</title>
<g id="a_node5"><a xlink:title=" ">
<polygon fill="white" stroke="#bfbfbf" points="158.5,-67.5 158.5,-86.5 210.5,-86.5 210.5,-67.5 158.5,-67.5"/>
<text text-anchor="middle" x="184.5" y="-74.5" font-family="Helvetica,sans-Serif" font-size="10.00">assert.h</text>
</a>
</g>
</g>
<!-- Node1&#45;&gt;Node5 -->
<g id="edge4" class="edge">
<title>Node1&#45;&gt;Node5</title>
<path fill="none" stroke="midnightblue" d="M216.55,-123.4C210.51,-114.84 202.76,-103.87 196.4,-94.86"/>
<polygon fill="midnightblue" stroke="midnightblue" points="199.24,-92.81 190.61,-86.66 193.52,-96.85 199.24,-92.81"/>
</g>
<!-- Node6 -->
<g id="node6" class="node">
<title>Node6</title>
<g id="a_node6"><a xlink:title=" ">
<polygon fill="white" stroke="#bfbfbf" points="228.5,-67.5 228.5,-86.5 308.5,-86.5 308.5,-67.5 228.5,-67.5"/>
<text text-anchor="middle" x="268.5" y="-74.5" font-family="Helvetica,sans-Serif" font-size="10.00">Poco/Thread.h</text>
</a>
</g>
</g>
<!-- Node1&#45;&gt;Node6 -->
<g id="edge5" class="edge">
<title>Node1&#45;&gt;Node6</title>
<path fill="none" stroke="midnightblue" d="M236.45,-123.4C242.49,-114.84 250.24,-103.87 256.6,-94.86"/>
<polygon fill="midnightblue" stroke="midnightblue" points="259.48,-96.85 262.39,-86.66 253.76,-92.81 259.48,-96.85"/>
</g>
<!-- Node7 -->
<g id="node7" class="node">
<title>Node7</title>
<g id="a_node7"><a xlink:href="_file_exceptions_8h.html" target="_top" xlink:title=" ">
<polygon fill="white" stroke="black" points="326.5,-67.5 326.5,-86.5 474.5,-86.5 474.5,-67.5 326.5,-67.5"/>
<text text-anchor="middle" x="400.5" y="-74.5" font-family="Helvetica,sans-Serif" font-size="10.00">../model/files/FileExceptions.h</text>
</a>
</g>
</g>
<!-- Node1&#45;&gt;Node7 -->
<g id="edge6" class="edge">
<title>Node1&#45;&gt;Node7</title>
<path fill="none" stroke="midnightblue" d="M267.74,-123.4C297.67,-113.16 337.71,-99.47 365.97,-89.81"/>
<polygon fill="midnightblue" stroke="midnightblue" points="367.11,-93.12 375.44,-86.57 364.84,-86.49 367.11,-93.12"/>
</g>
<!-- Node3 -->
<g id="node3" class="node">
<title>Node3</title>
<g id="a_node3"><a xlink:title=" ">
<polygon fill="white" stroke="#bfbfbf" points="0,-6 0,-25 83,-25 83,-6 0,-6"/>
<text text-anchor="middle" x="41.5" y="-13" font-family="Helvetica,sans-Serif" font-size="10.00">unordered_map</text>
</a>
</g>
</g>
<!-- Node2&#45;&gt;Node3 -->
<g id="edge2" class="edge">
<title>Node2&#45;&gt;Node3</title>
<path fill="none" stroke="midnightblue" d="M83.48,-67.48C76.06,-58.46 64.17,-44.02 54.93,-32.81"/>
<polygon fill="midnightblue" stroke="midnightblue" points="57.57,-30.5 48.51,-25.01 52.16,-34.95 57.57,-30.5"/>
</g>
<!-- Node4 -->
<g id="node4" class="node">
<title>Node4</title>
<g id="a_node4"><a xlink:title=" ">
<polygon fill="white" stroke="#bfbfbf" points="101,-6 101,-25 178,-25 178,-6 101,-6"/>
<text text-anchor="middle" x="139.5" y="-13" font-family="Helvetica,sans-Serif" font-size="10.00">Poco/Mutex.h</text>
</a>
</g>
</g>
<!-- Node2&#45;&gt;Node4 -->
<g id="edge3" class="edge">
<title>Node2&#45;&gt;Node4</title>
<path fill="none" stroke="midnightblue" d="M97.52,-67.48C104.94,-58.46 116.83,-44.02 126.07,-32.81"/>
<polygon fill="midnightblue" stroke="midnightblue" points="128.84,-34.95 132.49,-25.01 123.43,-30.5 128.84,-34.95"/>
</g>
<!-- Node8 -->
<g id="node8" class="node">
<title>Node8</title>
<g id="a_node8"><a xlink:title=" ">
<polygon fill="white" stroke="#bfbfbf" points="324,-0.5 324,-30.5 477,-30.5 477,-0.5 324,-0.5"/>
<text text-anchor="start" x="332" y="-18.5" font-family="Helvetica,sans-Serif" font-size="10.00">gradido_blockchain</text>
<text text-anchor="middle" x="400.5" y="-7.5" font-family="Helvetica,sans-Serif" font-size="10.00">/GradidoBlockchainException.h</text>
</a>
</g>
</g>
<!-- Node7&#45;&gt;Node8 -->
<g id="edge7" class="edge">
<title>Node7&#45;&gt;Node8</title>
<path fill="none" stroke="midnightblue" d="M400.5,-67.48C400.5,-60.47 400.5,-50.19 400.5,-40.7"/>
<polygon fill="midnightblue" stroke="midnightblue" points="404,-40.52 400.5,-30.52 397,-40.52 404,-40.52"/>
</g>
</g>
</svg>
