<?xml version="1.0" encoding="UTF-8" standalone="no"?>
<!DOCTYPE svg PUBLIC "-//W3C//DTD SVG 1.1//EN"
 "http://www.w3.org/Graphics/SVG/1.1/DTD/svg11.dtd">
<!-- Generated by graphviz version 2.50.0 (20211204.2007)
 -->
<!-- Title: src/model/files/FileExceptions.h Pages: 1 -->
<svg width="485pt" height="95pt"
 viewBox="0.00 0.00 484.50 95.00" xmlns="http://www.w3.org/2000/svg" xmlns:xlink="http://www.w3.org/1999/xlink">
<g id="graph0" class="graph" transform="scale(1 1) rotate(0) translate(4 91)">
<title>src/model/files/FileExceptions.h</title>
<polygon fill="white" stroke="transparent" points="-4,4 -4,-91 480.5,-91 480.5,4 -4,4"/>
<!-- Node1 -->
<g id="node1" class="node">
<title>Node1</title>
<g id="a_node1"><a xlink:title=" ">
<polygon fill="#bfbfbf" stroke="black" points="134,-67.5 134,-86.5 289,-86.5 289,-67.5 134,-67.5"/>
<text text-anchor="middle" x="211.5" y="-74.5" font-family="Helvetica,sans-Serif" font-size="10.00">src/model/files/FileExceptions.h</text>
</a>
</g>
</g>
<!-- Node2 -->
<g id="node2" class="node">
<title>Node2</title>
<g id="a_node2"><a xlink:href="_file_lock_manager_8cpp.html" target="_top" xlink:title=" ">
<polygon fill="white" stroke="black" points="0,-0.5 0,-30.5 113,-30.5 113,-0.5 0,-0.5"/>
<text text-anchor="start" x="8" y="-18.5" font-family="Helvetica,sans-Serif" font-size="10.00">src/SingletonManager</text>
<text text-anchor="middle" x="56.5" y="-7.5" font-family="Helvetica,sans-Serif" font-size="10.00">/FileLockManager.cpp</text>
</a>
</g>
</g>
<!-- Node1&#45;&gt;Node2 -->
<g id="edge1" class="edge">
<title>Node1&#45;&gt;Node2</title>
<path fill="none" stroke="midnightblue" d="M179.84,-63.85C154.66,-54.18 119.4,-40.65 93.03,-30.52"/>
<polygon fill="midnightblue" stroke="midnightblue" points="178.7,-67.16 189.29,-67.48 181.21,-60.62 178.7,-67.16"/>
</g>
<!-- Node3 -->
<g id="node3" class="node">
<title>Node3</title>
<g id="a_node3"><a xlink:href="model_2files_2_address_index_8cpp.html" target="_top" xlink:title=" ">
<polygon fill="white" stroke="black" points="131,-6 131,-25 292,-25 292,-6 131,-6"/>
<text text-anchor="middle" x="211.5" y="-13" font-family="Helvetica,sans-Serif" font-size="10.00">src/model/files/AddressIndex.cpp</text>
</a>
</g>
</g>
<!-- Node1&#45;&gt;Node3 -->
<g id="edge2" class="edge">
<title>Node1&#45;&gt;Node3</title>
<path fill="none" stroke="midnightblue" d="M211.5,-57.32C211.5,-46.5 211.5,-33.4 211.5,-25.01"/>
<polygon fill="midnightblue" stroke="midnightblue" points="208,-57.48 211.5,-67.48 215,-57.48 208,-57.48"/>
</g>
<!-- Node4 -->
<g id="node4" class="node">
<title>Node4</title>
<g id="a_node4"><a xlink:href="_file_exceptions_8cpp.html" target="_top" xlink:title=" ">
<polygon fill="white" stroke="black" points="310.5,-6 310.5,-25 476.5,-25 476.5,-6 310.5,-6"/>
<text text-anchor="middle" x="393.5" y="-13" font-family="Helvetica,sans-Serif" font-size="10.00">src/model/files/FileExceptions.cpp</text>
</a>
</g>
</g>
<!-- Node1&#45;&gt;Node4 -->
<g id="edge3" class="edge">
<title>Node1&#45;&gt;Node4</title>
<path fill="none" stroke="midnightblue" d="M247.5,-64.23C282.87,-52.67 336,-35.3 367.47,-25.01"/>
<polygon fill="midnightblue" stroke="midnightblue" points="245.99,-61.04 237.58,-67.48 248.17,-67.69 245.99,-61.04"/>
</g>
</g>
</svg>
