<?xml version="1.0" encoding="UTF-8" standalone="no"?>
<!DOCTYPE svg PUBLIC "-//W3C//DTD SVG 1.1//EN"
 "http://www.w3.org/Graphics/SVG/1.1/DTD/svg11.dtd">
<!-- Generated by graphviz version 2.50.0 (20211204.2007)
 -->
<!-- Title: src/SingletonManager/FileLockManager.h Pages: 1 -->
<svg width="741pt" height="106pt"
 viewBox="0.00 0.00 741.00 106.00" xmlns="http://www.w3.org/2000/svg" xmlns:xlink="http://www.w3.org/1999/xlink">
<g id="graph0" class="graph" transform="scale(1 1) rotate(0) translate(4 102)">
<title>src/SingletonManager/FileLockManager.h</title>
<polygon fill="white" stroke="transparent" points="-4,4 -4,-102 737,-102 737,4 -4,4"/>
<!-- Node1 -->
<g id="node1" class="node">
<title>Node1</title>
<g id="a_node1"><a xlink:title=" ">
<polygon fill="#bfbfbf" stroke="black" points="283,-67.5 283,-97.5 394,-97.5 394,-67.5 283,-67.5"/>
<text text-anchor="start" x="291" y="-85.5" font-family="Helvetica,sans-Serif" font-size="10.00">src/SingletonManager</text>
<text text-anchor="middle" x="338.5" y="-74.5" font-family="Helvetica,sans-Serif" font-size="10.00">/FileLockManager.h</text>
</a>
</g>
</g>
<!-- Node2 -->
<g id="node2" class="node">
<title>Node2</title>
<g id="a_node2"><a xlink:href="_file_lock_manager_8cpp.html" target="_top" xlink:title=" ">
<polygon fill="white" stroke="black" points="0,-0.5 0,-30.5 113,-30.5 113,-0.5 0,-0.5"/>
<text text-anchor="start" x="8" y="-18.5" font-family="Helvetica,sans-Serif" font-size="10.00">src/SingletonManager</text>
<text text-anchor="middle" x="56.5" y="-7.5" font-family="Helvetica,sans-Serif" font-size="10.00">/FileLockManager.cpp</text>
</a>
</g>
</g>
<!-- Node1&#45;&gt;Node2 -->
<g id="edge1" class="edge">
<title>Node1&#45;&gt;Node2</title>
<path fill="none" stroke="midnightblue" d="M273.02,-66.41C224.58,-55.24 159.25,-40.18 113.06,-29.54"/>
<polygon fill="midnightblue" stroke="midnightblue" points="272.26,-69.82 282.79,-68.66 273.83,-63 272.26,-69.82"/>
</g>
<!-- Node3 -->
<g id="node3" class="node">
<title>Node3</title>
<g id="a_node3"><a xlink:href="_virtual_file_8cpp.html" target="_top" xlink:title=" ">
<polygon fill="white" stroke="black" points="131.5,-6 131.5,-25 239.5,-25 239.5,-6 131.5,-6"/>
<text text-anchor="middle" x="185.5" y="-13" font-family="Helvetica,sans-Serif" font-size="10.00">src/lib/VirtualFile.cpp</text>
</a>
</g>
</g>
<!-- Node1&#45;&gt;Node3 -->
<g id="edge2" class="edge">
<title>Node1&#45;&gt;Node3</title>
<path fill="none" stroke="midnightblue" d="M296.03,-63.46C266.47,-50.9 228.4,-34.72 205.52,-25.01"/>
<polygon fill="midnightblue" stroke="midnightblue" points="294.73,-66.71 305.3,-67.4 297.47,-60.26 294.73,-66.71"/>
</g>
<!-- Node4 -->
<g id="node4" class="node">
<title>Node4</title>
<g id="a_node4"><a xlink:href="model_2files_2_address_index_8cpp.html" target="_top" xlink:title=" ">
<polygon fill="white" stroke="black" points="258,-6 258,-25 419,-25 419,-6 258,-6"/>
<text text-anchor="middle" x="338.5" y="-13" font-family="Helvetica,sans-Serif" font-size="10.00">src/model/files/AddressIndex.cpp</text>
</a>
</g>
</g>
<!-- Node1&#45;&gt;Node4 -->
<g id="edge3" class="edge">
<title>Node1&#45;&gt;Node4</title>
<path fill="none" stroke="midnightblue" d="M338.5,-57.25C338.5,-46.02 338.5,-33.38 338.5,-25.19"/>
<polygon fill="midnightblue" stroke="midnightblue" points="335,-57.4 338.5,-67.4 342,-57.4 335,-57.4"/>
</g>
<!-- Node5 -->
<g id="node5" class="node">
<title>Node5</title>
<g id="a_node5"><a xlink:href="model_2files_2_block_8cpp.html" target="_top" xlink:title=" ">
<polygon fill="white" stroke="black" points="437.5,-6 437.5,-25 563.5,-25 563.5,-6 437.5,-6"/>
<text text-anchor="middle" x="500.5" y="-13" font-family="Helvetica,sans-Serif" font-size="10.00">src/model/files/Block.cpp</text>
</a>
</g>
</g>
<!-- Node1&#45;&gt;Node5 -->
<g id="edge4" class="edge">
<title>Node1&#45;&gt;Node5</title>
<path fill="none" stroke="midnightblue" d="M383.06,-63.62C414.42,-51.04 454.98,-34.77 479.3,-25.01"/>
<polygon fill="midnightblue" stroke="midnightblue" points="381.63,-60.42 373.65,-67.4 384.24,-66.92 381.63,-60.42"/>
</g>
<!-- Node6 -->
<g id="node6" class="node">
<title>Node6</title>
<g id="a_node6"><a xlink:href="model_2files_2_group_index_8cpp.html" target="_top" xlink:title=" ">
<polygon fill="white" stroke="black" points="582,-6 582,-25 733,-25 733,-6 582,-6"/>
<text text-anchor="middle" x="657.5" y="-13" font-family="Helvetica,sans-Serif" font-size="10.00">src/model/files/GroupIndex.cpp</text>
</a>
</g>
</g>
<!-- Node1&#45;&gt;Node6 -->
<g id="edge5" class="edge">
<title>Node1&#45;&gt;Node6</title>
<path fill="none" stroke="midnightblue" d="M403.98,-68.16C467.47,-55.22 561.88,-35.98 615.78,-25"/>
<polygon fill="midnightblue" stroke="midnightblue" points="403.17,-64.75 394.07,-70.18 404.56,-71.61 403.17,-64.75"/>
</g>
</g>
</svg>
