<?xml version="1.0" encoding="UTF-8" standalone="no"?>
<!DOCTYPE svg PUBLIC "-//W3C//DTD SVG 1.1//EN"
 "http://www.w3.org/Graphics/SVG/1.1/DTD/svg11.dtd">
<!-- Generated by graphviz version 2.50.0 (20211204.2007)
 -->
<!-- Title: src/model/files/FileBase.h Pages: 1 -->
<!--zoomable 408 -->
<svg id="main" version="1.1" xmlns="http://www.w3.org/2000/svg" xmlns:xlink="http://www.w3.org/1999/xlink" xml:space="preserve" onload="init(evt)">
<style type="text/css"><![CDATA[
.edge:hover path { stroke: red; }
.edge:hover polygon { stroke: red; fill: red; }
]]></style>
<script type="text/javascript"><![CDATA[
var edges = document.getElementsByTagName('g');
if (edges && edges.length) {
  for (var i=0;i<edges.length;i++) {
    if (edges[i].id.substr(0,4)=='edge') {
      edges[i].setAttribute('class','edge');
    }
  }
}
]]></script>
        <defs>
                <circle id="rim" cx="0" cy="0" r="7"/>
                <circle id="rim2" cx="0" cy="0" r="3.5"/>
                <g id="zoomPlus">
                        <use xlink:href="#rim" fill="#404040">
                                <set attributeName="fill" to="#808080" begin="zoomplus.mouseover" end="zoomplus.mouseout"/>
                        </use>
                        <path d="M-4,0h8M0,-4v8" fill="none" stroke="white" stroke-width="1.5" pointer-events="none"/>
                </g>
                <g id="zoomMin">
                        <use xlink:href="#rim" fill="#404040">
                                <set attributeName="fill" to="#808080" begin="zoomminus.mouseover" end="zoomminus.mouseout"/>
                        </use>
                        <path d="M-4,0h8" fill="none" stroke="white" stroke-width="1.5" pointer-events="none"/>
                </g>
                <g id="dirArrow">
                        <path fill="none" stroke="white" stroke-width="1.5" d="M0,-3.0v7 M-2.5,-0.5L0,-3.0L2.5,-0.5"/>
                </g>
               <g id="resetDef">
                       <use xlink:href="#rim2" fill="#404040">
                               <set attributeName="fill" to="#808080" begin="reset.mouseover" end="reset.mouseout"/>
                       </use>
               </g>
        </defs>

<script type="text/javascript">
var viewWidth = 1741;
var viewHeight = 408;
var sectionId = 'dynsection-1';
</script>
<script xlink:href="svgpan.js"/>
<svg id="graph" class="graph">
<g id="viewport">
<title>src/model/files/FileBase.h</title>
<polygon fill="white" stroke="transparent" points="-4,4 -4,-404 1737,-404 1737,4 -4,4"/>
<!-- Node1 -->
<g id="node1" class="node">
<title>Node1</title>
<g id="a_node1"><a xlink:title=" ">
<polygon fill="#bfbfbf" stroke="black" points="673,-380.5 673,-399.5 802,-399.5 802,-380.5 673,-380.5"/>
<text text-anchor="middle" x="737.5" y="-387.5" font-family="Helvetica,sans-Serif" font-size="10.00">src/model/files/FileBase.h</text>
</a>
</g>
</g>
<!-- Node2 -->
<g id="node2" class="node">
<title>Node2</title>
<g id="a_node2"><a xlink:href="model_2files_2_address_index_8h.html" target="_top" xlink:title=" ">
<polygon fill="white" stroke="black" points="175.5,-324.5 175.5,-343.5 325.5,-343.5 325.5,-324.5 175.5,-324.5"/>
<text text-anchor="middle" x="250.5" y="-331.5" font-family="Helvetica,sans-Serif" font-size="10.00">src/model/files/AddressIndex.h</text>
</a>
</g>
</g>
<!-- Node1&#45;&gt;Node2 -->
<g id="edge1" class="edge">
<title>Node1&#45;&gt;Node2</title>
<path fill="none" stroke="midnightblue" d="M662.82,-380.72C571.42,-370.58 417.54,-353.52 325.84,-343.35"/>
<polygon fill="midnightblue" stroke="midnightblue" points="662.51,-384.21 672.83,-381.83 663.28,-377.25 662.51,-384.21"/>
</g>
<!-- Node23 -->
<g id="node23" class="node">
<title>Node23</title>
<g id="a_node23"><a xlink:href="model_2files_2_block_8h.html" target="_top" xlink:title=" ">
<polygon fill="white" stroke="black" points="692.5,-140 692.5,-159 808.5,-159 808.5,-140 692.5,-140"/>
<text text-anchor="middle" x="750.5" y="-147" font-family="Helvetica,sans-Serif" font-size="10.00">src/model/files/Block.h</text>
</a>
</g>
</g>
<!-- Node1&#45;&gt;Node23 -->
<g id="edge24" class="edge">
<title>Node1&#45;&gt;Node23</title>
<path fill="none" stroke="midnightblue" d="M738.53,-370.17C741.17,-321.6 748.16,-193.49 750.03,-159.1"/>
<polygon fill="midnightblue" stroke="midnightblue" points="735.03,-370.05 737.98,-380.23 742.02,-370.43 735.03,-370.05"/>
</g>
<!-- Node25 -->
<g id="node25" class="node">
<title>Node25</title>
<g id="a_node25"><a xlink:href="model_2files_2_block_index_8h.html" target="_top" xlink:title=" ">
<polygon fill="white" stroke="black" points="557,-324.5 557,-343.5 696,-343.5 696,-324.5 557,-324.5"/>
<text text-anchor="middle" x="626.5" y="-331.5" font-family="Helvetica,sans-Serif" font-size="10.00">src/model/files/BlockIndex.h</text>
</a>
</g>
</g>
<!-- Node1&#45;&gt;Node25 -->
<g id="edge28" class="edge">
<title>Node1&#45;&gt;Node25</title>
<path fill="none" stroke="midnightblue" d="M710.49,-375.86C689.91,-365.85 662.16,-352.35 644.29,-343.65"/>
<polygon fill="midnightblue" stroke="midnightblue" points="709.14,-379.1 719.67,-380.32 712.2,-372.8 709.14,-379.1"/>
</g>
<!-- Node27 -->
<g id="node27" class="node">
<title>Node27</title>
<g id="a_node27"><a xlink:href="_file_base_8cpp.html" target="_top" xlink:title=" ">
<polygon fill="white" stroke="black" points="765.5,-324.5 765.5,-343.5 905.5,-343.5 905.5,-324.5 765.5,-324.5"/>
<text text-anchor="middle" x="835.5" y="-331.5" font-family="Helvetica,sans-Serif" font-size="10.00">src/model/files/FileBase.cpp</text>
</a>
</g>
</g>
<!-- Node1&#45;&gt;Node27 -->
<g id="edge36" class="edge">
<title>Node1&#45;&gt;Node27</title>
<path fill="none" stroke="midnightblue" d="M762.09,-375.45C780.18,-365.48 804.23,-352.23 819.79,-343.65"/>
<polygon fill="midnightblue" stroke="midnightblue" points="760.31,-372.43 753.25,-380.32 763.69,-378.56 760.31,-372.43"/>
</g>
<!-- Node28 -->
<g id="node28" class="node">
<title>Node28</title>
<g id="a_node28"><a xlink:href="_state_8h.html" target="_top" xlink:title=" ">
<polygon fill="white" stroke="black" points="1274.5,-268.5 1274.5,-287.5 1388.5,-287.5 1388.5,-268.5 1274.5,-268.5"/>
<text text-anchor="middle" x="1331.5" y="-275.5" font-family="Helvetica,sans-Serif" font-size="10.00">src/model/files/State.h</text>
</a>
</g>
</g>
<!-- Node1&#45;&gt;Node28 -->
<g id="edge37" class="edge">
<title>Node1&#45;&gt;Node28</title>
<path fill="none" stroke="midnightblue" d="M793.78,-378.58C910.69,-356.93 1177.88,-307.45 1285.41,-287.53"/>
<polygon fill="midnightblue" stroke="midnightblue" points="792.81,-375.2 783.62,-380.46 794.09,-382.08 792.81,-375.2"/>
</g>
<!-- Node3 -->
<g id="node3" class="node">
<title>Node3</title>
<g id="a_node3"><a xlink:href="controller_2_address_index_8h.html" target="_top" xlink:title=" ">
<polygon fill="white" stroke="black" points="179,-268.5 179,-287.5 322,-287.5 322,-268.5 179,-268.5"/>
<text text-anchor="middle" x="250.5" y="-275.5" font-family="Helvetica,sans-Serif" font-size="10.00">src/controller/AddressIndex.h</text>
</a>
</g>
</g>
<!-- Node2&#45;&gt;Node3 -->
<g id="edge2" class="edge">
<title>Node2&#45;&gt;Node3</title>
<path fill="none" stroke="midnightblue" d="M250.5,-313.8C250.5,-304.91 250.5,-294.78 250.5,-287.75"/>
<polygon fill="midnightblue" stroke="midnightblue" points="247,-314.08 250.5,-324.08 254,-314.08 247,-314.08"/>
</g>
<!-- Node22 -->
<g id="node22" class="node">
<title>Node22</title>
<g id="a_node22"><a xlink:href="model_2files_2_address_index_8cpp.html" target="_top" xlink:title=" ">
<polygon fill="white" stroke="black" points="0,-268.5 0,-287.5 161,-287.5 161,-268.5 0,-268.5"/>
<text text-anchor="middle" x="80.5" y="-275.5" font-family="Helvetica,sans-Serif" font-size="10.00">src/model/files/AddressIndex.cpp</text>
</a>
</g>
</g>
<!-- Node2&#45;&gt;Node22 -->
<g id="edge23" class="edge">
<title>Node2&#45;&gt;Node22</title>
<path fill="none" stroke="midnightblue" d="M213.68,-321.3C181.65,-311.13 135.98,-296.62 107.31,-287.52"/>
<polygon fill="midnightblue" stroke="midnightblue" points="212.97,-324.75 223.56,-324.44 215.09,-318.08 212.97,-324.75"/>
</g>
<!-- Node4 -->
<g id="node4" class="node">
<title>Node4</title>
<g id="a_node4"><a xlink:href="controller_2_address_index_8cpp.html" target="_top" xlink:title=" ">
<polygon fill="white" stroke="black" points="168.5,-207 168.5,-226 322.5,-226 322.5,-207 168.5,-207"/>
<text text-anchor="middle" x="245.5" y="-214" font-family="Helvetica,sans-Serif" font-size="10.00">src/controller/AddressIndex.cpp</text>
</a>
</g>
</g>
<!-- Node3&#45;&gt;Node4 -->
<g id="edge3" class="edge">
<title>Node3&#45;&gt;Node4</title>
<path fill="none" stroke="midnightblue" d="M248.93,-258.32C248.02,-247.5 246.92,-234.4 246.22,-226.01"/>
<polygon fill="midnightblue" stroke="midnightblue" points="245.46,-258.8 249.78,-268.48 252.43,-258.22 245.46,-258.8"/>
</g>
<!-- Node5 -->
<g id="node5" class="node">
<title>Node5</title>
<g id="a_node5"><a xlink:href="_group_8h.html" target="_top" xlink:title=" ">
<polygon fill="white" stroke="black" points="1166.5,-207 1166.5,-226 1276.5,-226 1276.5,-207 1166.5,-207"/>
<text text-anchor="middle" x="1221.5" y="-214" font-family="Helvetica,sans-Serif" font-size="10.00">src/controller/Group.h</text>
</a>
</g>
</g>
<!-- Node3&#45;&gt;Node5 -->
<g id="edge4" class="edge">
<title>Node3&#45;&gt;Node5</title>
<path fill="none" stroke="midnightblue" d="M332.36,-271.98C525.1,-260.17 1003.49,-230.86 1166.26,-220.89"/>
<polygon fill="midnightblue" stroke="midnightblue" points="332.06,-268.5 322.29,-272.6 332.49,-275.48 332.06,-268.5"/>
</g>
<!-- Node6 -->
<g id="node6" class="node">
<title>Node6</title>
<g id="a_node6"><a xlink:href="_group_manager_8h.html" target="_top" xlink:title=" ">
<polygon fill="white" stroke="black" points="1166,-134.5 1166,-164.5 1277,-164.5 1277,-134.5 1166,-134.5"/>
<text text-anchor="start" x="1174" y="-152.5" font-family="Helvetica,sans-Serif" font-size="10.00">src/SingletonManager</text>
<text text-anchor="middle" x="1221.5" y="-141.5" font-family="Helvetica,sans-Serif" font-size="10.00">/GroupManager.h</text>
</a>
</g>
</g>
<!-- Node5&#45;&gt;Node6 -->
<g id="edge5" class="edge">
<title>Node5&#45;&gt;Node6</title>
<path fill="none" stroke="midnightblue" d="M1221.5,-196.41C1221.5,-186.22 1221.5,-173.9 1221.5,-164.59"/>
<polygon fill="midnightblue" stroke="midnightblue" points="1218,-196.73 1221.5,-206.73 1225,-196.73 1218,-196.73"/>
</g>
<!-- Node10 -->
<g id="node10" class="node">
<title>Node10</title>
<g id="a_node10"><a xlink:href="_group_8cpp.html" target="_top" xlink:title=" ">
<polygon fill="white" stroke="black" points="1047,-6 1047,-25 1168,-25 1168,-6 1047,-6"/>
<text text-anchor="middle" x="1107.5" y="-13" font-family="Helvetica,sans-Serif" font-size="10.00">src/controller/Group.cpp</text>
</a>
</g>
</g>
<!-- Node5&#45;&gt;Node10 -->
<g id="edge12" class="edge">
<title>Node5&#45;&gt;Node10</title>
<path fill="none" stroke="midnightblue" d="M1256.92,-203.8C1344.83,-174.73 1566.12,-101.31 1568.5,-98 1576.53,-86.8 1577.7,-77.26 1568.5,-67 1542.23,-37.7 1287.23,-23.7 1168.17,-18.72"/>
<polygon fill="midnightblue" stroke="midnightblue" points="1255.77,-200.5 1247.37,-206.96 1257.97,-207.14 1255.77,-200.5"/>
</g>
<!-- Node12 -->
<g id="node12" class="node">
<title>Node12</title>
<g id="a_node12"><a xlink:href="_ordering_manager_8cpp.html" target="_top" xlink:title=" ">
<polygon fill="white" stroke="black" points="1475,-134.5 1475,-164.5 1588,-164.5 1588,-134.5 1475,-134.5"/>
<text text-anchor="start" x="1483" y="-152.5" font-family="Helvetica,sans-Serif" font-size="10.00">src/SingletonManager</text>
<text text-anchor="middle" x="1531.5" y="-141.5" font-family="Helvetica,sans-Serif" font-size="10.00">/OrderingManager.cpp</text>
</a>
</g>
</g>
<!-- Node5&#45;&gt;Node12 -->
<g id="edge11" class="edge">
<title>Node5&#45;&gt;Node12</title>
<path fill="none" stroke="midnightblue" d="M1272.33,-204.84C1327.96,-193.18 1416.91,-174.53 1474.77,-162.39"/>
<polygon fill="midnightblue" stroke="midnightblue" points="1271.41,-201.46 1262.35,-206.94 1272.85,-208.31 1271.41,-201.46"/>
</g>
<!-- Node13 -->
<g id="node13" class="node">
<title>Node13</title>
<g id="a_node13"><a xlink:href="_transaction_entry_8h.html" target="_top" xlink:title=" ">
<polygon fill="white" stroke="black" points="454.5,-140 454.5,-159 598.5,-159 598.5,-140 454.5,-140"/>
<text text-anchor="middle" x="526.5" y="-147" font-family="Helvetica,sans-Serif" font-size="10.00">src/model/TransactionEntry.h</text>
</a>
</g>
</g>
<!-- Node5&#45;&gt;Node13 -->
<g id="edge13" class="edge">
<title>Node5&#45;&gt;Node13</title>
<path fill="none" stroke="midnightblue" d="M1156.16,-209.39C1025.84,-197.2 734.5,-169.95 598.73,-157.26"/>
<polygon fill="midnightblue" stroke="midnightblue" points="1156.1,-212.9 1166.38,-210.35 1156.75,-205.93 1156.1,-212.9"/>
</g>
<!-- Node7 -->
<g id="node7" class="node">
<title>Node7</title>
<g id="a_node7"><a xlink:href="_json_r_p_c_handler_8cpp.html" target="_top" xlink:title=" ">
<polygon fill="white" stroke="black" points="1325.5,-67.5 1325.5,-97.5 1441.5,-97.5 1441.5,-67.5 1325.5,-67.5"/>
<text text-anchor="start" x="1333.5" y="-85.5" font-family="Helvetica,sans-Serif" font-size="10.00">src/JSONRPCInterface</text>
<text text-anchor="middle" x="1383.5" y="-74.5" font-family="Helvetica,sans-Serif" font-size="10.00">/JsonRPCHandler.cpp</text>
</a>
</g>
</g>
<!-- Node6&#45;&gt;Node7 -->
<g id="edge6" class="edge">
<title>Node6&#45;&gt;Node7</title>
<path fill="none" stroke="midnightblue" d="M1266.25,-130.54C1292.17,-120.14 1324.34,-107.24 1348.42,-97.58"/>
<polygon fill="midnightblue" stroke="midnightblue" points="1264.63,-127.42 1256.65,-134.4 1267.24,-133.92 1264.63,-127.42"/>
</g>
<!-- Node8 -->
<g id="node8" class="node">
<title>Node8</title>
<g id="a_node8"><a xlink:href="_main_server_8cpp.html" target="_top" xlink:title=" ">
<polygon fill="white" stroke="black" points="1459.5,-73 1459.5,-92 1559.5,-92 1559.5,-73 1459.5,-73"/>
<text text-anchor="middle" x="1509.5" y="-80" font-family="Helvetica,sans-Serif" font-size="10.00">src/MainServer.cpp</text>
</a>
</g>
</g>
<!-- Node6&#45;&gt;Node8 -->
<g id="edge7" class="edge">
<title>Node6&#45;&gt;Node8</title>
<path fill="none" stroke="midnightblue" d="M1286.93,-134.51C1332.78,-124.59 1395.46,-110.83 1450.5,-98 1458.51,-96.13 1467.12,-94.06 1475.22,-92.07"/>
<polygon fill="midnightblue" stroke="midnightblue" points="1286.15,-131.09 1277.11,-136.63 1287.63,-137.94 1286.15,-131.09"/>
</g>
<!-- Node9 -->
<g id="node9" class="node">
<title>Node9</title>
<g id="a_node9"><a xlink:href="_group_manager_8cpp.html" target="_top" xlink:title=" ">
<polygon fill="white" stroke="black" points="968,-67.5 968,-97.5 1079,-97.5 1079,-67.5 968,-67.5"/>
<text text-anchor="start" x="976" y="-85.5" font-family="Helvetica,sans-Serif" font-size="10.00">src/SingletonManager</text>
<text text-anchor="middle" x="1023.5" y="-74.5" font-family="Helvetica,sans-Serif" font-size="10.00">/GroupManager.cpp</text>
</a>
</g>
</g>
<!-- Node6&#45;&gt;Node9 -->
<g id="edge8" class="edge">
<title>Node6&#45;&gt;Node9</title>
<path fill="none" stroke="midnightblue" d="M1168.89,-131.23C1136.86,-120.71 1096.46,-107.45 1066.38,-97.58"/>
<polygon fill="midnightblue" stroke="midnightblue" points="1167.94,-134.6 1178.54,-134.4 1170.13,-127.95 1167.94,-134.6"/>
</g>
<!-- Node6&#45;&gt;Node10 -->
<g id="edge9" class="edge">
<title>Node6&#45;&gt;Node10</title>
<path fill="none" stroke="midnightblue" d="M1168.61,-130.26C1153.01,-122.53 1137.26,-111.99 1126.5,-98 1109.49,-75.89 1107.31,-41.1 1107.28,-25.09"/>
<polygon fill="midnightblue" stroke="midnightblue" points="1167.19,-133.46 1177.73,-134.49 1170.14,-127.11 1167.19,-133.46"/>
</g>
<!-- Node11 -->
<g id="node11" class="node">
<title>Node11</title>
<g id="a_node11"><a xlink:href="_iota_message_to_transaction_task_8cpp.html" target="_top" xlink:title=" ">
<polygon fill="white" stroke="black" points="1136,-67.5 1136,-97.5 1307,-97.5 1307,-67.5 1136,-67.5"/>
<text text-anchor="start" x="1144" y="-85.5" font-family="Helvetica,sans-Serif" font-size="10.00">src/task/IotaMessageToTransaction</text>
<text text-anchor="middle" x="1221.5" y="-74.5" font-family="Helvetica,sans-Serif" font-size="10.00">Task.cpp</text>
</a>
</g>
</g>
<!-- Node6&#45;&gt;Node11 -->
<g id="edge10" class="edge">
<title>Node6&#45;&gt;Node11</title>
<path fill="none" stroke="midnightblue" d="M1221.5,-124.11C1221.5,-115.15 1221.5,-105.32 1221.5,-97.58"/>
<polygon fill="midnightblue" stroke="midnightblue" points="1218,-124.4 1221.5,-134.4 1225,-124.4 1218,-124.4"/>
</g>
<!-- Node14 -->
<g id="node14" class="node">
<title>Node14</title>
<g id="a_node14"><a xlink:href="controller_2_block_8h.html" target="_top" xlink:title=" ">
<polygon fill="white" stroke="black" points="696,-73 696,-92 805,-92 805,-73 696,-73"/>
<text text-anchor="middle" x="750.5" y="-80" font-family="Helvetica,sans-Serif" font-size="10.00">src/controller/Block.h</text>
</a>
</g>
</g>
<!-- Node13&#45;&gt;Node14 -->
<g id="edge14" class="edge">
<title>Node13&#45;&gt;Node14</title>
<path fill="none" stroke="midnightblue" d="M566.1,-137.01C610.43,-124.15 681.25,-103.59 720.99,-92.06"/>
<polygon fill="midnightblue" stroke="midnightblue" points="564.87,-133.72 556.25,-139.87 566.82,-140.44 564.87,-133.72"/>
</g>
<!-- Node16 -->
<g id="node16" class="node">
<title>Node16</title>
<g id="a_node16"><a xlink:href="controller_2_block_index_8cpp.html" target="_top" xlink:title=" ">
<polygon fill="white" stroke="black" points="535,-73 535,-92 678,-92 678,-73 535,-73"/>
<text text-anchor="middle" x="606.5" y="-80" font-family="Helvetica,sans-Serif" font-size="10.00">src/controller/BlockIndex.cpp</text>
</a>
</g>
</g>
<!-- Node13&#45;&gt;Node16 -->
<g id="edge17" class="edge">
<title>Node13&#45;&gt;Node16</title>
<path fill="none" stroke="midnightblue" d="M545.31,-133.21C561.08,-120.41 583.01,-102.59 595.88,-92.13"/>
<polygon fill="midnightblue" stroke="midnightblue" points="542.84,-130.71 537.29,-139.73 547.26,-136.14 542.84,-130.71"/>
</g>
<!-- Node17 -->
<g id="node17" class="node">
<title>Node17</title>
<g id="a_node17"><a xlink:href="_transaction_entry_8cpp.html" target="_top" xlink:title=" ">
<polygon fill="white" stroke="black" points="362,-73 362,-92 517,-92 517,-73 362,-73"/>
<text text-anchor="middle" x="439.5" y="-80" font-family="Helvetica,sans-Serif" font-size="10.00">src/model/TransactionEntry.cpp</text>
</a>
</g>
</g>
<!-- Node13&#45;&gt;Node17 -->
<g id="edge18" class="edge">
<title>Node13&#45;&gt;Node17</title>
<path fill="none" stroke="midnightblue" d="M506.51,-133.57C489.34,-120.74 465.18,-102.69 451.05,-92.13"/>
<polygon fill="midnightblue" stroke="midnightblue" points="504.66,-136.55 514.77,-139.73 508.85,-130.94 504.66,-136.55"/>
</g>
<!-- Node18 -->
<g id="node18" class="node">
<title>Node18</title>
<g id="a_node18"><a xlink:href="model_2files_2_block_index_8cpp.html" target="_top" xlink:title=" ">
<polygon fill="white" stroke="black" points="42,-73 42,-92 191,-92 191,-73 42,-73"/>
<text text-anchor="middle" x="116.5" y="-80" font-family="Helvetica,sans-Serif" font-size="10.00">src/model/files/BlockIndex.cpp</text>
</a>
</g>
</g>
<!-- Node13&#45;&gt;Node18 -->
<g id="edge19" class="edge">
<title>Node13&#45;&gt;Node18</title>
<path fill="none" stroke="midnightblue" d="M459.37,-138.45C393.42,-128.49 289.96,-112.65 200.5,-98 188.96,-96.11 176.55,-94.01 164.89,-92"/>
<polygon fill="midnightblue" stroke="midnightblue" points="459.21,-141.96 469.62,-139.99 460.26,-135.04 459.21,-141.96"/>
</g>
<!-- Node19 -->
<g id="node19" class="node">
<title>Node19</title>
<g id="a_node19"><a xlink:href="_write_transactions_to_block_task_8h.html" target="_top" xlink:title=" ">
<polygon fill="white" stroke="black" points="209.5,-67.5 209.5,-97.5 343.5,-97.5 343.5,-67.5 209.5,-67.5"/>
<text text-anchor="start" x="217.5" y="-85.5" font-family="Helvetica,sans-Serif" font-size="10.00">src/task/WriteTransactions</text>
<text text-anchor="middle" x="276.5" y="-74.5" font-family="Helvetica,sans-Serif" font-size="10.00">ToBlockTask.h</text>
</a>
</g>
</g>
<!-- Node13&#45;&gt;Node19 -->
<g id="edge20" class="edge">
<title>Node13&#45;&gt;Node19</title>
<path fill="none" stroke="midnightblue" d="M483.84,-137.41C441.51,-126.4 376.5,-109.5 330.57,-97.56"/>
<polygon fill="midnightblue" stroke="midnightblue" points="483,-140.81 493.56,-139.94 484.76,-134.03 483,-140.81"/>
</g>
<!-- Node14&#45;&gt;Node10 -->
<g id="edge16" class="edge">
<title>Node14&#45;&gt;Node10</title>
<path fill="none" stroke="midnightblue" d="M796.62,-70.75C802.63,-69.44 808.7,-68.16 814.5,-67 897.39,-50.48 994.12,-34.43 1053.07,-25.01"/>
<polygon fill="midnightblue" stroke="midnightblue" points="795.65,-67.38 786.65,-72.97 797.17,-74.21 795.65,-67.38"/>
</g>
<!-- Node15 -->
<g id="node15" class="node">
<title>Node15</title>
<g id="a_node15"><a xlink:href="controller_2_block_8cpp.html" target="_top" xlink:title=" ">
<polygon fill="white" stroke="black" points="691,-6 691,-25 810,-25 810,-6 691,-6"/>
<text text-anchor="middle" x="750.5" y="-13" font-family="Helvetica,sans-Serif" font-size="10.00">src/controller/Block.cpp</text>
</a>
</g>
</g>
<!-- Node14&#45;&gt;Node15 -->
<g id="edge15" class="edge">
<title>Node14&#45;&gt;Node15</title>
<path fill="none" stroke="midnightblue" d="M750.5,-62.54C750.5,-50.17 750.5,-34.62 750.5,-25.13"/>
<polygon fill="midnightblue" stroke="midnightblue" points="747,-62.73 750.5,-72.73 754,-62.73 747,-62.73"/>
</g>
<!-- Node20 -->
<g id="node20" class="node">
<title>Node20</title>
<g id="a_node20"><a xlink:href="_task_observer_8cpp.html" target="_top" xlink:title=" ">
<polygon fill="white" stroke="black" points="118.5,-6 118.5,-25 272.5,-25 272.5,-6 118.5,-6"/>
<text text-anchor="middle" x="195.5" y="-13" font-family="Helvetica,sans-Serif" font-size="10.00">src/controller/TaskObserver.cpp</text>
</a>
</g>
</g>
<!-- Node19&#45;&gt;Node20 -->
<g id="edge21" class="edge">
<title>Node19&#45;&gt;Node20</title>
<path fill="none" stroke="midnightblue" d="M250.96,-61.01C235.93,-48.94 217.69,-34.3 206.33,-25.19"/>
<polygon fill="midnightblue" stroke="midnightblue" points="248.93,-63.87 258.92,-67.4 253.32,-58.41 248.93,-63.87"/>
</g>
<!-- Node21 -->
<g id="node21" class="node">
<title>Node21</title>
<g id="a_node21"><a xlink:href="_write_transactions_to_block_task_8cpp.html" target="_top" xlink:title=" ">
<polygon fill="white" stroke="black" points="290.5,-0.5 290.5,-30.5 424.5,-30.5 424.5,-0.5 290.5,-0.5"/>
<text text-anchor="start" x="298.5" y="-18.5" font-family="Helvetica,sans-Serif" font-size="10.00">src/task/WriteTransactions</text>
<text text-anchor="middle" x="357.5" y="-7.5" font-family="Helvetica,sans-Serif" font-size="10.00">ToBlockTask.cpp</text>
</a>
</g>
</g>
<!-- Node19&#45;&gt;Node21 -->
<g id="edge22" class="edge">
<title>Node19&#45;&gt;Node21</title>
<path fill="none" stroke="midnightblue" d="M302.19,-60.88C314.5,-51.01 328.93,-39.43 339.96,-30.58"/>
<polygon fill="midnightblue" stroke="midnightblue" points="299.68,-58.41 294.08,-67.4 304.07,-63.87 299.68,-58.41"/>
</g>
<!-- Node23&#45;&gt;Node14 -->
<g id="edge25" class="edge">
<title>Node23&#45;&gt;Node14</title>
<path fill="none" stroke="midnightblue" d="M750.5,-129.54C750.5,-117.17 750.5,-101.62 750.5,-92.13"/>
<polygon fill="midnightblue" stroke="midnightblue" points="747,-129.73 750.5,-139.73 754,-129.73 747,-129.73"/>
</g>
<!-- Node23&#45;&gt;Node19 -->
<g id="edge27" class="edge">
<title>Node23&#45;&gt;Node19</title>
<path fill="none" stroke="midnightblue" d="M681.97,-141.12C602.52,-132.26 467.71,-116.28 352.5,-98 349.58,-97.54 346.6,-97.05 343.6,-96.54"/>
<polygon fill="midnightblue" stroke="midnightblue" points="682.01,-144.64 692.34,-142.27 682.78,-137.69 682.01,-144.64"/>
</g>
<!-- Node24 -->
<g id="node24" class="node">
<title>Node24</title>
<g id="a_node24"><a xlink:href="model_2files_2_block_8cpp.html" target="_top" xlink:title=" ">
<polygon fill="white" stroke="black" points="823.5,-73 823.5,-92 949.5,-92 949.5,-73 823.5,-73"/>
<text text-anchor="middle" x="886.5" y="-80" font-family="Helvetica,sans-Serif" font-size="10.00">src/model/files/Block.cpp</text>
</a>
</g>
</g>
<!-- Node23&#45;&gt;Node24 -->
<g id="edge26" class="edge">
<title>Node23&#45;&gt;Node24</title>
<path fill="none" stroke="midnightblue" d="M777.82,-135.44C804.76,-122.57 845.16,-103.26 868.37,-92.17"/>
<polygon fill="midnightblue" stroke="midnightblue" points="776.07,-132.4 768.56,-139.87 779.09,-138.71 776.07,-132.4"/>
</g>
<!-- Node25&#45;&gt;Node18 -->
<g id="edge35" class="edge">
<title>Node25&#45;&gt;Node18</title>
<path fill="none" stroke="midnightblue" d="M599.8,-319.94C508.4,-275.22 209.55,-129.02 133.98,-92.05"/>
<polygon fill="midnightblue" stroke="midnightblue" points="598.42,-323.16 608.94,-324.41 601.5,-316.87 598.42,-323.16"/>
</g>
<!-- Node26 -->
<g id="node26" class="node">
<title>Node26</title>
<g id="a_node26"><a xlink:href="controller_2_block_index_8h.html" target="_top" xlink:title=" ">
<polygon fill="white" stroke="black" points="560.5,-268.5 560.5,-287.5 692.5,-287.5 692.5,-268.5 560.5,-268.5"/>
<text text-anchor="middle" x="626.5" y="-275.5" font-family="Helvetica,sans-Serif" font-size="10.00">src/controller/BlockIndex.h</text>
</a>
</g>
</g>
<!-- Node25&#45;&gt;Node26 -->
<g id="edge29" class="edge">
<title>Node25&#45;&gt;Node26</title>
<path fill="none" stroke="midnightblue" d="M626.5,-313.8C626.5,-304.91 626.5,-294.78 626.5,-287.75"/>
<polygon fill="midnightblue" stroke="midnightblue" points="623,-314.08 626.5,-324.08 630,-314.08 623,-314.08"/>
</g>
<!-- Node26&#45;&gt;Node5 -->
<g id="edge32" class="edge">
<title>Node26&#45;&gt;Node5</title>
<path fill="none" stroke="midnightblue" d="M702.72,-269.38C824.34,-257.22 1059.46,-233.7 1166.29,-223.02"/>
<polygon fill="midnightblue" stroke="midnightblue" points="702.34,-265.9 692.74,-270.38 703.03,-272.86 702.34,-265.9"/>
</g>
<!-- Node26&#45;&gt;Node14 -->
<g id="edge30" class="edge">
<title>Node26&#45;&gt;Node14</title>
<path fill="none" stroke="midnightblue" d="M630.45,-258.53C637.33,-229.63 653.72,-173.01 683.5,-134 697.38,-115.82 719.43,-100.95 734.42,-92.16"/>
<polygon fill="midnightblue" stroke="midnightblue" points="627,-257.94 628.2,-268.46 633.82,-259.48 627,-257.94"/>
</g>
<!-- Node26&#45;&gt;Node16 -->
<g id="edge31" class="edge">
<title>Node26&#45;&gt;Node16</title>
<path fill="none" stroke="midnightblue" d="M624.57,-258.29C620.35,-217.53 610.48,-122.01 607.42,-92.41"/>
<polygon fill="midnightblue" stroke="midnightblue" points="621.11,-258.85 625.61,-268.44 628.07,-258.13 621.11,-258.85"/>
</g>
<!-- Node26&#45;&gt;Node18 -->
<g id="edge33" class="edge">
<title>Node26&#45;&gt;Node18</title>
<path fill="none" stroke="midnightblue" d="M584.96,-265.53C559.33,-257.7 526.17,-246.18 498.5,-232 452.2,-208.26 444.02,-196.36 402.5,-165 385.11,-151.86 384.2,-143.33 364.5,-134 346.66,-125.54 231.6,-104.07 164.65,-92.02"/>
<polygon fill="midnightblue" stroke="midnightblue" points="584.16,-268.95 594.74,-268.46 586.16,-262.24 584.16,-268.95"/>
</g>
<!-- Node26&#45;&gt;Node19 -->
<g id="edge34" class="edge">
<title>Node26&#45;&gt;Node19</title>
<path fill="none" stroke="midnightblue" d="M602.78,-263.05C567.87,-242.35 500.82,-201.99 445.5,-165 425.92,-151.9 423.14,-145.36 402.5,-134 375.76,-119.29 343.83,-106.54 318.8,-97.53"/>
<polygon fill="midnightblue" stroke="midnightblue" points="601.34,-266.27 611.73,-268.34 604.91,-260.24 601.34,-266.27"/>
</g>
<!-- Node28&#45;&gt;Node5 -->
<g id="edge41" class="edge">
<title>Node28&#45;&gt;Node5</title>
<path fill="none" stroke="midnightblue" d="M1306.93,-263.71C1285.63,-252.19 1255.43,-235.86 1237.23,-226.01"/>
<polygon fill="midnightblue" stroke="midnightblue" points="1305.28,-266.8 1315.74,-268.48 1308.61,-260.64 1305.28,-266.8"/>
</g>
<!-- Node29 -->
<g id="node29" class="node">
<title>Node29</title>
<g id="a_node29"><a xlink:href="_global_state_manager_8h.html" target="_top" xlink:title=" ">
<polygon fill="white" stroke="black" points="1383.5,-201.5 1383.5,-231.5 1499.5,-231.5 1499.5,-201.5 1383.5,-201.5"/>
<text text-anchor="start" x="1391.5" y="-219.5" font-family="Helvetica,sans-Serif" font-size="10.00">src/SingletonManager</text>
<text text-anchor="middle" x="1441.5" y="-208.5" font-family="Helvetica,sans-Serif" font-size="10.00">/GlobalStateManager.h</text>
</a>
</g>
</g>
<!-- Node28&#45;&gt;Node29 -->
<g id="edge38" class="edge">
<title>Node28&#45;&gt;Node29</title>
<path fill="none" stroke="midnightblue" d="M1356.38,-263.54C1374.04,-253.99 1397.69,-241.2 1415.58,-231.52"/>
<polygon fill="midnightblue" stroke="midnightblue" points="1354.39,-260.64 1347.26,-268.48 1357.72,-266.8 1354.39,-260.64"/>
</g>
<!-- Node31 -->
<g id="node31" class="node">
<title>Node31</title>
<g id="a_node31"><a xlink:href="_state_8cpp.html" target="_top" xlink:title=" ">
<polygon fill="white" stroke="black" points="1518,-207 1518,-226 1643,-226 1643,-207 1518,-207"/>
<text text-anchor="middle" x="1580.5" y="-214" font-family="Helvetica,sans-Serif" font-size="10.00">src/model/files/State.cpp</text>
</a>
</g>
</g>
<!-- Node28&#45;&gt;Node31 -->
<g id="edge42" class="edge">
<title>Node28&#45;&gt;Node31</title>
<path fill="none" stroke="midnightblue" d="M1377.06,-266.11C1425.39,-254.57 1500.73,-236.56 1544.89,-226.01"/>
<polygon fill="midnightblue" stroke="midnightblue" points="1376.09,-262.75 1367.18,-268.48 1377.72,-269.56 1376.09,-262.75"/>
</g>
<!-- Node29&#45;&gt;Node12 -->
<g id="edge40" class="edge">
<title>Node29&#45;&gt;Node12</title>
<path fill="none" stroke="midnightblue" d="M1469.26,-195.45C1483.11,-185.45 1499.52,-173.6 1512.01,-164.58"/>
<polygon fill="midnightblue" stroke="midnightblue" points="1467.09,-192.7 1461.03,-201.4 1471.18,-198.38 1467.09,-192.7"/>
</g>
<!-- Node30 -->
<g id="node30" class="node">
<title>Node30</title>
<g id="a_node30"><a xlink:href="_global_state_manager_8cpp.html" target="_top" xlink:title=" ">
<polygon fill="white" stroke="black" points="1606,-134.5 1606,-164.5 1733,-164.5 1733,-134.5 1606,-134.5"/>
<text text-anchor="start" x="1614" y="-152.5" font-family="Helvetica,sans-Serif" font-size="10.00">src/SingletonManager</text>
<text text-anchor="middle" x="1669.5" y="-141.5" font-family="Helvetica,sans-Serif" font-size="10.00">/GlobalStateManager.cpp</text>
</a>
</g>
</g>
<!-- Node29&#45;&gt;Node30 -->
<g id="edge39" class="edge">
<title>Node29&#45;&gt;Node30</title>
<path fill="none" stroke="midnightblue" d="M1500.38,-198.71C1537.48,-188.14 1584.84,-174.63 1620,-164.61"/>
<polygon fill="midnightblue" stroke="midnightblue" points="1499.35,-195.37 1490.69,-201.48 1501.27,-202.1 1499.35,-195.37"/>
</g>
</g>
</svg>
        <g id="navigator" transform="translate(0 0)" fill="#404254">
                <rect fill="#f2f5e9" fill-opacity="0.5" stroke="#606060" stroke-width=".5" x="0" y="0" width="60" height="60"/>
                <use id="zoomplus" xlink:href="#zoomPlus" x="17" y="9" onmousedown="handleZoom(evt,'in')"/>
                <use id="zoomminus" xlink:href="#zoomMin" x="42" y="9" onmousedown="handleZoom(evt,'out')"/>
                <use id="reset" xlink:href="#resetDef" x="30" y="36" onmousedown="handleReset()"/>
                <g id="arrowUp" xlink:href="#dirArrow" transform="translate(30 24)" onmousedown="handlePan(0,-1)">
                  <use xlink:href="#rim" fill="#404040">
                        <set attributeName="fill" to="#808080" begin="arrowUp.mouseover" end="arrowUp.mouseout"/>
                  </use>
                  <path fill="none" stroke="white" stroke-width="1.5" d="M0,-3.0v7 M-2.5,-0.5L0,-3.0L2.5,-0.5"/>
                </g>
                <g id="arrowRight" xlink:href="#dirArrow" transform="rotate(90) translate(36 -43)" onmousedown="handlePan(1,0)">
                  <use xlink:href="#rim" fill="#404040">
                        <set attributeName="fill" to="#808080" begin="arrowRight.mouseover" end="arrowRight.mouseout"/>
                  </use>
                  <path fill="none" stroke="white" stroke-width="1.5" d="M0,-3.0v7 M-2.5,-0.5L0,-3.0L2.5,-0.5"/>
                </g>
                <g id="arrowDown" xlink:href="#dirArrow" transform="rotate(180) translate(-30 -48)" onmousedown="handlePan(0,1)">
                  <use xlink:href="#rim" fill="#404040">
                        <set attributeName="fill" to="#808080" begin="arrowDown.mouseover" end="arrowDown.mouseout"/>
                  </use>
                  <path fill="none" stroke="white" stroke-width="1.5" d="M0,-3.0v7 M-2.5,-0.5L0,-3.0L2.5,-0.5"/>
                </g>
                <g id="arrowLeft" xlink:href="#dirArrow" transform="rotate(270) translate(-36 17)" onmousedown="handlePan(-1,0)">
                  <use xlink:href="#rim" fill="#404040">
                        <set attributeName="fill" to="#808080" begin="arrowLeft.mouseover" end="arrowLeft.mouseout"/>
                  </use>
                  <path fill="none" stroke="white" stroke-width="1.5" d="M0,-3.0v7 M-2.5,-0.5L0,-3.0L2.5,-0.5"/>
                </g>
        </g>
        <svg viewBox="0 0 15 15" width="100%" height="30px" preserveAspectRatio="xMaxYMin meet">
         <g id="arrow_out" transform="scale(0.3 0.3)">
          <a xlink:href="_file_base_8h__dep__incl_org.svg" target="_base">
           <rect id="button" ry="5" rx="5" y="6" x="6" height="38" width="38"
                fill="#f2f5e9" fill-opacity="0.5" stroke="#606060" stroke-width="1.0"/>
           <path id="arrow"
             d="M 11.500037,31.436501 C 11.940474,20.09759 22.043105,11.32322 32.158766,21.979434 L 37.068811,17.246167 C 37.068811,17.246167 37.088388,32 37.088388,32 L 22.160133,31.978069 C 22.160133,31.978069 26.997745,27.140456 26.997745,27.140456 C 18.528582,18.264221 13.291696,25.230495 11.500037,31.436501 z"
             style="fill:#404040;"/>
          </a>
         </g>
        </svg>
</svg>
