<?xml version="1.0" encoding="UTF-8" standalone="no"?>
<!DOCTYPE svg PUBLIC "-//W3C//DTD SVG 1.1//EN"
 "http://www.w3.org/Graphics/SVG/1.1/DTD/svg11.dtd">
<!-- Generated by graphviz version 2.50.0 (20211204.2007)
 -->
<!-- Title: src/lib/FuzzyTimer.cpp Pages: 1 -->
<svg width="322pt" height="151pt"
 viewBox="0.00 0.00 322.00 151.00" xmlns="http://www.w3.org/2000/svg" xmlns:xlink="http://www.w3.org/1999/xlink">
<g id="graph0" class="graph" transform="scale(1 1) rotate(0) translate(4 147)">
<title>src/lib/FuzzyTimer.cpp</title>
<polygon fill="white" stroke="transparent" points="-4,4 -4,-147 318,-147 318,4 -4,4"/>
<!-- Node1 -->
<g id="node1" class="node">
<title>Node1</title>
<g id="a_node1"><a xlink:title=" ">
<polygon fill="#bfbfbf" stroke="black" points="85,-123.5 85,-142.5 201,-142.5 201,-123.5 85,-123.5"/>
<text text-anchor="middle" x="143" y="-130.5" font-family="Helvetica,sans-Serif" font-size="10.00">src/lib/FuzzyTimer.cpp</text>
</a>
</g>
</g>
<!-- Node2 -->
<g id="node2" class="node">
<title>Node2</title>
<g id="a_node2"><a xlink:href="_fuzzy_timer_8h.html" target="_top" xlink:title=" ">
<polygon fill="white" stroke="black" points="0,-62 0,-81 76,-81 76,-62 0,-62"/>
<text text-anchor="middle" x="38" y="-69" font-family="Helvetica,sans-Serif" font-size="10.00">FuzzyTimer.h</text>
</a>
</g>
</g>
<!-- Node1&#45;&gt;Node2 -->
<g id="edge1" class="edge">
<title>Node1&#45;&gt;Node2</title>
<path fill="none" stroke="midnightblue" d="M127.96,-123.48C110.72,-113.71 82.26,-97.58 61.97,-86.08"/>
<polygon fill="midnightblue" stroke="midnightblue" points="63.44,-82.89 53.02,-81.01 59.99,-88.98 63.44,-82.89"/>
</g>
<!-- Node3 -->
<g id="node3" class="node">
<title>Node3</title>
<g id="a_node3"><a xlink:title=" ">
<polygon fill="white" stroke="#bfbfbf" points="94,-62 94,-81 192,-81 192,-62 94,-62"/>
<text text-anchor="middle" x="143" y="-69" font-family="Helvetica,sans-Serif" font-size="10.00">Poco/Timestamp.h</text>
</a>
</g>
</g>
<!-- Node1&#45;&gt;Node3 -->
<g id="edge2" class="edge">
<title>Node1&#45;&gt;Node3</title>
<path fill="none" stroke="midnightblue" d="M143,-123.48C143,-115.08 143,-101.98 143,-91.16"/>
<polygon fill="midnightblue" stroke="midnightblue" points="146.5,-91.01 143,-81.01 139.5,-91.01 146.5,-91.01"/>
</g>
<!-- Node4 -->
<g id="node4" class="node">
<title>Node4</title>
<g id="a_node4"><a xlink:href="_logger_manager_8h.html" target="_top" xlink:title=" ">
<polygon fill="white" stroke="black" points="210,-56.5 210,-86.5 314,-86.5 314,-56.5 210,-56.5"/>
<text text-anchor="start" x="218" y="-74.5" font-family="Helvetica,sans-Serif" font-size="10.00">../SingletonManager</text>
<text text-anchor="middle" x="262" y="-63.5" font-family="Helvetica,sans-Serif" font-size="10.00">/LoggerManager.h</text>
</a>
</g>
</g>
<!-- Node1&#45;&gt;Node4 -->
<g id="edge3" class="edge">
<title>Node1&#45;&gt;Node4</title>
<path fill="none" stroke="midnightblue" d="M160.05,-123.48C176.92,-115.04 203.29,-101.86 224.98,-91.01"/>
<polygon fill="midnightblue" stroke="midnightblue" points="226.58,-94.13 233.95,-86.52 223.44,-87.86 226.58,-94.13"/>
</g>
<!-- Node5 -->
<g id="node5" class="node">
<title>Node5</title>
<g id="a_node5"><a xlink:title=" ">
<polygon fill="white" stroke="#bfbfbf" points="222,-0.5 222,-19.5 302,-19.5 302,-0.5 222,-0.5"/>
<text text-anchor="middle" x="262" y="-7.5" font-family="Helvetica,sans-Serif" font-size="10.00">Poco/Logger.h</text>
</a>
</g>
</g>
<!-- Node4&#45;&gt;Node5 -->
<g id="edge4" class="edge">
<title>Node4&#45;&gt;Node5</title>
<path fill="none" stroke="midnightblue" d="M262,-56.4C262,-48.47 262,-38.46 262,-29.86"/>
<polygon fill="midnightblue" stroke="midnightblue" points="265.5,-29.66 262,-19.66 258.5,-29.66 265.5,-29.66"/>
</g>
</g>
</svg>
