<?xml version="1.0" encoding="UTF-8" standalone="no"?>
<!DOCTYPE svg PUBLIC "-//W3C//DTD SVG 1.1//EN"
 "http://www.w3.org/Graphics/SVG/1.1/DTD/svg11.dtd">
<!-- Generated by graphviz version 2.50.0 (20211204.2007)
 -->
<!-- Title: src/lib/FuzzyTimer.h Pages: 1 -->
<!--zoomable 363 -->
<svg id="main" version="1.1" xmlns="http://www.w3.org/2000/svg" xmlns:xlink="http://www.w3.org/1999/xlink" xml:space="preserve" onload="init(evt)">
<style type="text/css"><![CDATA[
.edge:hover path { stroke: red; }
.edge:hover polygon { stroke: red; fill: red; }
]]></style>
<script type="text/javascript"><![CDATA[
var edges = document.getElementsByTagName('g');
if (edges && edges.length) {
  for (var i=0;i<edges.length;i++) {
    if (edges[i].id.substr(0,4)=='edge') {
      edges[i].setAttribute('class','edge');
    }
  }
}
]]></script>
        <defs>
                <circle id="rim" cx="0" cy="0" r="7"/>
                <circle id="rim2" cx="0" cy="0" r="3.5"/>
                <g id="zoomPlus">
                        <use xlink:href="#rim" fill="#404040">
                                <set attributeName="fill" to="#808080" begin="zoomplus.mouseover" end="zoomplus.mouseout"/>
                        </use>
                        <path d="M-4,0h8M0,-4v8" fill="none" stroke="white" stroke-width="1.5" pointer-events="none"/>
                </g>
                <g id="zoomMin">
                        <use xlink:href="#rim" fill="#404040">
                                <set attributeName="fill" to="#808080" begin="zoomminus.mouseover" end="zoomminus.mouseout"/>
                        </use>
                        <path d="M-4,0h8" fill="none" stroke="white" stroke-width="1.5" pointer-events="none"/>
                </g>
                <g id="dirArrow">
                        <path fill="none" stroke="white" stroke-width="1.5" d="M0,-3.0v7 M-2.5,-0.5L0,-3.0L2.5,-0.5"/>
                </g>
               <g id="resetDef">
                       <use xlink:href="#rim2" fill="#404040">
                               <set attributeName="fill" to="#808080" begin="reset.mouseover" end="reset.mouseout"/>
                       </use>
               </g>
        </defs>

<script type="text/javascript">
var viewWidth = 1755;
var viewHeight = 363;
var sectionId = 'dynsection-0';
</script>
<script xlink:href="svgpan.js"/>
<svg id="graph" class="graph">
<g id="viewport">
<title>src/lib/FuzzyTimer.h</title>
<polygon fill="white" stroke="transparent" points="-4,4 -4,-359 1750.5,-359 1750.5,4 -4,4"/>
<!-- Node1 -->
<g id="node1" class="node">
<title>Node1</title>
<g id="a_node1"><a xlink:title=" ">
<polygon fill="#bfbfbf" stroke="black" points="1115,-335.5 1115,-354.5 1220,-354.5 1220,-335.5 1115,-335.5"/>
<text text-anchor="middle" x="1167.5" y="-342.5" font-family="Helvetica,sans-Serif" font-size="10.00">src/lib/FuzzyTimer.h</text>
</a>
</g>
</g>
<!-- Node2 -->
<g id="node2" class="node">
<title>Node2</title>
<g id="a_node2"><a xlink:href="_cache_manager_8h.html" target="_top" xlink:title=" ">
<polygon fill="white" stroke="black" points="1046,-268.5 1046,-298.5 1157,-298.5 1157,-268.5 1046,-268.5"/>
<text text-anchor="start" x="1054" y="-286.5" font-family="Helvetica,sans-Serif" font-size="10.00">src/SingletonManager</text>
<text text-anchor="middle" x="1101.5" y="-275.5" font-family="Helvetica,sans-Serif" font-size="10.00">/CacheManager.h</text>
</a>
</g>
</g>
<!-- Node1&#45;&gt;Node2 -->
<g id="edge1" class="edge">
<title>Node1&#45;&gt;Node2</title>
<path fill="none" stroke="midnightblue" d="M1150.47,-328.65C1140.15,-319.35 1127.09,-307.57 1117.05,-298.52"/>
<polygon fill="midnightblue" stroke="midnightblue" points="1148.27,-331.38 1158.04,-335.48 1152.96,-326.18 1148.27,-331.38"/>
</g>
<!-- Node5 -->
<g id="node5" class="node">
<title>Node5</title>
<g id="a_node5"><a xlink:href="_message_listener_8h.html" target="_top" xlink:title=" ">
<polygon fill="white" stroke="black" points="419.5,-274 419.5,-293 553.5,-293 553.5,-274 419.5,-274"/>
<text text-anchor="middle" x="486.5" y="-281" font-family="Helvetica,sans-Serif" font-size="10.00">src/iota/MessageListener.h</text>
</a>
</g>
</g>
<!-- Node1&#45;&gt;Node5 -->
<g id="edge4" class="edge">
<title>Node1&#45;&gt;Node5</title>
<path fill="none" stroke="midnightblue" d="M1104.87,-338.53C976.73,-327.33 685.65,-301.9 553.72,-290.37"/>
<polygon fill="midnightblue" stroke="midnightblue" points="1104.65,-342.02 1114.91,-339.41 1105.25,-335.05 1104.65,-342.02"/>
</g>
<!-- Node26 -->
<g id="node26" class="node">
<title>Node26</title>
<g id="a_node26"><a xlink:href="_fuzzy_timer_8cpp.html" target="_top" xlink:title=" ">
<polygon fill="white" stroke="black" points="1175.5,-274 1175.5,-293 1291.5,-293 1291.5,-274 1175.5,-274"/>
<text text-anchor="middle" x="1233.5" y="-281" font-family="Helvetica,sans-Serif" font-size="10.00">src/lib/FuzzyTimer.cpp</text>
</a>
</g>
</g>
<!-- Node1&#45;&gt;Node26 -->
<g id="edge31" class="edge">
<title>Node1&#45;&gt;Node26</title>
<path fill="none" stroke="midnightblue" d="M1184.53,-328.65C1197.11,-317.31 1213.78,-302.28 1224.06,-293.01"/>
<polygon fill="midnightblue" stroke="midnightblue" points="1182.04,-326.18 1176.96,-335.48 1186.73,-331.38 1182.04,-326.18"/>
</g>
<!-- Node27 -->
<g id="node27" class="node">
<title>Node27</title>
<g id="a_node27"><a xlink:href="model_2files_2_block_8h.html" target="_top" xlink:title=" ">
<polygon fill="white" stroke="black" points="1309.5,-274 1309.5,-293 1425.5,-293 1425.5,-274 1309.5,-274"/>
<text text-anchor="middle" x="1367.5" y="-281" font-family="Helvetica,sans-Serif" font-size="10.00">src/model/files/Block.h</text>
</a>
</g>
</g>
<!-- Node1&#45;&gt;Node27 -->
<g id="edge32" class="edge">
<title>Node1&#45;&gt;Node27</title>
<path fill="none" stroke="midnightblue" d="M1206.06,-332.53C1244.93,-320.96 1304.02,-303.38 1338.9,-293.01"/>
<polygon fill="midnightblue" stroke="midnightblue" points="1204.74,-329.27 1196.16,-335.48 1206.74,-335.98 1204.74,-329.27"/>
</g>
<!-- Node3 -->
<g id="node3" class="node">
<title>Node3</title>
<g id="a_node3"><a xlink:href="_cache_manager_8cpp.html" target="_top" xlink:title=" ">
<polygon fill="white" stroke="black" points="1046,-201.5 1046,-231.5 1157,-231.5 1157,-201.5 1046,-201.5"/>
<text text-anchor="start" x="1054" y="-219.5" font-family="Helvetica,sans-Serif" font-size="10.00">src/SingletonManager</text>
<text text-anchor="middle" x="1101.5" y="-208.5" font-family="Helvetica,sans-Serif" font-size="10.00">/CacheManager.cpp</text>
</a>
</g>
</g>
<!-- Node2&#45;&gt;Node3 -->
<g id="edge2" class="edge">
<title>Node2&#45;&gt;Node3</title>
<path fill="none" stroke="midnightblue" d="M1101.5,-258.11C1101.5,-249.15 1101.5,-239.32 1101.5,-231.58"/>
<polygon fill="midnightblue" stroke="midnightblue" points="1098,-258.4 1101.5,-268.4 1105,-258.4 1098,-258.4"/>
</g>
<!-- Node4 -->
<g id="node4" class="node">
<title>Node4</title>
<g id="a_node4"><a xlink:href="model_2files_2_block_8cpp.html" target="_top" xlink:title=" ">
<polygon fill="white" stroke="black" points="1194.5,-207 1194.5,-226 1320.5,-226 1320.5,-207 1194.5,-207"/>
<text text-anchor="middle" x="1257.5" y="-214" font-family="Helvetica,sans-Serif" font-size="10.00">src/model/files/Block.cpp</text>
</a>
</g>
</g>
<!-- Node2&#45;&gt;Node4 -->
<g id="edge3" class="edge">
<title>Node2&#45;&gt;Node4</title>
<path fill="none" stroke="midnightblue" d="M1144.8,-264.46C1174.94,-251.9 1213.76,-235.72 1237.08,-226.01"/>
<polygon fill="midnightblue" stroke="midnightblue" points="1143.23,-261.32 1135.35,-268.4 1145.93,-267.78 1143.23,-261.32"/>
</g>
<!-- Node6 -->
<g id="node6" class="node">
<title>Node6</title>
<g id="a_node6"><a xlink:href="_ordering_manager_8h.html" target="_top" xlink:title=" ">
<polygon fill="white" stroke="black" points="304,-201.5 304,-231.5 415,-231.5 415,-201.5 304,-201.5"/>
<text text-anchor="start" x="312" y="-219.5" font-family="Helvetica,sans-Serif" font-size="10.00">src/SingletonManager</text>
<text text-anchor="middle" x="359.5" y="-208.5" font-family="Helvetica,sans-Serif" font-size="10.00">/OrderingManager.h</text>
</a>
</g>
</g>
<!-- Node5&#45;&gt;Node6 -->
<g id="edge5" class="edge">
<title>Node5&#45;&gt;Node6</title>
<path fill="none" stroke="midnightblue" d="M460.5,-269.19C439.14,-258.26 408.95,-242.81 387.15,-231.65"/>
<polygon fill="midnightblue" stroke="midnightblue" points="459.14,-272.43 469.64,-273.87 462.33,-266.2 459.14,-272.43"/>
</g>
<!-- Node9 -->
<g id="node9" class="node">
<title>Node9</title>
<g id="a_node9"><a xlink:href="_message_listener_8cpp.html" target="_top" xlink:title=" ">
<polygon fill="white" stroke="black" points="0,-140 0,-159 145,-159 145,-140 0,-140"/>
<text text-anchor="middle" x="72.5" y="-147" font-family="Helvetica,sans-Serif" font-size="10.00">src/iota/MessageListener.cpp</text>
</a>
</g>
</g>
<!-- Node5&#45;&gt;Node9 -->
<g id="edge30" class="edge">
<title>Node5&#45;&gt;Node9</title>
<path fill="none" stroke="midnightblue" d="M439.97,-271.57C400.87,-262.07 343.65,-247.45 294.5,-232 219.69,-208.49 132.93,-174.69 93.7,-159.05"/>
<polygon fill="midnightblue" stroke="midnightblue" points="439.21,-274.99 449.76,-273.93 440.86,-268.18 439.21,-274.99"/>
</g>
<!-- Node12 -->
<g id="node12" class="node">
<title>Node12</title>
<g id="a_node12"><a xlink:href="_group_8h.html" target="_top" xlink:title=" ">
<polygon fill="white" stroke="black" points="538.5,-207 538.5,-226 648.5,-226 648.5,-207 538.5,-207"/>
<text text-anchor="middle" x="593.5" y="-214" font-family="Helvetica,sans-Serif" font-size="10.00">src/controller/Group.h</text>
</a>
</g>
</g>
<!-- Node5&#45;&gt;Node12 -->
<g id="edge11" class="edge">
<title>Node5&#45;&gt;Node12</title>
<path fill="none" stroke="midnightblue" d="M509.64,-268.44C530.83,-255.57 561.52,-236.93 579.3,-226.13"/>
<polygon fill="midnightblue" stroke="midnightblue" points="507.66,-265.55 500.93,-273.73 511.29,-271.53 507.66,-265.55"/>
</g>
<!-- Node7 -->
<g id="node7" class="node">
<title>Node7</title>
<g id="a_node7"><a xlink:href="_main_server_8cpp.html" target="_top" xlink:title=" ">
<polygon fill="white" stroke="black" points="353.5,-73 353.5,-92 453.5,-92 453.5,-73 353.5,-73"/>
<text text-anchor="middle" x="403.5" y="-80" font-family="Helvetica,sans-Serif" font-size="10.00">src/MainServer.cpp</text>
</a>
</g>
</g>
<!-- Node6&#45;&gt;Node7 -->
<g id="edge6" class="edge">
<title>Node6&#45;&gt;Node7</title>
<path fill="none" stroke="midnightblue" d="M367.43,-191.71C377.4,-161.81 394,-112 400.63,-92.1"/>
<polygon fill="midnightblue" stroke="midnightblue" points="364.05,-190.78 364.21,-201.37 370.69,-192.99 364.05,-190.78"/>
</g>
<!-- Node8 -->
<g id="node8" class="node">
<title>Node8</title>
<g id="a_node8"><a xlink:href="_ordering_manager_8cpp.html" target="_top" xlink:title=" ">
<polygon fill="white" stroke="black" points="407,-134.5 407,-164.5 520,-164.5 520,-134.5 407,-134.5"/>
<text text-anchor="start" x="415" y="-152.5" font-family="Helvetica,sans-Serif" font-size="10.00">src/SingletonManager</text>
<text text-anchor="middle" x="463.5" y="-141.5" font-family="Helvetica,sans-Serif" font-size="10.00">/OrderingManager.cpp</text>
</a>
</g>
</g>
<!-- Node6&#45;&gt;Node8 -->
<g id="edge7" class="edge">
<title>Node6&#45;&gt;Node8</title>
<path fill="none" stroke="midnightblue" d="M390.68,-196.02C406.86,-185.9 426.27,-173.77 440.98,-164.58"/>
<polygon fill="midnightblue" stroke="midnightblue" points="388.69,-193.13 382.07,-201.4 392.4,-199.06 388.69,-193.13"/>
</g>
<!-- Node6&#45;&gt;Node9 -->
<g id="edge8" class="edge">
<title>Node6&#45;&gt;Node9</title>
<path fill="none" stroke="midnightblue" d="M293.85,-200.63C237.02,-187.76 156.82,-169.6 110.18,-159.03"/>
<polygon fill="midnightblue" stroke="midnightblue" points="293.3,-204.09 303.82,-202.89 294.84,-197.27 293.3,-204.09"/>
</g>
<!-- Node10 -->
<g id="node10" class="node">
<title>Node10</title>
<g id="a_node10"><a xlink:href="_message_validator_8cpp.html" target="_top" xlink:title=" ">
<polygon fill="white" stroke="black" points="163,-140 163,-159 312,-159 312,-140 163,-140"/>
<text text-anchor="middle" x="237.5" y="-147" font-family="Helvetica,sans-Serif" font-size="10.00">src/iota/MessageValidator.cpp</text>
</a>
</g>
</g>
<!-- Node6&#45;&gt;Node10 -->
<g id="edge9" class="edge">
<title>Node6&#45;&gt;Node10</title>
<path fill="none" stroke="midnightblue" d="M324.1,-196.64C300.76,-184.2 271.31,-168.51 253.47,-159.01"/>
<polygon fill="midnightblue" stroke="midnightblue" points="322.56,-199.78 333.03,-201.4 325.85,-193.6 322.56,-199.78"/>
</g>
<!-- Node11 -->
<g id="node11" class="node">
<title>Node11</title>
<g id="a_node11"><a xlink:href="_iota_message_to_transaction_task_8cpp.html" target="_top" xlink:title=" ">
<polygon fill="white" stroke="black" points="164,-67.5 164,-97.5 335,-97.5 335,-67.5 164,-67.5"/>
<text text-anchor="start" x="172" y="-85.5" font-family="Helvetica,sans-Serif" font-size="10.00">src/task/IotaMessageToTransaction</text>
<text text-anchor="middle" x="249.5" y="-74.5" font-family="Helvetica,sans-Serif" font-size="10.00">Task.cpp</text>
</a>
</g>
</g>
<!-- Node6&#45;&gt;Node11 -->
<g id="edge10" class="edge">
<title>Node6&#45;&gt;Node11</title>
<path fill="none" stroke="midnightblue" d="M351.66,-191.41C345.21,-174.13 334.8,-151 320.5,-134 308.04,-119.18 290.29,-106.56 275.65,-97.64"/>
<polygon fill="midnightblue" stroke="midnightblue" points="348.53,-193.04 355.17,-201.3 355.13,-190.71 348.53,-193.04"/>
</g>
<!-- Node12&#45;&gt;Node8 -->
<g id="edge18" class="edge">
<title>Node12&#45;&gt;Node8</title>
<path fill="none" stroke="midnightblue" d="M567.18,-202.34C545.3,-191.4 514.22,-175.86 491.8,-164.65"/>
<polygon fill="midnightblue" stroke="midnightblue" points="565.73,-205.53 576.24,-206.87 568.86,-199.27 565.73,-205.53"/>
</g>
<!-- Node13 -->
<g id="node13" class="node">
<title>Node13</title>
<g id="a_node13"><a xlink:href="_group_manager_8h.html" target="_top" xlink:title=" ">
<polygon fill="white" stroke="black" points="538,-134.5 538,-164.5 649,-164.5 649,-134.5 538,-134.5"/>
<text text-anchor="start" x="546" y="-152.5" font-family="Helvetica,sans-Serif" font-size="10.00">src/SingletonManager</text>
<text text-anchor="middle" x="593.5" y="-141.5" font-family="Helvetica,sans-Serif" font-size="10.00">/GroupManager.h</text>
</a>
</g>
</g>
<!-- Node12&#45;&gt;Node13 -->
<g id="edge12" class="edge">
<title>Node12&#45;&gt;Node13</title>
<path fill="none" stroke="midnightblue" d="M593.5,-196.41C593.5,-186.22 593.5,-173.9 593.5,-164.59"/>
<polygon fill="midnightblue" stroke="midnightblue" points="590,-196.73 593.5,-206.73 597,-196.73 590,-196.73"/>
</g>
<!-- Node16 -->
<g id="node16" class="node">
<title>Node16</title>
<g id="a_node16"><a xlink:href="_group_8cpp.html" target="_top" xlink:title=" ">
<polygon fill="white" stroke="black" points="723,-6 723,-25 844,-25 844,-6 723,-6"/>
<text text-anchor="middle" x="783.5" y="-13" font-family="Helvetica,sans-Serif" font-size="10.00">src/controller/Group.cpp</text>
</a>
</g>
</g>
<!-- Node12&#45;&gt;Node16 -->
<g id="edge19" class="edge">
<title>Node12&#45;&gt;Node16</title>
<path fill="none" stroke="midnightblue" d="M623.9,-202.81C662.44,-185.12 728.13,-149.34 763.5,-98 779.29,-75.09 782.65,-41 783.34,-25.16"/>
<polygon fill="midnightblue" stroke="midnightblue" points="622.42,-199.64 614.72,-206.92 625.28,-206.03 622.42,-199.64"/>
</g>
<!-- Node17 -->
<g id="node17" class="node">
<title>Node17</title>
<g id="a_node17"><a xlink:href="_transaction_entry_8h.html" target="_top" xlink:title=" ">
<polygon fill="white" stroke="black" points="1069.5,-140 1069.5,-159 1213.5,-159 1213.5,-140 1069.5,-140"/>
<text text-anchor="middle" x="1141.5" y="-147" font-family="Helvetica,sans-Serif" font-size="10.00">src/model/TransactionEntry.h</text>
</a>
</g>
</g>
<!-- Node12&#45;&gt;Node17 -->
<g id="edge20" class="edge">
<title>Node12&#45;&gt;Node17</title>
<path fill="none" stroke="midnightblue" d="M658.53,-207.79C761.76,-195.54 962.39,-171.74 1069.71,-159.02"/>
<polygon fill="midnightblue" stroke="midnightblue" points="658.07,-204.32 648.55,-208.97 658.9,-211.27 658.07,-204.32"/>
</g>
<!-- Node13&#45;&gt;Node7 -->
<g id="edge14" class="edge">
<title>Node13&#45;&gt;Node7</title>
<path fill="none" stroke="midnightblue" d="M542.66,-131.11C505.7,-118.46 457.26,-101.89 428.37,-92.01"/>
<polygon fill="midnightblue" stroke="midnightblue" points="541.68,-134.47 552.27,-134.4 543.94,-127.85 541.68,-134.47"/>
</g>
<!-- Node13&#45;&gt;Node11 -->
<g id="edge17" class="edge">
<title>Node13&#45;&gt;Node11</title>
<path fill="none" stroke="midnightblue" d="M527.73,-133.89C455.94,-119.5 385.19,-106.79 332.07,-97.54"/>
<polygon fill="midnightblue" stroke="midnightblue" points="527.37,-137.39 537.86,-135.93 528.75,-130.53 527.37,-137.39"/>
</g>
<!-- Node14 -->
<g id="node14" class="node">
<title>Node14</title>
<g id="a_node14"><a xlink:href="_json_r_p_c_handler_8cpp.html" target="_top" xlink:title=" ">
<polygon fill="white" stroke="black" points="509.5,-67.5 509.5,-97.5 625.5,-97.5 625.5,-67.5 509.5,-67.5"/>
<text text-anchor="start" x="517.5" y="-85.5" font-family="Helvetica,sans-Serif" font-size="10.00">src/JSONRPCInterface</text>
<text text-anchor="middle" x="567.5" y="-74.5" font-family="Helvetica,sans-Serif" font-size="10.00">/JsonRPCHandler.cpp</text>
</a>
</g>
</g>
<!-- Node13&#45;&gt;Node14 -->
<g id="edge13" class="edge">
<title>Node13&#45;&gt;Node14</title>
<path fill="none" stroke="midnightblue" d="M584.1,-124.99C580.42,-115.8 576.33,-105.58 573.13,-97.58"/>
<polygon fill="midnightblue" stroke="midnightblue" points="580.89,-126.41 587.86,-134.4 587.39,-123.81 580.89,-126.41"/>
</g>
<!-- Node15 -->
<g id="node15" class="node">
<title>Node15</title>
<g id="a_node15"><a xlink:href="_group_manager_8cpp.html" target="_top" xlink:title=" ">
<polygon fill="white" stroke="black" points="644,-67.5 644,-97.5 755,-97.5 755,-67.5 644,-67.5"/>
<text text-anchor="start" x="652" y="-85.5" font-family="Helvetica,sans-Serif" font-size="10.00">src/SingletonManager</text>
<text text-anchor="middle" x="699.5" y="-74.5" font-family="Helvetica,sans-Serif" font-size="10.00">/GroupManager.cpp</text>
</a>
</g>
</g>
<!-- Node13&#45;&gt;Node15 -->
<g id="edge15" class="edge">
<title>Node13&#45;&gt;Node15</title>
<path fill="none" stroke="midnightblue" d="M625.28,-129.02C641.77,-118.9 661.55,-106.77 676.54,-97.58"/>
<polygon fill="midnightblue" stroke="midnightblue" points="623.2,-126.18 616.5,-134.4 626.85,-132.15 623.2,-126.18"/>
</g>
<!-- Node13&#45;&gt;Node16 -->
<g id="edge16" class="edge">
<title>Node13&#45;&gt;Node16</title>
<path fill="none" stroke="midnightblue" d="M546.55,-130.06C514.12,-114.62 480.18,-91.27 500.5,-67 528.3,-33.81 648.4,-22.41 722.93,-18.51"/>
<polygon fill="midnightblue" stroke="midnightblue" points="545.51,-133.43 556.06,-134.39 548.41,-127.06 545.51,-133.43"/>
</g>
<!-- Node18 -->
<g id="node18" class="node">
<title>Node18</title>
<g id="a_node18"><a xlink:href="controller_2_block_8h.html" target="_top" xlink:title=" ">
<polygon fill="white" stroke="black" points="1313,-73 1313,-92 1422,-92 1422,-73 1313,-73"/>
<text text-anchor="middle" x="1367.5" y="-80" font-family="Helvetica,sans-Serif" font-size="10.00">src/controller/Block.h</text>
</a>
</g>
</g>
<!-- Node17&#45;&gt;Node18 -->
<g id="edge21" class="edge">
<title>Node17&#45;&gt;Node18</title>
<path fill="none" stroke="midnightblue" d="M1181.17,-137.09C1225.88,-124.23 1297.55,-103.62 1337.72,-92.06"/>
<polygon fill="midnightblue" stroke="midnightblue" points="1180.15,-133.74 1171.51,-139.87 1182.09,-140.47 1180.15,-133.74"/>
</g>
<!-- Node20 -->
<g id="node20" class="node">
<title>Node20</title>
<g id="a_node20"><a xlink:href="controller_2_block_index_8cpp.html" target="_top" xlink:title=" ">
<polygon fill="white" stroke="black" points="1152,-73 1152,-92 1295,-92 1295,-73 1152,-73"/>
<text text-anchor="middle" x="1223.5" y="-80" font-family="Helvetica,sans-Serif" font-size="10.00">src/controller/BlockIndex.cpp</text>
</a>
</g>
</g>
<!-- Node17&#45;&gt;Node20 -->
<g id="edge24" class="edge">
<title>Node17&#45;&gt;Node20</title>
<path fill="none" stroke="midnightblue" d="M1160.78,-133.21C1176.94,-120.41 1199.42,-102.59 1212.62,-92.13"/>
<polygon fill="midnightblue" stroke="midnightblue" points="1158.22,-130.78 1152.56,-139.73 1162.57,-136.26 1158.22,-130.78"/>
</g>
<!-- Node21 -->
<g id="node21" class="node">
<title>Node21</title>
<g id="a_node21"><a xlink:href="_transaction_entry_8cpp.html" target="_top" xlink:title=" ">
<polygon fill="white" stroke="black" points="812,-73 812,-92 967,-92 967,-73 812,-73"/>
<text text-anchor="middle" x="889.5" y="-80" font-family="Helvetica,sans-Serif" font-size="10.00">src/model/TransactionEntry.cpp</text>
</a>
</g>
</g>
<!-- Node17&#45;&gt;Node21 -->
<g id="edge25" class="edge">
<title>Node17&#45;&gt;Node21</title>
<path fill="none" stroke="midnightblue" d="M1098.48,-137.4C1048.75,-124.58 967.95,-103.74 922.78,-92.08"/>
<polygon fill="midnightblue" stroke="midnightblue" points="1097.74,-140.83 1108.3,-139.94 1099.49,-134.05 1097.74,-140.83"/>
</g>
<!-- Node22 -->
<g id="node22" class="node">
<title>Node22</title>
<g id="a_node22"><a xlink:href="model_2files_2_block_index_8cpp.html" target="_top" xlink:title=" ">
<polygon fill="white" stroke="black" points="985,-73 985,-92 1134,-92 1134,-73 985,-73"/>
<text text-anchor="middle" x="1059.5" y="-80" font-family="Helvetica,sans-Serif" font-size="10.00">src/model/files/BlockIndex.cpp</text>
</a>
</g>
</g>
<!-- Node17&#45;&gt;Node22 -->
<g id="edge26" class="edge">
<title>Node17&#45;&gt;Node22</title>
<path fill="none" stroke="midnightblue" d="M1122.22,-133.21C1106.06,-120.41 1083.58,-102.59 1070.38,-92.13"/>
<polygon fill="midnightblue" stroke="midnightblue" points="1120.43,-136.26 1130.44,-139.73 1124.78,-130.78 1120.43,-136.26"/>
</g>
<!-- Node23 -->
<g id="node23" class="node">
<title>Node23</title>
<g id="a_node23"><a xlink:href="_write_transactions_to_block_task_8h.html" target="_top" xlink:title=" ">
<polygon fill="white" stroke="black" points="1440.5,-67.5 1440.5,-97.5 1574.5,-97.5 1574.5,-67.5 1440.5,-67.5"/>
<text text-anchor="start" x="1448.5" y="-85.5" font-family="Helvetica,sans-Serif" font-size="10.00">src/task/WriteTransactions</text>
<text text-anchor="middle" x="1507.5" y="-74.5" font-family="Helvetica,sans-Serif" font-size="10.00">ToBlockTask.h</text>
</a>
</g>
</g>
<!-- Node17&#45;&gt;Node23 -->
<g id="edge27" class="edge">
<title>Node17&#45;&gt;Node23</title>
<path fill="none" stroke="midnightblue" d="M1201.57,-138.24C1260.05,-128.2 1351.43,-112.35 1430.5,-98 1433.71,-97.42 1437,-96.82 1440.32,-96.2"/>
<polygon fill="midnightblue" stroke="midnightblue" points="1200.66,-134.84 1191.4,-139.99 1201.85,-141.74 1200.66,-134.84"/>
</g>
<!-- Node18&#45;&gt;Node16 -->
<g id="edge23" class="edge">
<title>Node18&#45;&gt;Node16</title>
<path fill="none" stroke="midnightblue" d="M1323.26,-70.72C1316.66,-69.33 1309.92,-68.04 1303.5,-67 1138.51,-40.41 941.65,-25.93 844.26,-19.91"/>
<polygon fill="midnightblue" stroke="midnightblue" points="1322.93,-74.23 1333.44,-72.95 1324.43,-67.39 1322.93,-74.23"/>
</g>
<!-- Node19 -->
<g id="node19" class="node">
<title>Node19</title>
<g id="a_node19"><a xlink:href="controller_2_block_8cpp.html" target="_top" xlink:title=" ">
<polygon fill="white" stroke="black" points="1303,-6 1303,-25 1422,-25 1422,-6 1303,-6"/>
<text text-anchor="middle" x="1362.5" y="-13" font-family="Helvetica,sans-Serif" font-size="10.00">src/controller/Block.cpp</text>
</a>
</g>
</g>
<!-- Node18&#45;&gt;Node19 -->
<g id="edge22" class="edge">
<title>Node18&#45;&gt;Node19</title>
<path fill="none" stroke="midnightblue" d="M1366.04,-62.54C1365.09,-50.17 1363.89,-34.62 1363.16,-25.13"/>
<polygon fill="midnightblue" stroke="midnightblue" points="1362.57,-63.03 1366.83,-72.73 1369.55,-62.49 1362.57,-63.03"/>
</g>
<!-- Node24 -->
<g id="node24" class="node">
<title>Node24</title>
<g id="a_node24"><a xlink:href="_task_observer_8cpp.html" target="_top" xlink:title=" ">
<polygon fill="white" stroke="black" points="1592.5,-6 1592.5,-25 1746.5,-25 1746.5,-6 1592.5,-6"/>
<text text-anchor="middle" x="1669.5" y="-13" font-family="Helvetica,sans-Serif" font-size="10.00">src/controller/TaskObserver.cpp</text>
</a>
</g>
</g>
<!-- Node23&#45;&gt;Node24 -->
<g id="edge28" class="edge">
<title>Node23&#45;&gt;Node24</title>
<path fill="none" stroke="midnightblue" d="M1552.06,-63.62C1583.42,-51.04 1623.98,-34.77 1648.3,-25.01"/>
<polygon fill="midnightblue" stroke="midnightblue" points="1550.63,-60.42 1542.65,-67.4 1553.24,-66.92 1550.63,-60.42"/>
</g>
<!-- Node25 -->
<g id="node25" class="node">
<title>Node25</title>
<g id="a_node25"><a xlink:href="_write_transactions_to_block_task_8cpp.html" target="_top" xlink:title=" ">
<polygon fill="white" stroke="black" points="1440.5,-0.5 1440.5,-30.5 1574.5,-30.5 1574.5,-0.5 1440.5,-0.5"/>
<text text-anchor="start" x="1448.5" y="-18.5" font-family="Helvetica,sans-Serif" font-size="10.00">src/task/WriteTransactions</text>
<text text-anchor="middle" x="1507.5" y="-7.5" font-family="Helvetica,sans-Serif" font-size="10.00">ToBlockTask.cpp</text>
</a>
</g>
</g>
<!-- Node23&#45;&gt;Node25 -->
<g id="edge29" class="edge">
<title>Node23&#45;&gt;Node25</title>
<path fill="none" stroke="midnightblue" d="M1507.5,-57.11C1507.5,-48.15 1507.5,-38.32 1507.5,-30.58"/>
<polygon fill="midnightblue" stroke="midnightblue" points="1504,-57.4 1507.5,-67.4 1511,-57.4 1504,-57.4"/>
</g>
<!-- Node27&#45;&gt;Node4 -->
<g id="edge34" class="edge">
<title>Node27&#45;&gt;Node4</title>
<path fill="none" stroke="midnightblue" d="M1344,-268.62C1322.21,-255.74 1290.46,-236.98 1272.1,-226.13"/>
<polygon fill="midnightblue" stroke="midnightblue" points="1342.28,-271.66 1352.66,-273.73 1345.84,-265.63 1342.28,-271.66"/>
</g>
<!-- Node27&#45;&gt;Node18 -->
<g id="edge33" class="edge">
<title>Node27&#45;&gt;Node18</title>
<path fill="none" stroke="midnightblue" d="M1367.5,-263.8C1367.5,-222.01 1367.5,-122.33 1367.5,-92.24"/>
<polygon fill="midnightblue" stroke="midnightblue" points="1364,-263.95 1367.5,-273.95 1371,-263.95 1364,-263.95"/>
</g>
<!-- Node27&#45;&gt;Node23 -->
<g id="edge35" class="edge">
<title>Node27&#45;&gt;Node23</title>
<path fill="none" stroke="midnightblue" d="M1379.56,-265.36C1406.79,-226.65 1472.61,-133.09 1497.63,-97.53"/>
<polygon fill="midnightblue" stroke="midnightblue" points="1376.41,-263.76 1373.52,-273.95 1382.13,-267.78 1376.41,-263.76"/>
</g>
</g>
</svg>
        <g id="navigator" transform="translate(0 0)" fill="#404254">
                <rect fill="#f2f5e9" fill-opacity="0.5" stroke="#606060" stroke-width=".5" x="0" y="0" width="60" height="60"/>
                <use id="zoomplus" xlink:href="#zoomPlus" x="17" y="9" onmousedown="handleZoom(evt,'in')"/>
                <use id="zoomminus" xlink:href="#zoomMin" x="42" y="9" onmousedown="handleZoom(evt,'out')"/>
                <use id="reset" xlink:href="#resetDef" x="30" y="36" onmousedown="handleReset()"/>
                <g id="arrowUp" xlink:href="#dirArrow" transform="translate(30 24)" onmousedown="handlePan(0,-1)">
                  <use xlink:href="#rim" fill="#404040">
                        <set attributeName="fill" to="#808080" begin="arrowUp.mouseover" end="arrowUp.mouseout"/>
                  </use>
                  <path fill="none" stroke="white" stroke-width="1.5" d="M0,-3.0v7 M-2.5,-0.5L0,-3.0L2.5,-0.5"/>
                </g>
                <g id="arrowRight" xlink:href="#dirArrow" transform="rotate(90) translate(36 -43)" onmousedown="handlePan(1,0)">
                  <use xlink:href="#rim" fill="#404040">
                        <set attributeName="fill" to="#808080" begin="arrowRight.mouseover" end="arrowRight.mouseout"/>
                  </use>
                  <path fill="none" stroke="white" stroke-width="1.5" d="M0,-3.0v7 M-2.5,-0.5L0,-3.0L2.5,-0.5"/>
                </g>
                <g id="arrowDown" xlink:href="#dirArrow" transform="rotate(180) translate(-30 -48)" onmousedown="handlePan(0,1)">
                  <use xlink:href="#rim" fill="#404040">
                        <set attributeName="fill" to="#808080" begin="arrowDown.mouseover" end="arrowDown.mouseout"/>
                  </use>
                  <path fill="none" stroke="white" stroke-width="1.5" d="M0,-3.0v7 M-2.5,-0.5L0,-3.0L2.5,-0.5"/>
                </g>
                <g id="arrowLeft" xlink:href="#dirArrow" transform="rotate(270) translate(-36 17)" onmousedown="handlePan(-1,0)">
                  <use xlink:href="#rim" fill="#404040">
                        <set attributeName="fill" to="#808080" begin="arrowLeft.mouseover" end="arrowLeft.mouseout"/>
                  </use>
                  <path fill="none" stroke="white" stroke-width="1.5" d="M0,-3.0v7 M-2.5,-0.5L0,-3.0L2.5,-0.5"/>
                </g>
        </g>
        <svg viewBox="0 0 15 15" width="100%" height="30px" preserveAspectRatio="xMaxYMin meet">
         <g id="arrow_out" transform="scale(0.3 0.3)">
          <a xlink:href="_fuzzy_timer_8h__dep__incl_org.svg" target="_base">
           <rect id="button" ry="5" rx="5" y="6" x="6" height="38" width="38"
                fill="#f2f5e9" fill-opacity="0.5" stroke="#606060" stroke-width="1.0"/>
           <path id="arrow"
             d="M 11.500037,31.436501 C 11.940474,20.09759 22.043105,11.32322 32.158766,21.979434 L 37.068811,17.246167 C 37.068811,17.246167 37.088388,32 37.088388,32 L 22.160133,31.978069 C 22.160133,31.978069 26.997745,27.140456 26.997745,27.140456 C 18.528582,18.264221 13.291696,25.230495 11.500037,31.436501 z"
             style="fill:#404040;"/>
          </a>
         </g>
        </svg>
</svg>
