<?xml version="1.0" encoding="UTF-8" standalone="no"?>
<!DOCTYPE svg PUBLIC "-//W3C//DTD SVG 1.1//EN"
 "http://www.w3.org/Graphics/SVG/1.1/DTD/svg11.dtd">
<!-- Generated by graphviz version 2.50.0 (20211204.2007)
 -->
<!-- Title: src/SingletonManager/GlobalStateManager.cpp Pages: 1 -->
<!--zoomable 285 -->
<svg id="main" version="1.1" xmlns="http://www.w3.org/2000/svg" xmlns:xlink="http://www.w3.org/1999/xlink" xml:space="preserve" onload="init(evt)">
<style type="text/css"><![CDATA[
.edge:hover path { stroke: red; }
.edge:hover polygon { stroke: red; fill: red; }
]]></style>
<script type="text/javascript"><![CDATA[
var edges = document.getElementsByTagName('g');
if (edges && edges.length) {
  for (var i=0;i<edges.length;i++) {
    if (edges[i].id.substr(0,4)=='edge') {
      edges[i].setAttribute('class','edge');
    }
  }
}
]]></script>
        <defs>
                <circle id="rim" cx="0" cy="0" r="7"/>
                <circle id="rim2" cx="0" cy="0" r="3.5"/>
                <g id="zoomPlus">
                        <use xlink:href="#rim" fill="#404040">
                                <set attributeName="fill" to="#808080" begin="zoomplus.mouseover" end="zoomplus.mouseout"/>
                        </use>
                        <path d="M-4,0h8M0,-4v8" fill="none" stroke="white" stroke-width="1.5" pointer-events="none"/>
                </g>
                <g id="zoomMin">
                        <use xlink:href="#rim" fill="#404040">
                                <set attributeName="fill" to="#808080" begin="zoomminus.mouseover" end="zoomminus.mouseout"/>
                        </use>
                        <path d="M-4,0h8" fill="none" stroke="white" stroke-width="1.5" pointer-events="none"/>
                </g>
                <g id="dirArrow">
                        <path fill="none" stroke="white" stroke-width="1.5" d="M0,-3.0v7 M-2.5,-0.5L0,-3.0L2.5,-0.5"/>
                </g>
               <g id="resetDef">
                       <use xlink:href="#rim2" fill="#404040">
                               <set attributeName="fill" to="#808080" begin="reset.mouseover" end="reset.mouseout"/>
                       </use>
               </g>
        </defs>

<script type="text/javascript">
var viewWidth = 1008;
var viewHeight = 285;
var sectionId = 'dynsection-0';
</script>
<script xlink:href="svgpan.js"/>
<svg id="graph" class="graph">
<g id="viewport">
<title>src/SingletonManager/GlobalStateManager.cpp</title>
<polygon fill="white" stroke="transparent" points="-4,4 -4,-281 1003.75,-281 1003.75,4 -4,4"/>
<!-- Node1 -->
<g id="node1" class="node">
<title>Node1</title>
<g id="a_node1"><a xlink:title=" ">
<polygon fill="#bfbfbf" stroke="black" points="212,-246.5 212,-276.5 339,-276.5 339,-246.5 212,-246.5"/>
<text text-anchor="start" x="220" y="-264.5" font-family="Helvetica,sans-Serif" font-size="10.00">src/SingletonManager</text>
<text text-anchor="middle" x="275.5" y="-253.5" font-family="Helvetica,sans-Serif" font-size="10.00">/GlobalStateManager.cpp</text>
</a>
</g>
</g>
<!-- Node2 -->
<g id="node2" class="node">
<title>Node2</title>
<g id="a_node2"><a xlink:href="_global_state_manager_8h.html" target="_top" xlink:title=" ">
<polygon fill="white" stroke="black" points="158,-190.5 158,-209.5 271,-209.5 271,-190.5 158,-190.5"/>
<text text-anchor="middle" x="214.5" y="-197.5" font-family="Helvetica,sans-Serif" font-size="10.00">GlobalStateManager.h</text>
</a>
</g>
</g>
<!-- Node1&#45;&gt;Node2 -->
<g id="edge1" class="edge">
<title>Node1&#45;&gt;Node2</title>
<path fill="none" stroke="midnightblue" d="M261.04,-246.4C251.91,-237.49 240.08,-225.95 230.64,-216.74"/>
<polygon fill="midnightblue" stroke="midnightblue" points="232.98,-214.13 223.38,-209.66 228.09,-219.15 232.98,-214.13"/>
</g>
<!-- Node9 -->
<g id="node9" class="node">
<title>Node9</title>
<g id="a_node9"><a xlink:href="_server_globals_8h.html" target="_top" xlink:title=" ">
<polygon fill="white" stroke="black" points="449.5,-190.5 449.5,-209.5 543.5,-209.5 543.5,-190.5 449.5,-190.5"/>
<text text-anchor="middle" x="496.5" y="-197.5" font-family="Helvetica,sans-Serif" font-size="10.00">../ServerGlobals.h</text>
</a>
</g>
</g>
<!-- Node1&#45;&gt;Node9 -->
<g id="edge9" class="edge">
<title>Node1&#45;&gt;Node9</title>
<path fill="none" stroke="midnightblue" d="M327.59,-246.47C366.55,-235.99 419.11,-221.84 455.19,-212.12"/>
<polygon fill="midnightblue" stroke="midnightblue" points="456.16,-215.49 464.9,-209.51 454.34,-208.73 456.16,-215.49"/>
</g>
<!-- Node3 -->
<g id="node3" class="node">
<title>Node3</title>
<g id="a_node3"><a xlink:href="_state_8h.html" target="_top" xlink:title=" ">
<polygon fill="white" stroke="black" points="0,-129 0,-148 107,-148 107,-129 0,-129"/>
<text text-anchor="middle" x="53.5" y="-136" font-family="Helvetica,sans-Serif" font-size="10.00">../model/files/State.h</text>
</a>
</g>
</g>
<!-- Node2&#45;&gt;Node3 -->
<g id="edge2" class="edge">
<title>Node2&#45;&gt;Node3</title>
<path fill="none" stroke="midnightblue" d="M191.43,-190.48C163.82,-180.27 117.38,-163.11 86.1,-151.55"/>
<polygon fill="midnightblue" stroke="midnightblue" points="87.12,-148.19 76.52,-148.01 84.69,-154.76 87.12,-148.19"/>
</g>
<!-- Node4 -->
<g id="node4" class="node">
<title>Node4</title>
<g id="a_node4"><a xlink:href="_file_base_8h.html" target="_top" xlink:title=" ">
<polygon fill="white" stroke="black" points="289,-62 289,-81 352,-81 352,-62 289,-62"/>
<text text-anchor="middle" x="320.5" y="-69" font-family="Helvetica,sans-Serif" font-size="10.00">FileBase.h</text>
</a>
</g>
</g>
<!-- Node3&#45;&gt;Node4 -->
<g id="edge3" class="edge">
<title>Node3&#45;&gt;Node4</title>
<path fill="none" stroke="midnightblue" d="M88.68,-128.94C137.8,-116.98 226.77,-95.32 279.04,-82.59"/>
<polygon fill="midnightblue" stroke="midnightblue" points="280.1,-85.94 288.99,-80.17 278.44,-79.14 280.1,-85.94"/>
</g>
<!-- Node5 -->
<g id="node5" class="node">
<title>Node5</title>
<g id="a_node5"><a xlink:title=" ">
<polygon fill="white" stroke="#bfbfbf" points="181,-0.5 181,-19.5 252,-19.5 252,-0.5 181,-0.5"/>
<text text-anchor="middle" x="216.5" y="-7.5" font-family="Helvetica,sans-Serif" font-size="10.00">Poco/Path.h</text>
</a>
</g>
</g>
<!-- Node3&#45;&gt;Node5 -->
<g id="edge8" class="edge">
<title>Node3&#45;&gt;Node5</title>
<path fill="none" stroke="midnightblue" d="M52.91,-128.6C52.32,-112.06 53.52,-76.44 72.5,-56 97.67,-28.9 138.89,-18 170.79,-13.68"/>
<polygon fill="midnightblue" stroke="midnightblue" points="171.27,-17.15 180.79,-12.5 170.45,-10.2 171.27,-17.15"/>
</g>
<!-- Node8 -->
<g id="node8" class="node">
<title>Node8</title>
<g id="a_node8"><a xlink:title=" ">
<polygon fill="white" stroke="#bfbfbf" points="81.5,-62 81.5,-81 149.5,-81 149.5,-62 81.5,-62"/>
<text text-anchor="middle" x="115.5" y="-69" font-family="Helvetica,sans-Serif" font-size="10.00">leveldb/db.h</text>
</a>
</g>
</g>
<!-- Node3&#45;&gt;Node8 -->
<g id="edge7" class="edge">
<title>Node3&#45;&gt;Node8</title>
<path fill="none" stroke="midnightblue" d="M61.86,-128.73C71.62,-118.5 87.97,-101.36 100.05,-88.69"/>
<polygon fill="midnightblue" stroke="midnightblue" points="102.9,-90.78 107.27,-81.13 97.84,-85.95 102.9,-90.78"/>
</g>
<!-- Node4&#45;&gt;Node5 -->
<g id="edge4" class="edge">
<title>Node4&#45;&gt;Node5</title>
<path fill="none" stroke="midnightblue" d="M305.6,-61.98C288.53,-52.21 260.34,-36.08 240.24,-24.58"/>
<polygon fill="midnightblue" stroke="midnightblue" points="241.79,-21.44 231.37,-19.51 238.31,-27.51 241.79,-21.44"/>
</g>
<!-- Node6 -->
<g id="node6" class="node">
<title>Node6</title>
<g id="a_node6"><a xlink:title=" ">
<polygon fill="white" stroke="#bfbfbf" points="505,-0.5 505,-19.5 582,-19.5 582,-0.5 505,-0.5"/>
<text text-anchor="middle" x="543.5" y="-7.5" font-family="Helvetica,sans-Serif" font-size="10.00">Poco/Mutex.h</text>
</a>
</g>
</g>
<!-- Node4&#45;&gt;Node6 -->
<g id="edge5" class="edge">
<title>Node4&#45;&gt;Node6</title>
<path fill="none" stroke="midnightblue" d="M352.45,-61.98C391.7,-51.5 458.38,-33.71 501.67,-22.16"/>
<polygon fill="midnightblue" stroke="midnightblue" points="502.85,-25.47 511.61,-19.51 501.04,-18.71 502.85,-25.47"/>
</g>
<!-- Node7 -->
<g id="node7" class="node">
<title>Node7</title>
<g id="a_node7"><a xlink:title=" ">
<polygon fill="white" stroke="#bfbfbf" points="270,-0.5 270,-19.5 399,-19.5 399,-0.5 270,-0.5"/>
<text text-anchor="middle" x="334.5" y="-7.5" font-family="Helvetica,sans-Serif" font-size="10.00">Poco/RefCountedObject.h</text>
</a>
</g>
</g>
<!-- Node4&#45;&gt;Node7 -->
<g id="edge6" class="edge">
<title>Node4&#45;&gt;Node7</title>
<path fill="none" stroke="midnightblue" d="M322.51,-61.98C324.5,-53.49 327.63,-40.2 330.19,-29.32"/>
<polygon fill="midnightblue" stroke="midnightblue" points="333.61,-30.04 332.5,-19.51 326.8,-28.44 333.61,-30.04"/>
</g>
<!-- Node10 -->
<g id="node10" class="node">
<title>Node10</title>
<g id="a_node10"><a xlink:title=" ">
<polygon fill="white" stroke="#bfbfbf" points="644.5,-0.5 644.5,-19.5 802.5,-19.5 802.5,-0.5 644.5,-0.5"/>
<text text-anchor="middle" x="723.5" y="-7.5" font-family="Helvetica,sans-Serif" font-size="10.00">Poco/Util/LayeredConfiguration.h</text>
</a>
</g>
</g>
<!-- Node9&#45;&gt;Node10 -->
<g id="edge10" class="edge">
<title>Node9&#45;&gt;Node10</title>
<path fill="none" stroke="midnightblue" d="M543.55,-198.99C644.23,-198.23 876.89,-192.25 944.5,-154 976.84,-135.7 982.79,-122.26 994.5,-87 998.84,-73.92 1003.41,-66.51 994.5,-56 971.39,-28.74 882.45,-17.97 812.68,-13.73"/>
<polygon fill="midnightblue" stroke="midnightblue" points="812.72,-10.23 802.54,-13.15 812.32,-17.22 812.72,-10.23"/>
</g>
<!-- Node11 -->
<g id="node11" class="node">
<title>Node11</title>
<g id="a_node11"><a xlink:title=" ">
<polygon fill="white" stroke="#bfbfbf" points="125,-129 125,-148 202,-148 202,-129 125,-129"/>
<text text-anchor="middle" x="163.5" y="-136" font-family="Helvetica,sans-Serif" font-size="10.00">Poco/Types.h</text>
</a>
</g>
</g>
<!-- Node9&#45;&gt;Node11 -->
<g id="edge11" class="edge">
<title>Node9&#45;&gt;Node11</title>
<path fill="none" stroke="midnightblue" d="M449.47,-193.58C392.66,-186.57 294.39,-172.97 211.5,-154 207.56,-153.1 203.46,-152.04 199.4,-150.93"/>
<polygon fill="midnightblue" stroke="midnightblue" points="200.06,-147.47 189.48,-148.06 198.12,-154.2 200.06,-147.47"/>
</g>
<!-- Node12 -->
<g id="node12" class="node">
<title>Node12</title>
<g id="a_node12"><a xlink:title=" ">
<polygon fill="white" stroke="#bfbfbf" points="220.5,-129 220.5,-148 300.5,-148 300.5,-129 220.5,-129"/>
<text text-anchor="middle" x="260.5" y="-136" font-family="Helvetica,sans-Serif" font-size="10.00">Poco/Logger.h</text>
</a>
</g>
</g>
<!-- Node9&#45;&gt;Node12 -->
<g id="edge12" class="edge">
<title>Node9&#45;&gt;Node12</title>
<path fill="none" stroke="midnightblue" d="M458.39,-190.44C420.5,-181.78 360.78,-167.75 309.5,-154 305.86,-153.02 302.08,-151.97 298.3,-150.9"/>
<polygon fill="midnightblue" stroke="midnightblue" points="298.99,-147.45 288.41,-148.03 297.04,-154.18 298.99,-147.45"/>
</g>
<!-- Node13 -->
<g id="node13" class="node">
<title>Node13</title>
<g id="a_node13"><a xlink:title=" ">
<polygon fill="white" stroke="#bfbfbf" points="318.5,-129 318.5,-148 420.5,-148 420.5,-129 318.5,-129"/>
<text text-anchor="middle" x="369.5" y="-136" font-family="Helvetica,sans-Serif" font-size="10.00">Poco/Net/Context.h</text>
</a>
</g>
</g>
<!-- Node9&#45;&gt;Node13 -->
<g id="edge13" class="edge">
<title>Node9&#45;&gt;Node13</title>
<path fill="none" stroke="midnightblue" d="M478.3,-190.48C456.99,-180.49 421.47,-163.85 396.84,-152.31"/>
<polygon fill="midnightblue" stroke="midnightblue" points="398.2,-149.08 387.66,-148.01 395.23,-155.42 398.2,-149.08"/>
</g>
<!-- Node14 -->
<g id="node14" class="node">
<title>Node14</title>
<g id="a_node14"><a xlink:title=" ">
<polygon fill="white" stroke="#bfbfbf" points="439,-129 439,-148 554,-148 554,-129 439,-129"/>
<text text-anchor="middle" x="496.5" y="-136" font-family="Helvetica,sans-Serif" font-size="10.00">Poco/AtomicCounter.h</text>
</a>
</g>
</g>
<!-- Node9&#45;&gt;Node14 -->
<g id="edge14" class="edge">
<title>Node9&#45;&gt;Node14</title>
<path fill="none" stroke="midnightblue" d="M496.5,-190.48C496.5,-182.08 496.5,-168.98 496.5,-158.16"/>
<polygon fill="midnightblue" stroke="midnightblue" points="500,-158.01 496.5,-148.01 493,-158.01 500,-158.01"/>
</g>
<!-- Node15 -->
<g id="node15" class="node">
<title>Node15</title>
<g id="a_node15"><a xlink:href="_c_p_u_sheduler_8h.html" target="_top" xlink:title=" ">
<polygon fill="white" stroke="black" points="572,-129 572,-148 677,-148 677,-129 572,-129"/>
<text text-anchor="middle" x="624.5" y="-136" font-family="Helvetica,sans-Serif" font-size="10.00">task/CPUSheduler.h</text>
</a>
</g>
</g>
<!-- Node9&#45;&gt;Node15 -->
<g id="edge15" class="edge">
<title>Node9&#45;&gt;Node15</title>
<path fill="none" stroke="midnightblue" d="M514.84,-190.48C536.32,-180.49 572.12,-163.85 596.95,-152.31"/>
<polygon fill="midnightblue" stroke="midnightblue" points="598.6,-155.4 606.19,-148.01 595.65,-149.05 598.6,-155.4"/>
</g>
<!-- Node16 -->
<g id="node16" class="node">
<title>Node16</title>
<g id="a_node16"><a xlink:title=" ">
<polygon fill="white" stroke="#bfbfbf" points="695.5,-123.5 695.5,-153.5 799.5,-153.5 799.5,-123.5 695.5,-123.5"/>
<text text-anchor="start" x="703.5" y="-141.5" font-family="Helvetica,sans-Serif" font-size="10.00">gradido_blockchain</text>
<text text-anchor="middle" x="747.5" y="-130.5" font-family="Helvetica,sans-Serif" font-size="10.00">/http/JsonRequest.h</text>
</a>
</g>
</g>
<!-- Node9&#45;&gt;Node16 -->
<g id="edge16" class="edge">
<title>Node9&#45;&gt;Node16</title>
<path fill="none" stroke="midnightblue" d="M532.57,-190.47C568.78,-181.9 626.42,-168.25 685.4,-154.26"/>
<polygon fill="midnightblue" stroke="midnightblue" points="686.34,-157.64 695.26,-151.92 684.72,-150.82 686.34,-157.64"/>
</g>
<!-- Node17 -->
<g id="node17" class="node">
<title>Node17</title>
<g id="a_node17"><a xlink:href="controller_2_group_index_8h.html" target="_top" xlink:title=" ">
<polygon fill="white" stroke="black" points="818,-129 818,-148 935,-148 935,-129 818,-129"/>
<text text-anchor="middle" x="876.5" y="-136" font-family="Helvetica,sans-Serif" font-size="10.00">controller/GroupIndex.h</text>
</a>
</g>
</g>
<!-- Node9&#45;&gt;Node17 -->
<g id="edge17" class="edge">
<title>Node9&#45;&gt;Node17</title>
<path fill="none" stroke="midnightblue" d="M543.7,-193.19C604.94,-185.43 715.03,-170.69 808.5,-154 815.13,-152.82 822.09,-151.46 828.94,-150.06"/>
<polygon fill="midnightblue" stroke="midnightblue" points="829.75,-153.47 838.82,-148 828.32,-146.62 829.75,-153.47"/>
</g>
<!-- Node17&#45;&gt;Node5 -->
<g id="edge21" class="edge">
<title>Node17&#45;&gt;Node5</title>
<path fill="none" stroke="midnightblue" d="M841.02,-128.94C830.6,-126.69 819.14,-124.49 808.5,-123 691.81,-106.67 384.37,-140.71 279.5,-87 254.53,-74.21 235.74,-46.71 225.43,-28.53"/>
<polygon fill="midnightblue" stroke="midnightblue" points="228.41,-26.69 220.59,-19.55 222.25,-30.01 228.41,-26.69"/>
</g>
<!-- Node18 -->
<g id="node18" class="node">
<title>Node18</title>
<g id="a_node18"><a xlink:href="model_2files_2_group_index_8h.html" target="_top" xlink:title=" ">
<polygon fill="white" stroke="black" points="633,-62 633,-81 766,-81 766,-62 633,-62"/>
<text text-anchor="middle" x="699.5" y="-69" font-family="Helvetica,sans-Serif" font-size="10.00">../model/files/GroupIndex.h</text>
</a>
</g>
</g>
<!-- Node17&#45;&gt;Node18 -->
<g id="edge18" class="edge">
<title>Node17&#45;&gt;Node18</title>
<path fill="none" stroke="midnightblue" d="M853,-128.87C822.1,-117.52 767.64,-97.52 732.59,-84.65"/>
<polygon fill="midnightblue" stroke="midnightblue" points="733.41,-81.23 722.82,-81.06 731,-87.8 733.41,-81.23"/>
</g>
<!-- Node19 -->
<g id="node19" class="node">
<title>Node19</title>
<g id="a_node19"><a xlink:title=" ">
<polygon fill="white" stroke="#bfbfbf" points="885.5,-56.5 885.5,-86.5 985.5,-86.5 985.5,-56.5 885.5,-56.5"/>
<text text-anchor="start" x="893.5" y="-74.5" font-family="Helvetica,sans-Serif" font-size="10.00">gradido_blockchain</text>
<text text-anchor="middle" x="935.5" y="-63.5" font-family="Helvetica,sans-Serif" font-size="10.00">/lib/DRHashList.h</text>
</a>
</g>
</g>
<!-- Node17&#45;&gt;Node19 -->
<g id="edge20" class="edge">
<title>Node17&#45;&gt;Node19</title>
<path fill="none" stroke="midnightblue" d="M884.46,-128.73C892.43,-119.95 905.02,-106.08 915.7,-94.31"/>
<polygon fill="midnightblue" stroke="midnightblue" points="918.58,-96.35 922.71,-86.59 913.4,-91.64 918.58,-96.35"/>
</g>
<!-- Node20 -->
<g id="node20" class="node">
<title>Node20</title>
<g id="a_node20"><a xlink:href="_controller_base_8h.html" target="_top" xlink:title=" ">
<polygon fill="white" stroke="black" points="523,-62 523,-81 612,-81 612,-62 523,-62"/>
<text text-anchor="middle" x="567.5" y="-69" font-family="Helvetica,sans-Serif" font-size="10.00">ControllerBase.h</text>
</a>
</g>
</g>
<!-- Node17&#45;&gt;Node20 -->
<g id="edge22" class="edge">
<title>Node17&#45;&gt;Node20</title>
<path fill="none" stroke="midnightblue" d="M836.97,-128.95C827.64,-126.97 817.72,-124.89 808.5,-123 726.86,-106.31 705.8,-105.28 624.5,-87 619.71,-85.92 614.71,-84.74 609.74,-83.53"/>
<polygon fill="midnightblue" stroke="midnightblue" points="610.23,-80.04 599.68,-81.02 608.54,-86.83 610.23,-80.04"/>
</g>
<!-- Node21 -->
<g id="node21" class="node">
<title>Node21</title>
<g id="a_node21"><a xlink:title=" ">
<polygon fill="white" stroke="#bfbfbf" points="784,-62 784,-81 867,-81 867,-62 784,-62"/>
<text text-anchor="middle" x="825.5" y="-69" font-family="Helvetica,sans-Serif" font-size="10.00">unordered_map</text>
</a>
</g>
</g>
<!-- Node17&#45;&gt;Node21 -->
<g id="edge24" class="edge">
<title>Node17&#45;&gt;Node21</title>
<path fill="none" stroke="midnightblue" d="M869.62,-128.73C861.67,-118.6 848.4,-101.69 838.49,-89.06"/>
<polygon fill="midnightblue" stroke="midnightblue" points="841.2,-86.83 832.27,-81.13 835.69,-91.16 841.2,-86.83"/>
</g>
<!-- Node18&#45;&gt;Node10 -->
<g id="edge19" class="edge">
<title>Node18&#45;&gt;Node10</title>
<path fill="none" stroke="midnightblue" d="M702.94,-61.98C706.4,-53.4 711.83,-39.93 716.25,-28.98"/>
<polygon fill="midnightblue" stroke="midnightblue" points="719.57,-30.09 720.07,-19.51 713.08,-27.47 719.57,-30.09"/>
</g>
<!-- Node20&#45;&gt;Node6 -->
<g id="edge23" class="edge">
<title>Node20&#45;&gt;Node6</title>
<path fill="none" stroke="midnightblue" d="M564.06,-61.98C560.6,-53.4 555.17,-39.93 550.75,-28.98"/>
<polygon fill="midnightblue" stroke="midnightblue" points="553.92,-27.47 546.93,-19.51 547.43,-30.09 553.92,-27.47"/>
</g>
</g>
</svg>
        <g id="navigator" transform="translate(0 0)" fill="#404254">
                <rect fill="#f2f5e9" fill-opacity="0.5" stroke="#606060" stroke-width=".5" x="0" y="0" width="60" height="60"/>
                <use id="zoomplus" xlink:href="#zoomPlus" x="17" y="9" onmousedown="handleZoom(evt,'in')"/>
                <use id="zoomminus" xlink:href="#zoomMin" x="42" y="9" onmousedown="handleZoom(evt,'out')"/>
                <use id="reset" xlink:href="#resetDef" x="30" y="36" onmousedown="handleReset()"/>
                <g id="arrowUp" xlink:href="#dirArrow" transform="translate(30 24)" onmousedown="handlePan(0,-1)">
                  <use xlink:href="#rim" fill="#404040">
                        <set attributeName="fill" to="#808080" begin="arrowUp.mouseover" end="arrowUp.mouseout"/>
                  </use>
                  <path fill="none" stroke="white" stroke-width="1.5" d="M0,-3.0v7 M-2.5,-0.5L0,-3.0L2.5,-0.5"/>
                </g>
                <g id="arrowRight" xlink:href="#dirArrow" transform="rotate(90) translate(36 -43)" onmousedown="handlePan(1,0)">
                  <use xlink:href="#rim" fill="#404040">
                        <set attributeName="fill" to="#808080" begin="arrowRight.mouseover" end="arrowRight.mouseout"/>
                  </use>
                  <path fill="none" stroke="white" stroke-width="1.5" d="M0,-3.0v7 M-2.5,-0.5L0,-3.0L2.5,-0.5"/>
                </g>
                <g id="arrowDown" xlink:href="#dirArrow" transform="rotate(180) translate(-30 -48)" onmousedown="handlePan(0,1)">
                  <use xlink:href="#rim" fill="#404040">
                        <set attributeName="fill" to="#808080" begin="arrowDown.mouseover" end="arrowDown.mouseout"/>
                  </use>
                  <path fill="none" stroke="white" stroke-width="1.5" d="M0,-3.0v7 M-2.5,-0.5L0,-3.0L2.5,-0.5"/>
                </g>
                <g id="arrowLeft" xlink:href="#dirArrow" transform="rotate(270) translate(-36 17)" onmousedown="handlePan(-1,0)">
                  <use xlink:href="#rim" fill="#404040">
                        <set attributeName="fill" to="#808080" begin="arrowLeft.mouseover" end="arrowLeft.mouseout"/>
                  </use>
                  <path fill="none" stroke="white" stroke-width="1.5" d="M0,-3.0v7 M-2.5,-0.5L0,-3.0L2.5,-0.5"/>
                </g>
        </g>
        <svg viewBox="0 0 15 15" width="100%" height="30px" preserveAspectRatio="xMaxYMin meet">
         <g id="arrow_out" transform="scale(0.3 0.3)">
          <a xlink:href="_global_state_manager_8cpp__incl_org.svg" target="_base">
           <rect id="button" ry="5" rx="5" y="6" x="6" height="38" width="38"
                fill="#f2f5e9" fill-opacity="0.5" stroke="#606060" stroke-width="1.0"/>
           <path id="arrow"
             d="M 11.500037,31.436501 C 11.940474,20.09759 22.043105,11.32322 32.158766,21.979434 L 37.068811,17.246167 C 37.068811,17.246167 37.088388,32 37.088388,32 L 22.160133,31.978069 C 22.160133,31.978069 26.997745,27.140456 26.997745,27.140456 C 18.528582,18.264221 13.291696,25.230495 11.500037,31.436501 z"
             style="fill:#404040;"/>
          </a>
         </g>
        </svg>
</svg>
