<?xml version="1.0" encoding="UTF-8" standalone="no"?>
<!DOCTYPE svg PUBLIC "-//W3C//DTD SVG 1.1//EN"
 "http://www.w3.org/Graphics/SVG/1.1/DTD/svg11.dtd">
<!-- Generated by graphviz version 2.50.0 (20211204.2007)
 -->
<!-- Title: src/controller/Group.h Pages: 1 -->
<svg width="2110pt" height="296pt"
 viewBox="0.00 0.00 2109.80 296.00" xmlns="http://www.w3.org/2000/svg" xmlns:xlink="http://www.w3.org/1999/xlink">
<g id="graph0" class="graph" transform="scale(1 1) rotate(0) translate(4 292)">
<title>src/controller/Group.h</title>
<polygon fill="white" stroke="transparent" points="-4,4 -4,-292 2105.8,-292 2105.8,4 -4,4"/>
<!-- Node1 -->
<g id="node1" class="node">
<title>Node1</title>
<g id="a_node1"><a xlink:title=" ">
<polygon fill="#bfbfbf" stroke="black" points="1201.3,-268.5 1201.3,-287.5 1311.3,-287.5 1311.3,-268.5 1201.3,-268.5"/>
<text text-anchor="middle" x="1256.3" y="-275.5" font-family="Helvetica,sans-Serif" font-size="10.00">src/controller/Group.h</text>
</a>
</g>
</g>
<!-- Node2 -->
<g id="node2" class="node">
<title>Node2</title>
<g id="a_node2"><a xlink:href="_controller_base_8h.html" target="_top" xlink:title=" ">
<polygon fill="white" stroke="black" points="540.8,-129 540.8,-148 629.8,-148 629.8,-129 540.8,-129"/>
<text text-anchor="middle" x="585.3" y="-136" font-family="Helvetica,sans-Serif" font-size="10.00">ControllerBase.h</text>
</a>
</g>
</g>
<!-- Node1&#45;&gt;Node2 -->
<g id="edge1" class="edge">
<title>Node1&#45;&gt;Node2</title>
<path fill="none" stroke="midnightblue" d="M1201.08,-276.94C1114.51,-275.64 942.18,-268.21 801.3,-232 728.63,-213.32 648.89,-173.74 609.75,-152.93"/>
<polygon fill="midnightblue" stroke="midnightblue" points="611.16,-149.72 600.7,-148.07 607.85,-155.88 611.16,-149.72"/>
</g>
<!-- Node4 -->
<g id="node4" class="node">
<title>Node4</title>
<g id="a_node4"><a xlink:href="controller_2_address_index_8h.html" target="_top" xlink:title=" ">
<polygon fill="white" stroke="black" points="359.3,-201.5 359.3,-220.5 443.3,-220.5 443.3,-201.5 359.3,-201.5"/>
<text text-anchor="middle" x="401.3" y="-208.5" font-family="Helvetica,sans-Serif" font-size="10.00">AddressIndex.h</text>
</a>
</g>
</g>
<!-- Node1&#45;&gt;Node4 -->
<g id="edge3" class="edge">
<title>Node1&#45;&gt;Node4</title>
<path fill="none" stroke="midnightblue" d="M1201.19,-272.81C1045.77,-260.99 605.45,-227.52 453.57,-215.97"/>
<polygon fill="midnightblue" stroke="midnightblue" points="453.8,-212.48 443.56,-215.21 453.27,-219.46 453.8,-212.48"/>
</g>
<!-- Node6 -->
<g id="node6" class="node">
<title>Node6</title>
<g id="a_node6"><a xlink:title=" ">
<polygon fill="white" stroke="#bfbfbf" points="277.8,-6 277.8,-25 348.8,-25 348.8,-6 277.8,-6"/>
<text text-anchor="middle" x="313.3" y="-13" font-family="Helvetica,sans-Serif" font-size="10.00">Poco/Path.h</text>
</a>
</g>
</g>
<!-- Node1&#45;&gt;Node6 -->
<g id="edge55" class="edge">
<title>Node1&#45;&gt;Node6</title>
<path fill="none" stroke="midnightblue" d="M1201.01,-276.13C992.83,-272.65 262.96,-258.67 162.3,-232 89.28,-212.66 50.59,-218.51 11.3,-154 -9.34,-120.11 1.02,-92.63 31.3,-67 66.23,-37.43 196.7,-24.27 267.27,-19.22"/>
<polygon fill="midnightblue" stroke="midnightblue" points="267.91,-22.68 277.65,-18.5 267.43,-15.7 267.91,-22.68"/>
</g>
<!-- Node7 -->
<g id="node7" class="node">
<title>Node7</title>
<g id="a_node7"><a xlink:title=" ">
<polygon fill="white" stroke="#bfbfbf" points="145.8,-129 145.8,-148 284.8,-148 284.8,-129 145.8,-129"/>
<text text-anchor="middle" x="215.3" y="-136" font-family="Helvetica,sans-Serif" font-size="10.00">Poco/AccessExpireCache.h</text>
</a>
</g>
</g>
<!-- Node1&#45;&gt;Node7 -->
<g id="edge58" class="edge">
<title>Node1&#45;&gt;Node7</title>
<path fill="none" stroke="midnightblue" d="M1201.16,-276.01C1017.07,-272.45 430.65,-259.09 350.3,-232 302.13,-215.76 255.35,-177.04 231.55,-155.2"/>
<polygon fill="midnightblue" stroke="midnightblue" points="233.81,-152.52 224.12,-148.24 229.02,-157.63 233.81,-152.52"/>
</g>
<!-- Node13 -->
<g id="node13" class="node">
<title>Node13</title>
<g id="a_node13"><a xlink:href="controller_2_block_index_8h.html" target="_top" xlink:title=" ">
<polygon fill="white" stroke="black" points="809.8,-201.5 809.8,-220.5 882.8,-220.5 882.8,-201.5 809.8,-201.5"/>
<text text-anchor="middle" x="846.3" y="-208.5" font-family="Helvetica,sans-Serif" font-size="10.00">BlockIndex.h</text>
</a>
</g>
</g>
<!-- Node1&#45;&gt;Node13 -->
<g id="edge16" class="edge">
<title>Node1&#45;&gt;Node13</title>
<path fill="none" stroke="midnightblue" d="M1202.28,-268.44C1121.28,-255.59 969.73,-231.57 893.15,-219.43"/>
<polygon fill="midnightblue" stroke="midnightblue" points="893.28,-215.9 882.86,-217.8 892.18,-222.82 893.28,-215.9"/>
</g>
<!-- Node22 -->
<g id="node22" class="node">
<title>Node22</title>
<g id="a_node22"><a xlink:href="_task_observer_8h.html" target="_top" xlink:title=" ">
<polygon fill="white" stroke="black" points="1214.3,-201.5 1214.3,-220.5 1298.3,-220.5 1298.3,-201.5 1214.3,-201.5"/>
<text text-anchor="middle" x="1256.3" y="-208.5" font-family="Helvetica,sans-Serif" font-size="10.00">TaskObserver.h</text>
</a>
</g>
</g>
<!-- Node1&#45;&gt;Node22 -->
<g id="edge31" class="edge">
<title>Node1&#45;&gt;Node22</title>
<path fill="none" stroke="midnightblue" d="M1256.3,-268.23C1256.3,-258.68 1256.3,-243.12 1256.3,-230.78"/>
<polygon fill="midnightblue" stroke="midnightblue" points="1259.8,-230.63 1256.3,-220.63 1252.8,-230.63 1259.8,-230.63"/>
</g>
<!-- Node23 -->
<g id="node23" class="node">
<title>Node23</title>
<g id="a_node23"><a xlink:title=" ">
<polygon fill="white" stroke="#bfbfbf" points="1752.8,-129 1752.8,-148 1835.8,-148 1835.8,-129 1752.8,-129"/>
<text text-anchor="middle" x="1794.3" y="-136" font-family="Helvetica,sans-Serif" font-size="10.00">Poco/AutoPtr.h</text>
</a>
</g>
</g>
<!-- Node1&#45;&gt;Node23 -->
<g id="edge56" class="edge">
<title>Node1&#45;&gt;Node23</title>
<path fill="none" stroke="midnightblue" d="M1266.76,-268.36C1277.29,-259.54 1293.85,-245.28 1307.3,-232 1325.21,-214.31 1322.77,-201.24 1345.3,-190 1424.76,-150.35 1655.98,-170.21 1743.3,-154 1748.08,-153.11 1753.06,-151.97 1757.96,-150.72"/>
<polygon fill="midnightblue" stroke="midnightblue" points="1759.05,-154.05 1767.79,-148.05 1757.22,-147.3 1759.05,-154.05"/>
</g>
<!-- Node27 -->
<g id="node27" class="node">
<title>Node27</title>
<g id="a_node27"><a xlink:title=" ">
<polygon fill="white" stroke="#bfbfbf" points="1354.3,-190.5 1354.3,-231.5 1474.3,-231.5 1474.3,-190.5 1354.3,-190.5"/>
<text text-anchor="start" x="1362.3" y="-219.5" font-family="Helvetica,sans-Serif" font-size="10.00">gradido_blockchain</text>
<text text-anchor="start" x="1362.3" y="-208.5" font-family="Helvetica,sans-Serif" font-size="10.00">/model/protobufWrapper</text>
<text text-anchor="middle" x="1414.3" y="-197.5" font-family="Helvetica,sans-Serif" font-size="10.00">/GradidoBlock.h</text>
</a>
</g>
</g>
<!-- Node1&#45;&gt;Node27 -->
<g id="edge39" class="edge">
<title>Node1&#45;&gt;Node27</title>
<path fill="none" stroke="midnightblue" d="M1277.28,-268.37C1297.64,-259.99 1329.47,-246.9 1357.32,-235.44"/>
<polygon fill="midnightblue" stroke="midnightblue" points="1358.68,-238.67 1366.59,-231.63 1356.01,-232.19 1358.68,-238.67"/>
</g>
<!-- Node28 -->
<g id="node28" class="node">
<title>Node28</title>
<g id="a_node28"><a xlink:title=" ">
<polygon fill="white" stroke="#bfbfbf" points="1492.3,-190.5 1492.3,-231.5 1612.3,-231.5 1612.3,-190.5 1492.3,-190.5"/>
<text text-anchor="start" x="1500.3" y="-219.5" font-family="Helvetica,sans-Serif" font-size="10.00">gradido_blockchain</text>
<text text-anchor="start" x="1500.3" y="-208.5" font-family="Helvetica,sans-Serif" font-size="10.00">/model/protobufWrapper</text>
<text text-anchor="middle" x="1552.3" y="-197.5" font-family="Helvetica,sans-Serif" font-size="10.00">/GradidoTransaction.h</text>
</a>
</g>
</g>
<!-- Node1&#45;&gt;Node28 -->
<g id="edge40" class="edge">
<title>Node1&#45;&gt;Node28</title>
<path fill="none" stroke="midnightblue" d="M1305.72,-268.48C1349.72,-260.6 1416.02,-248.03 1482.38,-232.13"/>
<polygon fill="midnightblue" stroke="midnightblue" points="1483.27,-235.52 1492.17,-229.76 1481.63,-228.71 1483.27,-235.52"/>
</g>
<!-- Node29 -->
<g id="node29" class="node">
<title>Node29</title>
<g id="a_node29"><a xlink:href="_state_8h.html" target="_top" xlink:title=" ">
<polygon fill="white" stroke="black" points="20.8,-129 20.8,-148 127.8,-148 127.8,-129 20.8,-129"/>
<text text-anchor="middle" x="74.3" y="-136" font-family="Helvetica,sans-Serif" font-size="10.00">../model/files/State.h</text>
</a>
</g>
</g>
<!-- Node1&#45;&gt;Node29 -->
<g id="edge41" class="edge">
<title>Node1&#45;&gt;Node29</title>
<path fill="none" stroke="midnightblue" d="M1201.14,-277.29C1020.87,-277.81 450.39,-275.84 272.3,-232 204.66,-215.35 132.2,-175.01 96.62,-153.52"/>
<polygon fill="midnightblue" stroke="midnightblue" points="98.35,-150.47 88,-148.24 94.7,-156.44 98.35,-150.47"/>
</g>
<!-- Node31 -->
<g id="node31" class="node">
<title>Node31</title>
<g id="a_node31"><a xlink:title=" ">
<polygon fill="white" stroke="#bfbfbf" points="1630.3,-196 1630.3,-226 1734.3,-226 1734.3,-196 1630.3,-196"/>
<text text-anchor="start" x="1638.3" y="-214" font-family="Helvetica,sans-Serif" font-size="10.00">gradido_blockchain</text>
<text text-anchor="middle" x="1682.3" y="-203" font-family="Helvetica,sans-Serif" font-size="10.00">/http/JsonRequest.h</text>
</a>
</g>
</g>
<!-- Node1&#45;&gt;Node31 -->
<g id="edge45" class="edge">
<title>Node1&#45;&gt;Node31</title>
<path fill="none" stroke="midnightblue" d="M1311.59,-273.54C1383.59,-268.27 1513.03,-256.18 1621.3,-232 1625.34,-231.1 1629.49,-230.04 1633.63,-228.88"/>
<polygon fill="midnightblue" stroke="midnightblue" points="1634.63,-232.24 1643.23,-226.05 1632.65,-225.52 1634.63,-232.24"/>
</g>
<!-- Node32 -->
<g id="node32" class="node">
<title>Node32</title>
<g id="a_node32"><a xlink:href="_message_listener_8h.html" target="_top" xlink:title=" ">
<polygon fill="white" stroke="black" points="1068.8,-201.5 1068.8,-220.5 1195.8,-220.5 1195.8,-201.5 1068.8,-201.5"/>
<text text-anchor="middle" x="1132.3" y="-208.5" font-family="Helvetica,sans-Serif" font-size="10.00">../iota/MessageListener.h</text>
</a>
</g>
</g>
<!-- Node1&#45;&gt;Node32 -->
<g id="edge46" class="edge">
<title>Node1&#45;&gt;Node32</title>
<path fill="none" stroke="midnightblue" d="M1239.83,-268.37C1218.89,-257.39 1182.52,-238.32 1157.93,-225.44"/>
<polygon fill="midnightblue" stroke="midnightblue" points="1159.31,-222.21 1148.83,-220.67 1156.06,-228.41 1159.31,-222.21"/>
</g>
<!-- Node37 -->
<g id="node37" class="node">
<title>Node37</title>
<g id="a_node37"><a xlink:title=" ">
<polygon fill="white" stroke="#bfbfbf" points="1752.3,-201.5 1752.3,-220.5 1818.3,-220.5 1818.3,-201.5 1752.3,-201.5"/>
<text text-anchor="middle" x="1785.3" y="-208.5" font-family="Helvetica,sans-Serif" font-size="10.00">Poco/URI.h</text>
</a>
</g>
</g>
<!-- Node1&#45;&gt;Node37 -->
<g id="edge57" class="edge">
<title>Node1&#45;&gt;Node37</title>
<path fill="none" stroke="midnightblue" d="M1311.63,-274.33C1421.46,-268.64 1663.27,-254 1743.3,-232 1749.38,-230.33 1755.67,-227.81 1761.46,-225.12"/>
<polygon fill="midnightblue" stroke="midnightblue" points="1763.24,-228.15 1770.63,-220.56 1760.12,-221.88 1763.24,-228.15"/>
</g>
<!-- Node38 -->
<g id="node38" class="node">
<title>Node38</title>
<g id="a_node38"><a xlink:title=" ">
<polygon fill="white" stroke="#bfbfbf" points="1836.3,-201.5 1836.3,-220.5 1942.3,-220.5 1942.3,-201.5 1836.3,-201.5"/>
<text text-anchor="middle" x="1889.3" y="-208.5" font-family="Helvetica,sans-Serif" font-size="10.00">Poco/ExpireCache.h</text>
</a>
</g>
</g>
<!-- Node1&#45;&gt;Node38 -->
<g id="edge59" class="edge">
<title>Node1&#45;&gt;Node38</title>
<path fill="none" stroke="midnightblue" d="M1311.6,-276.9C1414.24,-275.79 1640.74,-268.91 1827.3,-232 1837.34,-230.01 1848.04,-226.93 1857.67,-223.77"/>
<polygon fill="midnightblue" stroke="midnightblue" points="1858.91,-227.05 1867.25,-220.5 1856.65,-220.42 1858.91,-227.05"/>
</g>
<!-- Node39 -->
<g id="node39" class="node">
<title>Node39</title>
<g id="a_node39"><a xlink:title=" ">
<polygon fill="white" stroke="#bfbfbf" points="1960.8,-196 1960.8,-226 2101.8,-226 2101.8,-196 1960.8,-196"/>
<text text-anchor="start" x="1968.8" y="-214" font-family="Helvetica,sans-Serif" font-size="10.00">gradido_blockchain</text>
<text text-anchor="middle" x="2031.3" y="-203" font-family="Helvetica,sans-Serif" font-size="10.00">/model/IGradidoBlockchain.h</text>
</a>
</g>
</g>
<!-- Node1&#45;&gt;Node39 -->
<g id="edge60" class="edge">
<title>Node1&#45;&gt;Node39</title>
<path fill="none" stroke="midnightblue" d="M1311.63,-276.79C1429.81,-275.61 1715.35,-268.82 1951.3,-232 1957.61,-231.01 1964.15,-229.77 1970.65,-228.37"/>
<polygon fill="midnightblue" stroke="midnightblue" points="1971.81,-231.7 1980.79,-226.09 1970.27,-224.87 1971.81,-231.7"/>
</g>
<!-- Node3 -->
<g id="node3" class="node">
<title>Node3</title>
<g id="a_node3"><a xlink:title=" ">
<polygon fill="white" stroke="#bfbfbf" points="583.8,-6 583.8,-25 660.8,-25 660.8,-6 583.8,-6"/>
<text text-anchor="middle" x="622.3" y="-13" font-family="Helvetica,sans-Serif" font-size="10.00">Poco/Mutex.h</text>
</a>
</g>
</g>
<!-- Node2&#45;&gt;Node3 -->
<g id="edge2" class="edge">
<title>Node2&#45;&gt;Node3</title>
<path fill="none" stroke="midnightblue" d="M587.96,-128.8C593.96,-109.18 608.65,-61.14 616.73,-34.69"/>
<polygon fill="midnightblue" stroke="midnightblue" points="620.08,-35.71 619.66,-25.12 613.39,-33.66 620.08,-35.71"/>
</g>
<!-- Node4&#45;&gt;Node2 -->
<g id="edge4" class="edge">
<title>Node4&#45;&gt;Node2</title>
<path fill="none" stroke="midnightblue" d="M423.49,-201.5C455.96,-189.06 516.55,-165.84 553.67,-151.62"/>
<polygon fill="midnightblue" stroke="midnightblue" points="554.94,-154.88 563.02,-148.03 552.43,-148.34 554.94,-154.88"/>
</g>
<!-- Node5 -->
<g id="node5" class="node">
<title>Node5</title>
<g id="a_node5"><a xlink:title=" ">
<polygon fill="white" stroke="#bfbfbf" points="341.8,-67.5 341.8,-86.5 424.8,-86.5 424.8,-67.5 341.8,-67.5"/>
<text text-anchor="middle" x="383.3" y="-74.5" font-family="Helvetica,sans-Serif" font-size="10.00">unordered_map</text>
</a>
</g>
</g>
<!-- Node4&#45;&gt;Node5 -->
<g id="edge5" class="edge">
<title>Node4&#45;&gt;Node5</title>
<path fill="none" stroke="midnightblue" d="M394.96,-201.44C387.59,-190.91 375.86,-172.19 371.3,-154 366.43,-134.61 371.36,-111.91 376.29,-96.41"/>
<polygon fill="midnightblue" stroke="midnightblue" points="379.74,-97.13 379.74,-86.53 373.13,-94.82 379.74,-97.13"/>
</g>
<!-- Node4&#45;&gt;Node6 -->
<g id="edge6" class="edge">
<title>Node4&#45;&gt;Node6</title>
<path fill="none" stroke="midnightblue" d="M395.34,-201.48C387.9,-190.67 374.98,-171.36 365.3,-154 349.23,-125.17 344.95,-117.87 333.3,-87 326.84,-69.91 321.34,-49.81 317.75,-35.45"/>
<polygon fill="midnightblue" stroke="midnightblue" points="321.05,-34.23 315.29,-25.34 314.25,-35.88 321.05,-34.23"/>
</g>
<!-- Node4&#45;&gt;Node7 -->
<g id="edge7" class="edge">
<title>Node4&#45;&gt;Node7</title>
<path fill="none" stroke="midnightblue" d="M378.86,-201.5C346.04,-189.06 284.79,-165.84 247.27,-151.62"/>
<polygon fill="midnightblue" stroke="midnightblue" points="248.4,-148.31 237.81,-148.03 245.92,-154.85 248.4,-148.31"/>
</g>
<!-- Node8 -->
<g id="node8" class="node">
<title>Node8</title>
<g id="a_node8"><a xlink:href="model_2files_2_address_index_8h.html" target="_top" xlink:title=" ">
<polygon fill="white" stroke="black" points="379.8,-129 379.8,-148 522.8,-148 522.8,-129 379.8,-129"/>
<text text-anchor="middle" x="451.3" y="-136" font-family="Helvetica,sans-Serif" font-size="10.00">../model/files/AddressIndex.h</text>
</a>
</g>
</g>
<!-- Node4&#45;&gt;Node8 -->
<g id="edge8" class="edge">
<title>Node4&#45;&gt;Node8</title>
<path fill="none" stroke="midnightblue" d="M407.43,-201.36C415.3,-190.26 429.14,-170.74 439.17,-156.59"/>
<polygon fill="midnightblue" stroke="midnightblue" points="442.19,-158.4 445.12,-148.22 436.48,-154.35 442.19,-158.4"/>
</g>
<!-- Node8&#45;&gt;Node5 -->
<g id="edge14" class="edge">
<title>Node8&#45;&gt;Node5</title>
<path fill="none" stroke="midnightblue" d="M441.55,-128.98C430.95,-119.7 413.78,-104.67 400.82,-93.33"/>
<polygon fill="midnightblue" stroke="midnightblue" points="402.85,-90.46 393.02,-86.51 398.24,-95.73 402.85,-90.46"/>
</g>
<!-- Node9 -->
<g id="node9" class="node">
<title>Node9</title>
<g id="a_node9"><a xlink:href="_file_base_8h.html" target="_top" xlink:title=" ">
<polygon fill="white" stroke="black" points="481.8,-67.5 481.8,-86.5 544.8,-86.5 544.8,-67.5 481.8,-67.5"/>
<text text-anchor="middle" x="513.3" y="-74.5" font-family="Helvetica,sans-Serif" font-size="10.00">FileBase.h</text>
</a>
</g>
</g>
<!-- Node8&#45;&gt;Node9 -->
<g id="edge9" class="edge">
<title>Node8&#45;&gt;Node9</title>
<path fill="none" stroke="midnightblue" d="M460.18,-128.98C469.76,-119.78 485.21,-104.96 496.98,-93.66"/>
<polygon fill="midnightblue" stroke="midnightblue" points="499.64,-95.96 504.43,-86.51 494.79,-90.91 499.64,-95.96"/>
</g>
<!-- Node11 -->
<g id="node11" class="node">
<title>Node11</title>
<g id="a_node11"><a xlink:title=" ">
<polygon fill="white" stroke="#bfbfbf" points="785.8,-0.5 785.8,-30.5 886.8,-30.5 886.8,-0.5 785.8,-0.5"/>
<text text-anchor="start" x="793.8" y="-18.5" font-family="Helvetica,sans-Serif" font-size="10.00">gradido_blockchain</text>
<text text-anchor="middle" x="836.3" y="-7.5" font-family="Helvetica,sans-Serif" font-size="10.00">/MemoryManager.h</text>
</a>
</g>
</g>
<!-- Node8&#45;&gt;Node11 -->
<g id="edge13" class="edge">
<title>Node8&#45;&gt;Node11</title>
<path fill="none" stroke="midnightblue" d="M470.7,-128.92C503.37,-114.7 571.64,-85.94 631.3,-67 679.23,-51.78 734.66,-38.37 775.79,-29.2"/>
<polygon fill="midnightblue" stroke="midnightblue" points="776.65,-32.6 785.66,-27.02 775.14,-25.76 776.65,-32.6"/>
</g>
<!-- Node12 -->
<g id="node12" class="node">
<title>Node12</title>
<g id="a_node12"><a xlink:title=" ">
<polygon fill="white" stroke="#bfbfbf" points="1072.8,-67.5 1072.8,-86.5 1107.8,-86.5 1107.8,-67.5 1072.8,-67.5"/>
<text text-anchor="middle" x="1090.3" y="-74.5" font-family="Helvetica,sans-Serif" font-size="10.00">map</text>
</a>
</g>
</g>
<!-- Node8&#45;&gt;Node12 -->
<g id="edge15" class="edge">
<title>Node8&#45;&gt;Node12</title>
<path fill="none" stroke="midnightblue" d="M494.04,-128.95C506.35,-126.74 519.82,-124.54 532.3,-123 763.53,-94.43 825.29,-124.17 1055.3,-87 1057.7,-86.61 1060.18,-86.13 1062.66,-85.6"/>
<polygon fill="midnightblue" stroke="midnightblue" points="1063.72,-88.95 1072.62,-83.21 1062.08,-82.14 1063.72,-88.95"/>
</g>
<!-- Node9&#45;&gt;Node3 -->
<g id="edge11" class="edge">
<title>Node9&#45;&gt;Node3</title>
<path fill="none" stroke="midnightblue" d="M528.91,-67.48C546.88,-57.67 576.62,-41.43 597.7,-29.92"/>
<polygon fill="midnightblue" stroke="midnightblue" points="599.61,-32.87 606.71,-25.01 596.25,-26.73 599.61,-32.87"/>
</g>
<!-- Node9&#45;&gt;Node6 -->
<g id="edge10" class="edge">
<title>Node9&#45;&gt;Node6</title>
<path fill="none" stroke="midnightblue" d="M484.64,-67.48C449.74,-57.09 390.65,-39.51 351.8,-27.95"/>
<polygon fill="midnightblue" stroke="midnightblue" points="352.48,-24.51 341.9,-25.01 350.49,-31.22 352.48,-24.51"/>
</g>
<!-- Node10 -->
<g id="node10" class="node">
<title>Node10</title>
<g id="a_node10"><a xlink:title=" ">
<polygon fill="white" stroke="#bfbfbf" points="436.8,-6 436.8,-25 565.8,-25 565.8,-6 436.8,-6"/>
<text text-anchor="middle" x="501.3" y="-13" font-family="Helvetica,sans-Serif" font-size="10.00">Poco/RefCountedObject.h</text>
</a>
</g>
</g>
<!-- Node9&#45;&gt;Node10 -->
<g id="edge12" class="edge">
<title>Node9&#45;&gt;Node10</title>
<path fill="none" stroke="midnightblue" d="M511.58,-67.48C509.87,-58.99 507.19,-45.7 504.99,-34.82"/>
<polygon fill="midnightblue" stroke="midnightblue" points="508.42,-34.12 503.01,-25.01 501.56,-35.5 508.42,-34.12"/>
</g>
<!-- Node13&#45;&gt;Node2 -->
<g id="edge17" class="edge">
<title>Node13&#45;&gt;Node2</title>
<path fill="none" stroke="midnightblue" d="M814.81,-201.5C767.78,-188.79 679.13,-164.85 626.84,-150.72"/>
<polygon fill="midnightblue" stroke="midnightblue" points="627.46,-147.26 616.89,-148.03 625.63,-154.02 627.46,-147.26"/>
</g>
<!-- Node13&#45;&gt;Node6 -->
<g id="edge20" class="edge">
<title>Node13&#45;&gt;Node6</title>
<path fill="none" stroke="midnightblue" d="M809.73,-201.76C774.65,-192.95 720.87,-177.07 678.3,-154 658.83,-143.45 659.31,-132.48 639.3,-123 571.08,-90.67 544.37,-112.44 473.3,-87 454.96,-80.44 451.97,-75.2 434.3,-67 404.36,-53.1 369.51,-38.74 344.92,-28.91"/>
<polygon fill="midnightblue" stroke="midnightblue" points="345.97,-25.56 335.38,-25.11 343.38,-32.06 345.97,-25.56"/>
</g>
<!-- Node13&#45;&gt;Node12 -->
<g id="edge19" class="edge">
<title>Node13&#45;&gt;Node12</title>
<path fill="none" stroke="midnightblue" d="M849.45,-201.25C856.3,-183.52 874.32,-143.32 903.3,-123 960.13,-83.13 987.9,-103.65 1055.3,-87 1057.66,-86.42 1060.11,-85.8 1062.57,-85.18"/>
<polygon fill="midnightblue" stroke="midnightblue" points="1063.69,-88.51 1072.51,-82.64 1061.95,-81.73 1063.69,-88.51"/>
</g>
<!-- Node14 -->
<g id="node14" class="node">
<title>Node14</title>
<g id="a_node14"><a xlink:title=" ">
<polygon fill="white" stroke="#bfbfbf" points="912.3,-129 912.3,-148 954.3,-148 954.3,-129 912.3,-129"/>
<text text-anchor="middle" x="933.3" y="-136" font-family="Helvetica,sans-Serif" font-size="10.00">vector</text>
</a>
</g>
</g>
<!-- Node13&#45;&gt;Node14 -->
<g id="edge18" class="edge">
<title>Node13&#45;&gt;Node14</title>
<path fill="none" stroke="midnightblue" d="M856.97,-201.36C871.31,-189.73 897.06,-168.86 914.65,-154.61"/>
<polygon fill="midnightblue" stroke="midnightblue" points="916.98,-157.23 922.54,-148.22 912.57,-151.79 916.98,-157.23"/>
</g>
<!-- Node15 -->
<g id="node15" class="node">
<title>Node15</title>
<g id="a_node15"><a xlink:title=" ">
<polygon fill="white" stroke="#bfbfbf" points="952.3,-67.5 952.3,-86.5 1046.3,-86.5 1046.3,-67.5 952.3,-67.5"/>
<text text-anchor="middle" x="999.3" y="-74.5" font-family="Helvetica,sans-Serif" font-size="10.00">Poco/SharedPtr.h</text>
</a>
</g>
</g>
<!-- Node13&#45;&gt;Node15 -->
<g id="edge21" class="edge">
<title>Node13&#45;&gt;Node15</title>
<path fill="none" stroke="midnightblue" d="M846.18,-201.34C846.42,-184.11 849.42,-145.31 870.3,-123 881.97,-110.52 921.37,-97.83 953.59,-89.13"/>
<polygon fill="midnightblue" stroke="midnightblue" points="954.55,-92.49 963.32,-86.56 952.76,-85.73 954.55,-92.49"/>
</g>
<!-- Node16 -->
<g id="node16" class="node">
<title>Node16</title>
<g id="a_node16"><a xlink:href="model_2files_2_block_index_8h.html" target="_top" xlink:title=" ">
<polygon fill="white" stroke="black" points="686.8,-129 686.8,-148 817.8,-148 817.8,-129 686.8,-129"/>
<text text-anchor="middle" x="752.3" y="-136" font-family="Helvetica,sans-Serif" font-size="10.00">../model/files/BlockIndex.h</text>
</a>
</g>
</g>
<!-- Node13&#45;&gt;Node16 -->
<g id="edge22" class="edge">
<title>Node13&#45;&gt;Node16</title>
<path fill="none" stroke="midnightblue" d="M834.77,-201.36C819.13,-189.62 790.94,-168.48 771.93,-154.22"/>
<polygon fill="midnightblue" stroke="midnightblue" points="774.02,-151.42 763.92,-148.22 769.82,-157.02 774.02,-151.42"/>
</g>
<!-- Node16&#45;&gt;Node9 -->
<g id="edge23" class="edge">
<title>Node16&#45;&gt;Node9</title>
<path fill="none" stroke="midnightblue" d="M718.05,-128.98C674.98,-118.25 601.05,-99.85 554.8,-88.33"/>
<polygon fill="midnightblue" stroke="midnightblue" points="555.36,-84.86 544.81,-85.85 553.67,-91.66 555.36,-84.86"/>
</g>
<!-- Node16&#45;&gt;Node15 -->
<g id="edge27" class="edge">
<title>Node16&#45;&gt;Node15</title>
<path fill="none" stroke="midnightblue" d="M787.69,-128.98C831.52,-118.42 906.26,-100.41 954.18,-88.87"/>
<polygon fill="midnightblue" stroke="midnightblue" points="955.07,-92.25 963.97,-86.51 953.43,-85.45 955.07,-92.25"/>
</g>
<!-- Node17 -->
<g id="node17" class="node">
<title>Node17</title>
<g id="a_node17"><a xlink:href="_virtual_file_8h.html" target="_top" xlink:title=" ">
<polygon fill="white" stroke="black" points="834.8,-67.5 834.8,-86.5 933.8,-86.5 933.8,-67.5 834.8,-67.5"/>
<text text-anchor="middle" x="884.3" y="-74.5" font-family="Helvetica,sans-Serif" font-size="10.00">../../lib/VirtualFile.h</text>
</a>
</g>
</g>
<!-- Node16&#45;&gt;Node17 -->
<g id="edge24" class="edge">
<title>Node16&#45;&gt;Node17</title>
<path fill="none" stroke="midnightblue" d="M771.21,-128.98C793.46,-118.95 830.61,-102.2 856.22,-90.65"/>
<polygon fill="midnightblue" stroke="midnightblue" points="857.74,-93.81 865.42,-86.51 854.87,-87.43 857.74,-93.81"/>
</g>
<!-- Node19 -->
<g id="node19" class="node">
<title>Node19</title>
<g id="a_node19"><a xlink:title=" ">
<polygon fill="white" stroke="#bfbfbf" points="699.3,-67.5 699.3,-86.5 755.3,-86.5 755.3,-67.5 699.3,-67.5"/>
<text text-anchor="middle" x="727.3" y="-74.5" font-family="Helvetica,sans-Serif" font-size="10.00">sodium.h</text>
</a>
</g>
</g>
<!-- Node16&#45;&gt;Node19 -->
<g id="edge28" class="edge">
<title>Node16&#45;&gt;Node19</title>
<path fill="none" stroke="midnightblue" d="M748.72,-128.98C745.11,-120.4 739.45,-106.93 734.85,-95.98"/>
<polygon fill="midnightblue" stroke="midnightblue" points="737.97,-94.37 730.87,-86.51 731.52,-97.08 737.97,-94.37"/>
</g>
<!-- Node20 -->
<g id="node20" class="node">
<title>Node20</title>
<g id="a_node20"><a xlink:title=" ">
<polygon fill="white" stroke="#bfbfbf" points="773.8,-67.5 773.8,-86.5 816.8,-86.5 816.8,-67.5 773.8,-67.5"/>
<text text-anchor="middle" x="795.3" y="-74.5" font-family="Helvetica,sans-Serif" font-size="10.00">queue</text>
</a>
</g>
</g>
<!-- Node16&#45;&gt;Node20 -->
<g id="edge29" class="edge">
<title>Node16&#45;&gt;Node20</title>
<path fill="none" stroke="midnightblue" d="M758.46,-128.98C764.91,-120.05 775.2,-105.81 783.27,-94.64"/>
<polygon fill="midnightblue" stroke="midnightblue" points="786.13,-96.66 789.15,-86.51 780.45,-92.56 786.13,-96.66"/>
</g>
<!-- Node21 -->
<g id="node21" class="node">
<title>Node21</title>
<g id="a_node21"><a xlink:title=" ">
<polygon fill="white" stroke="#bfbfbf" points="639.8,-67.5 639.8,-86.5 680.8,-86.5 680.8,-67.5 639.8,-67.5"/>
<text text-anchor="middle" x="660.3" y="-74.5" font-family="Helvetica,sans-Serif" font-size="10.00">string</text>
</a>
</g>
</g>
<!-- Node16&#45;&gt;Node21 -->
<g id="edge30" class="edge">
<title>Node16&#45;&gt;Node21</title>
<path fill="none" stroke="midnightblue" d="M739.12,-128.98C724.22,-119.34 699.75,-103.52 682.02,-92.05"/>
<polygon fill="midnightblue" stroke="midnightblue" points="683.75,-89 673.45,-86.51 679.95,-94.88 683.75,-89"/>
</g>
<!-- Node17&#45;&gt;Node11 -->
<g id="edge25" class="edge">
<title>Node17&#45;&gt;Node11</title>
<path fill="none" stroke="midnightblue" d="M877.42,-67.48C871.34,-59.94 862.21,-48.63 854.1,-38.57"/>
<polygon fill="midnightblue" stroke="midnightblue" points="856.61,-36.11 847.61,-30.52 851.16,-40.5 856.61,-36.11"/>
</g>
<!-- Node18 -->
<g id="node18" class="node">
<title>Node18</title>
<g id="a_node18"><a xlink:title=" ">
<polygon fill="white" stroke="#bfbfbf" points="905.3,-6 905.3,-25 957.3,-25 957.3,-6 905.3,-6"/>
<text text-anchor="middle" x="931.3" y="-13" font-family="Helvetica,sans-Serif" font-size="10.00">assert.h</text>
</a>
</g>
</g>
<!-- Node17&#45;&gt;Node18 -->
<g id="edge26" class="edge">
<title>Node17&#45;&gt;Node18</title>
<path fill="none" stroke="midnightblue" d="M891.03,-67.48C898.08,-58.55 909.33,-44.31 918.15,-33.14"/>
<polygon fill="midnightblue" stroke="midnightblue" points="921.12,-35.03 924.58,-25.01 915.63,-30.69 921.12,-35.03"/>
</g>
<!-- Node22&#45;&gt;Node3 -->
<g id="edge32" class="edge">
<title>Node22&#45;&gt;Node3</title>
<path fill="none" stroke="midnightblue" d="M1274.29,-201.38C1282.92,-197.5 1293.49,-193.1 1303.3,-190 1380.34,-165.65 1520.09,-188.14 1472.3,-123 1386.59,-6.18 1036.56,-52.15 777.3,-31 741.6,-28.09 701.33,-24.31 670.78,-21.33"/>
<polygon fill="midnightblue" stroke="midnightblue" points="671.11,-17.85 660.81,-20.36 670.42,-24.82 671.11,-17.85"/>
</g>
<!-- Node22&#45;&gt;Node12 -->
<g id="edge38" class="edge">
<title>Node22&#45;&gt;Node12</title>
<path fill="none" stroke="midnightblue" d="M1278.75,-201.44C1288.92,-197.7 1301.14,-193.41 1312.3,-190 1378.65,-169.73 1499.24,-174.99 1453.3,-123 1442.17,-110.41 1201.16,-87.86 1118.12,-80.44"/>
<polygon fill="midnightblue" stroke="midnightblue" points="1118.42,-76.96 1108.15,-79.56 1117.8,-83.93 1118.42,-76.96"/>
</g>
<!-- Node22&#45;&gt;Node14 -->
<g id="edge37" class="edge">
<title>Node22&#45;&gt;Node14</title>
<path fill="none" stroke="midnightblue" d="M1237.27,-201.35C1227.82,-197.37 1216.14,-192.89 1205.3,-190 1100.23,-161.97 1067.21,-186.03 963.3,-154 961.62,-153.48 959.93,-152.89 958.24,-152.24"/>
<polygon fill="midnightblue" stroke="midnightblue" points="959.38,-148.92 948.81,-148.1 956.56,-155.33 959.38,-148.92"/>
</g>
<!-- Node22&#45;&gt;Node23 -->
<g id="edge33" class="edge">
<title>Node22&#45;&gt;Node23</title>
<path fill="none" stroke="midnightblue" d="M1276.15,-201.49C1286.69,-197.33 1299.99,-192.66 1312.3,-190 1500.17,-149.33 1554.19,-188.45 1743.3,-154 1748.14,-153.12 1753.18,-151.97 1758.13,-150.71"/>
<polygon fill="midnightblue" stroke="midnightblue" points="1759.33,-154.01 1768.06,-148.01 1757.49,-147.26 1759.33,-154.01"/>
</g>
<!-- Node24 -->
<g id="node24" class="node">
<title>Node24</title>
<g id="a_node24"><a xlink:title=" ">
<polygon fill="white" stroke="#bfbfbf" points="1634.3,-123.5 1634.3,-153.5 1734.3,-153.5 1734.3,-123.5 1634.3,-123.5"/>
<text text-anchor="start" x="1642.3" y="-141.5" font-family="Helvetica,sans-Serif" font-size="10.00">gradido_blockchain</text>
<text text-anchor="middle" x="1684.3" y="-130.5" font-family="Helvetica,sans-Serif" font-size="10.00">/lib/DRHashList.h</text>
</a>
</g>
</g>
<!-- Node22&#45;&gt;Node24 -->
<g id="edge34" class="edge">
<title>Node22&#45;&gt;Node24</title>
<path fill="none" stroke="midnightblue" d="M1276.7,-201.44C1287.17,-197.38 1300.23,-192.81 1312.3,-190 1445.48,-158.99 1485.6,-177.83 1624.04,-154.06"/>
<polygon fill="midnightblue" stroke="midnightblue" points="1624.94,-157.46 1634.18,-152.27 1623.72,-150.56 1624.94,-157.46"/>
</g>
<!-- Node25 -->
<g id="node25" class="node">
<title>Node25</title>
<g id="a_node25"><a xlink:title=" ">
<polygon fill="white" stroke="#bfbfbf" points="1314.3,-123.5 1314.3,-153.5 1444.3,-153.5 1444.3,-123.5 1314.3,-123.5"/>
<text text-anchor="start" x="1322.3" y="-141.5" font-family="Helvetica,sans-Serif" font-size="10.00">gradido_blockchain</text>
<text text-anchor="middle" x="1379.3" y="-130.5" font-family="Helvetica,sans-Serif" font-size="10.00">/lib/MultithreadContainer.h</text>
</a>
</g>
</g>
<!-- Node22&#45;&gt;Node25 -->
<g id="edge35" class="edge">
<title>Node22&#45;&gt;Node25</title>
<path fill="none" stroke="midnightblue" d="M1271.38,-201.36C1289.81,-190.79 1321.54,-172.61 1345.83,-158.68"/>
<polygon fill="midnightblue" stroke="midnightblue" points="1347.8,-161.59 1354.74,-153.58 1344.32,-155.51 1347.8,-161.59"/>
</g>
<!-- Node26 -->
<g id="node26" class="node">
<title>Node26</title>
<g id="a_node26"><a xlink:href="_task_8h.html" target="_top" xlink:title=" ">
<polygon fill="white" stroke="black" points="1538.8,-129 1538.8,-148 1615.8,-148 1615.8,-129 1538.8,-129"/>
<text text-anchor="middle" x="1577.3" y="-136" font-family="Helvetica,sans-Serif" font-size="10.00">../task/Task.h</text>
</a>
</g>
</g>
<!-- Node22&#45;&gt;Node26 -->
<g id="edge36" class="edge">
<title>Node22&#45;&gt;Node26</title>
<path fill="none" stroke="midnightblue" d="M1277.56,-201.42C1287.91,-197.49 1300.61,-193.05 1312.3,-190 1404.76,-165.84 1430.98,-174.64 1524.3,-154 1528.77,-153.01 1533.42,-151.88 1538.04,-150.7"/>
<polygon fill="midnightblue" stroke="midnightblue" points="1539.22,-154.01 1547.99,-148.07 1537.43,-147.25 1539.22,-154.01"/>
</g>
<!-- Node29&#45;&gt;Node6 -->
<g id="edge44" class="edge">
<title>Node29&#45;&gt;Node6</title>
<path fill="none" stroke="midnightblue" d="M91.1,-128.99C132.14,-108.21 237.72,-54.77 287.1,-29.76"/>
<polygon fill="midnightblue" stroke="midnightblue" points="288.85,-32.8 296.19,-25.16 285.69,-26.56 288.85,-32.8"/>
</g>
<!-- Node29&#45;&gt;Node9 -->
<g id="edge42" class="edge">
<title>Node29&#45;&gt;Node9</title>
<path fill="none" stroke="midnightblue" d="M108.49,-128.93C117.8,-126.79 127.9,-124.64 137.3,-123 169.65,-117.36 380.53,-93.11 471.57,-82.74"/>
<polygon fill="midnightblue" stroke="midnightblue" points="472,-86.21 481.54,-81.6 471.21,-79.26 472,-86.21"/>
</g>
<!-- Node30 -->
<g id="node30" class="node">
<title>Node30</title>
<g id="a_node30"><a xlink:title=" ">
<polygon fill="white" stroke="#bfbfbf" points="40.3,-67.5 40.3,-86.5 108.3,-86.5 108.3,-67.5 40.3,-67.5"/>
<text text-anchor="middle" x="74.3" y="-74.5" font-family="Helvetica,sans-Serif" font-size="10.00">leveldb/db.h</text>
</a>
</g>
</g>
<!-- Node29&#45;&gt;Node30 -->
<g id="edge43" class="edge">
<title>Node29&#45;&gt;Node30</title>
<path fill="none" stroke="midnightblue" d="M74.3,-128.98C74.3,-120.58 74.3,-107.48 74.3,-96.66"/>
<polygon fill="midnightblue" stroke="midnightblue" points="77.8,-96.51 74.3,-86.51 70.8,-96.51 77.8,-96.51"/>
</g>
<!-- Node32&#45;&gt;Node12 -->
<g id="edge54" class="edge">
<title>Node32&#45;&gt;Node12</title>
<path fill="none" stroke="midnightblue" d="M1129.54,-201.34C1122.78,-180.08 1105.24,-124.96 1096.07,-96.15"/>
<polygon fill="midnightblue" stroke="midnightblue" points="1099.38,-94.99 1093.01,-86.52 1092.71,-97.11 1099.38,-94.99"/>
</g>
<!-- Node32&#45;&gt;Node14 -->
<g id="edge53" class="edge">
<title>Node32&#45;&gt;Node14</title>
<path fill="none" stroke="midnightblue" d="M1102.57,-201.43C1068.48,-191.31 1011.13,-173.39 963.3,-154 961.92,-153.44 960.52,-152.85 959.12,-152.24"/>
<polygon fill="midnightblue" stroke="midnightblue" points="960.49,-149.02 949.94,-148.02 957.57,-155.38 960.49,-149.02"/>
</g>
<!-- Node32&#45;&gt;Node25 -->
<g id="edge48" class="edge">
<title>Node32&#45;&gt;Node25</title>
<path fill="none" stroke="midnightblue" d="M1162.09,-201.5C1201.19,-190.34 1270.67,-170.5 1320.53,-156.27"/>
<polygon fill="midnightblue" stroke="midnightblue" points="1321.57,-159.62 1330.23,-153.51 1319.65,-152.89 1321.57,-159.62"/>
</g>
<!-- Node33 -->
<g id="node33" class="node">
<title>Node33</title>
<g id="a_node33"><a xlink:title=" ">
<polygon fill="white" stroke="#bfbfbf" points="1126.3,-129 1126.3,-148 1206.3,-148 1206.3,-129 1126.3,-129"/>
<text text-anchor="middle" x="1166.3" y="-136" font-family="Helvetica,sans-Serif" font-size="10.00">Poco/Logger.h</text>
</a>
</g>
</g>
<!-- Node32&#45;&gt;Node33 -->
<g id="edge47" class="edge">
<title>Node32&#45;&gt;Node33</title>
<path fill="none" stroke="midnightblue" d="M1136.47,-201.36C1141.72,-190.47 1150.87,-171.48 1157.66,-157.41"/>
<polygon fill="midnightblue" stroke="midnightblue" points="1160.9,-158.74 1162.09,-148.22 1154.6,-155.7 1160.9,-158.74"/>
</g>
<!-- Node34 -->
<g id="node34" class="node">
<title>Node34</title>
<g id="a_node34"><a xlink:href="_fuzzy_timer_8h.html" target="_top" xlink:title=" ">
<polygon fill="white" stroke="black" points="972.3,-129 972.3,-148 1070.3,-148 1070.3,-129 972.3,-129"/>
<text text-anchor="middle" x="1021.3" y="-136" font-family="Helvetica,sans-Serif" font-size="10.00">../lib/FuzzyTimer.h</text>
</a>
</g>
</g>
<!-- Node32&#45;&gt;Node34 -->
<g id="edge49" class="edge">
<title>Node32&#45;&gt;Node34</title>
<path fill="none" stroke="midnightblue" d="M1118.69,-201.36C1099.96,-189.46 1066.03,-167.91 1043.58,-153.65"/>
<polygon fill="midnightblue" stroke="midnightblue" points="1045.34,-150.62 1035.02,-148.22 1041.58,-156.53 1045.34,-150.62"/>
</g>
<!-- Node35 -->
<g id="node35" class="node">
<title>Node35</title>
<g id="a_node35"><a xlink:href="_message_id_8h.html" target="_top" xlink:title=" ">
<polygon fill="white" stroke="black" points="1224.3,-129 1224.3,-148 1296.3,-148 1296.3,-129 1224.3,-129"/>
<text text-anchor="middle" x="1260.3" y="-136" font-family="Helvetica,sans-Serif" font-size="10.00">MessageId.h</text>
</a>
</g>
</g>
<!-- Node32&#45;&gt;Node35 -->
<g id="edge50" class="edge">
<title>Node32&#45;&gt;Node35</title>
<path fill="none" stroke="midnightblue" d="M1147.74,-201.5C1169.65,-189.43 1209.98,-167.21 1235.95,-152.91"/>
<polygon fill="midnightblue" stroke="midnightblue" points="1237.73,-155.92 1244.8,-148.03 1234.35,-149.79 1237.73,-155.92"/>
</g>
<!-- Node35&#45;&gt;Node11 -->
<g id="edge52" class="edge">
<title>Node35&#45;&gt;Node11</title>
<path fill="none" stroke="midnightblue" d="M1246.28,-128.82C1221.32,-113.77 1167.12,-82.95 1117.3,-67 1025.57,-37.64 995.76,-49.84 897.07,-31.02"/>
<polygon fill="midnightblue" stroke="midnightblue" points="897.46,-27.53 886.98,-29.03 896.11,-34.4 897.46,-27.53"/>
</g>
<!-- Node36 -->
<g id="node36" class="node">
<title>Node36</title>
<g id="a_node36"><a xlink:title=" ">
<polygon fill="white" stroke="#bfbfbf" points="1235.8,-67.5 1235.8,-86.5 1284.8,-86.5 1284.8,-67.5 1235.8,-67.5"/>
<text text-anchor="middle" x="1260.3" y="-74.5" font-family="Helvetica,sans-Serif" font-size="10.00">cassert</text>
</a>
</g>
</g>
<!-- Node35&#45;&gt;Node36 -->
<g id="edge51" class="edge">
<title>Node35&#45;&gt;Node36</title>
<path fill="none" stroke="midnightblue" d="M1260.3,-128.98C1260.3,-120.58 1260.3,-107.48 1260.3,-96.66"/>
<polygon fill="midnightblue" stroke="midnightblue" points="1263.8,-96.51 1260.3,-86.51 1256.8,-96.51 1263.8,-96.51"/>
</g>
</g>
</svg>
