<?xml version="1.0" encoding="UTF-8" standalone="no"?>
<!DOCTYPE svg PUBLIC "-//W3C//DTD SVG 1.1//EN"
 "http://www.w3.org/Graphics/SVG/1.1/DTD/svg11.dtd">
<!-- Generated by graphviz version 2.50.0 (20211204.2007)
 -->
<!-- Title: src/SingletonManager/GroupManager.h Pages: 1 -->
<!--zoomable 363 -->
<svg id="main" version="1.1" xmlns="http://www.w3.org/2000/svg" xmlns:xlink="http://www.w3.org/1999/xlink" xml:space="preserve" onload="init(evt)">
<style type="text/css"><![CDATA[
.edge:hover path { stroke: red; }
.edge:hover polygon { stroke: red; fill: red; }
]]></style>
<script type="text/javascript"><![CDATA[
var edges = document.getElementsByTagName('g');
if (edges && edges.length) {
  for (var i=0;i<edges.length;i++) {
    if (edges[i].id.substr(0,4)=='edge') {
      edges[i].setAttribute('class','edge');
    }
  }
}
]]></script>
        <defs>
                <circle id="rim" cx="0" cy="0" r="7"/>
                <circle id="rim2" cx="0" cy="0" r="3.5"/>
                <g id="zoomPlus">
                        <use xlink:href="#rim" fill="#404040">
                                <set attributeName="fill" to="#808080" begin="zoomplus.mouseover" end="zoomplus.mouseout"/>
                        </use>
                        <path d="M-4,0h8M0,-4v8" fill="none" stroke="white" stroke-width="1.5" pointer-events="none"/>
                </g>
                <g id="zoomMin">
                        <use xlink:href="#rim" fill="#404040">
                                <set attributeName="fill" to="#808080" begin="zoomminus.mouseover" end="zoomminus.mouseout"/>
                        </use>
                        <path d="M-4,0h8" fill="none" stroke="white" stroke-width="1.5" pointer-events="none"/>
                </g>
                <g id="dirArrow">
                        <path fill="none" stroke="white" stroke-width="1.5" d="M0,-3.0v7 M-2.5,-0.5L0,-3.0L2.5,-0.5"/>
                </g>
               <g id="resetDef">
                       <use xlink:href="#rim2" fill="#404040">
                               <set attributeName="fill" to="#808080" begin="reset.mouseover" end="reset.mouseout"/>
                       </use>
               </g>
        </defs>

<script type="text/javascript">
var viewWidth = 2304;
var viewHeight = 363;
var sectionId = 'dynsection-0';
</script>
<script xlink:href="svgpan.js"/>
<svg id="graph" class="graph">
<g id="viewport">
<title>src/SingletonManager/GroupManager.h</title>
<polygon fill="white" stroke="transparent" points="-4,4 -4,-359 2300.05,-359 2300.05,4 -4,4"/>
<!-- Node1 -->
<g id="node1" class="node">
<title>Node1</title>
<g id="a_node1"><a xlink:title=" ">
<polygon fill="#bfbfbf" stroke="black" points="65.55,-324.5 65.55,-354.5 176.55,-354.5 176.55,-324.5 65.55,-324.5"/>
<text text-anchor="start" x="73.55" y="-342.5" font-family="Helvetica,sans-Serif" font-size="10.00">src/SingletonManager</text>
<text text-anchor="middle" x="121.05" y="-331.5" font-family="Helvetica,sans-Serif" font-size="10.00">/GroupManager.h</text>
</a>
</g>
</g>
<!-- Node2 -->
<g id="node2" class="node">
<title>Node2</title>
<g id="a_node2"><a xlink:href="controller_2_group_index_8h.html" target="_top" xlink:title=" ">
<polygon fill="white" stroke="black" points="104.05,-201.5 104.05,-220.5 230.05,-220.5 230.05,-201.5 104.05,-201.5"/>
<text text-anchor="middle" x="167.05" y="-208.5" font-family="Helvetica,sans-Serif" font-size="10.00">../controller/GroupIndex.h</text>
</a>
</g>
</g>
<!-- Node1&#45;&gt;Node2 -->
<g id="edge1" class="edge">
<title>Node1&#45;&gt;Node2</title>
<path fill="none" stroke="midnightblue" d="M126.15,-324.48C134.5,-301.51 151.09,-255.89 160.37,-230.37"/>
<polygon fill="midnightblue" stroke="midnightblue" points="163.73,-231.38 163.85,-220.79 157.15,-228.99 163.73,-231.38"/>
</g>
<!-- Node4 -->
<g id="node4" class="node">
<title>Node4</title>
<g id="a_node4"><a xlink:title=" ">
<polygon fill="white" stroke="#bfbfbf" points="35.05,-67.5 35.05,-86.5 193.05,-86.5 193.05,-67.5 35.05,-67.5"/>
<text text-anchor="middle" x="114.05" y="-74.5" font-family="Helvetica,sans-Serif" font-size="10.00">Poco/Util/LayeredConfiguration.h</text>
</a>
</g>
</g>
<!-- Node1&#45;&gt;Node4 -->
<g id="edge71" class="edge">
<title>Node1&#45;&gt;Node4</title>
<path fill="none" stroke="midnightblue" d="M96.58,-324.49C83.85,-315.77 69.44,-303.3 62.05,-288 36.12,-234.34 58.16,-213.59 57.05,-154 56.79,-140.22 51.04,-135.4 57.05,-123 63.45,-109.8 75.8,-99.3 87.38,-91.78"/>
<polygon fill="midnightblue" stroke="midnightblue" points="89.21,-94.77 95.97,-86.61 85.6,-88.77 89.21,-94.77"/>
</g>
<!-- Node8 -->
<g id="node8" class="node">
<title>Node8</title>
<g id="a_node8"><a xlink:title=" ">
<polygon fill="white" stroke="#bfbfbf" points="759.55,-6 759.55,-25 836.55,-25 836.55,-6 759.55,-6"/>
<text text-anchor="middle" x="798.05" y="-13" font-family="Helvetica,sans-Serif" font-size="10.00">Poco/Mutex.h</text>
</a>
</g>
</g>
<!-- Node1&#45;&gt;Node8 -->
<g id="edge69" class="edge">
<title>Node1&#45;&gt;Node8</title>
<path fill="none" stroke="midnightblue" d="M92.37,-324.49C56.59,-304.77 0.05,-265.18 0.05,-212 0.05,-212 0.05,-212 0.05,-137.5 0.05,-104.1 -0.75,-86.93 26.05,-67 78.12,-28.26 544.3,-35.48 609.05,-31 656.61,-27.71 710.87,-23.5 749.02,-20.46"/>
<polygon fill="midnightblue" stroke="midnightblue" points="749.64,-23.92 759.33,-19.64 749.08,-16.95 749.64,-23.92"/>
</g>
<!-- Node9 -->
<g id="node9" class="node">
<title>Node9</title>
<g id="a_node9"><a xlink:title=" ">
<polygon fill="white" stroke="#bfbfbf" points="764.55,-67.5 764.55,-86.5 847.55,-86.5 847.55,-67.5 764.55,-67.5"/>
<text text-anchor="middle" x="806.05" y="-74.5" font-family="Helvetica,sans-Serif" font-size="10.00">unordered_map</text>
</a>
</g>
</g>
<!-- Node1&#45;&gt;Node9 -->
<g id="edge72" class="edge">
<title>Node1&#45;&gt;Node9</title>
<path fill="none" stroke="midnightblue" d="M112.02,-324.11C95.29,-295.43 63.9,-230.43 95.05,-190 103.96,-178.44 334.67,-125.51 349.05,-123 524.27,-92.35 573.69,-110.09 754.25,-86.98"/>
<polygon fill="midnightblue" stroke="midnightblue" points="754.88,-90.43 764.35,-85.66 753.98,-83.48 754.88,-90.43"/>
</g>
<!-- Node10 -->
<g id="node10" class="node">
<title>Node10</title>
<g id="a_node10"><a xlink:href="_group_8h.html" target="_top" xlink:title=" ">
<polygon fill="white" stroke="black" points="991.55,-268.5 991.55,-287.5 1094.55,-287.5 1094.55,-268.5 991.55,-268.5"/>
<text text-anchor="middle" x="1043.05" y="-275.5" font-family="Helvetica,sans-Serif" font-size="10.00">../controller/Group.h</text>
</a>
</g>
</g>
<!-- Node1&#45;&gt;Node10 -->
<g id="edge9" class="edge">
<title>Node1&#45;&gt;Node10</title>
<path fill="none" stroke="midnightblue" d="M176.65,-334.91C338.99,-324.44 811.57,-293.94 981.38,-282.98"/>
<polygon fill="midnightblue" stroke="midnightblue" points="981.65,-286.47 991.4,-282.33 981.2,-279.48 981.65,-286.47"/>
</g>
<!-- Node12 -->
<g id="node12" class="node">
<title>Node12</title>
<g id="a_node12"><a xlink:title=" ">
<polygon fill="white" stroke="#bfbfbf" points="1333.55,-129 1333.55,-148 1472.55,-148 1472.55,-129 1333.55,-129"/>
<text text-anchor="middle" x="1403.05" y="-136" font-family="Helvetica,sans-Serif" font-size="10.00">Poco/AccessExpireCache.h</text>
</a>
</g>
</g>
<!-- Node1&#45;&gt;Node12 -->
<g id="edge70" class="edge">
<title>Node1&#45;&gt;Node12</title>
<path fill="none" stroke="midnightblue" d="M176.74,-339.04C327.02,-339.75 753.08,-336.94 1103.05,-288 1212.81,-272.65 1256.01,-296.62 1346.05,-232 1372.01,-213.37 1388.57,-178.9 1396.8,-157.7"/>
<polygon fill="midnightblue" stroke="midnightblue" points="1400.12,-158.83 1400.27,-148.24 1393.54,-156.43 1400.12,-158.83"/>
</g>
<!-- Node3 -->
<g id="node3" class="node">
<title>Node3</title>
<g id="a_node3"><a xlink:href="model_2files_2_group_index_8h.html" target="_top" xlink:title=" ">
<polygon fill="white" stroke="black" points="66.55,-129 66.55,-148 199.55,-148 199.55,-129 66.55,-129"/>
<text text-anchor="middle" x="133.05" y="-136" font-family="Helvetica,sans-Serif" font-size="10.00">../model/files/GroupIndex.h</text>
</a>
</g>
</g>
<!-- Node2&#45;&gt;Node3 -->
<g id="edge2" class="edge">
<title>Node2&#45;&gt;Node3</title>
<path fill="none" stroke="midnightblue" d="M162.88,-201.36C157.63,-190.47 148.47,-171.48 141.69,-157.41"/>
<polygon fill="midnightblue" stroke="midnightblue" points="144.75,-155.7 137.25,-148.22 138.44,-158.74 144.75,-155.7"/>
</g>
<!-- Node5 -->
<g id="node5" class="node">
<title>Node5</title>
<g id="a_node5"><a xlink:title=" ">
<polygon fill="white" stroke="#bfbfbf" points="977.05,-123.5 977.05,-153.5 1077.05,-153.5 1077.05,-123.5 977.05,-123.5"/>
<text text-anchor="start" x="985.05" y="-141.5" font-family="Helvetica,sans-Serif" font-size="10.00">gradido_blockchain</text>
<text text-anchor="middle" x="1027.05" y="-130.5" font-family="Helvetica,sans-Serif" font-size="10.00">/lib/DRHashList.h</text>
</a>
</g>
</g>
<!-- Node2&#45;&gt;Node5 -->
<g id="edge4" class="edge">
<title>Node2&#45;&gt;Node5</title>
<path fill="none" stroke="midnightblue" d="M192.4,-201.48C206.06,-197.26 223.3,-192.55 239.05,-190 555.57,-138.86 644.6,-198.99 966.68,-153.81"/>
<polygon fill="midnightblue" stroke="midnightblue" points="967.36,-157.25 976.77,-152.38 966.37,-150.32 967.36,-157.25"/>
</g>
<!-- Node6 -->
<g id="node6" class="node">
<title>Node6</title>
<g id="a_node6"><a xlink:title=" ">
<polygon fill="white" stroke="#bfbfbf" points="529.55,-6 529.55,-25 600.55,-25 600.55,-6 529.55,-6"/>
<text text-anchor="middle" x="565.05" y="-13" font-family="Helvetica,sans-Serif" font-size="10.00">Poco/Path.h</text>
</a>
</g>
</g>
<!-- Node2&#45;&gt;Node6 -->
<g id="edge5" class="edge">
<title>Node2&#45;&gt;Node6</title>
<path fill="none" stroke="midnightblue" d="M178.52,-201.42C211.32,-177.25 308.91,-107.67 399.05,-67 438.24,-49.32 485.33,-35.65 519.33,-27.02"/>
<polygon fill="midnightblue" stroke="midnightblue" points="520.58,-30.32 529.44,-24.51 518.89,-23.53 520.58,-30.32"/>
</g>
<!-- Node7 -->
<g id="node7" class="node">
<title>Node7</title>
<g id="a_node7"><a xlink:href="_controller_base_8h.html" target="_top" xlink:title=" ">
<polygon fill="white" stroke="black" points="479.55,-129 479.55,-148 568.55,-148 568.55,-129 479.55,-129"/>
<text text-anchor="middle" x="524.05" y="-136" font-family="Helvetica,sans-Serif" font-size="10.00">ControllerBase.h</text>
</a>
</g>
</g>
<!-- Node2&#45;&gt;Node7 -->
<g id="edge6" class="edge">
<title>Node2&#45;&gt;Node7</title>
<path fill="none" stroke="midnightblue" d="M194.9,-201.47C208.18,-197.61 224.35,-193.2 239.05,-190 338.43,-168.35 365.36,-174.15 465.05,-154 470.41,-152.92 476.03,-151.68 481.57,-150.39"/>
<polygon fill="midnightblue" stroke="midnightblue" points="482.48,-153.77 491.39,-148.04 480.85,-146.96 482.48,-153.77"/>
</g>
<!-- Node2&#45;&gt;Node9 -->
<g id="edge8" class="edge">
<title>Node2&#45;&gt;Node9</title>
<path fill="none" stroke="midnightblue" d="M191.86,-201.46C243.18,-184.12 364.97,-144.59 470.05,-123 591.94,-97.96 627.04,-105.68 754.2,-87.04"/>
<polygon fill="midnightblue" stroke="midnightblue" points="754.95,-90.47 764.33,-85.53 753.92,-83.55 754.95,-90.47"/>
</g>
<!-- Node3&#45;&gt;Node4 -->
<g id="edge3" class="edge">
<title>Node3&#45;&gt;Node4</title>
<path fill="none" stroke="midnightblue" d="M130.33,-128.98C127.62,-120.49 123.38,-107.2 119.9,-96.32"/>
<polygon fill="midnightblue" stroke="midnightblue" points="123.14,-94.97 116.77,-86.51 116.47,-97.1 123.14,-94.97"/>
</g>
<!-- Node7&#45;&gt;Node8 -->
<g id="edge7" class="edge">
<title>Node7&#45;&gt;Node8</title>
<path fill="none" stroke="midnightblue" d="M517.74,-128.58C508.28,-113.99 493.03,-84.87 508.05,-67 523.41,-48.73 670.86,-30.22 749.38,-21.56"/>
<polygon fill="midnightblue" stroke="midnightblue" points="749.96,-25.02 759.52,-20.46 749.2,-18.06 749.96,-25.02"/>
</g>
<!-- Node10&#45;&gt;Node6 -->
<g id="edge63" class="edge">
<title>Node10&#45;&gt;Node6</title>
<path fill="none" stroke="midnightblue" d="M1042.05,-268.24C1039.48,-250.11 1030.81,-208.64 1004.05,-190 906.45,-122.03 551.27,-240.88 470.05,-154 432.17,-113.48 503.84,-56.8 542.57,-30.69"/>
<polygon fill="midnightblue" stroke="midnightblue" points="544.75,-33.45 551.18,-25.03 540.9,-27.6 544.75,-33.45"/>
</g>
<!-- Node10&#45;&gt;Node7 -->
<g id="edge10" class="edge">
<title>Node10&#45;&gt;Node7</title>
<path fill="none" stroke="midnightblue" d="M1045.77,-268.4C1050.7,-250.93 1058.79,-211.19 1038.05,-190 1002.58,-153.76 633.12,-162.08 583.05,-154 577.11,-153.04 570.89,-151.79 564.81,-150.43"/>
<polygon fill="midnightblue" stroke="midnightblue" points="565.32,-146.95 554.78,-148.05 563.71,-153.76 565.32,-146.95"/>
</g>
<!-- Node11 -->
<g id="node11" class="node">
<title>Node11</title>
<g id="a_node11"><a xlink:href="controller_2_address_index_8h.html" target="_top" xlink:title=" ">
<polygon fill="white" stroke="black" points="1220.05,-201.5 1220.05,-220.5 1304.05,-220.5 1304.05,-201.5 1220.05,-201.5"/>
<text text-anchor="middle" x="1262.05" y="-208.5" font-family="Helvetica,sans-Serif" font-size="10.00">AddressIndex.h</text>
</a>
</g>
</g>
<!-- Node10&#45;&gt;Node11 -->
<g id="edge11" class="edge">
<title>Node10&#45;&gt;Node11</title>
<path fill="none" stroke="midnightblue" d="M1076.66,-268.49C1109.77,-259.93 1161.68,-246.03 1206.05,-232 1213.8,-229.55 1222.08,-226.71 1229.84,-223.96"/>
<polygon fill="midnightblue" stroke="midnightblue" points="1231.07,-227.24 1239.29,-220.56 1228.7,-220.65 1231.07,-227.24"/>
</g>
<!-- Node10&#45;&gt;Node12 -->
<g id="edge66" class="edge">
<title>Node10&#45;&gt;Node12</title>
<path fill="none" stroke="midnightblue" d="M1094.55,-277.77C1151.22,-276.57 1243.47,-268.41 1313.05,-232 1317.68,-229.57 1363.47,-181.45 1387.89,-155.6"/>
<polygon fill="midnightblue" stroke="midnightblue" points="1390.67,-157.75 1394.98,-148.07 1385.58,-152.95 1390.67,-157.75"/>
</g>
<!-- Node18 -->
<g id="node18" class="node">
<title>Node18</title>
<g id="a_node18"><a xlink:href="controller_2_block_index_8h.html" target="_top" xlink:title=" ">
<polygon fill="white" stroke="black" points="1090.55,-201.5 1090.55,-220.5 1163.55,-220.5 1163.55,-201.5 1090.55,-201.5"/>
<text text-anchor="middle" x="1127.05" y="-208.5" font-family="Helvetica,sans-Serif" font-size="10.00">BlockIndex.h</text>
</a>
</g>
</g>
<!-- Node10&#45;&gt;Node18 -->
<g id="edge24" class="edge">
<title>Node10&#45;&gt;Node18</title>
<path fill="none" stroke="midnightblue" d="M1054.38,-268.23C1068.11,-257.61 1091.45,-239.55 1107.97,-226.76"/>
<polygon fill="midnightblue" stroke="midnightblue" points="1110.13,-229.52 1115.9,-220.63 1105.85,-223.98 1110.13,-229.52"/>
</g>
<!-- Node27 -->
<g id="node27" class="node">
<title>Node27</title>
<g id="a_node27"><a xlink:href="_task_observer_8h.html" target="_top" xlink:title=" ">
<polygon fill="white" stroke="black" points="1579.05,-201.5 1579.05,-220.5 1663.05,-220.5 1663.05,-201.5 1579.05,-201.5"/>
<text text-anchor="middle" x="1621.05" y="-208.5" font-family="Helvetica,sans-Serif" font-size="10.00">TaskObserver.h</text>
</a>
</g>
</g>
<!-- Node10&#45;&gt;Node27 -->
<g id="edge39" class="edge">
<title>Node10&#45;&gt;Node27</title>
<path fill="none" stroke="midnightblue" d="M1094.6,-271.2C1203.96,-258.9 1458.21,-230.31 1568.47,-217.91"/>
<polygon fill="midnightblue" stroke="midnightblue" points="1569.14,-221.36 1578.68,-216.76 1568.35,-214.4 1569.14,-221.36"/>
</g>
<!-- Node28 -->
<g id="node28" class="node">
<title>Node28</title>
<g id="a_node28"><a xlink:title=" ">
<polygon fill="white" stroke="#bfbfbf" points="1490.55,-129 1490.55,-148 1573.55,-148 1573.55,-129 1490.55,-129"/>
<text text-anchor="middle" x="1532.05" y="-136" font-family="Helvetica,sans-Serif" font-size="10.00">Poco/AutoPtr.h</text>
</a>
</g>
</g>
<!-- Node10&#45;&gt;Node28 -->
<g id="edge64" class="edge">
<title>Node10&#45;&gt;Node28</title>
<path fill="none" stroke="midnightblue" d="M1094.81,-274.26C1156.03,-269.89 1260.43,-258.9 1346.05,-232 1408.63,-212.33 1476.19,-173.91 1510.05,-153.32"/>
<polygon fill="midnightblue" stroke="midnightblue" points="1511.99,-156.24 1518.68,-148.02 1508.32,-150.27 1511.99,-156.24"/>
</g>
<!-- Node31 -->
<g id="node31" class="node">
<title>Node31</title>
<g id="a_node31"><a xlink:title=" ">
<polygon fill="white" stroke="#bfbfbf" points="248.05,-190.5 248.05,-231.5 368.05,-231.5 368.05,-190.5 248.05,-190.5"/>
<text text-anchor="start" x="256.05" y="-219.5" font-family="Helvetica,sans-Serif" font-size="10.00">gradido_blockchain</text>
<text text-anchor="start" x="256.05" y="-208.5" font-family="Helvetica,sans-Serif" font-size="10.00">/model/protobufWrapper</text>
<text text-anchor="middle" x="308.05" y="-197.5" font-family="Helvetica,sans-Serif" font-size="10.00">/GradidoBlock.h</text>
</a>
</g>
</g>
<!-- Node10&#45;&gt;Node31 -->
<g id="edge47" class="edge">
<title>Node10&#45;&gt;Node31</title>
<path fill="none" stroke="midnightblue" d="M991.21,-277.26C880.13,-277.02 611.06,-272.1 378.1,-231.97"/>
<polygon fill="midnightblue" stroke="midnightblue" points="378.53,-228.5 368.08,-230.22 377.33,-235.39 378.53,-228.5"/>
</g>
<!-- Node32 -->
<g id="node32" class="node">
<title>Node32</title>
<g id="a_node32"><a xlink:title=" ">
<polygon fill="white" stroke="#bfbfbf" points="386.05,-190.5 386.05,-231.5 506.05,-231.5 506.05,-190.5 386.05,-190.5"/>
<text text-anchor="start" x="394.05" y="-219.5" font-family="Helvetica,sans-Serif" font-size="10.00">gradido_blockchain</text>
<text text-anchor="start" x="394.05" y="-208.5" font-family="Helvetica,sans-Serif" font-size="10.00">/model/protobufWrapper</text>
<text text-anchor="middle" x="446.05" y="-197.5" font-family="Helvetica,sans-Serif" font-size="10.00">/GradidoTransaction.h</text>
</a>
</g>
</g>
<!-- Node10&#45;&gt;Node32 -->
<g id="edge48" class="edge">
<title>Node10&#45;&gt;Node32</title>
<path fill="none" stroke="midnightblue" d="M991.26,-275.96C897.87,-273.36 695.09,-264.37 515.96,-231.97"/>
<polygon fill="midnightblue" stroke="midnightblue" points="516.56,-228.52 506.09,-230.16 515.3,-235.41 516.56,-228.52"/>
</g>
<!-- Node33 -->
<g id="node33" class="node">
<title>Node33</title>
<g id="a_node33"><a xlink:href="_state_8h.html" target="_top" xlink:title=" ">
<polygon fill="white" stroke="black" points="851.55,-129 851.55,-148 958.55,-148 958.55,-129 851.55,-129"/>
<text text-anchor="middle" x="905.05" y="-136" font-family="Helvetica,sans-Serif" font-size="10.00">../model/files/State.h</text>
</a>
</g>
</g>
<!-- Node10&#45;&gt;Node33 -->
<g id="edge49" class="edge">
<title>Node10&#45;&gt;Node33</title>
<path fill="none" stroke="midnightblue" d="M1094.69,-273C1122.47,-267.91 1154.54,-256.66 1172.05,-232 1182.86,-216.78 1184.05,-204.3 1172.05,-190 1142.46,-154.73 1013.16,-163.17 968.05,-154 962.34,-152.84 956.36,-151.56 950.45,-150.24"/>
<polygon fill="midnightblue" stroke="midnightblue" points="951.16,-146.81 940.63,-148.03 949.61,-153.64 951.16,-146.81"/>
</g>
<!-- Node35 -->
<g id="node35" class="node">
<title>Node35</title>
<g id="a_node35"><a xlink:title=" ">
<polygon fill="white" stroke="#bfbfbf" points="524.05,-196 524.05,-226 628.05,-226 628.05,-196 524.05,-196"/>
<text text-anchor="start" x="532.05" y="-214" font-family="Helvetica,sans-Serif" font-size="10.00">gradido_blockchain</text>
<text text-anchor="middle" x="576.05" y="-203" font-family="Helvetica,sans-Serif" font-size="10.00">/http/JsonRequest.h</text>
</a>
</g>
</g>
<!-- Node10&#45;&gt;Node35 -->
<g id="edge53" class="edge">
<title>Node10&#45;&gt;Node35</title>
<path fill="none" stroke="midnightblue" d="M991.55,-274.7C913.93,-270.47 762.67,-259.25 637.05,-232 632.94,-231.11 628.73,-230.05 624.52,-228.88"/>
<polygon fill="midnightblue" stroke="midnightblue" points="625.35,-225.48 614.77,-226.02 623.38,-232.2 625.35,-225.48"/>
</g>
<!-- Node36 -->
<g id="node36" class="node">
<title>Node36</title>
<g id="a_node36"><a xlink:href="_message_listener_8h.html" target="_top" xlink:title=" ">
<polygon fill="white" stroke="black" points="1918.55,-201.5 1918.55,-220.5 2045.55,-220.5 2045.55,-201.5 1918.55,-201.5"/>
<text text-anchor="middle" x="1982.05" y="-208.5" font-family="Helvetica,sans-Serif" font-size="10.00">../iota/MessageListener.h</text>
</a>
</g>
</g>
<!-- Node10&#45;&gt;Node36 -->
<g id="edge54" class="edge">
<title>Node10&#45;&gt;Node36</title>
<path fill="none" stroke="midnightblue" d="M1094.87,-273.41C1252.22,-262.52 1724.88,-229.8 1908.23,-217.11"/>
<polygon fill="midnightblue" stroke="midnightblue" points="1908.58,-220.59 1918.31,-216.41 1908.09,-213.61 1908.58,-220.59"/>
</g>
<!-- Node41 -->
<g id="node41" class="node">
<title>Node41</title>
<g id="a_node41"><a xlink:title=" ">
<polygon fill="white" stroke="#bfbfbf" points="646.05,-201.5 646.05,-220.5 712.05,-220.5 712.05,-201.5 646.05,-201.5"/>
<text text-anchor="middle" x="679.05" y="-208.5" font-family="Helvetica,sans-Serif" font-size="10.00">Poco/URI.h</text>
</a>
</g>
</g>
<!-- Node10&#45;&gt;Node41 -->
<g id="edge65" class="edge">
<title>Node10&#45;&gt;Node41</title>
<path fill="none" stroke="midnightblue" d="M991.55,-274.64C927.1,-270.6 813.9,-259.87 721.05,-232 715.1,-230.21 708.94,-227.7 703.23,-225.05"/>
<polygon fill="midnightblue" stroke="midnightblue" points="704.67,-221.86 694.16,-220.58 701.58,-228.14 704.67,-221.86"/>
</g>
<!-- Node42 -->
<g id="node42" class="node">
<title>Node42</title>
<g id="a_node42"><a xlink:title=" ">
<polygon fill="white" stroke="#bfbfbf" points="730.05,-201.5 730.05,-220.5 836.05,-220.5 836.05,-201.5 730.05,-201.5"/>
<text text-anchor="middle" x="783.05" y="-208.5" font-family="Helvetica,sans-Serif" font-size="10.00">Poco/ExpireCache.h</text>
</a>
</g>
</g>
<!-- Node10&#45;&gt;Node42 -->
<g id="edge67" class="edge">
<title>Node10&#45;&gt;Node42</title>
<path fill="none" stroke="midnightblue" d="M1000.29,-268.43C960.01,-260.08 898.08,-246.55 845.05,-232 836.09,-229.54 826.51,-226.61 817.61,-223.75"/>
<polygon fill="midnightblue" stroke="midnightblue" points="818.53,-220.36 807.94,-220.58 816.35,-227.02 818.53,-220.36"/>
</g>
<!-- Node43 -->
<g id="node43" class="node">
<title>Node43</title>
<g id="a_node43"><a xlink:title=" ">
<polygon fill="white" stroke="#bfbfbf" points="854.55,-196 854.55,-226 995.55,-226 995.55,-196 854.55,-196"/>
<text text-anchor="start" x="862.55" y="-214" font-family="Helvetica,sans-Serif" font-size="10.00">gradido_blockchain</text>
<text text-anchor="middle" x="925.05" y="-203" font-family="Helvetica,sans-Serif" font-size="10.00">/model/IGradidoBlockchain.h</text>
</a>
</g>
</g>
<!-- Node10&#45;&gt;Node43 -->
<g id="edge68" class="edge">
<title>Node10&#45;&gt;Node43</title>
<path fill="none" stroke="midnightblue" d="M1027.14,-268.23C1009.89,-258.73 981.83,-243.28 959.49,-230.97"/>
<polygon fill="midnightblue" stroke="midnightblue" points="961.07,-227.85 950.63,-226.09 957.7,-233.98 961.07,-227.85"/>
</g>
<!-- Node11&#45;&gt;Node6 -->
<g id="edge14" class="edge">
<title>Node11&#45;&gt;Node6</title>
<path fill="none" stroke="midnightblue" d="M1263.86,-201.27C1268.51,-176.06 1277.96,-102.7 1239.05,-67 1198.91,-30.17 804.37,-35.13 750.05,-31 702.63,-27.4 648.38,-23.13 610.95,-20.16"/>
<polygon fill="midnightblue" stroke="midnightblue" points="611.1,-16.66 600.86,-19.36 610.55,-23.64 611.1,-16.66"/>
</g>
<!-- Node11&#45;&gt;Node7 -->
<g id="edge12" class="edge">
<title>Node11&#45;&gt;Node7</title>
<path fill="none" stroke="midnightblue" d="M1229.35,-201.5C1212.37,-197.4 1191.22,-192.78 1172.05,-190 943.66,-156.88 883.89,-174.8 654.05,-154 629.32,-151.76 602.01,-148.79 578.83,-146.12"/>
<polygon fill="midnightblue" stroke="midnightblue" points="579.16,-142.64 568.83,-144.96 578.35,-149.59 579.16,-142.64"/>
</g>
<!-- Node11&#45;&gt;Node9 -->
<g id="edge13" class="edge">
<title>Node11&#45;&gt;Node9</title>
<path fill="none" stroke="midnightblue" d="M1227.61,-201.41C1210.91,-197.49 1190.53,-193.05 1172.05,-190 1099.27,-177.98 902.15,-196.77 842.05,-154 823.14,-140.54 813.83,-114.48 809.49,-96.67"/>
<polygon fill="midnightblue" stroke="midnightblue" points="812.9,-95.88 807.39,-86.83 806.06,-97.34 812.9,-95.88"/>
</g>
<!-- Node11&#45;&gt;Node12 -->
<g id="edge15" class="edge">
<title>Node11&#45;&gt;Node12</title>
<path fill="none" stroke="midnightblue" d="M1279.06,-201.5C1303.41,-189.32 1348.41,-166.82 1376.98,-152.54"/>
<polygon fill="midnightblue" stroke="midnightblue" points="1378.6,-155.64 1385.98,-148.03 1375.47,-149.38 1378.6,-155.64"/>
</g>
<!-- Node13 -->
<g id="node13" class="node">
<title>Node13</title>
<g id="a_node13"><a xlink:href="model_2files_2_address_index_8h.html" target="_top" xlink:title=" ">
<polygon fill="white" stroke="black" points="1095.55,-129 1095.55,-148 1238.55,-148 1238.55,-129 1095.55,-129"/>
<text text-anchor="middle" x="1167.05" y="-136" font-family="Helvetica,sans-Serif" font-size="10.00">../model/files/AddressIndex.h</text>
</a>
</g>
</g>
<!-- Node11&#45;&gt;Node13 -->
<g id="edge16" class="edge">
<title>Node11&#45;&gt;Node13</title>
<path fill="none" stroke="midnightblue" d="M1250.4,-201.36C1234.59,-189.62 1206.11,-168.48 1186.89,-154.22"/>
<polygon fill="midnightblue" stroke="midnightblue" points="1188.91,-151.36 1178.79,-148.22 1184.74,-156.99 1188.91,-151.36"/>
</g>
<!-- Node13&#45;&gt;Node9 -->
<g id="edge22" class="edge">
<title>Node13&#45;&gt;Node9</title>
<path fill="none" stroke="midnightblue" d="M1120.39,-128.97C1109.15,-126.96 1097.18,-124.87 1086.05,-123 987.2,-106.42 959.78,-104.29 857.88,-87.28"/>
<polygon fill="midnightblue" stroke="midnightblue" points="858.22,-83.79 847.78,-85.58 857.06,-90.69 858.22,-83.79"/>
</g>
<!-- Node14 -->
<g id="node14" class="node">
<title>Node14</title>
<g id="a_node14"><a xlink:href="_file_base_8h.html" target="_top" xlink:title=" ">
<polygon fill="white" stroke="black" points="963.55,-67.5 963.55,-86.5 1026.55,-86.5 1026.55,-67.5 963.55,-67.5"/>
<text text-anchor="middle" x="995.05" y="-74.5" font-family="Helvetica,sans-Serif" font-size="10.00">FileBase.h</text>
</a>
</g>
</g>
<!-- Node13&#45;&gt;Node14 -->
<g id="edge17" class="edge">
<title>Node13&#45;&gt;Node14</title>
<path fill="none" stroke="midnightblue" d="M1142.41,-128.98C1112.77,-118.72 1062.86,-101.46 1029.45,-89.9"/>
<polygon fill="midnightblue" stroke="midnightblue" points="1030.24,-86.47 1019.65,-86.51 1027.95,-93.09 1030.24,-86.47"/>
</g>
<!-- Node16 -->
<g id="node16" class="node">
<title>Node16</title>
<g id="a_node16"><a xlink:title=" ">
<polygon fill="white" stroke="#bfbfbf" points="1207.55,-0.5 1207.55,-30.5 1308.55,-30.5 1308.55,-0.5 1207.55,-0.5"/>
<text text-anchor="start" x="1215.55" y="-18.5" font-family="Helvetica,sans-Serif" font-size="10.00">gradido_blockchain</text>
<text text-anchor="middle" x="1258.05" y="-7.5" font-family="Helvetica,sans-Serif" font-size="10.00">/MemoryManager.h</text>
</a>
</g>
</g>
<!-- Node13&#45;&gt;Node16 -->
<g id="edge21" class="edge">
<title>Node13&#45;&gt;Node16</title>
<path fill="none" stroke="midnightblue" d="M1186.13,-128.84C1202.54,-120.43 1225.64,-106.13 1239.05,-87 1248.56,-73.43 1253.31,-55.34 1255.68,-40.89"/>
<polygon fill="midnightblue" stroke="midnightblue" points="1259.19,-41.06 1257.07,-30.67 1252.26,-40.11 1259.19,-41.06"/>
</g>
<!-- Node17 -->
<g id="node17" class="node">
<title>Node17</title>
<g id="a_node17"><a xlink:title=" ">
<polygon fill="white" stroke="#bfbfbf" points="1450.55,-67.5 1450.55,-86.5 1485.55,-86.5 1485.55,-67.5 1450.55,-67.5"/>
<text text-anchor="middle" x="1468.05" y="-74.5" font-family="Helvetica,sans-Serif" font-size="10.00">map</text>
</a>
</g>
</g>
<!-- Node13&#45;&gt;Node17 -->
<g id="edge23" class="edge">
<title>Node13&#45;&gt;Node17</title>
<path fill="none" stroke="midnightblue" d="M1210.18,-128.98C1272.98,-116.56 1387.85,-93.85 1440.44,-83.46"/>
<polygon fill="midnightblue" stroke="midnightblue" points="1441.25,-86.86 1450.38,-81.49 1439.9,-80 1441.25,-86.86"/>
</g>
<!-- Node14&#45;&gt;Node6 -->
<g id="edge18" class="edge">
<title>Node14&#45;&gt;Node6</title>
<path fill="none" stroke="midnightblue" d="M963.42,-69.54C958.62,-68.64 953.71,-67.76 949.05,-67 827.29,-47.1 682.82,-29.79 610.73,-21.57"/>
<polygon fill="midnightblue" stroke="midnightblue" points="610.96,-18.08 600.63,-20.43 610.17,-25.03 610.96,-18.08"/>
</g>
<!-- Node14&#45;&gt;Node8 -->
<g id="edge19" class="edge">
<title>Node14&#45;&gt;Node8</title>
<path fill="none" stroke="midnightblue" d="M966.82,-67.48C932.45,-57.09 874.24,-39.51 835.97,-27.95"/>
<polygon fill="midnightblue" stroke="midnightblue" points="836.81,-24.55 826.22,-25.01 834.78,-31.25 836.81,-24.55"/>
</g>
<!-- Node15 -->
<g id="node15" class="node">
<title>Node15</title>
<g id="a_node15"><a xlink:title=" ">
<polygon fill="white" stroke="#bfbfbf" points="925.55,-6 925.55,-25 1054.55,-25 1054.55,-6 925.55,-6"/>
<text text-anchor="middle" x="990.05" y="-13" font-family="Helvetica,sans-Serif" font-size="10.00">Poco/RefCountedObject.h</text>
</a>
</g>
</g>
<!-- Node14&#45;&gt;Node15 -->
<g id="edge20" class="edge">
<title>Node14&#45;&gt;Node15</title>
<path fill="none" stroke="midnightblue" d="M994.33,-67.48C993.63,-59.08 992.53,-45.98 991.62,-35.16"/>
<polygon fill="midnightblue" stroke="midnightblue" points="995.09,-34.68 990.76,-25.01 988.11,-35.27 995.09,-34.68"/>
</g>
<!-- Node18&#45;&gt;Node6 -->
<g id="edge28" class="edge">
<title>Node18&#45;&gt;Node6</title>
<path fill="none" stroke="midnightblue" d="M1102.48,-201.44C1089.68,-197.33 1073.69,-192.71 1059.05,-190 960.84,-171.81 702.66,-193.79 611.05,-154 592.29,-145.85 593.81,-134.72 577.05,-123 548.7,-103.18 525.98,-116.58 508.05,-87 495.2,-65.8 519.74,-44 540.52,-30.36"/>
<polygon fill="midnightblue" stroke="midnightblue" points="542.43,-33.3 549.08,-25.05 538.74,-27.35 542.43,-33.3"/>
</g>
<!-- Node18&#45;&gt;Node7 -->
<g id="edge25" class="edge">
<title>Node18&#45;&gt;Node7</title>
<path fill="none" stroke="midnightblue" d="M1109.06,-201.41C1099.48,-197.23 1087.36,-192.57 1076.05,-190 861.81,-141.35 800.04,-188.34 583.05,-154 577.04,-153.05 570.75,-151.79 564.6,-150.41"/>
<polygon fill="midnightblue" stroke="midnightblue" points="565.01,-146.91 554.47,-148.01 563.4,-153.72 565.01,-146.91"/>
</g>
<!-- Node18&#45;&gt;Node17 -->
<g id="edge27" class="edge">
<title>Node18&#45;&gt;Node17</title>
<path fill="none" stroke="midnightblue" d="M1144.8,-201.42C1179.12,-184.99 1257.21,-148.49 1325.05,-123 1364.54,-108.16 1411.35,-94.07 1440.38,-85.73"/>
<polygon fill="midnightblue" stroke="midnightblue" points="1441.57,-89.03 1450.23,-82.93 1439.65,-82.3 1441.57,-89.03"/>
</g>
<!-- Node19 -->
<g id="node19" class="node">
<title>Node19</title>
<g id="a_node19"><a xlink:title=" ">
<polygon fill="white" stroke="#bfbfbf" points="1668.05,-129 1668.05,-148 1710.05,-148 1710.05,-129 1668.05,-129"/>
<text text-anchor="middle" x="1689.05" y="-136" font-family="Helvetica,sans-Serif" font-size="10.00">vector</text>
</a>
</g>
</g>
<!-- Node18&#45;&gt;Node19 -->
<g id="edge26" class="edge">
<title>Node18&#45;&gt;Node19</title>
<path fill="none" stroke="midnightblue" d="M1158.35,-201.47C1174.07,-197.46 1193.45,-192.93 1211.05,-190 1374.9,-162.7 1418.06,-173.26 1583.05,-154 1608.3,-151.05 1636.85,-147.11 1657.96,-144.08"/>
<polygon fill="midnightblue" stroke="midnightblue" points="1658.57,-147.53 1667.96,-142.63 1657.57,-140.6 1658.57,-147.53"/>
</g>
<!-- Node20 -->
<g id="node20" class="node">
<title>Node20</title>
<g id="a_node20"><a xlink:title=" ">
<polygon fill="white" stroke="#bfbfbf" points="517.05,-67.5 517.05,-86.5 611.05,-86.5 611.05,-67.5 517.05,-67.5"/>
<text text-anchor="middle" x="564.05" y="-74.5" font-family="Helvetica,sans-Serif" font-size="10.00">Poco/SharedPtr.h</text>
</a>
</g>
</g>
<!-- Node18&#45;&gt;Node20 -->
<g id="edge29" class="edge">
<title>Node18&#45;&gt;Node20</title>
<path fill="none" stroke="midnightblue" d="M1102.47,-201.49C1089.67,-197.39 1073.68,-192.77 1059.05,-190 881.5,-156.34 820.85,-223.53 654.05,-154 637.48,-147.09 601.31,-113.91 580.21,-93.75"/>
<polygon fill="midnightblue" stroke="midnightblue" points="582.57,-91.16 572.94,-86.74 577.71,-96.2 582.57,-91.16"/>
</g>
<!-- Node21 -->
<g id="node21" class="node">
<title>Node21</title>
<g id="a_node21"><a xlink:href="model_2files_2_block_index_8h.html" target="_top" xlink:title=" ">
<polygon fill="white" stroke="black" points="663.55,-129 663.55,-148 794.55,-148 794.55,-129 663.55,-129"/>
<text text-anchor="middle" x="729.05" y="-136" font-family="Helvetica,sans-Serif" font-size="10.00">../model/files/BlockIndex.h</text>
</a>
</g>
</g>
<!-- Node18&#45;&gt;Node21 -->
<g id="edge30" class="edge">
<title>Node18&#45;&gt;Node21</title>
<path fill="none" stroke="midnightblue" d="M1108.52,-201.49C1098.99,-197.44 1087.1,-192.87 1076.05,-190 960.15,-159.93 927.32,-172.68 809.05,-154 801.02,-152.73 792.56,-151.3 784.26,-149.84"/>
<polygon fill="midnightblue" stroke="midnightblue" points="784.72,-146.37 774.26,-148.06 783.49,-153.26 784.72,-146.37"/>
</g>
<!-- Node21&#45;&gt;Node14 -->
<g id="edge31" class="edge">
<title>Node21&#45;&gt;Node14</title>
<path fill="none" stroke="midnightblue" d="M767.16,-128.98C816.48,-117.94 902.14,-98.78 953.21,-87.36"/>
<polygon fill="midnightblue" stroke="midnightblue" points="954.26,-90.71 963.25,-85.11 952.73,-83.88 954.26,-90.71"/>
</g>
<!-- Node21&#45;&gt;Node20 -->
<g id="edge35" class="edge">
<title>Node21&#45;&gt;Node20</title>
<path fill="none" stroke="midnightblue" d="M705.41,-128.98C677.11,-118.77 629.52,-101.61 597.46,-90.05"/>
<polygon fill="midnightblue" stroke="midnightblue" points="598.24,-86.61 587.65,-86.51 595.87,-93.19 598.24,-86.61"/>
</g>
<!-- Node22 -->
<g id="node22" class="node">
<title>Node22</title>
<g id="a_node22"><a xlink:href="_virtual_file_8h.html" target="_top" xlink:title=" ">
<polygon fill="white" stroke="black" points="1044.55,-67.5 1044.55,-86.5 1143.55,-86.5 1143.55,-67.5 1044.55,-67.5"/>
<text text-anchor="middle" x="1094.05" y="-74.5" font-family="Helvetica,sans-Serif" font-size="10.00">../../lib/VirtualFile.h</text>
</a>
</g>
</g>
<!-- Node21&#45;&gt;Node22 -->
<g id="edge32" class="edge">
<title>Node21&#45;&gt;Node22</title>
<path fill="none" stroke="midnightblue" d="M781.35,-128.98C848.32,-118.06 964.13,-99.18 1034.45,-87.72"/>
<polygon fill="midnightblue" stroke="midnightblue" points="1035.18,-91.14 1044.48,-86.08 1034.05,-84.23 1035.18,-91.14"/>
</g>
<!-- Node24 -->
<g id="node24" class="node">
<title>Node24</title>
<g id="a_node24"><a xlink:title=" ">
<polygon fill="white" stroke="#bfbfbf" points="629.05,-67.5 629.05,-86.5 685.05,-86.5 685.05,-67.5 629.05,-67.5"/>
<text text-anchor="middle" x="657.05" y="-74.5" font-family="Helvetica,sans-Serif" font-size="10.00">sodium.h</text>
</a>
</g>
</g>
<!-- Node21&#45;&gt;Node24 -->
<g id="edge36" class="edge">
<title>Node21&#45;&gt;Node24</title>
<path fill="none" stroke="midnightblue" d="M718.73,-128.98C707.4,-119.61 688.98,-104.38 675.21,-93.01"/>
<polygon fill="midnightblue" stroke="midnightblue" points="677.28,-90.18 667.35,-86.51 672.83,-95.58 677.28,-90.18"/>
</g>
<!-- Node25 -->
<g id="node25" class="node">
<title>Node25</title>
<g id="a_node25"><a xlink:title=" ">
<polygon fill="white" stroke="#bfbfbf" points="703.55,-67.5 703.55,-86.5 746.55,-86.5 746.55,-67.5 703.55,-67.5"/>
<text text-anchor="middle" x="725.05" y="-74.5" font-family="Helvetica,sans-Serif" font-size="10.00">queue</text>
</a>
</g>
</g>
<!-- Node21&#45;&gt;Node25 -->
<g id="edge37" class="edge">
<title>Node21&#45;&gt;Node25</title>
<path fill="none" stroke="midnightblue" d="M728.48,-128.98C727.91,-120.58 727.03,-107.48 726.3,-96.66"/>
<polygon fill="midnightblue" stroke="midnightblue" points="729.78,-96.25 725.62,-86.51 722.8,-96.72 729.78,-96.25"/>
</g>
<!-- Node26 -->
<g id="node26" class="node">
<title>Node26</title>
<g id="a_node26"><a xlink:title=" ">
<polygon fill="white" stroke="#bfbfbf" points="865.55,-67.5 865.55,-86.5 906.55,-86.5 906.55,-67.5 865.55,-67.5"/>
<text text-anchor="middle" x="886.05" y="-74.5" font-family="Helvetica,sans-Serif" font-size="10.00">string</text>
</a>
</g>
</g>
<!-- Node21&#45;&gt;Node26 -->
<g id="edge38" class="edge">
<title>Node21&#45;&gt;Node26</title>
<path fill="none" stroke="midnightblue" d="M751.54,-128.98C778.82,-118.64 824.9,-101.17 855.41,-89.61"/>
<polygon fill="midnightblue" stroke="midnightblue" points="856.99,-92.76 865.1,-85.94 854.51,-86.21 856.99,-92.76"/>
</g>
<!-- Node22&#45;&gt;Node16 -->
<g id="edge33" class="edge">
<title>Node22&#45;&gt;Node16</title>
<path fill="none" stroke="midnightblue" d="M1117.55,-67.48C1141.52,-58.78 1179.42,-45.03 1209.82,-34"/>
<polygon fill="midnightblue" stroke="midnightblue" points="1211.19,-37.22 1219.4,-30.52 1208.8,-30.64 1211.19,-37.22"/>
</g>
<!-- Node23 -->
<g id="node23" class="node">
<title>Node23</title>
<g id="a_node23"><a xlink:title=" ">
<polygon fill="white" stroke="#bfbfbf" points="1073.05,-6 1073.05,-25 1125.05,-25 1125.05,-6 1073.05,-6"/>
<text text-anchor="middle" x="1099.05" y="-13" font-family="Helvetica,sans-Serif" font-size="10.00">assert.h</text>
</a>
</g>
</g>
<!-- Node22&#45;&gt;Node23 -->
<g id="edge34" class="edge">
<title>Node22&#45;&gt;Node23</title>
<path fill="none" stroke="midnightblue" d="M1094.77,-67.48C1095.47,-59.08 1096.57,-45.98 1097.48,-35.16"/>
<polygon fill="midnightblue" stroke="midnightblue" points="1100.98,-35.27 1098.33,-25.01 1094.01,-34.68 1100.98,-35.27"/>
</g>
<!-- Node27&#45;&gt;Node5 -->
<g id="edge42" class="edge">
<title>Node27&#45;&gt;Node5</title>
<path fill="none" stroke="midnightblue" d="M1578.82,-207.55C1489.67,-201.95 1275.68,-186.29 1087.25,-154.06"/>
<polygon fill="midnightblue" stroke="midnightblue" points="1087.61,-150.57 1077.16,-152.31 1086.42,-157.46 1087.61,-150.57"/>
</g>
<!-- Node27&#45;&gt;Node8 -->
<g id="edge40" class="edge">
<title>Node27&#45;&gt;Node8</title>
<path fill="none" stroke="midnightblue" d="M1622.07,-201.37C1623.6,-184.55 1624.62,-146.92 1607.05,-123 1574.11,-78.14 1548.79,-81.46 1495.05,-67 1246.08,0 1172.79,-54.73 916.05,-31 893.27,-28.89 868.09,-25.89 846.86,-23.17"/>
<polygon fill="midnightblue" stroke="midnightblue" points="847.15,-19.68 836.78,-21.86 846.25,-26.62 847.15,-19.68"/>
</g>
<!-- Node27&#45;&gt;Node17 -->
<g id="edge46" class="edge">
<title>Node27&#45;&gt;Node17</title>
<path fill="none" stroke="midnightblue" d="M1619.55,-201.33C1616.14,-184.1 1606.21,-145.28 1583.05,-123 1558.88,-99.75 1521.3,-88.11 1495.73,-82.57"/>
<polygon fill="midnightblue" stroke="midnightblue" points="1496.4,-79.14 1485.91,-80.62 1495.04,-86 1496.4,-79.14"/>
</g>
<!-- Node27&#45;&gt;Node19 -->
<g id="edge45" class="edge">
<title>Node27&#45;&gt;Node19</title>
<path fill="none" stroke="midnightblue" d="M1629.39,-201.36C1640.3,-190.04 1659.64,-170 1673.34,-155.79"/>
<polygon fill="midnightblue" stroke="midnightblue" points="1676.22,-157.84 1680.64,-148.22 1671.18,-152.98 1676.22,-157.84"/>
</g>
<!-- Node27&#45;&gt;Node28 -->
<g id="edge41" class="edge">
<title>Node27&#45;&gt;Node28</title>
<path fill="none" stroke="midnightblue" d="M1610.14,-201.36C1595.46,-189.73 1569.12,-168.86 1551.13,-154.61"/>
<polygon fill="midnightblue" stroke="midnightblue" points="1553.06,-151.68 1543.05,-148.22 1548.72,-157.17 1553.06,-151.68"/>
</g>
<!-- Node29 -->
<g id="node29" class="node">
<title>Node29</title>
<g id="a_node29"><a xlink:title=" ">
<polygon fill="white" stroke="#bfbfbf" points="1824.05,-123.5 1824.05,-153.5 1954.05,-153.5 1954.05,-123.5 1824.05,-123.5"/>
<text text-anchor="start" x="1832.05" y="-141.5" font-family="Helvetica,sans-Serif" font-size="10.00">gradido_blockchain</text>
<text text-anchor="middle" x="1889.05" y="-130.5" font-family="Helvetica,sans-Serif" font-size="10.00">/lib/MultithreadContainer.h</text>
</a>
</g>
</g>
<!-- Node27&#45;&gt;Node29 -->
<g id="edge43" class="edge">
<title>Node27&#45;&gt;Node29</title>
<path fill="none" stroke="midnightblue" d="M1653.38,-201.5C1695.97,-190.29 1771.82,-170.34 1825.96,-156.1"/>
<polygon fill="midnightblue" stroke="midnightblue" points="1827.03,-159.43 1835.81,-153.51 1825.25,-152.67 1827.03,-159.43"/>
</g>
<!-- Node30 -->
<g id="node30" class="node">
<title>Node30</title>
<g id="a_node30"><a xlink:href="_task_8h.html" target="_top" xlink:title=" ">
<polygon fill="white" stroke="black" points="1728.55,-129 1728.55,-148 1805.55,-148 1805.55,-129 1728.55,-129"/>
<text text-anchor="middle" x="1767.05" y="-136" font-family="Helvetica,sans-Serif" font-size="10.00">../task/Task.h</text>
</a>
</g>
</g>
<!-- Node27&#45;&gt;Node30 -->
<g id="edge44" class="edge">
<title>Node27&#45;&gt;Node30</title>
<path fill="none" stroke="midnightblue" d="M1638.66,-201.5C1663.87,-189.32 1710.47,-166.82 1740.05,-152.54"/>
<polygon fill="midnightblue" stroke="midnightblue" points="1741.89,-155.53 1749.38,-148.03 1738.85,-149.23 1741.89,-155.53"/>
</g>
<!-- Node33&#45;&gt;Node6 -->
<g id="edge52" class="edge">
<title>Node33&#45;&gt;Node6</title>
<path fill="none" stroke="midnightblue" d="M910.01,-128.94C917.74,-114.35 930.26,-84.57 915.05,-67 895.38,-44.29 701.15,-26.78 610.82,-19.8"/>
<polygon fill="midnightblue" stroke="midnightblue" points="610.83,-16.29 600.59,-19.02 610.3,-23.27 610.83,-16.29"/>
</g>
<!-- Node33&#45;&gt;Node14 -->
<g id="edge50" class="edge">
<title>Node33&#45;&gt;Node14</title>
<path fill="none" stroke="midnightblue" d="M917.94,-128.98C932.51,-119.34 956.45,-103.52 973.8,-92.05"/>
<polygon fill="midnightblue" stroke="midnightblue" points="975.77,-94.94 982.18,-86.51 971.91,-89.1 975.77,-94.94"/>
</g>
<!-- Node34 -->
<g id="node34" class="node">
<title>Node34</title>
<g id="a_node34"><a xlink:title=" ">
<polygon fill="white" stroke="#bfbfbf" points="1162.05,-67.5 1162.05,-86.5 1230.05,-86.5 1230.05,-67.5 1162.05,-67.5"/>
<text text-anchor="middle" x="1196.05" y="-74.5" font-family="Helvetica,sans-Serif" font-size="10.00">leveldb/db.h</text>
</a>
</g>
</g>
<!-- Node33&#45;&gt;Node34 -->
<g id="edge51" class="edge">
<title>Node33&#45;&gt;Node34</title>
<path fill="none" stroke="midnightblue" d="M941.32,-128.94C950.06,-126.93 959.38,-124.85 968.05,-123 1049.55,-105.65 1070.34,-103.35 1152.05,-87 1152.15,-86.98 1152.25,-86.96 1152.35,-86.94"/>
<polygon fill="midnightblue" stroke="midnightblue" points="1152.83,-90.41 1161.95,-85.01 1151.45,-83.55 1152.83,-90.41"/>
</g>
<!-- Node36&#45;&gt;Node17 -->
<g id="edge62" class="edge">
<title>Node36&#45;&gt;Node17</title>
<path fill="none" stroke="midnightblue" d="M1983.13,-201.48C1984.83,-183.81 1985.88,-143.16 1963.05,-123 1927.86,-91.93 1594.88,-81.17 1495.76,-78.64"/>
<polygon fill="midnightblue" stroke="midnightblue" points="1495.71,-75.13 1485.62,-78.39 1495.53,-82.13 1495.71,-75.13"/>
</g>
<!-- Node36&#45;&gt;Node19 -->
<g id="edge61" class="edge">
<title>Node36&#45;&gt;Node19</title>
<path fill="none" stroke="midnightblue" d="M1924.06,-201.49C1870.29,-192.69 1788.5,-176.99 1720.05,-154 1718.38,-153.44 1716.69,-152.82 1715,-152.15"/>
<polygon fill="midnightblue" stroke="midnightblue" points="1716.06,-148.8 1705.5,-148.04 1713.28,-155.22 1716.06,-148.8"/>
</g>
<!-- Node36&#45;&gt;Node29 -->
<g id="edge56" class="edge">
<title>Node36&#45;&gt;Node29</title>
<path fill="none" stroke="midnightblue" d="M1970.65,-201.36C1957.14,-191.12 1934.19,-173.72 1916.07,-159.98"/>
<polygon fill="midnightblue" stroke="midnightblue" points="1917.7,-156.83 1907.62,-153.58 1913.47,-162.41 1917.7,-156.83"/>
</g>
<!-- Node37 -->
<g id="node37" class="node">
<title>Node37</title>
<g id="a_node37"><a xlink:title=" ">
<polygon fill="white" stroke="#bfbfbf" points="2126.05,-129 2126.05,-148 2206.05,-148 2206.05,-129 2126.05,-129"/>
<text text-anchor="middle" x="2166.05" y="-136" font-family="Helvetica,sans-Serif" font-size="10.00">Poco/Logger.h</text>
</a>
</g>
</g>
<!-- Node36&#45;&gt;Node37 -->
<g id="edge55" class="edge">
<title>Node36&#45;&gt;Node37</title>
<path fill="none" stroke="midnightblue" d="M2004.24,-201.5C2036.71,-189.06 2097.31,-165.84 2134.42,-151.62"/>
<polygon fill="midnightblue" stroke="midnightblue" points="2135.69,-154.88 2143.78,-148.03 2133.19,-148.34 2135.69,-154.88"/>
</g>
<!-- Node38 -->
<g id="node38" class="node">
<title>Node38</title>
<g id="a_node38"><a xlink:href="_fuzzy_timer_8h.html" target="_top" xlink:title=" ">
<polygon fill="white" stroke="black" points="2010.05,-129 2010.05,-148 2108.05,-148 2108.05,-129 2010.05,-129"/>
<text text-anchor="middle" x="2059.05" y="-136" font-family="Helvetica,sans-Serif" font-size="10.00">../lib/FuzzyTimer.h</text>
</a>
</g>
</g>
<!-- Node36&#45;&gt;Node38 -->
<g id="edge57" class="edge">
<title>Node36&#45;&gt;Node38</title>
<path fill="none" stroke="midnightblue" d="M1991.49,-201.36C2004.08,-189.83 2026.56,-169.24 2042.12,-155"/>
<polygon fill="midnightblue" stroke="midnightblue" points="2044.52,-157.55 2049.53,-148.22 2039.79,-152.39 2044.52,-157.55"/>
</g>
<!-- Node39 -->
<g id="node39" class="node">
<title>Node39</title>
<g id="a_node39"><a xlink:href="_message_id_8h.html" target="_top" xlink:title=" ">
<polygon fill="white" stroke="black" points="2224.05,-129 2224.05,-148 2296.05,-148 2296.05,-129 2224.05,-129"/>
<text text-anchor="middle" x="2260.05" y="-136" font-family="Helvetica,sans-Serif" font-size="10.00">MessageId.h</text>
</a>
</g>
</g>
<!-- Node36&#45;&gt;Node39 -->
<g id="edge58" class="edge">
<title>Node36&#45;&gt;Node39</title>
<path fill="none" stroke="midnightblue" d="M2021.45,-201.49C2067.97,-191.22 2147.56,-172.95 2215.05,-154 2218.21,-153.11 2221.48,-152.15 2224.75,-151.15"/>
<polygon fill="midnightblue" stroke="midnightblue" points="2225.95,-154.45 2234.45,-148.12 2223.86,-147.76 2225.95,-154.45"/>
</g>
<!-- Node39&#45;&gt;Node16 -->
<g id="edge60" class="edge">
<title>Node39&#45;&gt;Node16</title>
<path fill="none" stroke="midnightblue" d="M2236.47,-128.92C2229.64,-126.7 2222.11,-124.51 2215.05,-123 1881.3,-51.42 1471.15,-26.27 1318.78,-19.03"/>
<polygon fill="midnightblue" stroke="midnightblue" points="1318.84,-15.52 1308.69,-18.55 1318.52,-22.52 1318.84,-15.52"/>
</g>
<!-- Node40 -->
<g id="node40" class="node">
<title>Node40</title>
<g id="a_node40"><a xlink:title=" ">
<polygon fill="white" stroke="#bfbfbf" points="2235.55,-67.5 2235.55,-86.5 2284.55,-86.5 2284.55,-67.5 2235.55,-67.5"/>
<text text-anchor="middle" x="2260.05" y="-74.5" font-family="Helvetica,sans-Serif" font-size="10.00">cassert</text>
</a>
</g>
</g>
<!-- Node39&#45;&gt;Node40 -->
<g id="edge59" class="edge">
<title>Node39&#45;&gt;Node40</title>
<path fill="none" stroke="midnightblue" d="M2260.05,-128.98C2260.05,-120.58 2260.05,-107.48 2260.05,-96.66"/>
<polygon fill="midnightblue" stroke="midnightblue" points="2263.55,-96.51 2260.05,-86.51 2256.55,-96.51 2263.55,-96.51"/>
</g>
</g>
</svg>
        <g id="navigator" transform="translate(0 0)" fill="#404254">
                <rect fill="#f2f5e9" fill-opacity="0.5" stroke="#606060" stroke-width=".5" x="0" y="0" width="60" height="60"/>
                <use id="zoomplus" xlink:href="#zoomPlus" x="17" y="9" onmousedown="handleZoom(evt,'in')"/>
                <use id="zoomminus" xlink:href="#zoomMin" x="42" y="9" onmousedown="handleZoom(evt,'out')"/>
                <use id="reset" xlink:href="#resetDef" x="30" y="36" onmousedown="handleReset()"/>
                <g id="arrowUp" xlink:href="#dirArrow" transform="translate(30 24)" onmousedown="handlePan(0,-1)">
                  <use xlink:href="#rim" fill="#404040">
                        <set attributeName="fill" to="#808080" begin="arrowUp.mouseover" end="arrowUp.mouseout"/>
                  </use>
                  <path fill="none" stroke="white" stroke-width="1.5" d="M0,-3.0v7 M-2.5,-0.5L0,-3.0L2.5,-0.5"/>
                </g>
                <g id="arrowRight" xlink:href="#dirArrow" transform="rotate(90) translate(36 -43)" onmousedown="handlePan(1,0)">
                  <use xlink:href="#rim" fill="#404040">
                        <set attributeName="fill" to="#808080" begin="arrowRight.mouseover" end="arrowRight.mouseout"/>
                  </use>
                  <path fill="none" stroke="white" stroke-width="1.5" d="M0,-3.0v7 M-2.5,-0.5L0,-3.0L2.5,-0.5"/>
                </g>
                <g id="arrowDown" xlink:href="#dirArrow" transform="rotate(180) translate(-30 -48)" onmousedown="handlePan(0,1)">
                  <use xlink:href="#rim" fill="#404040">
                        <set attributeName="fill" to="#808080" begin="arrowDown.mouseover" end="arrowDown.mouseout"/>
                  </use>
                  <path fill="none" stroke="white" stroke-width="1.5" d="M0,-3.0v7 M-2.5,-0.5L0,-3.0L2.5,-0.5"/>
                </g>
                <g id="arrowLeft" xlink:href="#dirArrow" transform="rotate(270) translate(-36 17)" onmousedown="handlePan(-1,0)">
                  <use xlink:href="#rim" fill="#404040">
                        <set attributeName="fill" to="#808080" begin="arrowLeft.mouseover" end="arrowLeft.mouseout"/>
                  </use>
                  <path fill="none" stroke="white" stroke-width="1.5" d="M0,-3.0v7 M-2.5,-0.5L0,-3.0L2.5,-0.5"/>
                </g>
        </g>
        <svg viewBox="0 0 15 15" width="100%" height="30px" preserveAspectRatio="xMaxYMin meet">
         <g id="arrow_out" transform="scale(0.3 0.3)">
          <a xlink:href="_group_manager_8h__incl_org.svg" target="_base">
           <rect id="button" ry="5" rx="5" y="6" x="6" height="38" width="38"
                fill="#f2f5e9" fill-opacity="0.5" stroke="#606060" stroke-width="1.0"/>
           <path id="arrow"
             d="M 11.500037,31.436501 C 11.940474,20.09759 22.043105,11.32322 32.158766,21.979434 L 37.068811,17.246167 C 37.068811,17.246167 37.088388,32 37.088388,32 L 22.160133,31.978069 C 22.160133,31.978069 26.997745,27.140456 26.997745,27.140456 C 18.528582,18.264221 13.291696,25.230495 11.500037,31.436501 z"
             style="fill:#404040;"/>
          </a>
         </g>
        </svg>
</svg>
