<?xml version="1.0" encoding="UTF-8" standalone="no"?>
<!DOCTYPE svg PUBLIC "-//W3C//DTD SVG 1.1//EN"
 "http://www.w3.org/Graphics/SVG/1.1/DTD/svg11.dtd">
<!-- Generated by graphviz version 2.50.0 (20211204.2007)
 -->
<!-- Title: src/iota/HTTPApi.h Pages: 1 -->
<svg width="303pt" height="151pt"
 viewBox="0.00 0.00 302.50 151.00" xmlns="http://www.w3.org/2000/svg" xmlns:xlink="http://www.w3.org/1999/xlink">
<g id="graph0" class="graph" transform="scale(1 1) rotate(0) translate(4 147)">
<title>src/iota/HTTPApi.h</title>
<polygon fill="white" stroke="transparent" points="-4,4 -4,-147 298.5,-147 298.5,4 -4,4"/>
<!-- Node1 -->
<g id="node1" class="node">
<title>Node1</title>
<g id="a_node1"><a xlink:title=" ">
<polygon fill="#bfbfbf" stroke="black" points="130.5,-123.5 130.5,-142.5 228.5,-142.5 228.5,-123.5 130.5,-123.5"/>
<text text-anchor="middle" x="179.5" y="-130.5" font-family="Helvetica,sans-Serif" font-size="10.00">src/iota/HTTPApi.h</text>
</a>
</g>
</g>
<!-- Node2 -->
<g id="node2" class="node">
<title>Node2</title>
<g id="a_node2"><a xlink:href="_message_id_8h.html" target="_top" xlink:title=" ">
<polygon fill="white" stroke="black" points="34.5,-67.5 34.5,-86.5 106.5,-86.5 106.5,-67.5 34.5,-67.5"/>
<text text-anchor="middle" x="70.5" y="-74.5" font-family="Helvetica,sans-Serif" font-size="10.00">MessageId.h</text>
</a>
</g>
</g>
<!-- Node1&#45;&gt;Node2 -->
<g id="edge1" class="edge">
<title>Node1&#45;&gt;Node2</title>
<path fill="none" stroke="midnightblue" d="M161.99,-123.32C144.43,-114.62 117.17,-101.12 96.97,-91.11"/>
<polygon fill="midnightblue" stroke="midnightblue" points="98.48,-87.96 87.97,-86.65 95.38,-94.23 98.48,-87.96"/>
</g>
<!-- Node5 -->
<g id="node5" class="node">
<title>Node5</title>
<g id="a_node5"><a xlink:title=" ">
<polygon fill="white" stroke="#bfbfbf" points="124.5,-67.5 124.5,-86.5 234.5,-86.5 234.5,-67.5 124.5,-67.5"/>
<text text-anchor="middle" x="179.5" y="-74.5" font-family="Helvetica,sans-Serif" font-size="10.00">rapidjson/document.h</text>
</a>
</g>
</g>
<!-- Node1&#45;&gt;Node5 -->
<g id="edge4" class="edge">
<title>Node1&#45;&gt;Node5</title>
<path fill="none" stroke="midnightblue" d="M179.5,-123.08C179.5,-116.01 179.5,-105.86 179.5,-96.99"/>
<polygon fill="midnightblue" stroke="midnightblue" points="183,-96.75 179.5,-86.75 176,-96.75 183,-96.75"/>
</g>
<!-- Node6 -->
<g id="node6" class="node">
<title>Node6</title>
<g id="a_node6"><a xlink:title=" ">
<polygon fill="white" stroke="#bfbfbf" points="252.5,-67.5 252.5,-86.5 294.5,-86.5 294.5,-67.5 252.5,-67.5"/>
<text text-anchor="middle" x="273.5" y="-74.5" font-family="Helvetica,sans-Serif" font-size="10.00">vector</text>
</a>
</g>
</g>
<!-- Node1&#45;&gt;Node6 -->
<g id="edge5" class="edge">
<title>Node1&#45;&gt;Node6</title>
<path fill="none" stroke="midnightblue" d="M194.6,-123.32C209.4,-114.82 232.19,-101.73 249.48,-91.8"/>
<polygon fill="midnightblue" stroke="midnightblue" points="251.51,-94.67 258.43,-86.65 248.02,-88.6 251.51,-94.67"/>
</g>
<!-- Node3 -->
<g id="node3" class="node">
<title>Node3</title>
<g id="a_node3"><a xlink:title=" ">
<polygon fill="white" stroke="#bfbfbf" points="0,-6 0,-25 49,-25 49,-6 0,-6"/>
<text text-anchor="middle" x="24.5" y="-13" font-family="Helvetica,sans-Serif" font-size="10.00">cassert</text>
</a>
</g>
</g>
<!-- Node2&#45;&gt;Node3 -->
<g id="edge2" class="edge">
<title>Node2&#45;&gt;Node3</title>
<path fill="none" stroke="midnightblue" d="M63.91,-67.48C57.01,-58.55 46,-44.31 37.37,-33.14"/>
<polygon fill="midnightblue" stroke="midnightblue" points="39.96,-30.78 31.08,-25.01 34.43,-35.06 39.96,-30.78"/>
</g>
<!-- Node4 -->
<g id="node4" class="node">
<title>Node4</title>
<g id="a_node4"><a xlink:title=" ">
<polygon fill="white" stroke="#bfbfbf" points="67,-0.5 67,-30.5 168,-30.5 168,-0.5 67,-0.5"/>
<text text-anchor="start" x="75" y="-18.5" font-family="Helvetica,sans-Serif" font-size="10.00">gradido_blockchain</text>
<text text-anchor="middle" x="117.5" y="-7.5" font-family="Helvetica,sans-Serif" font-size="10.00">/MemoryManager.h</text>
</a>
</g>
</g>
<!-- Node2&#45;&gt;Node4 -->
<g id="edge3" class="edge">
<title>Node2&#45;&gt;Node4</title>
<path fill="none" stroke="midnightblue" d="M77.23,-67.48C83.18,-59.94 92.12,-48.63 100.07,-38.57"/>
<polygon fill="midnightblue" stroke="midnightblue" points="102.97,-40.54 106.42,-30.52 97.48,-36.2 102.97,-40.54"/>
</g>
</g>
</svg>
