<?xml version="1.0" encoding="UTF-8" standalone="no"?>
<!DOCTYPE svg PUBLIC "-//W3C//DTD SVG 1.1//EN"
 "http://www.w3.org/Graphics/SVG/1.1/DTD/svg11.dtd">
<!-- Generated by graphviz version 2.50.0 (20211204.2007)
 -->
<!-- Title: src/iota/HTTPApi.cpp Pages: 1 -->
<svg width="1305pt" height="285pt"
 viewBox="0.00 0.00 1305.00 285.00" xmlns="http://www.w3.org/2000/svg" xmlns:xlink="http://www.w3.org/1999/xlink">
<g id="graph0" class="graph" transform="scale(1 1) rotate(0) translate(4 281)">
<title>src/iota/HTTPApi.cpp</title>
<polygon fill="white" stroke="transparent" points="-4,4 -4,-281 1301,-281 1301,4 -4,4"/>
<!-- Node1 -->
<g id="node1" class="node">
<title>Node1</title>
<g id="a_node1"><a xlink:title=" ">
<polygon fill="#bfbfbf" stroke="black" points="603,-257.5 603,-276.5 712,-276.5 712,-257.5 603,-257.5"/>
<text text-anchor="middle" x="657.5" y="-264.5" font-family="Helvetica,sans-Serif" font-size="10.00">src/iota/HTTPApi.cpp</text>
</a>
</g>
</g>
<!-- Node2 -->
<g id="node2" class="node">
<title>Node2</title>
<g id="a_node2"><a xlink:href="_h_t_t_p_api_8h.html" target="_top" xlink:title=" ">
<polygon fill="white" stroke="black" points="195,-196 195,-215 258,-215 258,-196 195,-196"/>
<text text-anchor="middle" x="226.5" y="-203" font-family="Helvetica,sans-Serif" font-size="10.00">HTTPApi.h</text>
</a>
</g>
</g>
<!-- Node1&#45;&gt;Node2 -->
<g id="edge1" class="edge">
<title>Node1&#45;&gt;Node2</title>
<path fill="none" stroke="midnightblue" d="M602.91,-258.46C515.55,-246.4 346.21,-223.03 267.98,-212.23"/>
<polygon fill="midnightblue" stroke="midnightblue" points="268.39,-208.75 258,-210.85 267.43,-215.68 268.39,-208.75"/>
</g>
<!-- Node8 -->
<g id="node8" class="node">
<title>Node8</title>
<g id="a_node8"><a xlink:href="_server_globals_8h.html" target="_top" xlink:title=" ">
<polygon fill="white" stroke="black" points="548.5,-196 548.5,-215 642.5,-215 642.5,-196 548.5,-196"/>
<text text-anchor="middle" x="595.5" y="-203" font-family="Helvetica,sans-Serif" font-size="10.00">../ServerGlobals.h</text>
</a>
</g>
</g>
<!-- Node1&#45;&gt;Node8 -->
<g id="edge7" class="edge">
<title>Node1&#45;&gt;Node8</title>
<path fill="none" stroke="midnightblue" d="M648.62,-257.48C639.04,-248.28 623.59,-233.46 611.81,-222.16"/>
<polygon fill="midnightblue" stroke="midnightblue" points="614.01,-219.41 604.37,-215.01 609.16,-224.46 614.01,-219.41"/>
</g>
<!-- Node23 -->
<g id="node23" class="node">
<title>Node23</title>
<g id="a_node23"><a xlink:href="_logger_manager_8h.html" target="_top" xlink:title=" ">
<polygon fill="white" stroke="black" points="375.5,-190.5 375.5,-220.5 479.5,-220.5 479.5,-190.5 375.5,-190.5"/>
<text text-anchor="start" x="383.5" y="-208.5" font-family="Helvetica,sans-Serif" font-size="10.00">../SingletonManager</text>
<text text-anchor="middle" x="427.5" y="-197.5" font-family="Helvetica,sans-Serif" font-size="10.00">/LoggerManager.h</text>
</a>
</g>
</g>
<!-- Node1&#45;&gt;Node23 -->
<g id="edge23" class="edge">
<title>Node1&#45;&gt;Node23</title>
<path fill="none" stroke="midnightblue" d="M624.55,-257.48C589.4,-248.38 532.92,-233.77 489.42,-222.52"/>
<polygon fill="midnightblue" stroke="midnightblue" points="490.06,-219.07 479.5,-219.95 488.31,-225.85 490.06,-219.07"/>
</g>
<!-- Node24 -->
<g id="node24" class="node">
<title>Node24</title>
<g id="a_node24"><a xlink:href="_bin_text_converter_8h.html" target="_top" xlink:title=" ">
<polygon fill="white" stroke="black" points="660.5,-196 660.5,-215 780.5,-215 780.5,-196 660.5,-196"/>
<text text-anchor="middle" x="720.5" y="-203" font-family="Helvetica,sans-Serif" font-size="10.00">../lib/BinTextConverter.h</text>
</a>
</g>
</g>
<!-- Node1&#45;&gt;Node24 -->
<g id="edge25" class="edge">
<title>Node1&#45;&gt;Node24</title>
<path fill="none" stroke="midnightblue" d="M666.53,-257.48C676.26,-248.28 691.96,-233.46 703.92,-222.16"/>
<polygon fill="midnightblue" stroke="midnightblue" points="706.62,-224.42 711.49,-215.01 701.82,-219.33 706.62,-224.42"/>
</g>
<!-- Node26 -->
<g id="node26" class="node">
<title>Node26</title>
<g id="a_node26"><a xlink:title=" ">
<polygon fill="white" stroke="#bfbfbf" points="799,-196 799,-215 858,-215 858,-196 799,-196"/>
<text text-anchor="middle" x="828.5" y="-203" font-family="Helvetica,sans-Serif" font-size="10.00">stdexcept</text>
</a>
</g>
</g>
<!-- Node1&#45;&gt;Node26 -->
<g id="edge27" class="edge">
<title>Node1&#45;&gt;Node26</title>
<path fill="none" stroke="midnightblue" d="M683.37,-257.41C710.04,-248.51 752.78,-234.08 789.5,-221 791.74,-220.2 794.05,-219.37 796.37,-218.53"/>
<polygon fill="midnightblue" stroke="midnightblue" points="797.67,-221.77 805.85,-215.04 795.26,-215.2 797.67,-221.77"/>
</g>
<!-- Node27 -->
<g id="node27" class="node">
<title>Node27</title>
<g id="a_node27"><a xlink:title=" ">
<polygon fill="white" stroke="#bfbfbf" points="876.5,-196 876.5,-215 972.5,-215 972.5,-196 876.5,-196"/>
<text text-anchor="middle" x="924.5" y="-203" font-family="Helvetica,sans-Serif" font-size="10.00">rapidjson/pointer.h</text>
</a>
</g>
</g>
<!-- Node1&#45;&gt;Node27 -->
<g id="edge28" class="edge">
<title>Node1&#45;&gt;Node27</title>
<path fill="none" stroke="midnightblue" d="M699.84,-257.42C742.33,-248.69 809.6,-234.56 867.5,-221 872.16,-219.91 877.03,-218.73 881.87,-217.53"/>
<polygon fill="midnightblue" stroke="midnightblue" points="882.85,-220.9 891.7,-215.07 881.15,-214.11 882.85,-220.9"/>
</g>
<!-- Node3 -->
<g id="node3" class="node">
<title>Node3</title>
<g id="a_node3"><a xlink:href="_message_id_8h.html" target="_top" xlink:title=" ">
<polygon fill="white" stroke="black" points="34.5,-129 34.5,-148 106.5,-148 106.5,-129 34.5,-129"/>
<text text-anchor="middle" x="70.5" y="-136" font-family="Helvetica,sans-Serif" font-size="10.00">MessageId.h</text>
</a>
</g>
</g>
<!-- Node2&#45;&gt;Node3 -->
<g id="edge2" class="edge">
<title>Node2&#45;&gt;Node3</title>
<path fill="none" stroke="midnightblue" d="M205.78,-195.87C178.86,-184.65 131.64,-164.98 100.72,-152.09"/>
<polygon fill="midnightblue" stroke="midnightblue" points="101.88,-148.78 91.3,-148.17 99.19,-155.24 101.88,-148.78"/>
</g>
<!-- Node6 -->
<g id="node6" class="node">
<title>Node6</title>
<g id="a_node6"><a xlink:title=" ">
<polygon fill="white" stroke="#bfbfbf" points="124.5,-129 124.5,-148 234.5,-148 234.5,-129 124.5,-129"/>
<text text-anchor="middle" x="179.5" y="-136" font-family="Helvetica,sans-Serif" font-size="10.00">rapidjson/document.h</text>
</a>
</g>
</g>
<!-- Node2&#45;&gt;Node6 -->
<g id="edge5" class="edge">
<title>Node2&#45;&gt;Node6</title>
<path fill="none" stroke="midnightblue" d="M220.16,-195.73C212.9,-185.7 200.84,-169.01 191.74,-156.42"/>
<polygon fill="midnightblue" stroke="midnightblue" points="194.43,-154.18 185.74,-148.13 188.76,-158.28 194.43,-154.18"/>
</g>
<!-- Node7 -->
<g id="node7" class="node">
<title>Node7</title>
<g id="a_node7"><a xlink:title=" ">
<polygon fill="white" stroke="#bfbfbf" points="252.5,-129 252.5,-148 294.5,-148 294.5,-129 252.5,-129"/>
<text text-anchor="middle" x="273.5" y="-136" font-family="Helvetica,sans-Serif" font-size="10.00">vector</text>
</a>
</g>
</g>
<!-- Node2&#45;&gt;Node7 -->
<g id="edge6" class="edge">
<title>Node2&#45;&gt;Node7</title>
<path fill="none" stroke="midnightblue" d="M232.84,-195.73C240.1,-185.7 252.16,-169.01 261.26,-156.42"/>
<polygon fill="midnightblue" stroke="midnightblue" points="264.24,-158.28 267.26,-148.13 258.57,-154.18 264.24,-158.28"/>
</g>
<!-- Node4 -->
<g id="node4" class="node">
<title>Node4</title>
<g id="a_node4"><a xlink:title=" ">
<polygon fill="white" stroke="#bfbfbf" points="0,-62 0,-81 49,-81 49,-62 0,-62"/>
<text text-anchor="middle" x="24.5" y="-69" font-family="Helvetica,sans-Serif" font-size="10.00">cassert</text>
</a>
</g>
</g>
<!-- Node3&#45;&gt;Node4 -->
<g id="edge3" class="edge">
<title>Node3&#45;&gt;Node4</title>
<path fill="none" stroke="midnightblue" d="M64.3,-128.73C57.19,-118.7 45.39,-102.01 36.48,-89.42"/>
<polygon fill="midnightblue" stroke="midnightblue" points="39.24,-87.27 30.61,-81.13 33.53,-91.31 39.24,-87.27"/>
</g>
<!-- Node5 -->
<g id="node5" class="node">
<title>Node5</title>
<g id="a_node5"><a xlink:title=" ">
<polygon fill="white" stroke="#bfbfbf" points="67,-56.5 67,-86.5 168,-86.5 168,-56.5 67,-56.5"/>
<text text-anchor="start" x="75" y="-74.5" font-family="Helvetica,sans-Serif" font-size="10.00">gradido_blockchain</text>
<text text-anchor="middle" x="117.5" y="-63.5" font-family="Helvetica,sans-Serif" font-size="10.00">/MemoryManager.h</text>
</a>
</g>
</g>
<!-- Node3&#45;&gt;Node5 -->
<g id="edge4" class="edge">
<title>Node3&#45;&gt;Node5</title>
<path fill="none" stroke="midnightblue" d="M76.84,-128.73C83.07,-120.12 92.84,-106.61 101.24,-94.99"/>
<polygon fill="midnightblue" stroke="midnightblue" points="104.29,-96.74 107.31,-86.59 98.62,-92.64 104.29,-96.74"/>
</g>
<!-- Node9 -->
<g id="node9" class="node">
<title>Node9</title>
<g id="a_node9"><a xlink:title=" ">
<polygon fill="white" stroke="#bfbfbf" points="477.5,-0.5 477.5,-19.5 635.5,-19.5 635.5,-0.5 477.5,-0.5"/>
<text text-anchor="middle" x="556.5" y="-7.5" font-family="Helvetica,sans-Serif" font-size="10.00">Poco/Util/LayeredConfiguration.h</text>
</a>
</g>
</g>
<!-- Node8&#45;&gt;Node9 -->
<g id="edge8" class="edge">
<title>Node8&#45;&gt;Node9</title>
<path fill="none" stroke="midnightblue" d="M548.5,-203.27C512.22,-199.55 464.2,-187.96 439.5,-154 403.48,-104.47 486.26,-49.28 530.68,-24.42"/>
<polygon fill="midnightblue" stroke="midnightblue" points="532.42,-27.46 539.52,-19.59 529.06,-21.32 532.42,-27.46"/>
</g>
<!-- Node10 -->
<g id="node10" class="node">
<title>Node10</title>
<g id="a_node10"><a xlink:title=" ">
<polygon fill="white" stroke="#bfbfbf" points="449,-129 449,-148 526,-148 526,-129 449,-129"/>
<text text-anchor="middle" x="487.5" y="-136" font-family="Helvetica,sans-Serif" font-size="10.00">Poco/Types.h</text>
</a>
</g>
</g>
<!-- Node8&#45;&gt;Node10 -->
<g id="edge9" class="edge">
<title>Node8&#45;&gt;Node10</title>
<path fill="none" stroke="midnightblue" d="M580.93,-195.73C562.88,-184.87 531.89,-166.22 510.58,-153.39"/>
<polygon fill="midnightblue" stroke="midnightblue" points="512.21,-150.29 501.83,-148.13 508.6,-156.28 512.21,-150.29"/>
</g>
<!-- Node11 -->
<g id="node11" class="node">
<title>Node11</title>
<g id="a_node11"><a xlink:title=" ">
<polygon fill="white" stroke="#bfbfbf" points="312.5,-129 312.5,-148 392.5,-148 392.5,-129 312.5,-129"/>
<text text-anchor="middle" x="352.5" y="-136" font-family="Helvetica,sans-Serif" font-size="10.00">Poco/Logger.h</text>
</a>
</g>
</g>
<!-- Node8&#45;&gt;Node11 -->
<g id="edge10" class="edge">
<title>Node8&#45;&gt;Node11</title>
<path fill="none" stroke="midnightblue" d="M563.39,-195.93C525.79,-185.9 461.62,-168.76 406.5,-154 402.44,-152.91 398.21,-151.78 393.98,-150.64"/>
<polygon fill="midnightblue" stroke="midnightblue" points="394.76,-147.23 384.19,-148.02 392.94,-153.99 394.76,-147.23"/>
</g>
<!-- Node12 -->
<g id="node12" class="node">
<title>Node12</title>
<g id="a_node12"><a xlink:title=" ">
<polygon fill="white" stroke="#bfbfbf" points="544.5,-129 544.5,-148 646.5,-148 646.5,-129 544.5,-129"/>
<text text-anchor="middle" x="595.5" y="-136" font-family="Helvetica,sans-Serif" font-size="10.00">Poco/Net/Context.h</text>
</a>
</g>
</g>
<!-- Node8&#45;&gt;Node12 -->
<g id="edge11" class="edge">
<title>Node8&#45;&gt;Node12</title>
<path fill="none" stroke="midnightblue" d="M595.5,-195.73C595.5,-186.18 595.5,-170.62 595.5,-158.28"/>
<polygon fill="midnightblue" stroke="midnightblue" points="599,-158.13 595.5,-148.13 592,-158.13 599,-158.13"/>
</g>
<!-- Node13 -->
<g id="node13" class="node">
<title>Node13</title>
<g id="a_node13"><a xlink:title=" ">
<polygon fill="white" stroke="#bfbfbf" points="665,-129 665,-148 780,-148 780,-129 665,-129"/>
<text text-anchor="middle" x="722.5" y="-136" font-family="Helvetica,sans-Serif" font-size="10.00">Poco/AtomicCounter.h</text>
</a>
</g>
</g>
<!-- Node8&#45;&gt;Node13 -->
<g id="edge12" class="edge">
<title>Node8&#45;&gt;Node13</title>
<path fill="none" stroke="midnightblue" d="M612.36,-195.87C633.9,-184.84 671.4,-165.66 696.58,-152.77"/>
<polygon fill="midnightblue" stroke="midnightblue" points="698.26,-155.84 705.57,-148.17 695.07,-149.61 698.26,-155.84"/>
</g>
<!-- Node14 -->
<g id="node14" class="node">
<title>Node14</title>
<g id="a_node14"><a xlink:href="_c_p_u_sheduler_8h.html" target="_top" xlink:title=" ">
<polygon fill="white" stroke="black" points="798,-129 798,-148 903,-148 903,-129 798,-129"/>
<text text-anchor="middle" x="850.5" y="-136" font-family="Helvetica,sans-Serif" font-size="10.00">task/CPUSheduler.h</text>
</a>
</g>
</g>
<!-- Node8&#45;&gt;Node14 -->
<g id="edge13" class="edge">
<title>Node8&#45;&gt;Node14</title>
<path fill="none" stroke="midnightblue" d="M628.36,-195.96C635.96,-194 644.01,-191.92 651.5,-190 704.97,-176.29 766.58,-160.69 806.91,-150.5"/>
<polygon fill="midnightblue" stroke="midnightblue" points="807.85,-153.87 816.68,-148.03 806.13,-147.08 807.85,-153.87"/>
</g>
<!-- Node15 -->
<g id="node15" class="node">
<title>Node15</title>
<g id="a_node15"><a xlink:title=" ">
<polygon fill="white" stroke="#bfbfbf" points="921.5,-123.5 921.5,-153.5 1025.5,-153.5 1025.5,-123.5 921.5,-123.5"/>
<text text-anchor="start" x="929.5" y="-141.5" font-family="Helvetica,sans-Serif" font-size="10.00">gradido_blockchain</text>
<text text-anchor="middle" x="973.5" y="-130.5" font-family="Helvetica,sans-Serif" font-size="10.00">/http/JsonRequest.h</text>
</a>
</g>
</g>
<!-- Node8&#45;&gt;Node15 -->
<g id="edge14" class="edge">
<title>Node8&#45;&gt;Node15</title>
<path fill="none" stroke="midnightblue" d="M625.87,-195.95C634.14,-193.81 643.13,-191.66 651.5,-190 763.23,-167.91 795.64,-175.14 911.37,-154.09"/>
<polygon fill="midnightblue" stroke="midnightblue" points="912.13,-157.51 921.33,-152.25 910.86,-150.63 912.13,-157.51"/>
</g>
<!-- Node16 -->
<g id="node16" class="node">
<title>Node16</title>
<g id="a_node16"><a xlink:href="controller_2_group_index_8h.html" target="_top" xlink:title=" ">
<polygon fill="white" stroke="black" points="1044,-129 1044,-148 1161,-148 1161,-129 1044,-129"/>
<text text-anchor="middle" x="1102.5" y="-136" font-family="Helvetica,sans-Serif" font-size="10.00">controller/GroupIndex.h</text>
</a>
</g>
</g>
<!-- Node8&#45;&gt;Node16 -->
<g id="edge15" class="edge">
<title>Node8&#45;&gt;Node16</title>
<path fill="none" stroke="midnightblue" d="M624.95,-195.93C633.46,-193.72 642.8,-191.53 651.5,-190 819.9,-160.48 865.5,-179.87 1034.5,-154 1041.64,-152.91 1049.15,-151.53 1056.48,-150.07"/>
<polygon fill="midnightblue" stroke="midnightblue" points="1057.21,-153.49 1066.29,-148.04 1055.79,-146.64 1057.21,-153.49"/>
</g>
<!-- Node17 -->
<g id="node17" class="node">
<title>Node17</title>
<g id="a_node17"><a xlink:href="model_2files_2_group_index_8h.html" target="_top" xlink:title=" ">
<polygon fill="white" stroke="black" points="662,-62 662,-81 795,-81 795,-62 662,-62"/>
<text text-anchor="middle" x="728.5" y="-69" font-family="Helvetica,sans-Serif" font-size="10.00">../model/files/GroupIndex.h</text>
</a>
</g>
</g>
<!-- Node16&#45;&gt;Node17 -->
<g id="edge16" class="edge">
<title>Node16&#45;&gt;Node17</title>
<path fill="none" stroke="midnightblue" d="M1064.08,-128.98C1054.44,-126.93 1044.11,-124.82 1034.5,-123 952.31,-107.46 857.18,-92.19 795.09,-82.58"/>
<polygon fill="midnightblue" stroke="midnightblue" points="795.45,-79.09 785.04,-81.02 794.39,-86.01 795.45,-79.09"/>
</g>
<!-- Node18 -->
<g id="node18" class="node">
<title>Node18</title>
<g id="a_node18"><a xlink:title=" ">
<polygon fill="white" stroke="#bfbfbf" points="899.5,-56.5 899.5,-86.5 999.5,-86.5 999.5,-56.5 899.5,-56.5"/>
<text text-anchor="start" x="907.5" y="-74.5" font-family="Helvetica,sans-Serif" font-size="10.00">gradido_blockchain</text>
<text text-anchor="middle" x="949.5" y="-63.5" font-family="Helvetica,sans-Serif" font-size="10.00">/lib/DRHashList.h</text>
</a>
</g>
</g>
<!-- Node16&#45;&gt;Node18 -->
<g id="edge18" class="edge">
<title>Node16&#45;&gt;Node18</title>
<path fill="none" stroke="midnightblue" d="M1082.18,-128.87C1059.22,-119.12 1021.22,-102.97 991.76,-90.45"/>
<polygon fill="midnightblue" stroke="midnightblue" points="993.09,-87.22 982.52,-86.53 990.36,-93.66 993.09,-87.22"/>
</g>
<!-- Node19 -->
<g id="node19" class="node">
<title>Node19</title>
<g id="a_node19"><a xlink:title=" ">
<polygon fill="white" stroke="#bfbfbf" points="1018,-62 1018,-81 1089,-81 1089,-62 1018,-62"/>
<text text-anchor="middle" x="1053.5" y="-69" font-family="Helvetica,sans-Serif" font-size="10.00">Poco/Path.h</text>
</a>
</g>
</g>
<!-- Node16&#45;&gt;Node19 -->
<g id="edge19" class="edge">
<title>Node16&#45;&gt;Node19</title>
<path fill="none" stroke="midnightblue" d="M1095.89,-128.73C1088.32,-118.7 1075.75,-102.01 1066.26,-89.42"/>
<polygon fill="midnightblue" stroke="midnightblue" points="1068.82,-87.01 1060,-81.13 1063.23,-91.22 1068.82,-87.01"/>
</g>
<!-- Node20 -->
<g id="node20" class="node">
<title>Node20</title>
<g id="a_node20"><a xlink:href="_controller_base_8h.html" target="_top" xlink:title=" ">
<polygon fill="white" stroke="black" points="1107,-62 1107,-81 1196,-81 1196,-62 1107,-62"/>
<text text-anchor="middle" x="1151.5" y="-69" font-family="Helvetica,sans-Serif" font-size="10.00">ControllerBase.h</text>
</a>
</g>
</g>
<!-- Node16&#45;&gt;Node20 -->
<g id="edge20" class="edge">
<title>Node16&#45;&gt;Node20</title>
<path fill="none" stroke="midnightblue" d="M1109.11,-128.73C1116.68,-118.7 1129.25,-102.01 1138.74,-89.42"/>
<polygon fill="midnightblue" stroke="midnightblue" points="1141.77,-91.22 1145,-81.13 1136.18,-87.01 1141.77,-91.22"/>
</g>
<!-- Node22 -->
<g id="node22" class="node">
<title>Node22</title>
<g id="a_node22"><a xlink:title=" ">
<polygon fill="white" stroke="#bfbfbf" points="1214,-62 1214,-81 1297,-81 1297,-62 1214,-62"/>
<text text-anchor="middle" x="1255.5" y="-69" font-family="Helvetica,sans-Serif" font-size="10.00">unordered_map</text>
</a>
</g>
</g>
<!-- Node16&#45;&gt;Node22 -->
<g id="edge22" class="edge">
<title>Node16&#45;&gt;Node22</title>
<path fill="none" stroke="midnightblue" d="M1122.82,-128.87C1149.22,-117.65 1195.53,-97.98 1225.86,-85.09"/>
<polygon fill="midnightblue" stroke="midnightblue" points="1227.26,-88.3 1235.1,-81.17 1224.53,-81.86 1227.26,-88.3"/>
</g>
<!-- Node17&#45;&gt;Node9 -->
<g id="edge17" class="edge">
<title>Node17&#45;&gt;Node9</title>
<path fill="none" stroke="midnightblue" d="M703.86,-61.98C674.22,-51.72 624.32,-34.46 590.9,-22.9"/>
<polygon fill="midnightblue" stroke="midnightblue" points="591.69,-19.47 581.1,-19.51 589.4,-26.09 591.69,-19.47"/>
</g>
<!-- Node21 -->
<g id="node21" class="node">
<title>Node21</title>
<g id="a_node21"><a xlink:title=" ">
<polygon fill="white" stroke="#bfbfbf" points="1113,-0.5 1113,-19.5 1190,-19.5 1190,-0.5 1113,-0.5"/>
<text text-anchor="middle" x="1151.5" y="-7.5" font-family="Helvetica,sans-Serif" font-size="10.00">Poco/Mutex.h</text>
</a>
</g>
</g>
<!-- Node20&#45;&gt;Node21 -->
<g id="edge21" class="edge">
<title>Node20&#45;&gt;Node21</title>
<path fill="none" stroke="midnightblue" d="M1151.5,-61.98C1151.5,-53.58 1151.5,-40.48 1151.5,-29.66"/>
<polygon fill="midnightblue" stroke="midnightblue" points="1155,-29.51 1151.5,-19.51 1148,-29.51 1155,-29.51"/>
</g>
<!-- Node23&#45;&gt;Node11 -->
<g id="edge24" class="edge">
<title>Node23&#45;&gt;Node11</title>
<path fill="none" stroke="midnightblue" d="M411.23,-190.4C399.18,-179.96 382.79,-165.75 370.38,-155"/>
<polygon fill="midnightblue" stroke="midnightblue" points="372.38,-152.1 362.53,-148.19 367.8,-157.39 372.38,-152.1"/>
</g>
<!-- Node25 -->
<g id="node25" class="node">
<title>Node25</title>
<g id="a_node25"><a xlink:title=" ">
<polygon fill="white" stroke="#bfbfbf" points="1179,-129 1179,-148 1220,-148 1220,-129 1179,-129"/>
<text text-anchor="middle" x="1199.5" y="-136" font-family="Helvetica,sans-Serif" font-size="10.00">string</text>
</a>
</g>
</g>
<!-- Node24&#45;&gt;Node25 -->
<g id="edge26" class="edge">
<title>Node24&#45;&gt;Node25</title>
<path fill="none" stroke="midnightblue" d="M757.78,-195.99C768.32,-193.8 779.82,-191.61 790.5,-190 958.26,-164.76 1007.42,-200.73 1170.5,-154 1172.17,-153.52 1173.87,-152.94 1175.55,-152.3"/>
<polygon fill="midnightblue" stroke="midnightblue" points="1177.18,-155.41 1184.88,-148.12 1174.32,-149.02 1177.18,-155.41"/>
</g>
</g>
</svg>
