<?xml version="1.0" encoding="UTF-8" standalone="no"?>
<!DOCTYPE svg PUBLIC "-//W3C//DTD SVG 1.1//EN"
 "http://www.w3.org/Graphics/SVG/1.1/DTD/svg11.dtd">
<!-- Generated by graphviz version 2.50.0 (20211204.2007)
 -->
<!-- Title: src/iota/HTTPApi.h Pages: 1 -->
<svg width="604pt" height="95pt"
 viewBox="0.00 0.00 603.50 95.00" xmlns="http://www.w3.org/2000/svg" xmlns:xlink="http://www.w3.org/1999/xlink">
<g id="graph0" class="graph" transform="scale(1 1) rotate(0) translate(4 91)">
<title>src/iota/HTTPApi.h</title>
<polygon fill="white" stroke="transparent" points="-4,4 -4,-91 599.5,-91 599.5,4 -4,4"/>
<!-- Node1 -->
<g id="node1" class="node">
<title>Node1</title>
<g id="a_node1"><a xlink:title=" ">
<polygon fill="#bfbfbf" stroke="black" points="209,-67.5 209,-86.5 307,-86.5 307,-67.5 209,-67.5"/>
<text text-anchor="middle" x="258" y="-74.5" font-family="Helvetica,sans-Serif" font-size="10.00">src/iota/HTTPApi.h</text>
</a>
</g>
</g>
<!-- Node2 -->
<g id="node2" class="node">
<title>Node2</title>
<g id="a_node2"><a xlink:href="_server_globals_8cpp.html" target="_top" xlink:title=" ">
<polygon fill="white" stroke="black" points="0,-6 0,-25 112,-25 112,-6 0,-6"/>
<text text-anchor="middle" x="56" y="-13" font-family="Helvetica,sans-Serif" font-size="10.00">src/ServerGlobals.cpp</text>
</a>
</g>
</g>
<!-- Node1&#45;&gt;Node2 -->
<g id="edge1" class="edge">
<title>Node1&#45;&gt;Node2</title>
<path fill="none" stroke="midnightblue" d="M219.31,-64.6C180.05,-53.04 120.19,-35.41 84.89,-25.01"/>
<polygon fill="midnightblue" stroke="midnightblue" points="218.48,-68.01 229.06,-67.48 220.45,-61.29 218.48,-68.01"/>
</g>
<!-- Node3 -->
<g id="node3" class="node">
<title>Node3</title>
<g id="a_node3"><a xlink:href="_h_t_t_p_api_8cpp.html" target="_top" xlink:title=" ">
<polygon fill="white" stroke="black" points="130.5,-6 130.5,-25 239.5,-25 239.5,-6 130.5,-6"/>
<text text-anchor="middle" x="185" y="-13" font-family="Helvetica,sans-Serif" font-size="10.00">src/iota/HTTPApi.cpp</text>
</a>
</g>
</g>
<!-- Node1&#45;&gt;Node3 -->
<g id="edge2" class="edge">
<title>Node1&#45;&gt;Node3</title>
<path fill="none" stroke="midnightblue" d="M239.56,-60.97C225.6,-49.59 206.92,-34.37 195.44,-25.01"/>
<polygon fill="midnightblue" stroke="midnightblue" points="237.58,-63.87 247.54,-67.48 242,-58.44 237.58,-63.87"/>
</g>
<!-- Node4 -->
<g id="node4" class="node">
<title>Node4</title>
<g id="a_node4"><a xlink:href="_message_validator_8cpp.html" target="_top" xlink:title=" ">
<polygon fill="white" stroke="black" points="257.5,-6 257.5,-25 406.5,-25 406.5,-6 257.5,-6"/>
<text text-anchor="middle" x="332" y="-13" font-family="Helvetica,sans-Serif" font-size="10.00">src/iota/MessageValidator.cpp</text>
</a>
</g>
</g>
<!-- Node1&#45;&gt;Node4 -->
<g id="edge3" class="edge">
<title>Node1&#45;&gt;Node4</title>
<path fill="none" stroke="midnightblue" d="M276.69,-60.97C290.84,-49.59 309.78,-34.37 321.42,-25.01"/>
<polygon fill="midnightblue" stroke="midnightblue" points="274.2,-58.48 268.6,-67.48 278.59,-63.94 274.2,-58.48"/>
</g>
<!-- Node5 -->
<g id="node5" class="node">
<title>Node5</title>
<g id="a_node5"><a xlink:href="_iota_message_to_transaction_task_8cpp.html" target="_top" xlink:title=" ">
<polygon fill="white" stroke="black" points="424.5,-0.5 424.5,-30.5 595.5,-30.5 595.5,-0.5 424.5,-0.5"/>
<text text-anchor="start" x="432.5" y="-18.5" font-family="Helvetica,sans-Serif" font-size="10.00">src/task/IotaMessageToTransaction</text>
<text text-anchor="middle" x="510" y="-7.5" font-family="Helvetica,sans-Serif" font-size="10.00">Task.cpp</text>
</a>
</g>
</g>
<!-- Node1&#45;&gt;Node5 -->
<g id="edge4" class="edge">
<title>Node1&#45;&gt;Node5</title>
<path fill="none" stroke="midnightblue" d="M303.87,-65.17C345.05,-55.45 405.74,-41.12 450.61,-30.52"/>
<polygon fill="midnightblue" stroke="midnightblue" points="303.03,-61.77 294.11,-67.48 304.64,-68.58 303.03,-61.77"/>
</g>
</g>
</svg>
