<?xml version="1.0" encoding="UTF-8" standalone="no"?>
<!DOCTYPE svg PUBLIC "-//W3C//DTD SVG 1.1//EN"
 "http://www.w3.org/Graphics/SVG/1.1/DTD/svg11.dtd">
<!-- Generated by graphviz version 2.50.0 (20211204.2007)
 -->
<!-- Title: src/JSONRPCInterface/JsonRequestHandler.cpp Pages: 1 -->
<svg width="1180pt" height="151pt"
 viewBox="0.00 0.00 1179.50 151.00" xmlns="http://www.w3.org/2000/svg" xmlns:xlink="http://www.w3.org/1999/xlink">
<g id="graph0" class="graph" transform="scale(1 1) rotate(0) translate(4 147)">
<title>src/JSONRPCInterface/JsonRequestHandler.cpp</title>
<polygon fill="white" stroke="transparent" points="-4,4 -4,-147 1175.5,-147 1175.5,4 -4,4"/>
<!-- Node1 -->
<g id="node1" class="node">
<title>Node1</title>
<g id="a_node1"><a xlink:title=" ">
<polygon fill="#bfbfbf" stroke="black" points="733.5,-112.5 733.5,-142.5 861.5,-142.5 861.5,-112.5 733.5,-112.5"/>
<text text-anchor="start" x="741.5" y="-130.5" font-family="Helvetica,sans-Serif" font-size="10.00">src/JSONRPCInterface</text>
<text text-anchor="middle" x="797.5" y="-119.5" font-family="Helvetica,sans-Serif" font-size="10.00">/JsonRequestHandler.cpp</text>
</a>
</g>
</g>
<!-- Node2 -->
<g id="node2" class="node">
<title>Node2</title>
<g id="a_node2"><a xlink:href="_json_request_handler_8h.html" target="_top" xlink:title=" ">
<polygon fill="white" stroke="black" points="246.5,-56.5 246.5,-75.5 360.5,-75.5 360.5,-56.5 246.5,-56.5"/>
<text text-anchor="middle" x="303.5" y="-63.5" font-family="Helvetica,sans-Serif" font-size="10.00">JsonRequestHandler.h</text>
</a>
</g>
</g>
<!-- Node1&#45;&gt;Node2 -->
<g id="edge1" class="edge">
<title>Node1&#45;&gt;Node2</title>
<path fill="none" stroke="midnightblue" d="M733.44,-119.24C649.88,-109.71 499.18,-92.25 370.5,-76 370.4,-75.99 370.3,-75.97 370.19,-75.96"/>
<polygon fill="midnightblue" stroke="midnightblue" points="370.88,-72.52 360.51,-74.72 369.99,-79.46 370.88,-72.52"/>
</g>
<!-- Node8 -->
<g id="node8" class="node">
<title>Node8</title>
<g id="a_node8"><a xlink:title=" ">
<polygon fill="white" stroke="#bfbfbf" points="379,-56.5 379,-75.5 534,-75.5 534,-56.5 379,-56.5"/>
<text text-anchor="middle" x="456.5" y="-63.5" font-family="Helvetica,sans-Serif" font-size="10.00">Poco/Net/HTTPServerRequest.h</text>
</a>
</g>
</g>
<!-- Node1&#45;&gt;Node8 -->
<g id="edge7" class="edge">
<title>Node1&#45;&gt;Node8</title>
<path fill="none" stroke="midnightblue" d="M733.36,-115.31C670.8,-104.39 576.45,-87.93 515.65,-77.32"/>
<polygon fill="midnightblue" stroke="midnightblue" points="515.9,-73.81 505.45,-75.54 514.7,-80.71 515.9,-73.81"/>
</g>
<!-- Node9 -->
<g id="node9" class="node">
<title>Node9</title>
<g id="a_node9"><a xlink:title=" ">
<polygon fill="white" stroke="#bfbfbf" points="552,-56.5 552,-75.5 715,-75.5 715,-56.5 552,-56.5"/>
<text text-anchor="middle" x="633.5" y="-63.5" font-family="Helvetica,sans-Serif" font-size="10.00">Poco/Net/HTTPServerResponse.h</text>
</a>
</g>
</g>
<!-- Node1&#45;&gt;Node9 -->
<g id="edge8" class="edge">
<title>Node1&#45;&gt;Node9</title>
<path fill="none" stroke="midnightblue" d="M758.63,-112.4C730.75,-102.28 693.56,-88.79 666.99,-79.15"/>
<polygon fill="midnightblue" stroke="midnightblue" points="667.96,-75.78 657.36,-75.66 665.57,-82.36 667.96,-75.78"/>
</g>
<!-- Node10 -->
<g id="node10" class="node">
<title>Node10</title>
<g id="a_node10"><a xlink:title=" ">
<polygon fill="white" stroke="#bfbfbf" points="733.5,-56.5 733.5,-75.5 861.5,-75.5 861.5,-56.5 733.5,-56.5"/>
<text text-anchor="middle" x="797.5" y="-63.5" font-family="Helvetica,sans-Serif" font-size="10.00">../lib/DataTypeConverter.h</text>
</a>
</g>
</g>
<!-- Node1&#45;&gt;Node10 -->
<g id="edge9" class="edge">
<title>Node1&#45;&gt;Node10</title>
<path fill="none" stroke="midnightblue" d="M797.5,-112.4C797.5,-104.47 797.5,-94.46 797.5,-85.86"/>
<polygon fill="midnightblue" stroke="midnightblue" points="801,-85.66 797.5,-75.66 794,-85.66 801,-85.66"/>
</g>
<!-- Node11 -->
<g id="node11" class="node">
<title>Node11</title>
<g id="a_node11"><a xlink:title=" ">
<polygon fill="white" stroke="#bfbfbf" points="879.5,-56.5 879.5,-75.5 993.5,-75.5 993.5,-56.5 879.5,-56.5"/>
<text text-anchor="middle" x="936.5" y="-63.5" font-family="Helvetica,sans-Serif" font-size="10.00">rapidjson/stringbuffer.h</text>
</a>
</g>
</g>
<!-- Node1&#45;&gt;Node11 -->
<g id="edge10" class="edge">
<title>Node1&#45;&gt;Node11</title>
<path fill="none" stroke="midnightblue" d="M830.44,-112.4C853.66,-102.46 884.49,-89.26 906.92,-79.66"/>
<polygon fill="midnightblue" stroke="midnightblue" points="908.46,-82.81 916.27,-75.66 905.7,-76.38 908.46,-82.81"/>
</g>
<!-- Node12 -->
<g id="node12" class="node">
<title>Node12</title>
<g id="a_node12"><a xlink:title=" ">
<polygon fill="white" stroke="#bfbfbf" points="1011.5,-56.5 1011.5,-75.5 1101.5,-75.5 1101.5,-56.5 1011.5,-56.5"/>
<text text-anchor="middle" x="1056.5" y="-63.5" font-family="Helvetica,sans-Serif" font-size="10.00">rapidjson/writer.h</text>
</a>
</g>
</g>
<!-- Node1&#45;&gt;Node12 -->
<g id="edge11" class="edge">
<title>Node1&#45;&gt;Node12</title>
<path fill="none" stroke="midnightblue" d="M858.55,-112.47C904.8,-101.85 967.38,-87.47 1009.7,-77.75"/>
<polygon fill="midnightblue" stroke="midnightblue" points="1010.51,-81.16 1019.47,-75.51 1008.94,-74.33 1010.51,-81.16"/>
</g>
<!-- Node13 -->
<g id="node13" class="node">
<title>Node13</title>
<g id="a_node13"><a xlink:title=" ">
<polygon fill="white" stroke="#bfbfbf" points="1119.5,-56.5 1119.5,-75.5 1171.5,-75.5 1171.5,-56.5 1119.5,-56.5"/>
<text text-anchor="middle" x="1145.5" y="-63.5" font-family="Helvetica,sans-Serif" font-size="10.00">memory</text>
</a>
</g>
</g>
<!-- Node1&#45;&gt;Node13 -->
<g id="edge12" class="edge">
<title>Node1&#45;&gt;Node13</title>
<path fill="none" stroke="midnightblue" d="M861.66,-117.91C922.92,-109.3 1017.99,-94.91 1109.23,-76.11"/>
<polygon fill="midnightblue" stroke="midnightblue" points="1110.11,-79.51 1119.19,-74.04 1108.68,-72.65 1110.11,-79.51"/>
</g>
<!-- Node3 -->
<g id="node3" class="node">
<title>Node3</title>
<g id="a_node3"><a xlink:title=" ">
<polygon fill="white" stroke="#bfbfbf" points="0,-0.5 0,-19.5 161,-19.5 161,-0.5 0,-0.5"/>
<text text-anchor="middle" x="80.5" y="-7.5" font-family="Helvetica,sans-Serif" font-size="10.00">Poco/Net/HTTPRequestHandler.h</text>
</a>
</g>
</g>
<!-- Node2&#45;&gt;Node3 -->
<g id="edge2" class="edge">
<title>Node2&#45;&gt;Node3</title>
<path fill="none" stroke="midnightblue" d="M268.16,-56.44C229.59,-47.1 167.72,-32.12 125.65,-21.93"/>
<polygon fill="midnightblue" stroke="midnightblue" points="126.21,-18.47 115.67,-19.52 124.57,-25.27 126.21,-18.47"/>
</g>
<!-- Node4 -->
<g id="node4" class="node">
<title>Node4</title>
<g id="a_node4"><a xlink:title=" ">
<polygon fill="white" stroke="#bfbfbf" points="179.5,-0.5 179.5,-19.5 245.5,-19.5 245.5,-0.5 179.5,-0.5"/>
<text text-anchor="middle" x="212.5" y="-7.5" font-family="Helvetica,sans-Serif" font-size="10.00">Poco/URI.h</text>
</a>
</g>
</g>
<!-- Node2&#45;&gt;Node4 -->
<g id="edge3" class="edge">
<title>Node2&#45;&gt;Node4</title>
<path fill="none" stroke="midnightblue" d="M288.88,-56.32C274.55,-47.82 252.49,-34.73 235.75,-24.8"/>
<polygon fill="midnightblue" stroke="midnightblue" points="237.47,-21.75 227.08,-19.65 233.9,-27.77 237.47,-21.75"/>
</g>
<!-- Node5 -->
<g id="node5" class="node">
<title>Node5</title>
<g id="a_node5"><a xlink:title=" ">
<polygon fill="white" stroke="#bfbfbf" points="263.5,-0.5 263.5,-19.5 343.5,-19.5 343.5,-0.5 263.5,-0.5"/>
<text text-anchor="middle" x="303.5" y="-7.5" font-family="Helvetica,sans-Serif" font-size="10.00">Poco/Logger.h</text>
</a>
</g>
</g>
<!-- Node2&#45;&gt;Node5 -->
<g id="edge4" class="edge">
<title>Node2&#45;&gt;Node5</title>
<path fill="none" stroke="midnightblue" d="M303.5,-56.08C303.5,-49.01 303.5,-38.86 303.5,-29.99"/>
<polygon fill="midnightblue" stroke="midnightblue" points="307,-29.75 303.5,-19.75 300,-29.75 307,-29.75"/>
</g>
<!-- Node6 -->
<g id="node6" class="node">
<title>Node6</title>
<g id="a_node6"><a xlink:title=" ">
<polygon fill="white" stroke="#bfbfbf" points="362,-0.5 362,-19.5 445,-19.5 445,-0.5 362,-0.5"/>
<text text-anchor="middle" x="403.5" y="-7.5" font-family="Helvetica,sans-Serif" font-size="10.00">../lib/ErrorList.h</text>
</a>
</g>
</g>
<!-- Node2&#45;&gt;Node6 -->
<g id="edge5" class="edge">
<title>Node2&#45;&gt;Node6</title>
<path fill="none" stroke="midnightblue" d="M319.57,-56.32C335.46,-47.74 360.01,-34.49 378.46,-24.52"/>
<polygon fill="midnightblue" stroke="midnightblue" points="380.34,-27.49 387.47,-19.65 377.01,-21.33 380.34,-27.49"/>
</g>
<!-- Node7 -->
<g id="node7" class="node">
<title>Node7</title>
<g id="a_node7"><a xlink:title=" ">
<polygon fill="white" stroke="#bfbfbf" points="463.5,-0.5 463.5,-19.5 573.5,-19.5 573.5,-0.5 463.5,-0.5"/>
<text text-anchor="middle" x="518.5" y="-7.5" font-family="Helvetica,sans-Serif" font-size="10.00">rapidjson/document.h</text>
</a>
</g>
</g>
<!-- Node2&#45;&gt;Node7 -->
<g id="edge6" class="edge">
<title>Node2&#45;&gt;Node7</title>
<path fill="none" stroke="midnightblue" d="M337.57,-56.44C374.68,-47.12 434.16,-32.18 474.71,-22"/>
<polygon fill="midnightblue" stroke="midnightblue" points="475.75,-25.35 484.59,-19.52 474.04,-18.56 475.75,-25.35"/>
</g>
</g>
</svg>
