<?xml version="1.0" encoding="UTF-8" standalone="no"?>
<!DOCTYPE svg PUBLIC "-//W3C//DTD SVG 1.1//EN"
 "http://www.w3.org/Graphics/SVG/1.1/DTD/svg11.dtd">
<!-- Generated by graphviz version 2.50.0 (20211204.2007)
 -->
<!-- Title: src/JSONRPCInterface/JsonRPCHandler.h Pages: 1 -->
<svg width="304pt" height="106pt"
 viewBox="0.00 0.00 303.50 106.00" xmlns="http://www.w3.org/2000/svg" xmlns:xlink="http://www.w3.org/1999/xlink">
<g id="graph0" class="graph" transform="scale(1 1) rotate(0) translate(4 102)">
<title>src/JSONRPCInterface/JsonRPCHandler.h</title>
<polygon fill="white" stroke="transparent" points="-4,4 -4,-102 299.5,-102 299.5,4 -4,4"/>
<!-- Node1 -->
<g id="node1" class="node">
<title>Node1</title>
<g id="a_node1"><a xlink:title=" ">
<polygon fill="#bfbfbf" stroke="black" points="78,-67.5 78,-97.5 194,-97.5 194,-67.5 78,-67.5"/>
<text text-anchor="start" x="86" y="-85.5" font-family="Helvetica,sans-Serif" font-size="10.00">src/JSONRPCInterface</text>
<text text-anchor="middle" x="136" y="-74.5" font-family="Helvetica,sans-Serif" font-size="10.00">/JsonRPCHandler.h</text>
</a>
</g>
</g>
<!-- Node2 -->
<g id="node2" class="node">
<title>Node2</title>
<g id="a_node2"><a xlink:href="_json_r_p_c_handler_8cpp.html" target="_top" xlink:title=" ">
<polygon fill="white" stroke="black" points="0,-0.5 0,-30.5 116,-30.5 116,-0.5 0,-0.5"/>
<text text-anchor="start" x="8" y="-18.5" font-family="Helvetica,sans-Serif" font-size="10.00">src/JSONRPCInterface</text>
<text text-anchor="middle" x="58" y="-7.5" font-family="Helvetica,sans-Serif" font-size="10.00">/JsonRPCHandler.cpp</text>
</a>
</g>
</g>
<!-- Node1&#45;&gt;Node2 -->
<g id="edge1" class="edge">
<title>Node1&#45;&gt;Node2</title>
<path fill="none" stroke="midnightblue" d="M111.26,-60.88C99.41,-51.01 85.52,-39.43 74.89,-30.58"/>
<polygon fill="midnightblue" stroke="midnightblue" points="109.15,-63.68 119.08,-67.4 113.63,-58.31 109.15,-63.68"/>
</g>
<!-- Node3 -->
<g id="node3" class="node">
<title>Node3</title>
<g id="a_node3"><a xlink:href="_json_request_handler_factory_8cpp.html" target="_top" xlink:title=" ">
<polygon fill="white" stroke="black" points="134.5,-0.5 134.5,-30.5 295.5,-30.5 295.5,-0.5 134.5,-0.5"/>
<text text-anchor="start" x="142.5" y="-18.5" font-family="Helvetica,sans-Serif" font-size="10.00">src/JSONRPCInterface</text>
<text text-anchor="middle" x="215" y="-7.5" font-family="Helvetica,sans-Serif" font-size="10.00">/JsonRequestHandlerFactory.cpp</text>
</a>
</g>
</g>
<!-- Node1&#45;&gt;Node3 -->
<g id="edge2" class="edge">
<title>Node1&#45;&gt;Node3</title>
<path fill="none" stroke="midnightblue" d="M161.06,-60.88C173.06,-51.01 187.13,-39.43 197.89,-30.58"/>
<polygon fill="midnightblue" stroke="midnightblue" points="158.64,-58.34 153.14,-67.4 163.09,-63.75 158.64,-58.34"/>
</g>
</g>
</svg>
