<?xml version="1.0" encoding="UTF-8" standalone="no"?>
<!DOCTYPE svg PUBLIC "-//W3C//DTD SVG 1.1//EN"
 "http://www.w3.org/Graphics/SVG/1.1/DTD/svg11.dtd">
<!-- Generated by graphviz version 2.50.0 (20211204.2007)
 -->
<!-- Title: src/JSONRPCInterface/JsonRPCHandler.h Pages: 1 -->
<svg width="582pt" height="162pt"
 viewBox="0.00 0.00 581.50 162.00" xmlns="http://www.w3.org/2000/svg" xmlns:xlink="http://www.w3.org/1999/xlink">
<g id="graph0" class="graph" transform="scale(1 1) rotate(0) translate(4 158)">
<title>src/JSONRPCInterface/JsonRPCHandler.h</title>
<polygon fill="white" stroke="transparent" points="-4,4 -4,-158 577.5,-158 577.5,4 -4,4"/>
<!-- Node1 -->
<g id="node1" class="node">
<title>Node1</title>
<g id="a_node1"><a xlink:title=" ">
<polygon fill="#bfbfbf" stroke="black" points="308.5,-123.5 308.5,-153.5 424.5,-153.5 424.5,-123.5 308.5,-123.5"/>
<text text-anchor="start" x="316.5" y="-141.5" font-family="Helvetica,sans-Serif" font-size="10.00">src/JSONRPCInterface</text>
<text text-anchor="middle" x="366.5" y="-130.5" font-family="Helvetica,sans-Serif" font-size="10.00">/JsonRPCHandler.h</text>
</a>
</g>
</g>
<!-- Node2 -->
<g id="node2" class="node">
<title>Node2</title>
<g id="a_node2"><a xlink:href="_json_request_handler_8h.html" target="_top" xlink:title=" ">
<polygon fill="white" stroke="black" points="246.5,-62 246.5,-81 360.5,-81 360.5,-62 246.5,-62"/>
<text text-anchor="middle" x="303.5" y="-69" font-family="Helvetica,sans-Serif" font-size="10.00">JsonRequestHandler.h</text>
</a>
</g>
</g>
<!-- Node1&#45;&gt;Node2 -->
<g id="edge1" class="edge">
<title>Node1&#45;&gt;Node2</title>
<path fill="none" stroke="midnightblue" d="M352.83,-123.4C342.91,-113.16 329.47,-99.3 319.13,-88.62"/>
<polygon fill="midnightblue" stroke="midnightblue" points="321.4,-85.94 311.93,-81.19 316.37,-90.81 321.4,-85.94"/>
</g>
<!-- Node8 -->
<g id="node8" class="node">
<title>Node8</title>
<g id="a_node8"><a xlink:title=" ">
<polygon fill="white" stroke="#bfbfbf" points="378.5,-56.5 378.5,-86.5 482.5,-86.5 482.5,-56.5 378.5,-56.5"/>
<text text-anchor="start" x="386.5" y="-74.5" font-family="Helvetica,sans-Serif" font-size="10.00">../SingletonManager</text>
<text text-anchor="middle" x="430.5" y="-63.5" font-family="Helvetica,sans-Serif" font-size="10.00">/MemoryManager.h</text>
</a>
</g>
</g>
<!-- Node1&#45;&gt;Node8 -->
<g id="edge7" class="edge">
<title>Node1&#45;&gt;Node8</title>
<path fill="none" stroke="midnightblue" d="M380.39,-123.4C388.86,-114.79 399.85,-103.63 409.39,-93.94"/>
<polygon fill="midnightblue" stroke="midnightblue" points="412.12,-96.16 416.64,-86.58 407.13,-91.25 412.12,-96.16"/>
</g>
<!-- Node3 -->
<g id="node3" class="node">
<title>Node3</title>
<g id="a_node3"><a xlink:title=" ">
<polygon fill="white" stroke="#bfbfbf" points="0,-0.5 0,-19.5 161,-19.5 161,-0.5 0,-0.5"/>
<text text-anchor="middle" x="80.5" y="-7.5" font-family="Helvetica,sans-Serif" font-size="10.00">Poco/Net/HTTPRequestHandler.h</text>
</a>
</g>
</g>
<!-- Node2&#45;&gt;Node3 -->
<g id="edge2" class="edge">
<title>Node2&#45;&gt;Node3</title>
<path fill="none" stroke="midnightblue" d="M271.55,-61.98C232.3,-51.5 165.62,-33.71 122.33,-22.16"/>
<polygon fill="midnightblue" stroke="midnightblue" points="122.96,-18.71 112.39,-19.51 121.15,-25.47 122.96,-18.71"/>
</g>
<!-- Node4 -->
<g id="node4" class="node">
<title>Node4</title>
<g id="a_node4"><a xlink:title=" ">
<polygon fill="white" stroke="#bfbfbf" points="179.5,-0.5 179.5,-19.5 245.5,-19.5 245.5,-0.5 179.5,-0.5"/>
<text text-anchor="middle" x="212.5" y="-7.5" font-family="Helvetica,sans-Serif" font-size="10.00">Poco/URI.h</text>
</a>
</g>
</g>
<!-- Node2&#45;&gt;Node4 -->
<g id="edge3" class="edge">
<title>Node2&#45;&gt;Node4</title>
<path fill="none" stroke="midnightblue" d="M290.46,-61.98C275.73,-52.34 251.53,-36.52 233.99,-25.05"/>
<polygon fill="midnightblue" stroke="midnightblue" points="235.8,-22.05 225.51,-19.51 231.97,-27.91 235.8,-22.05"/>
</g>
<!-- Node5 -->
<g id="node5" class="node">
<title>Node5</title>
<g id="a_node5"><a xlink:title=" ">
<polygon fill="white" stroke="#bfbfbf" points="263.5,-0.5 263.5,-19.5 343.5,-19.5 343.5,-0.5 263.5,-0.5"/>
<text text-anchor="middle" x="303.5" y="-7.5" font-family="Helvetica,sans-Serif" font-size="10.00">Poco/Logger.h</text>
</a>
</g>
</g>
<!-- Node2&#45;&gt;Node5 -->
<g id="edge4" class="edge">
<title>Node2&#45;&gt;Node5</title>
<path fill="none" stroke="midnightblue" d="M303.5,-61.98C303.5,-53.58 303.5,-40.48 303.5,-29.66"/>
<polygon fill="midnightblue" stroke="midnightblue" points="307,-29.51 303.5,-19.51 300,-29.51 307,-29.51"/>
</g>
<!-- Node6 -->
<g id="node6" class="node">
<title>Node6</title>
<g id="a_node6"><a xlink:title=" ">
<polygon fill="white" stroke="#bfbfbf" points="362,-0.5 362,-19.5 445,-19.5 445,-0.5 362,-0.5"/>
<text text-anchor="middle" x="403.5" y="-7.5" font-family="Helvetica,sans-Serif" font-size="10.00">../lib/ErrorList.h</text>
</a>
</g>
</g>
<!-- Node2&#45;&gt;Node6 -->
<g id="edge5" class="edge">
<title>Node2&#45;&gt;Node6</title>
<path fill="none" stroke="midnightblue" d="M317.83,-61.98C334.16,-52.25 361.1,-36.23 380.41,-24.74"/>
<polygon fill="midnightblue" stroke="midnightblue" points="382.39,-27.63 389.2,-19.51 378.82,-21.61 382.39,-27.63"/>
</g>
<!-- Node7 -->
<g id="node7" class="node">
<title>Node7</title>
<g id="a_node7"><a xlink:title=" ">
<polygon fill="white" stroke="#bfbfbf" points="463.5,-0.5 463.5,-19.5 573.5,-19.5 573.5,-0.5 463.5,-0.5"/>
<text text-anchor="middle" x="518.5" y="-7.5" font-family="Helvetica,sans-Serif" font-size="10.00">rapidjson/document.h</text>
</a>
</g>
</g>
<!-- Node2&#45;&gt;Node7 -->
<g id="edge6" class="edge">
<title>Node2&#45;&gt;Node7</title>
<path fill="none" stroke="midnightblue" d="M334.3,-61.98C372.06,-51.53 436.16,-33.79 477.91,-22.23"/>
<polygon fill="midnightblue" stroke="midnightblue" points="479.05,-25.55 487.75,-19.51 477.18,-18.8 479.05,-25.55"/>
</g>
</g>
</svg>
