<?xml version="1.0" encoding="UTF-8" standalone="no"?>
<!DOCTYPE svg PUBLIC "-//W3C//DTD SVG 1.1//EN"
 "http://www.w3.org/Graphics/SVG/1.1/DTD/svg11.dtd">
<!-- Generated by graphviz version 2.50.0 (20211204.2007)
 -->
<!-- Title: src/JSONRPCInterface/JsonRequestHandlerFactory.h Pages: 1 -->
<svg width="288pt" height="106pt"
 viewBox="0.00 0.00 287.50 106.00" xmlns="http://www.w3.org/2000/svg" xmlns:xlink="http://www.w3.org/1999/xlink">
<g id="graph0" class="graph" transform="scale(1 1) rotate(0) translate(4 102)">
<title>src/JSONRPCInterface/JsonRequestHandlerFactory.h</title>
<polygon fill="white" stroke="transparent" points="-4,4 -4,-102 283.5,-102 283.5,4 -4,4"/>
<!-- Node1 -->
<g id="node1" class="node">
<title>Node1</title>
<g id="a_node1"><a xlink:title=" ">
<polygon fill="#bfbfbf" stroke="black" points="79.5,-67.5 79.5,-97.5 229.5,-97.5 229.5,-67.5 79.5,-67.5"/>
<text text-anchor="start" x="87.5" y="-85.5" font-family="Helvetica,sans-Serif" font-size="10.00">src/JSONRPCInterface</text>
<text text-anchor="middle" x="154.5" y="-74.5" font-family="Helvetica,sans-Serif" font-size="10.00">/JsonRequestHandlerFactory.h</text>
</a>
</g>
</g>
<!-- Node2 -->
<g id="node2" class="node">
<title>Node2</title>
<g id="a_node2"><a xlink:href="_json_request_handler_factory_8cpp.html" target="_top" xlink:title=" ">
<polygon fill="white" stroke="black" points="0,-0.5 0,-30.5 161,-30.5 161,-0.5 0,-0.5"/>
<text text-anchor="start" x="8" y="-18.5" font-family="Helvetica,sans-Serif" font-size="10.00">src/JSONRPCInterface</text>
<text text-anchor="middle" x="80.5" y="-7.5" font-family="Helvetica,sans-Serif" font-size="10.00">/JsonRequestHandlerFactory.cpp</text>
</a>
</g>
</g>
<!-- Node1&#45;&gt;Node2 -->
<g id="edge1" class="edge">
<title>Node1&#45;&gt;Node2</title>
<path fill="none" stroke="midnightblue" d="M130.7,-60.6C119.53,-50.78 106.51,-39.34 96.53,-30.58"/>
<polygon fill="midnightblue" stroke="midnightblue" points="128.62,-63.43 138.44,-67.4 133.24,-58.17 128.62,-63.43"/>
</g>
<!-- Node3 -->
<g id="node3" class="node">
<title>Node3</title>
<g id="a_node3"><a xlink:href="_main_server_8cpp.html" target="_top" xlink:title=" ">
<polygon fill="white" stroke="black" points="179.5,-6 179.5,-25 279.5,-25 279.5,-6 179.5,-6"/>
<text text-anchor="middle" x="229.5" y="-13" font-family="Helvetica,sans-Serif" font-size="10.00">src/MainServer.cpp</text>
</a>
</g>
</g>
<!-- Node1&#45;&gt;Node3 -->
<g id="edge2" class="edge">
<title>Node1&#45;&gt;Node3</title>
<path fill="none" stroke="midnightblue" d="M178.53,-60.67C192.38,-48.67 209.05,-34.22 219.47,-25.19"/>
<polygon fill="midnightblue" stroke="midnightblue" points="176.04,-58.2 170.77,-67.4 180.62,-63.49 176.04,-58.2"/>
</g>
</g>
</svg>
