<?xml version="1.0" encoding="UTF-8" standalone="no"?>
<!DOCTYPE svg PUBLIC "-//W3C//DTD SVG 1.1//EN"
 "http://www.w3.org/Graphics/SVG/1.1/DTD/svg11.dtd">
<!-- Generated by graphviz version 2.50.0 (20211204.2007)
 -->
<!-- Title: src/JSONRPCInterface/JsonRequestHandlerFactory.cpp Pages: 1 -->
<svg width="947pt" height="218pt"
 viewBox="0.00 0.00 946.50 218.00" xmlns="http://www.w3.org/2000/svg" xmlns:xlink="http://www.w3.org/1999/xlink">
<g id="graph0" class="graph" transform="scale(1 1) rotate(0) translate(4 214)">
<title>src/JSONRPCInterface/JsonRequestHandlerFactory.cpp</title>
<polygon fill="white" stroke="transparent" points="-4,4 -4,-214 942.5,-214 942.5,4 -4,4"/>
<!-- Node1 -->
<g id="node1" class="node">
<title>Node1</title>
<g id="a_node1"><a xlink:title=" ">
<polygon fill="#bfbfbf" stroke="black" points="551,-179.5 551,-209.5 712,-209.5 712,-179.5 551,-179.5"/>
<text text-anchor="start" x="559" y="-197.5" font-family="Helvetica,sans-Serif" font-size="10.00">src/JSONRPCInterface</text>
<text text-anchor="middle" x="631.5" y="-186.5" font-family="Helvetica,sans-Serif" font-size="10.00">/JsonRequestHandlerFactory.cpp</text>
</a>
</g>
</g>
<!-- Node2 -->
<g id="node2" class="node">
<title>Node2</title>
<g id="a_node2"><a xlink:href="_json_request_handler_factory_8h.html" target="_top" xlink:title=" ">
<polygon fill="white" stroke="black" points="161,-123.5 161,-142.5 308,-142.5 308,-123.5 161,-123.5"/>
<text text-anchor="middle" x="234.5" y="-130.5" font-family="Helvetica,sans-Serif" font-size="10.00">JsonRequestHandlerFactory.h</text>
</a>
</g>
</g>
<!-- Node1&#45;&gt;Node2 -->
<g id="edge1" class="edge">
<title>Node1&#45;&gt;Node2</title>
<path fill="none" stroke="midnightblue" d="M550.68,-181.39C477.36,-170.4 370.52,-154.39 301.76,-144.08"/>
<polygon fill="midnightblue" stroke="midnightblue" points="301.88,-140.56 291.48,-142.54 300.85,-147.48 301.88,-140.56"/>
</g>
<!-- Node6 -->
<g id="node6" class="node">
<title>Node6</title>
<g id="a_node6"><a xlink:title=" ">
<polygon fill="white" stroke="#bfbfbf" points="326,-123.5 326,-142.5 481,-142.5 481,-123.5 326,-123.5"/>
<text text-anchor="middle" x="403.5" y="-130.5" font-family="Helvetica,sans-Serif" font-size="10.00">Poco/Net/HTTPServerRequest.h</text>
</a>
</g>
</g>
<!-- Node1&#45;&gt;Node6 -->
<g id="edge5" class="edge">
<title>Node1&#45;&gt;Node6</title>
<path fill="none" stroke="midnightblue" d="M577.76,-179.47C537.56,-168.99 483.35,-154.84 446.12,-145.12"/>
<polygon fill="midnightblue" stroke="midnightblue" points="446.66,-141.64 436.1,-142.51 444.89,-148.42 446.66,-141.64"/>
</g>
<!-- Node7 -->
<g id="node7" class="node">
<title>Node7</title>
<g id="a_node7"><a xlink:title=" ">
<polygon fill="white" stroke="#bfbfbf" points="499.5,-123.5 499.5,-142.5 633.5,-142.5 633.5,-123.5 499.5,-123.5"/>
<text text-anchor="middle" x="566.5" y="-130.5" font-family="Helvetica,sans-Serif" font-size="10.00">Poco/DateTimeFormatter.h</text>
</a>
</g>
</g>
<!-- Node1&#45;&gt;Node7 -->
<g id="edge6" class="edge">
<title>Node1&#45;&gt;Node7</title>
<path fill="none" stroke="midnightblue" d="M616.1,-179.4C606.26,-170.4 593.51,-158.72 583.39,-149.47"/>
<polygon fill="midnightblue" stroke="midnightblue" points="585.7,-146.83 575.96,-142.66 580.97,-151.99 585.7,-146.83"/>
</g>
<!-- Node8 -->
<g id="node8" class="node">
<title>Node8</title>
<g id="a_node8"><a xlink:title=" ">
<polygon fill="white" stroke="#bfbfbf" points="651.5,-123.5 651.5,-142.5 743.5,-142.5 743.5,-123.5 651.5,-123.5"/>
<text text-anchor="middle" x="697.5" y="-130.5" font-family="Helvetica,sans-Serif" font-size="10.00">Poco/DateTime.h</text>
</a>
</g>
</g>
<!-- Node1&#45;&gt;Node8 -->
<g id="edge7" class="edge">
<title>Node1&#45;&gt;Node8</title>
<path fill="none" stroke="midnightblue" d="M647.14,-179.4C657.13,-170.4 670.08,-158.72 680.35,-149.47"/>
<polygon fill="midnightblue" stroke="midnightblue" points="682.81,-151.95 687.9,-142.66 678.13,-146.75 682.81,-151.95"/>
</g>
<!-- Node9 -->
<g id="node9" class="node">
<title>Node9</title>
<g id="a_node9"><a xlink:href="_json_r_p_c_handler_8h.html" target="_top" xlink:title=" ">
<polygon fill="white" stroke="black" points="761.5,-123.5 761.5,-142.5 859.5,-142.5 859.5,-123.5 761.5,-123.5"/>
<text text-anchor="middle" x="810.5" y="-130.5" font-family="Helvetica,sans-Serif" font-size="10.00">JsonRPCHandler.h</text>
</a>
</g>
</g>
<!-- Node1&#45;&gt;Node9 -->
<g id="edge8" class="edge">
<title>Node1&#45;&gt;Node9</title>
<path fill="none" stroke="midnightblue" d="M673.92,-179.4C704.72,-169.16 745.91,-155.47 774.98,-145.81"/>
<polygon fill="midnightblue" stroke="midnightblue" points="776.33,-149.05 784.72,-142.57 774.12,-142.4 776.33,-149.05"/>
</g>
<!-- Node16 -->
<g id="node16" class="node">
<title>Node16</title>
<g id="a_node16"><a xlink:title=" ">
<polygon fill="white" stroke="#bfbfbf" points="877.5,-123.5 877.5,-142.5 929.5,-142.5 929.5,-123.5 877.5,-123.5"/>
<text text-anchor="middle" x="903.5" y="-130.5" font-family="Helvetica,sans-Serif" font-size="10.00">sstream</text>
</a>
</g>
</g>
<!-- Node1&#45;&gt;Node16 -->
<g id="edge16" class="edge">
<title>Node1&#45;&gt;Node16</title>
<path fill="none" stroke="midnightblue" d="M701.15,-179.46C746.06,-170.22 805.94,-157.55 867.3,-143.21"/>
<polygon fill="midnightblue" stroke="midnightblue" points="868.22,-146.59 877.16,-140.9 866.62,-139.78 868.22,-146.59"/>
</g>
<!-- Node3 -->
<g id="node3" class="node">
<title>Node3</title>
<g id="a_node3"><a xlink:title=" ">
<polygon fill="white" stroke="#bfbfbf" points="0,-56.5 0,-86.5 153,-86.5 153,-56.5 0,-56.5"/>
<text text-anchor="start" x="8" y="-74.5" font-family="Helvetica,sans-Serif" font-size="10.00">Poco/Net/HTTPRequestHandler</text>
<text text-anchor="middle" x="76.5" y="-63.5" font-family="Helvetica,sans-Serif" font-size="10.00">Factory.h</text>
</a>
</g>
</g>
<!-- Node2&#45;&gt;Node3 -->
<g id="edge2" class="edge">
<title>Node2&#45;&gt;Node3</title>
<path fill="none" stroke="midnightblue" d="M211.86,-123.48C188.86,-114.81 152.57,-101.15 123.35,-90.14"/>
<polygon fill="midnightblue" stroke="midnightblue" points="124.33,-86.77 113.74,-86.52 121.86,-93.32 124.33,-86.77"/>
</g>
<!-- Node4 -->
<g id="node4" class="node">
<title>Node4</title>
<g id="a_node4"><a xlink:title=" ">
<polygon fill="white" stroke="#bfbfbf" points="171.5,-62 171.5,-81 303.5,-81 303.5,-62 171.5,-62"/>
<text text-anchor="middle" x="237.5" y="-69" font-family="Helvetica,sans-Serif" font-size="10.00">Poco/RegularExpression.h</text>
</a>
</g>
</g>
<!-- Node2&#45;&gt;Node4 -->
<g id="edge3" class="edge">
<title>Node2&#45;&gt;Node4</title>
<path fill="none" stroke="midnightblue" d="M234.93,-123.48C235.35,-115.08 236.01,-101.98 236.56,-91.16"/>
<polygon fill="midnightblue" stroke="midnightblue" points="240.06,-91.17 237.07,-81.01 233.07,-90.82 240.06,-91.17"/>
</g>
<!-- Node5 -->
<g id="node5" class="node">
<title>Node5</title>
<g id="a_node5"><a xlink:title=" ">
<polygon fill="white" stroke="#bfbfbf" points="343.5,-0.5 343.5,-19.5 423.5,-19.5 423.5,-0.5 343.5,-0.5"/>
<text text-anchor="middle" x="383.5" y="-7.5" font-family="Helvetica,sans-Serif" font-size="10.00">Poco/Logger.h</text>
</a>
</g>
</g>
<!-- Node2&#45;&gt;Node5 -->
<g id="edge4" class="edge">
<title>Node2&#45;&gt;Node5</title>
<path fill="none" stroke="midnightblue" d="M252.8,-123.39C269.25,-115.22 293.65,-101.98 312.5,-87 334.93,-69.18 356.82,-44.27 370.23,-27.89"/>
<polygon fill="midnightblue" stroke="midnightblue" points="373.22,-29.76 376.76,-19.77 367.77,-25.37 373.22,-29.76"/>
</g>
<!-- Node10 -->
<g id="node10" class="node">
<title>Node10</title>
<g id="a_node10"><a xlink:href="_json_request_handler_8h.html" target="_top" xlink:title=" ">
<polygon fill="white" stroke="black" points="621.5,-62 621.5,-81 735.5,-81 735.5,-62 621.5,-62"/>
<text text-anchor="middle" x="678.5" y="-69" font-family="Helvetica,sans-Serif" font-size="10.00">JsonRequestHandler.h</text>
</a>
</g>
</g>
<!-- Node9&#45;&gt;Node10 -->
<g id="edge9" class="edge">
<title>Node9&#45;&gt;Node10</title>
<path fill="none" stroke="midnightblue" d="M791.59,-123.48C769.34,-113.45 732.19,-96.7 706.57,-85.15"/>
<polygon fill="midnightblue" stroke="midnightblue" points="707.93,-81.93 697.38,-81.01 705.06,-88.31 707.93,-81.93"/>
</g>
<!-- Node15 -->
<g id="node15" class="node">
<title>Node15</title>
<g id="a_node15"><a xlink:title=" ">
<polygon fill="white" stroke="#bfbfbf" points="758.5,-56.5 758.5,-86.5 862.5,-86.5 862.5,-56.5 758.5,-56.5"/>
<text text-anchor="start" x="766.5" y="-74.5" font-family="Helvetica,sans-Serif" font-size="10.00">../SingletonManager</text>
<text text-anchor="middle" x="810.5" y="-63.5" font-family="Helvetica,sans-Serif" font-size="10.00">/MemoryManager.h</text>
</a>
</g>
</g>
<!-- Node9&#45;&gt;Node15 -->
<g id="edge15" class="edge">
<title>Node9&#45;&gt;Node15</title>
<path fill="none" stroke="midnightblue" d="M810.5,-123.48C810.5,-116.47 810.5,-106.19 810.5,-96.7"/>
<polygon fill="midnightblue" stroke="midnightblue" points="814,-96.52 810.5,-86.52 807,-96.52 814,-96.52"/>
</g>
<!-- Node10&#45;&gt;Node5 -->
<g id="edge12" class="edge">
<title>Node10&#45;&gt;Node5</title>
<path fill="none" stroke="midnightblue" d="M636.23,-61.98C582.73,-51.18 490.68,-32.62 433.67,-21.12"/>
<polygon fill="midnightblue" stroke="midnightblue" points="434.29,-17.67 423.79,-19.13 432.9,-24.54 434.29,-17.67"/>
</g>
<!-- Node11 -->
<g id="node11" class="node">
<title>Node11</title>
<g id="a_node11"><a xlink:title=" ">
<polygon fill="white" stroke="#bfbfbf" points="463,-0.5 463,-19.5 624,-19.5 624,-0.5 463,-0.5"/>
<text text-anchor="middle" x="543.5" y="-7.5" font-family="Helvetica,sans-Serif" font-size="10.00">Poco/Net/HTTPRequestHandler.h</text>
</a>
</g>
</g>
<!-- Node10&#45;&gt;Node11 -->
<g id="edge10" class="edge">
<title>Node10&#45;&gt;Node11</title>
<path fill="none" stroke="midnightblue" d="M659.16,-61.98C636.4,-51.95 598.41,-35.2 572.21,-23.65"/>
<polygon fill="midnightblue" stroke="midnightblue" points="573.37,-20.34 562.81,-19.51 570.55,-26.74 573.37,-20.34"/>
</g>
<!-- Node12 -->
<g id="node12" class="node">
<title>Node12</title>
<g id="a_node12"><a xlink:title=" ">
<polygon fill="white" stroke="#bfbfbf" points="642.5,-0.5 642.5,-19.5 708.5,-19.5 708.5,-0.5 642.5,-0.5"/>
<text text-anchor="middle" x="675.5" y="-7.5" font-family="Helvetica,sans-Serif" font-size="10.00">Poco/URI.h</text>
</a>
</g>
</g>
<!-- Node10&#45;&gt;Node12 -->
<g id="edge11" class="edge">
<title>Node10&#45;&gt;Node12</title>
<path fill="none" stroke="midnightblue" d="M678.07,-61.98C677.65,-53.58 676.99,-40.48 676.44,-29.66"/>
<polygon fill="midnightblue" stroke="midnightblue" points="679.93,-29.32 675.93,-19.51 672.94,-29.67 679.93,-29.32"/>
</g>
<!-- Node13 -->
<g id="node13" class="node">
<title>Node13</title>
<g id="a_node13"><a xlink:title=" ">
<polygon fill="white" stroke="#bfbfbf" points="727,-0.5 727,-19.5 810,-19.5 810,-0.5 727,-0.5"/>
<text text-anchor="middle" x="768.5" y="-7.5" font-family="Helvetica,sans-Serif" font-size="10.00">../lib/ErrorList.h</text>
</a>
</g>
</g>
<!-- Node10&#45;&gt;Node13 -->
<g id="edge13" class="edge">
<title>Node10&#45;&gt;Node13</title>
<path fill="none" stroke="midnightblue" d="M691.39,-61.98C705.96,-52.34 729.9,-36.52 747.25,-25.05"/>
<polygon fill="midnightblue" stroke="midnightblue" points="749.22,-27.94 755.63,-19.51 745.36,-22.1 749.22,-27.94"/>
</g>
<!-- Node14 -->
<g id="node14" class="node">
<title>Node14</title>
<g id="a_node14"><a xlink:title=" ">
<polygon fill="white" stroke="#bfbfbf" points="828.5,-0.5 828.5,-19.5 938.5,-19.5 938.5,-0.5 828.5,-0.5"/>
<text text-anchor="middle" x="883.5" y="-7.5" font-family="Helvetica,sans-Serif" font-size="10.00">rapidjson/document.h</text>
</a>
</g>
</g>
<!-- Node10&#45;&gt;Node14 -->
<g id="edge14" class="edge">
<title>Node10&#45;&gt;Node14</title>
<path fill="none" stroke="midnightblue" d="M707.87,-61.98C743.8,-51.55 804.73,-33.86 844.54,-22.31"/>
<polygon fill="midnightblue" stroke="midnightblue" points="845.55,-25.66 854.18,-19.51 843.6,-18.94 845.55,-25.66"/>
</g>
</g>
</svg>
