<?xml version="1.0" encoding="UTF-8" standalone="no"?>
<!DOCTYPE svg PUBLIC "-//W3C//DTD SVG 1.1//EN"
 "http://www.w3.org/Graphics/SVG/1.1/DTD/svg11.dtd">
<!-- Generated by graphviz version 2.50.0 (20211204.2007)
 -->
<!-- Title: src/JSONRPCInterface/JsonRequestHandlerFactory.h Pages: 1 -->
<svg width="410pt" height="106pt"
 viewBox="0.00 0.00 409.50 106.00" xmlns="http://www.w3.org/2000/svg" xmlns:xlink="http://www.w3.org/1999/xlink">
<g id="graph0" class="graph" transform="scale(1 1) rotate(0) translate(4 102)">
<title>src/JSONRPCInterface/JsonRequestHandlerFactory.h</title>
<polygon fill="white" stroke="transparent" points="-4,4 -4,-102 405.5,-102 405.5,4 -4,4"/>
<!-- Node1 -->
<g id="node1" class="node">
<title>Node1</title>
<g id="a_node1"><a xlink:title=" ">
<polygon fill="#bfbfbf" stroke="black" points="162.5,-67.5 162.5,-97.5 312.5,-97.5 312.5,-67.5 162.5,-67.5"/>
<text text-anchor="start" x="170.5" y="-85.5" font-family="Helvetica,sans-Serif" font-size="10.00">src/JSONRPCInterface</text>
<text text-anchor="middle" x="237.5" y="-74.5" font-family="Helvetica,sans-Serif" font-size="10.00">/JsonRequestHandlerFactory.h</text>
</a>
</g>
</g>
<!-- Node2 -->
<g id="node2" class="node">
<title>Node2</title>
<g id="a_node2"><a xlink:title=" ">
<polygon fill="white" stroke="#bfbfbf" points="0,-0.5 0,-30.5 153,-30.5 153,-0.5 0,-0.5"/>
<text text-anchor="start" x="8" y="-18.5" font-family="Helvetica,sans-Serif" font-size="10.00">Poco/Net/HTTPRequestHandler</text>
<text text-anchor="middle" x="76.5" y="-7.5" font-family="Helvetica,sans-Serif" font-size="10.00">Factory.h</text>
</a>
</g>
</g>
<!-- Node1&#45;&gt;Node2 -->
<g id="edge1" class="edge">
<title>Node1&#45;&gt;Node2</title>
<path fill="none" stroke="midnightblue" d="M202.57,-67.4C178.62,-57.73 146.65,-44.82 120.9,-34.43"/>
<polygon fill="midnightblue" stroke="midnightblue" points="121.95,-31.07 111.37,-30.58 119.33,-37.57 121.95,-31.07"/>
</g>
<!-- Node3 -->
<g id="node3" class="node">
<title>Node3</title>
<g id="a_node3"><a xlink:title=" ">
<polygon fill="white" stroke="#bfbfbf" points="171.5,-6 171.5,-25 303.5,-25 303.5,-6 171.5,-6"/>
<text text-anchor="middle" x="237.5" y="-13" font-family="Helvetica,sans-Serif" font-size="10.00">Poco/RegularExpression.h</text>
</a>
</g>
</g>
<!-- Node1&#45;&gt;Node3 -->
<g id="edge2" class="edge">
<title>Node1&#45;&gt;Node3</title>
<path fill="none" stroke="midnightblue" d="M237.5,-67.4C237.5,-58.06 237.5,-45.71 237.5,-35.52"/>
<polygon fill="midnightblue" stroke="midnightblue" points="241,-35.19 237.5,-25.19 234,-35.19 241,-35.19"/>
</g>
<!-- Node4 -->
<g id="node4" class="node">
<title>Node4</title>
<g id="a_node4"><a xlink:title=" ">
<polygon fill="white" stroke="#bfbfbf" points="321.5,-6 321.5,-25 401.5,-25 401.5,-6 321.5,-6"/>
<text text-anchor="middle" x="361.5" y="-13" font-family="Helvetica,sans-Serif" font-size="10.00">Poco/Logger.h</text>
</a>
</g>
</g>
<!-- Node1&#45;&gt;Node4 -->
<g id="edge3" class="edge">
<title>Node1&#45;&gt;Node4</title>
<path fill="none" stroke="midnightblue" d="M264.41,-67.4C285.78,-56.19 315.45,-40.64 336.35,-29.69"/>
<polygon fill="midnightblue" stroke="midnightblue" points="338.04,-32.75 345.27,-25.01 334.79,-26.55 338.04,-32.75"/>
</g>
</g>
</svg>
