<?xml version="1.0" encoding="UTF-8" standalone="no"?>
<!DOCTYPE svg PUBLIC "-//W3C//DTD SVG 1.1//EN"
 "http://www.w3.org/Graphics/SVG/1.1/DTD/svg11.dtd">
<!-- Generated by graphviz version 2.50.0 (20211204.2007)
 -->
<!-- Title: src/SingletonManager/LoggerManager.h Pages: 1 -->
<!--zoomable 106 -->
<svg id="main" version="1.1" xmlns="http://www.w3.org/2000/svg" xmlns:xlink="http://www.w3.org/1999/xlink" xml:space="preserve" onload="init(evt)">
<style type="text/css"><![CDATA[
.edge:hover path { stroke: red; }
.edge:hover polygon { stroke: red; fill: red; }
]]></style>
<script type="text/javascript"><![CDATA[
var edges = document.getElementsByTagName('g');
if (edges && edges.length) {
  for (var i=0;i<edges.length;i++) {
    if (edges[i].id.substr(0,4)=='edge') {
      edges[i].setAttribute('class','edge');
    }
  }
}
]]></script>
        <defs>
                <circle id="rim" cx="0" cy="0" r="7"/>
                <circle id="rim2" cx="0" cy="0" r="3.5"/>
                <g id="zoomPlus">
                        <use xlink:href="#rim" fill="#404040">
                                <set attributeName="fill" to="#808080" begin="zoomplus.mouseover" end="zoomplus.mouseout"/>
                        </use>
                        <path d="M-4,0h8M0,-4v8" fill="none" stroke="white" stroke-width="1.5" pointer-events="none"/>
                </g>
                <g id="zoomMin">
                        <use xlink:href="#rim" fill="#404040">
                                <set attributeName="fill" to="#808080" begin="zoomminus.mouseover" end="zoomminus.mouseout"/>
                        </use>
                        <path d="M-4,0h8" fill="none" stroke="white" stroke-width="1.5" pointer-events="none"/>
                </g>
                <g id="dirArrow">
                        <path fill="none" stroke="white" stroke-width="1.5" d="M0,-3.0v7 M-2.5,-0.5L0,-3.0L2.5,-0.5"/>
                </g>
               <g id="resetDef">
                       <use xlink:href="#rim2" fill="#404040">
                               <set attributeName="fill" to="#808080" begin="reset.mouseover" end="reset.mouseout"/>
                       </use>
               </g>
        </defs>

<script type="text/javascript">
var viewWidth = 1748;
var viewHeight = 106;
var sectionId = 'dynsection-1';
</script>
<script xlink:href="svgpan.js"/>
<svg id="graph" class="graph">
<g id="viewport">
<title>src/SingletonManager/LoggerManager.h</title>
<polygon fill="white" stroke="transparent" points="-4,4 -4,-102 1744,-102 1744,4 -4,4"/>
<!-- Node1 -->
<g id="node1" class="node">
<title>Node1</title>
<g id="a_node1"><a xlink:title=" ">
<polygon fill="#bfbfbf" stroke="black" points="781,-67.5 781,-97.5 892,-97.5 892,-67.5 781,-67.5"/>
<text text-anchor="start" x="789" y="-85.5" font-family="Helvetica,sans-Serif" font-size="10.00">src/SingletonManager</text>
<text text-anchor="middle" x="836.5" y="-74.5" font-family="Helvetica,sans-Serif" font-size="10.00">/LoggerManager.h</text>
</a>
</g>
</g>
<!-- Node2 -->
<g id="node2" class="node">
<title>Node2</title>
<g id="a_node2"><a xlink:href="_logger_manager_8cpp.html" target="_top" xlink:title=" ">
<polygon fill="white" stroke="black" points="0,-0.5 0,-30.5 111,-30.5 111,-0.5 0,-0.5"/>
<text text-anchor="start" x="8" y="-18.5" font-family="Helvetica,sans-Serif" font-size="10.00">src/SingletonManager</text>
<text text-anchor="middle" x="55.5" y="-7.5" font-family="Helvetica,sans-Serif" font-size="10.00">/LoggerManager.cpp</text>
</a>
</g>
</g>
<!-- Node1&#45;&gt;Node2 -->
<g id="edge1" class="edge">
<title>Node1&#45;&gt;Node2</title>
<path fill="none" stroke="midnightblue" d="M770.55,-80.21C643.78,-76.99 357.55,-66.14 119.5,-31 116.8,-30.6 114.03,-30.15 111.25,-29.66"/>
<polygon fill="midnightblue" stroke="midnightblue" points="770.78,-83.72 780.86,-80.47 770.95,-76.72 770.78,-83.72"/>
</g>
<!-- Node3 -->
<g id="node3" class="node">
<title>Node3</title>
<g id="a_node3"><a xlink:href="_ordering_manager_8cpp.html" target="_top" xlink:title=" ">
<polygon fill="white" stroke="black" points="129,-0.5 129,-30.5 242,-30.5 242,-0.5 129,-0.5"/>
<text text-anchor="start" x="137" y="-18.5" font-family="Helvetica,sans-Serif" font-size="10.00">src/SingletonManager</text>
<text text-anchor="middle" x="185.5" y="-7.5" font-family="Helvetica,sans-Serif" font-size="10.00">/OrderingManager.cpp</text>
</a>
</g>
</g>
<!-- Node1&#45;&gt;Node3 -->
<g id="edge2" class="edge">
<title>Node1&#45;&gt;Node3</title>
<path fill="none" stroke="midnightblue" d="M770.7,-78.7C661.92,-73.42 437.98,-59.86 250.5,-31 247.76,-30.58 244.96,-30.11 242.14,-29.6"/>
<polygon fill="midnightblue" stroke="midnightblue" points="770.71,-82.2 780.86,-79.18 771.04,-75.21 770.71,-82.2"/>
</g>
<!-- Node4 -->
<g id="node4" class="node">
<title>Node4</title>
<g id="a_node4"><a xlink:href="controller_2_block_index_8cpp.html" target="_top" xlink:title=" ">
<polygon fill="white" stroke="black" points="260,-6 260,-25 403,-25 403,-6 260,-6"/>
<text text-anchor="middle" x="331.5" y="-13" font-family="Helvetica,sans-Serif" font-size="10.00">src/controller/BlockIndex.cpp</text>
</a>
</g>
</g>
<!-- Node1&#45;&gt;Node4 -->
<g id="edge3" class="edge">
<title>Node1&#45;&gt;Node4</title>
<path fill="none" stroke="midnightblue" d="M770.54,-74.92C686.84,-66.29 538.12,-49.98 411.5,-31 399.91,-29.26 387.43,-27.13 375.85,-25.04"/>
<polygon fill="midnightblue" stroke="midnightblue" points="770.36,-78.42 780.66,-75.96 771.07,-71.46 770.36,-78.42"/>
</g>
<!-- Node5 -->
<g id="node5" class="node">
<title>Node5</title>
<g id="a_node5"><a xlink:href="_group_8cpp.html" target="_top" xlink:title=" ">
<polygon fill="white" stroke="black" points="421,-6 421,-25 542,-25 542,-6 421,-6"/>
<text text-anchor="middle" x="481.5" y="-13" font-family="Helvetica,sans-Serif" font-size="10.00">src/controller/Group.cpp</text>
</a>
</g>
</g>
<!-- Node1&#45;&gt;Node5 -->
<g id="edge4" class="edge">
<title>Node1&#45;&gt;Node5</title>
<path fill="none" stroke="midnightblue" d="M770.64,-70.49C712.6,-60.64 625.8,-45.56 550.5,-31 540.89,-29.14 530.54,-27.03 520.86,-25"/>
<polygon fill="midnightblue" stroke="midnightblue" points="770.33,-73.99 780.77,-72.21 771.5,-67.09 770.33,-73.99"/>
</g>
<!-- Node6 -->
<g id="node6" class="node">
<title>Node6</title>
<g id="a_node6"><a xlink:href="_h_t_t_p_api_8cpp.html" target="_top" xlink:title=" ">
<polygon fill="white" stroke="black" points="560,-6 560,-25 669,-25 669,-6 560,-6"/>
<text text-anchor="middle" x="614.5" y="-13" font-family="Helvetica,sans-Serif" font-size="10.00">src/iota/HTTPApi.cpp</text>
</a>
</g>
</g>
<!-- Node1&#45;&gt;Node6 -->
<g id="edge5" class="edge">
<title>Node1&#45;&gt;Node6</title>
<path fill="none" stroke="midnightblue" d="M778.75,-64.59C735.39,-51.9 677.83,-35.04 643.63,-25.03"/>
<polygon fill="midnightblue" stroke="midnightblue" points="778.02,-68.02 788.6,-67.48 779.99,-61.31 778.02,-68.02"/>
</g>
<!-- Node7 -->
<g id="node7" class="node">
<title>Node7</title>
<g id="a_node7"><a xlink:href="_message_validator_8cpp.html" target="_top" xlink:title=" ">
<polygon fill="white" stroke="black" points="687,-6 687,-25 836,-25 836,-6 687,-6"/>
<text text-anchor="middle" x="761.5" y="-13" font-family="Helvetica,sans-Serif" font-size="10.00">src/iota/MessageValidator.cpp</text>
</a>
</g>
</g>
<!-- Node1&#45;&gt;Node7 -->
<g id="edge6" class="edge">
<title>Node1&#45;&gt;Node7</title>
<path fill="none" stroke="midnightblue" d="M812.47,-60.67C798.62,-48.67 781.95,-34.22 771.53,-25.19"/>
<polygon fill="midnightblue" stroke="midnightblue" points="810.38,-63.49 820.23,-67.4 814.96,-58.2 810.38,-63.49"/>
</g>
<!-- Node8 -->
<g id="node8" class="node">
<title>Node8</title>
<g id="a_node8"><a xlink:href="_fuzzy_timer_8cpp.html" target="_top" xlink:title=" ">
<polygon fill="white" stroke="black" points="854.5,-6 854.5,-25 970.5,-25 970.5,-6 854.5,-6"/>
<text text-anchor="middle" x="912.5" y="-13" font-family="Helvetica,sans-Serif" font-size="10.00">src/lib/FuzzyTimer.cpp</text>
</a>
</g>
</g>
<!-- Node1&#45;&gt;Node8 -->
<g id="edge7" class="edge">
<title>Node1&#45;&gt;Node8</title>
<path fill="none" stroke="midnightblue" d="M860.85,-60.67C874.89,-48.67 891.78,-34.22 902.33,-25.19"/>
<polygon fill="midnightblue" stroke="midnightblue" points="858.32,-58.24 852.99,-67.4 862.87,-63.56 858.32,-58.24"/>
</g>
<!-- Node9 -->
<g id="node9" class="node">
<title>Node9</title>
<g id="a_node9"><a xlink:href="_virtual_file_8cpp.html" target="_top" xlink:title=" ">
<polygon fill="white" stroke="black" points="988.5,-6 988.5,-25 1096.5,-25 1096.5,-6 988.5,-6"/>
<text text-anchor="middle" x="1042.5" y="-13" font-family="Helvetica,sans-Serif" font-size="10.00">src/lib/VirtualFile.cpp</text>
</a>
</g>
</g>
<!-- Node1&#45;&gt;Node9 -->
<g id="edge8" class="edge">
<title>Node1&#45;&gt;Node9</title>
<path fill="none" stroke="midnightblue" d="M890.6,-64.43C930.77,-51.75 983.87,-35 1015.47,-25.03"/>
<polygon fill="midnightblue" stroke="midnightblue" points="889.43,-61.13 880.95,-67.48 891.54,-67.8 889.43,-61.13"/>
</g>
<!-- Node10 -->
<g id="node10" class="node">
<title>Node10</title>
<g id="a_node10"><a xlink:href="model_2files_2_block_8cpp.html" target="_top" xlink:title=" ">
<polygon fill="white" stroke="black" points="1114.5,-6 1114.5,-25 1240.5,-25 1240.5,-6 1114.5,-6"/>
<text text-anchor="middle" x="1177.5" y="-13" font-family="Helvetica,sans-Serif" font-size="10.00">src/model/files/Block.cpp</text>
</a>
</g>
</g>
<!-- Node1&#45;&gt;Node10 -->
<g id="edge9" class="edge">
<title>Node1&#45;&gt;Node10</title>
<path fill="none" stroke="midnightblue" d="M902.06,-69.44C956.55,-59.36 1036.12,-44.5 1105.5,-31 1115.26,-29.1 1125.76,-27.01 1135.64,-25.03"/>
<polygon fill="midnightblue" stroke="midnightblue" points="901.38,-66.01 892.18,-71.27 902.65,-72.89 901.38,-66.01"/>
</g>
<!-- Node11 -->
<g id="node11" class="node">
<title>Node11</title>
<g id="a_node11"><a xlink:href="model_2files_2_block_index_8cpp.html" target="_top" xlink:title=" ">
<polygon fill="white" stroke="black" points="1259,-6 1259,-25 1408,-25 1408,-6 1259,-6"/>
<text text-anchor="middle" x="1333.5" y="-13" font-family="Helvetica,sans-Serif" font-size="10.00">src/model/files/BlockIndex.cpp</text>
</a>
</g>
</g>
<!-- Node1&#45;&gt;Node11 -->
<g id="edge10" class="edge">
<title>Node1&#45;&gt;Node11</title>
<path fill="none" stroke="midnightblue" d="M902.19,-74.48C983.78,-65.52 1127.17,-49.03 1249.5,-31 1261.51,-29.23 1274.44,-27.11 1286.47,-25.04"/>
<polygon fill="midnightblue" stroke="midnightblue" points="901.62,-71.02 892.06,-75.59 902.38,-77.98 901.62,-71.02"/>
</g>
<!-- Node12 -->
<g id="node12" class="node">
<title>Node12</title>
<g id="a_node12"><a xlink:href="_state_8cpp.html" target="_top" xlink:title=" ">
<polygon fill="white" stroke="black" points="1426,-6 1426,-25 1551,-25 1551,-6 1426,-6"/>
<text text-anchor="middle" x="1488.5" y="-13" font-family="Helvetica,sans-Serif" font-size="10.00">src/model/files/State.cpp</text>
</a>
</g>
</g>
<!-- Node1&#45;&gt;Node12 -->
<g id="edge11" class="edge">
<title>Node1&#45;&gt;Node12</title>
<path fill="none" stroke="midnightblue" d="M902.1,-78.26C1010.03,-72.37 1231.61,-57.97 1417.5,-31 1428.33,-29.43 1440,-27.25 1450.69,-25.06"/>
<polygon fill="midnightblue" stroke="midnightblue" points="901.82,-74.77 892.02,-78.8 902.19,-81.76 901.82,-74.77"/>
</g>
<!-- Node13 -->
<g id="node13" class="node">
<title>Node13</title>
<g id="a_node13"><a xlink:href="_iota_message_to_transaction_task_8cpp.html" target="_top" xlink:title=" ">
<polygon fill="white" stroke="black" points="1569,-0.5 1569,-30.5 1740,-30.5 1740,-0.5 1569,-0.5"/>
<text text-anchor="start" x="1577" y="-18.5" font-family="Helvetica,sans-Serif" font-size="10.00">src/task/IotaMessageToTransaction</text>
<text text-anchor="middle" x="1654.5" y="-7.5" font-family="Helvetica,sans-Serif" font-size="10.00">Task.cpp</text>
</a>
</g>
</g>
<!-- Node1&#45;&gt;Node13 -->
<g id="edge12" class="edge">
<title>Node1&#45;&gt;Node13</title>
<path fill="none" stroke="midnightblue" d="M902.41,-78.75C1029.83,-73.01 1318.74,-58.03 1560.5,-31 1563.29,-30.69 1566.12,-30.35 1568.98,-30"/>
<polygon fill="midnightblue" stroke="midnightblue" points="901.88,-75.27 892.05,-79.21 902.19,-82.26 901.88,-75.27"/>
</g>
</g>
</svg>
        <g id="navigator" transform="translate(0 0)" fill="#404254">
                <rect fill="#f2f5e9" fill-opacity="0.5" stroke="#606060" stroke-width=".5" x="0" y="0" width="60" height="60"/>
                <use id="zoomplus" xlink:href="#zoomPlus" x="17" y="9" onmousedown="handleZoom(evt,'in')"/>
                <use id="zoomminus" xlink:href="#zoomMin" x="42" y="9" onmousedown="handleZoom(evt,'out')"/>
                <use id="reset" xlink:href="#resetDef" x="30" y="36" onmousedown="handleReset()"/>
                <g id="arrowUp" xlink:href="#dirArrow" transform="translate(30 24)" onmousedown="handlePan(0,-1)">
                  <use xlink:href="#rim" fill="#404040">
                        <set attributeName="fill" to="#808080" begin="arrowUp.mouseover" end="arrowUp.mouseout"/>
                  </use>
                  <path fill="none" stroke="white" stroke-width="1.5" d="M0,-3.0v7 M-2.5,-0.5L0,-3.0L2.5,-0.5"/>
                </g>
                <g id="arrowRight" xlink:href="#dirArrow" transform="rotate(90) translate(36 -43)" onmousedown="handlePan(1,0)">
                  <use xlink:href="#rim" fill="#404040">
                        <set attributeName="fill" to="#808080" begin="arrowRight.mouseover" end="arrowRight.mouseout"/>
                  </use>
                  <path fill="none" stroke="white" stroke-width="1.5" d="M0,-3.0v7 M-2.5,-0.5L0,-3.0L2.5,-0.5"/>
                </g>
                <g id="arrowDown" xlink:href="#dirArrow" transform="rotate(180) translate(-30 -48)" onmousedown="handlePan(0,1)">
                  <use xlink:href="#rim" fill="#404040">
                        <set attributeName="fill" to="#808080" begin="arrowDown.mouseover" end="arrowDown.mouseout"/>
                  </use>
                  <path fill="none" stroke="white" stroke-width="1.5" d="M0,-3.0v7 M-2.5,-0.5L0,-3.0L2.5,-0.5"/>
                </g>
                <g id="arrowLeft" xlink:href="#dirArrow" transform="rotate(270) translate(-36 17)" onmousedown="handlePan(-1,0)">
                  <use xlink:href="#rim" fill="#404040">
                        <set attributeName="fill" to="#808080" begin="arrowLeft.mouseover" end="arrowLeft.mouseout"/>
                  </use>
                  <path fill="none" stroke="white" stroke-width="1.5" d="M0,-3.0v7 M-2.5,-0.5L0,-3.0L2.5,-0.5"/>
                </g>
        </g>
        <svg viewBox="0 0 15 15" width="100%" height="30px" preserveAspectRatio="xMaxYMin meet">
         <g id="arrow_out" transform="scale(0.3 0.3)">
          <a xlink:href="_logger_manager_8h__dep__incl_org.svg" target="_base">
           <rect id="button" ry="5" rx="5" y="6" x="6" height="38" width="38"
                fill="#f2f5e9" fill-opacity="0.5" stroke="#606060" stroke-width="1.0"/>
           <path id="arrow"
             d="M 11.500037,31.436501 C 11.940474,20.09759 22.043105,11.32322 32.158766,21.979434 L 37.068811,17.246167 C 37.068811,17.246167 37.088388,32 37.088388,32 L 22.160133,31.978069 C 22.160133,31.978069 26.997745,27.140456 26.997745,27.140456 C 18.528582,18.264221 13.291696,25.230495 11.500037,31.436501 z"
             style="fill:#404040;"/>
          </a>
         </g>
        </svg>
</svg>
