<?xml version="1.0" encoding="UTF-8" standalone="no"?>
<!DOCTYPE svg PUBLIC "-//W3C//DTD SVG 1.1//EN"
 "http://www.w3.org/Graphics/SVG/1.1/DTD/svg11.dtd">
<!-- Generated by graphviz version 2.50.0 (20211204.2007)
 -->
<!-- Title: src/MainServer.cpp Pages: 1 -->
<svg width="4237pt" height="363pt"
 viewBox="0.00 0.00 4236.50 363.00" xmlns="http://www.w3.org/2000/svg" xmlns:xlink="http://www.w3.org/1999/xlink">
<g id="graph0" class="graph" transform="scale(1 1) rotate(0) translate(4 359)">
<title>src/MainServer.cpp</title>
<polygon fill="white" stroke="transparent" points="-4,4 -4,-359 4232.5,-359 4232.5,4 -4,4"/>
<!-- Node1 -->
<g id="node1" class="node">
<title>Node1</title>
<g id="a_node1"><a xlink:title=" ">
<polygon fill="#bfbfbf" stroke="black" points="2942.5,-335.5 2942.5,-354.5 3042.5,-354.5 3042.5,-335.5 2942.5,-335.5"/>
<text text-anchor="middle" x="2992.5" y="-342.5" font-family="Helvetica,sans-Serif" font-size="10.00">src/MainServer.cpp</text>
</a>
</g>
</g>
<!-- Node2 -->
<g id="node2" class="node">
<title>Node2</title>
<g id="a_node2"><a xlink:href="_main_server_8h.html" target="_top" xlink:title=" ">
<polygon fill="white" stroke="black" points="53,-274 53,-293 126,-293 126,-274 53,-274"/>
<text text-anchor="middle" x="89.5" y="-281" font-family="Helvetica,sans-Serif" font-size="10.00">MainServer.h</text>
</a>
</g>
</g>
<!-- Node1&#45;&gt;Node2 -->
<g id="edge1" class="edge">
<title>Node1&#45;&gt;Node2</title>
<path fill="none" stroke="midnightblue" d="M2942.22,-343.79C2585.61,-342.23 444.32,-331.54 157.5,-299 149.57,-298.1 141.21,-296.7 133.16,-295.11"/>
<polygon fill="midnightblue" stroke="midnightblue" points="133.69,-291.65 123.18,-293.03 132.26,-298.5 133.69,-291.65"/>
</g>
<!-- Node4 -->
<g id="node4" class="node">
<title>Node4</title>
<g id="a_node4"><a xlink:href="_server_globals_8h.html" target="_top" xlink:title=" ">
<polygon fill="white" stroke="black" points="2274,-207 2274,-226 2359,-226 2359,-207 2274,-207"/>
<text text-anchor="middle" x="2316.5" y="-214" font-family="Helvetica,sans-Serif" font-size="10.00">ServerGlobals.h</text>
</a>
</g>
</g>
<!-- Node1&#45;&gt;Node4 -->
<g id="edge3" class="edge">
<title>Node1&#45;&gt;Node4</title>
<path fill="none" stroke="midnightblue" d="M2942.13,-344.44C2817.63,-344.85 2498.52,-341.57 2402.5,-299 2370.68,-284.89 2343.35,-253.83 2328.48,-234.39"/>
<polygon fill="midnightblue" stroke="midnightblue" points="2331.14,-232.1 2322.38,-226.14 2325.51,-236.26 2331.14,-232.1"/>
</g>
<!-- Node7 -->
<g id="node7" class="node">
<title>Node7</title>
<g id="a_node7"><a xlink:title=" ">
<polygon fill="white" stroke="#bfbfbf" points="2563.5,-62 2563.5,-81 2643.5,-81 2643.5,-62 2563.5,-62"/>
<text text-anchor="middle" x="2603.5" y="-69" font-family="Helvetica,sans-Serif" font-size="10.00">Poco/Logger.h</text>
</a>
</g>
</g>
<!-- Node1&#45;&gt;Node7 -->
<g id="edge29" class="edge">
<title>Node1&#45;&gt;Node7</title>
<path fill="none" stroke="midnightblue" d="M2942.25,-341.64C2844.8,-336.53 2637.77,-322.97 2616.5,-299 2607.35,-288.7 2608.38,-279.13 2616.5,-268 2647.3,-225.75 2697.7,-274.25 2728.5,-232 2736.62,-220.87 2733.68,-213.77 2728.5,-201 2707.7,-149.78 2655.58,-107.78 2625.63,-86.86"/>
<polygon fill="midnightblue" stroke="midnightblue" points="2627.33,-83.79 2617.1,-81.05 2623.4,-89.57 2627.33,-83.79"/>
</g>
<!-- Node15 -->
<g id="node15" class="node">
<title>Node15</title>
<g id="a_node15"><a xlink:title=" ">
<polygon fill="white" stroke="#bfbfbf" points="404,-62 404,-81 475,-81 475,-62 404,-62"/>
<text text-anchor="middle" x="439.5" y="-69" font-family="Helvetica,sans-Serif" font-size="10.00">Poco/Path.h</text>
</a>
</g>
</g>
<!-- Node1&#45;&gt;Node15 -->
<g id="edge31" class="edge">
<title>Node1&#45;&gt;Node15</title>
<path fill="none" stroke="midnightblue" d="M2942.34,-343.93C2724.49,-343.37 1838.66,-338.64 1112.5,-299 911.25,-288.01 314.92,-340.32 215.5,-165 176.25,-95.79 317.22,-78.35 393.57,-73.97"/>
<polygon fill="midnightblue" stroke="midnightblue" points="394.08,-77.45 403.89,-73.43 393.72,-70.46 394.08,-77.45"/>
</g>
<!-- Node19 -->
<g id="node19" class="node">
<title>Node19</title>
<g id="a_node19"><a xlink:href="_json_request_handler_factory_8h.html" target="_top" xlink:title=" ">
<polygon fill="white" stroke="black" points="2411.5,-268.5 2411.5,-298.5 2569.5,-298.5 2569.5,-268.5 2411.5,-268.5"/>
<text text-anchor="start" x="2419.5" y="-286.5" font-family="Helvetica,sans-Serif" font-size="10.00">JSONRPCInterface/JsonRequest</text>
<text text-anchor="middle" x="2490.5" y="-275.5" font-family="Helvetica,sans-Serif" font-size="10.00">HandlerFactory.h</text>
</a>
</g>
</g>
<!-- Node1&#45;&gt;Node19 -->
<g id="edge19" class="edge">
<title>Node1&#45;&gt;Node19</title>
<path fill="none" stroke="midnightblue" d="M2942.36,-339.22C2865.15,-331.69 2712.56,-316.15 2583.5,-299 2582.22,-298.83 2580.94,-298.66 2579.65,-298.48"/>
<polygon fill="midnightblue" stroke="midnightblue" points="2580,-295 2569.61,-297.08 2579.03,-301.93 2580,-295"/>
</g>
<!-- Node22 -->
<g id="node22" class="node">
<title>Node22</title>
<g id="a_node22"><a xlink:title=" ">
<polygon fill="white" stroke="#bfbfbf" points="2625.5,-274 2625.5,-293 2693.5,-293 2693.5,-274 2625.5,-274"/>
<text text-anchor="middle" x="2659.5" y="-281" font-family="Helvetica,sans-Serif" font-size="10.00">lib/Profiler.h</text>
</a>
</g>
</g>
<!-- Node1&#45;&gt;Node22 -->
<g id="edge23" class="edge">
<title>Node1&#45;&gt;Node22</title>
<path fill="none" stroke="midnightblue" d="M2942.41,-338.73C2884.39,-332.04 2786.19,-318.92 2703.5,-299 2700.03,-298.16 2696.45,-297.18 2692.89,-296.13"/>
<polygon fill="midnightblue" stroke="midnightblue" points="2693.63,-292.7 2683.04,-293.05 2691.54,-299.38 2693.63,-292.7"/>
</g>
<!-- Node23 -->
<g id="node23" class="node">
<title>Node23</title>
<g id="a_node23"><a xlink:title=" ">
<polygon fill="white" stroke="#bfbfbf" points="2712,-274 2712,-293 2841,-293 2841,-274 2712,-274"/>
<text text-anchor="middle" x="2776.5" y="-281" font-family="Helvetica,sans-Serif" font-size="10.00">Poco/Util/HelpFormatter.h</text>
</a>
</g>
</g>
<!-- Node1&#45;&gt;Node23 -->
<g id="edge24" class="edge">
<title>Node1&#45;&gt;Node23</title>
<path fill="none" stroke="midnightblue" d="M2961.55,-335.48C2923.62,-325.03 2859.22,-307.29 2817.28,-295.73"/>
<polygon fill="midnightblue" stroke="midnightblue" points="2817.96,-292.29 2807.39,-293.01 2816.1,-299.04 2817.96,-292.29"/>
</g>
<!-- Node24 -->
<g id="node24" class="node">
<title>Node24</title>
<g id="a_node24"><a xlink:title=" ">
<polygon fill="white" stroke="#bfbfbf" points="2859.5,-274 2859.5,-293 2985.5,-293 2985.5,-274 2859.5,-274"/>
<text text-anchor="middle" x="2922.5" y="-281" font-family="Helvetica,sans-Serif" font-size="10.00">Poco/Net/ServerSocket.h</text>
</a>
</g>
</g>
<!-- Node1&#45;&gt;Node24 -->
<g id="edge25" class="edge">
<title>Node1&#45;&gt;Node24</title>
<path fill="none" stroke="midnightblue" d="M2982.47,-335.48C2971.45,-326.11 2953.54,-310.88 2940.16,-299.51"/>
<polygon fill="midnightblue" stroke="midnightblue" points="2942.4,-296.82 2932.51,-293.01 2937.86,-302.15 2942.4,-296.82"/>
</g>
<!-- Node25 -->
<g id="node25" class="node">
<title>Node25</title>
<g id="a_node25"><a xlink:title=" ">
<polygon fill="white" stroke="#bfbfbf" points="3004,-274 3004,-293 3123,-293 3123,-274 3004,-274"/>
<text text-anchor="middle" x="3063.5" y="-281" font-family="Helvetica,sans-Serif" font-size="10.00">Poco/Net/HTTPServer.h</text>
</a>
</g>
</g>
<!-- Node1&#45;&gt;Node25 -->
<g id="edge26" class="edge">
<title>Node1&#45;&gt;Node25</title>
<path fill="none" stroke="midnightblue" d="M3002.67,-335.48C3013.85,-326.11 3032.02,-310.88 3045.59,-299.51"/>
<polygon fill="midnightblue" stroke="midnightblue" points="3047.93,-302.11 3053.35,-293.01 3043.43,-296.75 3047.93,-302.11"/>
</g>
<!-- Node26 -->
<g id="node26" class="node">
<title>Node26</title>
<g id="a_node26"><a xlink:title=" ">
<polygon fill="white" stroke="#bfbfbf" points="3141,-274 3141,-293 3266,-293 3266,-274 3141,-274"/>
<text text-anchor="middle" x="3203.5" y="-281" font-family="Helvetica,sans-Serif" font-size="10.00">Poco/Net/SSLManager.h</text>
</a>
</g>
</g>
<!-- Node1&#45;&gt;Node26 -->
<g id="edge27" class="edge">
<title>Node1&#45;&gt;Node26</title>
<path fill="none" stroke="midnightblue" d="M3022.73,-335.48C3059.79,-325.03 3122.69,-307.29 3163.66,-295.73"/>
<polygon fill="midnightblue" stroke="midnightblue" points="3164.65,-299.09 3173.32,-293.01 3162.75,-292.35 3164.65,-299.09"/>
</g>
<!-- Node27 -->
<g id="node27" class="node">
<title>Node27</title>
<g id="a_node27"><a xlink:title=" ">
<polygon fill="white" stroke="#bfbfbf" points="3284.5,-274 3284.5,-293 3388.5,-293 3388.5,-274 3284.5,-274"/>
<text text-anchor="middle" x="3336.5" y="-281" font-family="Helvetica,sans-Serif" font-size="10.00">Poco/Environment.h</text>
</a>
</g>
</g>
<!-- Node1&#45;&gt;Node27 -->
<g id="edge28" class="edge">
<title>Node1&#45;&gt;Node27</title>
<path fill="none" stroke="midnightblue" d="M3042.55,-337.21C3099.26,-329.25 3194.37,-315.07 3275.5,-299 3281.04,-297.9 3286.84,-296.66 3292.56,-295.36"/>
<polygon fill="midnightblue" stroke="midnightblue" points="3293.77,-298.68 3302.72,-293.01 3292.19,-291.86 3293.77,-298.68"/>
</g>
<!-- Node28 -->
<g id="node28" class="node">
<title>Node28</title>
<g id="a_node28"><a xlink:title=" ">
<polygon fill="white" stroke="#bfbfbf" points="3406.5,-274 3406.5,-293 3472.5,-293 3472.5,-274 3406.5,-274"/>
<text text-anchor="middle" x="3439.5" y="-281" font-family="Helvetica,sans-Serif" font-size="10.00">Poco/File.h</text>
</a>
</g>
</g>
<!-- Node1&#45;&gt;Node28 -->
<g id="edge30" class="edge">
<title>Node1&#45;&gt;Node28</title>
<path fill="none" stroke="midnightblue" d="M3042.65,-342C3119.77,-338.13 3271.72,-327.33 3397.5,-299 3400.91,-298.23 3404.44,-297.28 3407.93,-296.23"/>
<polygon fill="midnightblue" stroke="midnightblue" points="3409.1,-299.53 3417.53,-293.11 3406.94,-292.87 3409.1,-299.53"/>
</g>
<!-- Node29 -->
<g id="node29" class="node">
<title>Node29</title>
<g id="a_node29"><a xlink:title=" ">
<polygon fill="white" stroke="#bfbfbf" points="3491,-274 3491,-293 3604,-293 3604,-274 3491,-274"/>
<text text-anchor="middle" x="3547.5" y="-281" font-family="Helvetica,sans-Serif" font-size="10.00">Poco/AsyncChannel.h</text>
</a>
</g>
</g>
<!-- Node1&#45;&gt;Node29 -->
<g id="edge32" class="edge">
<title>Node1&#45;&gt;Node29</title>
<path fill="none" stroke="midnightblue" d="M3042.73,-341.45C3131.62,-336.47 3322.28,-323.72 3481.5,-299 3488.28,-297.95 3495.4,-296.62 3502.36,-295.2"/>
<polygon fill="midnightblue" stroke="midnightblue" points="3503.32,-298.57 3512.37,-293.07 3501.86,-291.72 3503.32,-298.57"/>
</g>
<!-- Node30 -->
<g id="node30" class="node">
<title>Node30</title>
<g id="a_node30"><a xlink:title=" ">
<polygon fill="white" stroke="#bfbfbf" points="3622,-274 3622,-293 3753,-293 3753,-274 3622,-274"/>
<text text-anchor="middle" x="3687.5" y="-281" font-family="Helvetica,sans-Serif" font-size="10.00">Poco/SimpleFileChannel.h</text>
</a>
</g>
</g>
<!-- Node1&#45;&gt;Node30 -->
<g id="edge33" class="edge">
<title>Node1&#45;&gt;Node30</title>
<path fill="none" stroke="midnightblue" d="M3042.62,-342.43C3148.47,-338.66 3402.43,-327.22 3613.5,-299 3621.62,-297.91 3630.19,-296.49 3638.5,-294.97"/>
<polygon fill="midnightblue" stroke="midnightblue" points="3639.31,-298.38 3648.47,-293.07 3638,-291.5 3639.31,-298.38"/>
</g>
<!-- Node31 -->
<g id="node31" class="node">
<title>Node31</title>
<g id="a_node31"><a xlink:title=" ">
<polygon fill="white" stroke="#bfbfbf" points="3771,-274 3771,-293 3892,-293 3892,-274 3771,-274"/>
<text text-anchor="middle" x="3831.5" y="-281" font-family="Helvetica,sans-Serif" font-size="10.00">Poco/ConsoleChannel.h</text>
</a>
</g>
</g>
<!-- Node1&#45;&gt;Node31 -->
<g id="edge34" class="edge">
<title>Node1&#45;&gt;Node31</title>
<path fill="none" stroke="midnightblue" d="M3042.74,-343.64C3165.95,-342.21 3492.73,-335.03 3762.5,-299 3770.09,-297.99 3778.1,-296.6 3785.86,-295.09"/>
<polygon fill="midnightblue" stroke="midnightblue" points="3786.77,-298.47 3795.86,-293.04 3785.36,-291.62 3786.77,-298.47"/>
</g>
<!-- Node32 -->
<g id="node32" class="node">
<title>Node32</title>
<g id="a_node32"><a xlink:title=" ">
<polygon fill="white" stroke="#bfbfbf" points="3910.5,-274 3910.5,-293 4026.5,-293 4026.5,-274 3910.5,-274"/>
<text text-anchor="middle" x="3968.5" y="-281" font-family="Helvetica,sans-Serif" font-size="10.00">Poco/SplitterChannel.h</text>
</a>
</g>
</g>
<!-- Node1&#45;&gt;Node32 -->
<g id="edge35" class="edge">
<title>Node1&#45;&gt;Node32</title>
<path fill="none" stroke="midnightblue" d="M3042.52,-344.39C3180.19,-344.84 3576.07,-341.98 3901.5,-299 3908.97,-298.01 3916.83,-296.63 3924.45,-295.1"/>
<polygon fill="midnightblue" stroke="midnightblue" points="3925.2,-298.52 3934.26,-293.04 3923.75,-291.67 3925.2,-298.52"/>
</g>
<!-- Node33 -->
<g id="node33" class="node">
<title>Node33</title>
<g id="a_node33"><a xlink:title=" ">
<polygon fill="white" stroke="#bfbfbf" points="4044.5,-274 4044.5,-293 4100.5,-293 4100.5,-274 4044.5,-274"/>
<text text-anchor="middle" x="4072.5" y="-281" font-family="Helvetica,sans-Serif" font-size="10.00">sodium.h</text>
</a>
</g>
</g>
<!-- Node1&#45;&gt;Node33 -->
<g id="edge36" class="edge">
<title>Node1&#45;&gt;Node33</title>
<path fill="none" stroke="midnightblue" d="M3042.78,-344.02C3223.91,-343.75 3842.55,-339.79 4035.5,-299 4038.51,-298.36 4041.59,-297.51 4044.63,-296.53"/>
<polygon fill="midnightblue" stroke="midnightblue" points="4045.84,-299.82 4054.05,-293.11 4043.45,-293.24 4045.84,-299.82"/>
</g>
<!-- Node34 -->
<g id="node34" class="node">
<title>Node34</title>
<g id="a_node34"><a xlink:title=" ">
<polygon fill="white" stroke="#bfbfbf" points="4118.5,-268.5 4118.5,-298.5 4228.5,-298.5 4228.5,-268.5 4118.5,-268.5"/>
<text text-anchor="start" x="4126.5" y="-286.5" font-family="Helvetica,sans-Serif" font-size="10.00">google/protobuf/stubs</text>
<text text-anchor="middle" x="4173.5" y="-275.5" font-family="Helvetica,sans-Serif" font-size="10.00">/common.h</text>
</a>
</g>
</g>
<!-- Node1&#45;&gt;Node34 -->
<g id="edge37" class="edge">
<title>Node1&#45;&gt;Node34</title>
<path fill="none" stroke="midnightblue" d="M3042.55,-343.2C3228.39,-340.04 3879.36,-327.25 4108.52,-298.92"/>
<polygon fill="midnightblue" stroke="midnightblue" points="4108.98,-302.38 4118.46,-297.64 4108.09,-295.44 4108.98,-302.38"/>
</g>
<!-- Node35 -->
<g id="node35" class="node">
<title>Node35</title>
<g id="a_node35"><a xlink:href="_group_manager_8h.html" target="_top" xlink:title=" ">
<polygon fill="white" stroke="black" points="1121.5,-274 1121.5,-293 1291.5,-293 1291.5,-274 1121.5,-274"/>
<text text-anchor="middle" x="1206.5" y="-281" font-family="Helvetica,sans-Serif" font-size="10.00">SingletonManager/GroupManager.h</text>
</a>
</g>
</g>
<!-- Node1&#45;&gt;Node35 -->
<g id="edge38" class="edge">
<title>Node1&#45;&gt;Node35</title>
<path fill="none" stroke="midnightblue" d="M2942.4,-342.33C2697.99,-334.19 1629.34,-298.59 1302.09,-287.68"/>
<polygon fill="midnightblue" stroke="midnightblue" points="1301.8,-284.17 1291.69,-287.34 1301.57,-291.17 1301.8,-284.17"/>
</g>
<!-- Node67 -->
<g id="node47" class="node">
<title>Node67</title>
<g id="a_node47"><a xlink:href="_ordering_manager_8h.html" target="_top" xlink:title=" ">
<polygon fill="white" stroke="black" points="1615.5,-201.5 1615.5,-231.5 1749.5,-231.5 1749.5,-201.5 1615.5,-201.5"/>
<text text-anchor="start" x="1623.5" y="-219.5" font-family="Helvetica,sans-Serif" font-size="10.00">SingletonManager/Ordering</text>
<text text-anchor="middle" x="1682.5" y="-208.5" font-family="Helvetica,sans-Serif" font-size="10.00">Manager.h</text>
</a>
</g>
</g>
<!-- Node1&#45;&gt;Node67 -->
<g id="edge70" class="edge">
<title>Node1&#45;&gt;Node67</title>
<path fill="none" stroke="midnightblue" d="M2942.47,-341.32C2834.91,-335.37 2573.74,-319.91 2355.5,-299 2139.27,-278.28 1885.02,-245.08 1759.96,-228.16"/>
<polygon fill="midnightblue" stroke="midnightblue" points="1760.1,-224.65 1749.72,-226.77 1759.16,-231.58 1760.1,-224.65"/>
</g>
<!-- Node3 -->
<g id="node3" class="node">
<title>Node3</title>
<g id="a_node3"><a xlink:title=" ">
<polygon fill="white" stroke="#bfbfbf" points="0,-207 0,-226 143,-226 143,-207 0,-207"/>
<text text-anchor="middle" x="71.5" y="-214" font-family="Helvetica,sans-Serif" font-size="10.00">Poco/Util/ServerApplication.h</text>
</a>
</g>
</g>
<!-- Node2&#45;&gt;Node3 -->
<g id="edge2" class="edge">
<title>Node2&#45;&gt;Node3</title>
<path fill="none" stroke="midnightblue" d="M87.07,-273.73C84.4,-264.09 80.03,-248.3 76.6,-235.91"/>
<polygon fill="midnightblue" stroke="midnightblue" points="79.93,-234.83 73.89,-226.13 73.18,-236.7 79.93,-234.83"/>
</g>
<!-- Node5 -->
<g id="node5" class="node">
<title>Node5</title>
<g id="a_node5"><a xlink:title=" ">
<polygon fill="white" stroke="#bfbfbf" points="2043.5,-0.5 2043.5,-19.5 2201.5,-19.5 2201.5,-0.5 2043.5,-0.5"/>
<text text-anchor="middle" x="2122.5" y="-7.5" font-family="Helvetica,sans-Serif" font-size="10.00">Poco/Util/LayeredConfiguration.h</text>
</a>
</g>
</g>
<!-- Node4&#45;&gt;Node5 -->
<g id="edge4" class="edge">
<title>Node4&#45;&gt;Node5</title>
<path fill="none" stroke="midnightblue" d="M2344.4,-206.97C2352.15,-204.8 2360.61,-202.63 2368.5,-201 2426.49,-189.02 2588.29,-204.38 2632.5,-165 2669.28,-132.24 2685.82,-92.27 2652.5,-56 2623.35,-24.27 2354.98,-14.89 2211.7,-12.13"/>
<polygon fill="midnightblue" stroke="midnightblue" points="2211.67,-8.63 2201.61,-11.94 2211.54,-15.63 2211.67,-8.63"/>
</g>
<!-- Node6 -->
<g id="node6" class="node">
<title>Node6</title>
<g id="a_node6"><a xlink:title=" ">
<polygon fill="white" stroke="#bfbfbf" points="2151,-134.5 2151,-153.5 2228,-153.5 2228,-134.5 2151,-134.5"/>
<text text-anchor="middle" x="2189.5" y="-141.5" font-family="Helvetica,sans-Serif" font-size="10.00">Poco/Types.h</text>
</a>
</g>
</g>
<!-- Node4&#45;&gt;Node6 -->
<g id="edge5" class="edge">
<title>Node4&#45;&gt;Node6</title>
<path fill="none" stroke="midnightblue" d="M2300.93,-206.86C2279.22,-194.8 2239.64,-172.84 2213.97,-158.58"/>
<polygon fill="midnightblue" stroke="midnightblue" points="2215.64,-155.51 2205.2,-153.72 2212.24,-161.63 2215.64,-155.51"/>
</g>
<!-- Node4&#45;&gt;Node7 -->
<g id="edge6" class="edge">
<title>Node4&#45;&gt;Node7</title>
<path fill="none" stroke="midnightblue" d="M2344.68,-206.94C2352.36,-204.8 2360.71,-202.65 2368.5,-201 2422.55,-189.56 2578.37,-206.8 2614.5,-165 2632.32,-144.38 2621.91,-110.82 2612.72,-90.3"/>
<polygon fill="midnightblue" stroke="midnightblue" points="2615.8,-88.62 2608.3,-81.13 2609.49,-91.66 2615.8,-88.62"/>
</g>
<!-- Node8 -->
<g id="node8" class="node">
<title>Node8</title>
<g id="a_node8"><a xlink:title=" ">
<polygon fill="white" stroke="#bfbfbf" points="2246.5,-134.5 2246.5,-153.5 2348.5,-153.5 2348.5,-134.5 2246.5,-134.5"/>
<text text-anchor="middle" x="2297.5" y="-141.5" font-family="Helvetica,sans-Serif" font-size="10.00">Poco/Net/Context.h</text>
</a>
</g>
</g>
<!-- Node4&#45;&gt;Node8 -->
<g id="edge7" class="edge">
<title>Node4&#45;&gt;Node8</title>
<path fill="none" stroke="midnightblue" d="M2314.17,-206.86C2311.29,-196.18 2306.32,-177.72 2302.55,-163.73"/>
<polygon fill="midnightblue" stroke="midnightblue" points="2305.83,-162.46 2299.85,-153.72 2299.07,-164.28 2305.83,-162.46"/>
</g>
<!-- Node9 -->
<g id="node9" class="node">
<title>Node9</title>
<g id="a_node9"><a xlink:title=" ">
<polygon fill="white" stroke="#bfbfbf" points="2367,-134.5 2367,-153.5 2482,-153.5 2482,-134.5 2367,-134.5"/>
<text text-anchor="middle" x="2424.5" y="-141.5" font-family="Helvetica,sans-Serif" font-size="10.00">Poco/AtomicCounter.h</text>
</a>
</g>
</g>
<!-- Node4&#45;&gt;Node9 -->
<g id="edge8" class="edge">
<title>Node4&#45;&gt;Node9</title>
<path fill="none" stroke="midnightblue" d="M2329.74,-206.86C2347.88,-195.02 2380.68,-173.6 2402.53,-159.34"/>
<polygon fill="midnightblue" stroke="midnightblue" points="2404.69,-162.11 2411.15,-153.72 2400.86,-156.25 2404.69,-162.11"/>
</g>
<!-- Node10 -->
<g id="node10" class="node">
<title>Node10</title>
<g id="a_node10"><a xlink:href="_c_p_u_sheduler_8h.html" target="_top" xlink:title=" ">
<polygon fill="white" stroke="black" points="2500,-134.5 2500,-153.5 2605,-153.5 2605,-134.5 2500,-134.5"/>
<text text-anchor="middle" x="2552.5" y="-141.5" font-family="Helvetica,sans-Serif" font-size="10.00">task/CPUSheduler.h</text>
</a>
</g>
</g>
<!-- Node4&#45;&gt;Node10 -->
<g id="edge9" class="edge">
<title>Node4&#45;&gt;Node10</title>
<path fill="none" stroke="midnightblue" d="M2346.78,-206.91C2389.25,-194.82 2464.38,-173.36 2491.5,-165 2499.92,-162.41 2508.96,-159.51 2517.43,-156.74"/>
<polygon fill="midnightblue" stroke="midnightblue" points="2518.64,-160.02 2527.04,-153.57 2516.45,-153.38 2518.64,-160.02"/>
</g>
<!-- Node11 -->
<g id="node11" class="node">
<title>Node11</title>
<g id="a_node11"><a xlink:title=" ">
<polygon fill="white" stroke="#bfbfbf" points="1756.5,-129 1756.5,-159 1860.5,-159 1860.5,-129 1756.5,-129"/>
<text text-anchor="start" x="1764.5" y="-147" font-family="Helvetica,sans-Serif" font-size="10.00">gradido_blockchain</text>
<text text-anchor="middle" x="1808.5" y="-136" font-family="Helvetica,sans-Serif" font-size="10.00">/http/JsonRequest.h</text>
</a>
</g>
</g>
<!-- Node4&#45;&gt;Node11 -->
<g id="edge10" class="edge">
<title>Node4&#45;&gt;Node11</title>
<path fill="none" stroke="midnightblue" d="M2273.81,-213.58C2193.73,-209.34 2015.82,-196.9 1869.5,-165 1865.4,-164.11 1861.18,-163.04 1856.97,-161.88"/>
<polygon fill="midnightblue" stroke="midnightblue" points="1857.8,-158.47 1847.22,-159.01 1855.83,-165.19 1857.8,-158.47"/>
</g>
<!-- Node12 -->
<g id="node12" class="node">
<title>Node12</title>
<g id="a_node12"><a xlink:href="controller_2_group_index_8h.html" target="_top" xlink:title=" ">
<polygon fill="white" stroke="black" points="1148,-134.5 1148,-153.5 1265,-153.5 1265,-134.5 1148,-134.5"/>
<text text-anchor="middle" x="1206.5" y="-141.5" font-family="Helvetica,sans-Serif" font-size="10.00">controller/GroupIndex.h</text>
</a>
</g>
</g>
<!-- Node4&#45;&gt;Node12 -->
<g id="edge11" class="edge">
<title>Node4&#45;&gt;Node12</title>
<path fill="none" stroke="midnightblue" d="M2273.88,-214.78C2103.58,-211.71 1471.62,-198.28 1274.5,-165 1263.07,-163.07 1250.85,-159.85 1239.97,-156.56"/>
<polygon fill="midnightblue" stroke="midnightblue" points="1241,-153.21 1230.41,-153.55 1238.89,-159.89 1241,-153.21"/>
</g>
<!-- Node13 -->
<g id="node13" class="node">
<title>Node13</title>
<g id="a_node13"><a xlink:href="model_2files_2_group_index_8h.html" target="_top" xlink:title=" ">
<polygon fill="white" stroke="black" points="1078,-62 1078,-81 1211,-81 1211,-62 1078,-62"/>
<text text-anchor="middle" x="1144.5" y="-69" font-family="Helvetica,sans-Serif" font-size="10.00">../model/files/GroupIndex.h</text>
</a>
</g>
</g>
<!-- Node12&#45;&gt;Node13 -->
<g id="edge12" class="edge">
<title>Node12&#45;&gt;Node13</title>
<path fill="none" stroke="midnightblue" d="M1198.9,-134.36C1188.95,-123.04 1171.32,-103 1158.83,-88.79"/>
<polygon fill="midnightblue" stroke="midnightblue" points="1161.4,-86.41 1152.16,-81.22 1156.14,-91.04 1161.4,-86.41"/>
</g>
<!-- Node14 -->
<g id="node14" class="node">
<title>Node14</title>
<g id="a_node14"><a xlink:title=" ">
<polygon fill="white" stroke="#bfbfbf" points="1229.5,-56.5 1229.5,-86.5 1329.5,-86.5 1329.5,-56.5 1229.5,-56.5"/>
<text text-anchor="start" x="1237.5" y="-74.5" font-family="Helvetica,sans-Serif" font-size="10.00">gradido_blockchain</text>
<text text-anchor="middle" x="1279.5" y="-63.5" font-family="Helvetica,sans-Serif" font-size="10.00">/lib/DRHashList.h</text>
</a>
</g>
</g>
<!-- Node12&#45;&gt;Node14 -->
<g id="edge14" class="edge">
<title>Node12&#45;&gt;Node14</title>
<path fill="none" stroke="midnightblue" d="M1215.45,-134.36C1225.86,-124.3 1243.41,-107.35 1257.51,-93.73"/>
<polygon fill="midnightblue" stroke="midnightblue" points="1260.16,-96.04 1264.92,-86.58 1255.3,-91.01 1260.16,-96.04"/>
</g>
<!-- Node12&#45;&gt;Node15 -->
<g id="edge15" class="edge">
<title>Node12&#45;&gt;Node15</title>
<path fill="none" stroke="midnightblue" d="M1150.52,-134.46C1123.9,-130.59 1091.6,-126.19 1062.5,-123 863.93,-101.25 813.59,-103.25 614.5,-87 570.53,-83.41 520.35,-79.25 485.03,-76.3"/>
<polygon fill="midnightblue" stroke="midnightblue" points="485.28,-72.81 475.03,-75.47 484.7,-79.79 485.28,-72.81"/>
</g>
<!-- Node16 -->
<g id="node16" class="node">
<title>Node16</title>
<g id="a_node16"><a xlink:href="_controller_base_8h.html" target="_top" xlink:title=" ">
<polygon fill="white" stroke="black" points="870,-62 870,-81 959,-81 959,-62 870,-62"/>
<text text-anchor="middle" x="914.5" y="-69" font-family="Helvetica,sans-Serif" font-size="10.00">ControllerBase.h</text>
</a>
</g>
</g>
<!-- Node12&#45;&gt;Node16 -->
<g id="edge16" class="edge">
<title>Node12&#45;&gt;Node16</title>
<path fill="none" stroke="midnightblue" d="M1168.49,-134.44C1121.43,-123.76 1038.89,-104.73 968.5,-87 964.2,-85.92 959.72,-84.76 955.25,-83.59"/>
<polygon fill="midnightblue" stroke="midnightblue" points="956.14,-80.2 945.58,-81.02 954.35,-86.97 956.14,-80.2"/>
</g>
<!-- Node18 -->
<g id="node18" class="node">
<title>Node18</title>
<g id="a_node18"><a xlink:title=" ">
<polygon fill="white" stroke="#bfbfbf" points="977,-62 977,-81 1060,-81 1060,-62 977,-62"/>
<text text-anchor="middle" x="1018.5" y="-69" font-family="Helvetica,sans-Serif" font-size="10.00">unordered_map</text>
</a>
</g>
</g>
<!-- Node12&#45;&gt;Node18 -->
<g id="edge18" class="edge">
<title>Node12&#45;&gt;Node18</title>
<path fill="none" stroke="midnightblue" d="M1183.82,-134.5C1150.65,-122.06 1088.74,-98.84 1050.81,-84.62"/>
<polygon fill="midnightblue" stroke="midnightblue" points="1051.85,-81.27 1041.26,-81.03 1049.39,-87.82 1051.85,-81.27"/>
</g>
<!-- Node13&#45;&gt;Node5 -->
<g id="edge13" class="edge">
<title>Node13&#45;&gt;Node5</title>
<path fill="none" stroke="midnightblue" d="M1183.78,-61.93C1195.54,-59.66 1208.5,-57.44 1220.5,-56 1516.6,-20.54 1870.62,-12.93 2033.04,-11.36"/>
<polygon fill="midnightblue" stroke="midnightblue" points="2033.5,-14.86 2043.46,-11.27 2033.43,-7.86 2033.5,-14.86"/>
</g>
<!-- Node17 -->
<g id="node17" class="node">
<title>Node17</title>
<g id="a_node17"><a xlink:title=" ">
<polygon fill="white" stroke="#bfbfbf" points="1319,-0.5 1319,-19.5 1396,-19.5 1396,-0.5 1319,-0.5"/>
<text text-anchor="middle" x="1357.5" y="-7.5" font-family="Helvetica,sans-Serif" font-size="10.00">Poco/Mutex.h</text>
</a>
</g>
</g>
<!-- Node16&#45;&gt;Node17 -->
<g id="edge17" class="edge">
<title>Node16&#45;&gt;Node17</title>
<path fill="none" stroke="midnightblue" d="M943.18,-61.96C951.31,-59.77 960.2,-57.58 968.5,-56 1089.59,-32.87 1234.31,-19.93 1308.43,-14.35"/>
<polygon fill="midnightblue" stroke="midnightblue" points="1309.13,-17.81 1318.84,-13.58 1308.61,-10.83 1309.13,-17.81"/>
</g>
<!-- Node19&#45;&gt;Node7 -->
<g id="edge22" class="edge">
<title>Node19&#45;&gt;Node7</title>
<path fill="none" stroke="midnightblue" d="M2499.4,-268.21C2510.99,-250.55 2532.71,-220.44 2557.5,-201 2586.59,-178.18 2612.81,-196.29 2632.5,-165 2647.59,-141.02 2630.29,-108.58 2616.68,-89.18"/>
<polygon fill="midnightblue" stroke="midnightblue" points="2619.4,-86.97 2610.63,-81.02 2613.78,-91.14 2619.4,-86.97"/>
</g>
<!-- Node20 -->
<g id="node20" class="node">
<title>Node20</title>
<g id="a_node20"><a xlink:title=" ">
<polygon fill="white" stroke="#bfbfbf" points="2566,-201.5 2566,-231.5 2719,-231.5 2719,-201.5 2566,-201.5"/>
<text text-anchor="start" x="2574" y="-219.5" font-family="Helvetica,sans-Serif" font-size="10.00">Poco/Net/HTTPRequestHandler</text>
<text text-anchor="middle" x="2642.5" y="-208.5" font-family="Helvetica,sans-Serif" font-size="10.00">Factory.h</text>
</a>
</g>
</g>
<!-- Node19&#45;&gt;Node20 -->
<g id="edge20" class="edge">
<title>Node19&#45;&gt;Node20</title>
<path fill="none" stroke="midnightblue" d="M2523.48,-268.4C2545.99,-258.77 2576,-245.94 2600.26,-235.56"/>
<polygon fill="midnightblue" stroke="midnightblue" points="2601.76,-238.73 2609.58,-231.58 2599.01,-232.29 2601.76,-238.73"/>
</g>
<!-- Node21 -->
<g id="node21" class="node">
<title>Node21</title>
<g id="a_node21"><a xlink:title=" ">
<polygon fill="white" stroke="#bfbfbf" points="2377.5,-207 2377.5,-226 2509.5,-226 2509.5,-207 2377.5,-207"/>
<text text-anchor="middle" x="2443.5" y="-214" font-family="Helvetica,sans-Serif" font-size="10.00">Poco/RegularExpression.h</text>
</a>
</g>
</g>
<!-- Node19&#45;&gt;Node21 -->
<g id="edge21" class="edge">
<title>Node19&#45;&gt;Node21</title>
<path fill="none" stroke="midnightblue" d="M2480.3,-268.4C2473.12,-258.46 2463.46,-245.11 2455.84,-234.57"/>
<polygon fill="midnightblue" stroke="midnightblue" points="2458.48,-232.25 2449.79,-226.19 2452.81,-236.35 2458.48,-232.25"/>
</g>
<!-- Node35&#45;&gt;Node5 -->
<g id="edge68" class="edge">
<title>Node35&#45;&gt;Node5</title>
<path fill="none" stroke="midnightblue" d="M1291.8,-277.42C1505.09,-263.89 2048.51,-223.92 2103.5,-165 2138.19,-127.83 2132.06,-61.75 2126.44,-29.6"/>
<polygon fill="midnightblue" stroke="midnightblue" points="2129.87,-28.91 2124.54,-19.75 2122.99,-30.23 2129.87,-28.91"/>
</g>
<!-- Node35&#45;&gt;Node12 -->
<g id="edge39" class="edge">
<title>Node35&#45;&gt;Node12</title>
<path fill="none" stroke="midnightblue" d="M1206.5,-273.9C1206.5,-252 1206.5,-193.76 1206.5,-163.63"/>
<polygon fill="midnightblue" stroke="midnightblue" points="1210,-163.6 1206.5,-153.6 1203,-163.6 1210,-163.6"/>
</g>
<!-- Node35&#45;&gt;Node17 -->
<g id="edge66" class="edge">
<title>Node35&#45;&gt;Node17</title>
<path fill="none" stroke="midnightblue" d="M1231.36,-273.96C1270.62,-258.97 1345.67,-223.78 1376.5,-165 1399.89,-120.4 1378.98,-58.81 1366,-28.83"/>
<polygon fill="midnightblue" stroke="midnightblue" points="1369.15,-27.29 1361.83,-19.62 1362.77,-30.18 1369.15,-27.29"/>
</g>
<!-- Node35&#45;&gt;Node18 -->
<g id="edge69" class="edge">
<title>Node35&#45;&gt;Node18</title>
<path fill="none" stroke="midnightblue" d="M1198.66,-273.74C1170.06,-241.79 1070.99,-131.13 1033.26,-88.98"/>
<polygon fill="midnightblue" stroke="midnightblue" points="1035.65,-86.41 1026.37,-81.29 1030.43,-91.08 1035.65,-86.41"/>
</g>
<!-- Node36 -->
<g id="node36" class="node">
<title>Node36</title>
<g id="a_node36"><a xlink:href="_group_8h.html" target="_top" xlink:title=" ">
<polygon fill="white" stroke="red" points="803,-207 803,-226 906,-226 906,-207 803,-207"/>
<text text-anchor="middle" x="854.5" y="-214" font-family="Helvetica,sans-Serif" font-size="10.00">../controller/Group.h</text>
</a>
</g>
</g>
<!-- Node35&#45;&gt;Node36 -->
<g id="edge40" class="edge">
<title>Node35&#45;&gt;Node36</title>
<path fill="none" stroke="midnightblue" d="M1160.12,-273.94C1095.8,-262.06 979.64,-240.61 910.54,-227.85"/>
<polygon fill="midnightblue" stroke="midnightblue" points="911.17,-224.41 900.7,-226.03 909.9,-231.29 911.17,-224.41"/>
</g>
<!-- Node38 -->
<g id="node38" class="node">
<title>Node38</title>
<g id="a_node38"><a xlink:title=" ">
<polygon fill="white" stroke="#bfbfbf" points="623,-62 623,-81 762,-81 762,-62 623,-62"/>
<text text-anchor="middle" x="692.5" y="-69" font-family="Helvetica,sans-Serif" font-size="10.00">Poco/AccessExpireCache.h</text>
</a>
</g>
</g>
<!-- Node35&#45;&gt;Node38 -->
<g id="edge67" class="edge">
<title>Node35&#45;&gt;Node38</title>
<path fill="none" stroke="midnightblue" d="M1121.24,-278.61C894.07,-267.39 287.4,-231.41 228.5,-165 216.11,-151.04 216.04,-136.9 228.5,-123 241.16,-108.89 483.37,-88.41 612.68,-78.43"/>
<polygon fill="midnightblue" stroke="midnightblue" points="613.23,-81.89 622.93,-77.64 612.69,-74.92 613.23,-81.89"/>
</g>
<!-- Node36&#45;&gt;Node11 -->
<g id="edge59" class="edge">
<title>Node36&#45;&gt;Node11</title>
<path fill="none" stroke="midnightblue" d="M906.3,-214.97C1039.89,-213.05 1406.84,-204.31 1709.5,-165 1721.45,-163.45 1734.13,-161.29 1746.27,-158.96"/>
<polygon fill="midnightblue" stroke="midnightblue" points="1747.19,-162.34 1756.32,-156.97 1745.83,-155.47 1747.19,-162.34"/>
</g>
<!-- Node36&#45;&gt;Node15 -->
<g id="edge63" class="edge">
<title>Node36&#45;&gt;Node15</title>
<path fill="none" stroke="midnightblue" d="M802.98,-213.37C692.35,-208.27 439.99,-193.59 414.5,-165 395.59,-143.79 413.05,-109.7 426.76,-89.36"/>
<polygon fill="midnightblue" stroke="midnightblue" points="429.71,-91.25 432.65,-81.08 424,-87.2 429.71,-91.25"/>
</g>
<!-- Node36&#45;&gt;Node16 -->
<g id="edge41" class="edge">
<title>Node36&#45;&gt;Node16</title>
<path fill="none" stroke="midnightblue" d="M865.61,-206.75C876.41,-197.57 892.34,-182.13 900.5,-165 911.77,-141.33 914.4,-110.74 914.8,-91.36"/>
<polygon fill="midnightblue" stroke="midnightblue" points="918.3,-91.15 914.82,-81.14 911.3,-91.14 918.3,-91.15"/>
</g>
<!-- Node37 -->
<g id="node37" class="node">
<title>Node37</title>
<g id="a_node37"><a xlink:href="controller_2_address_index_8h.html" target="_top" xlink:title=" ">
<polygon fill="white" stroke="red" points="715.5,-134.5 715.5,-153.5 799.5,-153.5 799.5,-134.5 715.5,-134.5"/>
<text text-anchor="middle" x="757.5" y="-141.5" font-family="Helvetica,sans-Serif" font-size="10.00">AddressIndex.h</text>
</a>
</g>
</g>
<!-- Node36&#45;&gt;Node37 -->
<g id="edge42" class="edge">
<title>Node36&#45;&gt;Node37</title>
<path fill="none" stroke="midnightblue" d="M842.61,-206.86C826.46,-195.12 797.38,-173.98 777.76,-159.72"/>
<polygon fill="midnightblue" stroke="midnightblue" points="779.64,-156.76 769.49,-153.72 775.52,-162.43 779.64,-156.76"/>
</g>
<!-- Node36&#45;&gt;Node38 -->
<g id="edge64" class="edge">
<title>Node36&#45;&gt;Node38</title>
<path fill="none" stroke="midnightblue" d="M802.82,-213.12C695.18,-207.64 454.86,-192.44 430.5,-165 374.59,-102.03 516.77,-81.93 612.87,-75.51"/>
<polygon fill="midnightblue" stroke="midnightblue" points="613.13,-79 622.89,-74.88 612.69,-72.01 613.13,-79"/>
</g>
<!-- Node44 -->
<g id="node39" class="node">
<title>Node44</title>
<g id="a_node39"><a xlink:href="controller_2_block_index_8h.html" target="_top" xlink:title=" ">
<polygon fill="white" stroke="red" points="818,-134.5 818,-153.5 891,-153.5 891,-134.5 818,-134.5"/>
<text text-anchor="middle" x="854.5" y="-141.5" font-family="Helvetica,sans-Serif" font-size="10.00">BlockIndex.h</text>
</a>
</g>
</g>
<!-- Node36&#45;&gt;Node44 -->
<g id="edge47" class="edge">
<title>Node36&#45;&gt;Node44</title>
<path fill="none" stroke="midnightblue" d="M854.5,-206.86C854.5,-196.18 854.5,-177.72 854.5,-163.73"/>
<polygon fill="midnightblue" stroke="midnightblue" points="858,-163.72 854.5,-153.72 851,-163.72 858,-163.72"/>
</g>
<!-- Node52 -->
<g id="node41" class="node">
<title>Node52</title>
<g id="a_node41"><a xlink:href="_task_observer_8h.html" target="_top" xlink:title=" ">
<polygon fill="white" stroke="red" points="1283.5,-134.5 1283.5,-153.5 1367.5,-153.5 1367.5,-134.5 1283.5,-134.5"/>
<text text-anchor="middle" x="1325.5" y="-141.5" font-family="Helvetica,sans-Serif" font-size="10.00">TaskObserver.h</text>
</a>
</g>
</g>
<!-- Node36&#45;&gt;Node52 -->
<g id="edge51" class="edge">
<title>Node36&#45;&gt;Node52</title>
<path fill="none" stroke="midnightblue" d="M906.01,-213.51C985.98,-209.49 1144.35,-197.78 1274.5,-165 1282.11,-163.08 1290.11,-160.33 1297.46,-157.47"/>
<polygon fill="midnightblue" stroke="midnightblue" points="1299.05,-160.6 1306.98,-153.58 1296.4,-154.12 1299.05,-160.6"/>
</g>
<!-- Node56 -->
<g id="node42" class="node">
<title>Node56</title>
<g id="a_node42"><a xlink:title=" ">
<polygon fill="white" stroke="#bfbfbf" points="439.5,-123.5 439.5,-164.5 559.5,-164.5 559.5,-123.5 439.5,-123.5"/>
<text text-anchor="start" x="447.5" y="-152.5" font-family="Helvetica,sans-Serif" font-size="10.00">gradido_blockchain</text>
<text text-anchor="start" x="447.5" y="-141.5" font-family="Helvetica,sans-Serif" font-size="10.00">/model/protobufWrapper</text>
<text text-anchor="middle" x="499.5" y="-130.5" font-family="Helvetica,sans-Serif" font-size="10.00">/GradidoBlock.h</text>
</a>
</g>
</g>
<!-- Node36&#45;&gt;Node56 -->
<g id="edge55" class="edge">
<title>Node36&#45;&gt;Node56</title>
<path fill="none" stroke="midnightblue" d="M802.76,-208.07C747.29,-199.73 656.51,-184.98 569.39,-165.09"/>
<polygon fill="midnightblue" stroke="midnightblue" points="570.14,-161.68 559.61,-162.84 568.57,-168.5 570.14,-161.68"/>
</g>
<!-- Node57 -->
<g id="node43" class="node">
<title>Node57</title>
<g id="a_node43"><a xlink:title=" ">
<polygon fill="white" stroke="#bfbfbf" points="577.5,-123.5 577.5,-164.5 697.5,-164.5 697.5,-123.5 577.5,-123.5"/>
<text text-anchor="start" x="585.5" y="-152.5" font-family="Helvetica,sans-Serif" font-size="10.00">gradido_blockchain</text>
<text text-anchor="start" x="585.5" y="-141.5" font-family="Helvetica,sans-Serif" font-size="10.00">/model/protobufWrapper</text>
<text text-anchor="middle" x="637.5" y="-130.5" font-family="Helvetica,sans-Serif" font-size="10.00">/GradidoTransaction.h</text>
</a>
</g>
</g>
<!-- Node36&#45;&gt;Node57 -->
<g id="edge56" class="edge">
<title>Node36&#45;&gt;Node57</title>
<path fill="none" stroke="midnightblue" d="M828.32,-207C798.58,-197.33 748.82,-181.17 707.57,-167.76"/>
<polygon fill="midnightblue" stroke="midnightblue" points="708.42,-164.36 697.82,-164.6 706.25,-171.02 708.42,-164.36"/>
</g>
<!-- Node58 -->
<g id="node44" class="node">
<title>Node58</title>
<g id="a_node44"><a xlink:href="_state_8h.html" target="_top" xlink:title=" ">
<polygon fill="white" stroke="red" points="238,-134.5 238,-153.5 345,-153.5 345,-134.5 238,-134.5"/>
<text text-anchor="middle" x="291.5" y="-141.5" font-family="Helvetica,sans-Serif" font-size="10.00">../model/files/State.h</text>
</a>
</g>
</g>
<!-- Node36&#45;&gt;Node58 -->
<g id="edge57" class="edge">
<title>Node36&#45;&gt;Node58</title>
<path fill="none" stroke="midnightblue" d="M802.73,-213.36C712.14,-208.92 519.28,-196.37 359.5,-165 348.52,-162.84 336.76,-159.7 326.16,-156.53"/>
<polygon fill="midnightblue" stroke="midnightblue" points="327,-153.13 316.41,-153.53 324.94,-159.82 327,-153.13"/>
</g>
<!-- Node60 -->
<g id="node45" class="node">
<title>Node60</title>
<g id="a_node45"><a xlink:href="_message_listener_8h.html" target="_top" xlink:title=" ">
<polygon fill="white" stroke="red" points="1573,-134.5 1573,-153.5 1700,-153.5 1700,-134.5 1573,-134.5"/>
<text text-anchor="middle" x="1636.5" y="-141.5" font-family="Helvetica,sans-Serif" font-size="10.00">../iota/MessageListener.h</text>
</a>
</g>
</g>
<!-- Node36&#45;&gt;Node60 -->
<g id="edge60" class="edge">
<title>Node36&#45;&gt;Node60</title>
<path fill="none" stroke="midnightblue" d="M906.16,-215.35C1023.86,-214.24 1320.65,-207.1 1564.5,-165 1576.46,-162.93 1589.3,-159.71 1600.78,-156.44"/>
<polygon fill="midnightblue" stroke="midnightblue" points="1601.85,-159.77 1610.46,-153.59 1599.87,-153.06 1601.85,-159.77"/>
</g>
<!-- Node65 -->
<g id="node46" class="node">
<title>Node65</title>
<g id="a_node46"><a xlink:title=" ">
<polygon fill="white" stroke="#bfbfbf" points="947.5,-134.5 947.5,-153.5 1053.5,-153.5 1053.5,-134.5 947.5,-134.5"/>
<text text-anchor="middle" x="1000.5" y="-141.5" font-family="Helvetica,sans-Serif" font-size="10.00">Poco/ExpireCache.h</text>
</a>
</g>
</g>
<!-- Node36&#45;&gt;Node65 -->
<g id="edge65" class="edge">
<title>Node36&#45;&gt;Node65</title>
<path fill="none" stroke="midnightblue" d="M872.11,-207C897.32,-194.82 943.92,-172.32 973.5,-158.04"/>
<polygon fill="midnightblue" stroke="midnightblue" points="975.34,-161.03 982.83,-153.53 972.3,-154.73 975.34,-161.03"/>
</g>
<!-- Node37&#45;&gt;Node15 -->
<g id="edge45" class="edge">
<title>Node37&#45;&gt;Node15</title>
<path fill="none" stroke="midnightblue" d="M737.94,-134.34C728.57,-130.44 717.1,-126.05 706.5,-123 630.42,-101.1 539.35,-86.21 485.64,-78.55"/>
<polygon fill="midnightblue" stroke="midnightblue" points="485.8,-75.04 475.41,-77.12 484.83,-81.97 485.8,-75.04"/>
</g>
<!-- Node37&#45;&gt;Node16 -->
<g id="edge43" class="edge">
<title>Node37&#45;&gt;Node16</title>
<path fill="none" stroke="midnightblue" d="M776.44,-134.5C803.78,-122.22 854.53,-99.43 886.29,-85.17"/>
<polygon fill="midnightblue" stroke="midnightblue" points="887.81,-88.32 895.49,-81.03 884.94,-81.94 887.81,-88.32"/>
</g>
<!-- Node37&#45;&gt;Node18 -->
<g id="edge44" class="edge">
<title>Node37&#45;&gt;Node18</title>
<path fill="none" stroke="midnightblue" d="M778.01,-134.32C787.48,-130.52 798.95,-126.21 809.5,-123 878.83,-101.94 898.34,-105.1 968.5,-87 972.38,-86 976.41,-84.91 980.43,-83.8"/>
<polygon fill="midnightblue" stroke="midnightblue" points="981.62,-87.1 990.29,-81 979.71,-80.36 981.62,-87.1"/>
</g>
<!-- Node37&#45;&gt;Node38 -->
<g id="edge46" class="edge">
<title>Node37&#45;&gt;Node38</title>
<path fill="none" stroke="midnightblue" d="M749.53,-134.36C739.1,-123.04 720.62,-103 707.52,-88.79"/>
<polygon fill="midnightblue" stroke="midnightblue" points="709.89,-86.19 700.54,-81.22 704.74,-90.94 709.89,-86.19"/>
</g>
<!-- Node44&#45;&gt;Node15 -->
<g id="edge50" class="edge">
<title>Node44&#45;&gt;Node15</title>
<path fill="none" stroke="midnightblue" d="M837.87,-134.45C829.3,-130.39 818.56,-125.82 808.5,-123 748.58,-106.22 570.18,-86.12 485.32,-77.19"/>
<polygon fill="midnightblue" stroke="midnightblue" points="485.52,-73.69 475.21,-76.13 484.79,-80.65 485.52,-73.69"/>
</g>
<!-- Node44&#45;&gt;Node16 -->
<g id="edge48" class="edge">
<title>Node44&#45;&gt;Node16</title>
<path fill="none" stroke="midnightblue" d="M861.86,-134.36C871.39,-123.15 888.23,-103.37 900.29,-89.19"/>
<polygon fill="midnightblue" stroke="midnightblue" points="903.27,-91.1 907.08,-81.22 897.94,-86.56 903.27,-91.1"/>
</g>
<!-- Node43 -->
<g id="node40" class="node">
<title>Node43</title>
<g id="a_node40"><a xlink:title=" ">
<polygon fill="white" stroke="#bfbfbf" points="1472,-62 1472,-81 1507,-81 1507,-62 1472,-62"/>
<text text-anchor="middle" x="1489.5" y="-69" font-family="Helvetica,sans-Serif" font-size="10.00">map</text>
</a>
</g>
</g>
<!-- Node44&#45;&gt;Node43 -->
<g id="edge49" class="edge">
<title>Node44&#45;&gt;Node43</title>
<path fill="none" stroke="midnightblue" d="M885.8,-134.42C901.5,-130.4 920.89,-125.87 938.5,-123 1114.67,-94.25 1160.77,-103.53 1338.5,-87 1381.47,-83 1431.3,-78.18 1461.6,-75.23"/>
<polygon fill="midnightblue" stroke="midnightblue" points="1462.22,-78.69 1471.84,-74.23 1461.54,-71.72 1462.22,-78.69"/>
</g>
<!-- Node52&#45;&gt;Node14 -->
<g id="edge53" class="edge">
<title>Node52&#45;&gt;Node14</title>
<path fill="none" stroke="midnightblue" d="M1319.86,-134.36C1313.54,-124.68 1303.05,-108.6 1294.35,-95.26"/>
<polygon fill="midnightblue" stroke="midnightblue" points="1297.08,-93.04 1288.68,-86.58 1291.22,-96.86 1297.08,-93.04"/>
</g>
<!-- Node52&#45;&gt;Node17 -->
<g id="edge52" class="edge">
<title>Node52&#45;&gt;Node17</title>
<path fill="none" stroke="midnightblue" d="M1327.6,-134.34C1332.73,-113.17 1346,-58.45 1353.01,-29.53"/>
<polygon fill="midnightblue" stroke="midnightblue" points="1356.48,-30.06 1355.43,-19.52 1349.68,-28.42 1356.48,-30.06"/>
</g>
<!-- Node52&#45;&gt;Node43 -->
<g id="edge54" class="edge">
<title>Node52&#45;&gt;Node43</title>
<path fill="none" stroke="midnightblue" d="M1345.28,-134.5C1374.47,-121.95 1429.16,-98.44 1462.16,-84.25"/>
<polygon fill="midnightblue" stroke="midnightblue" points="1463.85,-87.34 1471.65,-80.17 1461.08,-80.91 1463.85,-87.34"/>
</g>
<!-- Node58&#45;&gt;Node15 -->
<g id="edge58" class="edge">
<title>Node58&#45;&gt;Node15</title>
<path fill="none" stroke="midnightblue" d="M309.35,-134.5C335.02,-122.27 382.55,-99.63 412.52,-85.35"/>
<polygon fill="midnightblue" stroke="midnightblue" points="414.06,-88.49 421.58,-81.03 411.05,-82.17 414.06,-88.49"/>
</g>
<!-- Node60&#45;&gt;Node7 -->
<g id="edge61" class="edge">
<title>Node60&#45;&gt;Node7</title>
<path fill="none" stroke="midnightblue" d="M1677.18,-134.47C1698.1,-130.39 1724.07,-125.79 1747.5,-123 2051.9,-86.73 2420.46,-76.13 2553,-73.38"/>
<polygon fill="midnightblue" stroke="midnightblue" points="2553.31,-76.87 2563.24,-73.17 2553.17,-69.87 2553.31,-76.87"/>
</g>
<!-- Node60&#45;&gt;Node43 -->
<g id="edge62" class="edge">
<title>Node60&#45;&gt;Node43</title>
<path fill="none" stroke="midnightblue" d="M1618.77,-134.5C1593.38,-122.32 1546.47,-99.82 1516.68,-85.54"/>
<polygon fill="midnightblue" stroke="midnightblue" points="1517.82,-82.2 1507.29,-81.03 1514.8,-88.51 1517.82,-82.2"/>
</g>
<!-- Node67&#45;&gt;Node38 -->
<g id="edge80" class="edge">
<title>Node67&#45;&gt;Node38</title>
<path fill="none" stroke="midnightblue" d="M1615.42,-212.65C1490.46,-206.78 1226.78,-191.62 1139.5,-165 1102.21,-153.63 1099.53,-135.17 1062.5,-123 1010.18,-105.81 864.37,-89.19 772.18,-79.96"/>
<polygon fill="midnightblue" stroke="midnightblue" points="772.34,-76.46 762.05,-78.96 771.65,-83.43 772.34,-76.46"/>
</g>
<!-- Node67&#45;&gt;Node43 -->
<g id="edge78" class="edge">
<title>Node67&#45;&gt;Node43</title>
<path fill="none" stroke="midnightblue" d="M1693.66,-201.46C1707.75,-181.91 1728.05,-146.29 1709.5,-123 1685.75,-93.18 1570.99,-79.51 1517.3,-74.67"/>
<polygon fill="midnightblue" stroke="midnightblue" points="1517.39,-71.17 1507.12,-73.8 1516.79,-78.14 1517.39,-71.17"/>
</g>
<!-- Node67&#45;&gt;Node60 -->
<g id="edge76" class="edge">
<title>Node67&#45;&gt;Node60</title>
<path fill="none" stroke="midnightblue" d="M1673.19,-201.23C1665.9,-190.06 1655.72,-174.46 1647.93,-162.52"/>
<polygon fill="midnightblue" stroke="midnightblue" points="1650.7,-160.36 1642.3,-153.89 1644.84,-164.18 1650.7,-160.36"/>
</g>
<!-- Node67&#45;&gt;Node65 -->
<g id="edge79" class="edge">
<title>Node67&#45;&gt;Node65</title>
<path fill="none" stroke="midnightblue" d="M1615.46,-214.55C1501.78,-211.92 1264.38,-202.05 1067.5,-165 1056.56,-162.94 1044.86,-159.79 1034.35,-156.6"/>
<polygon fill="midnightblue" stroke="midnightblue" points="1035.29,-153.22 1024.7,-153.55 1033.19,-159.9 1035.29,-153.22"/>
</g>
<!-- Node68 -->
<g id="node48" class="node">
<title>Node68</title>
<g id="a_node48"><a xlink:title=" ">
<polygon fill="white" stroke="#bfbfbf" points="1878.5,-129 1878.5,-159 1990.5,-159 1990.5,-129 1878.5,-129"/>
<text text-anchor="start" x="1886.5" y="-147" font-family="Helvetica,sans-Serif" font-size="10.00">../model/transactions</text>
<text text-anchor="middle" x="1934.5" y="-136" font-family="Helvetica,sans-Serif" font-size="10.00">/GradidoTransaction.h</text>
</a>
</g>
</g>
<!-- Node67&#45;&gt;Node68 -->
<g id="edge71" class="edge">
<title>Node67&#45;&gt;Node68</title>
<path fill="none" stroke="midnightblue" d="M1736.65,-201.41C1774.06,-191.54 1824.91,-177.88 1869.5,-165 1872.83,-164.04 1876.26,-163.03 1879.71,-162.01"/>
<polygon fill="midnightblue" stroke="midnightblue" points="1880.88,-165.31 1889.45,-159.08 1878.87,-158.6 1880.88,-165.31"/>
</g>
<!-- Node69 -->
<g id="node49" class="node">
<title>Node69</title>
<g id="a_node49"><a xlink:href="_message_validator_8h.html" target="_top" xlink:title=" ">
<polygon fill="white" stroke="red" points="1424,-134.5 1424,-153.5 1555,-153.5 1555,-134.5 1424,-134.5"/>
<text text-anchor="middle" x="1489.5" y="-141.5" font-family="Helvetica,sans-Serif" font-size="10.00">../iota/MessageValidator.h</text>
</a>
</g>
</g>
<!-- Node67&#45;&gt;Node69 -->
<g id="edge72" class="edge">
<title>Node67&#45;&gt;Node69</title>
<path fill="none" stroke="midnightblue" d="M1643.91,-201.4C1608.42,-188.44 1556.34,-169.42 1522.68,-157.12"/>
<polygon fill="midnightblue" stroke="midnightblue" points="1523.46,-153.68 1512.86,-153.53 1521.05,-160.25 1523.46,-153.68"/>
</g>
<!-- Node74 -->
<g id="node50" class="node">
<title>Node74</title>
<g id="a_node50"><a xlink:href="_thread_8h.html" target="_top" xlink:title=" ">
<polygon fill="white" stroke="black" points="2009,-134.5 2009,-153.5 2094,-153.5 2094,-134.5 2009,-134.5"/>
<text text-anchor="middle" x="2051.5" y="-141.5" font-family="Helvetica,sans-Serif" font-size="10.00">../task/Thread.h</text>
</a>
</g>
</g>
<!-- Node67&#45;&gt;Node74 -->
<g id="edge77" class="edge">
<title>Node67&#45;&gt;Node74</title>
<path fill="none" stroke="midnightblue" d="M1749.53,-208.94C1814.28,-201.65 1914.74,-187.78 1999.5,-165 2007.16,-162.94 2015.26,-160.15 2022.72,-157.3"/>
<polygon fill="midnightblue" stroke="midnightblue" points="2024.07,-160.53 2032.07,-153.59 2021.48,-154.02 2024.07,-160.53"/>
</g>
<!-- Node69&#45;&gt;Node7 -->
<g id="edge73" class="edge">
<title>Node69&#45;&gt;Node7</title>
<path fill="none" stroke="midnightblue" d="M1515.93,-134.48C1530.17,-130.27 1548.12,-125.55 1564.5,-123 1758.58,-92.76 2373.01,-77.45 2553.3,-73.53"/>
<polygon fill="midnightblue" stroke="midnightblue" points="2553.39,-77.03 2563.31,-73.31 2553.23,-70.03 2553.39,-77.03"/>
</g>
<!-- Node69&#45;&gt;Node18 -->
<g id="edge74" class="edge">
<title>Node69&#45;&gt;Node18</title>
<path fill="none" stroke="midnightblue" d="M1444.78,-134.46C1424.05,-130.67 1399.07,-126.32 1376.5,-123 1240.58,-103.02 1204.23,-113.87 1069.5,-87 1064.96,-86.09 1060.23,-84.98 1055.57,-83.79"/>
<polygon fill="midnightblue" stroke="midnightblue" points="1056.13,-80.31 1045.56,-81.07 1054.3,-87.07 1056.13,-80.31"/>
</g>
<!-- Node69&#45;&gt;Node43 -->
<g id="edge75" class="edge">
<title>Node69&#45;&gt;Node43</title>
<path fill="none" stroke="midnightblue" d="M1489.5,-134.36C1489.5,-123.68 1489.5,-105.22 1489.5,-91.23"/>
<polygon fill="midnightblue" stroke="midnightblue" points="1493,-91.22 1489.5,-81.22 1486,-91.22 1493,-91.22"/>
</g>
</g>
</svg>
