<?xml version="1.0" encoding="UTF-8" standalone="no"?>
<!DOCTYPE svg PUBLIC "-//W3C//DTD SVG 1.1//EN"
 "http://www.w3.org/Graphics/SVG/1.1/DTD/svg11.dtd">
<!-- Generated by graphviz version 2.50.0 (20211204.2007)
 -->
<!-- Title: src/iota/MessageListener.cpp Pages: 1 -->
<!--zoomable 296 -->
<svg id="main" version="1.1" xmlns="http://www.w3.org/2000/svg" xmlns:xlink="http://www.w3.org/1999/xlink" xml:space="preserve" onload="init(evt)">
<style type="text/css"><![CDATA[
.edge:hover path { stroke: red; }
.edge:hover polygon { stroke: red; fill: red; }
]]></style>
<script type="text/javascript"><![CDATA[
var edges = document.getElementsByTagName('g');
if (edges && edges.length) {
  for (var i=0;i<edges.length;i++) {
    if (edges[i].id.substr(0,4)=='edge') {
      edges[i].setAttribute('class','edge');
    }
  }
}
]]></script>
        <defs>
                <circle id="rim" cx="0" cy="0" r="7"/>
                <circle id="rim2" cx="0" cy="0" r="3.5"/>
                <g id="zoomPlus">
                        <use xlink:href="#rim" fill="#404040">
                                <set attributeName="fill" to="#808080" begin="zoomplus.mouseover" end="zoomplus.mouseout"/>
                        </use>
                        <path d="M-4,0h8M0,-4v8" fill="none" stroke="white" stroke-width="1.5" pointer-events="none"/>
                </g>
                <g id="zoomMin">
                        <use xlink:href="#rim" fill="#404040">
                                <set attributeName="fill" to="#808080" begin="zoomminus.mouseover" end="zoomminus.mouseout"/>
                        </use>
                        <path d="M-4,0h8" fill="none" stroke="white" stroke-width="1.5" pointer-events="none"/>
                </g>
                <g id="dirArrow">
                        <path fill="none" stroke="white" stroke-width="1.5" d="M0,-3.0v7 M-2.5,-0.5L0,-3.0L2.5,-0.5"/>
                </g>
               <g id="resetDef">
                       <use xlink:href="#rim2" fill="#404040">
                               <set attributeName="fill" to="#808080" begin="reset.mouseover" end="reset.mouseout"/>
                       </use>
               </g>
        </defs>

<script type="text/javascript">
var viewWidth = 1186;
var viewHeight = 296;
var sectionId = 'dynsection-0';
</script>
<script xlink:href="svgpan.js"/>
<svg id="graph" class="graph">
<g id="viewport">
<title>src/iota/MessageListener.cpp</title>
<polygon fill="white" stroke="transparent" points="-4,4 -4,-292 1181.5,-292 1181.5,4 -4,4"/>
<!-- Node1 -->
<g id="node1" class="node">
<title>Node1</title>
<g id="a_node1"><a xlink:title=" ">
<polygon fill="#bfbfbf" stroke="black" points="318.5,-268.5 318.5,-287.5 463.5,-287.5 463.5,-268.5 318.5,-268.5"/>
<text text-anchor="middle" x="391" y="-275.5" font-family="Helvetica,sans-Serif" font-size="10.00">src/iota/MessageListener.cpp</text>
</a>
</g>
</g>
<!-- Node2 -->
<g id="node2" class="node">
<title>Node2</title>
<g id="a_node2"><a xlink:href="_message_listener_8h.html" target="_top" xlink:title=" ">
<polygon fill="white" stroke="black" points="159.5,-140 159.5,-159 258.5,-159 258.5,-140 159.5,-140"/>
<text text-anchor="middle" x="209" y="-147" font-family="Helvetica,sans-Serif" font-size="10.00">MessageListener.h</text>
</a>
</g>
</g>
<!-- Node1&#45;&gt;Node2 -->
<g id="edge1" class="edge">
<title>Node1&#45;&gt;Node2</title>
<path fill="none" stroke="midnightblue" d="M378.49,-268.31C347.71,-246.91 268.03,-191.53 229.92,-165.04"/>
<polygon fill="midnightblue" stroke="midnightblue" points="231.81,-162.09 221.6,-159.26 227.81,-167.84 231.81,-162.09"/>
</g>
<!-- Node11 -->
<g id="node11" class="node">
<title>Node11</title>
<g id="a_node11"><a xlink:href="_ordering_manager_8h.html" target="_top" xlink:title=" ">
<polygon fill="white" stroke="black" points="451,-201.5 451,-231.5 555,-231.5 555,-201.5 451,-201.5"/>
<text text-anchor="start" x="459" y="-219.5" font-family="Helvetica,sans-Serif" font-size="10.00">../SingletonManager</text>
<text text-anchor="middle" x="503" y="-208.5" font-family="Helvetica,sans-Serif" font-size="10.00">/OrderingManager.h</text>
</a>
</g>
</g>
<!-- Node1&#45;&gt;Node11 -->
<g id="edge10" class="edge">
<title>Node1&#45;&gt;Node11</title>
<path fill="none" stroke="midnightblue" d="M407.05,-268.48C422.78,-260.12 447.3,-247.09 467.61,-236.3"/>
<polygon fill="midnightblue" stroke="midnightblue" points="469.41,-239.31 476.6,-231.52 466.13,-233.12 469.41,-239.31"/>
</g>
<!-- Node3 -->
<g id="node3" class="node">
<title>Node3</title>
<g id="a_node3"><a xlink:title=" ">
<polygon fill="white" stroke="#bfbfbf" points="468,-73 468,-92 548,-92 548,-73 468,-73"/>
<text text-anchor="middle" x="508" y="-80" font-family="Helvetica,sans-Serif" font-size="10.00">Poco/Logger.h</text>
</a>
</g>
</g>
<!-- Node2&#45;&gt;Node3 -->
<g id="edge2" class="edge">
<title>Node2&#45;&gt;Node3</title>
<path fill="none" stroke="midnightblue" d="M241.74,-139.95C249.96,-137.91 258.79,-135.8 267,-134 351.82,-115.46 374.6,-118.34 459,-98 462.91,-97.06 466.98,-95.99 471.02,-94.88"/>
<polygon fill="midnightblue" stroke="midnightblue" points="472.27,-98.16 480.92,-92.05 470.34,-91.43 472.27,-98.16"/>
</g>
<!-- Node4 -->
<g id="node4" class="node">
<title>Node4</title>
<g id="a_node4"><a xlink:title=" ">
<polygon fill="white" stroke="#bfbfbf" points="0,-67.5 0,-97.5 130,-97.5 130,-67.5 0,-67.5"/>
<text text-anchor="start" x="8" y="-85.5" font-family="Helvetica,sans-Serif" font-size="10.00">gradido_blockchain</text>
<text text-anchor="middle" x="65" y="-74.5" font-family="Helvetica,sans-Serif" font-size="10.00">/lib/MultithreadContainer.h</text>
</a>
</g>
</g>
<!-- Node2&#45;&gt;Node4 -->
<g id="edge3" class="edge">
<title>Node2&#45;&gt;Node4</title>
<path fill="none" stroke="midnightblue" d="M189.88,-139.87C168.46,-130.2 133.12,-114.25 105.49,-101.78"/>
<polygon fill="midnightblue" stroke="midnightblue" points="106.63,-98.45 96.08,-97.53 103.75,-104.83 106.63,-98.45"/>
</g>
<!-- Node5 -->
<g id="node5" class="node">
<title>Node5</title>
<g id="a_node5"><a xlink:href="_fuzzy_timer_8h.html" target="_top" xlink:title=" ">
<polygon fill="white" stroke="black" points="148,-73 148,-92 246,-92 246,-73 148,-73"/>
<text text-anchor="middle" x="197" y="-80" font-family="Helvetica,sans-Serif" font-size="10.00">../lib/FuzzyTimer.h</text>
</a>
</g>
</g>
<!-- Node2&#45;&gt;Node5 -->
<g id="edge4" class="edge">
<title>Node2&#45;&gt;Node5</title>
<path fill="none" stroke="midnightblue" d="M207.38,-139.73C205.62,-130.18 202.74,-114.62 200.47,-102.28"/>
<polygon fill="midnightblue" stroke="midnightblue" points="203.85,-101.33 198.59,-92.13 196.97,-102.6 203.85,-101.33"/>
</g>
<!-- Node6 -->
<g id="node6" class="node">
<title>Node6</title>
<g id="a_node6"><a xlink:href="_message_id_8h.html" target="_top" xlink:title=" ">
<polygon fill="white" stroke="black" points="378,-73 378,-92 450,-92 450,-73 378,-73"/>
<text text-anchor="middle" x="414" y="-80" font-family="Helvetica,sans-Serif" font-size="10.00">MessageId.h</text>
</a>
</g>
</g>
<!-- Node2&#45;&gt;Node6 -->
<g id="edge5" class="edge">
<title>Node2&#45;&gt;Node6</title>
<path fill="none" stroke="midnightblue" d="M236.22,-139.87C272.47,-128.38 336.7,-108.01 377.23,-95.16"/>
<polygon fill="midnightblue" stroke="midnightblue" points="378.52,-98.42 386.99,-92.06 376.4,-91.75 378.52,-98.42"/>
</g>
<!-- Node9 -->
<g id="node9" class="node">
<title>Node9</title>
<g id="a_node9"><a xlink:title=" ">
<polygon fill="white" stroke="#bfbfbf" points="264,-73 264,-92 306,-92 306,-73 264,-73"/>
<text text-anchor="middle" x="285" y="-80" font-family="Helvetica,sans-Serif" font-size="10.00">vector</text>
</a>
</g>
</g>
<!-- Node2&#45;&gt;Node9 -->
<g id="edge8" class="edge">
<title>Node2&#45;&gt;Node9</title>
<path fill="none" stroke="midnightblue" d="M219.25,-139.73C231.44,-129.31 252.02,-111.71 266.91,-98.97"/>
<polygon fill="midnightblue" stroke="midnightblue" points="269.59,-101.29 274.91,-92.13 265.04,-95.97 269.59,-101.29"/>
</g>
<!-- Node10 -->
<g id="node10" class="node">
<title>Node10</title>
<g id="a_node10"><a xlink:title=" ">
<polygon fill="white" stroke="#bfbfbf" points="324.5,-73 324.5,-92 359.5,-92 359.5,-73 324.5,-73"/>
<text text-anchor="middle" x="342" y="-80" font-family="Helvetica,sans-Serif" font-size="10.00">map</text>
</a>
</g>
</g>
<!-- Node2&#45;&gt;Node10 -->
<g id="edge9" class="edge">
<title>Node2&#45;&gt;Node10</title>
<path fill="none" stroke="midnightblue" d="M227.9,-139.83C249.2,-129.98 284.81,-113.29 315,-98 315.81,-97.59 316.63,-97.17 317.46,-96.74"/>
<polygon fill="midnightblue" stroke="midnightblue" points="319.14,-99.81 326.36,-92.06 315.88,-93.62 319.14,-99.81"/>
</g>
<!-- Node7 -->
<g id="node7" class="node">
<title>Node7</title>
<g id="a_node7"><a xlink:title=" ">
<polygon fill="white" stroke="#bfbfbf" points="342.5,-6 342.5,-25 391.5,-25 391.5,-6 342.5,-6"/>
<text text-anchor="middle" x="367" y="-13" font-family="Helvetica,sans-Serif" font-size="10.00">cassert</text>
</a>
</g>
</g>
<!-- Node6&#45;&gt;Node7 -->
<g id="edge6" class="edge">
<title>Node6&#45;&gt;Node7</title>
<path fill="none" stroke="midnightblue" d="M407.66,-72.73C400.4,-62.7 388.34,-46.01 379.24,-33.42"/>
<polygon fill="midnightblue" stroke="midnightblue" points="381.93,-31.18 373.24,-25.13 376.26,-35.28 381.93,-31.18"/>
</g>
<!-- Node8 -->
<g id="node8" class="node">
<title>Node8</title>
<g id="a_node8"><a xlink:title=" ">
<polygon fill="white" stroke="#bfbfbf" points="409.5,-0.5 409.5,-30.5 510.5,-30.5 510.5,-0.5 409.5,-0.5"/>
<text text-anchor="start" x="417.5" y="-18.5" font-family="Helvetica,sans-Serif" font-size="10.00">gradido_blockchain</text>
<text text-anchor="middle" x="460" y="-7.5" font-family="Helvetica,sans-Serif" font-size="10.00">/MemoryManager.h</text>
</a>
</g>
</g>
<!-- Node6&#45;&gt;Node8 -->
<g id="edge7" class="edge">
<title>Node6&#45;&gt;Node8</title>
<path fill="none" stroke="midnightblue" d="M420.2,-72.73C426.3,-64.12 435.86,-50.61 444.08,-38.99"/>
<polygon fill="midnightblue" stroke="midnightblue" points="447.11,-40.77 450.03,-30.59 441.4,-36.73 447.11,-40.77"/>
</g>
<!-- Node11&#45;&gt;Node2 -->
<g id="edge22" class="edge">
<title>Node11&#45;&gt;Node2</title>
<path fill="none" stroke="midnightblue" d="M450.86,-204.88C402.96,-194.99 330.06,-179.63 267,-165 262.26,-163.9 257.31,-162.72 252.38,-161.52"/>
<polygon fill="midnightblue" stroke="midnightblue" points="252.93,-158.05 242.38,-159.05 251.26,-164.84 252.93,-158.05"/>
</g>
<!-- Node11&#45;&gt;Node10 -->
<g id="edge24" class="edge">
<title>Node11&#45;&gt;Node10</title>
<path fill="none" stroke="midnightblue" d="M555.16,-206.58C610.59,-194.92 686.02,-171.47 653,-134 610.94,-86.27 429.59,-117.37 369,-98 367.57,-97.54 366.14,-97.01 364.71,-96.43"/>
<polygon fill="midnightblue" stroke="midnightblue" points="366.11,-93.22 355.58,-92.04 363.08,-99.53 366.11,-93.22"/>
</g>
<!-- Node12 -->
<g id="node12" class="node">
<title>Node12</title>
<g id="a_node12"><a xlink:title=" ">
<polygon fill="white" stroke="#bfbfbf" points="850,-134.5 850,-164.5 962,-164.5 962,-134.5 850,-134.5"/>
<text text-anchor="start" x="858" y="-152.5" font-family="Helvetica,sans-Serif" font-size="10.00">../model/transactions</text>
<text text-anchor="middle" x="906" y="-141.5" font-family="Helvetica,sans-Serif" font-size="10.00">/GradidoTransaction.h</text>
</a>
</g>
</g>
<!-- Node11&#45;&gt;Node12 -->
<g id="edge11" class="edge">
<title>Node11&#45;&gt;Node12</title>
<path fill="none" stroke="midnightblue" d="M555.02,-208.9C619.54,-200.45 733.09,-184.73 839.72,-165.16"/>
<polygon fill="midnightblue" stroke="midnightblue" points="840.48,-168.58 849.68,-163.32 839.21,-161.7 840.48,-168.58"/>
</g>
<!-- Node13 -->
<g id="node13" class="node">
<title>Node13</title>
<g id="a_node13"><a xlink:href="_message_validator_8h.html" target="_top" xlink:title=" ">
<polygon fill="white" stroke="black" points="700.5,-140 700.5,-159 831.5,-159 831.5,-140 700.5,-140"/>
<text text-anchor="middle" x="766" y="-147" font-family="Helvetica,sans-Serif" font-size="10.00">../iota/MessageValidator.h</text>
</a>
</g>
</g>
<!-- Node11&#45;&gt;Node13 -->
<g id="edge12" class="edge">
<title>Node11&#45;&gt;Node13</title>
<path fill="none" stroke="midnightblue" d="M555.27,-202.58C603.88,-190.57 675.51,-172.87 721.46,-161.51"/>
<polygon fill="midnightblue" stroke="midnightblue" points="722.55,-164.84 731.42,-159.05 720.87,-158.05 722.55,-164.84"/>
</g>
<!-- Node20 -->
<g id="node20" class="node">
<title>Node20</title>
<g id="a_node20"><a xlink:href="_thread_8h.html" target="_top" xlink:title=" ">
<polygon fill="white" stroke="black" points="276.5,-140 276.5,-159 361.5,-159 361.5,-140 276.5,-140"/>
<text text-anchor="middle" x="319" y="-147" font-family="Helvetica,sans-Serif" font-size="10.00">../task/Thread.h</text>
</a>
</g>
</g>
<!-- Node11&#45;&gt;Node20 -->
<g id="edge23" class="edge">
<title>Node11&#45;&gt;Node20</title>
<path fill="none" stroke="midnightblue" d="M463.07,-201.4C430.08,-189.74 383.75,-173.37 352.62,-162.38"/>
<polygon fill="midnightblue" stroke="midnightblue" points="353.68,-159.04 343.08,-159.01 351.34,-165.64 353.68,-159.04"/>
</g>
<!-- Node21 -->
<g id="node21" class="node">
<title>Node21</title>
<g id="a_node21"><a xlink:title=" ">
<polygon fill="white" stroke="#bfbfbf" points="380,-140 380,-159 486,-159 486,-140 380,-140"/>
<text text-anchor="middle" x="433" y="-147" font-family="Helvetica,sans-Serif" font-size="10.00">Poco/ExpireCache.h</text>
</a>
</g>
</g>
<!-- Node11&#45;&gt;Node21 -->
<g id="edge25" class="edge">
<title>Node11&#45;&gt;Node21</title>
<path fill="none" stroke="midnightblue" d="M487.81,-201.4C476.68,-191.06 461.56,-177.02 450.03,-166.31"/>
<polygon fill="midnightblue" stroke="midnightblue" points="452.07,-163.43 442.36,-159.19 447.31,-168.56 452.07,-163.43"/>
</g>
<!-- Node22 -->
<g id="node22" class="node">
<title>Node22</title>
<g id="a_node22"><a xlink:title=" ">
<polygon fill="white" stroke="#bfbfbf" points="504.5,-140 504.5,-159 643.5,-159 643.5,-140 504.5,-140"/>
<text text-anchor="middle" x="574" y="-147" font-family="Helvetica,sans-Serif" font-size="10.00">Poco/AccessExpireCache.h</text>
</a>
</g>
</g>
<!-- Node11&#45;&gt;Node22 -->
<g id="edge26" class="edge">
<title>Node11&#45;&gt;Node22</title>
<path fill="none" stroke="midnightblue" d="M518.41,-201.4C529.81,-190.96 545.33,-176.75 557.07,-166"/>
<polygon fill="midnightblue" stroke="midnightblue" points="559.49,-168.53 564.5,-159.19 554.76,-163.37 559.49,-168.53"/>
</g>
<!-- Node13&#45;&gt;Node3 -->
<g id="edge15" class="edge">
<title>Node13&#45;&gt;Node3</title>
<path fill="none" stroke="midnightblue" d="M728.68,-139.96C686.95,-130.29 617.43,-113.82 558,-98 554.23,-97 550.3,-95.92 546.39,-94.82"/>
<polygon fill="midnightblue" stroke="midnightblue" points="547.34,-91.45 536.76,-92.08 545.42,-98.18 547.34,-91.45"/>
</g>
<!-- Node13&#45;&gt;Node6 -->
<g id="edge18" class="edge">
<title>Node13&#45;&gt;Node6</title>
<path fill="none" stroke="midnightblue" d="M719.92,-139.97C708.82,-137.96 696.99,-135.87 686,-134 585.29,-116.89 558.35,-121.74 459,-98 455.35,-97.13 451.57,-96.11 447.83,-95.02"/>
<polygon fill="midnightblue" stroke="midnightblue" points="448.68,-91.62 438.09,-92.02 446.62,-98.31 448.68,-91.62"/>
</g>
<!-- Node13&#45;&gt;Node10 -->
<g id="edge20" class="edge">
<title>Node13&#45;&gt;Node10</title>
<path fill="none" stroke="midnightblue" d="M722.07,-140C710.38,-137.88 697.73,-135.73 686,-134 545.72,-113.34 504.34,-140.3 369,-98 367.57,-97.55 366.13,-97.03 364.7,-96.45"/>
<polygon fill="midnightblue" stroke="midnightblue" points="366.1,-93.24 355.57,-92.08 363.08,-99.56 366.1,-93.24"/>
</g>
<!-- Node14 -->
<g id="node14" class="node">
<title>Node14</title>
<g id="a_node14"><a xlink:title=" ">
<polygon fill="white" stroke="#bfbfbf" points="738,-73 738,-92 818,-92 818,-73 738,-73"/>
<text text-anchor="middle" x="778" y="-80" font-family="Helvetica,sans-Serif" font-size="10.00">Poco/Thread.h</text>
</a>
</g>
</g>
<!-- Node13&#45;&gt;Node14 -->
<g id="edge13" class="edge">
<title>Node13&#45;&gt;Node14</title>
<path fill="none" stroke="midnightblue" d="M767.62,-139.73C769.38,-130.18 772.26,-114.62 774.53,-102.28"/>
<polygon fill="midnightblue" stroke="midnightblue" points="778.03,-102.6 776.41,-92.13 771.15,-101.33 778.03,-102.6"/>
</g>
<!-- Node15 -->
<g id="node15" class="node">
<title>Node15</title>
<g id="a_node15"><a xlink:title=" ">
<polygon fill="white" stroke="#bfbfbf" points="836.5,-73 836.5,-92 927.5,-92 927.5,-73 836.5,-73"/>
<text text-anchor="middle" x="882" y="-80" font-family="Helvetica,sans-Serif" font-size="10.00">Poco/Condition.h</text>
</a>
</g>
</g>
<!-- Node13&#45;&gt;Node15 -->
<g id="edge14" class="edge">
<title>Node13&#45;&gt;Node15</title>
<path fill="none" stroke="midnightblue" d="M781.64,-139.73C801.21,-128.77 834.92,-109.88 857.82,-97.05"/>
<polygon fill="midnightblue" stroke="midnightblue" points="859.59,-100.07 866.6,-92.13 856.17,-93.96 859.59,-100.07"/>
</g>
<!-- Node16 -->
<g id="node16" class="node">
<title>Node16</title>
<g id="a_node16"><a xlink:title=" ">
<polygon fill="white" stroke="#bfbfbf" points="945.5,-67.5 945.5,-97.5 1062.5,-97.5 1062.5,-67.5 945.5,-67.5"/>
<text text-anchor="start" x="953.5" y="-85.5" font-family="Helvetica,sans-Serif" font-size="10.00">gradido_blockchain</text>
<text text-anchor="middle" x="1004" y="-74.5" font-family="Helvetica,sans-Serif" font-size="10.00">/lib/MultithreadQueue.h</text>
</a>
</g>
</g>
<!-- Node13&#45;&gt;Node16 -->
<g id="edge16" class="edge">
<title>Node13&#45;&gt;Node16</title>
<path fill="none" stroke="midnightblue" d="M797.6,-139.87C834.55,-129.78 896.56,-112.84 942.98,-100.16"/>
<polygon fill="midnightblue" stroke="midnightblue" points="943.91,-103.54 952.64,-97.53 942.07,-96.79 943.91,-103.54"/>
</g>
<!-- Node17 -->
<g id="node17" class="node">
<title>Node17</title>
<g id="a_node17"><a xlink:href="_c_p_u_task_8h.html" target="_top" xlink:title=" ">
<polygon fill="white" stroke="black" points="1080.5,-73 1080.5,-92 1177.5,-92 1177.5,-73 1080.5,-73"/>
<text text-anchor="middle" x="1129" y="-80" font-family="Helvetica,sans-Serif" font-size="10.00">../task/CPUTask.h</text>
</a>
</g>
</g>
<!-- Node13&#45;&gt;Node17 -->
<g id="edge17" class="edge">
<title>Node13&#45;&gt;Node17</title>
<path fill="none" stroke="midnightblue" d="M808.78,-139.95C819.3,-137.92 830.55,-135.82 841,-134 943.36,-116.14 970.2,-118.83 1072,-98 1077.12,-96.95 1082.47,-95.74 1087.76,-94.48"/>
<polygon fill="midnightblue" stroke="midnightblue" points="1088.89,-97.81 1097.76,-92.01 1087.22,-91.01 1088.89,-97.81"/>
</g>
<!-- Node18 -->
<g id="node18" class="node">
<title>Node18</title>
<g id="a_node18"><a xlink:title=" ">
<polygon fill="white" stroke="#bfbfbf" points="566.5,-73 566.5,-92 649.5,-92 649.5,-73 566.5,-73"/>
<text text-anchor="middle" x="608" y="-80" font-family="Helvetica,sans-Serif" font-size="10.00">unordered_map</text>
</a>
</g>
</g>
<!-- Node13&#45;&gt;Node18 -->
<g id="edge19" class="edge">
<title>Node13&#45;&gt;Node18</title>
<path fill="none" stroke="midnightblue" d="M745.02,-139.87C717.75,-128.65 669.93,-108.98 638.61,-96.09"/>
<polygon fill="midnightblue" stroke="midnightblue" points="639.65,-92.74 629.07,-92.17 636.98,-99.21 639.65,-92.74"/>
</g>
<!-- Node19 -->
<g id="node19" class="node">
<title>Node19</title>
<g id="a_node19"><a xlink:title=" ">
<polygon fill="white" stroke="#bfbfbf" points="668,-73 668,-92 720,-92 720,-73 668,-73"/>
<text text-anchor="middle" x="694" y="-80" font-family="Helvetica,sans-Serif" font-size="10.00">assert.h</text>
</a>
</g>
</g>
<!-- Node13&#45;&gt;Node19 -->
<g id="edge21" class="edge">
<title>Node13&#45;&gt;Node19</title>
<path fill="none" stroke="midnightblue" d="M756.29,-139.73C744.74,-129.31 725.25,-111.71 711.14,-98.97"/>
<polygon fill="midnightblue" stroke="midnightblue" points="713.32,-96.23 703.56,-92.13 708.63,-101.43 713.32,-96.23"/>
</g>
</g>
</svg>
        <g id="navigator" transform="translate(0 0)" fill="#404254">
                <rect fill="#f2f5e9" fill-opacity="0.5" stroke="#606060" stroke-width=".5" x="0" y="0" width="60" height="60"/>
                <use id="zoomplus" xlink:href="#zoomPlus" x="17" y="9" onmousedown="handleZoom(evt,'in')"/>
                <use id="zoomminus" xlink:href="#zoomMin" x="42" y="9" onmousedown="handleZoom(evt,'out')"/>
                <use id="reset" xlink:href="#resetDef" x="30" y="36" onmousedown="handleReset()"/>
                <g id="arrowUp" xlink:href="#dirArrow" transform="translate(30 24)" onmousedown="handlePan(0,-1)">
                  <use xlink:href="#rim" fill="#404040">
                        <set attributeName="fill" to="#808080" begin="arrowUp.mouseover" end="arrowUp.mouseout"/>
                  </use>
                  <path fill="none" stroke="white" stroke-width="1.5" d="M0,-3.0v7 M-2.5,-0.5L0,-3.0L2.5,-0.5"/>
                </g>
                <g id="arrowRight" xlink:href="#dirArrow" transform="rotate(90) translate(36 -43)" onmousedown="handlePan(1,0)">
                  <use xlink:href="#rim" fill="#404040">
                        <set attributeName="fill" to="#808080" begin="arrowRight.mouseover" end="arrowRight.mouseout"/>
                  </use>
                  <path fill="none" stroke="white" stroke-width="1.5" d="M0,-3.0v7 M-2.5,-0.5L0,-3.0L2.5,-0.5"/>
                </g>
                <g id="arrowDown" xlink:href="#dirArrow" transform="rotate(180) translate(-30 -48)" onmousedown="handlePan(0,1)">
                  <use xlink:href="#rim" fill="#404040">
                        <set attributeName="fill" to="#808080" begin="arrowDown.mouseover" end="arrowDown.mouseout"/>
                  </use>
                  <path fill="none" stroke="white" stroke-width="1.5" d="M0,-3.0v7 M-2.5,-0.5L0,-3.0L2.5,-0.5"/>
                </g>
                <g id="arrowLeft" xlink:href="#dirArrow" transform="rotate(270) translate(-36 17)" onmousedown="handlePan(-1,0)">
                  <use xlink:href="#rim" fill="#404040">
                        <set attributeName="fill" to="#808080" begin="arrowLeft.mouseover" end="arrowLeft.mouseout"/>
                  </use>
                  <path fill="none" stroke="white" stroke-width="1.5" d="M0,-3.0v7 M-2.5,-0.5L0,-3.0L2.5,-0.5"/>
                </g>
        </g>
        <svg viewBox="0 0 15 15" width="100%" height="30px" preserveAspectRatio="xMaxYMin meet">
         <g id="arrow_out" transform="scale(0.3 0.3)">
          <a xlink:href="_message_listener_8cpp__incl_org.svg" target="_base">
           <rect id="button" ry="5" rx="5" y="6" x="6" height="38" width="38"
                fill="#f2f5e9" fill-opacity="0.5" stroke="#606060" stroke-width="1.0"/>
           <path id="arrow"
             d="M 11.500037,31.436501 C 11.940474,20.09759 22.043105,11.32322 32.158766,21.979434 L 37.068811,17.246167 C 37.068811,17.246167 37.088388,32 37.088388,32 L 22.160133,31.978069 C 22.160133,31.978069 26.997745,27.140456 26.997745,27.140456 C 18.528582,18.264221 13.291696,25.230495 11.500037,31.436501 z"
             style="fill:#404040;"/>
          </a>
         </g>
        </svg>
</svg>
