<?xml version="1.0" encoding="UTF-8" standalone="no"?>
<!DOCTYPE svg PUBLIC "-//W3C//DTD SVG 1.1//EN"
 "http://www.w3.org/Graphics/SVG/1.1/DTD/svg11.dtd">
<!-- Generated by graphviz version 2.50.0 (20211204.2007)
 -->
<!-- Title: src/iota/MessageId.h Pages: 1 -->
<!--zoomable 352 -->
<svg id="main" version="1.1" xmlns="http://www.w3.org/2000/svg" xmlns:xlink="http://www.w3.org/1999/xlink" xml:space="preserve" onload="init(evt)">
<style type="text/css"><![CDATA[
.edge:hover path { stroke: red; }
.edge:hover polygon { stroke: red; fill: red; }
]]></style>
<script type="text/javascript"><![CDATA[
var edges = document.getElementsByTagName('g');
if (edges && edges.length) {
  for (var i=0;i<edges.length;i++) {
    if (edges[i].id.substr(0,4)=='edge') {
      edges[i].setAttribute('class','edge');
    }
  }
}
]]></script>
        <defs>
                <circle id="rim" cx="0" cy="0" r="7"/>
                <circle id="rim2" cx="0" cy="0" r="3.5"/>
                <g id="zoomPlus">
                        <use xlink:href="#rim" fill="#404040">
                                <set attributeName="fill" to="#808080" begin="zoomplus.mouseover" end="zoomplus.mouseout"/>
                        </use>
                        <path d="M-4,0h8M0,-4v8" fill="none" stroke="white" stroke-width="1.5" pointer-events="none"/>
                </g>
                <g id="zoomMin">
                        <use xlink:href="#rim" fill="#404040">
                                <set attributeName="fill" to="#808080" begin="zoomminus.mouseover" end="zoomminus.mouseout"/>
                        </use>
                        <path d="M-4,0h8" fill="none" stroke="white" stroke-width="1.5" pointer-events="none"/>
                </g>
                <g id="dirArrow">
                        <path fill="none" stroke="white" stroke-width="1.5" d="M0,-3.0v7 M-2.5,-0.5L0,-3.0L2.5,-0.5"/>
                </g>
               <g id="resetDef">
                       <use xlink:href="#rim2" fill="#404040">
                               <set attributeName="fill" to="#808080" begin="reset.mouseover" end="reset.mouseout"/>
                       </use>
               </g>
        </defs>

<script type="text/javascript">
var viewWidth = 1816;
var viewHeight = 352;
var sectionId = 'dynsection-1';
</script>
<script xlink:href="svgpan.js"/>
<svg id="graph" class="graph">
<g id="viewport">
<title>src/iota/MessageId.h</title>
<polygon fill="white" stroke="transparent" points="-4,4 -4,-348 1811.5,-348 1811.5,4 -4,4"/>
<!-- Node1 -->
<g id="node1" class="node">
<title>Node1</title>
<g id="a_node1"><a xlink:title=" ">
<polygon fill="#bfbfbf" stroke="black" points="417.5,-324.5 417.5,-343.5 524.5,-343.5 524.5,-324.5 417.5,-324.5"/>
<text text-anchor="middle" x="471" y="-331.5" font-family="Helvetica,sans-Serif" font-size="10.00">src/iota/MessageId.h</text>
</a>
</g>
</g>
<!-- Node2 -->
<g id="node2" class="node">
<title>Node2</title>
<g id="a_node2"><a xlink:href="_h_t_t_p_api_8h.html" target="_top" xlink:title=" ">
<polygon fill="white" stroke="black" points="155,-207 155,-226 253,-226 253,-207 155,-207"/>
<text text-anchor="middle" x="204" y="-214" font-family="Helvetica,sans-Serif" font-size="10.00">src/iota/HTTPApi.h</text>
</a>
</g>
</g>
<!-- Node1&#45;&gt;Node2 -->
<g id="edge1" class="edge">
<title>Node1&#45;&gt;Node2</title>
<path fill="none" stroke="midnightblue" d="M441.44,-320.21C386.61,-296.49 270.5,-246.27 223.94,-226.12"/>
<polygon fill="midnightblue" stroke="midnightblue" points="440.36,-323.56 450.93,-324.32 443.14,-317.14 440.36,-323.56"/>
</g>
<!-- Node7 -->
<g id="node7" class="node">
<title>Node7</title>
<g id="a_node7"><a xlink:href="_message_id_8cpp.html" target="_top" xlink:title=" ">
<polygon fill="white" stroke="black" points="710,-268.5 710,-287.5 828,-287.5 828,-268.5 710,-268.5"/>
<text text-anchor="middle" x="769" y="-275.5" font-family="Helvetica,sans-Serif" font-size="10.00">src/iota/MessageId.cpp</text>
</a>
</g>
</g>
<!-- Node1&#45;&gt;Node7 -->
<g id="edge6" class="edge">
<title>Node1&#45;&gt;Node7</title>
<path fill="none" stroke="midnightblue" d="M528.39,-322.6C584.71,-312.4 669.56,-297.02 722,-287.52"/>
<polygon fill="midnightblue" stroke="midnightblue" points="527.43,-319.22 518.22,-324.44 528.68,-326.1 527.43,-319.22"/>
</g>
<!-- Node8 -->
<g id="node8" class="node">
<title>Node8</title>
<g id="a_node8"><a xlink:href="_message_listener_8h.html" target="_top" xlink:title=" ">
<polygon fill="white" stroke="black" points="558,-268.5 558,-287.5 692,-287.5 692,-268.5 558,-268.5"/>
<text text-anchor="middle" x="625" y="-275.5" font-family="Helvetica,sans-Serif" font-size="10.00">src/iota/MessageListener.h</text>
</a>
</g>
</g>
<!-- Node1&#45;&gt;Node8 -->
<g id="edge7" class="edge">
<title>Node1&#45;&gt;Node8</title>
<path fill="none" stroke="midnightblue" d="M505.11,-321.04C534.09,-310.88 574.96,-296.55 600.71,-287.52"/>
<polygon fill="midnightblue" stroke="midnightblue" points="503.68,-317.83 495.4,-324.44 506,-324.44 503.68,-317.83"/>
</g>
<!-- Node27 -->
<g id="node27" class="node">
<title>Node27</title>
<g id="a_node27"><a xlink:href="_message_validator_8h.html" target="_top" xlink:title=" ">
<polygon fill="white" stroke="black" points="402,-268.5 402,-287.5 540,-287.5 540,-268.5 402,-268.5"/>
<text text-anchor="middle" x="471" y="-275.5" font-family="Helvetica,sans-Serif" font-size="10.00">src/iota/MessageValidator.h</text>
</a>
</g>
</g>
<!-- Node1&#45;&gt;Node27 -->
<g id="edge34" class="edge">
<title>Node1&#45;&gt;Node27</title>
<path fill="none" stroke="midnightblue" d="M471,-313.8C471,-304.91 471,-294.78 471,-287.75"/>
<polygon fill="midnightblue" stroke="midnightblue" points="467.5,-314.08 471,-324.08 474.5,-314.08 467.5,-314.08"/>
</g>
<!-- Node28 -->
<g id="node28" class="node">
<title>Node28</title>
<g id="a_node28"><a xlink:href="_iota_message_to_transaction_task_8h.html" target="_top" xlink:title=" ">
<polygon fill="white" stroke="black" points="271.5,-201.5 271.5,-231.5 442.5,-231.5 442.5,-201.5 271.5,-201.5"/>
<text text-anchor="start" x="279.5" y="-219.5" font-family="Helvetica,sans-Serif" font-size="10.00">src/task/IotaMessageToTransaction</text>
<text text-anchor="middle" x="357" y="-208.5" font-family="Helvetica,sans-Serif" font-size="10.00">Task.h</text>
</a>
</g>
</g>
<!-- Node1&#45;&gt;Node28 -->
<g id="edge37" class="edge">
<title>Node1&#45;&gt;Node28</title>
<path fill="none" stroke="midnightblue" d="M439.64,-320.08C424.14,-312.5 406.02,-301.7 393,-288 377.38,-271.56 366.94,-247.03 361.49,-231.66"/>
<polygon fill="midnightblue" stroke="midnightblue" points="438.34,-323.33 448.88,-324.38 441.29,-316.99 438.34,-323.33"/>
</g>
<!-- Node3 -->
<g id="node3" class="node">
<title>Node3</title>
<g id="a_node3"><a xlink:href="_server_globals_8cpp.html" target="_top" xlink:title=" ">
<polygon fill="white" stroke="black" points="0,-140 0,-159 112,-159 112,-140 0,-140"/>
<text text-anchor="middle" x="56" y="-147" font-family="Helvetica,sans-Serif" font-size="10.00">src/ServerGlobals.cpp</text>
</a>
</g>
</g>
<!-- Node2&#45;&gt;Node3 -->
<g id="edge2" class="edge">
<title>Node2&#45;&gt;Node3</title>
<path fill="none" stroke="midnightblue" d="M175.04,-202.78C145.73,-189.91 101.21,-170.35 75.73,-159.17"/>
<polygon fill="midnightblue" stroke="midnightblue" points="173.78,-206.05 184.35,-206.87 176.6,-199.64 173.78,-206.05"/>
</g>
<!-- Node4 -->
<g id="node4" class="node">
<title>Node4</title>
<g id="a_node4"><a xlink:href="_h_t_t_p_api_8cpp.html" target="_top" xlink:title=" ">
<polygon fill="white" stroke="black" points="130.5,-140 130.5,-159 239.5,-159 239.5,-140 130.5,-140"/>
<text text-anchor="middle" x="185" y="-147" font-family="Helvetica,sans-Serif" font-size="10.00">src/iota/HTTPApi.cpp</text>
</a>
</g>
</g>
<!-- Node2&#45;&gt;Node4 -->
<g id="edge3" class="edge">
<title>Node2&#45;&gt;Node4</title>
<path fill="none" stroke="midnightblue" d="M198.57,-196.91C194.94,-184.49 190.32,-168.72 187.52,-159.13"/>
<polygon fill="midnightblue" stroke="midnightblue" points="195.27,-198.12 201.44,-206.73 201.99,-196.15 195.27,-198.12"/>
</g>
<!-- Node5 -->
<g id="node5" class="node">
<title>Node5</title>
<g id="a_node5"><a xlink:href="_message_validator_8cpp.html" target="_top" xlink:title=" ">
<polygon fill="white" stroke="black" points="334.5,-140 334.5,-159 483.5,-159 483.5,-140 334.5,-140"/>
<text text-anchor="middle" x="409" y="-147" font-family="Helvetica,sans-Serif" font-size="10.00">src/iota/MessageValidator.cpp</text>
</a>
</g>
</g>
<!-- Node2&#45;&gt;Node5 -->
<g id="edge4" class="edge">
<title>Node2&#45;&gt;Node5</title>
<path fill="none" stroke="midnightblue" d="M241.01,-203.77C281.63,-190.89 345.86,-170.52 381.99,-159.06"/>
<polygon fill="midnightblue" stroke="midnightblue" points="239.7,-200.51 231.22,-206.87 241.81,-207.18 239.7,-200.51"/>
</g>
<!-- Node6 -->
<g id="node6" class="node">
<title>Node6</title>
<g id="a_node6"><a xlink:href="_iota_message_to_transaction_task_8cpp.html" target="_top" xlink:title=" ">
<polygon fill="white" stroke="black" points="307.5,-67.5 307.5,-97.5 478.5,-97.5 478.5,-67.5 307.5,-67.5"/>
<text text-anchor="start" x="315.5" y="-85.5" font-family="Helvetica,sans-Serif" font-size="10.00">src/task/IotaMessageToTransaction</text>
<text text-anchor="middle" x="393" y="-74.5" font-family="Helvetica,sans-Serif" font-size="10.00">Task.cpp</text>
</a>
</g>
</g>
<!-- Node2&#45;&gt;Node6 -->
<g id="edge5" class="edge">
<title>Node2&#45;&gt;Node6</title>
<path fill="none" stroke="midnightblue" d="M224.07,-200.89C246.75,-184.45 284.83,-157.02 318,-134 335.93,-121.56 356.5,-107.74 371.56,-97.71"/>
<polygon fill="midnightblue" stroke="midnightblue" points="221.94,-198.12 215.9,-206.82 226.05,-203.78 221.94,-198.12"/>
</g>
<!-- Node9 -->
<g id="node9" class="node">
<title>Node9</title>
<g id="a_node9"><a xlink:href="_ordering_manager_8h.html" target="_top" xlink:title=" ">
<polygon fill="white" stroke="black" points="499.5,-201.5 499.5,-231.5 610.5,-231.5 610.5,-201.5 499.5,-201.5"/>
<text text-anchor="start" x="507.5" y="-219.5" font-family="Helvetica,sans-Serif" font-size="10.00">src/SingletonManager</text>
<text text-anchor="middle" x="555" y="-208.5" font-family="Helvetica,sans-Serif" font-size="10.00">/OrderingManager.h</text>
</a>
</g>
</g>
<!-- Node8&#45;&gt;Node9 -->
<g id="edge8" class="edge">
<title>Node8&#45;&gt;Node9</title>
<path fill="none" stroke="midnightblue" d="M607.26,-261.92C596.27,-252.58 582.25,-240.66 571.5,-231.52"/>
<polygon fill="midnightblue" stroke="midnightblue" points="605.08,-264.67 614.97,-268.48 609.62,-259.33 605.08,-264.67"/>
</g>
<!-- Node12 -->
<g id="node12" class="node">
<title>Node12</title>
<g id="a_node12"><a xlink:href="_message_listener_8cpp.html" target="_top" xlink:title=" ">
<polygon fill="white" stroke="black" points="578.5,-140 578.5,-159 723.5,-159 723.5,-140 578.5,-140"/>
<text text-anchor="middle" x="651" y="-147" font-family="Helvetica,sans-Serif" font-size="10.00">src/iota/MessageListener.cpp</text>
</a>
</g>
</g>
<!-- Node8&#45;&gt;Node12 -->
<g id="edge33" class="edge">
<title>Node8&#45;&gt;Node12</title>
<path fill="none" stroke="midnightblue" d="M628.84,-258.31C634.54,-230.58 645.01,-179.63 649.2,-159.26"/>
<polygon fill="midnightblue" stroke="midnightblue" points="625.37,-257.81 626.79,-268.31 632.23,-259.21 625.37,-257.81"/>
</g>
<!-- Node13 -->
<g id="node13" class="node">
<title>Node13</title>
<g id="a_node13"><a xlink:href="_group_8h.html" target="_top" xlink:title=" ">
<polygon fill="white" stroke="black" points="873,-207 873,-226 983,-226 983,-207 873,-207"/>
<text text-anchor="middle" x="928" y="-214" font-family="Helvetica,sans-Serif" font-size="10.00">src/controller/Group.h</text>
</a>
</g>
</g>
<!-- Node8&#45;&gt;Node13 -->
<g id="edge14" class="edge">
<title>Node8&#45;&gt;Node13</title>
<path fill="none" stroke="midnightblue" d="M678.24,-266.55C736.94,-255.02 830.26,-236.69 884.67,-226.01"/>
<polygon fill="midnightblue" stroke="midnightblue" points="677.55,-263.11 668.41,-268.48 678.9,-269.98 677.55,-263.11"/>
</g>
<!-- Node9&#45;&gt;Node5 -->
<g id="edge12" class="edge">
<title>Node9&#45;&gt;Node5</title>
<path fill="none" stroke="midnightblue" d="M514.11,-197.3C485.95,-184.76 449.84,-168.68 428.11,-159.01"/>
<polygon fill="midnightblue" stroke="midnightblue" points="512.76,-200.53 523.32,-201.4 515.61,-194.13 512.76,-200.53"/>
</g>
<!-- Node9&#45;&gt;Node6 -->
<g id="edge13" class="edge">
<title>Node9&#45;&gt;Node6</title>
<path fill="none" stroke="midnightblue" d="M541.66,-192.66C530.42,-174.93 513.02,-150.66 493,-134 474.46,-118.57 450.42,-106.24 430.56,-97.63"/>
<polygon fill="midnightblue" stroke="midnightblue" points="538.72,-194.57 546.95,-201.25 544.68,-190.9 538.72,-194.57"/>
</g>
<!-- Node10 -->
<g id="node10" class="node">
<title>Node10</title>
<g id="a_node10"><a xlink:href="_main_server_8cpp.html" target="_top" xlink:title=" ">
<polygon fill="white" stroke="black" points="542,-73 542,-92 642,-92 642,-73 542,-73"/>
<text text-anchor="middle" x="592" y="-80" font-family="Helvetica,sans-Serif" font-size="10.00">src/MainServer.cpp</text>
</a>
</g>
</g>
<!-- Node9&#45;&gt;Node10 -->
<g id="edge9" class="edge">
<title>Node9&#45;&gt;Node10</title>
<path fill="none" stroke="midnightblue" d="M558,-191.08C560.38,-174.71 564.26,-152.78 570,-134 574.64,-118.82 582.51,-102.09 587.47,-92.21"/>
<polygon fill="midnightblue" stroke="midnightblue" points="554.48,-191.04 556.6,-201.42 561.41,-191.99 554.48,-191.04"/>
</g>
<!-- Node11 -->
<g id="node11" class="node">
<title>Node11</title>
<g id="a_node11"><a xlink:href="_ordering_manager_8cpp.html" target="_top" xlink:title=" ">
<polygon fill="white" stroke="black" points="741.5,-134.5 741.5,-164.5 854.5,-164.5 854.5,-134.5 741.5,-134.5"/>
<text text-anchor="start" x="749.5" y="-152.5" font-family="Helvetica,sans-Serif" font-size="10.00">src/SingletonManager</text>
<text text-anchor="middle" x="798" y="-141.5" font-family="Helvetica,sans-Serif" font-size="10.00">/OrderingManager.cpp</text>
</a>
</g>
</g>
<!-- Node9&#45;&gt;Node11 -->
<g id="edge10" class="edge">
<title>Node9&#45;&gt;Node11</title>
<path fill="none" stroke="midnightblue" d="M617.25,-198.85C656.86,-188.25 707.61,-174.68 745.25,-164.61"/>
<polygon fill="midnightblue" stroke="midnightblue" points="616.18,-195.51 607.43,-201.48 617.99,-202.27 616.18,-195.51"/>
</g>
<!-- Node9&#45;&gt;Node12 -->
<g id="edge11" class="edge">
<title>Node9&#45;&gt;Node12</title>
<path fill="none" stroke="midnightblue" d="M584.33,-195.64C602.45,-183.37 624.77,-168.26 638.44,-159.01"/>
<polygon fill="midnightblue" stroke="midnightblue" points="582.15,-192.89 575.83,-201.4 586.07,-198.69 582.15,-192.89"/>
</g>
<!-- Node13&#45;&gt;Node11 -->
<g id="edge21" class="edge">
<title>Node13&#45;&gt;Node11</title>
<path fill="none" stroke="midnightblue" d="M901.68,-202.34C879.8,-191.4 848.72,-175.86 826.3,-164.65"/>
<polygon fill="midnightblue" stroke="midnightblue" points="900.23,-205.53 910.74,-206.87 903.36,-199.27 900.23,-205.53"/>
</g>
<!-- Node14 -->
<g id="node14" class="node">
<title>Node14</title>
<g id="a_node14"><a xlink:href="_group_manager_8h.html" target="_top" xlink:title=" ">
<polygon fill="white" stroke="black" points="872.5,-134.5 872.5,-164.5 983.5,-164.5 983.5,-134.5 872.5,-134.5"/>
<text text-anchor="start" x="880.5" y="-152.5" font-family="Helvetica,sans-Serif" font-size="10.00">src/SingletonManager</text>
<text text-anchor="middle" x="928" y="-141.5" font-family="Helvetica,sans-Serif" font-size="10.00">/GroupManager.h</text>
</a>
</g>
</g>
<!-- Node13&#45;&gt;Node14 -->
<g id="edge15" class="edge">
<title>Node13&#45;&gt;Node14</title>
<path fill="none" stroke="midnightblue" d="M928,-196.41C928,-186.22 928,-173.9 928,-164.59"/>
<polygon fill="midnightblue" stroke="midnightblue" points="924.5,-196.73 928,-206.73 931.5,-196.73 924.5,-196.73"/>
</g>
<!-- Node17 -->
<g id="node17" class="node">
<title>Node17</title>
<g id="a_node17"><a xlink:href="_group_8cpp.html" target="_top" xlink:title=" ">
<polygon fill="white" stroke="black" points="896.5,-6 896.5,-25 1017.5,-25 1017.5,-6 896.5,-6"/>
<text text-anchor="middle" x="957" y="-13" font-family="Helvetica,sans-Serif" font-size="10.00">src/controller/Group.cpp</text>
</a>
</g>
</g>
<!-- Node13&#45;&gt;Node17 -->
<g id="edge22" class="edge">
<title>Node13&#45;&gt;Node17</title>
<path fill="none" stroke="midnightblue" d="M955.39,-201.81C969.3,-193.28 984.93,-180.89 993,-165 1012.73,-126.16 1008.81,-108.32 995,-67 989.37,-50.14 975.65,-34.4 966.33,-25.11"/>
<polygon fill="midnightblue" stroke="midnightblue" points="953.53,-198.84 946.6,-206.86 957.01,-204.91 953.53,-198.84"/>
</g>
<!-- Node18 -->
<g id="node18" class="node">
<title>Node18</title>
<g id="a_node18"><a xlink:href="_transaction_entry_8h.html" target="_top" xlink:title=" ">
<polygon fill="white" stroke="black" points="1246,-140 1246,-159 1390,-159 1390,-140 1246,-140"/>
<text text-anchor="middle" x="1318" y="-147" font-family="Helvetica,sans-Serif" font-size="10.00">src/model/TransactionEntry.h</text>
</a>
</g>
</g>
<!-- Node13&#45;&gt;Node18 -->
<g id="edge23" class="edge">
<title>Node13&#45;&gt;Node18</title>
<path fill="none" stroke="midnightblue" d="M989.37,-205.27C1065.9,-192.52 1195.36,-170.94 1266.81,-159.03"/>
<polygon fill="midnightblue" stroke="midnightblue" points="988.68,-201.84 979.39,-206.94 989.83,-208.74 988.68,-201.84"/>
</g>
<!-- Node14&#45;&gt;Node6 -->
<g id="edge20" class="edge">
<title>Node14&#45;&gt;Node6</title>
<path fill="none" stroke="midnightblue" d="M862.24,-134.04C809.06,-127.08 599.02,-105 478.59,-92.42"/>
<polygon fill="midnightblue" stroke="midnightblue" points="861.83,-137.51 872.23,-135.46 862.82,-130.58 861.83,-137.51"/>
</g>
<!-- Node14&#45;&gt;Node10 -->
<g id="edge17" class="edge">
<title>Node14&#45;&gt;Node10</title>
<path fill="none" stroke="midnightblue" d="M862.36,-133.7C779.54,-116.77 693.75,-101.29 641.25,-92.04"/>
<polygon fill="midnightblue" stroke="midnightblue" points="861.68,-137.13 872.18,-135.72 863.09,-130.28 861.68,-137.13"/>
</g>
<!-- Node15 -->
<g id="node15" class="node">
<title>Node15</title>
<g id="a_node15"><a xlink:href="_json_r_p_c_handler_8cpp.html" target="_top" xlink:title=" ">
<polygon fill="white" stroke="black" points="870,-67.5 870,-97.5 986,-97.5 986,-67.5 870,-67.5"/>
<text text-anchor="start" x="878" y="-85.5" font-family="Helvetica,sans-Serif" font-size="10.00">src/JSONRPCInterface</text>
<text text-anchor="middle" x="928" y="-74.5" font-family="Helvetica,sans-Serif" font-size="10.00">/JsonRPCHandler.cpp</text>
</a>
</g>
</g>
<!-- Node14&#45;&gt;Node15 -->
<g id="edge16" class="edge">
<title>Node14&#45;&gt;Node15</title>
<path fill="none" stroke="midnightblue" d="M928,-124.11C928,-115.15 928,-105.32 928,-97.58"/>
<polygon fill="midnightblue" stroke="midnightblue" points="924.5,-124.4 928,-134.4 931.5,-124.4 924.5,-124.4"/>
</g>
<!-- Node16 -->
<g id="node16" class="node">
<title>Node16</title>
<g id="a_node16"><a xlink:href="_group_manager_8cpp.html" target="_top" xlink:title=" ">
<polygon fill="white" stroke="black" points="740.5,-67.5 740.5,-97.5 851.5,-97.5 851.5,-67.5 740.5,-67.5"/>
<text text-anchor="start" x="748.5" y="-85.5" font-family="Helvetica,sans-Serif" font-size="10.00">src/SingletonManager</text>
<text text-anchor="middle" x="796" y="-74.5" font-family="Helvetica,sans-Serif" font-size="10.00">/GroupManager.cpp</text>
</a>
</g>
</g>
<!-- Node14&#45;&gt;Node16 -->
<g id="edge18" class="edge">
<title>Node14&#45;&gt;Node16</title>
<path fill="none" stroke="midnightblue" d="M890.13,-129.85C869.26,-119.58 843.77,-107.03 824.59,-97.58"/>
<polygon fill="midnightblue" stroke="midnightblue" points="888.84,-133.12 899.36,-134.4 891.93,-126.84 888.84,-133.12"/>
</g>
<!-- Node14&#45;&gt;Node17 -->
<g id="edge19" class="edge">
<title>Node14&#45;&gt;Node17</title>
<path fill="none" stroke="midnightblue" d="M862.69,-133.68C807.31,-120.8 736.18,-103.39 732,-98 723.56,-87.11 723.39,-77.76 732,-67 752.26,-41.68 836.98,-28.19 896.47,-21.69"/>
<polygon fill="midnightblue" stroke="midnightblue" points="861.95,-137.1 872.48,-135.95 863.53,-130.28 861.95,-137.1"/>
</g>
<!-- Node19 -->
<g id="node19" class="node">
<title>Node19</title>
<g id="a_node19"><a xlink:href="controller_2_block_8h.html" target="_top" xlink:title=" ">
<polygon fill="white" stroke="black" points="1042.5,-73 1042.5,-92 1151.5,-92 1151.5,-73 1042.5,-73"/>
<text text-anchor="middle" x="1097" y="-80" font-family="Helvetica,sans-Serif" font-size="10.00">src/controller/Block.h</text>
</a>
</g>
</g>
<!-- Node18&#45;&gt;Node19 -->
<g id="edge24" class="edge">
<title>Node18&#45;&gt;Node19</title>
<path fill="none" stroke="midnightblue" d="M1278.93,-137.01C1235.19,-124.15 1165.32,-103.59 1126.12,-92.06"/>
<polygon fill="midnightblue" stroke="midnightblue" points="1278.07,-140.4 1288.65,-139.87 1280.05,-133.69 1278.07,-140.4"/>
</g>
<!-- Node21 -->
<g id="node21" class="node">
<title>Node21</title>
<g id="a_node21"><a xlink:href="controller_2_block_index_8cpp.html" target="_top" xlink:title=" ">
<polygon fill="white" stroke="black" points="1324.5,-73 1324.5,-92 1467.5,-92 1467.5,-73 1324.5,-73"/>
<text text-anchor="middle" x="1396" y="-80" font-family="Helvetica,sans-Serif" font-size="10.00">src/controller/BlockIndex.cpp</text>
</a>
</g>
</g>
<!-- Node18&#45;&gt;Node21 -->
<g id="edge27" class="edge">
<title>Node18&#45;&gt;Node21</title>
<path fill="none" stroke="midnightblue" d="M1336.34,-133.21C1351.71,-120.41 1373.09,-102.59 1385.65,-92.13"/>
<polygon fill="midnightblue" stroke="midnightblue" points="1333.96,-130.64 1328.52,-139.73 1338.44,-136.02 1333.96,-130.64"/>
</g>
<!-- Node22 -->
<g id="node22" class="node">
<title>Node22</title>
<g id="a_node22"><a xlink:href="_transaction_entry_8cpp.html" target="_top" xlink:title=" ">
<polygon fill="white" stroke="black" points="1485.5,-73 1485.5,-92 1640.5,-92 1640.5,-73 1485.5,-73"/>
<text text-anchor="middle" x="1563" y="-80" font-family="Helvetica,sans-Serif" font-size="10.00">src/model/TransactionEntry.cpp</text>
</a>
</g>
</g>
<!-- Node18&#45;&gt;Node22 -->
<g id="edge28" class="edge">
<title>Node18&#45;&gt;Node22</title>
<path fill="none" stroke="midnightblue" d="M1360.13,-137.32C1408.5,-124.49 1486.82,-103.71 1530.65,-92.08"/>
<polygon fill="midnightblue" stroke="midnightblue" points="1359.05,-133.99 1350.28,-139.94 1360.84,-140.75 1359.05,-133.99"/>
</g>
<!-- Node23 -->
<g id="node23" class="node">
<title>Node23</title>
<g id="a_node23"><a xlink:href="model_2files_2_block_index_8cpp.html" target="_top" xlink:title=" ">
<polygon fill="white" stroke="black" points="1658.5,-73 1658.5,-92 1807.5,-92 1807.5,-73 1658.5,-73"/>
<text text-anchor="middle" x="1733" y="-80" font-family="Helvetica,sans-Serif" font-size="10.00">src/model/files/BlockIndex.cpp</text>
</a>
</g>
</g>
<!-- Node18&#45;&gt;Node23 -->
<g id="edge29" class="edge">
<title>Node18&#45;&gt;Node23</title>
<path fill="none" stroke="midnightblue" d="M1386.57,-138.52C1453.75,-128.64 1559.01,-112.87 1650,-98 1661.4,-96.14 1673.67,-94.04 1685.19,-92.04"/>
<polygon fill="midnightblue" stroke="midnightblue" points="1385.92,-135.08 1376.53,-139.99 1386.94,-142 1385.92,-135.08"/>
</g>
<!-- Node24 -->
<g id="node24" class="node">
<title>Node24</title>
<g id="a_node24"><a xlink:href="_write_transactions_to_block_task_8h.html" target="_top" xlink:title=" ">
<polygon fill="white" stroke="black" points="1172,-67.5 1172,-97.5 1306,-97.5 1306,-67.5 1172,-67.5"/>
<text text-anchor="start" x="1180" y="-85.5" font-family="Helvetica,sans-Serif" font-size="10.00">src/task/WriteTransactions</text>
<text text-anchor="middle" x="1239" y="-74.5" font-family="Helvetica,sans-Serif" font-size="10.00">ToBlockTask.h</text>
</a>
</g>
</g>
<!-- Node18&#45;&gt;Node24 -->
<g id="edge30" class="edge">
<title>Node18&#45;&gt;Node24</title>
<path fill="none" stroke="midnightblue" d="M1299.45,-133.24C1286.34,-122.45 1268.9,-108.1 1256.12,-97.59"/>
<polygon fill="midnightblue" stroke="midnightblue" points="1297.4,-136.08 1307.35,-139.73 1301.85,-130.68 1297.4,-136.08"/>
</g>
<!-- Node19&#45;&gt;Node17 -->
<g id="edge26" class="edge">
<title>Node19&#45;&gt;Node17</title>
<path fill="none" stroke="midnightblue" d="M1069.24,-68.61C1041.51,-55.74 999.66,-36.31 975.67,-25.17"/>
<polygon fill="midnightblue" stroke="midnightblue" points="1067.87,-71.83 1078.41,-72.87 1070.81,-65.48 1067.87,-71.83"/>
</g>
<!-- Node20 -->
<g id="node20" class="node">
<title>Node20</title>
<g id="a_node20"><a xlink:href="controller_2_block_8cpp.html" target="_top" xlink:title=" ">
<polygon fill="white" stroke="black" points="1035.5,-6 1035.5,-25 1154.5,-25 1154.5,-6 1035.5,-6"/>
<text text-anchor="middle" x="1095" y="-13" font-family="Helvetica,sans-Serif" font-size="10.00">src/controller/Block.cpp</text>
</a>
</g>
</g>
<!-- Node19&#45;&gt;Node20 -->
<g id="edge25" class="edge">
<title>Node19&#45;&gt;Node20</title>
<path fill="none" stroke="midnightblue" d="M1096.42,-62.54C1096.04,-50.17 1095.56,-34.62 1095.27,-25.13"/>
<polygon fill="midnightblue" stroke="midnightblue" points="1092.92,-62.85 1096.73,-72.73 1099.92,-62.63 1092.92,-62.85"/>
</g>
<!-- Node25 -->
<g id="node25" class="node">
<title>Node25</title>
<g id="a_node25"><a xlink:href="_task_observer_8cpp.html" target="_top" xlink:title=" ">
<polygon fill="white" stroke="black" points="1325,-6 1325,-25 1479,-25 1479,-6 1325,-6"/>
<text text-anchor="middle" x="1402" y="-13" font-family="Helvetica,sans-Serif" font-size="10.00">src/controller/TaskObserver.cpp</text>
</a>
</g>
</g>
<!-- Node24&#45;&gt;Node25 -->
<g id="edge31" class="edge">
<title>Node24&#45;&gt;Node25</title>
<path fill="none" stroke="midnightblue" d="M1283.83,-63.62C1315.38,-51.04 1356.19,-34.77 1380.67,-25.01"/>
<polygon fill="midnightblue" stroke="midnightblue" points="1282.36,-60.44 1274.37,-67.4 1284.95,-66.94 1282.36,-60.44"/>
</g>
<!-- Node26 -->
<g id="node26" class="node">
<title>Node26</title>
<g id="a_node26"><a xlink:href="_write_transactions_to_block_task_8cpp.html" target="_top" xlink:title=" ">
<polygon fill="white" stroke="black" points="1173,-0.5 1173,-30.5 1307,-30.5 1307,-0.5 1173,-0.5"/>
<text text-anchor="start" x="1181" y="-18.5" font-family="Helvetica,sans-Serif" font-size="10.00">src/task/WriteTransactions</text>
<text text-anchor="middle" x="1240" y="-7.5" font-family="Helvetica,sans-Serif" font-size="10.00">ToBlockTask.cpp</text>
</a>
</g>
</g>
<!-- Node24&#45;&gt;Node26 -->
<g id="edge32" class="edge">
<title>Node24&#45;&gt;Node26</title>
<path fill="none" stroke="midnightblue" d="M1239.38,-57.11C1239.51,-48.15 1239.66,-38.32 1239.78,-30.58"/>
<polygon fill="midnightblue" stroke="midnightblue" points="1235.87,-57.34 1239.22,-67.4 1242.87,-57.45 1235.87,-57.34"/>
</g>
<!-- Node27&#45;&gt;Node5 -->
<g id="edge36" class="edge">
<title>Node27&#45;&gt;Node5</title>
<path fill="none" stroke="midnightblue" d="M468.71,-257.93C466.23,-242.01 461.31,-219.1 452,-201 443.47,-184.41 428.51,-168.6 418.68,-159.22"/>
<polygon fill="midnightblue" stroke="midnightblue" points="465.28,-258.68 470.11,-268.11 472.21,-257.72 465.28,-258.68"/>
</g>
<!-- Node27&#45;&gt;Node9 -->
<g id="edge35" class="edge">
<title>Node27&#45;&gt;Node9</title>
<path fill="none" stroke="midnightblue" d="M491.52,-262.47C504.82,-253.05 522.05,-240.84 535.2,-231.52"/>
<polygon fill="midnightblue" stroke="midnightblue" points="489.17,-259.84 483.04,-268.48 493.22,-265.55 489.17,-259.84"/>
</g>
<!-- Node28&#45;&gt;Node5 -->
<g id="edge38" class="edge">
<title>Node28&#45;&gt;Node5</title>
<path fill="none" stroke="midnightblue" d="M374.75,-193.32C384.12,-181.6 395.09,-167.88 402.04,-159.19"/>
<polygon fill="midnightblue" stroke="midnightblue" points="371.8,-191.4 368.28,-201.4 377.26,-195.77 371.8,-191.4"/>
</g>
<!-- Node28&#45;&gt;Node6 -->
<g id="edge39" class="edge">
<title>Node28&#45;&gt;Node6</title>
<path fill="none" stroke="midnightblue" d="M338.58,-193.23C327.16,-176.55 316.34,-153.38 326,-134 333.86,-118.23 349.26,-106.08 363.31,-97.66"/>
<polygon fill="midnightblue" stroke="midnightblue" points="335.77,-195.31 344.51,-201.3 341.41,-191.17 335.77,-195.31"/>
</g>
</g>
</svg>
        <g id="navigator" transform="translate(0 0)" fill="#404254">
                <rect fill="#f2f5e9" fill-opacity="0.5" stroke="#606060" stroke-width=".5" x="0" y="0" width="60" height="60"/>
                <use id="zoomplus" xlink:href="#zoomPlus" x="17" y="9" onmousedown="handleZoom(evt,'in')"/>
                <use id="zoomminus" xlink:href="#zoomMin" x="42" y="9" onmousedown="handleZoom(evt,'out')"/>
                <use id="reset" xlink:href="#resetDef" x="30" y="36" onmousedown="handleReset()"/>
                <g id="arrowUp" xlink:href="#dirArrow" transform="translate(30 24)" onmousedown="handlePan(0,-1)">
                  <use xlink:href="#rim" fill="#404040">
                        <set attributeName="fill" to="#808080" begin="arrowUp.mouseover" end="arrowUp.mouseout"/>
                  </use>
                  <path fill="none" stroke="white" stroke-width="1.5" d="M0,-3.0v7 M-2.5,-0.5L0,-3.0L2.5,-0.5"/>
                </g>
                <g id="arrowRight" xlink:href="#dirArrow" transform="rotate(90) translate(36 -43)" onmousedown="handlePan(1,0)">
                  <use xlink:href="#rim" fill="#404040">
                        <set attributeName="fill" to="#808080" begin="arrowRight.mouseover" end="arrowRight.mouseout"/>
                  </use>
                  <path fill="none" stroke="white" stroke-width="1.5" d="M0,-3.0v7 M-2.5,-0.5L0,-3.0L2.5,-0.5"/>
                </g>
                <g id="arrowDown" xlink:href="#dirArrow" transform="rotate(180) translate(-30 -48)" onmousedown="handlePan(0,1)">
                  <use xlink:href="#rim" fill="#404040">
                        <set attributeName="fill" to="#808080" begin="arrowDown.mouseover" end="arrowDown.mouseout"/>
                  </use>
                  <path fill="none" stroke="white" stroke-width="1.5" d="M0,-3.0v7 M-2.5,-0.5L0,-3.0L2.5,-0.5"/>
                </g>
                <g id="arrowLeft" xlink:href="#dirArrow" transform="rotate(270) translate(-36 17)" onmousedown="handlePan(-1,0)">
                  <use xlink:href="#rim" fill="#404040">
                        <set attributeName="fill" to="#808080" begin="arrowLeft.mouseover" end="arrowLeft.mouseout"/>
                  </use>
                  <path fill="none" stroke="white" stroke-width="1.5" d="M0,-3.0v7 M-2.5,-0.5L0,-3.0L2.5,-0.5"/>
                </g>
        </g>
        <svg viewBox="0 0 15 15" width="100%" height="30px" preserveAspectRatio="xMaxYMin meet">
         <g id="arrow_out" transform="scale(0.3 0.3)">
          <a xlink:href="_message_id_8h__dep__incl_org.svg" target="_base">
           <rect id="button" ry="5" rx="5" y="6" x="6" height="38" width="38"
                fill="#f2f5e9" fill-opacity="0.5" stroke="#606060" stroke-width="1.0"/>
           <path id="arrow"
             d="M 11.500037,31.436501 C 11.940474,20.09759 22.043105,11.32322 32.158766,21.979434 L 37.068811,17.246167 C 37.068811,17.246167 37.088388,32 37.088388,32 L 22.160133,31.978069 C 22.160133,31.978069 26.997745,27.140456 26.997745,27.140456 C 18.528582,18.264221 13.291696,25.230495 11.500037,31.436501 z"
             style="fill:#404040;"/>
          </a>
         </g>
        </svg>
</svg>
