<?xml version="1.0" encoding="UTF-8" standalone="no"?>
<!DOCTYPE svg PUBLIC "-//W3C//DTD SVG 1.1//EN"
 "http://www.w3.org/Graphics/SVG/1.1/DTD/svg11.dtd">
<!-- Generated by graphviz version 2.50.0 (20211204.2007)
 -->
<!-- Title: src/iota/MessageListener.h Pages: 1 -->
<svg width="556pt" height="162pt"
 viewBox="0.00 0.00 555.50 162.00" xmlns="http://www.w3.org/2000/svg" xmlns:xlink="http://www.w3.org/1999/xlink">
<g id="graph0" class="graph" transform="scale(1 1) rotate(0) translate(4 158)">
<title>src/iota/MessageListener.h</title>
<polygon fill="white" stroke="transparent" points="-4,4 -4,-158 551.5,-158 551.5,4 -4,4"/>
<!-- Node1 -->
<g id="node1" class="node">
<title>Node1</title>
<g id="a_node1"><a xlink:title=" ">
<polygon fill="#bfbfbf" stroke="black" points="279,-134.5 279,-153.5 413,-153.5 413,-134.5 279,-134.5"/>
<text text-anchor="middle" x="346" y="-141.5" font-family="Helvetica,sans-Serif" font-size="10.00">src/iota/MessageListener.h</text>
</a>
</g>
</g>
<!-- Node2 -->
<g id="node2" class="node">
<title>Node2</title>
<g id="a_node2"><a xlink:title=" ">
<polygon fill="white" stroke="#bfbfbf" points="0,-73 0,-92 80,-92 80,-73 0,-73"/>
<text text-anchor="middle" x="40" y="-80" font-family="Helvetica,sans-Serif" font-size="10.00">Poco/Logger.h</text>
</a>
</g>
</g>
<!-- Node1&#45;&gt;Node2 -->
<g id="edge1" class="edge">
<title>Node1&#45;&gt;Node2</title>
<path fill="none" stroke="midnightblue" d="M285.89,-134.46C233.55,-126.56 155.81,-113.68 89,-98 84.92,-97.04 80.68,-95.94 76.47,-94.79"/>
<polygon fill="midnightblue" stroke="midnightblue" points="77.39,-91.41 66.81,-92.04 75.47,-98.14 77.39,-91.41"/>
</g>
<!-- Node3 -->
<g id="node3" class="node">
<title>Node3</title>
<g id="a_node3"><a xlink:title=" ">
<polygon fill="white" stroke="#bfbfbf" points="98,-67.5 98,-97.5 228,-97.5 228,-67.5 98,-67.5"/>
<text text-anchor="start" x="106" y="-85.5" font-family="Helvetica,sans-Serif" font-size="10.00">gradido_blockchain</text>
<text text-anchor="middle" x="163" y="-74.5" font-family="Helvetica,sans-Serif" font-size="10.00">/lib/MultithreadContainer.h</text>
</a>
</g>
</g>
<!-- Node1&#45;&gt;Node3 -->
<g id="edge2" class="edge">
<title>Node1&#45;&gt;Node3</title>
<path fill="none" stroke="midnightblue" d="M319.78,-134.48C292.8,-125.7 250,-111.79 215.94,-100.71"/>
<polygon fill="midnightblue" stroke="midnightblue" points="216.72,-97.29 206.13,-97.52 214.56,-103.94 216.72,-97.29"/>
</g>
<!-- Node4 -->
<g id="node4" class="node">
<title>Node4</title>
<g id="a_node4"><a xlink:href="_fuzzy_timer_8h.html" target="_top" xlink:title=" ">
<polygon fill="white" stroke="black" points="246,-73 246,-92 344,-92 344,-73 246,-73"/>
<text text-anchor="middle" x="295" y="-80" font-family="Helvetica,sans-Serif" font-size="10.00">../lib/FuzzyTimer.h</text>
</a>
</g>
</g>
<!-- Node1&#45;&gt;Node4 -->
<g id="edge3" class="edge">
<title>Node1&#45;&gt;Node4</title>
<path fill="none" stroke="midnightblue" d="M338.69,-134.48C330.97,-125.46 318.59,-111.02 308.98,-99.81"/>
<polygon fill="midnightblue" stroke="midnightblue" points="311.46,-97.32 302.29,-92.01 306.14,-101.88 311.46,-97.32"/>
</g>
<!-- Node5 -->
<g id="node5" class="node">
<title>Node5</title>
<g id="a_node5"><a xlink:href="_message_id_8h.html" target="_top" xlink:title=" ">
<polygon fill="white" stroke="black" points="362,-73 362,-92 434,-92 434,-73 362,-73"/>
<text text-anchor="middle" x="398" y="-80" font-family="Helvetica,sans-Serif" font-size="10.00">MessageId.h</text>
</a>
</g>
</g>
<!-- Node1&#45;&gt;Node5 -->
<g id="edge4" class="edge">
<title>Node1&#45;&gt;Node5</title>
<path fill="none" stroke="midnightblue" d="M353.45,-134.48C361.33,-125.46 373.94,-111.02 383.74,-99.81"/>
<polygon fill="midnightblue" stroke="midnightblue" points="386.62,-101.84 390.56,-92.01 381.35,-97.24 386.62,-101.84"/>
</g>
<!-- Node8 -->
<g id="node8" class="node">
<title>Node8</title>
<g id="a_node8"><a xlink:title=" ">
<polygon fill="white" stroke="#bfbfbf" points="452,-73 452,-92 494,-92 494,-73 452,-73"/>
<text text-anchor="middle" x="473" y="-80" font-family="Helvetica,sans-Serif" font-size="10.00">vector</text>
</a>
</g>
</g>
<!-- Node1&#45;&gt;Node8 -->
<g id="edge7" class="edge">
<title>Node1&#45;&gt;Node8</title>
<path fill="none" stroke="midnightblue" d="M364.64,-134.46C384.2,-125.47 415.82,-110.87 443,-98 443.99,-97.53 445,-97.05 446.03,-96.56"/>
<polygon fill="midnightblue" stroke="midnightblue" points="447.75,-99.62 455.26,-92.13 444.73,-93.3 447.75,-99.62"/>
</g>
<!-- Node9 -->
<g id="node9" class="node">
<title>Node9</title>
<g id="a_node9"><a xlink:title=" ">
<polygon fill="white" stroke="#bfbfbf" points="512.5,-73 512.5,-92 547.5,-92 547.5,-73 512.5,-73"/>
<text text-anchor="middle" x="530" y="-80" font-family="Helvetica,sans-Serif" font-size="10.00">map</text>
</a>
</g>
</g>
<!-- Node1&#45;&gt;Node9 -->
<g id="edge8" class="edge">
<title>Node1&#45;&gt;Node9</title>
<path fill="none" stroke="midnightblue" d="M384.19,-134.48C416.47,-126.71 463.6,-114.01 503,-98 504.04,-97.58 505.08,-97.13 506.13,-96.66"/>
<polygon fill="midnightblue" stroke="midnightblue" points="508.01,-99.64 515.42,-92.06 504.91,-93.36 508.01,-99.64"/>
</g>
<!-- Node6 -->
<g id="node6" class="node">
<title>Node6</title>
<g id="a_node6"><a xlink:title=" ">
<polygon fill="white" stroke="#bfbfbf" points="326.5,-6 326.5,-25 375.5,-25 375.5,-6 326.5,-6"/>
<text text-anchor="middle" x="351" y="-13" font-family="Helvetica,sans-Serif" font-size="10.00">cassert</text>
</a>
</g>
</g>
<!-- Node5&#45;&gt;Node6 -->
<g id="edge5" class="edge">
<title>Node5&#45;&gt;Node6</title>
<path fill="none" stroke="midnightblue" d="M391.66,-72.73C384.4,-62.7 372.34,-46.01 363.24,-33.42"/>
<polygon fill="midnightblue" stroke="midnightblue" points="365.93,-31.18 357.24,-25.13 360.26,-35.28 365.93,-31.18"/>
</g>
<!-- Node7 -->
<g id="node7" class="node">
<title>Node7</title>
<g id="a_node7"><a xlink:title=" ">
<polygon fill="white" stroke="#bfbfbf" points="393.5,-0.5 393.5,-30.5 494.5,-30.5 494.5,-0.5 393.5,-0.5"/>
<text text-anchor="start" x="401.5" y="-18.5" font-family="Helvetica,sans-Serif" font-size="10.00">gradido_blockchain</text>
<text text-anchor="middle" x="444" y="-7.5" font-family="Helvetica,sans-Serif" font-size="10.00">/MemoryManager.h</text>
</a>
</g>
</g>
<!-- Node5&#45;&gt;Node7 -->
<g id="edge6" class="edge">
<title>Node5&#45;&gt;Node7</title>
<path fill="none" stroke="midnightblue" d="M404.2,-72.73C410.3,-64.12 419.86,-50.61 428.08,-38.99"/>
<polygon fill="midnightblue" stroke="midnightblue" points="431.11,-40.77 434.03,-30.59 425.4,-36.73 431.11,-40.77"/>
</g>
</g>
</svg>
