<?xml version="1.0" encoding="UTF-8" standalone="no"?>
<!DOCTYPE svg PUBLIC "-//W3C//DTD SVG 1.1//EN"
 "http://www.w3.org/Graphics/SVG/1.1/DTD/svg11.dtd">
<!-- Generated by graphviz version 2.50.0 (20211204.2007)
 -->
<!-- Title: src/iota/MessageValidator.cpp Pages: 1 -->
<!--zoomable 307 -->
<svg id="main" version="1.1" xmlns="http://www.w3.org/2000/svg" xmlns:xlink="http://www.w3.org/1999/xlink" xml:space="preserve" onload="init(evt)">
<style type="text/css"><![CDATA[
.edge:hover path { stroke: red; }
.edge:hover polygon { stroke: red; fill: red; }
]]></style>
<script type="text/javascript"><![CDATA[
var edges = document.getElementsByTagName('g');
if (edges && edges.length) {
  for (var i=0;i<edges.length;i++) {
    if (edges[i].id.substr(0,4)=='edge') {
      edges[i].setAttribute('class','edge');
    }
  }
}
]]></script>
        <defs>
                <circle id="rim" cx="0" cy="0" r="7"/>
                <circle id="rim2" cx="0" cy="0" r="3.5"/>
                <g id="zoomPlus">
                        <use xlink:href="#rim" fill="#404040">
                                <set attributeName="fill" to="#808080" begin="zoomplus.mouseover" end="zoomplus.mouseout"/>
                        </use>
                        <path d="M-4,0h8M0,-4v8" fill="none" stroke="white" stroke-width="1.5" pointer-events="none"/>
                </g>
                <g id="zoomMin">
                        <use xlink:href="#rim" fill="#404040">
                                <set attributeName="fill" to="#808080" begin="zoomminus.mouseover" end="zoomminus.mouseout"/>
                        </use>
                        <path d="M-4,0h8" fill="none" stroke="white" stroke-width="1.5" pointer-events="none"/>
                </g>
                <g id="dirArrow">
                        <path fill="none" stroke="white" stroke-width="1.5" d="M0,-3.0v7 M-2.5,-0.5L0,-3.0L2.5,-0.5"/>
                </g>
               <g id="resetDef">
                       <use xlink:href="#rim2" fill="#404040">
                               <set attributeName="fill" to="#808080" begin="reset.mouseover" end="reset.mouseout"/>
                       </use>
               </g>
        </defs>

<script type="text/javascript">
var viewWidth = 2281;
var viewHeight = 307;
var sectionId = 'dynsection-0';
</script>
<script xlink:href="svgpan.js"/>
<svg id="graph" class="graph">
<g id="viewport">
<title>src/iota/MessageValidator.cpp</title>
<polygon fill="white" stroke="transparent" points="-4,4 -4,-303 2277.42,-303 2277.42,4 -4,4"/>
<!-- Node1 -->
<g id="node1" class="node">
<title>Node1</title>
<g id="a_node1"><a xlink:title=" ">
<polygon fill="#bfbfbf" stroke="black" points="868.92,-279.5 868.92,-298.5 1017.92,-298.5 1017.92,-279.5 868.92,-279.5"/>
<text text-anchor="middle" x="943.42" y="-286.5" font-family="Helvetica,sans-Serif" font-size="10.00">src/iota/MessageValidator.cpp</text>
</a>
</g>
</g>
<!-- Node2 -->
<g id="node2" class="node">
<title>Node2</title>
<g id="a_node2"><a xlink:href="_message_validator_8h.html" target="_top" xlink:title=" ">
<polygon fill="white" stroke="black" points="240.92,-151 240.92,-170 343.92,-170 343.92,-151 240.92,-151"/>
<text text-anchor="middle" x="292.42" y="-158" font-family="Helvetica,sans-Serif" font-size="10.00">MessageValidator.h</text>
</a>
</g>
</g>
<!-- Node1&#45;&gt;Node2 -->
<g id="edge1" class="edge">
<title>Node1&#45;&gt;Node2</title>
<path fill="none" stroke="midnightblue" d="M876.96,-279.49C816.21,-271.36 723.97,-258.12 644.42,-243 514.04,-218.22 482.65,-206.24 353.42,-176 348.45,-174.84 343.25,-173.61 338.07,-172.39"/>
<polygon fill="midnightblue" stroke="midnightblue" points="338.75,-168.95 328.21,-170.05 337.14,-175.76 338.75,-168.95"/>
</g>
<!-- Node10 -->
<g id="node10" class="node">
<title>Node10</title>
<g id="a_node10"><a xlink:title=" ">
<polygon fill="white" stroke="#bfbfbf" points="284.92,-0.5 284.92,-30.5 385.92,-30.5 385.92,-0.5 284.92,-0.5"/>
<text text-anchor="start" x="292.92" y="-18.5" font-family="Helvetica,sans-Serif" font-size="10.00">gradido_blockchain</text>
<text text-anchor="middle" x="335.42" y="-7.5" font-family="Helvetica,sans-Serif" font-size="10.00">/MemoryManager.h</text>
</a>
</g>
</g>
<!-- Node1&#45;&gt;Node10 -->
<g id="edge17" class="edge">
<title>Node1&#45;&gt;Node10</title>
<path fill="none" stroke="midnightblue" d="M868.69,-288.46C754.35,-287.81 529.66,-281.17 343.42,-243 253.23,-224.52 232.59,-210.94 147.42,-176 83.97,-149.97 44.89,-167.07 8.42,-109 -1.51,-93.19 -3.73,-81.17 8.42,-67 42.06,-27.77 189.96,-18.74 274.88,-16.83"/>
<polygon fill="midnightblue" stroke="midnightblue" points="274.98,-20.33 284.91,-16.64 274.84,-13.33 274.98,-20.33"/>
</g>
<!-- Node13 -->
<g id="node13" class="node">
<title>Node13</title>
<g id="a_node13"><a xlink:title=" ">
<polygon fill="white" stroke="#bfbfbf" points="17.42,-78.5 17.42,-97.5 69.42,-97.5 69.42,-78.5 17.42,-78.5"/>
<text text-anchor="middle" x="43.42" y="-85.5" font-family="Helvetica,sans-Serif" font-size="10.00">assert.h</text>
</a>
</g>
</g>
<!-- Node1&#45;&gt;Node13 -->
<g id="edge55" class="edge">
<title>Node1&#45;&gt;Node13</title>
<path fill="none" stroke="midnightblue" d="M868.56,-283.78C779.75,-278 627.48,-265.65 498.42,-243 378.34,-221.92 347.81,-215.34 232.42,-176 161.77,-151.91 145.14,-142.45 78.42,-109 74.48,-107.02 70.36,-104.81 66.38,-102.59"/>
<polygon fill="midnightblue" stroke="midnightblue" points="67.95,-99.46 57.53,-97.53 64.47,-105.53 67.95,-99.46"/>
</g>
<!-- Node14 -->
<g id="node14" class="node">
<title>Node14</title>
<g id="a_node14"><a xlink:href="_iota_message_to_transaction_task_8h.html" target="_top" xlink:title=" ">
<polygon fill="white" stroke="black" points="362.42,-145.5 362.42,-175.5 526.42,-175.5 526.42,-145.5 362.42,-145.5"/>
<text text-anchor="start" x="370.42" y="-163.5" font-family="Helvetica,sans-Serif" font-size="10.00">../task/IotaMessageToTransaction</text>
<text text-anchor="middle" x="444.42" y="-152.5" font-family="Helvetica,sans-Serif" font-size="10.00">Task.h</text>
</a>
</g>
</g>
<!-- Node1&#45;&gt;Node14 -->
<g id="edge13" class="edge">
<title>Node1&#45;&gt;Node14</title>
<path fill="none" stroke="midnightblue" d="M909.51,-279.4C827.4,-258.59 616.77,-205.19 509.42,-177.98"/>
<polygon fill="midnightblue" stroke="midnightblue" points="510.23,-174.57 499.67,-175.51 508.51,-181.36 510.23,-174.57"/>
</g>
<!-- Node16 -->
<g id="node16" class="node">
<title>Node16</title>
<g id="a_node16"><a xlink:href="_logger_manager_8h.html" target="_top" xlink:title=" ">
<polygon fill="white" stroke="black" points="952.42,-212.5 952.42,-242.5 1056.42,-242.5 1056.42,-212.5 952.42,-212.5"/>
<text text-anchor="start" x="960.42" y="-230.5" font-family="Helvetica,sans-Serif" font-size="10.00">../SingletonManager</text>
<text text-anchor="middle" x="1004.42" y="-219.5" font-family="Helvetica,sans-Serif" font-size="10.00">/LoggerManager.h</text>
</a>
</g>
</g>
<!-- Node1&#45;&gt;Node16 -->
<g id="edge18" class="edge">
<title>Node1&#45;&gt;Node16</title>
<path fill="none" stroke="midnightblue" d="M952.16,-279.48C960.11,-271.72 972.18,-259.94 982.72,-249.66"/>
<polygon fill="midnightblue" stroke="midnightblue" points="985.33,-252.01 990.04,-242.52 980.44,-247 985.33,-252.01"/>
</g>
<!-- Node17 -->
<g id="node17" class="node">
<title>Node17</title>
<g id="a_node17"><a xlink:href="_ordering_manager_8h.html" target="_top" xlink:title=" ">
<polygon fill="white" stroke="black" points="830.42,-212.5 830.42,-242.5 934.42,-242.5 934.42,-212.5 830.42,-212.5"/>
<text text-anchor="start" x="838.42" y="-230.5" font-family="Helvetica,sans-Serif" font-size="10.00">../SingletonManager</text>
<text text-anchor="middle" x="882.42" y="-219.5" font-family="Helvetica,sans-Serif" font-size="10.00">/OrderingManager.h</text>
</a>
</g>
</g>
<!-- Node1&#45;&gt;Node17 -->
<g id="edge20" class="edge">
<title>Node1&#45;&gt;Node17</title>
<path fill="none" stroke="midnightblue" d="M934.68,-279.48C926.73,-271.72 914.65,-259.94 904.12,-249.66"/>
<polygon fill="midnightblue" stroke="midnightblue" points="906.4,-247 896.79,-242.52 901.51,-252.01 906.4,-247"/>
</g>
<!-- Node26 -->
<g id="node26" class="node">
<title>Node26</title>
<g id="a_node26"><a xlink:href="_server_globals_8h.html" target="_top" xlink:title=" ">
<polygon fill="white" stroke="black" points="1615.42,-218 1615.42,-237 1709.42,-237 1709.42,-218 1615.42,-218"/>
<text text-anchor="middle" x="1662.42" y="-225" font-family="Helvetica,sans-Serif" font-size="10.00">../ServerGlobals.h</text>
</a>
</g>
</g>
<!-- Node1&#45;&gt;Node26 -->
<g id="edge34" class="edge">
<title>Node1&#45;&gt;Node26</title>
<path fill="none" stroke="midnightblue" d="M1017.99,-281.83C1162.1,-269.9 1475.96,-243.93 1605.13,-233.24"/>
<polygon fill="midnightblue" stroke="midnightblue" points="1605.53,-236.72 1615.21,-232.41 1604.96,-229.74 1605.53,-236.72"/>
</g>
<!-- Node39 -->
<g id="node39" class="node">
<title>Node39</title>
<g id="a_node39"><a xlink:title=" ">
<polygon fill="white" stroke="#bfbfbf" points="1112.42,-218 1112.42,-237 1168.42,-237 1168.42,-218 1112.42,-218"/>
<text text-anchor="middle" x="1140.42" y="-225" font-family="Helvetica,sans-Serif" font-size="10.00">sodium.h</text>
</a>
</g>
</g>
<!-- Node1&#45;&gt;Node39 -->
<g id="edge50" class="edge">
<title>Node1&#45;&gt;Node39</title>
<path fill="none" stroke="midnightblue" d="M974.43,-279.49C1005.82,-270.76 1055.69,-256.57 1098.42,-243 1101.02,-242.17 1103.7,-241.3 1106.39,-240.41"/>
<polygon fill="midnightblue" stroke="midnightblue" points="1107.7,-243.66 1116.06,-237.14 1105.46,-237.03 1107.7,-243.66"/>
</g>
<!-- Node40 -->
<g id="node40" class="node">
<title>Node40</title>
<g id="a_node40"><a xlink:href="_h_t_t_p_api_8h.html" target="_top" xlink:title=" ">
<polygon fill="white" stroke="black" points="1281.92,-151 1281.92,-170 1344.92,-170 1344.92,-151 1281.92,-151"/>
<text text-anchor="middle" x="1313.42" y="-158" font-family="Helvetica,sans-Serif" font-size="10.00">HTTPApi.h</text>
</a>
</g>
</g>
<!-- Node1&#45;&gt;Node40 -->
<g id="edge51" class="edge">
<title>Node1&#45;&gt;Node40</title>
<path fill="none" stroke="midnightblue" d="M975,-279.5C1000.41,-271.94 1036.5,-259.51 1065.42,-243 1084.35,-232.19 1083.89,-221.68 1103.42,-212 1107.24,-210.11 1211.74,-185.39 1271.85,-171.25"/>
<polygon fill="midnightblue" stroke="midnightblue" points="1272.88,-174.61 1281.81,-168.91 1271.28,-167.79 1272.88,-174.61"/>
</g>
<!-- Node42 -->
<g id="node42" class="node">
<title>Node42</title>
<g id="a_node42"><a xlink:title=" ">
<polygon fill="white" stroke="#bfbfbf" points="1727.92,-218 1727.92,-237 1786.92,-237 1786.92,-218 1727.92,-218"/>
<text text-anchor="middle" x="1757.42" y="-225" font-family="Helvetica,sans-Serif" font-size="10.00">stdexcept</text>
</a>
</g>
</g>
<!-- Node1&#45;&gt;Node42 -->
<g id="edge56" class="edge">
<title>Node1&#45;&gt;Node42</title>
<path fill="none" stroke="midnightblue" d="M1017.94,-286.49C1185.2,-282.66 1586.11,-270.78 1718.42,-243 1721.67,-242.32 1725.01,-241.41 1728.31,-240.39"/>
<polygon fill="midnightblue" stroke="midnightblue" points="1729.62,-243.64 1737.92,-237.05 1727.32,-237.02 1729.62,-243.64"/>
</g>
<!-- Node3 -->
<g id="node3" class="node">
<title>Node3</title>
<g id="a_node3"><a xlink:title=" ">
<polygon fill="white" stroke="#bfbfbf" points="332.42,-78.5 332.42,-97.5 412.42,-97.5 412.42,-78.5 332.42,-78.5"/>
<text text-anchor="middle" x="372.42" y="-85.5" font-family="Helvetica,sans-Serif" font-size="10.00">Poco/Thread.h</text>
</a>
</g>
</g>
<!-- Node2&#45;&gt;Node3 -->
<g id="edge2" class="edge">
<title>Node2&#45;&gt;Node3</title>
<path fill="none" stroke="midnightblue" d="M302.23,-150.86C315.3,-139.33 338.67,-118.74 354.83,-104.5"/>
<polygon fill="midnightblue" stroke="midnightblue" points="357.34,-106.95 362.53,-97.72 352.71,-101.7 357.34,-106.95"/>
</g>
<!-- Node4 -->
<g id="node4" class="node">
<title>Node4</title>
<g id="a_node4"><a xlink:title=" ">
<polygon fill="white" stroke="#bfbfbf" points="87.92,-78.5 87.92,-97.5 178.92,-97.5 178.92,-78.5 87.92,-78.5"/>
<text text-anchor="middle" x="133.42" y="-85.5" font-family="Helvetica,sans-Serif" font-size="10.00">Poco/Condition.h</text>
</a>
</g>
</g>
<!-- Node2&#45;&gt;Node4 -->
<g id="edge3" class="edge">
<title>Node2&#45;&gt;Node4</title>
<path fill="none" stroke="midnightblue" d="M273.24,-151C245.54,-138.72 194.15,-115.93 161.98,-101.67"/>
<polygon fill="midnightblue" stroke="midnightblue" points="163.23,-98.39 152.67,-97.53 160.39,-104.79 163.23,-98.39"/>
</g>
<!-- Node5 -->
<g id="node5" class="node">
<title>Node5</title>
<g id="a_node5"><a xlink:title=" ">
<polygon fill="white" stroke="#bfbfbf" points="1092.42,-78.5 1092.42,-97.5 1172.42,-97.5 1172.42,-78.5 1092.42,-78.5"/>
<text text-anchor="middle" x="1132.42" y="-85.5" font-family="Helvetica,sans-Serif" font-size="10.00">Poco/Logger.h</text>
</a>
</g>
</g>
<!-- Node2&#45;&gt;Node5 -->
<g id="edge4" class="edge">
<title>Node2&#45;&gt;Node5</title>
<path fill="none" stroke="midnightblue" d="M323.55,-150.93C333.07,-148.63 343.61,-146.4 353.42,-145 675.02,-99.25 766.3,-179.38 1083.42,-109 1090.94,-107.33 1098.8,-104.61 1105.96,-101.7"/>
<polygon fill="midnightblue" stroke="midnightblue" points="1107.4,-104.89 1115.19,-97.71 1104.62,-98.46 1107.4,-104.89"/>
</g>
<!-- Node6 -->
<g id="node6" class="node">
<title>Node6</title>
<g id="a_node6"><a xlink:title=" ">
<polygon fill="white" stroke="#bfbfbf" points="196.92,-73 196.92,-103 313.92,-103 313.92,-73 196.92,-73"/>
<text text-anchor="start" x="204.92" y="-91" font-family="Helvetica,sans-Serif" font-size="10.00">gradido_blockchain</text>
<text text-anchor="middle" x="255.42" y="-80" font-family="Helvetica,sans-Serif" font-size="10.00">/lib/MultithreadQueue.h</text>
</a>
</g>
</g>
<!-- Node2&#45;&gt;Node6 -->
<g id="edge5" class="edge">
<title>Node2&#45;&gt;Node6</title>
<path fill="none" stroke="midnightblue" d="M287.88,-150.86C282.85,-141.27 274.53,-125.41 267.57,-112.15"/>
<polygon fill="midnightblue" stroke="midnightblue" points="270.55,-110.3 262.81,-103.08 264.35,-113.56 270.55,-110.3"/>
</g>
<!-- Node7 -->
<g id="node7" class="node">
<title>Node7</title>
<g id="a_node7"><a xlink:href="_c_p_u_task_8h.html" target="_top" xlink:title=" ">
<polygon fill="white" stroke="black" points="430.92,-78.5 430.92,-97.5 527.92,-97.5 527.92,-78.5 430.92,-78.5"/>
<text text-anchor="middle" x="479.42" y="-85.5" font-family="Helvetica,sans-Serif" font-size="10.00">../task/CPUTask.h</text>
</a>
</g>
</g>
<!-- Node2&#45;&gt;Node7 -->
<g id="edge6" class="edge">
<title>Node2&#45;&gt;Node7</title>
<path fill="none" stroke="midnightblue" d="M314.97,-151C347.97,-138.56 409.55,-115.34 447.28,-101.12"/>
<polygon fill="midnightblue" stroke="midnightblue" points="448.66,-104.34 456.78,-97.53 446.19,-97.79 448.66,-104.34"/>
</g>
<!-- Node8 -->
<g id="node8" class="node">
<title>Node8</title>
<g id="a_node8"><a xlink:href="_message_id_8h.html" target="_top" xlink:title=" ">
<polygon fill="white" stroke="black" points="738.42,-78.5 738.42,-97.5 810.42,-97.5 810.42,-78.5 738.42,-78.5"/>
<text text-anchor="middle" x="774.42" y="-85.5" font-family="Helvetica,sans-Serif" font-size="10.00">MessageId.h</text>
</a>
</g>
</g>
<!-- Node2&#45;&gt;Node8 -->
<g id="edge7" class="edge">
<title>Node2&#45;&gt;Node8</title>
<path fill="none" stroke="midnightblue" d="M324.54,-150.99C333.81,-148.77 343.97,-146.57 353.42,-145 519.03,-117.52 567.05,-151.64 729.42,-109 736.04,-107.26 742.92,-104.65 749.25,-101.89"/>
<polygon fill="midnightblue" stroke="midnightblue" points="751.04,-104.92 758.63,-97.52 748.09,-98.57 751.04,-104.92"/>
</g>
<!-- Node11 -->
<g id="node11" class="node">
<title>Node11</title>
<g id="a_node11"><a xlink:title=" ">
<polygon fill="white" stroke="#bfbfbf" points="1190.92,-78.5 1190.92,-97.5 1273.92,-97.5 1273.92,-78.5 1190.92,-78.5"/>
<text text-anchor="middle" x="1232.42" y="-85.5" font-family="Helvetica,sans-Serif" font-size="10.00">unordered_map</text>
</a>
</g>
</g>
<!-- Node2&#45;&gt;Node11 -->
<g id="edge10" class="edge">
<title>Node2&#45;&gt;Node11</title>
<path fill="none" stroke="midnightblue" d="M323.23,-150.97C332.83,-148.64 343.5,-146.38 353.42,-145 718.24,-94.18 821.06,-185.28 1181.42,-109 1189.44,-107.3 1197.84,-104.48 1205.46,-101.48"/>
<polygon fill="midnightblue" stroke="midnightblue" points="1207.05,-104.61 1214.93,-97.52 1204.35,-98.15 1207.05,-104.61"/>
</g>
<!-- Node12 -->
<g id="node12" class="node">
<title>Node12</title>
<g id="a_node12"><a xlink:title=" ">
<polygon fill="white" stroke="#bfbfbf" points="684.92,-78.5 684.92,-97.5 719.92,-97.5 719.92,-78.5 684.92,-78.5"/>
<text text-anchor="middle" x="702.42" y="-85.5" font-family="Helvetica,sans-Serif" font-size="10.00">map</text>
</a>
</g>
</g>
<!-- Node2&#45;&gt;Node12 -->
<g id="edge11" class="edge">
<title>Node2&#45;&gt;Node12</title>
<path fill="none" stroke="midnightblue" d="M325.19,-150.93C334.29,-148.77 344.2,-146.61 353.42,-145 495.29,-120.3 541.39,-161.67 675.42,-109 678.68,-107.72 681.89,-105.94 684.9,-103.97"/>
<polygon fill="midnightblue" stroke="midnightblue" points="687.27,-106.57 693.17,-97.77 683.07,-100.97 687.27,-106.57"/>
</g>
<!-- Node2&#45;&gt;Node13 -->
<g id="edge12" class="edge">
<title>Node2&#45;&gt;Node13</title>
<path fill="none" stroke="midnightblue" d="M240.57,-151.57C196.43,-143.82 131.87,-130.07 78.42,-109 73.98,-107.25 69.42,-105.01 65.12,-102.67"/>
<polygon fill="midnightblue" stroke="midnightblue" points="66.67,-99.53 56.27,-97.53 63.16,-105.58 66.67,-99.53"/>
</g>
<!-- Node9 -->
<g id="node9" class="node">
<title>Node9</title>
<g id="a_node9"><a xlink:title=" ">
<polygon fill="white" stroke="#bfbfbf" points="749.92,-6 749.92,-25 798.92,-25 798.92,-6 749.92,-6"/>
<text text-anchor="middle" x="774.42" y="-13" font-family="Helvetica,sans-Serif" font-size="10.00">cassert</text>
</a>
</g>
</g>
<!-- Node8&#45;&gt;Node9 -->
<g id="edge8" class="edge">
<title>Node8&#45;&gt;Node9</title>
<path fill="none" stroke="midnightblue" d="M774.42,-78.36C774.42,-67.68 774.42,-49.22 774.42,-35.23"/>
<polygon fill="midnightblue" stroke="midnightblue" points="777.92,-35.22 774.42,-25.22 770.92,-35.22 777.92,-35.22"/>
</g>
<!-- Node8&#45;&gt;Node10 -->
<g id="edge9" class="edge">
<title>Node8&#45;&gt;Node10</title>
<path fill="none" stroke="midnightblue" d="M758.18,-78.4C749.8,-74.33 739.3,-69.76 729.42,-67 614.38,-34.81 474.63,-23.06 396.28,-18.83"/>
<polygon fill="midnightblue" stroke="midnightblue" points="396.27,-15.32 386.1,-18.3 395.91,-22.31 396.27,-15.32"/>
</g>
<!-- Node14&#45;&gt;Node7 -->
<g id="edge14" class="edge">
<title>Node14&#45;&gt;Node7</title>
<path fill="none" stroke="midnightblue" d="M451.5,-145.23C456.99,-134.17 464.64,-118.77 470.54,-106.88"/>
<polygon fill="midnightblue" stroke="midnightblue" points="473.69,-108.41 475,-97.89 467.42,-105.29 473.69,-108.41"/>
</g>
<!-- Node14&#45;&gt;Node8 -->
<g id="edge16" class="edge">
<title>Node14&#45;&gt;Node8</title>
<path fill="none" stroke="midnightblue" d="M526.49,-146C603.67,-133.14 710.2,-114.88 729.42,-109 735.75,-107.06 742.37,-104.47 748.52,-101.79"/>
<polygon fill="midnightblue" stroke="midnightblue" points="750.06,-104.94 757.7,-97.6 747.15,-98.57 750.06,-104.94"/>
</g>
<!-- Node15 -->
<g id="node15" class="node">
<title>Node15</title>
<g id="a_node15"><a xlink:title=" ">
<polygon fill="white" stroke="#bfbfbf" points="546.42,-67.5 546.42,-108.5 666.42,-108.5 666.42,-67.5 546.42,-67.5"/>
<text text-anchor="start" x="554.42" y="-96.5" font-family="Helvetica,sans-Serif" font-size="10.00">gradido_blockchain</text>
<text text-anchor="start" x="554.42" y="-85.5" font-family="Helvetica,sans-Serif" font-size="10.00">/model/protobufWrapper</text>
<text text-anchor="middle" x="606.42" y="-74.5" font-family="Helvetica,sans-Serif" font-size="10.00">/GradidoTransaction.h</text>
</a>
</g>
</g>
<!-- Node14&#45;&gt;Node15 -->
<g id="edge15" class="edge">
<title>Node14&#45;&gt;Node15</title>
<path fill="none" stroke="midnightblue" d="M476.81,-145.4C498.35,-136.03 527.15,-123.5 552.14,-112.62"/>
<polygon fill="midnightblue" stroke="midnightblue" points="553.73,-115.75 561.5,-108.55 550.94,-109.33 553.73,-115.75"/>
</g>
<!-- Node16&#45;&gt;Node5 -->
<g id="edge19" class="edge">
<title>Node16&#45;&gt;Node5</title>
<path fill="none" stroke="midnightblue" d="M1056.66,-215.02C1061.31,-214 1065.95,-212.98 1070.42,-212 1143.31,-195.99 1187.65,-234.15 1234.42,-176 1243.05,-165.26 1241.44,-156.86 1234.42,-145 1226.35,-131.37 1189.92,-113.44 1162.89,-101.58"/>
<polygon fill="midnightblue" stroke="midnightblue" points="1163.99,-98.25 1153.42,-97.51 1161.22,-104.67 1163.99,-98.25"/>
</g>
<!-- Node17&#45;&gt;Node2 -->
<g id="edge22" class="edge">
<title>Node17&#45;&gt;Node2</title>
<path fill="none" stroke="midnightblue" d="M830.3,-223.92C735.07,-218.67 526.8,-204.74 353.42,-176 347.22,-174.97 340.71,-173.67 334.35,-172.27"/>
<polygon fill="midnightblue" stroke="midnightblue" points="335.07,-168.84 324.54,-170.01 333.5,-175.67 335.07,-168.84"/>
</g>
<!-- Node17&#45;&gt;Node12 -->
<g id="edge31" class="edge">
<title>Node17&#45;&gt;Node12</title>
<path fill="none" stroke="midnightblue" d="M907.15,-212.45C932.95,-196.04 967.09,-168.19 947.42,-145 883.89,-70.12 819.84,-147.3 729.42,-109 726.2,-107.64 723,-105.81 720,-103.82"/>
<polygon fill="midnightblue" stroke="midnightblue" points="721.83,-100.82 711.72,-97.62 717.63,-106.42 721.83,-100.82"/>
</g>
<!-- Node18 -->
<g id="node18" class="node">
<title>Node18</title>
<g id="a_node18"><a xlink:title=" ">
<polygon fill="white" stroke="#bfbfbf" points="826.42,-145.5 826.42,-175.5 938.42,-175.5 938.42,-145.5 826.42,-145.5"/>
<text text-anchor="start" x="834.42" y="-163.5" font-family="Helvetica,sans-Serif" font-size="10.00">../model/transactions</text>
<text text-anchor="middle" x="882.42" y="-152.5" font-family="Helvetica,sans-Serif" font-size="10.00">/GradidoTransaction.h</text>
</a>
</g>
</g>
<!-- Node17&#45;&gt;Node18 -->
<g id="edge21" class="edge">
<title>Node17&#45;&gt;Node18</title>
<path fill="none" stroke="midnightblue" d="M882.42,-212.4C882.42,-204.64 882.42,-194.81 882.42,-185.86"/>
<polygon fill="midnightblue" stroke="midnightblue" points="885.92,-185.58 882.42,-175.58 878.92,-185.58 885.92,-185.58"/>
</g>
<!-- Node19 -->
<g id="node19" class="node">
<title>Node19</title>
<g id="a_node19"><a xlink:href="_message_listener_8h.html" target="_top" xlink:title=" ">
<polygon fill="white" stroke="black" points="1097.92,-151 1097.92,-170 1224.92,-170 1224.92,-151 1097.92,-151"/>
<text text-anchor="middle" x="1161.42" y="-158" font-family="Helvetica,sans-Serif" font-size="10.00">../iota/MessageListener.h</text>
</a>
</g>
</g>
<!-- Node17&#45;&gt;Node19 -->
<g id="edge23" class="edge">
<title>Node17&#45;&gt;Node19</title>
<path fill="none" stroke="midnightblue" d="M934.66,-214.06C937.62,-213.36 940.56,-212.67 943.42,-212 1002.37,-198.17 1070.34,-182.46 1114.5,-172.29"/>
<polygon fill="midnightblue" stroke="midnightblue" points="1115.41,-175.67 1124.37,-170.01 1113.84,-168.85 1115.41,-175.67"/>
</g>
<!-- Node23 -->
<g id="node23" class="node">
<title>Node23</title>
<g id="a_node23"><a xlink:href="_thread_8h.html" target="_top" xlink:title=" ">
<polygon fill="white" stroke="black" points="994.92,-151 994.92,-170 1079.92,-170 1079.92,-151 994.92,-151"/>
<text text-anchor="middle" x="1037.42" y="-158" font-family="Helvetica,sans-Serif" font-size="10.00">../task/Thread.h</text>
</a>
</g>
</g>
<!-- Node17&#45;&gt;Node23 -->
<g id="edge30" class="edge">
<title>Node17&#45;&gt;Node23</title>
<path fill="none" stroke="midnightblue" d="M916.05,-212.4C943.37,-200.94 981.53,-184.94 1007.72,-173.95"/>
<polygon fill="midnightblue" stroke="midnightblue" points="1009.26,-177.1 1017.13,-170.01 1006.56,-170.65 1009.26,-177.1"/>
</g>
<!-- Node24 -->
<g id="node24" class="node">
<title>Node24</title>
<g id="a_node24"><a xlink:title=" ">
<polygon fill="white" stroke="#bfbfbf" points="544.42,-151 544.42,-170 650.42,-170 650.42,-151 544.42,-151"/>
<text text-anchor="middle" x="597.42" y="-158" font-family="Helvetica,sans-Serif" font-size="10.00">Poco/ExpireCache.h</text>
</a>
</g>
</g>
<!-- Node17&#45;&gt;Node24 -->
<g id="edge32" class="edge">
<title>Node17&#45;&gt;Node24</title>
<path fill="none" stroke="midnightblue" d="M830.38,-214.7C785.38,-204.49 718.6,-189.31 660.42,-176 655.15,-174.8 649.64,-173.53 644.16,-172.27"/>
<polygon fill="midnightblue" stroke="midnightblue" points="644.92,-168.86 634.39,-170.03 643.35,-175.68 644.92,-168.86"/>
</g>
<!-- Node25 -->
<g id="node25" class="node">
<title>Node25</title>
<g id="a_node25"><a xlink:title=" ">
<polygon fill="white" stroke="#bfbfbf" points="668.92,-151 668.92,-170 807.92,-170 807.92,-151 668.92,-151"/>
<text text-anchor="middle" x="738.42" y="-158" font-family="Helvetica,sans-Serif" font-size="10.00">Poco/AccessExpireCache.h</text>
</a>
</g>
</g>
<!-- Node17&#45;&gt;Node25 -->
<g id="edge33" class="edge">
<title>Node17&#45;&gt;Node25</title>
<path fill="none" stroke="midnightblue" d="M851.17,-212.4C826.02,-201.04 790.97,-185.22 766.65,-174.24"/>
<polygon fill="midnightblue" stroke="midnightblue" points="767.82,-170.93 757.26,-170.01 764.94,-177.31 767.82,-170.93"/>
</g>
<!-- Node19&#45;&gt;Node5 -->
<g id="edge24" class="edge">
<title>Node19&#45;&gt;Node5</title>
<path fill="none" stroke="midnightblue" d="M1157.86,-150.86C1153.43,-140.07 1145.73,-121.35 1139.95,-107.32"/>
<polygon fill="midnightblue" stroke="midnightblue" points="1143.04,-105.63 1136,-97.72 1136.57,-108.3 1143.04,-105.63"/>
</g>
<!-- Node19&#45;&gt;Node8 -->
<g id="edge27" class="edge">
<title>Node19&#45;&gt;Node8</title>
<path fill="none" stroke="midnightblue" d="M1121.52,-150.98C1111.1,-148.88 1099.86,-146.75 1089.42,-145 970.01,-125.04 935.92,-141.92 819.42,-109 812.94,-107.17 806.19,-104.57 799.95,-101.85"/>
<polygon fill="midnightblue" stroke="midnightblue" points="801.21,-98.58 790.67,-97.57 798.28,-104.94 801.21,-98.58"/>
</g>
<!-- Node19&#45;&gt;Node12 -->
<g id="edge29" class="edge">
<title>Node19&#45;&gt;Node12</title>
<path fill="none" stroke="midnightblue" d="M1122.68,-150.97C1111.95,-148.8 1100.26,-146.63 1089.42,-145 930.41,-121.1 879.42,-166.94 729.42,-109 726.15,-107.74 722.94,-105.97 719.92,-104"/>
<polygon fill="midnightblue" stroke="midnightblue" points="721.75,-101 711.65,-97.8 717.55,-106.6 721.75,-101"/>
</g>
<!-- Node20 -->
<g id="node20" class="node">
<title>Node20</title>
<g id="a_node20"><a xlink:title=" ">
<polygon fill="white" stroke="#bfbfbf" points="944.42,-73 944.42,-103 1074.42,-103 1074.42,-73 944.42,-73"/>
<text text-anchor="start" x="952.42" y="-91" font-family="Helvetica,sans-Serif" font-size="10.00">gradido_blockchain</text>
<text text-anchor="middle" x="1009.42" y="-80" font-family="Helvetica,sans-Serif" font-size="10.00">/lib/MultithreadContainer.h</text>
</a>
</g>
</g>
<!-- Node19&#45;&gt;Node20 -->
<g id="edge25" class="edge">
<title>Node19&#45;&gt;Node20</title>
<path fill="none" stroke="midnightblue" d="M1143.08,-151C1119.83,-140.21 1079.1,-121.32 1048.69,-107.21"/>
<polygon fill="midnightblue" stroke="midnightblue" points="1050.16,-104.04 1039.62,-103.01 1047.21,-110.39 1050.16,-104.04"/>
</g>
<!-- Node21 -->
<g id="node21" class="node">
<title>Node21</title>
<g id="a_node21"><a xlink:href="_fuzzy_timer_8h.html" target="_top" xlink:title=" ">
<polygon fill="white" stroke="black" points="828.42,-78.5 828.42,-97.5 926.42,-97.5 926.42,-78.5 828.42,-78.5"/>
<text text-anchor="middle" x="877.42" y="-85.5" font-family="Helvetica,sans-Serif" font-size="10.00">../lib/FuzzyTimer.h</text>
</a>
</g>
</g>
<!-- Node19&#45;&gt;Node21 -->
<g id="edge26" class="edge">
<title>Node19&#45;&gt;Node21</title>
<path fill="none" stroke="midnightblue" d="M1120.38,-150.91C1065.12,-139.24 969.75,-118.72 935.42,-109 927.11,-106.65 918.25,-103.78 910.02,-100.96"/>
<polygon fill="midnightblue" stroke="midnightblue" points="910.97,-97.58 900.37,-97.58 908.65,-104.19 910.97,-97.58"/>
</g>
<!-- Node22 -->
<g id="node22" class="node">
<title>Node22</title>
<g id="a_node22"><a xlink:title=" ">
<polygon fill="white" stroke="#bfbfbf" points="1292.42,-78.5 1292.42,-97.5 1334.42,-97.5 1334.42,-78.5 1292.42,-78.5"/>
<text text-anchor="middle" x="1313.42" y="-85.5" font-family="Helvetica,sans-Serif" font-size="10.00">vector</text>
</a>
</g>
</g>
<!-- Node19&#45;&gt;Node22 -->
<g id="edge28" class="edge">
<title>Node19&#45;&gt;Node22</title>
<path fill="none" stroke="midnightblue" d="M1185.9,-150.98C1211,-141.87 1250.86,-126.38 1283.42,-109 1286.66,-107.27 1290,-105.28 1293.22,-103.24"/>
<polygon fill="midnightblue" stroke="midnightblue" points="1295.4,-105.99 1301.78,-97.53 1291.52,-100.16 1295.4,-105.99"/>
</g>
<!-- Node26&#45;&gt;Node5 -->
<g id="edge37" class="edge">
<title>Node26&#45;&gt;Node5</title>
<path fill="none" stroke="midnightblue" d="M1619.26,-217.99C1574.83,-208.9 1503.78,-193.42 1443.42,-176 1403.17,-164.39 1394.78,-156.2 1354.42,-145 1279.16,-124.11 1257.18,-131.59 1182.42,-109 1175.44,-106.89 1168.08,-104.21 1161.21,-101.51"/>
<polygon fill="midnightblue" stroke="midnightblue" points="1162.19,-98.13 1151.61,-97.59 1159.54,-104.61 1162.19,-98.13"/>
</g>
<!-- Node27 -->
<g id="node27" class="node">
<title>Node27</title>
<g id="a_node27"><a xlink:title=" ">
<polygon fill="white" stroke="#bfbfbf" points="1774.42,-6 1774.42,-25 1932.42,-25 1932.42,-6 1774.42,-6"/>
<text text-anchor="middle" x="1853.42" y="-13" font-family="Helvetica,sans-Serif" font-size="10.00">Poco/Util/LayeredConfiguration.h</text>
</a>
</g>
</g>
<!-- Node26&#45;&gt;Node27 -->
<g id="edge35" class="edge">
<title>Node26&#45;&gt;Node27</title>
<path fill="none" stroke="midnightblue" d="M1693.62,-217.96C1759.66,-199.18 1909.77,-152.48 1937.42,-109 1947.43,-93.25 1946.61,-83.25 1937.42,-67 1927.38,-49.25 1908.34,-37.06 1890.92,-29.1"/>
<polygon fill="midnightblue" stroke="midnightblue" points="1892.05,-25.78 1881.48,-25.11 1889.33,-32.23 1892.05,-25.78"/>
</g>
<!-- Node28 -->
<g id="node28" class="node">
<title>Node28</title>
<g id="a_node28"><a xlink:title=" ">
<polygon fill="white" stroke="#bfbfbf" points="1451.92,-151 1451.92,-170 1528.92,-170 1528.92,-151 1451.92,-151"/>
<text text-anchor="middle" x="1490.42" y="-158" font-family="Helvetica,sans-Serif" font-size="10.00">Poco/Types.h</text>
</a>
</g>
</g>
<!-- Node26&#45;&gt;Node28 -->
<g id="edge36" class="edge">
<title>Node26&#45;&gt;Node28</title>
<path fill="none" stroke="midnightblue" d="M1639.58,-217.87C1609.55,-206.52 1556.64,-186.52 1522.58,-173.65"/>
<polygon fill="midnightblue" stroke="midnightblue" points="1523.67,-170.32 1513.08,-170.06 1521.2,-176.87 1523.67,-170.32"/>
</g>
<!-- Node29 -->
<g id="node29" class="node">
<title>Node29</title>
<g id="a_node29"><a xlink:title=" ">
<polygon fill="white" stroke="#bfbfbf" points="1547.42,-151 1547.42,-170 1649.42,-170 1649.42,-151 1547.42,-151"/>
<text text-anchor="middle" x="1598.42" y="-158" font-family="Helvetica,sans-Serif" font-size="10.00">Poco/Net/Context.h</text>
</a>
</g>
</g>
<!-- Node26&#45;&gt;Node29 -->
<g id="edge38" class="edge">
<title>Node26&#45;&gt;Node29</title>
<path fill="none" stroke="midnightblue" d="M1653.79,-217.73C1643.62,-207.4 1626.52,-190.04 1614.01,-177.33"/>
<polygon fill="midnightblue" stroke="midnightblue" points="1616.42,-174.8 1606.91,-170.13 1611.44,-179.71 1616.42,-174.8"/>
</g>
<!-- Node30 -->
<g id="node30" class="node">
<title>Node30</title>
<g id="a_node30"><a xlink:title=" ">
<polygon fill="white" stroke="#bfbfbf" points="1912.92,-151 1912.92,-170 2027.92,-170 2027.92,-151 1912.92,-151"/>
<text text-anchor="middle" x="1970.42" y="-158" font-family="Helvetica,sans-Serif" font-size="10.00">Poco/AtomicCounter.h</text>
</a>
</g>
</g>
<!-- Node26&#45;&gt;Node30 -->
<g id="edge39" class="edge">
<title>Node26&#45;&gt;Node30</title>
<path fill="none" stroke="midnightblue" d="M1694.9,-217.93C1702.9,-215.91 1711.45,-213.81 1719.42,-212 1798.54,-193.99 1818.86,-192.01 1898.42,-176 1904.73,-174.73 1911.36,-173.39 1917.93,-172.07"/>
<polygon fill="midnightblue" stroke="midnightblue" points="1919.05,-175.42 1928.16,-170.01 1917.66,-168.56 1919.05,-175.42"/>
</g>
<!-- Node31 -->
<g id="node31" class="node">
<title>Node31</title>
<g id="a_node31"><a xlink:href="_c_p_u_sheduler_8h.html" target="_top" xlink:title=" ">
<polygon fill="white" stroke="black" points="2045.92,-151 2045.92,-170 2150.92,-170 2150.92,-151 2045.92,-151"/>
<text text-anchor="middle" x="2098.42" y="-158" font-family="Helvetica,sans-Serif" font-size="10.00">task/CPUSheduler.h</text>
</a>
</g>
</g>
<!-- Node26&#45;&gt;Node31 -->
<g id="edge40" class="edge">
<title>Node26&#45;&gt;Node31</title>
<path fill="none" stroke="midnightblue" d="M1692.72,-217.98C1701.3,-215.79 1710.68,-213.6 1719.42,-212 1859.33,-186.41 1897.31,-200.49 2037.42,-176 2043.33,-174.97 2049.52,-173.71 2055.59,-172.37"/>
<polygon fill="midnightblue" stroke="midnightblue" points="2056.68,-175.71 2065.65,-170.06 2055.12,-168.89 2056.68,-175.71"/>
</g>
<!-- Node32 -->
<g id="node32" class="node">
<title>Node32</title>
<g id="a_node32"><a xlink:title=" ">
<polygon fill="white" stroke="#bfbfbf" points="2169.42,-145.5 2169.42,-175.5 2273.42,-175.5 2273.42,-145.5 2169.42,-145.5"/>
<text text-anchor="start" x="2177.42" y="-163.5" font-family="Helvetica,sans-Serif" font-size="10.00">gradido_blockchain</text>
<text text-anchor="middle" x="2221.42" y="-152.5" font-family="Helvetica,sans-Serif" font-size="10.00">/http/JsonRequest.h</text>
</a>
</g>
</g>
<!-- Node26&#45;&gt;Node32 -->
<g id="edge41" class="edge">
<title>Node26&#45;&gt;Node32</title>
<path fill="none" stroke="midnightblue" d="M1692.1,-217.95C1700.83,-215.7 1710.45,-213.5 1719.42,-212 1910.17,-180.18 1964.41,-205.94 2159.29,-176.01"/>
<polygon fill="midnightblue" stroke="midnightblue" points="2159.94,-179.45 2169.28,-174.44 2158.86,-172.53 2159.94,-179.45"/>
</g>
<!-- Node33 -->
<g id="node33" class="node">
<title>Node33</title>
<g id="a_node33"><a xlink:href="controller_2_group_index_8h.html" target="_top" xlink:title=" ">
<polygon fill="white" stroke="black" points="1667.92,-151 1667.92,-170 1784.92,-170 1784.92,-151 1667.92,-151"/>
<text text-anchor="middle" x="1726.42" y="-158" font-family="Helvetica,sans-Serif" font-size="10.00">controller/GroupIndex.h</text>
</a>
</g>
</g>
<!-- Node26&#45;&gt;Node33 -->
<g id="edge42" class="edge">
<title>Node26&#45;&gt;Node33</title>
<path fill="none" stroke="midnightblue" d="M1671.05,-217.73C1681.22,-207.4 1698.32,-190.04 1710.83,-177.33"/>
<polygon fill="midnightblue" stroke="midnightblue" points="1713.4,-179.71 1717.92,-170.13 1708.41,-174.8 1713.4,-179.71"/>
</g>
<!-- Node33&#45;&gt;Node11 -->
<g id="edge49" class="edge">
<title>Node33&#45;&gt;Node11</title>
<path fill="none" stroke="midnightblue" d="M1690.21,-150.98C1679.98,-148.79 1668.8,-146.6 1658.42,-145 1492.94,-119.5 1446.26,-147.94 1283.42,-109 1275.79,-107.18 1267.78,-104.45 1260.43,-101.59"/>
<polygon fill="midnightblue" stroke="midnightblue" points="1261.49,-98.25 1250.91,-97.69 1258.83,-104.72 1261.49,-98.25"/>
</g>
<!-- Node34 -->
<g id="node34" class="node">
<title>Node34</title>
<g id="a_node34"><a xlink:href="model_2files_2_group_index_8h.html" target="_top" xlink:title=" ">
<polygon fill="white" stroke="black" points="1676.92,-78.5 1676.92,-97.5 1809.92,-97.5 1809.92,-78.5 1676.92,-78.5"/>
<text text-anchor="middle" x="1743.42" y="-85.5" font-family="Helvetica,sans-Serif" font-size="10.00">../model/files/GroupIndex.h</text>
</a>
</g>
</g>
<!-- Node33&#45;&gt;Node34 -->
<g id="edge43" class="edge">
<title>Node33&#45;&gt;Node34</title>
<path fill="none" stroke="midnightblue" d="M1728.5,-150.86C1731.08,-140.18 1735.53,-121.72 1738.9,-107.73"/>
<polygon fill="midnightblue" stroke="midnightblue" points="1742.38,-108.26 1741.32,-97.72 1735.57,-106.62 1742.38,-108.26"/>
</g>
<!-- Node35 -->
<g id="node35" class="node">
<title>Node35</title>
<g id="a_node35"><a xlink:title=" ">
<polygon fill="white" stroke="#bfbfbf" points="1828.42,-73 1828.42,-103 1928.42,-103 1928.42,-73 1828.42,-73"/>
<text text-anchor="start" x="1836.42" y="-91" font-family="Helvetica,sans-Serif" font-size="10.00">gradido_blockchain</text>
<text text-anchor="middle" x="1878.42" y="-80" font-family="Helvetica,sans-Serif" font-size="10.00">/lib/DRHashList.h</text>
</a>
</g>
</g>
<!-- Node33&#45;&gt;Node35 -->
<g id="edge45" class="edge">
<title>Node33&#45;&gt;Node35</title>
<path fill="none" stroke="midnightblue" d="M1744.75,-151C1768.01,-140.21 1808.74,-121.32 1839.15,-107.21"/>
<polygon fill="midnightblue" stroke="midnightblue" points="1840.62,-110.39 1848.22,-103.01 1837.68,-104.04 1840.62,-110.39"/>
</g>
<!-- Node36 -->
<g id="node36" class="node">
<title>Node36</title>
<g id="a_node36"><a xlink:title=" ">
<polygon fill="white" stroke="#bfbfbf" points="1480.92,-78.5 1480.92,-97.5 1551.92,-97.5 1551.92,-78.5 1480.92,-78.5"/>
<text text-anchor="middle" x="1516.42" y="-85.5" font-family="Helvetica,sans-Serif" font-size="10.00">Poco/Path.h</text>
</a>
</g>
</g>
<!-- Node33&#45;&gt;Node36 -->
<g id="edge46" class="edge">
<title>Node33&#45;&gt;Node36</title>
<path fill="none" stroke="midnightblue" d="M1694.4,-150.95C1660.88,-141.7 1606.88,-125.99 1561.42,-109 1555.67,-106.85 1549.61,-104.34 1543.87,-101.83"/>
<polygon fill="midnightblue" stroke="midnightblue" points="1545.16,-98.57 1534.6,-97.68 1542.3,-104.96 1545.16,-98.57"/>
</g>
<!-- Node37 -->
<g id="node37" class="node">
<title>Node37</title>
<g id="a_node37"><a xlink:href="_controller_base_8h.html" target="_top" xlink:title=" ">
<polygon fill="white" stroke="black" points="1569.92,-78.5 1569.92,-97.5 1658.92,-97.5 1658.92,-78.5 1569.92,-78.5"/>
<text text-anchor="middle" x="1614.42" y="-85.5" font-family="Helvetica,sans-Serif" font-size="10.00">ControllerBase.h</text>
</a>
</g>
</g>
<!-- Node33&#45;&gt;Node37 -->
<g id="edge47" class="edge">
<title>Node33&#45;&gt;Node37</title>
<path fill="none" stroke="midnightblue" d="M1712.69,-150.86C1693.79,-138.96 1659.55,-117.41 1636.9,-103.15"/>
<polygon fill="midnightblue" stroke="midnightblue" points="1638.59,-100.08 1628.26,-97.72 1634.86,-106 1638.59,-100.08"/>
</g>
<!-- Node34&#45;&gt;Node27 -->
<g id="edge44" class="edge">
<title>Node34&#45;&gt;Node27</title>
<path fill="none" stroke="midnightblue" d="M1756.91,-78.36C1775.46,-66.46 1809.09,-44.91 1831.34,-30.65"/>
<polygon fill="midnightblue" stroke="midnightblue" points="1833.29,-33.56 1839.82,-25.22 1829.51,-27.66 1833.29,-33.56"/>
</g>
<!-- Node38 -->
<g id="node38" class="node">
<title>Node38</title>
<g id="a_node38"><a xlink:title=" ">
<polygon fill="white" stroke="#bfbfbf" points="1575.92,-6 1575.92,-25 1652.92,-25 1652.92,-6 1575.92,-6"/>
<text text-anchor="middle" x="1614.42" y="-13" font-family="Helvetica,sans-Serif" font-size="10.00">Poco/Mutex.h</text>
</a>
</g>
</g>
<!-- Node37&#45;&gt;Node38 -->
<g id="edge48" class="edge">
<title>Node37&#45;&gt;Node38</title>
<path fill="none" stroke="midnightblue" d="M1614.42,-78.36C1614.42,-67.68 1614.42,-49.22 1614.42,-35.23"/>
<polygon fill="midnightblue" stroke="midnightblue" points="1617.92,-35.22 1614.42,-25.22 1610.92,-35.22 1617.92,-35.22"/>
</g>
<!-- Node40&#45;&gt;Node8 -->
<g id="edge52" class="edge">
<title>Node40&#45;&gt;Node8</title>
<path fill="none" stroke="midnightblue" d="M1281.62,-152.95C1267.26,-150.18 1250.03,-147.11 1234.42,-145 1050.94,-120.26 998.69,-155.23 819.42,-109 812.79,-107.29 805.91,-104.69 799.58,-101.93"/>
<polygon fill="midnightblue" stroke="midnightblue" points="800.74,-98.61 790.2,-97.56 797.78,-104.96 800.74,-98.61"/>
</g>
<!-- Node40&#45;&gt;Node22 -->
<g id="edge54" class="edge">
<title>Node40&#45;&gt;Node22</title>
<path fill="none" stroke="midnightblue" d="M1313.42,-150.86C1313.42,-140.18 1313.42,-121.72 1313.42,-107.73"/>
<polygon fill="midnightblue" stroke="midnightblue" points="1316.92,-107.72 1313.42,-97.72 1309.92,-107.72 1316.92,-107.72"/>
</g>
<!-- Node41 -->
<g id="node41" class="node">
<title>Node41</title>
<g id="a_node41"><a xlink:title=" ">
<polygon fill="white" stroke="#bfbfbf" points="1352.42,-78.5 1352.42,-97.5 1462.42,-97.5 1462.42,-78.5 1352.42,-78.5"/>
<text text-anchor="middle" x="1407.42" y="-85.5" font-family="Helvetica,sans-Serif" font-size="10.00">rapidjson/document.h</text>
</a>
</g>
</g>
<!-- Node40&#45;&gt;Node41 -->
<g id="edge53" class="edge">
<title>Node40&#45;&gt;Node41</title>
<path fill="none" stroke="midnightblue" d="M1324.94,-150.86C1340.59,-139.12 1368.77,-117.98 1387.79,-103.72"/>
<polygon fill="midnightblue" stroke="midnightblue" points="1389.9,-106.52 1395.8,-97.72 1385.7,-100.92 1389.9,-106.52"/>
</g>
</g>
</svg>
        <g id="navigator" transform="translate(0 0)" fill="#404254">
                <rect fill="#f2f5e9" fill-opacity="0.5" stroke="#606060" stroke-width=".5" x="0" y="0" width="60" height="60"/>
                <use id="zoomplus" xlink:href="#zoomPlus" x="17" y="9" onmousedown="handleZoom(evt,'in')"/>
                <use id="zoomminus" xlink:href="#zoomMin" x="42" y="9" onmousedown="handleZoom(evt,'out')"/>
                <use id="reset" xlink:href="#resetDef" x="30" y="36" onmousedown="handleReset()"/>
                <g id="arrowUp" xlink:href="#dirArrow" transform="translate(30 24)" onmousedown="handlePan(0,-1)">
                  <use xlink:href="#rim" fill="#404040">
                        <set attributeName="fill" to="#808080" begin="arrowUp.mouseover" end="arrowUp.mouseout"/>
                  </use>
                  <path fill="none" stroke="white" stroke-width="1.5" d="M0,-3.0v7 M-2.5,-0.5L0,-3.0L2.5,-0.5"/>
                </g>
                <g id="arrowRight" xlink:href="#dirArrow" transform="rotate(90) translate(36 -43)" onmousedown="handlePan(1,0)">
                  <use xlink:href="#rim" fill="#404040">
                        <set attributeName="fill" to="#808080" begin="arrowRight.mouseover" end="arrowRight.mouseout"/>
                  </use>
                  <path fill="none" stroke="white" stroke-width="1.5" d="M0,-3.0v7 M-2.5,-0.5L0,-3.0L2.5,-0.5"/>
                </g>
                <g id="arrowDown" xlink:href="#dirArrow" transform="rotate(180) translate(-30 -48)" onmousedown="handlePan(0,1)">
                  <use xlink:href="#rim" fill="#404040">
                        <set attributeName="fill" to="#808080" begin="arrowDown.mouseover" end="arrowDown.mouseout"/>
                  </use>
                  <path fill="none" stroke="white" stroke-width="1.5" d="M0,-3.0v7 M-2.5,-0.5L0,-3.0L2.5,-0.5"/>
                </g>
                <g id="arrowLeft" xlink:href="#dirArrow" transform="rotate(270) translate(-36 17)" onmousedown="handlePan(-1,0)">
                  <use xlink:href="#rim" fill="#404040">
                        <set attributeName="fill" to="#808080" begin="arrowLeft.mouseover" end="arrowLeft.mouseout"/>
                  </use>
                  <path fill="none" stroke="white" stroke-width="1.5" d="M0,-3.0v7 M-2.5,-0.5L0,-3.0L2.5,-0.5"/>
                </g>
        </g>
        <svg viewBox="0 0 15 15" width="100%" height="30px" preserveAspectRatio="xMaxYMin meet">
         <g id="arrow_out" transform="scale(0.3 0.3)">
          <a xlink:href="_message_validator_8cpp__incl_org.svg" target="_base">
           <rect id="button" ry="5" rx="5" y="6" x="6" height="38" width="38"
                fill="#f2f5e9" fill-opacity="0.5" stroke="#606060" stroke-width="1.0"/>
           <path id="arrow"
             d="M 11.500037,31.436501 C 11.940474,20.09759 22.043105,11.32322 32.158766,21.979434 L 37.068811,17.246167 C 37.068811,17.246167 37.088388,32 37.088388,32 L 22.160133,31.978069 C 22.160133,31.978069 26.997745,27.140456 26.997745,27.140456 C 18.528582,18.264221 13.291696,25.230495 11.500037,31.436501 z"
             style="fill:#404040;"/>
          </a>
         </g>
        </svg>
</svg>
