<?xml version="1.0" encoding="UTF-8" standalone="no"?>
<!DOCTYPE svg PUBLIC "-//W3C//DTD SVG 1.1//EN"
 "http://www.w3.org/Graphics/SVG/1.1/DTD/svg11.dtd">
<!-- Generated by graphviz version 2.50.0 (20211204.2007)
 -->
<!-- Title: src/iota/MessageValidator.h Pages: 1 -->
<svg width="759pt" height="162pt"
 viewBox="0.00 0.00 758.50 162.00" xmlns="http://www.w3.org/2000/svg" xmlns:xlink="http://www.w3.org/1999/xlink">
<g id="graph0" class="graph" transform="scale(1 1) rotate(0) translate(4 158)">
<title>src/iota/MessageValidator.h</title>
<polygon fill="white" stroke="transparent" points="-4,4 -4,-158 754.5,-158 754.5,4 -4,4"/>
<!-- Node1 -->
<g id="node1" class="node">
<title>Node1</title>
<g id="a_node1"><a xlink:title=" ">
<polygon fill="#bfbfbf" stroke="black" points="383,-134.5 383,-153.5 521,-153.5 521,-134.5 383,-134.5"/>
<text text-anchor="middle" x="452" y="-141.5" font-family="Helvetica,sans-Serif" font-size="10.00">src/iota/MessageValidator.h</text>
</a>
</g>
</g>
<!-- Node2 -->
<g id="node2" class="node">
<title>Node2</title>
<g id="a_node2"><a xlink:href="_ordering_manager_8h.html" target="_top" xlink:title=" ">
<polygon fill="white" stroke="black" points="354.5,-67.5 354.5,-97.5 465.5,-97.5 465.5,-67.5 354.5,-67.5"/>
<text text-anchor="start" x="362.5" y="-85.5" font-family="Helvetica,sans-Serif" font-size="10.00">src/SingletonManager</text>
<text text-anchor="middle" x="410" y="-74.5" font-family="Helvetica,sans-Serif" font-size="10.00">/OrderingManager.h</text>
</a>
</g>
</g>
<!-- Node1&#45;&gt;Node2 -->
<g id="edge1" class="edge">
<title>Node1&#45;&gt;Node2</title>
<path fill="none" stroke="midnightblue" d="M440.17,-126.25C433.78,-117.19 425.97,-106.12 419.9,-97.52"/>
<polygon fill="midnightblue" stroke="midnightblue" points="437.36,-128.32 445.98,-134.48 443.07,-124.29 437.36,-128.32"/>
</g>
<!-- Node6 -->
<g id="node6" class="node">
<title>Node6</title>
<g id="a_node6"><a xlink:href="_message_validator_8cpp.html" target="_top" xlink:title=" ">
<polygon fill="white" stroke="black" points="601.5,-6 601.5,-25 750.5,-25 750.5,-6 601.5,-6"/>
<text text-anchor="middle" x="676" y="-13" font-family="Helvetica,sans-Serif" font-size="10.00">src/iota/MessageValidator.cpp</text>
</a>
</g>
</g>
<!-- Node1&#45;&gt;Node6 -->
<g id="edge7" class="edge">
<title>Node1&#45;&gt;Node6</title>
<path fill="none" stroke="midnightblue" d="M476.17,-129.35C522.5,-103.18 622.62,-46.65 660.79,-25.09"/>
<polygon fill="midnightblue" stroke="midnightblue" points="474.38,-126.34 467.4,-134.31 477.82,-132.44 474.38,-126.34"/>
</g>
<!-- Node3 -->
<g id="node3" class="node">
<title>Node3</title>
<g id="a_node3"><a xlink:href="_main_server_8cpp.html" target="_top" xlink:title=" ">
<polygon fill="white" stroke="black" points="0,-6 0,-25 100,-25 100,-6 0,-6"/>
<text text-anchor="middle" x="50" y="-13" font-family="Helvetica,sans-Serif" font-size="10.00">src/MainServer.cpp</text>
</a>
</g>
</g>
<!-- Node2&#45;&gt;Node3 -->
<g id="edge2" class="edge">
<title>Node2&#45;&gt;Node3</title>
<path fill="none" stroke="midnightblue" d="M344.39,-71.94C283.24,-62.68 189.62,-47.64 109,-31 100.53,-29.25 91.43,-27.13 82.98,-25.07"/>
<polygon fill="midnightblue" stroke="midnightblue" points="343.88,-75.4 354.29,-73.43 344.92,-68.48 343.88,-75.4"/>
</g>
<!-- Node4 -->
<g id="node4" class="node">
<title>Node4</title>
<g id="a_node4"><a xlink:href="_ordering_manager_8cpp.html" target="_top" xlink:title=" ">
<polygon fill="white" stroke="black" points="118.5,-0.5 118.5,-30.5 231.5,-30.5 231.5,-0.5 118.5,-0.5"/>
<text text-anchor="start" x="126.5" y="-18.5" font-family="Helvetica,sans-Serif" font-size="10.00">src/SingletonManager</text>
<text text-anchor="middle" x="175" y="-7.5" font-family="Helvetica,sans-Serif" font-size="10.00">/OrderingManager.cpp</text>
</a>
</g>
</g>
<!-- Node2&#45;&gt;Node4 -->
<g id="edge3" class="edge">
<title>Node2&#45;&gt;Node4</title>
<path fill="none" stroke="midnightblue" d="M349.32,-64.71C311.07,-54.14 262.26,-40.63 226.02,-30.61"/>
<polygon fill="midnightblue" stroke="midnightblue" points="348.73,-68.18 359.3,-67.48 350.59,-61.44 348.73,-68.18"/>
</g>
<!-- Node5 -->
<g id="node5" class="node">
<title>Node5</title>
<g id="a_node5"><a xlink:href="_message_listener_8cpp.html" target="_top" xlink:title=" ">
<polygon fill="white" stroke="black" points="249.5,-6 249.5,-25 394.5,-25 394.5,-6 249.5,-6"/>
<text text-anchor="middle" x="322" y="-13" font-family="Helvetica,sans-Serif" font-size="10.00">src/iota/MessageListener.cpp</text>
</a>
</g>
</g>
<!-- Node2&#45;&gt;Node5 -->
<g id="edge4" class="edge">
<title>Node2&#45;&gt;Node5</title>
<path fill="none" stroke="midnightblue" d="M382.66,-61.31C366.14,-49.1 345.93,-34.18 333.52,-25.01"/>
<polygon fill="midnightblue" stroke="midnightblue" points="380.78,-64.27 390.91,-67.4 384.94,-58.64 380.78,-64.27"/>
</g>
<!-- Node2&#45;&gt;Node6 -->
<g id="edge5" class="edge">
<title>Node2&#45;&gt;Node6</title>
<path fill="none" stroke="midnightblue" d="M475.63,-65.46C527.92,-52.68 599.1,-35.29 641.04,-25.04"/>
<polygon fill="midnightblue" stroke="midnightblue" points="474.65,-62.1 465.76,-67.87 476.31,-68.9 474.65,-62.1"/>
</g>
<!-- Node7 -->
<g id="node7" class="node">
<title>Node7</title>
<g id="a_node7"><a xlink:href="_iota_message_to_transaction_task_8cpp.html" target="_top" xlink:title=" ">
<polygon fill="white" stroke="black" points="412.5,-0.5 412.5,-30.5 583.5,-30.5 583.5,-0.5 412.5,-0.5"/>
<text text-anchor="start" x="420.5" y="-18.5" font-family="Helvetica,sans-Serif" font-size="10.00">src/task/IotaMessageToTransaction</text>
<text text-anchor="middle" x="498" y="-7.5" font-family="Helvetica,sans-Serif" font-size="10.00">Task.cpp</text>
</a>
</g>
</g>
<!-- Node2&#45;&gt;Node7 -->
<g id="edge6" class="edge">
<title>Node2&#45;&gt;Node7</title>
<path fill="none" stroke="midnightblue" d="M437.14,-61.45C450.68,-51.45 466.73,-39.6 478.94,-30.58"/>
<polygon fill="midnightblue" stroke="midnightblue" points="435.06,-58.64 429.09,-67.4 439.22,-64.27 435.06,-58.64"/>
</g>
</g>
</svg>
