<?xml version="1.0" encoding="UTF-8" standalone="no"?>
<!DOCTYPE svg PUBLIC "-//W3C//DTD SVG 1.1//EN"
 "http://www.w3.org/Graphics/SVG/1.1/DTD/svg11.dtd">
<!-- Generated by graphviz version 2.50.0 (20211204.2007)
 -->
<!-- Title: src/iota/MessageValidator.h Pages: 1 -->
<svg width="862pt" height="162pt"
 viewBox="0.00 0.00 862.00 162.00" xmlns="http://www.w3.org/2000/svg" xmlns:xlink="http://www.w3.org/1999/xlink">
<g id="graph0" class="graph" transform="scale(1 1) rotate(0) translate(4 158)">
<title>src/iota/MessageValidator.h</title>
<polygon fill="white" stroke="transparent" points="-4,4 -4,-158 858,-158 858,4 -4,4"/>
<!-- Node1 -->
<g id="node1" class="node">
<title>Node1</title>
<g id="a_node1"><a xlink:title=" ">
<polygon fill="#bfbfbf" stroke="black" points="421,-134.5 421,-153.5 559,-153.5 559,-134.5 421,-134.5"/>
<text text-anchor="middle" x="490" y="-141.5" font-family="Helvetica,sans-Serif" font-size="10.00">src/iota/MessageValidator.h</text>
</a>
</g>
</g>
<!-- Node2 -->
<g id="node2" class="node">
<title>Node2</title>
<g id="a_node2"><a xlink:title=" ">
<polygon fill="white" stroke="#bfbfbf" points="0,-73 0,-92 80,-92 80,-73 0,-73"/>
<text text-anchor="middle" x="40" y="-80" font-family="Helvetica,sans-Serif" font-size="10.00">Poco/Thread.h</text>
</a>
</g>
</g>
<!-- Node1&#45;&gt;Node2 -->
<g id="edge1" class="edge">
<title>Node1&#45;&gt;Node2</title>
<path fill="none" stroke="midnightblue" d="M420.96,-138.96C340.59,-133.4 204.18,-121.32 89,-98 84.58,-97.1 79.98,-95.99 75.44,-94.78"/>
<polygon fill="midnightblue" stroke="midnightblue" points="76.3,-91.39 65.72,-92.04 74.39,-98.13 76.3,-91.39"/>
</g>
<!-- Node3 -->
<g id="node3" class="node">
<title>Node3</title>
<g id="a_node3"><a xlink:title=" ">
<polygon fill="white" stroke="#bfbfbf" points="98.5,-73 98.5,-92 189.5,-92 189.5,-73 98.5,-73"/>
<text text-anchor="middle" x="144" y="-80" font-family="Helvetica,sans-Serif" font-size="10.00">Poco/Condition.h</text>
</a>
</g>
</g>
<!-- Node1&#45;&gt;Node3 -->
<g id="edge2" class="edge">
<title>Node1&#45;&gt;Node3</title>
<path fill="none" stroke="midnightblue" d="M421.73,-134.49C362.52,-126.63 274.69,-113.79 199,-98 194.18,-96.99 189.15,-95.83 184.17,-94.61"/>
<polygon fill="midnightblue" stroke="midnightblue" points="184.68,-91.12 174.12,-92.05 182.95,-97.91 184.68,-91.12"/>
</g>
<!-- Node4 -->
<g id="node4" class="node">
<title>Node4</title>
<g id="a_node4"><a xlink:title=" ">
<polygon fill="white" stroke="#bfbfbf" points="208,-73 208,-92 288,-92 288,-73 208,-73"/>
<text text-anchor="middle" x="248" y="-80" font-family="Helvetica,sans-Serif" font-size="10.00">Poco/Logger.h</text>
</a>
</g>
</g>
<!-- Node1&#45;&gt;Node4 -->
<g id="edge3" class="edge">
<title>Node1&#45;&gt;Node4</title>
<path fill="none" stroke="midnightblue" d="M450.28,-134.45C411.14,-125.86 349.72,-111.93 297,-98 293.35,-97.04 289.57,-95.99 285.79,-94.92"/>
<polygon fill="midnightblue" stroke="midnightblue" points="286.48,-91.48 275.91,-92.07 284.54,-98.21 286.48,-91.48"/>
</g>
<!-- Node5 -->
<g id="node5" class="node">
<title>Node5</title>
<g id="a_node5"><a xlink:title=" ">
<polygon fill="white" stroke="#bfbfbf" points="306.5,-67.5 306.5,-97.5 423.5,-97.5 423.5,-67.5 306.5,-67.5"/>
<text text-anchor="start" x="314.5" y="-85.5" font-family="Helvetica,sans-Serif" font-size="10.00">gradido_blockchain</text>
<text text-anchor="middle" x="365" y="-74.5" font-family="Helvetica,sans-Serif" font-size="10.00">/lib/MultithreadQueue.h</text>
</a>
</g>
</g>
<!-- Node1&#45;&gt;Node5 -->
<g id="edge4" class="edge">
<title>Node1&#45;&gt;Node5</title>
<path fill="none" stroke="midnightblue" d="M472.09,-134.48C454.29,-126 426.42,-112.74 403.58,-101.86"/>
<polygon fill="midnightblue" stroke="midnightblue" points="404.99,-98.66 394.46,-97.52 401.99,-104.98 404.99,-98.66"/>
</g>
<!-- Node6 -->
<g id="node6" class="node">
<title>Node6</title>
<g id="a_node6"><a xlink:href="_c_p_u_task_8h.html" target="_top" xlink:title=" ">
<polygon fill="white" stroke="black" points="441.5,-73 441.5,-92 538.5,-92 538.5,-73 441.5,-73"/>
<text text-anchor="middle" x="490" y="-80" font-family="Helvetica,sans-Serif" font-size="10.00">../task/CPUTask.h</text>
</a>
</g>
</g>
<!-- Node1&#45;&gt;Node6 -->
<g id="edge5" class="edge">
<title>Node1&#45;&gt;Node6</title>
<path fill="none" stroke="midnightblue" d="M490,-134.48C490,-126.08 490,-112.98 490,-102.16"/>
<polygon fill="midnightblue" stroke="midnightblue" points="493.5,-102.01 490,-92.01 486.5,-102.01 493.5,-102.01"/>
</g>
<!-- Node7 -->
<g id="node7" class="node">
<title>Node7</title>
<g id="a_node7"><a xlink:href="_message_id_8h.html" target="_top" xlink:title=" ">
<polygon fill="white" stroke="black" points="557,-73 557,-92 629,-92 629,-73 557,-73"/>
<text text-anchor="middle" x="593" y="-80" font-family="Helvetica,sans-Serif" font-size="10.00">MessageId.h</text>
</a>
</g>
</g>
<!-- Node1&#45;&gt;Node7 -->
<g id="edge6" class="edge">
<title>Node1&#45;&gt;Node7</title>
<path fill="none" stroke="midnightblue" d="M504.76,-134.48C521.66,-124.71 549.58,-108.58 569.49,-97.08"/>
<polygon fill="midnightblue" stroke="midnightblue" points="571.36,-100.04 578.27,-92.01 567.86,-93.98 571.36,-100.04"/>
</g>
<!-- Node10 -->
<g id="node10" class="node">
<title>Node10</title>
<g id="a_node10"><a xlink:title=" ">
<polygon fill="white" stroke="#bfbfbf" points="647.5,-73 647.5,-92 730.5,-92 730.5,-73 647.5,-73"/>
<text text-anchor="middle" x="689" y="-80" font-family="Helvetica,sans-Serif" font-size="10.00">unordered_map</text>
</a>
</g>
</g>
<!-- Node1&#45;&gt;Node10 -->
<g id="edge9" class="edge">
<title>Node1&#45;&gt;Node10</title>
<path fill="none" stroke="midnightblue" d="M518.51,-134.48C553.24,-124.09 612.04,-106.51 650.69,-94.95"/>
<polygon fill="midnightblue" stroke="midnightblue" points="651.96,-98.23 660.54,-92.01 649.96,-91.52 651.96,-98.23"/>
</g>
<!-- Node11 -->
<g id="node11" class="node">
<title>Node11</title>
<g id="a_node11"><a xlink:title=" ">
<polygon fill="white" stroke="#bfbfbf" points="748.5,-73 748.5,-92 783.5,-92 783.5,-73 748.5,-73"/>
<text text-anchor="middle" x="766" y="-80" font-family="Helvetica,sans-Serif" font-size="10.00">map</text>
</a>
</g>
</g>
<!-- Node1&#45;&gt;Node11 -->
<g id="edge10" class="edge">
<title>Node1&#45;&gt;Node11</title>
<path fill="none" stroke="midnightblue" d="M559.22,-136.75C610.32,-130.66 680.93,-119.12 740,-98 741.2,-97.57 742.42,-97.09 743.63,-96.57"/>
<polygon fill="midnightblue" stroke="midnightblue" points="745.26,-99.66 752.64,-92.06 742.13,-93.4 745.26,-99.66"/>
</g>
<!-- Node12 -->
<g id="node12" class="node">
<title>Node12</title>
<g id="a_node12"><a xlink:title=" ">
<polygon fill="white" stroke="#bfbfbf" points="802,-73 802,-92 854,-92 854,-73 802,-73"/>
<text text-anchor="middle" x="828" y="-80" font-family="Helvetica,sans-Serif" font-size="10.00">assert.h</text>
</a>
</g>
</g>
<!-- Node1&#45;&gt;Node12 -->
<g id="edge11" class="edge">
<title>Node1&#45;&gt;Node12</title>
<path fill="none" stroke="midnightblue" d="M559.29,-137.58C621.37,-131.58 714.45,-119.75 793,-98 795.44,-97.32 797.94,-96.52 800.42,-95.65"/>
<polygon fill="midnightblue" stroke="midnightblue" points="801.7,-98.91 809.77,-92.04 799.18,-92.38 801.7,-98.91"/>
</g>
<!-- Node8 -->
<g id="node8" class="node">
<title>Node8</title>
<g id="a_node8"><a xlink:title=" ">
<polygon fill="white" stroke="#bfbfbf" points="521.5,-6 521.5,-25 570.5,-25 570.5,-6 521.5,-6"/>
<text text-anchor="middle" x="546" y="-13" font-family="Helvetica,sans-Serif" font-size="10.00">cassert</text>
</a>
</g>
</g>
<!-- Node7&#45;&gt;Node8 -->
<g id="edge7" class="edge">
<title>Node7&#45;&gt;Node8</title>
<path fill="none" stroke="midnightblue" d="M586.66,-72.73C579.4,-62.7 567.34,-46.01 558.24,-33.42"/>
<polygon fill="midnightblue" stroke="midnightblue" points="560.93,-31.18 552.24,-25.13 555.26,-35.28 560.93,-31.18"/>
</g>
<!-- Node9 -->
<g id="node9" class="node">
<title>Node9</title>
<g id="a_node9"><a xlink:title=" ">
<polygon fill="white" stroke="#bfbfbf" points="588.5,-0.5 588.5,-30.5 689.5,-30.5 689.5,-0.5 588.5,-0.5"/>
<text text-anchor="start" x="596.5" y="-18.5" font-family="Helvetica,sans-Serif" font-size="10.00">gradido_blockchain</text>
<text text-anchor="middle" x="639" y="-7.5" font-family="Helvetica,sans-Serif" font-size="10.00">/MemoryManager.h</text>
</a>
</g>
</g>
<!-- Node7&#45;&gt;Node9 -->
<g id="edge8" class="edge">
<title>Node7&#45;&gt;Node9</title>
<path fill="none" stroke="midnightblue" d="M599.2,-72.73C605.3,-64.12 614.86,-50.61 623.08,-38.99"/>
<polygon fill="midnightblue" stroke="midnightblue" points="626.11,-40.77 629.03,-30.59 620.4,-36.73 626.11,-40.77"/>
</g>
</g>
</svg>
