<?xml version="1.0" encoding="UTF-8" standalone="no"?>
<!DOCTYPE svg PUBLIC "-//W3C//DTD SVG 1.1//EN"
 "http://www.w3.org/Graphics/SVG/1.1/DTD/svg11.dtd">
<!-- Generated by graphviz version 2.50.0 (20211204.2007)
 -->
<!-- Title: src/iota/MessageId.cpp Pages: 1 -->
<svg width="433pt" height="151pt"
 viewBox="0.00 0.00 432.50 151.00" xmlns="http://www.w3.org/2000/svg" xmlns:xlink="http://www.w3.org/1999/xlink">
<g id="graph0" class="graph" transform="scale(1 1) rotate(0) translate(4 147)">
<title>src/iota/MessageId.cpp</title>
<polygon fill="white" stroke="transparent" points="-4,4 -4,-147 428.5,-147 428.5,4 -4,4"/>
<!-- Node1 -->
<g id="node1" class="node">
<title>Node1</title>
<g id="a_node1"><a xlink:title=" ">
<polygon fill="#bfbfbf" stroke="black" points="159.5,-123.5 159.5,-142.5 277.5,-142.5 277.5,-123.5 159.5,-123.5"/>
<text text-anchor="middle" x="218.5" y="-130.5" font-family="Helvetica,sans-Serif" font-size="10.00">src/iota/MessageId.cpp</text>
</a>
</g>
</g>
<!-- Node2 -->
<g id="node2" class="node">
<title>Node2</title>
<g id="a_node2"><a xlink:href="_message_id_8h.html" target="_top" xlink:title=" ">
<polygon fill="white" stroke="black" points="68.5,-67.5 68.5,-86.5 140.5,-86.5 140.5,-67.5 68.5,-67.5"/>
<text text-anchor="middle" x="104.5" y="-74.5" font-family="Helvetica,sans-Serif" font-size="10.00">MessageId.h</text>
</a>
</g>
</g>
<!-- Node1&#45;&gt;Node2 -->
<g id="edge1" class="edge">
<title>Node1&#45;&gt;Node2</title>
<path fill="none" stroke="midnightblue" d="M200.44,-123.44C181.93,-114.68 152.92,-100.94 131.64,-90.86"/>
<polygon fill="midnightblue" stroke="midnightblue" points="133.01,-87.63 122.48,-86.52 130.02,-93.96 133.01,-87.63"/>
</g>
<!-- Node5 -->
<g id="node5" class="node">
<title>Node5</title>
<g id="a_node5"><a xlink:href="_bin_text_converter_8h.html" target="_top" xlink:title=" ">
<polygon fill="white" stroke="black" points="158.5,-67.5 158.5,-86.5 278.5,-86.5 278.5,-67.5 158.5,-67.5"/>
<text text-anchor="middle" x="218.5" y="-74.5" font-family="Helvetica,sans-Serif" font-size="10.00">../lib/BinTextConverter.h</text>
</a>
</g>
</g>
<!-- Node1&#45;&gt;Node5 -->
<g id="edge4" class="edge">
<title>Node1&#45;&gt;Node5</title>
<path fill="none" stroke="midnightblue" d="M218.5,-123.08C218.5,-116.01 218.5,-105.86 218.5,-96.99"/>
<polygon fill="midnightblue" stroke="midnightblue" points="222,-96.75 218.5,-86.75 215,-96.75 222,-96.75"/>
</g>
<!-- Node7 -->
<g id="node7" class="node">
<title>Node7</title>
<g id="a_node7"><a xlink:title=" ">
<polygon fill="white" stroke="#bfbfbf" points="296.5,-67.5 296.5,-86.5 424.5,-86.5 424.5,-67.5 296.5,-67.5"/>
<text text-anchor="middle" x="360.5" y="-74.5" font-family="Helvetica,sans-Serif" font-size="10.00">../lib/DataTypeConverter.h</text>
</a>
</g>
</g>
<!-- Node1&#45;&gt;Node7 -->
<g id="edge6" class="edge">
<title>Node1&#45;&gt;Node7</title>
<path fill="none" stroke="midnightblue" d="M241,-123.44C264.58,-114.48 301.82,-100.31 328.46,-90.18"/>
<polygon fill="midnightblue" stroke="midnightblue" points="330,-93.34 338.1,-86.52 327.51,-86.8 330,-93.34"/>
</g>
<!-- Node3 -->
<g id="node3" class="node">
<title>Node3</title>
<g id="a_node3"><a xlink:title=" ">
<polygon fill="white" stroke="#bfbfbf" points="0,-6 0,-25 49,-25 49,-6 0,-6"/>
<text text-anchor="middle" x="24.5" y="-13" font-family="Helvetica,sans-Serif" font-size="10.00">cassert</text>
</a>
</g>
</g>
<!-- Node2&#45;&gt;Node3 -->
<g id="edge2" class="edge">
<title>Node2&#45;&gt;Node3</title>
<path fill="none" stroke="midnightblue" d="M93.04,-67.48C80.33,-58.02 59.59,-42.6 44.25,-31.19"/>
<polygon fill="midnightblue" stroke="midnightblue" points="46.05,-28.17 35.94,-25.01 41.88,-33.79 46.05,-28.17"/>
</g>
<!-- Node4 -->
<g id="node4" class="node">
<title>Node4</title>
<g id="a_node4"><a xlink:title=" ">
<polygon fill="white" stroke="#bfbfbf" points="67,-0.5 67,-30.5 168,-30.5 168,-0.5 67,-0.5"/>
<text text-anchor="start" x="75" y="-18.5" font-family="Helvetica,sans-Serif" font-size="10.00">gradido_blockchain</text>
<text text-anchor="middle" x="117.5" y="-7.5" font-family="Helvetica,sans-Serif" font-size="10.00">/MemoryManager.h</text>
</a>
</g>
</g>
<!-- Node2&#45;&gt;Node4 -->
<g id="edge3" class="edge">
<title>Node2&#45;&gt;Node4</title>
<path fill="none" stroke="midnightblue" d="M106.36,-67.48C107.91,-60.4 110.19,-49.97 112.28,-40.39"/>
<polygon fill="midnightblue" stroke="midnightblue" points="115.72,-41.04 114.44,-30.52 108.88,-39.55 115.72,-41.04"/>
</g>
<!-- Node6 -->
<g id="node6" class="node">
<title>Node6</title>
<g id="a_node6"><a xlink:title=" ">
<polygon fill="white" stroke="#bfbfbf" points="198,-6 198,-25 239,-25 239,-6 198,-6"/>
<text text-anchor="middle" x="218.5" y="-13" font-family="Helvetica,sans-Serif" font-size="10.00">string</text>
</a>
</g>
</g>
<!-- Node5&#45;&gt;Node6 -->
<g id="edge5" class="edge">
<title>Node5&#45;&gt;Node6</title>
<path fill="none" stroke="midnightblue" d="M218.5,-67.48C218.5,-59.08 218.5,-45.98 218.5,-35.16"/>
<polygon fill="midnightblue" stroke="midnightblue" points="222,-35.01 218.5,-25.01 215,-35.01 222,-35.01"/>
</g>
</g>
</svg>
