<?xml version="1.0" encoding="UTF-8" standalone="no"?>
<!DOCTYPE svg PUBLIC "-//W3C//DTD SVG 1.1//EN"
 "http://www.w3.org/Graphics/SVG/1.1/DTD/svg11.dtd">
<!-- Generated by graphviz version 2.50.0 (20211204.2007)
 -->
<!-- Title: src/iota/MessageListener.h Pages: 1 -->
<svg width="1624pt" height="296pt"
 viewBox="0.00 0.00 1623.50 296.00" xmlns="http://www.w3.org/2000/svg" xmlns:xlink="http://www.w3.org/1999/xlink">
<g id="graph0" class="graph" transform="scale(1 1) rotate(0) translate(4 292)">
<title>src/iota/MessageListener.h</title>
<polygon fill="white" stroke="transparent" points="-4,4 -4,-292 1619.5,-292 1619.5,4 -4,4"/>
<!-- Node1 -->
<g id="node1" class="node">
<title>Node1</title>
<g id="a_node1"><a xlink:title=" ">
<polygon fill="#bfbfbf" stroke="black" points="209.5,-268.5 209.5,-287.5 343.5,-287.5 343.5,-268.5 209.5,-268.5"/>
<text text-anchor="middle" x="276.5" y="-275.5" font-family="Helvetica,sans-Serif" font-size="10.00">src/iota/MessageListener.h</text>
</a>
</g>
</g>
<!-- Node2 -->
<g id="node2" class="node">
<title>Node2</title>
<g id="a_node2"><a xlink:href="_ordering_manager_8h.html" target="_top" xlink:title=" ">
<polygon fill="white" stroke="black" points="221,-201.5 221,-231.5 332,-231.5 332,-201.5 221,-201.5"/>
<text text-anchor="start" x="229" y="-219.5" font-family="Helvetica,sans-Serif" font-size="10.00">src/SingletonManager</text>
<text text-anchor="middle" x="276.5" y="-208.5" font-family="Helvetica,sans-Serif" font-size="10.00">/OrderingManager.h</text>
</a>
</g>
</g>
<!-- Node1&#45;&gt;Node2 -->
<g id="edge1" class="edge">
<title>Node1&#45;&gt;Node2</title>
<path fill="none" stroke="midnightblue" d="M276.5,-258.23C276.5,-249.59 276.5,-239.5 276.5,-231.52"/>
<polygon fill="midnightblue" stroke="midnightblue" points="273,-258.48 276.5,-268.48 280,-258.48 273,-258.48"/>
</g>
<!-- Node5 -->
<g id="node5" class="node">
<title>Node5</title>
<g id="a_node5"><a xlink:href="_message_listener_8cpp.html" target="_top" xlink:title=" ">
<polygon fill="white" stroke="black" points="0,-140 0,-159 145,-159 145,-140 0,-140"/>
<text text-anchor="middle" x="72.5" y="-147" font-family="Helvetica,sans-Serif" font-size="10.00">src/iota/MessageListener.cpp</text>
</a>
</g>
</g>
<!-- Node1&#45;&gt;Node5 -->
<g id="edge26" class="edge">
<title>Node1&#45;&gt;Node5</title>
<path fill="none" stroke="midnightblue" d="M253.96,-263.02C211.53,-236.71 120.97,-180.56 86.35,-159.09"/>
<polygon fill="midnightblue" stroke="midnightblue" points="252.14,-266.01 262.48,-268.31 255.82,-260.06 252.14,-266.01"/>
</g>
<!-- Node8 -->
<g id="node8" class="node">
<title>Node8</title>
<g id="a_node8"><a xlink:href="_group_8h.html" target="_top" xlink:title=" ">
<polygon fill="white" stroke="black" points="539.5,-207 539.5,-226 649.5,-226 649.5,-207 539.5,-207"/>
<text text-anchor="middle" x="594.5" y="-214" font-family="Helvetica,sans-Serif" font-size="10.00">src/controller/Group.h</text>
</a>
</g>
</g>
<!-- Node1&#45;&gt;Node8 -->
<g id="edge7" class="edge">
<title>Node1&#45;&gt;Node8</title>
<path fill="none" stroke="midnightblue" d="M331.99,-266.62C393.58,-255.09 491.8,-236.72 549.02,-226.01"/>
<polygon fill="midnightblue" stroke="midnightblue" points="331.25,-263.2 322.06,-268.48 332.53,-270.08 331.25,-263.2"/>
</g>
<!-- Node3 -->
<g id="node3" class="node">
<title>Node3</title>
<g id="a_node3"><a xlink:href="_main_server_8cpp.html" target="_top" xlink:title=" ">
<polygon fill="white" stroke="black" points="123.5,-73 123.5,-92 223.5,-92 223.5,-73 123.5,-73"/>
<text text-anchor="middle" x="173.5" y="-80" font-family="Helvetica,sans-Serif" font-size="10.00">src/MainServer.cpp</text>
</a>
</g>
</g>
<!-- Node2&#45;&gt;Node3 -->
<g id="edge2" class="edge">
<title>Node2&#45;&gt;Node3</title>
<path fill="none" stroke="midnightblue" d="M230.69,-196.65C216.57,-188.78 202.19,-178.32 192.5,-165 176.08,-142.45 173.6,-107.88 173.39,-92.01"/>
<polygon fill="midnightblue" stroke="midnightblue" points="229.41,-199.93 239.89,-201.45 232.64,-193.72 229.41,-199.93"/>
</g>
<!-- Node4 -->
<g id="node4" class="node">
<title>Node4</title>
<g id="a_node4"><a xlink:href="_ordering_manager_8cpp.html" target="_top" xlink:title=" ">
<polygon fill="white" stroke="black" points="408,-134.5 408,-164.5 521,-164.5 521,-134.5 408,-134.5"/>
<text text-anchor="start" x="416" y="-152.5" font-family="Helvetica,sans-Serif" font-size="10.00">src/SingletonManager</text>
<text text-anchor="middle" x="464.5" y="-141.5" font-family="Helvetica,sans-Serif" font-size="10.00">/OrderingManager.cpp</text>
</a>
</g>
</g>
<!-- Node2&#45;&gt;Node4 -->
<g id="edge3" class="edge">
<title>Node2&#45;&gt;Node4</title>
<path fill="none" stroke="midnightblue" d="M326.85,-198.09C357.2,-187.6 395.35,-174.41 423.79,-164.58"/>
<polygon fill="midnightblue" stroke="midnightblue" points="325.6,-194.82 317.29,-201.4 327.89,-201.44 325.6,-194.82"/>
</g>
<!-- Node2&#45;&gt;Node5 -->
<g id="edge4" class="edge">
<title>Node2&#45;&gt;Node5</title>
<path fill="none" stroke="midnightblue" d="M222.93,-198.43C183.14,-185.75 130.56,-169 99.27,-159.03"/>
<polygon fill="midnightblue" stroke="midnightblue" points="221.9,-201.77 232.49,-201.48 224.02,-195.11 221.9,-201.77"/>
</g>
<!-- Node6 -->
<g id="node6" class="node">
<title>Node6</title>
<g id="a_node6"><a xlink:href="_message_validator_8cpp.html" target="_top" xlink:title=" ">
<polygon fill="white" stroke="black" points="202,-140 202,-159 351,-159 351,-140 202,-140"/>
<text text-anchor="middle" x="276.5" y="-147" font-family="Helvetica,sans-Serif" font-size="10.00">src/iota/MessageValidator.cpp</text>
</a>
</g>
</g>
<!-- Node2&#45;&gt;Node6 -->
<g id="edge5" class="edge">
<title>Node2&#45;&gt;Node6</title>
<path fill="none" stroke="midnightblue" d="M276.5,-191.25C276.5,-180.02 276.5,-167.38 276.5,-159.19"/>
<polygon fill="midnightblue" stroke="midnightblue" points="273,-191.4 276.5,-201.4 280,-191.4 273,-191.4"/>
</g>
<!-- Node7 -->
<g id="node7" class="node">
<title>Node7</title>
<g id="a_node7"><a xlink:href="_iota_message_to_transaction_task_8cpp.html" target="_top" xlink:title=" ">
<polygon fill="white" stroke="black" points="242,-67.5 242,-97.5 413,-97.5 413,-67.5 242,-67.5"/>
<text text-anchor="start" x="250" y="-85.5" font-family="Helvetica,sans-Serif" font-size="10.00">src/task/IotaMessageToTransaction</text>
<text text-anchor="middle" x="327.5" y="-74.5" font-family="Helvetica,sans-Serif" font-size="10.00">Task.cpp</text>
</a>
</g>
</g>
<!-- Node2&#45;&gt;Node7 -->
<g id="edge6" class="edge">
<title>Node2&#45;&gt;Node7</title>
<path fill="none" stroke="midnightblue" d="M325.38,-196.71C338.84,-189.01 351.84,-178.63 359.5,-165 372.09,-142.61 354.11,-114.26 340.44,-97.58"/>
<polygon fill="midnightblue" stroke="midnightblue" points="323.73,-193.62 316.52,-201.38 327,-199.81 323.73,-193.62"/>
</g>
<!-- Node8&#45;&gt;Node4 -->
<g id="edge14" class="edge">
<title>Node8&#45;&gt;Node4</title>
<path fill="none" stroke="midnightblue" d="M568.18,-202.34C546.3,-191.4 515.22,-175.86 492.8,-164.65"/>
<polygon fill="midnightblue" stroke="midnightblue" points="566.73,-205.53 577.24,-206.87 569.86,-199.27 566.73,-205.53"/>
</g>
<!-- Node9 -->
<g id="node9" class="node">
<title>Node9</title>
<g id="a_node9"><a xlink:href="_group_manager_8h.html" target="_top" xlink:title=" ">
<polygon fill="white" stroke="black" points="539,-134.5 539,-164.5 650,-164.5 650,-134.5 539,-134.5"/>
<text text-anchor="start" x="547" y="-152.5" font-family="Helvetica,sans-Serif" font-size="10.00">src/SingletonManager</text>
<text text-anchor="middle" x="594.5" y="-141.5" font-family="Helvetica,sans-Serif" font-size="10.00">/GroupManager.h</text>
</a>
</g>
</g>
<!-- Node8&#45;&gt;Node9 -->
<g id="edge8" class="edge">
<title>Node8&#45;&gt;Node9</title>
<path fill="none" stroke="midnightblue" d="M594.5,-196.41C594.5,-186.22 594.5,-173.9 594.5,-164.59"/>
<polygon fill="midnightblue" stroke="midnightblue" points="591,-196.73 594.5,-206.73 598,-196.73 591,-196.73"/>
</g>
<!-- Node12 -->
<g id="node12" class="node">
<title>Node12</title>
<g id="a_node12"><a xlink:href="_group_8cpp.html" target="_top" xlink:title=" ">
<polygon fill="white" stroke="black" points="664,-6 664,-25 785,-25 785,-6 664,-6"/>
<text text-anchor="middle" x="724.5" y="-13" font-family="Helvetica,sans-Serif" font-size="10.00">src/controller/Group.cpp</text>
</a>
</g>
</g>
<!-- Node8&#45;&gt;Node12 -->
<g id="edge15" class="edge">
<title>Node8&#45;&gt;Node12</title>
<path fill="none" stroke="midnightblue" d="M616.32,-201.16C643.94,-181.59 690.37,-143.68 710.5,-98 721.38,-73.3 723.83,-40.93 724.37,-25.47"/>
<polygon fill="midnightblue" stroke="midnightblue" points="614.31,-198.29 608.06,-206.85 618.28,-204.05 614.31,-198.29"/>
</g>
<!-- Node13 -->
<g id="node13" class="node">
<title>Node13</title>
<g id="a_node13"><a xlink:href="_transaction_entry_8h.html" target="_top" xlink:title=" ">
<polygon fill="white" stroke="black" points="981.5,-140 981.5,-159 1125.5,-159 1125.5,-140 981.5,-140"/>
<text text-anchor="middle" x="1053.5" y="-147" font-family="Helvetica,sans-Serif" font-size="10.00">src/model/TransactionEntry.h</text>
</a>
</g>
</g>
<!-- Node8&#45;&gt;Node13 -->
<g id="edge16" class="edge">
<title>Node8&#45;&gt;Node13</title>
<path fill="none" stroke="midnightblue" d="M659.84,-206.25C748.83,-193.64 906.92,-171.26 993.21,-159.04"/>
<polygon fill="midnightblue" stroke="midnightblue" points="659.28,-202.79 649.87,-207.66 660.26,-209.72 659.28,-202.79"/>
</g>
<!-- Node9&#45;&gt;Node3 -->
<g id="edge10" class="edge">
<title>Node9&#45;&gt;Node3</title>
<path fill="none" stroke="midnightblue" d="M528.8,-134.01C396.68,-111.99 360.11,-121.33 232.5,-98 223.58,-96.37 213.99,-94.2 205.19,-92.03"/>
<polygon fill="midnightblue" stroke="midnightblue" points="528.46,-137.5 538.9,-135.72 529.63,-130.6 528.46,-137.5"/>
</g>
<!-- Node9&#45;&gt;Node7 -->
<g id="edge13" class="edge">
<title>Node9&#45;&gt;Node7</title>
<path fill="none" stroke="midnightblue" d="M529.12,-132.58C485.14,-121.88 427.7,-107.89 385.38,-97.59"/>
<polygon fill="midnightblue" stroke="midnightblue" points="528.31,-135.99 538.85,-134.95 529.96,-129.19 528.31,-135.99"/>
</g>
<!-- Node10 -->
<g id="node10" class="node">
<title>Node10</title>
<g id="a_node10"><a xlink:href="_json_r_p_c_handler_8cpp.html" target="_top" xlink:title=" ">
<polygon fill="white" stroke="black" points="431.5,-67.5 431.5,-97.5 547.5,-97.5 547.5,-67.5 431.5,-67.5"/>
<text text-anchor="start" x="439.5" y="-85.5" font-family="Helvetica,sans-Serif" font-size="10.00">src/JSONRPCInterface</text>
<text text-anchor="middle" x="489.5" y="-74.5" font-family="Helvetica,sans-Serif" font-size="10.00">/JsonRPCHandler.cpp</text>
</a>
</g>
</g>
<!-- Node9&#45;&gt;Node10 -->
<g id="edge9" class="edge">
<title>Node9&#45;&gt;Node10</title>
<path fill="none" stroke="midnightblue" d="M563.02,-129.02C546.68,-118.9 527.09,-106.77 512.24,-97.58"/>
<polygon fill="midnightblue" stroke="midnightblue" points="561.37,-132.11 571.72,-134.4 565.06,-126.16 561.37,-132.11"/>
</g>
<!-- Node11 -->
<g id="node11" class="node">
<title>Node11</title>
<g id="a_node11"><a xlink:href="_group_manager_8cpp.html" target="_top" xlink:title=" ">
<polygon fill="white" stroke="black" points="566,-67.5 566,-97.5 677,-97.5 677,-67.5 566,-67.5"/>
<text text-anchor="start" x="574" y="-85.5" font-family="Helvetica,sans-Serif" font-size="10.00">src/SingletonManager</text>
<text text-anchor="middle" x="621.5" y="-74.5" font-family="Helvetica,sans-Serif" font-size="10.00">/GroupManager.cpp</text>
</a>
</g>
</g>
<!-- Node9&#45;&gt;Node11 -->
<g id="edge11" class="edge">
<title>Node9&#45;&gt;Node11</title>
<path fill="none" stroke="midnightblue" d="M604.27,-124.99C608.08,-115.8 612.33,-105.58 615.65,-97.58"/>
<polygon fill="midnightblue" stroke="midnightblue" points="600.96,-123.82 600.36,-134.4 607.43,-126.5 600.96,-123.82"/>
</g>
<!-- Node9&#45;&gt;Node12 -->
<g id="edge12" class="edge">
<title>Node9&#45;&gt;Node12</title>
<path fill="none" stroke="midnightblue" d="M640.36,-130.03C656.14,-121.98 672.97,-111.31 685.5,-98 706.14,-76.07 717.76,-41.19 722.28,-25.12"/>
<polygon fill="midnightblue" stroke="midnightblue" points="638.69,-126.94 631.23,-134.46 641.75,-133.24 638.69,-126.94"/>
</g>
<!-- Node14 -->
<g id="node14" class="node">
<title>Node14</title>
<g id="a_node14"><a xlink:href="controller_2_block_8h.html" target="_top" xlink:title=" ">
<polygon fill="white" stroke="black" points="772,-73 772,-92 881,-92 881,-73 772,-73"/>
<text text-anchor="middle" x="826.5" y="-80" font-family="Helvetica,sans-Serif" font-size="10.00">src/controller/Block.h</text>
</a>
</g>
</g>
<!-- Node13&#45;&gt;Node14 -->
<g id="edge17" class="edge">
<title>Node13&#45;&gt;Node14</title>
<path fill="none" stroke="midnightblue" d="M1013.66,-137.09C968.75,-124.23 896.76,-103.62 856.41,-92.06"/>
<polygon fill="midnightblue" stroke="midnightblue" points="1012.78,-140.48 1023.36,-139.87 1014.71,-133.75 1012.78,-140.48"/>
</g>
<!-- Node16 -->
<g id="node16" class="node">
<title>Node16</title>
<g id="a_node16"><a xlink:href="controller_2_block_index_8cpp.html" target="_top" xlink:title=" ">
<polygon fill="white" stroke="black" points="899,-73 899,-92 1042,-92 1042,-73 899,-73"/>
<text text-anchor="middle" x="970.5" y="-80" font-family="Helvetica,sans-Serif" font-size="10.00">src/controller/BlockIndex.cpp</text>
</a>
</g>
</g>
<!-- Node13&#45;&gt;Node16 -->
<g id="edge20" class="edge">
<title>Node13&#45;&gt;Node16</title>
<path fill="none" stroke="midnightblue" d="M1034.43,-133.57C1018.05,-120.74 995,-102.69 981.52,-92.13"/>
<polygon fill="midnightblue" stroke="midnightblue" points="1032.28,-136.32 1042.31,-139.73 1036.59,-130.81 1032.28,-136.32"/>
</g>
<!-- Node17 -->
<g id="node17" class="node">
<title>Node17</title>
<g id="a_node17"><a xlink:href="_transaction_entry_8cpp.html" target="_top" xlink:title=" ">
<polygon fill="white" stroke="black" points="1060,-73 1060,-92 1215,-92 1215,-73 1060,-73"/>
<text text-anchor="middle" x="1137.5" y="-80" font-family="Helvetica,sans-Serif" font-size="10.00">src/model/TransactionEntry.cpp</text>
</a>
</g>
</g>
<!-- Node13&#45;&gt;Node17 -->
<g id="edge21" class="edge">
<title>Node13&#45;&gt;Node17</title>
<path fill="none" stroke="midnightblue" d="M1072.8,-133.57C1089.38,-120.74 1112.71,-102.69 1126.35,-92.13"/>
<polygon fill="midnightblue" stroke="midnightblue" points="1070.6,-130.85 1064.83,-139.73 1074.88,-136.38 1070.6,-130.85"/>
</g>
<!-- Node18 -->
<g id="node18" class="node">
<title>Node18</title>
<g id="a_node18"><a xlink:href="model_2files_2_block_index_8cpp.html" target="_top" xlink:title=" ">
<polygon fill="white" stroke="black" points="1233,-73 1233,-92 1382,-92 1382,-73 1233,-73"/>
<text text-anchor="middle" x="1307.5" y="-80" font-family="Helvetica,sans-Serif" font-size="10.00">src/model/files/BlockIndex.cpp</text>
</a>
</g>
</g>
<!-- Node13&#45;&gt;Node18 -->
<g id="edge22" class="edge">
<title>Node13&#45;&gt;Node18</title>
<path fill="none" stroke="midnightblue" d="M1096.86,-137.4C1146.99,-124.58 1228.42,-103.74 1273.96,-92.08"/>
<polygon fill="midnightblue" stroke="midnightblue" points="1095.79,-134.07 1086.97,-139.94 1097.52,-140.85 1095.79,-134.07"/>
</g>
<!-- Node19 -->
<g id="node19" class="node">
<title>Node19</title>
<g id="a_node19"><a xlink:href="_write_transactions_to_block_task_8h.html" target="_top" xlink:title=" ">
<polygon fill="white" stroke="black" points="1400.5,-67.5 1400.5,-97.5 1534.5,-97.5 1534.5,-67.5 1400.5,-67.5"/>
<text text-anchor="start" x="1408.5" y="-85.5" font-family="Helvetica,sans-Serif" font-size="10.00">src/task/WriteTransactions</text>
<text text-anchor="middle" x="1467.5" y="-74.5" font-family="Helvetica,sans-Serif" font-size="10.00">ToBlockTask.h</text>
</a>
</g>
</g>
<!-- Node13&#45;&gt;Node19 -->
<g id="edge23" class="edge">
<title>Node13&#45;&gt;Node19</title>
<path fill="none" stroke="midnightblue" d="M1125.86,-138.55C1194.39,-128.92 1300.12,-113.54 1391.5,-98 1394.41,-97.5 1397.39,-96.99 1400.39,-96.46"/>
<polygon fill="midnightblue" stroke="midnightblue" points="1125.02,-135.13 1115.61,-139.98 1125.99,-142.06 1125.02,-135.13"/>
</g>
<!-- Node14&#45;&gt;Node12 -->
<g id="edge19" class="edge">
<title>Node14&#45;&gt;Node12</title>
<path fill="none" stroke="midnightblue" d="M804.17,-67.27C783.98,-54.4 754.91,-35.88 738.04,-25.13"/>
<polygon fill="midnightblue" stroke="midnightblue" points="802.43,-70.31 812.74,-72.73 806.19,-64.41 802.43,-70.31"/>
</g>
<!-- Node15 -->
<g id="node15" class="node">
<title>Node15</title>
<g id="a_node15"><a xlink:href="controller_2_block_8cpp.html" target="_top" xlink:title=" ">
<polygon fill="white" stroke="black" points="803,-6 803,-25 922,-25 922,-6 803,-6"/>
<text text-anchor="middle" x="862.5" y="-13" font-family="Helvetica,sans-Serif" font-size="10.00">src/controller/Block.cpp</text>
</a>
</g>
</g>
<!-- Node14&#45;&gt;Node15 -->
<g id="edge18" class="edge">
<title>Node14&#45;&gt;Node15</title>
<path fill="none" stroke="midnightblue" d="M836.38,-63.66C843.32,-51.13 852.3,-34.91 857.72,-25.13"/>
<polygon fill="midnightblue" stroke="midnightblue" points="833.14,-62.29 831.36,-72.73 839.26,-65.68 833.14,-62.29"/>
</g>
<!-- Node20 -->
<g id="node20" class="node">
<title>Node20</title>
<g id="a_node20"><a xlink:href="_task_observer_8cpp.html" target="_top" xlink:title=" ">
<polygon fill="white" stroke="black" points="1309.5,-6 1309.5,-25 1463.5,-25 1463.5,-6 1309.5,-6"/>
<text text-anchor="middle" x="1386.5" y="-13" font-family="Helvetica,sans-Serif" font-size="10.00">src/controller/TaskObserver.cpp</text>
</a>
</g>
</g>
<!-- Node19&#45;&gt;Node20 -->
<g id="edge24" class="edge">
<title>Node19&#45;&gt;Node20</title>
<path fill="none" stroke="midnightblue" d="M1441.96,-61.01C1426.93,-48.94 1408.69,-34.3 1397.33,-25.19"/>
<polygon fill="midnightblue" stroke="midnightblue" points="1439.93,-63.87 1449.92,-67.4 1444.32,-58.41 1439.93,-63.87"/>
</g>
<!-- Node21 -->
<g id="node21" class="node">
<title>Node21</title>
<g id="a_node21"><a xlink:href="_write_transactions_to_block_task_8cpp.html" target="_top" xlink:title=" ">
<polygon fill="white" stroke="black" points="1481.5,-0.5 1481.5,-30.5 1615.5,-30.5 1615.5,-0.5 1481.5,-0.5"/>
<text text-anchor="start" x="1489.5" y="-18.5" font-family="Helvetica,sans-Serif" font-size="10.00">src/task/WriteTransactions</text>
<text text-anchor="middle" x="1548.5" y="-7.5" font-family="Helvetica,sans-Serif" font-size="10.00">ToBlockTask.cpp</text>
</a>
</g>
</g>
<!-- Node19&#45;&gt;Node21 -->
<g id="edge25" class="edge">
<title>Node19&#45;&gt;Node21</title>
<path fill="none" stroke="midnightblue" d="M1493.19,-60.88C1505.5,-51.01 1519.93,-39.43 1530.96,-30.58"/>
<polygon fill="midnightblue" stroke="midnightblue" points="1490.68,-58.41 1485.08,-67.4 1495.07,-63.87 1490.68,-58.41"/>
</g>
</g>
</svg>
