<?xml version="1.0" encoding="UTF-8" standalone="no"?>
<!DOCTYPE svg PUBLIC "-//W3C//DTD SVG 1.1//EN"
 "http://www.w3.org/Graphics/SVG/1.1/DTD/svg11.dtd">
<!-- Generated by graphviz version 2.50.0 (20211204.2007)
 -->
<!-- Title: src/SingletonManager/OrderingManager.h Pages: 1 -->
<svg width="1292pt" height="240pt"
 viewBox="0.00 0.00 1291.50 240.00" xmlns="http://www.w3.org/2000/svg" xmlns:xlink="http://www.w3.org/1999/xlink">
<g id="graph0" class="graph" transform="scale(1 1) rotate(0) translate(4 236)">
<title>src/SingletonManager/OrderingManager.h</title>
<polygon fill="white" stroke="transparent" points="-4,4 -4,-236 1287.5,-236 1287.5,4 -4,4"/>
<!-- Node1 -->
<g id="node1" class="node">
<title>Node1</title>
<g id="a_node1"><a xlink:title=" ">
<polygon fill="#bfbfbf" stroke="black" points="779.5,-201.5 779.5,-231.5 890.5,-231.5 890.5,-201.5 779.5,-201.5"/>
<text text-anchor="start" x="787.5" y="-219.5" font-family="Helvetica,sans-Serif" font-size="10.00">src/SingletonManager</text>
<text text-anchor="middle" x="835" y="-208.5" font-family="Helvetica,sans-Serif" font-size="10.00">/OrderingManager.h</text>
</a>
</g>
</g>
<!-- Node2 -->
<g id="node2" class="node">
<title>Node2</title>
<g id="a_node2"><a xlink:title=" ">
<polygon fill="white" stroke="#bfbfbf" points="389,-134.5 389,-164.5 501,-164.5 501,-134.5 389,-134.5"/>
<text text-anchor="start" x="397" y="-152.5" font-family="Helvetica,sans-Serif" font-size="10.00">../model/transactions</text>
<text text-anchor="middle" x="445" y="-141.5" font-family="Helvetica,sans-Serif" font-size="10.00">/GradidoTransaction.h</text>
</a>
</g>
</g>
<!-- Node1&#45;&gt;Node2 -->
<g id="edge1" class="edge">
<title>Node1&#45;&gt;Node2</title>
<path fill="none" stroke="midnightblue" d="M779.32,-207.98C716.53,-199.24 611.18,-183.82 511.28,-165.17"/>
<polygon fill="midnightblue" stroke="midnightblue" points="511.8,-161.71 501.32,-163.3 510.5,-168.59 511.8,-161.71"/>
</g>
<!-- Node3 -->
<g id="node3" class="node">
<title>Node3</title>
<g id="a_node3"><a xlink:href="_message_validator_8h.html" target="_top" xlink:title=" ">
<polygon fill="white" stroke="black" points="519.5,-140 519.5,-159 650.5,-159 650.5,-140 519.5,-140"/>
<text text-anchor="middle" x="585" y="-147" font-family="Helvetica,sans-Serif" font-size="10.00">../iota/MessageValidator.h</text>
</a>
</g>
</g>
<!-- Node1&#45;&gt;Node3 -->
<g id="edge2" class="edge">
<title>Node1&#45;&gt;Node3</title>
<path fill="none" stroke="midnightblue" d="M781.06,-201.48C735.08,-189.52 669.89,-172.57 627.53,-161.56"/>
<polygon fill="midnightblue" stroke="midnightblue" points="628.36,-158.16 617.8,-159.03 626.6,-164.93 628.36,-158.16"/>
</g>
<!-- Node13 -->
<g id="node13" class="node">
<title>Node13</title>
<g id="a_node13"><a xlink:title=" ">
<polygon fill="white" stroke="#bfbfbf" points="817.5,-73 817.5,-92 852.5,-92 852.5,-73 817.5,-73"/>
<text text-anchor="middle" x="835" y="-80" font-family="Helvetica,sans-Serif" font-size="10.00">map</text>
</a>
</g>
</g>
<!-- Node1&#45;&gt;Node13 -->
<g id="edge22" class="edge">
<title>Node1&#45;&gt;Node13</title>
<path fill="none" stroke="midnightblue" d="M801.59,-201.34C786.61,-193.09 770.44,-181.11 762,-165 755.6,-152.8 755.6,-146.2 762,-134 767.35,-123.8 791.36,-108.28 810.4,-97.14"/>
<polygon fill="midnightblue" stroke="midnightblue" points="812.31,-100.08 819.24,-92.07 808.83,-94.01 812.31,-100.08"/>
</g>
<!-- Node15 -->
<g id="node15" class="node">
<title>Node15</title>
<g id="a_node15"><a xlink:href="_message_listener_8h.html" target="_top" xlink:title=" ">
<polygon fill="white" stroke="black" points="771.5,-140 771.5,-159 898.5,-159 898.5,-140 771.5,-140"/>
<text text-anchor="middle" x="835" y="-147" font-family="Helvetica,sans-Serif" font-size="10.00">../iota/MessageListener.h</text>
</a>
</g>
</g>
<!-- Node1&#45;&gt;Node15 -->
<g id="edge14" class="edge">
<title>Node1&#45;&gt;Node15</title>
<path fill="none" stroke="midnightblue" d="M835,-201.4C835,-192.06 835,-179.71 835,-169.52"/>
<polygon fill="midnightblue" stroke="midnightblue" points="838.5,-169.19 835,-159.19 831.5,-169.19 838.5,-169.19"/>
</g>
<!-- Node19 -->
<g id="node19" class="node">
<title>Node19</title>
<g id="a_node19"><a xlink:href="_thread_8h.html" target="_top" xlink:title=" ">
<polygon fill="white" stroke="black" points="916.5,-140 916.5,-159 1001.5,-159 1001.5,-140 916.5,-140"/>
<text text-anchor="middle" x="959" y="-147" font-family="Helvetica,sans-Serif" font-size="10.00">../task/Thread.h</text>
</a>
</g>
</g>
<!-- Node1&#45;&gt;Node19 -->
<g id="edge21" class="edge">
<title>Node1&#45;&gt;Node19</title>
<path fill="none" stroke="midnightblue" d="M861.91,-201.4C883.28,-190.19 912.95,-174.64 933.85,-163.69"/>
<polygon fill="midnightblue" stroke="midnightblue" points="935.54,-166.75 942.77,-159.01 932.29,-160.55 935.54,-166.75"/>
</g>
<!-- Node20 -->
<g id="node20" class="node">
<title>Node20</title>
<g id="a_node20"><a xlink:title=" ">
<polygon fill="white" stroke="#bfbfbf" points="1020,-140 1020,-159 1126,-159 1126,-140 1020,-140"/>
<text text-anchor="middle" x="1073" y="-147" font-family="Helvetica,sans-Serif" font-size="10.00">Poco/ExpireCache.h</text>
</a>
</g>
</g>
<!-- Node1&#45;&gt;Node20 -->
<g id="edge23" class="edge">
<title>Node1&#45;&gt;Node20</title>
<path fill="none" stroke="midnightblue" d="M886.35,-201.48C929.94,-189.57 991.66,-172.72 1032,-161.7"/>
<polygon fill="midnightblue" stroke="midnightblue" points="1033.05,-165.04 1041.77,-159.03 1031.2,-158.29 1033.05,-165.04"/>
</g>
<!-- Node21 -->
<g id="node21" class="node">
<title>Node21</title>
<g id="a_node21"><a xlink:title=" ">
<polygon fill="white" stroke="#bfbfbf" points="1144.5,-140 1144.5,-159 1283.5,-159 1283.5,-140 1144.5,-140"/>
<text text-anchor="middle" x="1214" y="-147" font-family="Helvetica,sans-Serif" font-size="10.00">Poco/AccessExpireCache.h</text>
</a>
</g>
</g>
<!-- Node1&#45;&gt;Node21 -->
<g id="edge24" class="edge">
<title>Node1&#45;&gt;Node21</title>
<path fill="none" stroke="midnightblue" d="M890.61,-206.39C950.87,-196.46 1049.82,-179.99 1135,-165 1142.45,-163.69 1150.29,-162.28 1158.01,-160.88"/>
<polygon fill="midnightblue" stroke="midnightblue" points="1158.86,-164.29 1168.07,-159.05 1157.6,-157.4 1158.86,-164.29"/>
</g>
<!-- Node4 -->
<g id="node4" class="node">
<title>Node4</title>
<g id="a_node4"><a xlink:title=" ">
<polygon fill="white" stroke="#bfbfbf" points="0,-73 0,-92 80,-92 80,-73 0,-73"/>
<text text-anchor="middle" x="40" y="-80" font-family="Helvetica,sans-Serif" font-size="10.00">Poco/Thread.h</text>
</a>
</g>
</g>
<!-- Node3&#45;&gt;Node4 -->
<g id="edge3" class="edge">
<title>Node3&#45;&gt;Node4</title>
<path fill="none" stroke="midnightblue" d="M545.04,-139.96C533.75,-137.77 521.43,-135.59 510,-134 324,-108.14 273.54,-132.82 89,-98 84.46,-97.14 79.75,-96.04 75.11,-94.82"/>
<polygon fill="midnightblue" stroke="midnightblue" points="75.77,-91.36 65.19,-92.02 73.87,-98.1 75.77,-91.36"/>
</g>
<!-- Node5 -->
<g id="node5" class="node">
<title>Node5</title>
<g id="a_node5"><a xlink:title=" ">
<polygon fill="white" stroke="#bfbfbf" points="98.5,-73 98.5,-92 189.5,-92 189.5,-73 98.5,-73"/>
<text text-anchor="middle" x="144" y="-80" font-family="Helvetica,sans-Serif" font-size="10.00">Poco/Condition.h</text>
</a>
</g>
</g>
<!-- Node3&#45;&gt;Node5 -->
<g id="edge4" class="edge">
<title>Node3&#45;&gt;Node5</title>
<path fill="none" stroke="midnightblue" d="M543.84,-139.96C532.87,-137.84 521.01,-135.7 510,-134 372.04,-112.74 335.11,-124.17 198,-98 192.94,-97.04 187.67,-95.85 182.48,-94.57"/>
<polygon fill="midnightblue" stroke="midnightblue" points="183.24,-91.15 172.68,-92.04 181.49,-97.93 183.24,-91.15"/>
</g>
<!-- Node6 -->
<g id="node6" class="node">
<title>Node6</title>
<g id="a_node6"><a xlink:title=" ">
<polygon fill="white" stroke="#bfbfbf" points="629,-73 629,-92 709,-92 709,-73 629,-73"/>
<text text-anchor="middle" x="669" y="-80" font-family="Helvetica,sans-Serif" font-size="10.00">Poco/Logger.h</text>
</a>
</g>
</g>
<!-- Node3&#45;&gt;Node6 -->
<g id="edge5" class="edge">
<title>Node3&#45;&gt;Node6</title>
<path fill="none" stroke="midnightblue" d="M596.33,-139.73C610.06,-129.11 633.4,-111.05 649.92,-98.26"/>
<polygon fill="midnightblue" stroke="midnightblue" points="652.08,-101.02 657.85,-92.13 647.8,-95.48 652.08,-101.02"/>
</g>
<!-- Node7 -->
<g id="node7" class="node">
<title>Node7</title>
<g id="a_node7"><a xlink:title=" ">
<polygon fill="white" stroke="#bfbfbf" points="207.5,-67.5 207.5,-97.5 324.5,-97.5 324.5,-67.5 207.5,-67.5"/>
<text text-anchor="start" x="215.5" y="-85.5" font-family="Helvetica,sans-Serif" font-size="10.00">gradido_blockchain</text>
<text text-anchor="middle" x="266" y="-74.5" font-family="Helvetica,sans-Serif" font-size="10.00">/lib/MultithreadQueue.h</text>
</a>
</g>
</g>
<!-- Node3&#45;&gt;Node7 -->
<g id="edge6" class="edge">
<title>Node3&#45;&gt;Node7</title>
<path fill="none" stroke="midnightblue" d="M541.25,-139.95C493.02,-130.47 412.86,-114.57 334.82,-98.36"/>
<polygon fill="midnightblue" stroke="midnightblue" points="335.32,-94.89 324.82,-96.28 333.89,-101.75 335.32,-94.89"/>
</g>
<!-- Node8 -->
<g id="node8" class="node">
<title>Node8</title>
<g id="a_node8"><a xlink:href="_c_p_u_task_8h.html" target="_top" xlink:title=" ">
<polygon fill="white" stroke="black" points="342.5,-73 342.5,-92 439.5,-92 439.5,-73 342.5,-73"/>
<text text-anchor="middle" x="391" y="-80" font-family="Helvetica,sans-Serif" font-size="10.00">../task/CPUTask.h</text>
</a>
</g>
</g>
<!-- Node3&#45;&gt;Node8 -->
<g id="edge7" class="edge">
<title>Node3&#45;&gt;Node8</title>
<path fill="none" stroke="midnightblue" d="M559.24,-139.87C525.08,-128.42 464.66,-108.18 426.29,-95.32"/>
<polygon fill="midnightblue" stroke="midnightblue" points="427.15,-91.92 416.56,-92.06 424.93,-98.56 427.15,-91.92"/>
</g>
<!-- Node9 -->
<g id="node9" class="node">
<title>Node9</title>
<g id="a_node9"><a xlink:href="_message_id_8h.html" target="_top" xlink:title=" ">
<polygon fill="white" stroke="black" points="727,-73 727,-92 799,-92 799,-73 727,-73"/>
<text text-anchor="middle" x="763" y="-80" font-family="Helvetica,sans-Serif" font-size="10.00">MessageId.h</text>
</a>
</g>
</g>
<!-- Node3&#45;&gt;Node9 -->
<g id="edge8" class="edge">
<title>Node3&#45;&gt;Node9</title>
<path fill="none" stroke="midnightblue" d="M608.64,-139.87C639.71,-128.52 694.47,-108.52 729.72,-95.65"/>
<polygon fill="midnightblue" stroke="midnightblue" points="731.36,-98.78 739.55,-92.06 728.95,-92.21 731.36,-98.78"/>
</g>
<!-- Node12 -->
<g id="node12" class="node">
<title>Node12</title>
<g id="a_node12"><a xlink:title=" ">
<polygon fill="white" stroke="#bfbfbf" points="457.5,-73 457.5,-92 540.5,-92 540.5,-73 457.5,-73"/>
<text text-anchor="middle" x="499" y="-80" font-family="Helvetica,sans-Serif" font-size="10.00">unordered_map</text>
</a>
</g>
</g>
<!-- Node3&#45;&gt;Node12 -->
<g id="edge11" class="edge">
<title>Node3&#45;&gt;Node12</title>
<path fill="none" stroke="midnightblue" d="M573.4,-139.73C559.35,-129.11 535.45,-111.05 518.53,-98.26"/>
<polygon fill="midnightblue" stroke="midnightblue" points="520.5,-95.36 510.41,-92.13 516.28,-100.95 520.5,-95.36"/>
</g>
<!-- Node3&#45;&gt;Node13 -->
<g id="edge12" class="edge">
<title>Node3&#45;&gt;Node13</title>
<path fill="none" stroke="midnightblue" d="M642.13,-139.94C687.93,-132.05 753.34,-118.43 808,-98 809.21,-97.55 810.42,-97.05 811.64,-96.53"/>
<polygon fill="midnightblue" stroke="midnightblue" points="813.32,-99.61 820.76,-92.07 810.24,-93.32 813.32,-99.61"/>
</g>
<!-- Node14 -->
<g id="node14" class="node">
<title>Node14</title>
<g id="a_node14"><a xlink:title=" ">
<polygon fill="white" stroke="#bfbfbf" points="559,-73 559,-92 611,-92 611,-73 559,-73"/>
<text text-anchor="middle" x="585" y="-80" font-family="Helvetica,sans-Serif" font-size="10.00">assert.h</text>
</a>
</g>
</g>
<!-- Node3&#45;&gt;Node14 -->
<g id="edge13" class="edge">
<title>Node3&#45;&gt;Node14</title>
<path fill="none" stroke="midnightblue" d="M585,-139.73C585,-130.18 585,-114.62 585,-102.28"/>
<polygon fill="midnightblue" stroke="midnightblue" points="588.5,-102.13 585,-92.13 581.5,-102.13 588.5,-102.13"/>
</g>
<!-- Node10 -->
<g id="node10" class="node">
<title>Node10</title>
<g id="a_node10"><a xlink:title=" ">
<polygon fill="white" stroke="#bfbfbf" points="692.5,-6 692.5,-25 741.5,-25 741.5,-6 692.5,-6"/>
<text text-anchor="middle" x="717" y="-13" font-family="Helvetica,sans-Serif" font-size="10.00">cassert</text>
</a>
</g>
</g>
<!-- Node9&#45;&gt;Node10 -->
<g id="edge9" class="edge">
<title>Node9&#45;&gt;Node10</title>
<path fill="none" stroke="midnightblue" d="M756.8,-72.73C749.69,-62.7 737.89,-46.01 728.98,-33.42"/>
<polygon fill="midnightblue" stroke="midnightblue" points="731.74,-31.27 723.11,-25.13 726.03,-35.31 731.74,-31.27"/>
</g>
<!-- Node11 -->
<g id="node11" class="node">
<title>Node11</title>
<g id="a_node11"><a xlink:title=" ">
<polygon fill="white" stroke="#bfbfbf" points="759.5,-0.5 759.5,-30.5 860.5,-30.5 860.5,-0.5 759.5,-0.5"/>
<text text-anchor="start" x="767.5" y="-18.5" font-family="Helvetica,sans-Serif" font-size="10.00">gradido_blockchain</text>
<text text-anchor="middle" x="810" y="-7.5" font-family="Helvetica,sans-Serif" font-size="10.00">/MemoryManager.h</text>
</a>
</g>
</g>
<!-- Node9&#45;&gt;Node11 -->
<g id="edge10" class="edge">
<title>Node9&#45;&gt;Node11</title>
<path fill="none" stroke="midnightblue" d="M769.34,-72.73C775.57,-64.12 785.34,-50.61 793.74,-38.99"/>
<polygon fill="midnightblue" stroke="midnightblue" points="796.79,-40.74 799.81,-30.59 791.12,-36.64 796.79,-40.74"/>
</g>
<!-- Node15&#45;&gt;Node6 -->
<g id="edge15" class="edge">
<title>Node15&#45;&gt;Node6</title>
<path fill="none" stroke="midnightblue" d="M812.96,-139.87C784.1,-128.57 733.35,-108.7 700.46,-95.82"/>
<polygon fill="midnightblue" stroke="midnightblue" points="701.46,-92.45 690.87,-92.06 698.91,-98.97 701.46,-92.45"/>
</g>
<!-- Node15&#45;&gt;Node9 -->
<g id="edge18" class="edge">
<title>Node15&#45;&gt;Node9</title>
<path fill="none" stroke="midnightblue" d="M825.29,-139.73C813.74,-129.31 794.25,-111.71 780.14,-98.97"/>
<polygon fill="midnightblue" stroke="midnightblue" points="782.32,-96.23 772.56,-92.13 777.63,-101.43 782.32,-96.23"/>
</g>
<!-- Node15&#45;&gt;Node13 -->
<g id="edge20" class="edge">
<title>Node15&#45;&gt;Node13</title>
<path fill="none" stroke="midnightblue" d="M835,-139.73C835,-130.18 835,-114.62 835,-102.28"/>
<polygon fill="midnightblue" stroke="midnightblue" points="838.5,-102.13 835,-92.13 831.5,-102.13 838.5,-102.13"/>
</g>
<!-- Node16 -->
<g id="node16" class="node">
<title>Node16</title>
<g id="a_node16"><a xlink:title=" ">
<polygon fill="white" stroke="#bfbfbf" points="871,-67.5 871,-97.5 1001,-97.5 1001,-67.5 871,-67.5"/>
<text text-anchor="start" x="879" y="-85.5" font-family="Helvetica,sans-Serif" font-size="10.00">gradido_blockchain</text>
<text text-anchor="middle" x="936" y="-74.5" font-family="Helvetica,sans-Serif" font-size="10.00">/lib/MultithreadContainer.h</text>
</a>
</g>
</g>
<!-- Node15&#45;&gt;Node16 -->
<g id="edge16" class="edge">
<title>Node15&#45;&gt;Node16</title>
<path fill="none" stroke="midnightblue" d="M848.62,-139.73C863.12,-130.4 886.55,-115.32 905.5,-103.13"/>
<polygon fill="midnightblue" stroke="midnightblue" points="907.59,-105.94 914.11,-97.59 903.8,-100.06 907.59,-105.94"/>
</g>
<!-- Node17 -->
<g id="node17" class="node">
<title>Node17</title>
<g id="a_node17"><a xlink:href="_fuzzy_timer_8h.html" target="_top" xlink:title=" ">
<polygon fill="white" stroke="black" points="1019,-73 1019,-92 1117,-92 1117,-73 1019,-73"/>
<text text-anchor="middle" x="1068" y="-80" font-family="Helvetica,sans-Serif" font-size="10.00">../lib/FuzzyTimer.h</text>
</a>
</g>
</g>
<!-- Node15&#45;&gt;Node17 -->
<g id="edge17" class="edge">
<title>Node15&#45;&gt;Node17</title>
<path fill="none" stroke="midnightblue" d="M865.94,-139.87C907.57,-128.25 981.7,-107.58 1027.66,-94.75"/>
<polygon fill="midnightblue" stroke="midnightblue" points="1028.61,-98.12 1037.3,-92.06 1026.73,-91.38 1028.61,-98.12"/>
</g>
<!-- Node18 -->
<g id="node18" class="node">
<title>Node18</title>
<g id="a_node18"><a xlink:title=" ">
<polygon fill="white" stroke="#bfbfbf" points="1135,-73 1135,-92 1177,-92 1177,-73 1135,-73"/>
<text text-anchor="middle" x="1156" y="-80" font-family="Helvetica,sans-Serif" font-size="10.00">vector</text>
</a>
</g>
</g>
<!-- Node15&#45;&gt;Node18 -->
<g id="edge19" class="edge">
<title>Node15&#45;&gt;Node18</title>
<path fill="none" stroke="midnightblue" d="M876.07,-139.96C886.17,-137.94 896.97,-135.83 907,-134 1004.03,-116.26 1031.96,-127.77 1126,-98 1127.67,-97.47 1129.36,-96.87 1131.05,-96.21"/>
<polygon fill="midnightblue" stroke="midnightblue" points="1132.73,-99.29 1140.47,-92.05 1129.91,-92.89 1132.73,-99.29"/>
</g>
</g>
</svg>
