<?xml version="1.0" encoding="UTF-8" standalone="no"?>
<!DOCTYPE svg PUBLIC "-//W3C//DTD SVG 1.1//EN"
 "http://www.w3.org/Graphics/SVG/1.1/DTD/svg11.dtd">
<!-- Generated by graphviz version 2.50.0 (20211204.2007)
 -->
<!-- Title: src/ServerGlobals.cpp Pages: 1 -->
<!--zoomable 285 -->
<svg id="main" version="1.1" xmlns="http://www.w3.org/2000/svg" xmlns:xlink="http://www.w3.org/1999/xlink" xml:space="preserve" onload="init(evt)">
<style type="text/css"><![CDATA[
.edge:hover path { stroke: red; }
.edge:hover polygon { stroke: red; fill: red; }
]]></style>
<script type="text/javascript"><![CDATA[
var edges = document.getElementsByTagName('g');
if (edges && edges.length) {
  for (var i=0;i<edges.length;i++) {
    if (edges[i].id.substr(0,4)=='edge') {
      edges[i].setAttribute('class','edge');
    }
  }
}
]]></script>
        <defs>
                <circle id="rim" cx="0" cy="0" r="7"/>
                <circle id="rim2" cx="0" cy="0" r="3.5"/>
                <g id="zoomPlus">
                        <use xlink:href="#rim" fill="#404040">
                                <set attributeName="fill" to="#808080" begin="zoomplus.mouseover" end="zoomplus.mouseout"/>
                        </use>
                        <path d="M-4,0h8M0,-4v8" fill="none" stroke="white" stroke-width="1.5" pointer-events="none"/>
                </g>
                <g id="zoomMin">
                        <use xlink:href="#rim" fill="#404040">
                                <set attributeName="fill" to="#808080" begin="zoomminus.mouseover" end="zoomminus.mouseout"/>
                        </use>
                        <path d="M-4,0h8" fill="none" stroke="white" stroke-width="1.5" pointer-events="none"/>
                </g>
                <g id="dirArrow">
                        <path fill="none" stroke="white" stroke-width="1.5" d="M0,-3.0v7 M-2.5,-0.5L0,-3.0L2.5,-0.5"/>
                </g>
               <g id="resetDef">
                       <use xlink:href="#rim2" fill="#404040">
                               <set attributeName="fill" to="#808080" begin="reset.mouseover" end="reset.mouseout"/>
                       </use>
               </g>
        </defs>

<script type="text/javascript">
var viewWidth = 1642;
var viewHeight = 285;
var sectionId = 'dynsection-0';
</script>
<script xlink:href="svgpan.js"/>
<svg id="graph" class="graph">
<g id="viewport">
<title>src/ServerGlobals.cpp</title>
<polygon fill="white" stroke="transparent" points="-4,4 -4,-281 1637.5,-281 1637.5,4 -4,4"/>
<!-- Node1 -->
<g id="node1" class="node">
<title>Node1</title>
<g id="a_node1"><a xlink:title=" ">
<polygon fill="#bfbfbf" stroke="black" points="358.5,-257.5 358.5,-276.5 470.5,-276.5 470.5,-257.5 358.5,-257.5"/>
<text text-anchor="middle" x="414.5" y="-264.5" font-family="Helvetica,sans-Serif" font-size="10.00">src/ServerGlobals.cpp</text>
</a>
</g>
</g>
<!-- Node2 -->
<g id="node2" class="node">
<title>Node2</title>
<g id="a_node2"><a xlink:title=" ">
<polygon fill="white" stroke="#bfbfbf" points="0,-196 0,-215 125,-215 125,-196 0,-196"/>
<text text-anchor="middle" x="62.5" y="-203" font-family="Helvetica,sans-Serif" font-size="10.00">Poco/Net/SSLManager.h</text>
</a>
</g>
</g>
<!-- Node1&#45;&gt;Node2 -->
<g id="edge1" class="edge">
<title>Node1&#45;&gt;Node2</title>
<path fill="none" stroke="midnightblue" d="M358.4,-257.74C301.59,-249.2 211.27,-235.16 133.5,-221 126.76,-219.77 119.68,-218.41 112.71,-217.03"/>
<polygon fill="midnightblue" stroke="midnightblue" points="113.11,-213.54 102.62,-215 111.73,-220.41 113.11,-213.54"/>
</g>
<!-- Node3 -->
<g id="node3" class="node">
<title>Node3</title>
<g id="a_node3"><a xlink:title=" ">
<polygon fill="white" stroke="#bfbfbf" points="143,-190.5 143,-220.5 274,-220.5 274,-190.5 143,-190.5"/>
<text text-anchor="start" x="151" y="-208.5" font-family="Helvetica,sans-Serif" font-size="10.00">Poco/Net/RejectCertificate</text>
<text text-anchor="middle" x="208.5" y="-197.5" font-family="Helvetica,sans-Serif" font-size="10.00">Handler.h</text>
</a>
</g>
</g>
<!-- Node1&#45;&gt;Node3 -->
<g id="edge2" class="edge">
<title>Node1&#45;&gt;Node3</title>
<path fill="none" stroke="midnightblue" d="M384.99,-257.48C354.35,-248.63 305.61,-234.55 267.11,-223.43"/>
<polygon fill="midnightblue" stroke="midnightblue" points="267.63,-219.94 257.05,-220.52 265.69,-226.66 267.63,-219.94"/>
</g>
<!-- Node4 -->
<g id="node4" class="node">
<title>Node4</title>
<g id="a_node4"><a xlink:title=" ">
<polygon fill="white" stroke="#bfbfbf" points="292.5,-196 292.5,-215 386.5,-215 386.5,-196 292.5,-196"/>
<text text-anchor="middle" x="339.5" y="-203" font-family="Helvetica,sans-Serif" font-size="10.00">Poco/SharedPtr.h</text>
</a>
</g>
</g>
<!-- Node1&#45;&gt;Node4 -->
<g id="edge3" class="edge">
<title>Node1&#45;&gt;Node4</title>
<path fill="none" stroke="midnightblue" d="M403.75,-257.48C391.95,-248.11 372.76,-232.88 358.42,-221.51"/>
<polygon fill="midnightblue" stroke="midnightblue" points="360.24,-218.48 350.23,-215.01 355.88,-223.97 360.24,-218.48"/>
</g>
<!-- Node5 -->
<g id="node5" class="node">
<title>Node5</title>
<g id="a_node5"><a xlink:title=" ">
<polygon fill="white" stroke="#bfbfbf" points="850,-62 850,-81 921,-81 921,-62 850,-62"/>
<text text-anchor="middle" x="885.5" y="-69" font-family="Helvetica,sans-Serif" font-size="10.00">Poco/Path.h</text>
</a>
</g>
</g>
<!-- Node1&#45;&gt;Node5 -->
<g id="edge4" class="edge">
<title>Node1&#45;&gt;Node5</title>
<path fill="none" stroke="midnightblue" d="M412.48,-257.37C407.21,-232.45 395.93,-159.8 433.5,-123 462.19,-94.9 730.73,-79.57 839.79,-74.46"/>
<polygon fill="midnightblue" stroke="midnightblue" points="840,-77.95 849.83,-74 839.68,-70.96 840,-77.95"/>
</g>
<!-- Node6 -->
<g id="node6" class="node">
<title>Node6</title>
<g id="a_node6"><a xlink:href="_server_globals_8h.html" target="_top" xlink:title=" ">
<polygon fill="white" stroke="black" points="829,-196 829,-215 914,-215 914,-196 829,-196"/>
<text text-anchor="middle" x="871.5" y="-203" font-family="Helvetica,sans-Serif" font-size="10.00">ServerGlobals.h</text>
</a>
</g>
</g>
<!-- Node1&#45;&gt;Node6 -->
<g id="edge5" class="edge">
<title>Node1&#45;&gt;Node6</title>
<path fill="none" stroke="midnightblue" d="M470.54,-258.7C559.52,-247.12 731.91,-224.67 818.77,-213.36"/>
<polygon fill="midnightblue" stroke="midnightblue" points="819.47,-216.8 828.93,-212.04 818.56,-209.86 819.47,-216.8"/>
</g>
<!-- Node20 -->
<g id="node20" class="node">
<title>Node20</title>
<g id="a_node20"><a xlink:href="_h_t_t_p_api_8h.html" target="_top" xlink:title=" ">
<polygon fill="white" stroke="black" points="1368.5,-196 1368.5,-215 1450.5,-215 1450.5,-196 1368.5,-196"/>
<text text-anchor="middle" x="1409.5" y="-203" font-family="Helvetica,sans-Serif" font-size="10.00">iota/HTTPApi.h</text>
</a>
</g>
</g>
<!-- Node1&#45;&gt;Node20 -->
<g id="edge21" class="edge">
<title>Node1&#45;&gt;Node20</title>
<path fill="none" stroke="midnightblue" d="M470.85,-262.63C647.52,-252.07 1188.91,-219.69 1358.29,-209.56"/>
<polygon fill="midnightblue" stroke="midnightblue" points="1358.66,-213.05 1368.44,-208.96 1358.24,-206.06 1358.66,-213.05"/>
</g>
<!-- Node26 -->
<g id="node26" class="node">
<title>Node26</title>
<g id="a_node26"><a xlink:title=" ">
<polygon fill="white" stroke="#bfbfbf" points="1468.5,-190.5 1468.5,-220.5 1568.5,-220.5 1568.5,-190.5 1468.5,-190.5"/>
<text text-anchor="start" x="1476.5" y="-208.5" font-family="Helvetica,sans-Serif" font-size="10.00">gradido_blockchain</text>
<text text-anchor="middle" x="1518.5" y="-197.5" font-family="Helvetica,sans-Serif" font-size="10.00">/lib/Profiler.h</text>
</a>
</g>
</g>
<!-- Node1&#45;&gt;Node26 -->
<g id="edge27" class="edge">
<title>Node1&#45;&gt;Node26</title>
<path fill="none" stroke="midnightblue" d="M470.8,-265.04C656.08,-261.68 1246.58,-249.08 1458.33,-220.92"/>
<polygon fill="midnightblue" stroke="midnightblue" points="1458.99,-224.36 1468.42,-219.52 1458.04,-217.43 1458.99,-224.36"/>
</g>
<!-- Node7 -->
<g id="node7" class="node">
<title>Node7</title>
<g id="a_node7"><a xlink:title=" ">
<polygon fill="white" stroke="#bfbfbf" points="834.5,-0.5 834.5,-19.5 992.5,-19.5 992.5,-0.5 834.5,-0.5"/>
<text text-anchor="middle" x="913.5" y="-7.5" font-family="Helvetica,sans-Serif" font-size="10.00">Poco/Util/LayeredConfiguration.h</text>
</a>
</g>
</g>
<!-- Node6&#45;&gt;Node7 -->
<g id="edge6" class="edge">
<title>Node6&#45;&gt;Node7</title>
<path fill="none" stroke="midnightblue" d="M888.54,-195.96C903.24,-187.54 923.49,-173.16 932.5,-154 938.36,-141.53 940.27,-134.38 932.5,-123 907.75,-86.73 865.25,-123.27 840.5,-87 832.73,-75.62 833.78,-68.03 840.5,-56 848.66,-41.39 863.72,-30.94 878.05,-23.8"/>
<polygon fill="midnightblue" stroke="midnightblue" points="879.65,-26.92 887.29,-19.59 876.74,-20.56 879.65,-26.92"/>
</g>
<!-- Node8 -->
<g id="node8" class="node">
<title>Node8</title>
<g id="a_node8"><a xlink:title=" ">
<polygon fill="white" stroke="#bfbfbf" points="1115,-129 1115,-148 1192,-148 1192,-129 1115,-129"/>
<text text-anchor="middle" x="1153.5" y="-136" font-family="Helvetica,sans-Serif" font-size="10.00">Poco/Types.h</text>
</a>
</g>
</g>
<!-- Node6&#45;&gt;Node8 -->
<g id="edge7" class="edge">
<title>Node6&#45;&gt;Node8</title>
<path fill="none" stroke="midnightblue" d="M914.01,-196.4C961.09,-187.18 1039.11,-171.16 1105.5,-154 1109.17,-153.05 1112.98,-152 1116.78,-150.92"/>
<polygon fill="midnightblue" stroke="midnightblue" points="1118.09,-154.19 1126.7,-148.01 1116.12,-147.47 1118.09,-154.19"/>
</g>
<!-- Node9 -->
<g id="node9" class="node">
<title>Node9</title>
<g id="a_node9"><a xlink:title=" ">
<polygon fill="white" stroke="#bfbfbf" points="1210.5,-129 1210.5,-148 1290.5,-148 1290.5,-129 1210.5,-129"/>
<text text-anchor="middle" x="1250.5" y="-136" font-family="Helvetica,sans-Serif" font-size="10.00">Poco/Logger.h</text>
</a>
</g>
</g>
<!-- Node6&#45;&gt;Node9 -->
<g id="edge8" class="edge">
<title>Node6&#45;&gt;Node9</title>
<path fill="none" stroke="midnightblue" d="M914.15,-199.75C977.2,-192.32 1098.79,-176.45 1200.5,-154 1204.72,-153.07 1209.11,-151.98 1213.45,-150.82"/>
<polygon fill="midnightblue" stroke="midnightblue" points="1214.72,-154.1 1223.42,-148.05 1212.85,-147.36 1214.72,-154.1"/>
</g>
<!-- Node10 -->
<g id="node10" class="node">
<title>Node10</title>
<g id="a_node10"><a xlink:title=" ">
<polygon fill="white" stroke="#bfbfbf" points="442.5,-129 442.5,-148 544.5,-148 544.5,-129 442.5,-129"/>
<text text-anchor="middle" x="493.5" y="-136" font-family="Helvetica,sans-Serif" font-size="10.00">Poco/Net/Context.h</text>
</a>
</g>
</g>
<!-- Node6&#45;&gt;Node10 -->
<g id="edge9" class="edge">
<title>Node6&#45;&gt;Node10</title>
<path fill="none" stroke="midnightblue" d="M828.87,-198.83C767.67,-190.44 651.48,-173.59 553.5,-154 548.05,-152.91 542.34,-151.67 536.71,-150.38"/>
<polygon fill="midnightblue" stroke="midnightblue" points="537.25,-146.91 526.72,-148.03 535.65,-153.72 537.25,-146.91"/>
</g>
<!-- Node11 -->
<g id="node11" class="node">
<title>Node11</title>
<g id="a_node11"><a xlink:title=" ">
<polygon fill="white" stroke="#bfbfbf" points="563,-129 563,-148 678,-148 678,-129 563,-129"/>
<text text-anchor="middle" x="620.5" y="-136" font-family="Helvetica,sans-Serif" font-size="10.00">Poco/AtomicCounter.h</text>
</a>
</g>
</g>
<!-- Node6&#45;&gt;Node11 -->
<g id="edge10" class="edge">
<title>Node6&#45;&gt;Node11</title>
<path fill="none" stroke="midnightblue" d="M838.43,-195.94C793.47,-184.29 713,-163.45 663.43,-150.62"/>
<polygon fill="midnightblue" stroke="midnightblue" points="664.2,-147.2 653.65,-148.08 662.45,-153.98 664.2,-147.2"/>
</g>
<!-- Node12 -->
<g id="node12" class="node">
<title>Node12</title>
<g id="a_node12"><a xlink:href="_c_p_u_sheduler_8h.html" target="_top" xlink:title=" ">
<polygon fill="white" stroke="black" points="696,-129 696,-148 801,-148 801,-129 696,-129"/>
<text text-anchor="middle" x="748.5" y="-136" font-family="Helvetica,sans-Serif" font-size="10.00">task/CPUSheduler.h</text>
</a>
</g>
</g>
<!-- Node6&#45;&gt;Node12 -->
<g id="edge11" class="edge">
<title>Node6&#45;&gt;Node12</title>
<path fill="none" stroke="midnightblue" d="M855.17,-195.87C834.4,-184.89 798.31,-165.82 773.93,-152.94"/>
<polygon fill="midnightblue" stroke="midnightblue" points="775.38,-149.75 764.9,-148.17 772.11,-155.93 775.38,-149.75"/>
</g>
<!-- Node13 -->
<g id="node13" class="node">
<title>Node13</title>
<g id="a_node13"><a xlink:title=" ">
<polygon fill="white" stroke="#bfbfbf" points="819.5,-123.5 819.5,-153.5 923.5,-153.5 923.5,-123.5 819.5,-123.5"/>
<text text-anchor="start" x="827.5" y="-141.5" font-family="Helvetica,sans-Serif" font-size="10.00">gradido_blockchain</text>
<text text-anchor="middle" x="871.5" y="-130.5" font-family="Helvetica,sans-Serif" font-size="10.00">/http/JsonRequest.h</text>
</a>
</g>
</g>
<!-- Node6&#45;&gt;Node13 -->
<g id="edge12" class="edge">
<title>Node6&#45;&gt;Node13</title>
<path fill="none" stroke="midnightblue" d="M871.5,-195.73C871.5,-187.54 871.5,-174.92 871.5,-163.71"/>
<polygon fill="midnightblue" stroke="midnightblue" points="875,-163.59 871.5,-153.59 868,-163.59 875,-163.59"/>
</g>
<!-- Node14 -->
<g id="node14" class="node">
<title>Node14</title>
<g id="a_node14"><a xlink:href="controller_2_group_index_8h.html" target="_top" xlink:title=" ">
<polygon fill="white" stroke="black" points="980,-129 980,-148 1097,-148 1097,-129 980,-129"/>
<text text-anchor="middle" x="1038.5" y="-136" font-family="Helvetica,sans-Serif" font-size="10.00">controller/GroupIndex.h</text>
</a>
</g>
</g>
<!-- Node6&#45;&gt;Node14 -->
<g id="edge13" class="edge">
<title>Node6&#45;&gt;Node14</title>
<path fill="none" stroke="midnightblue" d="M893.68,-195.87C922.7,-184.57 973.77,-164.7 1006.85,-151.82"/>
<polygon fill="midnightblue" stroke="midnightblue" points="1008.45,-154.95 1016.5,-148.06 1005.91,-148.43 1008.45,-154.95"/>
</g>
<!-- Node14&#45;&gt;Node5 -->
<g id="edge17" class="edge">
<title>Node14&#45;&gt;Node5</title>
<path fill="none" stroke="midnightblue" d="M1018.18,-128.87C991.78,-117.65 945.47,-97.98 915.14,-85.09"/>
<polygon fill="midnightblue" stroke="midnightblue" points="916.47,-81.86 905.9,-81.17 913.74,-88.3 916.47,-81.86"/>
</g>
<!-- Node15 -->
<g id="node15" class="node">
<title>Node15</title>
<g id="a_node15"><a xlink:href="model_2files_2_group_index_8h.html" target="_top" xlink:title=" ">
<polygon fill="white" stroke="black" points="939,-62 939,-81 1072,-81 1072,-62 939,-62"/>
<text text-anchor="middle" x="1005.5" y="-69" font-family="Helvetica,sans-Serif" font-size="10.00">../model/files/GroupIndex.h</text>
</a>
</g>
</g>
<!-- Node14&#45;&gt;Node15 -->
<g id="edge14" class="edge">
<title>Node14&#45;&gt;Node15</title>
<path fill="none" stroke="midnightblue" d="M1034.05,-128.73C1029.05,-118.89 1020.81,-102.66 1014.47,-90.16"/>
<polygon fill="midnightblue" stroke="midnightblue" points="1017.53,-88.46 1009.88,-81.13 1011.29,-91.63 1017.53,-88.46"/>
</g>
<!-- Node16 -->
<g id="node16" class="node">
<title>Node16</title>
<g id="a_node16"><a xlink:title=" ">
<polygon fill="white" stroke="#bfbfbf" points="1090.5,-56.5 1090.5,-86.5 1190.5,-86.5 1190.5,-56.5 1090.5,-56.5"/>
<text text-anchor="start" x="1098.5" y="-74.5" font-family="Helvetica,sans-Serif" font-size="10.00">gradido_blockchain</text>
<text text-anchor="middle" x="1140.5" y="-63.5" font-family="Helvetica,sans-Serif" font-size="10.00">/lib/DRHashList.h</text>
</a>
</g>
</g>
<!-- Node14&#45;&gt;Node16 -->
<g id="edge16" class="edge">
<title>Node14&#45;&gt;Node16</title>
<path fill="none" stroke="midnightblue" d="M1052.26,-128.73C1066.97,-119.36 1090.77,-104.19 1109.95,-91.97"/>
<polygon fill="midnightblue" stroke="midnightblue" points="1111.84,-94.91 1118.39,-86.59 1108.08,-89.01 1111.84,-94.91"/>
</g>
<!-- Node17 -->
<g id="node17" class="node">
<title>Node17</title>
<g id="a_node17"><a xlink:href="_controller_base_8h.html" target="_top" xlink:title=" ">
<polygon fill="white" stroke="black" points="1209,-62 1209,-81 1298,-81 1298,-62 1209,-62"/>
<text text-anchor="middle" x="1253.5" y="-69" font-family="Helvetica,sans-Serif" font-size="10.00">ControllerBase.h</text>
</a>
</g>
</g>
<!-- Node14&#45;&gt;Node17 -->
<g id="edge18" class="edge">
<title>Node14&#45;&gt;Node17</title>
<path fill="none" stroke="midnightblue" d="M1067.05,-128.87C1105.23,-117.33 1173.01,-96.84 1215.48,-84"/>
<polygon fill="midnightblue" stroke="midnightblue" points="1216.61,-87.31 1225.17,-81.06 1214.59,-80.61 1216.61,-87.31"/>
</g>
<!-- Node19 -->
<g id="node19" class="node">
<title>Node19</title>
<g id="a_node19"><a xlink:title=" ">
<polygon fill="white" stroke="#bfbfbf" points="1316,-62 1316,-81 1399,-81 1399,-62 1316,-62"/>
<text text-anchor="middle" x="1357.5" y="-69" font-family="Helvetica,sans-Serif" font-size="10.00">unordered_map</text>
</a>
</g>
</g>
<!-- Node14&#45;&gt;Node19 -->
<g id="edge20" class="edge">
<title>Node14&#45;&gt;Node19</title>
<path fill="none" stroke="midnightblue" d="M1076.72,-128.98C1086.11,-126.95 1096.16,-124.85 1105.5,-123 1194.53,-105.4 1218.08,-107.44 1306.5,-87 1310.69,-86.03 1315.04,-84.94 1319.37,-83.79"/>
<polygon fill="midnightblue" stroke="midnightblue" points="1320.59,-87.08 1329.31,-81.06 1318.74,-80.33 1320.59,-87.08"/>
</g>
<!-- Node15&#45;&gt;Node7 -->
<g id="edge15" class="edge">
<title>Node15&#45;&gt;Node7</title>
<path fill="none" stroke="midnightblue" d="M992.32,-61.98C977.43,-52.34 952.96,-36.52 935.23,-25.05"/>
<polygon fill="midnightblue" stroke="midnightblue" points="936.95,-22 926.66,-19.51 933.15,-27.88 936.95,-22"/>
</g>
<!-- Node18 -->
<g id="node18" class="node">
<title>Node18</title>
<g id="a_node18"><a xlink:title=" ">
<polygon fill="white" stroke="#bfbfbf" points="1215,-0.5 1215,-19.5 1292,-19.5 1292,-0.5 1215,-0.5"/>
<text text-anchor="middle" x="1253.5" y="-7.5" font-family="Helvetica,sans-Serif" font-size="10.00">Poco/Mutex.h</text>
</a>
</g>
</g>
<!-- Node17&#45;&gt;Node18 -->
<g id="edge19" class="edge">
<title>Node17&#45;&gt;Node18</title>
<path fill="none" stroke="midnightblue" d="M1253.5,-61.98C1253.5,-53.58 1253.5,-40.48 1253.5,-29.66"/>
<polygon fill="midnightblue" stroke="midnightblue" points="1257,-29.51 1253.5,-19.51 1250,-29.51 1257,-29.51"/>
</g>
<!-- Node21 -->
<g id="node21" class="node">
<title>Node21</title>
<g id="a_node21"><a xlink:href="_message_id_8h.html" target="_top" xlink:title=" ">
<polygon fill="white" stroke="black" points="1373.5,-129 1373.5,-148 1445.5,-148 1445.5,-129 1373.5,-129"/>
<text text-anchor="middle" x="1409.5" y="-136" font-family="Helvetica,sans-Serif" font-size="10.00">MessageId.h</text>
</a>
</g>
</g>
<!-- Node20&#45;&gt;Node21 -->
<g id="edge22" class="edge">
<title>Node20&#45;&gt;Node21</title>
<path fill="none" stroke="midnightblue" d="M1409.5,-195.73C1409.5,-186.18 1409.5,-170.62 1409.5,-158.28"/>
<polygon fill="midnightblue" stroke="midnightblue" points="1413,-158.13 1409.5,-148.13 1406,-158.13 1413,-158.13"/>
</g>
<!-- Node24 -->
<g id="node24" class="node">
<title>Node24</title>
<g id="a_node24"><a xlink:title=" ">
<polygon fill="white" stroke="#bfbfbf" points="1463.5,-129 1463.5,-148 1573.5,-148 1573.5,-129 1463.5,-129"/>
<text text-anchor="middle" x="1518.5" y="-136" font-family="Helvetica,sans-Serif" font-size="10.00">rapidjson/document.h</text>
</a>
</g>
</g>
<!-- Node20&#45;&gt;Node24 -->
<g id="edge25" class="edge">
<title>Node20&#45;&gt;Node24</title>
<path fill="none" stroke="midnightblue" d="M1424.2,-195.73C1442.42,-184.87 1473.7,-166.22 1495.2,-153.39"/>
<polygon fill="midnightblue" stroke="midnightblue" points="1497.24,-156.26 1504.03,-148.13 1493.65,-150.24 1497.24,-156.26"/>
</g>
<!-- Node25 -->
<g id="node25" class="node">
<title>Node25</title>
<g id="a_node25"><a xlink:title=" ">
<polygon fill="white" stroke="#bfbfbf" points="1591.5,-129 1591.5,-148 1633.5,-148 1633.5,-129 1591.5,-129"/>
<text text-anchor="middle" x="1612.5" y="-136" font-family="Helvetica,sans-Serif" font-size="10.00">vector</text>
</a>
</g>
</g>
<!-- Node20&#45;&gt;Node25 -->
<g id="edge26" class="edge">
<title>Node20&#45;&gt;Node25</title>
<path fill="none" stroke="midnightblue" d="M1438.88,-195.96C1487.8,-181.73 1580.78,-154.66 1582.5,-154 1583.88,-153.47 1585.29,-152.9 1586.7,-152.3"/>
<polygon fill="midnightblue" stroke="midnightblue" points="1588.24,-155.45 1595.9,-148.13 1585.35,-149.07 1588.24,-155.45"/>
</g>
<!-- Node22 -->
<g id="node22" class="node">
<title>Node22</title>
<g id="a_node22"><a xlink:title=" ">
<polygon fill="white" stroke="#bfbfbf" points="1417,-62 1417,-81 1466,-81 1466,-62 1417,-62"/>
<text text-anchor="middle" x="1441.5" y="-69" font-family="Helvetica,sans-Serif" font-size="10.00">cassert</text>
</a>
</g>
</g>
<!-- Node21&#45;&gt;Node22 -->
<g id="edge23" class="edge">
<title>Node21&#45;&gt;Node22</title>
<path fill="none" stroke="midnightblue" d="M1413.82,-128.73C1418.66,-118.89 1426.65,-102.66 1432.81,-90.16"/>
<polygon fill="midnightblue" stroke="midnightblue" points="1435.98,-91.64 1437.25,-81.13 1429.7,-88.55 1435.98,-91.64"/>
</g>
<!-- Node23 -->
<g id="node23" class="node">
<title>Node23</title>
<g id="a_node23"><a xlink:title=" ">
<polygon fill="white" stroke="#bfbfbf" points="1484,-56.5 1484,-86.5 1585,-86.5 1585,-56.5 1484,-56.5"/>
<text text-anchor="start" x="1492" y="-74.5" font-family="Helvetica,sans-Serif" font-size="10.00">gradido_blockchain</text>
<text text-anchor="middle" x="1534.5" y="-63.5" font-family="Helvetica,sans-Serif" font-size="10.00">/MemoryManager.h</text>
</a>
</g>
</g>
<!-- Node21&#45;&gt;Node23 -->
<g id="edge24" class="edge">
<title>Node21&#45;&gt;Node23</title>
<path fill="none" stroke="midnightblue" d="M1426.1,-128.87C1444.39,-119.36 1474.37,-103.77 1498.18,-91.39"/>
<polygon fill="midnightblue" stroke="midnightblue" points="1500.03,-94.37 1507.29,-86.65 1496.8,-88.16 1500.03,-94.37"/>
</g>
</g>
</svg>
        <g id="navigator" transform="translate(0 0)" fill="#404254">
                <rect fill="#f2f5e9" fill-opacity="0.5" stroke="#606060" stroke-width=".5" x="0" y="0" width="60" height="60"/>
                <use id="zoomplus" xlink:href="#zoomPlus" x="17" y="9" onmousedown="handleZoom(evt,'in')"/>
                <use id="zoomminus" xlink:href="#zoomMin" x="42" y="9" onmousedown="handleZoom(evt,'out')"/>
                <use id="reset" xlink:href="#resetDef" x="30" y="36" onmousedown="handleReset()"/>
                <g id="arrowUp" xlink:href="#dirArrow" transform="translate(30 24)" onmousedown="handlePan(0,-1)">
                  <use xlink:href="#rim" fill="#404040">
                        <set attributeName="fill" to="#808080" begin="arrowUp.mouseover" end="arrowUp.mouseout"/>
                  </use>
                  <path fill="none" stroke="white" stroke-width="1.5" d="M0,-3.0v7 M-2.5,-0.5L0,-3.0L2.5,-0.5"/>
                </g>
                <g id="arrowRight" xlink:href="#dirArrow" transform="rotate(90) translate(36 -43)" onmousedown="handlePan(1,0)">
                  <use xlink:href="#rim" fill="#404040">
                        <set attributeName="fill" to="#808080" begin="arrowRight.mouseover" end="arrowRight.mouseout"/>
                  </use>
                  <path fill="none" stroke="white" stroke-width="1.5" d="M0,-3.0v7 M-2.5,-0.5L0,-3.0L2.5,-0.5"/>
                </g>
                <g id="arrowDown" xlink:href="#dirArrow" transform="rotate(180) translate(-30 -48)" onmousedown="handlePan(0,1)">
                  <use xlink:href="#rim" fill="#404040">
                        <set attributeName="fill" to="#808080" begin="arrowDown.mouseover" end="arrowDown.mouseout"/>
                  </use>
                  <path fill="none" stroke="white" stroke-width="1.5" d="M0,-3.0v7 M-2.5,-0.5L0,-3.0L2.5,-0.5"/>
                </g>
                <g id="arrowLeft" xlink:href="#dirArrow" transform="rotate(270) translate(-36 17)" onmousedown="handlePan(-1,0)">
                  <use xlink:href="#rim" fill="#404040">
                        <set attributeName="fill" to="#808080" begin="arrowLeft.mouseover" end="arrowLeft.mouseout"/>
                  </use>
                  <path fill="none" stroke="white" stroke-width="1.5" d="M0,-3.0v7 M-2.5,-0.5L0,-3.0L2.5,-0.5"/>
                </g>
        </g>
        <svg viewBox="0 0 15 15" width="100%" height="30px" preserveAspectRatio="xMaxYMin meet">
         <g id="arrow_out" transform="scale(0.3 0.3)">
          <a xlink:href="_server_globals_8cpp__incl_org.svg" target="_base">
           <rect id="button" ry="5" rx="5" y="6" x="6" height="38" width="38"
                fill="#f2f5e9" fill-opacity="0.5" stroke="#606060" stroke-width="1.0"/>
           <path id="arrow"
             d="M 11.500037,31.436501 C 11.940474,20.09759 22.043105,11.32322 32.158766,21.979434 L 37.068811,17.246167 C 37.068811,17.246167 37.088388,32 37.088388,32 L 22.160133,31.978069 C 22.160133,31.978069 26.997745,27.140456 26.997745,27.140456 C 18.528582,18.264221 13.291696,25.230495 11.500037,31.436501 z"
             style="fill:#404040;"/>
          </a>
         </g>
        </svg>
</svg>
