<?xml version="1.0" encoding="UTF-8" standalone="no"?>
<!DOCTYPE svg PUBLIC "-//W3C//DTD SVG 1.1//EN"
 "http://www.w3.org/Graphics/SVG/1.1/DTD/svg11.dtd">
<!-- Generated by graphviz version 2.50.0 (20211204.2007)
 -->
<!-- Title: src/ServerGlobals.h Pages: 1 -->
<svg width="975pt" height="218pt"
 viewBox="0.00 0.00 974.86 218.00" xmlns="http://www.w3.org/2000/svg" xmlns:xlink="http://www.w3.org/1999/xlink">
<g id="graph0" class="graph" transform="scale(1 1) rotate(0) translate(4 214)">
<title>src/ServerGlobals.h</title>
<polygon fill="white" stroke="transparent" points="-4,4 -4,-214 970.86,-214 970.86,4 -4,4"/>
<!-- Node1 -->
<g id="node1" class="node">
<title>Node1</title>
<g id="a_node1"><a xlink:title=" ">
<polygon fill="#bfbfbf" stroke="black" points="277.86,-190.5 277.86,-209.5 378.86,-209.5 378.86,-190.5 277.86,-190.5"/>
<text text-anchor="middle" x="328.36" y="-197.5" font-family="Helvetica,sans-Serif" font-size="10.00">src/ServerGlobals.h</text>
</a>
</g>
</g>
<!-- Node2 -->
<g id="node2" class="node">
<title>Node2</title>
<g id="a_node2"><a xlink:title=" ">
<polygon fill="white" stroke="#bfbfbf" points="73.36,-0.5 73.36,-19.5 231.36,-19.5 231.36,-0.5 73.36,-0.5"/>
<text text-anchor="middle" x="152.36" y="-7.5" font-family="Helvetica,sans-Serif" font-size="10.00">Poco/Util/LayeredConfiguration.h</text>
</a>
</g>
</g>
<!-- Node1&#45;&gt;Node2 -->
<g id="edge1" class="edge">
<title>Node1&#45;&gt;Node2</title>
<path fill="none" stroke="midnightblue" d="M277.82,-199.5C197.23,-199.1 45.24,-193.04 11.36,-154 -32.54,-103.44 68.78,-48.26 122.14,-23.85"/>
<polygon fill="midnightblue" stroke="midnightblue" points="123.8,-26.94 131.5,-19.66 120.94,-20.55 123.8,-26.94"/>
</g>
<!-- Node3 -->
<g id="node3" class="node">
<title>Node3</title>
<g id="a_node3"><a xlink:title=" ">
<polygon fill="white" stroke="#bfbfbf" points="20.86,-129 20.86,-148 97.86,-148 97.86,-129 20.86,-129"/>
<text text-anchor="middle" x="59.36" y="-136" font-family="Helvetica,sans-Serif" font-size="10.00">Poco/Types.h</text>
</a>
</g>
</g>
<!-- Node1&#45;&gt;Node3 -->
<g id="edge2" class="edge">
<title>Node1&#45;&gt;Node3</title>
<path fill="none" stroke="midnightblue" d="M279.78,-190.45C234.81,-182.21 166.2,-168.85 107.36,-154 103.68,-153.07 99.86,-152.04 96.06,-150.97"/>
<polygon fill="midnightblue" stroke="midnightblue" points="96.72,-147.51 86.14,-148.07 94.76,-154.23 96.72,-147.51"/>
</g>
<!-- Node4 -->
<g id="node4" class="node">
<title>Node4</title>
<g id="a_node4"><a xlink:title=" ">
<polygon fill="white" stroke="#bfbfbf" points="116.36,-129 116.36,-148 196.36,-148 196.36,-129 116.36,-129"/>
<text text-anchor="middle" x="156.36" y="-136" font-family="Helvetica,sans-Serif" font-size="10.00">Poco/Logger.h</text>
</a>
</g>
</g>
<!-- Node1&#45;&gt;Node4 -->
<g id="edge3" class="edge">
<title>Node1&#45;&gt;Node4</title>
<path fill="none" stroke="midnightblue" d="M303.71,-190.48C274.08,-180.22 224.17,-162.96 190.75,-151.4"/>
<polygon fill="midnightblue" stroke="midnightblue" points="191.55,-147.97 180.95,-148.01 189.26,-154.59 191.55,-147.97"/>
</g>
<!-- Node5 -->
<g id="node5" class="node">
<title>Node5</title>
<g id="a_node5"><a xlink:title=" ">
<polygon fill="white" stroke="#bfbfbf" points="214.36,-129 214.36,-148 316.36,-148 316.36,-129 214.36,-129"/>
<text text-anchor="middle" x="265.36" y="-136" font-family="Helvetica,sans-Serif" font-size="10.00">Poco/Net/Context.h</text>
</a>
</g>
</g>
<!-- Node1&#45;&gt;Node5 -->
<g id="edge4" class="edge">
<title>Node1&#45;&gt;Node5</title>
<path fill="none" stroke="midnightblue" d="M319.33,-190.48C309.6,-181.28 293.9,-166.46 281.93,-155.16"/>
<polygon fill="midnightblue" stroke="midnightblue" points="284.04,-152.33 274.37,-148.01 279.23,-157.42 284.04,-152.33"/>
</g>
<!-- Node6 -->
<g id="node6" class="node">
<title>Node6</title>
<g id="a_node6"><a xlink:title=" ">
<polygon fill="white" stroke="#bfbfbf" points="334.86,-129 334.86,-148 449.86,-148 449.86,-129 334.86,-129"/>
<text text-anchor="middle" x="392.36" y="-136" font-family="Helvetica,sans-Serif" font-size="10.00">Poco/AtomicCounter.h</text>
</a>
</g>
</g>
<!-- Node1&#45;&gt;Node6 -->
<g id="edge5" class="edge">
<title>Node1&#45;&gt;Node6</title>
<path fill="none" stroke="midnightblue" d="M337.53,-190.48C347.51,-181.2 363.67,-166.17 375.87,-154.83"/>
<polygon fill="midnightblue" stroke="midnightblue" points="378.26,-157.38 383.2,-148.01 373.5,-152.25 378.26,-157.38"/>
</g>
<!-- Node7 -->
<g id="node7" class="node">
<title>Node7</title>
<g id="a_node7"><a xlink:href="_c_p_u_sheduler_8h.html" target="_top" xlink:title=" ">
<polygon fill="white" stroke="black" points="467.86,-129 467.86,-148 572.86,-148 572.86,-129 467.86,-129"/>
<text text-anchor="middle" x="520.36" y="-136" font-family="Helvetica,sans-Serif" font-size="10.00">task/CPUSheduler.h</text>
</a>
</g>
</g>
<!-- Node1&#45;&gt;Node7 -->
<g id="edge6" class="edge">
<title>Node1&#45;&gt;Node7</title>
<path fill="none" stroke="midnightblue" d="M355.87,-190.48C389.23,-180.14 445.62,-162.66 482.92,-151.1"/>
<polygon fill="midnightblue" stroke="midnightblue" points="484.38,-154.31 492.9,-148.01 482.31,-147.63 484.38,-154.31"/>
</g>
<!-- Node8 -->
<g id="node8" class="node">
<title>Node8</title>
<g id="a_node8"><a xlink:title=" ">
<polygon fill="white" stroke="#bfbfbf" points="591.36,-123.5 591.36,-153.5 695.36,-153.5 695.36,-123.5 591.36,-123.5"/>
<text text-anchor="start" x="599.36" y="-141.5" font-family="Helvetica,sans-Serif" font-size="10.00">gradido_blockchain</text>
<text text-anchor="middle" x="643.36" y="-130.5" font-family="Helvetica,sans-Serif" font-size="10.00">/http/JsonRequest.h</text>
</a>
</g>
</g>
<!-- Node1&#45;&gt;Node8 -->
<g id="edge7" class="edge">
<title>Node1&#45;&gt;Node8</title>
<path fill="none" stroke="midnightblue" d="M378.91,-190.83C430.09,-182.37 511.44,-168.38 581.36,-154 581.46,-153.98 581.56,-153.96 581.66,-153.94"/>
<polygon fill="midnightblue" stroke="midnightblue" points="582.25,-157.39 591.31,-151.89 580.8,-150.54 582.25,-157.39"/>
</g>
<!-- Node9 -->
<g id="node9" class="node">
<title>Node9</title>
<g id="a_node9"><a xlink:href="controller_2_group_index_8h.html" target="_top" xlink:title=" ">
<polygon fill="white" stroke="black" points="713.86,-129 713.86,-148 830.86,-148 830.86,-129 713.86,-129"/>
<text text-anchor="middle" x="772.36" y="-136" font-family="Helvetica,sans-Serif" font-size="10.00">controller/GroupIndex.h</text>
</a>
</g>
</g>
<!-- Node1&#45;&gt;Node9 -->
<g id="edge8" class="edge">
<title>Node1&#45;&gt;Node9</title>
<path fill="none" stroke="midnightblue" d="M379.04,-194.41C451.46,-187.52 588.59,-173.23 704.36,-154 711.16,-152.87 718.31,-151.52 725.31,-150.11"/>
<polygon fill="midnightblue" stroke="midnightblue" points="726.34,-153.47 735.42,-148.02 724.91,-146.62 726.34,-153.47"/>
</g>
<!-- Node10 -->
<g id="node10" class="node">
<title>Node10</title>
<g id="a_node10"><a xlink:href="model_2files_2_group_index_8h.html" target="_top" xlink:title=" ">
<polygon fill="white" stroke="black" points="306.86,-62 306.86,-81 439.86,-81 439.86,-62 306.86,-62"/>
<text text-anchor="middle" x="373.36" y="-69" font-family="Helvetica,sans-Serif" font-size="10.00">../model/files/GroupIndex.h</text>
</a>
</g>
</g>
<!-- Node9&#45;&gt;Node10 -->
<g id="edge9" class="edge">
<title>Node9&#45;&gt;Node10</title>
<path fill="none" stroke="midnightblue" d="M734.31,-128.98C724.57,-126.91 714.09,-124.78 704.36,-123 616.11,-106.87 513.97,-91.84 446.76,-82.44"/>
<polygon fill="midnightblue" stroke="midnightblue" points="447.07,-78.95 436.69,-81.04 446.11,-85.88 447.07,-78.95"/>
</g>
<!-- Node11 -->
<g id="node11" class="node">
<title>Node11</title>
<g id="a_node11"><a xlink:title=" ">
<polygon fill="white" stroke="#bfbfbf" points="569.36,-56.5 569.36,-86.5 669.36,-86.5 669.36,-56.5 569.36,-56.5"/>
<text text-anchor="start" x="577.36" y="-74.5" font-family="Helvetica,sans-Serif" font-size="10.00">gradido_blockchain</text>
<text text-anchor="middle" x="619.36" y="-63.5" font-family="Helvetica,sans-Serif" font-size="10.00">/lib/DRHashList.h</text>
</a>
</g>
</g>
<!-- Node9&#45;&gt;Node11 -->
<g id="edge11" class="edge">
<title>Node9&#45;&gt;Node11</title>
<path fill="none" stroke="midnightblue" d="M752.04,-128.87C729.08,-119.12 691.08,-102.97 661.61,-90.45"/>
<polygon fill="midnightblue" stroke="midnightblue" points="662.95,-87.22 652.38,-86.53 660.21,-93.66 662.95,-87.22"/>
</g>
<!-- Node12 -->
<g id="node12" class="node">
<title>Node12</title>
<g id="a_node12"><a xlink:title=" ">
<polygon fill="white" stroke="#bfbfbf" points="687.86,-62 687.86,-81 758.86,-81 758.86,-62 687.86,-62"/>
<text text-anchor="middle" x="723.36" y="-69" font-family="Helvetica,sans-Serif" font-size="10.00">Poco/Path.h</text>
</a>
</g>
</g>
<!-- Node9&#45;&gt;Node12 -->
<g id="edge12" class="edge">
<title>Node9&#45;&gt;Node12</title>
<path fill="none" stroke="midnightblue" d="M765.75,-128.73C758.18,-118.7 745.61,-102.01 736.11,-89.42"/>
<polygon fill="midnightblue" stroke="midnightblue" points="738.67,-87.01 729.86,-81.13 733.09,-91.22 738.67,-87.01"/>
</g>
<!-- Node13 -->
<g id="node13" class="node">
<title>Node13</title>
<g id="a_node13"><a xlink:href="_controller_base_8h.html" target="_top" xlink:title=" ">
<polygon fill="white" stroke="black" points="776.86,-62 776.86,-81 865.86,-81 865.86,-62 776.86,-62"/>
<text text-anchor="middle" x="821.36" y="-69" font-family="Helvetica,sans-Serif" font-size="10.00">ControllerBase.h</text>
</a>
</g>
</g>
<!-- Node9&#45;&gt;Node13 -->
<g id="edge13" class="edge">
<title>Node9&#45;&gt;Node13</title>
<path fill="none" stroke="midnightblue" d="M778.97,-128.73C786.53,-118.7 799.11,-102.01 808.6,-89.42"/>
<polygon fill="midnightblue" stroke="midnightblue" points="811.63,-91.22 814.85,-81.13 806.04,-87.01 811.63,-91.22"/>
</g>
<!-- Node15 -->
<g id="node15" class="node">
<title>Node15</title>
<g id="a_node15"><a xlink:title=" ">
<polygon fill="white" stroke="#bfbfbf" points="883.86,-62 883.86,-81 966.86,-81 966.86,-62 883.86,-62"/>
<text text-anchor="middle" x="925.36" y="-69" font-family="Helvetica,sans-Serif" font-size="10.00">unordered_map</text>
</a>
</g>
</g>
<!-- Node9&#45;&gt;Node15 -->
<g id="edge15" class="edge">
<title>Node9&#45;&gt;Node15</title>
<path fill="none" stroke="midnightblue" d="M792.67,-128.87C819.08,-117.65 865.39,-97.98 895.72,-85.09"/>
<polygon fill="midnightblue" stroke="midnightblue" points="897.12,-88.3 904.96,-81.17 894.38,-81.86 897.12,-88.3"/>
</g>
<!-- Node10&#45;&gt;Node2 -->
<g id="edge10" class="edge">
<title>Node10&#45;&gt;Node2</title>
<path fill="none" stroke="midnightblue" d="M341.69,-61.98C302.8,-51.5 236.71,-33.71 193.81,-22.16"/>
<polygon fill="midnightblue" stroke="midnightblue" points="194.53,-18.73 183.96,-19.51 192.71,-25.49 194.53,-18.73"/>
</g>
<!-- Node14 -->
<g id="node14" class="node">
<title>Node14</title>
<g id="a_node14"><a xlink:title=" ">
<polygon fill="white" stroke="#bfbfbf" points="782.86,-0.5 782.86,-19.5 859.86,-19.5 859.86,-0.5 782.86,-0.5"/>
<text text-anchor="middle" x="821.36" y="-7.5" font-family="Helvetica,sans-Serif" font-size="10.00">Poco/Mutex.h</text>
</a>
</g>
</g>
<!-- Node13&#45;&gt;Node14 -->
<g id="edge14" class="edge">
<title>Node13&#45;&gt;Node14</title>
<path fill="none" stroke="midnightblue" d="M821.36,-61.98C821.36,-53.58 821.36,-40.48 821.36,-29.66"/>
<polygon fill="midnightblue" stroke="midnightblue" points="824.86,-29.51 821.36,-19.51 817.86,-29.51 824.86,-29.51"/>
</g>
</g>
</svg>
