<?xml version="1.0" encoding="UTF-8" standalone="no"?>
<!DOCTYPE svg PUBLIC "-//W3C//DTD SVG 1.1//EN"
 "http://www.w3.org/Graphics/SVG/1.1/DTD/svg11.dtd">
<!-- Generated by graphviz version 2.50.0 (20211204.2007)
 -->
<!-- Title: src/model/files/State.cpp Pages: 1 -->
<svg width="748pt" height="218pt"
 viewBox="0.00 0.00 748.00 218.00" xmlns="http://www.w3.org/2000/svg" xmlns:xlink="http://www.w3.org/1999/xlink">
<g id="graph0" class="graph" transform="scale(1 1) rotate(0) translate(4 214)">
<title>src/model/files/State.cpp</title>
<polygon fill="white" stroke="transparent" points="-4,4 -4,-214 744,-214 744,4 -4,4"/>
<!-- Node1 -->
<g id="node1" class="node">
<title>Node1</title>
<g id="a_node1"><a xlink:title=" ">
<polygon fill="#bfbfbf" stroke="black" points="306,-190.5 306,-209.5 431,-209.5 431,-190.5 306,-190.5"/>
<text text-anchor="middle" x="368.5" y="-197.5" font-family="Helvetica,sans-Serif" font-size="10.00">src/model/files/State.cpp</text>
</a>
</g>
</g>
<!-- Node2 -->
<g id="node2" class="node">
<title>Node2</title>
<g id="a_node2"><a xlink:href="_state_8h.html" target="_top" xlink:title=" ">
<polygon fill="white" stroke="black" points="146.5,-129 146.5,-148 194.5,-148 194.5,-129 146.5,-129"/>
<text text-anchor="middle" x="170.5" y="-136" font-family="Helvetica,sans-Serif" font-size="10.00">State.h</text>
</a>
</g>
</g>
<!-- Node1&#45;&gt;Node2 -->
<g id="edge1" class="edge">
<title>Node1&#45;&gt;Node2</title>
<path fill="none" stroke="midnightblue" d="M340.13,-190.48C304.3,-179.71 242.72,-161.2 204.44,-149.7"/>
<polygon fill="midnightblue" stroke="midnightblue" points="205.35,-146.32 194.77,-146.79 203.34,-153.02 205.35,-146.32"/>
</g>
<!-- Node5 -->
<g id="node5" class="node">
<title>Node5</title>
<g id="a_node5"><a xlink:title=" ">
<polygon fill="white" stroke="#bfbfbf" points="236,-0.5 236,-19.5 313,-19.5 313,-0.5 236,-0.5"/>
<text text-anchor="middle" x="274.5" y="-7.5" font-family="Helvetica,sans-Serif" font-size="10.00">Poco/Mutex.h</text>
</a>
</g>
</g>
<!-- Node1&#45;&gt;Node5 -->
<g id="edge9" class="edge">
<title>Node1&#45;&gt;Node5</title>
<path fill="none" stroke="midnightblue" d="M343.08,-190.45C326.2,-183.39 305.09,-171.64 293.5,-154 268.25,-115.56 269.45,-58.69 272.14,-29.61"/>
<polygon fill="midnightblue" stroke="midnightblue" points="275.63,-29.93 273.24,-19.6 268.67,-29.17 275.63,-29.93"/>
</g>
<!-- Node8 -->
<g id="node8" class="node">
<title>Node8</title>
<g id="a_node8"><a xlink:title=" ">
<polygon fill="white" stroke="#bfbfbf" points="303,-129 303,-148 352,-148 352,-129 303,-129"/>
<text text-anchor="middle" x="327.5" y="-136" font-family="Helvetica,sans-Serif" font-size="10.00">cassert</text>
</a>
</g>
</g>
<!-- Node1&#45;&gt;Node8 -->
<g id="edge8" class="edge">
<title>Node1&#45;&gt;Node8</title>
<path fill="none" stroke="midnightblue" d="M362.63,-190.48C356.54,-181.64 346.86,-167.59 339.2,-156.48"/>
<polygon fill="midnightblue" stroke="midnightblue" points="341.92,-154.26 333.36,-148.01 336.16,-158.23 341.92,-154.26"/>
</g>
<!-- Node9 -->
<g id="node9" class="node">
<title>Node9</title>
<g id="a_node9"><a xlink:title=" ">
<polygon fill="white" stroke="#bfbfbf" points="370.5,-129 370.5,-148 450.5,-148 450.5,-129 370.5,-129"/>
<text text-anchor="middle" x="410.5" y="-136" font-family="Helvetica,sans-Serif" font-size="10.00">Poco/Thread.h</text>
</a>
</g>
</g>
<!-- Node1&#45;&gt;Node9 -->
<g id="edge10" class="edge">
<title>Node1&#45;&gt;Node9</title>
<path fill="none" stroke="midnightblue" d="M374.52,-190.48C380.76,-181.64 390.67,-167.59 398.52,-156.48"/>
<polygon fill="midnightblue" stroke="midnightblue" points="401.59,-158.2 404.49,-148.01 395.87,-154.16 401.59,-158.2"/>
</g>
<!-- Node10 -->
<g id="node10" class="node">
<title>Node10</title>
<g id="a_node10"><a xlink:href="_level_d_b_exceptions_8h.html" target="_top" xlink:title=" ">
<polygon fill="white" stroke="black" points="468.5,-129 468.5,-148 608.5,-148 608.5,-129 468.5,-129"/>
<text text-anchor="middle" x="538.5" y="-136" font-family="Helvetica,sans-Serif" font-size="10.00">../../lib/LevelDBExceptions.h</text>
</a>
</g>
</g>
<!-- Node1&#45;&gt;Node10 -->
<g id="edge11" class="edge">
<title>Node1&#45;&gt;Node10</title>
<path fill="none" stroke="midnightblue" d="M392.86,-190.48C422.14,-180.22 471.47,-162.96 504.5,-151.4"/>
<polygon fill="midnightblue" stroke="midnightblue" points="505.91,-154.62 514.19,-148.01 503.59,-148.01 505.91,-154.62"/>
</g>
<!-- Node13 -->
<g id="node13" class="node">
<title>Node13</title>
<g id="a_node13"><a xlink:href="_logger_manager_8h.html" target="_top" xlink:title=" ">
<polygon fill="white" stroke="black" points="627,-123.5 627,-153.5 740,-153.5 740,-123.5 627,-123.5"/>
<text text-anchor="start" x="635" y="-141.5" font-family="Helvetica,sans-Serif" font-size="10.00">../../SingletonManager</text>
<text text-anchor="middle" x="683.5" y="-130.5" font-family="Helvetica,sans-Serif" font-size="10.00">/LoggerManager.h</text>
</a>
</g>
</g>
<!-- Node1&#45;&gt;Node13 -->
<g id="edge14" class="edge">
<title>Node1&#45;&gt;Node13</title>
<path fill="none" stroke="midnightblue" d="M418.68,-190.5C466.88,-182.21 542,-168.95 616.6,-154.14"/>
<polygon fill="midnightblue" stroke="midnightblue" points="617.53,-157.52 626.65,-152.13 616.16,-150.66 617.53,-157.52"/>
</g>
<!-- Node3 -->
<g id="node3" class="node">
<title>Node3</title>
<g id="a_node3"><a xlink:href="_file_base_8h.html" target="_top" xlink:title=" ">
<polygon fill="white" stroke="black" points="97,-62 97,-81 160,-81 160,-62 97,-62"/>
<text text-anchor="middle" x="128.5" y="-69" font-family="Helvetica,sans-Serif" font-size="10.00">FileBase.h</text>
</a>
</g>
</g>
<!-- Node2&#45;&gt;Node3 -->
<g id="edge2" class="edge">
<title>Node2&#45;&gt;Node3</title>
<path fill="none" stroke="midnightblue" d="M164.84,-128.73C158.41,-118.79 147.78,-102.34 139.67,-89.79"/>
<polygon fill="midnightblue" stroke="midnightblue" points="142.44,-87.63 134.07,-81.13 136.56,-91.43 142.44,-87.63"/>
</g>
<!-- Node4 -->
<g id="node4" class="node">
<title>Node4</title>
<g id="a_node4"><a xlink:title=" ">
<polygon fill="white" stroke="#bfbfbf" points="0,-0.5 0,-19.5 71,-19.5 71,-0.5 0,-0.5"/>
<text text-anchor="middle" x="35.5" y="-7.5" font-family="Helvetica,sans-Serif" font-size="10.00">Poco/Path.h</text>
</a>
</g>
</g>
<!-- Node2&#45;&gt;Node4 -->
<g id="edge7" class="edge">
<title>Node2&#45;&gt;Node4</title>
<path fill="none" stroke="midnightblue" d="M151.48,-128.86C133.58,-120.08 106.72,-105.22 87.5,-87 69.44,-69.88 54.11,-45.47 44.87,-28.98"/>
<polygon fill="midnightblue" stroke="midnightblue" points="47.78,-26.99 39.94,-19.86 41.62,-30.32 47.78,-26.99"/>
</g>
<!-- Node7 -->
<g id="node7" class="node">
<title>Node7</title>
<g id="a_node7"><a xlink:title=" ">
<polygon fill="white" stroke="#bfbfbf" points="178.5,-62 178.5,-81 246.5,-81 246.5,-62 178.5,-62"/>
<text text-anchor="middle" x="212.5" y="-69" font-family="Helvetica,sans-Serif" font-size="10.00">leveldb/db.h</text>
</a>
</g>
</g>
<!-- Node2&#45;&gt;Node7 -->
<g id="edge6" class="edge">
<title>Node2&#45;&gt;Node7</title>
<path fill="none" stroke="midnightblue" d="M176.16,-128.73C182.59,-118.79 193.22,-102.34 201.33,-89.79"/>
<polygon fill="midnightblue" stroke="midnightblue" points="204.44,-91.43 206.93,-81.13 198.56,-87.63 204.44,-91.43"/>
</g>
<!-- Node3&#45;&gt;Node4 -->
<g id="edge3" class="edge">
<title>Node3&#45;&gt;Node4</title>
<path fill="none" stroke="midnightblue" d="M115.18,-61.98C100.12,-52.34 75.38,-36.52 57.46,-25.05"/>
<polygon fill="midnightblue" stroke="midnightblue" points="59.11,-21.95 48.8,-19.51 55.34,-27.85 59.11,-21.95"/>
</g>
<!-- Node3&#45;&gt;Node5 -->
<g id="edge4" class="edge">
<title>Node3&#45;&gt;Node5</title>
<path fill="none" stroke="midnightblue" d="M149.42,-61.98C174.25,-51.86 215.84,-34.9 244.19,-23.35"/>
<polygon fill="midnightblue" stroke="midnightblue" points="245.68,-26.52 253.62,-19.51 243.04,-20.04 245.68,-26.52"/>
</g>
<!-- Node6 -->
<g id="node6" class="node">
<title>Node6</title>
<g id="a_node6"><a xlink:title=" ">
<polygon fill="white" stroke="#bfbfbf" points="89,-0.5 89,-19.5 218,-19.5 218,-0.5 89,-0.5"/>
<text text-anchor="middle" x="153.5" y="-7.5" font-family="Helvetica,sans-Serif" font-size="10.00">Poco/RefCountedObject.h</text>
</a>
</g>
</g>
<!-- Node3&#45;&gt;Node6 -->
<g id="edge5" class="edge">
<title>Node3&#45;&gt;Node6</title>
<path fill="none" stroke="midnightblue" d="M132.08,-61.98C135.68,-53.4 141.35,-39.93 145.94,-28.98"/>
<polygon fill="midnightblue" stroke="midnightblue" points="149.28,-30.08 149.92,-19.51 142.82,-27.37 149.28,-30.08"/>
</g>
<!-- Node11 -->
<g id="node11" class="node">
<title>Node11</title>
<g id="a_node11"><a xlink:title=" ">
<polygon fill="white" stroke="#bfbfbf" points="348,-56.5 348,-86.5 501,-86.5 501,-56.5 348,-56.5"/>
<text text-anchor="start" x="356" y="-74.5" font-family="Helvetica,sans-Serif" font-size="10.00">gradido_blockchain</text>
<text text-anchor="middle" x="424.5" y="-63.5" font-family="Helvetica,sans-Serif" font-size="10.00">/GradidoBlockchainException.h</text>
</a>
</g>
</g>
<!-- Node10&#45;&gt;Node11 -->
<g id="edge12" class="edge">
<title>Node10&#45;&gt;Node11</title>
<path fill="none" stroke="midnightblue" d="M523.13,-128.73C506.53,-119.27 479.6,-103.91 458.06,-91.64"/>
<polygon fill="midnightblue" stroke="midnightblue" points="459.63,-88.5 449.21,-86.59 456.16,-94.58 459.63,-88.5"/>
</g>
<!-- Node12 -->
<g id="node12" class="node">
<title>Node12</title>
<g id="a_node12"><a xlink:title=" ">
<polygon fill="white" stroke="#bfbfbf" points="519.5,-62 519.5,-81 603.5,-81 603.5,-62 519.5,-62"/>
<text text-anchor="middle" x="561.5" y="-69" font-family="Helvetica,sans-Serif" font-size="10.00">leveldb/status.h</text>
</a>
</g>
</g>
<!-- Node10&#45;&gt;Node12 -->
<g id="edge13" class="edge">
<title>Node10&#45;&gt;Node12</title>
<path fill="none" stroke="midnightblue" d="M541.6,-128.73C545.02,-119.09 550.6,-103.3 554.99,-90.91"/>
<polygon fill="midnightblue" stroke="midnightblue" points="558.41,-91.72 558.45,-81.13 551.81,-89.39 558.41,-91.72"/>
</g>
<!-- Node14 -->
<g id="node14" class="node">
<title>Node14</title>
<g id="a_node14"><a xlink:title=" ">
<polygon fill="white" stroke="#bfbfbf" points="643.5,-62 643.5,-81 723.5,-81 723.5,-62 643.5,-62"/>
<text text-anchor="middle" x="683.5" y="-69" font-family="Helvetica,sans-Serif" font-size="10.00">Poco/Logger.h</text>
</a>
</g>
</g>
<!-- Node13&#45;&gt;Node14 -->
<g id="edge15" class="edge">
<title>Node13&#45;&gt;Node14</title>
<path fill="none" stroke="midnightblue" d="M683.5,-123.4C683.5,-114.06 683.5,-101.71 683.5,-91.52"/>
<polygon fill="midnightblue" stroke="midnightblue" points="687,-91.19 683.5,-81.19 680,-91.19 687,-91.19"/>
</g>
</g>
</svg>
