<?xml version="1.0" encoding="UTF-8" standalone="no"?>
<!DOCTYPE svg PUBLIC "-//W3C//DTD SVG 1.1//EN"
 "http://www.w3.org/Graphics/SVG/1.1/DTD/svg11.dtd">
<!-- Generated by graphviz version 2.50.0 (20211204.2007)
 -->
<!-- Title: src/model/files/State.h Pages: 1 -->
<svg width="1500pt" height="296pt"
 viewBox="0.00 0.00 1500.00 296.00" xmlns="http://www.w3.org/2000/svg" xmlns:xlink="http://www.w3.org/1999/xlink">
<g id="graph0" class="graph" transform="scale(1 1) rotate(0) translate(4 292)">
<title>src/model/files/State.h</title>
<polygon fill="white" stroke="transparent" points="-4,4 -4,-292 1496,-292 1496,4 -4,4"/>
<!-- Node1 -->
<g id="node1" class="node">
<title>Node1</title>
<g id="a_node1"><a xlink:title=" ">
<polygon fill="#bfbfbf" stroke="black" points="335,-268.5 335,-287.5 449,-287.5 449,-268.5 335,-268.5"/>
<text text-anchor="middle" x="392" y="-275.5" font-family="Helvetica,sans-Serif" font-size="10.00">src/model/files/State.h</text>
</a>
</g>
</g>
<!-- Node2 -->
<g id="node2" class="node">
<title>Node2</title>
<g id="a_node2"><a xlink:href="_global_state_manager_8h.html" target="_top" xlink:title=" ">
<polygon fill="white" stroke="black" points="203,-201.5 203,-231.5 319,-231.5 319,-201.5 203,-201.5"/>
<text text-anchor="start" x="211" y="-219.5" font-family="Helvetica,sans-Serif" font-size="10.00">src/SingletonManager</text>
<text text-anchor="middle" x="261" y="-208.5" font-family="Helvetica,sans-Serif" font-size="10.00">/GlobalStateManager.h</text>
</a>
</g>
</g>
<!-- Node1&#45;&gt;Node2 -->
<g id="edge1" class="edge">
<title>Node1&#45;&gt;Node2</title>
<path fill="none" stroke="midnightblue" d="M364.11,-264.33C342.91,-254.7 313.77,-241.47 291.87,-231.52"/>
<polygon fill="midnightblue" stroke="midnightblue" points="362.68,-267.53 373.23,-268.48 365.57,-261.15 362.68,-267.53"/>
</g>
<!-- Node5 -->
<g id="node5" class="node">
<title>Node5</title>
<g id="a_node5"><a xlink:href="_group_8h.html" target="_top" xlink:title=" ">
<polygon fill="white" stroke="black" points="337,-207 337,-226 447,-226 447,-207 337,-207"/>
<text text-anchor="middle" x="392" y="-214" font-family="Helvetica,sans-Serif" font-size="10.00">src/controller/Group.h</text>
</a>
</g>
</g>
<!-- Node1&#45;&gt;Node5 -->
<g id="edge4" class="edge">
<title>Node1&#45;&gt;Node5</title>
<path fill="none" stroke="midnightblue" d="M392,-258.32C392,-247.5 392,-234.4 392,-226.01"/>
<polygon fill="midnightblue" stroke="midnightblue" points="388.5,-258.48 392,-268.48 395.5,-258.48 388.5,-258.48"/>
</g>
<!-- Node21 -->
<g id="node21" class="node">
<title>Node21</title>
<g id="a_node21"><a xlink:href="_state_8cpp.html" target="_top" xlink:title=" ">
<polygon fill="white" stroke="black" points="465.5,-207 465.5,-226 590.5,-226 590.5,-207 465.5,-207"/>
<text text-anchor="middle" x="528" y="-214" font-family="Helvetica,sans-Serif" font-size="10.00">src/model/files/State.cpp</text>
</a>
</g>
</g>
<!-- Node1&#45;&gt;Node21 -->
<g id="edge23" class="edge">
<title>Node1&#45;&gt;Node21</title>
<path fill="none" stroke="midnightblue" d="M420.97,-264.33C447.37,-252.78 485.64,-236.03 508.55,-226.01"/>
<polygon fill="midnightblue" stroke="midnightblue" points="419.24,-261.26 411.49,-268.48 422.05,-267.67 419.24,-261.26"/>
</g>
<!-- Node3 -->
<g id="node3" class="node">
<title>Node3</title>
<g id="a_node3"><a xlink:href="_global_state_manager_8cpp.html" target="_top" xlink:title=" ">
<polygon fill="white" stroke="black" points="60.5,-134.5 60.5,-164.5 187.5,-164.5 187.5,-134.5 60.5,-134.5"/>
<text text-anchor="start" x="68.5" y="-152.5" font-family="Helvetica,sans-Serif" font-size="10.00">src/SingletonManager</text>
<text text-anchor="middle" x="124" y="-141.5" font-family="Helvetica,sans-Serif" font-size="10.00">/GlobalStateManager.cpp</text>
</a>
</g>
</g>
<!-- Node2&#45;&gt;Node3 -->
<g id="edge2" class="edge">
<title>Node2&#45;&gt;Node3</title>
<path fill="none" stroke="midnightblue" d="M221.99,-196.99C200.28,-186.69 173.67,-174.07 153.67,-164.58"/>
<polygon fill="midnightblue" stroke="midnightblue" points="220.74,-200.27 231.27,-201.4 223.74,-193.95 220.74,-200.27"/>
</g>
<!-- Node4 -->
<g id="node4" class="node">
<title>Node4</title>
<g id="a_node4"><a xlink:href="_ordering_manager_8cpp.html" target="_top" xlink:title=" ">
<polygon fill="white" stroke="black" points="205.5,-134.5 205.5,-164.5 318.5,-164.5 318.5,-134.5 205.5,-134.5"/>
<text text-anchor="start" x="213.5" y="-152.5" font-family="Helvetica,sans-Serif" font-size="10.00">src/SingletonManager</text>
<text text-anchor="middle" x="262" y="-141.5" font-family="Helvetica,sans-Serif" font-size="10.00">/OrderingManager.cpp</text>
</a>
</g>
</g>
<!-- Node2&#45;&gt;Node4 -->
<g id="edge3" class="edge">
<title>Node2&#45;&gt;Node4</title>
<path fill="none" stroke="midnightblue" d="M261.38,-191.11C261.51,-182.15 261.66,-172.32 261.78,-164.58"/>
<polygon fill="midnightblue" stroke="midnightblue" points="257.87,-191.34 261.22,-201.4 264.87,-191.45 257.87,-191.34"/>
</g>
<!-- Node5&#45;&gt;Node4 -->
<g id="edge11" class="edge">
<title>Node5&#45;&gt;Node4</title>
<path fill="none" stroke="midnightblue" d="M365.68,-202.34C343.8,-191.4 312.72,-175.86 290.3,-164.65"/>
<polygon fill="midnightblue" stroke="midnightblue" points="364.23,-205.53 374.74,-206.87 367.36,-199.27 364.23,-205.53"/>
</g>
<!-- Node6 -->
<g id="node6" class="node">
<title>Node6</title>
<g id="a_node6"><a xlink:href="_group_manager_8h.html" target="_top" xlink:title=" ">
<polygon fill="white" stroke="black" points="336.5,-134.5 336.5,-164.5 447.5,-164.5 447.5,-134.5 336.5,-134.5"/>
<text text-anchor="start" x="344.5" y="-152.5" font-family="Helvetica,sans-Serif" font-size="10.00">src/SingletonManager</text>
<text text-anchor="middle" x="392" y="-141.5" font-family="Helvetica,sans-Serif" font-size="10.00">/GroupManager.h</text>
</a>
</g>
</g>
<!-- Node5&#45;&gt;Node6 -->
<g id="edge5" class="edge">
<title>Node5&#45;&gt;Node6</title>
<path fill="none" stroke="midnightblue" d="M392,-196.41C392,-186.22 392,-173.9 392,-164.59"/>
<polygon fill="midnightblue" stroke="midnightblue" points="388.5,-196.73 392,-206.73 395.5,-196.73 388.5,-196.73"/>
</g>
<!-- Node10 -->
<g id="node10" class="node">
<title>Node10</title>
<g id="a_node10"><a xlink:href="_group_8cpp.html" target="_top" xlink:title=" ">
<polygon fill="white" stroke="black" points="531.5,-6 531.5,-25 652.5,-25 652.5,-6 531.5,-6"/>
<text text-anchor="middle" x="592" y="-13" font-family="Helvetica,sans-Serif" font-size="10.00">src/controller/Group.cpp</text>
</a>
</g>
</g>
<!-- Node5&#45;&gt;Node10 -->
<g id="edge12" class="edge">
<title>Node5&#45;&gt;Node10</title>
<path fill="none" stroke="midnightblue" d="M438.24,-204.17C488.2,-189.19 565.31,-157.44 600,-98 613.69,-74.55 602.5,-40.72 595.93,-25.06"/>
<polygon fill="midnightblue" stroke="midnightblue" points="437.26,-200.81 428.63,-206.95 439.21,-207.54 437.26,-200.81"/>
</g>
<!-- Node12 -->
<g id="node12" class="node">
<title>Node12</title>
<g id="a_node12"><a xlink:href="_transaction_entry_8h.html" target="_top" xlink:title=" ">
<polygon fill="white" stroke="black" points="858,-140 858,-159 1002,-159 1002,-140 858,-140"/>
<text text-anchor="middle" x="930" y="-147" font-family="Helvetica,sans-Serif" font-size="10.00">src/model/TransactionEntry.h</text>
</a>
</g>
</g>
<!-- Node5&#45;&gt;Node12 -->
<g id="edge13" class="edge">
<title>Node5&#45;&gt;Node12</title>
<path fill="none" stroke="midnightblue" d="M436.48,-204.72C443,-203.35 449.66,-202.05 456,-201 597.44,-177.52 764.53,-162.69 857.78,-155.56"/>
<polygon fill="midnightblue" stroke="midnightblue" points="435.42,-201.37 426.4,-206.93 436.92,-208.21 435.42,-201.37"/>
</g>
<!-- Node7 -->
<g id="node7" class="node">
<title>Node7</title>
<g id="a_node7"><a xlink:href="_json_r_p_c_handler_8cpp.html" target="_top" xlink:title=" ">
<polygon fill="white" stroke="black" points="0,-67.5 0,-97.5 116,-97.5 116,-67.5 0,-67.5"/>
<text text-anchor="start" x="8" y="-85.5" font-family="Helvetica,sans-Serif" font-size="10.00">src/JSONRPCInterface</text>
<text text-anchor="middle" x="58" y="-74.5" font-family="Helvetica,sans-Serif" font-size="10.00">/JsonRPCHandler.cpp</text>
</a>
</g>
</g>
<!-- Node6&#45;&gt;Node7 -->
<g id="edge6" class="edge">
<title>Node6&#45;&gt;Node7</title>
<path fill="none" stroke="midnightblue" d="M326.5,-133.95C235.93,-116.02 211.41,-115.04 125,-98 122.08,-97.42 119.09,-96.82 116.08,-96.21"/>
<polygon fill="midnightblue" stroke="midnightblue" points="325.87,-137.4 336.36,-135.92 327.24,-130.53 325.87,-137.4"/>
</g>
<!-- Node8 -->
<g id="node8" class="node">
<title>Node8</title>
<g id="a_node8"><a xlink:href="_main_server_8cpp.html" target="_top" xlink:title=" ">
<polygon fill="white" stroke="black" points="134,-73 134,-92 234,-92 234,-73 134,-73"/>
<text text-anchor="middle" x="184" y="-80" font-family="Helvetica,sans-Serif" font-size="10.00">src/MainServer.cpp</text>
</a>
</g>
</g>
<!-- Node6&#45;&gt;Node8 -->
<g id="edge7" class="edge">
<title>Node6&#45;&gt;Node8</title>
<path fill="none" stroke="midnightblue" d="M337.38,-131.43C296.81,-118.75 243.2,-102 211.29,-92.03"/>
<polygon fill="midnightblue" stroke="midnightblue" points="336.53,-134.83 347.12,-134.48 338.62,-128.15 336.53,-134.83"/>
</g>
<!-- Node9 -->
<g id="node9" class="node">
<title>Node9</title>
<g id="a_node9"><a xlink:href="_group_manager_8cpp.html" target="_top" xlink:title=" ">
<polygon fill="white" stroke="black" points="252.5,-67.5 252.5,-97.5 363.5,-97.5 363.5,-67.5 252.5,-67.5"/>
<text text-anchor="start" x="260.5" y="-85.5" font-family="Helvetica,sans-Serif" font-size="10.00">src/SingletonManager</text>
<text text-anchor="middle" x="308" y="-74.5" font-family="Helvetica,sans-Serif" font-size="10.00">/GroupManager.cpp</text>
</a>
</g>
</g>
<!-- Node6&#45;&gt;Node9 -->
<g id="edge8" class="edge">
<title>Node6&#45;&gt;Node9</title>
<path fill="none" stroke="midnightblue" d="M365.72,-128.17C352.88,-118.23 337.74,-106.51 326.19,-97.58"/>
<polygon fill="midnightblue" stroke="midnightblue" points="363.72,-131.04 373.77,-134.4 368.01,-125.51 363.72,-131.04"/>
</g>
<!-- Node6&#45;&gt;Node10 -->
<g id="edge9" class="edge">
<title>Node6&#45;&gt;Node10</title>
<path fill="none" stroke="midnightblue" d="M391.4,-124.32C392.28,-106.26 396.45,-82.19 411,-67 441.92,-34.72 491.58,-22.53 531.07,-18.17"/>
<polygon fill="midnightblue" stroke="midnightblue" points="387.9,-124.33 391.22,-134.39 394.9,-124.46 387.9,-124.33"/>
</g>
<!-- Node11 -->
<g id="node11" class="node">
<title>Node11</title>
<g id="a_node11"><a xlink:href="_iota_message_to_transaction_task_8cpp.html" target="_top" xlink:title=" ">
<polygon fill="white" stroke="black" points="420.5,-67.5 420.5,-97.5 591.5,-97.5 591.5,-67.5 420.5,-67.5"/>
<text text-anchor="start" x="428.5" y="-85.5" font-family="Helvetica,sans-Serif" font-size="10.00">src/task/IotaMessageToTransaction</text>
<text text-anchor="middle" x="506" y="-74.5" font-family="Helvetica,sans-Serif" font-size="10.00">Task.cpp</text>
</a>
</g>
</g>
<!-- Node6&#45;&gt;Node11 -->
<g id="edge10" class="edge">
<title>Node6&#45;&gt;Node11</title>
<path fill="none" stroke="midnightblue" d="M425.68,-129.3C443.52,-119.12 465.04,-106.85 481.31,-97.58"/>
<polygon fill="midnightblue" stroke="midnightblue" points="423.69,-126.4 416.74,-134.4 427.16,-132.48 423.69,-126.4"/>
</g>
<!-- Node13 -->
<g id="node13" class="node">
<title>Node13</title>
<g id="a_node13"><a xlink:href="controller_2_block_8h.html" target="_top" xlink:title=" ">
<polygon fill="white" stroke="black" points="648.5,-73 648.5,-92 757.5,-92 757.5,-73 648.5,-73"/>
<text text-anchor="middle" x="703" y="-80" font-family="Helvetica,sans-Serif" font-size="10.00">src/controller/Block.h</text>
</a>
</g>
</g>
<!-- Node12&#45;&gt;Node13 -->
<g id="edge14" class="edge">
<title>Node12&#45;&gt;Node13</title>
<path fill="none" stroke="midnightblue" d="M890.16,-137.09C845.25,-124.23 773.26,-103.62 732.91,-92.06"/>
<polygon fill="midnightblue" stroke="midnightblue" points="889.28,-140.48 899.86,-139.87 891.21,-133.75 889.28,-140.48"/>
</g>
<!-- Node15 -->
<g id="node15" class="node">
<title>Node15</title>
<g id="a_node15"><a xlink:href="controller_2_block_index_8cpp.html" target="_top" xlink:title=" ">
<polygon fill="white" stroke="black" points="775.5,-73 775.5,-92 918.5,-92 918.5,-73 775.5,-73"/>
<text text-anchor="middle" x="847" y="-80" font-family="Helvetica,sans-Serif" font-size="10.00">src/controller/BlockIndex.cpp</text>
</a>
</g>
</g>
<!-- Node12&#45;&gt;Node15 -->
<g id="edge17" class="edge">
<title>Node12&#45;&gt;Node15</title>
<path fill="none" stroke="midnightblue" d="M910.93,-133.57C894.55,-120.74 871.5,-102.69 858.02,-92.13"/>
<polygon fill="midnightblue" stroke="midnightblue" points="908.78,-136.32 918.81,-139.73 913.09,-130.81 908.78,-136.32"/>
</g>
<!-- Node16 -->
<g id="node16" class="node">
<title>Node16</title>
<g id="a_node16"><a xlink:href="_transaction_entry_8cpp.html" target="_top" xlink:title=" ">
<polygon fill="white" stroke="black" points="936.5,-73 936.5,-92 1091.5,-92 1091.5,-73 936.5,-73"/>
<text text-anchor="middle" x="1014" y="-80" font-family="Helvetica,sans-Serif" font-size="10.00">src/model/TransactionEntry.cpp</text>
</a>
</g>
</g>
<!-- Node12&#45;&gt;Node16 -->
<g id="edge18" class="edge">
<title>Node12&#45;&gt;Node16</title>
<path fill="none" stroke="midnightblue" d="M949.3,-133.57C965.88,-120.74 989.21,-102.69 1002.85,-92.13"/>
<polygon fill="midnightblue" stroke="midnightblue" points="947.1,-130.85 941.33,-139.73 951.38,-136.38 947.1,-130.85"/>
</g>
<!-- Node17 -->
<g id="node17" class="node">
<title>Node17</title>
<g id="a_node17"><a xlink:href="model_2files_2_block_index_8cpp.html" target="_top" xlink:title=" ">
<polygon fill="white" stroke="black" points="1109.5,-73 1109.5,-92 1258.5,-92 1258.5,-73 1109.5,-73"/>
<text text-anchor="middle" x="1184" y="-80" font-family="Helvetica,sans-Serif" font-size="10.00">src/model/files/BlockIndex.cpp</text>
</a>
</g>
</g>
<!-- Node12&#45;&gt;Node17 -->
<g id="edge19" class="edge">
<title>Node12&#45;&gt;Node17</title>
<path fill="none" stroke="midnightblue" d="M973.36,-137.4C1023.49,-124.58 1104.92,-103.74 1150.46,-92.08"/>
<polygon fill="midnightblue" stroke="midnightblue" points="972.29,-134.07 963.47,-139.94 974.02,-140.85 972.29,-134.07"/>
</g>
<!-- Node18 -->
<g id="node18" class="node">
<title>Node18</title>
<g id="a_node18"><a xlink:href="_write_transactions_to_block_task_8h.html" target="_top" xlink:title=" ">
<polygon fill="white" stroke="black" points="1277,-67.5 1277,-97.5 1411,-97.5 1411,-67.5 1277,-67.5"/>
<text text-anchor="start" x="1285" y="-85.5" font-family="Helvetica,sans-Serif" font-size="10.00">src/task/WriteTransactions</text>
<text text-anchor="middle" x="1344" y="-74.5" font-family="Helvetica,sans-Serif" font-size="10.00">ToBlockTask.h</text>
</a>
</g>
</g>
<!-- Node12&#45;&gt;Node18 -->
<g id="edge20" class="edge">
<title>Node12&#45;&gt;Node18</title>
<path fill="none" stroke="midnightblue" d="M1002.36,-138.55C1070.89,-128.92 1176.62,-113.54 1268,-98 1270.91,-97.5 1273.89,-96.99 1276.89,-96.46"/>
<polygon fill="midnightblue" stroke="midnightblue" points="1001.52,-135.13 992.11,-139.98 1002.49,-142.06 1001.52,-135.13"/>
</g>
<!-- Node13&#45;&gt;Node10 -->
<g id="edge16" class="edge">
<title>Node13&#45;&gt;Node10</title>
<path fill="none" stroke="midnightblue" d="M679.29,-67.62C657.3,-54.74 625.26,-35.98 606.73,-25.13"/>
<polygon fill="midnightblue" stroke="midnightblue" points="677.63,-70.7 688.03,-72.73 681.17,-64.66 677.63,-70.7"/>
</g>
<!-- Node14 -->
<g id="node14" class="node">
<title>Node14</title>
<g id="a_node14"><a xlink:href="controller_2_block_8cpp.html" target="_top" xlink:title=" ">
<polygon fill="white" stroke="black" points="670.5,-6 670.5,-25 789.5,-25 789.5,-6 670.5,-6"/>
<text text-anchor="middle" x="730" y="-13" font-family="Helvetica,sans-Serif" font-size="10.00">src/controller/Block.cpp</text>
</a>
</g>
</g>
<!-- Node13&#45;&gt;Node14 -->
<g id="edge15" class="edge">
<title>Node13&#45;&gt;Node14</title>
<path fill="none" stroke="midnightblue" d="M710.56,-63.29C715.75,-50.81 722.39,-34.81 726.42,-25.13"/>
<polygon fill="midnightblue" stroke="midnightblue" points="707.25,-62.16 706.64,-72.73 713.71,-64.84 707.25,-62.16"/>
</g>
<!-- Node19 -->
<g id="node19" class="node">
<title>Node19</title>
<g id="a_node19"><a xlink:href="_task_observer_8cpp.html" target="_top" xlink:title=" ">
<polygon fill="white" stroke="black" points="1186,-6 1186,-25 1340,-25 1340,-6 1186,-6"/>
<text text-anchor="middle" x="1263" y="-13" font-family="Helvetica,sans-Serif" font-size="10.00">src/controller/TaskObserver.cpp</text>
</a>
</g>
</g>
<!-- Node18&#45;&gt;Node19 -->
<g id="edge21" class="edge">
<title>Node18&#45;&gt;Node19</title>
<path fill="none" stroke="midnightblue" d="M1318.46,-61.01C1303.43,-48.94 1285.19,-34.3 1273.83,-25.19"/>
<polygon fill="midnightblue" stroke="midnightblue" points="1316.43,-63.87 1326.42,-67.4 1320.82,-58.41 1316.43,-63.87"/>
</g>
<!-- Node20 -->
<g id="node20" class="node">
<title>Node20</title>
<g id="a_node20"><a xlink:href="_write_transactions_to_block_task_8cpp.html" target="_top" xlink:title=" ">
<polygon fill="white" stroke="black" points="1358,-0.5 1358,-30.5 1492,-30.5 1492,-0.5 1358,-0.5"/>
<text text-anchor="start" x="1366" y="-18.5" font-family="Helvetica,sans-Serif" font-size="10.00">src/task/WriteTransactions</text>
<text text-anchor="middle" x="1425" y="-7.5" font-family="Helvetica,sans-Serif" font-size="10.00">ToBlockTask.cpp</text>
</a>
</g>
</g>
<!-- Node18&#45;&gt;Node20 -->
<g id="edge22" class="edge">
<title>Node18&#45;&gt;Node20</title>
<path fill="none" stroke="midnightblue" d="M1369.69,-60.88C1382,-51.01 1396.43,-39.43 1407.46,-30.58"/>
<polygon fill="midnightblue" stroke="midnightblue" points="1367.18,-58.41 1361.58,-67.4 1371.57,-63.87 1367.18,-58.41"/>
</g>
</g>
</svg>
