<?xml version="1.0" encoding="UTF-8" standalone="no"?>
<!DOCTYPE svg PUBLIC "-//W3C//DTD SVG 1.1//EN"
 "http://www.w3.org/Graphics/SVG/1.1/DTD/svg11.dtd">
<!-- Generated by graphviz version 2.50.0 (20211204.2007)
 -->
<!-- Title: src/controller/TaskObserver.h Pages: 1 -->
<svg width="662pt" height="95pt"
 viewBox="0.00 0.00 662.00 95.00" xmlns="http://www.w3.org/2000/svg" xmlns:xlink="http://www.w3.org/1999/xlink">
<g id="graph0" class="graph" transform="scale(1 1) rotate(0) translate(4 91)">
<title>src/controller/TaskObserver.h</title>
<polygon fill="white" stroke="transparent" points="-4,4 -4,-91 658,-91 658,4 -4,4"/>
<!-- Node1 -->
<g id="node1" class="node">
<title>Node1</title>
<g id="a_node1"><a xlink:title=" ">
<polygon fill="#bfbfbf" stroke="black" points="308,-67.5 308,-86.5 451,-86.5 451,-67.5 308,-67.5"/>
<text text-anchor="middle" x="379.5" y="-74.5" font-family="Helvetica,sans-Serif" font-size="10.00">src/controller/TaskObserver.h</text>
</a>
</g>
</g>
<!-- Node2 -->
<g id="node2" class="node">
<title>Node2</title>
<g id="a_node2"><a xlink:title=" ">
<polygon fill="white" stroke="#bfbfbf" points="0,-6 0,-25 77,-25 77,-6 0,-6"/>
<text text-anchor="middle" x="38.5" y="-13" font-family="Helvetica,sans-Serif" font-size="10.00">Poco/Mutex.h</text>
</a>
</g>
</g>
<!-- Node1&#45;&gt;Node2 -->
<g id="edge1" class="edge">
<title>Node1&#45;&gt;Node2</title>
<path fill="none" stroke="midnightblue" d="M307.95,-68.04C248.07,-60.67 160.61,-48.24 85.5,-31 81.59,-30.1 77.52,-29.04 73.5,-27.92"/>
<polygon fill="midnightblue" stroke="midnightblue" points="74.26,-24.49 63.68,-25.02 72.28,-31.21 74.26,-24.49"/>
</g>
<!-- Node3 -->
<g id="node3" class="node">
<title>Node3</title>
<g id="a_node3"><a xlink:title=" ">
<polygon fill="white" stroke="#bfbfbf" points="95,-6 95,-25 178,-25 178,-6 95,-6"/>
<text text-anchor="middle" x="136.5" y="-13" font-family="Helvetica,sans-Serif" font-size="10.00">Poco/AutoPtr.h</text>
</a>
</g>
</g>
<!-- Node1&#45;&gt;Node3 -->
<g id="edge2" class="edge">
<title>Node1&#45;&gt;Node3</title>
<path fill="none" stroke="midnightblue" d="M340.76,-67.48C301.88,-58.8 240.36,-44.7 187.5,-31 183.6,-29.99 179.55,-28.9 175.5,-27.79"/>
<polygon fill="midnightblue" stroke="midnightblue" points="176.14,-24.33 165.56,-25.02 174.25,-31.08 176.14,-24.33"/>
</g>
<!-- Node4 -->
<g id="node4" class="node">
<title>Node4</title>
<g id="a_node4"><a xlink:title=" ">
<polygon fill="white" stroke="#bfbfbf" points="196.5,-0.5 196.5,-30.5 296.5,-30.5 296.5,-0.5 196.5,-0.5"/>
<text text-anchor="start" x="204.5" y="-18.5" font-family="Helvetica,sans-Serif" font-size="10.00">gradido_blockchain</text>
<text text-anchor="middle" x="246.5" y="-7.5" font-family="Helvetica,sans-Serif" font-size="10.00">/lib/DRHashList.h</text>
</a>
</g>
</g>
<!-- Node1&#45;&gt;Node4 -->
<g id="edge3" class="edge">
<title>Node1&#45;&gt;Node4</title>
<path fill="none" stroke="midnightblue" d="M360.44,-67.48C341.42,-58.96 311.59,-45.62 287.22,-34.72"/>
<polygon fill="midnightblue" stroke="midnightblue" points="288.4,-31.41 277.85,-30.52 285.54,-37.8 288.4,-31.41"/>
</g>
<!-- Node5 -->
<g id="node5" class="node">
<title>Node5</title>
<g id="a_node5"><a xlink:title=" ">
<polygon fill="white" stroke="#bfbfbf" points="314.5,-0.5 314.5,-30.5 444.5,-30.5 444.5,-0.5 314.5,-0.5"/>
<text text-anchor="start" x="322.5" y="-18.5" font-family="Helvetica,sans-Serif" font-size="10.00">gradido_blockchain</text>
<text text-anchor="middle" x="379.5" y="-7.5" font-family="Helvetica,sans-Serif" font-size="10.00">/lib/MultithreadContainer.h</text>
</a>
</g>
</g>
<!-- Node1&#45;&gt;Node5 -->
<g id="edge4" class="edge">
<title>Node1&#45;&gt;Node5</title>
<path fill="none" stroke="midnightblue" d="M379.5,-67.48C379.5,-60.47 379.5,-50.19 379.5,-40.7"/>
<polygon fill="midnightblue" stroke="midnightblue" points="383,-40.52 379.5,-30.52 376,-40.52 383,-40.52"/>
</g>
<!-- Node6 -->
<g id="node6" class="node">
<title>Node6</title>
<g id="a_node6"><a xlink:href="_task_8h.html" target="_top" xlink:title=" ">
<polygon fill="white" stroke="black" points="463,-6 463,-25 540,-25 540,-6 463,-6"/>
<text text-anchor="middle" x="501.5" y="-13" font-family="Helvetica,sans-Serif" font-size="10.00">../task/Task.h</text>
</a>
</g>
</g>
<!-- Node1&#45;&gt;Node6 -->
<g id="edge5" class="edge">
<title>Node1&#45;&gt;Node6</title>
<path fill="none" stroke="midnightblue" d="M396.98,-67.48C417.36,-57.53 451.28,-40.99 474.92,-29.46"/>
<polygon fill="midnightblue" stroke="midnightblue" points="476.6,-32.54 484.05,-25.01 473.53,-26.25 476.6,-32.54"/>
</g>
<!-- Node7 -->
<g id="node7" class="node">
<title>Node7</title>
<g id="a_node7"><a xlink:title=" ">
<polygon fill="white" stroke="#bfbfbf" points="558.5,-6 558.5,-25 600.5,-25 600.5,-6 558.5,-6"/>
<text text-anchor="middle" x="579.5" y="-13" font-family="Helvetica,sans-Serif" font-size="10.00">vector</text>
</a>
</g>
</g>
<!-- Node1&#45;&gt;Node7 -->
<g id="edge6" class="edge">
<title>Node1&#45;&gt;Node7</title>
<path fill="none" stroke="midnightblue" d="M420.36,-67.5C455.23,-59.7 506.41,-46.95 549.5,-31 550.92,-30.47 552.37,-29.9 553.82,-29.3"/>
<polygon fill="midnightblue" stroke="midnightblue" points="555.56,-32.36 563.24,-25.06 552.69,-25.97 555.56,-32.36"/>
</g>
<!-- Node8 -->
<g id="node8" class="node">
<title>Node8</title>
<g id="a_node8"><a xlink:title=" ">
<polygon fill="white" stroke="#bfbfbf" points="619,-6 619,-25 654,-25 654,-6 619,-6"/>
<text text-anchor="middle" x="636.5" y="-13" font-family="Helvetica,sans-Serif" font-size="10.00">map</text>
</a>
</g>
</g>
<!-- Node1&#45;&gt;Node8 -->
<g id="edge7" class="edge">
<title>Node1&#45;&gt;Node8</title>
<path fill="none" stroke="midnightblue" d="M451.18,-67.61C497.32,-60.85 558.06,-49.37 609.5,-31 610.74,-30.56 611.99,-30.06 613.24,-29.54"/>
<polygon fill="midnightblue" stroke="midnightblue" points="615.11,-32.52 622.57,-25 612.05,-26.22 615.11,-32.52"/>
</g>
</g>
</svg>
