<?xml version="1.0" encoding="UTF-8" standalone="no"?>
<!DOCTYPE svg PUBLIC "-//W3C//DTD SVG 1.1//EN"
 "http://www.w3.org/Graphics/SVG/1.1/DTD/svg11.dtd">
<!-- Generated by graphviz version 2.50.0 (20211204.2007)
 -->
<!-- Title: src/model/TransactionEntry.cpp Pages: 1 -->
<svg width="1952pt" height="408pt"
 viewBox="0.00 0.00 1951.84 408.00" xmlns="http://www.w3.org/2000/svg" xmlns:xlink="http://www.w3.org/1999/xlink">
<g id="graph0" class="graph" transform="scale(1 1) rotate(0) translate(4 404)">
<title>src/model/TransactionEntry.cpp</title>
<polygon fill="white" stroke="transparent" points="-4,4 -4,-404 1947.84,-404 1947.84,4 -4,4"/>
<!-- Node1 -->
<g id="node1" class="node">
<title>Node1</title>
<g id="a_node1"><a xlink:title=" ">
<polygon fill="#bfbfbf" stroke="black" points="1651.34,-380.5 1651.34,-399.5 1806.34,-399.5 1806.34,-380.5 1651.34,-380.5"/>
<text text-anchor="middle" x="1728.84" y="-387.5" font-family="Helvetica,sans-Serif" font-size="10.00">src/model/TransactionEntry.cpp</text>
</a>
</g>
</g>
<!-- Node2 -->
<g id="node2" class="node">
<title>Node2</title>
<g id="a_node2"><a xlink:href="_transaction_entry_8h.html" target="_top" xlink:title=" ">
<polygon fill="white" stroke="black" points="1461.84,-324.5 1461.84,-343.5 1559.84,-343.5 1559.84,-324.5 1461.84,-324.5"/>
<text text-anchor="middle" x="1510.84" y="-331.5" font-family="Helvetica,sans-Serif" font-size="10.00">TransactionEntry.h</text>
</a>
</g>
</g>
<!-- Node1&#45;&gt;Node2 -->
<g id="edge1" class="edge">
<title>Node1&#45;&gt;Node2</title>
<path fill="none" stroke="midnightblue" d="M1694.3,-380.44C1656.59,-371.1 1596.1,-356.12 1554.97,-345.93"/>
<polygon fill="midnightblue" stroke="midnightblue" points="1555.77,-342.52 1545.22,-343.52 1554.08,-349.32 1555.77,-342.52"/>
</g>
<!-- Node31 -->
<g id="node31" class="node">
<title>Node31</title>
<g id="a_node31"><a xlink:title=" ">
<polygon fill="white" stroke="#bfbfbf" points="1678.84,-190.5 1678.84,-231.5 1798.84,-231.5 1798.84,-190.5 1678.84,-190.5"/>
<text text-anchor="start" x="1686.84" y="-219.5" font-family="Helvetica,sans-Serif" font-size="10.00">gradido_blockchain</text>
<text text-anchor="start" x="1686.84" y="-208.5" font-family="Helvetica,sans-Serif" font-size="10.00">/model/protobufWrapper</text>
<text text-anchor="middle" x="1738.84" y="-197.5" font-family="Helvetica,sans-Serif" font-size="10.00">/GradidoBlock.h</text>
</a>
</g>
</g>
<!-- Node1&#45;&gt;Node31 -->
<g id="edge68" class="edge">
<title>Node1&#45;&gt;Node31</title>
<path fill="none" stroke="midnightblue" d="M1729.32,-380.46C1730.72,-355.69 1734.83,-282.92 1737.17,-241.58"/>
<polygon fill="midnightblue" stroke="midnightblue" points="1740.66,-241.73 1737.73,-231.55 1733.68,-241.34 1740.66,-241.73"/>
</g>
<!-- Node3 -->
<g id="node3" class="node">
<title>Node3</title>
<g id="a_node3"><a xlink:title=" ">
<polygon fill="white" stroke="#bfbfbf" points="1405.34,-268.5 1405.34,-287.5 1482.34,-287.5 1482.34,-268.5 1405.34,-268.5"/>
<text text-anchor="middle" x="1443.84" y="-275.5" font-family="Helvetica,sans-Serif" font-size="10.00">Poco/Types.h</text>
</a>
</g>
</g>
<!-- Node2&#45;&gt;Node3 -->
<g id="edge2" class="edge">
<title>Node2&#45;&gt;Node3</title>
<path fill="none" stroke="midnightblue" d="M1500.07,-324.32C1490.07,-316.26 1474.95,-304.08 1462.91,-294.37"/>
<polygon fill="midnightblue" stroke="midnightblue" points="1464.78,-291.38 1454.8,-287.83 1460.39,-296.83 1464.78,-291.38"/>
</g>
<!-- Node4 -->
<g id="node4" class="node">
<title>Node4</title>
<g id="a_node4"><a xlink:title=" ">
<polygon fill="white" stroke="#bfbfbf" points="1325.34,-6 1325.34,-25 1402.34,-25 1402.34,-6 1325.34,-6"/>
<text text-anchor="middle" x="1363.84" y="-13" font-family="Helvetica,sans-Serif" font-size="10.00">Poco/Mutex.h</text>
</a>
</g>
</g>
<!-- Node2&#45;&gt;Node4 -->
<g id="edge3" class="edge">
<title>Node2&#45;&gt;Node4</title>
<path fill="none" stroke="midnightblue" d="M1560.09,-329.68C1673.58,-320.67 1943.84,-290.93 1943.84,-212 1943.84,-212 1943.84,-212 1943.84,-137.5 1943.84,-29.35 1552.54,-17.23 1412.75,-16.35"/>
<polygon fill="midnightblue" stroke="midnightblue" points="1412.36,-12.85 1402.34,-16.3 1412.33,-19.85 1412.36,-12.85"/>
</g>
<!-- Node5 -->
<g id="node5" class="node">
<title>Node5</title>
<g id="a_node5"><a xlink:title=" ">
<polygon fill="white" stroke="#bfbfbf" points="1294.84,-268.5 1294.84,-287.5 1386.84,-287.5 1386.84,-268.5 1294.84,-268.5"/>
<text text-anchor="middle" x="1340.84" y="-275.5" font-family="Helvetica,sans-Serif" font-size="10.00">Poco/DateTime.h</text>
</a>
</g>
</g>
<!-- Node2&#45;&gt;Node5 -->
<g id="edge4" class="edge">
<title>Node2&#45;&gt;Node5</title>
<path fill="none" stroke="midnightblue" d="M1483.9,-324.44C1455.18,-315.32 1409.51,-300.81 1377.52,-290.65"/>
<polygon fill="midnightblue" stroke="midnightblue" points="1378.24,-287.21 1367.65,-287.52 1376.12,-293.88 1378.24,-287.21"/>
</g>
<!-- Node6 -->
<g id="node6" class="node">
<title>Node6</title>
<g id="a_node6"><a xlink:href="_group_8h.html" target="_top" xlink:title=" ">
<polygon fill="white" stroke="black" points="686.34,-268.5 686.34,-287.5 789.34,-287.5 789.34,-268.5 686.34,-268.5"/>
<text text-anchor="middle" x="737.84" y="-275.5" font-family="Helvetica,sans-Serif" font-size="10.00">../controller/Group.h</text>
</a>
</g>
</g>
<!-- Node2&#45;&gt;Node6 -->
<g id="edge5" class="edge">
<title>Node2&#45;&gt;Node6</title>
<path fill="none" stroke="midnightblue" d="M1461.6,-329.56C1326.34,-320.11 949.23,-293.77 799.88,-283.33"/>
<polygon fill="midnightblue" stroke="midnightblue" points="799.75,-279.82 789.53,-282.61 799.26,-286.8 799.75,-279.82"/>
</g>
<!-- Node18 -->
<g id="node18" class="node">
<title>Node18</title>
<g id="a_node18"><a xlink:title=" ">
<polygon fill="white" stroke="#bfbfbf" points="1333.84,-129 1333.84,-148 1375.84,-148 1375.84,-129 1333.84,-129"/>
<text text-anchor="middle" x="1354.84" y="-136" font-family="Helvetica,sans-Serif" font-size="10.00">vector</text>
</a>
</g>
</g>
<!-- Node2&#45;&gt;Node18 -->
<g id="edge67" class="edge">
<title>Node2&#45;&gt;Node18</title>
<path fill="none" stroke="midnightblue" d="M1509.8,-324.42C1507.92,-311.39 1503.04,-286.23 1491.84,-268 1461.36,-218.39 1406.76,-175.48 1376.51,-154.05"/>
<polygon fill="midnightblue" stroke="midnightblue" points="1378.17,-150.94 1367.96,-148.11 1374.17,-156.69 1378.17,-150.94"/>
</g>
<!-- Node2&#45;&gt;Node31 -->
<g id="edge66" class="edge">
<title>Node2&#45;&gt;Node31</title>
<path fill="none" stroke="midnightblue" d="M1526.87,-324.49C1560.91,-306.43 1641.49,-263.66 1692.92,-236.37"/>
<polygon fill="midnightblue" stroke="midnightblue" points="1694.65,-239.41 1701.85,-231.63 1691.37,-233.23 1694.65,-239.41"/>
</g>
<!-- Node7 -->
<g id="node7" class="node">
<title>Node7</title>
<g id="a_node7"><a xlink:href="_controller_base_8h.html" target="_top" xlink:title=" ">
<polygon fill="white" stroke="black" points="846.34,-129 846.34,-148 935.34,-148 935.34,-129 846.34,-129"/>
<text text-anchor="middle" x="890.84" y="-136" font-family="Helvetica,sans-Serif" font-size="10.00">ControllerBase.h</text>
</a>
</g>
</g>
<!-- Node6&#45;&gt;Node7 -->
<g id="edge6" class="edge">
<title>Node6&#45;&gt;Node7</title>
<path fill="none" stroke="midnightblue" d="M789.48,-270.9C836.05,-264.2 899.51,-251.71 914.84,-232 932.07,-209.84 916.04,-176.56 903.19,-156.55"/>
<polygon fill="midnightblue" stroke="midnightblue" points="905.98,-154.43 897.47,-148.13 900.19,-158.37 905.98,-154.43"/>
</g>
<!-- Node8 -->
<g id="node8" class="node">
<title>Node8</title>
<g id="a_node8"><a xlink:href="controller_2_address_index_8h.html" target="_top" xlink:title=" ">
<polygon fill="white" stroke="black" points="730.84,-201.5 730.84,-220.5 814.84,-220.5 814.84,-201.5 730.84,-201.5"/>
<text text-anchor="middle" x="772.84" y="-208.5" font-family="Helvetica,sans-Serif" font-size="10.00">AddressIndex.h</text>
</a>
</g>
</g>
<!-- Node6&#45;&gt;Node8 -->
<g id="edge8" class="edge">
<title>Node6&#45;&gt;Node8</title>
<path fill="none" stroke="midnightblue" d="M742.56,-268.23C747.86,-258.39 756.6,-242.16 763.33,-229.66"/>
<polygon fill="midnightblue" stroke="midnightblue" points="766.53,-231.09 768.19,-220.63 760.37,-227.77 766.53,-231.09"/>
</g>
<!-- Node10 -->
<g id="node10" class="node">
<title>Node10</title>
<g id="a_node10"><a xlink:title=" ">
<polygon fill="white" stroke="#bfbfbf" points="192.34,-6 192.34,-25 263.34,-25 263.34,-6 192.34,-6"/>
<text text-anchor="middle" x="227.84" y="-13" font-family="Helvetica,sans-Serif" font-size="10.00">Poco/Path.h</text>
</a>
</g>
</g>
<!-- Node6&#45;&gt;Node10 -->
<g id="edge60" class="edge">
<title>Node6&#45;&gt;Node10</title>
<path fill="none" stroke="midnightblue" d="M686.18,-276.76C534.29,-275.63 96.51,-269.14 44.84,-232 3.84,-202.53 -13.79,-165.9 12.84,-123 49.8,-63.44 131.07,-36.16 182.43,-24.46"/>
<polygon fill="midnightblue" stroke="midnightblue" points="183.25,-27.87 192.28,-22.33 181.76,-21.03 183.25,-27.87"/>
</g>
<!-- Node11 -->
<g id="node11" class="node">
<title>Node11</title>
<g id="a_node11"><a xlink:title=" ">
<polygon fill="white" stroke="#bfbfbf" points="22.34,-129 22.34,-148 161.34,-148 161.34,-129 22.34,-129"/>
<text text-anchor="middle" x="91.84" y="-136" font-family="Helvetica,sans-Serif" font-size="10.00">Poco/AccessExpireCache.h</text>
</a>
</g>
</g>
<!-- Node6&#45;&gt;Node11 -->
<g id="edge63" class="edge">
<title>Node6&#45;&gt;Node11</title>
<path fill="none" stroke="midnightblue" d="M686.26,-277.55C534.7,-278.64 98.64,-277.72 55.84,-232 35.45,-210.22 59.11,-175.59 76.56,-155.45"/>
<polygon fill="midnightblue" stroke="midnightblue" points="79.17,-157.79 83.29,-148.03 73.98,-153.09 79.17,-157.79"/>
</g>
<!-- Node17 -->
<g id="node17" class="node">
<title>Node17</title>
<g id="a_node17"><a xlink:href="controller_2_block_index_8h.html" target="_top" xlink:title=" ">
<polygon fill="white" stroke="black" points="833.34,-201.5 833.34,-220.5 906.34,-220.5 906.34,-201.5 833.34,-201.5"/>
<text text-anchor="middle" x="869.84" y="-208.5" font-family="Helvetica,sans-Serif" font-size="10.00">BlockIndex.h</text>
</a>
</g>
</g>
<!-- Node6&#45;&gt;Node17 -->
<g id="edge21" class="edge">
<title>Node6&#45;&gt;Node17</title>
<path fill="none" stroke="midnightblue" d="M755.37,-268.37C777.85,-257.3 817.07,-237.99 843.24,-225.1"/>
<polygon fill="midnightblue" stroke="midnightblue" points="844.81,-228.22 852.24,-220.67 841.72,-221.94 844.81,-228.22"/>
</g>
<!-- Node26 -->
<g id="node26" class="node">
<title>Node26</title>
<g id="a_node26"><a xlink:href="_task_observer_8h.html" target="_top" xlink:title=" ">
<polygon fill="white" stroke="black" points="1576.84,-201.5 1576.84,-220.5 1660.84,-220.5 1660.84,-201.5 1576.84,-201.5"/>
<text text-anchor="middle" x="1618.84" y="-208.5" font-family="Helvetica,sans-Serif" font-size="10.00">TaskObserver.h</text>
</a>
</g>
</g>
<!-- Node6&#45;&gt;Node26 -->
<g id="edge36" class="edge">
<title>Node6&#45;&gt;Node26</title>
<path fill="none" stroke="midnightblue" d="M789.37,-276.13C945.82,-273.18 1413.78,-262.02 1562.84,-232 1571.79,-230.2 1581.23,-227.26 1589.76,-224.17"/>
<polygon fill="midnightblue" stroke="midnightblue" points="1591.18,-227.38 1599.28,-220.56 1588.69,-220.84 1591.18,-227.38"/>
</g>
<!-- Node27 -->
<g id="node27" class="node">
<title>Node27</title>
<g id="a_node27"><a xlink:title=" ">
<polygon fill="white" stroke="#bfbfbf" points="1542.34,-129 1542.34,-148 1625.34,-148 1625.34,-129 1542.34,-129"/>
<text text-anchor="middle" x="1583.84" y="-136" font-family="Helvetica,sans-Serif" font-size="10.00">Poco/AutoPtr.h</text>
</a>
</g>
</g>
<!-- Node6&#45;&gt;Node27 -->
<g id="edge61" class="edge">
<title>Node6&#45;&gt;Node27</title>
<path fill="none" stroke="midnightblue" d="M789.4,-275.07C879.66,-271.07 1071.91,-259.82 1231.84,-232 1349.19,-211.59 1484.57,-171.08 1547.81,-151.14"/>
<polygon fill="midnightblue" stroke="midnightblue" points="1549.21,-154.37 1557.68,-148.01 1547.09,-147.7 1549.21,-154.37"/>
</g>
<!-- Node6&#45;&gt;Node31 -->
<g id="edge44" class="edge">
<title>Node6&#45;&gt;Node31</title>
<path fill="none" stroke="midnightblue" d="M789.57,-276.09C956.26,-272.93 1479.01,-261.03 1668.69,-231.92"/>
<polygon fill="midnightblue" stroke="midnightblue" points="1669.5,-235.33 1678.82,-230.29 1668.39,-228.42 1669.5,-235.33"/>
</g>
<!-- Node32 -->
<g id="node32" class="node">
<title>Node32</title>
<g id="a_node32"><a xlink:title=" ">
<polygon fill="white" stroke="#bfbfbf" points="64.84,-190.5 64.84,-231.5 184.84,-231.5 184.84,-190.5 64.84,-190.5"/>
<text text-anchor="start" x="72.84" y="-219.5" font-family="Helvetica,sans-Serif" font-size="10.00">gradido_blockchain</text>
<text text-anchor="start" x="72.84" y="-208.5" font-family="Helvetica,sans-Serif" font-size="10.00">/model/protobufWrapper</text>
<text text-anchor="middle" x="124.84" y="-197.5" font-family="Helvetica,sans-Serif" font-size="10.00">/GradidoTransaction.h</text>
</a>
</g>
</g>
<!-- Node6&#45;&gt;Node32 -->
<g id="edge45" class="edge">
<title>Node6&#45;&gt;Node32</title>
<path fill="none" stroke="midnightblue" d="M686.01,-276.15C590.45,-273.83 380.11,-265.26 194.8,-231.98"/>
<polygon fill="midnightblue" stroke="midnightblue" points="195.35,-228.52 184.88,-230.17 194.09,-235.41 195.35,-228.52"/>
</g>
<!-- Node33 -->
<g id="node33" class="node">
<title>Node33</title>
<g id="a_node33"><a xlink:href="_state_8h.html" target="_top" xlink:title=" ">
<polygon fill="white" stroke="black" points="247.34,-129 247.34,-148 354.34,-148 354.34,-129 247.34,-129"/>
<text text-anchor="middle" x="300.84" y="-136" font-family="Helvetica,sans-Serif" font-size="10.00">../model/files/State.h</text>
</a>
</g>
</g>
<!-- Node6&#45;&gt;Node33 -->
<g id="edge46" class="edge">
<title>Node6&#45;&gt;Node33</title>
<path fill="none" stroke="midnightblue" d="M735.15,-268.28C729.09,-250.25 712.52,-208.93 682.84,-190 630.32,-156.49 466.58,-162.3 404.84,-154 391.81,-152.25 377.87,-150.33 364.56,-148.48"/>
<polygon fill="midnightblue" stroke="midnightblue" points="364.92,-145 354.53,-147.09 363.96,-151.93 364.92,-145"/>
</g>
<!-- Node35 -->
<g id="node35" class="node">
<title>Node35</title>
<g id="a_node35"><a xlink:title=" ">
<polygon fill="white" stroke="#bfbfbf" points="202.84,-196 202.84,-226 306.84,-226 306.84,-196 202.84,-196"/>
<text text-anchor="start" x="210.84" y="-214" font-family="Helvetica,sans-Serif" font-size="10.00">gradido_blockchain</text>
<text text-anchor="middle" x="254.84" y="-203" font-family="Helvetica,sans-Serif" font-size="10.00">/http/JsonRequest.h</text>
</a>
</g>
</g>
<!-- Node6&#45;&gt;Node35 -->
<g id="edge50" class="edge">
<title>Node6&#45;&gt;Node35</title>
<path fill="none" stroke="midnightblue" d="M686.3,-275C606.23,-271.11 447.49,-260.27 315.84,-232 311.73,-231.12 307.51,-230.06 303.3,-228.9"/>
<polygon fill="midnightblue" stroke="midnightblue" points="304.13,-225.5 293.55,-226.04 302.16,-232.22 304.13,-225.5"/>
</g>
<!-- Node36 -->
<g id="node36" class="node">
<title>Node36</title>
<g id="a_node36"><a xlink:href="_message_listener_8h.html" target="_top" xlink:title=" ">
<polygon fill="white" stroke="black" points="1096.34,-201.5 1096.34,-220.5 1223.34,-220.5 1223.34,-201.5 1096.34,-201.5"/>
<text text-anchor="middle" x="1159.84" y="-208.5" font-family="Helvetica,sans-Serif" font-size="10.00">../iota/MessageListener.h</text>
</a>
</g>
</g>
<!-- Node6&#45;&gt;Node36 -->
<g id="edge51" class="edge">
<title>Node6&#45;&gt;Node36</title>
<path fill="none" stroke="midnightblue" d="M789.58,-269.03C866.36,-257.2 1010.38,-235.02 1094.38,-222.08"/>
<polygon fill="midnightblue" stroke="midnightblue" points="1094.97,-225.53 1104.32,-220.55 1093.9,-218.62 1094.97,-225.53"/>
</g>
<!-- Node41 -->
<g id="node41" class="node">
<title>Node41</title>
<g id="a_node41"><a xlink:title=" ">
<polygon fill="white" stroke="#bfbfbf" points="324.84,-201.5 324.84,-220.5 390.84,-220.5 390.84,-201.5 324.84,-201.5"/>
<text text-anchor="middle" x="357.84" y="-208.5" font-family="Helvetica,sans-Serif" font-size="10.00">Poco/URI.h</text>
</a>
</g>
</g>
<!-- Node6&#45;&gt;Node41 -->
<g id="edge62" class="edge">
<title>Node6&#45;&gt;Node41</title>
<path fill="none" stroke="midnightblue" d="M686.12,-275.11C618.9,-271.53 498.45,-261.25 399.84,-232 393.89,-230.23 387.72,-227.73 382.01,-225.08"/>
<polygon fill="midnightblue" stroke="midnightblue" points="383.45,-221.89 372.94,-220.6 380.36,-228.17 383.45,-221.89"/>
</g>
<!-- Node42 -->
<g id="node42" class="node">
<title>Node42</title>
<g id="a_node42"><a xlink:title=" ">
<polygon fill="white" stroke="#bfbfbf" points="408.84,-201.5 408.84,-220.5 514.84,-220.5 514.84,-201.5 408.84,-201.5"/>
<text text-anchor="middle" x="461.84" y="-208.5" font-family="Helvetica,sans-Serif" font-size="10.00">Poco/ExpireCache.h</text>
</a>
</g>
</g>
<!-- Node6&#45;&gt;Node42 -->
<g id="edge64" class="edge">
<title>Node6&#45;&gt;Node42</title>
<path fill="none" stroke="midnightblue" d="M690.33,-268.49C646.74,-260.33 580.53,-247.06 523.84,-232 514.78,-229.59 505.1,-226.65 496.14,-223.77"/>
<polygon fill="midnightblue" stroke="midnightblue" points="496.99,-220.37 486.4,-220.58 494.81,-227.02 496.99,-220.37"/>
</g>
<!-- Node43 -->
<g id="node43" class="node">
<title>Node43</title>
<g id="a_node43"><a xlink:title=" ">
<polygon fill="white" stroke="#bfbfbf" points="533.34,-196 533.34,-226 674.34,-226 674.34,-196 533.34,-196"/>
<text text-anchor="start" x="541.34" y="-214" font-family="Helvetica,sans-Serif" font-size="10.00">gradido_blockchain</text>
<text text-anchor="middle" x="603.84" y="-203" font-family="Helvetica,sans-Serif" font-size="10.00">/model/IGradidoBlockchain.h</text>
</a>
</g>
</g>
<!-- Node6&#45;&gt;Node43 -->
<g id="edge65" class="edge">
<title>Node6&#45;&gt;Node43</title>
<path fill="none" stroke="midnightblue" d="M720.04,-268.37C700.2,-258.74 667.51,-242.89 641.86,-230.44"/>
<polygon fill="midnightblue" stroke="midnightblue" points="643.28,-227.24 632.76,-226.03 640.23,-233.54 643.28,-227.24"/>
</g>
<!-- Node7&#45;&gt;Node4 -->
<g id="edge7" class="edge">
<title>Node7&#45;&gt;Node4</title>
<path fill="none" stroke="midnightblue" d="M914.56,-128.93C940.31,-119.42 982.49,-103.27 1017.84,-87 1035.17,-79.02 1037.74,-73.07 1055.84,-67 1144.23,-37.37 1252.92,-24.75 1314.71,-19.67"/>
<polygon fill="midnightblue" stroke="midnightblue" points="1315.26,-23.14 1324.95,-18.86 1314.7,-16.16 1315.26,-23.14"/>
</g>
<!-- Node8&#45;&gt;Node7 -->
<g id="edge9" class="edge">
<title>Node8&#45;&gt;Node7</title>
<path fill="none" stroke="midnightblue" d="M787.31,-201.36C807.3,-189.41 843.61,-167.72 867.47,-153.46"/>
<polygon fill="midnightblue" stroke="midnightblue" points="869.46,-156.35 876.25,-148.22 865.87,-150.34 869.46,-156.35"/>
</g>
<!-- Node9 -->
<g id="node9" class="node">
<title>Node9</title>
<g id="a_node9"><a xlink:title=" ">
<polygon fill="white" stroke="#bfbfbf" points="342.34,-67.5 342.34,-86.5 425.34,-86.5 425.34,-67.5 342.34,-67.5"/>
<text text-anchor="middle" x="383.84" y="-74.5" font-family="Helvetica,sans-Serif" font-size="10.00">unordered_map</text>
</a>
</g>
</g>
<!-- Node8&#45;&gt;Node9 -->
<g id="edge10" class="edge">
<title>Node8&#45;&gt;Node9</title>
<path fill="none" stroke="midnightblue" d="M752.15,-201.42C741.72,-197.4 728.78,-192.87 716.84,-190 596.14,-160.96 546.8,-217.03 439.84,-154 417.07,-140.58 400.77,-113.91 391.82,-96.01"/>
<polygon fill="midnightblue" stroke="midnightblue" points="394.94,-94.43 387.51,-86.88 388.61,-97.42 394.94,-94.43"/>
</g>
<!-- Node8&#45;&gt;Node10 -->
<g id="edge11" class="edge">
<title>Node8&#45;&gt;Node10</title>
<path fill="none" stroke="midnightblue" d="M739.71,-201.49C722.79,-197.44 701.83,-192.86 682.84,-190 633.79,-182.6 272.77,-189.22 237.84,-154 206.6,-122.51 215.35,-64.55 222.56,-34.95"/>
<polygon fill="midnightblue" stroke="midnightblue" points="225.99,-35.67 225.16,-25.11 219.22,-33.88 225.99,-35.67"/>
</g>
<!-- Node8&#45;&gt;Node11 -->
<g id="edge12" class="edge">
<title>Node8&#45;&gt;Node11</title>
<path fill="none" stroke="midnightblue" d="M739.72,-201.41C722.81,-197.34 701.84,-192.77 682.84,-190 459.3,-157.41 400.09,-181.25 175.84,-154 166.24,-152.83 156.08,-151.32 146.25,-149.71"/>
<polygon fill="midnightblue" stroke="midnightblue" points="146.63,-146.22 136.18,-148.01 145.46,-153.13 146.63,-146.22"/>
</g>
<!-- Node12 -->
<g id="node12" class="node">
<title>Node12</title>
<g id="a_node12"><a xlink:href="model_2files_2_address_index_8h.html" target="_top" xlink:title=" ">
<polygon fill="white" stroke="black" points="497.34,-129 497.34,-148 640.34,-148 640.34,-129 497.34,-129"/>
<text text-anchor="middle" x="568.84" y="-136" font-family="Helvetica,sans-Serif" font-size="10.00">../model/files/AddressIndex.h</text>
</a>
</g>
</g>
<!-- Node8&#45;&gt;Node12 -->
<g id="edge13" class="edge">
<title>Node8&#45;&gt;Node12</title>
<path fill="none" stroke="midnightblue" d="M749.16,-201.46C739.19,-197.89 727.46,-193.71 716.84,-190 678.27,-176.53 633.9,-161.45 603.88,-151.3"/>
<polygon fill="midnightblue" stroke="midnightblue" points="604.87,-147.94 594.28,-148.06 602.63,-154.57 604.87,-147.94"/>
</g>
<!-- Node12&#45;&gt;Node9 -->
<g id="edge19" class="edge">
<title>Node12&#45;&gt;Node9</title>
<path fill="none" stroke="midnightblue" d="M542.33,-128.98C510.19,-118.64 455.85,-101.16 419.91,-89.6"/>
<polygon fill="midnightblue" stroke="midnightblue" points="420.89,-86.24 410.3,-86.51 418.74,-92.9 420.89,-86.24"/>
</g>
<!-- Node13 -->
<g id="node13" class="node">
<title>Node13</title>
<g id="a_node13"><a xlink:href="_file_base_8h.html" target="_top" xlink:title=" ">
<polygon fill="white" stroke="black" points="482.34,-67.5 482.34,-86.5 545.34,-86.5 545.34,-67.5 482.34,-67.5"/>
<text text-anchor="middle" x="513.84" y="-74.5" font-family="Helvetica,sans-Serif" font-size="10.00">FileBase.h</text>
</a>
</g>
</g>
<!-- Node12&#45;&gt;Node13 -->
<g id="edge14" class="edge">
<title>Node12&#45;&gt;Node13</title>
<path fill="none" stroke="midnightblue" d="M560.96,-128.98C552.54,-119.87 539.02,-105.24 528.61,-93.98"/>
<polygon fill="midnightblue" stroke="midnightblue" points="531.06,-91.48 521.7,-86.51 525.92,-96.23 531.06,-91.48"/>
</g>
<!-- Node15 -->
<g id="node15" class="node">
<title>Node15</title>
<g id="a_node15"><a xlink:title=" ">
<polygon fill="white" stroke="#bfbfbf" points="657.34,-0.5 657.34,-30.5 758.34,-30.5 758.34,-0.5 657.34,-0.5"/>
<text text-anchor="start" x="665.34" y="-18.5" font-family="Helvetica,sans-Serif" font-size="10.00">gradido_blockchain</text>
<text text-anchor="middle" x="707.84" y="-7.5" font-family="Helvetica,sans-Serif" font-size="10.00">/MemoryManager.h</text>
</a>
</g>
</g>
<!-- Node12&#45;&gt;Node15 -->
<g id="edge18" class="edge">
<title>Node12&#45;&gt;Node15</title>
<path fill="none" stroke="midnightblue" d="M597.26,-128.87C619.51,-120.93 650.06,-107.3 670.84,-87 684.18,-73.97 693.73,-55.1 699.78,-40.16"/>
<polygon fill="midnightblue" stroke="midnightblue" points="703.15,-41.16 703.42,-30.57 696.6,-38.68 703.15,-41.16"/>
</g>
<!-- Node16 -->
<g id="node16" class="node">
<title>Node16</title>
<g id="a_node16"><a xlink:title=" ">
<polygon fill="white" stroke="#bfbfbf" points="1065.34,-67.5 1065.34,-86.5 1100.34,-86.5 1100.34,-67.5 1065.34,-67.5"/>
<text text-anchor="middle" x="1082.84" y="-74.5" font-family="Helvetica,sans-Serif" font-size="10.00">map</text>
</a>
</g>
</g>
<!-- Node12&#45;&gt;Node16 -->
<g id="edge20" class="edge">
<title>Node12&#45;&gt;Node16</title>
<path fill="none" stroke="midnightblue" d="M612.33,-128.95C624.14,-126.81 636.96,-124.65 648.84,-123 812.04,-100.29 854.19,-106.3 1017.84,-87 1030.14,-85.55 1043.71,-83.71 1055.26,-82.07"/>
<polygon fill="midnightblue" stroke="midnightblue" points="1055.81,-85.53 1065.21,-80.64 1054.81,-78.6 1055.81,-85.53"/>
</g>
<!-- Node13&#45;&gt;Node4 -->
<g id="edge16" class="edge">
<title>Node13&#45;&gt;Node4</title>
<path fill="none" stroke="midnightblue" d="M545.63,-68.37C548.4,-67.85 551.16,-67.38 553.84,-67 840.44,-26.09 1188.79,-18.32 1315.13,-16.84"/>
<polygon fill="midnightblue" stroke="midnightblue" points="1315.29,-20.34 1325.25,-16.73 1315.21,-13.34 1315.29,-20.34"/>
</g>
<!-- Node13&#45;&gt;Node10 -->
<g id="edge15" class="edge">
<title>Node13&#45;&gt;Node10</title>
<path fill="none" stroke="midnightblue" d="M482.14,-69.41C431.51,-58.87 332.18,-38.21 273.77,-26.06"/>
<polygon fill="midnightblue" stroke="midnightblue" points="274.21,-22.57 263.71,-23.96 272.79,-29.43 274.21,-22.57"/>
</g>
<!-- Node14 -->
<g id="node14" class="node">
<title>Node14</title>
<g id="a_node14"><a xlink:title=" ">
<polygon fill="white" stroke="#bfbfbf" points="439.34,-6 439.34,-25 568.34,-25 568.34,-6 439.34,-6"/>
<text text-anchor="middle" x="503.84" y="-13" font-family="Helvetica,sans-Serif" font-size="10.00">Poco/RefCountedObject.h</text>
</a>
</g>
</g>
<!-- Node13&#45;&gt;Node14 -->
<g id="edge17" class="edge">
<title>Node13&#45;&gt;Node14</title>
<path fill="none" stroke="midnightblue" d="M512.41,-67.48C510.99,-59.08 508.79,-45.98 506.98,-35.16"/>
<polygon fill="midnightblue" stroke="midnightblue" points="510.38,-34.29 505.27,-25.01 503.47,-35.45 510.38,-34.29"/>
</g>
<!-- Node17&#45;&gt;Node7 -->
<g id="edge22" class="edge">
<title>Node17&#45;&gt;Node7</title>
<path fill="none" stroke="midnightblue" d="M872.41,-201.36C875.63,-190.57 881.2,-171.85 885.38,-157.82"/>
<polygon fill="midnightblue" stroke="midnightblue" points="888.74,-158.8 888.24,-148.22 882.03,-156.8 888.74,-158.8"/>
</g>
<!-- Node17&#45;&gt;Node10 -->
<g id="edge25" class="edge">
<title>Node17&#45;&gt;Node10</title>
<path fill="none" stroke="midnightblue" d="M853.24,-201.32C844.68,-197.23 833.94,-192.67 823.84,-190 751.24,-170.81 551.42,-193.95 487.84,-154 449.31,-129.79 470.67,-93.73 433.84,-67 386.42,-32.59 318.37,-21.44 273.65,-17.94"/>
<polygon fill="midnightblue" stroke="midnightblue" points="273.87,-14.44 263.65,-17.25 273.39,-21.43 273.87,-14.44"/>
</g>
<!-- Node17&#45;&gt;Node16 -->
<g id="edge24" class="edge">
<title>Node17&#45;&gt;Node16</title>
<path fill="none" stroke="midnightblue" d="M883.81,-201.34C919.93,-178.96 1016.61,-119.04 1060.55,-91.81"/>
<polygon fill="midnightblue" stroke="midnightblue" points="1062.43,-94.76 1069.09,-86.52 1058.74,-88.81 1062.43,-94.76"/>
</g>
<!-- Node17&#45;&gt;Node18 -->
<g id="edge23" class="edge">
<title>Node17&#45;&gt;Node18</title>
<path fill="none" stroke="midnightblue" d="M906.55,-206.18C1007.59,-195.57 1284.99,-165.73 1324.84,-154 1326.71,-153.45 1328.61,-152.79 1330.5,-152.06"/>
<polygon fill="midnightblue" stroke="midnightblue" points="1331.92,-155.26 1339.65,-148.03 1329.09,-148.86 1331.92,-155.26"/>
</g>
<!-- Node19 -->
<g id="node19" class="node">
<title>Node19</title>
<g id="a_node19"><a xlink:title=" ">
<polygon fill="white" stroke="#bfbfbf" points="914.84,-67.5 914.84,-86.5 1008.84,-86.5 1008.84,-67.5 914.84,-67.5"/>
<text text-anchor="middle" x="961.84" y="-74.5" font-family="Helvetica,sans-Serif" font-size="10.00">Poco/SharedPtr.h</text>
</a>
</g>
</g>
<!-- Node17&#45;&gt;Node19 -->
<g id="edge26" class="edge">
<title>Node17&#45;&gt;Node19</title>
<path fill="none" stroke="midnightblue" d="M861.34,-201.16C846.48,-184.63 819,-148.38 836.84,-123 846.14,-109.76 882.8,-97.52 914.03,-89.15"/>
<polygon fill="midnightblue" stroke="midnightblue" points="915.14,-92.48 923.94,-86.58 913.38,-85.71 915.14,-92.48"/>
</g>
<!-- Node20 -->
<g id="node20" class="node">
<title>Node20</title>
<g id="a_node20"><a xlink:href="model_2files_2_block_index_8h.html" target="_top" xlink:title=" ">
<polygon fill="white" stroke="black" points="658.34,-129 658.34,-148 789.34,-148 789.34,-129 658.34,-129"/>
<text text-anchor="middle" x="723.84" y="-136" font-family="Helvetica,sans-Serif" font-size="10.00">../model/files/BlockIndex.h</text>
</a>
</g>
</g>
<!-- Node17&#45;&gt;Node20 -->
<g id="edge27" class="edge">
<title>Node17&#45;&gt;Node20</title>
<path fill="none" stroke="midnightblue" d="M852.23,-201.5C827.02,-189.32 780.42,-166.82 750.84,-152.54"/>
<polygon fill="midnightblue" stroke="midnightblue" points="752.04,-149.23 741.51,-148.03 749,-155.53 752.04,-149.23"/>
</g>
<!-- Node20&#45;&gt;Node13 -->
<g id="edge28" class="edge">
<title>Node20&#45;&gt;Node13</title>
<path fill="none" stroke="midnightblue" d="M693.75,-128.98C656.95,-118.55 594.53,-100.86 553.74,-89.31"/>
<polygon fill="midnightblue" stroke="midnightblue" points="554.45,-85.87 543.87,-86.51 552.54,-92.6 554.45,-85.87"/>
</g>
<!-- Node20&#45;&gt;Node19 -->
<g id="edge32" class="edge">
<title>Node20&#45;&gt;Node19</title>
<path fill="none" stroke="midnightblue" d="M757.94,-128.98C800.09,-118.44 871.89,-100.49 918.07,-88.94"/>
<polygon fill="midnightblue" stroke="midnightblue" points="918.95,-92.33 927.8,-86.51 917.25,-85.54 918.95,-92.33"/>
</g>
<!-- Node21 -->
<g id="node21" class="node">
<title>Node21</title>
<g id="a_node21"><a xlink:href="_virtual_file_8h.html" target="_top" xlink:title=" ">
<polygon fill="white" stroke="black" points="563.34,-67.5 563.34,-86.5 662.34,-86.5 662.34,-67.5 563.34,-67.5"/>
<text text-anchor="middle" x="612.84" y="-74.5" font-family="Helvetica,sans-Serif" font-size="10.00">../../lib/VirtualFile.h</text>
</a>
</g>
</g>
<!-- Node20&#45;&gt;Node21 -->
<g id="edge29" class="edge">
<title>Node20&#45;&gt;Node21</title>
<path fill="none" stroke="midnightblue" d="M707.93,-128.98C689.55,-119.12 659.08,-102.79 637.59,-91.27"/>
<polygon fill="midnightblue" stroke="midnightblue" points="639.18,-88.15 628.71,-86.51 635.87,-94.32 639.18,-88.15"/>
</g>
<!-- Node23 -->
<g id="node23" class="node">
<title>Node23</title>
<g id="a_node23"><a xlink:title=" ">
<polygon fill="white" stroke="#bfbfbf" points="778.84,-67.5 778.84,-86.5 834.84,-86.5 834.84,-67.5 778.84,-67.5"/>
<text text-anchor="middle" x="806.84" y="-74.5" font-family="Helvetica,sans-Serif" font-size="10.00">sodium.h</text>
</a>
</g>
</g>
<!-- Node20&#45;&gt;Node23 -->
<g id="edge33" class="edge">
<title>Node20&#45;&gt;Node23</title>
<path fill="none" stroke="midnightblue" d="M735.73,-128.98C749.04,-119.43 770.84,-103.81 786.8,-92.37"/>
<polygon fill="midnightblue" stroke="midnightblue" points="788.88,-95.18 794.97,-86.51 784.8,-89.49 788.88,-95.18"/>
</g>
<!-- Node24 -->
<g id="node24" class="node">
<title>Node24</title>
<g id="a_node24"><a xlink:title=" ">
<polygon fill="white" stroke="#bfbfbf" points="853.34,-67.5 853.34,-86.5 896.34,-86.5 896.34,-67.5 853.34,-67.5"/>
<text text-anchor="middle" x="874.84" y="-74.5" font-family="Helvetica,sans-Serif" font-size="10.00">queue</text>
</a>
</g>
</g>
<!-- Node20&#45;&gt;Node24 -->
<g id="edge34" class="edge">
<title>Node20&#45;&gt;Node24</title>
<path fill="none" stroke="midnightblue" d="M745.47,-128.98C771.26,-118.81 814.55,-101.76 843.88,-90.2"/>
<polygon fill="midnightblue" stroke="midnightblue" points="845.22,-93.43 853.24,-86.51 842.66,-86.92 845.22,-93.43"/>
</g>
<!-- Node25 -->
<g id="node25" class="node">
<title>Node25</title>
<g id="a_node25"><a xlink:title=" ">
<polygon fill="white" stroke="#bfbfbf" points="719.34,-67.5 719.34,-86.5 760.34,-86.5 760.34,-67.5 719.34,-67.5"/>
<text text-anchor="middle" x="739.84" y="-74.5" font-family="Helvetica,sans-Serif" font-size="10.00">string</text>
</a>
</g>
</g>
<!-- Node20&#45;&gt;Node25 -->
<g id="edge35" class="edge">
<title>Node20&#45;&gt;Node25</title>
<path fill="none" stroke="midnightblue" d="M726.13,-128.98C728.41,-120.49 731.99,-107.2 734.91,-96.32"/>
<polygon fill="midnightblue" stroke="midnightblue" points="738.33,-97.07 737.55,-86.51 731.57,-95.26 738.33,-97.07"/>
</g>
<!-- Node21&#45;&gt;Node15 -->
<g id="edge30" class="edge">
<title>Node21&#45;&gt;Node15</title>
<path fill="none" stroke="midnightblue" d="M626.45,-67.48C639.56,-59.27 659.85,-46.56 676.89,-35.88"/>
<polygon fill="midnightblue" stroke="midnightblue" points="678.83,-38.8 685.45,-30.52 675.12,-32.86 678.83,-38.8"/>
</g>
<!-- Node22 -->
<g id="node22" class="node">
<title>Node22</title>
<g id="a_node22"><a xlink:title=" ">
<polygon fill="white" stroke="#bfbfbf" points="586.84,-6 586.84,-25 638.84,-25 638.84,-6 586.84,-6"/>
<text text-anchor="middle" x="612.84" y="-13" font-family="Helvetica,sans-Serif" font-size="10.00">assert.h</text>
</a>
</g>
</g>
<!-- Node21&#45;&gt;Node22 -->
<g id="edge31" class="edge">
<title>Node21&#45;&gt;Node22</title>
<path fill="none" stroke="midnightblue" d="M612.84,-67.48C612.84,-59.08 612.84,-45.98 612.84,-35.16"/>
<polygon fill="midnightblue" stroke="midnightblue" points="616.34,-35.01 612.84,-25.01 609.34,-35.01 616.34,-35.01"/>
</g>
<!-- Node26&#45;&gt;Node4 -->
<g id="edge37" class="edge">
<title>Node26&#45;&gt;Node4</title>
<path fill="none" stroke="midnightblue" d="M1627.49,-201.2C1642.62,-184.71 1670.65,-148.54 1652.84,-123 1598.41,-44.93 1479.97,-23.94 1412.84,-18.39"/>
<polygon fill="midnightblue" stroke="midnightblue" points="1412.76,-14.88 1402.52,-17.63 1412.24,-21.86 1412.76,-14.88"/>
</g>
<!-- Node26&#45;&gt;Node16 -->
<g id="edge43" class="edge">
<title>Node26&#45;&gt;Node16</title>
<path fill="none" stroke="midnightblue" d="M1624.6,-201.27C1635.27,-183.94 1655.22,-144.94 1634.84,-123 1597.91,-83.24 1201.79,-92.72 1147.84,-87 1135.52,-85.69 1121.94,-83.87 1110.4,-82.21"/>
<polygon fill="midnightblue" stroke="midnightblue" points="1110.86,-78.74 1100.46,-80.75 1109.84,-85.67 1110.86,-78.74"/>
</g>
<!-- Node26&#45;&gt;Node18 -->
<g id="edge42" class="edge">
<title>Node26&#45;&gt;Node18</title>
<path fill="none" stroke="midnightblue" d="M1578.58,-201.46C1521.55,-189.18 1420.25,-166.63 1384.84,-154 1383.41,-153.49 1381.96,-152.93 1380.5,-152.34"/>
<polygon fill="midnightblue" stroke="midnightblue" points="1381.63,-149.01 1371.07,-148.13 1378.77,-155.4 1381.63,-149.01"/>
</g>
<!-- Node26&#45;&gt;Node27 -->
<g id="edge38" class="edge">
<title>Node26&#45;&gt;Node27</title>
<path fill="none" stroke="midnightblue" d="M1614.55,-201.36C1609.14,-190.47 1599.72,-171.48 1592.73,-157.41"/>
<polygon fill="midnightblue" stroke="midnightblue" points="1595.75,-155.62 1588.17,-148.22 1589.48,-158.73 1595.75,-155.62"/>
</g>
<!-- Node28 -->
<g id="node28" class="node">
<title>Node28</title>
<g id="a_node28"><a xlink:title=" ">
<polygon fill="white" stroke="#bfbfbf" points="1719.84,-123.5 1719.84,-153.5 1819.84,-153.5 1819.84,-123.5 1719.84,-123.5"/>
<text text-anchor="start" x="1727.84" y="-141.5" font-family="Helvetica,sans-Serif" font-size="10.00">gradido_blockchain</text>
<text text-anchor="middle" x="1769.84" y="-130.5" font-family="Helvetica,sans-Serif" font-size="10.00">/lib/DRHashList.h</text>
</a>
</g>
</g>
<!-- Node26&#45;&gt;Node28 -->
<g id="edge39" class="edge">
<title>Node26&#45;&gt;Node28</title>
<path fill="none" stroke="midnightblue" d="M1637.05,-201.5C1660.06,-190.76 1700.27,-171.98 1730.43,-157.9"/>
<polygon fill="midnightblue" stroke="midnightblue" points="1732.26,-160.91 1739.84,-153.51 1729.3,-154.57 1732.26,-160.91"/>
</g>
<!-- Node29 -->
<g id="node29" class="node">
<title>Node29</title>
<g id="a_node29"><a xlink:title=" ">
<polygon fill="white" stroke="#bfbfbf" points="1393.84,-123.5 1393.84,-153.5 1523.84,-153.5 1523.84,-123.5 1393.84,-123.5"/>
<text text-anchor="start" x="1401.84" y="-141.5" font-family="Helvetica,sans-Serif" font-size="10.00">gradido_blockchain</text>
<text text-anchor="middle" x="1458.84" y="-130.5" font-family="Helvetica,sans-Serif" font-size="10.00">/lib/MultithreadContainer.h</text>
</a>
</g>
</g>
<!-- Node26&#45;&gt;Node29 -->
<g id="edge40" class="edge">
<title>Node26&#45;&gt;Node29</title>
<path fill="none" stroke="midnightblue" d="M1599.54,-201.5C1575.06,-190.71 1532.18,-171.82 1500.18,-157.71"/>
<polygon fill="midnightblue" stroke="midnightblue" points="1501.19,-154.34 1490.62,-153.51 1498.36,-160.74 1501.19,-154.34"/>
</g>
<!-- Node30 -->
<g id="node30" class="node">
<title>Node30</title>
<g id="a_node30"><a xlink:href="_task_8h.html" target="_top" xlink:title=" ">
<polygon fill="white" stroke="black" points="1838.34,-129 1838.34,-148 1915.34,-148 1915.34,-129 1838.34,-129"/>
<text text-anchor="middle" x="1876.84" y="-136" font-family="Helvetica,sans-Serif" font-size="10.00">../task/Task.h</text>
</a>
</g>
</g>
<!-- Node26&#45;&gt;Node30 -->
<g id="edge41" class="edge">
<title>Node26&#45;&gt;Node30</title>
<path fill="none" stroke="midnightblue" d="M1638.94,-201.31C1648.23,-197.5 1659.47,-193.19 1669.84,-190 1739.1,-168.71 1758.78,-172.49 1828.84,-154 1832.46,-153.04 1836.22,-152 1839.97,-150.92"/>
<polygon fill="midnightblue" stroke="midnightblue" points="1841.17,-154.22 1849.77,-148.04 1839.19,-147.51 1841.17,-154.22"/>
</g>
<!-- Node33&#45;&gt;Node10 -->
<g id="edge49" class="edge">
<title>Node33&#45;&gt;Node10</title>
<path fill="none" stroke="midnightblue" d="M288.22,-128.95C275.87,-119.93 257.42,-104.6 246.84,-87 237.27,-71.07 232.43,-50.26 230.04,-35.39"/>
<polygon fill="midnightblue" stroke="midnightblue" points="233.49,-34.78 228.65,-25.35 226.55,-35.73 233.49,-34.78"/>
</g>
<!-- Node33&#45;&gt;Node13 -->
<g id="edge47" class="edge">
<title>Node33&#45;&gt;Node13</title>
<path fill="none" stroke="midnightblue" d="M331.36,-128.98C368.76,-118.53 432.27,-100.79 473.63,-89.23"/>
<polygon fill="midnightblue" stroke="midnightblue" points="474.69,-92.57 483.38,-86.51 472.8,-85.83 474.69,-92.57"/>
</g>
<!-- Node34 -->
<g id="node34" class="node">
<title>Node34</title>
<g id="a_node34"><a xlink:title=" ">
<polygon fill="white" stroke="#bfbfbf" points="255.84,-67.5 255.84,-86.5 323.84,-86.5 323.84,-67.5 255.84,-67.5"/>
<text text-anchor="middle" x="289.84" y="-74.5" font-family="Helvetica,sans-Serif" font-size="10.00">leveldb/db.h</text>
</a>
</g>
</g>
<!-- Node33&#45;&gt;Node34 -->
<g id="edge48" class="edge">
<title>Node33&#45;&gt;Node34</title>
<path fill="none" stroke="midnightblue" d="M299.26,-128.98C297.71,-120.58 295.29,-107.48 293.29,-96.66"/>
<polygon fill="midnightblue" stroke="midnightblue" points="296.67,-95.71 291.41,-86.51 289.79,-96.98 296.67,-95.71"/>
</g>
<!-- Node36&#45;&gt;Node16 -->
<g id="edge59" class="edge">
<title>Node36&#45;&gt;Node16</title>
<path fill="none" stroke="midnightblue" d="M1099.34,-201.47C1070.47,-194.03 1038.45,-180.09 1020.84,-154 1013.13,-142.58 1014.58,-135.27 1020.84,-123 1028.28,-108.41 1042.9,-97.45 1056.08,-89.99"/>
<polygon fill="midnightblue" stroke="midnightblue" points="1058.05,-92.92 1065.29,-85.19 1054.81,-86.71 1058.05,-92.92"/>
</g>
<!-- Node36&#45;&gt;Node18 -->
<g id="edge58" class="edge">
<title>Node36&#45;&gt;Node18</title>
<path fill="none" stroke="midnightblue" d="M1188.55,-201.43C1221.78,-191.25 1277.95,-173.2 1324.84,-154 1326.04,-153.51 1327.27,-152.99 1328.5,-152.45"/>
<polygon fill="midnightblue" stroke="midnightblue" points="1330.24,-155.5 1337.87,-148.15 1327.32,-149.14 1330.24,-155.5"/>
</g>
<!-- Node36&#45;&gt;Node29 -->
<g id="edge53" class="edge">
<title>Node36&#45;&gt;Node29</title>
<path fill="none" stroke="midnightblue" d="M1195.9,-201.5C1243.72,-190.22 1329.1,-170.09 1389.58,-155.83"/>
<polygon fill="midnightblue" stroke="midnightblue" points="1390.51,-159.21 1399.44,-153.51 1388.9,-152.39 1390.51,-159.21"/>
</g>
<!-- Node37 -->
<g id="node37" class="node">
<title>Node37</title>
<g id="a_node37"><a xlink:title=" ">
<polygon fill="white" stroke="#bfbfbf" points="1119.84,-129 1119.84,-148 1199.84,-148 1199.84,-129 1119.84,-129"/>
<text text-anchor="middle" x="1159.84" y="-136" font-family="Helvetica,sans-Serif" font-size="10.00">Poco/Logger.h</text>
</a>
</g>
</g>
<!-- Node36&#45;&gt;Node37 -->
<g id="edge52" class="edge">
<title>Node36&#45;&gt;Node37</title>
<path fill="none" stroke="midnightblue" d="M1159.84,-201.36C1159.84,-190.68 1159.84,-172.22 1159.84,-158.23"/>
<polygon fill="midnightblue" stroke="midnightblue" points="1163.34,-158.22 1159.84,-148.22 1156.34,-158.22 1163.34,-158.22"/>
</g>
<!-- Node38 -->
<g id="node38" class="node">
<title>Node38</title>
<g id="a_node38"><a xlink:href="_fuzzy_timer_8h.html" target="_top" xlink:title=" ">
<polygon fill="white" stroke="black" points="1217.84,-129 1217.84,-148 1315.84,-148 1315.84,-129 1217.84,-129"/>
<text text-anchor="middle" x="1266.84" y="-136" font-family="Helvetica,sans-Serif" font-size="10.00">../lib/FuzzyTimer.h</text>
</a>
</g>
</g>
<!-- Node36&#45;&gt;Node38 -->
<g id="edge54" class="edge">
<title>Node36&#45;&gt;Node38</title>
<path fill="none" stroke="midnightblue" d="M1172.96,-201.36C1190.93,-189.52 1223.43,-168.1 1245.07,-153.84"/>
<polygon fill="midnightblue" stroke="midnightblue" points="1247.19,-156.64 1253.61,-148.22 1243.33,-150.79 1247.19,-156.64"/>
</g>
<!-- Node39 -->
<g id="node39" class="node">
<title>Node39</title>
<g id="a_node39"><a xlink:href="_message_id_8h.html" target="_top" xlink:title=" ">
<polygon fill="white" stroke="black" points="1029.84,-129 1029.84,-148 1101.84,-148 1101.84,-129 1029.84,-129"/>
<text text-anchor="middle" x="1065.84" y="-136" font-family="Helvetica,sans-Serif" font-size="10.00">MessageId.h</text>
</a>
</g>
</g>
<!-- Node36&#45;&gt;Node39 -->
<g id="edge55" class="edge">
<title>Node36&#45;&gt;Node39</title>
<path fill="none" stroke="midnightblue" d="M1148.31,-201.36C1132.67,-189.62 1104.48,-168.48 1085.47,-154.22"/>
<polygon fill="midnightblue" stroke="midnightblue" points="1087.56,-151.42 1077.46,-148.22 1083.36,-157.02 1087.56,-151.42"/>
</g>
<!-- Node39&#45;&gt;Node15 -->
<g id="edge57" class="edge">
<title>Node39&#45;&gt;Node15</title>
<path fill="none" stroke="midnightblue" d="M1077.97,-128.83C1096.11,-114.85 1126.38,-86.89 1108.84,-67 1086.74,-41.95 875.68,-26.23 768.97,-19.81"/>
<polygon fill="midnightblue" stroke="midnightblue" points="768.86,-16.3 758.67,-19.2 768.44,-23.29 768.86,-16.3"/>
</g>
<!-- Node40 -->
<g id="node40" class="node">
<title>Node40</title>
<g id="a_node40"><a xlink:title=" ">
<polygon fill="white" stroke="#bfbfbf" points="1157.34,-67.5 1157.34,-86.5 1206.34,-86.5 1206.34,-67.5 1157.34,-67.5"/>
<text text-anchor="middle" x="1181.84" y="-74.5" font-family="Helvetica,sans-Serif" font-size="10.00">cassert</text>
</a>
</g>
</g>
<!-- Node39&#45;&gt;Node40 -->
<g id="edge56" class="edge">
<title>Node39&#45;&gt;Node40</title>
<path fill="none" stroke="midnightblue" d="M1082.46,-128.98C1101.75,-119.08 1133.8,-102.64 1156.27,-91.12"/>
<polygon fill="midnightblue" stroke="midnightblue" points="1157.95,-94.19 1165.25,-86.51 1154.75,-87.96 1157.95,-94.19"/>
</g>
</g>
</svg>
