<?xml version="1.0" encoding="UTF-8" standalone="no"?>
<!DOCTYPE svg PUBLIC "-//W3C//DTD SVG 1.1//EN"
 "http://www.w3.org/Graphics/SVG/1.1/DTD/svg11.dtd">
<!-- Generated by graphviz version 2.50.0 (20211204.2007)
 -->
<!-- Title: src/model/TransactionEntry.h Pages: 1 -->
<!--zoomable 352 -->
<svg id="main" version="1.1" xmlns="http://www.w3.org/2000/svg" xmlns:xlink="http://www.w3.org/1999/xlink" xml:space="preserve" onload="init(evt)">
<style type="text/css"><![CDATA[
.edge:hover path { stroke: red; }
.edge:hover polygon { stroke: red; fill: red; }
]]></style>
<script type="text/javascript"><![CDATA[
var edges = document.getElementsByTagName('g');
if (edges && edges.length) {
  for (var i=0;i<edges.length;i++) {
    if (edges[i].id.substr(0,4)=='edge') {
      edges[i].setAttribute('class','edge');
    }
  }
}
]]></script>
        <defs>
                <circle id="rim" cx="0" cy="0" r="7"/>
                <circle id="rim2" cx="0" cy="0" r="3.5"/>
                <g id="zoomPlus">
                        <use xlink:href="#rim" fill="#404040">
                                <set attributeName="fill" to="#808080" begin="zoomplus.mouseover" end="zoomplus.mouseout"/>
                        </use>
                        <path d="M-4,0h8M0,-4v8" fill="none" stroke="white" stroke-width="1.5" pointer-events="none"/>
                </g>
                <g id="zoomMin">
                        <use xlink:href="#rim" fill="#404040">
                                <set attributeName="fill" to="#808080" begin="zoomminus.mouseover" end="zoomminus.mouseout"/>
                        </use>
                        <path d="M-4,0h8" fill="none" stroke="white" stroke-width="1.5" pointer-events="none"/>
                </g>
                <g id="dirArrow">
                        <path fill="none" stroke="white" stroke-width="1.5" d="M0,-3.0v7 M-2.5,-0.5L0,-3.0L2.5,-0.5"/>
                </g>
               <g id="resetDef">
                       <use xlink:href="#rim2" fill="#404040">
                               <set attributeName="fill" to="#808080" begin="reset.mouseover" end="reset.mouseout"/>
                       </use>
               </g>
        </defs>

<script type="text/javascript">
var viewWidth = 2035;
var viewHeight = 352;
var sectionId = 'dynsection-0';
</script>
<script xlink:href="svgpan.js"/>
<svg id="graph" class="graph">
<g id="viewport">
<title>src/model/TransactionEntry.h</title>
<polygon fill="white" stroke="transparent" points="-4,4 -4,-348 2031.03,-348 2031.03,4 -4,4"/>
<!-- Node1 -->
<g id="node1" class="node">
<title>Node1</title>
<g id="a_node1"><a xlink:title=" ">
<polygon fill="#bfbfbf" stroke="black" points="1362.03,-324.5 1362.03,-343.5 1506.03,-343.5 1506.03,-324.5 1362.03,-324.5"/>
<text text-anchor="middle" x="1434.03" y="-331.5" font-family="Helvetica,sans-Serif" font-size="10.00">src/model/TransactionEntry.h</text>
</a>
</g>
</g>
<!-- Node2 -->
<g id="node2" class="node">
<title>Node2</title>
<g id="a_node2"><a xlink:title=" ">
<polygon fill="white" stroke="#bfbfbf" points="608.53,-268.5 608.53,-287.5 685.53,-287.5 685.53,-268.5 608.53,-268.5"/>
<text text-anchor="middle" x="647.03" y="-275.5" font-family="Helvetica,sans-Serif" font-size="10.00">Poco/Types.h</text>
</a>
</g>
</g>
<!-- Node1&#45;&gt;Node2 -->
<g id="edge1" class="edge">
<title>Node1&#45;&gt;Node2</title>
<path fill="none" stroke="midnightblue" d="M1361.79,-331.68C1230.81,-328.62 945.29,-318.86 695.68,-288.06"/>
<polygon fill="midnightblue" stroke="midnightblue" points="696.06,-284.58 685.7,-286.81 695.19,-291.52 696.06,-284.58"/>
</g>
<!-- Node3 -->
<g id="node3" class="node">
<title>Node3</title>
<g id="a_node3"><a xlink:title=" ">
<polygon fill="white" stroke="#bfbfbf" points="890.53,-6 890.53,-25 967.53,-25 967.53,-6 890.53,-6"/>
<text text-anchor="middle" x="929.03" y="-13" font-family="Helvetica,sans-Serif" font-size="10.00">Poco/Mutex.h</text>
</a>
</g>
</g>
<!-- Node1&#45;&gt;Node3 -->
<g id="edge2" class="edge">
<title>Node1&#45;&gt;Node3</title>
<path fill="none" stroke="midnightblue" d="M1506.13,-329.47C1638.54,-321 1907.03,-293.74 1907.03,-212 1907.03,-212 1907.03,-212 1907.03,-137.5 1907.03,-33.49 1079.26,-50.16 977.03,-31 972.58,-30.17 967.96,-29.07 963.41,-27.86"/>
<polygon fill="midnightblue" stroke="midnightblue" points="964.27,-24.46 953.69,-25.06 962.34,-31.19 964.27,-24.46"/>
</g>
<!-- Node4 -->
<g id="node4" class="node">
<title>Node4</title>
<g id="a_node4"><a xlink:title=" ">
<polygon fill="white" stroke="#bfbfbf" points="1935.03,-268.5 1935.03,-287.5 2027.03,-287.5 2027.03,-268.5 1935.03,-268.5"/>
<text text-anchor="middle" x="1981.03" y="-275.5" font-family="Helvetica,sans-Serif" font-size="10.00">Poco/DateTime.h</text>
</a>
</g>
</g>
<!-- Node1&#45;&gt;Node4 -->
<g id="edge3" class="edge">
<title>Node1&#45;&gt;Node4</title>
<path fill="none" stroke="midnightblue" d="M1506.37,-327.61C1601.6,-320.21 1774.15,-305.79 1921.03,-288 1922.3,-287.85 1923.58,-287.69 1924.87,-287.52"/>
<polygon fill="midnightblue" stroke="midnightblue" points="1925.43,-290.98 1934.88,-286.19 1924.51,-284.04 1925.43,-290.98"/>
</g>
<!-- Node5 -->
<g id="node5" class="node">
<title>Node5</title>
<g id="a_node5"><a xlink:href="_group_8h.html" target="_top" xlink:title=" ">
<polygon fill="white" stroke="black" points="703.53,-268.5 703.53,-287.5 806.53,-287.5 806.53,-268.5 703.53,-268.5"/>
<text text-anchor="middle" x="755.03" y="-275.5" font-family="Helvetica,sans-Serif" font-size="10.00">../controller/Group.h</text>
</a>
</g>
</g>
<!-- Node1&#45;&gt;Node5 -->
<g id="edge4" class="edge">
<title>Node1&#45;&gt;Node5</title>
<path fill="none" stroke="midnightblue" d="M1362.01,-327.27C1228.06,-316.62 942.82,-293.93 816.93,-283.92"/>
<polygon fill="midnightblue" stroke="midnightblue" points="816.95,-280.41 806.7,-283.11 816.39,-287.39 816.95,-280.41"/>
</g>
<!-- Node17 -->
<g id="node17" class="node">
<title>Node17</title>
<g id="a_node17"><a xlink:title=" ">
<polygon fill="white" stroke="#bfbfbf" points="1298.03,-129 1298.03,-148 1340.03,-148 1340.03,-129 1298.03,-129"/>
<text text-anchor="middle" x="1319.03" y="-136" font-family="Helvetica,sans-Serif" font-size="10.00">vector</text>
</a>
</g>
</g>
<!-- Node1&#45;&gt;Node17 -->
<g id="edge66" class="edge">
<title>Node1&#45;&gt;Node17</title>
<path fill="none" stroke="midnightblue" d="M1428.94,-324.44C1411.44,-294.98 1353.45,-197.41 1329.51,-157.13"/>
<polygon fill="midnightblue" stroke="midnightblue" points="1332.45,-155.22 1324.33,-148.41 1326.43,-158.79 1332.45,-155.22"/>
</g>
<!-- Node30 -->
<g id="node30" class="node">
<title>Node30</title>
<g id="a_node30"><a xlink:title=" ">
<polygon fill="white" stroke="#bfbfbf" points="1567.03,-190.5 1567.03,-231.5 1687.03,-231.5 1687.03,-190.5 1567.03,-190.5"/>
<text text-anchor="start" x="1575.03" y="-219.5" font-family="Helvetica,sans-Serif" font-size="10.00">gradido_blockchain</text>
<text text-anchor="start" x="1575.03" y="-208.5" font-family="Helvetica,sans-Serif" font-size="10.00">/model/protobufWrapper</text>
<text text-anchor="middle" x="1627.03" y="-197.5" font-family="Helvetica,sans-Serif" font-size="10.00">/GradidoBlock.h</text>
</a>
</g>
</g>
<!-- Node1&#45;&gt;Node30 -->
<g id="edge65" class="edge">
<title>Node1&#45;&gt;Node30</title>
<path fill="none" stroke="midnightblue" d="M1447.61,-324.49C1476.18,-306.58 1543.51,-264.37 1587.07,-237.05"/>
<polygon fill="midnightblue" stroke="midnightblue" points="1589.11,-239.91 1595.72,-231.63 1585.39,-233.98 1589.11,-239.91"/>
</g>
<!-- Node6 -->
<g id="node6" class="node">
<title>Node6</title>
<g id="a_node6"><a xlink:href="_controller_base_8h.html" target="_top" xlink:title=" ">
<polygon fill="white" stroke="black" points="623.53,-129 623.53,-148 712.53,-148 712.53,-129 623.53,-129"/>
<text text-anchor="middle" x="668.03" y="-136" font-family="Helvetica,sans-Serif" font-size="10.00">ControllerBase.h</text>
</a>
</g>
</g>
<!-- Node5&#45;&gt;Node6 -->
<g id="edge5" class="edge">
<title>Node5&#45;&gt;Node6</title>
<path fill="none" stroke="midnightblue" d="M770.77,-268.24C782.92,-260.48 798.85,-247.93 806.03,-232 813.71,-214.99 816.73,-205.3 806.03,-190 800.05,-181.43 745.19,-163.14 706.47,-151.09"/>
<polygon fill="midnightblue" stroke="midnightblue" points="707.11,-147.62 696.53,-148.02 705.05,-154.31 707.11,-147.62"/>
</g>
<!-- Node7 -->
<g id="node7" class="node">
<title>Node7</title>
<g id="a_node7"><a xlink:href="controller_2_address_index_8h.html" target="_top" xlink:title=" ">
<polygon fill="white" stroke="black" points="713.03,-201.5 713.03,-220.5 797.03,-220.5 797.03,-201.5 713.03,-201.5"/>
<text text-anchor="middle" x="755.03" y="-208.5" font-family="Helvetica,sans-Serif" font-size="10.00">AddressIndex.h</text>
</a>
</g>
</g>
<!-- Node5&#45;&gt;Node7 -->
<g id="edge7" class="edge">
<title>Node5&#45;&gt;Node7</title>
<path fill="none" stroke="midnightblue" d="M755.03,-268.23C755.03,-258.68 755.03,-243.12 755.03,-230.78"/>
<polygon fill="midnightblue" stroke="midnightblue" points="758.53,-230.63 755.03,-220.63 751.53,-230.63 758.53,-230.63"/>
</g>
<!-- Node9 -->
<g id="node9" class="node">
<title>Node9</title>
<g id="a_node9"><a xlink:title=" ">
<polygon fill="white" stroke="#bfbfbf" points="311.53,-6 311.53,-25 382.53,-25 382.53,-6 311.53,-6"/>
<text text-anchor="middle" x="347.03" y="-13" font-family="Helvetica,sans-Serif" font-size="10.00">Poco/Path.h</text>
</a>
</g>
</g>
<!-- Node5&#45;&gt;Node9 -->
<g id="edge59" class="edge">
<title>Node5&#45;&gt;Node9</title>
<path fill="none" stroke="midnightblue" d="M703.49,-269.05C700.29,-268.67 697.12,-268.31 694.03,-268 620.08,-260.57 77.16,-285.95 26.03,-232 -25.8,-177.3 7.52,-115.69 65.03,-67 99.97,-37.43 230.43,-24.27 301.01,-19.22"/>
<polygon fill="midnightblue" stroke="midnightblue" points="301.65,-22.68 311.38,-18.5 301.17,-15.7 301.65,-22.68"/>
</g>
<!-- Node10 -->
<g id="node10" class="node">
<title>Node10</title>
<g id="a_node10"><a xlink:title=" ">
<polygon fill="white" stroke="#bfbfbf" points="179.53,-129 179.53,-148 318.53,-148 318.53,-129 179.53,-129"/>
<text text-anchor="middle" x="249.03" y="-136" font-family="Helvetica,sans-Serif" font-size="10.00">Poco/AccessExpireCache.h</text>
</a>
</g>
</g>
<!-- Node5&#45;&gt;Node10 -->
<g id="edge62" class="edge">
<title>Node5&#45;&gt;Node10</title>
<path fill="none" stroke="midnightblue" d="M744.6,-268.33C734.1,-259.47 717.56,-245.19 704.03,-232 685.79,-214.22 687.8,-201.43 665.03,-190 532.39,-123.42 480.01,-174.63 333.03,-154 323.99,-152.73 314.43,-151.23 305.13,-149.69"/>
<polygon fill="midnightblue" stroke="midnightblue" points="305.61,-146.22 295.17,-148 304.44,-153.12 305.61,-146.22"/>
</g>
<!-- Node16 -->
<g id="node16" class="node">
<title>Node16</title>
<g id="a_node16"><a xlink:href="controller_2_block_index_8h.html" target="_top" xlink:title=" ">
<polygon fill="white" stroke="black" points="853.53,-201.5 853.53,-220.5 926.53,-220.5 926.53,-201.5 853.53,-201.5"/>
<text text-anchor="middle" x="890.03" y="-208.5" font-family="Helvetica,sans-Serif" font-size="10.00">BlockIndex.h</text>
</a>
</g>
</g>
<!-- Node5&#45;&gt;Node16 -->
<g id="edge20" class="edge">
<title>Node5&#45;&gt;Node16</title>
<path fill="none" stroke="midnightblue" d="M772.96,-268.37C795.96,-257.3 836.06,-237.99 862.83,-225.1"/>
<polygon fill="midnightblue" stroke="midnightblue" points="864.54,-228.16 872.03,-220.67 861.5,-221.85 864.54,-228.16"/>
</g>
<!-- Node25 -->
<g id="node25" class="node">
<title>Node25</title>
<g id="a_node25"><a xlink:href="_task_observer_8h.html" target="_top" xlink:title=" ">
<polygon fill="white" stroke="black" points="1427.03,-201.5 1427.03,-220.5 1511.03,-220.5 1511.03,-201.5 1427.03,-201.5"/>
<text text-anchor="middle" x="1469.03" y="-208.5" font-family="Helvetica,sans-Serif" font-size="10.00">TaskObserver.h</text>
</a>
</g>
</g>
<!-- Node5&#45;&gt;Node25 -->
<g id="edge35" class="edge">
<title>Node5&#45;&gt;Node25</title>
<path fill="none" stroke="midnightblue" d="M806.62,-272.8C899.94,-265.14 1102.96,-248.19 1274.03,-232 1322.4,-227.42 1377.45,-221.73 1416.7,-217.59"/>
<polygon fill="midnightblue" stroke="midnightblue" points="1417.25,-221.05 1426.83,-216.52 1416.52,-214.09 1417.25,-221.05"/>
</g>
<!-- Node26 -->
<g id="node26" class="node">
<title>Node26</title>
<g id="a_node26"><a xlink:title=" ">
<polygon fill="white" stroke="#bfbfbf" points="1795.53,-129 1795.53,-148 1878.53,-148 1878.53,-129 1795.53,-129"/>
<text text-anchor="middle" x="1837.03" y="-136" font-family="Helvetica,sans-Serif" font-size="10.00">Poco/AutoPtr.h</text>
</a>
</g>
</g>
<!-- Node5&#45;&gt;Node26 -->
<g id="edge60" class="edge">
<title>Node5&#45;&gt;Node26</title>
<path fill="none" stroke="midnightblue" d="M806.56,-276.22C967.84,-273.47 1456.08,-262.66 1520.03,-232 1542.73,-221.12 1535.89,-201.97 1558.03,-190 1648.66,-141 1686.47,-176.39 1787.03,-154 1791.25,-153.06 1795.64,-151.97 1799.98,-150.81"/>
<polygon fill="midnightblue" stroke="midnightblue" points="1801.25,-154.09 1809.95,-148.03 1799.38,-147.34 1801.25,-154.09"/>
</g>
<!-- Node5&#45;&gt;Node30 -->
<g id="edge43" class="edge">
<title>Node5&#45;&gt;Node30</title>
<path fill="none" stroke="midnightblue" d="M806.78,-277.78C934.44,-278.9 1274.27,-277.03 1553.03,-232 1554.29,-231.8 1555.56,-231.58 1556.83,-231.35"/>
<polygon fill="midnightblue" stroke="midnightblue" points="1557.55,-234.78 1566.68,-229.41 1556.19,-227.91 1557.55,-234.78"/>
</g>
<!-- Node31 -->
<g id="node31" class="node">
<title>Node31</title>
<g id="a_node31"><a xlink:title=" ">
<polygon fill="white" stroke="#bfbfbf" points="47.03,-190.5 47.03,-231.5 167.03,-231.5 167.03,-190.5 47.03,-190.5"/>
<text text-anchor="start" x="55.03" y="-219.5" font-family="Helvetica,sans-Serif" font-size="10.00">gradido_blockchain</text>
<text text-anchor="start" x="55.03" y="-208.5" font-family="Helvetica,sans-Serif" font-size="10.00">/model/protobufWrapper</text>
<text text-anchor="middle" x="107.03" y="-197.5" font-family="Helvetica,sans-Serif" font-size="10.00">/GradidoTransaction.h</text>
</a>
</g>
</g>
<!-- Node5&#45;&gt;Node31 -->
<g id="edge44" class="edge">
<title>Node5&#45;&gt;Node31</title>
<path fill="none" stroke="midnightblue" d="M703.49,-269.11C700.29,-268.71 697.12,-268.33 694.03,-268 467.85,-243.49 405.03,-271.54 177,-231.96"/>
<polygon fill="midnightblue" stroke="midnightblue" points="177.52,-228.5 167.07,-230.22 176.31,-235.4 177.52,-228.5"/>
</g>
<!-- Node32 -->
<g id="node32" class="node">
<title>Node32</title>
<g id="a_node32"><a xlink:href="_state_8h.html" target="_top" xlink:title=" ">
<polygon fill="white" stroke="black" points="54.53,-129 54.53,-148 161.53,-148 161.53,-129 54.53,-129"/>
<text text-anchor="middle" x="108.03" y="-136" font-family="Helvetica,sans-Serif" font-size="10.00">../model/files/State.h</text>
</a>
</g>
</g>
<!-- Node5&#45;&gt;Node32 -->
<g id="edge45" class="edge">
<title>Node5&#45;&gt;Node32</title>
<path fill="none" stroke="midnightblue" d="M703.49,-269.06C700.29,-268.67 697.12,-268.31 694.03,-268 621.4,-260.66 88.22,-285.01 38.03,-232 25.2,-218.44 29.53,-206.62 38.03,-190 46.51,-173.43 63.24,-161.05 78.22,-152.69"/>
<polygon fill="midnightblue" stroke="midnightblue" points="79.98,-155.73 87.23,-148.01 76.75,-149.52 79.98,-155.73"/>
</g>
<!-- Node34 -->
<g id="node34" class="node">
<title>Node34</title>
<g id="a_node34"><a xlink:title=" ">
<polygon fill="white" stroke="#bfbfbf" points="185.03,-196 185.03,-226 289.03,-226 289.03,-196 185.03,-196"/>
<text text-anchor="start" x="193.03" y="-214" font-family="Helvetica,sans-Serif" font-size="10.00">gradido_blockchain</text>
<text text-anchor="middle" x="237.03" y="-203" font-family="Helvetica,sans-Serif" font-size="10.00">/http/JsonRequest.h</text>
</a>
</g>
</g>
<!-- Node5&#45;&gt;Node34 -->
<g id="edge49" class="edge">
<title>Node5&#45;&gt;Node34</title>
<path fill="none" stroke="midnightblue" d="M703.48,-269.19C700.28,-268.77 697.12,-268.37 694.03,-268 518.55,-247.09 471.1,-267.76 298.03,-232 293.86,-231.14 289.57,-230.09 285.29,-228.92"/>
<polygon fill="midnightblue" stroke="midnightblue" points="285.98,-225.48 275.4,-226.04 284.02,-232.2 285.98,-225.48"/>
</g>
<!-- Node35 -->
<g id="node35" class="node">
<title>Node35</title>
<g id="a_node35"><a xlink:href="_message_listener_8h.html" target="_top" xlink:title=" ">
<polygon fill="white" stroke="black" points="1138.53,-201.5 1138.53,-220.5 1265.53,-220.5 1265.53,-201.5 1138.53,-201.5"/>
<text text-anchor="middle" x="1202.03" y="-208.5" font-family="Helvetica,sans-Serif" font-size="10.00">../iota/MessageListener.h</text>
</a>
</g>
</g>
<!-- Node5&#45;&gt;Node35 -->
<g id="edge50" class="edge">
<title>Node5&#45;&gt;Node35</title>
<path fill="none" stroke="midnightblue" d="M806.75,-269.48C887.41,-257.75 1043.23,-235.09 1133.26,-222"/>
<polygon fill="midnightblue" stroke="midnightblue" points="1133.98,-225.43 1143.37,-220.53 1132.97,-218.51 1133.98,-225.43"/>
</g>
<!-- Node40 -->
<g id="node40" class="node">
<title>Node40</title>
<g id="a_node40"><a xlink:title=" ">
<polygon fill="white" stroke="#bfbfbf" points="307.03,-201.5 307.03,-220.5 373.03,-220.5 373.03,-201.5 307.03,-201.5"/>
<text text-anchor="middle" x="340.03" y="-208.5" font-family="Helvetica,sans-Serif" font-size="10.00">Poco/URI.h</text>
</a>
</g>
</g>
<!-- Node5&#45;&gt;Node40 -->
<g id="edge61" class="edge">
<title>Node5&#45;&gt;Node40</title>
<path fill="none" stroke="midnightblue" d="M703.47,-269.27C700.28,-268.83 697.11,-268.4 694.03,-268 555.64,-249.81 516.2,-270.53 382.03,-232 376.07,-230.29 369.9,-227.8 364.18,-225.16"/>
<polygon fill="midnightblue" stroke="midnightblue" points="365.63,-221.97 355.11,-220.67 362.53,-228.24 365.63,-221.97"/>
</g>
<!-- Node41 -->
<g id="node41" class="node">
<title>Node41</title>
<g id="a_node41"><a xlink:title=" ">
<polygon fill="white" stroke="#bfbfbf" points="391.03,-201.5 391.03,-220.5 497.03,-220.5 497.03,-201.5 391.03,-201.5"/>
<text text-anchor="middle" x="444.03" y="-208.5" font-family="Helvetica,sans-Serif" font-size="10.00">Poco/ExpireCache.h</text>
</a>
</g>
</g>
<!-- Node5&#45;&gt;Node41 -->
<g id="edge63" class="edge">
<title>Node5&#45;&gt;Node41</title>
<path fill="none" stroke="midnightblue" d="M703.5,-268.52C641.91,-258.24 542.57,-241.15 506.03,-232 496.69,-229.66 486.7,-226.66 477.52,-223.7"/>
<polygon fill="midnightblue" stroke="midnightblue" points="478.56,-220.36 467.96,-220.54 476.36,-227 478.56,-220.36"/>
</g>
<!-- Node42 -->
<g id="node42" class="node">
<title>Node42</title>
<g id="a_node42"><a xlink:title=" ">
<polygon fill="white" stroke="#bfbfbf" points="515.53,-196 515.53,-226 656.53,-226 656.53,-196 515.53,-196"/>
<text text-anchor="start" x="523.53" y="-214" font-family="Helvetica,sans-Serif" font-size="10.00">gradido_blockchain</text>
<text text-anchor="middle" x="586.03" y="-203" font-family="Helvetica,sans-Serif" font-size="10.00">/model/IGradidoBlockchain.h</text>
</a>
</g>
</g>
<!-- Node5&#45;&gt;Node42 -->
<g id="edge64" class="edge">
<title>Node5&#45;&gt;Node42</title>
<path fill="none" stroke="midnightblue" d="M732.59,-268.37C707.01,-258.53 664.53,-242.19 631.87,-229.63"/>
<polygon fill="midnightblue" stroke="midnightblue" points="633.1,-226.35 622.51,-226.03 630.58,-232.88 633.1,-226.35"/>
</g>
<!-- Node6&#45;&gt;Node3 -->
<g id="edge6" class="edge">
<title>Node6&#45;&gt;Node3</title>
<path fill="none" stroke="midnightblue" d="M664,-128.94C657.8,-114.37 648.11,-84.59 663.03,-67 694.8,-29.56 833.21,-42.12 881.03,-31 884.98,-30.08 889.07,-29.02 893.13,-27.9"/>
<polygon fill="midnightblue" stroke="midnightblue" points="894.41,-31.17 903.04,-25.02 892.46,-24.45 894.41,-31.17"/>
</g>
<!-- Node7&#45;&gt;Node6 -->
<g id="edge8" class="edge">
<title>Node7&#45;&gt;Node6</title>
<path fill="none" stroke="midnightblue" d="M744.37,-201.36C730.02,-189.73 704.27,-168.86 686.68,-154.61"/>
<polygon fill="midnightblue" stroke="midnightblue" points="688.76,-151.79 678.79,-148.22 684.35,-157.23 688.76,-151.79"/>
</g>
<!-- Node8 -->
<g id="node8" class="node">
<title>Node8</title>
<g id="a_node8"><a xlink:title=" ">
<polygon fill="white" stroke="#bfbfbf" points="413.53,-67.5 413.53,-86.5 496.53,-86.5 496.53,-67.5 413.53,-67.5"/>
<text text-anchor="middle" x="455.03" y="-74.5" font-family="Helvetica,sans-Serif" font-size="10.00">unordered_map</text>
</a>
</g>
</g>
<!-- Node7&#45;&gt;Node8 -->
<g id="edge9" class="edge">
<title>Node7&#45;&gt;Node8</title>
<path fill="none" stroke="midnightblue" d="M734.33,-201.5C723.89,-197.5 710.95,-192.97 699.03,-190 645.42,-176.64 489.16,-195.8 453.03,-154 439.58,-138.44 443.25,-113.65 448.18,-96.65"/>
<polygon fill="midnightblue" stroke="midnightblue" points="451.63,-97.36 451.43,-86.77 444.98,-95.17 451.63,-97.36"/>
</g>
<!-- Node7&#45;&gt;Node9 -->
<g id="edge10" class="edge">
<title>Node7&#45;&gt;Node9</title>
<path fill="none" stroke="midnightblue" d="M734.63,-201.42C724.17,-197.35 711.11,-192.78 699.03,-190 627.57,-173.56 424.5,-204.18 371.03,-154 338.29,-123.27 340.37,-64.97 344.02,-35.13"/>
<polygon fill="midnightblue" stroke="midnightblue" points="347.49,-35.59 345.43,-25.2 340.56,-34.61 347.49,-35.59"/>
</g>
<!-- Node7&#45;&gt;Node10 -->
<g id="edge11" class="edge">
<title>Node7&#45;&gt;Node10</title>
<path fill="none" stroke="midnightblue" d="M734.91,-201.46C724.4,-197.35 711.22,-192.73 699.03,-190 539.54,-154.24 495.01,-175.92 333.03,-154 323.88,-152.76 314.2,-151.26 304.78,-149.71"/>
<polygon fill="midnightblue" stroke="midnightblue" points="305.16,-146.22 294.72,-148.01 303.99,-153.13 305.16,-146.22"/>
</g>
<!-- Node11 -->
<g id="node11" class="node">
<title>Node11</title>
<g id="a_node11"><a xlink:href="model_2files_2_address_index_8h.html" target="_top" xlink:title=" ">
<polygon fill="white" stroke="black" points="462.53,-129 462.53,-148 605.53,-148 605.53,-129 462.53,-129"/>
<text text-anchor="middle" x="534.03" y="-136" font-family="Helvetica,sans-Serif" font-size="10.00">../model/files/AddressIndex.h</text>
</a>
</g>
</g>
<!-- Node7&#45;&gt;Node11 -->
<g id="edge12" class="edge">
<title>Node7&#45;&gt;Node11</title>
<path fill="none" stroke="midnightblue" d="M731.96,-201.49C721.88,-197.84 709.91,-193.6 699.03,-190 656.25,-175.82 606.77,-160.87 573.24,-150.95"/>
<polygon fill="midnightblue" stroke="midnightblue" points="573.95,-147.51 563.37,-148.04 571.97,-154.22 573.95,-147.51"/>
</g>
<!-- Node11&#45;&gt;Node8 -->
<g id="edge18" class="edge">
<title>Node11&#45;&gt;Node8</title>
<path fill="none" stroke="midnightblue" d="M522.72,-128.98C510.16,-119.52 489.68,-104.1 474.53,-92.69"/>
<polygon fill="midnightblue" stroke="midnightblue" points="476.43,-89.73 466.33,-86.51 472.21,-95.32 476.43,-89.73"/>
</g>
<!-- Node12 -->
<g id="node12" class="node">
<title>Node12</title>
<g id="a_node12"><a xlink:href="_file_base_8h.html" target="_top" xlink:title=" ">
<polygon fill="white" stroke="black" points="514.53,-67.5 514.53,-86.5 577.53,-86.5 577.53,-67.5 514.53,-67.5"/>
<text text-anchor="middle" x="546.03" y="-74.5" font-family="Helvetica,sans-Serif" font-size="10.00">FileBase.h</text>
</a>
</g>
</g>
<!-- Node11&#45;&gt;Node12 -->
<g id="edge13" class="edge">
<title>Node11&#45;&gt;Node12</title>
<path fill="none" stroke="midnightblue" d="M535.75,-128.98C537.46,-120.49 540.14,-107.2 542.34,-96.32"/>
<polygon fill="midnightblue" stroke="midnightblue" points="545.77,-97 544.32,-86.51 538.91,-95.62 545.77,-97"/>
</g>
<!-- Node14 -->
<g id="node14" class="node">
<title>Node14</title>
<g id="a_node14"><a xlink:title=" ">
<polygon fill="white" stroke="#bfbfbf" points="771.53,-0.5 771.53,-30.5 872.53,-30.5 872.53,-0.5 771.53,-0.5"/>
<text text-anchor="start" x="779.53" y="-18.5" font-family="Helvetica,sans-Serif" font-size="10.00">gradido_blockchain</text>
<text text-anchor="middle" x="822.03" y="-7.5" font-family="Helvetica,sans-Serif" font-size="10.00">/MemoryManager.h</text>
</a>
</g>
</g>
<!-- Node11&#45;&gt;Node14 -->
<g id="edge17" class="edge">
<title>Node11&#45;&gt;Node14</title>
<path fill="none" stroke="midnightblue" d="M546.22,-128.81C567.04,-114.29 611.17,-84.94 652.03,-67 687.16,-51.58 728.37,-39.21 761.42,-30.57"/>
<polygon fill="midnightblue" stroke="midnightblue" points="762.58,-33.88 771.4,-28.01 760.84,-27.1 762.58,-33.88"/>
</g>
<!-- Node15 -->
<g id="node15" class="node">
<title>Node15</title>
<g id="a_node15"><a xlink:title=" ">
<polygon fill="white" stroke="#bfbfbf" points="1227.53,-67.5 1227.53,-86.5 1262.53,-86.5 1262.53,-67.5 1227.53,-67.5"/>
<text text-anchor="middle" x="1245.03" y="-74.5" font-family="Helvetica,sans-Serif" font-size="10.00">map</text>
</a>
</g>
</g>
<!-- Node11&#45;&gt;Node15 -->
<g id="edge19" class="edge">
<title>Node11&#45;&gt;Node15</title>
<path fill="none" stroke="midnightblue" d="M575.83,-128.97C588.09,-126.73 601.56,-124.51 614.03,-123 869.99,-91.96 936.96,-117.03 1193.03,-87 1200.92,-86.08 1209.42,-84.75 1217.22,-83.39"/>
<polygon fill="midnightblue" stroke="midnightblue" points="1218.08,-86.79 1227.29,-81.57 1216.83,-79.91 1218.08,-86.79"/>
</g>
<!-- Node12&#45;&gt;Node3 -->
<g id="edge15" class="edge">
<title>Node12&#45;&gt;Node3</title>
<path fill="none" stroke="midnightblue" d="M577.8,-72.39C649.75,-64.11 823.4,-43.49 881.03,-31 885.2,-30.1 889.52,-29.01 893.8,-27.84"/>
<polygon fill="midnightblue" stroke="midnightblue" points="894.94,-31.16 903.57,-25.02 893,-24.43 894.94,-31.16"/>
</g>
<!-- Node12&#45;&gt;Node9 -->
<g id="edge14" class="edge">
<title>Node12&#45;&gt;Node9</title>
<path fill="none" stroke="midnightblue" d="M517.52,-67.48C482.8,-57.09 424,-39.51 385.34,-27.95"/>
<polygon fill="midnightblue" stroke="midnightblue" points="386.08,-24.52 375.49,-25.01 384.07,-31.23 386.08,-24.52"/>
</g>
<!-- Node13 -->
<g id="node13" class="node">
<title>Node13</title>
<g id="a_node13"><a xlink:title=" ">
<polygon fill="white" stroke="#bfbfbf" points="481.53,-6 481.53,-25 610.53,-25 610.53,-6 481.53,-6"/>
<text text-anchor="middle" x="546.03" y="-13" font-family="Helvetica,sans-Serif" font-size="10.00">Poco/RefCountedObject.h</text>
</a>
</g>
</g>
<!-- Node12&#45;&gt;Node13 -->
<g id="edge16" class="edge">
<title>Node12&#45;&gt;Node13</title>
<path fill="none" stroke="midnightblue" d="M546.03,-67.48C546.03,-59.08 546.03,-45.98 546.03,-35.16"/>
<polygon fill="midnightblue" stroke="midnightblue" points="549.53,-35.01 546.03,-25.01 542.53,-35.01 549.53,-35.01"/>
</g>
<!-- Node16&#45;&gt;Node6 -->
<g id="edge21" class="edge">
<title>Node16&#45;&gt;Node6</title>
<path fill="none" stroke="midnightblue" d="M869.34,-201.42C860.13,-197.72 849.11,-193.46 839.03,-190 814.77,-181.68 750.27,-162.97 707.79,-150.81"/>
<polygon fill="midnightblue" stroke="midnightblue" points="708.6,-147.4 698.03,-148.02 706.68,-154.13 708.6,-147.4"/>
</g>
<!-- Node16&#45;&gt;Node9 -->
<g id="edge24" class="edge">
<title>Node16&#45;&gt;Node9</title>
<path fill="none" stroke="midnightblue" d="M858.33,-201.4C842.68,-197.43 823.48,-192.95 806.03,-190 728.29,-176.84 521.93,-192.34 453.03,-154 403.56,-126.47 369.62,-65.3 355.05,-34.69"/>
<polygon fill="midnightblue" stroke="midnightblue" points="358.07,-32.87 350.71,-25.24 351.71,-35.79 358.07,-32.87"/>
</g>
<!-- Node16&#45;&gt;Node15 -->
<g id="edge23" class="edge">
<title>Node16&#45;&gt;Node15</title>
<path fill="none" stroke="midnightblue" d="M909.62,-201.45C931.98,-191.36 969.3,-173.45 999.03,-154 1017.27,-142.07 1017.4,-132.45 1037.03,-123 1053.19,-115.22 1164.45,-93.36 1217.29,-83.25"/>
<polygon fill="midnightblue" stroke="midnightblue" points="1218.16,-86.65 1227.33,-81.34 1216.85,-79.77 1218.16,-86.65"/>
</g>
<!-- Node16&#45;&gt;Node17 -->
<g id="edge22" class="edge">
<title>Node16&#45;&gt;Node17</title>
<path fill="none" stroke="midnightblue" d="M926.79,-204.99C992.19,-195.93 1132.99,-175.72 1251.03,-154 1263.12,-151.78 1276.35,-149.03 1287.9,-146.52"/>
<polygon fill="midnightblue" stroke="midnightblue" points="1288.94,-149.88 1297.96,-144.31 1287.44,-143.04 1288.94,-149.88"/>
</g>
<!-- Node18 -->
<g id="node18" class="node">
<title>Node18</title>
<g id="a_node18"><a xlink:title=" ">
<polygon fill="white" stroke="#bfbfbf" points="985.03,-67.5 985.03,-86.5 1079.03,-86.5 1079.03,-67.5 985.03,-67.5"/>
<text text-anchor="middle" x="1032.03" y="-74.5" font-family="Helvetica,sans-Serif" font-size="10.00">Poco/SharedPtr.h</text>
</a>
</g>
</g>
<!-- Node16&#45;&gt;Node18 -->
<g id="edge25" class="edge">
<title>Node16&#45;&gt;Node18</title>
<path fill="none" stroke="midnightblue" d="M889.38,-201.4C888.56,-184.3 889.21,-145.71 909.03,-123 919.79,-110.67 957.33,-97.98 988.14,-89.23"/>
<polygon fill="midnightblue" stroke="midnightblue" points="989.16,-92.58 997.86,-86.54 987.29,-85.84 989.16,-92.58"/>
</g>
<!-- Node19 -->
<g id="node19" class="node">
<title>Node19</title>
<g id="a_node19"><a xlink:href="model_2files_2_block_index_8h.html" target="_top" xlink:title=" ">
<polygon fill="white" stroke="black" points="730.53,-129 730.53,-148 861.53,-148 861.53,-129 730.53,-129"/>
<text text-anchor="middle" x="796.03" y="-136" font-family="Helvetica,sans-Serif" font-size="10.00">../model/files/BlockIndex.h</text>
</a>
</g>
</g>
<!-- Node16&#45;&gt;Node19 -->
<g id="edge26" class="edge">
<title>Node16&#45;&gt;Node19</title>
<path fill="none" stroke="midnightblue" d="M878.51,-201.36C862.86,-189.62 834.68,-168.48 815.67,-154.22"/>
<polygon fill="midnightblue" stroke="midnightblue" points="817.75,-151.42 807.65,-148.22 813.55,-157.02 817.75,-151.42"/>
</g>
<!-- Node19&#45;&gt;Node12 -->
<g id="edge27" class="edge">
<title>Node19&#45;&gt;Node12</title>
<path fill="none" stroke="midnightblue" d="M760.21,-128.98C714.59,-118.12 635.87,-99.38 587.64,-87.9"/>
<polygon fill="midnightblue" stroke="midnightblue" points="588.37,-84.48 577.83,-85.57 586.75,-91.29 588.37,-84.48"/>
</g>
<!-- Node19&#45;&gt;Node18 -->
<g id="edge31" class="edge">
<title>Node19&#45;&gt;Node18</title>
<path fill="none" stroke="midnightblue" d="M829.85,-128.98C871.56,-118.46 942.55,-100.56 988.35,-89.01"/>
<polygon fill="midnightblue" stroke="midnightblue" points="989.44,-92.35 998.28,-86.51 987.73,-85.56 989.44,-92.35"/>
</g>
<!-- Node20 -->
<g id="node20" class="node">
<title>Node20</title>
<g id="a_node20"><a xlink:href="_virtual_file_8h.html" target="_top" xlink:title=" ">
<polygon fill="white" stroke="black" points="867.53,-67.5 867.53,-86.5 966.53,-86.5 966.53,-67.5 867.53,-67.5"/>
<text text-anchor="middle" x="917.03" y="-74.5" font-family="Helvetica,sans-Serif" font-size="10.00">../../lib/VirtualFile.h</text>
</a>
</g>
</g>
<!-- Node19&#45;&gt;Node20 -->
<g id="edge28" class="edge">
<title>Node19&#45;&gt;Node20</title>
<path fill="none" stroke="midnightblue" d="M813.37,-128.98C833.59,-119.03 867.22,-102.49 890.68,-90.96"/>
<polygon fill="midnightblue" stroke="midnightblue" points="892.3,-94.06 899.73,-86.51 889.21,-87.78 892.3,-94.06"/>
</g>
<!-- Node22 -->
<g id="node22" class="node">
<title>Node22</title>
<g id="a_node22"><a xlink:title=" ">
<polygon fill="white" stroke="#bfbfbf" points="732.03,-67.5 732.03,-86.5 788.03,-86.5 788.03,-67.5 732.03,-67.5"/>
<text text-anchor="middle" x="760.03" y="-74.5" font-family="Helvetica,sans-Serif" font-size="10.00">sodium.h</text>
</a>
</g>
</g>
<!-- Node19&#45;&gt;Node22 -->
<g id="edge32" class="edge">
<title>Node19&#45;&gt;Node22</title>
<path fill="none" stroke="midnightblue" d="M790.88,-128.98C785.58,-120.23 777.2,-106.37 770.51,-95.31"/>
<polygon fill="midnightblue" stroke="midnightblue" points="773.35,-93.25 765.18,-86.51 767.36,-96.88 773.35,-93.25"/>
</g>
<!-- Node23 -->
<g id="node23" class="node">
<title>Node23</title>
<g id="a_node23"><a xlink:title=" ">
<polygon fill="white" stroke="#bfbfbf" points="806.53,-67.5 806.53,-86.5 849.53,-86.5 849.53,-67.5 806.53,-67.5"/>
<text text-anchor="middle" x="828.03" y="-74.5" font-family="Helvetica,sans-Serif" font-size="10.00">queue</text>
</a>
</g>
</g>
<!-- Node19&#45;&gt;Node23 -->
<g id="edge33" class="edge">
<title>Node19&#45;&gt;Node23</title>
<path fill="none" stroke="midnightblue" d="M800.62,-128.98C805.28,-120.32 812.63,-106.65 818.54,-95.65"/>
<polygon fill="midnightblue" stroke="midnightblue" points="821.8,-96.97 823.46,-86.51 815.64,-93.66 821.8,-96.97"/>
</g>
<!-- Node24 -->
<g id="node24" class="node">
<title>Node24</title>
<g id="a_node24"><a xlink:title=" ">
<polygon fill="white" stroke="#bfbfbf" points="672.53,-67.5 672.53,-86.5 713.53,-86.5 713.53,-67.5 672.53,-67.5"/>
<text text-anchor="middle" x="693.03" y="-74.5" font-family="Helvetica,sans-Serif" font-size="10.00">string</text>
</a>
</g>
</g>
<!-- Node19&#45;&gt;Node24 -->
<g id="edge34" class="edge">
<title>Node19&#45;&gt;Node24</title>
<path fill="none" stroke="midnightblue" d="M781.28,-128.98C764.37,-119.21 736.45,-103.08 716.54,-91.58"/>
<polygon fill="midnightblue" stroke="midnightblue" points="718.17,-88.48 707.76,-86.51 714.67,-94.54 718.17,-88.48"/>
</g>
<!-- Node20&#45;&gt;Node14 -->
<g id="edge29" class="edge">
<title>Node20&#45;&gt;Node14</title>
<path fill="none" stroke="midnightblue" d="M903.42,-67.48C890.32,-59.27 870.03,-46.56 852.98,-35.88"/>
<polygon fill="midnightblue" stroke="midnightblue" points="854.76,-32.86 844.42,-30.52 851.04,-38.8 854.76,-32.86"/>
</g>
<!-- Node21 -->
<g id="node21" class="node">
<title>Node21</title>
<g id="a_node21"><a xlink:title=" ">
<polygon fill="white" stroke="#bfbfbf" points="986.03,-6 986.03,-25 1038.03,-25 1038.03,-6 986.03,-6"/>
<text text-anchor="middle" x="1012.03" y="-13" font-family="Helvetica,sans-Serif" font-size="10.00">assert.h</text>
</a>
</g>
</g>
<!-- Node20&#45;&gt;Node21 -->
<g id="edge30" class="edge">
<title>Node20&#45;&gt;Node21</title>
<path fill="none" stroke="midnightblue" d="M930.65,-67.48C946.09,-57.8 971.52,-41.87 989.85,-30.39"/>
<polygon fill="midnightblue" stroke="midnightblue" points="991.83,-33.28 998.45,-25.01 988.12,-27.35 991.83,-33.28"/>
</g>
<!-- Node25&#45;&gt;Node3 -->
<g id="edge36" class="edge">
<title>Node25&#45;&gt;Node3</title>
<path fill="none" stroke="midnightblue" d="M1479.75,-201.47C1499,-185.14 1535.58,-148.79 1515.03,-123 1439.47,-28.13 1095.72,-56 977.03,-31 972.87,-30.12 968.54,-29.05 964.26,-27.89"/>
<polygon fill="midnightblue" stroke="midnightblue" points="965.06,-24.48 954.48,-25.07 963.12,-31.2 965.06,-24.48"/>
</g>
<!-- Node25&#45;&gt;Node15 -->
<g id="edge42" class="edge">
<title>Node25&#45;&gt;Node15</title>
<path fill="none" stroke="midnightblue" d="M1476.64,-201.32C1490.53,-184.39 1516.79,-146.6 1497.03,-123 1468.7,-89.16 1332.62,-80.74 1273.05,-78.67"/>
<polygon fill="midnightblue" stroke="midnightblue" points="1272.97,-75.16 1262.87,-78.35 1272.75,-82.16 1272.97,-75.16"/>
</g>
<!-- Node25&#45;&gt;Node17 -->
<g id="edge41" class="edge">
<title>Node25&#45;&gt;Node17</title>
<path fill="none" stroke="midnightblue" d="M1450.29,-201.35C1426.64,-190.41 1384.75,-170.97 1349.03,-154 1348.04,-153.53 1347.03,-153.05 1346.01,-152.56"/>
<polygon fill="midnightblue" stroke="midnightblue" points="1347.31,-149.3 1336.78,-148.13 1344.28,-155.61 1347.31,-149.3"/>
</g>
<!-- Node25&#45;&gt;Node26 -->
<g id="edge37" class="edge">
<title>Node25&#45;&gt;Node26</title>
<path fill="none" stroke="midnightblue" d="M1489.73,-201.45C1500.16,-197.44 1513.1,-192.92 1525.03,-190 1639.21,-162.09 1672.06,-178.43 1787.03,-154 1791.43,-153.07 1796,-151.95 1800.52,-150.75"/>
<polygon fill="midnightblue" stroke="midnightblue" points="1801.53,-154.1 1810.23,-148.05 1799.66,-147.36 1801.53,-154.1"/>
</g>
<!-- Node27 -->
<g id="node27" class="node">
<title>Node27</title>
<g id="a_node27"><a xlink:title=" ">
<polygon fill="white" stroke="#bfbfbf" points="1582.03,-123.5 1582.03,-153.5 1682.03,-153.5 1682.03,-123.5 1582.03,-123.5"/>
<text text-anchor="start" x="1590.03" y="-141.5" font-family="Helvetica,sans-Serif" font-size="10.00">gradido_blockchain</text>
<text text-anchor="middle" x="1632.03" y="-130.5" font-family="Helvetica,sans-Serif" font-size="10.00">/lib/DRHashList.h</text>
</a>
</g>
</g>
<!-- Node25&#45;&gt;Node27 -->
<g id="edge38" class="edge">
<title>Node25&#45;&gt;Node27</title>
<path fill="none" stroke="midnightblue" d="M1488.7,-201.5C1513.74,-190.66 1557.69,-171.65 1590.34,-157.53"/>
<polygon fill="midnightblue" stroke="midnightblue" points="1591.86,-160.69 1599.65,-153.51 1589.08,-154.26 1591.86,-160.69"/>
</g>
<!-- Node28 -->
<g id="node28" class="node">
<title>Node28</title>
<g id="a_node28"><a xlink:title=" ">
<polygon fill="white" stroke="#bfbfbf" points="1358.03,-123.5 1358.03,-153.5 1488.03,-153.5 1488.03,-123.5 1358.03,-123.5"/>
<text text-anchor="start" x="1366.03" y="-141.5" font-family="Helvetica,sans-Serif" font-size="10.00">gradido_blockchain</text>
<text text-anchor="middle" x="1423.03" y="-130.5" font-family="Helvetica,sans-Serif" font-size="10.00">/lib/MultithreadContainer.h</text>
</a>
</g>
</g>
<!-- Node25&#45;&gt;Node28 -->
<g id="edge39" class="edge">
<title>Node25&#45;&gt;Node28</title>
<path fill="none" stroke="midnightblue" d="M1463.39,-201.36C1457.08,-191.68 1446.59,-175.6 1437.88,-162.26"/>
<polygon fill="midnightblue" stroke="midnightblue" points="1440.61,-160.04 1432.22,-153.58 1434.75,-163.86 1440.61,-160.04"/>
</g>
<!-- Node29 -->
<g id="node29" class="node">
<title>Node29</title>
<g id="a_node29"><a xlink:href="_task_8h.html" target="_top" xlink:title=" ">
<polygon fill="white" stroke="black" points="1700.53,-129 1700.53,-148 1777.53,-148 1777.53,-129 1700.53,-129"/>
<text text-anchor="middle" x="1739.03" y="-136" font-family="Helvetica,sans-Serif" font-size="10.00">../task/Task.h</text>
</a>
</g>
</g>
<!-- Node25&#45;&gt;Node29 -->
<g id="edge40" class="edge">
<title>Node25&#45;&gt;Node29</title>
<path fill="none" stroke="midnightblue" d="M1490.9,-201.45C1501.16,-197.63 1513.62,-193.26 1525.03,-190 1597.62,-169.26 1617.95,-172.93 1691.03,-154 1694.7,-153.05 1698.52,-152 1702.31,-150.92"/>
<polygon fill="midnightblue" stroke="midnightblue" points="1703.62,-154.18 1712.23,-148.01 1701.65,-147.47 1703.62,-154.18"/>
</g>
<!-- Node32&#45;&gt;Node9 -->
<g id="edge48" class="edge">
<title>Node32&#45;&gt;Node9</title>
<path fill="none" stroke="midnightblue" d="M124.84,-128.99C165.88,-108.21 271.45,-54.77 320.83,-29.76"/>
<polygon fill="midnightblue" stroke="midnightblue" points="322.59,-32.8 329.93,-25.16 319.42,-26.56 322.59,-32.8"/>
</g>
<!-- Node32&#45;&gt;Node12 -->
<g id="edge46" class="edge">
<title>Node32&#45;&gt;Node12</title>
<path fill="none" stroke="midnightblue" d="M141.02,-128.99C150.36,-126.8 160.55,-124.61 170.03,-123 314.49,-98.44 355.49,-110.54 504.35,-86.93"/>
<polygon fill="midnightblue" stroke="midnightblue" points="505,-90.37 514.32,-85.32 503.89,-83.46 505,-90.37"/>
</g>
<!-- Node33 -->
<g id="node33" class="node">
<title>Node33</title>
<g id="a_node33"><a xlink:title=" ">
<polygon fill="white" stroke="#bfbfbf" points="74.03,-67.5 74.03,-86.5 142.03,-86.5 142.03,-67.5 74.03,-67.5"/>
<text text-anchor="middle" x="108.03" y="-74.5" font-family="Helvetica,sans-Serif" font-size="10.00">leveldb/db.h</text>
</a>
</g>
</g>
<!-- Node32&#45;&gt;Node33 -->
<g id="edge47" class="edge">
<title>Node32&#45;&gt;Node33</title>
<path fill="none" stroke="midnightblue" d="M108.03,-128.98C108.03,-120.58 108.03,-107.48 108.03,-96.66"/>
<polygon fill="midnightblue" stroke="midnightblue" points="111.53,-96.51 108.03,-86.51 104.53,-96.51 111.53,-96.51"/>
</g>
<!-- Node35&#45;&gt;Node15 -->
<g id="edge58" class="edge">
<title>Node35&#45;&gt;Node15</title>
<path fill="none" stroke="midnightblue" d="M1213.58,-201.19C1225.57,-191.24 1243.58,-173.83 1251.03,-154 1258,-135.46 1254.77,-112.62 1250.89,-96.84"/>
<polygon fill="midnightblue" stroke="midnightblue" points="1254.13,-95.46 1248.08,-86.77 1247.39,-97.34 1254.13,-95.46"/>
</g>
<!-- Node35&#45;&gt;Node17 -->
<g id="edge57" class="edge">
<title>Node35&#45;&gt;Node17</title>
<path fill="none" stroke="midnightblue" d="M1216.38,-201.36C1236.2,-189.41 1272.2,-167.72 1295.86,-153.46"/>
<polygon fill="midnightblue" stroke="midnightblue" points="1297.81,-156.37 1304.57,-148.22 1294.2,-150.38 1297.81,-156.37"/>
</g>
<!-- Node35&#45;&gt;Node28 -->
<g id="edge52" class="edge">
<title>Node35&#45;&gt;Node28</title>
<path fill="none" stroke="midnightblue" d="M1228.69,-201.5C1263.38,-190.43 1324.81,-170.83 1369.33,-156.63"/>
<polygon fill="midnightblue" stroke="midnightblue" points="1370.67,-159.88 1379.13,-153.51 1368.54,-153.21 1370.67,-159.88"/>
</g>
<!-- Node36 -->
<g id="node36" class="node">
<title>Node36</title>
<g id="a_node36"><a xlink:title=" ">
<polygon fill="white" stroke="#bfbfbf" points="1162.03,-129 1162.03,-148 1242.03,-148 1242.03,-129 1162.03,-129"/>
<text text-anchor="middle" x="1202.03" y="-136" font-family="Helvetica,sans-Serif" font-size="10.00">Poco/Logger.h</text>
</a>
</g>
</g>
<!-- Node35&#45;&gt;Node36 -->
<g id="edge51" class="edge">
<title>Node35&#45;&gt;Node36</title>
<path fill="none" stroke="midnightblue" d="M1202.03,-201.36C1202.03,-190.68 1202.03,-172.22 1202.03,-158.23"/>
<polygon fill="midnightblue" stroke="midnightblue" points="1205.53,-158.22 1202.03,-148.22 1198.53,-158.22 1205.53,-158.22"/>
</g>
<!-- Node37 -->
<g id="node37" class="node">
<title>Node37</title>
<g id="a_node37"><a xlink:href="_fuzzy_timer_8h.html" target="_top" xlink:title=" ">
<polygon fill="white" stroke="black" points="1046.03,-129 1046.03,-148 1144.03,-148 1144.03,-129 1046.03,-129"/>
<text text-anchor="middle" x="1095.03" y="-136" font-family="Helvetica,sans-Serif" font-size="10.00">../lib/FuzzyTimer.h</text>
</a>
</g>
</g>
<!-- Node35&#45;&gt;Node37 -->
<g id="edge53" class="edge">
<title>Node35&#45;&gt;Node37</title>
<path fill="none" stroke="midnightblue" d="M1188.91,-201.36C1170.94,-189.52 1138.45,-168.1 1116.8,-153.84"/>
<polygon fill="midnightblue" stroke="midnightblue" points="1118.54,-150.79 1108.26,-148.22 1114.69,-156.64 1118.54,-150.79"/>
</g>
<!-- Node38 -->
<g id="node38" class="node">
<title>Node38</title>
<g id="a_node38"><a xlink:href="_message_id_8h.html" target="_top" xlink:title=" ">
<polygon fill="white" stroke="black" points="918.03,-129 918.03,-148 990.03,-148 990.03,-129 918.03,-129"/>
<text text-anchor="middle" x="954.03" y="-136" font-family="Helvetica,sans-Serif" font-size="10.00">MessageId.h</text>
</a>
</g>
</g>
<!-- Node35&#45;&gt;Node38 -->
<g id="edge54" class="edge">
<title>Node35&#45;&gt;Node38</title>
<path fill="none" stroke="midnightblue" d="M1172.12,-201.5C1127.52,-188.82 1043.55,-164.95 993.82,-150.81"/>
<polygon fill="midnightblue" stroke="midnightblue" points="994.63,-147.4 984.05,-148.03 992.72,-154.14 994.63,-147.4"/>
</g>
<!-- Node38&#45;&gt;Node14 -->
<g id="edge56" class="edge">
<title>Node38&#45;&gt;Node14</title>
<path fill="none" stroke="midnightblue" d="M981.71,-128.93C1019.06,-117.08 1081.72,-96.12 1088.03,-87 1093.09,-79.69 1093.76,-73.8 1088.03,-67 1059.68,-33.29 941.27,-39.67 882.7,-30.96"/>
<polygon fill="midnightblue" stroke="midnightblue" points="883.29,-27.51 872.83,-29.22 882.07,-34.41 883.29,-27.51"/>
</g>
<!-- Node39 -->
<g id="node39" class="node">
<title>Node39</title>
<g id="a_node39"><a xlink:title=" ">
<polygon fill="white" stroke="#bfbfbf" points="1135.53,-67.5 1135.53,-86.5 1184.53,-86.5 1184.53,-67.5 1135.53,-67.5"/>
<text text-anchor="middle" x="1160.03" y="-74.5" font-family="Helvetica,sans-Serif" font-size="10.00">cassert</text>
</a>
</g>
</g>
<!-- Node38&#45;&gt;Node39 -->
<g id="edge55" class="edge">
<title>Node38&#45;&gt;Node39</title>
<path fill="none" stroke="midnightblue" d="M983.38,-128.98C990.16,-127.02 997.35,-124.93 1004.03,-123 1045.94,-110.88 1094.18,-96.97 1125.79,-87.86"/>
<polygon fill="midnightblue" stroke="midnightblue" points="1126.8,-91.21 1135.44,-85.08 1124.87,-84.49 1126.8,-91.21"/>
</g>
</g>
</svg>
        <g id="navigator" transform="translate(0 0)" fill="#404254">
                <rect fill="#f2f5e9" fill-opacity="0.5" stroke="#606060" stroke-width=".5" x="0" y="0" width="60" height="60"/>
                <use id="zoomplus" xlink:href="#zoomPlus" x="17" y="9" onmousedown="handleZoom(evt,'in')"/>
                <use id="zoomminus" xlink:href="#zoomMin" x="42" y="9" onmousedown="handleZoom(evt,'out')"/>
                <use id="reset" xlink:href="#resetDef" x="30" y="36" onmousedown="handleReset()"/>
                <g id="arrowUp" xlink:href="#dirArrow" transform="translate(30 24)" onmousedown="handlePan(0,-1)">
                  <use xlink:href="#rim" fill="#404040">
                        <set attributeName="fill" to="#808080" begin="arrowUp.mouseover" end="arrowUp.mouseout"/>
                  </use>
                  <path fill="none" stroke="white" stroke-width="1.5" d="M0,-3.0v7 M-2.5,-0.5L0,-3.0L2.5,-0.5"/>
                </g>
                <g id="arrowRight" xlink:href="#dirArrow" transform="rotate(90) translate(36 -43)" onmousedown="handlePan(1,0)">
                  <use xlink:href="#rim" fill="#404040">
                        <set attributeName="fill" to="#808080" begin="arrowRight.mouseover" end="arrowRight.mouseout"/>
                  </use>
                  <path fill="none" stroke="white" stroke-width="1.5" d="M0,-3.0v7 M-2.5,-0.5L0,-3.0L2.5,-0.5"/>
                </g>
                <g id="arrowDown" xlink:href="#dirArrow" transform="rotate(180) translate(-30 -48)" onmousedown="handlePan(0,1)">
                  <use xlink:href="#rim" fill="#404040">
                        <set attributeName="fill" to="#808080" begin="arrowDown.mouseover" end="arrowDown.mouseout"/>
                  </use>
                  <path fill="none" stroke="white" stroke-width="1.5" d="M0,-3.0v7 M-2.5,-0.5L0,-3.0L2.5,-0.5"/>
                </g>
                <g id="arrowLeft" xlink:href="#dirArrow" transform="rotate(270) translate(-36 17)" onmousedown="handlePan(-1,0)">
                  <use xlink:href="#rim" fill="#404040">
                        <set attributeName="fill" to="#808080" begin="arrowLeft.mouseover" end="arrowLeft.mouseout"/>
                  </use>
                  <path fill="none" stroke="white" stroke-width="1.5" d="M0,-3.0v7 M-2.5,-0.5L0,-3.0L2.5,-0.5"/>
                </g>
        </g>
        <svg viewBox="0 0 15 15" width="100%" height="30px" preserveAspectRatio="xMaxYMin meet">
         <g id="arrow_out" transform="scale(0.3 0.3)">
          <a xlink:href="_transaction_entry_8h__incl_org.svg" target="_base">
           <rect id="button" ry="5" rx="5" y="6" x="6" height="38" width="38"
                fill="#f2f5e9" fill-opacity="0.5" stroke="#606060" stroke-width="1.0"/>
           <path id="arrow"
             d="M 11.500037,31.436501 C 11.940474,20.09759 22.043105,11.32322 32.158766,21.979434 L 37.068811,17.246167 C 37.068811,17.246167 37.088388,32 37.088388,32 L 22.160133,31.978069 C 22.160133,31.978069 26.997745,27.140456 26.997745,27.140456 C 18.528582,18.264221 13.291696,25.230495 11.500037,31.436501 z"
             style="fill:#404040;"/>
          </a>
         </g>
        </svg>
</svg>
