<?xml version="1.0" encoding="UTF-8" standalone="no"?>
<!DOCTYPE svg PUBLIC "-//W3C//DTD SVG 1.1//EN"
 "http://www.w3.org/Graphics/SVG/1.1/DTD/svg11.dtd">
<!-- Generated by graphviz version 2.50.0 (20211204.2007)
 -->
<!-- Title: src/model/TransactionEntry.h Pages: 1 -->
<svg width="926pt" height="162pt"
 viewBox="0.00 0.00 925.50 162.00" xmlns="http://www.w3.org/2000/svg" xmlns:xlink="http://www.w3.org/1999/xlink">
<g id="graph0" class="graph" transform="scale(1 1) rotate(0) translate(4 158)">
<title>src/model/TransactionEntry.h</title>
<polygon fill="white" stroke="transparent" points="-4,4 -4,-158 921.5,-158 921.5,4 -4,4"/>
<!-- Node1 -->
<g id="node1" class="node">
<title>Node1</title>
<g id="a_node1"><a xlink:title=" ">
<polygon fill="#bfbfbf" stroke="black" points="367.5,-134.5 367.5,-153.5 511.5,-153.5 511.5,-134.5 367.5,-134.5"/>
<text text-anchor="middle" x="439.5" y="-141.5" font-family="Helvetica,sans-Serif" font-size="10.00">src/model/TransactionEntry.h</text>
</a>
</g>
</g>
<!-- Node2 -->
<g id="node2" class="node">
<title>Node2</title>
<g id="a_node2"><a xlink:href="controller_2_block_8h.html" target="_top" xlink:title=" ">
<polygon fill="white" stroke="black" points="74,-73 74,-92 183,-92 183,-73 74,-73"/>
<text text-anchor="middle" x="128.5" y="-80" font-family="Helvetica,sans-Serif" font-size="10.00">src/controller/Block.h</text>
</a>
</g>
</g>
<!-- Node1&#45;&gt;Node2 -->
<g id="edge1" class="edge">
<title>Node1&#45;&gt;Node2</title>
<path fill="none" stroke="midnightblue" d="M378.49,-132.75C328.19,-124.1 255.06,-111.07 191.5,-98 182.71,-96.19 173.26,-94.1 164.42,-92.07"/>
<polygon fill="midnightblue" stroke="midnightblue" points="378.1,-136.23 388.54,-134.47 379.28,-129.33 378.1,-136.23"/>
</g>
<!-- Node5 -->
<g id="node5" class="node">
<title>Node5</title>
<g id="a_node5"><a xlink:href="controller_2_block_index_8cpp.html" target="_top" xlink:title=" ">
<polygon fill="white" stroke="black" points="201,-73 201,-92 344,-92 344,-73 201,-73"/>
<text text-anchor="middle" x="272.5" y="-80" font-family="Helvetica,sans-Serif" font-size="10.00">src/controller/BlockIndex.cpp</text>
</a>
</g>
</g>
<!-- Node1&#45;&gt;Node5 -->
<g id="edge4" class="edge">
<title>Node1&#45;&gt;Node5</title>
<path fill="none" stroke="midnightblue" d="M406.05,-131.08C373.59,-119.52 325.13,-102.25 296.38,-92.01"/>
<polygon fill="midnightblue" stroke="midnightblue" points="404.98,-134.42 415.57,-134.48 407.33,-127.82 404.98,-134.42"/>
</g>
<!-- Node6 -->
<g id="node6" class="node">
<title>Node6</title>
<g id="a_node6"><a xlink:href="_transaction_entry_8cpp.html" target="_top" xlink:title=" ">
<polygon fill="white" stroke="black" points="362,-73 362,-92 517,-92 517,-73 362,-73"/>
<text text-anchor="middle" x="439.5" y="-80" font-family="Helvetica,sans-Serif" font-size="10.00">src/model/TransactionEntry.cpp</text>
</a>
</g>
</g>
<!-- Node1&#45;&gt;Node6 -->
<g id="edge5" class="edge">
<title>Node1&#45;&gt;Node6</title>
<path fill="none" stroke="midnightblue" d="M439.5,-124.32C439.5,-113.5 439.5,-100.4 439.5,-92.01"/>
<polygon fill="midnightblue" stroke="midnightblue" points="436,-124.48 439.5,-134.48 443,-124.48 436,-124.48"/>
</g>
<!-- Node7 -->
<g id="node7" class="node">
<title>Node7</title>
<g id="a_node7"><a xlink:href="model_2files_2_block_index_8cpp.html" target="_top" xlink:title=" ">
<polygon fill="white" stroke="black" points="535,-73 535,-92 684,-92 684,-73 535,-73"/>
<text text-anchor="middle" x="609.5" y="-80" font-family="Helvetica,sans-Serif" font-size="10.00">src/model/files/BlockIndex.cpp</text>
</a>
</g>
</g>
<!-- Node1&#45;&gt;Node7 -->
<g id="edge6" class="edge">
<title>Node1&#45;&gt;Node7</title>
<path fill="none" stroke="midnightblue" d="M473.55,-131.08C506.59,-119.52 555.92,-102.25 585.19,-92.01"/>
<polygon fill="midnightblue" stroke="midnightblue" points="472.14,-127.87 463.86,-134.48 474.45,-134.48 472.14,-127.87"/>
</g>
<!-- Node8 -->
<g id="node8" class="node">
<title>Node8</title>
<g id="a_node8"><a xlink:href="_write_transactions_to_block_task_8h.html" target="_top" xlink:title=" ">
<polygon fill="white" stroke="black" points="702.5,-67.5 702.5,-97.5 836.5,-97.5 836.5,-67.5 702.5,-67.5"/>
<text text-anchor="start" x="710.5" y="-85.5" font-family="Helvetica,sans-Serif" font-size="10.00">src/task/WriteTransactions</text>
<text text-anchor="middle" x="769.5" y="-74.5" font-family="Helvetica,sans-Serif" font-size="10.00">ToBlockTask.h</text>
</a>
</g>
</g>
<!-- Node1&#45;&gt;Node8 -->
<g id="edge7" class="edge">
<title>Node1&#45;&gt;Node8</title>
<path fill="none" stroke="midnightblue" d="M498.66,-132.75C550.16,-123.77 626.81,-110.27 693.5,-98 696.41,-97.47 699.37,-96.92 702.37,-96.36"/>
<polygon fill="midnightblue" stroke="midnightblue" points="497.95,-129.32 488.7,-134.48 499.15,-136.21 497.95,-129.32"/>
</g>
<!-- Node3 -->
<g id="node3" class="node">
<title>Node3</title>
<g id="a_node3"><a xlink:href="controller_2_block_8cpp.html" target="_top" xlink:title=" ">
<polygon fill="white" stroke="black" points="0,-6 0,-25 119,-25 119,-6 0,-6"/>
<text text-anchor="middle" x="59.5" y="-13" font-family="Helvetica,sans-Serif" font-size="10.00">src/controller/Block.cpp</text>
</a>
</g>
</g>
<!-- Node2&#45;&gt;Node3 -->
<g id="edge2" class="edge">
<title>Node2&#45;&gt;Node3</title>
<path fill="none" stroke="midnightblue" d="M111.89,-65.86C98.33,-53.08 79.66,-35.49 68.66,-25.13"/>
<polygon fill="midnightblue" stroke="midnightblue" points="109.52,-68.42 119.19,-72.73 114.32,-63.33 109.52,-68.42"/>
</g>
<!-- Node4 -->
<g id="node4" class="node">
<title>Node4</title>
<g id="a_node4"><a xlink:href="_group_8cpp.html" target="_top" xlink:title=" ">
<polygon fill="white" stroke="black" points="137,-6 137,-25 258,-25 258,-6 137,-6"/>
<text text-anchor="middle" x="197.5" y="-13" font-family="Helvetica,sans-Serif" font-size="10.00">src/controller/Group.cpp</text>
</a>
</g>
</g>
<!-- Node2&#45;&gt;Node4 -->
<g id="edge3" class="edge">
<title>Node2&#45;&gt;Node4</title>
<path fill="none" stroke="midnightblue" d="M145.11,-65.86C158.67,-53.08 177.34,-35.49 188.34,-25.13"/>
<polygon fill="midnightblue" stroke="midnightblue" points="142.68,-63.33 137.81,-72.73 147.48,-68.42 142.68,-63.33"/>
</g>
<!-- Node9 -->
<g id="node9" class="node">
<title>Node9</title>
<g id="a_node9"><a xlink:href="_task_observer_8cpp.html" target="_top" xlink:title=" ">
<polygon fill="white" stroke="black" points="611.5,-6 611.5,-25 765.5,-25 765.5,-6 611.5,-6"/>
<text text-anchor="middle" x="688.5" y="-13" font-family="Helvetica,sans-Serif" font-size="10.00">src/controller/TaskObserver.cpp</text>
</a>
</g>
</g>
<!-- Node8&#45;&gt;Node9 -->
<g id="edge8" class="edge">
<title>Node8&#45;&gt;Node9</title>
<path fill="none" stroke="midnightblue" d="M743.96,-61.01C728.93,-48.94 710.69,-34.3 699.33,-25.19"/>
<polygon fill="midnightblue" stroke="midnightblue" points="741.93,-63.87 751.92,-67.4 746.32,-58.41 741.93,-63.87"/>
</g>
<!-- Node10 -->
<g id="node10" class="node">
<title>Node10</title>
<g id="a_node10"><a xlink:href="_write_transactions_to_block_task_8cpp.html" target="_top" xlink:title=" ">
<polygon fill="white" stroke="black" points="783.5,-0.5 783.5,-30.5 917.5,-30.5 917.5,-0.5 783.5,-0.5"/>
<text text-anchor="start" x="791.5" y="-18.5" font-family="Helvetica,sans-Serif" font-size="10.00">src/task/WriteTransactions</text>
<text text-anchor="middle" x="850.5" y="-7.5" font-family="Helvetica,sans-Serif" font-size="10.00">ToBlockTask.cpp</text>
</a>
</g>
</g>
<!-- Node8&#45;&gt;Node10 -->
<g id="edge9" class="edge">
<title>Node8&#45;&gt;Node10</title>
<path fill="none" stroke="midnightblue" d="M795.19,-60.88C807.5,-51.01 821.93,-39.43 832.96,-30.58"/>
<polygon fill="midnightblue" stroke="midnightblue" points="792.68,-58.41 787.08,-67.4 797.07,-63.87 792.68,-58.41"/>
</g>
</g>
</svg>
