<?xml version="1.0" encoding="UTF-8" standalone="no"?>
<!DOCTYPE svg PUBLIC "-//W3C//DTD SVG 1.1//EN"
 "http://www.w3.org/Graphics/SVG/1.1/DTD/svg11.dtd">
<!-- Generated by graphviz version 2.50.0 (20211204.2007)
 -->
<!-- Title: src/lib/VirtualFile.cpp Pages: 1 -->
<svg width="584pt" height="162pt"
 viewBox="0.00 0.00 583.50 162.00" xmlns="http://www.w3.org/2000/svg" xmlns:xlink="http://www.w3.org/1999/xlink">
<g id="graph0" class="graph" transform="scale(1 1) rotate(0) translate(4 158)">
<title>src/lib/VirtualFile.cpp</title>
<polygon fill="white" stroke="transparent" points="-4,4 -4,-158 579.5,-158 579.5,4 -4,4"/>
<!-- Node1 -->
<g id="node1" class="node">
<title>Node1</title>
<g id="a_node1"><a xlink:title=" ">
<polygon fill="#bfbfbf" stroke="black" points="228.5,-134.5 228.5,-153.5 336.5,-153.5 336.5,-134.5 228.5,-134.5"/>
<text text-anchor="middle" x="282.5" y="-141.5" font-family="Helvetica,sans-Serif" font-size="10.00">src/lib/VirtualFile.cpp</text>
</a>
</g>
</g>
<!-- Node2 -->
<g id="node2" class="node">
<title>Node2</title>
<g id="a_node2"><a xlink:href="_virtual_file_8h.html" target="_top" xlink:title=" ">
<polygon fill="white" stroke="black" points="63.5,-73 63.5,-92 131.5,-92 131.5,-73 63.5,-73"/>
<text text-anchor="middle" x="97.5" y="-80" font-family="Helvetica,sans-Serif" font-size="10.00">VirtualFile.h</text>
</a>
</g>
</g>
<!-- Node1&#45;&gt;Node2 -->
<g id="edge1" class="edge">
<title>Node1&#45;&gt;Node2</title>
<path fill="none" stroke="midnightblue" d="M254.96,-134.44C226.32,-125.49 180.2,-110.98 140.5,-98 137.76,-97.1 134.93,-96.17 132.08,-95.22"/>
<polygon fill="midnightblue" stroke="midnightblue" points="133.08,-91.87 122.49,-92.01 130.86,-98.5 133.08,-91.87"/>
</g>
<!-- Node5 -->
<g id="node5" class="node">
<title>Node5</title>
<g id="a_node5"><a xlink:title=" ">
<polygon fill="white" stroke="#bfbfbf" points="149.5,-73 149.5,-92 215.5,-92 215.5,-73 149.5,-73"/>
<text text-anchor="middle" x="182.5" y="-80" font-family="Helvetica,sans-Serif" font-size="10.00">Poco/File.h</text>
</a>
</g>
</g>
<!-- Node1&#45;&gt;Node5 -->
<g id="edge4" class="edge">
<title>Node1&#45;&gt;Node5</title>
<path fill="none" stroke="midnightblue" d="M268.17,-134.48C251.84,-124.75 224.9,-108.73 205.59,-97.24"/>
<polygon fill="midnightblue" stroke="midnightblue" points="207.18,-94.11 196.8,-92.01 203.61,-100.13 207.18,-94.11"/>
</g>
<!-- Node6 -->
<g id="node6" class="node">
<title>Node6</title>
<g id="a_node6"><a xlink:title=" ">
<polygon fill="white" stroke="#bfbfbf" points="233.5,-73 233.5,-92 331.5,-92 331.5,-73 233.5,-73"/>
<text text-anchor="middle" x="282.5" y="-80" font-family="Helvetica,sans-Serif" font-size="10.00">Poco/FileStream.h</text>
</a>
</g>
</g>
<!-- Node1&#45;&gt;Node6 -->
<g id="edge5" class="edge">
<title>Node1&#45;&gt;Node6</title>
<path fill="none" stroke="midnightblue" d="M282.5,-134.48C282.5,-126.08 282.5,-112.98 282.5,-102.16"/>
<polygon fill="midnightblue" stroke="midnightblue" points="286,-102.01 282.5,-92.01 279,-102.01 286,-102.01"/>
</g>
<!-- Node7 -->
<g id="node7" class="node">
<title>Node7</title>
<g id="a_node7"><a xlink:href="_file_lock_manager_8h.html" target="_top" xlink:title=" ">
<polygon fill="white" stroke="black" points="349.5,-67.5 349.5,-97.5 453.5,-97.5 453.5,-67.5 349.5,-67.5"/>
<text text-anchor="start" x="357.5" y="-85.5" font-family="Helvetica,sans-Serif" font-size="10.00">../SingletonManager</text>
<text text-anchor="middle" x="401.5" y="-74.5" font-family="Helvetica,sans-Serif" font-size="10.00">/FileLockManager.h</text>
</a>
</g>
</g>
<!-- Node1&#45;&gt;Node7 -->
<g id="edge6" class="edge">
<title>Node1&#45;&gt;Node7</title>
<path fill="none" stroke="midnightblue" d="M299.55,-134.48C316.42,-126.04 342.79,-112.86 364.48,-102.01"/>
<polygon fill="midnightblue" stroke="midnightblue" points="366.08,-105.13 373.45,-97.52 362.94,-98.86 366.08,-105.13"/>
</g>
<!-- Node10 -->
<g id="node10" class="node">
<title>Node10</title>
<g id="a_node10"><a xlink:href="_logger_manager_8h.html" target="_top" xlink:title=" ">
<polygon fill="white" stroke="black" points="471.5,-67.5 471.5,-97.5 575.5,-97.5 575.5,-67.5 471.5,-67.5"/>
<text text-anchor="start" x="479.5" y="-85.5" font-family="Helvetica,sans-Serif" font-size="10.00">../SingletonManager</text>
<text text-anchor="middle" x="523.5" y="-74.5" font-family="Helvetica,sans-Serif" font-size="10.00">/LoggerManager.h</text>
</a>
</g>
</g>
<!-- Node1&#45;&gt;Node10 -->
<g id="edge9" class="edge">
<title>Node1&#45;&gt;Node10</title>
<path fill="none" stroke="midnightblue" d="M317.03,-134.48C354.62,-125.19 415.5,-110.16 461.43,-98.82"/>
<polygon fill="midnightblue" stroke="midnightblue" points="462.42,-102.19 471.29,-96.39 460.74,-95.39 462.42,-102.19"/>
</g>
<!-- Node3 -->
<g id="node3" class="node">
<title>Node3</title>
<g id="a_node3"><a xlink:title=" ">
<polygon fill="white" stroke="#bfbfbf" points="0,-0.5 0,-30.5 101,-30.5 101,-0.5 0,-0.5"/>
<text text-anchor="start" x="8" y="-18.5" font-family="Helvetica,sans-Serif" font-size="10.00">gradido_blockchain</text>
<text text-anchor="middle" x="50.5" y="-7.5" font-family="Helvetica,sans-Serif" font-size="10.00">/MemoryManager.h</text>
</a>
</g>
</g>
<!-- Node2&#45;&gt;Node3 -->
<g id="edge2" class="edge">
<title>Node2&#45;&gt;Node3</title>
<path fill="none" stroke="midnightblue" d="M91.16,-72.73C84.93,-64.12 75.16,-50.61 66.76,-38.99"/>
<polygon fill="midnightblue" stroke="midnightblue" points="69.38,-36.64 60.69,-30.59 63.71,-40.74 69.38,-36.64"/>
</g>
<!-- Node4 -->
<g id="node4" class="node">
<title>Node4</title>
<g id="a_node4"><a xlink:title=" ">
<polygon fill="white" stroke="#bfbfbf" points="119.5,-6 119.5,-25 171.5,-25 171.5,-6 119.5,-6"/>
<text text-anchor="middle" x="145.5" y="-13" font-family="Helvetica,sans-Serif" font-size="10.00">assert.h</text>
</a>
</g>
</g>
<!-- Node2&#45;&gt;Node4 -->
<g id="edge3" class="edge">
<title>Node2&#45;&gt;Node4</title>
<path fill="none" stroke="midnightblue" d="M103.97,-72.73C111.39,-62.7 123.7,-46.01 133,-33.42"/>
<polygon fill="midnightblue" stroke="midnightblue" points="136,-35.25 139.13,-25.13 130.37,-31.09 136,-35.25"/>
</g>
<!-- Node8 -->
<g id="node8" class="node">
<title>Node8</title>
<g id="a_node8"><a xlink:title=" ">
<polygon fill="white" stroke="#bfbfbf" points="274,-6 274,-25 357,-25 357,-6 274,-6"/>
<text text-anchor="middle" x="315.5" y="-13" font-family="Helvetica,sans-Serif" font-size="10.00">unordered_map</text>
</a>
</g>
</g>
<!-- Node7&#45;&gt;Node8 -->
<g id="edge7" class="edge">
<title>Node7&#45;&gt;Node8</title>
<path fill="none" stroke="midnightblue" d="M382.84,-67.4C368.77,-56.76 349.51,-42.2 335.19,-31.38"/>
<polygon fill="midnightblue" stroke="midnightblue" points="337.09,-28.43 327,-25.19 332.87,-34.02 337.09,-28.43"/>
</g>
<!-- Node9 -->
<g id="node9" class="node">
<title>Node9</title>
<g id="a_node9"><a xlink:title=" ">
<polygon fill="white" stroke="#bfbfbf" points="375,-6 375,-25 452,-25 452,-6 375,-6"/>
<text text-anchor="middle" x="413.5" y="-13" font-family="Helvetica,sans-Serif" font-size="10.00">Poco/Mutex.h</text>
</a>
</g>
</g>
<!-- Node7&#45;&gt;Node9 -->
<g id="edge8" class="edge">
<title>Node7&#45;&gt;Node9</title>
<path fill="none" stroke="midnightblue" d="M404.1,-67.4C405.85,-57.96 408.16,-45.45 410.05,-35.19"/>
<polygon fill="midnightblue" stroke="midnightblue" points="413.52,-35.66 411.89,-25.19 406.64,-34.39 413.52,-35.66"/>
</g>
<!-- Node11 -->
<g id="node11" class="node">
<title>Node11</title>
<g id="a_node11"><a xlink:title=" ">
<polygon fill="white" stroke="#bfbfbf" points="483.5,-6 483.5,-25 563.5,-25 563.5,-6 483.5,-6"/>
<text text-anchor="middle" x="523.5" y="-13" font-family="Helvetica,sans-Serif" font-size="10.00">Poco/Logger.h</text>
</a>
</g>
</g>
<!-- Node10&#45;&gt;Node11 -->
<g id="edge10" class="edge">
<title>Node10&#45;&gt;Node11</title>
<path fill="none" stroke="midnightblue" d="M523.5,-67.4C523.5,-58.06 523.5,-45.71 523.5,-35.52"/>
<polygon fill="midnightblue" stroke="midnightblue" points="527,-35.19 523.5,-25.19 520,-35.19 527,-35.19"/>
</g>
</g>
</svg>
