<?xml version="1.0" encoding="UTF-8" standalone="no"?>
<!DOCTYPE svg PUBLIC "-//W3C//DTD SVG 1.1//EN"
 "http://www.w3.org/Graphics/SVG/1.1/DTD/svg11.dtd">
<!-- Generated by graphviz version 2.50.0 (20211204.2007)
 -->
<!-- Title: src/lib/VirtualFile.h Pages: 1 -->
<svg width="1431pt" height="397pt"
 viewBox="0.00 0.00 1431.00 397.00" xmlns="http://www.w3.org/2000/svg" xmlns:xlink="http://www.w3.org/1999/xlink">
<g id="graph0" class="graph" transform="scale(1 1) rotate(0) translate(4 393)">
<title>src/lib/VirtualFile.h</title>
<polygon fill="white" stroke="transparent" points="-4,4 -4,-393 1427,-393 1427,4 -4,4"/>
<!-- Node1 -->
<g id="node1" class="node">
<title>Node1</title>
<g id="a_node1"><a xlink:title=" ">
<polygon fill="#bfbfbf" stroke="black" points="1094.5,-369.5 1094.5,-388.5 1192.5,-388.5 1192.5,-369.5 1094.5,-369.5"/>
<text text-anchor="middle" x="1143.5" y="-376.5" font-family="Helvetica,sans-Serif" font-size="10.00">src/lib/VirtualFile.h</text>
</a>
</g>
</g>
<!-- Node2 -->
<g id="node2" class="node">
<title>Node2</title>
<g id="a_node2"><a xlink:href="_virtual_file_8cpp.html" target="_top" xlink:title=" ">
<polygon fill="white" stroke="black" points="1018.5,-313.5 1018.5,-332.5 1126.5,-332.5 1126.5,-313.5 1018.5,-313.5"/>
<text text-anchor="middle" x="1072.5" y="-320.5" font-family="Helvetica,sans-Serif" font-size="10.00">src/lib/VirtualFile.cpp</text>
</a>
</g>
</g>
<!-- Node1&#45;&gt;Node2 -->
<g id="edge1" class="edge">
<title>Node1&#45;&gt;Node2</title>
<path fill="none" stroke="midnightblue" d="M1123.91,-363.1C1111.13,-353.38 1094.89,-341.03 1084.11,-332.83"/>
<polygon fill="midnightblue" stroke="midnightblue" points="1122.01,-366.06 1132.09,-369.32 1126.25,-360.48 1122.01,-366.06"/>
</g>
<!-- Node3 -->
<g id="node3" class="node">
<title>Node3</title>
<g id="a_node3"><a xlink:href="model_2files_2_block_index_8h.html" target="_top" xlink:title=" ">
<polygon fill="white" stroke="black" points="1145,-313.5 1145,-332.5 1284,-332.5 1284,-313.5 1145,-313.5"/>
<text text-anchor="middle" x="1214.5" y="-320.5" font-family="Helvetica,sans-Serif" font-size="10.00">src/model/files/BlockIndex.h</text>
</a>
</g>
</g>
<!-- Node1&#45;&gt;Node3 -->
<g id="edge2" class="edge">
<title>Node1&#45;&gt;Node3</title>
<path fill="none" stroke="midnightblue" d="M1163.09,-363.1C1175.87,-353.38 1192.11,-341.03 1202.89,-332.83"/>
<polygon fill="midnightblue" stroke="midnightblue" points="1160.75,-360.48 1154.91,-369.32 1164.99,-366.06 1160.75,-360.48"/>
</g>
<!-- Node4 -->
<g id="node4" class="node">
<title>Node4</title>
<g id="a_node4"><a xlink:href="controller_2_block_index_8h.html" target="_top" xlink:title=" ">
<polygon fill="white" stroke="black" points="1056.5,-257.5 1056.5,-276.5 1188.5,-276.5 1188.5,-257.5 1056.5,-257.5"/>
<text text-anchor="middle" x="1122.5" y="-264.5" font-family="Helvetica,sans-Serif" font-size="10.00">src/controller/BlockIndex.h</text>
</a>
</g>
</g>
<!-- Node3&#45;&gt;Node4 -->
<g id="edge3" class="edge">
<title>Node3&#45;&gt;Node4</title>
<path fill="none" stroke="midnightblue" d="M1190.95,-308.18C1174.02,-298.24 1151.72,-285.15 1137.24,-276.65"/>
<polygon fill="midnightblue" stroke="midnightblue" points="1189.32,-311.28 1199.72,-313.32 1192.87,-305.24 1189.32,-311.28"/>
</g>
<!-- Node18 -->
<g id="node18" class="node">
<title>Node18</title>
<g id="a_node18"><a xlink:href="model_2files_2_block_index_8cpp.html" target="_top" xlink:title=" ">
<polygon fill="white" stroke="black" points="1274,-73 1274,-92 1423,-92 1423,-73 1274,-73"/>
<text text-anchor="middle" x="1348.5" y="-80" font-family="Helvetica,sans-Serif" font-size="10.00">src/model/files/BlockIndex.cpp</text>
</a>
</g>
</g>
<!-- Node3&#45;&gt;Node18 -->
<g id="edge27" class="edge">
<title>Node3&#45;&gt;Node18</title>
<path fill="none" stroke="midnightblue" d="M1224.4,-304.38C1251.15,-256.77 1324.18,-126.78 1343.67,-92.1"/>
<polygon fill="midnightblue" stroke="midnightblue" points="1221.28,-302.8 1219.43,-313.23 1227.38,-306.23 1221.28,-302.8"/>
</g>
<!-- Node5 -->
<g id="node5" class="node">
<title>Node5</title>
<g id="a_node5"><a xlink:href="controller_2_block_8h.html" target="_top" xlink:title=" ">
<polygon fill="white" stroke="black" points="660,-73 660,-92 769,-92 769,-73 660,-73"/>
<text text-anchor="middle" x="714.5" y="-80" font-family="Helvetica,sans-Serif" font-size="10.00">src/controller/Block.h</text>
</a>
</g>
</g>
<!-- Node4&#45;&gt;Node5 -->
<g id="edge4" class="edge">
<title>Node4&#45;&gt;Node5</title>
<path fill="none" stroke="midnightblue" d="M1076.52,-254.88C1046.17,-246.92 1005.82,-235.12 971.5,-221 874.4,-181.04 765.86,-115.52 728.22,-92.13"/>
<polygon fill="midnightblue" stroke="midnightblue" points="1075.85,-258.32 1086.41,-257.43 1077.6,-251.54 1075.85,-258.32"/>
</g>
<!-- Node8 -->
<g id="node8" class="node">
<title>Node8</title>
<g id="a_node8"><a xlink:href="controller_2_block_index_8cpp.html" target="_top" xlink:title=" ">
<polygon fill="white" stroke="black" points="1113,-73 1113,-92 1256,-92 1256,-73 1113,-73"/>
<text text-anchor="middle" x="1184.5" y="-80" font-family="Helvetica,sans-Serif" font-size="10.00">src/controller/BlockIndex.cpp</text>
</a>
</g>
</g>
<!-- Node4&#45;&gt;Node8 -->
<g id="edge7" class="edge">
<title>Node4&#45;&gt;Node8</title>
<path fill="none" stroke="midnightblue" d="M1128.71,-247.72C1141.84,-209.07 1171.99,-120.33 1181.54,-92.21"/>
<polygon fill="midnightblue" stroke="midnightblue" points="1125.39,-246.6 1125.49,-257.2 1132.02,-248.85 1125.39,-246.6"/>
</g>
<!-- Node9 -->
<g id="node9" class="node">
<title>Node9</title>
<g id="a_node9"><a xlink:href="_group_8h.html" target="_top" xlink:title=" ">
<polygon fill="white" stroke="black" points="544.5,-201.5 544.5,-220.5 654.5,-220.5 654.5,-201.5 544.5,-201.5"/>
<text text-anchor="middle" x="599.5" y="-208.5" font-family="Helvetica,sans-Serif" font-size="10.00">src/controller/Group.h</text>
</a>
</g>
</g>
<!-- Node4&#45;&gt;Node9 -->
<g id="edge8" class="edge">
<title>Node4&#45;&gt;Node9</title>
<path fill="none" stroke="midnightblue" d="M1046.22,-258.12C939.67,-247.12 748.83,-227.42 654.86,-217.72"/>
<polygon fill="midnightblue" stroke="midnightblue" points="1045.96,-261.62 1056.26,-259.16 1046.67,-254.65 1045.96,-261.62"/>
</g>
<!-- Node4&#45;&gt;Node18 -->
<g id="edge25" class="edge">
<title>Node4&#45;&gt;Node18</title>
<path fill="none" stroke="midnightblue" d="M1140.95,-251.1C1186.34,-214.45 1302.3,-120.81 1337.93,-92.04"/>
<polygon fill="midnightblue" stroke="midnightblue" points="1138.68,-248.44 1133.1,-257.44 1143.08,-253.88 1138.68,-248.44"/>
</g>
<!-- Node19 -->
<g id="node19" class="node">
<title>Node19</title>
<g id="a_node19"><a xlink:href="_write_transactions_to_block_task_8h.html" target="_top" xlink:title=" ">
<polygon fill="white" stroke="black" points="787.5,-67.5 787.5,-97.5 921.5,-97.5 921.5,-67.5 787.5,-67.5"/>
<text text-anchor="start" x="795.5" y="-85.5" font-family="Helvetica,sans-Serif" font-size="10.00">src/task/WriteTransactions</text>
<text text-anchor="middle" x="854.5" y="-74.5" font-family="Helvetica,sans-Serif" font-size="10.00">ToBlockTask.h</text>
</a>
</g>
</g>
<!-- Node4&#45;&gt;Node19 -->
<g id="edge26" class="edge">
<title>Node4&#45;&gt;Node19</title>
<path fill="none" stroke="midnightblue" d="M1087.97,-253.95C1045.57,-238.05 972.85,-207.06 920.5,-165 896.09,-145.38 874.69,-115.34 863.27,-97.73"/>
<polygon fill="midnightblue" stroke="midnightblue" points="1086.96,-257.31 1097.55,-257.49 1089.38,-250.75 1086.96,-257.31"/>
</g>
<!-- Node6 -->
<g id="node6" class="node">
<title>Node6</title>
<g id="a_node6"><a xlink:href="controller_2_block_8cpp.html" target="_top" xlink:title=" ">
<polygon fill="white" stroke="black" points="640,-6 640,-25 759,-25 759,-6 640,-6"/>
<text text-anchor="middle" x="699.5" y="-13" font-family="Helvetica,sans-Serif" font-size="10.00">src/controller/Block.cpp</text>
</a>
</g>
</g>
<!-- Node5&#45;&gt;Node6 -->
<g id="edge5" class="edge">
<title>Node5&#45;&gt;Node6</title>
<path fill="none" stroke="midnightblue" d="M710.21,-62.91C707.34,-50.49 703.7,-34.72 701.49,-25.13"/>
<polygon fill="midnightblue" stroke="midnightblue" points="706.82,-63.78 712.48,-72.73 713.64,-62.2 706.82,-63.78"/>
</g>
<!-- Node7 -->
<g id="node7" class="node">
<title>Node7</title>
<g id="a_node7"><a xlink:href="_group_8cpp.html" target="_top" xlink:title=" ">
<polygon fill="white" stroke="black" points="0,-6 0,-25 121,-25 121,-6 0,-6"/>
<text text-anchor="middle" x="60.5" y="-13" font-family="Helvetica,sans-Serif" font-size="10.00">src/controller/Group.cpp</text>
</a>
</g>
</g>
<!-- Node5&#45;&gt;Node7 -->
<g id="edge6" class="edge">
<title>Node5&#45;&gt;Node7</title>
<path fill="none" stroke="midnightblue" d="M670.97,-70.8C664.15,-69.36 657.16,-68.03 650.5,-67 458.5,-37.18 228.42,-23.86 121.13,-18.94"/>
<polygon fill="midnightblue" stroke="midnightblue" points="670.27,-74.23 680.79,-72.95 671.77,-67.39 670.27,-74.23"/>
</g>
<!-- Node9&#45;&gt;Node7 -->
<g id="edge16" class="edge">
<title>Node9&#45;&gt;Node7</title>
<path fill="none" stroke="midnightblue" d="M533.85,-206.58C403.05,-198.22 117.45,-171.76 59.5,-98 42.72,-76.64 51.67,-41.47 57.2,-25.23"/>
<polygon fill="midnightblue" stroke="midnightblue" points="533.94,-210.09 544.13,-207.22 534.37,-203.1 533.94,-210.09"/>
</g>
<!-- Node10 -->
<g id="node10" class="node">
<title>Node10</title>
<g id="a_node10"><a xlink:href="_group_manager_8h.html" target="_top" xlink:title=" ">
<polygon fill="white" stroke="black" points="344,-134.5 344,-164.5 455,-164.5 455,-134.5 344,-134.5"/>
<text text-anchor="start" x="352" y="-152.5" font-family="Helvetica,sans-Serif" font-size="10.00">src/SingletonManager</text>
<text text-anchor="middle" x="399.5" y="-141.5" font-family="Helvetica,sans-Serif" font-size="10.00">/GroupManager.h</text>
</a>
</g>
</g>
<!-- Node9&#45;&gt;Node10 -->
<g id="edge9" class="edge">
<title>Node9&#45;&gt;Node10</title>
<path fill="none" stroke="midnightblue" d="M561.21,-198.61C528.59,-188.9 481.57,-174.92 446.64,-164.52"/>
<polygon fill="midnightblue" stroke="midnightblue" points="560.26,-201.98 570.84,-201.48 562.26,-195.27 560.26,-201.98"/>
</g>
<!-- Node15 -->
<g id="node15" class="node">
<title>Node15</title>
<g id="a_node15"><a xlink:href="_ordering_manager_8cpp.html" target="_top" xlink:title=" ">
<polygon fill="white" stroke="black" points="543,-134.5 543,-164.5 656,-164.5 656,-134.5 543,-134.5"/>
<text text-anchor="start" x="551" y="-152.5" font-family="Helvetica,sans-Serif" font-size="10.00">src/SingletonManager</text>
<text text-anchor="middle" x="599.5" y="-141.5" font-family="Helvetica,sans-Serif" font-size="10.00">/OrderingManager.cpp</text>
</a>
</g>
</g>
<!-- Node9&#45;&gt;Node15 -->
<g id="edge15" class="edge">
<title>Node9&#45;&gt;Node15</title>
<path fill="none" stroke="midnightblue" d="M599.5,-191.23C599.5,-182.59 599.5,-172.5 599.5,-164.52"/>
<polygon fill="midnightblue" stroke="midnightblue" points="596,-191.48 599.5,-201.48 603,-191.48 596,-191.48"/>
</g>
<!-- Node16 -->
<g id="node16" class="node">
<title>Node16</title>
<g id="a_node16"><a xlink:href="_transaction_entry_8h.html" target="_top" xlink:title=" ">
<polygon fill="white" stroke="black" points="929.5,-140 929.5,-159 1073.5,-159 1073.5,-140 929.5,-140"/>
<text text-anchor="middle" x="1001.5" y="-147" font-family="Helvetica,sans-Serif" font-size="10.00">src/model/TransactionEntry.h</text>
</a>
</g>
</g>
<!-- Node9&#45;&gt;Node16 -->
<g id="edge17" class="edge">
<title>Node9&#45;&gt;Node16</title>
<path fill="none" stroke="midnightblue" d="M664.66,-200.36C742.05,-188.9 869.94,-169.97 943.86,-159.03"/>
<polygon fill="midnightblue" stroke="midnightblue" points="663.93,-196.93 654.55,-201.85 664.96,-203.85 663.93,-196.93"/>
</g>
<!-- Node10&#45;&gt;Node7 -->
<g id="edge13" class="edge">
<title>Node10&#45;&gt;Node7</title>
<path fill="none" stroke="midnightblue" d="M333.74,-146.56C251.02,-142.74 115.43,-131.41 79.5,-98 58.86,-78.81 58.59,-41.9 59.67,-25.15"/>
<polygon fill="midnightblue" stroke="midnightblue" points="333.66,-150.06 343.8,-147 333.97,-143.07 333.66,-150.06"/>
</g>
<!-- Node11 -->
<g id="node11" class="node">
<title>Node11</title>
<g id="a_node11"><a xlink:href="_json_r_p_c_handler_8cpp.html" target="_top" xlink:title=" ">
<polygon fill="white" stroke="black" points="278.5,-67.5 278.5,-97.5 394.5,-97.5 394.5,-67.5 278.5,-67.5"/>
<text text-anchor="start" x="286.5" y="-85.5" font-family="Helvetica,sans-Serif" font-size="10.00">src/JSONRPCInterface</text>
<text text-anchor="middle" x="336.5" y="-74.5" font-family="Helvetica,sans-Serif" font-size="10.00">/JsonRPCHandler.cpp</text>
</a>
</g>
</g>
<!-- Node10&#45;&gt;Node11 -->
<g id="edge10" class="edge">
<title>Node10&#45;&gt;Node11</title>
<path fill="none" stroke="midnightblue" d="M378.69,-127.02C369.3,-117.34 358.48,-106.17 350.14,-97.58"/>
<polygon fill="midnightblue" stroke="midnightblue" points="376.36,-129.65 385.83,-134.4 381.38,-124.78 376.36,-129.65"/>
</g>
<!-- Node12 -->
<g id="node12" class="node">
<title>Node12</title>
<g id="a_node12"><a xlink:href="_main_server_8cpp.html" target="_top" xlink:title=" ">
<polygon fill="white" stroke="black" points="412.5,-73 412.5,-92 512.5,-92 512.5,-73 412.5,-73"/>
<text text-anchor="middle" x="462.5" y="-80" font-family="Helvetica,sans-Serif" font-size="10.00">src/MainServer.cpp</text>
</a>
</g>
</g>
<!-- Node10&#45;&gt;Node12 -->
<g id="edge11" class="edge">
<title>Node10&#45;&gt;Node12</title>
<path fill="none" stroke="midnightblue" d="M420.34,-127C431.84,-115.13 445.49,-101.05 454.07,-92.19"/>
<polygon fill="midnightblue" stroke="midnightblue" points="417.62,-124.78 413.17,-134.4 422.64,-129.65 417.62,-124.78"/>
</g>
<!-- Node13 -->
<g id="node13" class="node">
<title>Node13</title>
<g id="a_node13"><a xlink:href="_group_manager_8cpp.html" target="_top" xlink:title=" ">
<polygon fill="white" stroke="black" points="531,-67.5 531,-97.5 642,-97.5 642,-67.5 531,-67.5"/>
<text text-anchor="start" x="539" y="-85.5" font-family="Helvetica,sans-Serif" font-size="10.00">src/SingletonManager</text>
<text text-anchor="middle" x="586.5" y="-74.5" font-family="Helvetica,sans-Serif" font-size="10.00">/GroupManager.cpp</text>
</a>
</g>
</g>
<!-- Node10&#45;&gt;Node13 -->
<g id="edge12" class="edge">
<title>Node10&#45;&gt;Node13</title>
<path fill="none" stroke="midnightblue" d="M449.58,-131.09C479.77,-120.6 517.72,-107.41 546,-97.58"/>
<polygon fill="midnightblue" stroke="midnightblue" points="448.37,-127.81 440.08,-134.4 450.67,-134.42 448.37,-127.81"/>
</g>
<!-- Node14 -->
<g id="node14" class="node">
<title>Node14</title>
<g id="a_node14"><a xlink:href="_iota_message_to_transaction_task_8cpp.html" target="_top" xlink:title=" ">
<polygon fill="white" stroke="black" points="89,-67.5 89,-97.5 260,-97.5 260,-67.5 89,-67.5"/>
<text text-anchor="start" x="97" y="-85.5" font-family="Helvetica,sans-Serif" font-size="10.00">src/task/IotaMessageToTransaction</text>
<text text-anchor="middle" x="174.5" y="-74.5" font-family="Helvetica,sans-Serif" font-size="10.00">Task.cpp</text>
</a>
</g>
</g>
<!-- Node10&#45;&gt;Node14 -->
<g id="edge14" class="edge">
<title>Node10&#45;&gt;Node14</title>
<path fill="none" stroke="midnightblue" d="M340.93,-131.58C304.39,-121.02 257.9,-107.59 223.35,-97.61"/>
<polygon fill="midnightblue" stroke="midnightblue" points="340.38,-135.06 350.96,-134.48 342.32,-128.34 340.38,-135.06"/>
</g>
<!-- Node16&#45;&gt;Node5 -->
<g id="edge18" class="edge">
<title>Node16&#45;&gt;Node5</title>
<path fill="none" stroke="midnightblue" d="M953.92,-137.72C897.4,-124.92 804.28,-103.83 752.4,-92.08"/>
<polygon fill="midnightblue" stroke="midnightblue" points="953.16,-141.14 963.68,-139.94 954.7,-134.31 953.16,-141.14"/>
</g>
<!-- Node16&#45;&gt;Node8 -->
<g id="edge19" class="edge">
<title>Node16&#45;&gt;Node8</title>
<path fill="none" stroke="midnightblue" d="M1035.46,-136.44C1071.77,-123.54 1128.41,-103.42 1160.39,-92.06"/>
<polygon fill="midnightblue" stroke="midnightblue" points="1034.05,-133.22 1025.8,-139.87 1036.4,-139.82 1034.05,-133.22"/>
</g>
<!-- Node17 -->
<g id="node17" class="node">
<title>Node17</title>
<g id="a_node17"><a xlink:href="_transaction_entry_8cpp.html" target="_top" xlink:title=" ">
<polygon fill="white" stroke="black" points="940,-73 940,-92 1095,-92 1095,-73 940,-73"/>
<text text-anchor="middle" x="1017.5" y="-80" font-family="Helvetica,sans-Serif" font-size="10.00">src/model/TransactionEntry.cpp</text>
</a>
</g>
</g>
<!-- Node16&#45;&gt;Node17 -->
<g id="edge20" class="edge">
<title>Node16&#45;&gt;Node17</title>
<path fill="none" stroke="midnightblue" d="M1006.07,-129.91C1009.13,-117.49 1013.02,-101.72 1015.38,-92.13"/>
<polygon fill="midnightblue" stroke="midnightblue" points="1002.65,-129.19 1003.66,-139.73 1009.45,-130.86 1002.65,-129.19"/>
</g>
<!-- Node16&#45;&gt;Node18 -->
<g id="edge21" class="edge">
<title>Node16&#45;&gt;Node18</title>
<path fill="none" stroke="midnightblue" d="M1057.36,-138.04C1125.6,-125.25 1239.77,-103.87 1302.95,-92.03"/>
<polygon fill="midnightblue" stroke="midnightblue" points="1056.41,-134.65 1047.22,-139.94 1057.69,-141.53 1056.41,-134.65"/>
</g>
<!-- Node16&#45;&gt;Node19 -->
<g id="edge22" class="edge">
<title>Node16&#45;&gt;Node19</title>
<path fill="none" stroke="midnightblue" d="M972.7,-135.77C947.82,-124.77 911.92,-108.89 886.23,-97.53"/>
<polygon fill="midnightblue" stroke="midnightblue" points="971.42,-139.03 981.98,-139.87 974.25,-132.62 971.42,-139.03"/>
</g>
<!-- Node20 -->
<g id="node20" class="node">
<title>Node20</title>
<g id="a_node20"><a xlink:href="_task_observer_8cpp.html" target="_top" xlink:title=" ">
<polygon fill="white" stroke="black" points="777.5,-6 777.5,-25 931.5,-25 931.5,-6 777.5,-6"/>
<text text-anchor="middle" x="854.5" y="-13" font-family="Helvetica,sans-Serif" font-size="10.00">src/controller/TaskObserver.cpp</text>
</a>
</g>
</g>
<!-- Node19&#45;&gt;Node20 -->
<g id="edge23" class="edge">
<title>Node19&#45;&gt;Node20</title>
<path fill="none" stroke="midnightblue" d="M854.5,-57.25C854.5,-46.02 854.5,-33.38 854.5,-25.19"/>
<polygon fill="midnightblue" stroke="midnightblue" points="851,-57.4 854.5,-67.4 858,-57.4 851,-57.4"/>
</g>
<!-- Node21 -->
<g id="node21" class="node">
<title>Node21</title>
<g id="a_node21"><a xlink:href="_write_transactions_to_block_task_8cpp.html" target="_top" xlink:title=" ">
<polygon fill="white" stroke="black" points="949.5,-0.5 949.5,-30.5 1083.5,-30.5 1083.5,-0.5 949.5,-0.5"/>
<text text-anchor="start" x="957.5" y="-18.5" font-family="Helvetica,sans-Serif" font-size="10.00">src/task/WriteTransactions</text>
<text text-anchor="middle" x="1016.5" y="-7.5" font-family="Helvetica,sans-Serif" font-size="10.00">ToBlockTask.cpp</text>
</a>
</g>
</g>
<!-- Node19&#45;&gt;Node21 -->
<g id="edge24" class="edge">
<title>Node19&#45;&gt;Node21</title>
<path fill="none" stroke="midnightblue" d="M899.25,-63.54C925.17,-53.14 957.34,-40.24 981.42,-30.58"/>
<polygon fill="midnightblue" stroke="midnightblue" points="897.63,-60.42 889.65,-67.4 900.24,-66.92 897.63,-60.42"/>
</g>
</g>
</svg>
