<?xml version="1.0" encoding="UTF-8" standalone="no"?>
<!DOCTYPE svg PUBLIC "-//W3C//DTD SVG 1.1//EN"
 "http://www.w3.org/Graphics/SVG/1.1/DTD/svg11.dtd">
<!-- Generated by graphviz version 2.50.0 (20211204.2007)
 -->
<!-- Title: src/lib/VirtualFile.h Pages: 1 -->
<svg width="180pt" height="95pt"
 viewBox="0.00 0.00 179.50 95.00" xmlns="http://www.w3.org/2000/svg" xmlns:xlink="http://www.w3.org/1999/xlink">
<g id="graph0" class="graph" transform="scale(1 1) rotate(0) translate(4 91)">
<title>src/lib/VirtualFile.h</title>
<polygon fill="white" stroke="transparent" points="-4,4 -4,-91 175.5,-91 175.5,4 -4,4"/>
<!-- Node1 -->
<g id="node1" class="node">
<title>Node1</title>
<g id="a_node1"><a xlink:title=" ">
<polygon fill="#bfbfbf" stroke="black" points="48.5,-67.5 48.5,-86.5 146.5,-86.5 146.5,-67.5 48.5,-67.5"/>
<text text-anchor="middle" x="97.5" y="-74.5" font-family="Helvetica,sans-Serif" font-size="10.00">src/lib/VirtualFile.h</text>
</a>
</g>
</g>
<!-- Node2 -->
<g id="node2" class="node">
<title>Node2</title>
<g id="a_node2"><a xlink:title=" ">
<polygon fill="white" stroke="#bfbfbf" points="0,-0.5 0,-30.5 101,-30.5 101,-0.5 0,-0.5"/>
<text text-anchor="start" x="8" y="-18.5" font-family="Helvetica,sans-Serif" font-size="10.00">gradido_blockchain</text>
<text text-anchor="middle" x="50.5" y="-7.5" font-family="Helvetica,sans-Serif" font-size="10.00">/MemoryManager.h</text>
</a>
</g>
</g>
<!-- Node1&#45;&gt;Node2 -->
<g id="edge1" class="edge">
<title>Node1&#45;&gt;Node2</title>
<path fill="none" stroke="midnightblue" d="M90.77,-67.48C84.82,-59.94 75.88,-48.63 67.93,-38.57"/>
<polygon fill="midnightblue" stroke="midnightblue" points="70.52,-36.2 61.58,-30.52 65.03,-40.54 70.52,-36.2"/>
</g>
<!-- Node3 -->
<g id="node3" class="node">
<title>Node3</title>
<g id="a_node3"><a xlink:title=" ">
<polygon fill="white" stroke="#bfbfbf" points="119.5,-6 119.5,-25 171.5,-25 171.5,-6 119.5,-6"/>
<text text-anchor="middle" x="145.5" y="-13" font-family="Helvetica,sans-Serif" font-size="10.00">assert.h</text>
</a>
</g>
</g>
<!-- Node1&#45;&gt;Node3 -->
<g id="edge2" class="edge">
<title>Node1&#45;&gt;Node3</title>
<path fill="none" stroke="midnightblue" d="M104.38,-67.48C111.65,-58.46 123.3,-44.02 132.34,-32.81"/>
<polygon fill="midnightblue" stroke="midnightblue" points="135.08,-34.99 138.64,-25.01 129.63,-30.59 135.08,-34.99"/>
</g>
</g>
</svg>
