<?xml version="1.0" encoding="UTF-8" standalone="no"?>
<!DOCTYPE svg PUBLIC "-//W3C//DTD SVG 1.1//EN"
 "http://www.w3.org/Graphics/SVG/1.1/DTD/svg11.dtd">
<!-- Generated by graphviz version 2.50.0 (20211204.2007)
 -->
<!-- Title: src/task/WriteTransactionsToBlockTask.h Pages: 1 -->
<svg width="314pt" height="106pt"
 viewBox="0.00 0.00 314.00 106.00" xmlns="http://www.w3.org/2000/svg" xmlns:xlink="http://www.w3.org/1999/xlink">
<g id="graph0" class="graph" transform="scale(1 1) rotate(0) translate(4 102)">
<title>src/task/WriteTransactionsToBlockTask.h</title>
<polygon fill="white" stroke="transparent" points="-4,4 -4,-102 310,-102 310,4 -4,4"/>
<!-- Node1 -->
<g id="node1" class="node">
<title>Node1</title>
<g id="a_node1"><a xlink:title=" ">
<polygon fill="#bfbfbf" stroke="black" points="91,-67.5 91,-97.5 225,-97.5 225,-67.5 91,-67.5"/>
<text text-anchor="start" x="99" y="-85.5" font-family="Helvetica,sans-Serif" font-size="10.00">src/task/WriteTransactions</text>
<text text-anchor="middle" x="158" y="-74.5" font-family="Helvetica,sans-Serif" font-size="10.00">ToBlockTask.h</text>
</a>
</g>
</g>
<!-- Node2 -->
<g id="node2" class="node">
<title>Node2</title>
<g id="a_node2"><a xlink:href="_task_observer_8cpp.html" target="_top" xlink:title=" ">
<polygon fill="white" stroke="black" points="0,-6 0,-25 154,-25 154,-6 0,-6"/>
<text text-anchor="middle" x="77" y="-13" font-family="Helvetica,sans-Serif" font-size="10.00">src/controller/TaskObserver.cpp</text>
</a>
</g>
</g>
<!-- Node1&#45;&gt;Node2 -->
<g id="edge1" class="edge">
<title>Node1&#45;&gt;Node2</title>
<path fill="none" stroke="midnightblue" d="M132.46,-61.01C117.43,-48.94 99.19,-34.3 87.83,-25.19"/>
<polygon fill="midnightblue" stroke="midnightblue" points="130.43,-63.87 140.42,-67.4 134.82,-58.41 130.43,-63.87"/>
</g>
<!-- Node3 -->
<g id="node3" class="node">
<title>Node3</title>
<g id="a_node3"><a xlink:href="_write_transactions_to_block_task_8cpp.html" target="_top" xlink:title=" ">
<polygon fill="white" stroke="black" points="172,-0.5 172,-30.5 306,-30.5 306,-0.5 172,-0.5"/>
<text text-anchor="start" x="180" y="-18.5" font-family="Helvetica,sans-Serif" font-size="10.00">src/task/WriteTransactions</text>
<text text-anchor="middle" x="239" y="-7.5" font-family="Helvetica,sans-Serif" font-size="10.00">ToBlockTask.cpp</text>
</a>
</g>
</g>
<!-- Node1&#45;&gt;Node3 -->
<g id="edge2" class="edge">
<title>Node1&#45;&gt;Node3</title>
<path fill="none" stroke="midnightblue" d="M183.69,-60.88C196,-51.01 210.43,-39.43 221.46,-30.58"/>
<polygon fill="midnightblue" stroke="midnightblue" points="181.18,-58.41 175.58,-67.4 185.57,-63.87 181.18,-58.41"/>
</g>
</g>
</svg>
