<?xml version="1.0" encoding="UTF-8" standalone="no"?>
<!DOCTYPE svg PUBLIC "-//W3C//DTD SVG 1.1//EN"
 "http://www.w3.org/Graphics/SVG/1.1/DTD/svg11.dtd">
<!-- Generated by graphviz version 2.50.0 (20211204.2007)
 -->
<!-- Title: src/task/WriteTransactionsToBlockTask.h Pages: 1 -->
<svg width="2434pt" height="430pt"
 viewBox="0.00 0.00 2434.00 430.00" xmlns="http://www.w3.org/2000/svg" xmlns:xlink="http://www.w3.org/1999/xlink">
<g id="graph0" class="graph" transform="scale(1 1) rotate(0) translate(4 426)">
<title>src/task/WriteTransactionsToBlockTask.h</title>
<polygon fill="white" stroke="transparent" points="-4,4 -4,-426 2430,-426 2430,4 -4,4"/>
<!-- Node1 -->
<g id="node1" class="node">
<title>Node1</title>
<g id="a_node1"><a xlink:title=" ">
<polygon fill="#bfbfbf" stroke="black" points="400,-391.5 400,-421.5 534,-421.5 534,-391.5 400,-391.5"/>
<text text-anchor="start" x="408" y="-409.5" font-family="Helvetica,sans-Serif" font-size="10.00">src/task/WriteTransactions</text>
<text text-anchor="middle" x="467" y="-398.5" font-family="Helvetica,sans-Serif" font-size="10.00">ToBlockTask.h</text>
</a>
</g>
</g>
<!-- Node2 -->
<g id="node2" class="node">
<title>Node2</title>
<g id="a_node2"><a xlink:href="_c_p_u_task_8h.html" target="_top" xlink:title=" ">
<polygon fill="white" stroke="black" points="0,-129 0,-148 66,-148 66,-129 0,-129"/>
<text text-anchor="middle" x="33" y="-136" font-family="Helvetica,sans-Serif" font-size="10.00">CPUTask.h</text>
</a>
</g>
</g>
<!-- Node1&#45;&gt;Node2 -->
<g id="edge1" class="edge">
<title>Node1&#45;&gt;Node2</title>
<path fill="none" stroke="midnightblue" d="M443.97,-391.39C368.68,-345.24 130.38,-199.18 55.64,-153.38"/>
<polygon fill="midnightblue" stroke="midnightblue" points="57.33,-150.31 46.98,-148.07 53.68,-156.28 57.33,-150.31"/>
</g>
<!-- Node3 -->
<g id="node3" class="node">
<title>Node3</title>
<g id="a_node3"><a xlink:href="_transaction_entry_8h.html" target="_top" xlink:title=" ">
<polygon fill="white" stroke="black" points="1415.5,-330 1415.5,-349 1552.5,-349 1552.5,-330 1415.5,-330"/>
<text text-anchor="middle" x="1484" y="-337" font-family="Helvetica,sans-Serif" font-size="10.00">../model/TransactionEntry.h</text>
</a>
</g>
</g>
<!-- Node1&#45;&gt;Node3 -->
<g id="edge2" class="edge">
<title>Node1&#45;&gt;Node3</title>
<path fill="none" stroke="midnightblue" d="M534.12,-401.21C714.97,-389.65 1211.77,-357.9 1405.34,-345.53"/>
<polygon fill="midnightblue" stroke="midnightblue" points="1405.68,-349.01 1415.43,-344.88 1405.23,-342.03 1405.68,-349.01"/>
</g>
<!-- Node18 -->
<g id="node18" class="node">
<title>Node18</title>
<g id="a_node18"><a xlink:href="controller_2_block_index_8h.html" target="_top" xlink:title=" ">
<polygon fill="white" stroke="black" points="463.5,-201.5 463.5,-220.5 536.5,-220.5 536.5,-201.5 463.5,-201.5"/>
<text text-anchor="middle" x="500" y="-208.5" font-family="Helvetica,sans-Serif" font-size="10.00">BlockIndex.h</text>
</a>
</g>
</g>
<!-- Node1&#45;&gt;Node18 -->
<g id="edge79" class="edge">
<title>Node1&#45;&gt;Node18</title>
<path fill="none" stroke="midnightblue" d="M469.43,-391.27C475.28,-356.94 490.18,-269.57 496.78,-230.9"/>
<polygon fill="midnightblue" stroke="midnightblue" points="500.31,-231.02 498.54,-220.58 493.41,-229.85 500.31,-231.02"/>
</g>
<!-- Node45 -->
<g id="node45" class="node">
<title>Node45</title>
<g id="a_node45"><a xlink:href="model_2files_2_block_8h.html" target="_top" xlink:title=" ">
<polygon fill="white" stroke="black" points="299,-201.5 299,-220.5 407,-220.5 407,-201.5 299,-201.5"/>
<text text-anchor="middle" x="353" y="-208.5" font-family="Helvetica,sans-Serif" font-size="10.00">../model/files/Block.h</text>
</a>
</g>
</g>
<!-- Node1&#45;&gt;Node45 -->
<g id="edge69" class="edge">
<title>Node1&#45;&gt;Node45</title>
<path fill="none" stroke="midnightblue" d="M452.08,-391.44C442.41,-381.81 429.99,-368.39 421,-355 392.99,-313.29 370.32,-258.26 359.64,-230.18"/>
<polygon fill="midnightblue" stroke="midnightblue" points="362.81,-228.67 356.03,-220.52 356.25,-231.11 362.81,-228.67"/>
</g>
<!-- Node47 -->
<g id="node47" class="node">
<title>Node47</title>
<g id="a_node47"><a xlink:title=" ">
<polygon fill="white" stroke="#bfbfbf" points="330,-129 330,-148 428,-148 428,-129 330,-129"/>
<text text-anchor="middle" x="379" y="-136" font-family="Helvetica,sans-Serif" font-size="10.00">Poco/Timestamp.h</text>
</a>
</g>
</g>
<!-- Node1&#45;&gt;Node47 -->
<g id="edge80" class="edge">
<title>Node1&#45;&gt;Node47</title>
<path fill="none" stroke="midnightblue" d="M465.61,-391.25C461.74,-355.78 448.86,-261.21 416,-190 410.28,-177.61 401.27,-165.22 393.57,-155.82"/>
<polygon fill="midnightblue" stroke="midnightblue" points="396.16,-153.45 387.01,-148.11 390.83,-157.99 396.16,-153.45"/>
</g>
<!-- Node49 -->
<g id="node49" class="node">
<title>Node49</title>
<g id="a_node49"><a xlink:title=" ">
<polygon fill="white" stroke="#bfbfbf" points="1570.5,-324.5 1570.5,-354.5 1687.5,-354.5 1687.5,-324.5 1570.5,-324.5"/>
<text text-anchor="start" x="1578.5" y="-342.5" font-family="Helvetica,sans-Serif" font-size="10.00">gradido_blockchain</text>
<text text-anchor="middle" x="1629" y="-331.5" font-family="Helvetica,sans-Serif" font-size="10.00">/lib/MultithreadQueue.h</text>
</a>
</g>
</g>
<!-- Node1&#45;&gt;Node49 -->
<g id="edge78" class="edge">
<title>Node1&#45;&gt;Node49</title>
<path fill="none" stroke="midnightblue" d="M534.1,-403.88C736.89,-398.74 1342.29,-381.66 1560.19,-355.06"/>
<polygon fill="midnightblue" stroke="midnightblue" points="1560.79,-358.52 1570.27,-353.79 1559.91,-351.57 1560.79,-358.52"/>
</g>
<!-- Node4 -->
<g id="node4" class="node">
<title>Node4</title>
<g id="a_node4"><a xlink:title=" ">
<polygon fill="white" stroke="#bfbfbf" points="1759.5,-268.5 1759.5,-287.5 1836.5,-287.5 1836.5,-268.5 1759.5,-268.5"/>
<text text-anchor="middle" x="1798" y="-275.5" font-family="Helvetica,sans-Serif" font-size="10.00">Poco/Types.h</text>
</a>
</g>
</g>
<!-- Node3&#45;&gt;Node4 -->
<g id="edge3" class="edge">
<title>Node3&#45;&gt;Node4</title>
<path fill="none" stroke="midnightblue" d="M1528.99,-329.98C1587.34,-318.92 1688.76,-299.7 1749.01,-288.28"/>
<polygon fill="midnightblue" stroke="midnightblue" points="1749.86,-291.68 1759.03,-286.38 1748.56,-284.81 1749.86,-291.68"/>
</g>
<!-- Node5 -->
<g id="node5" class="node">
<title>Node5</title>
<g id="a_node5"><a xlink:title=" ">
<polygon fill="white" stroke="#bfbfbf" points="1798.5,-6 1798.5,-25 1875.5,-25 1875.5,-6 1798.5,-6"/>
<text text-anchor="middle" x="1837" y="-13" font-family="Helvetica,sans-Serif" font-size="10.00">Poco/Mutex.h</text>
</a>
</g>
</g>
<!-- Node3&#45;&gt;Node5 -->
<g id="edge4" class="edge">
<title>Node3&#45;&gt;Node5</title>
<path fill="none" stroke="midnightblue" d="M1525.98,-329.96C1537.61,-327.79 1550.27,-325.62 1562,-324 1657.89,-310.74 2426,-308.8 2426,-212 2426,-212 2426,-212 2426,-137.5 2426,-27.51 2026.91,-16.61 1885.75,-16.19"/>
<polygon fill="midnightblue" stroke="midnightblue" points="1885.65,-12.69 1875.65,-16.18 1885.64,-19.69 1885.65,-12.69"/>
</g>
<!-- Node6 -->
<g id="node6" class="node">
<title>Node6</title>
<g id="a_node6"><a xlink:title=" ">
<polygon fill="white" stroke="#bfbfbf" points="1855,-268.5 1855,-287.5 1947,-287.5 1947,-268.5 1855,-268.5"/>
<text text-anchor="middle" x="1901" y="-275.5" font-family="Helvetica,sans-Serif" font-size="10.00">Poco/DateTime.h</text>
</a>
</g>
</g>
<!-- Node3&#45;&gt;Node6 -->
<g id="edge5" class="edge">
<title>Node3&#45;&gt;Node6</title>
<path fill="none" stroke="midnightblue" d="M1527.65,-329.93C1538.83,-327.86 1550.84,-325.74 1562,-324 1684.52,-304.86 1718.38,-306.19 1844.74,-288.13"/>
<polygon fill="midnightblue" stroke="midnightblue" points="1845.41,-291.57 1854.81,-286.68 1844.41,-284.65 1845.41,-291.57"/>
</g>
<!-- Node7 -->
<g id="node7" class="node">
<title>Node7</title>
<g id="a_node7"><a xlink:href="_group_8h.html" target="_top" xlink:title=" ">
<polygon fill="white" stroke="black" points="1185.5,-268.5 1185.5,-287.5 1288.5,-287.5 1288.5,-268.5 1185.5,-268.5"/>
<text text-anchor="middle" x="1237" y="-275.5" font-family="Helvetica,sans-Serif" font-size="10.00">../controller/Group.h</text>
</a>
</g>
</g>
<!-- Node3&#45;&gt;Node7 -->
<g id="edge6" class="edge">
<title>Node3&#45;&gt;Node7</title>
<path fill="none" stroke="midnightblue" d="M1448.61,-329.98C1404.77,-319.42 1330.03,-301.41 1282.12,-289.87"/>
<polygon fill="midnightblue" stroke="midnightblue" points="1282.87,-286.45 1272.32,-287.51 1281.23,-293.25 1282.87,-286.45"/>
</g>
<!-- Node19 -->
<g id="node19" class="node">
<title>Node19</title>
<g id="a_node19"><a xlink:title=" ">
<polygon fill="white" stroke="#bfbfbf" points="1816,-129 1816,-148 1858,-148 1858,-129 1816,-129"/>
<text text-anchor="middle" x="1837" y="-136" font-family="Helvetica,sans-Serif" font-size="10.00">vector</text>
</a>
</g>
</g>
<!-- Node3&#45;&gt;Node19 -->
<g id="edge68" class="edge">
<title>Node3&#45;&gt;Node19</title>
<path fill="none" stroke="midnightblue" d="M1506.11,-329.91C1547.71,-313.36 1639.93,-274.91 1712,-232 1752.29,-208.01 1795.44,-174 1819.03,-154.6"/>
<polygon fill="midnightblue" stroke="midnightblue" points="1821.33,-157.24 1826.8,-148.17 1816.86,-151.85 1821.33,-157.24"/>
</g>
<!-- Node32 -->
<g id="node32" class="node">
<title>Node32</title>
<g id="a_node32"><a xlink:title=" ">
<polygon fill="white" stroke="#bfbfbf" points="555,-190.5 555,-231.5 675,-231.5 675,-190.5 555,-190.5"/>
<text text-anchor="start" x="563" y="-219.5" font-family="Helvetica,sans-Serif" font-size="10.00">gradido_blockchain</text>
<text text-anchor="start" x="563" y="-208.5" font-family="Helvetica,sans-Serif" font-size="10.00">/model/protobufWrapper</text>
<text text-anchor="middle" x="615" y="-197.5" font-family="Helvetica,sans-Serif" font-size="10.00">/GradidoBlock.h</text>
</a>
</g>
</g>
<!-- Node3&#45;&gt;Node32 -->
<g id="edge67" class="edge">
<title>Node3&#45;&gt;Node32</title>
<path fill="none" stroke="midnightblue" d="M1415.44,-332.37C1277.14,-319.32 955.21,-285.57 689,-232 687.72,-231.74 686.42,-231.47 685.12,-231.2"/>
<polygon fill="midnightblue" stroke="midnightblue" points="685.54,-227.71 675.02,-228.93 684.01,-234.53 685.54,-227.71"/>
</g>
<!-- Node8 -->
<g id="node8" class="node">
<title>Node8</title>
<g id="a_node8"><a xlink:href="_controller_base_8h.html" target="_top" xlink:title=" ">
<polygon fill="white" stroke="black" points="1209.5,-129 1209.5,-148 1298.5,-148 1298.5,-129 1209.5,-129"/>
<text text-anchor="middle" x="1254" y="-136" font-family="Helvetica,sans-Serif" font-size="10.00">ControllerBase.h</text>
</a>
</g>
</g>
<!-- Node7&#45;&gt;Node8 -->
<g id="edge7" class="edge">
<title>Node7&#45;&gt;Node8</title>
<path fill="none" stroke="midnightblue" d="M1288.58,-275.37C1354.97,-272.05 1464.82,-262.05 1490,-232 1501.99,-217.69 1501.85,-204.42 1490,-190 1437.66,-126.29 1388.31,-172.7 1308,-154 1303.57,-152.97 1298.96,-151.83 1294.37,-150.66"/>
<polygon fill="midnightblue" stroke="midnightblue" points="1295.03,-147.21 1284.47,-148.06 1293.25,-153.98 1295.03,-147.21"/>
</g>
<!-- Node9 -->
<g id="node9" class="node">
<title>Node9</title>
<g id="a_node9"><a xlink:href="controller_2_address_index_8h.html" target="_top" xlink:title=" ">
<polygon fill="white" stroke="black" points="1397,-201.5 1397,-220.5 1481,-220.5 1481,-201.5 1397,-201.5"/>
<text text-anchor="middle" x="1439" y="-208.5" font-family="Helvetica,sans-Serif" font-size="10.00">AddressIndex.h</text>
</a>
</g>
</g>
<!-- Node7&#45;&gt;Node9 -->
<g id="edge9" class="edge">
<title>Node7&#45;&gt;Node9</title>
<path fill="none" stroke="midnightblue" d="M1268.48,-268.45C1299.19,-259.92 1347.14,-246.07 1388,-232 1394.77,-229.67 1401.96,-226.98 1408.75,-224.35"/>
<polygon fill="midnightblue" stroke="midnightblue" points="1410.29,-227.5 1418.3,-220.57 1407.72,-220.99 1410.29,-227.5"/>
</g>
<!-- Node11 -->
<g id="node11" class="node">
<title>Node11</title>
<g id="a_node11"><a xlink:title=" ">
<polygon fill="white" stroke="#bfbfbf" points="675.5,-6 675.5,-25 746.5,-25 746.5,-6 675.5,-6"/>
<text text-anchor="middle" x="711" y="-13" font-family="Helvetica,sans-Serif" font-size="10.00">Poco/Path.h</text>
</a>
</g>
</g>
<!-- Node7&#45;&gt;Node11 -->
<g id="edge61" class="edge">
<title>Node7&#45;&gt;Node11</title>
<path fill="none" stroke="midnightblue" d="M1185.13,-275.74C1065.8,-272.35 779.61,-261.23 748,-232 692.09,-180.3 701.08,-77.3 707.59,-35.14"/>
<polygon fill="midnightblue" stroke="midnightblue" points="711.06,-35.61 709.27,-25.17 704.16,-34.45 711.06,-35.61"/>
</g>
<!-- Node12 -->
<g id="node12" class="node">
<title>Node12</title>
<g id="a_node12"><a xlink:title=" ">
<polygon fill="white" stroke="#bfbfbf" points="1316.5,-129 1316.5,-148 1455.5,-148 1455.5,-129 1316.5,-129"/>
<text text-anchor="middle" x="1386" y="-136" font-family="Helvetica,sans-Serif" font-size="10.00">Poco/AccessExpireCache.h</text>
</a>
</g>
</g>
<!-- Node7&#45;&gt;Node12 -->
<g id="edge64" class="edge">
<title>Node7&#45;&gt;Node12</title>
<path fill="none" stroke="midnightblue" d="M1288.61,-276.06C1359.24,-273.56 1480.44,-264.52 1508,-232 1520.07,-217.76 1518.37,-205.52 1508,-190 1494.85,-170.33 1472.47,-158.31 1450.44,-150.97"/>
<polygon fill="midnightblue" stroke="midnightblue" points="1451.3,-147.57 1440.72,-148.01 1449.26,-154.27 1451.3,-147.57"/>
</g>
<!-- Node7&#45;&gt;Node18 -->
<g id="edge22" class="edge">
<title>Node7&#45;&gt;Node18</title>
<path fill="none" stroke="midnightblue" d="M1185.3,-275.93C1046.37,-272.7 667.3,-261.37 546,-232 539.06,-230.32 531.85,-227.67 525.25,-224.83"/>
<polygon fill="midnightblue" stroke="midnightblue" points="526.68,-221.64 516.13,-220.65 523.76,-228 526.68,-221.64"/>
</g>
<!-- Node27 -->
<g id="node27" class="node">
<title>Node27</title>
<g id="a_node27"><a xlink:href="_task_observer_8h.html" target="_top" xlink:title=" ">
<polygon fill="white" stroke="black" points="2059,-201.5 2059,-220.5 2143,-220.5 2143,-201.5 2059,-201.5"/>
<text text-anchor="middle" x="2101" y="-208.5" font-family="Helvetica,sans-Serif" font-size="10.00">TaskObserver.h</text>
</a>
</g>
</g>
<!-- Node7&#45;&gt;Node27 -->
<g id="edge37" class="edge">
<title>Node7&#45;&gt;Node27</title>
<path fill="none" stroke="midnightblue" d="M1288.51,-274.6C1403.89,-269.03 1691.78,-253.98 1932,-232 1971.2,-228.41 2015.36,-223.14 2048.71,-218.91"/>
<polygon fill="midnightblue" stroke="midnightblue" points="2049.22,-222.38 2058.7,-217.64 2048.34,-215.43 2049.22,-222.38"/>
</g>
<!-- Node28 -->
<g id="node28" class="node">
<title>Node28</title>
<g id="a_node28"><a xlink:title=" ">
<polygon fill="white" stroke="#bfbfbf" points="2024.5,-129 2024.5,-148 2107.5,-148 2107.5,-129 2024.5,-129"/>
<text text-anchor="middle" x="2066" y="-136" font-family="Helvetica,sans-Serif" font-size="10.00">Poco/AutoPtr.h</text>
</a>
</g>
</g>
<!-- Node7&#45;&gt;Node28 -->
<g id="edge62" class="edge">
<title>Node7&#45;&gt;Node28</title>
<path fill="none" stroke="midnightblue" d="M1288.67,-274.77C1376.3,-270.4 1559.42,-258.7 1712,-232 1848.98,-208.03 1880.78,-190.35 2015,-154 2018.79,-152.97 2022.73,-151.89 2026.67,-150.79"/>
<polygon fill="midnightblue" stroke="midnightblue" points="2027.69,-154.14 2036.37,-148.06 2025.8,-147.4 2027.69,-154.14"/>
</g>
<!-- Node7&#45;&gt;Node32 -->
<g id="edge45" class="edge">
<title>Node7&#45;&gt;Node32</title>
<path fill="none" stroke="midnightblue" d="M1185.23,-275.88C1087.52,-273.08 869.55,-263.54 689,-232 687.75,-231.78 686.48,-231.55 685.21,-231.31"/>
<polygon fill="midnightblue" stroke="midnightblue" points="685.88,-227.87 675.38,-229.28 684.46,-234.73 685.88,-227.87"/>
</g>
<!-- Node33 -->
<g id="node33" class="node">
<title>Node33</title>
<g id="a_node33"><a xlink:title=" ">
<polygon fill="white" stroke="#bfbfbf" points="769,-190.5 769,-231.5 889,-231.5 889,-190.5 769,-190.5"/>
<text text-anchor="start" x="777" y="-219.5" font-family="Helvetica,sans-Serif" font-size="10.00">gradido_blockchain</text>
<text text-anchor="start" x="777" y="-208.5" font-family="Helvetica,sans-Serif" font-size="10.00">/model/protobufWrapper</text>
<text text-anchor="middle" x="829" y="-197.5" font-family="Helvetica,sans-Serif" font-size="10.00">/GradidoTransaction.h</text>
</a>
</g>
</g>
<!-- Node7&#45;&gt;Node33 -->
<g id="edge46" class="edge">
<title>Node7&#45;&gt;Node33</title>
<path fill="none" stroke="midnightblue" d="M1185.48,-272.59C1120.71,-266.51 1006.02,-253.96 899.07,-232.07"/>
<polygon fill="midnightblue" stroke="midnightblue" points="899.58,-228.6 889.08,-229.99 898.15,-235.45 899.58,-228.6"/>
</g>
<!-- Node34 -->
<g id="node34" class="node">
<title>Node34</title>
<g id="a_node34"><a xlink:href="_state_8h.html" target="_top" xlink:title=" ">
<polygon fill="white" stroke="black" points="769.5,-129 769.5,-148 876.5,-148 876.5,-129 769.5,-129"/>
<text text-anchor="middle" x="823" y="-136" font-family="Helvetica,sans-Serif" font-size="10.00">../model/files/State.h</text>
</a>
</g>
</g>
<!-- Node7&#45;&gt;Node34 -->
<g id="edge47" class="edge">
<title>Node7&#45;&gt;Node34</title>
<path fill="none" stroke="midnightblue" d="M1185.18,-275.96C1067.53,-273.07 788.2,-262.99 760,-232 747.44,-218.19 751.92,-206.83 760,-190 767.54,-174.29 782.61,-161.93 796.13,-153.37"/>
<polygon fill="midnightblue" stroke="midnightblue" points="798.29,-156.16 805.12,-148.06 794.73,-150.13 798.29,-156.16"/>
</g>
<!-- Node36 -->
<g id="node36" class="node">
<title>Node36</title>
<g id="a_node36"><a xlink:title=" ">
<polygon fill="white" stroke="#bfbfbf" points="907,-196 907,-226 1011,-226 1011,-196 907,-196"/>
<text text-anchor="start" x="915" y="-214" font-family="Helvetica,sans-Serif" font-size="10.00">gradido_blockchain</text>
<text text-anchor="middle" x="959" y="-203" font-family="Helvetica,sans-Serif" font-size="10.00">/http/JsonRequest.h</text>
</a>
</g>
</g>
<!-- Node7&#45;&gt;Node36 -->
<g id="edge51" class="edge">
<title>Node7&#45;&gt;Node36</title>
<path fill="none" stroke="midnightblue" d="M1187.94,-268.45C1143.71,-260.37 1077.06,-247.22 1020,-232 1016.61,-231.1 1013.14,-230.11 1009.65,-229.08"/>
<polygon fill="midnightblue" stroke="midnightblue" points="1010.41,-225.66 999.83,-226.08 1008.37,-232.35 1010.41,-225.66"/>
</g>
<!-- Node37 -->
<g id="node37" class="node">
<title>Node37</title>
<g id="a_node37"><a xlink:href="_message_listener_8h.html" target="_top" xlink:title=" ">
<polygon fill="white" stroke="black" points="1575.5,-201.5 1575.5,-220.5 1702.5,-220.5 1702.5,-201.5 1575.5,-201.5"/>
<text text-anchor="middle" x="1639" y="-208.5" font-family="Helvetica,sans-Serif" font-size="10.00">../iota/MessageListener.h</text>
</a>
</g>
</g>
<!-- Node7&#45;&gt;Node37 -->
<g id="edge52" class="edge">
<title>Node7&#45;&gt;Node37</title>
<path fill="none" stroke="midnightblue" d="M1288.64,-271.65C1352.84,-264.58 1465.58,-250.8 1561,-232 1573.43,-229.55 1586.83,-226.33 1598.97,-223.19"/>
<polygon fill="midnightblue" stroke="midnightblue" points="1600.03,-226.53 1608.81,-220.59 1598.24,-219.76 1600.03,-226.53"/>
</g>
<!-- Node42 -->
<g id="node42" class="node">
<title>Node42</title>
<g id="a_node42"><a xlink:title=" ">
<polygon fill="white" stroke="#bfbfbf" points="1029,-201.5 1029,-220.5 1095,-220.5 1095,-201.5 1029,-201.5"/>
<text text-anchor="middle" x="1062" y="-208.5" font-family="Helvetica,sans-Serif" font-size="10.00">Poco/URI.h</text>
</a>
</g>
</g>
<!-- Node7&#45;&gt;Node42 -->
<g id="edge63" class="edge">
<title>Node7&#45;&gt;Node42</title>
<path fill="none" stroke="midnightblue" d="M1208.62,-268.47C1181.45,-260.05 1139.46,-246.38 1104,-232 1098.76,-229.88 1093.25,-227.42 1088,-224.97"/>
<polygon fill="midnightblue" stroke="midnightblue" points="1089.49,-221.8 1078.96,-220.64 1086.47,-228.11 1089.49,-221.8"/>
</g>
<!-- Node43 -->
<g id="node43" class="node">
<title>Node43</title>
<g id="a_node43"><a xlink:title=" ">
<polygon fill="white" stroke="#bfbfbf" points="1113,-201.5 1113,-220.5 1219,-220.5 1219,-201.5 1113,-201.5"/>
<text text-anchor="middle" x="1166" y="-208.5" font-family="Helvetica,sans-Serif" font-size="10.00">Poco/ExpireCache.h</text>
</a>
</g>
</g>
<!-- Node7&#45;&gt;Node43 -->
<g id="edge65" class="edge">
<title>Node7&#45;&gt;Node43</title>
<path fill="none" stroke="midnightblue" d="M1227.42,-268.23C1216.03,-257.81 1196.81,-240.21 1182.9,-227.47"/>
<polygon fill="midnightblue" stroke="midnightblue" points="1185.16,-224.8 1175.42,-220.63 1180.44,-229.96 1185.16,-224.8"/>
</g>
<!-- Node44 -->
<g id="node44" class="node">
<title>Node44</title>
<g id="a_node44"><a xlink:title=" ">
<polygon fill="white" stroke="#bfbfbf" points="1237.5,-196 1237.5,-226 1378.5,-226 1378.5,-196 1237.5,-196"/>
<text text-anchor="start" x="1245.5" y="-214" font-family="Helvetica,sans-Serif" font-size="10.00">gradido_blockchain</text>
<text text-anchor="middle" x="1308" y="-203" font-family="Helvetica,sans-Serif" font-size="10.00">/model/IGradidoBlockchain.h</text>
</a>
</g>
</g>
<!-- Node7&#45;&gt;Node44 -->
<g id="edge66" class="edge">
<title>Node7&#45;&gt;Node44</title>
<path fill="none" stroke="midnightblue" d="M1246.58,-268.23C1256.36,-259.28 1271.91,-245.04 1284.91,-233.13"/>
<polygon fill="midnightblue" stroke="midnightblue" points="1287.6,-235.42 1292.61,-226.09 1282.87,-230.26 1287.6,-235.42"/>
</g>
<!-- Node8&#45;&gt;Node5 -->
<g id="edge8" class="edge">
<title>Node8&#45;&gt;Node5</title>
<path fill="none" stroke="midnightblue" d="M1261.56,-128.67C1275.47,-113.1 1306.85,-81.09 1341,-67 1421.13,-33.95 1679.49,-21.7 1788.14,-17.94"/>
<polygon fill="midnightblue" stroke="midnightblue" points="1788.3,-21.43 1798.18,-17.6 1788.06,-14.44 1788.3,-21.43"/>
</g>
<!-- Node9&#45;&gt;Node8 -->
<g id="edge10" class="edge">
<title>Node9&#45;&gt;Node8</title>
<path fill="none" stroke="midnightblue" d="M1417.19,-201.37C1408.16,-197.82 1397.59,-193.69 1388,-190 1353.49,-176.73 1313.84,-161.83 1286.68,-151.68"/>
<polygon fill="midnightblue" stroke="midnightblue" points="1287.87,-148.38 1277.28,-148.16 1285.42,-154.94 1287.87,-148.38"/>
</g>
<!-- Node10 -->
<g id="node10" class="node">
<title>Node10</title>
<g id="a_node10"><a xlink:title=" ">
<polygon fill="white" stroke="#bfbfbf" points="1014.5,-67.5 1014.5,-86.5 1097.5,-86.5 1097.5,-67.5 1014.5,-67.5"/>
<text text-anchor="middle" x="1056" y="-74.5" font-family="Helvetica,sans-Serif" font-size="10.00">unordered_map</text>
</a>
</g>
</g>
<!-- Node9&#45;&gt;Node10 -->
<g id="edge11" class="edge">
<title>Node9&#45;&gt;Node10</title>
<path fill="none" stroke="midnightblue" d="M1420.51,-201.3C1411,-197.2 1399.1,-192.64 1388,-190 1303.97,-170.04 1059.18,-217.84 1001,-154 991.72,-143.82 995.1,-135.45 1001,-123 1007.13,-110.07 1018.99,-99.62 1030.14,-92.05"/>
<polygon fill="midnightblue" stroke="midnightblue" points="1032.19,-94.9 1038.8,-86.61 1028.47,-88.97 1032.19,-94.9"/>
</g>
<!-- Node9&#45;&gt;Node11 -->
<g id="edge12" class="edge">
<title>Node9&#45;&gt;Node11</title>
<path fill="none" stroke="midnightblue" d="M1420.99,-201.49C1411.4,-197.34 1399.29,-192.67 1388,-190 1215.58,-149.25 1154.79,-221.55 991,-154 934.97,-130.89 939.57,-95.33 886,-67 874.13,-60.72 800.92,-40.53 753.03,-27.66"/>
<polygon fill="midnightblue" stroke="midnightblue" points="753.79,-24.24 743.23,-25.03 751.98,-31 753.79,-24.24"/>
</g>
<!-- Node9&#45;&gt;Node12 -->
<g id="edge13" class="edge">
<title>Node9&#45;&gt;Node12</title>
<path fill="none" stroke="midnightblue" d="M1432.5,-201.36C1424.16,-190.26 1409.49,-170.74 1398.85,-156.59"/>
<polygon fill="midnightblue" stroke="midnightblue" points="1401.36,-154.11 1392.55,-148.22 1395.76,-158.31 1401.36,-154.11"/>
</g>
<!-- Node13 -->
<g id="node13" class="node">
<title>Node13</title>
<g id="a_node13"><a xlink:href="model_2files_2_address_index_8h.html" target="_top" xlink:title=" ">
<polygon fill="white" stroke="black" points="1009.5,-129 1009.5,-148 1152.5,-148 1152.5,-129 1009.5,-129"/>
<text text-anchor="middle" x="1081" y="-136" font-family="Helvetica,sans-Serif" font-size="10.00">../model/files/AddressIndex.h</text>
</a>
</g>
</g>
<!-- Node9&#45;&gt;Node13 -->
<g id="edge14" class="edge">
<title>Node9&#45;&gt;Node13</title>
<path fill="none" stroke="midnightblue" d="M1419.95,-201.42C1410.5,-197.46 1398.82,-192.98 1388,-190 1344.82,-178.13 1228.79,-160.45 1152.39,-149.47"/>
<polygon fill="midnightblue" stroke="midnightblue" points="1152.75,-145.98 1142.35,-148.03 1151.76,-152.91 1152.75,-145.98"/>
</g>
<!-- Node13&#45;&gt;Node10 -->
<g id="edge20" class="edge">
<title>Node13&#45;&gt;Node10</title>
<path fill="none" stroke="midnightblue" d="M1077.42,-128.98C1073.82,-120.4 1068.15,-106.93 1063.56,-95.98"/>
<polygon fill="midnightblue" stroke="midnightblue" points="1066.68,-94.37 1059.58,-86.51 1060.22,-97.08 1066.68,-94.37"/>
</g>
<!-- Node14 -->
<g id="node14" class="node">
<title>Node14</title>
<g id="a_node14"><a xlink:href="_file_base_8h.html" target="_top" xlink:title=" ">
<polygon fill="white" stroke="black" points="933.5,-67.5 933.5,-86.5 996.5,-86.5 996.5,-67.5 933.5,-67.5"/>
<text text-anchor="middle" x="965" y="-74.5" font-family="Helvetica,sans-Serif" font-size="10.00">FileBase.h</text>
</a>
</g>
</g>
<!-- Node13&#45;&gt;Node14 -->
<g id="edge15" class="edge">
<title>Node13&#45;&gt;Node14</title>
<path fill="none" stroke="midnightblue" d="M1064.38,-128.98C1045.08,-119.08 1013.04,-102.64 990.57,-91.12"/>
<polygon fill="midnightblue" stroke="midnightblue" points="992.08,-87.96 981.59,-86.51 988.89,-94.19 992.08,-87.96"/>
</g>
<!-- Node16 -->
<g id="node16" class="node">
<title>Node16</title>
<g id="a_node16"><a xlink:title=" ">
<polygon fill="white" stroke="#bfbfbf" points="775.5,-0.5 775.5,-30.5 876.5,-30.5 876.5,-0.5 775.5,-0.5"/>
<text text-anchor="start" x="783.5" y="-18.5" font-family="Helvetica,sans-Serif" font-size="10.00">gradido_blockchain</text>
<text text-anchor="middle" x="826" y="-7.5" font-family="Helvetica,sans-Serif" font-size="10.00">/MemoryManager.h</text>
</a>
</g>
</g>
<!-- Node13&#45;&gt;Node16 -->
<g id="edge19" class="edge">
<title>Node13&#45;&gt;Node16</title>
<path fill="none" stroke="midnightblue" d="M1089.29,-128.72C1101.85,-114.34 1122.68,-85.52 1107,-67 1075.7,-30.03 939.56,-40.2 892,-31 890.3,-30.67 888.57,-30.33 886.83,-29.98"/>
<polygon fill="midnightblue" stroke="midnightblue" points="887.25,-26.5 876.75,-27.92 885.85,-33.35 887.25,-26.5"/>
</g>
<!-- Node17 -->
<g id="node17" class="node">
<title>Node17</title>
<g id="a_node17"><a xlink:title=" ">
<polygon fill="white" stroke="#bfbfbf" points="1349.5,-67.5 1349.5,-86.5 1384.5,-86.5 1384.5,-67.5 1349.5,-67.5"/>
<text text-anchor="middle" x="1367" y="-74.5" font-family="Helvetica,sans-Serif" font-size="10.00">map</text>
</a>
</g>
</g>
<!-- Node13&#45;&gt;Node17 -->
<g id="edge21" class="edge">
<title>Node13&#45;&gt;Node17</title>
<path fill="none" stroke="midnightblue" d="M1121.98,-128.98C1181.1,-116.68 1288.77,-94.28 1339.35,-83.75"/>
<polygon fill="midnightblue" stroke="midnightblue" points="1340.16,-87.16 1349.24,-81.69 1338.74,-80.3 1340.16,-87.16"/>
</g>
<!-- Node14&#45;&gt;Node5 -->
<g id="edge17" class="edge">
<title>Node14&#45;&gt;Node5</title>
<path fill="none" stroke="midnightblue" d="M996.7,-68.53C999.83,-67.95 1002.97,-67.42 1006,-67 1300.84,-25.93 1659.15,-18.26 1787.96,-16.83"/>
<polygon fill="midnightblue" stroke="midnightblue" points="1788.31,-20.32 1798.27,-16.72 1788.23,-13.32 1788.31,-20.32"/>
</g>
<!-- Node14&#45;&gt;Node11 -->
<g id="edge16" class="edge">
<title>Node14&#45;&gt;Node11</title>
<path fill="none" stroke="midnightblue" d="M933.38,-69.12C894.24,-60.53 825.58,-45.24 767,-31 762.54,-29.92 757.89,-28.76 753.26,-27.59"/>
<polygon fill="midnightblue" stroke="midnightblue" points="753.79,-24.11 743.24,-25.02 752.06,-30.89 753.79,-24.11"/>
</g>
<!-- Node15 -->
<g id="node15" class="node">
<title>Node15</title>
<g id="a_node15"><a xlink:title=" ">
<polygon fill="white" stroke="#bfbfbf" points="900.5,-6 900.5,-25 1029.5,-25 1029.5,-6 900.5,-6"/>
<text text-anchor="middle" x="965" y="-13" font-family="Helvetica,sans-Serif" font-size="10.00">Poco/RefCountedObject.h</text>
</a>
</g>
</g>
<!-- Node14&#45;&gt;Node15 -->
<g id="edge18" class="edge">
<title>Node14&#45;&gt;Node15</title>
<path fill="none" stroke="midnightblue" d="M965,-67.48C965,-59.08 965,-45.98 965,-35.16"/>
<polygon fill="midnightblue" stroke="midnightblue" points="968.5,-35.01 965,-25.01 961.5,-35.01 968.5,-35.01"/>
</g>
<!-- Node18&#45;&gt;Node8 -->
<g id="edge23" class="edge">
<title>Node18&#45;&gt;Node8</title>
<path fill="none" stroke="midnightblue" d="M516.12,-201.31C524.73,-197.11 535.66,-192.45 546,-190 827.1,-123.36 909.28,-196.66 1195,-154 1201.23,-153.07 1207.76,-151.78 1214.12,-150.36"/>
<polygon fill="midnightblue" stroke="midnightblue" points="1214.98,-153.76 1223.9,-148.04 1213.36,-146.94 1214.98,-153.76"/>
</g>
<!-- Node18&#45;&gt;Node11 -->
<g id="edge26" class="edge">
<title>Node18&#45;&gt;Node11</title>
<path fill="none" stroke="midnightblue" d="M496.42,-201.44C488.53,-183.71 467.86,-142.93 437,-123 368.4,-78.69 207.58,-127.89 262,-67 275.34,-52.07 552.98,-28.84 664.87,-20.04"/>
<polygon fill="midnightblue" stroke="midnightblue" points="665.47,-23.5 675.17,-19.23 664.92,-16.52 665.47,-23.5"/>
</g>
<!-- Node18&#45;&gt;Node17 -->
<g id="edge25" class="edge">
<title>Node18&#45;&gt;Node17</title>
<path fill="none" stroke="midnightblue" d="M516.12,-201.32C524.73,-197.12 535.67,-192.47 546,-190 679.38,-158.17 1033.91,-202.94 1162,-154 1182.68,-146.1 1181.24,-132.99 1201,-123 1246.44,-100.02 1305.01,-87.69 1339.05,-82.01"/>
<polygon fill="midnightblue" stroke="midnightblue" points="1339.86,-85.43 1349.19,-80.4 1338.76,-78.52 1339.86,-85.43"/>
</g>
<!-- Node18&#45;&gt;Node19 -->
<g id="edge24" class="edge">
<title>Node18&#45;&gt;Node19</title>
<path fill="none" stroke="midnightblue" d="M515.67,-201.41C524.34,-197.12 535.46,-192.35 546,-190 819.62,-129 1534.66,-220.47 1807,-154 1808.98,-153.52 1810.99,-152.89 1812.97,-152.17"/>
<polygon fill="midnightblue" stroke="midnightblue" points="1814.74,-155.22 1822.51,-148.02 1811.94,-148.8 1814.74,-155.22"/>
</g>
<!-- Node20 -->
<g id="node20" class="node">
<title>Node20</title>
<g id="a_node20"><a xlink:title=" ">
<polygon fill="white" stroke="#bfbfbf" points="271,-67.5 271,-86.5 365,-86.5 365,-67.5 271,-67.5"/>
<text text-anchor="middle" x="318" y="-74.5" font-family="Helvetica,sans-Serif" font-size="10.00">Poco/SharedPtr.h</text>
</a>
</g>
</g>
<!-- Node18&#45;&gt;Node20 -->
<g id="edge27" class="edge">
<title>Node18&#45;&gt;Node20</title>
<path fill="none" stroke="midnightblue" d="M499.56,-201.47C498.19,-184.15 492.63,-144.65 470,-123 455.81,-109.42 410.18,-96.99 372.59,-88.66"/>
<polygon fill="midnightblue" stroke="midnightblue" points="373.25,-85.22 362.74,-86.52 371.77,-92.06 373.25,-85.22"/>
</g>
<!-- Node21 -->
<g id="node21" class="node">
<title>Node21</title>
<g id="a_node21"><a xlink:href="model_2files_2_block_index_8h.html" target="_top" xlink:title=" ">
<polygon fill="white" stroke="black" points="522.5,-129 522.5,-148 653.5,-148 653.5,-129 522.5,-129"/>
<text text-anchor="middle" x="588" y="-136" font-family="Helvetica,sans-Serif" font-size="10.00">../model/files/BlockIndex.h</text>
</a>
</g>
</g>
<!-- Node18&#45;&gt;Node21 -->
<g id="edge28" class="edge">
<title>Node18&#45;&gt;Node21</title>
<path fill="none" stroke="midnightblue" d="M510.79,-201.36C525.31,-189.73 551.35,-168.86 569.14,-154.61"/>
<polygon fill="midnightblue" stroke="midnightblue" points="571.51,-157.2 577.12,-148.22 567.13,-151.74 571.51,-157.2"/>
</g>
<!-- Node21&#45;&gt;Node14 -->
<g id="edge29" class="edge">
<title>Node21&#45;&gt;Node14</title>
<path fill="none" stroke="midnightblue" d="M642.01,-128.98C717.93,-116.99 854.57,-95.43 923.22,-84.59"/>
<polygon fill="midnightblue" stroke="midnightblue" points="923.91,-88.03 933.24,-83.01 922.82,-81.11 923.91,-88.03"/>
</g>
<!-- Node21&#45;&gt;Node20 -->
<g id="edge33" class="edge">
<title>Node21&#45;&gt;Node20</title>
<path fill="none" stroke="midnightblue" d="M549.32,-128.98C501.2,-118.37 419.01,-100.26 366.67,-88.72"/>
<polygon fill="midnightblue" stroke="midnightblue" points="367.13,-85.24 356.61,-86.51 365.63,-92.08 367.13,-85.24"/>
</g>
<!-- Node22 -->
<g id="node22" class="node">
<title>Node22</title>
<g id="a_node22"><a xlink:href="_virtual_file_8h.html" target="_top" xlink:title=" ">
<polygon fill="white" stroke="black" points="383.5,-67.5 383.5,-86.5 482.5,-86.5 482.5,-67.5 383.5,-67.5"/>
<text text-anchor="middle" x="433" y="-74.5" font-family="Helvetica,sans-Serif" font-size="10.00">../../lib/VirtualFile.h</text>
</a>
</g>
</g>
<!-- Node21&#45;&gt;Node22 -->
<g id="edge30" class="edge">
<title>Node21&#45;&gt;Node22</title>
<path fill="none" stroke="midnightblue" d="M565.79,-128.98C539.32,-118.81 494.89,-101.76 464.78,-90.2"/>
<polygon fill="midnightblue" stroke="midnightblue" points="465.76,-86.83 455.17,-86.51 463.25,-93.36 465.76,-86.83"/>
</g>
<!-- Node24 -->
<g id="node24" class="node">
<title>Node24</title>
<g id="a_node24"><a xlink:title=" ">
<polygon fill="white" stroke="#bfbfbf" points="621,-67.5 621,-86.5 677,-86.5 677,-67.5 621,-67.5"/>
<text text-anchor="middle" x="649" y="-74.5" font-family="Helvetica,sans-Serif" font-size="10.00">sodium.h</text>
</a>
</g>
</g>
<!-- Node21&#45;&gt;Node24 -->
<g id="edge34" class="edge">
<title>Node21&#45;&gt;Node24</title>
<path fill="none" stroke="midnightblue" d="M596.74,-128.98C606.16,-119.78 621.36,-104.96 632.95,-93.66"/>
<polygon fill="midnightblue" stroke="midnightblue" points="635.56,-96 640.28,-86.51 630.67,-90.99 635.56,-96"/>
</g>
<!-- Node25 -->
<g id="node25" class="node">
<title>Node25</title>
<g id="a_node25"><a xlink:title=" ">
<polygon fill="white" stroke="#bfbfbf" points="500.5,-67.5 500.5,-86.5 543.5,-86.5 543.5,-67.5 500.5,-67.5"/>
<text text-anchor="middle" x="522" y="-74.5" font-family="Helvetica,sans-Serif" font-size="10.00">queue</text>
</a>
</g>
</g>
<!-- Node21&#45;&gt;Node25 -->
<g id="edge35" class="edge">
<title>Node21&#45;&gt;Node25</title>
<path fill="none" stroke="midnightblue" d="M578.54,-128.98C568.25,-119.7 551.58,-104.67 539.01,-93.33"/>
<polygon fill="midnightblue" stroke="midnightblue" points="541.21,-90.61 531.44,-86.51 536.52,-95.8 541.21,-90.61"/>
</g>
<!-- Node26 -->
<g id="node26" class="node">
<title>Node26</title>
<g id="a_node26"><a xlink:title=" ">
<polygon fill="white" stroke="#bfbfbf" points="561.5,-67.5 561.5,-86.5 602.5,-86.5 602.5,-67.5 561.5,-67.5"/>
<text text-anchor="middle" x="582" y="-74.5" font-family="Helvetica,sans-Serif" font-size="10.00">string</text>
</a>
</g>
</g>
<!-- Node21&#45;&gt;Node26 -->
<g id="edge36" class="edge">
<title>Node21&#45;&gt;Node26</title>
<path fill="none" stroke="midnightblue" d="M587.14,-128.98C586.29,-120.58 584.97,-107.48 583.88,-96.66"/>
<polygon fill="midnightblue" stroke="midnightblue" points="587.34,-96.11 582.86,-86.51 580.38,-96.81 587.34,-96.11"/>
</g>
<!-- Node22&#45;&gt;Node16 -->
<g id="edge31" class="edge">
<title>Node22&#45;&gt;Node16</title>
<path fill="none" stroke="midnightblue" d="M482.57,-68.38C485.76,-67.91 488.92,-67.44 492,-67 609.2,-50.07 639.29,-51.02 756,-31 759.02,-30.48 762.11,-29.93 765.23,-29.35"/>
<polygon fill="midnightblue" stroke="midnightblue" points="766.06,-32.76 775.23,-27.44 764.75,-25.88 766.06,-32.76"/>
</g>
<!-- Node23 -->
<g id="node23" class="node">
<title>Node23</title>
<g id="a_node23"><a xlink:title=" ">
<polygon fill="white" stroke="#bfbfbf" points="407,-6 407,-25 459,-25 459,-6 407,-6"/>
<text text-anchor="middle" x="433" y="-13" font-family="Helvetica,sans-Serif" font-size="10.00">assert.h</text>
</a>
</g>
</g>
<!-- Node22&#45;&gt;Node23 -->
<g id="edge32" class="edge">
<title>Node22&#45;&gt;Node23</title>
<path fill="none" stroke="midnightblue" d="M433,-67.48C433,-59.08 433,-45.98 433,-35.16"/>
<polygon fill="midnightblue" stroke="midnightblue" points="436.5,-35.01 433,-25.01 429.5,-35.01 436.5,-35.01"/>
</g>
<!-- Node27&#45;&gt;Node5 -->
<g id="edge38" class="edge">
<title>Node27&#45;&gt;Node5</title>
<path fill="none" stroke="midnightblue" d="M2143.1,-210.19C2233.06,-209.18 2430.94,-198.57 2369,-123 2308.01,-48.59 2005.56,-25.12 1885.87,-18.67"/>
<polygon fill="midnightblue" stroke="midnightblue" points="1886.05,-15.18 1875.89,-18.15 1885.69,-22.17 1886.05,-15.18"/>
</g>
<!-- Node27&#45;&gt;Node17 -->
<g id="edge44" class="edge">
<title>Node27&#45;&gt;Node17</title>
<path fill="none" stroke="midnightblue" d="M2106.79,-201.25C2117.5,-183.87 2137.53,-144.8 2117,-123 2104.37,-109.59 1530.03,-84.81 1395.14,-79.16"/>
<polygon fill="midnightblue" stroke="midnightblue" points="1394.97,-75.65 1384.83,-78.73 1394.68,-82.65 1394.97,-75.65"/>
</g>
<!-- Node27&#45;&gt;Node19 -->
<g id="edge43" class="edge">
<title>Node27&#45;&gt;Node19</title>
<path fill="none" stroke="midnightblue" d="M2058.79,-202.74C2011.31,-193.92 1932.31,-177.29 1867,-154 1865.57,-153.49 1864.12,-152.93 1862.66,-152.34"/>
<polygon fill="midnightblue" stroke="midnightblue" points="1863.79,-149.01 1853.23,-148.13 1860.94,-155.4 1863.79,-149.01"/>
</g>
<!-- Node27&#45;&gt;Node28 -->
<g id="edge39" class="edge">
<title>Node27&#45;&gt;Node28</title>
<path fill="none" stroke="midnightblue" d="M2096.71,-201.36C2091.3,-190.47 2081.88,-171.48 2074.89,-157.41"/>
<polygon fill="midnightblue" stroke="midnightblue" points="2077.91,-155.62 2070.33,-148.22 2071.64,-158.73 2077.91,-155.62"/>
</g>
<!-- Node29 -->
<g id="node29" class="node">
<title>Node29</title>
<g id="a_node29"><a xlink:title=" ">
<polygon fill="white" stroke="#bfbfbf" points="2164,-123.5 2164,-153.5 2264,-153.5 2264,-123.5 2164,-123.5"/>
<text text-anchor="start" x="2172" y="-141.5" font-family="Helvetica,sans-Serif" font-size="10.00">gradido_blockchain</text>
<text text-anchor="middle" x="2214" y="-130.5" font-family="Helvetica,sans-Serif" font-size="10.00">/lib/DRHashList.h</text>
</a>
</g>
</g>
<!-- Node27&#45;&gt;Node29 -->
<g id="edge40" class="edge">
<title>Node27&#45;&gt;Node29</title>
<path fill="none" stroke="midnightblue" d="M2114.86,-201.36C2131.64,-190.88 2160.42,-172.93 2182.67,-159.05"/>
<polygon fill="midnightblue" stroke="midnightblue" points="2184.81,-161.84 2191.44,-153.58 2181.1,-155.9 2184.81,-161.84"/>
</g>
<!-- Node30 -->
<g id="node30" class="node">
<title>Node30</title>
<g id="a_node30"><a xlink:title=" ">
<polygon fill="white" stroke="#bfbfbf" points="1876,-123.5 1876,-153.5 2006,-153.5 2006,-123.5 1876,-123.5"/>
<text text-anchor="start" x="1884" y="-141.5" font-family="Helvetica,sans-Serif" font-size="10.00">gradido_blockchain</text>
<text text-anchor="middle" x="1941" y="-130.5" font-family="Helvetica,sans-Serif" font-size="10.00">/lib/MultithreadContainer.h</text>
</a>
</g>
</g>
<!-- Node27&#45;&gt;Node30 -->
<g id="edge41" class="edge">
<title>Node27&#45;&gt;Node30</title>
<path fill="none" stroke="midnightblue" d="M2081.7,-201.5C2057.22,-190.71 2014.34,-171.82 1982.34,-157.71"/>
<polygon fill="midnightblue" stroke="midnightblue" points="1983.35,-154.34 1972.79,-153.51 1980.53,-160.74 1983.35,-154.34"/>
</g>
<!-- Node31 -->
<g id="node31" class="node">
<title>Node31</title>
<g id="a_node31"><a xlink:href="_task_8h.html" target="_top" xlink:title=" ">
<polygon fill="white" stroke="black" points="2282.5,-129 2282.5,-148 2359.5,-148 2359.5,-129 2282.5,-129"/>
<text text-anchor="middle" x="2321" y="-136" font-family="Helvetica,sans-Serif" font-size="10.00">../task/Task.h</text>
</a>
</g>
</g>
<!-- Node27&#45;&gt;Node31 -->
<g id="edge42" class="edge">
<title>Node27&#45;&gt;Node31</title>
<path fill="none" stroke="midnightblue" d="M2127.54,-201.5C2166.77,-188.92 2240.35,-165.34 2284.59,-151.17"/>
<polygon fill="midnightblue" stroke="midnightblue" points="2285.91,-154.42 2294.37,-148.03 2283.78,-147.75 2285.91,-154.42"/>
</g>
<!-- Node34&#45;&gt;Node11 -->
<g id="edge50" class="edge">
<title>Node34&#45;&gt;Node11</title>
<path fill="none" stroke="midnightblue" d="M814.95,-128.8C796.3,-108.65 749.93,-58.56 725.93,-32.62"/>
<polygon fill="midnightblue" stroke="midnightblue" points="728.34,-30.08 718.98,-25.12 723.21,-34.84 728.34,-30.08"/>
</g>
<!-- Node34&#45;&gt;Node14 -->
<g id="edge48" class="edge">
<title>Node34&#45;&gt;Node14</title>
<path fill="none" stroke="midnightblue" d="M843.35,-128.98C867.39,-118.9 907.6,-102.05 935.16,-90.5"/>
<polygon fill="midnightblue" stroke="midnightblue" points="936.82,-93.6 944.69,-86.51 934.12,-87.15 936.82,-93.6"/>
</g>
<!-- Node35 -->
<g id="node35" class="node">
<title>Node35</title>
<g id="a_node35"><a xlink:title=" ">
<polygon fill="white" stroke="#bfbfbf" points="809,-67.5 809,-86.5 877,-86.5 877,-67.5 809,-67.5"/>
<text text-anchor="middle" x="843" y="-74.5" font-family="Helvetica,sans-Serif" font-size="10.00">leveldb/db.h</text>
</a>
</g>
</g>
<!-- Node34&#45;&gt;Node35 -->
<g id="edge49" class="edge">
<title>Node34&#45;&gt;Node35</title>
<path fill="none" stroke="midnightblue" d="M825.87,-128.98C828.72,-120.49 833.18,-107.2 836.84,-96.32"/>
<polygon fill="midnightblue" stroke="midnightblue" points="840.27,-97.1 840.14,-86.51 833.64,-94.87 840.27,-97.1"/>
</g>
<!-- Node37&#45;&gt;Node17 -->
<g id="edge60" class="edge">
<title>Node37&#45;&gt;Node17</title>
<path fill="none" stroke="midnightblue" d="M1635.9,-201.46C1629,-183.76 1610.62,-143.05 1581,-123 1523.18,-83.86 1437.99,-77.73 1394.59,-77.38"/>
<polygon fill="midnightblue" stroke="midnightblue" points="1394.5,-73.88 1384.5,-77.4 1394.51,-80.88 1394.5,-73.88"/>
</g>
<!-- Node37&#45;&gt;Node19 -->
<g id="edge59" class="edge">
<title>Node37&#45;&gt;Node19</title>
<path fill="none" stroke="midnightblue" d="M1668.55,-201.41C1702.43,-191.27 1759.43,-173.33 1807,-154 1808.37,-153.44 1809.77,-152.85 1811.18,-152.24"/>
<polygon fill="midnightblue" stroke="midnightblue" points="1812.73,-155.38 1820.35,-148.01 1809.81,-149.02 1812.73,-155.38"/>
</g>
<!-- Node37&#45;&gt;Node30 -->
<g id="edge54" class="edge">
<title>Node37&#45;&gt;Node30</title>
<path fill="none" stroke="midnightblue" d="M1675.43,-201.5C1723.73,-190.22 1809.96,-170.09 1871.05,-155.83"/>
<polygon fill="midnightblue" stroke="midnightblue" points="1872.06,-159.19 1881,-153.51 1870.47,-152.37 1872.06,-159.19"/>
</g>
<!-- Node38 -->
<g id="node38" class="node">
<title>Node38</title>
<g id="a_node38"><a xlink:title=" ">
<polygon fill="white" stroke="#bfbfbf" points="1718,-129 1718,-148 1798,-148 1798,-129 1718,-129"/>
<text text-anchor="middle" x="1758" y="-136" font-family="Helvetica,sans-Serif" font-size="10.00">Poco/Logger.h</text>
</a>
</g>
</g>
<!-- Node37&#45;&gt;Node38 -->
<g id="edge53" class="edge">
<title>Node37&#45;&gt;Node38</title>
<path fill="none" stroke="midnightblue" d="M1653.59,-201.36C1673.75,-189.41 1710.37,-167.72 1734.43,-153.46"/>
<polygon fill="midnightblue" stroke="midnightblue" points="1736.47,-156.32 1743.29,-148.22 1732.9,-150.3 1736.47,-156.32"/>
</g>
<!-- Node39 -->
<g id="node39" class="node">
<title>Node39</title>
<g id="a_node39"><a xlink:href="_fuzzy_timer_8h.html" target="_top" xlink:title=" ">
<polygon fill="white" stroke="black" points="1474,-129 1474,-148 1572,-148 1572,-129 1474,-129"/>
<text text-anchor="middle" x="1523" y="-136" font-family="Helvetica,sans-Serif" font-size="10.00">../lib/FuzzyTimer.h</text>
</a>
</g>
</g>
<!-- Node37&#45;&gt;Node39 -->
<g id="edge55" class="edge">
<title>Node37&#45;&gt;Node39</title>
<path fill="none" stroke="midnightblue" d="M1624.78,-201.36C1605.12,-189.41 1569.43,-167.72 1545.97,-153.46"/>
<polygon fill="midnightblue" stroke="midnightblue" points="1547.7,-150.42 1537.34,-148.22 1544.07,-156.4 1547.7,-150.42"/>
</g>
<!-- Node40 -->
<g id="node40" class="node">
<title>Node40</title>
<g id="a_node40"><a xlink:href="_message_id_8h.html" target="_top" xlink:title=" ">
<polygon fill="white" stroke="black" points="1628,-129 1628,-148 1700,-148 1700,-129 1628,-129"/>
<text text-anchor="middle" x="1664" y="-136" font-family="Helvetica,sans-Serif" font-size="10.00">MessageId.h</text>
</a>
</g>
</g>
<!-- Node37&#45;&gt;Node40 -->
<g id="edge56" class="edge">
<title>Node37&#45;&gt;Node40</title>
<path fill="none" stroke="midnightblue" d="M1642.07,-201.36C1645.89,-190.57 1652.53,-171.85 1657.5,-157.82"/>
<polygon fill="midnightblue" stroke="midnightblue" points="1660.87,-158.81 1660.91,-148.22 1654.27,-156.47 1660.87,-158.81"/>
</g>
<!-- Node40&#45;&gt;Node16 -->
<g id="edge58" class="edge">
<title>Node40&#45;&gt;Node16</title>
<path fill="none" stroke="midnightblue" d="M1637.9,-128.96C1590.11,-113.71 1485.06,-81.99 1394,-67 1173.29,-30.66 1113.37,-63.08 892,-31 890.28,-30.75 888.55,-30.48 886.79,-30.2"/>
<polygon fill="midnightblue" stroke="midnightblue" points="887.13,-26.7 876.67,-28.41 885.91,-33.6 887.13,-26.7"/>
</g>
<!-- Node41 -->
<g id="node41" class="node">
<title>Node41</title>
<g id="a_node41"><a xlink:title=" ">
<polygon fill="white" stroke="#bfbfbf" points="1639.5,-67.5 1639.5,-86.5 1688.5,-86.5 1688.5,-67.5 1639.5,-67.5"/>
<text text-anchor="middle" x="1664" y="-74.5" font-family="Helvetica,sans-Serif" font-size="10.00">cassert</text>
</a>
</g>
</g>
<!-- Node40&#45;&gt;Node41 -->
<g id="edge57" class="edge">
<title>Node40&#45;&gt;Node41</title>
<path fill="none" stroke="midnightblue" d="M1664,-128.98C1664,-120.58 1664,-107.48 1664,-96.66"/>
<polygon fill="midnightblue" stroke="midnightblue" points="1667.5,-96.51 1664,-86.51 1660.5,-96.51 1667.5,-96.51"/>
</g>
<!-- Node45&#45;&gt;Node2 -->
<g id="edge77" class="edge">
<title>Node45&#45;&gt;Node2</title>
<path fill="none" stroke="midnightblue" d="M304.35,-201.49C249.49,-191.56 157.8,-173.93 80,-154 76.4,-153.08 72.66,-152.05 68.94,-150.98"/>
<polygon fill="midnightblue" stroke="midnightblue" points="69.8,-147.58 59.22,-148.08 67.81,-154.29 69.8,-147.58"/>
</g>
<!-- Node45&#45;&gt;Node11 -->
<g id="edge71" class="edge">
<title>Node45&#45;&gt;Node11</title>
<path fill="none" stroke="midnightblue" d="M298.99,-205.09C235.47,-198.06 135.77,-182.7 113,-154 104.44,-143.21 105.36,-134.47 113,-123 148.78,-69.27 184.49,-83.1 247,-67 325.44,-46.79 564.35,-27.35 665.26,-19.8"/>
<polygon fill="midnightblue" stroke="midnightblue" points="665.72,-23.27 675.44,-19.04 665.2,-16.29 665.72,-23.27"/>
</g>
<!-- Node45&#45;&gt;Node14 -->
<g id="edge70" class="edge">
<title>Node45&#45;&gt;Node14</title>
<path fill="none" stroke="midnightblue" d="M391.1,-201.49C410.2,-197.49 433.73,-192.96 455,-190 550.19,-176.73 798.43,-193.6 886,-154 914.65,-141.05 939.22,-113.16 953.05,-95.01"/>
<polygon fill="midnightblue" stroke="midnightblue" points="956.17,-96.67 959.26,-86.54 950.53,-92.53 956.17,-96.67"/>
</g>
<!-- Node45&#45;&gt;Node16 -->
<g id="edge75" class="edge">
<title>Node45&#45;&gt;Node16</title>
<path fill="none" stroke="midnightblue" d="M395.64,-201.42C413.9,-197.8 435.48,-193.6 455,-190 547.26,-172.97 577.96,-193.63 663,-154 723.38,-125.87 779.4,-69.36 807.37,-38.26"/>
<polygon fill="midnightblue" stroke="midnightblue" points="810.17,-40.38 814.17,-30.57 804.93,-35.74 810.17,-40.38"/>
</g>
<!-- Node45&#45;&gt;Node39 -->
<g id="edge76" class="edge">
<title>Node45&#45;&gt;Node39</title>
<path fill="none" stroke="midnightblue" d="M389.13,-201.47C408.54,-197.25 432.95,-192.54 455,-190 901.23,-138.63 1020.24,-216.81 1465,-154 1471.27,-153.11 1477.85,-151.83 1484.23,-150.38"/>
<polygon fill="midnightblue" stroke="midnightblue" points="1485.13,-153.76 1494.03,-148.01 1483.48,-146.96 1485.13,-153.76"/>
</g>
<!-- Node46 -->
<g id="node46" class="node">
<title>Node46</title>
<g id="a_node46"><a xlink:title=" ">
<polygon fill="white" stroke="#bfbfbf" points="122,-129 122,-148 220,-148 220,-129 122,-129"/>
<text text-anchor="middle" x="171" y="-136" font-family="Helvetica,sans-Serif" font-size="10.00">Poco/FileStream.h</text>
</a>
</g>
</g>
<!-- Node45&#45;&gt;Node46 -->
<g id="edge72" class="edge">
<title>Node45&#45;&gt;Node46</title>
<path fill="none" stroke="midnightblue" d="M331.05,-201.5C299.07,-189.11 239.51,-166.04 202.75,-151.8"/>
<polygon fill="midnightblue" stroke="midnightblue" points="203.62,-148.38 193.03,-148.03 201.09,-154.91 203.62,-148.38"/>
</g>
<!-- Node45&#45;&gt;Node47 -->
<g id="edge73" class="edge">
<title>Node45&#45;&gt;Node47</title>
<path fill="none" stroke="midnightblue" d="M356.19,-201.36C360.16,-190.57 367.07,-171.85 372.24,-157.82"/>
<polygon fill="midnightblue" stroke="midnightblue" points="375.61,-158.81 375.79,-148.22 369.04,-156.39 375.61,-158.81"/>
</g>
<!-- Node48 -->
<g id="node48" class="node">
<title>Node48</title>
<g id="a_node48"><a xlink:title=" ">
<polygon fill="white" stroke="#bfbfbf" points="238,-129 238,-148 312,-148 312,-129 238,-129"/>
<text text-anchor="middle" x="275" y="-136" font-family="Helvetica,sans-Serif" font-size="10.00">Poco/Timer.h</text>
</a>
</g>
</g>
<!-- Node45&#45;&gt;Node48 -->
<g id="edge74" class="edge">
<title>Node45&#45;&gt;Node48</title>
<path fill="none" stroke="midnightblue" d="M343.44,-201.36C330.69,-189.83 307.91,-169.24 292.15,-155"/>
<polygon fill="midnightblue" stroke="midnightblue" points="294.41,-152.32 284.64,-148.22 289.71,-157.52 294.41,-152.32"/>
</g>
</g>
</svg>
