<?xml version="1.0" encoding="UTF-8" standalone="no"?>
<!DOCTYPE svg PUBLIC "-//W3C//DTD SVG 1.1//EN"
 "http://www.w3.org/Graphics/SVG/1.1/DTD/svg11.dtd">
<!-- Generated by graphviz version 2.50.0 (20211204.2007)
 -->
<!-- Title: src/lib/base58.c Pages: 1 -->
<svg width="340pt" height="140pt"
 viewBox="0.00 0.00 340.20 140.00" xmlns="http://www.w3.org/2000/svg" xmlns:xlink="http://www.w3.org/1999/xlink">
<g id="graph0" class="graph" transform="scale(1 1) rotate(0) translate(4 136)">
<title>src/lib/base58.c</title>
<polygon fill="white" stroke="transparent" points="-4,4 -4,-136 336.2,-136 336.2,4 -4,4"/>
<!-- Node1 -->
<g id="node1" class="node">
<title>Node1</title>
<g id="a_node1"><a xlink:title=" ">
<polygon fill="#bfbfbf" stroke="black" points="146,-112.5 146,-131.5 232,-131.5 232,-112.5 146,-112.5"/>
<text text-anchor="middle" x="189" y="-119.5" font-family="Helvetica,sans-Serif" font-size="10.00">src/lib/base58.c</text>
</a>
</g>
</g>
<!-- Node2 -->
<g id="node2" class="node">
<title>Node2</title>
<g id="a_node2"><a xlink:title=" ">
<polygon fill="white" stroke="#bfbfbf" points="0,-56.5 0,-75.5 62,-75.5 62,-56.5 0,-56.5"/>
<text text-anchor="middle" x="31" y="-63.5" font-family="Helvetica,sans-Serif" font-size="10.00">arpa/inet.h</text>
</a>
</g>
</g>
<!-- Node1&#45;&gt;Node2 -->
<g id="edge1" class="edge">
<title>Node1&#45;&gt;Node2</title>
<path fill="none" stroke="midnightblue" d="M163.96,-112.44C137.38,-103.36 95.19,-88.94 65.48,-78.78"/>
<polygon fill="midnightblue" stroke="midnightblue" points="66.51,-75.44 55.92,-75.52 64.25,-82.06 66.51,-75.44"/>
</g>
<!-- Node3 -->
<g id="node3" class="node">
<title>Node3</title>
<g id="a_node3"><a xlink:title=" ">
<polygon fill="white" stroke="#bfbfbf" points="92,-0.5 92,-19.5 148,-19.5 148,-0.5 92,-0.5"/>
<text text-anchor="middle" x="120" y="-7.5" font-family="Helvetica,sans-Serif" font-size="10.00">stdbool.h</text>
</a>
</g>
</g>
<!-- Node1&#45;&gt;Node3 -->
<g id="edge2" class="edge">
<title>Node1&#45;&gt;Node3</title>
<path fill="none" stroke="midnightblue" d="M158.75,-112.49C140.87,-105.73 119.7,-94.29 109,-76 100.62,-61.67 105.27,-42.72 110.87,-28.97"/>
<polygon fill="midnightblue" stroke="midnightblue" points="114.16,-30.2 115.14,-19.65 107.79,-27.28 114.16,-30.2"/>
</g>
<!-- Node4 -->
<g id="node4" class="node">
<title>Node4</title>
<g id="a_node4"><a xlink:title=" ">
<polygon fill="white" stroke="#bfbfbf" points="243.5,-0.5 243.5,-19.5 294.5,-19.5 294.5,-0.5 243.5,-0.5"/>
<text text-anchor="middle" x="269" y="-7.5" font-family="Helvetica,sans-Serif" font-size="10.00">stddef.h</text>
</a>
</g>
</g>
<!-- Node1&#45;&gt;Node4 -->
<g id="edge3" class="edge">
<title>Node1&#45;&gt;Node4</title>
<path fill="none" stroke="midnightblue" d="M232.2,-119.77C264.36,-116.3 306.29,-105.85 328,-76 341.88,-56.91 317.37,-37.13 295.85,-24.48"/>
<polygon fill="midnightblue" stroke="midnightblue" points="297.36,-21.32 286.92,-19.52 293.96,-27.44 297.36,-21.32"/>
</g>
<!-- Node5 -->
<g id="node5" class="node">
<title>Node5</title>
<g id="a_node5"><a xlink:title=" ">
<polygon fill="white" stroke="#bfbfbf" points="202.5,-56.5 202.5,-75.5 251.5,-75.5 251.5,-56.5 202.5,-56.5"/>
<text text-anchor="middle" x="227" y="-63.5" font-family="Helvetica,sans-Serif" font-size="10.00">stdint.h</text>
</a>
</g>
</g>
<!-- Node1&#45;&gt;Node5 -->
<g id="edge4" class="edge">
<title>Node1&#45;&gt;Node5</title>
<path fill="none" stroke="midnightblue" d="M195.27,-112.08C200.64,-104.46 208.52,-93.26 215.08,-83.94"/>
<polygon fill="midnightblue" stroke="midnightblue" points="217.95,-85.94 220.84,-75.75 212.22,-81.91 217.95,-85.94"/>
</g>
<!-- Node6 -->
<g id="node6" class="node">
<title>Node6</title>
<g id="a_node6"><a xlink:title=" ">
<polygon fill="white" stroke="#bfbfbf" points="269.5,-56.5 269.5,-75.5 318.5,-75.5 318.5,-56.5 269.5,-56.5"/>
<text text-anchor="middle" x="294" y="-63.5" font-family="Helvetica,sans-Serif" font-size="10.00">string.h</text>
</a>
</g>
</g>
<!-- Node1&#45;&gt;Node6 -->
<g id="edge5" class="edge">
<title>Node1&#45;&gt;Node6</title>
<path fill="none" stroke="midnightblue" d="M205.87,-112.32C222.71,-103.66 248.81,-90.24 268.24,-80.25"/>
<polygon fill="midnightblue" stroke="midnightblue" points="269.88,-83.34 277.17,-75.65 266.68,-77.12 269.88,-83.34"/>
</g>
<!-- Node7 -->
<g id="node7" class="node">
<title>Node7</title>
<g id="a_node7"><a xlink:href="libbase58_8h.html" target="_top" xlink:title=" ">
<polygon fill="white" stroke="black" points="118,-56.5 118,-75.5 184,-75.5 184,-56.5 118,-56.5"/>
<text text-anchor="middle" x="151" y="-63.5" font-family="Helvetica,sans-Serif" font-size="10.00">libbase58.h</text>
</a>
</g>
</g>
<!-- Node1&#45;&gt;Node7 -->
<g id="edge6" class="edge">
<title>Node1&#45;&gt;Node7</title>
<path fill="none" stroke="midnightblue" d="M182.73,-112.08C177.36,-104.46 169.48,-93.26 162.92,-83.94"/>
<polygon fill="midnightblue" stroke="midnightblue" points="165.78,-81.91 157.16,-75.75 160.05,-85.94 165.78,-81.91"/>
</g>
<!-- Node7&#45;&gt;Node3 -->
<g id="edge7" class="edge">
<title>Node7&#45;&gt;Node3</title>
<path fill="none" stroke="midnightblue" d="M145.88,-56.08C141.59,-48.61 135.34,-37.72 130.06,-28.52"/>
<polygon fill="midnightblue" stroke="midnightblue" points="133.04,-26.68 125.02,-19.75 126.97,-30.17 133.04,-26.68"/>
</g>
<!-- Node7&#45;&gt;Node4 -->
<g id="edge8" class="edge">
<title>Node7&#45;&gt;Node4</title>
<path fill="none" stroke="midnightblue" d="M169.7,-56.44C188.94,-47.64 219.15,-33.81 241.2,-23.72"/>
<polygon fill="midnightblue" stroke="midnightblue" points="242.75,-26.86 250.39,-19.52 239.84,-20.5 242.75,-26.86"/>
</g>
</g>
</svg>
