<?xml version="1.0" encoding="UTF-8" standalone="no"?>
<!DOCTYPE svg PUBLIC "-//W3C//DTD SVG 1.1//EN"
 "http://www.w3.org/Graphics/SVG/1.1/DTD/svg11.dtd">
<!-- Generated by graphviz version 2.50.0 (20211204.2007)
 -->
<!-- Title: model::files::State Pages: 1 -->
<svg width="132pt" height="342pt"
 viewBox="0.00 0.00 132.00 342.00" xmlns="http://www.w3.org/2000/svg" xmlns:xlink="http://www.w3.org/1999/xlink">
<g id="graph0" class="graph" transform="scale(1 1) rotate(0) translate(4 338)">
<title>model::files::State</title>
<polygon fill="white" stroke="transparent" points="-4,4 -4,-338 128,-338 128,4 -4,4"/>
<!-- Node1 -->
<g id="node1" class="node">
<title>Node1</title>
<g id="a_node1"><a xlink:title=" ">
<polygon fill="#bfbfbf" stroke="black" points="1,-0.5 1,-112.5 123,-112.5 123,-0.5 1,-0.5"/>
<text text-anchor="middle" x="62" y="-100.5" font-family="Helvetica,sans-Serif" font-size="10.00">model::files::State</text>
<polyline fill="none" stroke="black" points="1,-93.5 123,-93.5 "/>
<text text-anchor="start" x="9" y="-81.5" font-family="Helvetica,sans-Serif" font-size="10.00"># mLevelDB</text>
<polyline fill="none" stroke="black" points="1,-74.5 123,-74.5 "/>
<text text-anchor="start" x="9" y="-62.5" font-family="Helvetica,sans-Serif" font-size="10.00">+ State()</text>
<text text-anchor="start" x="9" y="-51.5" font-family="Helvetica,sans-Serif" font-size="10.00">+ ~State()</text>
<text text-anchor="start" x="9" y="-40.5" font-family="Helvetica,sans-Serif" font-size="10.00">+ getValueForKey()</text>
<text text-anchor="start" x="9" y="-29.5" font-family="Helvetica,sans-Serif" font-size="10.00">+ getInt32ValueForKey()</text>
<text text-anchor="start" x="9" y="-18.5" font-family="Helvetica,sans-Serif" font-size="10.00">+ addKeyValue()</text>
<text text-anchor="start" x="9" y="-7.5" font-family="Helvetica,sans-Serif" font-size="10.00">+ setKeyValue()</text>
</a>
</g>
</g>
<!-- Node2 -->
<g id="node2" class="node">
<title>Node2</title>
<g id="a_node2"><a xlink:href="classmodel_1_1files_1_1_file_base.html" target="_top" xlink:title=" ">
<polygon fill="white" stroke="black" points="7,-149.5 7,-239.5 117,-239.5 117,-149.5 7,-149.5"/>
<text text-anchor="middle" x="62" y="-227.5" font-family="Helvetica,sans-Serif" font-size="10.00">model::files::FileBase</text>
<polyline fill="none" stroke="black" points="7,-220.5 117,-220.5 "/>
<text text-anchor="start" x="15" y="-208.5" font-family="Helvetica,sans-Serif" font-size="10.00"># mFastMutex</text>
<text text-anchor="start" x="15" y="-197.5" font-family="Helvetica,sans-Serif" font-size="10.00"># mReferenceMutex</text>
<text text-anchor="start" x="15" y="-186.5" font-family="Helvetica,sans-Serif" font-size="10.00"># mRefCount</text>
<polyline fill="none" stroke="black" points="7,-179.5 117,-179.5 "/>
<text text-anchor="start" x="15" y="-167.5" font-family="Helvetica,sans-Serif" font-size="10.00">+ FileBase()</text>
<text text-anchor="start" x="15" y="-156.5" font-family="Helvetica,sans-Serif" font-size="10.00"># ~FileBase()</text>
</a>
</g>
</g>
<!-- Node2&#45;&gt;Node1 -->
<g id="edge1" class="edge">
<title>Node2&#45;&gt;Node1</title>
<path fill="none" stroke="midnightblue" d="M62,-139.31C62,-130.61 62,-121.59 62,-112.87"/>
<polygon fill="none" stroke="midnightblue" points="58.5,-139.34 62,-149.34 65.5,-139.34 58.5,-139.34"/>
</g>
<!-- Node3 -->
<g id="node3" class="node">
<title>Node3</title>
<g id="a_node3"><a xlink:title=" ">
<polygon fill="white" stroke="black" points="0,-276.5 0,-333.5 124,-333.5 124,-276.5 0,-276.5"/>
<text text-anchor="middle" x="62" y="-321.5" font-family="Helvetica,sans-Serif" font-size="10.00">Poco::RefCountedObject</text>
<polyline fill="none" stroke="black" points="0,-314.5 124,-314.5 "/>
<text text-anchor="middle" x="62" y="-302.5" font-family="Helvetica,sans-Serif" font-size="10.00"> </text>
<polyline fill="none" stroke="black" points="0,-295.5 124,-295.5 "/>
<text text-anchor="middle" x="62" y="-283.5" font-family="Helvetica,sans-Serif" font-size="10.00"> </text>
</a>
</g>
</g>
<!-- Node3&#45;&gt;Node2 -->
<g id="edge2" class="edge">
<title>Node3&#45;&gt;Node2</title>
<path fill="none" stroke="midnightblue" d="M62,-266.21C62,-257.61 62,-248.39 62,-239.55"/>
<polygon fill="none" stroke="midnightblue" points="58.5,-266.34 62,-276.34 65.5,-266.34 58.5,-266.34"/>
</g>
</g>
</svg>
