<?xml version="1.0" encoding="UTF-8" standalone="no"?>
<!DOCTYPE svg PUBLIC "-//W3C//DTD SVG 1.1//EN"
 "http://www.w3.org/Graphics/SVG/1.1/DTD/svg11.dtd">
<!-- Generated by graphviz version 2.50.0 (20211204.2007)
 -->
<!-- Title: VirtualFile::read Pages: 1 -->
<svg width="568pt" height="212pt"
 viewBox="0.00 0.00 568.00 212.05" xmlns="http://www.w3.org/2000/svg" xmlns:xlink="http://www.w3.org/1999/xlink">
<g id="graph0" class="graph" transform="scale(1 1) rotate(0) translate(4 208.05)">
<title>VirtualFile::read</title>
<polygon fill="white" stroke="transparent" points="-4,4 -4,-208.05 564,-208.05 564,4 -4,4"/>
<!-- Node1 -->
<g id="node1" class="node">
<title>Node1</title>
<g id="a_node1"><a xlink:title="copy from buffer over into dst, move cursor">
<polygon fill="#bfbfbf" stroke="black" points="475,-104 475,-123 560,-123 560,-104 475,-104"/>
<text text-anchor="middle" x="517.5" y="-111" font-family="Helvetica,sans-Serif" font-size="10.00">VirtualFile::read</text>
</a>
</g>
</g>
<!-- Node2 -->
<g id="node2" class="node">
<title>Node2</title>
<g id="a_node2"><a xlink:href="classmodel_1_1files_1_1_block_index.html#ae197b4a43d106d58b23a102f2598ca0c" target="_top" xlink:title="read from file, put content into receiver">
<polygon fill="white" stroke="black" points="146,-169.5 146,-199.5 266,-199.5 266,-169.5 146,-169.5"/>
<text text-anchor="start" x="154" y="-187.5" font-family="Helvetica,sans-Serif" font-size="10.00">model::files::BlockIndex</text>
<text text-anchor="middle" x="206" y="-176.5" font-family="Helvetica,sans-Serif" font-size="10.00">::readFromFile</text>
</a>
</g>
</g>
<!-- Node1&#45;&gt;Node2 -->
<g id="edge1" class="edge">
<title>Node1&#45;&gt;Node2</title>
<path fill="none" stroke="midnightblue" d="M504.09,-131.64C490.52,-149.7 466.94,-176.3 439,-187.5 383.66,-209.68 314.77,-205.21 266.49,-197.49"/>
<polygon fill="midnightblue" stroke="midnightblue" points="507.24,-133.26 510.24,-123.1 501.56,-129.16 507.24,-133.26"/>
</g>
<!-- Node4 -->
<g id="node4" class="node">
<title>Node4</title>
<g id="a_node4"><a xlink:href="structmodel_1_1files_1_1_block_index_1_1_block.html#af6656e044626dfb1bf1c7efdb43794c5" target="_top" xlink:title="return false if reading failed, file to short?">
<polygon fill="white" stroke="black" points="310.5,-147.5 310.5,-177.5 430.5,-177.5 430.5,-147.5 310.5,-147.5"/>
<text text-anchor="start" x="318.5" y="-165.5" font-family="Helvetica,sans-Serif" font-size="10.00">model::files::BlockIndex</text>
<text text-anchor="middle" x="370.5" y="-154.5" font-family="Helvetica,sans-Serif" font-size="10.00">::Block::readFromFile</text>
</a>
</g>
</g>
<!-- Node1&#45;&gt;Node4 -->
<g id="edge3" class="edge">
<title>Node1&#45;&gt;Node4</title>
<path fill="none" stroke="midnightblue" d="M478.59,-126.31C459.42,-132.79 436.02,-140.7 416,-147.46"/>
<polygon fill="midnightblue" stroke="midnightblue" points="479.85,-129.58 488.2,-123.06 477.6,-122.95 479.85,-129.58"/>
</g>
<!-- Node5 -->
<g id="node5" class="node">
<title>Node5</title>
<g id="a_node5"><a xlink:href="structmodel_1_1files_1_1_block_index_1_1_year_block.html#a71a29b5956b8dd001a6afbce0c2a7397" target="_top" xlink:title="return false if reading failed, file to short?">
<polygon fill="white" stroke="black" points="305,-98.5 305,-128.5 436,-128.5 436,-98.5 305,-98.5"/>
<text text-anchor="start" x="313" y="-116.5" font-family="Helvetica,sans-Serif" font-size="10.00">model::files::BlockIndex</text>
<text text-anchor="middle" x="370.5" y="-105.5" font-family="Helvetica,sans-Serif" font-size="10.00">::YearBlock::readFromFile</text>
</a>
</g>
</g>
<!-- Node1&#45;&gt;Node5 -->
<g id="edge5" class="edge">
<title>Node1&#45;&gt;Node5</title>
<path fill="none" stroke="midnightblue" d="M464.71,-113.5C455.43,-113.5 445.65,-113.5 436.05,-113.5"/>
<polygon fill="midnightblue" stroke="midnightblue" points="464.95,-117 474.95,-113.5 464.95,-110 464.95,-117"/>
</g>
<!-- Node6 -->
<g id="node6" class="node">
<title>Node6</title>
<g id="a_node6"><a xlink:href="structmodel_1_1files_1_1_block_index_1_1_month_block.html#a0cac5c5a963728dfe4022bbb66299e27" target="_top" xlink:title="return false if reading failed, file to short?">
<polygon fill="white" stroke="black" points="302,-49.5 302,-79.5 439,-79.5 439,-49.5 302,-49.5"/>
<text text-anchor="start" x="310" y="-67.5" font-family="Helvetica,sans-Serif" font-size="10.00">model::files::BlockIndex</text>
<text text-anchor="middle" x="370.5" y="-56.5" font-family="Helvetica,sans-Serif" font-size="10.00">::MonthBlock::readFromFile</text>
</a>
</g>
</g>
<!-- Node1&#45;&gt;Node6 -->
<g id="edge6" class="edge">
<title>Node1&#45;&gt;Node6</title>
<path fill="none" stroke="midnightblue" d="M478.59,-100.69C459.42,-94.21 436.02,-86.3 416,-79.54"/>
<polygon fill="midnightblue" stroke="midnightblue" points="477.6,-104.05 488.2,-103.94 479.85,-97.42 477.6,-104.05"/>
</g>
<!-- Node7 -->
<g id="node7" class="node">
<title>Node7</title>
<g id="a_node7"><a xlink:href="structmodel_1_1files_1_1_block_index_1_1_data_block.html#a10fd3d1ca94ecfa28e43bcda086b8eef" target="_top" xlink:title="return false if reading failed, file to short?">
<polygon fill="white" stroke="black" points="305,-0.5 305,-30.5 436,-30.5 436,-0.5 305,-0.5"/>
<text text-anchor="start" x="313" y="-18.5" font-family="Helvetica,sans-Serif" font-size="10.00">model::files::BlockIndex</text>
<text text-anchor="middle" x="370.5" y="-7.5" font-family="Helvetica,sans-Serif" font-size="10.00">::DataBlock::readFromFile</text>
</a>
</g>
</g>
<!-- Node1&#45;&gt;Node7 -->
<g id="edge7" class="edge">
<title>Node1&#45;&gt;Node7</title>
<path fill="none" stroke="midnightblue" d="M501.67,-95.96C487.13,-79.69 463.61,-55.76 439,-40.5 432.95,-36.75 426.24,-33.42 419.48,-30.53"/>
<polygon fill="midnightblue" stroke="midnightblue" points="499.2,-98.45 508.42,-103.68 504.47,-93.84 499.2,-98.45"/>
</g>
<!-- Node3 -->
<g id="node3" class="node">
<title>Node3</title>
<g id="a_node3"><a xlink:href="classcontroller_1_1_block_index.html#a09afd2785b550c464e1173a4bb6e1bb7" target="_top" xlink:title="loading block index from file (or at least try to load)">
<polygon fill="white" stroke="black" points="0,-169.5 0,-199.5 110,-199.5 110,-169.5 0,-169.5"/>
<text text-anchor="start" x="8" y="-187.5" font-family="Helvetica,sans-Serif" font-size="10.00">controller::BlockIndex</text>
<text text-anchor="middle" x="55" y="-176.5" font-family="Helvetica,sans-Serif" font-size="10.00">::loadFromFile</text>
</a>
</g>
</g>
<!-- Node2&#45;&gt;Node3 -->
<g id="edge2" class="edge">
<title>Node2&#45;&gt;Node3</title>
<path fill="none" stroke="midnightblue" d="M135.45,-184.5C127,-184.5 118.46,-184.5 110.28,-184.5"/>
<polygon fill="midnightblue" stroke="midnightblue" points="135.68,-188 145.68,-184.5 135.68,-181 135.68,-188"/>
</g>
<!-- Node4&#45;&gt;Node2 -->
<g id="edge4" class="edge">
<title>Node4&#45;&gt;Node2</title>
<path fill="none" stroke="midnightblue" d="M300.44,-171.85C289,-173.4 277.24,-174.99 266.08,-176.5"/>
<polygon fill="midnightblue" stroke="midnightblue" points="300.93,-175.31 310.37,-170.5 299.99,-168.38 300.93,-175.31"/>
</g>
</g>
</svg>
