<?xml version="1.0" encoding="UTF-8" standalone="no"?>
<!DOCTYPE svg PUBLIC "-//W3C//DTD SVG 1.1//EN"
 "http://www.w3.org/Graphics/SVG/1.1/DTD/svg11.dtd">
<!-- Generated by graphviz version 2.50.0 (20211204.2007)
 -->
<!-- Title: UniLib::lib::Thread::condSignal Pages: 1 -->
<!--zoomable 149 -->
<svg id="main" version="1.1" xmlns="http://www.w3.org/2000/svg" xmlns:xlink="http://www.w3.org/1999/xlink" xml:space="preserve" onload="init(evt)">
<style type="text/css"><![CDATA[
.edge:hover path { stroke: red; }
.edge:hover polygon { stroke: red; fill: red; }
]]></style>
<script type="text/javascript"><![CDATA[
var edges = document.getElementsByTagName('g');
if (edges && edges.length) {
  for (var i=0;i<edges.length;i++) {
    if (edges[i].id.substr(0,4)=='edge') {
      edges[i].setAttribute('class','edge');
    }
  }
}
]]></script>
        <defs>
                <circle id="rim" cx="0" cy="0" r="7"/>
                <circle id="rim2" cx="0" cy="0" r="3.5"/>
                <g id="zoomPlus">
                        <use xlink:href="#rim" fill="#404040">
                                <set attributeName="fill" to="#808080" begin="zoomplus.mouseover" end="zoomplus.mouseout"/>
                        </use>
                        <path d="M-4,0h8M0,-4v8" fill="none" stroke="white" stroke-width="1.5" pointer-events="none"/>
                </g>
                <g id="zoomMin">
                        <use xlink:href="#rim" fill="#404040">
                                <set attributeName="fill" to="#808080" begin="zoomminus.mouseover" end="zoomminus.mouseout"/>
                        </use>
                        <path d="M-4,0h8" fill="none" stroke="white" stroke-width="1.5" pointer-events="none"/>
                </g>
                <g id="dirArrow">
                        <path fill="none" stroke="white" stroke-width="1.5" d="M0,-3.0v7 M-2.5,-0.5L0,-3.0L2.5,-0.5"/>
                </g>
               <g id="resetDef">
                       <use xlink:href="#rim2" fill="#404040">
                               <set attributeName="fill" to="#808080" begin="reset.mouseover" end="reset.mouseout"/>
                       </use>
               </g>
        </defs>

<script type="text/javascript">
var viewWidth = 517;
var viewHeight = 149;
var sectionId = 'dynsection-4';
</script>
<script xlink:href="svgpan.js"/>
<svg id="graph" class="graph">
<g id="viewport">
<title>UniLib::lib::Thread::condSignal</title>
<polygon fill="white" stroke="transparent" points="-4,4 -4,-145 513,-145 513,4 -4,4"/>
<!-- Node1 -->
<g id="node1" class="node">
<title>Node1</title>
<g id="a_node1"><a xlink:title=" ">
<polygon fill="#bfbfbf" stroke="black" points="414,-55.5 414,-85.5 509,-85.5 509,-55.5 414,-55.5"/>
<text text-anchor="start" x="422" y="-73.5" font-family="Helvetica,sans-Serif" font-size="10.00">UniLib::lib::Thread</text>
<text text-anchor="middle" x="461.5" y="-62.5" font-family="Helvetica,sans-Serif" font-size="10.00">::condSignal</text>
</a>
</g>
</g>
<!-- Node2 -->
<g id="node2" class="node">
<title>Node2</title>
<g id="a_node2"><a xlink:href="class_ordering_manager.html#a51e4d1711d7ba325614a2996a9cea608" target="_top" xlink:title=" ">
<polygon fill="white" stroke="black" points="223,-110.5 223,-140.5 378,-140.5 378,-110.5 223,-110.5"/>
<text text-anchor="start" x="231" y="-128.5" font-family="Helvetica,sans-Serif" font-size="10.00">OrderingManager::popMilestone</text>
<text text-anchor="middle" x="300.5" y="-117.5" font-family="Helvetica,sans-Serif" font-size="10.00">TaskObserver</text>
</a>
</g>
</g>
<!-- Node1&#45;&gt;Node2 -->
<g id="edge1" class="edge">
<title>Node1&#45;&gt;Node2</title>
<path fill="none" stroke="midnightblue" d="M410.31,-89.05C399.66,-92.9 388.48,-96.88 378,-100.5 368.49,-103.78 358.28,-107.2 348.51,-110.41"/>
<polygon fill="midnightblue" stroke="midnightblue" points="411.69,-92.27 419.89,-85.57 409.3,-85.69 411.69,-92.27"/>
</g>
<!-- Node4 -->
<g id="node4" class="node">
<title>Node4</title>
<g id="a_node4"><a xlink:href="class_uni_lib_1_1controller_1_1_c_p_u_sheduler_thread.html#a8ed5a3f09361c8d92c966acabee7e2a8" target="_top" xlink:title=" ">
<polygon fill="white" stroke="black" points="245.5,-50 245.5,-91 355.5,-91 355.5,-50 245.5,-50"/>
<text text-anchor="start" x="253.5" y="-79" font-family="Helvetica,sans-Serif" font-size="10.00">UniLib::controller</text>
<text text-anchor="start" x="253.5" y="-68" font-family="Helvetica,sans-Serif" font-size="10.00">::CPUShedulerThread</text>
<text text-anchor="middle" x="300.5" y="-57" font-family="Helvetica,sans-Serif" font-size="10.00">::setNewTask</text>
</a>
</g>
</g>
<!-- Node1&#45;&gt;Node4 -->
<g id="edge3" class="edge">
<title>Node1&#45;&gt;Node4</title>
<path fill="none" stroke="midnightblue" d="M403.59,-70.5C387.95,-70.5 371.03,-70.5 355.56,-70.5"/>
<polygon fill="midnightblue" stroke="midnightblue" points="403.65,-74 413.65,-70.5 403.65,-67 403.65,-74"/>
</g>
<!-- Node5 -->
<g id="node5" class="node">
<title>Node5</title>
<g id="a_node5"><a xlink:href="class_uni_lib_1_1lib_1_1_thread.html#a97748eb3025a4d5a50b432e2e8f11db0" target="_top" xlink:title=" ">
<polygon fill="white" stroke="black" points="253,-0.5 253,-30.5 348,-30.5 348,-0.5 253,-0.5"/>
<text text-anchor="start" x="261" y="-18.5" font-family="Helvetica,sans-Serif" font-size="10.00">UniLib::lib::Thread</text>
<text text-anchor="middle" x="300.5" y="-7.5" font-family="Helvetica,sans-Serif" font-size="10.00">::~Thread</text>
</a>
</g>
</g>
<!-- Node1&#45;&gt;Node5 -->
<g id="edge4" class="edge">
<title>Node1&#45;&gt;Node5</title>
<path fill="none" stroke="midnightblue" d="M410.31,-51.95C399.66,-48.1 388.48,-44.12 378,-40.5 368.36,-37.17 357.99,-33.71 348.11,-30.46"/>
<polygon fill="midnightblue" stroke="midnightblue" points="409.3,-55.31 419.89,-55.43 411.69,-48.73 409.3,-55.31"/>
</g>
<!-- Node3 -->
<g id="node3" class="node">
<title>Node3</title>
<g id="a_node3"><a xlink:href="class_iota_message_to_transaction_task.html#ad5fc6d59bfc57d1220b9b8e9441bab35" target="_top" xlink:title=" ">
<polygon fill="white" stroke="black" points="0,-110.5 0,-140.5 187,-140.5 187,-110.5 0,-110.5"/>
<text text-anchor="start" x="8" y="-128.5" font-family="Helvetica,sans-Serif" font-size="10.00">IotaMessageToTransaction</text>
<text text-anchor="middle" x="93.5" y="-117.5" font-family="Helvetica,sans-Serif" font-size="10.00">Task::~IotaMessageToTransactionTask</text>
</a>
</g>
</g>
<!-- Node2&#45;&gt;Node3 -->
<g id="edge2" class="edge">
<title>Node2&#45;&gt;Node3</title>
<path fill="none" stroke="midnightblue" d="M212.71,-125.5C204.31,-125.5 195.76,-125.5 187.3,-125.5"/>
<polygon fill="midnightblue" stroke="midnightblue" points="212.87,-129 222.87,-125.5 212.87,-122 212.87,-129"/>
</g>
</g>
</svg>
        <g id="navigator" transform="translate(0 0)" fill="#404254">
                <rect fill="#f2f5e9" fill-opacity="0.5" stroke="#606060" stroke-width=".5" x="0" y="0" width="60" height="60"/>
                <use id="zoomplus" xlink:href="#zoomPlus" x="17" y="9" onmousedown="handleZoom(evt,'in')"/>
                <use id="zoomminus" xlink:href="#zoomMin" x="42" y="9" onmousedown="handleZoom(evt,'out')"/>
                <use id="reset" xlink:href="#resetDef" x="30" y="36" onmousedown="handleReset()"/>
                <g id="arrowUp" xlink:href="#dirArrow" transform="translate(30 24)" onmousedown="handlePan(0,-1)">
                  <use xlink:href="#rim" fill="#404040">
                        <set attributeName="fill" to="#808080" begin="arrowUp.mouseover" end="arrowUp.mouseout"/>
                  </use>
                  <path fill="none" stroke="white" stroke-width="1.5" d="M0,-3.0v7 M-2.5,-0.5L0,-3.0L2.5,-0.5"/>
                </g>
                <g id="arrowRight" xlink:href="#dirArrow" transform="rotate(90) translate(36 -43)" onmousedown="handlePan(1,0)">
                  <use xlink:href="#rim" fill="#404040">
                        <set attributeName="fill" to="#808080" begin="arrowRight.mouseover" end="arrowRight.mouseout"/>
                  </use>
                  <path fill="none" stroke="white" stroke-width="1.5" d="M0,-3.0v7 M-2.5,-0.5L0,-3.0L2.5,-0.5"/>
                </g>
                <g id="arrowDown" xlink:href="#dirArrow" transform="rotate(180) translate(-30 -48)" onmousedown="handlePan(0,1)">
                  <use xlink:href="#rim" fill="#404040">
                        <set attributeName="fill" to="#808080" begin="arrowDown.mouseover" end="arrowDown.mouseout"/>
                  </use>
                  <path fill="none" stroke="white" stroke-width="1.5" d="M0,-3.0v7 M-2.5,-0.5L0,-3.0L2.5,-0.5"/>
                </g>
                <g id="arrowLeft" xlink:href="#dirArrow" transform="rotate(270) translate(-36 17)" onmousedown="handlePan(-1,0)">
                  <use xlink:href="#rim" fill="#404040">
                        <set attributeName="fill" to="#808080" begin="arrowLeft.mouseover" end="arrowLeft.mouseout"/>
                  </use>
                  <path fill="none" stroke="white" stroke-width="1.5" d="M0,-3.0v7 M-2.5,-0.5L0,-3.0L2.5,-0.5"/>
                </g>
        </g>
        <svg viewBox="0 0 15 15" width="100%" height="30px" preserveAspectRatio="xMaxYMin meet">
         <g id="arrow_out" transform="scale(0.3 0.3)">
          <a xlink:href="class_uni_lib_1_1lib_1_1_thread_a75cb9d8498150896794fd7325b71e063_icgraph_org.svg" target="_base">
           <rect id="button" ry="5" rx="5" y="6" x="6" height="38" width="38"
                fill="#f2f5e9" fill-opacity="0.5" stroke="#606060" stroke-width="1.0"/>
           <path id="arrow"
             d="M 11.500037,31.436501 C 11.940474,20.09759 22.043105,11.32322 32.158766,21.979434 L 37.068811,17.246167 C 37.068811,17.246167 37.088388,32 37.088388,32 L 22.160133,31.978069 C 22.160133,31.978069 26.997745,27.140456 26.997745,27.140456 C 18.528582,18.264221 13.291696,25.230495 11.500037,31.436501 z"
             style="fill:#404040;"/>
          </a>
         </g>
        </svg>
</svg>
