<?xml version="1.0" encoding="UTF-8" standalone="no"?>
<!DOCTYPE svg PUBLIC "-//W3C//DTD SVG 1.1//EN"
 "http://www.w3.org/Graphics/SVG/1.1/DTD/svg11.dtd">
<!-- Generated by graphviz version 2.50.0 (20211204.2007)
 -->
<!-- Title: controller::Block::addTransaction Pages: 1 -->
<svg width="277pt" height="66pt"
 viewBox="0.00 0.00 277.00 66.00" xmlns="http://www.w3.org/2000/svg" xmlns:xlink="http://www.w3.org/1999/xlink">
<g id="graph0" class="graph" transform="scale(1 1) rotate(0) translate(4 62)">
<title>controller::Block::addTransaction</title>
<polygon fill="white" stroke="transparent" points="-4,4 -4,-62 273,-62 273,4 -4,4"/>
<!-- Node1 -->
<g id="node1" class="node">
<title>Node1</title>
<g id="a_node1"><a xlink:title="add transaction from Block File, called by Block File, adding to cache and index">
<polygon fill="#bfbfbf" stroke="black" points="0,-14 0,-44 93,-44 93,-14 0,-14"/>
<text text-anchor="start" x="8" y="-32" font-family="Helvetica,sans-Serif" font-size="10.00">controller::Block::</text>
<text text-anchor="middle" x="46.5" y="-21" font-family="Helvetica,sans-Serif" font-size="10.00">addTransaction</text>
</a>
</g>
</g>
<!-- Node2 -->
<g id="node2" class="node">
<title>Node2</title>
<g id="a_node2"><a xlink:href="class_group_manager.html#a023ecd32edba5827e65a8228298fdffc" target="_top" xlink:title=" ">
<polygon fill="white" stroke="black" points="130.5,-38.5 130.5,-57.5 267.5,-57.5 267.5,-38.5 130.5,-38.5"/>
<text text-anchor="middle" x="199" y="-45.5" font-family="Helvetica,sans-Serif" font-size="10.00">GroupManager::getInstance</text>
</a>
</g>
</g>
<!-- Node1&#45;&gt;Node2 -->
<g id="edge1" class="edge">
<title>Node1&#45;&gt;Node2</title>
<path fill="none" stroke="midnightblue" d="M93.06,-34.75C101.7,-35.84 110.97,-37.01 120.28,-38.19"/>
<polygon fill="midnightblue" stroke="midnightblue" points="120.02,-41.68 130.38,-39.46 120.9,-34.74 120.02,-41.68"/>
</g>
<!-- Node3 -->
<g id="node3" class="node">
<title>Node3</title>
<g id="a_node3"><a xlink:href="class_logger_manager.html#a88f5ea1c5a1bf96ccb17ffabc3fd9a9b" target="_top" xlink:title=" ">
<polygon fill="white" stroke="black" points="129,-0.5 129,-19.5 269,-19.5 269,-0.5 129,-0.5"/>
<text text-anchor="middle" x="199" y="-7.5" font-family="Helvetica,sans-Serif" font-size="10.00">LoggerManager::getInstance</text>
</a>
</g>
</g>
<!-- Node1&#45;&gt;Node3 -->
<g id="edge2" class="edge">
<title>Node1&#45;&gt;Node3</title>
<path fill="none" stroke="midnightblue" d="M93.06,-23.25C101.3,-22.21 110.1,-21.1 118.97,-19.98"/>
<polygon fill="midnightblue" stroke="midnightblue" points="119.5,-23.44 128.98,-18.71 118.62,-16.49 119.5,-23.44"/>
</g>
</g>
</svg>
