<?xml version="1.0" encoding="UTF-8" standalone="no"?>
<!DOCTYPE svg PUBLIC "-//W3C//DTD SVG 1.1//EN"
 "http://www.w3.org/Graphics/SVG/1.1/DTD/svg11.dtd">
<!-- Generated by graphviz version 2.50.0 (20211204.2007)
 -->
<!-- Title: TaskObserver::removeTask Pages: 1 -->
<svg width="604pt" height="39pt"
 viewBox="0.00 0.00 604.00 39.00" xmlns="http://www.w3.org/2000/svg" xmlns:xlink="http://www.w3.org/1999/xlink">
<g id="graph0" class="graph" transform="scale(1 1) rotate(0) translate(4 35)">
<title>TaskObserver::removeTask</title>
<polygon fill="white" stroke="transparent" points="-4,4 -4,-35 600,-35 600,4 -4,4"/>
<!-- Node1 -->
<g id="node1" class="node">
<title>Node1</title>
<g id="a_node1"><a xlink:title="remove Tasks">
<polygon fill="#bfbfbf" stroke="black" points="0,-6 0,-25 134,-25 134,-6 0,-6"/>
<text text-anchor="middle" x="67" y="-13" font-family="Helvetica,sans-Serif" font-size="10.00">TaskObserver::removeTask</text>
</a>
</g>
</g>
<!-- Node2 -->
<g id="node2" class="node">
<title>Node2</title>
<g id="a_node2"><a xlink:href="class_task_observer.html#abb99f67e09fb4ef4144e983699e51bca" target="_top" xlink:title="remove WriteTransactionsToBlockTask from map and transactions">
<polygon fill="white" stroke="black" points="170,-0.5 170,-30.5 307,-30.5 307,-0.5 170,-0.5"/>
<text text-anchor="start" x="178" y="-18.5" font-family="Helvetica,sans-Serif" font-size="10.00">TaskObserver::removeBlock</text>
<text text-anchor="middle" x="238.5" y="-7.5" font-family="Helvetica,sans-Serif" font-size="10.00">WriteTask</text>
</a>
</g>
</g>
<!-- Node1&#45;&gt;Node2 -->
<g id="edge1" class="edge">
<title>Node1&#45;&gt;Node2</title>
<path fill="none" stroke="midnightblue" d="M134.02,-15.5C142.5,-15.5 151.25,-15.5 159.9,-15.5"/>
<polygon fill="midnightblue" stroke="midnightblue" points="159.99,-19 169.99,-15.5 159.99,-12 159.99,-19"/>
</g>
<!-- Node3 -->
<g id="node3" class="node">
<title>Node3</title>
<g id="a_node3"><a xlink:href="class_write_transactions_to_block_task.html#ac09321e307b6d017ac340e220e3cb8e9" target="_top" xlink:title="collect all transaction nrs from transactions">
<polygon fill="white" stroke="black" points="343,-0.5 343,-30.5 474,-30.5 474,-0.5 343,-0.5"/>
<text text-anchor="start" x="351" y="-18.5" font-family="Helvetica,sans-Serif" font-size="10.00">WriteTransactionsToBlock</text>
<text text-anchor="middle" x="408.5" y="-7.5" font-family="Helvetica,sans-Serif" font-size="10.00">Task::getTransactionNrs</text>
</a>
</g>
</g>
<!-- Node2&#45;&gt;Node3 -->
<g id="edge2" class="edge">
<title>Node2&#45;&gt;Node3</title>
<path fill="none" stroke="midnightblue" d="M307.35,-15.5C315.7,-15.5 324.27,-15.5 332.72,-15.5"/>
<polygon fill="midnightblue" stroke="midnightblue" points="332.94,-19 342.94,-15.5 332.94,-12 332.94,-19"/>
</g>
<!-- Node4 -->
<g id="node4" class="node">
<title>Node4</title>
<g id="a_node4"><a xlink:href="classtask_1_1_task.html#ae035d934c5935b5414ef6da14a265efd" target="_top" xlink:title=" ">
<polygon fill="white" stroke="black" points="510,-6 510,-25 596,-25 596,-6 510,-6"/>
<text text-anchor="middle" x="553" y="-13" font-family="Helvetica,sans-Serif" font-size="10.00">task::Task::lock</text>
</a>
</g>
</g>
<!-- Node3&#45;&gt;Node4 -->
<g id="edge3" class="edge">
<title>Node3&#45;&gt;Node4</title>
<path fill="none" stroke="midnightblue" d="M474.08,-15.5C482.57,-15.5 491.19,-15.5 499.45,-15.5"/>
<polygon fill="midnightblue" stroke="midnightblue" points="499.68,-19 509.68,-15.5 499.68,-12 499.68,-19"/>
</g>
</g>
</svg>
