<?xml version="1.0" encoding="UTF-8" standalone="no"?>
<!DOCTYPE svg PUBLIC "-//W3C//DTD SVG 1.1//EN"
 "http://www.w3.org/Graphics/SVG/1.1/DTD/svg11.dtd">
<!-- Generated by graphviz version 2.50.0 (20211204.2007)
 -->
<!-- Title: task::CPUTask Pages: 1 -->
<svg width="634pt" height="617pt"
 viewBox="0.00 0.00 634.00 617.00" xmlns="http://www.w3.org/2000/svg" xmlns:xlink="http://www.w3.org/1999/xlink">
<g id="graph0" class="graph" transform="scale(1 1) rotate(0) translate(4 613)">
<title>task::CPUTask</title>
<polygon fill="white" stroke="transparent" points="-4,4 -4,-613 630,-613 630,4 -4,4"/>
<!-- Node1 -->
<g id="node1" class="node">
<title>Node1</title>
<g id="a_node1"><a xlink:title=" ">
<polygon fill="#bfbfbf" stroke="black" points="275.5,-237.5 275.5,-360.5 382.5,-360.5 382.5,-237.5 275.5,-237.5"/>
<text text-anchor="middle" x="329" y="-348.5" font-family="Helvetica,sans-Serif" font-size="10.00">task::CPUTask</text>
<polyline fill="none" stroke="black" points="275.5,-341.5 382.5,-341.5 "/>
<text text-anchor="middle" x="329" y="-329.5" font-family="Helvetica,sans-Serif" font-size="10.00"> </text>
<polyline fill="none" stroke="black" points="275.5,-322.5 382.5,-322.5 "/>
<text text-anchor="start" x="283.5" y="-310.5" font-family="Helvetica,sans-Serif" font-size="10.00">+ CPUTask()</text>
<text text-anchor="start" x="283.5" y="-299.5" font-family="Helvetica,sans-Serif" font-size="10.00">+ CPUTask()</text>
<text text-anchor="start" x="283.5" y="-288.5" font-family="Helvetica,sans-Serif" font-size="10.00">+ CPUTask()</text>
<text text-anchor="start" x="283.5" y="-277.5" font-family="Helvetica,sans-Serif" font-size="10.00">+ ~CPUTask()</text>
<text text-anchor="start" x="283.5" y="-266.5" font-family="Helvetica,sans-Serif" font-size="10.00">+ getResourceType()</text>
<text text-anchor="start" x="283.5" y="-255.5" font-family="Helvetica,sans-Serif" font-size="10.00">+ scheduleTask()</text>
<text text-anchor="start" x="283.5" y="-244.5" font-family="Helvetica,sans-Serif" font-size="10.00"># triggerSheduler()</text>
</a>
</g>
</g>
<!-- Node3 -->
<g id="node3" class="node">
<title>Node3</title>
<g id="a_node3"><a xlink:href="class_iota_message_to_transaction_task.html" target="_top" xlink:title=": Get confirmed transaction id from Iota, process it">
<polygon fill="white" stroke="black" points="0,-17 0,-184 154,-184 154,-17 0,-17"/>
<text text-anchor="middle" x="77" y="-172" font-family="Helvetica,sans-Serif" font-size="10.00">IotaMessageToTransactionTask</text>
<polyline fill="none" stroke="black" points="0,-165 154,-165 "/>
<text text-anchor="start" x="8" y="-153" font-family="Helvetica,sans-Serif" font-size="10.00"># mMilestoneIndex</text>
<text text-anchor="start" x="8" y="-142" font-family="Helvetica,sans-Serif" font-size="10.00"># mTimestamp</text>
<text text-anchor="start" x="8" y="-131" font-family="Helvetica,sans-Serif" font-size="10.00"># mMessageId</text>
<text text-anchor="start" x="8" y="-120" font-family="Helvetica,sans-Serif" font-size="10.00"># mTransaction</text>
<polyline fill="none" stroke="black" points="0,-113 154,-113 "/>
<text text-anchor="start" x="8" y="-101" font-family="Helvetica,sans-Serif" font-size="10.00">+ IotaMessageToTransaction</text>
<text text-anchor="start" x="8" y="-90" font-family="Helvetica,sans-Serif" font-size="10.00">Task()</text>
<text text-anchor="start" x="8" y="-79" font-family="Helvetica,sans-Serif" font-size="10.00">+ getResourceType()</text>
<text text-anchor="start" x="8" y="-68" font-family="Helvetica,sans-Serif" font-size="10.00">+ run()</text>
<text text-anchor="start" x="8" y="-57" font-family="Helvetica,sans-Serif" font-size="10.00">+ ~IotaMessageToTransaction</text>
<text text-anchor="start" x="8" y="-46" font-family="Helvetica,sans-Serif" font-size="10.00">Task()</text>
<text text-anchor="start" x="8" y="-35" font-family="Helvetica,sans-Serif" font-size="10.00">+ getMilestoneIndex()</text>
<text text-anchor="start" x="8" y="-24" font-family="Helvetica,sans-Serif" font-size="10.00"># getGradidoGroupAlias()</text>
</a>
</g>
</g>
<!-- Node1&#45;&gt;Node3 -->
<g id="edge2" class="edge">
<title>Node1&#45;&gt;Node3</title>
<path fill="none" stroke="midnightblue" d="M266.3,-267.69C233.8,-250.46 194.44,-227.13 163,-201 156.68,-195.75 150.43,-190 144.37,-184.01"/>
<polygon fill="none" stroke="midnightblue" points="264.79,-270.85 275.27,-272.39 268.03,-264.65 264.79,-270.85"/>
</g>
<!-- Node4 -->
<g id="node4" class="node">
<title>Node4</title>
<g id="a_node4"><a xlink:href="class_write_transactions_to_block_task.html" target="_top" xlink:title="Task for collecting transactions and write it to block chain after timeout.">
<polygon fill="white" stroke="black" points="172,-0.5 172,-200.5 324,-200.5 324,-0.5 172,-0.5"/>
<text text-anchor="middle" x="248" y="-188.5" font-family="Helvetica,sans-Serif" font-size="10.00">WriteTransactionsToBlockTask</text>
<polyline fill="none" stroke="black" points="172,-181.5 324,-181.5 "/>
<text text-anchor="start" x="180" y="-169.5" font-family="Helvetica,sans-Serif" font-size="10.00"># mBlockFile</text>
<text text-anchor="start" x="180" y="-158.5" font-family="Helvetica,sans-Serif" font-size="10.00"># mBlockIndex</text>
<text text-anchor="start" x="180" y="-147.5" font-family="Helvetica,sans-Serif" font-size="10.00"># mCreationDate</text>
<text text-anchor="start" x="180" y="-136.5" font-family="Helvetica,sans-Serif" font-size="10.00"># mFastMutex</text>
<text text-anchor="start" x="180" y="-125.5" font-family="Helvetica,sans-Serif" font-size="10.00"># mTransactions</text>
<polyline fill="none" stroke="black" points="172,-118.5 324,-118.5 "/>
<text text-anchor="start" x="180" y="-106.5" font-family="Helvetica,sans-Serif" font-size="10.00">+ WriteTransactionsToBlock</text>
<text text-anchor="start" x="180" y="-95.5" font-family="Helvetica,sans-Serif" font-size="10.00">Task()</text>
<text text-anchor="start" x="180" y="-84.5" font-family="Helvetica,sans-Serif" font-size="10.00">+ ~WriteTransactionsToBlock</text>
<text text-anchor="start" x="180" y="-73.5" font-family="Helvetica,sans-Serif" font-size="10.00">Task()</text>
<text text-anchor="start" x="180" y="-62.5" font-family="Helvetica,sans-Serif" font-size="10.00">+ getResourceType()</text>
<text text-anchor="start" x="180" y="-51.5" font-family="Helvetica,sans-Serif" font-size="10.00">+ run()</text>
<text text-anchor="start" x="180" y="-40.5" font-family="Helvetica,sans-Serif" font-size="10.00">+ getCreationDate()</text>
<text text-anchor="start" x="180" y="-29.5" font-family="Helvetica,sans-Serif" font-size="10.00">+ addSerializedTransaction()</text>
<text text-anchor="start" x="180" y="-18.5" font-family="Helvetica,sans-Serif" font-size="10.00">+ getTransaction()</text>
<text text-anchor="start" x="180" y="-7.5" font-family="Helvetica,sans-Serif" font-size="10.00">+ getTransactionNrs()</text>
</a>
</g>
</g>
<!-- Node1&#45;&gt;Node4 -->
<g id="edge3" class="edge">
<title>Node1&#45;&gt;Node4</title>
<path fill="none" stroke="midnightblue" d="M300.12,-227.93C296.45,-219.03 292.64,-209.8 288.83,-200.55"/>
<polygon fill="none" stroke="midnightblue" points="296.99,-229.53 304.04,-237.44 303.46,-226.86 296.99,-229.53"/>
</g>
<!-- Node5 -->
<g id="node5" class="node">
<title>Node5</title>
<g id="a_node5"><a xlink:href="classiota_1_1_milestone_loading_task.html" target="_top" xlink:title=" ">
<polygon fill="white" stroke="black" points="342.5,-55.5 342.5,-145.5 477.5,-145.5 477.5,-55.5 342.5,-55.5"/>
<text text-anchor="middle" x="410" y="-133.5" font-family="Helvetica,sans-Serif" font-size="10.00">iota::MilestoneLoadingTask</text>
<polyline fill="none" stroke="black" points="342.5,-126.5 477.5,-126.5 "/>
<text text-anchor="start" x="350.5" y="-114.5" font-family="Helvetica,sans-Serif" font-size="10.00"># mMilestoneId</text>
<text text-anchor="start" x="350.5" y="-103.5" font-family="Helvetica,sans-Serif" font-size="10.00"># mMessageValidator</text>
<polyline fill="none" stroke="black" points="342.5,-96.5 477.5,-96.5 "/>
<text text-anchor="start" x="350.5" y="-84.5" font-family="Helvetica,sans-Serif" font-size="10.00">+ MilestoneLoadingTask()</text>
<text text-anchor="start" x="350.5" y="-73.5" font-family="Helvetica,sans-Serif" font-size="10.00">+ getResourceType()</text>
<text text-anchor="start" x="350.5" y="-62.5" font-family="Helvetica,sans-Serif" font-size="10.00">+ run()</text>
</a>
</g>
</g>
<!-- Node1&#45;&gt;Node5 -->
<g id="edge4" class="edge">
<title>Node1&#45;&gt;Node5</title>
<path fill="none" stroke="midnightblue" d="M357.9,-227.89C369.2,-200.48 381.82,-169.87 391.81,-145.64"/>
<polygon fill="none" stroke="midnightblue" points="354.54,-226.86 353.96,-237.44 361.01,-229.53 354.54,-226.86"/>
</g>
<!-- Node6 -->
<g id="node6" class="node">
<title>Node6</title>
<g id="a_node6"><a xlink:href="classmodel_1_1files_1_1_block_append_line_task.html" target="_top" xlink:title=" ">
<polygon fill="white" stroke="black" points="496,-44.5 496,-156.5 626,-156.5 626,-44.5 496,-44.5"/>
<text text-anchor="start" x="504" y="-144.5" font-family="Helvetica,sans-Serif" font-size="10.00">model::files::BlockAppend</text>
<text text-anchor="middle" x="561" y="-133.5" font-family="Helvetica,sans-Serif" font-size="10.00">LineTask</text>
<polyline fill="none" stroke="black" points="496,-126.5 626,-126.5 "/>
<text text-anchor="start" x="504" y="-114.5" font-family="Helvetica,sans-Serif" font-size="10.00"># mTargetBlock</text>
<text text-anchor="start" x="504" y="-103.5" font-family="Helvetica,sans-Serif" font-size="10.00"># mLines</text>
<text text-anchor="start" x="504" y="-92.5" font-family="Helvetica,sans-Serif" font-size="10.00"># mCursorPositions</text>
<polyline fill="none" stroke="black" points="496,-85.5 626,-85.5 "/>
<text text-anchor="start" x="504" y="-73.5" font-family="Helvetica,sans-Serif" font-size="10.00">+ BlockAppendLineTask()</text>
<text text-anchor="start" x="504" y="-62.5" font-family="Helvetica,sans-Serif" font-size="10.00">+ getResourceType()</text>
<text text-anchor="start" x="504" y="-51.5" font-family="Helvetica,sans-Serif" font-size="10.00">+ run()</text>
</a>
</g>
</g>
<!-- Node1&#45;&gt;Node6 -->
<g id="edge5" class="edge">
<title>Node1&#45;&gt;Node6</title>
<path fill="none" stroke="#8b1a1a" d="M391.51,-266.9C422.2,-249.89 458.58,-227 487,-201 501.22,-187.99 514.54,-171.92 525.85,-156.51"/>
<polygon fill="none" stroke="#8b1a1a" points="389.7,-263.9 382.6,-271.76 393.06,-270.04 389.7,-263.9"/>
</g>
<!-- Node2 -->
<g id="node2" class="node">
<title>Node2</title>
<g id="a_node2"><a xlink:href="classtask_1_1_task.html" target="_top" xlink:title=" ">
<polygon fill="white" stroke="black" points="260,-397.5 260,-608.5 398,-608.5 398,-397.5 260,-397.5"/>
<text text-anchor="middle" x="329" y="-596.5" font-family="Helvetica,sans-Serif" font-size="10.00">task::Task</text>
<polyline fill="none" stroke="black" points="260,-589.5 398,-589.5 "/>
<text text-anchor="start" x="268" y="-577.5" font-family="Helvetica,sans-Serif" font-size="10.00"># mTaskScheduled</text>
<text text-anchor="start" x="268" y="-566.5" font-family="Helvetica,sans-Serif" font-size="10.00"># mFinishCommand</text>
<polyline fill="none" stroke="black" points="260,-559.5 398,-559.5 "/>
<text text-anchor="start" x="268" y="-547.5" font-family="Helvetica,sans-Serif" font-size="10.00">+ Task()</text>
<text text-anchor="start" x="268" y="-536.5" font-family="Helvetica,sans-Serif" font-size="10.00">+ Task()</text>
<text text-anchor="start" x="268" y="-525.5" font-family="Helvetica,sans-Serif" font-size="10.00">+ ~Task()</text>
<text text-anchor="start" x="268" y="-514.5" font-family="Helvetica,sans-Serif" font-size="10.00">+ isReady()</text>
<text text-anchor="start" x="268" y="-503.5" font-family="Helvetica,sans-Serif" font-size="10.00">+ isAllParentsReady()</text>
<text text-anchor="start" x="268" y="-492.5" font-family="Helvetica,sans-Serif" font-size="10.00">+ isTaskFinished()</text>
<text text-anchor="start" x="268" y="-481.5" font-family="Helvetica,sans-Serif" font-size="10.00">+ run()</text>
<text text-anchor="start" x="268" y="-470.5" font-family="Helvetica,sans-Serif" font-size="10.00">+ lock()</text>
<text text-anchor="start" x="268" y="-459.5" font-family="Helvetica,sans-Serif" font-size="10.00">+ unlock()</text>
<text text-anchor="start" x="268" y="-448.5" font-family="Helvetica,sans-Serif" font-size="10.00">+ setParentTaskPtrInArray()</text>
<text text-anchor="start" x="268" y="-437.5" font-family="Helvetica,sans-Serif" font-size="10.00">and 10 more...</text>
<text text-anchor="start" x="268" y="-426.5" font-family="Helvetica,sans-Serif" font-size="10.00"># isTaskSheduled()</text>
<text text-anchor="start" x="268" y="-415.5" font-family="Helvetica,sans-Serif" font-size="10.00"># taskScheduled()</text>
<text text-anchor="start" x="268" y="-404.5" font-family="Helvetica,sans-Serif" font-size="10.00"># getParent()</text>
</a>
</g>
</g>
<!-- Node2&#45;&gt;Node1 -->
<g id="edge1" class="edge">
<title>Node2&#45;&gt;Node1</title>
<path fill="none" stroke="midnightblue" d="M329,-387.43C329,-378.24 329,-369.2 329,-360.63"/>
<polygon fill="none" stroke="midnightblue" points="325.5,-387.45 329,-397.45 332.5,-387.45 325.5,-387.45"/>
</g>
</g>
</svg>
