<?xml version="1.0" encoding="UTF-8" standalone="no"?>
<!DOCTYPE svg PUBLIC "-//W3C//DTD SVG 1.1//EN"
 "http://www.w3.org/Graphics/SVG/1.1/DTD/svg11.dtd">
<!-- Generated by graphviz version 2.50.0 (20211204.2007)
 -->
<!-- Title: controller::AddressIndex::getOrAddIndicesForAddresses Pages: 1 -->
<svg width="712pt" height="39pt"
 viewBox="0.00 0.00 712.00 39.00" xmlns="http://www.w3.org/2000/svg" xmlns:xlink="http://www.w3.org/1999/xlink">
<g id="graph0" class="graph" transform="scale(1 1) rotate(0) translate(4 35)">
<title>controller::AddressIndex::getOrAddIndicesForAddresses</title>
<polygon fill="white" stroke="transparent" points="-4,4 -4,-35 708,-35 708,4 -4,4"/>
<!-- Node1 -->
<g id="node1" class="node">
<title>Node1</title>
<g id="a_node1"><a xlink:title=" ">
<polygon fill="#bfbfbf" stroke="black" points="0,-0.5 0,-30.5 155,-30.5 155,-0.5 0,-0.5"/>
<text text-anchor="start" x="8" y="-18.5" font-family="Helvetica,sans-Serif" font-size="10.00">controller::AddressIndex</text>
<text text-anchor="middle" x="77.5" y="-7.5" font-family="Helvetica,sans-Serif" font-size="10.00">::getOrAddIndicesForAddresses</text>
</a>
</g>
</g>
<!-- Node2 -->
<g id="node2" class="node">
<title>Node2</title>
<g id="a_node2"><a xlink:href="classcontroller_1_1_address_index.html#a92b7d0e02e5577732d436b40eea13ffa" target="_top" xlink:title="Get or add index if not exist in cache or file, maybe I/O read.">
<polygon fill="white" stroke="black" points="191,-0.5 191,-30.5 328,-30.5 328,-0.5 191,-0.5"/>
<text text-anchor="start" x="199" y="-18.5" font-family="Helvetica,sans-Serif" font-size="10.00">controller::AddressIndex</text>
<text text-anchor="middle" x="259.5" y="-7.5" font-family="Helvetica,sans-Serif" font-size="10.00">::getOrAddIndexForAddress</text>
</a>
</g>
</g>
<!-- Node1&#45;&gt;Node2 -->
<g id="edge1" class="edge">
<title>Node1&#45;&gt;Node2</title>
<path fill="none" stroke="midnightblue" d="M155.1,-15.5C163.53,-15.5 172.13,-15.5 180.58,-15.5"/>
<polygon fill="midnightblue" stroke="midnightblue" points="180.8,-19 190.8,-15.5 180.8,-12 180.8,-19"/>
</g>
<!-- Node3 -->
<g id="node3" class="node">
<title>Node3</title>
<g id="a_node3"><a xlink:href="classcontroller_1_1_address_index.html#ad0c3d5d4cf529b053f72e87c64cbd080" target="_top" xlink:title="reading model::files::AddressIndex from cache or if not exist in cache, creating model::files::Addres...">
<polygon fill="white" stroke="black" points="364,-0.5 364,-30.5 486,-30.5 486,-0.5 364,-0.5"/>
<text text-anchor="start" x="372" y="-18.5" font-family="Helvetica,sans-Serif" font-size="10.00">controller::AddressIndex</text>
<text text-anchor="middle" x="425" y="-7.5" font-family="Helvetica,sans-Serif" font-size="10.00">::getAddressIndex</text>
</a>
</g>
</g>
<!-- Node2&#45;&gt;Node3 -->
<g id="edge2" class="edge">
<title>Node2&#45;&gt;Node3</title>
<path fill="none" stroke="midnightblue" d="M328.42,-15.5C336.78,-15.5 345.33,-15.5 353.73,-15.5"/>
<polygon fill="midnightblue" stroke="midnightblue" points="353.86,-19 363.86,-15.5 353.86,-12 353.86,-19"/>
</g>
<!-- Node4 -->
<g id="node4" class="node">
<title>Node4</title>
<g id="a_node4"><a xlink:href="classcontroller_1_1_address_index.html#a59839b69b6f1f5a98ec6c3782f96e823" target="_top" xlink:title="take first hex sets from address as folder and file name">
<polygon fill="white" stroke="black" points="522,-0.5 522,-30.5 704,-30.5 704,-0.5 522,-0.5"/>
<text text-anchor="start" x="530" y="-18.5" font-family="Helvetica,sans-Serif" font-size="10.00">controller::AddressIndex</text>
<text text-anchor="middle" x="613" y="-7.5" font-family="Helvetica,sans-Serif" font-size="10.00">::getAddressIndexFilePathForAddress</text>
</a>
</g>
</g>
<!-- Node3&#45;&gt;Node4 -->
<g id="edge3" class="edge">
<title>Node3&#45;&gt;Node4</title>
<path fill="none" stroke="midnightblue" d="M486.13,-15.5C494.37,-15.5 503,-15.5 511.72,-15.5"/>
<polygon fill="midnightblue" stroke="midnightblue" points="511.98,-19 521.98,-15.5 511.98,-12 511.98,-19"/>
</g>
</g>
</svg>
