<?xml version="1.0" encoding="UTF-8" standalone="no"?>
<!DOCTYPE svg PUBLIC "-//W3C//DTD SVG 1.1//EN"
 "http://www.w3.org/Graphics/SVG/1.1/DTD/svg11.dtd">
<!-- Generated by graphviz version 2.50.0 (20211204.2007)
 -->
<!-- Title: controller::BlockIndex::loadFromFile Pages: 1 -->
<svg width="663pt" height="291pt"
 viewBox="0.00 0.00 663.00 291.00" xmlns="http://www.w3.org/2000/svg" xmlns:xlink="http://www.w3.org/1999/xlink">
<g id="graph0" class="graph" transform="scale(1 1) rotate(0) translate(4 287)">
<title>controller::BlockIndex::loadFromFile</title>
<polygon fill="white" stroke="transparent" points="-4,4 -4,-287 659,-287 659,4 -4,4"/>
<!-- Node1 -->
<g id="node1" class="node">
<title>Node1</title>
<g id="a_node1"><a xlink:title="loading block index from file (or at least try to load)">
<polygon fill="#bfbfbf" stroke="black" points="0,-132.5 0,-162.5 110,-162.5 110,-132.5 0,-132.5"/>
<text text-anchor="start" x="8" y="-150.5" font-family="Helvetica,sans-Serif" font-size="10.00">controller::BlockIndex</text>
<text text-anchor="middle" x="55" y="-139.5" font-family="Helvetica,sans-Serif" font-size="10.00">::loadFromFile</text>
</a>
</g>
</g>
<!-- Node2 -->
<g id="node2" class="node">
<title>Node2</title>
<g id="a_node2"><a xlink:href="classmodel_1_1files_1_1_block_index.html#ae197b4a43d106d58b23a102f2598ca0c" target="_top" xlink:title="read from file, put content into receiver">
<polygon fill="white" stroke="black" points="146,-132.5 146,-162.5 266,-162.5 266,-132.5 146,-132.5"/>
<text text-anchor="start" x="154" y="-150.5" font-family="Helvetica,sans-Serif" font-size="10.00">model::files::BlockIndex</text>
<text text-anchor="middle" x="206" y="-139.5" font-family="Helvetica,sans-Serif" font-size="10.00">::readFromFile</text>
</a>
</g>
</g>
<!-- Node1&#45;&gt;Node2 -->
<g id="edge1" class="edge">
<title>Node1&#45;&gt;Node2</title>
<path fill="none" stroke="midnightblue" d="M110.21,-147.5C118.53,-147.5 127.2,-147.5 135.79,-147.5"/>
<polygon fill="midnightblue" stroke="midnightblue" points="135.79,-151 145.79,-147.5 135.79,-144 135.79,-151"/>
</g>
<!-- Node3 -->
<g id="node3" class="node">
<title>Node3</title>
<g id="a_node3"><a xlink:href="classmodel_1_1files_1_1_i_block_index_receiver.html#aa6d65f01c0781942b46d3af23ddba6ac" target="_top" xlink:title=" ">
<polygon fill="white" stroke="black" points="302,-252.5 302,-282.5 472,-282.5 472,-252.5 302,-252.5"/>
<text text-anchor="start" x="310" y="-270.5" font-family="Helvetica,sans-Serif" font-size="10.00">model::files::IBlockIndex</text>
<text text-anchor="middle" x="387" y="-259.5" font-family="Helvetica,sans-Serif" font-size="10.00">Receiver::addIndicesForTransaction</text>
</a>
</g>
</g>
<!-- Node2&#45;&gt;Node3 -->
<g id="edge2" class="edge">
<title>Node2&#45;&gt;Node3</title>
<path fill="none" stroke="midnightblue" d="M218.15,-162.67C234.34,-183.62 266.33,-221.25 302,-242.5 305.6,-244.65 309.4,-246.62 313.32,-248.43"/>
<polygon fill="midnightblue" stroke="midnightblue" points="312.04,-251.7 322.62,-252.38 314.78,-245.25 312.04,-251.7"/>
</g>
<!-- Node4 -->
<g id="node4" class="node">
<title>Node4</title>
<g id="a_node4"><a xlink:href="class_virtual_file.html#ae6d819110d19387e7620f0949c54e3bf" target="_top" xlink:title=" ">
<polygon fill="white" stroke="black" points="333,-214 333,-233 441,-233 441,-214 333,-214"/>
<text text-anchor="middle" x="387" y="-221" font-family="Helvetica,sans-Serif" font-size="10.00">VirtualFile::getCursor</text>
</a>
</g>
</g>
<!-- Node2&#45;&gt;Node4 -->
<g id="edge3" class="edge">
<title>Node2&#45;&gt;Node4</title>
<path fill="none" stroke="midnightblue" d="M227.86,-162.69C246.46,-175.56 274.87,-193.62 302,-204.5 308.68,-207.18 315.81,-209.52 323,-211.56"/>
<polygon fill="midnightblue" stroke="midnightblue" points="322.23,-214.98 332.79,-214.16 324.02,-208.21 322.23,-214.98"/>
</g>
<!-- Node5 -->
<g id="node5" class="node">
<title>Node5</title>
<g id="a_node5"><a xlink:href="class_virtual_file.html#a8febfa5868cbfe68f6fd640e214e264a" target="_top" xlink:title=" ">
<polygon fill="white" stroke="black" points="337.5,-176 337.5,-195 436.5,-195 436.5,-176 337.5,-176"/>
<text text-anchor="middle" x="387" y="-183" font-family="Helvetica,sans-Serif" font-size="10.00">VirtualFile::getSize</text>
</a>
</g>
</g>
<!-- Node2&#45;&gt;Node5 -->
<g id="edge4" class="edge">
<title>Node2&#45;&gt;Node5</title>
<path fill="none" stroke="midnightblue" d="M266.11,-160.05C287.11,-164.51 310.65,-169.5 331.27,-173.88"/>
<polygon fill="midnightblue" stroke="midnightblue" points="330.63,-177.32 341.13,-175.98 332.08,-170.47 330.63,-177.32"/>
</g>
<!-- Node6 -->
<g id="node6" class="node">
<title>Node6</title>
<g id="a_node6"><a xlink:href="class_virtual_file.html#a888acb75cb32b3d1b1790e97309c0a05" target="_top" xlink:title="copy from buffer over into dst, move cursor">
<polygon fill="white" stroke="black" points="539,-132 539,-151 624,-151 624,-132 539,-132"/>
<text text-anchor="middle" x="581.5" y="-139" font-family="Helvetica,sans-Serif" font-size="10.00">VirtualFile::read</text>
</a>
</g>
</g>
<!-- Node2&#45;&gt;Node6 -->
<g id="edge5" class="edge">
<title>Node2&#45;&gt;Node6</title>
<path fill="none" stroke="midnightblue" d="M266.18,-146.55C338.57,-145.39 459.95,-143.44 528.77,-142.33"/>
<polygon fill="midnightblue" stroke="midnightblue" points="529,-145.83 538.94,-142.17 528.89,-138.83 529,-145.83"/>
</g>
<!-- Node7 -->
<g id="node7" class="node">
<title>Node7</title>
<g id="a_node7"><a xlink:href="class_virtual_file.html#abbdc300573ac1c30d2ae09b585af0a2b" target="_top" xlink:title="get memory bin in file size and fill it with file content">
<polygon fill="white" stroke="black" points="325.5,-50 325.5,-69 448.5,-69 448.5,-50 325.5,-50"/>
<text text-anchor="middle" x="387" y="-57" font-family="Helvetica,sans-Serif" font-size="10.00">VirtualFile::readFromFile</text>
</a>
</g>
</g>
<!-- Node2&#45;&gt;Node7 -->
<g id="edge6" class="edge">
<title>Node2&#45;&gt;Node7</title>
<path fill="none" stroke="midnightblue" d="M223.92,-132.24C242,-116.73 272.1,-93.12 302,-79.5 308.47,-76.55 315.43,-74.01 322.47,-71.82"/>
<polygon fill="midnightblue" stroke="midnightblue" points="323.44,-75.19 332.09,-69.06 321.51,-68.46 323.44,-75.19"/>
</g>
<!-- Node11 -->
<g id="node11" class="node">
<title>Node11</title>
<g id="a_node11"><a xlink:href="structmodel_1_1files_1_1_block_index_1_1_block.html#af6656e044626dfb1bf1c7efdb43794c5" target="_top" xlink:title="return false if reading failed, file to short?">
<polygon fill="white" stroke="black" points="327,-88.5 327,-118.5 447,-118.5 447,-88.5 327,-88.5"/>
<text text-anchor="start" x="335" y="-106.5" font-family="Helvetica,sans-Serif" font-size="10.00">model::files::BlockIndex</text>
<text text-anchor="middle" x="387" y="-95.5" font-family="Helvetica,sans-Serif" font-size="10.00">::Block::readFromFile</text>
</a>
</g>
</g>
<!-- Node2&#45;&gt;Node11 -->
<g id="edge10" class="edge">
<title>Node2&#45;&gt;Node11</title>
<path fill="none" stroke="midnightblue" d="M266.11,-132.97C282.45,-128.95 300.33,-124.56 317.18,-120.42"/>
<polygon fill="midnightblue" stroke="midnightblue" points="318.08,-123.8 326.95,-118.01 316.41,-117 318.08,-123.8"/>
</g>
<!-- Node12 -->
<g id="node12" class="node">
<title>Node12</title>
<g id="a_node12"><a xlink:href="structmodel_1_1files_1_1_block_index_1_1_block.html#a5b9d23582fe043ad44ed504129c8736b" target="_top" xlink:title=" ">
<polygon fill="white" stroke="black" points="327,-0.5 327,-30.5 447,-30.5 447,-0.5 327,-0.5"/>
<text text-anchor="start" x="335" y="-18.5" font-family="Helvetica,sans-Serif" font-size="10.00">model::files::BlockIndex</text>
<text text-anchor="middle" x="387" y="-7.5" font-family="Helvetica,sans-Serif" font-size="10.00">::Block::updateHash</text>
</a>
</g>
</g>
<!-- Node2&#45;&gt;Node12 -->
<g id="edge12" class="edge">
<title>Node2&#45;&gt;Node12</title>
<path fill="none" stroke="midnightblue" d="M216.41,-132.32C231.59,-109.1 263.65,-64.92 302,-40.5 306.73,-37.49 311.84,-34.82 317.13,-32.47"/>
<polygon fill="midnightblue" stroke="midnightblue" points="318.83,-35.56 326.78,-28.56 316.2,-29.07 318.83,-35.56"/>
</g>
<!-- Node8 -->
<g id="node8" class="node">
<title>Node8</title>
<g id="a_node8"><a xlink:href="class_file_lock_manager.html#a8399a835b02b2013283423050efa52ba" target="_top" xlink:title=" ">
<polygon fill="white" stroke="black" points="508,-88 508,-107 655,-107 655,-88 508,-88"/>
<text text-anchor="middle" x="581.5" y="-95" font-family="Helvetica,sans-Serif" font-size="10.00">FileLockManager::getInstance</text>
</a>
</g>
</g>
<!-- Node7&#45;&gt;Node8 -->
<g id="edge7" class="edge">
<title>Node7&#45;&gt;Node8</title>
<path fill="none" stroke="midnightblue" d="M436.58,-69.09C462.66,-74.24 495.01,-80.62 522.42,-86.03"/>
<polygon fill="midnightblue" stroke="midnightblue" points="521.78,-89.48 532.27,-87.98 523.14,-82.61 521.78,-89.48"/>
</g>
<!-- Node9 -->
<g id="node9" class="node">
<title>Node9</title>
<g id="a_node9"><a xlink:href="class_logger_manager.html#a88f5ea1c5a1bf96ccb17ffabc3fd9a9b" target="_top" xlink:title=" ">
<polygon fill="white" stroke="black" points="511.5,-50 511.5,-69 651.5,-69 651.5,-50 511.5,-50"/>
<text text-anchor="middle" x="581.5" y="-57" font-family="Helvetica,sans-Serif" font-size="10.00">LoggerManager::getInstance</text>
</a>
</g>
</g>
<!-- Node7&#45;&gt;Node9 -->
<g id="edge8" class="edge">
<title>Node7&#45;&gt;Node9</title>
<path fill="none" stroke="midnightblue" d="M448.64,-59.5C465.32,-59.5 483.65,-59.5 501.21,-59.5"/>
<polygon fill="midnightblue" stroke="midnightblue" points="501.44,-63 511.44,-59.5 501.44,-56 501.44,-63"/>
</g>
<!-- Node10 -->
<g id="node10" class="node">
<title>Node10</title>
<g id="a_node10"><a xlink:href="class_virtual_file.html#ab4fefe3e765c9cc319863a021e115fae" target="_top" xlink:title="get memory bin from memory manager by his own">
<polygon fill="white" stroke="black" points="526.5,-12 526.5,-31 636.5,-31 636.5,-12 526.5,-12"/>
<text text-anchor="middle" x="581.5" y="-19" font-family="Helvetica,sans-Serif" font-size="10.00">VirtualFile::VirtualFile</text>
</a>
</g>
</g>
<!-- Node7&#45;&gt;Node10 -->
<g id="edge9" class="edge">
<title>Node7&#45;&gt;Node10</title>
<path fill="none" stroke="midnightblue" d="M436.58,-49.91C462.66,-44.76 495.01,-38.38 522.42,-32.97"/>
<polygon fill="midnightblue" stroke="midnightblue" points="523.14,-36.39 532.27,-31.02 521.78,-29.52 523.14,-36.39"/>
</g>
<!-- Node11&#45;&gt;Node6 -->
<g id="edge11" class="edge">
<title>Node11&#45;&gt;Node6</title>
<path fill="none" stroke="midnightblue" d="M447.06,-115.16C473.19,-120.32 503.64,-126.33 528.85,-131.3"/>
<polygon fill="midnightblue" stroke="midnightblue" points="528.46,-134.79 538.95,-133.3 529.82,-127.93 528.46,-134.79"/>
</g>
</g>
</svg>
