<?xml version="1.0" encoding="UTF-8" standalone="no"?>
<!DOCTYPE svg PUBLIC "-//W3C//DTD SVG 1.1//EN"
 "http://www.w3.org/Graphics/SVG/1.1/DTD/svg11.dtd">
<!-- Generated by graphviz version 2.50.0 (20211204.2007)
 -->
<!-- Title: MainServer::main Pages: 1 -->
<svg width="283pt" height="329pt"
 viewBox="0.00 0.00 283.00 328.50" xmlns="http://www.w3.org/2000/svg" xmlns:xlink="http://www.w3.org/1999/xlink">
<g id="graph0" class="graph" transform="scale(1 1) rotate(0) translate(4 324.5)">
<title>MainServer::main</title>
<polygon fill="white" stroke="transparent" points="-4,4 -4,-324.5 279,-324.5 279,4 -4,4"/>
<!-- Node1 -->
<g id="node1" class="node">
<title>Node1</title>
<g id="a_node1"><a xlink:title=" ">
<polygon fill="#bfbfbf" stroke="black" points="0,-145.5 0,-164.5 92,-164.5 92,-145.5 0,-145.5"/>
<text text-anchor="middle" x="46" y="-152.5" font-family="Helvetica,sans-Serif" font-size="10.00">MainServer::main</text>
</a>
</g>
</g>
<!-- Node2 -->
<g id="node2" class="node">
<title>Node2</title>
<g id="a_node2"><a xlink:href="class_main_server.html#ac3284950b7ed5206d1cdd8a32191f1d5" target="_top" xlink:title=" ">
<polygon fill="white" stroke="black" points="135,-290 135,-320 268,-320 268,-290 135,-290"/>
<text text-anchor="start" x="143" y="-308" font-family="Helvetica,sans-Serif" font-size="10.00">MainServer::createConsole</text>
<text text-anchor="middle" x="201.5" y="-297" font-family="Helvetica,sans-Serif" font-size="10.00">FileAsyncLogger</text>
</a>
</g>
</g>
<!-- Node1&#45;&gt;Node2 -->
<g id="edge1" class="edge">
<title>Node1&#45;&gt;Node2</title>
<path fill="none" stroke="midnightblue" d="M50.61,-164.81C59.79,-188.38 86.28,-248.65 128,-281 129.79,-282.39 131.66,-283.69 133.6,-284.93"/>
<polygon fill="midnightblue" stroke="midnightblue" points="132,-288.05 142.44,-289.88 135.42,-281.94 132,-288.05"/>
</g>
<!-- Node3 -->
<g id="node3" class="node">
<title>Node3</title>
<g id="a_node3"><a xlink:href="class_main_server.html#ae9cfd77a0be2aa9e8a46a7482139ab3a" target="_top" xlink:title=" ">
<polygon fill="white" stroke="black" points="131,-241 131,-271 272,-271 272,-241 131,-241"/>
<text text-anchor="start" x="139" y="-259" font-family="Helvetica,sans-Serif" font-size="10.00">MainServer::createFileAsync</text>
<text text-anchor="middle" x="201.5" y="-248" font-family="Helvetica,sans-Serif" font-size="10.00">Logger</text>
</a>
</g>
</g>
<!-- Node1&#45;&gt;Node3 -->
<g id="edge2" class="edge">
<title>Node1&#45;&gt;Node3</title>
<path fill="none" stroke="midnightblue" d="M54.75,-164.53C68.14,-180.41 97.12,-212.37 128,-231 131.43,-233.07 135.05,-235 138.78,-236.79"/>
<polygon fill="midnightblue" stroke="midnightblue" points="137.64,-240.11 148.2,-240.96 140.47,-233.71 137.64,-240.11"/>
</g>
<!-- Node4 -->
<g id="node4" class="node">
<title>Node4</title>
<g id="a_node4"><a xlink:href="class_main_server.html#a04ef99c1f90af03efbe7b80990924e29" target="_top" xlink:title=" ">
<polygon fill="white" stroke="black" points="141,-202.5 141,-221.5 262,-221.5 262,-202.5 141,-202.5"/>
<text text-anchor="middle" x="201.5" y="-209.5" font-family="Helvetica,sans-Serif" font-size="10.00">MainServer::displayHelp</text>
</a>
</g>
</g>
<!-- Node1&#45;&gt;Node4 -->
<g id="edge3" class="edge">
<title>Node1&#45;&gt;Node4</title>
<path fill="none" stroke="midnightblue" d="M64.93,-164.57C81.09,-172.91 105.65,-184.91 128,-193 134.73,-195.44 141.91,-197.7 149.05,-199.76"/>
<polygon fill="midnightblue" stroke="midnightblue" points="148.12,-203.14 158.69,-202.43 149.99,-196.39 148.12,-203.14"/>
</g>
<!-- Node5 -->
<g id="node5" class="node">
<title>Node5</title>
<g id="a_node5"><a xlink:href="class_group_manager.html#a023ecd32edba5827e65a8228298fdffc" target="_top" xlink:title=" ">
<polygon fill="white" stroke="black" points="133,-164.5 133,-183.5 270,-183.5 270,-164.5 133,-164.5"/>
<text text-anchor="middle" x="201.5" y="-171.5" font-family="Helvetica,sans-Serif" font-size="10.00">GroupManager::getInstance</text>
</a>
</g>
</g>
<!-- Node1&#45;&gt;Node5 -->
<g id="edge4" class="edge">
<title>Node1&#45;&gt;Node5</title>
<path fill="none" stroke="midnightblue" d="M92.22,-160.6C101.88,-161.79 112.33,-163.09 122.81,-164.38"/>
<polygon fill="midnightblue" stroke="midnightblue" points="122.48,-167.87 132.84,-165.62 123.34,-160.92 122.48,-167.87"/>
</g>
<!-- Node6 -->
<g id="node6" class="node">
<title>Node6</title>
<g id="a_node6"><a xlink:href="class_ordering_manager.html#a5a1b385caf1b32d3e9a6e02b91ff8442" target="_top" xlink:title=" ">
<polygon fill="white" stroke="black" points="128,-126.5 128,-145.5 275,-145.5 275,-126.5 128,-126.5"/>
<text text-anchor="middle" x="201.5" y="-133.5" font-family="Helvetica,sans-Serif" font-size="10.00">OrderingManager::getInstance</text>
</a>
</g>
</g>
<!-- Node1&#45;&gt;Node6 -->
<g id="edge5" class="edge">
<title>Node1&#45;&gt;Node6</title>
<path fill="none" stroke="midnightblue" d="M92.22,-149.4C100.39,-148.39 109.12,-147.31 117.96,-146.22"/>
<polygon fill="midnightblue" stroke="midnightblue" points="118.46,-149.68 127.96,-144.98 117.6,-142.73 118.46,-149.68"/>
</g>
<!-- Node7 -->
<g id="node7" class="node">
<title>Node7</title>
<g id="a_node7"><a xlink:href="namespace_server_globals.html#acbe893df3895f01b177644eb214a1c65" target="_top" xlink:title=" ">
<polygon fill="white" stroke="black" points="146,-88.5 146,-107.5 257,-107.5 257,-88.5 146,-88.5"/>
<text text-anchor="middle" x="201.5" y="-95.5" font-family="Helvetica,sans-Serif" font-size="10.00">ServerGlobals::initIota</text>
</a>
</g>
</g>
<!-- Node1&#45;&gt;Node7 -->
<g id="edge6" class="edge">
<title>Node1&#45;&gt;Node7</title>
<path fill="none" stroke="midnightblue" d="M64.93,-145.43C81.09,-137.09 105.65,-125.09 128,-117 134.73,-114.56 141.91,-112.3 149.05,-110.24"/>
<polygon fill="midnightblue" stroke="midnightblue" points="149.99,-113.61 158.69,-107.57 148.12,-106.86 149.99,-113.61"/>
</g>
<!-- Node8 -->
<g id="node8" class="node">
<title>Node8</title>
<g id="a_node8"><a xlink:href="namespace_server_globals.html#a569795b5d83cb120ec102b934a9c1d0f" target="_top" xlink:title=" ">
<polygon fill="white" stroke="black" points="132,-39 132,-69 271,-69 271,-39 132,-39"/>
<text text-anchor="start" x="140" y="-57" font-family="Helvetica,sans-Serif" font-size="10.00">ServerGlobals::initSSLClient</text>
<text text-anchor="middle" x="201.5" y="-46" font-family="Helvetica,sans-Serif" font-size="10.00">Context</text>
</a>
</g>
</g>
<!-- Node1&#45;&gt;Node8 -->
<g id="edge7" class="edge">
<title>Node1&#45;&gt;Node8</title>
<path fill="none" stroke="midnightblue" d="M54.75,-145.47C68.14,-129.59 97.12,-97.63 128,-79 131.43,-76.93 135.05,-75 138.78,-73.21"/>
<polygon fill="midnightblue" stroke="midnightblue" points="140.47,-76.29 148.2,-69.04 137.64,-69.89 140.47,-76.29"/>
</g>
<!-- Node9 -->
<g id="node9" class="node">
<title>Node9</title>
<g id="a_node9"><a xlink:href="classtask_1_1_c_p_u_sheduler.html#acb38f221bfaeafcf15d9b7f375786d31" target="_top" xlink:title=" ">
<polygon fill="white" stroke="black" points="139,-0.5 139,-19.5 264,-19.5 264,-0.5 139,-0.5"/>
<text text-anchor="middle" x="201.5" y="-7.5" font-family="Helvetica,sans-Serif" font-size="10.00">task::CPUSheduler::stop</text>
</a>
</g>
</g>
<!-- Node1&#45;&gt;Node9 -->
<g id="edge8" class="edge">
<title>Node1&#45;&gt;Node9</title>
<path fill="none" stroke="midnightblue" d="M50.4,-145.48C59.28,-122.05 85.45,-61.19 128,-30 131.23,-27.64 134.72,-25.55 138.36,-23.71"/>
<polygon fill="midnightblue" stroke="midnightblue" points="139.93,-26.85 147.69,-19.63 137.12,-20.44 139.93,-26.85"/>
</g>
</g>
</svg>
