<?xml version="1.0" encoding="UTF-8" standalone="no"?>
<!DOCTYPE svg PUBLIC "-//W3C//DTD SVG 1.1//EN"
 "http://www.w3.org/Graphics/SVG/1.1/DTD/svg11.dtd">
<!-- Generated by graphviz version 2.50.0 (20211204.2007)
 -->
<!-- Title: model::files::AddressIndex::calculateHash Pages: 1 -->
<svg width="495pt" height="129pt"
 viewBox="0.00 0.00 495.00 129.00" xmlns="http://www.w3.org/2000/svg" xmlns:xlink="http://www.w3.org/1999/xlink">
<g id="graph0" class="graph" transform="scale(1 1) rotate(0) translate(4 125)">
<title>model::files::AddressIndex::calculateHash</title>
<polygon fill="white" stroke="transparent" points="-4,4 -4,-125 491,-125 491,4 -4,4"/>
<!-- Node1 -->
<g id="node1" class="node">
<title>Node1</title>
<g id="a_node1"><a xlink:title="Calculate file hash from map entrys sorted by indices.">
<polygon fill="#bfbfbf" stroke="black" points="356,-65.5 356,-95.5 487,-95.5 487,-65.5 356,-65.5"/>
<text text-anchor="start" x="364" y="-83.5" font-family="Helvetica,sans-Serif" font-size="10.00">model::files::AddressIndex</text>
<text text-anchor="middle" x="421.5" y="-72.5" font-family="Helvetica,sans-Serif" font-size="10.00">::calculateHash</text>
</a>
</g>
</g>
<!-- Node2 -->
<g id="node2" class="node">
<title>Node2</title>
<g id="a_node2"><a xlink:href="classmodel_1_1files_1_1_address_index.html#a1fd0f56e79272681f80bf099238a485a" target="_top" xlink:title="Load index, public key pairs from file and check file integrity with sha256 hash at end of file,...">
<polygon fill="white" stroke="black" points="189,-90.5 189,-120.5 320,-120.5 320,-90.5 189,-90.5"/>
<text text-anchor="start" x="197" y="-108.5" font-family="Helvetica,sans-Serif" font-size="10.00">model::files::AddressIndex</text>
<text text-anchor="middle" x="254.5" y="-97.5" font-family="Helvetica,sans-Serif" font-size="10.00">::loadFromFile</text>
</a>
</g>
</g>
<!-- Node1&#45;&gt;Node2 -->
<g id="edge1" class="edge">
<title>Node1&#45;&gt;Node2</title>
<path fill="none" stroke="midnightblue" d="M345.76,-91.82C337.18,-93.12 328.48,-94.44 320.05,-95.72"/>
<polygon fill="midnightblue" stroke="midnightblue" points="346.4,-95.27 355.76,-90.31 345.35,-88.35 346.4,-95.27"/>
</g>
<!-- Node4 -->
<g id="node4" class="node">
<title>Node4</title>
<g id="a_node4"><a xlink:href="classmodel_1_1files_1_1_address_index.html#ac530703f10a574559e0885acd257a2ea" target="_top" xlink:title="Write new index file if checkFile return true, use Poco::FastMutex::ScopedLock, fileLock via FileLock...">
<polygon fill="white" stroke="black" points="189,-41.5 189,-71.5 320,-71.5 320,-41.5 189,-41.5"/>
<text text-anchor="start" x="197" y="-59.5" font-family="Helvetica,sans-Serif" font-size="10.00">model::files::AddressIndex</text>
<text text-anchor="middle" x="254.5" y="-48.5" font-family="Helvetica,sans-Serif" font-size="10.00">::writeToFile</text>
</a>
</g>
</g>
<!-- Node1&#45;&gt;Node4 -->
<g id="edge3" class="edge">
<title>Node1&#45;&gt;Node4</title>
<path fill="none" stroke="midnightblue" d="M345.76,-69.63C337.18,-68.38 328.48,-67.12 320.05,-65.89"/>
<polygon fill="midnightblue" stroke="midnightblue" points="345.36,-73.11 355.76,-71.08 346.37,-66.18 345.36,-73.11"/>
</g>
<!-- Node3 -->
<g id="node3" class="node">
<title>Node3</title>
<g id="a_node3"><a xlink:href="classmodel_1_1files_1_1_address_index.html#a41141dcd1983c745a3472e8ebbb191e5" target="_top" xlink:title="Load from file if exist, fileLock via FileLockManager, I/O read if exist.">
<polygon fill="white" stroke="black" points="11,-90.5 11,-120.5 142,-120.5 142,-90.5 11,-90.5"/>
<text text-anchor="start" x="19" y="-108.5" font-family="Helvetica,sans-Serif" font-size="10.00">model::files::AddressIndex</text>
<text text-anchor="middle" x="76.5" y="-97.5" font-family="Helvetica,sans-Serif" font-size="10.00">::AddressIndex</text>
</a>
</g>
</g>
<!-- Node2&#45;&gt;Node3 -->
<g id="edge2" class="edge">
<title>Node2&#45;&gt;Node3</title>
<path fill="none" stroke="midnightblue" d="M178.79,-105.5C166.57,-105.5 153.99,-105.5 142.03,-105.5"/>
<polygon fill="midnightblue" stroke="midnightblue" points="178.96,-109 188.96,-105.5 178.96,-102 178.96,-109"/>
</g>
<!-- Node5 -->
<g id="node5" class="node">
<title>Node5</title>
<g id="a_node5"><a xlink:href="classmodel_1_1files_1_1_address_index.html#a4ae311bf893bc8b199071575a0610000" target="_top" xlink:title="Adding new index, account address public key pair into memory, use Poco::FastMutex::ScopedLock.">
<polygon fill="white" stroke="black" points="0,-50 0,-69 153,-69 153,-50 0,-50"/>
<text text-anchor="middle" x="76.5" y="-57" font-family="Helvetica,sans-Serif" font-size="10.00">model::files::AddressIndex::add</text>
</a>
</g>
</g>
<!-- Node4&#45;&gt;Node5 -->
<g id="edge4" class="edge">
<title>Node4&#45;&gt;Node5</title>
<path fill="none" stroke="midnightblue" d="M178.71,-57.77C170.22,-57.92 161.56,-58.07 153.06,-58.21"/>
<polygon fill="midnightblue" stroke="midnightblue" points="179.02,-61.27 188.96,-57.6 178.91,-54.27 179.02,-61.27"/>
</g>
<!-- Node6 -->
<g id="node6" class="node">
<title>Node6</title>
<g id="a_node6"><a xlink:href="classmodel_1_1files_1_1_address_index.html#a4e1f457f7f8715f2fda15df438de7ae9" target="_top" xlink:title=" ">
<polygon fill="white" stroke="black" points="11,-0.5 11,-30.5 142,-30.5 142,-0.5 11,-0.5"/>
<text text-anchor="start" x="19" y="-18.5" font-family="Helvetica,sans-Serif" font-size="10.00">model::files::AddressIndex</text>
<text text-anchor="middle" x="76.5" y="-7.5" font-family="Helvetica,sans-Serif" font-size="10.00">::~AddressIndex</text>
</a>
</g>
</g>
<!-- Node4&#45;&gt;Node6 -->
<g id="edge5" class="edge">
<title>Node4&#45;&gt;Node6</title>
<path fill="none" stroke="midnightblue" d="M179.16,-39.18C166.82,-36.31 154.1,-33.35 142.03,-30.53"/>
<polygon fill="midnightblue" stroke="midnightblue" points="178.43,-42.61 188.96,-41.47 180.02,-35.79 178.43,-42.61"/>
</g>
</g>
</svg>
