<?xml version="1.0" encoding="UTF-8" standalone="no"?>
<!DOCTYPE svg PUBLIC "-//W3C//DTD SVG 1.1//EN"
 "http://www.w3.org/Graphics/SVG/1.1/DTD/svg11.dtd">
<!-- Generated by graphviz version 2.50.0 (20211204.2007)
 -->
<!-- Title: IotaMessageToTransactionTask Pages: 1 -->
<!--zoomable 701 -->
<svg id="main" version="1.1" xmlns="http://www.w3.org/2000/svg" xmlns:xlink="http://www.w3.org/1999/xlink" xml:space="preserve" onload="init(evt)">
<style type="text/css"><![CDATA[
.edge:hover path { stroke: red; }
.edge:hover polygon { stroke: red; fill: red; }
]]></style>
<script type="text/javascript"><![CDATA[
var edges = document.getElementsByTagName('g');
if (edges && edges.length) {
  for (var i=0;i<edges.length;i++) {
    if (edges[i].id.substr(0,4)=='edge') {
      edges[i].setAttribute('class','edge');
    }
  }
}
]]></script>
        <defs>
                <circle id="rim" cx="0" cy="0" r="7"/>
                <circle id="rim2" cx="0" cy="0" r="3.5"/>
                <g id="zoomPlus">
                        <use xlink:href="#rim" fill="#404040">
                                <set attributeName="fill" to="#808080" begin="zoomplus.mouseover" end="zoomplus.mouseout"/>
                        </use>
                        <path d="M-4,0h8M0,-4v8" fill="none" stroke="white" stroke-width="1.5" pointer-events="none"/>
                </g>
                <g id="zoomMin">
                        <use xlink:href="#rim" fill="#404040">
                                <set attributeName="fill" to="#808080" begin="zoomminus.mouseover" end="zoomminus.mouseout"/>
                        </use>
                        <path d="M-4,0h8" fill="none" stroke="white" stroke-width="1.5" pointer-events="none"/>
                </g>
                <g id="dirArrow">
                        <path fill="none" stroke="white" stroke-width="1.5" d="M0,-3.0v7 M-2.5,-0.5L0,-3.0L2.5,-0.5"/>
                </g>
               <g id="resetDef">
                       <use xlink:href="#rim2" fill="#404040">
                               <set attributeName="fill" to="#808080" begin="reset.mouseover" end="reset.mouseout"/>
                       </use>
               </g>
        </defs>

<script type="text/javascript">
var viewWidth = 262;
var viewHeight = 701;
var sectionId = 'dynsection-1';
</script>
<script xlink:href="svgpan.js"/>
<svg id="graph" class="graph">
<g id="viewport">
<title>IotaMessageToTransactionTask</title>
<polygon fill="white" stroke="transparent" points="-4,4 -4,-697 257.5,-697 257.5,4 -4,4"/>
<!-- Node1 -->
<g id="node1" class="node">
<title>Node1</title>
<g id="a_node1"><a xlink:title=": Get confirmed transaction id from Iota, process it">
<polygon fill="#bfbfbf" stroke="black" points="88,-0.5 88,-156.5 242,-156.5 242,-0.5 88,-0.5"/>
<text text-anchor="middle" x="165" y="-144.5" font-family="Helvetica,sans-Serif" font-size="10.00">IotaMessageToTransactionTask</text>
<polyline fill="none" stroke="black" points="88,-137.5 242,-137.5 "/>
<text text-anchor="start" x="96" y="-125.5" font-family="Helvetica,sans-Serif" font-size="10.00"># mMilestoneIndex</text>
<text text-anchor="start" x="96" y="-114.5" font-family="Helvetica,sans-Serif" font-size="10.00"># mTimestamp</text>
<text text-anchor="start" x="96" y="-103.5" font-family="Helvetica,sans-Serif" font-size="10.00"># mTransaction</text>
<polyline fill="none" stroke="black" points="88,-96.5 242,-96.5 "/>
<text text-anchor="start" x="96" y="-84.5" font-family="Helvetica,sans-Serif" font-size="10.00">+ IotaMessageToTransaction</text>
<text text-anchor="start" x="96" y="-73.5" font-family="Helvetica,sans-Serif" font-size="10.00">Task()</text>
<text text-anchor="start" x="96" y="-62.5" font-family="Helvetica,sans-Serif" font-size="10.00">+ getResourceType()</text>
<text text-anchor="start" x="96" y="-51.5" font-family="Helvetica,sans-Serif" font-size="10.00">+ run()</text>
<text text-anchor="start" x="96" y="-40.5" font-family="Helvetica,sans-Serif" font-size="10.00">+ ~IotaMessageToTransaction</text>
<text text-anchor="start" x="96" y="-29.5" font-family="Helvetica,sans-Serif" font-size="10.00">Task()</text>
<text text-anchor="start" x="96" y="-18.5" font-family="Helvetica,sans-Serif" font-size="10.00">+ getMilestoneIndex()</text>
<text text-anchor="start" x="96" y="-7.5" font-family="Helvetica,sans-Serif" font-size="10.00"># getGradidoGroupAlias()</text>
</a>
</g>
</g>
<!-- Node2 -->
<g id="node2" class="node">
<title>Node2</title>
<g id="a_node2"><a xlink:href="classtask_1_1_c_p_u_task.html" target="_top" xlink:title=" ">
<polygon fill="white" stroke="black" points="15.5,-215.5 15.5,-338.5 122.5,-338.5 122.5,-215.5 15.5,-215.5"/>
<text text-anchor="middle" x="69" y="-326.5" font-family="Helvetica,sans-Serif" font-size="10.00">task::CPUTask</text>
<polyline fill="none" stroke="black" points="15.5,-319.5 122.5,-319.5 "/>
<text text-anchor="middle" x="69" y="-307.5" font-family="Helvetica,sans-Serif" font-size="10.00"> </text>
<polyline fill="none" stroke="black" points="15.5,-300.5 122.5,-300.5 "/>
<text text-anchor="start" x="23.5" y="-288.5" font-family="Helvetica,sans-Serif" font-size="10.00">+ CPUTask()</text>
<text text-anchor="start" x="23.5" y="-277.5" font-family="Helvetica,sans-Serif" font-size="10.00">+ CPUTask()</text>
<text text-anchor="start" x="23.5" y="-266.5" font-family="Helvetica,sans-Serif" font-size="10.00">+ CPUTask()</text>
<text text-anchor="start" x="23.5" y="-255.5" font-family="Helvetica,sans-Serif" font-size="10.00">+ ~CPUTask()</text>
<text text-anchor="start" x="23.5" y="-244.5" font-family="Helvetica,sans-Serif" font-size="10.00">+ getResourceType()</text>
<text text-anchor="start" x="23.5" y="-233.5" font-family="Helvetica,sans-Serif" font-size="10.00">+ scheduleTask()</text>
<text text-anchor="start" x="23.5" y="-222.5" font-family="Helvetica,sans-Serif" font-size="10.00"># triggerSheduler()</text>
</a>
</g>
</g>
<!-- Node2&#45;&gt;Node1 -->
<g id="edge1" class="edge">
<title>Node2&#45;&gt;Node1</title>
<path fill="none" stroke="midnightblue" d="M103.14,-206.13C110.98,-190.06 119.37,-172.89 127.36,-156.55"/>
<polygon fill="none" stroke="midnightblue" points="99.83,-204.92 98.59,-215.44 106.12,-207.99 99.83,-204.92"/>
</g>
<!-- Node3 -->
<g id="node3" class="node">
<title>Node3</title>
<g id="a_node3"><a xlink:href="classtask_1_1_task.html" target="_top" xlink:title=" ">
<polygon fill="white" stroke="black" points="0,-387.5 0,-587.5 138,-587.5 138,-387.5 0,-387.5"/>
<text text-anchor="middle" x="69" y="-575.5" font-family="Helvetica,sans-Serif" font-size="10.00">task::Task</text>
<polyline fill="none" stroke="black" points="0,-568.5 138,-568.5 "/>
<text text-anchor="start" x="8" y="-556.5" font-family="Helvetica,sans-Serif" font-size="10.00"># mTaskScheduled</text>
<polyline fill="none" stroke="black" points="0,-549.5 138,-549.5 "/>
<text text-anchor="start" x="8" y="-537.5" font-family="Helvetica,sans-Serif" font-size="10.00">+ Task()</text>
<text text-anchor="start" x="8" y="-526.5" font-family="Helvetica,sans-Serif" font-size="10.00">+ Task()</text>
<text text-anchor="start" x="8" y="-515.5" font-family="Helvetica,sans-Serif" font-size="10.00">+ ~Task()</text>
<text text-anchor="start" x="8" y="-504.5" font-family="Helvetica,sans-Serif" font-size="10.00">+ isReady()</text>
<text text-anchor="start" x="8" y="-493.5" font-family="Helvetica,sans-Serif" font-size="10.00">+ isAllParentsReady()</text>
<text text-anchor="start" x="8" y="-482.5" font-family="Helvetica,sans-Serif" font-size="10.00">+ isTaskFinished()</text>
<text text-anchor="start" x="8" y="-471.5" font-family="Helvetica,sans-Serif" font-size="10.00">+ run()</text>
<text text-anchor="start" x="8" y="-460.5" font-family="Helvetica,sans-Serif" font-size="10.00">+ lock()</text>
<text text-anchor="start" x="8" y="-449.5" font-family="Helvetica,sans-Serif" font-size="10.00">+ unlock()</text>
<text text-anchor="start" x="8" y="-438.5" font-family="Helvetica,sans-Serif" font-size="10.00">+ setParentTaskPtrInArray()</text>
<text text-anchor="start" x="8" y="-427.5" font-family="Helvetica,sans-Serif" font-size="10.00">and 10 more...</text>
<text text-anchor="start" x="8" y="-416.5" font-family="Helvetica,sans-Serif" font-size="10.00"># isTaskSheduled()</text>
<text text-anchor="start" x="8" y="-405.5" font-family="Helvetica,sans-Serif" font-size="10.00"># taskScheduled()</text>
<text text-anchor="start" x="8" y="-394.5" font-family="Helvetica,sans-Serif" font-size="10.00"># getParent()</text>
</a>
</g>
</g>
<!-- Node3&#45;&gt;Node2 -->
<g id="edge2" class="edge">
<title>Node3&#45;&gt;Node2</title>
<path fill="none" stroke="midnightblue" d="M69,-377.25C69,-363.94 69,-350.73 69,-338.51"/>
<polygon fill="none" stroke="midnightblue" points="65.5,-377.44 69,-387.44 72.5,-377.44 65.5,-377.44"/>
</g>
<!-- Node4 -->
<g id="node4" class="node">
<title>Node4</title>
<g id="a_node4"><a xlink:href="classtask_1_1_command.html" target="_top" xlink:title=" ">
<polygon fill="white" stroke="black" points="25.5,-635.5 25.5,-692.5 112.5,-692.5 112.5,-635.5 25.5,-635.5"/>
<text text-anchor="middle" x="69" y="-680.5" font-family="Helvetica,sans-Serif" font-size="10.00">task::Command</text>
<polyline fill="none" stroke="black" points="25.5,-673.5 112.5,-673.5 "/>
<text text-anchor="middle" x="69" y="-661.5" font-family="Helvetica,sans-Serif" font-size="10.00"> </text>
<polyline fill="none" stroke="black" points="25.5,-654.5 112.5,-654.5 "/>
<text text-anchor="start" x="33.5" y="-642.5" font-family="Helvetica,sans-Serif" font-size="10.00">+ taskFinished()</text>
</a>
</g>
</g>
<!-- Node4&#45;&gt;Node3 -->
<g id="edge3" class="edge">
<title>Node4&#45;&gt;Node3</title>
<path fill="none" stroke="#404040" d="M69,-635.35C69,-625.2 69,-612.98 69,-599.98"/>
<polygon fill="none" stroke="#404040" points="69,-599.87 65,-593.87 69,-587.87 73,-593.87 69,-599.87"/>
<text text-anchor="middle" x="113" y="-609" font-family="Helvetica,sans-Serif" font-size="10.00"> #mFinishCommand</text>
</g>
<!-- Node5 -->
<g id="node5" class="node">
<title>Node5</title>
<g id="a_node5"><a xlink:href="classiota_1_1_message_id.html" target="_top" xlink:title=" ">
<polygon fill="white" stroke="black" points="140.5,-204.5 140.5,-349.5 253.5,-349.5 253.5,-204.5 140.5,-204.5"/>
<text text-anchor="middle" x="197" y="-337.5" font-family="Helvetica,sans-Serif" font-size="10.00">iota::MessageId</text>
<polyline fill="none" stroke="black" points="140.5,-330.5 253.5,-330.5 "/>
<text text-anchor="start" x="148.5" y="-318.5" font-family="Helvetica,sans-Serif" font-size="10.00"># mMessageId</text>
<polyline fill="none" stroke="black" points="140.5,-311.5 253.5,-311.5 "/>
<text text-anchor="start" x="148.5" y="-299.5" font-family="Helvetica,sans-Serif" font-size="10.00">+ MessageId()</text>
<text text-anchor="start" x="148.5" y="-288.5" font-family="Helvetica,sans-Serif" font-size="10.00">+ operator==()</text>
<text text-anchor="start" x="148.5" y="-277.5" font-family="Helvetica,sans-Serif" font-size="10.00">+ operator&lt;()</text>
<text text-anchor="start" x="148.5" y="-266.5" font-family="Helvetica,sans-Serif" font-size="10.00">+ fromByteArray()</text>
<text text-anchor="start" x="148.5" y="-255.5" font-family="Helvetica,sans-Serif" font-size="10.00">+ fromHex()</text>
<text text-anchor="start" x="148.5" y="-244.5" font-family="Helvetica,sans-Serif" font-size="10.00">+ toMemoryBin()</text>
<text text-anchor="start" x="148.5" y="-233.5" font-family="Helvetica,sans-Serif" font-size="10.00">+ toHex()</text>
<text text-anchor="start" x="148.5" y="-222.5" font-family="Helvetica,sans-Serif" font-size="10.00">+ isEmpty()</text>
<text text-anchor="start" x="148.5" y="-211.5" font-family="Helvetica,sans-Serif" font-size="10.00">+ getMessageIdByte()</text>
</a>
</g>
</g>
<!-- Node5&#45;&gt;Node1 -->
<g id="edge4" class="edge">
<title>Node5&#45;&gt;Node1</title>
<path fill="none" stroke="#404040" d="M185.31,-204.22C183.42,-192.63 181.45,-180.51 179.5,-168.56"/>
<polygon fill="none" stroke="#404040" points="179.5,-168.55 174.59,-163.27 177.57,-156.71 182.49,-161.99 179.5,-168.55"/>
<text text-anchor="middle" x="213" y="-178" font-family="Helvetica,sans-Serif" font-size="10.00"> #mMessageId</text>
</g>
</g>
</svg>
        <g id="navigator" transform="translate(0 0)" fill="#404254">
                <rect fill="#f2f5e9" fill-opacity="0.5" stroke="#606060" stroke-width=".5" x="0" y="0" width="60" height="60"/>
                <use id="zoomplus" xlink:href="#zoomPlus" x="17" y="9" onmousedown="handleZoom(evt,'in')"/>
                <use id="zoomminus" xlink:href="#zoomMin" x="42" y="9" onmousedown="handleZoom(evt,'out')"/>
                <use id="reset" xlink:href="#resetDef" x="30" y="36" onmousedown="handleReset()"/>
                <g id="arrowUp" xlink:href="#dirArrow" transform="translate(30 24)" onmousedown="handlePan(0,-1)">
                  <use xlink:href="#rim" fill="#404040">
                        <set attributeName="fill" to="#808080" begin="arrowUp.mouseover" end="arrowUp.mouseout"/>
                  </use>
                  <path fill="none" stroke="white" stroke-width="1.5" d="M0,-3.0v7 M-2.5,-0.5L0,-3.0L2.5,-0.5"/>
                </g>
                <g id="arrowRight" xlink:href="#dirArrow" transform="rotate(90) translate(36 -43)" onmousedown="handlePan(1,0)">
                  <use xlink:href="#rim" fill="#404040">
                        <set attributeName="fill" to="#808080" begin="arrowRight.mouseover" end="arrowRight.mouseout"/>
                  </use>
                  <path fill="none" stroke="white" stroke-width="1.5" d="M0,-3.0v7 M-2.5,-0.5L0,-3.0L2.5,-0.5"/>
                </g>
                <g id="arrowDown" xlink:href="#dirArrow" transform="rotate(180) translate(-30 -48)" onmousedown="handlePan(0,1)">
                  <use xlink:href="#rim" fill="#404040">
                        <set attributeName="fill" to="#808080" begin="arrowDown.mouseover" end="arrowDown.mouseout"/>
                  </use>
                  <path fill="none" stroke="white" stroke-width="1.5" d="M0,-3.0v7 M-2.5,-0.5L0,-3.0L2.5,-0.5"/>
                </g>
                <g id="arrowLeft" xlink:href="#dirArrow" transform="rotate(270) translate(-36 17)" onmousedown="handlePan(-1,0)">
                  <use xlink:href="#rim" fill="#404040">
                        <set attributeName="fill" to="#808080" begin="arrowLeft.mouseover" end="arrowLeft.mouseout"/>
                  </use>
                  <path fill="none" stroke="white" stroke-width="1.5" d="M0,-3.0v7 M-2.5,-0.5L0,-3.0L2.5,-0.5"/>
                </g>
        </g>
        <svg viewBox="0 0 15 15" width="100%" height="30px" preserveAspectRatio="xMaxYMin meet">
         <g id="arrow_out" transform="scale(0.3 0.3)">
          <a xlink:href="class_iota_message_to_transaction_task__coll__graph_org.svg" target="_base">
           <rect id="button" ry="5" rx="5" y="6" x="6" height="38" width="38"
                fill="#f2f5e9" fill-opacity="0.5" stroke="#606060" stroke-width="1.0"/>
           <path id="arrow"
             d="M 11.500037,31.436501 C 11.940474,20.09759 22.043105,11.32322 32.158766,21.979434 L 37.068811,17.246167 C 37.068811,17.246167 37.088388,32 37.088388,32 L 22.160133,31.978069 C 22.160133,31.978069 26.997745,27.140456 26.997745,27.140456 C 18.528582,18.264221 13.291696,25.230495 11.500037,31.436501 z"
             style="fill:#404040;"/>
          </a>
         </g>
        </svg>
</svg>
