<?xml version="1.0" encoding="UTF-8" standalone="no"?>
<!DOCTYPE svg PUBLIC "-//W3C//DTD SVG 1.1//EN"
 "http://www.w3.org/Graphics/SVG/1.1/DTD/svg11.dtd">
<!-- Generated by graphviz version 2.50.0 (20211204.2007)
 -->
<!-- Title: FuzzyTimer Pages: 1 -->
<svg width="97pt" height="215pt"
 viewBox="0.00 0.00 97.00 215.00" xmlns="http://www.w3.org/2000/svg" xmlns:xlink="http://www.w3.org/1999/xlink">
<g id="graph0" class="graph" transform="scale(1 1) rotate(0) translate(4 211)">
<title>FuzzyTimer</title>
<polygon fill="white" stroke="transparent" points="-4,4 -4,-211 93,-211 93,4 -4,4"/>
<!-- Node1 -->
<g id="node1" class="node">
<title>Node1</title>
<g id="a_node1"><a xlink:title=" ">
<polygon fill="#bfbfbf" stroke="black" points="0,-0.5 0,-112.5 89,-112.5 89,-0.5 0,-0.5"/>
<text text-anchor="middle" x="44.5" y="-100.5" font-family="Helvetica,sans-Serif" font-size="10.00">FuzzyTimer</text>
<polyline fill="none" stroke="black" points="0,-93.5 89,-93.5 "/>
<text text-anchor="middle" x="44.5" y="-81.5" font-family="Helvetica,sans-Serif" font-size="10.00"> </text>
<polyline fill="none" stroke="black" points="0,-74.5 89,-74.5 "/>
<text text-anchor="start" x="8" y="-62.5" font-family="Helvetica,sans-Serif" font-size="10.00">+ FuzzyTimer()</text>
<text text-anchor="start" x="8" y="-51.5" font-family="Helvetica,sans-Serif" font-size="10.00">+ ~FuzzyTimer()</text>
<text text-anchor="start" x="8" y="-40.5" font-family="Helvetica,sans-Serif" font-size="10.00">+ addTimer()</text>
<text text-anchor="start" x="8" y="-29.5" font-family="Helvetica,sans-Serif" font-size="10.00">+ removeTimer()</text>
<text text-anchor="start" x="8" y="-18.5" font-family="Helvetica,sans-Serif" font-size="10.00">+ move()</text>
<text text-anchor="start" x="8" y="-7.5" font-family="Helvetica,sans-Serif" font-size="10.00">+ run()</text>
</a>
</g>
</g>
<!-- Node2 -->
<g id="node2" class="node">
<title>Node2</title>
<g id="a_node2"><a xlink:title=" ">
<polygon fill="white" stroke="black" points="1.5,-149.5 1.5,-206.5 87.5,-206.5 87.5,-149.5 1.5,-149.5"/>
<text text-anchor="middle" x="44.5" y="-194.5" font-family="Helvetica,sans-Serif" font-size="10.00">Poco::Runnable</text>
<polyline fill="none" stroke="black" points="1.5,-187.5 87.5,-187.5 "/>
<text text-anchor="middle" x="44.5" y="-175.5" font-family="Helvetica,sans-Serif" font-size="10.00"> </text>
<polyline fill="none" stroke="black" points="1.5,-168.5 87.5,-168.5 "/>
<text text-anchor="middle" x="44.5" y="-156.5" font-family="Helvetica,sans-Serif" font-size="10.00"> </text>
</a>
</g>
</g>
<!-- Node2&#45;&gt;Node1 -->
<g id="edge1" class="edge">
<title>Node2&#45;&gt;Node1</title>
<path fill="none" stroke="midnightblue" d="M44.5,-139.11C44.5,-130.75 44.5,-121.73 44.5,-112.83"/>
<polygon fill="none" stroke="midnightblue" points="41,-139.28 44.5,-149.28 48,-139.28 41,-139.28"/>
</g>
</g>
</svg>
