<?xml version="1.0" encoding="UTF-8" standalone="no"?>
<!DOCTYPE svg PUBLIC "-//W3C//DTD SVG 1.1//EN"
 "http://www.w3.org/Graphics/SVG/1.1/DTD/svg11.dtd">
<!-- Generated by graphviz version 2.50.0 (20211204.2007)
 -->
<!-- Title: controller::AddressIndex::getAddressIndexFilePathForAddress Pages: 1 -->
<svg width="712pt" height="137pt"
 viewBox="0.00 0.00 712.00 137.00" xmlns="http://www.w3.org/2000/svg" xmlns:xlink="http://www.w3.org/1999/xlink">
<g id="graph0" class="graph" transform="scale(1 1) rotate(0) translate(4 133)">
<title>controller::AddressIndex::getAddressIndexFilePathForAddress</title>
<polygon fill="white" stroke="transparent" points="-4,4 -4,-133 708,-133 708,4 -4,4"/>
<!-- Node1 -->
<g id="node1" class="node">
<title>Node1</title>
<g id="a_node1"><a xlink:title="take first hex sets from address as folder and file name">
<polygon fill="#bfbfbf" stroke="black" points="522,-49.5 522,-79.5 704,-79.5 704,-49.5 522,-49.5"/>
<text text-anchor="start" x="530" y="-67.5" font-family="Helvetica,sans-Serif" font-size="10.00">controller::AddressIndex</text>
<text text-anchor="middle" x="613" y="-56.5" font-family="Helvetica,sans-Serif" font-size="10.00">::getAddressIndexFilePathForAddress</text>
</a>
</g>
</g>
<!-- Node2 -->
<g id="node2" class="node">
<title>Node2</title>
<g id="a_node2"><a xlink:href="classcontroller_1_1_address_index.html#ad0c3d5d4cf529b053f72e87c64cbd080" target="_top" xlink:title="reading model::files::AddressIndex from cache or if not exist in cache, creating model::files::Addres...">
<polygon fill="white" stroke="black" points="364,-49.5 364,-79.5 486,-79.5 486,-49.5 364,-49.5"/>
<text text-anchor="start" x="372" y="-67.5" font-family="Helvetica,sans-Serif" font-size="10.00">controller::AddressIndex</text>
<text text-anchor="middle" x="425" y="-56.5" font-family="Helvetica,sans-Serif" font-size="10.00">::getAddressIndex</text>
</a>
</g>
</g>
<!-- Node1&#45;&gt;Node2 -->
<g id="edge1" class="edge">
<title>Node1&#45;&gt;Node2</title>
<path fill="none" stroke="midnightblue" d="M511.75,-64.5C503.04,-64.5 494.41,-64.5 486.18,-64.5"/>
<polygon fill="midnightblue" stroke="midnightblue" points="512,-68 522,-64.5 512,-61 512,-68"/>
</g>
<!-- Node3 -->
<g id="node3" class="node">
<title>Node3</title>
<g id="a_node3"><a xlink:href="classcontroller_1_1_address_index.html#a7fc22573d1d2d130f49fd01b77640f0b" target="_top" xlink:title="Add index, maybe I/O read, I/O write if index is new.">
<polygon fill="white" stroke="black" points="198.5,-98.5 198.5,-128.5 320.5,-128.5 320.5,-98.5 198.5,-98.5"/>
<text text-anchor="start" x="206.5" y="-116.5" font-family="Helvetica,sans-Serif" font-size="10.00">controller::AddressIndex</text>
<text text-anchor="middle" x="259.5" y="-105.5" font-family="Helvetica,sans-Serif" font-size="10.00">::addAddressIndex</text>
</a>
</g>
</g>
<!-- Node2&#45;&gt;Node3 -->
<g id="edge2" class="edge">
<title>Node2&#45;&gt;Node3</title>
<path fill="none" stroke="midnightblue" d="M363.56,-82.61C346.18,-87.82 327.42,-93.45 310.72,-98.45"/>
<polygon fill="midnightblue" stroke="midnightblue" points="365.04,-85.82 373.61,-79.6 363.03,-79.12 365.04,-85.82"/>
</g>
<!-- Node4 -->
<g id="node4" class="node">
<title>Node4</title>
<g id="a_node4"><a xlink:href="classcontroller_1_1_address_index.html#a82e794214d256b9a137a60ffe8978aca" target="_top" xlink:title="Get index from cache or if not in cache, loading file, maybe I/O read.">
<polygon fill="white" stroke="black" points="198.5,-49.5 198.5,-79.5 320.5,-79.5 320.5,-49.5 198.5,-49.5"/>
<text text-anchor="start" x="206.5" y="-67.5" font-family="Helvetica,sans-Serif" font-size="10.00">controller::AddressIndex</text>
<text text-anchor="middle" x="259.5" y="-56.5" font-family="Helvetica,sans-Serif" font-size="10.00">::getIndexForAddress</text>
</a>
</g>
</g>
<!-- Node2&#45;&gt;Node4 -->
<g id="edge3" class="edge">
<title>Node2&#45;&gt;Node4</title>
<path fill="none" stroke="midnightblue" d="M353.27,-64.5C342.41,-64.5 331.28,-64.5 320.67,-64.5"/>
<polygon fill="midnightblue" stroke="midnightblue" points="353.58,-68 363.58,-64.5 353.58,-61 353.58,-68"/>
</g>
<!-- Node5 -->
<g id="node5" class="node">
<title>Node5</title>
<g id="a_node5"><a xlink:href="classcontroller_1_1_address_index.html#a92b7d0e02e5577732d436b40eea13ffa" target="_top" xlink:title="Get or add index if not exist in cache or file, maybe I/O read.">
<polygon fill="white" stroke="black" points="191,-0.5 191,-30.5 328,-30.5 328,-0.5 191,-0.5"/>
<text text-anchor="start" x="199" y="-18.5" font-family="Helvetica,sans-Serif" font-size="10.00">controller::AddressIndex</text>
<text text-anchor="middle" x="259.5" y="-7.5" font-family="Helvetica,sans-Serif" font-size="10.00">::getOrAddIndexForAddress</text>
</a>
</g>
</g>
<!-- Node2&#45;&gt;Node5 -->
<g id="edge4" class="edge">
<title>Node2&#45;&gt;Node5</title>
<path fill="none" stroke="midnightblue" d="M363.56,-46.39C346.18,-41.18 327.42,-35.55 310.72,-30.55"/>
<polygon fill="midnightblue" stroke="midnightblue" points="363.03,-49.88 373.61,-49.4 365.04,-43.18 363.03,-49.88"/>
</g>
<!-- Node6 -->
<g id="node6" class="node">
<title>Node6</title>
<g id="a_node6"><a xlink:href="classcontroller_1_1_address_index.html#a662cd99e7b4da4359770d8dc4933ca63" target="_top" xlink:title=" ">
<polygon fill="white" stroke="black" points="0,-0.5 0,-30.5 155,-30.5 155,-0.5 0,-0.5"/>
<text text-anchor="start" x="8" y="-18.5" font-family="Helvetica,sans-Serif" font-size="10.00">controller::AddressIndex</text>
<text text-anchor="middle" x="77.5" y="-7.5" font-family="Helvetica,sans-Serif" font-size="10.00">::getOrAddIndicesForAddresses</text>
</a>
</g>
</g>
<!-- Node5&#45;&gt;Node6 -->
<g id="edge5" class="edge">
<title>Node5&#45;&gt;Node6</title>
<path fill="none" stroke="midnightblue" d="M180.73,-15.5C172.26,-15.5 163.64,-15.5 155.19,-15.5"/>
<polygon fill="midnightblue" stroke="midnightblue" points="180.96,-19 190.96,-15.5 180.96,-12 180.96,-19"/>
</g>
</g>
</svg>
