<?xml version="1.0" encoding="UTF-8" standalone="no"?>
<!DOCTYPE svg PUBLIC "-//W3C//DTD SVG 1.1//EN"
 "http://www.w3.org/Graphics/SVG/1.1/DTD/svg11.dtd">
<!-- Generated by graphviz version 2.50.0 (20211204.2007)
 -->
<!-- Title: model::files::AddressIndex::add Pages: 1 -->
<svg width="678pt" height="127pt"
 viewBox="0.00 0.00 678.00 126.50" xmlns="http://www.w3.org/2000/svg" xmlns:xlink="http://www.w3.org/1999/xlink">
<g id="graph0" class="graph" transform="scale(1 1) rotate(0) translate(4 122.5)">
<title>model::files::AddressIndex::add</title>
<polygon fill="white" stroke="transparent" points="-4,4 -4,-122.5 674,-122.5 674,4 -4,4"/>
<!-- Node1 -->
<g id="node1" class="node">
<title>Node1</title>
<g id="a_node1"><a xlink:title="Adding new index, account address public key pair into memory, use Poco::FastMutex::ScopedLock.">
<polygon fill="#bfbfbf" stroke="black" points="0,-44.5 0,-63.5 153,-63.5 153,-44.5 0,-44.5"/>
<text text-anchor="middle" x="76.5" y="-51.5" font-family="Helvetica,sans-Serif" font-size="10.00">model::files::AddressIndex::add</text>
</a>
</g>
</g>
<!-- Node2 -->
<g id="node2" class="node">
<title>Node2</title>
<g id="a_node2"><a xlink:href="classmodel_1_1files_1_1_address_index.html#ac530703f10a574559e0885acd257a2ea" target="_top" xlink:title="Write new index file if checkFile return true, use Poco::FastMutex::ScopedLock, fileLock via FileLock...">
<polygon fill="white" stroke="black" points="189,-39 189,-69 320,-69 320,-39 189,-39"/>
<text text-anchor="start" x="197" y="-57" font-family="Helvetica,sans-Serif" font-size="10.00">model::files::AddressIndex</text>
<text text-anchor="middle" x="254.5" y="-46" font-family="Helvetica,sans-Serif" font-size="10.00">::writeToFile</text>
</a>
</g>
</g>
<!-- Node1&#45;&gt;Node2 -->
<g id="edge1" class="edge">
<title>Node1&#45;&gt;Node2</title>
<path fill="none" stroke="midnightblue" d="M153.16,-54C161.64,-54 170.27,-54 178.74,-54"/>
<polygon fill="midnightblue" stroke="midnightblue" points="178.96,-57.5 188.96,-54 178.96,-50.5 178.96,-57.5"/>
</g>
<!-- Node3 -->
<g id="node3" class="node">
<title>Node3</title>
<g id="a_node3"><a xlink:href="classmodel_1_1files_1_1_address_index.html#af0ff6103a23eaa7b57f9eb053bf5b8c1" target="_top" xlink:title="Calculate file hash from map entrys sorted by indices.">
<polygon fill="white" stroke="black" points="356,-88 356,-118 487,-118 487,-88 356,-88"/>
<text text-anchor="start" x="364" y="-106" font-family="Helvetica,sans-Serif" font-size="10.00">model::files::AddressIndex</text>
<text text-anchor="middle" x="421.5" y="-95" font-family="Helvetica,sans-Serif" font-size="10.00">::calculateHash</text>
</a>
</g>
</g>
<!-- Node2&#45;&gt;Node3 -->
<g id="edge2" class="edge">
<title>Node2&#45;&gt;Node3</title>
<path fill="none" stroke="midnightblue" d="M306.35,-69.1C323.37,-74.16 342.5,-79.84 360.17,-85.08"/>
<polygon fill="midnightblue" stroke="midnightblue" points="359.23,-88.46 369.82,-87.95 361.23,-81.75 359.23,-88.46"/>
</g>
<!-- Node4 -->
<g id="node4" class="node">
<title>Node4</title>
<g id="a_node4"><a xlink:href="classmodel_1_1files_1_1_address_index.html#af316cd9ce255efa0b2cfd80d6778d7b1" target="_top" xlink:title="Check if index file contains current indices (compare sizes), fileLock via FileLockManager,...">
<polygon fill="white" stroke="black" points="356,-39 356,-69 487,-69 487,-39 356,-39"/>
<text text-anchor="start" x="364" y="-57" font-family="Helvetica,sans-Serif" font-size="10.00">model::files::AddressIndex</text>
<text text-anchor="middle" x="421.5" y="-46" font-family="Helvetica,sans-Serif" font-size="10.00">::checkFile</text>
</a>
</g>
</g>
<!-- Node2&#45;&gt;Node4 -->
<g id="edge3" class="edge">
<title>Node2&#45;&gt;Node4</title>
<path fill="none" stroke="midnightblue" d="M320.24,-54C328.58,-54 337.18,-54 345.67,-54"/>
<polygon fill="midnightblue" stroke="midnightblue" points="345.95,-57.5 355.95,-54 345.95,-50.5 345.95,-57.5"/>
</g>
<!-- Node6 -->
<g id="node6" class="node">
<title>Node6</title>
<g id="a_node6"><a xlink:href="class_file_lock_manager.html#a8399a835b02b2013283423050efa52ba" target="_top" xlink:title=" ">
<polygon fill="white" stroke="black" points="523,-0.5 523,-19.5 670,-19.5 670,-0.5 523,-0.5"/>
<text text-anchor="middle" x="596.5" y="-7.5" font-family="Helvetica,sans-Serif" font-size="10.00">FileLockManager::getInstance</text>
</a>
</g>
</g>
<!-- Node2&#45;&gt;Node6 -->
<g id="edge6" class="edge">
<title>Node2&#45;&gt;Node6</title>
<path fill="none" stroke="midnightblue" d="M308.88,-38.99C324.01,-35.21 340.56,-31.52 356,-29 407.78,-20.57 466.49,-15.83 512.82,-13.2"/>
<polygon fill="midnightblue" stroke="midnightblue" points="513.02,-16.69 522.81,-12.65 512.64,-9.7 513.02,-16.69"/>
</g>
<!-- Node5 -->
<g id="node5" class="node">
<title>Node5</title>
<g id="a_node5"><a xlink:href="classmodel_1_1files_1_1_address_index.html#a45a9ec196ac5eea967c8eb11f77ac6cb" target="_top" xlink:title="Calculate file size from map entry count + space for hash, use Poco::FastMutex::ScopedLock.">
<polygon fill="white" stroke="black" points="531,-39 531,-69 662,-69 662,-39 531,-39"/>
<text text-anchor="start" x="539" y="-57" font-family="Helvetica,sans-Serif" font-size="10.00">model::files::AddressIndex</text>
<text text-anchor="middle" x="596.5" y="-46" font-family="Helvetica,sans-Serif" font-size="10.00">::calculateFileSize</text>
</a>
</g>
</g>
<!-- Node4&#45;&gt;Node5 -->
<g id="edge4" class="edge">
<title>Node4&#45;&gt;Node5</title>
<path fill="none" stroke="midnightblue" d="M487.41,-54C498.28,-54 509.62,-54 520.71,-54"/>
<polygon fill="midnightblue" stroke="midnightblue" points="520.8,-57.5 530.8,-54 520.8,-50.5 520.8,-57.5"/>
</g>
<!-- Node4&#45;&gt;Node6 -->
<g id="edge5" class="edge">
<title>Node4&#45;&gt;Node6</title>
<path fill="none" stroke="midnightblue" d="M481.55,-38.98C503.34,-33.44 527.72,-27.24 548.32,-22"/>
<polygon fill="midnightblue" stroke="midnightblue" points="549.27,-25.37 558.1,-19.51 547.54,-18.59 549.27,-25.37"/>
</g>
</g>
</svg>
