<?xml version="1.0" encoding="UTF-8" standalone="no"?>
<!DOCTYPE svg PUBLIC "-//W3C//DTD SVG 1.1//EN"
 "http://www.w3.org/Graphics/SVG/1.1/DTD/svg11.dtd">
<!-- Generated by graphviz version 2.50.0 (20211204.2007)
 -->
<!-- Title: task::Command Pages: 1 -->
<svg width="169pt" height="171pt"
 viewBox="0.00 0.00 169.00 171.00" xmlns="http://www.w3.org/2000/svg" xmlns:xlink="http://www.w3.org/1999/xlink">
<g id="graph0" class="graph" transform="scale(1 1) rotate(0) translate(4 167)">
<title>task::Command</title>
<polygon fill="white" stroke="transparent" points="-4,4 -4,-167 165,-167 165,4 -4,4"/>
<!-- Node1 -->
<g id="node1" class="node">
<title>Node1</title>
<g id="a_node1"><a xlink:title=" ">
<polygon fill="#bfbfbf" stroke="black" points="37,-105.5 37,-162.5 124,-162.5 124,-105.5 37,-105.5"/>
<text text-anchor="middle" x="80.5" y="-150.5" font-family="Helvetica,sans-Serif" font-size="10.00">task::Command</text>
<polyline fill="none" stroke="black" points="37,-143.5 124,-143.5 "/>
<text text-anchor="middle" x="80.5" y="-131.5" font-family="Helvetica,sans-Serif" font-size="10.00"> </text>
<polyline fill="none" stroke="black" points="37,-124.5 124,-124.5 "/>
<text text-anchor="start" x="45" y="-112.5" font-family="Helvetica,sans-Serif" font-size="10.00">+ taskFinished()</text>
</a>
</g>
</g>
<!-- Node2 -->
<g id="node2" class="node">
<title>Node2</title>
<g id="a_node2"><a xlink:href="class_task_observer_finish_command.html" target="_top" xlink:title=" ">
<polygon fill="white" stroke="black" points="0,-0.5 0,-68.5 161,-68.5 161,-0.5 0,-0.5"/>
<text text-anchor="middle" x="80.5" y="-56.5" font-family="Helvetica,sans-Serif" font-size="10.00">TaskObserverFinishCommand</text>
<polyline fill="none" stroke="black" points="0,-49.5 161,-49.5 "/>
<text text-anchor="start" x="8" y="-37.5" font-family="Helvetica,sans-Serif" font-size="10.00"># mTaskObserver</text>
<polyline fill="none" stroke="black" points="0,-30.5 161,-30.5 "/>
<text text-anchor="start" x="8" y="-18.5" font-family="Helvetica,sans-Serif" font-size="10.00">+ TaskObserverFinishCommand()</text>
<text text-anchor="start" x="8" y="-7.5" font-family="Helvetica,sans-Serif" font-size="10.00">+ taskFinished()</text>
</a>
</g>
</g>
<!-- Node1&#45;&gt;Node2 -->
<g id="edge1" class="edge">
<title>Node1&#45;&gt;Node2</title>
<path fill="none" stroke="midnightblue" d="M80.5,-95.06C80.5,-86.39 80.5,-77.24 80.5,-68.79"/>
<polygon fill="none" stroke="midnightblue" points="77,-95.32 80.5,-105.32 84,-95.32 77,-95.32"/>
</g>
</g>
</svg>
