<?xml version="1.0" encoding="UTF-8" standalone="no"?>
<!DOCTYPE svg PUBLIC "-//W3C//DTD SVG 1.1//EN"
 "http://www.w3.org/Graphics/SVG/1.1/DTD/svg11.dtd">
<!-- Generated by graphviz version 2.50.0 (20211204.2007)
 -->
<!-- Title: JsonRequestHandler::handleRequest Pages: 1 -->
<svg width="468pt" height="323pt"
 viewBox="0.00 0.00 468.00 323.00" xmlns="http://www.w3.org/2000/svg" xmlns:xlink="http://www.w3.org/1999/xlink">
<g id="graph0" class="graph" transform="scale(1 1) rotate(0) translate(4 319)">
<title>JsonRequestHandler::handleRequest</title>
<polygon fill="white" stroke="transparent" points="-4,4 -4,-319 464,-319 464,4 -4,4"/>
<!-- Node1 -->
<g id="node1" class="node">
<title>Node1</title>
<g id="a_node1"><a xlink:title=" ">
<polygon fill="#bfbfbf" stroke="black" points="0,-147.5 0,-177.5 106,-177.5 106,-147.5 0,-147.5"/>
<text text-anchor="start" x="8" y="-165.5" font-family="Helvetica,sans-Serif" font-size="10.00">JsonRequestHandler</text>
<text text-anchor="middle" x="53" y="-154.5" font-family="Helvetica,sans-Serif" font-size="10.00">::handleRequest</text>
</a>
</g>
</g>
<!-- Node2 -->
<g id="node2" class="node">
<title>Node2</title>
<g id="a_node2"><a xlink:href="class_json_request_handler.html#a1a5c97b4d44a7104a6194e7b5101cba2" target="_top" xlink:title=" ">
<polygon fill="white" stroke="black" points="152,-284.5 152,-314.5 308,-314.5 308,-284.5 152,-284.5"/>
<text text-anchor="start" x="160" y="-302.5" font-family="Helvetica,sans-Serif" font-size="10.00">JsonRequestHandler</text>
<text text-anchor="middle" x="230" y="-291.5" font-family="Helvetica,sans-Serif" font-size="10.00">::checkObjectOrArrayParameter</text>
</a>
</g>
</g>
<!-- Node1&#45;&gt;Node2 -->
<g id="edge1" class="edge">
<title>Node1&#45;&gt;Node2</title>
<path fill="none" stroke="midnightblue" d="M62.57,-177.51C76.42,-200.5 105.86,-244.38 142,-269.5 147.95,-273.64 154.53,-277.25 161.32,-280.39"/>
<polygon fill="midnightblue" stroke="midnightblue" points="160.11,-283.68 170.68,-284.4 162.86,-277.25 160.11,-283.68"/>
</g>
<!-- Node3 -->
<g id="node3" class="node">
<title>Node3</title>
<g id="a_node3"><a xlink:href="class_json_request_handler.html#a1f0cd333c5fd72c0dd5d7899d9aa5926" target="_top" xlink:title=" ">
<polygon fill="white" stroke="black" points="354,-218.5 354,-248.5 460,-248.5 460,-218.5 354,-218.5"/>
<text text-anchor="start" x="362" y="-236.5" font-family="Helvetica,sans-Serif" font-size="10.00">JsonRequestHandler</text>
<text text-anchor="middle" x="407" y="-225.5" font-family="Helvetica,sans-Serif" font-size="10.00">::stateError</text>
</a>
</g>
</g>
<!-- Node1&#45;&gt;Node3 -->
<g id="edge10" class="edge">
<title>Node1&#45;&gt;Node3</title>
<path fill="none" stroke="midnightblue" d="M66.06,-177.69C81.44,-195.72 109.93,-224.81 142,-236.5 207.78,-260.48 289.04,-254.78 343.9,-246.27"/>
<polygon fill="midnightblue" stroke="midnightblue" points="344.52,-249.72 353.83,-244.66 343.4,-242.81 344.52,-249.72"/>
</g>
<!-- Node4 -->
<g id="node4" class="node">
<title>Node4</title>
<g id="a_node4"><a xlink:href="class_json_request_handler.html#ab0f3bdeef2d57f957ce44faf86ff77d7" target="_top" xlink:title=" ">
<polygon fill="white" stroke="black" points="177,-196.5 177,-226.5 283,-226.5 283,-196.5 177,-196.5"/>
<text text-anchor="start" x="185" y="-214.5" font-family="Helvetica,sans-Serif" font-size="10.00">JsonRequestHandler</text>
<text text-anchor="middle" x="230" y="-203.5" font-family="Helvetica,sans-Serif" font-size="10.00">::getIntParameter</text>
</a>
</g>
</g>
<!-- Node1&#45;&gt;Node4 -->
<g id="edge3" class="edge">
<title>Node1&#45;&gt;Node4</title>
<path fill="none" stroke="midnightblue" d="M106.1,-177.37C117.9,-180.72 130.38,-184.25 142,-187.5 150.13,-189.78 158.7,-192.16 167.15,-194.5"/>
<polygon fill="midnightblue" stroke="midnightblue" points="166.43,-197.93 177,-197.22 168.29,-191.18 166.43,-197.93"/>
</g>
<!-- Node5 -->
<g id="node5" class="node">
<title>Node5</title>
<g id="a_node5"><a xlink:href="class_json_request_handler.html#aa3b049483a68b2f02dfa3c0ad092a5c5" target="_top" xlink:title=" ">
<polygon fill="white" stroke="black" points="176.5,-147.5 176.5,-177.5 283.5,-177.5 283.5,-147.5 176.5,-147.5"/>
<text text-anchor="start" x="184.5" y="-165.5" font-family="Helvetica,sans-Serif" font-size="10.00">JsonRequestHandler</text>
<text text-anchor="middle" x="230" y="-154.5" font-family="Helvetica,sans-Serif" font-size="10.00">::getStringParameter</text>
</a>
</g>
</g>
<!-- Node1&#45;&gt;Node5 -->
<g id="edge5" class="edge">
<title>Node1&#45;&gt;Node5</title>
<path fill="none" stroke="midnightblue" d="M106.03,-162.5C124.91,-162.5 146.43,-162.5 166.14,-162.5"/>
<polygon fill="midnightblue" stroke="midnightblue" points="166.26,-166 176.26,-162.5 166.26,-159 166.26,-166"/>
</g>
<!-- Node6 -->
<g id="node6" class="node">
<title>Node6</title>
<g id="a_node6"><a xlink:href="class_json_request_handler.html#a2b6c46dc9571b734f283f1bfb7f9d917" target="_top" xlink:title=" ">
<polygon fill="white" stroke="black" points="177,-98.5 177,-128.5 283,-128.5 283,-98.5 177,-98.5"/>
<text text-anchor="start" x="185" y="-116.5" font-family="Helvetica,sans-Serif" font-size="10.00">JsonRequestHandler</text>
<text text-anchor="middle" x="230" y="-105.5" font-family="Helvetica,sans-Serif" font-size="10.00">::handle</text>
</a>
</g>
</g>
<!-- Node1&#45;&gt;Node6 -->
<g id="edge7" class="edge">
<title>Node1&#45;&gt;Node6</title>
<path fill="none" stroke="midnightblue" d="M106.03,-147.93C125.25,-142.55 147.22,-136.4 167.23,-130.8"/>
<polygon fill="midnightblue" stroke="midnightblue" points="168.18,-134.16 176.87,-128.1 166.29,-127.42 168.18,-134.16"/>
</g>
<!-- Node7 -->
<g id="node7" class="node">
<title>Node7</title>
<g id="a_node7"><a xlink:href="class_json_request_handler.html#a98186aa49cbef2f2d19d10d771b40461" target="_top" xlink:title=" ">
<polygon fill="white" stroke="black" points="158,-49.5 158,-79.5 302,-79.5 302,-49.5 158,-49.5"/>
<text text-anchor="start" x="166" y="-67.5" font-family="Helvetica,sans-Serif" font-size="10.00">JsonRequestHandler</text>
<text text-anchor="middle" x="230" y="-56.5" font-family="Helvetica,sans-Serif" font-size="10.00">::parseJsonWithErrorPrintFile</text>
</a>
</g>
</g>
<!-- Node1&#45;&gt;Node7 -->
<g id="edge8" class="edge">
<title>Node1&#45;&gt;Node7</title>
<path fill="none" stroke="midnightblue" d="M68.18,-147.49C84.51,-131.02 112.87,-104.9 142,-89.5 146.29,-87.23 150.81,-85.15 155.44,-83.24"/>
<polygon fill="midnightblue" stroke="midnightblue" points="156.99,-86.39 165.07,-79.55 154.48,-79.86 156.99,-86.39"/>
</g>
<!-- Node8 -->
<g id="node8" class="node">
<title>Node8</title>
<g id="a_node8"><a xlink:href="class_json_request_handler.html#a47459c4f342204d607775ce1e72e6b1b" target="_top" xlink:title=" ">
<polygon fill="white" stroke="black" points="142,-0.5 142,-30.5 318,-30.5 318,-0.5 142,-0.5"/>
<text text-anchor="start" x="150" y="-18.5" font-family="Helvetica,sans-Serif" font-size="10.00">JsonRequestHandler</text>
<text text-anchor="middle" x="230" y="-7.5" font-family="Helvetica,sans-Serif" font-size="10.00">::parseQueryParametersToRapidjson</text>
</a>
</g>
</g>
<!-- Node1&#45;&gt;Node8 -->
<g id="edge9" class="edge">
<title>Node1&#45;&gt;Node8</title>
<path fill="none" stroke="midnightblue" d="M60.83,-147.23C73.21,-121.3 101.84,-68.74 142,-40.5 144.85,-38.5 147.86,-36.65 150.98,-34.95"/>
<polygon fill="midnightblue" stroke="midnightblue" points="152.56,-38.07 160.02,-30.55 149.5,-31.78 152.56,-38.07"/>
</g>
<!-- Node2&#45;&gt;Node3 -->
<g id="edge2" class="edge">
<title>Node2&#45;&gt;Node3</title>
<path fill="none" stroke="midnightblue" d="M276.33,-284.41C289.8,-279.78 304.54,-274.57 318,-269.5 332.06,-264.21 347.24,-258.13 360.97,-252.49"/>
<polygon fill="midnightblue" stroke="midnightblue" points="362.31,-255.72 370.22,-248.67 359.64,-249.25 362.31,-255.72"/>
</g>
<!-- Node4&#45;&gt;Node3 -->
<g id="edge4" class="edge">
<title>Node4&#45;&gt;Node3</title>
<path fill="none" stroke="midnightblue" d="M283.03,-218.04C302.08,-220.44 323.82,-223.17 343.68,-225.67"/>
<polygon fill="midnightblue" stroke="midnightblue" points="343.51,-229.17 353.87,-226.95 344.38,-222.23 343.51,-229.17"/>
</g>
<!-- Node5&#45;&gt;Node3 -->
<g id="edge6" class="edge">
<title>Node5&#45;&gt;Node3</title>
<path fill="none" stroke="midnightblue" d="M283.56,-175.75C295.06,-179.16 307.06,-183.12 318,-187.5 336.2,-194.78 355.58,-204.67 371.52,-213.41"/>
<polygon fill="midnightblue" stroke="midnightblue" points="370.03,-216.59 380.47,-218.4 373.44,-210.47 370.03,-216.59"/>
</g>
</g>
</svg>
