<?xml version="1.0" encoding="UTF-8" standalone="no"?>
<!DOCTYPE svg PUBLIC "-//W3C//DTD SVG 1.1//EN"
 "http://www.w3.org/Graphics/SVG/1.1/DTD/svg11.dtd">
<!-- Generated by graphviz version 2.50.0 (20211204.2007)
 -->
<!-- Title: controller::BlockIndex::addIndicesForTransaction Pages: 1 -->
<svg width="325pt" height="57pt"
 viewBox="0.00 0.00 325.00 57.00" xmlns="http://www.w3.org/2000/svg" xmlns:xlink="http://www.w3.org/1999/xlink">
<g id="graph0" class="graph" transform="scale(1 1) rotate(0) translate(4 53)">
<title>controller::BlockIndex::addIndicesForTransaction</title>
<polygon fill="white" stroke="transparent" points="-4,4 -4,-53 321,-53 321,4 -4,4"/>
<!-- Node1 -->
<g id="node1" class="node">
<title>Node1</title>
<g id="a_node1"><a xlink:title=" ">
<polygon fill="#bfbfbf" stroke="black" points="0,-0.5 0,-30.5 134,-30.5 134,-0.5 0,-0.5"/>
<text text-anchor="start" x="8" y="-18.5" font-family="Helvetica,sans-Serif" font-size="10.00">controller::BlockIndex</text>
<text text-anchor="middle" x="67" y="-7.5" font-family="Helvetica,sans-Serif" font-size="10.00">::addIndicesForTransaction</text>
</a>
</g>
</g>
<!-- Node1&#45;&gt;Node1 -->
<g id="edge2" class="edge">
<title>Node1&#45;&gt;Node1</title>
<path fill="none" stroke="midnightblue" d="M36.33,-30.66C28.93,-40.06 39.16,-49 67,-49 83.97,-49 94.39,-45.68 98.27,-40.96"/>
<polygon fill="midnightblue" stroke="midnightblue" points="101.75,-40.44 97.67,-30.66 94.76,-40.85 101.75,-40.44"/>
</g>
<!-- Node2 -->
<g id="node2" class="node">
<title>Node2</title>
<g id="a_node2"><a xlink:href="classcontroller_1_1_block_index.html#a49636f1c6d2433390339ca90d73be8e6" target="_top" xlink:title="add transactionNr &#45; fileCursor pair to map if not already exist">
<polygon fill="white" stroke="black" points="170,-0.5 170,-30.5 317,-30.5 317,-0.5 170,-0.5"/>
<text text-anchor="start" x="178" y="-18.5" font-family="Helvetica,sans-Serif" font-size="10.00">controller::BlockIndex</text>
<text text-anchor="middle" x="243.5" y="-7.5" font-family="Helvetica,sans-Serif" font-size="10.00">::addFileCursorForTransaction</text>
</a>
</g>
</g>
<!-- Node1&#45;&gt;Node2 -->
<g id="edge1" class="edge">
<title>Node1&#45;&gt;Node2</title>
<path fill="none" stroke="midnightblue" d="M134.47,-15.5C142.69,-15.5 151.16,-15.5 159.59,-15.5"/>
<polygon fill="midnightblue" stroke="midnightblue" points="159.82,-19 169.82,-15.5 159.82,-12 159.82,-19"/>
</g>
</g>
</svg>
