<?xml version="1.0" encoding="UTF-8" standalone="no"?>
<!DOCTYPE svg PUBLIC "-//W3C//DTD SVG 1.1//EN"
 "http://www.w3.org/Graphics/SVG/1.1/DTD/svg11.dtd">
<!-- Generated by graphviz version 2.50.0 (20211204.2007)
 -->
<!-- Title: controller::BlockIndex::writeIntoFile Pages: 1 -->
<!--zoomable 249 -->
<svg id="main" version="1.1" xmlns="http://www.w3.org/2000/svg" xmlns:xlink="http://www.w3.org/1999/xlink" xml:space="preserve" onload="init(evt)">
<style type="text/css"><![CDATA[
.edge:hover path { stroke: red; }
.edge:hover polygon { stroke: red; fill: red; }
]]></style>
<script type="text/javascript"><![CDATA[
var edges = document.getElementsByTagName('g');
if (edges && edges.length) {
  for (var i=0;i<edges.length;i++) {
    if (edges[i].id.substr(0,4)=='edge') {
      edges[i].setAttribute('class','edge');
    }
  }
}
]]></script>
        <defs>
                <circle id="rim" cx="0" cy="0" r="7"/>
                <circle id="rim2" cx="0" cy="0" r="3.5"/>
                <g id="zoomPlus">
                        <use xlink:href="#rim" fill="#404040">
                                <set attributeName="fill" to="#808080" begin="zoomplus.mouseover" end="zoomplus.mouseout"/>
                        </use>
                        <path d="M-4,0h8M0,-4v8" fill="none" stroke="white" stroke-width="1.5" pointer-events="none"/>
                </g>
                <g id="zoomMin">
                        <use xlink:href="#rim" fill="#404040">
                                <set attributeName="fill" to="#808080" begin="zoomminus.mouseover" end="zoomminus.mouseout"/>
                        </use>
                        <path d="M-4,0h8" fill="none" stroke="white" stroke-width="1.5" pointer-events="none"/>
                </g>
                <g id="dirArrow">
                        <path fill="none" stroke="white" stroke-width="1.5" d="M0,-3.0v7 M-2.5,-0.5L0,-3.0L2.5,-0.5"/>
                </g>
               <g id="resetDef">
                       <use xlink:href="#rim2" fill="#404040">
                               <set attributeName="fill" to="#808080" begin="reset.mouseover" end="reset.mouseout"/>
                       </use>
               </g>
        </defs>

<script type="text/javascript">
var viewWidth = 606;
var viewHeight = 249;
var sectionId = 'dynsection-9';
</script>
<script xlink:href="svgpan.js"/>
<svg id="graph" class="graph">
<g id="viewport">
<title>controller::BlockIndex::writeIntoFile</title>
<polygon fill="white" stroke="transparent" points="-4,4 -4,-244.5 602,-244.5 602,4 -4,4"/>
<!-- Node1 -->
<g id="node1" class="node">
<title>Node1</title>
<g id="a_node1"><a xlink:title="write block index into files">
<polygon fill="#bfbfbf" stroke="black" points="0,-112 0,-142 110,-142 110,-112 0,-112"/>
<text text-anchor="start" x="8" y="-130" font-family="Helvetica,sans-Serif" font-size="10.00">controller::BlockIndex</text>
<text text-anchor="middle" x="55" y="-119" font-family="Helvetica,sans-Serif" font-size="10.00">::writeIntoFile</text>
</a>
</g>
</g>
<!-- Node2 -->
<g id="node2" class="node">
<title>Node2</title>
<g id="a_node2"><a xlink:href="classmodel_1_1files_1_1_block_index.html#a3776dce7bd1ff0e514747259a856965f" target="_top" xlink:title=" ">
<polygon fill="white" stroke="black" points="146,-210 146,-240 266,-240 266,-210 146,-210"/>
<text text-anchor="start" x="154" y="-228" font-family="Helvetica,sans-Serif" font-size="10.00">model::files::BlockIndex</text>
<text text-anchor="middle" x="206" y="-217" font-family="Helvetica,sans-Serif" font-size="10.00">::addDataBlock</text>
</a>
</g>
</g>
<!-- Node1&#45;&gt;Node2 -->
<g id="edge1" class="edge">
<title>Node1&#45;&gt;Node2</title>
<path fill="none" stroke="midnightblue" d="M71.47,-142.22C88.58,-158.43 117.5,-184.02 146,-201 148.62,-202.56 151.37,-204.07 154.17,-205.51"/>
<polygon fill="midnightblue" stroke="midnightblue" points="152.76,-208.71 163.29,-209.89 155.79,-202.4 152.76,-208.71"/>
</g>
<!-- Node3 -->
<g id="node3" class="node">
<title>Node3</title>
<g id="a_node3"><a xlink:href="classmodel_1_1files_1_1_block_index.html#a5acae6b07dc18f1128f6b1533aebf4c2" target="_top" xlink:title=" ">
<polygon fill="white" stroke="black" points="146,-161 146,-191 266,-191 266,-161 146,-161"/>
<text text-anchor="start" x="154" y="-179" font-family="Helvetica,sans-Serif" font-size="10.00">model::files::BlockIndex</text>
<text text-anchor="middle" x="206" y="-168" font-family="Helvetica,sans-Serif" font-size="10.00">::addMonthBlock</text>
</a>
</g>
</g>
<!-- Node1&#45;&gt;Node3 -->
<g id="edge2" class="edge">
<title>Node1&#45;&gt;Node3</title>
<path fill="none" stroke="midnightblue" d="M101.92,-142.1C117,-147.06 133.93,-152.63 149.64,-157.79"/>
<polygon fill="midnightblue" stroke="midnightblue" points="148.64,-161.15 159.23,-160.95 150.82,-154.5 148.64,-161.15"/>
</g>
<!-- Node4 -->
<g id="node4" class="node">
<title>Node4</title>
<g id="a_node4"><a xlink:href="classmodel_1_1files_1_1_block_index.html#a68f5afa198574bc68866ca7306e61a37" target="_top" xlink:title=" ">
<polygon fill="white" stroke="black" points="146,-112 146,-142 266,-142 266,-112 146,-112"/>
<text text-anchor="start" x="154" y="-130" font-family="Helvetica,sans-Serif" font-size="10.00">model::files::BlockIndex</text>
<text text-anchor="middle" x="206" y="-119" font-family="Helvetica,sans-Serif" font-size="10.00">::addYearBlock</text>
</a>
</g>
</g>
<!-- Node1&#45;&gt;Node4 -->
<g id="edge3" class="edge">
<title>Node1&#45;&gt;Node4</title>
<path fill="none" stroke="midnightblue" d="M110.21,-127C118.53,-127 127.2,-127 135.79,-127"/>
<polygon fill="midnightblue" stroke="midnightblue" points="135.79,-130.5 145.79,-127 135.79,-123.5 135.79,-130.5"/>
</g>
<!-- Node5 -->
<g id="node5" class="node">
<title>Node5</title>
<g id="a_node5"><a xlink:href="classmodel_1_1files_1_1_block_index.html#a549ca850449c0c44243d2bea266fd4ce" target="_top" xlink:title="clear data blocks">
<polygon fill="white" stroke="black" points="146,-63 146,-93 266,-93 266,-63 146,-63"/>
<text text-anchor="start" x="154" y="-81" font-family="Helvetica,sans-Serif" font-size="10.00">model::files::BlockIndex</text>
<text text-anchor="middle" x="206" y="-70" font-family="Helvetica,sans-Serif" font-size="10.00">::reset</text>
</a>
</g>
</g>
<!-- Node1&#45;&gt;Node5 -->
<g id="edge4" class="edge">
<title>Node1&#45;&gt;Node5</title>
<path fill="none" stroke="midnightblue" d="M101.92,-111.9C117,-106.94 133.93,-101.37 149.64,-96.21"/>
<polygon fill="midnightblue" stroke="midnightblue" points="150.82,-99.5 159.23,-93.05 148.64,-92.85 150.82,-99.5"/>
</g>
<!-- Node6 -->
<g id="node6" class="node">
<title>Node6</title>
<g id="a_node6"><a xlink:href="classmodel_1_1files_1_1_block_index.html#a87e5d8bb2faf36e3e770e593df3d85e4" target="_top" xlink:title="replace Index File with new one, clear blocks after writing into file">
<polygon fill="white" stroke="black" points="146,-14 146,-44 266,-44 266,-14 146,-14"/>
<text text-anchor="start" x="154" y="-32" font-family="Helvetica,sans-Serif" font-size="10.00">model::files::BlockIndex</text>
<text text-anchor="middle" x="206" y="-21" font-family="Helvetica,sans-Serif" font-size="10.00">::writeToFile</text>
</a>
</g>
</g>
<!-- Node1&#45;&gt;Node6 -->
<g id="edge5" class="edge">
<title>Node1&#45;&gt;Node6</title>
<path fill="none" stroke="midnightblue" d="M71.87,-111.79C89.09,-95.87 117.89,-70.89 146,-54 149.19,-52.08 152.56,-50.24 156,-48.48"/>
<polygon fill="midnightblue" stroke="midnightblue" points="157.71,-51.54 165.2,-44.05 154.68,-45.23 157.71,-51.54"/>
</g>
<!-- Node7 -->
<g id="node7" class="node">
<title>Node7</title>
<g id="a_node7"><a xlink:href="class_virtual_file.html#ab6f997f913811412a1c85310ff7dd792" target="_top" xlink:title="copy to buffer from src, move cursor">
<polygon fill="white" stroke="black" points="315.5,-38.5 315.5,-57.5 401.5,-57.5 401.5,-38.5 315.5,-38.5"/>
<text text-anchor="middle" x="358.5" y="-45.5" font-family="Helvetica,sans-Serif" font-size="10.00">VirtualFile::write</text>
</a>
</g>
</g>
<!-- Node6&#45;&gt;Node7 -->
<g id="edge6" class="edge">
<title>Node6&#45;&gt;Node7</title>
<path fill="none" stroke="midnightblue" d="M266.05,-36.45C279.05,-38.1 292.72,-39.82 305.42,-41.42"/>
<polygon fill="midnightblue" stroke="midnightblue" points="305,-44.9 315.36,-42.68 305.88,-37.95 305,-44.9"/>
</g>
<!-- Node8 -->
<g id="node8" class="node">
<title>Node8</title>
<g id="a_node8"><a xlink:href="class_virtual_file.html#ae43cf874b04266d94e578b500c432e34" target="_top" xlink:title="write memory bin content to file, until cursor position">
<polygon fill="white" stroke="black" points="302,-0.5 302,-19.5 415,-19.5 415,-0.5 302,-0.5"/>
<text text-anchor="middle" x="358.5" y="-7.5" font-family="Helvetica,sans-Serif" font-size="10.00">VirtualFile::writeToFile</text>
</a>
</g>
</g>
<!-- Node6&#45;&gt;Node8 -->
<g id="edge7" class="edge">
<title>Node6&#45;&gt;Node8</title>
<path fill="none" stroke="midnightblue" d="M266.05,-21.55C274.36,-20.5 282.95,-19.41 291.39,-18.35"/>
<polygon fill="midnightblue" stroke="midnightblue" points="292.09,-21.79 301.57,-17.06 291.21,-14.84 292.09,-21.79"/>
</g>
<!-- Node9 -->
<g id="node9" class="node">
<title>Node9</title>
<g id="a_node9"><a xlink:href="class_file_lock_manager.html#a8399a835b02b2013283423050efa52ba" target="_top" xlink:title=" ">
<polygon fill="white" stroke="black" points="451,-0.5 451,-19.5 598,-19.5 598,-0.5 451,-0.5"/>
<text text-anchor="middle" x="524.5" y="-7.5" font-family="Helvetica,sans-Serif" font-size="10.00">FileLockManager::getInstance</text>
</a>
</g>
</g>
<!-- Node8&#45;&gt;Node9 -->
<g id="edge8" class="edge">
<title>Node8&#45;&gt;Node9</title>
<path fill="none" stroke="midnightblue" d="M415.02,-10C423.3,-10 431.99,-10 440.69,-10"/>
<polygon fill="midnightblue" stroke="midnightblue" points="440.88,-13.5 450.88,-10 440.88,-6.5 440.88,-13.5"/>
</g>
</g>
</svg>
        <g id="navigator" transform="translate(0 0)" fill="#404254">
                <rect fill="#f2f5e9" fill-opacity="0.5" stroke="#606060" stroke-width=".5" x="0" y="0" width="60" height="60"/>
                <use id="zoomplus" xlink:href="#zoomPlus" x="17" y="9" onmousedown="handleZoom(evt,'in')"/>
                <use id="zoomminus" xlink:href="#zoomMin" x="42" y="9" onmousedown="handleZoom(evt,'out')"/>
                <use id="reset" xlink:href="#resetDef" x="30" y="36" onmousedown="handleReset()"/>
                <g id="arrowUp" xlink:href="#dirArrow" transform="translate(30 24)" onmousedown="handlePan(0,-1)">
                  <use xlink:href="#rim" fill="#404040">
                        <set attributeName="fill" to="#808080" begin="arrowUp.mouseover" end="arrowUp.mouseout"/>
                  </use>
                  <path fill="none" stroke="white" stroke-width="1.5" d="M0,-3.0v7 M-2.5,-0.5L0,-3.0L2.5,-0.5"/>
                </g>
                <g id="arrowRight" xlink:href="#dirArrow" transform="rotate(90) translate(36 -43)" onmousedown="handlePan(1,0)">
                  <use xlink:href="#rim" fill="#404040">
                        <set attributeName="fill" to="#808080" begin="arrowRight.mouseover" end="arrowRight.mouseout"/>
                  </use>
                  <path fill="none" stroke="white" stroke-width="1.5" d="M0,-3.0v7 M-2.5,-0.5L0,-3.0L2.5,-0.5"/>
                </g>
                <g id="arrowDown" xlink:href="#dirArrow" transform="rotate(180) translate(-30 -48)" onmousedown="handlePan(0,1)">
                  <use xlink:href="#rim" fill="#404040">
                        <set attributeName="fill" to="#808080" begin="arrowDown.mouseover" end="arrowDown.mouseout"/>
                  </use>
                  <path fill="none" stroke="white" stroke-width="1.5" d="M0,-3.0v7 M-2.5,-0.5L0,-3.0L2.5,-0.5"/>
                </g>
                <g id="arrowLeft" xlink:href="#dirArrow" transform="rotate(270) translate(-36 17)" onmousedown="handlePan(-1,0)">
                  <use xlink:href="#rim" fill="#404040">
                        <set attributeName="fill" to="#808080" begin="arrowLeft.mouseover" end="arrowLeft.mouseout"/>
                  </use>
                  <path fill="none" stroke="white" stroke-width="1.5" d="M0,-3.0v7 M-2.5,-0.5L0,-3.0L2.5,-0.5"/>
                </g>
        </g>
        <svg viewBox="0 0 15 15" width="100%" height="30px" preserveAspectRatio="xMaxYMin meet">
         <g id="arrow_out" transform="scale(0.3 0.3)">
          <a xlink:href="classcontroller_1_1_block_index_a8a65562025348d7f62ed29a932aaf2df_cgraph_org.svg" target="_base">
           <rect id="button" ry="5" rx="5" y="6" x="6" height="38" width="38"
                fill="#f2f5e9" fill-opacity="0.5" stroke="#606060" stroke-width="1.0"/>
           <path id="arrow"
             d="M 11.500037,31.436501 C 11.940474,20.09759 22.043105,11.32322 32.158766,21.979434 L 37.068811,17.246167 C 37.068811,17.246167 37.088388,32 37.088388,32 L 22.160133,31.978069 C 22.160133,31.978069 26.997745,27.140456 26.997745,27.140456 C 18.528582,18.264221 13.291696,25.230495 11.500037,31.436501 z"
             style="fill:#404040;"/>
          </a>
         </g>
        </svg>
</svg>
