<?xml version="1.0" encoding="UTF-8" standalone="no"?>
<!DOCTYPE svg PUBLIC "-//W3C//DTD SVG 1.1//EN"
 "http://www.w3.org/Graphics/SVG/1.1/DTD/svg11.dtd">
<!-- Generated by graphviz version 2.50.0 (20211204.2007)
 -->
<!-- Title: TaskObserverFinishCommand Pages: 1 -->
<svg width="283pt" height="376pt"
 viewBox="0.00 0.00 282.50 376.00" xmlns="http://www.w3.org/2000/svg" xmlns:xlink="http://www.w3.org/1999/xlink">
<g id="graph0" class="graph" transform="scale(1 1) rotate(0) translate(4 372)">
<title>TaskObserverFinishCommand</title>
<polygon fill="white" stroke="transparent" points="-4,4 -4,-372 278.5,-372 278.5,4 -4,4"/>
<!-- Node1 -->
<g id="node1" class="node">
<title>Node1</title>
<g id="a_node1"><a xlink:title=" ">
<polygon fill="#bfbfbf" stroke="black" points="0,-0.5 0,-68.5 161,-68.5 161,-0.5 0,-0.5"/>
<text text-anchor="middle" x="80.5" y="-56.5" font-family="Helvetica,sans-Serif" font-size="10.00">TaskObserverFinishCommand</text>
<polyline fill="none" stroke="black" points="0,-49.5 161,-49.5 "/>
<text text-anchor="middle" x="80.5" y="-37.5" font-family="Helvetica,sans-Serif" font-size="10.00"> </text>
<polyline fill="none" stroke="black" points="0,-30.5 161,-30.5 "/>
<text text-anchor="start" x="8" y="-18.5" font-family="Helvetica,sans-Serif" font-size="10.00">+ TaskObserverFinishCommand()</text>
<text text-anchor="start" x="8" y="-7.5" font-family="Helvetica,sans-Serif" font-size="10.00">+ taskFinished()</text>
</a>
</g>
</g>
<!-- Node2 -->
<g id="node2" class="node">
<title>Node2</title>
<g id="a_node2"><a xlink:href="classtask_1_1_command.html" target="_top" xlink:title=" ">
<polygon fill="white" stroke="black" points="21,-166 21,-223 108,-223 108,-166 21,-166"/>
<text text-anchor="middle" x="64.5" y="-211" font-family="Helvetica,sans-Serif" font-size="10.00">task::Command</text>
<polyline fill="none" stroke="black" points="21,-204 108,-204 "/>
<text text-anchor="middle" x="64.5" y="-192" font-family="Helvetica,sans-Serif" font-size="10.00"> </text>
<polyline fill="none" stroke="black" points="21,-185 108,-185 "/>
<text text-anchor="start" x="29" y="-173" font-family="Helvetica,sans-Serif" font-size="10.00">+ taskFinished()</text>
</a>
</g>
</g>
<!-- Node2&#45;&gt;Node1 -->
<g id="edge1" class="edge">
<title>Node2&#45;&gt;Node1</title>
<path fill="none" stroke="midnightblue" d="M68.31,-155.92C70.99,-129.41 74.55,-94.22 77.13,-68.73"/>
<polygon fill="none" stroke="midnightblue" points="64.81,-155.68 67.29,-165.98 71.78,-156.38 64.81,-155.68"/>
</g>
<!-- Node3 -->
<g id="node3" class="node">
<title>Node3</title>
<g id="a_node3"><a xlink:href="class_task_observer.html" target="_top" xlink:title=" ">
<polygon fill="white" stroke="black" points="126.5,-116.5 126.5,-272.5 274.5,-272.5 274.5,-116.5 126.5,-116.5"/>
<text text-anchor="middle" x="200.5" y="-260.5" font-family="Helvetica,sans-Serif" font-size="10.00">TaskObserver</text>
<polyline fill="none" stroke="black" points="126.5,-253.5 274.5,-253.5 "/>
<text text-anchor="start" x="134.5" y="-241.5" font-family="Helvetica,sans-Serif" font-size="10.00"># mFastMutex</text>
<text text-anchor="start" x="134.5" y="-230.5" font-family="Helvetica,sans-Serif" font-size="10.00"># mBlockWriteTasks</text>
<text text-anchor="start" x="134.5" y="-219.5" font-family="Helvetica,sans-Serif" font-size="10.00"># mTransactionsForTasks</text>
<polyline fill="none" stroke="black" points="126.5,-212.5 274.5,-212.5 "/>
<text text-anchor="start" x="134.5" y="-200.5" font-family="Helvetica,sans-Serif" font-size="10.00">+ TaskObserver()</text>
<text text-anchor="start" x="134.5" y="-189.5" font-family="Helvetica,sans-Serif" font-size="10.00">+ ~TaskObserver()</text>
<text text-anchor="start" x="134.5" y="-178.5" font-family="Helvetica,sans-Serif" font-size="10.00">+ addBlockWriteTask()</text>
<text text-anchor="start" x="134.5" y="-167.5" font-family="Helvetica,sans-Serif" font-size="10.00">+ removeBlockWriteTask()</text>
<text text-anchor="start" x="134.5" y="-156.5" font-family="Helvetica,sans-Serif" font-size="10.00">+ removeTask()</text>
<text text-anchor="start" x="134.5" y="-145.5" font-family="Helvetica,sans-Serif" font-size="10.00">+ isTransactionPending()</text>
<text text-anchor="start" x="134.5" y="-134.5" font-family="Helvetica,sans-Serif" font-size="10.00">+ TaskObserverTypeToString()</text>
<text text-anchor="start" x="134.5" y="-123.5" font-family="Helvetica,sans-Serif" font-size="10.00">+ StringToTaskObserverType()</text>
</a>
</g>
</g>
<!-- Node3&#45;&gt;Node1 -->
<g id="edge2" class="edge">
<title>Node3&#45;&gt;Node1</title>
<path fill="none" stroke="#404040" d="M141.91,-116.35C132.06,-103.39 122.16,-90.35 113.27,-78.65"/>
<polygon fill="none" stroke="#404040" points="113.01,-78.3 106.2,-75.95 105.75,-68.75 112.57,-71.11 113.01,-78.3"/>
<text text-anchor="middle" x="163.5" y="-90" font-family="Helvetica,sans-Serif" font-size="10.00"> #mTaskObserver</text>
</g>
<!-- Node4 -->
<g id="node4" class="node">
<title>Node4</title>
<g id="a_node4"><a xlink:title=" ">
<polygon fill="white" stroke="black" points="147.5,-310.5 147.5,-367.5 253.5,-367.5 253.5,-310.5 147.5,-310.5"/>
<text text-anchor="middle" x="200.5" y="-355.5" font-family="Helvetica,sans-Serif" font-size="10.00">MultithreadContainer</text>
<polyline fill="none" stroke="black" points="147.5,-348.5 253.5,-348.5 "/>
<text text-anchor="middle" x="200.5" y="-336.5" font-family="Helvetica,sans-Serif" font-size="10.00"> </text>
<polyline fill="none" stroke="black" points="147.5,-329.5 253.5,-329.5 "/>
<text text-anchor="middle" x="200.5" y="-317.5" font-family="Helvetica,sans-Serif" font-size="10.00"> </text>
</a>
</g>
</g>
<!-- Node4&#45;&gt;Node3 -->
<g id="edge3" class="edge">
<title>Node4&#45;&gt;Node3</title>
<path fill="none" stroke="midnightblue" d="M200.5,-299.91C200.5,-291.42 200.5,-282.12 200.5,-272.69"/>
<polygon fill="none" stroke="midnightblue" points="197,-300.19 200.5,-310.19 204,-300.19 197,-300.19"/>
</g>
</g>
</svg>
