<?xml version="1.0" encoding="UTF-8" standalone="no"?>
<!DOCTYPE svg PUBLIC "-//W3C//DTD SVG 1.1//EN"
 "http://www.w3.org/Graphics/SVG/1.1/DTD/svg11.dtd">
<!-- Generated by graphviz version 2.50.0 (20211204.2007)
 -->
<!-- Title: controller::Block::Block Pages: 1 -->
<svg width="289pt" height="104pt"
 viewBox="0.00 0.00 289.00 104.00" xmlns="http://www.w3.org/2000/svg" xmlns:xlink="http://www.w3.org/1999/xlink">
<g id="graph0" class="graph" transform="scale(1 1) rotate(0) translate(4 100)">
<title>controller::Block::Block</title>
<polygon fill="white" stroke="transparent" points="-4,4 -4,-100 285,-100 285,4 -4,4"/>
<!-- Node1 -->
<g id="node1" class="node">
<title>Node1</title>
<g id="a_node1"><a xlink:title=" ">
<polygon fill="#bfbfbf" stroke="black" points="0,-33 0,-63 93,-63 93,-33 0,-33"/>
<text text-anchor="start" x="8" y="-51" font-family="Helvetica,sans-Serif" font-size="10.00">controller::Block::</text>
<text text-anchor="middle" x="46.5" y="-40" font-family="Helvetica,sans-Serif" font-size="10.00">Block</text>
</a>
</g>
</g>
<!-- Node2 -->
<g id="node2" class="node">
<title>Node2</title>
<g id="a_node2"><a xlink:href="class_fuzzy_timer.html#a67fca7b99d7b5a11a451cd695bf46aeb" target="_top" xlink:title=" ">
<polygon fill="white" stroke="black" points="148.5,-76.5 148.5,-95.5 261.5,-95.5 261.5,-76.5 148.5,-76.5"/>
<text text-anchor="middle" x="205" y="-83.5" font-family="Helvetica,sans-Serif" font-size="10.00">FuzzyTimer::addTimer</text>
</a>
</g>
</g>
<!-- Node1&#45;&gt;Node2 -->
<g id="edge1" class="edge">
<title>Node1&#45;&gt;Node2</title>
<path fill="none" stroke="midnightblue" d="M93.19,-59.09C112.56,-63.8 135.17,-69.29 154.9,-74.08"/>
<polygon fill="midnightblue" stroke="midnightblue" points="154.08,-77.48 164.62,-76.44 155.73,-70.68 154.08,-77.48"/>
</g>
<!-- Node3 -->
<g id="node3" class="node">
<title>Node3</title>
<g id="a_node3"><a xlink:href="class_cache_manager.html#ae02800633b7a80e447e29c3e439a04ae" target="_top" xlink:title=" ">
<polygon fill="white" stroke="black" points="129,-38.5 129,-57.5 281,-57.5 281,-38.5 129,-38.5"/>
<text text-anchor="middle" x="205" y="-45.5" font-family="Helvetica,sans-Serif" font-size="10.00">CacheManager::getFuzzyTimer</text>
</a>
</g>
</g>
<!-- Node1&#45;&gt;Node3 -->
<g id="edge2" class="edge">
<title>Node1&#45;&gt;Node3</title>
<path fill="none" stroke="midnightblue" d="M93.19,-48C101.23,-48 109.83,-48 118.55,-48"/>
<polygon fill="midnightblue" stroke="midnightblue" points="118.81,-51.5 128.81,-48 118.81,-44.5 118.81,-51.5"/>
</g>
<!-- Node4 -->
<g id="node4" class="node">
<title>Node4</title>
<g id="a_node4"><a xlink:href="class_cache_manager.html#a2c6f368d3987e7057d5d6fc4da56e177" target="_top" xlink:title=" ">
<polygon fill="white" stroke="black" points="136,-0.5 136,-19.5 274,-19.5 274,-0.5 136,-0.5"/>
<text text-anchor="middle" x="205" y="-7.5" font-family="Helvetica,sans-Serif" font-size="10.00">CacheManager::getInstance</text>
</a>
</g>
</g>
<!-- Node1&#45;&gt;Node4 -->
<g id="edge3" class="edge">
<title>Node1&#45;&gt;Node4</title>
<path fill="none" stroke="midnightblue" d="M93.19,-36.91C112.56,-32.2 135.17,-26.71 154.9,-21.92"/>
<polygon fill="midnightblue" stroke="midnightblue" points="155.73,-25.32 164.62,-19.56 154.08,-18.52 155.73,-25.32"/>
</g>
</g>
</svg>
