<?xml version="1.0" encoding="UTF-8" standalone="no"?>
<!DOCTYPE svg PUBLIC "-//W3C//DTD SVG 1.1//EN"
 "http://www.w3.org/Graphics/SVG/1.1/DTD/svg11.dtd">
<!-- Generated by graphviz version 2.50.0 (20211204.2007)
 -->
<!-- Title: controller::AddressIndex::addAddressIndex Pages: 1 -->
<svg width="506pt" height="39pt"
 viewBox="0.00 0.00 506.00 39.00" xmlns="http://www.w3.org/2000/svg" xmlns:xlink="http://www.w3.org/1999/xlink">
<g id="graph0" class="graph" transform="scale(1 1) rotate(0) translate(4 35)">
<title>controller::AddressIndex::addAddressIndex</title>
<polygon fill="white" stroke="transparent" points="-4,4 -4,-35 502,-35 502,4 -4,4"/>
<!-- Node1 -->
<g id="node1" class="node">
<title>Node1</title>
<g id="a_node1"><a xlink:title="Add index, maybe I/O read, I/O write if index is new.">
<polygon fill="#bfbfbf" stroke="black" points="0,-0.5 0,-30.5 122,-30.5 122,-0.5 0,-0.5"/>
<text text-anchor="start" x="8" y="-18.5" font-family="Helvetica,sans-Serif" font-size="10.00">controller::AddressIndex</text>
<text text-anchor="middle" x="61" y="-7.5" font-family="Helvetica,sans-Serif" font-size="10.00">::addAddressIndex</text>
</a>
</g>
</g>
<!-- Node2 -->
<g id="node2" class="node">
<title>Node2</title>
<g id="a_node2"><a xlink:href="classcontroller_1_1_address_index.html#ad0c3d5d4cf529b053f72e87c64cbd080" target="_top" xlink:title="reading model::files::AddressIndex from cache or if not exist in cache, creating model::files::Addres...">
<polygon fill="white" stroke="black" points="158,-0.5 158,-30.5 280,-30.5 280,-0.5 158,-0.5"/>
<text text-anchor="start" x="166" y="-18.5" font-family="Helvetica,sans-Serif" font-size="10.00">controller::AddressIndex</text>
<text text-anchor="middle" x="219" y="-7.5" font-family="Helvetica,sans-Serif" font-size="10.00">::getAddressIndex</text>
</a>
</g>
</g>
<!-- Node1&#45;&gt;Node2 -->
<g id="edge1" class="edge">
<title>Node1&#45;&gt;Node2</title>
<path fill="none" stroke="midnightblue" d="M122.31,-15.5C130.6,-15.5 139.17,-15.5 147.63,-15.5"/>
<polygon fill="midnightblue" stroke="midnightblue" points="147.85,-19 157.85,-15.5 147.85,-12 147.85,-19"/>
</g>
<!-- Node3 -->
<g id="node3" class="node">
<title>Node3</title>
<g id="a_node3"><a xlink:href="classcontroller_1_1_address_index.html#a59839b69b6f1f5a98ec6c3782f96e823" target="_top" xlink:title="take first hex sets from address as folder and file name">
<polygon fill="white" stroke="black" points="316,-0.5 316,-30.5 498,-30.5 498,-0.5 316,-0.5"/>
<text text-anchor="start" x="324" y="-18.5" font-family="Helvetica,sans-Serif" font-size="10.00">controller::AddressIndex</text>
<text text-anchor="middle" x="407" y="-7.5" font-family="Helvetica,sans-Serif" font-size="10.00">::getAddressIndexFilePathForAddress</text>
</a>
</g>
</g>
<!-- Node2&#45;&gt;Node3 -->
<g id="edge2" class="edge">
<title>Node2&#45;&gt;Node3</title>
<path fill="none" stroke="midnightblue" d="M280.13,-15.5C288.37,-15.5 297,-15.5 305.72,-15.5"/>
<polygon fill="midnightblue" stroke="midnightblue" points="305.98,-19 315.98,-15.5 305.98,-12 305.98,-19"/>
</g>
</g>
</svg>
