<?xml version="1.0" encoding="UTF-8" standalone="no"?>
<!DOCTYPE svg PUBLIC "-//W3C//DTD SVG 1.1//EN"
 "http://www.w3.org/Graphics/SVG/1.1/DTD/svg11.dtd">
<!-- Generated by graphviz version 2.50.0 (20211204.2007)
 -->
<!-- Title: iota::MessageId::fromHex Pages: 1 -->
<svg width="303pt" height="78pt"
 viewBox="0.00 0.00 303.00 77.50" xmlns="http://www.w3.org/2000/svg" xmlns:xlink="http://www.w3.org/1999/xlink">
<g id="graph0" class="graph" transform="scale(1 1) rotate(0) translate(4 73.5)">
<title>iota::MessageId::fromHex</title>
<polygon fill="white" stroke="transparent" points="-4,4 -4,-73.5 299,-73.5 299,4 -4,4"/>
<!-- Node1 -->
<g id="node1" class="node">
<title>Node1</title>
<g id="a_node1"><a xlink:title=" ">
<polygon fill="#bfbfbf" stroke="black" points="0,-28 0,-47 128,-47 128,-28 0,-28"/>
<text text-anchor="middle" x="64" y="-35" font-family="Helvetica,sans-Serif" font-size="10.00">iota::MessageId::fromHex</text>
</a>
</g>
</g>
<!-- Node2 -->
<g id="node2" class="node">
<title>Node2</title>
<g id="a_node2"><a xlink:href="_bin_text_converter_8cpp.html#abc148f267e9f9ce50b2bd6d5569db08a" target="_top" xlink:title=" ">
<polygon fill="white" stroke="black" points="185,-50 185,-69 274,-69 274,-50 185,-50"/>
<text text-anchor="middle" x="229.5" y="-57" font-family="Helvetica,sans-Serif" font-size="10.00">convertHexToBin</text>
</a>
</g>
</g>
<!-- Node1&#45;&gt;Node2 -->
<g id="edge1" class="edge">
<title>Node1&#45;&gt;Node2</title>
<path fill="none" stroke="midnightblue" d="M128.21,-46.01C143.55,-48.07 159.8,-50.26 174.65,-52.25"/>
<polygon fill="midnightblue" stroke="midnightblue" points="174.31,-55.74 184.68,-53.6 175.24,-48.8 174.31,-55.74"/>
</g>
<!-- Node3 -->
<g id="node3" class="node">
<title>Node3</title>
<g id="a_node3"><a xlink:href="classiota_1_1_message_id.html#a389b606d6350ab97ddfaacd33c747d69" target="_top" xlink:title=" ">
<polygon fill="white" stroke="black" points="164,-0.5 164,-30.5 295,-30.5 295,-0.5 164,-0.5"/>
<text text-anchor="start" x="172" y="-18.5" font-family="Helvetica,sans-Serif" font-size="10.00">iota::MessageId::fromByte</text>
<text text-anchor="middle" x="229.5" y="-7.5" font-family="Helvetica,sans-Serif" font-size="10.00">Array</text>
</a>
</g>
</g>
<!-- Node1&#45;&gt;Node3 -->
<g id="edge2" class="edge">
<title>Node1&#45;&gt;Node3</title>
<path fill="none" stroke="midnightblue" d="M128.21,-28.99C136.61,-27.86 145.28,-26.7 153.85,-25.54"/>
<polygon fill="midnightblue" stroke="midnightblue" points="154.39,-29 163.83,-24.2 153.46,-22.07 154.39,-29"/>
</g>
</g>
</svg>
