<?xml version="1.0" encoding="UTF-8" standalone="no"?>
<!DOCTYPE svg PUBLIC "-//W3C//DTD SVG 1.1//EN"
 "http://www.w3.org/Graphics/SVG/1.1/DTD/svg11.dtd">
<!-- Generated by graphviz version 2.50.0 (20211204.2007)
 -->
<!-- Title: controller::AddressIndex::getOrAddIndexForAddress Pages: 1 -->
<svg width="521pt" height="39pt"
 viewBox="0.00 0.00 521.00 39.00" xmlns="http://www.w3.org/2000/svg" xmlns:xlink="http://www.w3.org/1999/xlink">
<g id="graph0" class="graph" transform="scale(1 1) rotate(0) translate(4 35)">
<title>controller::AddressIndex::getOrAddIndexForAddress</title>
<polygon fill="white" stroke="transparent" points="-4,4 -4,-35 517,-35 517,4 -4,4"/>
<!-- Node1 -->
<g id="node1" class="node">
<title>Node1</title>
<g id="a_node1"><a xlink:title="Get or add index if not exist in cache or file, maybe I/O read.">
<polygon fill="#bfbfbf" stroke="black" points="0,-0.5 0,-30.5 137,-30.5 137,-0.5 0,-0.5"/>
<text text-anchor="start" x="8" y="-18.5" font-family="Helvetica,sans-Serif" font-size="10.00">controller::AddressIndex</text>
<text text-anchor="middle" x="68.5" y="-7.5" font-family="Helvetica,sans-Serif" font-size="10.00">::getOrAddIndexForAddress</text>
</a>
</g>
</g>
<!-- Node2 -->
<g id="node2" class="node">
<title>Node2</title>
<g id="a_node2"><a xlink:href="classcontroller_1_1_address_index.html#ad0c3d5d4cf529b053f72e87c64cbd080" target="_top" xlink:title="reading model::files::AddressIndex from cache or if not exist in cache, creating model::files::Addres...">
<polygon fill="white" stroke="black" points="173,-0.5 173,-30.5 295,-30.5 295,-0.5 173,-0.5"/>
<text text-anchor="start" x="181" y="-18.5" font-family="Helvetica,sans-Serif" font-size="10.00">controller::AddressIndex</text>
<text text-anchor="middle" x="234" y="-7.5" font-family="Helvetica,sans-Serif" font-size="10.00">::getAddressIndex</text>
</a>
</g>
</g>
<!-- Node1&#45;&gt;Node2 -->
<g id="edge1" class="edge">
<title>Node1&#45;&gt;Node2</title>
<path fill="none" stroke="midnightblue" d="M137.42,-15.5C145.78,-15.5 154.33,-15.5 162.73,-15.5"/>
<polygon fill="midnightblue" stroke="midnightblue" points="162.86,-19 172.86,-15.5 162.86,-12 162.86,-19"/>
</g>
<!-- Node3 -->
<g id="node3" class="node">
<title>Node3</title>
<g id="a_node3"><a xlink:href="classcontroller_1_1_address_index.html#a59839b69b6f1f5a98ec6c3782f96e823" target="_top" xlink:title="take first hex sets from address as folder and file name">
<polygon fill="white" stroke="black" points="331,-0.5 331,-30.5 513,-30.5 513,-0.5 331,-0.5"/>
<text text-anchor="start" x="339" y="-18.5" font-family="Helvetica,sans-Serif" font-size="10.00">controller::AddressIndex</text>
<text text-anchor="middle" x="422" y="-7.5" font-family="Helvetica,sans-Serif" font-size="10.00">::getAddressIndexFilePathForAddress</text>
</a>
</g>
</g>
<!-- Node2&#45;&gt;Node3 -->
<g id="edge2" class="edge">
<title>Node2&#45;&gt;Node3</title>
<path fill="none" stroke="midnightblue" d="M295.13,-15.5C303.37,-15.5 312,-15.5 320.72,-15.5"/>
<polygon fill="midnightblue" stroke="midnightblue" points="320.98,-19 330.98,-15.5 320.98,-12 320.98,-19"/>
</g>
</g>
</svg>
