<?xml version="1.0" encoding="UTF-8" standalone="no"?>
<!DOCTYPE svg PUBLIC "-//W3C//DTD SVG 1.1//EN"
 "http://www.w3.org/Graphics/SVG/1.1/DTD/svg11.dtd">
<!-- Generated by graphviz version 2.50.0 (20211204.2007)
 -->
<!-- Title: controller::Block::getTransaction Pages: 1 -->
<svg width="406pt" height="75pt"
 viewBox="0.00 0.00 406.00 74.50" xmlns="http://www.w3.org/2000/svg" xmlns:xlink="http://www.w3.org/1999/xlink">
<g id="graph0" class="graph" transform="scale(1 1) rotate(0) translate(4 70.5)">
<title>controller::Block::getTransaction</title>
<polygon fill="white" stroke="transparent" points="-4,4 -4,-70.5 402,-70.5 402,4 -4,4"/>
<!-- Node1 -->
<g id="node1" class="node">
<title>Node1</title>
<g id="a_node1"><a xlink:title="load transaction from cache or file system">
<polygon fill="#bfbfbf" stroke="black" points="0,-14 0,-44 93,-44 93,-14 0,-14"/>
<text text-anchor="start" x="8" y="-32" font-family="Helvetica,sans-Serif" font-size="10.00">controller::Block::</text>
<text text-anchor="middle" x="46.5" y="-21" font-family="Helvetica,sans-Serif" font-size="10.00">getTransaction</text>
</a>
</g>
</g>
<!-- Node2 -->
<g id="node2" class="node">
<title>Node2</title>
<g id="a_node2"><a xlink:href="classcontroller_1_1_block.html#af9555c340969e8256be495013c41a80e" target="_top" xlink:title="add transaction from Block File, called by Block File, adding to cache and index">
<polygon fill="white" stroke="black" points="129,-36 129,-66 222,-66 222,-36 129,-36"/>
<text text-anchor="start" x="137" y="-54" font-family="Helvetica,sans-Serif" font-size="10.00">controller::Block::</text>
<text text-anchor="middle" x="175.5" y="-43" font-family="Helvetica,sans-Serif" font-size="10.00">addTransaction</text>
</a>
</g>
</g>
<!-- Node1&#45;&gt;Node2 -->
<g id="edge1" class="edge">
<title>Node1&#45;&gt;Node2</title>
<path fill="none" stroke="midnightblue" d="M93.35,-36.94C101.62,-38.38 110.33,-39.88 118.85,-41.36"/>
<polygon fill="midnightblue" stroke="midnightblue" points="118.27,-44.81 128.72,-43.07 119.46,-37.91 118.27,-44.81"/>
</g>
<!-- Node4 -->
<g id="node4" class="node">
<title>Node4</title>
<g id="a_node4"><a xlink:href="class_logger_manager.html#a88f5ea1c5a1bf96ccb17ffabc3fd9a9b" target="_top" xlink:title=" ">
<polygon fill="white" stroke="black" points="258,-0.5 258,-19.5 398,-19.5 398,-0.5 258,-0.5"/>
<text text-anchor="middle" x="328" y="-7.5" font-family="Helvetica,sans-Serif" font-size="10.00">LoggerManager::getInstance</text>
</a>
</g>
</g>
<!-- Node1&#45;&gt;Node4 -->
<g id="edge4" class="edge">
<title>Node1&#45;&gt;Node4</title>
<path fill="none" stroke="midnightblue" d="M93.03,-25.91C134.85,-23.06 197.75,-18.79 247.8,-15.38"/>
<polygon fill="midnightblue" stroke="midnightblue" points="248.21,-18.86 257.95,-14.69 247.74,-11.88 248.21,-18.86"/>
</g>
<!-- Node3 -->
<g id="node3" class="node">
<title>Node3</title>
<g id="a_node3"><a xlink:href="class_group_manager.html#a023ecd32edba5827e65a8228298fdffc" target="_top" xlink:title=" ">
<polygon fill="white" stroke="black" points="259.5,-41.5 259.5,-60.5 396.5,-60.5 396.5,-41.5 259.5,-41.5"/>
<text text-anchor="middle" x="328" y="-48.5" font-family="Helvetica,sans-Serif" font-size="10.00">GroupManager::getInstance</text>
</a>
</g>
</g>
<!-- Node2&#45;&gt;Node3 -->
<g id="edge2" class="edge">
<title>Node2&#45;&gt;Node3</title>
<path fill="none" stroke="midnightblue" d="M222.06,-51C230.7,-51 239.97,-51 249.28,-51"/>
<polygon fill="midnightblue" stroke="midnightblue" points="249.38,-54.5 259.38,-51 249.38,-47.5 249.38,-54.5"/>
</g>
<!-- Node2&#45;&gt;Node4 -->
<g id="edge3" class="edge">
<title>Node2&#45;&gt;Node4</title>
<path fill="none" stroke="midnightblue" d="M222.06,-38.59C241.13,-33.39 263.23,-27.37 282.21,-22.2"/>
<polygon fill="midnightblue" stroke="midnightblue" points="283.38,-25.51 292.11,-19.51 281.54,-18.76 283.38,-25.51"/>
</g>
</g>
</svg>
