<?xml version="1.0" encoding="UTF-8" standalone="no"?>
<!DOCTYPE svg PUBLIC "-//W3C//DTD SVG 1.1//EN"
 "http://www.w3.org/Graphics/SVG/1.1/DTD/svg11.dtd">
<!-- Generated by graphviz version 2.50.0 (20211204.2007)
 -->
<!-- Title: WriteTransactionsToBlockTask::getTransactionNrs Pages: 1 -->
<svg width="664pt" height="39pt"
 viewBox="0.00 0.00 664.00 39.00" xmlns="http://www.w3.org/2000/svg" xmlns:xlink="http://www.w3.org/1999/xlink">
<g id="graph0" class="graph" transform="scale(1 1) rotate(0) translate(4 35)">
<title>WriteTransactionsToBlockTask::getTransactionNrs</title>
<polygon fill="white" stroke="transparent" points="-4,4 -4,-35 660,-35 660,4 -4,4"/>
<!-- Node1 -->
<g id="node1" class="node">
<title>Node1</title>
<g id="a_node1"><a xlink:title="collect all transaction nrs from transactions">
<polygon fill="#bfbfbf" stroke="black" points="525,-0.5 525,-30.5 656,-30.5 656,-0.5 525,-0.5"/>
<text text-anchor="start" x="533" y="-18.5" font-family="Helvetica,sans-Serif" font-size="10.00">WriteTransactionsToBlock</text>
<text text-anchor="middle" x="590.5" y="-7.5" font-family="Helvetica,sans-Serif" font-size="10.00">Task::getTransactionNrs</text>
</a>
</g>
</g>
<!-- Node2 -->
<g id="node2" class="node">
<title>Node2</title>
<g id="a_node2"><a xlink:href="class_task_observer.html#abb99f67e09fb4ef4144e983699e51bca" target="_top" xlink:title="remove WriteTransactionsToBlockTask from map and transactions">
<polygon fill="white" stroke="black" points="352,-0.5 352,-30.5 489,-30.5 489,-0.5 352,-0.5"/>
<text text-anchor="start" x="360" y="-18.5" font-family="Helvetica,sans-Serif" font-size="10.00">TaskObserver::removeBlock</text>
<text text-anchor="middle" x="420.5" y="-7.5" font-family="Helvetica,sans-Serif" font-size="10.00">WriteTask</text>
</a>
</g>
</g>
<!-- Node1&#45;&gt;Node2 -->
<g id="edge1" class="edge">
<title>Node1&#45;&gt;Node2</title>
<path fill="none" stroke="midnightblue" d="M514.35,-15.5C505.93,-15.5 497.38,-15.5 489.06,-15.5"/>
<polygon fill="midnightblue" stroke="midnightblue" points="514.55,-19 524.55,-15.5 514.55,-12 514.55,-19"/>
</g>
<!-- Node3 -->
<g id="node3" class="node">
<title>Node3</title>
<g id="a_node3"><a xlink:href="class_task_observer.html#aa0951519dd1424eaa6c1983fb186eb8f" target="_top" xlink:title="remove Tasks">
<polygon fill="white" stroke="black" points="182,-6 182,-25 316,-25 316,-6 182,-6"/>
<text text-anchor="middle" x="249" y="-13" font-family="Helvetica,sans-Serif" font-size="10.00">TaskObserver::removeTask</text>
</a>
</g>
</g>
<!-- Node2&#45;&gt;Node3 -->
<g id="edge2" class="edge">
<title>Node2&#45;&gt;Node3</title>
<path fill="none" stroke="midnightblue" d="M341.3,-15.5C332.86,-15.5 324.33,-15.5 316.05,-15.5"/>
<polygon fill="midnightblue" stroke="midnightblue" points="341.53,-19 351.53,-15.5 341.53,-12 341.53,-19"/>
</g>
<!-- Node4 -->
<g id="node4" class="node">
<title>Node4</title>
<g id="a_node4"><a xlink:href="class_task_observer_finish_command.html#af92d7b726676e451c85bbb84beb19e38" target="_top" xlink:title=" ">
<polygon fill="white" stroke="black" points="0,-0.5 0,-30.5 146,-30.5 146,-0.5 0,-0.5"/>
<text text-anchor="start" x="8" y="-18.5" font-family="Helvetica,sans-Serif" font-size="10.00">TaskObserverFinishCommand</text>
<text text-anchor="middle" x="73" y="-7.5" font-family="Helvetica,sans-Serif" font-size="10.00">::taskFinished</text>
</a>
</g>
</g>
<!-- Node3&#45;&gt;Node4 -->
<g id="edge3" class="edge">
<title>Node3&#45;&gt;Node4</title>
<path fill="none" stroke="midnightblue" d="M171.53,-15.5C163.11,-15.5 154.55,-15.5 146.18,-15.5"/>
<polygon fill="midnightblue" stroke="midnightblue" points="171.72,-19 181.72,-15.5 171.72,-12 171.72,-19"/>
</g>
</g>
</svg>
