<?xml version="1.0" encoding="UTF-8" standalone="no"?>
<!DOCTYPE svg PUBLIC "-//W3C//DTD SVG 1.1//EN"
 "http://www.w3.org/Graphics/SVG/1.1/DTD/svg11.dtd">
<!-- Generated by graphviz version 2.50.0 (20211204.2007)
 -->
<!-- Title: controller::Group::calculateCreationSum Pages: 1 -->
<svg width="427pt" height="116pt"
 viewBox="0.00 0.00 427.00 115.50" xmlns="http://www.w3.org/2000/svg" xmlns:xlink="http://www.w3.org/1999/xlink">
<g id="graph0" class="graph" transform="scale(1 1) rotate(0) translate(4 111.5)">
<title>controller::Group::calculateCreationSum</title>
<polygon fill="white" stroke="transparent" points="-4,4 -4,-111.5 423,-111.5 423,4 -4,4"/>
<!-- Node1 -->
<g id="node1" class="node">
<title>Node1</title>
<g id="a_node1"><a xlink:title="Search for creation transactions from specific month and add balances together.">
<polygon fill="#bfbfbf" stroke="black" points="0,-33 0,-63 112,-63 112,-33 0,-33"/>
<text text-anchor="start" x="8" y="-51" font-family="Helvetica,sans-Serif" font-size="10.00">controller::Group::</text>
<text text-anchor="middle" x="56" y="-40" font-family="Helvetica,sans-Serif" font-size="10.00">calculateCreationSum</text>
</a>
</g>
</g>
<!-- Node2 -->
<g id="node2" class="node">
<title>Node2</title>
<g id="a_node2"><a xlink:href="classcontroller_1_1_group.html#ae8e568b6229a699bfed1ecc781a1b162" target="_top" xlink:title="Find every transaction belonging to address account in memory or block chain, expensive.">
<polygon fill="white" stroke="black" points="148,-33 148,-63 243,-63 243,-33 148,-33"/>
<text text-anchor="start" x="156" y="-51" font-family="Helvetica,sans-Serif" font-size="10.00">controller::Group::</text>
<text text-anchor="middle" x="195.5" y="-40" font-family="Helvetica,sans-Serif" font-size="10.00">findTransactions</text>
</a>
</g>
</g>
<!-- Node1&#45;&gt;Node2 -->
<g id="edge1" class="edge">
<title>Node1&#45;&gt;Node2</title>
<path fill="none" stroke="midnightblue" d="M112.13,-48C120.53,-48 129.2,-48 137.63,-48"/>
<polygon fill="midnightblue" stroke="midnightblue" points="137.75,-51.5 147.75,-48 137.75,-44.5 137.75,-51.5"/>
</g>
<!-- Node3 -->
<g id="node3" class="node">
<title>Node3</title>
<g id="a_node3"><a xlink:href="classcontroller_1_1_group.html#a2c4c4112f1d284eff307cb73d324e73f" target="_top" xlink:title=" ">
<polygon fill="white" stroke="black" points="301.5,-77 301.5,-107 396.5,-107 396.5,-77 301.5,-77"/>
<text text-anchor="start" x="309.5" y="-95" font-family="Helvetica,sans-Serif" font-size="10.00">controller::Group::</text>
<text text-anchor="middle" x="349" y="-84" font-family="Helvetica,sans-Serif" font-size="10.00">getBlock</text>
</a>
</g>
</g>
<!-- Node2&#45;&gt;Node3 -->
<g id="edge2" class="edge">
<title>Node2&#45;&gt;Node3</title>
<path fill="none" stroke="midnightblue" d="M243.19,-61.56C258.53,-66.01 275.74,-71.01 291.71,-75.65"/>
<polygon fill="midnightblue" stroke="midnightblue" points="290.88,-79.06 301.46,-78.48 292.84,-72.33 290.88,-79.06"/>
</g>
<!-- Node4 -->
<g id="node4" class="node">
<title>Node4</title>
<g id="a_node4"><a xlink:href="class_group_manager.html#a023ecd32edba5827e65a8228298fdffc" target="_top" xlink:title=" ">
<polygon fill="white" stroke="black" points="280.5,-38.5 280.5,-57.5 417.5,-57.5 417.5,-38.5 280.5,-38.5"/>
<text text-anchor="middle" x="349" y="-45.5" font-family="Helvetica,sans-Serif" font-size="10.00">GroupManager::getInstance</text>
</a>
</g>
</g>
<!-- Node2&#45;&gt;Node4 -->
<g id="edge3" class="edge">
<title>Node2&#45;&gt;Node4</title>
<path fill="none" stroke="midnightblue" d="M243.19,-48C251.81,-48 261.02,-48 270.27,-48"/>
<polygon fill="midnightblue" stroke="midnightblue" points="270.3,-51.5 280.3,-48 270.3,-44.5 270.3,-51.5"/>
</g>
<!-- Node5 -->
<g id="node5" class="node">
<title>Node5</title>
<g id="a_node5"><a xlink:href="class_logger_manager.html#a88f5ea1c5a1bf96ccb17ffabc3fd9a9b" target="_top" xlink:title=" ">
<polygon fill="white" stroke="black" points="279,-0.5 279,-19.5 419,-19.5 419,-0.5 279,-0.5"/>
<text text-anchor="middle" x="349" y="-7.5" font-family="Helvetica,sans-Serif" font-size="10.00">LoggerManager::getInstance</text>
</a>
</g>
</g>
<!-- Node2&#45;&gt;Node5 -->
<g id="edge4" class="edge">
<title>Node2&#45;&gt;Node5</title>
<path fill="none" stroke="midnightblue" d="M243.19,-36.29C261.24,-31.76 281.88,-26.59 300.04,-22.03"/>
<polygon fill="midnightblue" stroke="midnightblue" points="301,-25.4 309.85,-19.57 299.29,-18.61 301,-25.4"/>
</g>
</g>
</svg>
