<?xml version="1.0" encoding="UTF-8" standalone="no"?>
<!DOCTYPE svg PUBLIC "-//W3C//DTD SVG 1.1//EN"
 "http://www.w3.org/Graphics/SVG/1.1/DTD/svg11.dtd">
<!-- Generated by graphviz version 2.50.0 (20211204.2007)
 -->
<!-- Title: model::files::BlockIndex::readFromFile Pages: 1 -->
<svg width="517pt" height="291pt"
 viewBox="0.00 0.00 517.00 291.00" xmlns="http://www.w3.org/2000/svg" xmlns:xlink="http://www.w3.org/1999/xlink">
<g id="graph0" class="graph" transform="scale(1 1) rotate(0) translate(4 287)">
<title>model::files::BlockIndex::readFromFile</title>
<polygon fill="white" stroke="transparent" points="-4,4 -4,-287 513,-287 513,4 -4,4"/>
<!-- Node1 -->
<g id="node1" class="node">
<title>Node1</title>
<g id="a_node1"><a xlink:title="read from file, put content into receiver">
<polygon fill="#bfbfbf" stroke="black" points="0,-132.5 0,-162.5 120,-162.5 120,-132.5 0,-132.5"/>
<text text-anchor="start" x="8" y="-150.5" font-family="Helvetica,sans-Serif" font-size="10.00">model::files::BlockIndex</text>
<text text-anchor="middle" x="60" y="-139.5" font-family="Helvetica,sans-Serif" font-size="10.00">::readFromFile</text>
</a>
</g>
</g>
<!-- Node2 -->
<g id="node2" class="node">
<title>Node2</title>
<g id="a_node2"><a xlink:href="classmodel_1_1files_1_1_i_block_index_receiver.html#aa6d65f01c0781942b46d3af23ddba6ac" target="_top" xlink:title=" ">
<polygon fill="white" stroke="black" points="156,-252.5 156,-282.5 326,-282.5 326,-252.5 156,-252.5"/>
<text text-anchor="start" x="164" y="-270.5" font-family="Helvetica,sans-Serif" font-size="10.00">model::files::IBlockIndex</text>
<text text-anchor="middle" x="241" y="-259.5" font-family="Helvetica,sans-Serif" font-size="10.00">Receiver::addIndicesForTransaction</text>
</a>
</g>
</g>
<!-- Node1&#45;&gt;Node2 -->
<g id="edge1" class="edge">
<title>Node1&#45;&gt;Node2</title>
<path fill="none" stroke="midnightblue" d="M72.15,-162.67C88.34,-183.62 120.33,-221.25 156,-242.5 159.6,-244.65 163.4,-246.62 167.32,-248.43"/>
<polygon fill="midnightblue" stroke="midnightblue" points="166.04,-251.7 176.62,-252.38 168.78,-245.25 166.04,-251.7"/>
</g>
<!-- Node3 -->
<g id="node3" class="node">
<title>Node3</title>
<g id="a_node3"><a xlink:href="class_virtual_file.html#ae6d819110d19387e7620f0949c54e3bf" target="_top" xlink:title=" ">
<polygon fill="white" stroke="black" points="187,-214 187,-233 295,-233 295,-214 187,-214"/>
<text text-anchor="middle" x="241" y="-221" font-family="Helvetica,sans-Serif" font-size="10.00">VirtualFile::getCursor</text>
</a>
</g>
</g>
<!-- Node1&#45;&gt;Node3 -->
<g id="edge2" class="edge">
<title>Node1&#45;&gt;Node3</title>
<path fill="none" stroke="midnightblue" d="M81.86,-162.69C100.46,-175.56 128.87,-193.62 156,-204.5 162.68,-207.18 169.81,-209.52 177,-211.56"/>
<polygon fill="midnightblue" stroke="midnightblue" points="176.23,-214.98 186.79,-214.16 178.02,-208.21 176.23,-214.98"/>
</g>
<!-- Node4 -->
<g id="node4" class="node">
<title>Node4</title>
<g id="a_node4"><a xlink:href="class_virtual_file.html#a8febfa5868cbfe68f6fd640e214e264a" target="_top" xlink:title=" ">
<polygon fill="white" stroke="black" points="191.5,-176 191.5,-195 290.5,-195 290.5,-176 191.5,-176"/>
<text text-anchor="middle" x="241" y="-183" font-family="Helvetica,sans-Serif" font-size="10.00">VirtualFile::getSize</text>
</a>
</g>
</g>
<!-- Node1&#45;&gt;Node4 -->
<g id="edge3" class="edge">
<title>Node1&#45;&gt;Node4</title>
<path fill="none" stroke="midnightblue" d="M120.11,-160.05C141.11,-164.51 164.65,-169.5 185.27,-173.88"/>
<polygon fill="midnightblue" stroke="midnightblue" points="184.63,-177.32 195.13,-175.98 186.08,-170.47 184.63,-177.32"/>
</g>
<!-- Node5 -->
<g id="node5" class="node">
<title>Node5</title>
<g id="a_node5"><a xlink:href="class_virtual_file.html#a888acb75cb32b3d1b1790e97309c0a05" target="_top" xlink:title="copy from buffer over into dst, move cursor">
<polygon fill="white" stroke="black" points="393,-132 393,-151 478,-151 478,-132 393,-132"/>
<text text-anchor="middle" x="435.5" y="-139" font-family="Helvetica,sans-Serif" font-size="10.00">VirtualFile::read</text>
</a>
</g>
</g>
<!-- Node1&#45;&gt;Node5 -->
<g id="edge4" class="edge">
<title>Node1&#45;&gt;Node5</title>
<path fill="none" stroke="midnightblue" d="M120.18,-146.55C192.57,-145.39 313.95,-143.44 382.77,-142.33"/>
<polygon fill="midnightblue" stroke="midnightblue" points="383,-145.83 392.94,-142.17 382.89,-138.83 383,-145.83"/>
</g>
<!-- Node6 -->
<g id="node6" class="node">
<title>Node6</title>
<g id="a_node6"><a xlink:href="class_virtual_file.html#abbdc300573ac1c30d2ae09b585af0a2b" target="_top" xlink:title="get memory bin in file size and fill it with file content">
<polygon fill="white" stroke="black" points="179.5,-50 179.5,-69 302.5,-69 302.5,-50 179.5,-50"/>
<text text-anchor="middle" x="241" y="-57" font-family="Helvetica,sans-Serif" font-size="10.00">VirtualFile::readFromFile</text>
</a>
</g>
</g>
<!-- Node1&#45;&gt;Node6 -->
<g id="edge5" class="edge">
<title>Node1&#45;&gt;Node6</title>
<path fill="none" stroke="midnightblue" d="M77.92,-132.24C96,-116.73 126.1,-93.12 156,-79.5 162.47,-76.55 169.43,-74.01 176.47,-71.82"/>
<polygon fill="midnightblue" stroke="midnightblue" points="177.44,-75.19 186.09,-69.06 175.51,-68.46 177.44,-75.19"/>
</g>
<!-- Node10 -->
<g id="node10" class="node">
<title>Node10</title>
<g id="a_node10"><a xlink:href="structmodel_1_1files_1_1_block_index_1_1_block.html#af6656e044626dfb1bf1c7efdb43794c5" target="_top" xlink:title="return false if reading failed, file to short?">
<polygon fill="white" stroke="black" points="181,-88.5 181,-118.5 301,-118.5 301,-88.5 181,-88.5"/>
<text text-anchor="start" x="189" y="-106.5" font-family="Helvetica,sans-Serif" font-size="10.00">model::files::BlockIndex</text>
<text text-anchor="middle" x="241" y="-95.5" font-family="Helvetica,sans-Serif" font-size="10.00">::Block::readFromFile</text>
</a>
</g>
</g>
<!-- Node1&#45;&gt;Node10 -->
<g id="edge9" class="edge">
<title>Node1&#45;&gt;Node10</title>
<path fill="none" stroke="midnightblue" d="M120.11,-132.97C136.45,-128.95 154.33,-124.56 171.18,-120.42"/>
<polygon fill="midnightblue" stroke="midnightblue" points="172.08,-123.8 180.95,-118.01 170.41,-117 172.08,-123.8"/>
</g>
<!-- Node11 -->
<g id="node11" class="node">
<title>Node11</title>
<g id="a_node11"><a xlink:href="structmodel_1_1files_1_1_block_index_1_1_block.html#a5b9d23582fe043ad44ed504129c8736b" target="_top" xlink:title=" ">
<polygon fill="white" stroke="black" points="181,-0.5 181,-30.5 301,-30.5 301,-0.5 181,-0.5"/>
<text text-anchor="start" x="189" y="-18.5" font-family="Helvetica,sans-Serif" font-size="10.00">model::files::BlockIndex</text>
<text text-anchor="middle" x="241" y="-7.5" font-family="Helvetica,sans-Serif" font-size="10.00">::Block::updateHash</text>
</a>
</g>
</g>
<!-- Node1&#45;&gt;Node11 -->
<g id="edge11" class="edge">
<title>Node1&#45;&gt;Node11</title>
<path fill="none" stroke="midnightblue" d="M70.41,-132.32C85.59,-109.1 117.65,-64.92 156,-40.5 160.73,-37.49 165.84,-34.82 171.13,-32.47"/>
<polygon fill="midnightblue" stroke="midnightblue" points="172.83,-35.56 180.78,-28.56 170.2,-29.07 172.83,-35.56"/>
</g>
<!-- Node7 -->
<g id="node7" class="node">
<title>Node7</title>
<g id="a_node7"><a xlink:href="class_file_lock_manager.html#a8399a835b02b2013283423050efa52ba" target="_top" xlink:title=" ">
<polygon fill="white" stroke="black" points="362,-88 362,-107 509,-107 509,-88 362,-88"/>
<text text-anchor="middle" x="435.5" y="-95" font-family="Helvetica,sans-Serif" font-size="10.00">FileLockManager::getInstance</text>
</a>
</g>
</g>
<!-- Node6&#45;&gt;Node7 -->
<g id="edge6" class="edge">
<title>Node6&#45;&gt;Node7</title>
<path fill="none" stroke="midnightblue" d="M290.58,-69.09C316.66,-74.24 349.01,-80.62 376.42,-86.03"/>
<polygon fill="midnightblue" stroke="midnightblue" points="375.78,-89.48 386.27,-87.98 377.14,-82.61 375.78,-89.48"/>
</g>
<!-- Node8 -->
<g id="node8" class="node">
<title>Node8</title>
<g id="a_node8"><a xlink:href="class_logger_manager.html#a88f5ea1c5a1bf96ccb17ffabc3fd9a9b" target="_top" xlink:title=" ">
<polygon fill="white" stroke="black" points="365.5,-50 365.5,-69 505.5,-69 505.5,-50 365.5,-50"/>
<text text-anchor="middle" x="435.5" y="-57" font-family="Helvetica,sans-Serif" font-size="10.00">LoggerManager::getInstance</text>
</a>
</g>
</g>
<!-- Node6&#45;&gt;Node8 -->
<g id="edge7" class="edge">
<title>Node6&#45;&gt;Node8</title>
<path fill="none" stroke="midnightblue" d="M302.64,-59.5C319.32,-59.5 337.65,-59.5 355.21,-59.5"/>
<polygon fill="midnightblue" stroke="midnightblue" points="355.44,-63 365.44,-59.5 355.44,-56 355.44,-63"/>
</g>
<!-- Node9 -->
<g id="node9" class="node">
<title>Node9</title>
<g id="a_node9"><a xlink:href="class_virtual_file.html#ab4fefe3e765c9cc319863a021e115fae" target="_top" xlink:title="get memory bin from memory manager by his own">
<polygon fill="white" stroke="black" points="380.5,-12 380.5,-31 490.5,-31 490.5,-12 380.5,-12"/>
<text text-anchor="middle" x="435.5" y="-19" font-family="Helvetica,sans-Serif" font-size="10.00">VirtualFile::VirtualFile</text>
</a>
</g>
</g>
<!-- Node6&#45;&gt;Node9 -->
<g id="edge8" class="edge">
<title>Node6&#45;&gt;Node9</title>
<path fill="none" stroke="midnightblue" d="M290.58,-49.91C316.66,-44.76 349.01,-38.38 376.42,-32.97"/>
<polygon fill="midnightblue" stroke="midnightblue" points="377.14,-36.39 386.27,-31.02 375.78,-29.52 377.14,-36.39"/>
</g>
<!-- Node10&#45;&gt;Node5 -->
<g id="edge10" class="edge">
<title>Node10&#45;&gt;Node5</title>
<path fill="none" stroke="midnightblue" d="M301.06,-115.16C327.19,-120.32 357.64,-126.33 382.85,-131.3"/>
<polygon fill="midnightblue" stroke="midnightblue" points="382.46,-134.79 392.95,-133.3 383.82,-127.93 382.46,-134.79"/>
</g>
</g>
</svg>
