<?xml version="1.0" encoding="UTF-8" standalone="no"?>
<!DOCTYPE svg PUBLIC "-//W3C//DTD SVG 1.1//EN"
 "http://www.w3.org/Graphics/SVG/1.1/DTD/svg11.dtd">
<!-- Generated by graphviz version 2.50.0 (20211204.2007)
 -->
<!-- Title: iota::MilestoneLoadingTask Pages: 1 -->
<!--zoomable 767 -->
<svg id="main" version="1.1" xmlns="http://www.w3.org/2000/svg" xmlns:xlink="http://www.w3.org/1999/xlink" xml:space="preserve" onload="init(evt)">
<style type="text/css"><![CDATA[
.edge:hover path { stroke: red; }
.edge:hover polygon { stroke: red; fill: red; }
]]></style>
<script type="text/javascript"><![CDATA[
var edges = document.getElementsByTagName('g');
if (edges && edges.length) {
  for (var i=0;i<edges.length;i++) {
    if (edges[i].id.substr(0,4)=='edge') {
      edges[i].setAttribute('class','edge');
    }
  }
}
]]></script>
        <defs>
                <circle id="rim" cx="0" cy="0" r="7"/>
                <circle id="rim2" cx="0" cy="0" r="3.5"/>
                <g id="zoomPlus">
                        <use xlink:href="#rim" fill="#404040">
                                <set attributeName="fill" to="#808080" begin="zoomplus.mouseover" end="zoomplus.mouseout"/>
                        </use>
                        <path d="M-4,0h8M0,-4v8" fill="none" stroke="white" stroke-width="1.5" pointer-events="none"/>
                </g>
                <g id="zoomMin">
                        <use xlink:href="#rim" fill="#404040">
                                <set attributeName="fill" to="#808080" begin="zoomminus.mouseover" end="zoomminus.mouseout"/>
                        </use>
                        <path d="M-4,0h8" fill="none" stroke="white" stroke-width="1.5" pointer-events="none"/>
                </g>
                <g id="dirArrow">
                        <path fill="none" stroke="white" stroke-width="1.5" d="M0,-3.0v7 M-2.5,-0.5L0,-3.0L2.5,-0.5"/>
                </g>
               <g id="resetDef">
                       <use xlink:href="#rim2" fill="#404040">
                               <set attributeName="fill" to="#808080" begin="reset.mouseover" end="reset.mouseout"/>
                       </use>
               </g>
        </defs>

<script type="text/javascript">
var viewWidth = 313;
var viewHeight = 767;
var sectionId = 'dynsection-1';
</script>
<script xlink:href="svgpan.js"/>
<svg id="graph" class="graph">
<g id="viewport">
<title>iota::MilestoneLoadingTask</title>
<polygon fill="white" stroke="transparent" points="-4,4 -4,-763 309,-763 309,4 -4,4"/>
<!-- Node1 -->
<g id="node1" class="node">
<title>Node1</title>
<g id="a_node1"><a xlink:title=" ">
<polygon fill="#bfbfbf" stroke="black" points="77.5,-0.5 77.5,-79.5 212.5,-79.5 212.5,-0.5 77.5,-0.5"/>
<text text-anchor="middle" x="145" y="-67.5" font-family="Helvetica,sans-Serif" font-size="10.00">iota::MilestoneLoadingTask</text>
<polyline fill="none" stroke="black" points="77.5,-60.5 212.5,-60.5 "/>
<text text-anchor="start" x="85.5" y="-48.5" font-family="Helvetica,sans-Serif" font-size="10.00"># mMilestoneId</text>
<polyline fill="none" stroke="black" points="77.5,-41.5 212.5,-41.5 "/>
<text text-anchor="start" x="85.5" y="-29.5" font-family="Helvetica,sans-Serif" font-size="10.00">+ MilestoneLoadingTask()</text>
<text text-anchor="start" x="85.5" y="-18.5" font-family="Helvetica,sans-Serif" font-size="10.00">+ getResourceType()</text>
<text text-anchor="start" x="85.5" y="-7.5" font-family="Helvetica,sans-Serif" font-size="10.00">+ run()</text>
</a>
</g>
</g>
<!-- Node2 -->
<g id="node2" class="node">
<title>Node2</title>
<g id="a_node2"><a xlink:href="classtask_1_1_c_p_u_task.html" target="_top" xlink:title=" ">
<polygon fill="white" stroke="black" points="15.5,-210 15.5,-333 122.5,-333 122.5,-210 15.5,-210"/>
<text text-anchor="middle" x="69" y="-321" font-family="Helvetica,sans-Serif" font-size="10.00">task::CPUTask</text>
<polyline fill="none" stroke="black" points="15.5,-314 122.5,-314 "/>
<text text-anchor="middle" x="69" y="-302" font-family="Helvetica,sans-Serif" font-size="10.00"> </text>
<polyline fill="none" stroke="black" points="15.5,-295 122.5,-295 "/>
<text text-anchor="start" x="23.5" y="-283" font-family="Helvetica,sans-Serif" font-size="10.00">+ CPUTask()</text>
<text text-anchor="start" x="23.5" y="-272" font-family="Helvetica,sans-Serif" font-size="10.00">+ CPUTask()</text>
<text text-anchor="start" x="23.5" y="-261" font-family="Helvetica,sans-Serif" font-size="10.00">+ CPUTask()</text>
<text text-anchor="start" x="23.5" y="-250" font-family="Helvetica,sans-Serif" font-size="10.00">+ ~CPUTask()</text>
<text text-anchor="start" x="23.5" y="-239" font-family="Helvetica,sans-Serif" font-size="10.00">+ getResourceType()</text>
<text text-anchor="start" x="23.5" y="-228" font-family="Helvetica,sans-Serif" font-size="10.00">+ scheduleTask()</text>
<text text-anchor="start" x="23.5" y="-217" font-family="Helvetica,sans-Serif" font-size="10.00"># triggerSheduler()</text>
</a>
</g>
</g>
<!-- Node2&#45;&gt;Node1 -->
<g id="edge1" class="edge">
<title>Node2&#45;&gt;Node1</title>
<path fill="none" stroke="midnightblue" d="M92.26,-200.27C105.41,-160.56 121.34,-112.44 132.23,-79.56"/>
<polygon fill="none" stroke="midnightblue" points="88.89,-199.31 89.07,-209.9 95.53,-201.51 88.89,-199.31"/>
</g>
<!-- Node3 -->
<g id="node3" class="node">
<title>Node3</title>
<g id="a_node3"><a xlink:href="classtask_1_1_task.html" target="_top" xlink:title=" ">
<polygon fill="white" stroke="black" points="0,-453.5 0,-653.5 138,-653.5 138,-453.5 0,-453.5"/>
<text text-anchor="middle" x="69" y="-641.5" font-family="Helvetica,sans-Serif" font-size="10.00">task::Task</text>
<polyline fill="none" stroke="black" points="0,-634.5 138,-634.5 "/>
<text text-anchor="start" x="8" y="-622.5" font-family="Helvetica,sans-Serif" font-size="10.00"># mTaskScheduled</text>
<polyline fill="none" stroke="black" points="0,-615.5 138,-615.5 "/>
<text text-anchor="start" x="8" y="-603.5" font-family="Helvetica,sans-Serif" font-size="10.00">+ Task()</text>
<text text-anchor="start" x="8" y="-592.5" font-family="Helvetica,sans-Serif" font-size="10.00">+ Task()</text>
<text text-anchor="start" x="8" y="-581.5" font-family="Helvetica,sans-Serif" font-size="10.00">+ ~Task()</text>
<text text-anchor="start" x="8" y="-570.5" font-family="Helvetica,sans-Serif" font-size="10.00">+ isReady()</text>
<text text-anchor="start" x="8" y="-559.5" font-family="Helvetica,sans-Serif" font-size="10.00">+ isAllParentsReady()</text>
<text text-anchor="start" x="8" y="-548.5" font-family="Helvetica,sans-Serif" font-size="10.00">+ isTaskFinished()</text>
<text text-anchor="start" x="8" y="-537.5" font-family="Helvetica,sans-Serif" font-size="10.00">+ run()</text>
<text text-anchor="start" x="8" y="-526.5" font-family="Helvetica,sans-Serif" font-size="10.00">+ lock()</text>
<text text-anchor="start" x="8" y="-515.5" font-family="Helvetica,sans-Serif" font-size="10.00">+ unlock()</text>
<text text-anchor="start" x="8" y="-504.5" font-family="Helvetica,sans-Serif" font-size="10.00">+ setParentTaskPtrInArray()</text>
<text text-anchor="start" x="8" y="-493.5" font-family="Helvetica,sans-Serif" font-size="10.00">and 10 more...</text>
<text text-anchor="start" x="8" y="-482.5" font-family="Helvetica,sans-Serif" font-size="10.00"># isTaskSheduled()</text>
<text text-anchor="start" x="8" y="-471.5" font-family="Helvetica,sans-Serif" font-size="10.00"># taskScheduled()</text>
<text text-anchor="start" x="8" y="-460.5" font-family="Helvetica,sans-Serif" font-size="10.00"># getParent()</text>
</a>
</g>
</g>
<!-- Node3&#45;&gt;Node2 -->
<g id="edge2" class="edge">
<title>Node3&#45;&gt;Node2</title>
<path fill="none" stroke="midnightblue" d="M69,-442.95C69,-405.61 69,-365.23 69,-333.15"/>
<polygon fill="none" stroke="midnightblue" points="65.5,-443.39 69,-453.39 72.5,-443.39 65.5,-443.39"/>
</g>
<!-- Node4 -->
<g id="node4" class="node">
<title>Node4</title>
<g id="a_node4"><a xlink:href="classtask_1_1_command.html" target="_top" xlink:title=" ">
<polygon fill="white" stroke="black" points="25.5,-701.5 25.5,-758.5 112.5,-758.5 112.5,-701.5 25.5,-701.5"/>
<text text-anchor="middle" x="69" y="-746.5" font-family="Helvetica,sans-Serif" font-size="10.00">task::Command</text>
<polyline fill="none" stroke="black" points="25.5,-739.5 112.5,-739.5 "/>
<text text-anchor="middle" x="69" y="-727.5" font-family="Helvetica,sans-Serif" font-size="10.00"> </text>
<polyline fill="none" stroke="black" points="25.5,-720.5 112.5,-720.5 "/>
<text text-anchor="start" x="33.5" y="-708.5" font-family="Helvetica,sans-Serif" font-size="10.00">+ taskFinished()</text>
</a>
</g>
</g>
<!-- Node4&#45;&gt;Node3 -->
<g id="edge3" class="edge">
<title>Node4&#45;&gt;Node3</title>
<path fill="none" stroke="#404040" d="M69,-701.35C69,-691.2 69,-678.98 69,-665.98"/>
<polygon fill="none" stroke="#404040" points="69,-665.87 65,-659.87 69,-653.87 73,-659.87 69,-665.87"/>
<text text-anchor="middle" x="113" y="-675" font-family="Helvetica,sans-Serif" font-size="10.00"> #mFinishCommand</text>
</g>
<!-- Node5 -->
<g id="node5" class="node">
<title>Node5</title>
<g id="a_node5"><a xlink:href="classiota_1_1_message_validator.html" target="_top" xlink:title="get messages and milestones from listener and check if messages where confirmed">
<polygon fill="white" stroke="black" points="141,-127.5 141,-415.5 305,-415.5 305,-127.5 141,-127.5"/>
<text text-anchor="middle" x="223" y="-403.5" font-family="Helvetica,sans-Serif" font-size="10.00">iota::MessageValidator</text>
<polyline fill="none" stroke="black" points="141,-396.5 305,-396.5 "/>
<text text-anchor="start" x="149" y="-384.5" font-family="Helvetica,sans-Serif" font-size="10.00"># mThread</text>
<text text-anchor="start" x="149" y="-373.5" font-family="Helvetica,sans-Serif" font-size="10.00"># mCondition</text>
<text text-anchor="start" x="149" y="-362.5" font-family="Helvetica,sans-Serif" font-size="10.00"># mWorkMutex</text>
<text text-anchor="start" x="149" y="-351.5" font-family="Helvetica,sans-Serif" font-size="10.00"># mExitCalled</text>
<text text-anchor="start" x="149" y="-340.5" font-family="Helvetica,sans-Serif" font-size="10.00"># mExitMutex</text>
<text text-anchor="start" x="149" y="-329.5" font-family="Helvetica,sans-Serif" font-size="10.00"># mCountErrorsFetchingMilestone</text>
<text text-anchor="start" x="149" y="-318.5" font-family="Helvetica,sans-Serif" font-size="10.00"># mMilestones</text>
<text text-anchor="start" x="149" y="-307.5" font-family="Helvetica,sans-Serif" font-size="10.00"># mMilestonesMutex</text>
<text text-anchor="start" x="149" y="-296.5" font-family="Helvetica,sans-Serif" font-size="10.00"># mConfirmedMessages</text>
<text text-anchor="start" x="149" y="-285.5" font-family="Helvetica,sans-Serif" font-size="10.00"># mConfirmedMessagesMutex</text>
<text text-anchor="start" x="149" y="-274.5" font-family="Helvetica,sans-Serif" font-size="10.00"># mPendingMessages</text>
<text text-anchor="start" x="149" y="-263.5" font-family="Helvetica,sans-Serif" font-size="10.00"># mMessageListenerFirstRun</text>
<text text-anchor="start" x="149" y="-252.5" font-family="Helvetica,sans-Serif" font-size="10.00">Count</text>
<text text-anchor="start" x="149" y="-241.5" font-family="Helvetica,sans-Serif" font-size="10.00"># mWaitOnEmptyQueue</text>
<polyline fill="none" stroke="black" points="141,-234.5 305,-234.5 "/>
<text text-anchor="start" x="149" y="-222.5" font-family="Helvetica,sans-Serif" font-size="10.00">+ MessageValidator()</text>
<text text-anchor="start" x="149" y="-211.5" font-family="Helvetica,sans-Serif" font-size="10.00">+ ~MessageValidator()</text>
<text text-anchor="start" x="149" y="-200.5" font-family="Helvetica,sans-Serif" font-size="10.00">+ firstRunStart()</text>
<text text-anchor="start" x="149" y="-189.5" font-family="Helvetica,sans-Serif" font-size="10.00">+ firstRunFinished()</text>
<text text-anchor="start" x="149" y="-178.5" font-family="Helvetica,sans-Serif" font-size="10.00">+ getFirstRunCount()</text>
<text text-anchor="start" x="149" y="-167.5" font-family="Helvetica,sans-Serif" font-size="10.00">+ pushMessageId()</text>
<text text-anchor="start" x="149" y="-156.5" font-family="Helvetica,sans-Serif" font-size="10.00">+ run()</text>
<text text-anchor="start" x="149" y="-145.5" font-family="Helvetica,sans-Serif" font-size="10.00">+ pushMilestone()</text>
<text text-anchor="start" x="149" y="-134.5" font-family="Helvetica,sans-Serif" font-size="10.00">+ signal()</text>
</a>
</g>
</g>
<!-- Node5&#45;&gt;Node1 -->
<g id="edge4" class="edge">
<title>Node5&#45;&gt;Node1</title>
<path fill="none" stroke="#404040" d="M174.38,-127.44C170.02,-114.62 165.84,-102.31 162.06,-91.2"/>
<polygon fill="none" stroke="#404040" points="161.99,-91 156.28,-86.61 158.13,-79.64 163.85,-84.03 161.99,-91"/>
<text text-anchor="middle" x="216.5" y="-101" font-family="Helvetica,sans-Serif" font-size="10.00"> #mMessageValidator</text>
</g>
<!-- Node6 -->
<g id="node6" class="node">
<title>Node6</title>
<g id="a_node6"><a xlink:title=" ">
<polygon fill="white" stroke="black" points="180,-525 180,-582 266,-582 266,-525 180,-525"/>
<text text-anchor="middle" x="223" y="-570" font-family="Helvetica,sans-Serif" font-size="10.00">Poco::Runnable</text>
<polyline fill="none" stroke="black" points="180,-563 266,-563 "/>
<text text-anchor="middle" x="223" y="-551" font-family="Helvetica,sans-Serif" font-size="10.00"> </text>
<polyline fill="none" stroke="black" points="180,-544 266,-544 "/>
<text text-anchor="middle" x="223" y="-532" font-family="Helvetica,sans-Serif" font-size="10.00"> </text>
</a>
</g>
</g>
<!-- Node6&#45;&gt;Node5 -->
<g id="edge5" class="edge">
<title>Node6&#45;&gt;Node5</title>
<path fill="none" stroke="midnightblue" d="M223,-514.75C223,-488.72 223,-452.32 223,-415.64"/>
<polygon fill="none" stroke="midnightblue" points="219.5,-514.89 223,-524.89 226.5,-514.89 219.5,-514.89"/>
</g>
</g>
</svg>
        <g id="navigator" transform="translate(0 0)" fill="#404254">
                <rect fill="#f2f5e9" fill-opacity="0.5" stroke="#606060" stroke-width=".5" x="0" y="0" width="60" height="60"/>
                <use id="zoomplus" xlink:href="#zoomPlus" x="17" y="9" onmousedown="handleZoom(evt,'in')"/>
                <use id="zoomminus" xlink:href="#zoomMin" x="42" y="9" onmousedown="handleZoom(evt,'out')"/>
                <use id="reset" xlink:href="#resetDef" x="30" y="36" onmousedown="handleReset()"/>
                <g id="arrowUp" xlink:href="#dirArrow" transform="translate(30 24)" onmousedown="handlePan(0,-1)">
                  <use xlink:href="#rim" fill="#404040">
                        <set attributeName="fill" to="#808080" begin="arrowUp.mouseover" end="arrowUp.mouseout"/>
                  </use>
                  <path fill="none" stroke="white" stroke-width="1.5" d="M0,-3.0v7 M-2.5,-0.5L0,-3.0L2.5,-0.5"/>
                </g>
                <g id="arrowRight" xlink:href="#dirArrow" transform="rotate(90) translate(36 -43)" onmousedown="handlePan(1,0)">
                  <use xlink:href="#rim" fill="#404040">
                        <set attributeName="fill" to="#808080" begin="arrowRight.mouseover" end="arrowRight.mouseout"/>
                  </use>
                  <path fill="none" stroke="white" stroke-width="1.5" d="M0,-3.0v7 M-2.5,-0.5L0,-3.0L2.5,-0.5"/>
                </g>
                <g id="arrowDown" xlink:href="#dirArrow" transform="rotate(180) translate(-30 -48)" onmousedown="handlePan(0,1)">
                  <use xlink:href="#rim" fill="#404040">
                        <set attributeName="fill" to="#808080" begin="arrowDown.mouseover" end="arrowDown.mouseout"/>
                  </use>
                  <path fill="none" stroke="white" stroke-width="1.5" d="M0,-3.0v7 M-2.5,-0.5L0,-3.0L2.5,-0.5"/>
                </g>
                <g id="arrowLeft" xlink:href="#dirArrow" transform="rotate(270) translate(-36 17)" onmousedown="handlePan(-1,0)">
                  <use xlink:href="#rim" fill="#404040">
                        <set attributeName="fill" to="#808080" begin="arrowLeft.mouseover" end="arrowLeft.mouseout"/>
                  </use>
                  <path fill="none" stroke="white" stroke-width="1.5" d="M0,-3.0v7 M-2.5,-0.5L0,-3.0L2.5,-0.5"/>
                </g>
        </g>
        <svg viewBox="0 0 15 15" width="100%" height="30px" preserveAspectRatio="xMaxYMin meet">
         <g id="arrow_out" transform="scale(0.3 0.3)">
          <a xlink:href="classiota_1_1_milestone_loading_task__coll__graph_org.svg" target="_base">
           <rect id="button" ry="5" rx="5" y="6" x="6" height="38" width="38"
                fill="#f2f5e9" fill-opacity="0.5" stroke="#606060" stroke-width="1.0"/>
           <path id="arrow"
             d="M 11.500037,31.436501 C 11.940474,20.09759 22.043105,11.32322 32.158766,21.979434 L 37.068811,17.246167 C 37.068811,17.246167 37.088388,32 37.088388,32 L 22.160133,31.978069 C 22.160133,31.978069 26.997745,27.140456 26.997745,27.140456 C 18.528582,18.264221 13.291696,25.230495 11.500037,31.436501 z"
             style="fill:#404040;"/>
          </a>
         </g>
        </svg>
</svg>
