<?xml version="1.0" encoding="UTF-8" standalone="no"?>
<!DOCTYPE svg PUBLIC "-//W3C//DTD SVG 1.1//EN"
 "http://www.w3.org/Graphics/SVG/1.1/DTD/svg11.dtd">
<!-- Generated by graphviz version 2.50.0 (20211204.2007)
 -->
<!-- Title: controller::Group::findTransactions Pages: 1 -->
<svg width="279pt" height="116pt"
 viewBox="0.00 0.00 279.00 115.50" xmlns="http://www.w3.org/2000/svg" xmlns:xlink="http://www.w3.org/1999/xlink">
<g id="graph0" class="graph" transform="scale(1 1) rotate(0) translate(4 111.5)">
<title>controller::Group::findTransactions</title>
<polygon fill="white" stroke="transparent" points="-4,4 -4,-111.5 275,-111.5 275,4 -4,4"/>
<!-- Node1 -->
<g id="node1" class="node">
<title>Node1</title>
<g id="a_node1"><a xlink:title="Find every transaction belonging to address account in memory or block chain, expensive.">
<polygon fill="#bfbfbf" stroke="black" points="0,-33 0,-63 95,-63 95,-33 0,-33"/>
<text text-anchor="start" x="8" y="-51" font-family="Helvetica,sans-Serif" font-size="10.00">controller::Group::</text>
<text text-anchor="middle" x="47.5" y="-40" font-family="Helvetica,sans-Serif" font-size="10.00">findTransactions</text>
</a>
</g>
</g>
<!-- Node2 -->
<g id="node2" class="node">
<title>Node2</title>
<g id="a_node2"><a xlink:href="classcontroller_1_1_group.html#a2c4c4112f1d284eff307cb73d324e73f" target="_top" xlink:title=" ">
<polygon fill="white" stroke="black" points="153.5,-77 153.5,-107 248.5,-107 248.5,-77 153.5,-77"/>
<text text-anchor="start" x="161.5" y="-95" font-family="Helvetica,sans-Serif" font-size="10.00">controller::Group::</text>
<text text-anchor="middle" x="201" y="-84" font-family="Helvetica,sans-Serif" font-size="10.00">getBlock</text>
</a>
</g>
</g>
<!-- Node1&#45;&gt;Node2 -->
<g id="edge1" class="edge">
<title>Node1&#45;&gt;Node2</title>
<path fill="none" stroke="midnightblue" d="M95.19,-61.56C110.53,-66.01 127.74,-71.01 143.71,-75.65"/>
<polygon fill="midnightblue" stroke="midnightblue" points="142.88,-79.06 153.46,-78.48 144.84,-72.33 142.88,-79.06"/>
</g>
<!-- Node3 -->
<g id="node3" class="node">
<title>Node3</title>
<g id="a_node3"><a xlink:href="class_group_manager.html#a023ecd32edba5827e65a8228298fdffc" target="_top" xlink:title=" ">
<polygon fill="white" stroke="black" points="132.5,-38.5 132.5,-57.5 269.5,-57.5 269.5,-38.5 132.5,-38.5"/>
<text text-anchor="middle" x="201" y="-45.5" font-family="Helvetica,sans-Serif" font-size="10.00">GroupManager::getInstance</text>
</a>
</g>
</g>
<!-- Node1&#45;&gt;Node3 -->
<g id="edge2" class="edge">
<title>Node1&#45;&gt;Node3</title>
<path fill="none" stroke="midnightblue" d="M95.19,-48C103.81,-48 113.02,-48 122.27,-48"/>
<polygon fill="midnightblue" stroke="midnightblue" points="122.3,-51.5 132.3,-48 122.3,-44.5 122.3,-51.5"/>
</g>
<!-- Node4 -->
<g id="node4" class="node">
<title>Node4</title>
<g id="a_node4"><a xlink:href="class_logger_manager.html#a88f5ea1c5a1bf96ccb17ffabc3fd9a9b" target="_top" xlink:title=" ">
<polygon fill="white" stroke="black" points="131,-0.5 131,-19.5 271,-19.5 271,-0.5 131,-0.5"/>
<text text-anchor="middle" x="201" y="-7.5" font-family="Helvetica,sans-Serif" font-size="10.00">LoggerManager::getInstance</text>
</a>
</g>
</g>
<!-- Node1&#45;&gt;Node4 -->
<g id="edge3" class="edge">
<title>Node1&#45;&gt;Node4</title>
<path fill="none" stroke="midnightblue" d="M95.19,-36.29C113.24,-31.76 133.88,-26.59 152.04,-22.03"/>
<polygon fill="midnightblue" stroke="midnightblue" points="153,-25.4 161.85,-19.57 151.29,-18.61 153,-25.4"/>
</g>
</g>
</svg>
