<?xml version="1.0" encoding="UTF-8" standalone="no"?>
<!DOCTYPE svg PUBLIC "-//W3C//DTD SVG 1.1//EN"
 "http://www.w3.org/Graphics/SVG/1.1/DTD/svg11.dtd">
<!-- Generated by graphviz version 2.50.0 (20211204.2007)
 -->
<!-- Title: controller::Group Pages: 1 -->
<!--zoomable 878 -->
<svg id="main" version="1.1" xmlns="http://www.w3.org/2000/svg" xmlns:xlink="http://www.w3.org/1999/xlink" xml:space="preserve" onload="init(evt)">
<style type="text/css"><![CDATA[
.edge:hover path { stroke: red; }
.edge:hover polygon { stroke: red; fill: red; }
]]></style>
<script type="text/javascript"><![CDATA[
var edges = document.getElementsByTagName('g');
if (edges && edges.length) {
  for (var i=0;i<edges.length;i++) {
    if (edges[i].id.substr(0,4)=='edge') {
      edges[i].setAttribute('class','edge');
    }
  }
}
]]></script>
        <defs>
                <circle id="rim" cx="0" cy="0" r="7"/>
                <circle id="rim2" cx="0" cy="0" r="3.5"/>
                <g id="zoomPlus">
                        <use xlink:href="#rim" fill="#404040">
                                <set attributeName="fill" to="#808080" begin="zoomplus.mouseover" end="zoomplus.mouseout"/>
                        </use>
                        <path d="M-4,0h8M0,-4v8" fill="none" stroke="white" stroke-width="1.5" pointer-events="none"/>
                </g>
                <g id="zoomMin">
                        <use xlink:href="#rim" fill="#404040">
                                <set attributeName="fill" to="#808080" begin="zoomminus.mouseover" end="zoomminus.mouseout"/>
                        </use>
                        <path d="M-4,0h8" fill="none" stroke="white" stroke-width="1.5" pointer-events="none"/>
                </g>
                <g id="dirArrow">
                        <path fill="none" stroke="white" stroke-width="1.5" d="M0,-3.0v7 M-2.5,-0.5L0,-3.0L2.5,-0.5"/>
                </g>
               <g id="resetDef">
                       <use xlink:href="#rim2" fill="#404040">
                               <set attributeName="fill" to="#808080" begin="reset.mouseover" end="reset.mouseout"/>
                       </use>
               </g>
        </defs>

<script type="text/javascript">
var viewWidth = 745;
var viewHeight = 878;
var sectionId = 'dynsection-1';
</script>
<script xlink:href="svgpan.js"/>
<svg id="graph" class="graph">
<g id="viewport">
<title>controller::Group</title>
<polygon fill="white" stroke="transparent" points="-4,4 -4,-874 741,-874 741,4 -4,4"/>
<!-- Node1 -->
<g id="node1" class="node">
<title>Node1</title>
<g id="a_node1"><a xlink:title="Main entry point for adding and searching for transactions TODO: validate transaction on startup.">
<polygon fill="#bfbfbf" stroke="black" points="287.5,-0.5 287.5,-442.5 452.5,-442.5 452.5,-0.5 287.5,-0.5"/>
<text text-anchor="middle" x="370" y="-430.5" font-family="Helvetica,sans-Serif" font-size="10.00">controller::Group</text>
<polyline fill="none" stroke="black" points="287.5,-423.5 452.5,-423.5 "/>
<text text-anchor="start" x="295.5" y="-411.5" font-family="Helvetica,sans-Serif" font-size="10.00"># mGroupAlias</text>
<text text-anchor="start" x="295.5" y="-400.5" font-family="Helvetica,sans-Serif" font-size="10.00"># mFolderPath</text>
<text text-anchor="start" x="295.5" y="-389.5" font-family="Helvetica,sans-Serif" font-size="10.00"># mAddressIndex</text>
<text text-anchor="start" x="295.5" y="-378.5" font-family="Helvetica,sans-Serif" font-size="10.00"># mLastTransaction</text>
<text text-anchor="start" x="295.5" y="-367.5" font-family="Helvetica,sans-Serif" font-size="10.00"># mLastAddressIndex</text>
<text text-anchor="start" x="295.5" y="-356.5" font-family="Helvetica,sans-Serif" font-size="10.00"># mLastBlockNr</text>
<text text-anchor="start" x="295.5" y="-345.5" font-family="Helvetica,sans-Serif" font-size="10.00"># mLastTransactionId</text>
<text text-anchor="start" x="295.5" y="-334.5" font-family="Helvetica,sans-Serif" font-size="10.00"># mCachedBlocks</text>
<text text-anchor="start" x="295.5" y="-323.5" font-family="Helvetica,sans-Serif" font-size="10.00"># mCachedSignatures</text>
<text text-anchor="start" x="295.5" y="-312.5" font-family="Helvetica,sans-Serif" font-size="10.00"># mSignatureCacheMutex</text>
<text text-anchor="start" x="295.5" y="-301.5" font-family="Helvetica,sans-Serif" font-size="10.00"># mCommunityServer</text>
<text text-anchor="start" x="295.5" y="-290.5" font-family="Helvetica,sans-Serif" font-size="10.00"># mExitCalled</text>
<polyline fill="none" stroke="black" points="287.5,-283.5 452.5,-283.5 "/>
<text text-anchor="start" x="295.5" y="-271.5" font-family="Helvetica,sans-Serif" font-size="10.00">+ Group()</text>
<text text-anchor="start" x="295.5" y="-260.5" font-family="Helvetica,sans-Serif" font-size="10.00">+ ~Group()</text>
<text text-anchor="start" x="295.5" y="-249.5" font-family="Helvetica,sans-Serif" font-size="10.00">+ init()</text>
<text text-anchor="start" x="295.5" y="-238.5" font-family="Helvetica,sans-Serif" font-size="10.00">+ exit()</text>
<text text-anchor="start" x="295.5" y="-227.5" font-family="Helvetica,sans-Serif" font-size="10.00">+ addTransaction()</text>
<text text-anchor="start" x="295.5" y="-216.5" font-family="Helvetica,sans-Serif" font-size="10.00">+ findLastTransaction()</text>
<text text-anchor="start" x="295.5" y="-205.5" font-family="Helvetica,sans-Serif" font-size="10.00">+ getLastTransaction()</text>
<text text-anchor="start" x="295.5" y="-194.5" font-family="Helvetica,sans-Serif" font-size="10.00">+ findTransactionsSerialized()</text>
<text text-anchor="start" x="295.5" y="-183.5" font-family="Helvetica,sans-Serif" font-size="10.00">+ findTransactions()</text>
<text text-anchor="start" x="295.5" y="-172.5" font-family="Helvetica,sans-Serif" font-size="10.00">+ findTransactions()</text>
<text text-anchor="start" x="295.5" y="-161.5" font-family="Helvetica,sans-Serif" font-size="10.00">+ calculateCreationSum()</text>
<text text-anchor="start" x="295.5" y="-150.5" font-family="Helvetica,sans-Serif" font-size="10.00">+ getAddressIndex()</text>
<text text-anchor="start" x="295.5" y="-139.5" font-family="Helvetica,sans-Serif" font-size="10.00">+ getGroupAlias()</text>
<text text-anchor="start" x="295.5" y="-128.5" font-family="Helvetica,sans-Serif" font-size="10.00">+ isSignatureInCache()</text>
<text text-anchor="start" x="295.5" y="-117.5" font-family="Helvetica,sans-Serif" font-size="10.00">+ setListeningCommunityServer()</text>
<text text-anchor="start" x="295.5" y="-106.5" font-family="Helvetica,sans-Serif" font-size="10.00"># updateLastAddressIndex()</text>
<text text-anchor="start" x="295.5" y="-95.5" font-family="Helvetica,sans-Serif" font-size="10.00"># updateLastBlockNr()</text>
<text text-anchor="start" x="295.5" y="-84.5" font-family="Helvetica,sans-Serif" font-size="10.00"># updateLastTransactionId()</text>
<text text-anchor="start" x="295.5" y="-73.5" font-family="Helvetica,sans-Serif" font-size="10.00"># isTransactionAlreadyExist()</text>
<text text-anchor="start" x="295.5" y="-62.5" font-family="Helvetica,sans-Serif" font-size="10.00"># addSignatureToCache()</text>
<text text-anchor="start" x="295.5" y="-51.5" font-family="Helvetica,sans-Serif" font-size="10.00"># fillSignatureCacheOnStartup()</text>
<text text-anchor="start" x="295.5" y="-40.5" font-family="Helvetica,sans-Serif" font-size="10.00"># calculateFinalBalance()</text>
<text text-anchor="start" x="295.5" y="-29.5" font-family="Helvetica,sans-Serif" font-size="10.00"># getCurrentBlock()</text>
<text text-anchor="start" x="295.5" y="-18.5" font-family="Helvetica,sans-Serif" font-size="10.00"># getBlock()</text>
<text text-anchor="start" x="295.5" y="-7.5" font-family="Helvetica,sans-Serif" font-size="10.00"># getBlockContainingTransaction()</text>
</a>
</g>
</g>
<!-- Node2 -->
<g id="node2" class="node">
<title>Node2</title>
<g id="a_node2"><a xlink:href="classcontroller_1_1_controller_base.html" target="_top" xlink:title=" ">
<polygon fill="white" stroke="black" points="0,-540 0,-597 126,-597 126,-540 0,-540"/>
<text text-anchor="middle" x="63" y="-585" font-family="Helvetica,sans-Serif" font-size="10.00">controller::ControllerBase</text>
<polyline fill="none" stroke="black" points="0,-578 126,-578 "/>
<text text-anchor="start" x="8" y="-566" font-family="Helvetica,sans-Serif" font-size="10.00"># mWorkingMutex</text>
<polyline fill="none" stroke="black" points="0,-559 126,-559 "/>
<text text-anchor="middle" x="63" y="-547" font-family="Helvetica,sans-Serif" font-size="10.00"> </text>
</a>
</g>
</g>
<!-- Node2&#45;&gt;Node1 -->
<g id="edge1" class="edge">
<title>Node2&#45;&gt;Node1</title>
<path fill="none" stroke="midnightblue" d="M94.48,-532.12C139.52,-481.51 223.9,-386.68 287.47,-315.25"/>
<polygon fill="none" stroke="midnightblue" points="91.64,-530.05 87.6,-539.85 96.87,-534.71 91.64,-530.05"/>
</g>
<!-- Node3 -->
<g id="node3" class="node">
<title>Node3</title>
<g id="a_node3"><a xlink:title=" ">
<polygon fill="white" stroke="black" points="144.5,-540 144.5,-597 277.5,-597 277.5,-540 144.5,-540"/>
<text text-anchor="middle" x="211" y="-585" font-family="Helvetica,sans-Serif" font-size="10.00">model::IGradidoBlockchain</text>
<polyline fill="none" stroke="black" points="144.5,-578 277.5,-578 "/>
<text text-anchor="middle" x="211" y="-566" font-family="Helvetica,sans-Serif" font-size="10.00"> </text>
<polyline fill="none" stroke="black" points="144.5,-559 277.5,-559 "/>
<text text-anchor="middle" x="211" y="-547" font-family="Helvetica,sans-Serif" font-size="10.00"> </text>
</a>
</g>
</g>
<!-- Node3&#45;&gt;Node1 -->
<g id="edge2" class="edge">
<title>Node3&#45;&gt;Node1</title>
<path fill="none" stroke="midnightblue" d="M228.02,-530.56C242.63,-498.87 264.83,-450.7 287.37,-401.79"/>
<polygon fill="none" stroke="midnightblue" points="224.75,-529.3 223.74,-539.85 231.11,-532.23 224.75,-529.3"/>
</g>
<!-- Node4 -->
<g id="node4" class="node">
<title>Node4</title>
<g id="a_node4"><a xlink:href="class_task_observer.html" target="_top" xlink:title=" ">
<polygon fill="white" stroke="black" points="296,-490.5 296,-646.5 444,-646.5 444,-490.5 296,-490.5"/>
<text text-anchor="middle" x="370" y="-634.5" font-family="Helvetica,sans-Serif" font-size="10.00">TaskObserver</text>
<polyline fill="none" stroke="black" points="296,-627.5 444,-627.5 "/>
<text text-anchor="start" x="304" y="-615.5" font-family="Helvetica,sans-Serif" font-size="10.00"># mFastMutex</text>
<text text-anchor="start" x="304" y="-604.5" font-family="Helvetica,sans-Serif" font-size="10.00"># mBlockWriteTasks</text>
<text text-anchor="start" x="304" y="-593.5" font-family="Helvetica,sans-Serif" font-size="10.00"># mTransactionsForTasks</text>
<polyline fill="none" stroke="black" points="296,-586.5 444,-586.5 "/>
<text text-anchor="start" x="304" y="-574.5" font-family="Helvetica,sans-Serif" font-size="10.00">+ TaskObserver()</text>
<text text-anchor="start" x="304" y="-563.5" font-family="Helvetica,sans-Serif" font-size="10.00">+ ~TaskObserver()</text>
<text text-anchor="start" x="304" y="-552.5" font-family="Helvetica,sans-Serif" font-size="10.00">+ addBlockWriteTask()</text>
<text text-anchor="start" x="304" y="-541.5" font-family="Helvetica,sans-Serif" font-size="10.00">+ removeBlockWriteTask()</text>
<text text-anchor="start" x="304" y="-530.5" font-family="Helvetica,sans-Serif" font-size="10.00">+ removeTask()</text>
<text text-anchor="start" x="304" y="-519.5" font-family="Helvetica,sans-Serif" font-size="10.00">+ isTransactionPending()</text>
<text text-anchor="start" x="304" y="-508.5" font-family="Helvetica,sans-Serif" font-size="10.00">+ TaskObserverTypeToString()</text>
<text text-anchor="start" x="304" y="-497.5" font-family="Helvetica,sans-Serif" font-size="10.00">+ StringToTaskObserverType()</text>
</a>
</g>
</g>
<!-- Node4&#45;&gt;Node1 -->
<g id="edge3" class="edge">
<title>Node4&#45;&gt;Node1</title>
<path fill="none" stroke="#404040" d="M370,-490.08C370,-478.93 370,-467.02 370,-454.65"/>
<polygon fill="none" stroke="#404040" points="370,-454.65 366,-448.65 370,-442.65 374,-448.65 370,-454.65"/>
<text text-anchor="middle" x="408" y="-464" font-family="Helvetica,sans-Serif" font-size="10.00"> #mTaskObserver</text>
</g>
<!-- Node5 -->
<g id="node5" class="node">
<title>Node5</title>
<g id="a_node5"><a xlink:title=" ">
<polygon fill="white" stroke="black" points="343,-701 343,-758 449,-758 449,-701 343,-701"/>
<text text-anchor="middle" x="396" y="-746" font-family="Helvetica,sans-Serif" font-size="10.00">MultithreadContainer</text>
<polyline fill="none" stroke="black" points="343,-739 449,-739 "/>
<text text-anchor="middle" x="396" y="-727" font-family="Helvetica,sans-Serif" font-size="10.00"> </text>
<polyline fill="none" stroke="black" points="343,-720 449,-720 "/>
<text text-anchor="middle" x="396" y="-708" font-family="Helvetica,sans-Serif" font-size="10.00"> </text>
</a>
</g>
</g>
<!-- Node5&#45;&gt;Node4 -->
<g id="edge4" class="edge">
<title>Node5&#45;&gt;Node4</title>
<path fill="none" stroke="midnightblue" d="M389.82,-690.68C387.65,-677.44 385.13,-662.03 382.63,-646.74"/>
<polygon fill="none" stroke="midnightblue" points="386.4,-691.5 391.47,-700.8 393.31,-690.37 386.4,-691.5"/>
</g>
<!-- Node6 -->
<g id="node6" class="node">
<title>Node6</title>
<g id="a_node6"><a xlink:href="classiota_1_1_message_listener.html" target="_top" xlink:title="call iota regular and check if new message on the listening index are available">
<polygon fill="white" stroke="black" points="462,-501.5 462,-635.5 596,-635.5 596,-501.5 462,-501.5"/>
<text text-anchor="middle" x="529" y="-623.5" font-family="Helvetica,sans-Serif" font-size="10.00">iota::MessageListener</text>
<polyline fill="none" stroke="black" points="462,-616.5 596,-616.5 "/>
<text text-anchor="start" x="470" y="-604.5" font-family="Helvetica,sans-Serif" font-size="10.00"># mIndex</text>
<text text-anchor="start" x="470" y="-593.5" font-family="Helvetica,sans-Serif" font-size="10.00"># mErrorLog</text>
<text text-anchor="start" x="470" y="-582.5" font-family="Helvetica,sans-Serif" font-size="10.00"># mFirstRun</text>
<text text-anchor="start" x="470" y="-571.5" font-family="Helvetica,sans-Serif" font-size="10.00"># mStoredMessageIds</text>
<polyline fill="none" stroke="black" points="462,-564.5 596,-564.5 "/>
<text text-anchor="start" x="470" y="-552.5" font-family="Helvetica,sans-Serif" font-size="10.00">+ MessageListener()</text>
<text text-anchor="start" x="470" y="-541.5" font-family="Helvetica,sans-Serif" font-size="10.00">+ ~MessageListener()</text>
<text text-anchor="start" x="470" y="-530.5" font-family="Helvetica,sans-Serif" font-size="10.00">+ callFromTimer()</text>
<text text-anchor="start" x="470" y="-519.5" font-family="Helvetica,sans-Serif" font-size="10.00">+ getResourceType()</text>
<text text-anchor="start" x="470" y="-508.5" font-family="Helvetica,sans-Serif" font-size="10.00"># updateStoredMessages()</text>
</a>
</g>
</g>
<!-- Node5&#45;&gt;Node6 -->
<g id="edge6" class="edge">
<title>Node5&#45;&gt;Node6</title>
<path fill="none" stroke="midnightblue" d="M425.84,-692.83C439.99,-675.92 457.36,-655.15 473.78,-635.51"/>
<polygon fill="none" stroke="midnightblue" points="422.9,-690.89 419.17,-700.8 428.27,-695.38 422.9,-690.89"/>
</g>
<!-- Node6&#45;&gt;Node1 -->
<g id="edge5" class="edge">
<title>Node6&#45;&gt;Node1</title>
<path fill="none" stroke="#404040" d="M498.53,-501.39C486.67,-475.66 472.43,-444.75 457.81,-413.02"/>
<polygon fill="none" stroke="#404040" points="457.64,-412.67 451.5,-408.89 452.62,-401.77 458.76,-405.55 457.64,-412.67"/>
<text text-anchor="middle" x="536.5" y="-464" font-family="Helvetica,sans-Serif" font-size="10.00"> #mIotaMessageListener</text>
</g>
<!-- Node7 -->
<g id="node7" class="node">
<title>Node7</title>
<g id="a_node7"><a xlink:href="class_timer_callback.html" target="_top" xlink:title=" ">
<polygon fill="white" stroke="black" points="475.5,-695.5 475.5,-763.5 582.5,-763.5 582.5,-695.5 475.5,-695.5"/>
<text text-anchor="middle" x="529" y="-751.5" font-family="Helvetica,sans-Serif" font-size="10.00">TimerCallback</text>
<polyline fill="none" stroke="black" points="475.5,-744.5 582.5,-744.5 "/>
<text text-anchor="middle" x="529" y="-732.5" font-family="Helvetica,sans-Serif" font-size="10.00"> </text>
<polyline fill="none" stroke="black" points="475.5,-725.5 582.5,-725.5 "/>
<text text-anchor="start" x="483.5" y="-713.5" font-family="Helvetica,sans-Serif" font-size="10.00">+ callFromTimer()</text>
<text text-anchor="start" x="483.5" y="-702.5" font-family="Helvetica,sans-Serif" font-size="10.00">+ getResourceType()</text>
</a>
</g>
</g>
<!-- Node7&#45;&gt;Node6 -->
<g id="edge7" class="edge">
<title>Node7&#45;&gt;Node6</title>
<path fill="none" stroke="midnightblue" d="M529,-685C529,-669.75 529,-652.25 529,-635.57"/>
<polygon fill="none" stroke="midnightblue" points="525.5,-685.17 529,-695.17 532.5,-685.17 525.5,-685.17"/>
</g>
<!-- Node8 -->
<g id="node8" class="node">
<title>Node8</title>
<g id="a_node8"><a xlink:href="classmodel_1_1files_1_1_state.html" target="_top" xlink:title=" ">
<polygon fill="white" stroke="black" points="614,-512.5 614,-624.5 736,-624.5 736,-512.5 614,-512.5"/>
<text text-anchor="middle" x="675" y="-612.5" font-family="Helvetica,sans-Serif" font-size="10.00">model::files::State</text>
<polyline fill="none" stroke="black" points="614,-605.5 736,-605.5 "/>
<text text-anchor="start" x="622" y="-593.5" font-family="Helvetica,sans-Serif" font-size="10.00"># mLevelDB</text>
<polyline fill="none" stroke="black" points="614,-586.5 736,-586.5 "/>
<text text-anchor="start" x="622" y="-574.5" font-family="Helvetica,sans-Serif" font-size="10.00">+ State()</text>
<text text-anchor="start" x="622" y="-563.5" font-family="Helvetica,sans-Serif" font-size="10.00">+ ~State()</text>
<text text-anchor="start" x="622" y="-552.5" font-family="Helvetica,sans-Serif" font-size="10.00">+ getValueForKey()</text>
<text text-anchor="start" x="622" y="-541.5" font-family="Helvetica,sans-Serif" font-size="10.00">+ getInt32ValueForKey()</text>
<text text-anchor="start" x="622" y="-530.5" font-family="Helvetica,sans-Serif" font-size="10.00">+ addKeyValue()</text>
<text text-anchor="start" x="622" y="-519.5" font-family="Helvetica,sans-Serif" font-size="10.00">+ setKeyValue()</text>
</a>
</g>
</g>
<!-- Node8&#45;&gt;Node1 -->
<g id="edge8" class="edge">
<title>Node8&#45;&gt;Node1</title>
<path fill="none" stroke="#404040" d="M634.86,-512.47C622.15,-495.66 607.8,-477.32 594,-461 551.95,-411.3 502.66,-358.3 461.04,-314.91"/>
<polygon fill="none" stroke="#404040" points="460.87,-314.74 453.82,-313.19 452.55,-306.09 459.59,-307.64 460.87,-314.74"/>
<text text-anchor="middle" x="633.5" y="-464" font-family="Helvetica,sans-Serif" font-size="10.00"> #mGroupState</text>
</g>
<!-- Node9 -->
<g id="node9" class="node">
<title>Node9</title>
<g id="a_node9"><a xlink:href="classmodel_1_1files_1_1_file_base.html" target="_top" xlink:title=" ">
<polygon fill="white" stroke="black" points="620,-684.5 620,-774.5 730,-774.5 730,-684.5 620,-684.5"/>
<text text-anchor="middle" x="675" y="-762.5" font-family="Helvetica,sans-Serif" font-size="10.00">model::files::FileBase</text>
<polyline fill="none" stroke="black" points="620,-755.5 730,-755.5 "/>
<text text-anchor="start" x="628" y="-743.5" font-family="Helvetica,sans-Serif" font-size="10.00"># mFastMutex</text>
<text text-anchor="start" x="628" y="-732.5" font-family="Helvetica,sans-Serif" font-size="10.00"># mReferenceMutex</text>
<text text-anchor="start" x="628" y="-721.5" font-family="Helvetica,sans-Serif" font-size="10.00"># mRefCount</text>
<polyline fill="none" stroke="black" points="620,-714.5 730,-714.5 "/>
<text text-anchor="start" x="628" y="-702.5" font-family="Helvetica,sans-Serif" font-size="10.00">+ FileBase()</text>
<text text-anchor="start" x="628" y="-691.5" font-family="Helvetica,sans-Serif" font-size="10.00"># ~FileBase()</text>
</a>
</g>
</g>
<!-- Node9&#45;&gt;Node8 -->
<g id="edge9" class="edge">
<title>Node9&#45;&gt;Node8</title>
<path fill="none" stroke="midnightblue" d="M675,-673.98C675,-658.03 675,-640.59 675,-624.61"/>
<polygon fill="none" stroke="midnightblue" points="671.5,-674.21 675,-684.21 678.5,-674.21 671.5,-674.21"/>
</g>
<!-- Node10 -->
<g id="node10" class="node">
<title>Node10</title>
<g id="a_node10"><a xlink:title=" ">
<polygon fill="white" stroke="black" points="613,-812.5 613,-869.5 737,-869.5 737,-812.5 613,-812.5"/>
<text text-anchor="middle" x="675" y="-857.5" font-family="Helvetica,sans-Serif" font-size="10.00">Poco::RefCountedObject</text>
<polyline fill="none" stroke="black" points="613,-850.5 737,-850.5 "/>
<text text-anchor="middle" x="675" y="-838.5" font-family="Helvetica,sans-Serif" font-size="10.00"> </text>
<polyline fill="none" stroke="black" points="613,-831.5 737,-831.5 "/>
<text text-anchor="middle" x="675" y="-819.5" font-family="Helvetica,sans-Serif" font-size="10.00"> </text>
</a>
</g>
</g>
<!-- Node10&#45;&gt;Node9 -->
<g id="edge10" class="edge">
<title>Node10&#45;&gt;Node9</title>
<path fill="none" stroke="midnightblue" d="M675,-802.31C675,-793.43 675,-783.88 675,-774.74"/>
<polygon fill="none" stroke="midnightblue" points="671.5,-802.37 675,-812.37 678.5,-802.37 671.5,-802.37"/>
</g>
</g>
</svg>
        <g id="navigator" transform="translate(0 0)" fill="#404254">
                <rect fill="#f2f5e9" fill-opacity="0.5" stroke="#606060" stroke-width=".5" x="0" y="0" width="60" height="60"/>
                <use id="zoomplus" xlink:href="#zoomPlus" x="17" y="9" onmousedown="handleZoom(evt,'in')"/>
                <use id="zoomminus" xlink:href="#zoomMin" x="42" y="9" onmousedown="handleZoom(evt,'out')"/>
                <use id="reset" xlink:href="#resetDef" x="30" y="36" onmousedown="handleReset()"/>
                <g id="arrowUp" xlink:href="#dirArrow" transform="translate(30 24)" onmousedown="handlePan(0,-1)">
                  <use xlink:href="#rim" fill="#404040">
                        <set attributeName="fill" to="#808080" begin="arrowUp.mouseover" end="arrowUp.mouseout"/>
                  </use>
                  <path fill="none" stroke="white" stroke-width="1.5" d="M0,-3.0v7 M-2.5,-0.5L0,-3.0L2.5,-0.5"/>
                </g>
                <g id="arrowRight" xlink:href="#dirArrow" transform="rotate(90) translate(36 -43)" onmousedown="handlePan(1,0)">
                  <use xlink:href="#rim" fill="#404040">
                        <set attributeName="fill" to="#808080" begin="arrowRight.mouseover" end="arrowRight.mouseout"/>
                  </use>
                  <path fill="none" stroke="white" stroke-width="1.5" d="M0,-3.0v7 M-2.5,-0.5L0,-3.0L2.5,-0.5"/>
                </g>
                <g id="arrowDown" xlink:href="#dirArrow" transform="rotate(180) translate(-30 -48)" onmousedown="handlePan(0,1)">
                  <use xlink:href="#rim" fill="#404040">
                        <set attributeName="fill" to="#808080" begin="arrowDown.mouseover" end="arrowDown.mouseout"/>
                  </use>
                  <path fill="none" stroke="white" stroke-width="1.5" d="M0,-3.0v7 M-2.5,-0.5L0,-3.0L2.5,-0.5"/>
                </g>
                <g id="arrowLeft" xlink:href="#dirArrow" transform="rotate(270) translate(-36 17)" onmousedown="handlePan(-1,0)">
                  <use xlink:href="#rim" fill="#404040">
                        <set attributeName="fill" to="#808080" begin="arrowLeft.mouseover" end="arrowLeft.mouseout"/>
                  </use>
                  <path fill="none" stroke="white" stroke-width="1.5" d="M0,-3.0v7 M-2.5,-0.5L0,-3.0L2.5,-0.5"/>
                </g>
        </g>
        <svg viewBox="0 0 15 15" width="100%" height="30px" preserveAspectRatio="xMaxYMin meet">
         <g id="arrow_out" transform="scale(0.3 0.3)">
          <a xlink:href="classcontroller_1_1_group__coll__graph_org.svg" target="_base">
           <rect id="button" ry="5" rx="5" y="6" x="6" height="38" width="38"
                fill="#f2f5e9" fill-opacity="0.5" stroke="#606060" stroke-width="1.0"/>
           <path id="arrow"
             d="M 11.500037,31.436501 C 11.940474,20.09759 22.043105,11.32322 32.158766,21.979434 L 37.068811,17.246167 C 37.068811,17.246167 37.088388,32 37.088388,32 L 22.160133,31.978069 C 22.160133,31.978069 26.997745,27.140456 26.997745,27.140456 C 18.528582,18.264221 13.291696,25.230495 11.500037,31.436501 z"
             style="fill:#404040;"/>
          </a>
         </g>
        </svg>
</svg>
