<?xml version="1.0" encoding="UTF-8" standalone="no"?>
<!DOCTYPE svg PUBLIC "-//W3C//DTD SVG 1.1//EN"
 "http://www.w3.org/Graphics/SVG/1.1/DTD/svg11.dtd">
<!-- Generated by graphviz version 2.50.0 (20211204.2007)
 -->
<!-- Title: VirtualFile::readFromFile Pages: 1 -->
<svg width="314pt" height="104pt"
 viewBox="0.00 0.00 314.00 104.00" xmlns="http://www.w3.org/2000/svg" xmlns:xlink="http://www.w3.org/1999/xlink">
<g id="graph0" class="graph" transform="scale(1 1) rotate(0) translate(4 100)">
<title>VirtualFile::readFromFile</title>
<polygon fill="white" stroke="transparent" points="-4,4 -4,-100 310,-100 310,4 -4,4"/>
<!-- Node1 -->
<g id="node1" class="node">
<title>Node1</title>
<g id="a_node1"><a xlink:title="get memory bin in file size and fill it with file content">
<polygon fill="#bfbfbf" stroke="black" points="0,-38.5 0,-57.5 123,-57.5 123,-38.5 0,-38.5"/>
<text text-anchor="middle" x="61.5" y="-45.5" font-family="Helvetica,sans-Serif" font-size="10.00">VirtualFile::readFromFile</text>
</a>
</g>
</g>
<!-- Node2 -->
<g id="node2" class="node">
<title>Node2</title>
<g id="a_node2"><a xlink:href="class_file_lock_manager.html#a8399a835b02b2013283423050efa52ba" target="_top" xlink:title=" ">
<polygon fill="white" stroke="black" points="159,-76.5 159,-95.5 306,-95.5 306,-76.5 159,-76.5"/>
<text text-anchor="middle" x="232.5" y="-83.5" font-family="Helvetica,sans-Serif" font-size="10.00">FileLockManager::getInstance</text>
</a>
</g>
</g>
<!-- Node1&#45;&gt;Node2 -->
<g id="edge1" class="edge">
<title>Node1&#45;&gt;Node2</title>
<path fill="none" stroke="midnightblue" d="M105.15,-57.59C127.65,-62.65 155.45,-68.9 179.24,-74.25"/>
<polygon fill="midnightblue" stroke="midnightblue" points="178.64,-77.7 189.16,-76.48 180.17,-70.87 178.64,-77.7"/>
</g>
<!-- Node3 -->
<g id="node3" class="node">
<title>Node3</title>
<g id="a_node3"><a xlink:href="class_logger_manager.html#a88f5ea1c5a1bf96ccb17ffabc3fd9a9b" target="_top" xlink:title=" ">
<polygon fill="white" stroke="black" points="162.5,-38.5 162.5,-57.5 302.5,-57.5 302.5,-38.5 162.5,-38.5"/>
<text text-anchor="middle" x="232.5" y="-45.5" font-family="Helvetica,sans-Serif" font-size="10.00">LoggerManager::getInstance</text>
</a>
</g>
</g>
<!-- Node1&#45;&gt;Node3 -->
<g id="edge2" class="edge">
<title>Node1&#45;&gt;Node3</title>
<path fill="none" stroke="midnightblue" d="M123.04,-48C132.53,-48 142.45,-48 152.29,-48"/>
<polygon fill="midnightblue" stroke="midnightblue" points="152.48,-51.5 162.48,-48 152.48,-44.5 152.48,-51.5"/>
</g>
<!-- Node4 -->
<g id="node4" class="node">
<title>Node4</title>
<g id="a_node4"><a xlink:href="class_virtual_file.html#ab4fefe3e765c9cc319863a021e115fae" target="_top" xlink:title="get memory bin from memory manager by his own">
<polygon fill="white" stroke="black" points="177.5,-0.5 177.5,-19.5 287.5,-19.5 287.5,-0.5 177.5,-0.5"/>
<text text-anchor="middle" x="232.5" y="-7.5" font-family="Helvetica,sans-Serif" font-size="10.00">VirtualFile::VirtualFile</text>
</a>
</g>
</g>
<!-- Node1&#45;&gt;Node4 -->
<g id="edge3" class="edge">
<title>Node1&#45;&gt;Node4</title>
<path fill="none" stroke="midnightblue" d="M105.15,-38.41C127.65,-33.35 155.45,-27.1 179.24,-21.75"/>
<polygon fill="midnightblue" stroke="midnightblue" points="180.17,-25.13 189.16,-19.52 178.64,-18.3 180.17,-25.13"/>
</g>
</g>
</svg>
