<?xml version="1.0" encoding="UTF-8" standalone="no"?>
<!DOCTYPE svg PUBLIC "-//W3C//DTD SVG 1.1//EN"
 "http://www.w3.org/Graphics/SVG/1.1/DTD/svg11.dtd">
<!-- Generated by graphviz version 2.50.0 (20211204.2007)
 -->
<!-- Title: model::files::Block::getOpenFile Pages: 1 -->
<svg width="371pt" height="176pt"
 viewBox="0.00 0.00 371.00 176.00" xmlns="http://www.w3.org/2000/svg" xmlns:xlink="http://www.w3.org/1999/xlink">
<g id="graph0" class="graph" transform="scale(1 1) rotate(0) translate(4 172)">
<title>model::files::Block::getOpenFile</title>
<polygon fill="white" stroke="transparent" points="-4,4 -4,-172 367,-172 367,4 -4,4"/>
<!-- Node1 -->
<g id="node1" class="node">
<title>Node1</title>
<g id="a_node1"><a xlink:title="open file stream if not already open and set mCurrentFileSize via tellg, update mLastUsed">
<polygon fill="#bfbfbf" stroke="black" points="266,-66.5 266,-96.5 363,-96.5 363,-66.5 266,-66.5"/>
<text text-anchor="start" x="274" y="-84.5" font-family="Helvetica,sans-Serif" font-size="10.00">model::files::Block</text>
<text text-anchor="middle" x="314.5" y="-73.5" font-family="Helvetica,sans-Serif" font-size="10.00">::getOpenFile</text>
</a>
</g>
</g>
<!-- Node2 -->
<g id="node2" class="node">
<title>Node2</title>
<g id="a_node2"><a xlink:href="classmodel_1_1files_1_1_block.html#a62095335a15577b650ac8ecd9d438159" target="_top" xlink:title=" ">
<polygon fill="white" stroke="black" points="133,-137.5 133,-167.5 230,-167.5 230,-137.5 133,-137.5"/>
<text text-anchor="start" x="141" y="-155.5" font-family="Helvetica,sans-Serif" font-size="10.00">model::files::Block</text>
<text text-anchor="middle" x="181.5" y="-144.5" font-family="Helvetica,sans-Serif" font-size="10.00">::appendLines</text>
</a>
</g>
</g>
<!-- Node1&#45;&gt;Node2 -->
<g id="edge1" class="edge">
<title>Node1&#45;&gt;Node2</title>
<path fill="none" stroke="midnightblue" d="M278.47,-101.68C263.61,-110.12 246.04,-119.94 230,-128.5 224.46,-131.46 218.51,-134.54 212.76,-137.47"/>
<polygon fill="midnightblue" stroke="midnightblue" points="280.39,-104.61 287.34,-96.62 276.92,-98.53 280.39,-104.61"/>
</g>
<!-- Node4 -->
<g id="node4" class="node">
<title>Node4</title>
<g id="a_node4"><a xlink:href="classmodel_1_1files_1_1_block.html#adc947669499b526c4c86ed5d50600128" target="_top" xlink:title="very expensive, read in whole file and calculate hash">
<polygon fill="white" stroke="black" points="133,-88.5 133,-118.5 230,-118.5 230,-88.5 133,-88.5"/>
<text text-anchor="start" x="141" y="-106.5" font-family="Helvetica,sans-Serif" font-size="10.00">model::files::Block</text>
<text text-anchor="middle" x="181.5" y="-95.5" font-family="Helvetica,sans-Serif" font-size="10.00">::calculateHash</text>
</a>
</g>
</g>
<!-- Node1&#45;&gt;Node4 -->
<g id="edge3" class="edge">
<title>Node1&#45;&gt;Node4</title>
<path fill="none" stroke="midnightblue" d="M255.93,-91.17C247.39,-92.6 238.66,-94.07 230.35,-95.46"/>
<polygon fill="midnightblue" stroke="midnightblue" points="256.55,-94.61 265.84,-89.5 255.39,-87.71 256.55,-94.61"/>
</g>
<!-- Node5 -->
<g id="node5" class="node">
<title>Node5</title>
<g id="a_node5"><a xlink:href="classmodel_1_1files_1_1_block.html#a485cfc70b6d8f66107fb95908a266b36" target="_top" xlink:title=" ">
<polygon fill="white" stroke="black" points="0,-66.5 0,-96.5 97,-96.5 97,-66.5 0,-66.5"/>
<text text-anchor="start" x="8" y="-84.5" font-family="Helvetica,sans-Serif" font-size="10.00">model::files::Block</text>
<text text-anchor="middle" x="48.5" y="-73.5" font-family="Helvetica,sans-Serif" font-size="10.00">::validateHash</text>
</a>
</g>
</g>
<!-- Node1&#45;&gt;Node5 -->
<g id="edge6" class="edge">
<title>Node1&#45;&gt;Node5</title>
<path fill="none" stroke="midnightblue" d="M255.79,-79.16C247.15,-78.88 238.34,-78.65 230,-78.5 186.9,-77.73 176.1,-77.73 133,-78.5 121.4,-78.71 108.89,-79.08 97.18,-79.49"/>
<polygon fill="midnightblue" stroke="midnightblue" points="255.71,-82.66 265.82,-79.49 255.94,-75.66 255.71,-82.66"/>
</g>
<!-- Node6 -->
<g id="node6" class="node">
<title>Node6</title>
<g id="a_node6"><a xlink:href="classmodel_1_1files_1_1_block.html#a1b1aa10bcf24bfbecf2deba6b65e428e" target="_top" xlink:title=" ">
<polygon fill="white" stroke="black" points="133,-0.5 133,-30.5 230,-30.5 230,-0.5 133,-0.5"/>
<text text-anchor="start" x="141" y="-18.5" font-family="Helvetica,sans-Serif" font-size="10.00">model::files::Block</text>
<text text-anchor="middle" x="181.5" y="-7.5" font-family="Helvetica,sans-Serif" font-size="10.00">::readLine</text>
</a>
</g>
</g>
<!-- Node1&#45;&gt;Node6 -->
<g id="edge5" class="edge">
<title>Node1&#45;&gt;Node6</title>
<path fill="none" stroke="midnightblue" d="M274.34,-61.77C254.5,-51.77 230.78,-39.82 212.41,-30.57"/>
<polygon fill="midnightblue" stroke="midnightblue" points="272.94,-64.98 283.45,-66.36 276.09,-58.73 272.94,-64.98"/>
</g>
<!-- Node3 -->
<g id="node3" class="node">
<title>Node3</title>
<g id="a_node3"><a xlink:href="classmodel_1_1files_1_1_block.html#ac7237c328cb61dd2bb6139c2e173a9cf" target="_top" xlink:title="call appendLines">
<polygon fill="white" stroke="black" points="0,-137.5 0,-167.5 97,-167.5 97,-137.5 0,-137.5"/>
<text text-anchor="start" x="8" y="-155.5" font-family="Helvetica,sans-Serif" font-size="10.00">model::files::Block</text>
<text text-anchor="middle" x="48.5" y="-144.5" font-family="Helvetica,sans-Serif" font-size="10.00">::appendLine</text>
</a>
</g>
</g>
<!-- Node2&#45;&gt;Node3 -->
<g id="edge2" class="edge">
<title>Node2&#45;&gt;Node3</title>
<path fill="none" stroke="midnightblue" d="M122.65,-152.5C114.2,-152.5 105.57,-152.5 97.35,-152.5"/>
<polygon fill="midnightblue" stroke="midnightblue" points="122.84,-156 132.84,-152.5 122.84,-149 122.84,-156"/>
</g>
<!-- Node4&#45;&gt;Node5 -->
<g id="edge4" class="edge">
<title>Node4&#45;&gt;Node5</title>
<path fill="none" stroke="midnightblue" d="M122.93,-93.83C114.39,-92.4 105.66,-90.93 97.35,-89.54"/>
<polygon fill="midnightblue" stroke="midnightblue" points="122.39,-97.29 132.84,-95.5 123.55,-90.39 122.39,-97.29"/>
</g>
</g>
</svg>
