<?xml version="1.0" encoding="UTF-8" standalone="no"?>
<!DOCTYPE svg PUBLIC "-//W3C//DTD SVG 1.1//EN"
 "http://www.w3.org/Graphics/SVG/1.1/DTD/svg11.dtd">
<!-- Generated by graphviz version 2.50.0 (20211204.2007)
 -->
<!-- Title: model::files::BlockIndex::writeToFile Pages: 1 -->
<svg width="460pt" height="66pt"
 viewBox="0.00 0.00 460.00 66.00" xmlns="http://www.w3.org/2000/svg" xmlns:xlink="http://www.w3.org/1999/xlink">
<g id="graph0" class="graph" transform="scale(1 1) rotate(0) translate(4 62)">
<title>model::files::BlockIndex::writeToFile</title>
<polygon fill="white" stroke="transparent" points="-4,4 -4,-62 456,-62 456,4 -4,4"/>
<!-- Node1 -->
<g id="node1" class="node">
<title>Node1</title>
<g id="a_node1"><a xlink:title="replace Index File with new one, clear blocks after writing into file">
<polygon fill="#bfbfbf" stroke="black" points="0,-14 0,-44 120,-44 120,-14 0,-14"/>
<text text-anchor="start" x="8" y="-32" font-family="Helvetica,sans-Serif" font-size="10.00">model::files::BlockIndex</text>
<text text-anchor="middle" x="60" y="-21" font-family="Helvetica,sans-Serif" font-size="10.00">::writeToFile</text>
</a>
</g>
</g>
<!-- Node2 -->
<g id="node2" class="node">
<title>Node2</title>
<g id="a_node2"><a xlink:href="class_virtual_file.html#ab6f997f913811412a1c85310ff7dd792" target="_top" xlink:title="copy to buffer from src, move cursor">
<polygon fill="white" stroke="black" points="169.5,-38.5 169.5,-57.5 255.5,-57.5 255.5,-38.5 169.5,-38.5"/>
<text text-anchor="middle" x="212.5" y="-45.5" font-family="Helvetica,sans-Serif" font-size="10.00">VirtualFile::write</text>
</a>
</g>
</g>
<!-- Node1&#45;&gt;Node2 -->
<g id="edge1" class="edge">
<title>Node1&#45;&gt;Node2</title>
<path fill="none" stroke="midnightblue" d="M120.05,-36.45C133.05,-38.1 146.72,-39.82 159.42,-41.42"/>
<polygon fill="midnightblue" stroke="midnightblue" points="159,-44.9 169.36,-42.68 159.88,-37.95 159,-44.9"/>
</g>
<!-- Node3 -->
<g id="node3" class="node">
<title>Node3</title>
<g id="a_node3"><a xlink:href="class_virtual_file.html#ae43cf874b04266d94e578b500c432e34" target="_top" xlink:title="write memory bin content to file, until cursor position">
<polygon fill="white" stroke="black" points="156,-0.5 156,-19.5 269,-19.5 269,-0.5 156,-0.5"/>
<text text-anchor="middle" x="212.5" y="-7.5" font-family="Helvetica,sans-Serif" font-size="10.00">VirtualFile::writeToFile</text>
</a>
</g>
</g>
<!-- Node1&#45;&gt;Node3 -->
<g id="edge2" class="edge">
<title>Node1&#45;&gt;Node3</title>
<path fill="none" stroke="midnightblue" d="M120.05,-21.55C128.36,-20.5 136.95,-19.41 145.39,-18.35"/>
<polygon fill="midnightblue" stroke="midnightblue" points="146.09,-21.79 155.57,-17.06 145.21,-14.84 146.09,-21.79"/>
</g>
<!-- Node4 -->
<g id="node4" class="node">
<title>Node4</title>
<g id="a_node4"><a xlink:href="class_file_lock_manager.html#a8399a835b02b2013283423050efa52ba" target="_top" xlink:title=" ">
<polygon fill="white" stroke="black" points="305,-0.5 305,-19.5 452,-19.5 452,-0.5 305,-0.5"/>
<text text-anchor="middle" x="378.5" y="-7.5" font-family="Helvetica,sans-Serif" font-size="10.00">FileLockManager::getInstance</text>
</a>
</g>
</g>
<!-- Node3&#45;&gt;Node4 -->
<g id="edge3" class="edge">
<title>Node3&#45;&gt;Node4</title>
<path fill="none" stroke="midnightblue" d="M269.02,-10C277.3,-10 285.99,-10 294.69,-10"/>
<polygon fill="midnightblue" stroke="midnightblue" points="294.88,-13.5 304.88,-10 294.88,-6.5 294.88,-13.5"/>
</g>
</g>
</svg>
