<?xml version="1.0" encoding="UTF-8" standalone="no"?>
<!DOCTYPE svg PUBLIC "-//W3C//DTD SVG 1.1//EN"
 "http://www.w3.org/Graphics/SVG/1.1/DTD/svg11.dtd">
<!-- Generated by graphviz version 2.50.0 (20211204.2007)
 -->
<!-- Title: UniLib::lib::Thread Pages: 1 -->
<svg width="312pt" height="595pt"
 viewBox="0.00 0.00 312.00 595.00" xmlns="http://www.w3.org/2000/svg" xmlns:xlink="http://www.w3.org/1999/xlink">
<g id="graph0" class="graph" transform="scale(1 1) rotate(0) translate(4 591)">
<title>UniLib::lib::Thread</title>
<polygon fill="white" stroke="transparent" points="-4,4 -4,-591 308,-591 308,4 -4,4"/>
<!-- Node1 -->
<g id="node1" class="node">
<title>Node1</title>
<g id="a_node1"><a xlink:title=" ">
<polygon fill="#bfbfbf" stroke="black" points="111.5,-325.5 111.5,-492.5 209.5,-492.5 209.5,-325.5 111.5,-325.5"/>
<text text-anchor="middle" x="160.5" y="-480.5" font-family="Helvetica,sans-Serif" font-size="10.00">UniLib::lib::Thread</text>
<polyline fill="none" stroke="black" points="111.5,-473.5 209.5,-473.5 "/>
<text text-anchor="start" x="119.5" y="-461.5" font-family="Helvetica,sans-Serif" font-size="10.00"># mutex</text>
<text text-anchor="start" x="119.5" y="-450.5" font-family="Helvetica,sans-Serif" font-size="10.00"># mPocoThread</text>
<text text-anchor="start" x="119.5" y="-439.5" font-family="Helvetica,sans-Serif" font-size="10.00"># condition</text>
<text text-anchor="start" x="119.5" y="-428.5" font-family="Helvetica,sans-Serif" font-size="10.00"># exitCalled</text>
<polyline fill="none" stroke="black" points="111.5,-421.5 209.5,-421.5 "/>
<text text-anchor="start" x="119.5" y="-409.5" font-family="Helvetica,sans-Serif" font-size="10.00">+ Thread()</text>
<text text-anchor="start" x="119.5" y="-398.5" font-family="Helvetica,sans-Serif" font-size="10.00">+ ~Thread()</text>
<text text-anchor="start" x="119.5" y="-387.5" font-family="Helvetica,sans-Serif" font-size="10.00">+ threadLock()</text>
<text text-anchor="start" x="119.5" y="-376.5" font-family="Helvetica,sans-Serif" font-size="10.00">+ threadUnlock()</text>
<text text-anchor="start" x="119.5" y="-365.5" font-family="Helvetica,sans-Serif" font-size="10.00">+ condSignal()</text>
<text text-anchor="start" x="119.5" y="-354.5" font-family="Helvetica,sans-Serif" font-size="10.00">+ init()</text>
<text text-anchor="start" x="119.5" y="-343.5" font-family="Helvetica,sans-Serif" font-size="10.00">+ run()</text>
<text text-anchor="start" x="119.5" y="-332.5" font-family="Helvetica,sans-Serif" font-size="10.00"># ThreadFunction()</text>
</a>
</g>
</g>
<!-- Node3 -->
<g id="node3" class="node">
<title>Node3</title>
<g id="a_node3"><a xlink:href="class_ordering_manager.html" target="_top" xlink:title=" ">
<polygon fill="white" stroke="black" points="0,-0.5 0,-288.5 161,-288.5 161,-0.5 0,-0.5"/>
<text text-anchor="middle" x="80.5" y="-276.5" font-family="Helvetica,sans-Serif" font-size="10.00">OrderingManager</text>
<polyline fill="none" stroke="black" points="0,-269.5 161,-269.5 "/>
<text text-anchor="start" x="8" y="-257.5" font-family="Helvetica,sans-Serif" font-size="10.00"># mMessageValidator</text>
<text text-anchor="start" x="8" y="-246.5" font-family="Helvetica,sans-Serif" font-size="10.00"># mMilestoneTaskObserver</text>
<text text-anchor="start" x="8" y="-235.5" font-family="Helvetica,sans-Serif" font-size="10.00"># mMilestoneTaskObserverMutex</text>
<text text-anchor="start" x="8" y="-224.5" font-family="Helvetica,sans-Serif" font-size="10.00"># mMilestonesWithTransactions</text>
<text text-anchor="start" x="8" y="-213.5" font-family="Helvetica,sans-Serif" font-size="10.00"># mMilestonesWithTransactions</text>
<text text-anchor="start" x="8" y="-202.5" font-family="Helvetica,sans-Serif" font-size="10.00">Mutex</text>
<text text-anchor="start" x="8" y="-191.5" font-family="Helvetica,sans-Serif" font-size="10.00"># mPairedTransactions</text>
<text text-anchor="start" x="8" y="-180.5" font-family="Helvetica,sans-Serif" font-size="10.00"># mPairedTransactionMutex</text>
<text text-anchor="start" x="8" y="-169.5" font-family="Helvetica,sans-Serif" font-size="10.00"># mUnlistenedPairGroups</text>
<text text-anchor="start" x="8" y="-158.5" font-family="Helvetica,sans-Serif" font-size="10.00"># mUnlistenedPairGroupsMutex</text>
<text text-anchor="start" x="8" y="-147.5" font-family="Helvetica,sans-Serif" font-size="10.00"># mFinishMilestoneTaskMutex</text>
<polyline fill="none" stroke="black" points="0,-140.5 161,-140.5 "/>
<text text-anchor="start" x="8" y="-128.5" font-family="Helvetica,sans-Serif" font-size="10.00">+ ~OrderingManager()</text>
<text text-anchor="start" x="8" y="-117.5" font-family="Helvetica,sans-Serif" font-size="10.00">+ pushMilestoneTaskObserver()</text>
<text text-anchor="start" x="8" y="-106.5" font-family="Helvetica,sans-Serif" font-size="10.00">+ popMilestoneTaskObserver()</text>
<text text-anchor="start" x="8" y="-95.5" font-family="Helvetica,sans-Serif" font-size="10.00">+ pushTransaction()</text>
<text text-anchor="start" x="8" y="-84.5" font-family="Helvetica,sans-Serif" font-size="10.00">+ pushPairedTransaction()</text>
<text text-anchor="start" x="8" y="-73.5" font-family="Helvetica,sans-Serif" font-size="10.00">+ findPairedTransaction()</text>
<text text-anchor="start" x="8" y="-62.5" font-family="Helvetica,sans-Serif" font-size="10.00">+ checkExternGroupForPaired</text>
<text text-anchor="start" x="8" y="-51.5" font-family="Helvetica,sans-Serif" font-size="10.00">Transactions()</text>
<text text-anchor="start" x="8" y="-40.5" font-family="Helvetica,sans-Serif" font-size="10.00">+ getIotaMessageValidator()</text>
<text text-anchor="start" x="8" y="-29.5" font-family="Helvetica,sans-Serif" font-size="10.00">+ getInstance()</text>
<text text-anchor="start" x="8" y="-18.5" font-family="Helvetica,sans-Serif" font-size="10.00"># OrderingManager()</text>
<text text-anchor="start" x="8" y="-7.5" font-family="Helvetica,sans-Serif" font-size="10.00"># ThreadFunction()</text>
</a>
</g>
</g>
<!-- Node1&#45;&gt;Node3 -->
<g id="edge2" class="edge">
<title>Node1&#45;&gt;Node3</title>
<path fill="none" stroke="midnightblue" d="M132.33,-315.56C129.67,-306.83 126.93,-297.85 124.17,-288.79"/>
<polygon fill="none" stroke="midnightblue" points="129.03,-316.76 135.3,-325.3 135.73,-314.72 129.03,-316.76"/>
</g>
<!-- Node4 -->
<g id="node4" class="node">
<title>Node4</title>
<g id="a_node4"><a xlink:href="class_uni_lib_1_1controller_1_1_c_p_u_sheduler_thread.html" target="_top" xlink:title=" ">
<polygon fill="white" stroke="black" points="179,-83 179,-206 304,-206 304,-83 179,-83"/>
<text text-anchor="start" x="187" y="-194" font-family="Helvetica,sans-Serif" font-size="10.00">UniLib::controller</text>
<text text-anchor="middle" x="241.5" y="-183" font-family="Helvetica,sans-Serif" font-size="10.00">::CPUShedulerThread</text>
<polyline fill="none" stroke="black" points="179,-176 304,-176 "/>
<text text-anchor="start" x="187" y="-164" font-family="Helvetica,sans-Serif" font-size="10.00"># mName</text>
<text text-anchor="start" x="187" y="-153" font-family="Helvetica,sans-Serif" font-size="10.00"># mSpeedLog</text>
<polyline fill="none" stroke="black" points="179,-146 304,-146 "/>
<text text-anchor="start" x="187" y="-134" font-family="Helvetica,sans-Serif" font-size="10.00">+ CPUShedulerThread()</text>
<text text-anchor="start" x="187" y="-123" font-family="Helvetica,sans-Serif" font-size="10.00">+ ~CPUShedulerThread()</text>
<text text-anchor="start" x="187" y="-112" font-family="Helvetica,sans-Serif" font-size="10.00">+ ThreadFunction()</text>
<text text-anchor="start" x="187" y="-101" font-family="Helvetica,sans-Serif" font-size="10.00">+ setNewTask()</text>
<text text-anchor="start" x="187" y="-90" font-family="Helvetica,sans-Serif" font-size="10.00">+ getName()</text>
</a>
</g>
</g>
<!-- Node1&#45;&gt;Node4 -->
<g id="edge3" class="edge">
<title>Node1&#45;&gt;Node4</title>
<path fill="none" stroke="midnightblue" d="M188.99,-315.68C200.2,-279.34 212.76,-238.63 222.79,-206.13"/>
<polygon fill="none" stroke="midnightblue" points="185.62,-314.72 186.02,-325.3 192.31,-316.78 185.62,-314.72"/>
</g>
<!-- Node2 -->
<g id="node2" class="node">
<title>Node2</title>
<g id="a_node2"><a xlink:title=" ">
<polygon fill="white" stroke="black" points="117.5,-529.5 117.5,-586.5 203.5,-586.5 203.5,-529.5 117.5,-529.5"/>
<text text-anchor="middle" x="160.5" y="-574.5" font-family="Helvetica,sans-Serif" font-size="10.00">Poco::Runnable</text>
<polyline fill="none" stroke="black" points="117.5,-567.5 203.5,-567.5 "/>
<text text-anchor="middle" x="160.5" y="-555.5" font-family="Helvetica,sans-Serif" font-size="10.00"> </text>
<polyline fill="none" stroke="black" points="117.5,-548.5 203.5,-548.5 "/>
<text text-anchor="middle" x="160.5" y="-536.5" font-family="Helvetica,sans-Serif" font-size="10.00"> </text>
</a>
</g>
</g>
<!-- Node2&#45;&gt;Node1 -->
<g id="edge1" class="edge">
<title>Node2&#45;&gt;Node1</title>
<path fill="none" stroke="midnightblue" d="M160.5,-519.35C160.5,-511.08 160.5,-502.01 160.5,-492.74"/>
<polygon fill="none" stroke="midnightblue" points="157,-519.35 160.5,-529.35 164,-519.35 157,-519.35"/>
</g>
</g>
</svg>
