<?xml version="1.0" encoding="UTF-8" standalone="no"?>
<!DOCTYPE svg PUBLIC "-//W3C//DTD SVG 1.1//EN"
 "http://www.w3.org/Graphics/SVG/1.1/DTD/svg11.dtd">
<!-- Generated by graphviz version 2.50.0 (20211204.2007)
 -->
<!-- Title: controller::Block Pages: 1 -->
<svg width="260pt" height="358pt"
 viewBox="0.00 0.00 259.50 358.00" xmlns="http://www.w3.org/2000/svg" xmlns:xlink="http://www.w3.org/1999/xlink">
<g id="graph0" class="graph" transform="scale(1 1) rotate(0) translate(4 354)">
<title>controller::Block</title>
<polygon fill="white" stroke="transparent" points="-4,4 -4,-354 255.5,-354 255.5,4 -4,4"/>
<!-- Node1 -->
<g id="node1" class="node">
<title>Node1</title>
<g id="a_node1"><a xlink:title="interface for adding and getting transactions from specific block">
<polygon fill="#bfbfbf" stroke="black" points="64.5,-0.5 64.5,-244.5 195.5,-244.5 195.5,-0.5 64.5,-0.5"/>
<text text-anchor="middle" x="130" y="-232.5" font-family="Helvetica,sans-Serif" font-size="10.00">controller::Block</text>
<polyline fill="none" stroke="black" points="64.5,-225.5 195.5,-225.5 "/>
<text text-anchor="start" x="72.5" y="-213.5" font-family="Helvetica,sans-Serif" font-size="10.00"># mBlockNr</text>
<text text-anchor="start" x="72.5" y="-202.5" font-family="Helvetica,sans-Serif" font-size="10.00"># mTaskObserver</text>
<text text-anchor="start" x="72.5" y="-191.5" font-family="Helvetica,sans-Serif" font-size="10.00"># mSerializedTransactions</text>
<text text-anchor="start" x="72.5" y="-180.5" font-family="Helvetica,sans-Serif" font-size="10.00"># mBlockIndex</text>
<text text-anchor="start" x="72.5" y="-169.5" font-family="Helvetica,sans-Serif" font-size="10.00"># mBlockFile</text>
<text text-anchor="start" x="72.5" y="-158.5" font-family="Helvetica,sans-Serif" font-size="10.00"># mTransactionWriteTask</text>
<text text-anchor="start" x="72.5" y="-147.5" font-family="Helvetica,sans-Serif" font-size="10.00"># mGroupAlias</text>
<text text-anchor="start" x="72.5" y="-136.5" font-family="Helvetica,sans-Serif" font-size="10.00"># mExitCalled</text>
<polyline fill="none" stroke="black" points="64.5,-129.5 195.5,-129.5 "/>
<text text-anchor="start" x="72.5" y="-117.5" font-family="Helvetica,sans-Serif" font-size="10.00">+ Block()</text>
<text text-anchor="start" x="72.5" y="-106.5" font-family="Helvetica,sans-Serif" font-size="10.00">+ ~Block()</text>
<text text-anchor="start" x="72.5" y="-95.5" font-family="Helvetica,sans-Serif" font-size="10.00">+ exit()</text>
<text text-anchor="start" x="72.5" y="-84.5" font-family="Helvetica,sans-Serif" font-size="10.00">+ pushTransaction()</text>
<text text-anchor="start" x="72.5" y="-73.5" font-family="Helvetica,sans-Serif" font-size="10.00">+ getTransaction()</text>
<text text-anchor="start" x="72.5" y="-62.5" font-family="Helvetica,sans-Serif" font-size="10.00">+ checkTimeout()</text>
<text text-anchor="start" x="72.5" y="-51.5" font-family="Helvetica,sans-Serif" font-size="10.00">+ getBlockIndex()</text>
<text text-anchor="start" x="72.5" y="-40.5" font-family="Helvetica,sans-Serif" font-size="10.00">+ hasSpaceLeft()</text>
<text text-anchor="start" x="72.5" y="-29.5" font-family="Helvetica,sans-Serif" font-size="10.00">+ callFromTimer()</text>
<text text-anchor="start" x="72.5" y="-18.5" font-family="Helvetica,sans-Serif" font-size="10.00">+ getResourceType()</text>
<text text-anchor="start" x="72.5" y="-7.5" font-family="Helvetica,sans-Serif" font-size="10.00"># addTransaction()</text>
</a>
</g>
</g>
<!-- Node2 -->
<g id="node2" class="node">
<title>Node2</title>
<g id="a_node2"><a xlink:href="classcontroller_1_1_controller_base.html" target="_top" xlink:title=" ">
<polygon fill="white" stroke="black" points="0,-287 0,-344 126,-344 126,-287 0,-287"/>
<text text-anchor="middle" x="63" y="-332" font-family="Helvetica,sans-Serif" font-size="10.00">controller::ControllerBase</text>
<polyline fill="none" stroke="black" points="0,-325 126,-325 "/>
<text text-anchor="start" x="8" y="-313" font-family="Helvetica,sans-Serif" font-size="10.00"># mWorkingMutex</text>
<polyline fill="none" stroke="black" points="0,-306 126,-306 "/>
<text text-anchor="middle" x="63" y="-294" font-family="Helvetica,sans-Serif" font-size="10.00"> </text>
</a>
</g>
</g>
<!-- Node2&#45;&gt;Node1 -->
<g id="edge1" class="edge">
<title>Node2&#45;&gt;Node1</title>
<path fill="none" stroke="midnightblue" d="M76.13,-277.07C79.55,-267.32 83.43,-256.27 87.49,-244.67"/>
<polygon fill="none" stroke="midnightblue" points="72.75,-276.13 72.74,-286.73 79.36,-278.45 72.75,-276.13"/>
</g>
<!-- Node3 -->
<g id="node3" class="node">
<title>Node3</title>
<g id="a_node3"><a xlink:href="class_timer_callback.html" target="_top" xlink:title=" ">
<polygon fill="white" stroke="black" points="144.5,-281.5 144.5,-349.5 251.5,-349.5 251.5,-281.5 144.5,-281.5"/>
<text text-anchor="middle" x="198" y="-337.5" font-family="Helvetica,sans-Serif" font-size="10.00">TimerCallback</text>
<polyline fill="none" stroke="black" points="144.5,-330.5 251.5,-330.5 "/>
<text text-anchor="middle" x="198" y="-318.5" font-family="Helvetica,sans-Serif" font-size="10.00"> </text>
<polyline fill="none" stroke="black" points="144.5,-311.5 251.5,-311.5 "/>
<text text-anchor="start" x="152.5" y="-299.5" font-family="Helvetica,sans-Serif" font-size="10.00">+ callFromTimer()</text>
<text text-anchor="start" x="152.5" y="-288.5" font-family="Helvetica,sans-Serif" font-size="10.00">+ getResourceType()</text>
</a>
</g>
</g>
<!-- Node3&#45;&gt;Node1 -->
<g id="edge2" class="edge">
<title>Node3&#45;&gt;Node1</title>
<path fill="none" stroke="midnightblue" d="M182.8,-271.8C179.82,-263.44 176.56,-254.29 173.17,-244.77"/>
<polygon fill="none" stroke="midnightblue" points="179.5,-272.98 186.16,-281.23 186.1,-270.64 179.5,-272.98"/>
</g>
</g>
</svg>
