<?xml version="1.0" encoding="UTF-8" standalone="no"?>
<!DOCTYPE svg PUBLIC "-//W3C//DTD SVG 1.1//EN"
 "http://www.w3.org/Graphics/SVG/1.1/DTD/svg11.dtd">
<!-- Generated by graphviz version 2.50.0 (20211204.2007)
 -->
<!-- Title: GlobalStateManager Pages: 1 -->
<svg width="161pt" height="504pt"
 viewBox="0.00 0.00 160.50 504.00" xmlns="http://www.w3.org/2000/svg" xmlns:xlink="http://www.w3.org/1999/xlink">
<g id="graph0" class="graph" transform="scale(1 1) rotate(0) translate(4 500)">
<title>GlobalStateManager</title>
<polygon fill="white" stroke="transparent" points="-4,4 -4,-500 156.5,-500 156.5,4 -4,4"/>
<!-- Node1 -->
<g id="node1" class="node">
<title>Node1</title>
<g id="a_node1"><a xlink:title=": control global states which needed for the whole node server state a variables which must be saved ...">
<polygon fill="#bfbfbf" stroke="black" points="0,-0.5 0,-112.5 137,-112.5 137,-0.5 0,-0.5"/>
<text text-anchor="middle" x="68.5" y="-100.5" font-family="Helvetica,sans-Serif" font-size="10.00">GlobalStateManager</text>
<polyline fill="none" stroke="black" points="0,-93.5 137,-93.5 "/>
<text text-anchor="start" x="8" y="-81.5" font-family="Helvetica,sans-Serif" font-size="10.00"># mInitalized</text>
<text text-anchor="start" x="8" y="-70.5" font-family="Helvetica,sans-Serif" font-size="10.00"># mLastIotaMilestone</text>
<polyline fill="none" stroke="black" points="0,-63.5 137,-63.5 "/>
<text text-anchor="start" x="8" y="-51.5" font-family="Helvetica,sans-Serif" font-size="10.00">+ ~GlobalStateManager()</text>
<text text-anchor="start" x="8" y="-40.5" font-family="Helvetica,sans-Serif" font-size="10.00">+ updateLastIotaMilestone()</text>
<text text-anchor="start" x="8" y="-29.5" font-family="Helvetica,sans-Serif" font-size="10.00">+ getLastIotaMilestone()</text>
<text text-anchor="start" x="8" y="-18.5" font-family="Helvetica,sans-Serif" font-size="10.00">+ getInstance()</text>
<text text-anchor="start" x="8" y="-7.5" font-family="Helvetica,sans-Serif" font-size="10.00"># GlobalStateManager()</text>
</a>
</g>
</g>
<!-- Node2 -->
<g id="node2" class="node">
<title>Node2</title>
<g id="a_node2"><a xlink:href="classmodel_1_1files_1_1_state.html" target="_top" xlink:title=" ">
<polygon fill="white" stroke="black" points="7.5,-160.5 7.5,-272.5 129.5,-272.5 129.5,-160.5 7.5,-160.5"/>
<text text-anchor="middle" x="68.5" y="-260.5" font-family="Helvetica,sans-Serif" font-size="10.00">model::files::State</text>
<polyline fill="none" stroke="black" points="7.5,-253.5 129.5,-253.5 "/>
<text text-anchor="start" x="15.5" y="-241.5" font-family="Helvetica,sans-Serif" font-size="10.00"># mLevelDB</text>
<polyline fill="none" stroke="black" points="7.5,-234.5 129.5,-234.5 "/>
<text text-anchor="start" x="15.5" y="-222.5" font-family="Helvetica,sans-Serif" font-size="10.00">+ State()</text>
<text text-anchor="start" x="15.5" y="-211.5" font-family="Helvetica,sans-Serif" font-size="10.00">+ ~State()</text>
<text text-anchor="start" x="15.5" y="-200.5" font-family="Helvetica,sans-Serif" font-size="10.00">+ getValueForKey()</text>
<text text-anchor="start" x="15.5" y="-189.5" font-family="Helvetica,sans-Serif" font-size="10.00">+ getInt32ValueForKey()</text>
<text text-anchor="start" x="15.5" y="-178.5" font-family="Helvetica,sans-Serif" font-size="10.00">+ addKeyValue()</text>
<text text-anchor="start" x="15.5" y="-167.5" font-family="Helvetica,sans-Serif" font-size="10.00">+ setKeyValue()</text>
</a>
</g>
</g>
<!-- Node2&#45;&gt;Node1 -->
<g id="edge1" class="edge">
<title>Node2&#45;&gt;Node1</title>
<path fill="none" stroke="#404040" d="M68.5,-160.24C68.5,-148.81 68.5,-136.66 68.5,-124.85"/>
<polygon fill="none" stroke="#404040" points="68.5,-124.73 64.5,-118.73 68.5,-112.73 72.5,-118.73 68.5,-124.73"/>
<text text-anchor="middle" x="110.5" y="-134" font-family="Helvetica,sans-Serif" font-size="10.00"> #mGlobalStateFile</text>
</g>
<!-- Node3 -->
<g id="node3" class="node">
<title>Node3</title>
<g id="a_node3"><a xlink:href="classmodel_1_1files_1_1_file_base.html" target="_top" xlink:title=" ">
<polygon fill="white" stroke="black" points="13.5,-310.5 13.5,-400.5 123.5,-400.5 123.5,-310.5 13.5,-310.5"/>
<text text-anchor="middle" x="68.5" y="-388.5" font-family="Helvetica,sans-Serif" font-size="10.00">model::files::FileBase</text>
<polyline fill="none" stroke="black" points="13.5,-381.5 123.5,-381.5 "/>
<text text-anchor="start" x="21.5" y="-369.5" font-family="Helvetica,sans-Serif" font-size="10.00"># mFastMutex</text>
<text text-anchor="start" x="21.5" y="-358.5" font-family="Helvetica,sans-Serif" font-size="10.00"># mReferenceMutex</text>
<text text-anchor="start" x="21.5" y="-347.5" font-family="Helvetica,sans-Serif" font-size="10.00"># mRefCount</text>
<polyline fill="none" stroke="black" points="13.5,-340.5 123.5,-340.5 "/>
<text text-anchor="start" x="21.5" y="-328.5" font-family="Helvetica,sans-Serif" font-size="10.00">+ FileBase()</text>
<text text-anchor="start" x="21.5" y="-317.5" font-family="Helvetica,sans-Serif" font-size="10.00"># ~FileBase()</text>
</a>
</g>
</g>
<!-- Node3&#45;&gt;Node2 -->
<g id="edge2" class="edge">
<title>Node3&#45;&gt;Node2</title>
<path fill="none" stroke="midnightblue" d="M68.5,-300.29C68.5,-291.18 68.5,-281.71 68.5,-272.57"/>
<polygon fill="none" stroke="midnightblue" points="65,-300.4 68.5,-310.4 72,-300.4 65,-300.4"/>
</g>
<!-- Node4 -->
<g id="node4" class="node">
<title>Node4</title>
<g id="a_node4"><a xlink:title=" ">
<polygon fill="white" stroke="black" points="6.5,-438.5 6.5,-495.5 130.5,-495.5 130.5,-438.5 6.5,-438.5"/>
<text text-anchor="middle" x="68.5" y="-483.5" font-family="Helvetica,sans-Serif" font-size="10.00">Poco::RefCountedObject</text>
<polyline fill="none" stroke="black" points="6.5,-476.5 130.5,-476.5 "/>
<text text-anchor="middle" x="68.5" y="-464.5" font-family="Helvetica,sans-Serif" font-size="10.00"> </text>
<polyline fill="none" stroke="black" points="6.5,-457.5 130.5,-457.5 "/>
<text text-anchor="middle" x="68.5" y="-445.5" font-family="Helvetica,sans-Serif" font-size="10.00"> </text>
</a>
</g>
</g>
<!-- Node4&#45;&gt;Node3 -->
<g id="edge3" class="edge">
<title>Node4&#45;&gt;Node3</title>
<path fill="none" stroke="midnightblue" d="M68.5,-428.31C68.5,-419.43 68.5,-409.88 68.5,-400.74"/>
<polygon fill="none" stroke="midnightblue" points="65,-428.37 68.5,-438.37 72,-428.37 65,-428.37"/>
</g>
</g>
</svg>
