<?xml version="1.0" encoding="UTF-8" standalone="no"?>
<!DOCTYPE svg PUBLIC "-//W3C//DTD SVG 1.1//EN"
 "http://www.w3.org/Graphics/SVG/1.1/DTD/svg11.dtd">
<!-- Generated by graphviz version 2.50.0 (20211204.2007)
 -->
<!-- Title: iota::MessageId::toHex Pages: 1 -->
<svg width="685pt" height="214pt"
 viewBox="0.00 0.00 685.00 214.00" xmlns="http://www.w3.org/2000/svg" xmlns:xlink="http://www.w3.org/1999/xlink">
<g id="graph0" class="graph" transform="scale(1 1) rotate(0) translate(4 210)">
<title>iota::MessageId::toHex</title>
<polygon fill="white" stroke="transparent" points="-4,4 -4,-210 681,-210 681,4 -4,4"/>
<!-- Node1 -->
<g id="node1" class="node">
<title>Node1</title>
<g id="a_node1"><a xlink:title=" ">
<polygon fill="#bfbfbf" stroke="black" points="560,-99 560,-118 677,-118 677,-99 560,-99"/>
<text text-anchor="middle" x="618.5" y="-106" font-family="Helvetica,sans-Serif" font-size="10.00">iota::MessageId::toHex</text>
</a>
</g>
</g>
<!-- Node2 -->
<g id="node2" class="node">
<title>Node2</title>
<g id="a_node2"><a xlink:href="namespaceiota.html#a694d99480f403a3c9e8ce63f06bd7f3f" target="_top" xlink:title=" ">
<polygon fill="white" stroke="black" points="377.5,-178 377.5,-197 489.5,-197 489.5,-178 377.5,-178"/>
<text text-anchor="middle" x="433.5" y="-185" font-family="Helvetica,sans-Serif" font-size="10.00">iota::getMessageJson</text>
</a>
</g>
</g>
<!-- Node1&#45;&gt;Node2 -->
<g id="edge1" class="edge">
<title>Node1&#45;&gt;Node2</title>
<path fill="none" stroke="midnightblue" d="M593.84,-123.53C575.35,-134.81 548.73,-150.04 524,-160.5 507.56,-167.46 488.72,-173.42 472.58,-177.96"/>
<polygon fill="midnightblue" stroke="midnightblue" points="595.8,-126.43 602.46,-118.2 592.11,-120.48 595.8,-126.43"/>
</g>
<!-- Node4 -->
<g id="node4" class="node">
<title>Node4</title>
<g id="a_node4"><a xlink:href="class_iota_message_to_transaction_task.html#afc547eb27e6a9e33d9ec6777c764aa2e" target="_top" xlink:title="called from task scheduler, maybe from another thread">
<polygon fill="white" stroke="black" points="0,-153.5 0,-183.5 133,-183.5 133,-153.5 0,-153.5"/>
<text text-anchor="start" x="8" y="-171.5" font-family="Helvetica,sans-Serif" font-size="10.00">IotaMessageToTransaction</text>
<text text-anchor="middle" x="66.5" y="-160.5" font-family="Helvetica,sans-Serif" font-size="10.00">Task::run</text>
</a>
</g>
</g>
<!-- Node1&#45;&gt;Node4 -->
<g id="edge7" class="edge">
<title>Node1&#45;&gt;Node4</title>
<path fill="none" stroke="midnightblue" d="M565.69,-120.09C552.17,-122.83 537.58,-125.52 524,-127.5 385.62,-147.71 222.09,-159.5 133.16,-164.9"/>
<polygon fill="midnightblue" stroke="midnightblue" points="566.7,-123.46 575.78,-118.01 565.28,-116.6 566.7,-123.46"/>
</g>
<!-- Node5 -->
<g id="node5" class="node">
<title>Node5</title>
<g id="a_node5"><a xlink:href="namespaceiota.html#ade7c7d7c242afbe52d14b38a9e0dc44a" target="_top" xlink:title=" ">
<polygon fill="white" stroke="black" points="363,-99 363,-118 504,-118 504,-99 363,-99"/>
<text text-anchor="middle" x="433.5" y="-106" font-family="Helvetica,sans-Serif" font-size="10.00">iota::getMessageMilestoneId</text>
</a>
</g>
</g>
<!-- Node1&#45;&gt;Node5 -->
<g id="edge4" class="edge">
<title>Node1&#45;&gt;Node5</title>
<path fill="none" stroke="midnightblue" d="M549.7,-108.5C534.81,-108.5 519.02,-108.5 504.06,-108.5"/>
<polygon fill="midnightblue" stroke="midnightblue" points="549.85,-112 559.85,-108.5 549.85,-105 549.85,-112"/>
</g>
<!-- Node7 -->
<g id="node7" class="node">
<title>Node7</title>
<g id="a_node7"><a xlink:href="class_iota_message_to_transaction_task.html#a30201fafa56a1777ea30a95de7b7d0f2" target="_top" xlink:title=" ">
<polygon fill="white" stroke="black" points="343,-49.5 343,-79.5 524,-79.5 524,-49.5 343,-49.5"/>
<text text-anchor="start" x="351" y="-67.5" font-family="Helvetica,sans-Serif" font-size="10.00">IotaMessageToTransaction</text>
<text text-anchor="middle" x="433.5" y="-56.5" font-family="Helvetica,sans-Serif" font-size="10.00">Task::IotaMessageToTransactionTask</text>
</a>
</g>
</g>
<!-- Node1&#45;&gt;Node7 -->
<g id="edge6" class="edge">
<title>Node1&#45;&gt;Node7</title>
<path fill="none" stroke="midnightblue" d="M567.78,-96.54C546.01,-91.31 520.22,-85.11 497.16,-79.57"/>
<polygon fill="midnightblue" stroke="midnightblue" points="567.25,-100.02 577.79,-98.95 568.89,-93.21 567.25,-100.02"/>
</g>
<!-- Node8 -->
<g id="node8" class="node">
<title>Node8</title>
<g id="a_node8"><a xlink:href="classiota_1_1_message_listener.html#a926ee84ffd0a46cae70d8dc90baa8ab8" target="_top" xlink:title=" ">
<polygon fill="white" stroke="black" points="371,-0.5 371,-30.5 496,-30.5 496,-0.5 371,-0.5"/>
<text text-anchor="start" x="379" y="-18.5" font-family="Helvetica,sans-Serif" font-size="10.00">iota::MessageListener</text>
<text text-anchor="middle" x="433.5" y="-7.5" font-family="Helvetica,sans-Serif" font-size="10.00">::updateStoredMessages</text>
</a>
</g>
</g>
<!-- Node1&#45;&gt;Node8 -->
<g id="edge8" class="edge">
<title>Node1&#45;&gt;Node8</title>
<path fill="none" stroke="midnightblue" d="M599.26,-91.77C581.33,-76.16 552.58,-53.27 524,-39.5 515.3,-35.31 505.77,-31.77 496.26,-28.8"/>
<polygon fill="midnightblue" stroke="midnightblue" points="597.34,-94.75 607.14,-98.78 601.99,-89.52 597.34,-94.75"/>
</g>
<!-- Node3 -->
<g id="node3" class="node">
<title>Node3</title>
<g id="a_node3"><a xlink:href="namespaceiota.html#af852ecc37afebca4da3e8a2b369b9211" target="_top" xlink:title=" ">
<polygon fill="white" stroke="black" points="169,-175.5 169,-205.5 307,-205.5 307,-175.5 169,-175.5"/>
<text text-anchor="start" x="177" y="-193.5" font-family="Helvetica,sans-Serif" font-size="10.00">iota::getIndexiationMessage</text>
<text text-anchor="middle" x="238" y="-182.5" font-family="Helvetica,sans-Serif" font-size="10.00">DataIndex</text>
</a>
</g>
</g>
<!-- Node2&#45;&gt;Node3 -->
<g id="edge2" class="edge">
<title>Node2&#45;&gt;Node3</title>
<path fill="none" stroke="midnightblue" d="M367.08,-188.51C347.73,-188.81 326.51,-189.14 307,-189.45"/>
<polygon fill="midnightblue" stroke="midnightblue" points="367.37,-192.01 377.31,-188.36 367.26,-185.01 367.37,-192.01"/>
</g>
<!-- Node3&#45;&gt;Node4 -->
<g id="edge3" class="edge">
<title>Node3&#45;&gt;Node4</title>
<path fill="none" stroke="midnightblue" d="M158.62,-180.33C150.11,-179.22 141.52,-178.11 133.19,-177.03"/>
<polygon fill="midnightblue" stroke="midnightblue" points="158.18,-183.8 168.55,-181.62 159.08,-176.86 158.18,-183.8"/>
</g>
<!-- Node6 -->
<g id="node6" class="node">
<title>Node6</title>
<g id="a_node6"><a xlink:href="classiota_1_1_message_validator.html#ae40ebf08ab355e937f5120168c26f47b" target="_top" xlink:title=" ">
<polygon fill="white" stroke="black" points="170,-99 170,-118 306,-118 306,-99 170,-99"/>
<text text-anchor="middle" x="238" y="-106" font-family="Helvetica,sans-Serif" font-size="10.00">iota::MessageValidator::run</text>
</a>
</g>
</g>
<!-- Node5&#45;&gt;Node6 -->
<g id="edge5" class="edge">
<title>Node5&#45;&gt;Node6</title>
<path fill="none" stroke="midnightblue" d="M352.81,-108.5C337.26,-108.5 321.11,-108.5 306.03,-108.5"/>
<polygon fill="midnightblue" stroke="midnightblue" points="352.92,-112 362.92,-108.5 352.92,-105 352.92,-112"/>
</g>
<!-- Node9 -->
<g id="node9" class="node">
<title>Node9</title>
<g id="a_node9"><a xlink:href="classiota_1_1_message_listener.html#ac74a94a38ef22e72295d183ea71af35d" target="_top" xlink:title=" ">
<polygon fill="white" stroke="black" points="181.5,-0.5 181.5,-30.5 294.5,-30.5 294.5,-0.5 181.5,-0.5"/>
<text text-anchor="start" x="189.5" y="-18.5" font-family="Helvetica,sans-Serif" font-size="10.00">iota::MessageListener</text>
<text text-anchor="middle" x="238" y="-7.5" font-family="Helvetica,sans-Serif" font-size="10.00">::callFromTimer</text>
</a>
</g>
</g>
<!-- Node8&#45;&gt;Node9 -->
<g id="edge9" class="edge">
<title>Node8&#45;&gt;Node9</title>
<path fill="none" stroke="midnightblue" d="M360.54,-15.5C338.75,-15.5 315.16,-15.5 294.61,-15.5"/>
<polygon fill="midnightblue" stroke="midnightblue" points="360.74,-19 370.74,-15.5 360.74,-12 360.74,-19"/>
</g>
</g>
</svg>
