<?xml version="1.0" encoding="UTF-8" standalone="no"?>
<!DOCTYPE svg PUBLIC "-//W3C//DTD SVG 1.1//EN"
 "http://www.w3.org/Graphics/SVG/1.1/DTD/svg11.dtd">
<!-- Generated by graphviz version 2.50.0 (20211204.2007)
 -->
<!-- Title: model::files::BlockAppendLineTask Pages: 1 -->
<!--zoomable 625 -->
<svg id="main" version="1.1" xmlns="http://www.w3.org/2000/svg" xmlns:xlink="http://www.w3.org/1999/xlink" xml:space="preserve" onload="init(evt)">
<style type="text/css"><![CDATA[
.edge:hover path { stroke: red; }
.edge:hover polygon { stroke: red; fill: red; }
]]></style>
<script type="text/javascript"><![CDATA[
var edges = document.getElementsByTagName('g');
if (edges && edges.length) {
  for (var i=0;i<edges.length;i++) {
    if (edges[i].id.substr(0,4)=='edge') {
      edges[i].setAttribute('class','edge');
    }
  }
}
]]></script>
        <defs>
                <circle id="rim" cx="0" cy="0" r="7"/>
                <circle id="rim2" cx="0" cy="0" r="3.5"/>
                <g id="zoomPlus">
                        <use xlink:href="#rim" fill="#404040">
                                <set attributeName="fill" to="#808080" begin="zoomplus.mouseover" end="zoomplus.mouseout"/>
                        </use>
                        <path d="M-4,0h8M0,-4v8" fill="none" stroke="white" stroke-width="1.5" pointer-events="none"/>
                </g>
                <g id="zoomMin">
                        <use xlink:href="#rim" fill="#404040">
                                <set attributeName="fill" to="#808080" begin="zoomminus.mouseover" end="zoomminus.mouseout"/>
                        </use>
                        <path d="M-4,0h8" fill="none" stroke="white" stroke-width="1.5" pointer-events="none"/>
                </g>
                <g id="dirArrow">
                        <path fill="none" stroke="white" stroke-width="1.5" d="M0,-3.0v7 M-2.5,-0.5L0,-3.0L2.5,-0.5"/>
                </g>
               <g id="resetDef">
                       <use xlink:href="#rim2" fill="#404040">
                               <set attributeName="fill" to="#808080" begin="reset.mouseover" end="reset.mouseout"/>
                       </use>
               </g>
        </defs>

<script type="text/javascript">
var viewWidth = 165;
var viewHeight = 625;
var sectionId = 'dynsection-1';
</script>
<script xlink:href="svgpan.js"/>
<svg id="graph" class="graph">
<g id="viewport">
<title>model::files::BlockAppendLineTask</title>
<polygon fill="white" stroke="transparent" points="-4,4 -4,-621 161,-621 161,4 -4,4"/>
<!-- Node1 -->
<g id="node1" class="node">
<title>Node1</title>
<g id="a_node1"><a xlink:title=" ">
<polygon fill="#bfbfbf" stroke="black" points="4,-0.5 4,-112.5 134,-112.5 134,-0.5 4,-0.5"/>
<text text-anchor="start" x="12" y="-100.5" font-family="Helvetica,sans-Serif" font-size="10.00">model::files::BlockAppend</text>
<text text-anchor="middle" x="69" y="-89.5" font-family="Helvetica,sans-Serif" font-size="10.00">LineTask</text>
<polyline fill="none" stroke="black" points="4,-82.5 134,-82.5 "/>
<text text-anchor="start" x="12" y="-70.5" font-family="Helvetica,sans-Serif" font-size="10.00"># mTargetBlock</text>
<text text-anchor="start" x="12" y="-59.5" font-family="Helvetica,sans-Serif" font-size="10.00"># mLines</text>
<text text-anchor="start" x="12" y="-48.5" font-family="Helvetica,sans-Serif" font-size="10.00"># mCursorPositions</text>
<polyline fill="none" stroke="black" points="4,-41.5 134,-41.5 "/>
<text text-anchor="start" x="12" y="-29.5" font-family="Helvetica,sans-Serif" font-size="10.00">+ BlockAppendLineTask()</text>
<text text-anchor="start" x="12" y="-18.5" font-family="Helvetica,sans-Serif" font-size="10.00">+ getResourceType()</text>
<text text-anchor="start" x="12" y="-7.5" font-family="Helvetica,sans-Serif" font-size="10.00">+ run()</text>
</a>
</g>
</g>
<!-- Node2 -->
<g id="node2" class="node">
<title>Node2</title>
<g id="a_node2"><a xlink:href="classtask_1_1_c_p_u_task.html" target="_top" xlink:title=" ">
<polygon fill="white" stroke="black" points="15.5,-150.5 15.5,-273.5 122.5,-273.5 122.5,-150.5 15.5,-150.5"/>
<text text-anchor="middle" x="69" y="-261.5" font-family="Helvetica,sans-Serif" font-size="10.00">task::CPUTask</text>
<polyline fill="none" stroke="black" points="15.5,-254.5 122.5,-254.5 "/>
<text text-anchor="middle" x="69" y="-242.5" font-family="Helvetica,sans-Serif" font-size="10.00"> </text>
<polyline fill="none" stroke="black" points="15.5,-235.5 122.5,-235.5 "/>
<text text-anchor="start" x="23.5" y="-223.5" font-family="Helvetica,sans-Serif" font-size="10.00">+ CPUTask()</text>
<text text-anchor="start" x="23.5" y="-212.5" font-family="Helvetica,sans-Serif" font-size="10.00">+ CPUTask()</text>
<text text-anchor="start" x="23.5" y="-201.5" font-family="Helvetica,sans-Serif" font-size="10.00">+ CPUTask()</text>
<text text-anchor="start" x="23.5" y="-190.5" font-family="Helvetica,sans-Serif" font-size="10.00">+ ~CPUTask()</text>
<text text-anchor="start" x="23.5" y="-179.5" font-family="Helvetica,sans-Serif" font-size="10.00">+ getResourceType()</text>
<text text-anchor="start" x="23.5" y="-168.5" font-family="Helvetica,sans-Serif" font-size="10.00">+ scheduleTask()</text>
<text text-anchor="start" x="23.5" y="-157.5" font-family="Helvetica,sans-Serif" font-size="10.00"># triggerSheduler()</text>
</a>
</g>
</g>
<!-- Node2&#45;&gt;Node1 -->
<g id="edge1" class="edge">
<title>Node2&#45;&gt;Node1</title>
<path fill="none" stroke="#8b1a1a" d="M69,-140.06C69,-130.89 69,-121.61 69,-112.74"/>
<polygon fill="none" stroke="#8b1a1a" points="65.5,-140.33 69,-150.33 72.5,-140.33 65.5,-140.33"/>
</g>
<!-- Node3 -->
<g id="node3" class="node">
<title>Node3</title>
<g id="a_node3"><a xlink:href="classtask_1_1_task.html" target="_top" xlink:title=" ">
<polygon fill="white" stroke="black" points="0,-311.5 0,-511.5 138,-511.5 138,-311.5 0,-311.5"/>
<text text-anchor="middle" x="69" y="-499.5" font-family="Helvetica,sans-Serif" font-size="10.00">task::Task</text>
<polyline fill="none" stroke="black" points="0,-492.5 138,-492.5 "/>
<text text-anchor="start" x="8" y="-480.5" font-family="Helvetica,sans-Serif" font-size="10.00"># mTaskScheduled</text>
<polyline fill="none" stroke="black" points="0,-473.5 138,-473.5 "/>
<text text-anchor="start" x="8" y="-461.5" font-family="Helvetica,sans-Serif" font-size="10.00">+ Task()</text>
<text text-anchor="start" x="8" y="-450.5" font-family="Helvetica,sans-Serif" font-size="10.00">+ Task()</text>
<text text-anchor="start" x="8" y="-439.5" font-family="Helvetica,sans-Serif" font-size="10.00">+ ~Task()</text>
<text text-anchor="start" x="8" y="-428.5" font-family="Helvetica,sans-Serif" font-size="10.00">+ isReady()</text>
<text text-anchor="start" x="8" y="-417.5" font-family="Helvetica,sans-Serif" font-size="10.00">+ isAllParentsReady()</text>
<text text-anchor="start" x="8" y="-406.5" font-family="Helvetica,sans-Serif" font-size="10.00">+ isTaskFinished()</text>
<text text-anchor="start" x="8" y="-395.5" font-family="Helvetica,sans-Serif" font-size="10.00">+ run()</text>
<text text-anchor="start" x="8" y="-384.5" font-family="Helvetica,sans-Serif" font-size="10.00">+ lock()</text>
<text text-anchor="start" x="8" y="-373.5" font-family="Helvetica,sans-Serif" font-size="10.00">+ unlock()</text>
<text text-anchor="start" x="8" y="-362.5" font-family="Helvetica,sans-Serif" font-size="10.00">+ setParentTaskPtrInArray()</text>
<text text-anchor="start" x="8" y="-351.5" font-family="Helvetica,sans-Serif" font-size="10.00">and 10 more...</text>
<text text-anchor="start" x="8" y="-340.5" font-family="Helvetica,sans-Serif" font-size="10.00"># isTaskSheduled()</text>
<text text-anchor="start" x="8" y="-329.5" font-family="Helvetica,sans-Serif" font-size="10.00"># taskScheduled()</text>
<text text-anchor="start" x="8" y="-318.5" font-family="Helvetica,sans-Serif" font-size="10.00"># getParent()</text>
</a>
</g>
</g>
<!-- Node3&#45;&gt;Node2 -->
<g id="edge2" class="edge">
<title>Node3&#45;&gt;Node2</title>
<path fill="none" stroke="midnightblue" d="M69,-301.2C69,-291.78 69,-282.48 69,-273.67"/>
<polygon fill="none" stroke="midnightblue" points="65.5,-301.46 69,-311.46 72.5,-301.46 65.5,-301.46"/>
</g>
<!-- Node4 -->
<g id="node4" class="node">
<title>Node4</title>
<g id="a_node4"><a xlink:href="classtask_1_1_command.html" target="_top" xlink:title=" ">
<polygon fill="white" stroke="black" points="25.5,-559.5 25.5,-616.5 112.5,-616.5 112.5,-559.5 25.5,-559.5"/>
<text text-anchor="middle" x="69" y="-604.5" font-family="Helvetica,sans-Serif" font-size="10.00">task::Command</text>
<polyline fill="none" stroke="black" points="25.5,-597.5 112.5,-597.5 "/>
<text text-anchor="middle" x="69" y="-585.5" font-family="Helvetica,sans-Serif" font-size="10.00"> </text>
<polyline fill="none" stroke="black" points="25.5,-578.5 112.5,-578.5 "/>
<text text-anchor="start" x="33.5" y="-566.5" font-family="Helvetica,sans-Serif" font-size="10.00">+ taskFinished()</text>
</a>
</g>
</g>
<!-- Node4&#45;&gt;Node3 -->
<g id="edge3" class="edge">
<title>Node4&#45;&gt;Node3</title>
<path fill="none" stroke="#404040" d="M69,-559.35C69,-549.2 69,-536.98 69,-523.98"/>
<polygon fill="none" stroke="#404040" points="69,-523.87 65,-517.87 69,-511.87 73,-517.87 69,-523.87"/>
<text text-anchor="middle" x="113" y="-533" font-family="Helvetica,sans-Serif" font-size="10.00"> #mFinishCommand</text>
</g>
</g>
</svg>
        <g id="navigator" transform="translate(0 0)" fill="#404254">
                <rect fill="#f2f5e9" fill-opacity="0.5" stroke="#606060" stroke-width=".5" x="0" y="0" width="60" height="60"/>
                <use id="zoomplus" xlink:href="#zoomPlus" x="17" y="9" onmousedown="handleZoom(evt,'in')"/>
                <use id="zoomminus" xlink:href="#zoomMin" x="42" y="9" onmousedown="handleZoom(evt,'out')"/>
                <use id="reset" xlink:href="#resetDef" x="30" y="36" onmousedown="handleReset()"/>
                <g id="arrowUp" xlink:href="#dirArrow" transform="translate(30 24)" onmousedown="handlePan(0,-1)">
                  <use xlink:href="#rim" fill="#404040">
                        <set attributeName="fill" to="#808080" begin="arrowUp.mouseover" end="arrowUp.mouseout"/>
                  </use>
                  <path fill="none" stroke="white" stroke-width="1.5" d="M0,-3.0v7 M-2.5,-0.5L0,-3.0L2.5,-0.5"/>
                </g>
                <g id="arrowRight" xlink:href="#dirArrow" transform="rotate(90) translate(36 -43)" onmousedown="handlePan(1,0)">
                  <use xlink:href="#rim" fill="#404040">
                        <set attributeName="fill" to="#808080" begin="arrowRight.mouseover" end="arrowRight.mouseout"/>
                  </use>
                  <path fill="none" stroke="white" stroke-width="1.5" d="M0,-3.0v7 M-2.5,-0.5L0,-3.0L2.5,-0.5"/>
                </g>
                <g id="arrowDown" xlink:href="#dirArrow" transform="rotate(180) translate(-30 -48)" onmousedown="handlePan(0,1)">
                  <use xlink:href="#rim" fill="#404040">
                        <set attributeName="fill" to="#808080" begin="arrowDown.mouseover" end="arrowDown.mouseout"/>
                  </use>
                  <path fill="none" stroke="white" stroke-width="1.5" d="M0,-3.0v7 M-2.5,-0.5L0,-3.0L2.5,-0.5"/>
                </g>
                <g id="arrowLeft" xlink:href="#dirArrow" transform="rotate(270) translate(-36 17)" onmousedown="handlePan(-1,0)">
                  <use xlink:href="#rim" fill="#404040">
                        <set attributeName="fill" to="#808080" begin="arrowLeft.mouseover" end="arrowLeft.mouseout"/>
                  </use>
                  <path fill="none" stroke="white" stroke-width="1.5" d="M0,-3.0v7 M-2.5,-0.5L0,-3.0L2.5,-0.5"/>
                </g>
        </g>
        <svg viewBox="0 0 15 15" width="100%" height="30px" preserveAspectRatio="xMaxYMin meet">
         <g id="arrow_out" transform="scale(0.3 0.3)">
          <a xlink:href="classmodel_1_1files_1_1_block_append_line_task__coll__graph_org.svg" target="_base">
           <rect id="button" ry="5" rx="5" y="6" x="6" height="38" width="38"
                fill="#f2f5e9" fill-opacity="0.5" stroke="#606060" stroke-width="1.0"/>
           <path id="arrow"
             d="M 11.500037,31.436501 C 11.940474,20.09759 22.043105,11.32322 32.158766,21.979434 L 37.068811,17.246167 C 37.068811,17.246167 37.088388,32 37.088388,32 L 22.160133,31.978069 C 22.160133,31.978069 26.997745,27.140456 26.997745,27.140456 C 18.528582,18.264221 13.291696,25.230495 11.500037,31.436501 z"
             style="fill:#404040;"/>
          </a>
         </g>
        </svg>
</svg>
