<?xml version="1.0" encoding="UTF-8" standalone="no"?>
<!DOCTYPE svg PUBLIC "-//W3C//DTD SVG 1.1//EN"
 "http://www.w3.org/Graphics/SVG/1.1/DTD/svg11.dtd">
<!-- Generated by graphviz version 2.50.0 (20211204.2007)
 -->
<!-- Title: IotaMessageToTransactionTask::run Pages: 1 -->
<!--zoomable 417 -->
<svg id="main" version="1.1" xmlns="http://www.w3.org/2000/svg" xmlns:xlink="http://www.w3.org/1999/xlink" xml:space="preserve" onload="init(evt)">
<style type="text/css"><![CDATA[
.edge:hover path { stroke: red; }
.edge:hover polygon { stroke: red; fill: red; }
]]></style>
<script type="text/javascript"><![CDATA[
var edges = document.getElementsByTagName('g');
if (edges && edges.length) {
  for (var i=0;i<edges.length;i++) {
    if (edges[i].id.substr(0,4)=='edge') {
      edges[i].setAttribute('class','edge');
    }
  }
}
]]></script>
        <defs>
                <circle id="rim" cx="0" cy="0" r="7"/>
                <circle id="rim2" cx="0" cy="0" r="3.5"/>
                <g id="zoomPlus">
                        <use xlink:href="#rim" fill="#404040">
                                <set attributeName="fill" to="#808080" begin="zoomplus.mouseover" end="zoomplus.mouseout"/>
                        </use>
                        <path d="M-4,0h8M0,-4v8" fill="none" stroke="white" stroke-width="1.5" pointer-events="none"/>
                </g>
                <g id="zoomMin">
                        <use xlink:href="#rim" fill="#404040">
                                <set attributeName="fill" to="#808080" begin="zoomminus.mouseover" end="zoomminus.mouseout"/>
                        </use>
                        <path d="M-4,0h8" fill="none" stroke="white" stroke-width="1.5" pointer-events="none"/>
                </g>
                <g id="dirArrow">
                        <path fill="none" stroke="white" stroke-width="1.5" d="M0,-3.0v7 M-2.5,-0.5L0,-3.0L2.5,-0.5"/>
                </g>
               <g id="resetDef">
                       <use xlink:href="#rim2" fill="#404040">
                               <set attributeName="fill" to="#808080" begin="reset.mouseover" end="reset.mouseout"/>
                       </use>
               </g>
        </defs>

<script type="text/javascript">
var viewWidth = 646;
var viewHeight = 417;
var sectionId = 'dynsection-5';
</script>
<script xlink:href="svgpan.js"/>
<svg id="graph" class="graph">
<g id="viewport">
<title>IotaMessageToTransactionTask::run</title>
<polygon fill="white" stroke="transparent" points="-4,4 -4,-412.5 642,-412.5 642,4 -4,4"/>
<!-- Node1 -->
<g id="node1" class="node">
<title>Node1</title>
<g id="a_node1"><a xlink:title="called from task scheduler, maybe from another thread">
<polygon fill="#bfbfbf" stroke="black" points="0,-178 0,-208 133,-208 133,-178 0,-178"/>
<text text-anchor="start" x="8" y="-196" font-family="Helvetica,sans-Serif" font-size="10.00">IotaMessageToTransaction</text>
<text text-anchor="middle" x="66.5" y="-185" font-family="Helvetica,sans-Serif" font-size="10.00">Task::run</text>
</a>
</g>
</g>
<!-- Node2 -->
<g id="node2" class="node">
<title>Node2</title>
<g id="a_node2"><a xlink:href="class_ordering_manager.html#adbaf6857a751631c2a6ac975fec3ab9d" target="_top" xlink:title=" ">
<polygon fill="white" stroke="black" points="177,-378 177,-408 329,-408 329,-378 177,-378"/>
<text text-anchor="start" x="185" y="-396" font-family="Helvetica,sans-Serif" font-size="10.00">OrderingManager::checkExtern</text>
<text text-anchor="middle" x="253" y="-385" font-family="Helvetica,sans-Serif" font-size="10.00">GroupForPairedTransactions</text>
</a>
</g>
</g>
<!-- Node1&#45;&gt;Node2 -->
<g id="edge1" class="edge">
<title>Node1&#45;&gt;Node2</title>
<path fill="none" stroke="midnightblue" d="M72.51,-208.06C84.17,-240.89 116.23,-319.47 169,-363 173.81,-366.97 179.19,-370.43 184.83,-373.45"/>
<polygon fill="midnightblue" stroke="midnightblue" points="183.35,-376.62 193.87,-377.84 186.41,-370.32 183.35,-376.62"/>
</g>
<!-- Node3 -->
<g id="node3" class="node">
<title>Node3</title>
<g id="a_node3"><a xlink:href="_bin_text_converter_8cpp.html#abc148f267e9f9ce50b2bd6d5569db08a" target="_top" xlink:title=" ">
<polygon fill="white" stroke="black" points="384.5,-310.5 384.5,-329.5 473.5,-329.5 473.5,-310.5 384.5,-310.5"/>
<text text-anchor="middle" x="429" y="-317.5" font-family="Helvetica,sans-Serif" font-size="10.00">convertHexToBin</text>
</a>
</g>
</g>
<!-- Node1&#45;&gt;Node3 -->
<g id="edge2" class="edge">
<title>Node1&#45;&gt;Node3</title>
<path fill="none" stroke="midnightblue" d="M73.26,-208.21C85.54,-238.14 117.45,-304.03 169,-330 240.36,-365.94 337.32,-347.22 390.05,-332.37"/>
<polygon fill="midnightblue" stroke="midnightblue" points="391.05,-335.72 399.67,-329.56 389.09,-329 391.05,-335.72"/>
</g>
<!-- Node4 -->
<g id="node4" class="node">
<title>Node4</title>
<g id="a_node4"><a xlink:href="class_iota_message_to_transaction_task.html#a091d0ae9c0d11d88c36dd6fd77260b5a" target="_top" xlink:title=" ">
<polygon fill="white" stroke="black" points="183.5,-290 183.5,-320 322.5,-320 322.5,-290 183.5,-290"/>
<text text-anchor="start" x="191.5" y="-308" font-family="Helvetica,sans-Serif" font-size="10.00">IotaMessageToTransaction</text>
<text text-anchor="middle" x="253" y="-297" font-family="Helvetica,sans-Serif" font-size="10.00">Task::getGradidoGroupAlias</text>
</a>
</g>
</g>
<!-- Node1&#45;&gt;Node4 -->
<g id="edge3" class="edge">
<title>Node1&#45;&gt;Node4</title>
<path fill="none" stroke="midnightblue" d="M80.78,-208C98.88,-227.54 133.14,-261.51 169,-281 172.29,-282.79 175.73,-284.46 179.25,-286.01"/>
<polygon fill="midnightblue" stroke="midnightblue" points="178.17,-289.35 188.75,-289.86 180.8,-282.86 178.17,-289.35"/>
</g>
<!-- Node5 -->
<g id="node5" class="node">
<title>Node5</title>
<g id="a_node5"><a xlink:href="namespaceiota.html#af852ecc37afebca4da3e8a2b369b9211" target="_top" xlink:title=" ">
<polygon fill="white" stroke="black" points="184,-241 184,-271 322,-271 322,-241 184,-241"/>
<text text-anchor="start" x="192" y="-259" font-family="Helvetica,sans-Serif" font-size="10.00">iota::getIndexiationMessage</text>
<text text-anchor="middle" x="253" y="-248" font-family="Helvetica,sans-Serif" font-size="10.00">DataIndex</text>
</a>
</g>
</g>
<!-- Node1&#45;&gt;Node5 -->
<g id="edge4" class="edge">
<title>Node1&#45;&gt;Node5</title>
<path fill="none" stroke="midnightblue" d="M111.69,-208.09C137.73,-216.98 170.85,-228.29 198.37,-237.69"/>
<polygon fill="midnightblue" stroke="midnightblue" points="197.25,-241 207.85,-240.92 199.52,-234.38 197.25,-241"/>
</g>
<!-- Node7 -->
<g id="node7" class="node">
<title>Node7</title>
<g id="a_node7"><a xlink:href="classiota_1_1_message_id.html#a3578b169953e1ba9359f017601c8516f" target="_top" xlink:title=" ">
<polygon fill="white" stroke="black" points="521,-221.5 521,-240.5 638,-240.5 638,-221.5 521,-221.5"/>
<text text-anchor="middle" x="579.5" y="-228.5" font-family="Helvetica,sans-Serif" font-size="10.00">iota::MessageId::toHex</text>
</a>
</g>
</g>
<!-- Node1&#45;&gt;Node7 -->
<g id="edge13" class="edge">
<title>Node1&#45;&gt;Node7</title>
<path fill="none" stroke="midnightblue" d="M133.26,-197.89C230.63,-205.13 412.22,-218.63 510.73,-225.96"/>
<polygon fill="midnightblue" stroke="midnightblue" points="510.64,-229.46 520.87,-226.71 511.16,-222.48 510.64,-229.46"/>
</g>
<!-- Node8 -->
<g id="node8" class="node">
<title>Node8</title>
<g id="a_node8"><a xlink:href="class_group_manager.html#a023ecd32edba5827e65a8228298fdffc" target="_top" xlink:title=" ">
<polygon fill="white" stroke="black" points="184.5,-164.5 184.5,-183.5 321.5,-183.5 321.5,-164.5 184.5,-164.5"/>
<text text-anchor="middle" x="253" y="-171.5" font-family="Helvetica,sans-Serif" font-size="10.00">GroupManager::getInstance</text>
</a>
</g>
</g>
<!-- Node1&#45;&gt;Node8 -->
<g id="edge8" class="edge">
<title>Node1&#45;&gt;Node8</title>
<path fill="none" stroke="midnightblue" d="M133.07,-186.25C146.36,-184.88 160.45,-183.43 174.12,-182.02"/>
<polygon fill="midnightblue" stroke="midnightblue" points="174.87,-185.46 184.46,-180.96 174.16,-178.5 174.87,-185.46"/>
</g>
<!-- Node9 -->
<g id="node9" class="node">
<title>Node9</title>
<g id="a_node9"><a xlink:href="class_logger_manager.html#a88f5ea1c5a1bf96ccb17ffabc3fd9a9b" target="_top" xlink:title=" ">
<polygon fill="white" stroke="black" points="183,-126.5 183,-145.5 323,-145.5 323,-126.5 183,-126.5"/>
<text text-anchor="middle" x="253" y="-133.5" font-family="Helvetica,sans-Serif" font-size="10.00">LoggerManager::getInstance</text>
</a>
</g>
</g>
<!-- Node1&#45;&gt;Node9 -->
<g id="edge9" class="edge">
<title>Node1&#45;&gt;Node9</title>
<path fill="none" stroke="midnightblue" d="M104.22,-177.9C123.33,-170.39 147.19,-161.55 169,-155 177.44,-152.47 186.44,-150.09 195.29,-147.92"/>
<polygon fill="midnightblue" stroke="midnightblue" points="196.26,-151.29 205.18,-145.57 194.64,-144.48 196.26,-151.29"/>
</g>
<!-- Node10 -->
<g id="node10" class="node">
<title>Node10</title>
<g id="a_node10"><a xlink:href="class_ordering_manager.html#a5a1b385caf1b32d3e9a6e02b91ff8442" target="_top" xlink:title=" ">
<polygon fill="white" stroke="black" points="179.5,-88.5 179.5,-107.5 326.5,-107.5 326.5,-88.5 179.5,-88.5"/>
<text text-anchor="middle" x="253" y="-95.5" font-family="Helvetica,sans-Serif" font-size="10.00">OrderingManager::getInstance</text>
</a>
</g>
</g>
<!-- Node1&#45;&gt;Node10 -->
<g id="edge10" class="edge">
<title>Node1&#45;&gt;Node10</title>
<path fill="none" stroke="midnightblue" d="M83.34,-177.74C102.22,-160.42 135.44,-132.55 169,-117 174.33,-114.53 180,-112.37 185.78,-110.48"/>
<polygon fill="midnightblue" stroke="midnightblue" points="186.99,-113.77 195.57,-107.56 184.99,-107.07 186.99,-113.77"/>
</g>
<!-- Node11 -->
<g id="node11" class="node">
<title>Node11</title>
<g id="a_node11"><a xlink:href="class_ordering_manager.html#af6fb344dc894a0ab300215d0abc1f346" target="_top" xlink:title=" ">
<polygon fill="white" stroke="black" points="180,-39 180,-69 326,-69 326,-39 180,-39"/>
<text text-anchor="start" x="188" y="-57" font-family="Helvetica,sans-Serif" font-size="10.00">OrderingManager::pushPaired</text>
<text text-anchor="middle" x="253" y="-46" font-family="Helvetica,sans-Serif" font-size="10.00">Transaction</text>
</a>
</g>
</g>
<!-- Node1&#45;&gt;Node11 -->
<g id="edge11" class="edge">
<title>Node1&#45;&gt;Node11</title>
<path fill="none" stroke="midnightblue" d="M77.05,-177.64C93.07,-153.16 127.67,-105.37 169,-79 172.17,-76.98 175.51,-75.11 178.95,-73.39"/>
<polygon fill="midnightblue" stroke="midnightblue" points="180.62,-76.48 188.29,-69.17 177.73,-70.1 180.62,-76.48"/>
</g>
<!-- Node12 -->
<g id="node12" class="node">
<title>Node12</title>
<g id="a_node12"><a xlink:href="class_ordering_manager.html#aa0bfc7d3c9c65f198bf11e32e2c87fc5" target="_top" xlink:title=" ">
<polygon fill="white" stroke="black" points="169,-0.5 169,-19.5 337,-19.5 337,-0.5 169,-0.5"/>
<text text-anchor="middle" x="253" y="-7.5" font-family="Helvetica,sans-Serif" font-size="10.00">OrderingManager::pushTransaction</text>
</a>
</g>
</g>
<!-- Node1&#45;&gt;Node12 -->
<g id="edge12" class="edge">
<title>Node1&#45;&gt;Node12</title>
<path fill="none" stroke="midnightblue" d="M72.29,-177.99C83.53,-145.36 114.8,-67.76 169,-29 171.71,-27.07 174.58,-25.32 177.56,-23.76"/>
<polygon fill="midnightblue" stroke="midnightblue" points="179.16,-26.88 186.82,-19.56 176.27,-20.5 179.16,-26.88"/>
</g>
<!-- Node5&#45;&gt;Node3 -->
<g id="edge5" class="edge">
<title>Node5&#45;&gt;Node3</title>
<path fill="none" stroke="midnightblue" d="M307.43,-271.13C317.32,-274.2 327.52,-277.55 337,-281 357.72,-288.53 380.52,-298.31 398.11,-306.18"/>
<polygon fill="midnightblue" stroke="midnightblue" points="396.75,-309.41 407.3,-310.34 399.63,-303.03 396.75,-309.41"/>
</g>
<!-- Node6 -->
<g id="node6" class="node">
<title>Node6</title>
<g id="a_node6"><a xlink:href="namespaceiota.html#a694d99480f403a3c9e8ce63f06bd7f3f" target="_top" xlink:title=" ">
<polygon fill="white" stroke="black" points="373,-243.5 373,-262.5 485,-262.5 485,-243.5 373,-243.5"/>
<text text-anchor="middle" x="429" y="-250.5" font-family="Helvetica,sans-Serif" font-size="10.00">iota::getMessageJson</text>
</a>
</g>
</g>
<!-- Node5&#45;&gt;Node6 -->
<g id="edge6" class="edge">
<title>Node5&#45;&gt;Node6</title>
<path fill="none" stroke="midnightblue" d="M322.27,-254.82C335.49,-254.59 349.32,-254.36 362.45,-254.13"/>
<polygon fill="midnightblue" stroke="midnightblue" points="362.87,-257.62 372.81,-253.95 362.75,-250.62 362.87,-257.62"/>
</g>
<!-- Node6&#45;&gt;Node7 -->
<g id="edge7" class="edge">
<title>Node6&#45;&gt;Node7</title>
<path fill="none" stroke="midnightblue" d="M485.3,-244.81C493.59,-243.58 502.23,-242.3 510.75,-241.04"/>
<polygon fill="midnightblue" stroke="midnightblue" points="511.3,-244.49 520.67,-239.57 510.27,-237.57 511.3,-244.49"/>
</g>
</g>
</svg>
        <g id="navigator" transform="translate(0 0)" fill="#404254">
                <rect fill="#f2f5e9" fill-opacity="0.5" stroke="#606060" stroke-width=".5" x="0" y="0" width="60" height="60"/>
                <use id="zoomplus" xlink:href="#zoomPlus" x="17" y="9" onmousedown="handleZoom(evt,'in')"/>
                <use id="zoomminus" xlink:href="#zoomMin" x="42" y="9" onmousedown="handleZoom(evt,'out')"/>
                <use id="reset" xlink:href="#resetDef" x="30" y="36" onmousedown="handleReset()"/>
                <g id="arrowUp" xlink:href="#dirArrow" transform="translate(30 24)" onmousedown="handlePan(0,-1)">
                  <use xlink:href="#rim" fill="#404040">
                        <set attributeName="fill" to="#808080" begin="arrowUp.mouseover" end="arrowUp.mouseout"/>
                  </use>
                  <path fill="none" stroke="white" stroke-width="1.5" d="M0,-3.0v7 M-2.5,-0.5L0,-3.0L2.5,-0.5"/>
                </g>
                <g id="arrowRight" xlink:href="#dirArrow" transform="rotate(90) translate(36 -43)" onmousedown="handlePan(1,0)">
                  <use xlink:href="#rim" fill="#404040">
                        <set attributeName="fill" to="#808080" begin="arrowRight.mouseover" end="arrowRight.mouseout"/>
                  </use>
                  <path fill="none" stroke="white" stroke-width="1.5" d="M0,-3.0v7 M-2.5,-0.5L0,-3.0L2.5,-0.5"/>
                </g>
                <g id="arrowDown" xlink:href="#dirArrow" transform="rotate(180) translate(-30 -48)" onmousedown="handlePan(0,1)">
                  <use xlink:href="#rim" fill="#404040">
                        <set attributeName="fill" to="#808080" begin="arrowDown.mouseover" end="arrowDown.mouseout"/>
                  </use>
                  <path fill="none" stroke="white" stroke-width="1.5" d="M0,-3.0v7 M-2.5,-0.5L0,-3.0L2.5,-0.5"/>
                </g>
                <g id="arrowLeft" xlink:href="#dirArrow" transform="rotate(270) translate(-36 17)" onmousedown="handlePan(-1,0)">
                  <use xlink:href="#rim" fill="#404040">
                        <set attributeName="fill" to="#808080" begin="arrowLeft.mouseover" end="arrowLeft.mouseout"/>
                  </use>
                  <path fill="none" stroke="white" stroke-width="1.5" d="M0,-3.0v7 M-2.5,-0.5L0,-3.0L2.5,-0.5"/>
                </g>
        </g>
        <svg viewBox="0 0 15 15" width="100%" height="30px" preserveAspectRatio="xMaxYMin meet">
         <g id="arrow_out" transform="scale(0.3 0.3)">
          <a xlink:href="class_iota_message_to_transaction_task_afc547eb27e6a9e33d9ec6777c764aa2e_cgraph_org.svg" target="_base">
           <rect id="button" ry="5" rx="5" y="6" x="6" height="38" width="38"
                fill="#f2f5e9" fill-opacity="0.5" stroke="#606060" stroke-width="1.0"/>
           <path id="arrow"
             d="M 11.500037,31.436501 C 11.940474,20.09759 22.043105,11.32322 32.158766,21.979434 L 37.068811,17.246167 C 37.068811,17.246167 37.088388,32 37.088388,32 L 22.160133,31.978069 C 22.160133,31.978069 26.997745,27.140456 26.997745,27.140456 C 18.528582,18.264221 13.291696,25.230495 11.500037,31.436501 z"
             style="fill:#404040;"/>
          </a>
         </g>
        </svg>
</svg>
