<?xml version="1.0" encoding="UTF-8" standalone="no"?>
<!DOCTYPE svg PUBLIC "-//W3C//DTD SVG 1.1//EN"
 "http://www.w3.org/Graphics/SVG/1.1/DTD/svg11.dtd">
<!-- Generated by graphviz version 2.50.0 (20211204.2007)
 -->
<!-- Title: task::CPUSheduler::getThreadCount Pages: 1 -->
<svg width="631pt" height="78pt"
 viewBox="0.00 0.00 631.00 77.50" xmlns="http://www.w3.org/2000/svg" xmlns:xlink="http://www.w3.org/1999/xlink">
<g id="graph0" class="graph" transform="scale(1 1) rotate(0) translate(4 73.5)">
<title>task::CPUSheduler::getThreadCount</title>
<polygon fill="white" stroke="transparent" points="-4,4 -4,-73.5 627,-73.5 627,4 -4,4"/>
<!-- Node1 -->
<g id="node1" class="node">
<title>Node1</title>
<g id="a_node1"><a xlink:title=" ">
<polygon fill="#bfbfbf" stroke="black" points="517,-17 517,-47 623,-47 623,-17 517,-17"/>
<text text-anchor="start" x="525" y="-35" font-family="Helvetica,sans-Serif" font-size="10.00">task::CPUSheduler::</text>
<text text-anchor="middle" x="570" y="-24" font-family="Helvetica,sans-Serif" font-size="10.00">getThreadCount</text>
</a>
</g>
</g>
<!-- Node2 -->
<g id="node2" class="node">
<title>Node2</title>
<g id="a_node2"><a xlink:href="classtask_1_1_c_p_u_sheduler.html#a48a6a79bed1a3bd44fed61bcffdb287b" target="_top" xlink:title=" ">
<polygon fill="white" stroke="black" points="375,-17 375,-47 481,-47 481,-17 375,-17"/>
<text text-anchor="start" x="383" y="-35" font-family="Helvetica,sans-Serif" font-size="10.00">task::CPUSheduler::</text>
<text text-anchor="middle" x="428" y="-24" font-family="Helvetica,sans-Serif" font-size="10.00">sheduleTask</text>
</a>
</g>
</g>
<!-- Node1&#45;&gt;Node2 -->
<g id="edge1" class="edge">
<title>Node1&#45;&gt;Node2</title>
<path fill="none" stroke="midnightblue" d="M506.61,-32C498.12,-32 489.47,-32 481.17,-32"/>
<polygon fill="midnightblue" stroke="midnightblue" points="506.87,-35.5 516.87,-32 506.87,-28.5 506.87,-35.5"/>
</g>
<!-- Node3 -->
<g id="node3" class="node">
<title>Node3</title>
<g id="a_node3"><a xlink:href="classtask_1_1_c_p_u_sheduler.html#aca2ef864214de896bdfecd8fc52e3b5c" target="_top" xlink:title=" ">
<polygon fill="white" stroke="black" points="211.5,-39 211.5,-69 317.5,-69 317.5,-39 211.5,-39"/>
<text text-anchor="start" x="219.5" y="-57" font-family="Helvetica,sans-Serif" font-size="10.00">task::CPUSheduler::</text>
<text text-anchor="middle" x="264.5" y="-46" font-family="Helvetica,sans-Serif" font-size="10.00">checkPendingTasks</text>
</a>
</g>
</g>
<!-- Node2&#45;&gt;Node3 -->
<g id="edge2" class="edge">
<title>Node2&#45;&gt;Node3</title>
<path fill="none" stroke="midnightblue" d="M364.55,-40.51C349.05,-42.62 332.61,-44.86 317.67,-46.89"/>
<polygon fill="midnightblue" stroke="midnightblue" points="365.13,-43.96 374.57,-39.14 364.18,-37.02 365.13,-43.96"/>
</g>
<!-- Node5 -->
<g id="node5" class="node">
<title>Node5</title>
<g id="a_node5"><a xlink:href="classtask_1_1_c_p_u_task.html#a139be4eb56d95203da397ac1c4d0ca7c" target="_top" xlink:title="return true if task has finished, else false automatic scheduling of task if he isn&#39;t finished and sh...">
<polygon fill="white" stroke="black" points="190,-0.5 190,-19.5 339,-19.5 339,-0.5 190,-0.5"/>
<text text-anchor="middle" x="264.5" y="-7.5" font-family="Helvetica,sans-Serif" font-size="10.00">task::CPUTask::scheduleTask</text>
</a>
</g>
</g>
<!-- Node2&#45;&gt;Node5 -->
<g id="edge4" class="edge">
<title>Node2&#45;&gt;Node5</title>
<path fill="none" stroke="midnightblue" d="M364.39,-23.47C354.86,-22.17 344.97,-20.83 335.3,-19.51"/>
<polygon fill="midnightblue" stroke="midnightblue" points="364.18,-26.98 374.57,-24.86 365.13,-20.04 364.18,-26.98"/>
</g>
<!-- Node4 -->
<g id="node4" class="node">
<title>Node4</title>
<g id="a_node4"><a xlink:href="classtask_1_1_c_p_u_task.html#a16dfb23f86b52e06a776d0db04af2899" target="_top" xlink:title=" ">
<polygon fill="white" stroke="black" points="0,-44.5 0,-63.5 154,-63.5 154,-44.5 0,-44.5"/>
<text text-anchor="middle" x="77" y="-51.5" font-family="Helvetica,sans-Serif" font-size="10.00">task::CPUTask::triggerSheduler</text>
</a>
</g>
</g>
<!-- Node3&#45;&gt;Node4 -->
<g id="edge3" class="edge">
<title>Node3&#45;&gt;Node4</title>
<path fill="none" stroke="midnightblue" d="M201.09,-54C185.98,-54 169.66,-54 154,-54"/>
<polygon fill="midnightblue" stroke="midnightblue" points="201.33,-57.5 211.33,-54 201.33,-50.5 201.33,-57.5"/>
</g>
</g>
</svg>
