<?xml version="1.0" encoding="UTF-8" standalone="no"?>
<!DOCTYPE svg PUBLIC "-//W3C//DTD SVG 1.1//EN"
 "http://www.w3.org/Graphics/SVG/1.1/DTD/svg11.dtd">
<!-- Generated by graphviz version 2.50.0 (20211204.2007)
 -->
<!-- Title: model::files::BlockIndex Pages: 1 -->
<svg width="132pt" height="386pt"
 viewBox="0.00 0.00 132.00 386.00" xmlns="http://www.w3.org/2000/svg" xmlns:xlink="http://www.w3.org/1999/xlink">
<g id="graph0" class="graph" transform="scale(1 1) rotate(0) translate(4 382)">
<title>model::files::BlockIndex</title>
<polygon fill="white" stroke="transparent" points="-4,4 -4,-382 128,-382 128,4 -4,4"/>
<!-- Node1 -->
<g id="node1" class="node">
<title>Node1</title>
<g id="a_node1"><a xlink:title="Store Block Index Data in binary file.">
<polygon fill="#bfbfbf" stroke="black" points="2,-0.5 2,-156.5 122,-156.5 122,-0.5 2,-0.5"/>
<text text-anchor="middle" x="62" y="-144.5" font-family="Helvetica,sans-Serif" font-size="10.00">model::files::BlockIndex</text>
<polyline fill="none" stroke="black" points="2,-137.5 122,-137.5 "/>
<text text-anchor="start" x="10" y="-125.5" font-family="Helvetica,sans-Serif" font-size="10.00"># mFilename</text>
<text text-anchor="start" x="10" y="-114.5" font-family="Helvetica,sans-Serif" font-size="10.00"># mDataBlocks</text>
<text text-anchor="start" x="10" y="-103.5" font-family="Helvetica,sans-Serif" font-size="10.00"># mDataBlockSumSize</text>
<polyline fill="none" stroke="black" points="2,-96.5 122,-96.5 "/>
<text text-anchor="start" x="10" y="-84.5" font-family="Helvetica,sans-Serif" font-size="10.00">+ BlockIndex()</text>
<text text-anchor="start" x="10" y="-73.5" font-family="Helvetica,sans-Serif" font-size="10.00">+ ~BlockIndex()</text>
<text text-anchor="start" x="10" y="-62.5" font-family="Helvetica,sans-Serif" font-size="10.00">+ addMonthBlock()</text>
<text text-anchor="start" x="10" y="-51.5" font-family="Helvetica,sans-Serif" font-size="10.00">+ addYearBlock()</text>
<text text-anchor="start" x="10" y="-40.5" font-family="Helvetica,sans-Serif" font-size="10.00">+ addDataBlock()</text>
<text text-anchor="start" x="10" y="-29.5" font-family="Helvetica,sans-Serif" font-size="10.00">+ writeToFile()</text>
<text text-anchor="start" x="10" y="-18.5" font-family="Helvetica,sans-Serif" font-size="10.00">+ readFromFile()</text>
<text text-anchor="start" x="10" y="-7.5" font-family="Helvetica,sans-Serif" font-size="10.00">+ reset()</text>
</a>
</g>
</g>
<!-- Node2 -->
<g id="node2" class="node">
<title>Node2</title>
<g id="a_node2"><a xlink:href="classmodel_1_1files_1_1_file_base.html" target="_top" xlink:title=" ">
<polygon fill="white" stroke="black" points="7,-193.5 7,-283.5 117,-283.5 117,-193.5 7,-193.5"/>
<text text-anchor="middle" x="62" y="-271.5" font-family="Helvetica,sans-Serif" font-size="10.00">model::files::FileBase</text>
<polyline fill="none" stroke="black" points="7,-264.5 117,-264.5 "/>
<text text-anchor="start" x="15" y="-252.5" font-family="Helvetica,sans-Serif" font-size="10.00"># mFastMutex</text>
<text text-anchor="start" x="15" y="-241.5" font-family="Helvetica,sans-Serif" font-size="10.00"># mReferenceMutex</text>
<text text-anchor="start" x="15" y="-230.5" font-family="Helvetica,sans-Serif" font-size="10.00"># mRefCount</text>
<polyline fill="none" stroke="black" points="7,-223.5 117,-223.5 "/>
<text text-anchor="start" x="15" y="-211.5" font-family="Helvetica,sans-Serif" font-size="10.00">+ FileBase()</text>
<text text-anchor="start" x="15" y="-200.5" font-family="Helvetica,sans-Serif" font-size="10.00"># ~FileBase()</text>
</a>
</g>
</g>
<!-- Node2&#45;&gt;Node1 -->
<g id="edge1" class="edge">
<title>Node2&#45;&gt;Node1</title>
<path fill="none" stroke="midnightblue" d="M62,-183.23C62,-174.62 62,-165.57 62,-156.56"/>
<polygon fill="none" stroke="midnightblue" points="58.5,-183.49 62,-193.49 65.5,-183.49 58.5,-183.49"/>
</g>
<!-- Node3 -->
<g id="node3" class="node">
<title>Node3</title>
<g id="a_node3"><a xlink:title=" ">
<polygon fill="white" stroke="black" points="0,-320.5 0,-377.5 124,-377.5 124,-320.5 0,-320.5"/>
<text text-anchor="middle" x="62" y="-365.5" font-family="Helvetica,sans-Serif" font-size="10.00">Poco::RefCountedObject</text>
<polyline fill="none" stroke="black" points="0,-358.5 124,-358.5 "/>
<text text-anchor="middle" x="62" y="-346.5" font-family="Helvetica,sans-Serif" font-size="10.00"> </text>
<polyline fill="none" stroke="black" points="0,-339.5 124,-339.5 "/>
<text text-anchor="middle" x="62" y="-327.5" font-family="Helvetica,sans-Serif" font-size="10.00"> </text>
</a>
</g>
</g>
<!-- Node3&#45;&gt;Node2 -->
<g id="edge2" class="edge">
<title>Node3&#45;&gt;Node2</title>
<path fill="none" stroke="midnightblue" d="M62,-310.21C62,-301.61 62,-292.39 62,-283.55"/>
<polygon fill="none" stroke="midnightblue" points="58.5,-310.34 62,-320.34 65.5,-310.34 58.5,-310.34"/>
</g>
</g>
</svg>
