<?xml version="1.0" encoding="UTF-8" standalone="no"?>
<!DOCTYPE svg PUBLIC "-//W3C//DTD SVG 1.1//EN"
 "http://www.w3.org/Graphics/SVG/1.1/DTD/svg11.dtd">
<!-- Generated by graphviz version 2.50.0 (20211204.2007)
 -->
<!-- Title: TaskObserver Pages: 1 -->
<svg width="156pt" height="259pt"
 viewBox="0.00 0.00 156.00 259.00" xmlns="http://www.w3.org/2000/svg" xmlns:xlink="http://www.w3.org/1999/xlink">
<g id="graph0" class="graph" transform="scale(1 1) rotate(0) translate(4 255)">
<title>TaskObserver</title>
<polygon fill="white" stroke="transparent" points="-4,4 -4,-255 152,-255 152,4 -4,4"/>
<!-- Node1 -->
<g id="node1" class="node">
<title>Node1</title>
<g id="a_node1"><a xlink:title=" ">
<polygon fill="#bfbfbf" stroke="black" points="0,-0.5 0,-156.5 148,-156.5 148,-0.5 0,-0.5"/>
<text text-anchor="middle" x="74" y="-144.5" font-family="Helvetica,sans-Serif" font-size="10.00">TaskObserver</text>
<polyline fill="none" stroke="black" points="0,-137.5 148,-137.5 "/>
<text text-anchor="start" x="8" y="-125.5" font-family="Helvetica,sans-Serif" font-size="10.00"># mFastMutex</text>
<text text-anchor="start" x="8" y="-114.5" font-family="Helvetica,sans-Serif" font-size="10.00"># mBlockWriteTasks</text>
<text text-anchor="start" x="8" y="-103.5" font-family="Helvetica,sans-Serif" font-size="10.00"># mTransactionsForTasks</text>
<polyline fill="none" stroke="black" points="0,-96.5 148,-96.5 "/>
<text text-anchor="start" x="8" y="-84.5" font-family="Helvetica,sans-Serif" font-size="10.00">+ TaskObserver()</text>
<text text-anchor="start" x="8" y="-73.5" font-family="Helvetica,sans-Serif" font-size="10.00">+ ~TaskObserver()</text>
<text text-anchor="start" x="8" y="-62.5" font-family="Helvetica,sans-Serif" font-size="10.00">+ addBlockWriteTask()</text>
<text text-anchor="start" x="8" y="-51.5" font-family="Helvetica,sans-Serif" font-size="10.00">+ removeBlockWriteTask()</text>
<text text-anchor="start" x="8" y="-40.5" font-family="Helvetica,sans-Serif" font-size="10.00">+ removeTask()</text>
<text text-anchor="start" x="8" y="-29.5" font-family="Helvetica,sans-Serif" font-size="10.00">+ isTransactionPending()</text>
<text text-anchor="start" x="8" y="-18.5" font-family="Helvetica,sans-Serif" font-size="10.00">+ TaskObserverTypeToString()</text>
<text text-anchor="start" x="8" y="-7.5" font-family="Helvetica,sans-Serif" font-size="10.00">+ StringToTaskObserverType()</text>
</a>
</g>
</g>
<!-- Node2 -->
<g id="node2" class="node">
<title>Node2</title>
<g id="a_node2"><a xlink:title=" ">
<polygon fill="white" stroke="black" points="21,-193.5 21,-250.5 127,-250.5 127,-193.5 21,-193.5"/>
<text text-anchor="middle" x="74" y="-238.5" font-family="Helvetica,sans-Serif" font-size="10.00">MultithreadContainer</text>
<polyline fill="none" stroke="black" points="21,-231.5 127,-231.5 "/>
<text text-anchor="middle" x="74" y="-219.5" font-family="Helvetica,sans-Serif" font-size="10.00"> </text>
<polyline fill="none" stroke="black" points="21,-212.5 127,-212.5 "/>
<text text-anchor="middle" x="74" y="-200.5" font-family="Helvetica,sans-Serif" font-size="10.00"> </text>
</a>
</g>
</g>
<!-- Node2&#45;&gt;Node1 -->
<g id="edge1" class="edge">
<title>Node2&#45;&gt;Node1</title>
<path fill="none" stroke="midnightblue" d="M74,-183.34C74,-175.04 74,-165.96 74,-156.74"/>
<polygon fill="none" stroke="midnightblue" points="70.5,-183.38 74,-193.38 77.5,-183.38 70.5,-183.38"/>
</g>
</g>
</svg>
