<?xml version="1.0" encoding="UTF-8" standalone="no"?>
<!DOCTYPE svg PUBLIC "-//W3C//DTD SVG 1.1//EN"
 "http://www.w3.org/Graphics/SVG/1.1/DTD/svg11.dtd">
<!-- Generated by graphviz version 2.50.0 (20211204.2007)
 -->
<!-- Title: controller::GroupIndex::clear Pages: 1 -->
<svg width="403pt" height="88pt"
 viewBox="0.00 0.00 403.00 88.00" xmlns="http://www.w3.org/2000/svg" xmlns:xlink="http://www.w3.org/1999/xlink">
<g id="graph0" class="graph" transform="scale(1 1) rotate(0) translate(4 84)">
<title>controller::GroupIndex::clear</title>
<polygon fill="white" stroke="transparent" points="-4,4 -4,-84 399,-84 399,4 -4,4"/>
<!-- Node1 -->
<g id="node1" class="node">
<title>Node1</title>
<g id="a_node1"><a xlink:title="clear hash list and doublet&#39;s vector">
<polygon fill="#bfbfbf" stroke="black" points="283,-24.5 283,-54.5 395,-54.5 395,-24.5 283,-24.5"/>
<text text-anchor="start" x="291" y="-42.5" font-family="Helvetica,sans-Serif" font-size="10.00">controller::GroupIndex</text>
<text text-anchor="middle" x="339" y="-31.5" font-family="Helvetica,sans-Serif" font-size="10.00">::clear</text>
</a>
</g>
</g>
<!-- Node2 -->
<g id="node2" class="node">
<title>Node2</title>
<g id="a_node2"><a xlink:href="classcontroller_1_1_group_index.html#ad3221f7b287c384f9942c98ad131fd5e" target="_top" xlink:title="clear and refill hash list and doublet&#39;s vector from mModel protected with fast mutex">
<polygon fill="white" stroke="black" points="135,-49.5 135,-79.5 247,-79.5 247,-49.5 135,-49.5"/>
<text text-anchor="start" x="143" y="-67.5" font-family="Helvetica,sans-Serif" font-size="10.00">controller::GroupIndex</text>
<text text-anchor="middle" x="191" y="-56.5" font-family="Helvetica,sans-Serif" font-size="10.00">::update</text>
</a>
</g>
</g>
<!-- Node1&#45;&gt;Node2 -->
<g id="edge1" class="edge">
<title>Node1&#45;&gt;Node2</title>
<path fill="none" stroke="midnightblue" d="M272.87,-50.65C264.32,-52.12 255.63,-53.6 247.27,-55.04"/>
<polygon fill="midnightblue" stroke="midnightblue" points="273.54,-54.09 282.8,-48.95 272.36,-47.19 273.54,-54.09"/>
</g>
<!-- Node4 -->
<g id="node4" class="node">
<title>Node4</title>
<g id="a_node4"><a xlink:href="classcontroller_1_1_group_index.html#af594eca1f74d3abe57b524eca40feae8" target="_top" xlink:title="delete mModel">
<polygon fill="white" stroke="black" points="135,-0.5 135,-30.5 247,-30.5 247,-0.5 135,-0.5"/>
<text text-anchor="start" x="143" y="-18.5" font-family="Helvetica,sans-Serif" font-size="10.00">controller::GroupIndex</text>
<text text-anchor="middle" x="191" y="-7.5" font-family="Helvetica,sans-Serif" font-size="10.00">::~GroupIndex</text>
</a>
</g>
</g>
<!-- Node1&#45;&gt;Node4 -->
<g id="edge3" class="edge">
<title>Node1&#45;&gt;Node4</title>
<path fill="none" stroke="midnightblue" d="M272.87,-28.79C264.32,-27.39 255.63,-25.96 247.27,-24.59"/>
<polygon fill="midnightblue" stroke="midnightblue" points="272.37,-32.26 282.8,-30.43 273.5,-25.35 272.37,-32.26"/>
</g>
<!-- Node3 -->
<g id="node3" class="node">
<title>Node3</title>
<g id="a_node3"><a xlink:href="class_group_manager.html#a020d987bd819a1a76f3ca8dcbdd03ab7" target="_top" xlink:title="load group index file and fill hash list with group public key = folder name pairs">
<polygon fill="white" stroke="black" points="0,-55 0,-74 99,-74 99,-55 0,-55"/>
<text text-anchor="middle" x="49.5" y="-62" font-family="Helvetica,sans-Serif" font-size="10.00">GroupManager::init</text>
</a>
</g>
</g>
<!-- Node2&#45;&gt;Node3 -->
<g id="edge2" class="edge">
<title>Node2&#45;&gt;Node3</title>
<path fill="none" stroke="midnightblue" d="M124.86,-64.5C116.28,-64.5 107.6,-64.5 99.36,-64.5"/>
<polygon fill="midnightblue" stroke="midnightblue" points="124.87,-68 134.87,-64.5 124.87,-61 124.87,-68"/>
</g>
</g>
</svg>
