<?xml version="1.0" encoding="UTF-8" standalone="no"?>
<!DOCTYPE svg PUBLIC "-//W3C//DTD SVG 1.1//EN"
 "http://www.w3.org/Graphics/SVG/1.1/DTD/svg11.dtd">
<!-- Generated by graphviz version 2.50.0 (20211204.2007)
 -->
<!-- Title: LoggerManager::getInstance Pages: 1 -->
<svg width="654pt" height="576pt"
 viewBox="0.00 0.00 654.00 576.00" xmlns="http://www.w3.org/2000/svg" xmlns:xlink="http://www.w3.org/1999/xlink">
<g id="graph0" class="graph" transform="scale(1 1) rotate(0) translate(4 572)">
<title>LoggerManager::getInstance</title>
<polygon fill="white" stroke="transparent" points="-4,4 -4,-572 650,-572 650,4 -4,4"/>
<!-- Node1 -->
<g id="node1" class="node">
<title>Node1</title>
<g id="a_node1"><a xlink:title=" ">
<polygon fill="#bfbfbf" stroke="black" points="506,-274 506,-293 646,-293 646,-274 506,-274"/>
<text text-anchor="middle" x="576" y="-281" font-family="Helvetica,sans-Serif" font-size="10.00">LoggerManager::getInstance</text>
</a>
</g>
</g>
<!-- Node2 -->
<g id="node2" class="node">
<title>Node2</title>
<g id="a_node2"><a xlink:href="classcontroller_1_1_block.html#af9555c340969e8256be495013c41a80e" target="_top" xlink:title="add transaction from Block File, called by Block File, adding to cache and index">
<polygon fill="white" stroke="black" points="357,-537.5 357,-567.5 450,-567.5 450,-537.5 357,-537.5"/>
<text text-anchor="start" x="365" y="-555.5" font-family="Helvetica,sans-Serif" font-size="10.00">controller::Block::</text>
<text text-anchor="middle" x="403.5" y="-544.5" font-family="Helvetica,sans-Serif" font-size="10.00">addTransaction</text>
</a>
</g>
</g>
<!-- Node1&#45;&gt;Node2 -->
<g id="edge1" class="edge">
<title>Node1&#45;&gt;Node2</title>
<path fill="none" stroke="midnightblue" d="M571.33,-303.17C562.06,-347.77 533.77,-457.73 470,-522.5 464.12,-528.47 456.83,-533.37 449.28,-537.35"/>
<polygon fill="midnightblue" stroke="midnightblue" points="574.82,-303.57 573.33,-293.08 567.95,-302.21 574.82,-303.57"/>
</g>
<!-- Node3 -->
<g id="node3" class="node">
<title>Node3</title>
<g id="a_node3"><a xlink:href="classcontroller_1_1_block.html#aebf036aea9d902c0bee9673659cb737d" target="_top" xlink:title="load transaction from cache or file system">
<polygon fill="white" stroke="black" points="177,-515.5 177,-545.5 270,-545.5 270,-515.5 177,-515.5"/>
<text text-anchor="start" x="185" y="-533.5" font-family="Helvetica,sans-Serif" font-size="10.00">controller::Block::</text>
<text text-anchor="middle" x="223.5" y="-522.5" font-family="Helvetica,sans-Serif" font-size="10.00">getTransaction</text>
</a>
</g>
</g>
<!-- Node1&#45;&gt;Node3 -->
<g id="edge8" class="edge">
<title>Node1&#45;&gt;Node3</title>
<path fill="none" stroke="midnightblue" d="M571.13,-303.29C561.82,-345.12 534.06,-442.55 470,-489.5 438.94,-512.27 332.11,-523.21 270.08,-527.75"/>
<polygon fill="midnightblue" stroke="midnightblue" points="574.6,-303.77 573.23,-293.26 567.75,-302.33 574.6,-303.77"/>
</g>
<!-- Node4 -->
<g id="node4" class="node">
<title>Node4</title>
<g id="a_node4"><a xlink:href="classmodel_1_1files_1_1_block_index.html#ac92b36f682487f3b12dc05564199303b" target="_top" xlink:title=" ">
<polygon fill="white" stroke="black" points="343.5,-449.5 343.5,-479.5 463.5,-479.5 463.5,-449.5 343.5,-449.5"/>
<text text-anchor="start" x="351.5" y="-467.5" font-family="Helvetica,sans-Serif" font-size="10.00">model::files::BlockIndex</text>
<text text-anchor="middle" x="403.5" y="-456.5" font-family="Helvetica,sans-Serif" font-size="10.00">::BlockIndex</text>
</a>
</g>
</g>
<!-- Node1&#45;&gt;Node4 -->
<g id="edge3" class="edge">
<title>Node1&#45;&gt;Node4</title>
<path fill="none" stroke="midnightblue" d="M567.11,-302.47C552.59,-335.17 518.61,-402.28 470,-440.5 465.62,-443.94 460.7,-446.92 455.57,-449.5"/>
<polygon fill="midnightblue" stroke="midnightblue" points="570.38,-303.72 571.13,-293.15 563.95,-300.94 570.38,-303.72"/>
</g>
<!-- Node5 -->
<g id="node5" class="node">
<title>Node5</title>
<g id="a_node5"><a xlink:href="classmodel_1_1files_1_1_block.html#adc947669499b526c4c86ed5d50600128" target="_top" xlink:title="very expensive, read in whole file and calculate hash">
<polygon fill="white" stroke="black" points="355,-400.5 355,-430.5 452,-430.5 452,-400.5 355,-400.5"/>
<text text-anchor="start" x="363" y="-418.5" font-family="Helvetica,sans-Serif" font-size="10.00">model::files::Block</text>
<text text-anchor="middle" x="403.5" y="-407.5" font-family="Helvetica,sans-Serif" font-size="10.00">::calculateHash</text>
</a>
</g>
</g>
<!-- Node1&#45;&gt;Node5 -->
<g id="edge4" class="edge">
<title>Node1&#45;&gt;Node5</title>
<path fill="none" stroke="midnightblue" d="M560.5,-300.87C541.49,-322.8 506.29,-360.66 470,-385.5 461.74,-391.15 452.25,-396.2 443.1,-400.47"/>
<polygon fill="midnightblue" stroke="midnightblue" points="563.34,-302.92 567.17,-293.05 558.02,-298.38 563.34,-302.92"/>
</g>
<!-- Node6 -->
<g id="node6" class="node">
<title>Node6</title>
<g id="a_node6"><a xlink:href="classmodel_1_1files_1_1_block.html#a485cfc70b6d8f66107fb95908a266b36" target="_top" xlink:title=" ">
<polygon fill="white" stroke="black" points="175,-381.5 175,-411.5 272,-411.5 272,-381.5 175,-381.5"/>
<text text-anchor="start" x="183" y="-399.5" font-family="Helvetica,sans-Serif" font-size="10.00">model::files::Block</text>
<text text-anchor="middle" x="223.5" y="-388.5" font-family="Helvetica,sans-Serif" font-size="10.00">::validateHash</text>
</a>
</g>
</g>
<!-- Node1&#45;&gt;Node6 -->
<g id="edge20" class="edge">
<title>Node1&#45;&gt;Node6</title>
<path fill="none" stroke="midnightblue" d="M555.89,-299.54C535.8,-315.51 502.65,-339.48 470,-352.5 404.44,-378.64 322.84,-389.33 272.2,-393.65"/>
<polygon fill="midnightblue" stroke="midnightblue" points="558.34,-302.05 563.9,-293.03 553.93,-296.62 558.34,-302.05"/>
</g>
<!-- Node7 -->
<g id="node7" class="node">
<title>Node7</title>
<g id="a_node7"><a xlink:href="classcontroller_1_1_group.html#ae8e568b6229a699bfed1ecc781a1b162" target="_top" xlink:title="Find every transaction belonging to address account in memory or block chain, expensive.">
<polygon fill="white" stroke="black" points="356,-312.5 356,-342.5 451,-342.5 451,-312.5 356,-312.5"/>
<text text-anchor="start" x="364" y="-330.5" font-family="Helvetica,sans-Serif" font-size="10.00">controller::Group::</text>
<text text-anchor="middle" x="403.5" y="-319.5" font-family="Helvetica,sans-Serif" font-size="10.00">findTransactions</text>
</a>
</g>
</g>
<!-- Node1&#45;&gt;Node7 -->
<g id="edge6" class="edge">
<title>Node1&#45;&gt;Node7</title>
<path fill="none" stroke="midnightblue" d="M528.08,-295.61C504.14,-301.79 475.09,-309.28 451.18,-315.45"/>
<polygon fill="midnightblue" stroke="midnightblue" points="529.2,-298.94 538,-293.05 527.45,-292.16 529.2,-298.94"/>
</g>
<!-- Node9 -->
<g id="node9" class="node">
<title>Node9</title>
<g id="a_node9"><a xlink:href="class_fuzzy_timer.html#a2ae37f045bfac2261db0eb8ae191310b" target="_top" xlink:title=" ">
<polygon fill="white" stroke="black" points="355.5,-274 355.5,-293 451.5,-293 451.5,-274 355.5,-274"/>
<text text-anchor="middle" x="403.5" y="-281" font-family="Helvetica,sans-Serif" font-size="10.00">FuzzyTimer::move</text>
</a>
</g>
</g>
<!-- Node1&#45;&gt;Node9 -->
<g id="edge9" class="edge">
<title>Node1&#45;&gt;Node9</title>
<path fill="none" stroke="midnightblue" d="M495.35,-283.5C480.39,-283.5 465.2,-283.5 451.63,-283.5"/>
<polygon fill="midnightblue" stroke="midnightblue" points="495.65,-287 505.65,-283.5 495.65,-280 495.65,-287"/>
</g>
<!-- Node11 -->
<g id="node11" class="node">
<title>Node11</title>
<g id="a_node11"><a xlink:href="classiota_1_1_message_validator.html#a27c563956ccd93929ed19e4a63b248c7" target="_top" xlink:title=" ">
<polygon fill="white" stroke="black" points="345.5,-224.5 345.5,-254.5 461.5,-254.5 461.5,-224.5 345.5,-224.5"/>
<text text-anchor="start" x="353.5" y="-242.5" font-family="Helvetica,sans-Serif" font-size="10.00">iota::MessageValidator</text>
<text text-anchor="middle" x="403.5" y="-231.5" font-family="Helvetica,sans-Serif" font-size="10.00">::pushMilestone</text>
</a>
</g>
</g>
<!-- Node1&#45;&gt;Node11 -->
<g id="edge11" class="edge">
<title>Node1&#45;&gt;Node11</title>
<path fill="none" stroke="midnightblue" d="M528.22,-271.43C507.61,-266.11 483.21,-259.81 461.55,-254.22"/>
<polygon fill="midnightblue" stroke="midnightblue" points="527.45,-274.84 538,-273.95 529.2,-268.06 527.45,-274.84"/>
</g>
<!-- Node12 -->
<g id="node12" class="node">
<title>Node12</title>
<g id="a_node12"><a xlink:href="classiota_1_1_milestone_loading_task.html#a977665539e8c86bf61df5caf23edfbe7" target="_top" xlink:title="called from task scheduler, maybe from another thread">
<polygon fill="white" stroke="black" points="146,-211 146,-230 301,-230 301,-211 146,-211"/>
<text text-anchor="middle" x="223.5" y="-218" font-family="Helvetica,sans-Serif" font-size="10.00">iota::MilestoneLoadingTask::run</text>
</a>
</g>
</g>
<!-- Node1&#45;&gt;Node12 -->
<g id="edge16" class="edge">
<title>Node1&#45;&gt;Node12</title>
<path fill="none" stroke="midnightblue" d="M557.16,-267.26C537.49,-250.55 504.08,-225.57 470,-215.5 403.97,-195.99 323.55,-203.08 273.17,-210.98"/>
<polygon fill="midnightblue" stroke="midnightblue" points="554.88,-269.91 564.72,-273.85 559.48,-264.64 554.88,-269.91"/>
</g>
<!-- Node13 -->
<g id="node13" class="node">
<title>Node13</title>
<g id="a_node13"><a xlink:href="class_virtual_file.html#abbdc300573ac1c30d2ae09b585af0a2b" target="_top" xlink:title="get memory bin in file size and fill it with file content">
<polygon fill="white" stroke="black" points="342,-148 342,-167 465,-167 465,-148 342,-148"/>
<text text-anchor="middle" x="403.5" y="-155" font-family="Helvetica,sans-Serif" font-size="10.00">VirtualFile::readFromFile</text>
</a>
</g>
</g>
<!-- Node1&#45;&gt;Node13 -->
<g id="edge13" class="edge">
<title>Node1&#45;&gt;Node13</title>
<path fill="none" stroke="midnightblue" d="M561.08,-266.02C542.46,-243.66 507.42,-205.02 470,-181.5 460.46,-175.51 449.21,-170.7 438.75,-167.01"/>
<polygon fill="midnightblue" stroke="midnightblue" points="558.56,-268.46 567.59,-273.99 563.98,-264.03 558.56,-268.46"/>
</g>
<!-- Node16 -->
<g id="node16" class="node">
<title>Node16</title>
<g id="a_node16"><a xlink:href="classmodel_1_1files_1_1_block_append_line_task.html#a3e6b73849ab6269435c86a2c89f44036" target="_top" xlink:title="called from task scheduler, maybe from another thread">
<polygon fill="white" stroke="black" points="338.5,-98.5 338.5,-128.5 468.5,-128.5 468.5,-98.5 338.5,-98.5"/>
<text text-anchor="start" x="346.5" y="-116.5" font-family="Helvetica,sans-Serif" font-size="10.00">model::files::BlockAppend</text>
<text text-anchor="middle" x="403.5" y="-105.5" font-family="Helvetica,sans-Serif" font-size="10.00">LineTask::run</text>
</a>
</g>
</g>
<!-- Node1&#45;&gt;Node16 -->
<g id="edge17" class="edge">
<title>Node1&#45;&gt;Node16</title>
<path fill="none" stroke="midnightblue" d="M566.02,-264.79C550.51,-234.27 515.86,-173.68 470,-138.5 465.07,-134.72 459.51,-131.46 453.76,-128.65"/>
<polygon fill="midnightblue" stroke="midnightblue" points="562.97,-266.5 570.54,-273.9 569.24,-263.39 562.97,-266.5"/>
</g>
<!-- Node17 -->
<g id="node17" class="node">
<title>Node17</title>
<g id="a_node17"><a xlink:href="class_iota_message_to_transaction_task.html#afc547eb27e6a9e33d9ec6777c764aa2e" target="_top" xlink:title="called from task scheduler, maybe from another thread">
<polygon fill="white" stroke="black" points="337,-49.5 337,-79.5 470,-79.5 470,-49.5 337,-49.5"/>
<text text-anchor="start" x="345" y="-67.5" font-family="Helvetica,sans-Serif" font-size="10.00">IotaMessageToTransaction</text>
<text text-anchor="middle" x="403.5" y="-56.5" font-family="Helvetica,sans-Serif" font-size="10.00">Task::run</text>
</a>
</g>
</g>
<!-- Node1&#45;&gt;Node17 -->
<g id="edge18" class="edge">
<title>Node1&#45;&gt;Node17</title>
<path fill="none" stroke="midnightblue" d="M569.57,-263.79C557.85,-224.84 526.6,-137.55 470,-88.5 466.06,-85.09 461.6,-82.15 456.9,-79.61"/>
<polygon fill="midnightblue" stroke="midnightblue" points="566.33,-265.19 572.47,-273.83 573.05,-263.25 566.33,-265.19"/>
</g>
<!-- Node18 -->
<g id="node18" class="node">
<title>Node18</title>
<g id="a_node18"><a xlink:href="classmodel_1_1files_1_1_state.html#a7091905ba2dd71a6f07eab54f514102d" target="_top" xlink:title="open level db file">
<polygon fill="white" stroke="black" points="356,-0.5 356,-30.5 451,-30.5 451,-0.5 356,-0.5"/>
<text text-anchor="start" x="364" y="-18.5" font-family="Helvetica,sans-Serif" font-size="10.00">model::files::State</text>
<text text-anchor="middle" x="403.5" y="-7.5" font-family="Helvetica,sans-Serif" font-size="10.00">::State</text>
</a>
</g>
</g>
<!-- Node1&#45;&gt;Node18 -->
<g id="edge19" class="edge">
<title>Node1&#45;&gt;Node18</title>
<path fill="none" stroke="midnightblue" d="M571.91,-263.64C563.76,-217.74 537.46,-103.34 470,-39.5 464.63,-34.42 458.11,-30.4 451.28,-27.22"/>
<polygon fill="midnightblue" stroke="midnightblue" points="568.47,-264.25 573.57,-273.54 575.37,-263.09 568.47,-264.25"/>
</g>
<!-- Node2&#45;&gt;Node3 -->
<g id="edge2" class="edge">
<title>Node2&#45;&gt;Node3</title>
<path fill="none" stroke="midnightblue" d="M346.73,-545.61C322.11,-542.56 293.52,-539.03 270.18,-536.15"/>
<polygon fill="midnightblue" stroke="midnightblue" points="346.31,-549.08 356.66,-546.83 347.17,-542.13 346.31,-549.08"/>
</g>
<!-- Node5&#45;&gt;Node6 -->
<g id="edge5" class="edge">
<title>Node5&#45;&gt;Node6</title>
<path fill="none" stroke="midnightblue" d="M344.62,-409.32C321.13,-406.81 294.34,-403.95 272.02,-401.57"/>
<polygon fill="midnightblue" stroke="midnightblue" points="344.48,-412.83 354.8,-410.41 345.23,-405.87 344.48,-412.83"/>
</g>
<!-- Node8 -->
<g id="node8" class="node">
<title>Node8</title>
<g id="a_node8"><a xlink:href="classcontroller_1_1_group.html#a290d7ff553429948078ee4f0dd563b5c" target="_top" xlink:title="Search for creation transactions from specific month and add balances together.">
<polygon fill="white" stroke="black" points="167.5,-312.5 167.5,-342.5 279.5,-342.5 279.5,-312.5 167.5,-312.5"/>
<text text-anchor="start" x="175.5" y="-330.5" font-family="Helvetica,sans-Serif" font-size="10.00">controller::Group::</text>
<text text-anchor="middle" x="223.5" y="-319.5" font-family="Helvetica,sans-Serif" font-size="10.00">calculateCreationSum</text>
</a>
</g>
</g>
<!-- Node7&#45;&gt;Node8 -->
<g id="edge7" class="edge">
<title>Node7&#45;&gt;Node8</title>
<path fill="none" stroke="midnightblue" d="M345.64,-327.5C324.57,-327.5 300.73,-327.5 279.81,-327.5"/>
<polygon fill="midnightblue" stroke="midnightblue" points="345.73,-331 355.73,-327.5 345.73,-324 345.73,-331"/>
</g>
<!-- Node10 -->
<g id="node10" class="node">
<title>Node10</title>
<g id="a_node10"><a xlink:href="class_fuzzy_timer.html#a5e03b9ab466a12d35b4857a30013d216" target="_top" xlink:title=" ">
<polygon fill="white" stroke="black" points="180,-274 180,-293 267,-293 267,-274 180,-274"/>
<text text-anchor="middle" x="223.5" y="-281" font-family="Helvetica,sans-Serif" font-size="10.00">FuzzyTimer::run</text>
</a>
</g>
</g>
<!-- Node9&#45;&gt;Node10 -->
<g id="edge10" class="edge">
<title>Node9&#45;&gt;Node10</title>
<path fill="none" stroke="midnightblue" d="M345.04,-283.5C319.69,-283.5 290.43,-283.5 267.08,-283.5"/>
<polygon fill="midnightblue" stroke="midnightblue" points="345.27,-287 355.27,-283.5 345.27,-280 345.27,-287"/>
</g>
<!-- Node11&#45;&gt;Node12 -->
<g id="edge12" class="edge">
<title>Node11&#45;&gt;Node12</title>
<path fill="none" stroke="midnightblue" d="M335.16,-232.31C324.06,-231.13 312.48,-229.89 301.17,-228.68"/>
<polygon fill="midnightblue" stroke="midnightblue" points="334.88,-235.8 345.2,-233.38 335.63,-228.84 334.88,-235.8"/>
</g>
<!-- Node14 -->
<g id="node14" class="node">
<title>Node14</title>
<g id="a_node14"><a xlink:href="classmodel_1_1files_1_1_block_index.html#ae197b4a43d106d58b23a102f2598ca0c" target="_top" xlink:title="read from file, put content into receiver">
<polygon fill="white" stroke="black" points="163.5,-142.5 163.5,-172.5 283.5,-172.5 283.5,-142.5 163.5,-142.5"/>
<text text-anchor="start" x="171.5" y="-160.5" font-family="Helvetica,sans-Serif" font-size="10.00">model::files::BlockIndex</text>
<text text-anchor="middle" x="223.5" y="-149.5" font-family="Helvetica,sans-Serif" font-size="10.00">::readFromFile</text>
</a>
</g>
</g>
<!-- Node13&#45;&gt;Node14 -->
<g id="edge14" class="edge">
<title>Node13&#45;&gt;Node14</title>
<path fill="none" stroke="midnightblue" d="M331.48,-157.5C315.67,-157.5 299.06,-157.5 283.78,-157.5"/>
<polygon fill="midnightblue" stroke="midnightblue" points="331.74,-161 341.74,-157.5 331.74,-154 331.74,-161"/>
</g>
<!-- Node15 -->
<g id="node15" class="node">
<title>Node15</title>
<g id="a_node15"><a xlink:href="classcontroller_1_1_block_index.html#a09afd2785b550c464e1173a4bb6e1bb7" target="_top" xlink:title="loading block index from file (or at least try to load)">
<polygon fill="white" stroke="black" points="0,-142.5 0,-172.5 110,-172.5 110,-142.5 0,-142.5"/>
<text text-anchor="start" x="8" y="-160.5" font-family="Helvetica,sans-Serif" font-size="10.00">controller::BlockIndex</text>
<text text-anchor="middle" x="55" y="-149.5" font-family="Helvetica,sans-Serif" font-size="10.00">::loadFromFile</text>
</a>
</g>
</g>
<!-- Node14&#45;&gt;Node15 -->
<g id="edge15" class="edge">
<title>Node14&#45;&gt;Node15</title>
<path fill="none" stroke="midnightblue" d="M153.05,-157.5C138.76,-157.5 123.91,-157.5 110.26,-157.5"/>
<polygon fill="midnightblue" stroke="midnightblue" points="153.33,-161 163.33,-157.5 153.33,-154 153.33,-161"/>
</g>
</g>
</svg>
