<?xml version="1.0" encoding="UTF-8" standalone="no"?>
<!DOCTYPE svg PUBLIC "-//W3C//DTD SVG 1.1//EN"
 "http://www.w3.org/Graphics/SVG/1.1/DTD/svg11.dtd">
<!-- Generated by graphviz version 2.50.0 (20211204.2007)
 -->
<!-- Title: UniLib::controller::CPUShedulerThread::setNewTask Pages: 1 -->
<svg width="249pt" height="137pt"
 viewBox="0.00 0.00 249.00 137.00" xmlns="http://www.w3.org/2000/svg" xmlns:xlink="http://www.w3.org/1999/xlink">
<g id="graph0" class="graph" transform="scale(1 1) rotate(0) translate(4 133)">
<title>UniLib::controller::CPUShedulerThread::setNewTask</title>
<polygon fill="white" stroke="transparent" points="-4,4 -4,-133 245,-133 245,4 -4,4"/>
<!-- Node1 -->
<g id="node1" class="node">
<title>Node1</title>
<g id="a_node1"><a xlink:title=" ">
<polygon fill="#bfbfbf" stroke="black" points="0,-44 0,-85 110,-85 110,-44 0,-44"/>
<text text-anchor="start" x="8" y="-73" font-family="Helvetica,sans-Serif" font-size="10.00">UniLib::controller</text>
<text text-anchor="start" x="8" y="-62" font-family="Helvetica,sans-Serif" font-size="10.00">::CPUShedulerThread</text>
<text text-anchor="middle" x="55" y="-51" font-family="Helvetica,sans-Serif" font-size="10.00">::setNewTask</text>
</a>
</g>
</g>
<!-- Node2 -->
<g id="node2" class="node">
<title>Node2</title>
<g id="a_node2"><a xlink:href="class_uni_lib_1_1lib_1_1_thread.html#a75cb9d8498150896794fd7325b71e063" target="_top" xlink:title=" ">
<polygon fill="white" stroke="black" points="146,-98.5 146,-128.5 241,-128.5 241,-98.5 146,-98.5"/>
<text text-anchor="start" x="154" y="-116.5" font-family="Helvetica,sans-Serif" font-size="10.00">UniLib::lib::Thread</text>
<text text-anchor="middle" x="193.5" y="-105.5" font-family="Helvetica,sans-Serif" font-size="10.00">::condSignal</text>
</a>
</g>
</g>
<!-- Node1&#45;&gt;Node2 -->
<g id="edge1" class="edge">
<title>Node1&#45;&gt;Node2</title>
<path fill="none" stroke="midnightblue" d="M110.34,-84.01C120.48,-87.65 131.05,-91.44 141.1,-95.05"/>
<polygon fill="midnightblue" stroke="midnightblue" points="139.95,-98.35 150.55,-98.44 142.32,-91.77 139.95,-98.35"/>
</g>
<!-- Node3 -->
<g id="node3" class="node">
<title>Node3</title>
<g id="a_node3"><a xlink:href="class_uni_lib_1_1lib_1_1_thread.html#aa88b0e0c20d80e94cb0a314a36cceacd" target="_top" xlink:title=" ">
<polygon fill="white" stroke="black" points="146,-49.5 146,-79.5 241,-79.5 241,-49.5 146,-49.5"/>
<text text-anchor="start" x="154" y="-67.5" font-family="Helvetica,sans-Serif" font-size="10.00">UniLib::lib::Thread</text>
<text text-anchor="middle" x="193.5" y="-56.5" font-family="Helvetica,sans-Serif" font-size="10.00">::threadLock</text>
</a>
</g>
</g>
<!-- Node1&#45;&gt;Node3 -->
<g id="edge2" class="edge">
<title>Node1&#45;&gt;Node3</title>
<path fill="none" stroke="midnightblue" d="M110.34,-64.5C118.69,-64.5 127.33,-64.5 135.74,-64.5"/>
<polygon fill="midnightblue" stroke="midnightblue" points="135.83,-68 145.83,-64.5 135.83,-61 135.83,-68"/>
</g>
<!-- Node4 -->
<g id="node4" class="node">
<title>Node4</title>
<g id="a_node4"><a xlink:href="class_uni_lib_1_1lib_1_1_thread.html#a587e3bd81fafd2f222dd11ff1c8c9100" target="_top" xlink:title=" ">
<polygon fill="white" stroke="black" points="146,-0.5 146,-30.5 241,-30.5 241,-0.5 146,-0.5"/>
<text text-anchor="start" x="154" y="-18.5" font-family="Helvetica,sans-Serif" font-size="10.00">UniLib::lib::Thread</text>
<text text-anchor="middle" x="193.5" y="-7.5" font-family="Helvetica,sans-Serif" font-size="10.00">::threadUnlock</text>
</a>
</g>
</g>
<!-- Node1&#45;&gt;Node4 -->
<g id="edge3" class="edge">
<title>Node1&#45;&gt;Node4</title>
<path fill="none" stroke="midnightblue" d="M110.34,-44.99C120.48,-41.35 131.05,-37.56 141.1,-33.95"/>
<polygon fill="midnightblue" stroke="midnightblue" points="142.32,-37.23 150.55,-30.56 139.95,-30.65 142.32,-37.23"/>
</g>
</g>
</svg>
