<?xml version="1.0" encoding="UTF-8" standalone="no"?>
<!DOCTYPE svg PUBLIC "-//W3C//DTD SVG 1.1//EN"
 "http://www.w3.org/Graphics/SVG/1.1/DTD/svg11.dtd">
<!-- Generated by graphviz version 2.50.0 (20211204.2007)
 -->
<!-- Title: model::files::FileBase Pages: 1 -->
<svg width="579pt" height="474pt"
 viewBox="0.00 0.00 578.50 474.00" xmlns="http://www.w3.org/2000/svg" xmlns:xlink="http://www.w3.org/1999/xlink">
<g id="graph0" class="graph" transform="scale(1 1) rotate(0) translate(4 470)">
<title>model::files::FileBase</title>
<polygon fill="white" stroke="transparent" points="-4,4 -4,-470 574.5,-470 574.5,4 -4,4"/>
<!-- Node1 -->
<g id="node1" class="node">
<title>Node1</title>
<g id="a_node1"><a xlink:title=" ">
<polygon fill="#bfbfbf" stroke="black" points="240.5,-281.5 240.5,-371.5 350.5,-371.5 350.5,-281.5 240.5,-281.5"/>
<text text-anchor="middle" x="295.5" y="-359.5" font-family="Helvetica,sans-Serif" font-size="10.00">model::files::FileBase</text>
<polyline fill="none" stroke="black" points="240.5,-352.5 350.5,-352.5 "/>
<text text-anchor="start" x="248.5" y="-340.5" font-family="Helvetica,sans-Serif" font-size="10.00"># mFastMutex</text>
<text text-anchor="start" x="248.5" y="-329.5" font-family="Helvetica,sans-Serif" font-size="10.00"># mReferenceMutex</text>
<text text-anchor="start" x="248.5" y="-318.5" font-family="Helvetica,sans-Serif" font-size="10.00"># mRefCount</text>
<polyline fill="none" stroke="black" points="240.5,-311.5 350.5,-311.5 "/>
<text text-anchor="start" x="248.5" y="-299.5" font-family="Helvetica,sans-Serif" font-size="10.00">+ FileBase()</text>
<text text-anchor="start" x="248.5" y="-288.5" font-family="Helvetica,sans-Serif" font-size="10.00"># ~FileBase()</text>
</a>
</g>
</g>
<!-- Node3 -->
<g id="node3" class="node">
<title>Node3</title>
<g id="a_node3"><a xlink:href="classmodel_1_1files_1_1_address_index.html" target="_top" xlink:title="File for storing account address indices.">
<polygon fill="white" stroke="black" points="0,-39 0,-206 131,-206 131,-39 0,-39"/>
<text text-anchor="middle" x="65.5" y="-194" font-family="Helvetica,sans-Serif" font-size="10.00">model::files::AddressIndex</text>
<polyline fill="none" stroke="black" points="0,-187 131,-187 "/>
<text text-anchor="start" x="8" y="-175" font-family="Helvetica,sans-Serif" font-size="10.00"># mFilePath</text>
<text text-anchor="start" x="8" y="-164" font-family="Helvetica,sans-Serif" font-size="10.00"># mAddressesIndices</text>
<text text-anchor="start" x="8" y="-153" font-family="Helvetica,sans-Serif" font-size="10.00"># mFileWritten</text>
<polyline fill="none" stroke="black" points="0,-146 131,-146 "/>
<text text-anchor="start" x="8" y="-134" font-family="Helvetica,sans-Serif" font-size="10.00">+ AddressIndex()</text>
<text text-anchor="start" x="8" y="-123" font-family="Helvetica,sans-Serif" font-size="10.00">+ ~AddressIndex()</text>
<text text-anchor="start" x="8" y="-112" font-family="Helvetica,sans-Serif" font-size="10.00">+ add()</text>
<text text-anchor="start" x="8" y="-101" font-family="Helvetica,sans-Serif" font-size="10.00">+ getIndexForAddress()</text>
<text text-anchor="start" x="8" y="-90" font-family="Helvetica,sans-Serif" font-size="10.00">+ writeToFile()</text>
<text text-anchor="start" x="8" y="-79" font-family="Helvetica,sans-Serif" font-size="10.00"># checkFile()</text>
<text text-anchor="start" x="8" y="-68" font-family="Helvetica,sans-Serif" font-size="10.00"># calculateFileSize()</text>
<text text-anchor="start" x="8" y="-57" font-family="Helvetica,sans-Serif" font-size="10.00"># loadFromFile()</text>
<text text-anchor="start" x="8" y="-46" font-family="Helvetica,sans-Serif" font-size="10.00"># calculateHash()</text>
</a>
</g>
</g>
<!-- Node1&#45;&gt;Node3 -->
<g id="edge2" class="edge">
<title>Node1&#45;&gt;Node3</title>
<path fill="none" stroke="midnightblue" d="M231.17,-301.85C200.9,-288.47 165.77,-269.48 139.5,-245 127.48,-233.8 116.72,-220.23 107.36,-206.26"/>
<polygon fill="none" stroke="midnightblue" points="229.83,-305.08 240.39,-305.82 232.59,-298.65 229.83,-305.08"/>
</g>
<!-- Node4 -->
<g id="node4" class="node">
<title>Node4</title>
<g id="a_node4"><a xlink:href="classmodel_1_1files_1_1_block.html" target="_top" xlink:title=" ">
<polygon fill="white" stroke="black" points="149,-0.5 149,-244.5 292,-244.5 292,-0.5 149,-0.5"/>
<text text-anchor="middle" x="220.5" y="-232.5" font-family="Helvetica,sans-Serif" font-size="10.00">model::files::Block</text>
<polyline fill="none" stroke="black" points="149,-225.5 292,-225.5 "/>
<text text-anchor="start" x="157" y="-213.5" font-family="Helvetica,sans-Serif" font-size="10.00"># mBlockPath</text>
<text text-anchor="start" x="157" y="-202.5" font-family="Helvetica,sans-Serif" font-size="10.00"># mBlockNr</text>
<text text-anchor="start" x="157" y="-191.5" font-family="Helvetica,sans-Serif" font-size="10.00"># mLastWrittenTransactionNr</text>
<text text-anchor="start" x="157" y="-180.5" font-family="Helvetica,sans-Serif" font-size="10.00"># mLastUsed</text>
<text text-anchor="start" x="157" y="-169.5" font-family="Helvetica,sans-Serif" font-size="10.00"># mBlockFile</text>
<text text-anchor="start" x="157" y="-158.5" font-family="Helvetica,sans-Serif" font-size="10.00"># mFastMutex</text>
<text text-anchor="start" x="157" y="-147.5" font-family="Helvetica,sans-Serif" font-size="10.00"># mCurrentFileSize</text>
<polyline fill="none" stroke="black" points="149,-140.5 292,-140.5 "/>
<text text-anchor="start" x="157" y="-128.5" font-family="Helvetica,sans-Serif" font-size="10.00">+ Block()</text>
<text text-anchor="start" x="157" y="-117.5" font-family="Helvetica,sans-Serif" font-size="10.00">+ ~Block()</text>
<text text-anchor="start" x="157" y="-106.5" font-family="Helvetica,sans-Serif" font-size="10.00">+ callFromTimer()</text>
<text text-anchor="start" x="157" y="-95.5" font-family="Helvetica,sans-Serif" font-size="10.00">+ getResourceType()</text>
<text text-anchor="start" x="157" y="-84.5" font-family="Helvetica,sans-Serif" font-size="10.00">+ readLine()</text>
<text text-anchor="start" x="157" y="-73.5" font-family="Helvetica,sans-Serif" font-size="10.00">+ appendLine()</text>
<text text-anchor="start" x="157" y="-62.5" font-family="Helvetica,sans-Serif" font-size="10.00">+ appendLines()</text>
<text text-anchor="start" x="157" y="-51.5" font-family="Helvetica,sans-Serif" font-size="10.00">+ getCurrentFileSize()</text>
<text text-anchor="start" x="157" y="-40.5" font-family="Helvetica,sans-Serif" font-size="10.00">+ getBlockPath()</text>
<text text-anchor="start" x="157" y="-29.5" font-family="Helvetica,sans-Serif" font-size="10.00">+ validateHash()</text>
<text text-anchor="start" x="157" y="-18.5" font-family="Helvetica,sans-Serif" font-size="10.00"># getOpenFile()</text>
<text text-anchor="start" x="157" y="-7.5" font-family="Helvetica,sans-Serif" font-size="10.00"># calculateHash()</text>
</a>
</g>
</g>
<!-- Node1&#45;&gt;Node4 -->
<g id="edge3" class="edge">
<title>Node1&#45;&gt;Node4</title>
<path fill="none" stroke="midnightblue" d="M275.54,-271.74C272.35,-263.14 268.94,-253.96 265.44,-244.54"/>
<polygon fill="none" stroke="midnightblue" points="272.28,-273.01 279.04,-281.17 278.84,-270.58 272.28,-273.01"/>
</g>
<!-- Node5 -->
<g id="node5" class="node">
<title>Node5</title>
<g id="a_node5"><a xlink:href="classmodel_1_1files_1_1_block_index.html" target="_top" xlink:title="Store Block Index Data in binary file.">
<polygon fill="white" stroke="black" points="310.5,-44.5 310.5,-200.5 430.5,-200.5 430.5,-44.5 310.5,-44.5"/>
<text text-anchor="middle" x="370.5" y="-188.5" font-family="Helvetica,sans-Serif" font-size="10.00">model::files::BlockIndex</text>
<polyline fill="none" stroke="black" points="310.5,-181.5 430.5,-181.5 "/>
<text text-anchor="start" x="318.5" y="-169.5" font-family="Helvetica,sans-Serif" font-size="10.00"># mFilename</text>
<text text-anchor="start" x="318.5" y="-158.5" font-family="Helvetica,sans-Serif" font-size="10.00"># mDataBlocks</text>
<text text-anchor="start" x="318.5" y="-147.5" font-family="Helvetica,sans-Serif" font-size="10.00"># mDataBlockSumSize</text>
<polyline fill="none" stroke="black" points="310.5,-140.5 430.5,-140.5 "/>
<text text-anchor="start" x="318.5" y="-128.5" font-family="Helvetica,sans-Serif" font-size="10.00">+ BlockIndex()</text>
<text text-anchor="start" x="318.5" y="-117.5" font-family="Helvetica,sans-Serif" font-size="10.00">+ ~BlockIndex()</text>
<text text-anchor="start" x="318.5" y="-106.5" font-family="Helvetica,sans-Serif" font-size="10.00">+ addMonthBlock()</text>
<text text-anchor="start" x="318.5" y="-95.5" font-family="Helvetica,sans-Serif" font-size="10.00">+ addYearBlock()</text>
<text text-anchor="start" x="318.5" y="-84.5" font-family="Helvetica,sans-Serif" font-size="10.00">+ addDataBlock()</text>
<text text-anchor="start" x="318.5" y="-73.5" font-family="Helvetica,sans-Serif" font-size="10.00">+ writeToFile()</text>
<text text-anchor="start" x="318.5" y="-62.5" font-family="Helvetica,sans-Serif" font-size="10.00">+ readFromFile()</text>
<text text-anchor="start" x="318.5" y="-51.5" font-family="Helvetica,sans-Serif" font-size="10.00">+ reset()</text>
</a>
</g>
</g>
<!-- Node1&#45;&gt;Node5 -->
<g id="edge4" class="edge">
<title>Node1&#45;&gt;Node5</title>
<path fill="none" stroke="midnightblue" d="M315.45,-271.77C323.54,-249.99 333.03,-224.42 341.83,-200.71"/>
<polygon fill="none" stroke="midnightblue" points="312.16,-270.58 311.96,-281.17 318.72,-273.01 312.16,-270.58"/>
</g>
<!-- Node6 -->
<g id="node6" class="node">
<title>Node6</title>
<g id="a_node6"><a xlink:href="classmodel_1_1files_1_1_state.html" target="_top" xlink:title=" ">
<polygon fill="white" stroke="black" points="448.5,-66.5 448.5,-178.5 570.5,-178.5 570.5,-66.5 448.5,-66.5"/>
<text text-anchor="middle" x="509.5" y="-166.5" font-family="Helvetica,sans-Serif" font-size="10.00">model::files::State</text>
<polyline fill="none" stroke="black" points="448.5,-159.5 570.5,-159.5 "/>
<text text-anchor="start" x="456.5" y="-147.5" font-family="Helvetica,sans-Serif" font-size="10.00"># mLevelDB</text>
<polyline fill="none" stroke="black" points="448.5,-140.5 570.5,-140.5 "/>
<text text-anchor="start" x="456.5" y="-128.5" font-family="Helvetica,sans-Serif" font-size="10.00">+ State()</text>
<text text-anchor="start" x="456.5" y="-117.5" font-family="Helvetica,sans-Serif" font-size="10.00">+ ~State()</text>
<text text-anchor="start" x="456.5" y="-106.5" font-family="Helvetica,sans-Serif" font-size="10.00">+ getValueForKey()</text>
<text text-anchor="start" x="456.5" y="-95.5" font-family="Helvetica,sans-Serif" font-size="10.00">+ getInt32ValueForKey()</text>
<text text-anchor="start" x="456.5" y="-84.5" font-family="Helvetica,sans-Serif" font-size="10.00">+ addKeyValue()</text>
<text text-anchor="start" x="456.5" y="-73.5" font-family="Helvetica,sans-Serif" font-size="10.00">+ setKeyValue()</text>
</a>
</g>
</g>
<!-- Node1&#45;&gt;Node6 -->
<g id="edge5" class="edge">
<title>Node1&#45;&gt;Node6</title>
<path fill="none" stroke="midnightblue" d="M360.04,-298.75C386.84,-285.41 416.89,-267.32 439.5,-245 458.56,-226.19 474.16,-201.11 485.76,-178.62"/>
<polygon fill="none" stroke="midnightblue" points="358.19,-295.75 350.71,-303.26 361.24,-302.05 358.19,-295.75"/>
</g>
<!-- Node2 -->
<g id="node2" class="node">
<title>Node2</title>
<g id="a_node2"><a xlink:title=" ">
<polygon fill="white" stroke="black" points="233.5,-408.5 233.5,-465.5 357.5,-465.5 357.5,-408.5 233.5,-408.5"/>
<text text-anchor="middle" x="295.5" y="-453.5" font-family="Helvetica,sans-Serif" font-size="10.00">Poco::RefCountedObject</text>
<polyline fill="none" stroke="black" points="233.5,-446.5 357.5,-446.5 "/>
<text text-anchor="middle" x="295.5" y="-434.5" font-family="Helvetica,sans-Serif" font-size="10.00"> </text>
<polyline fill="none" stroke="black" points="233.5,-427.5 357.5,-427.5 "/>
<text text-anchor="middle" x="295.5" y="-415.5" font-family="Helvetica,sans-Serif" font-size="10.00"> </text>
</a>
</g>
</g>
<!-- Node2&#45;&gt;Node1 -->
<g id="edge1" class="edge">
<title>Node2&#45;&gt;Node1</title>
<path fill="none" stroke="midnightblue" d="M295.5,-398.21C295.5,-389.61 295.5,-380.39 295.5,-371.55"/>
<polygon fill="none" stroke="midnightblue" points="292,-398.34 295.5,-408.34 299,-398.34 292,-398.34"/>
</g>
</g>
</svg>
