<?xml version="1.0" encoding="UTF-8" standalone="no"?>
<!DOCTYPE svg PUBLIC "-//W3C//DTD SVG 1.1//EN"
 "http://www.w3.org/Graphics/SVG/1.1/DTD/svg11.dtd">
<!-- Generated by graphviz version 2.50.0 (20211204.2007)
 -->
<!-- Title: UniLib::lib::Thread::run Pages: 1 -->
<svg width="253pt" height="137pt"
 viewBox="0.00 0.00 253.00 137.00" xmlns="http://www.w3.org/2000/svg" xmlns:xlink="http://www.w3.org/1999/xlink">
<g id="graph0" class="graph" transform="scale(1 1) rotate(0) translate(4 133)">
<title>UniLib::lib::Thread::run</title>
<polygon fill="white" stroke="transparent" points="-4,4 -4,-133 249,-133 249,4 -4,4"/>
<!-- Node1 -->
<g id="node1" class="node">
<title>Node1</title>
<g id="a_node1"><a xlink:title=" ">
<polygon fill="#bfbfbf" stroke="black" points="0,-55 0,-74 114,-74 114,-55 0,-55"/>
<text text-anchor="middle" x="57" y="-62" font-family="Helvetica,sans-Serif" font-size="10.00">UniLib::lib::Thread::run</text>
</a>
</g>
</g>
<!-- Node2 -->
<g id="node2" class="node">
<title>Node2</title>
<g id="a_node2"><a xlink:href="class_uni_lib_1_1lib_1_1_thread.html#aa8ea90449736dff40a7f20073bcc0820" target="_top" xlink:title="will be called every time from thread, when condSignal was called will be called from thread with loc...">
<polygon fill="white" stroke="black" points="150,-98.5 150,-128.5 245,-128.5 245,-98.5 150,-98.5"/>
<text text-anchor="start" x="158" y="-116.5" font-family="Helvetica,sans-Serif" font-size="10.00">UniLib::lib::Thread</text>
<text text-anchor="middle" x="197.5" y="-105.5" font-family="Helvetica,sans-Serif" font-size="10.00">::ThreadFunction</text>
</a>
</g>
</g>
<!-- Node1&#45;&gt;Node2 -->
<g id="edge1" class="edge">
<title>Node1&#45;&gt;Node2</title>
<path fill="none" stroke="midnightblue" d="M85.03,-74.06C101.95,-80.05 124.32,-87.96 144.57,-95.13"/>
<polygon fill="midnightblue" stroke="midnightblue" points="143.4,-98.43 154,-98.46 145.74,-91.83 143.4,-98.43"/>
</g>
<!-- Node3 -->
<g id="node3" class="node">
<title>Node3</title>
<g id="a_node3"><a xlink:href="class_uni_lib_1_1lib_1_1_thread.html#aa88b0e0c20d80e94cb0a314a36cceacd" target="_top" xlink:title=" ">
<polygon fill="white" stroke="black" points="150,-49.5 150,-79.5 245,-79.5 245,-49.5 150,-49.5"/>
<text text-anchor="start" x="158" y="-67.5" font-family="Helvetica,sans-Serif" font-size="10.00">UniLib::lib::Thread</text>
<text text-anchor="middle" x="197.5" y="-56.5" font-family="Helvetica,sans-Serif" font-size="10.00">::threadLock</text>
</a>
</g>
</g>
<!-- Node1&#45;&gt;Node3 -->
<g id="edge2" class="edge">
<title>Node1&#45;&gt;Node3</title>
<path fill="none" stroke="midnightblue" d="M114.33,-64.5C122.75,-64.5 131.42,-64.5 139.84,-64.5"/>
<polygon fill="midnightblue" stroke="midnightblue" points="139.95,-68 149.95,-64.5 139.95,-61 139.95,-68"/>
</g>
<!-- Node4 -->
<g id="node4" class="node">
<title>Node4</title>
<g id="a_node4"><a xlink:href="class_uni_lib_1_1lib_1_1_thread.html#a587e3bd81fafd2f222dd11ff1c8c9100" target="_top" xlink:title=" ">
<polygon fill="white" stroke="black" points="150,-0.5 150,-30.5 245,-30.5 245,-0.5 150,-0.5"/>
<text text-anchor="start" x="158" y="-18.5" font-family="Helvetica,sans-Serif" font-size="10.00">UniLib::lib::Thread</text>
<text text-anchor="middle" x="197.5" y="-7.5" font-family="Helvetica,sans-Serif" font-size="10.00">::threadUnlock</text>
</a>
</g>
</g>
<!-- Node1&#45;&gt;Node4 -->
<g id="edge3" class="edge">
<title>Node1&#45;&gt;Node4</title>
<path fill="none" stroke="midnightblue" d="M85.03,-54.94C101.95,-48.95 124.32,-41.04 144.57,-33.87"/>
<polygon fill="midnightblue" stroke="midnightblue" points="145.74,-37.17 154,-30.54 143.4,-30.57 145.74,-37.17"/>
</g>
</g>
</svg>
