<?xml version="1.0" encoding="UTF-8" standalone="no"?>
<!DOCTYPE svg PUBLIC "-//W3C//DTD SVG 1.1//EN"
 "http://www.w3.org/Graphics/SVG/1.1/DTD/svg11.dtd">
<!-- Generated by graphviz version 2.50.0 (20211204.2007)
 -->
<!-- Title: iota::MilestoneLoadingTask::run Pages: 1 -->
<svg width="517pt" height="91pt"
 viewBox="0.00 0.00 517.00 91.07" xmlns="http://www.w3.org/2000/svg" xmlns:xlink="http://www.w3.org/1999/xlink">
<g id="graph0" class="graph" transform="scale(1 1) rotate(0) translate(4 87.07)">
<title>iota::MilestoneLoadingTask::run</title>
<polygon fill="white" stroke="transparent" points="-4,4 -4,-87.07 513,-87.07 513,4 -4,4"/>
<!-- Node1 -->
<g id="node1" class="node">
<title>Node1</title>
<g id="a_node1"><a xlink:title="called from task scheduler, maybe from another thread">
<polygon fill="#bfbfbf" stroke="black" points="0,-50 0,-69 155,-69 155,-50 0,-50"/>
<text text-anchor="middle" x="77.5" y="-57" font-family="Helvetica,sans-Serif" font-size="10.00">iota::MilestoneLoadingTask::run</text>
</a>
</g>
</g>
<!-- Node2 -->
<g id="node2" class="node">
<title>Node2</title>
<g id="a_node2"><a xlink:href="class_logger_manager.html#a88f5ea1c5a1bf96ccb17ffabc3fd9a9b" target="_top" xlink:title=" ">
<polygon fill="white" stroke="black" points="369,-47 369,-66 509,-66 509,-47 369,-47"/>
<text text-anchor="middle" x="439" y="-54" font-family="Helvetica,sans-Serif" font-size="10.00">LoggerManager::getInstance</text>
</a>
</g>
</g>
<!-- Node1&#45;&gt;Node2 -->
<g id="edge1" class="edge">
<title>Node1&#45;&gt;Node2</title>
<path fill="none" stroke="midnightblue" d="M124.26,-69.01C144.6,-72.78 168.89,-76.65 191,-78.5 253.89,-83.77 270.23,-85.01 333,-78.5 352.54,-76.48 373.8,-72.38 392.05,-68.27"/>
<polygon fill="midnightblue" stroke="midnightblue" points="392.9,-71.67 401.85,-66 391.31,-64.85 392.9,-71.67"/>
</g>
<!-- Node3 -->
<g id="node3" class="node">
<title>Node3</title>
<g id="a_node3"><a xlink:href="namespaceiota.html#a8931f7a2beda09017a73506f253d2d45" target="_top" xlink:title=" ">
<polygon fill="white" stroke="black" points="191,-50 191,-69 333,-69 333,-50 191,-50"/>
<text text-anchor="middle" x="262" y="-57" font-family="Helvetica,sans-Serif" font-size="10.00">iota::getMilestoneTimestamp</text>
</a>
</g>
</g>
<!-- Node1&#45;&gt;Node3 -->
<g id="edge2" class="edge">
<title>Node1&#45;&gt;Node3</title>
<path fill="none" stroke="midnightblue" d="M155.1,-59.5C163.66,-59.5 172.39,-59.5 180.98,-59.5"/>
<polygon fill="midnightblue" stroke="midnightblue" points="180.99,-63 190.99,-59.5 180.99,-56 180.99,-63"/>
</g>
<!-- Node4 -->
<g id="node4" class="node">
<title>Node4</title>
<g id="a_node4"><a xlink:href="classiota_1_1_message_validator.html#a27c563956ccd93929ed19e4a63b248c7" target="_top" xlink:title=" ">
<polygon fill="white" stroke="black" points="204,-0.5 204,-30.5 320,-30.5 320,-0.5 204,-0.5"/>
<text text-anchor="start" x="212" y="-18.5" font-family="Helvetica,sans-Serif" font-size="10.00">iota::MessageValidator</text>
<text text-anchor="middle" x="262" y="-7.5" font-family="Helvetica,sans-Serif" font-size="10.00">::pushMilestone</text>
</a>
</g>
</g>
<!-- Node1&#45;&gt;Node4 -->
<g id="edge3" class="edge">
<title>Node1&#45;&gt;Node4</title>
<path fill="none" stroke="midnightblue" d="M118.1,-49.95C140.22,-44.62 168.38,-37.83 193.84,-31.69"/>
<polygon fill="midnightblue" stroke="midnightblue" points="194.91,-35.03 203.81,-29.29 193.27,-28.23 194.91,-35.03"/>
</g>
<!-- Node4&#45;&gt;Node2 -->
<g id="edge4" class="edge">
<title>Node4&#45;&gt;Node2</title>
<path fill="none" stroke="midnightblue" d="M320.3,-28.92C341.89,-33.98 366.27,-39.7 387.22,-44.6"/>
<polygon fill="midnightblue" stroke="midnightblue" points="386.67,-48.07 397.2,-46.94 388.27,-41.25 386.67,-48.07"/>
</g>
</g>
</svg>
