<?xml version="1.0" encoding="UTF-8" standalone="no"?>
<!DOCTYPE svg PUBLIC "-//W3C//DTD SVG 1.1//EN"
 "http://www.w3.org/Graphics/SVG/1.1/DTD/svg11.dtd">
<!-- Generated by graphviz version 2.50.0 (20211204.2007)
 -->
<!-- Title: model::files::AddressIndex Pages: 1 -->
<svg width="139pt" height="397pt"
 viewBox="0.00 0.00 139.00 397.00" xmlns="http://www.w3.org/2000/svg" xmlns:xlink="http://www.w3.org/1999/xlink">
<g id="graph0" class="graph" transform="scale(1 1) rotate(0) translate(4 393)">
<title>model::files::AddressIndex</title>
<polygon fill="white" stroke="transparent" points="-4,4 -4,-393 135,-393 135,4 -4,4"/>
<!-- Node1 -->
<g id="node1" class="node">
<title>Node1</title>
<g id="a_node1"><a xlink:title="File for storing account address indices.">
<polygon fill="#bfbfbf" stroke="black" points="0,-0.5 0,-167.5 131,-167.5 131,-0.5 0,-0.5"/>
<text text-anchor="middle" x="65.5" y="-155.5" font-family="Helvetica,sans-Serif" font-size="10.00">model::files::AddressIndex</text>
<polyline fill="none" stroke="black" points="0,-148.5 131,-148.5 "/>
<text text-anchor="start" x="8" y="-136.5" font-family="Helvetica,sans-Serif" font-size="10.00"># mFilePath</text>
<text text-anchor="start" x="8" y="-125.5" font-family="Helvetica,sans-Serif" font-size="10.00"># mAddressesIndices</text>
<text text-anchor="start" x="8" y="-114.5" font-family="Helvetica,sans-Serif" font-size="10.00"># mFileWritten</text>
<polyline fill="none" stroke="black" points="0,-107.5 131,-107.5 "/>
<text text-anchor="start" x="8" y="-95.5" font-family="Helvetica,sans-Serif" font-size="10.00">+ AddressIndex()</text>
<text text-anchor="start" x="8" y="-84.5" font-family="Helvetica,sans-Serif" font-size="10.00">+ ~AddressIndex()</text>
<text text-anchor="start" x="8" y="-73.5" font-family="Helvetica,sans-Serif" font-size="10.00">+ add()</text>
<text text-anchor="start" x="8" y="-62.5" font-family="Helvetica,sans-Serif" font-size="10.00">+ getIndexForAddress()</text>
<text text-anchor="start" x="8" y="-51.5" font-family="Helvetica,sans-Serif" font-size="10.00">+ writeToFile()</text>
<text text-anchor="start" x="8" y="-40.5" font-family="Helvetica,sans-Serif" font-size="10.00"># checkFile()</text>
<text text-anchor="start" x="8" y="-29.5" font-family="Helvetica,sans-Serif" font-size="10.00"># calculateFileSize()</text>
<text text-anchor="start" x="8" y="-18.5" font-family="Helvetica,sans-Serif" font-size="10.00"># loadFromFile()</text>
<text text-anchor="start" x="8" y="-7.5" font-family="Helvetica,sans-Serif" font-size="10.00"># calculateHash()</text>
</a>
</g>
</g>
<!-- Node2 -->
<g id="node2" class="node">
<title>Node2</title>
<g id="a_node2"><a xlink:href="classmodel_1_1files_1_1_file_base.html" target="_top" xlink:title=" ">
<polygon fill="white" stroke="black" points="10.5,-204.5 10.5,-294.5 120.5,-294.5 120.5,-204.5 10.5,-204.5"/>
<text text-anchor="middle" x="65.5" y="-282.5" font-family="Helvetica,sans-Serif" font-size="10.00">model::files::FileBase</text>
<polyline fill="none" stroke="black" points="10.5,-275.5 120.5,-275.5 "/>
<text text-anchor="start" x="18.5" y="-263.5" font-family="Helvetica,sans-Serif" font-size="10.00"># mFastMutex</text>
<text text-anchor="start" x="18.5" y="-252.5" font-family="Helvetica,sans-Serif" font-size="10.00"># mReferenceMutex</text>
<text text-anchor="start" x="18.5" y="-241.5" font-family="Helvetica,sans-Serif" font-size="10.00"># mRefCount</text>
<polyline fill="none" stroke="black" points="10.5,-234.5 120.5,-234.5 "/>
<text text-anchor="start" x="18.5" y="-222.5" font-family="Helvetica,sans-Serif" font-size="10.00">+ FileBase()</text>
<text text-anchor="start" x="18.5" y="-211.5" font-family="Helvetica,sans-Serif" font-size="10.00"># ~FileBase()</text>
</a>
</g>
</g>
<!-- Node2&#45;&gt;Node1 -->
<g id="edge1" class="edge">
<title>Node2&#45;&gt;Node1</title>
<path fill="none" stroke="midnightblue" d="M65.5,-194.13C65.5,-185.63 65.5,-176.68 65.5,-167.72"/>
<polygon fill="none" stroke="midnightblue" points="62,-194.25 65.5,-204.25 69,-194.25 62,-194.25"/>
</g>
<!-- Node3 -->
<g id="node3" class="node">
<title>Node3</title>
<g id="a_node3"><a xlink:title=" ">
<polygon fill="white" stroke="black" points="3.5,-331.5 3.5,-388.5 127.5,-388.5 127.5,-331.5 3.5,-331.5"/>
<text text-anchor="middle" x="65.5" y="-376.5" font-family="Helvetica,sans-Serif" font-size="10.00">Poco::RefCountedObject</text>
<polyline fill="none" stroke="black" points="3.5,-369.5 127.5,-369.5 "/>
<text text-anchor="middle" x="65.5" y="-357.5" font-family="Helvetica,sans-Serif" font-size="10.00"> </text>
<polyline fill="none" stroke="black" points="3.5,-350.5 127.5,-350.5 "/>
<text text-anchor="middle" x="65.5" y="-338.5" font-family="Helvetica,sans-Serif" font-size="10.00"> </text>
</a>
</g>
</g>
<!-- Node3&#45;&gt;Node2 -->
<g id="edge2" class="edge">
<title>Node3&#45;&gt;Node2</title>
<path fill="none" stroke="midnightblue" d="M65.5,-321.21C65.5,-312.61 65.5,-303.39 65.5,-294.55"/>
<polygon fill="none" stroke="midnightblue" points="62,-321.34 65.5,-331.34 69,-321.34 62,-321.34"/>
</g>
</g>
</svg>
