<?xml version="1.0" encoding="UTF-8" standalone="no"?>
<!DOCTYPE svg PUBLIC "-//W3C//DTD SVG 1.1//EN"
 "http://www.w3.org/Graphics/SVG/1.1/DTD/svg11.dtd">
<!-- Generated by graphviz version 2.50.0 (20211204.2007)
 -->
<!-- Title: LevelDBKeyAlreadyExistException Pages: 1 -->
<svg width="191pt" height="182pt"
 viewBox="0.00 0.00 191.00 182.00" xmlns="http://www.w3.org/2000/svg" xmlns:xlink="http://www.w3.org/1999/xlink">
<g id="graph0" class="graph" transform="scale(1 1) rotate(0) translate(4 178)">
<title>LevelDBKeyAlreadyExistException</title>
<polygon fill="white" stroke="transparent" points="-4,4 -4,-178 187,-178 187,4 -4,4"/>
<!-- Node1 -->
<g id="node1" class="node">
<title>Node1</title>
<g id="a_node1"><a xlink:title=" ">
<polygon fill="#bfbfbf" stroke="black" points="0,-0.5 0,-79.5 183,-79.5 183,-0.5 0,-0.5"/>
<text text-anchor="middle" x="91.5" y="-67.5" font-family="Helvetica,sans-Serif" font-size="10.00">LevelDBKeyAlreadyExistException</text>
<polyline fill="none" stroke="black" points="0,-60.5 183,-60.5 "/>
<text text-anchor="start" x="8" y="-48.5" font-family="Helvetica,sans-Serif" font-size="10.00"># mKey</text>
<text text-anchor="start" x="8" y="-37.5" font-family="Helvetica,sans-Serif" font-size="10.00"># mValue</text>
<polyline fill="none" stroke="black" points="0,-30.5 183,-30.5 "/>
<text text-anchor="start" x="8" y="-18.5" font-family="Helvetica,sans-Serif" font-size="10.00">+ LevelDBKeyAlreadyExistException()</text>
<text text-anchor="start" x="8" y="-7.5" font-family="Helvetica,sans-Serif" font-size="10.00">+ getFullString()</text>
</a>
</g>
</g>
<!-- Node2 -->
<g id="node2" class="node">
<title>Node2</title>
<g id="a_node2"><a xlink:title=" ">
<polygon fill="white" stroke="black" points="20.5,-116.5 20.5,-173.5 162.5,-173.5 162.5,-116.5 20.5,-116.5"/>
<text text-anchor="middle" x="91.5" y="-161.5" font-family="Helvetica,sans-Serif" font-size="10.00">GradidoBlockchainException</text>
<polyline fill="none" stroke="black" points="20.5,-154.5 162.5,-154.5 "/>
<text text-anchor="middle" x="91.5" y="-142.5" font-family="Helvetica,sans-Serif" font-size="10.00"> </text>
<polyline fill="none" stroke="black" points="20.5,-135.5 162.5,-135.5 "/>
<text text-anchor="middle" x="91.5" y="-123.5" font-family="Helvetica,sans-Serif" font-size="10.00"> </text>
</a>
</g>
</g>
<!-- Node2&#45;&gt;Node1 -->
<g id="edge1" class="edge">
<title>Node2&#45;&gt;Node1</title>
<path fill="none" stroke="midnightblue" d="M91.5,-106.16C91.5,-97.47 91.5,-88.23 91.5,-79.52"/>
<polygon fill="none" stroke="midnightblue" points="88,-106.4 91.5,-116.4 95,-106.4 88,-106.4"/>
</g>
</g>
</svg>
