<?xml version="1.0" encoding="UTF-8" standalone="no"?>
<!DOCTYPE svg PUBLIC "-//W3C//DTD SVG 1.1//EN"
 "http://www.w3.org/Graphics/SVG/1.1/DTD/svg11.dtd">
<!-- Generated by graphviz version 2.50.0 (20211204.2007)
 -->
<!-- Title: UniLib::lib::Thread::threadLock Pages: 1 -->
<svg width="253pt" height="88pt"
 viewBox="0.00 0.00 253.00 88.00" xmlns="http://www.w3.org/2000/svg" xmlns:xlink="http://www.w3.org/1999/xlink">
<g id="graph0" class="graph" transform="scale(1 1) rotate(0) translate(4 84)">
<title>UniLib::lib::Thread::threadLock</title>
<polygon fill="white" stroke="transparent" points="-4,4 -4,-84 249,-84 249,4 -4,4"/>
<!-- Node1 -->
<g id="node1" class="node">
<title>Node1</title>
<g id="a_node1"><a xlink:title=" ">
<polygon fill="#bfbfbf" stroke="black" points="150,-30 150,-60 245,-60 245,-30 150,-30"/>
<text text-anchor="start" x="158" y="-48" font-family="Helvetica,sans-Serif" font-size="10.00">UniLib::lib::Thread</text>
<text text-anchor="middle" x="197.5" y="-37" font-family="Helvetica,sans-Serif" font-size="10.00">::threadLock</text>
</a>
</g>
</g>
<!-- Node2 -->
<g id="node2" class="node">
<title>Node2</title>
<g id="a_node2"><a xlink:href="class_uni_lib_1_1lib_1_1_thread.html#a69f45389cad78ec7ab89a2f9c26c6613" target="_top" xlink:title=" ">
<polygon fill="white" stroke="black" points="0,-60.5 0,-79.5 114,-79.5 114,-60.5 0,-60.5"/>
<text text-anchor="middle" x="57" y="-67.5" font-family="Helvetica,sans-Serif" font-size="10.00">UniLib::lib::Thread::run</text>
</a>
</g>
</g>
<!-- Node1&#45;&gt;Node2 -->
<g id="edge1" class="edge">
<title>Node1&#45;&gt;Node2</title>
<path fill="none" stroke="midnightblue" d="M140.08,-55.18C130.41,-56.93 120.4,-58.74 110.83,-60.46"/>
<polygon fill="midnightblue" stroke="midnightblue" points="140.78,-58.61 150,-53.39 139.53,-51.73 140.78,-58.61"/>
</g>
<!-- Node3 -->
<g id="node3" class="node">
<title>Node3</title>
<g id="a_node3"><a xlink:href="class_uni_lib_1_1controller_1_1_c_p_u_sheduler_thread.html#a8ed5a3f09361c8d92c966acabee7e2a8" target="_top" xlink:title=" ">
<polygon fill="white" stroke="black" points="2,-0.5 2,-41.5 112,-41.5 112,-0.5 2,-0.5"/>
<text text-anchor="start" x="10" y="-29.5" font-family="Helvetica,sans-Serif" font-size="10.00">UniLib::controller</text>
<text text-anchor="start" x="10" y="-18.5" font-family="Helvetica,sans-Serif" font-size="10.00">::CPUShedulerThread</text>
<text text-anchor="middle" x="57" y="-7.5" font-family="Helvetica,sans-Serif" font-size="10.00">::setNewTask</text>
</a>
</g>
</g>
<!-- Node1&#45;&gt;Node3 -->
<g id="edge2" class="edge">
<title>Node1&#45;&gt;Node3</title>
<path fill="none" stroke="midnightblue" d="M139.87,-35.19C130.76,-33.61 121.34,-31.98 112.28,-30.41"/>
<polygon fill="midnightblue" stroke="midnightblue" points="139.55,-38.68 150,-36.94 140.74,-31.79 139.55,-38.68"/>
</g>
</g>
</svg>
