<?xml version="1.0" encoding="UTF-8" standalone="no"?>
<!DOCTYPE svg PUBLIC "-//W3C//DTD SVG 1.1//EN"
 "http://www.w3.org/Graphics/SVG/1.1/DTD/svg11.dtd">
<!-- Generated by graphviz version 2.50.0 (20211204.2007)
 -->
<!-- Title: controller::BlockIndex Pages: 1 -->
<svg width="296pt" height="347pt"
 viewBox="0.00 0.00 295.50 347.00" xmlns="http://www.w3.org/2000/svg" xmlns:xlink="http://www.w3.org/1999/xlink">
<g id="graph0" class="graph" transform="scale(1 1) rotate(0) translate(4 343)">
<title>controller::BlockIndex</title>
<polygon fill="white" stroke="transparent" points="-4,4 -4,-343 291.5,-343 291.5,4 -4,4"/>
<!-- Node1 -->
<g id="node1" class="node">
<title>Node1</title>
<g id="a_node1"><a xlink:title="store block index in memory for fast finding transactions">
<polygon fill="#bfbfbf" stroke="black" points="55,-0.5 55,-233.5 223,-233.5 223,-0.5 55,-0.5"/>
<text text-anchor="middle" x="139" y="-221.5" font-family="Helvetica,sans-Serif" font-size="10.00">controller::BlockIndex</text>
<polyline fill="none" stroke="black" points="55,-214.5 223,-214.5 "/>
<text text-anchor="start" x="63" y="-202.5" font-family="Helvetica,sans-Serif" font-size="10.00"># mBlockIndexFile</text>
<text text-anchor="start" x="63" y="-191.5" font-family="Helvetica,sans-Serif" font-size="10.00"># mMaxTransactionNr</text>
<text text-anchor="start" x="63" y="-180.5" font-family="Helvetica,sans-Serif" font-size="10.00"># mMinTransactionNr</text>
<text text-anchor="start" x="63" y="-169.5" font-family="Helvetica,sans-Serif" font-size="10.00"># mTransactionNrsFileCursors</text>
<text text-anchor="start" x="63" y="-158.5" font-family="Helvetica,sans-Serif" font-size="10.00"># mYearMonthAddressIndexEntrys</text>
<text text-anchor="start" x="63" y="-147.5" font-family="Helvetica,sans-Serif" font-size="10.00"># mSlowWorkingMutex</text>
<polyline fill="none" stroke="black" points="55,-140.5 223,-140.5 "/>
<text text-anchor="start" x="63" y="-128.5" font-family="Helvetica,sans-Serif" font-size="10.00">+ BlockIndex()</text>
<text text-anchor="start" x="63" y="-117.5" font-family="Helvetica,sans-Serif" font-size="10.00">+ ~BlockIndex()</text>
<text text-anchor="start" x="63" y="-106.5" font-family="Helvetica,sans-Serif" font-size="10.00">+ loadFromFile()</text>
<text text-anchor="start" x="63" y="-95.5" font-family="Helvetica,sans-Serif" font-size="10.00">+ writeIntoFile()</text>
<text text-anchor="start" x="63" y="-84.5" font-family="Helvetica,sans-Serif" font-size="10.00">+ addIndicesForTransaction()</text>
<text text-anchor="start" x="63" y="-73.5" font-family="Helvetica,sans-Serif" font-size="10.00">+ addIndicesForTransaction()</text>
<text text-anchor="start" x="63" y="-62.5" font-family="Helvetica,sans-Serif" font-size="10.00">+ addIndicesForTransaction()</text>
<text text-anchor="start" x="63" y="-51.5" font-family="Helvetica,sans-Serif" font-size="10.00">+ addFileCursorForTransaction()</text>
<text text-anchor="start" x="63" y="-40.5" font-family="Helvetica,sans-Serif" font-size="10.00">+ findTransactionsForAddress</text>
<text text-anchor="start" x="63" y="-29.5" font-family="Helvetica,sans-Serif" font-size="10.00">MonthYear()</text>
<text text-anchor="start" x="63" y="-18.5" font-family="Helvetica,sans-Serif" font-size="10.00">+ findTransactionsForAddress()</text>
<text text-anchor="start" x="63" y="-7.5" font-family="Helvetica,sans-Serif" font-size="10.00">and 8 more...</text>
</a>
</g>
</g>
<!-- Node2 -->
<g id="node2" class="node">
<title>Node2</title>
<g id="a_node2"><a xlink:href="classcontroller_1_1_controller_base.html" target="_top" xlink:title=" ">
<polygon fill="white" stroke="black" points="0,-276 0,-333 126,-333 126,-276 0,-276"/>
<text text-anchor="middle" x="63" y="-321" font-family="Helvetica,sans-Serif" font-size="10.00">controller::ControllerBase</text>
<polyline fill="none" stroke="black" points="0,-314 126,-314 "/>
<text text-anchor="start" x="8" y="-302" font-family="Helvetica,sans-Serif" font-size="10.00"># mWorkingMutex</text>
<polyline fill="none" stroke="black" points="0,-295 126,-295 "/>
<text text-anchor="middle" x="63" y="-283" font-family="Helvetica,sans-Serif" font-size="10.00"> </text>
</a>
</g>
</g>
<!-- Node2&#45;&gt;Node1 -->
<g id="edge1" class="edge">
<title>Node2&#45;&gt;Node1</title>
<path fill="none" stroke="midnightblue" d="M78.22,-266.36C82.25,-256.52 86.82,-245.35 91.61,-233.67"/>
<polygon fill="none" stroke="midnightblue" points="74.93,-265.15 74.38,-275.73 81.41,-267.8 74.93,-265.15"/>
</g>
<!-- Node3 -->
<g id="node3" class="node">
<title>Node3</title>
<g id="a_node3"><a xlink:href="classmodel_1_1files_1_1_i_block_index_receiver.html" target="_top" xlink:title=" ">
<polygon fill="white" stroke="black" points="144.5,-270.5 144.5,-338.5 287.5,-338.5 287.5,-270.5 144.5,-270.5"/>
<text text-anchor="start" x="152.5" y="-326.5" font-family="Helvetica,sans-Serif" font-size="10.00">model::files::IBlockIndex</text>
<text text-anchor="middle" x="216" y="-315.5" font-family="Helvetica,sans-Serif" font-size="10.00">Receiver</text>
<polyline fill="none" stroke="black" points="144.5,-308.5 287.5,-308.5 "/>
<text text-anchor="middle" x="216" y="-296.5" font-family="Helvetica,sans-Serif" font-size="10.00"> </text>
<polyline fill="none" stroke="black" points="144.5,-289.5 287.5,-289.5 "/>
<text text-anchor="start" x="152.5" y="-277.5" font-family="Helvetica,sans-Serif" font-size="10.00">+ addIndicesForTransaction()</text>
</a>
</g>
</g>
<!-- Node3&#45;&gt;Node1 -->
<g id="edge2" class="edge">
<title>Node3&#45;&gt;Node1</title>
<path fill="none" stroke="midnightblue" d="M198.3,-260.87C194.82,-252.47 191.01,-243.3 187.06,-233.77"/>
<polygon fill="none" stroke="midnightblue" points="195.17,-262.44 202.23,-270.34 201.63,-259.76 195.17,-262.44"/>
</g>
</g>
</svg>
