<?xml version="1.0" encoding="UTF-8" standalone="no"?>
<!DOCTYPE svg PUBLIC "-//W3C//DTD SVG 1.1//EN"
 "http://www.w3.org/Graphics/SVG/1.1/DTD/svg11.dtd">
<!-- Generated by graphviz version 2.50.0 (20211204.2007)
 -->
<!-- Title: iota::MessageListener Pages: 1 -->
<svg width="240pt" height="248pt"
 viewBox="0.00 0.00 239.50 248.00" xmlns="http://www.w3.org/2000/svg" xmlns:xlink="http://www.w3.org/1999/xlink">
<g id="graph0" class="graph" transform="scale(1 1) rotate(0) translate(4 244)">
<title>iota::MessageListener</title>
<polygon fill="white" stroke="transparent" points="-4,4 -4,-244 235.5,-244 235.5,4 -4,4"/>
<!-- Node1 -->
<g id="node1" class="node">
<title>Node1</title>
<g id="a_node1"><a xlink:title="call iota regular and check if new message on the listening index are available">
<polygon fill="#bfbfbf" stroke="black" points="48,-0.5 48,-134.5 182,-134.5 182,-0.5 48,-0.5"/>
<text text-anchor="middle" x="115" y="-122.5" font-family="Helvetica,sans-Serif" font-size="10.00">iota::MessageListener</text>
<polyline fill="none" stroke="black" points="48,-115.5 182,-115.5 "/>
<text text-anchor="start" x="56" y="-103.5" font-family="Helvetica,sans-Serif" font-size="10.00"># mIndex</text>
<text text-anchor="start" x="56" y="-92.5" font-family="Helvetica,sans-Serif" font-size="10.00"># mErrorLog</text>
<text text-anchor="start" x="56" y="-81.5" font-family="Helvetica,sans-Serif" font-size="10.00"># mFirstRun</text>
<text text-anchor="start" x="56" y="-70.5" font-family="Helvetica,sans-Serif" font-size="10.00"># mStoredMessageIds</text>
<polyline fill="none" stroke="black" points="48,-63.5 182,-63.5 "/>
<text text-anchor="start" x="56" y="-51.5" font-family="Helvetica,sans-Serif" font-size="10.00">+ MessageListener()</text>
<text text-anchor="start" x="56" y="-40.5" font-family="Helvetica,sans-Serif" font-size="10.00">+ ~MessageListener()</text>
<text text-anchor="start" x="56" y="-29.5" font-family="Helvetica,sans-Serif" font-size="10.00">+ callFromTimer()</text>
<text text-anchor="start" x="56" y="-18.5" font-family="Helvetica,sans-Serif" font-size="10.00">+ getResourceType()</text>
<text text-anchor="start" x="56" y="-7.5" font-family="Helvetica,sans-Serif" font-size="10.00"># updateStoredMessages()</text>
</a>
</g>
</g>
<!-- Node2 -->
<g id="node2" class="node">
<title>Node2</title>
<g id="a_node2"><a xlink:title=" ">
<polygon fill="white" stroke="black" points="0,-177 0,-234 106,-234 106,-177 0,-177"/>
<text text-anchor="middle" x="53" y="-222" font-family="Helvetica,sans-Serif" font-size="10.00">MultithreadContainer</text>
<polyline fill="none" stroke="black" points="0,-215 106,-215 "/>
<text text-anchor="middle" x="53" y="-203" font-family="Helvetica,sans-Serif" font-size="10.00"> </text>
<polyline fill="none" stroke="black" points="0,-196 106,-196 "/>
<text text-anchor="middle" x="53" y="-184" font-family="Helvetica,sans-Serif" font-size="10.00"> </text>
</a>
</g>
</g>
<!-- Node2&#45;&gt;Node1 -->
<g id="edge1" class="edge">
<title>Node2&#45;&gt;Node1</title>
<path fill="none" stroke="midnightblue" d="M69.81,-167.62C74.45,-157.44 79.63,-146.08 84.79,-134.78"/>
<polygon fill="none" stroke="midnightblue" points="66.51,-166.43 65.55,-176.98 72.88,-169.33 66.51,-166.43"/>
</g>
<!-- Node3 -->
<g id="node3" class="node">
<title>Node3</title>
<g id="a_node3"><a xlink:href="class_timer_callback.html" target="_top" xlink:title=" ">
<polygon fill="white" stroke="black" points="124.5,-171.5 124.5,-239.5 231.5,-239.5 231.5,-171.5 124.5,-171.5"/>
<text text-anchor="middle" x="178" y="-227.5" font-family="Helvetica,sans-Serif" font-size="10.00">TimerCallback</text>
<polyline fill="none" stroke="black" points="124.5,-220.5 231.5,-220.5 "/>
<text text-anchor="middle" x="178" y="-208.5" font-family="Helvetica,sans-Serif" font-size="10.00"> </text>
<polyline fill="none" stroke="black" points="124.5,-201.5 231.5,-201.5 "/>
<text text-anchor="start" x="132.5" y="-189.5" font-family="Helvetica,sans-Serif" font-size="10.00">+ callFromTimer()</text>
<text text-anchor="start" x="132.5" y="-178.5" font-family="Helvetica,sans-Serif" font-size="10.00">+ getResourceType()</text>
</a>
</g>
</g>
<!-- Node3&#45;&gt;Node1 -->
<g id="edge2" class="edge">
<title>Node3&#45;&gt;Node1</title>
<path fill="none" stroke="midnightblue" d="M158.35,-162.07C154.31,-153.36 149.97,-144 145.66,-134.68"/>
<polygon fill="none" stroke="midnightblue" points="155.21,-163.63 162.59,-171.23 161.56,-160.69 155.21,-163.63"/>
</g>
</g>
</svg>
