<?xml version="1.0" encoding="UTF-8" standalone="no"?>
<!DOCTYPE svg PUBLIC "-//W3C//DTD SVG 1.1//EN"
 "http://www.w3.org/Graphics/SVG/1.1/DTD/svg11.dtd">
<!-- Generated by graphviz version 2.50.0 (20211204.2007)
 -->
<!-- Title: JsonRequestHandlerFactory Pages: 1 -->
<svg width="167pt" height="193pt"
 viewBox="0.00 0.00 167.00 193.00" xmlns="http://www.w3.org/2000/svg" xmlns:xlink="http://www.w3.org/1999/xlink">
<g id="graph0" class="graph" transform="scale(1 1) rotate(0) translate(4 189)">
<title>JsonRequestHandlerFactory</title>
<polygon fill="white" stroke="transparent" points="-4,4 -4,-189 163,-189 163,4 -4,4"/>
<!-- Node1 -->
<g id="node1" class="node">
<title>Node1</title>
<g id="a_node1"><a xlink:title=" ">
<polygon fill="#bfbfbf" stroke="black" points="2.5,-0.5 2.5,-79.5 156.5,-79.5 156.5,-0.5 2.5,-0.5"/>
<text text-anchor="middle" x="79.5" y="-67.5" font-family="Helvetica,sans-Serif" font-size="10.00">JsonRequestHandlerFactory</text>
<polyline fill="none" stroke="black" points="2.5,-60.5 156.5,-60.5 "/>
<text text-anchor="start" x="10.5" y="-48.5" font-family="Helvetica,sans-Serif" font-size="10.00"># mRemoveGETParameters</text>
<text text-anchor="start" x="10.5" y="-37.5" font-family="Helvetica,sans-Serif" font-size="10.00"># mLogging</text>
<polyline fill="none" stroke="black" points="2.5,-30.5 156.5,-30.5 "/>
<text text-anchor="start" x="10.5" y="-18.5" font-family="Helvetica,sans-Serif" font-size="10.00">+ JsonRequestHandlerFactory()</text>
<text text-anchor="start" x="10.5" y="-7.5" font-family="Helvetica,sans-Serif" font-size="10.00">+ createRequestHandler()</text>
</a>
</g>
</g>
<!-- Node2 -->
<g id="node2" class="node">
<title>Node2</title>
<g id="a_node2"><a xlink:title=" ">
<polygon fill="white" stroke="black" points="0,-116.5 0,-184.5 159,-184.5 159,-116.5 0,-116.5"/>
<text text-anchor="start" x="8" y="-172.5" font-family="Helvetica,sans-Serif" font-size="10.00">Poco::Net::HTTPRequestHandler</text>
<text text-anchor="middle" x="79.5" y="-161.5" font-family="Helvetica,sans-Serif" font-size="10.00">Factory</text>
<polyline fill="none" stroke="black" points="0,-154.5 159,-154.5 "/>
<text text-anchor="middle" x="79.5" y="-142.5" font-family="Helvetica,sans-Serif" font-size="10.00"> </text>
<polyline fill="none" stroke="black" points="0,-135.5 159,-135.5 "/>
<text text-anchor="middle" x="79.5" y="-123.5" font-family="Helvetica,sans-Serif" font-size="10.00"> </text>
</a>
</g>
</g>
<!-- Node2&#45;&gt;Node1 -->
<g id="edge1" class="edge">
<title>Node2&#45;&gt;Node1</title>
<path fill="none" stroke="midnightblue" d="M79.5,-106.27C79.5,-97.48 79.5,-88.28 79.5,-79.65"/>
<polygon fill="none" stroke="midnightblue" points="76,-106.36 79.5,-116.36 83,-106.36 76,-106.36"/>
</g>
</g>
</svg>
