<?xml version="1.0" encoding="UTF-8" standalone="no"?>
<!DOCTYPE svg PUBLIC "-//W3C//DTD SVG 1.1//EN"
 "http://www.w3.org/Graphics/SVG/1.1/DTD/svg11.dtd">
<!-- Generated by graphviz version 2.50.0 (20211204.2007)
 -->
<!-- Title: task::CPUSheduler::checkPendingTasks Pages: 1 -->
<svg width="398pt" height="88pt"
 viewBox="0.00 0.00 398.00 88.00" xmlns="http://www.w3.org/2000/svg" xmlns:xlink="http://www.w3.org/1999/xlink">
<g id="graph0" class="graph" transform="scale(1 1) rotate(0) translate(4 84)">
<title>task::CPUSheduler::checkPendingTasks</title>
<polygon fill="white" stroke="transparent" points="-4,4 -4,-84 394,-84 394,4 -4,4"/>
<!-- Node1 -->
<g id="node1" class="node">
<title>Node1</title>
<g id="a_node1"><a xlink:title=" ">
<polygon fill="#bfbfbf" stroke="black" points="0,-24.5 0,-54.5 106,-54.5 106,-24.5 0,-24.5"/>
<text text-anchor="start" x="8" y="-42.5" font-family="Helvetica,sans-Serif" font-size="10.00">task::CPUSheduler::</text>
<text text-anchor="middle" x="53" y="-31.5" font-family="Helvetica,sans-Serif" font-size="10.00">checkPendingTasks</text>
</a>
</g>
</g>
<!-- Node2 -->
<g id="node2" class="node">
<title>Node2</title>
<g id="a_node2"><a xlink:href="classtask_1_1_c_p_u_sheduler.html#a09a50131d621f8d15c9378b4fdd41023" target="_top" xlink:title=" ">
<polygon fill="white" stroke="black" points="142,-49.5 142,-79.5 248,-79.5 248,-49.5 142,-49.5"/>
<text text-anchor="start" x="150" y="-67.5" font-family="Helvetica,sans-Serif" font-size="10.00">task::CPUSheduler::</text>
<text text-anchor="middle" x="195" y="-56.5" font-family="Helvetica,sans-Serif" font-size="10.00">getNextUndoneTask</text>
</a>
</g>
</g>
<!-- Node1&#45;&gt;Node2 -->
<g id="edge1" class="edge">
<title>Node1&#45;&gt;Node2</title>
<path fill="none" stroke="midnightblue" d="M106.13,-48.81C114.51,-50.31 123.26,-51.87 131.85,-53.4"/>
<polygon fill="midnightblue" stroke="midnightblue" points="131.37,-56.87 141.83,-55.18 132.6,-49.98 131.37,-56.87"/>
</g>
<!-- Node3 -->
<g id="node3" class="node">
<title>Node3</title>
<g id="a_node3"><a xlink:href="classtask_1_1_c_p_u_sheduler.html#a48a6a79bed1a3bd44fed61bcffdb287b" target="_top" xlink:title=" ">
<polygon fill="white" stroke="black" points="142,-0.5 142,-30.5 248,-30.5 248,-0.5 142,-0.5"/>
<text text-anchor="start" x="150" y="-18.5" font-family="Helvetica,sans-Serif" font-size="10.00">task::CPUSheduler::</text>
<text text-anchor="middle" x="195" y="-7.5" font-family="Helvetica,sans-Serif" font-size="10.00">sheduleTask</text>
</a>
</g>
</g>
<!-- Node1&#45;&gt;Node3 -->
<g id="edge2" class="edge">
<title>Node1&#45;&gt;Node3</title>
<path fill="none" stroke="midnightblue" d="M106.13,-30.56C114.51,-29.13 123.26,-27.63 131.85,-26.15"/>
<polygon fill="midnightblue" stroke="midnightblue" points="132.56,-29.58 141.83,-24.44 131.38,-22.68 132.56,-29.58"/>
</g>
<!-- Node4 -->
<g id="node4" class="node">
<title>Node4</title>
<g id="a_node4"><a xlink:href="classtask_1_1_c_p_u_sheduler.html#ab85c18ac001362cabcb6d3688980cb80" target="_top" xlink:title=" ">
<polygon fill="white" stroke="black" points="284,-0.5 284,-30.5 390,-30.5 390,-0.5 284,-0.5"/>
<text text-anchor="start" x="292" y="-18.5" font-family="Helvetica,sans-Serif" font-size="10.00">task::CPUSheduler::</text>
<text text-anchor="middle" x="337" y="-7.5" font-family="Helvetica,sans-Serif" font-size="10.00">getThreadCount</text>
</a>
</g>
</g>
<!-- Node3&#45;&gt;Node4 -->
<g id="edge3" class="edge">
<title>Node3&#45;&gt;Node4</title>
<path fill="none" stroke="midnightblue" d="M248.13,-15.5C256.42,-15.5 265.07,-15.5 273.57,-15.5"/>
<polygon fill="midnightblue" stroke="midnightblue" points="273.83,-19 283.83,-15.5 273.83,-12 273.83,-19"/>
</g>
</g>
</svg>
