<?xml version="1.0" encoding="UTF-8" standalone="no"?>
<!DOCTYPE svg PUBLIC "-//W3C//DTD SVG 1.1//EN"
 "http://www.w3.org/Graphics/SVG/1.1/DTD/svg11.dtd">
<!-- Generated by graphviz version 2.50.0 (20211204.2007)
 -->
<!-- Title: OrderingManager Pages: 1 -->
<svg width="169pt" height="595pt"
 viewBox="0.00 0.00 169.00 595.00" xmlns="http://www.w3.org/2000/svg" xmlns:xlink="http://www.w3.org/1999/xlink">
<g id="graph0" class="graph" transform="scale(1 1) rotate(0) translate(4 591)">
<title>OrderingManager</title>
<polygon fill="white" stroke="transparent" points="-4,4 -4,-591 165,-591 165,4 -4,4"/>
<!-- Node1 -->
<g id="node1" class="node">
<title>Node1</title>
<g id="a_node1"><a xlink:title=" ">
<polygon fill="#bfbfbf" stroke="black" points="0,-0.5 0,-288.5 161,-288.5 161,-0.5 0,-0.5"/>
<text text-anchor="middle" x="80.5" y="-276.5" font-family="Helvetica,sans-Serif" font-size="10.00">OrderingManager</text>
<polyline fill="none" stroke="black" points="0,-269.5 161,-269.5 "/>
<text text-anchor="start" x="8" y="-257.5" font-family="Helvetica,sans-Serif" font-size="10.00"># mMessageValidator</text>
<text text-anchor="start" x="8" y="-246.5" font-family="Helvetica,sans-Serif" font-size="10.00"># mMilestoneTaskObserver</text>
<text text-anchor="start" x="8" y="-235.5" font-family="Helvetica,sans-Serif" font-size="10.00"># mMilestoneTaskObserverMutex</text>
<text text-anchor="start" x="8" y="-224.5" font-family="Helvetica,sans-Serif" font-size="10.00"># mMilestonesWithTransactions</text>
<text text-anchor="start" x="8" y="-213.5" font-family="Helvetica,sans-Serif" font-size="10.00"># mMilestonesWithTransactions</text>
<text text-anchor="start" x="8" y="-202.5" font-family="Helvetica,sans-Serif" font-size="10.00">Mutex</text>
<text text-anchor="start" x="8" y="-191.5" font-family="Helvetica,sans-Serif" font-size="10.00"># mPairedTransactions</text>
<text text-anchor="start" x="8" y="-180.5" font-family="Helvetica,sans-Serif" font-size="10.00"># mPairedTransactionMutex</text>
<text text-anchor="start" x="8" y="-169.5" font-family="Helvetica,sans-Serif" font-size="10.00"># mUnlistenedPairGroups</text>
<text text-anchor="start" x="8" y="-158.5" font-family="Helvetica,sans-Serif" font-size="10.00"># mUnlistenedPairGroupsMutex</text>
<text text-anchor="start" x="8" y="-147.5" font-family="Helvetica,sans-Serif" font-size="10.00"># mFinishMilestoneTaskMutex</text>
<polyline fill="none" stroke="black" points="0,-140.5 161,-140.5 "/>
<text text-anchor="start" x="8" y="-128.5" font-family="Helvetica,sans-Serif" font-size="10.00">+ ~OrderingManager()</text>
<text text-anchor="start" x="8" y="-117.5" font-family="Helvetica,sans-Serif" font-size="10.00">+ pushMilestoneTaskObserver()</text>
<text text-anchor="start" x="8" y="-106.5" font-family="Helvetica,sans-Serif" font-size="10.00">+ popMilestoneTaskObserver()</text>
<text text-anchor="start" x="8" y="-95.5" font-family="Helvetica,sans-Serif" font-size="10.00">+ pushTransaction()</text>
<text text-anchor="start" x="8" y="-84.5" font-family="Helvetica,sans-Serif" font-size="10.00">+ pushPairedTransaction()</text>
<text text-anchor="start" x="8" y="-73.5" font-family="Helvetica,sans-Serif" font-size="10.00">+ findPairedTransaction()</text>
<text text-anchor="start" x="8" y="-62.5" font-family="Helvetica,sans-Serif" font-size="10.00">+ checkExternGroupForPaired</text>
<text text-anchor="start" x="8" y="-51.5" font-family="Helvetica,sans-Serif" font-size="10.00">Transactions()</text>
<text text-anchor="start" x="8" y="-40.5" font-family="Helvetica,sans-Serif" font-size="10.00">+ getIotaMessageValidator()</text>
<text text-anchor="start" x="8" y="-29.5" font-family="Helvetica,sans-Serif" font-size="10.00">+ getInstance()</text>
<text text-anchor="start" x="8" y="-18.5" font-family="Helvetica,sans-Serif" font-size="10.00"># OrderingManager()</text>
<text text-anchor="start" x="8" y="-7.5" font-family="Helvetica,sans-Serif" font-size="10.00"># ThreadFunction()</text>
</a>
</g>
</g>
<!-- Node2 -->
<g id="node2" class="node">
<title>Node2</title>
<g id="a_node2"><a xlink:href="class_uni_lib_1_1lib_1_1_thread.html" target="_top" xlink:title=" ">
<polygon fill="white" stroke="black" points="31.5,-325.5 31.5,-492.5 129.5,-492.5 129.5,-325.5 31.5,-325.5"/>
<text text-anchor="middle" x="80.5" y="-480.5" font-family="Helvetica,sans-Serif" font-size="10.00">UniLib::lib::Thread</text>
<polyline fill="none" stroke="black" points="31.5,-473.5 129.5,-473.5 "/>
<text text-anchor="start" x="39.5" y="-461.5" font-family="Helvetica,sans-Serif" font-size="10.00"># mutex</text>
<text text-anchor="start" x="39.5" y="-450.5" font-family="Helvetica,sans-Serif" font-size="10.00"># mPocoThread</text>
<text text-anchor="start" x="39.5" y="-439.5" font-family="Helvetica,sans-Serif" font-size="10.00"># condition</text>
<text text-anchor="start" x="39.5" y="-428.5" font-family="Helvetica,sans-Serif" font-size="10.00"># exitCalled</text>
<polyline fill="none" stroke="black" points="31.5,-421.5 129.5,-421.5 "/>
<text text-anchor="start" x="39.5" y="-409.5" font-family="Helvetica,sans-Serif" font-size="10.00">+ Thread()</text>
<text text-anchor="start" x="39.5" y="-398.5" font-family="Helvetica,sans-Serif" font-size="10.00">+ ~Thread()</text>
<text text-anchor="start" x="39.5" y="-387.5" font-family="Helvetica,sans-Serif" font-size="10.00">+ threadLock()</text>
<text text-anchor="start" x="39.5" y="-376.5" font-family="Helvetica,sans-Serif" font-size="10.00">+ threadUnlock()</text>
<text text-anchor="start" x="39.5" y="-365.5" font-family="Helvetica,sans-Serif" font-size="10.00">+ condSignal()</text>
<text text-anchor="start" x="39.5" y="-354.5" font-family="Helvetica,sans-Serif" font-size="10.00">+ init()</text>
<text text-anchor="start" x="39.5" y="-343.5" font-family="Helvetica,sans-Serif" font-size="10.00">+ run()</text>
<text text-anchor="start" x="39.5" y="-332.5" font-family="Helvetica,sans-Serif" font-size="10.00"># ThreadFunction()</text>
</a>
</g>
</g>
<!-- Node2&#45;&gt;Node1 -->
<g id="edge1" class="edge">
<title>Node2&#45;&gt;Node1</title>
<path fill="none" stroke="midnightblue" d="M80.5,-315.28C80.5,-306.64 80.5,-297.75 80.5,-288.79"/>
<polygon fill="none" stroke="midnightblue" points="77,-315.3 80.5,-325.3 84,-315.3 77,-315.3"/>
</g>
<!-- Node3 -->
<g id="node3" class="node">
<title>Node3</title>
<g id="a_node3"><a xlink:title=" ">
<polygon fill="white" stroke="black" points="37.5,-529.5 37.5,-586.5 123.5,-586.5 123.5,-529.5 37.5,-529.5"/>
<text text-anchor="middle" x="80.5" y="-574.5" font-family="Helvetica,sans-Serif" font-size="10.00">Poco::Runnable</text>
<polyline fill="none" stroke="black" points="37.5,-567.5 123.5,-567.5 "/>
<text text-anchor="middle" x="80.5" y="-555.5" font-family="Helvetica,sans-Serif" font-size="10.00"> </text>
<polyline fill="none" stroke="black" points="37.5,-548.5 123.5,-548.5 "/>
<text text-anchor="middle" x="80.5" y="-536.5" font-family="Helvetica,sans-Serif" font-size="10.00"> </text>
</a>
</g>
</g>
<!-- Node3&#45;&gt;Node2 -->
<g id="edge2" class="edge">
<title>Node3&#45;&gt;Node2</title>
<path fill="none" stroke="midnightblue" d="M80.5,-519.35C80.5,-511.08 80.5,-502.01 80.5,-492.74"/>
<polygon fill="none" stroke="midnightblue" points="77,-519.35 80.5,-529.35 84,-519.35 77,-519.35"/>
</g>
</g>
</svg>
