<?xml version="1.0" encoding="UTF-8" standalone="no"?>
<!DOCTYPE svg PUBLIC "-//W3C//DTD SVG 1.1//EN"
 "http://www.w3.org/Graphics/SVG/1.1/DTD/svg11.dtd">
<!-- Generated by graphviz version 2.50.0 (20211204.2007)
 -->
<!-- Title: WriteTransactionsToBlockTask Pages: 1 -->
<svg width="172pt" height="713pt"
 viewBox="0.00 0.00 172.00 713.00" xmlns="http://www.w3.org/2000/svg" xmlns:xlink="http://www.w3.org/1999/xlink">
<g id="graph0" class="graph" transform="scale(1 1) rotate(0) translate(4 709)">
<title>WriteTransactionsToBlockTask</title>
<polygon fill="white" stroke="transparent" points="-4,4 -4,-709 168,-709 168,4 -4,4"/>
<!-- Node1 -->
<g id="node1" class="node">
<title>Node1</title>
<g id="a_node1"><a xlink:title="Task for collecting transactions and write it to block chain after timeout.">
<polygon fill="#bfbfbf" stroke="black" points="0,-0.5 0,-200.5 152,-200.5 152,-0.5 0,-0.5"/>
<text text-anchor="middle" x="76" y="-188.5" font-family="Helvetica,sans-Serif" font-size="10.00">WriteTransactionsToBlockTask</text>
<polyline fill="none" stroke="black" points="0,-181.5 152,-181.5 "/>
<text text-anchor="start" x="8" y="-169.5" font-family="Helvetica,sans-Serif" font-size="10.00"># mBlockFile</text>
<text text-anchor="start" x="8" y="-158.5" font-family="Helvetica,sans-Serif" font-size="10.00"># mBlockIndex</text>
<text text-anchor="start" x="8" y="-147.5" font-family="Helvetica,sans-Serif" font-size="10.00"># mCreationDate</text>
<text text-anchor="start" x="8" y="-136.5" font-family="Helvetica,sans-Serif" font-size="10.00"># mFastMutex</text>
<text text-anchor="start" x="8" y="-125.5" font-family="Helvetica,sans-Serif" font-size="10.00"># mTransactions</text>
<polyline fill="none" stroke="black" points="0,-118.5 152,-118.5 "/>
<text text-anchor="start" x="8" y="-106.5" font-family="Helvetica,sans-Serif" font-size="10.00">+ WriteTransactionsToBlock</text>
<text text-anchor="start" x="8" y="-95.5" font-family="Helvetica,sans-Serif" font-size="10.00">Task()</text>
<text text-anchor="start" x="8" y="-84.5" font-family="Helvetica,sans-Serif" font-size="10.00">+ ~WriteTransactionsToBlock</text>
<text text-anchor="start" x="8" y="-73.5" font-family="Helvetica,sans-Serif" font-size="10.00">Task()</text>
<text text-anchor="start" x="8" y="-62.5" font-family="Helvetica,sans-Serif" font-size="10.00">+ getResourceType()</text>
<text text-anchor="start" x="8" y="-51.5" font-family="Helvetica,sans-Serif" font-size="10.00">+ run()</text>
<text text-anchor="start" x="8" y="-40.5" font-family="Helvetica,sans-Serif" font-size="10.00">+ getCreationDate()</text>
<text text-anchor="start" x="8" y="-29.5" font-family="Helvetica,sans-Serif" font-size="10.00">+ addSerializedTransaction()</text>
<text text-anchor="start" x="8" y="-18.5" font-family="Helvetica,sans-Serif" font-size="10.00">+ getTransaction()</text>
<text text-anchor="start" x="8" y="-7.5" font-family="Helvetica,sans-Serif" font-size="10.00">+ getTransactionNrs()</text>
</a>
</g>
</g>
<!-- Node2 -->
<g id="node2" class="node">
<title>Node2</title>
<g id="a_node2"><a xlink:href="classtask_1_1_c_p_u_task.html" target="_top" xlink:title=" ">
<polygon fill="white" stroke="black" points="22.5,-238.5 22.5,-361.5 129.5,-361.5 129.5,-238.5 22.5,-238.5"/>
<text text-anchor="middle" x="76" y="-349.5" font-family="Helvetica,sans-Serif" font-size="10.00">task::CPUTask</text>
<polyline fill="none" stroke="black" points="22.5,-342.5 129.5,-342.5 "/>
<text text-anchor="middle" x="76" y="-330.5" font-family="Helvetica,sans-Serif" font-size="10.00"> </text>
<polyline fill="none" stroke="black" points="22.5,-323.5 129.5,-323.5 "/>
<text text-anchor="start" x="30.5" y="-311.5" font-family="Helvetica,sans-Serif" font-size="10.00">+ CPUTask()</text>
<text text-anchor="start" x="30.5" y="-300.5" font-family="Helvetica,sans-Serif" font-size="10.00">+ CPUTask()</text>
<text text-anchor="start" x="30.5" y="-289.5" font-family="Helvetica,sans-Serif" font-size="10.00">+ CPUTask()</text>
<text text-anchor="start" x="30.5" y="-278.5" font-family="Helvetica,sans-Serif" font-size="10.00">+ ~CPUTask()</text>
<text text-anchor="start" x="30.5" y="-267.5" font-family="Helvetica,sans-Serif" font-size="10.00">+ getResourceType()</text>
<text text-anchor="start" x="30.5" y="-256.5" font-family="Helvetica,sans-Serif" font-size="10.00">+ scheduleTask()</text>
<text text-anchor="start" x="30.5" y="-245.5" font-family="Helvetica,sans-Serif" font-size="10.00"># triggerSheduler()</text>
</a>
</g>
</g>
<!-- Node2&#45;&gt;Node1 -->
<g id="edge1" class="edge">
<title>Node2&#45;&gt;Node1</title>
<path fill="none" stroke="midnightblue" d="M76,-228.36C76,-219.32 76,-209.94 76,-200.55"/>
<polygon fill="none" stroke="midnightblue" points="72.5,-228.4 76,-238.4 79.5,-228.4 72.5,-228.4"/>
</g>
<!-- Node3 -->
<g id="node3" class="node">
<title>Node3</title>
<g id="a_node3"><a xlink:href="classtask_1_1_task.html" target="_top" xlink:title=" ">
<polygon fill="white" stroke="black" points="7,-399.5 7,-599.5 145,-599.5 145,-399.5 7,-399.5"/>
<text text-anchor="middle" x="76" y="-587.5" font-family="Helvetica,sans-Serif" font-size="10.00">task::Task</text>
<polyline fill="none" stroke="black" points="7,-580.5 145,-580.5 "/>
<text text-anchor="start" x="15" y="-568.5" font-family="Helvetica,sans-Serif" font-size="10.00"># mTaskScheduled</text>
<polyline fill="none" stroke="black" points="7,-561.5 145,-561.5 "/>
<text text-anchor="start" x="15" y="-549.5" font-family="Helvetica,sans-Serif" font-size="10.00">+ Task()</text>
<text text-anchor="start" x="15" y="-538.5" font-family="Helvetica,sans-Serif" font-size="10.00">+ Task()</text>
<text text-anchor="start" x="15" y="-527.5" font-family="Helvetica,sans-Serif" font-size="10.00">+ ~Task()</text>
<text text-anchor="start" x="15" y="-516.5" font-family="Helvetica,sans-Serif" font-size="10.00">+ isReady()</text>
<text text-anchor="start" x="15" y="-505.5" font-family="Helvetica,sans-Serif" font-size="10.00">+ isAllParentsReady()</text>
<text text-anchor="start" x="15" y="-494.5" font-family="Helvetica,sans-Serif" font-size="10.00">+ isTaskFinished()</text>
<text text-anchor="start" x="15" y="-483.5" font-family="Helvetica,sans-Serif" font-size="10.00">+ run()</text>
<text text-anchor="start" x="15" y="-472.5" font-family="Helvetica,sans-Serif" font-size="10.00">+ lock()</text>
<text text-anchor="start" x="15" y="-461.5" font-family="Helvetica,sans-Serif" font-size="10.00">+ unlock()</text>
<text text-anchor="start" x="15" y="-450.5" font-family="Helvetica,sans-Serif" font-size="10.00">+ setParentTaskPtrInArray()</text>
<text text-anchor="start" x="15" y="-439.5" font-family="Helvetica,sans-Serif" font-size="10.00">and 10 more...</text>
<text text-anchor="start" x="15" y="-428.5" font-family="Helvetica,sans-Serif" font-size="10.00"># isTaskSheduled()</text>
<text text-anchor="start" x="15" y="-417.5" font-family="Helvetica,sans-Serif" font-size="10.00"># taskScheduled()</text>
<text text-anchor="start" x="15" y="-406.5" font-family="Helvetica,sans-Serif" font-size="10.00"># getParent()</text>
</a>
</g>
</g>
<!-- Node3&#45;&gt;Node2 -->
<g id="edge2" class="edge">
<title>Node3&#45;&gt;Node2</title>
<path fill="none" stroke="midnightblue" d="M76,-389.2C76,-379.78 76,-370.48 76,-361.67"/>
<polygon fill="none" stroke="midnightblue" points="72.5,-389.46 76,-399.46 79.5,-389.46 72.5,-389.46"/>
</g>
<!-- Node4 -->
<g id="node4" class="node">
<title>Node4</title>
<g id="a_node4"><a xlink:href="classtask_1_1_command.html" target="_top" xlink:title=" ">
<polygon fill="white" stroke="black" points="32.5,-647.5 32.5,-704.5 119.5,-704.5 119.5,-647.5 32.5,-647.5"/>
<text text-anchor="middle" x="76" y="-692.5" font-family="Helvetica,sans-Serif" font-size="10.00">task::Command</text>
<polyline fill="none" stroke="black" points="32.5,-685.5 119.5,-685.5 "/>
<text text-anchor="middle" x="76" y="-673.5" font-family="Helvetica,sans-Serif" font-size="10.00"> </text>
<polyline fill="none" stroke="black" points="32.5,-666.5 119.5,-666.5 "/>
<text text-anchor="start" x="40.5" y="-654.5" font-family="Helvetica,sans-Serif" font-size="10.00">+ taskFinished()</text>
</a>
</g>
</g>
<!-- Node4&#45;&gt;Node3 -->
<g id="edge3" class="edge">
<title>Node4&#45;&gt;Node3</title>
<path fill="none" stroke="#404040" d="M76,-647.35C76,-637.2 76,-624.98 76,-611.98"/>
<polygon fill="none" stroke="#404040" points="76,-611.87 72,-605.87 76,-599.87 80,-605.87 76,-611.87"/>
<text text-anchor="middle" x="120" y="-621" font-family="Helvetica,sans-Serif" font-size="10.00"> #mFinishCommand</text>
</g>
</g>
</svg>
