<?xml version="1.0" encoding="UTF-8" standalone="no"?>
<!DOCTYPE svg PUBLIC "-//W3C//DTD SVG 1.1//EN"
 "http://www.w3.org/Graphics/SVG/1.1/DTD/svg11.dtd">
<!-- Generated by graphviz version 2.50.0 (20211204.2007)
 -->
<!-- Title: model::files::Block::validateHash Pages: 1 -->
<svg width="421pt" height="133pt"
 viewBox="0.00 0.00 421.00 132.50" xmlns="http://www.w3.org/2000/svg" xmlns:xlink="http://www.w3.org/1999/xlink">
<g id="graph0" class="graph" transform="scale(1 1) rotate(0) translate(4 128.5)">
<title>model::files::Block::validateHash</title>
<polygon fill="white" stroke="transparent" points="-4,4 -4,-128.5 417,-128.5 417,4 -4,4"/>
<!-- Node1 -->
<g id="node1" class="node">
<title>Node1</title>
<g id="a_node1"><a xlink:title=" ">
<polygon fill="#bfbfbf" stroke="black" points="0,-41.5 0,-71.5 97,-71.5 97,-41.5 0,-41.5"/>
<text text-anchor="start" x="8" y="-59.5" font-family="Helvetica,sans-Serif" font-size="10.00">model::files::Block</text>
<text text-anchor="middle" x="48.5" y="-48.5" font-family="Helvetica,sans-Serif" font-size="10.00">::validateHash</text>
</a>
</g>
</g>
<!-- Node2 -->
<g id="node2" class="node">
<title>Node2</title>
<g id="a_node2"><a xlink:href="classmodel_1_1files_1_1_block.html#adc947669499b526c4c86ed5d50600128" target="_top" xlink:title="very expensive, read in whole file and calculate hash">
<polygon fill="white" stroke="black" points="133,-63.5 133,-93.5 230,-93.5 230,-63.5 133,-63.5"/>
<text text-anchor="start" x="141" y="-81.5" font-family="Helvetica,sans-Serif" font-size="10.00">model::files::Block</text>
<text text-anchor="middle" x="181.5" y="-70.5" font-family="Helvetica,sans-Serif" font-size="10.00">::calculateHash</text>
</a>
</g>
</g>
<!-- Node1&#45;&gt;Node2 -->
<g id="edge1" class="edge">
<title>Node1&#45;&gt;Node2</title>
<path fill="none" stroke="midnightblue" d="M97.16,-64.5C105.47,-65.9 114.19,-67.36 122.74,-68.8"/>
<polygon fill="midnightblue" stroke="midnightblue" points="122.21,-72.26 132.65,-70.46 123.37,-65.36 122.21,-72.26"/>
</g>
<!-- Node3 -->
<g id="node3" class="node">
<title>Node3</title>
<g id="a_node3"><a xlink:href="class_file_lock_manager.html#a8399a835b02b2013283423050efa52ba" target="_top" xlink:title=" ">
<polygon fill="white" stroke="black" points="266,-105 266,-124 413,-124 413,-105 266,-105"/>
<text text-anchor="middle" x="339.5" y="-112" font-family="Helvetica,sans-Serif" font-size="10.00">FileLockManager::getInstance</text>
</a>
</g>
</g>
<!-- Node1&#45;&gt;Node3 -->
<g id="edge5" class="edge">
<title>Node1&#45;&gt;Node3</title>
<path fill="none" stroke="midnightblue" d="M69.92,-71.55C86.13,-82.58 109.84,-96.76 133,-103.5 172.37,-114.95 217.73,-118.35 255.8,-118.61"/>
<polygon fill="midnightblue" stroke="midnightblue" points="255.83,-122.11 265.83,-118.61 255.83,-115.11 255.83,-122.11"/>
</g>
<!-- Node4 -->
<g id="node4" class="node">
<title>Node4</title>
<g id="a_node4"><a xlink:href="class_logger_manager.html#a88f5ea1c5a1bf96ccb17ffabc3fd9a9b" target="_top" xlink:title=" ">
<polygon fill="white" stroke="black" points="269.5,-59 269.5,-78 409.5,-78 409.5,-59 269.5,-59"/>
<text text-anchor="middle" x="339.5" y="-66" font-family="Helvetica,sans-Serif" font-size="10.00">LoggerManager::getInstance</text>
</a>
</g>
</g>
<!-- Node1&#45;&gt;Node4 -->
<g id="edge6" class="edge">
<title>Node1&#45;&gt;Node4</title>
<path fill="none" stroke="midnightblue" d="M97.19,-55.16C108.9,-54.89 121.4,-54.64 133,-54.5 176.11,-53.98 186.98,-51.74 230,-54.5 241.43,-55.23 253.51,-56.4 265.28,-57.75"/>
<polygon fill="midnightblue" stroke="midnightblue" points="265.18,-61.27 275.52,-58.98 266.01,-54.32 265.18,-61.27"/>
</g>
<!-- Node5 -->
<g id="node5" class="node">
<title>Node5</title>
<g id="a_node5"><a xlink:href="classmodel_1_1files_1_1_block.html#ab5cd6a6f2c7ecc61d98a2f990bc59c5b" target="_top" xlink:title="open file stream if not already open and set mCurrentFileSize via tellg, update mLastUsed">
<polygon fill="white" stroke="black" points="291,-0.5 291,-30.5 388,-30.5 388,-0.5 291,-0.5"/>
<text text-anchor="start" x="299" y="-18.5" font-family="Helvetica,sans-Serif" font-size="10.00">model::files::Block</text>
<text text-anchor="middle" x="339.5" y="-7.5" font-family="Helvetica,sans-Serif" font-size="10.00">::getOpenFile</text>
</a>
</g>
</g>
<!-- Node1&#45;&gt;Node5 -->
<g id="edge7" class="edge">
<title>Node1&#45;&gt;Node5</title>
<path fill="none" stroke="midnightblue" d="M97.22,-49.73C147.53,-42.59 226.79,-31.35 280.63,-23.71"/>
<polygon fill="midnightblue" stroke="midnightblue" points="281.3,-27.15 290.71,-22.28 280.31,-20.22 281.3,-27.15"/>
</g>
<!-- Node2&#45;&gt;Node3 -->
<g id="edge2" class="edge">
<title>Node2&#45;&gt;Node3</title>
<path fill="none" stroke="midnightblue" d="M230.15,-89.5C248.22,-93.67 268.86,-98.43 287.25,-102.67"/>
<polygon fill="midnightblue" stroke="midnightblue" points="286.67,-106.13 297.2,-104.97 288.25,-99.31 286.67,-106.13"/>
</g>
<!-- Node2&#45;&gt;Node4 -->
<g id="edge3" class="edge">
<title>Node2&#45;&gt;Node4</title>
<path fill="none" stroke="midnightblue" d="M230.15,-75.45C239.33,-74.86 249.17,-74.23 259.04,-73.59"/>
<polygon fill="midnightblue" stroke="midnightblue" points="259.56,-77.07 269.32,-72.93 259.11,-70.08 259.56,-77.07"/>
</g>
<!-- Node2&#45;&gt;Node5 -->
<g id="edge4" class="edge">
<title>Node2&#45;&gt;Node5</title>
<path fill="none" stroke="midnightblue" d="M219.87,-63.41C241.4,-54.71 268.66,-43.7 291.62,-34.43"/>
<polygon fill="midnightblue" stroke="midnightblue" points="293.21,-37.57 301.17,-30.58 290.59,-31.08 293.21,-37.57"/>
</g>
</g>
</svg>
