<?xml version="1.0" encoding="UTF-8" standalone="no"?>
<!DOCTYPE svg PUBLIC "-//W3C//DTD SVG 1.1//EN"
 "http://www.w3.org/Graphics/SVG/1.1/DTD/svg11.dtd">
<!-- Generated by graphviz version 2.50.0 (20211204.2007)
 -->
<!-- Title: IotaMessageToTransactionTask Pages: 1 -->
<svg width="262pt" height="701pt"
 viewBox="0.00 0.00 261.50 701.00" xmlns="http://www.w3.org/2000/svg" xmlns:xlink="http://www.w3.org/1999/xlink">
<g id="graph0" class="graph" transform="scale(1 1) rotate(0) translate(4 697)">
<title>IotaMessageToTransactionTask</title>
<polygon fill="white" stroke="transparent" points="-4,4 -4,-697 257.5,-697 257.5,4 -4,4"/>
<!-- Node1 -->
<g id="node1" class="node">
<title>Node1</title>
<g id="a_node1"><a xlink:title=": Get confirmed transaction id from Iota, process it">
<polygon fill="#bfbfbf" stroke="black" points="88,-0.5 88,-156.5 242,-156.5 242,-0.5 88,-0.5"/>
<text text-anchor="middle" x="165" y="-144.5" font-family="Helvetica,sans-Serif" font-size="10.00">IotaMessageToTransactionTask</text>
<polyline fill="none" stroke="black" points="88,-137.5 242,-137.5 "/>
<text text-anchor="start" x="96" y="-125.5" font-family="Helvetica,sans-Serif" font-size="10.00"># mMilestoneIndex</text>
<text text-anchor="start" x="96" y="-114.5" font-family="Helvetica,sans-Serif" font-size="10.00"># mTimestamp</text>
<text text-anchor="start" x="96" y="-103.5" font-family="Helvetica,sans-Serif" font-size="10.00"># mTransaction</text>
<polyline fill="none" stroke="black" points="88,-96.5 242,-96.5 "/>
<text text-anchor="start" x="96" y="-84.5" font-family="Helvetica,sans-Serif" font-size="10.00">+ IotaMessageToTransaction</text>
<text text-anchor="start" x="96" y="-73.5" font-family="Helvetica,sans-Serif" font-size="10.00">Task()</text>
<text text-anchor="start" x="96" y="-62.5" font-family="Helvetica,sans-Serif" font-size="10.00">+ getResourceType()</text>
<text text-anchor="start" x="96" y="-51.5" font-family="Helvetica,sans-Serif" font-size="10.00">+ run()</text>
<text text-anchor="start" x="96" y="-40.5" font-family="Helvetica,sans-Serif" font-size="10.00">+ ~IotaMessageToTransaction</text>
<text text-anchor="start" x="96" y="-29.5" font-family="Helvetica,sans-Serif" font-size="10.00">Task()</text>
<text text-anchor="start" x="96" y="-18.5" font-family="Helvetica,sans-Serif" font-size="10.00">+ getMilestoneIndex()</text>
<text text-anchor="start" x="96" y="-7.5" font-family="Helvetica,sans-Serif" font-size="10.00"># getGradidoGroupAlias()</text>
</a>
</g>
</g>
<!-- Node2 -->
<g id="node2" class="node">
<title>Node2</title>
<g id="a_node2"><a xlink:href="classtask_1_1_c_p_u_task.html" target="_top" xlink:title=" ">
<polygon fill="white" stroke="black" points="15.5,-215.5 15.5,-338.5 122.5,-338.5 122.5,-215.5 15.5,-215.5"/>
<text text-anchor="middle" x="69" y="-326.5" font-family="Helvetica,sans-Serif" font-size="10.00">task::CPUTask</text>
<polyline fill="none" stroke="black" points="15.5,-319.5 122.5,-319.5 "/>
<text text-anchor="middle" x="69" y="-307.5" font-family="Helvetica,sans-Serif" font-size="10.00"> </text>
<polyline fill="none" stroke="black" points="15.5,-300.5 122.5,-300.5 "/>
<text text-anchor="start" x="23.5" y="-288.5" font-family="Helvetica,sans-Serif" font-size="10.00">+ CPUTask()</text>
<text text-anchor="start" x="23.5" y="-277.5" font-family="Helvetica,sans-Serif" font-size="10.00">+ CPUTask()</text>
<text text-anchor="start" x="23.5" y="-266.5" font-family="Helvetica,sans-Serif" font-size="10.00">+ CPUTask()</text>
<text text-anchor="start" x="23.5" y="-255.5" font-family="Helvetica,sans-Serif" font-size="10.00">+ ~CPUTask()</text>
<text text-anchor="start" x="23.5" y="-244.5" font-family="Helvetica,sans-Serif" font-size="10.00">+ getResourceType()</text>
<text text-anchor="start" x="23.5" y="-233.5" font-family="Helvetica,sans-Serif" font-size="10.00">+ scheduleTask()</text>
<text text-anchor="start" x="23.5" y="-222.5" font-family="Helvetica,sans-Serif" font-size="10.00"># triggerSheduler()</text>
</a>
</g>
</g>
<!-- Node2&#45;&gt;Node1 -->
<g id="edge1" class="edge">
<title>Node2&#45;&gt;Node1</title>
<path fill="none" stroke="midnightblue" d="M103.14,-206.13C110.98,-190.06 119.37,-172.89 127.36,-156.55"/>
<polygon fill="none" stroke="midnightblue" points="99.83,-204.92 98.59,-215.44 106.12,-207.99 99.83,-204.92"/>
</g>
<!-- Node3 -->
<g id="node3" class="node">
<title>Node3</title>
<g id="a_node3"><a xlink:href="classtask_1_1_task.html" target="_top" xlink:title=" ">
<polygon fill="white" stroke="black" points="0,-387.5 0,-587.5 138,-587.5 138,-387.5 0,-387.5"/>
<text text-anchor="middle" x="69" y="-575.5" font-family="Helvetica,sans-Serif" font-size="10.00">task::Task</text>
<polyline fill="none" stroke="black" points="0,-568.5 138,-568.5 "/>
<text text-anchor="start" x="8" y="-556.5" font-family="Helvetica,sans-Serif" font-size="10.00"># mTaskScheduled</text>
<polyline fill="none" stroke="black" points="0,-549.5 138,-549.5 "/>
<text text-anchor="start" x="8" y="-537.5" font-family="Helvetica,sans-Serif" font-size="10.00">+ Task()</text>
<text text-anchor="start" x="8" y="-526.5" font-family="Helvetica,sans-Serif" font-size="10.00">+ Task()</text>
<text text-anchor="start" x="8" y="-515.5" font-family="Helvetica,sans-Serif" font-size="10.00">+ ~Task()</text>
<text text-anchor="start" x="8" y="-504.5" font-family="Helvetica,sans-Serif" font-size="10.00">+ isReady()</text>
<text text-anchor="start" x="8" y="-493.5" font-family="Helvetica,sans-Serif" font-size="10.00">+ isAllParentsReady()</text>
<text text-anchor="start" x="8" y="-482.5" font-family="Helvetica,sans-Serif" font-size="10.00">+ isTaskFinished()</text>
<text text-anchor="start" x="8" y="-471.5" font-family="Helvetica,sans-Serif" font-size="10.00">+ run()</text>
<text text-anchor="start" x="8" y="-460.5" font-family="Helvetica,sans-Serif" font-size="10.00">+ lock()</text>
<text text-anchor="start" x="8" y="-449.5" font-family="Helvetica,sans-Serif" font-size="10.00">+ unlock()</text>
<text text-anchor="start" x="8" y="-438.5" font-family="Helvetica,sans-Serif" font-size="10.00">+ setParentTaskPtrInArray()</text>
<text text-anchor="start" x="8" y="-427.5" font-family="Helvetica,sans-Serif" font-size="10.00">and 10 more...</text>
<text text-anchor="start" x="8" y="-416.5" font-family="Helvetica,sans-Serif" font-size="10.00"># isTaskSheduled()</text>
<text text-anchor="start" x="8" y="-405.5" font-family="Helvetica,sans-Serif" font-size="10.00"># taskScheduled()</text>
<text text-anchor="start" x="8" y="-394.5" font-family="Helvetica,sans-Serif" font-size="10.00"># getParent()</text>
</a>
</g>
</g>
<!-- Node3&#45;&gt;Node2 -->
<g id="edge2" class="edge">
<title>Node3&#45;&gt;Node2</title>
<path fill="none" stroke="midnightblue" d="M69,-377.25C69,-363.94 69,-350.73 69,-338.51"/>
<polygon fill="none" stroke="midnightblue" points="65.5,-377.44 69,-387.44 72.5,-377.44 65.5,-377.44"/>
</g>
<!-- Node4 -->
<g id="node4" class="node">
<title>Node4</title>
<g id="a_node4"><a xlink:href="classtask_1_1_command.html" target="_top" xlink:title=" ">
<polygon fill="white" stroke="black" points="25.5,-635.5 25.5,-692.5 112.5,-692.5 112.5,-635.5 25.5,-635.5"/>
<text text-anchor="middle" x="69" y="-680.5" font-family="Helvetica,sans-Serif" font-size="10.00">task::Command</text>
<polyline fill="none" stroke="black" points="25.5,-673.5 112.5,-673.5 "/>
<text text-anchor="middle" x="69" y="-661.5" font-family="Helvetica,sans-Serif" font-size="10.00"> </text>
<polyline fill="none" stroke="black" points="25.5,-654.5 112.5,-654.5 "/>
<text text-anchor="start" x="33.5" y="-642.5" font-family="Helvetica,sans-Serif" font-size="10.00">+ taskFinished()</text>
</a>
</g>
</g>
<!-- Node4&#45;&gt;Node3 -->
<g id="edge3" class="edge">
<title>Node4&#45;&gt;Node3</title>
<path fill="none" stroke="#404040" d="M69,-635.35C69,-625.2 69,-612.98 69,-599.98"/>
<polygon fill="none" stroke="#404040" points="69,-599.87 65,-593.87 69,-587.87 73,-593.87 69,-599.87"/>
<text text-anchor="middle" x="113" y="-609" font-family="Helvetica,sans-Serif" font-size="10.00"> #mFinishCommand</text>
</g>
<!-- Node5 -->
<g id="node5" class="node">
<title>Node5</title>
<g id="a_node5"><a xlink:href="classiota_1_1_message_id.html" target="_top" xlink:title=" ">
<polygon fill="white" stroke="black" points="140.5,-204.5 140.5,-349.5 253.5,-349.5 253.5,-204.5 140.5,-204.5"/>
<text text-anchor="middle" x="197" y="-337.5" font-family="Helvetica,sans-Serif" font-size="10.00">iota::MessageId</text>
<polyline fill="none" stroke="black" points="140.5,-330.5 253.5,-330.5 "/>
<text text-anchor="start" x="148.5" y="-318.5" font-family="Helvetica,sans-Serif" font-size="10.00"># mMessageId</text>
<polyline fill="none" stroke="black" points="140.5,-311.5 253.5,-311.5 "/>
<text text-anchor="start" x="148.5" y="-299.5" font-family="Helvetica,sans-Serif" font-size="10.00">+ MessageId()</text>
<text text-anchor="start" x="148.5" y="-288.5" font-family="Helvetica,sans-Serif" font-size="10.00">+ operator==()</text>
<text text-anchor="start" x="148.5" y="-277.5" font-family="Helvetica,sans-Serif" font-size="10.00">+ operator&lt;()</text>
<text text-anchor="start" x="148.5" y="-266.5" font-family="Helvetica,sans-Serif" font-size="10.00">+ fromByteArray()</text>
<text text-anchor="start" x="148.5" y="-255.5" font-family="Helvetica,sans-Serif" font-size="10.00">+ fromHex()</text>
<text text-anchor="start" x="148.5" y="-244.5" font-family="Helvetica,sans-Serif" font-size="10.00">+ toMemoryBin()</text>
<text text-anchor="start" x="148.5" y="-233.5" font-family="Helvetica,sans-Serif" font-size="10.00">+ toHex()</text>
<text text-anchor="start" x="148.5" y="-222.5" font-family="Helvetica,sans-Serif" font-size="10.00">+ isEmpty()</text>
<text text-anchor="start" x="148.5" y="-211.5" font-family="Helvetica,sans-Serif" font-size="10.00">+ getMessageIdByte()</text>
</a>
</g>
</g>
<!-- Node5&#45;&gt;Node1 -->
<g id="edge4" class="edge">
<title>Node5&#45;&gt;Node1</title>
<path fill="none" stroke="#404040" d="M185.31,-204.22C183.42,-192.63 181.45,-180.51 179.5,-168.56"/>
<polygon fill="none" stroke="#404040" points="179.5,-168.55 174.59,-163.27 177.57,-156.71 182.49,-161.99 179.5,-168.55"/>
<text text-anchor="middle" x="213" y="-178" font-family="Helvetica,sans-Serif" font-size="10.00"> #mMessageId</text>
</g>
</g>
</svg>
