<?xml version="1.0" encoding="UTF-8" standalone="no"?>
<!DOCTYPE svg PUBLIC "-//W3C//DTD SVG 1.1//EN"
 "http://www.w3.org/Graphics/SVG/1.1/DTD/svg11.dtd">
<!-- Generated by graphviz version 2.50.0 (20211204.2007)
 -->
<!-- Title: task::Task::setName Pages: 1 -->
<svg width="332pt" height="88pt"
 viewBox="0.00 0.00 332.00 88.00" xmlns="http://www.w3.org/2000/svg" xmlns:xlink="http://www.w3.org/1999/xlink">
<g id="graph0" class="graph" transform="scale(1 1) rotate(0) translate(4 84)">
<title>task::Task::setName</title>
<polygon fill="white" stroke="transparent" points="-4,4 -4,-84 328,-84 328,4 -4,4"/>
<!-- Node1 -->
<g id="node1" class="node">
<title>Node1</title>
<g id="a_node1"><a xlink:title=" ">
<polygon fill="#bfbfbf" stroke="black" points="217,-30 217,-49 324,-49 324,-30 217,-30"/>
<text text-anchor="middle" x="270.5" y="-37" font-family="Helvetica,sans-Serif" font-size="10.00">task::Task::setName</text>
</a>
</g>
</g>
<!-- Node2 -->
<g id="node2" class="node">
<title>Node2</title>
<g id="a_node2"><a xlink:href="class_iota_message_to_transaction_task.html#a30201fafa56a1777ea30a95de7b7d0f2" target="_top" xlink:title=" ">
<polygon fill="white" stroke="black" points="0,-49.5 0,-79.5 181,-79.5 181,-49.5 0,-49.5"/>
<text text-anchor="start" x="8" y="-67.5" font-family="Helvetica,sans-Serif" font-size="10.00">IotaMessageToTransaction</text>
<text text-anchor="middle" x="90.5" y="-56.5" font-family="Helvetica,sans-Serif" font-size="10.00">Task::IotaMessageToTransactionTask</text>
</a>
</g>
</g>
<!-- Node1&#45;&gt;Node2 -->
<g id="edge1" class="edge">
<title>Node1&#45;&gt;Node2</title>
<path fill="none" stroke="midnightblue" d="M206.41,-48.36C198.23,-49.51 189.73,-50.7 181.22,-51.9"/>
<polygon fill="midnightblue" stroke="midnightblue" points="207.16,-51.79 216.58,-46.93 206.19,-44.86 207.16,-51.79"/>
</g>
<!-- Node3 -->
<g id="node3" class="node">
<title>Node3</title>
<g id="a_node3"><a xlink:href="classmodel_1_1files_1_1_block_append_line_task.html#a3e6b73849ab6269435c86a2c89f44036" target="_top" xlink:title="called from task scheduler, maybe from another thread">
<polygon fill="white" stroke="black" points="25.5,-0.5 25.5,-30.5 155.5,-30.5 155.5,-0.5 25.5,-0.5"/>
<text text-anchor="start" x="33.5" y="-18.5" font-family="Helvetica,sans-Serif" font-size="10.00">model::files::BlockAppend</text>
<text text-anchor="middle" x="90.5" y="-7.5" font-family="Helvetica,sans-Serif" font-size="10.00">LineTask::run</text>
</a>
</g>
</g>
<!-- Node1&#45;&gt;Node3 -->
<g id="edge2" class="edge">
<title>Node1&#45;&gt;Node3</title>
<path fill="none" stroke="midnightblue" d="M206.48,-31C189.96,-28.77 172.12,-26.37 155.54,-24.14"/>
<polygon fill="midnightblue" stroke="midnightblue" points="206.2,-34.5 216.58,-32.36 207.13,-27.56 206.2,-34.5"/>
</g>
</g>
</svg>
