<?xml version="1.0" encoding="UTF-8" standalone="no"?>
<!DOCTYPE svg PUBLIC "-//W3C//DTD SVG 1.1//EN"
 "http://www.w3.org/Graphics/SVG/1.1/DTD/svg11.dtd">
<!-- Generated by graphviz version 2.50.0 (20211204.2007)
 -->
<!-- Title: controller::GroupIndex::getFolder Pages: 1 -->
<svg width="419pt" height="78pt"
 viewBox="0.00 0.00 419.00 77.50" xmlns="http://www.w3.org/2000/svg" xmlns:xlink="http://www.w3.org/1999/xlink">
<g id="graph0" class="graph" transform="scale(1 1) rotate(0) translate(4 73.5)">
<title>controller::GroupIndex::getFolder</title>
<polygon fill="white" stroke="transparent" points="-4,4 -4,-73.5 415,-73.5 415,4 -4,4"/>
<!-- Node1 -->
<g id="node1" class="node">
<title>Node1</title>
<g id="a_node1"><a xlink:title="get full folder path for group public key if the hash from groupPublicKey exist multiple time,...">
<polygon fill="#bfbfbf" stroke="black" points="299,-17 299,-47 411,-47 411,-17 299,-17"/>
<text text-anchor="start" x="307" y="-35" font-family="Helvetica,sans-Serif" font-size="10.00">controller::GroupIndex</text>
<text text-anchor="middle" x="355" y="-24" font-family="Helvetica,sans-Serif" font-size="10.00">::getFolder</text>
</a>
</g>
</g>
<!-- Node2 -->
<g id="node2" class="node">
<title>Node2</title>
<g id="a_node2"><a xlink:href="class_group_manager.html#ac42a491ca23c0fec6a46f5cf9bee8a99" target="_top" xlink:title="getting group object from Poco::AccessExpireCache or create if not in cache and put in cache">
<polygon fill="white" stroke="black" points="135,-22.5 135,-41.5 263,-41.5 263,-22.5 135,-22.5"/>
<text text-anchor="middle" x="199" y="-29.5" font-family="Helvetica,sans-Serif" font-size="10.00">GroupManager::findGroup</text>
</a>
</g>
</g>
<!-- Node1&#45;&gt;Node2 -->
<g id="edge1" class="edge">
<title>Node1&#45;&gt;Node2</title>
<path fill="none" stroke="midnightblue" d="M288.66,-32C280.21,-32 271.57,-32 263.16,-32"/>
<polygon fill="midnightblue" stroke="midnightblue" points="288.84,-35.5 298.84,-32 288.84,-28.5 288.84,-35.5"/>
</g>
<!-- Node3 -->
<g id="node3" class="node">
<title>Node3</title>
<g id="a_node3"><a xlink:href="classcontroller_1_1_group.html#a9d18405e4740fc3f2386e1ed68f3c94c" target="_top" xlink:title="add transaction from iota into blockchain, important! must be called in correct order">
<polygon fill="white" stroke="black" points="2,-39 2,-69 97,-69 97,-39 2,-39"/>
<text text-anchor="start" x="10" y="-57" font-family="Helvetica,sans-Serif" font-size="10.00">controller::Group::</text>
<text text-anchor="middle" x="49.5" y="-46" font-family="Helvetica,sans-Serif" font-size="10.00">addTransaction</text>
</a>
</g>
</g>
<!-- Node2&#45;&gt;Node3 -->
<g id="edge2" class="edge">
<title>Node2&#45;&gt;Node3</title>
<path fill="none" stroke="midnightblue" d="M124.58,-42.95C115.32,-44.33 106.06,-45.71 97.37,-47.01"/>
<polygon fill="midnightblue" stroke="midnightblue" points="125.22,-46.39 134.59,-41.46 124.18,-39.47 125.22,-46.39"/>
</g>
<!-- Node4 -->
<g id="node4" class="node">
<title>Node4</title>
<g id="a_node4"><a xlink:href="class_group_manager.html#a020d987bd819a1a76f3ca8dcbdd03ab7" target="_top" xlink:title="load group index file and fill hash list with group public key = folder name pairs">
<polygon fill="white" stroke="black" points="0,-0.5 0,-19.5 99,-19.5 99,-0.5 0,-0.5"/>
<text text-anchor="middle" x="49.5" y="-7.5" font-family="Helvetica,sans-Serif" font-size="10.00">GroupManager::init</text>
</a>
</g>
</g>
<!-- Node2&#45;&gt;Node4 -->
<g id="edge3" class="edge">
<title>Node2&#45;&gt;Node4</title>
<path fill="none" stroke="midnightblue" d="M124.52,-21.04C115.91,-19.76 107.3,-18.47 99.15,-17.26"/>
<polygon fill="midnightblue" stroke="midnightblue" points="124.18,-24.53 134.59,-22.54 125.22,-17.61 124.18,-24.53"/>
</g>
</g>
</svg>
