<?xml version="1.0" encoding="UTF-8" standalone="no"?>
<!DOCTYPE svg PUBLIC "-//W3C//DTD SVG 1.1//EN"
 "http://www.w3.org/Graphics/SVG/1.1/DTD/svg11.dtd">
<!-- Generated by graphviz version 2.50.0 (20211204.2007)
 -->
<!-- Title: iota::MessageId::fromHex Pages: 1 -->
<svg width="450pt" height="72pt"
 viewBox="0.00 0.00 450.00 71.50" xmlns="http://www.w3.org/2000/svg" xmlns:xlink="http://www.w3.org/1999/xlink">
<g id="graph0" class="graph" transform="scale(1 1) rotate(0) translate(4 67.5)">
<title>iota::MessageId::fromHex</title>
<polygon fill="white" stroke="transparent" points="-4,4 -4,-67.5 446,-67.5 446,4 -4,4"/>
<!-- Node1 -->
<g id="node1" class="node">
<title>Node1</title>
<g id="a_node1"><a xlink:title=" ">
<polygon fill="#bfbfbf" stroke="black" points="314,-19.5 314,-38.5 442,-38.5 442,-19.5 314,-19.5"/>
<text text-anchor="middle" x="378" y="-26.5" font-family="Helvetica,sans-Serif" font-size="10.00">iota::MessageId::fromHex</text>
</a>
</g>
</g>
<!-- Node2 -->
<g id="node2" class="node">
<title>Node2</title>
<g id="a_node2"><a xlink:href="namespaceiota.html#a6c89580c398001df96c6ce3a8a41cb0f" target="_top" xlink:title=" ">
<polygon fill="white" stroke="black" points="169,-38.5 169,-57.5 258,-57.5 258,-38.5 169,-38.5"/>
<text text-anchor="middle" x="213.5" y="-45.5" font-family="Helvetica,sans-Serif" font-size="10.00">iota::findByIndex</text>
</a>
</g>
</g>
<!-- Node1&#45;&gt;Node2 -->
<g id="edge1" class="edge">
<title>Node1&#45;&gt;Node2</title>
<path fill="none" stroke="midnightblue" d="M303.61,-37.58C288.13,-39.39 272.26,-41.25 258.29,-42.88"/>
<polygon fill="midnightblue" stroke="midnightblue" points="304.18,-41.04 313.71,-36.4 303.37,-34.09 304.18,-41.04"/>
</g>
<!-- Node4 -->
<g id="node4" class="node">
<title>Node4</title>
<g id="a_node4"><a xlink:href="namespaceiota.html#a6f12b7e240b305cb19dc06eab1a93d9b" target="_top" xlink:title=" ">
<polygon fill="white" stroke="black" points="149,-0.5 149,-19.5 278,-19.5 278,-0.5 149,-0.5"/>
<text text-anchor="middle" x="213.5" y="-7.5" font-family="Helvetica,sans-Serif" font-size="10.00">iota::getMilestoneByIndex</text>
</a>
</g>
</g>
<!-- Node1&#45;&gt;Node4 -->
<g id="edge3" class="edge">
<title>Node1&#45;&gt;Node4</title>
<path fill="none" stroke="midnightblue" d="M303.76,-20.44C295.21,-19.44 286.55,-18.42 278.15,-17.44"/>
<polygon fill="midnightblue" stroke="midnightblue" points="303.37,-23.91 313.71,-21.6 304.18,-16.96 303.37,-23.91"/>
</g>
<!-- Node3 -->
<g id="node3" class="node">
<title>Node3</title>
<g id="a_node3"><a xlink:href="classiota_1_1_message_listener.html#ac74a94a38ef22e72295d183ea71af35d" target="_top" xlink:title=" ">
<polygon fill="white" stroke="black" points="0,-33 0,-63 113,-63 113,-33 0,-33"/>
<text text-anchor="start" x="8" y="-51" font-family="Helvetica,sans-Serif" font-size="10.00">iota::MessageListener</text>
<text text-anchor="middle" x="56.5" y="-40" font-family="Helvetica,sans-Serif" font-size="10.00">::callFromTimer</text>
</a>
</g>
</g>
<!-- Node2&#45;&gt;Node3 -->
<g id="edge2" class="edge">
<title>Node2&#45;&gt;Node3</title>
<path fill="none" stroke="midnightblue" d="M158.5,-48C143.85,-48 127.97,-48 113.23,-48"/>
<polygon fill="midnightblue" stroke="midnightblue" points="158.91,-51.5 168.91,-48 158.91,-44.5 158.91,-51.5"/>
</g>
</g>
</svg>
