<?xml version="1.0" encoding="UTF-8" standalone="no"?>
<!DOCTYPE svg PUBLIC "-//W3C//DTD SVG 1.1//EN"
 "http://www.w3.org/Graphics/SVG/1.1/DTD/svg11.dtd">
<!-- Generated by graphviz version 2.50.0 (20211204.2007)
 -->
<!-- Title: model::files::Block::Block Pages: 1 -->
<svg width="293pt" height="104pt"
 viewBox="0.00 0.00 293.00 104.00" xmlns="http://www.w3.org/2000/svg" xmlns:xlink="http://www.w3.org/1999/xlink">
<g id="graph0" class="graph" transform="scale(1 1) rotate(0) translate(4 100)">
<title>model::files::Block::Block</title>
<polygon fill="white" stroke="transparent" points="-4,4 -4,-100 289,-100 289,4 -4,4"/>
<!-- Node1 -->
<g id="node1" class="node">
<title>Node1</title>
<g id="a_node1"><a xlink:title=" ">
<polygon fill="#bfbfbf" stroke="black" points="0,-33 0,-63 97,-63 97,-33 0,-33"/>
<text text-anchor="start" x="8" y="-51" font-family="Helvetica,sans-Serif" font-size="10.00">model::files::Block</text>
<text text-anchor="middle" x="48.5" y="-40" font-family="Helvetica,sans-Serif" font-size="10.00">::Block</text>
</a>
</g>
</g>
<!-- Node2 -->
<g id="node2" class="node">
<title>Node2</title>
<g id="a_node2"><a xlink:href="class_fuzzy_timer.html#a67fca7b99d7b5a11a451cd695bf46aeb" target="_top" xlink:title=" ">
<polygon fill="white" stroke="black" points="152.5,-76.5 152.5,-95.5 265.5,-95.5 265.5,-76.5 152.5,-76.5"/>
<text text-anchor="middle" x="209" y="-83.5" font-family="Helvetica,sans-Serif" font-size="10.00">FuzzyTimer::addTimer</text>
</a>
</g>
</g>
<!-- Node1&#45;&gt;Node2 -->
<g id="edge1" class="edge">
<title>Node1&#45;&gt;Node2</title>
<path fill="none" stroke="midnightblue" d="M97.06,-59.4C116.39,-64.04 138.74,-69.39 158.29,-74.08"/>
<polygon fill="midnightblue" stroke="midnightblue" points="157.69,-77.54 168.23,-76.46 159.32,-70.73 157.69,-77.54"/>
</g>
<!-- Node3 -->
<g id="node3" class="node">
<title>Node3</title>
<g id="a_node3"><a xlink:href="class_cache_manager.html#ae02800633b7a80e447e29c3e439a04ae" target="_top" xlink:title=" ">
<polygon fill="white" stroke="black" points="133,-38.5 133,-57.5 285,-57.5 285,-38.5 133,-38.5"/>
<text text-anchor="middle" x="209" y="-45.5" font-family="Helvetica,sans-Serif" font-size="10.00">CacheManager::getFuzzyTimer</text>
</a>
</g>
</g>
<!-- Node1&#45;&gt;Node3 -->
<g id="edge2" class="edge">
<title>Node1&#45;&gt;Node3</title>
<path fill="none" stroke="midnightblue" d="M97.06,-48C105.27,-48 114.03,-48 122.89,-48"/>
<polygon fill="midnightblue" stroke="midnightblue" points="122.91,-51.5 132.91,-48 122.91,-44.5 122.91,-51.5"/>
</g>
<!-- Node4 -->
<g id="node4" class="node">
<title>Node4</title>
<g id="a_node4"><a xlink:href="class_cache_manager.html#a2c6f368d3987e7057d5d6fc4da56e177" target="_top" xlink:title=" ">
<polygon fill="white" stroke="black" points="140,-0.5 140,-19.5 278,-19.5 278,-0.5 140,-0.5"/>
<text text-anchor="middle" x="209" y="-7.5" font-family="Helvetica,sans-Serif" font-size="10.00">CacheManager::getInstance</text>
</a>
</g>
</g>
<!-- Node1&#45;&gt;Node4 -->
<g id="edge3" class="edge">
<title>Node1&#45;&gt;Node4</title>
<path fill="none" stroke="midnightblue" d="M97.06,-36.6C116.39,-31.96 138.74,-26.61 158.29,-21.92"/>
<polygon fill="midnightblue" stroke="midnightblue" points="159.32,-25.27 168.23,-19.54 157.69,-18.46 159.32,-25.27"/>
</g>
</g>
</svg>
