<?xml version="1.0" encoding="UTF-8" standalone="no"?>
<!DOCTYPE svg PUBLIC "-//W3C//DTD SVG 1.1//EN"
 "http://www.w3.org/Graphics/SVG/1.1/DTD/svg11.dtd">
<!-- Generated by graphviz version 2.50.0 (20211204.2007)
 -->
<!-- Title: model::files::AddressIndex::writeToFile Pages: 1 -->
<svg width="328pt" height="78pt"
 viewBox="0.00 0.00 328.00 77.50" xmlns="http://www.w3.org/2000/svg" xmlns:xlink="http://www.w3.org/1999/xlink">
<g id="graph0" class="graph" transform="scale(1 1) rotate(0) translate(4 73.5)">
<title>model::files::AddressIndex::writeToFile</title>
<polygon fill="white" stroke="transparent" points="-4,4 -4,-73.5 324,-73.5 324,4 -4,4"/>
<!-- Node1 -->
<g id="node1" class="node">
<title>Node1</title>
<g id="a_node1"><a xlink:title="Write new index file if checkFile return true, use Poco::FastMutex::ScopedLock, fileLock via FileLock...">
<polygon fill="#bfbfbf" stroke="black" points="189,-22.5 189,-52.5 320,-52.5 320,-22.5 189,-22.5"/>
<text text-anchor="start" x="197" y="-40.5" font-family="Helvetica,sans-Serif" font-size="10.00">model::files::AddressIndex</text>
<text text-anchor="middle" x="254.5" y="-29.5" font-family="Helvetica,sans-Serif" font-size="10.00">::writeToFile</text>
</a>
</g>
</g>
<!-- Node2 -->
<g id="node2" class="node">
<title>Node2</title>
<g id="a_node2"><a xlink:href="classmodel_1_1files_1_1_address_index.html#a4ae311bf893bc8b199071575a0610000" target="_top" xlink:title="Adding new index, account address public key pair into memory, use Poco::FastMutex::ScopedLock.">
<polygon fill="white" stroke="black" points="0,-50 0,-69 153,-69 153,-50 0,-50"/>
<text text-anchor="middle" x="76.5" y="-57" font-family="Helvetica,sans-Serif" font-size="10.00">model::files::AddressIndex::add</text>
</a>
</g>
</g>
<!-- Node1&#45;&gt;Node2 -->
<g id="edge1" class="edge">
<title>Node1&#45;&gt;Node2</title>
<path fill="none" stroke="midnightblue" d="M178.99,-46.81C170.41,-47.89 161.66,-48.98 153.06,-50.05"/>
<polygon fill="midnightblue" stroke="midnightblue" points="179.47,-50.28 188.96,-45.57 178.61,-43.33 179.47,-50.28"/>
</g>
<!-- Node3 -->
<g id="node3" class="node">
<title>Node3</title>
<g id="a_node3"><a xlink:href="classmodel_1_1files_1_1_address_index.html#a4e1f457f7f8715f2fda15df438de7ae9" target="_top" xlink:title=" ">
<polygon fill="white" stroke="black" points="11,-0.5 11,-30.5 142,-30.5 142,-0.5 11,-0.5"/>
<text text-anchor="start" x="19" y="-18.5" font-family="Helvetica,sans-Serif" font-size="10.00">model::files::AddressIndex</text>
<text text-anchor="middle" x="76.5" y="-7.5" font-family="Helvetica,sans-Serif" font-size="10.00">::~AddressIndex</text>
</a>
</g>
</g>
<!-- Node1&#45;&gt;Node3 -->
<g id="edge2" class="edge">
<title>Node1&#45;&gt;Node3</title>
<path fill="none" stroke="midnightblue" d="M178.79,-28.16C166.57,-26.63 153.99,-25.06 142.03,-23.57"/>
<polygon fill="midnightblue" stroke="midnightblue" points="178.61,-31.67 188.96,-29.43 179.47,-24.72 178.61,-31.67"/>
</g>
</g>
</svg>
