<?xml version="1.0" encoding="UTF-8" standalone="no"?>
<!DOCTYPE svg PUBLIC "-//W3C//DTD SVG 1.1//EN"
 "http://www.w3.org/Graphics/SVG/1.1/DTD/svg11.dtd">
<!-- Generated by graphviz version 2.50.0 (20211204.2007)
 -->
<!-- Title: GroupManager::getInstance Pages: 1 -->
<svg width="507pt" height="340pt"
 viewBox="0.00 0.00 507.00 339.50" xmlns="http://www.w3.org/2000/svg" xmlns:xlink="http://www.w3.org/1999/xlink">
<g id="graph0" class="graph" transform="scale(1 1) rotate(0) translate(4 335.5)">
<title>GroupManager::getInstance</title>
<polygon fill="white" stroke="transparent" points="-4,4 -4,-335.5 503,-335.5 503,4 -4,4"/>
<!-- Node1 -->
<g id="node1" class="node">
<title>Node1</title>
<g id="a_node1"><a xlink:title=" ">
<polygon fill="#bfbfbf" stroke="black" points="362,-145.5 362,-164.5 499,-164.5 499,-145.5 362,-145.5"/>
<text text-anchor="middle" x="430.5" y="-152.5" font-family="Helvetica,sans-Serif" font-size="10.00">GroupManager::getInstance</text>
</a>
</g>
</g>
<!-- Node2 -->
<g id="node2" class="node">
<title>Node2</title>
<g id="a_node2"><a xlink:href="classcontroller_1_1_block.html#af9555c340969e8256be495013c41a80e" target="_top" xlink:title="add transaction from Block File, called by Block File, adding to cache and index">
<polygon fill="white" stroke="black" points="197,-301 197,-331 290,-331 290,-301 197,-301"/>
<text text-anchor="start" x="205" y="-319" font-family="Helvetica,sans-Serif" font-size="10.00">controller::Block::</text>
<text text-anchor="middle" x="243.5" y="-308" font-family="Helvetica,sans-Serif" font-size="10.00">addTransaction</text>
</a>
</g>
</g>
<!-- Node1&#45;&gt;Node2 -->
<g id="edge1" class="edge">
<title>Node1&#45;&gt;Node2</title>
<path fill="none" stroke="midnightblue" d="M420.32,-173.88C404.94,-203.51 371.18,-260.75 326,-292 315.45,-299.3 302.65,-304.41 290.36,-307.98"/>
<polygon fill="midnightblue" stroke="midnightblue" points="423.6,-175.14 424.98,-164.64 417.35,-171.99 423.6,-175.14"/>
</g>
<!-- Node4 -->
<g id="node4" class="node">
<title>Node4</title>
<g id="a_node4"><a xlink:href="classcontroller_1_1_group.html#a9d18405e4740fc3f2386e1ed68f3c94c" target="_top" xlink:title="add transaction from iota into blockchain, important! must be called in correct order">
<polygon fill="white" stroke="black" points="196,-252 196,-282 291,-282 291,-252 196,-252"/>
<text text-anchor="start" x="204" y="-270" font-family="Helvetica,sans-Serif" font-size="10.00">controller::Group::</text>
<text text-anchor="middle" x="243.5" y="-259" font-family="Helvetica,sans-Serif" font-size="10.00">addTransaction</text>
</a>
</g>
</g>
<!-- Node1&#45;&gt;Node4 -->
<g id="edge3" class="edge">
<title>Node1&#45;&gt;Node4</title>
<path fill="none" stroke="midnightblue" d="M413.83,-172.1C394.84,-191.86 361.01,-224.08 326,-243 315.23,-248.82 302.88,-253.39 291.1,-256.91"/>
<polygon fill="midnightblue" stroke="midnightblue" points="416.48,-174.39 420.8,-164.71 411.39,-169.59 416.48,-174.39"/>
</g>
<!-- Node5 -->
<g id="node5" class="node">
<title>Node5</title>
<g id="a_node5"><a xlink:href="classcontroller_1_1_group.html#ae8e568b6229a699bfed1ecc781a1b162" target="_top" xlink:title="Find every transaction belonging to address account in memory or block chain, expensive.">
<polygon fill="white" stroke="black" points="196,-203 196,-233 291,-233 291,-203 196,-203"/>
<text text-anchor="start" x="204" y="-221" font-family="Helvetica,sans-Serif" font-size="10.00">controller::Group::</text>
<text text-anchor="middle" x="243.5" y="-210" font-family="Helvetica,sans-Serif" font-size="10.00">findTransactions</text>
</a>
</g>
</g>
<!-- Node1&#45;&gt;Node5 -->
<g id="edge4" class="edge">
<title>Node1&#45;&gt;Node5</title>
<path fill="none" stroke="midnightblue" d="M394.91,-168.23C374.88,-175.76 349.12,-185.21 326,-193 314.78,-196.78 302.61,-200.64 291.19,-204.16"/>
<polygon fill="midnightblue" stroke="midnightblue" points="396.42,-171.4 404.54,-164.6 393.95,-164.86 396.42,-171.4"/>
</g>
<!-- Node7 -->
<g id="node7" class="node">
<title>Node7</title>
<g id="a_node7"><a xlink:href="class_json_r_p_c_handler.html#a8f9e1cccf1262bc177baf477cf59d90b" target="_top" xlink:title=" ">
<polygon fill="white" stroke="black" points="161,-164.5 161,-183.5 326,-183.5 326,-164.5 161,-164.5"/>
<text text-anchor="middle" x="243.5" y="-171.5" font-family="Helvetica,sans-Serif" font-size="10.00">JsonRPCHandler::getTransactions</text>
</a>
</g>
</g>
<!-- Node1&#45;&gt;Node7 -->
<g id="edge6" class="edge">
<title>Node1&#45;&gt;Node7</title>
<path fill="none" stroke="midnightblue" d="M351.97,-162.96C343.4,-163.84 334.66,-164.74 326.04,-165.63"/>
<polygon fill="midnightblue" stroke="midnightblue" points="352.34,-166.44 361.93,-161.94 351.62,-159.48 352.34,-166.44"/>
</g>
<!-- Node9 -->
<g id="node9" class="node">
<title>Node9</title>
<g id="a_node9"><a xlink:href="class_main_server.html#a09dcb399eb71be7dffe478bd64545d11" target="_top" xlink:title=" ">
<polygon fill="white" stroke="black" points="197.5,-126.5 197.5,-145.5 289.5,-145.5 289.5,-126.5 197.5,-126.5"/>
<text text-anchor="middle" x="243.5" y="-133.5" font-family="Helvetica,sans-Serif" font-size="10.00">MainServer::main</text>
</a>
</g>
</g>
<!-- Node1&#45;&gt;Node9 -->
<g id="edge8" class="edge">
<title>Node1&#45;&gt;Node9</title>
<path fill="none" stroke="midnightblue" d="M351.94,-147.03C330.72,-144.86 308.43,-142.57 289.68,-140.64"/>
<polygon fill="midnightblue" stroke="midnightblue" points="351.62,-150.52 361.93,-148.06 352.34,-143.56 351.62,-150.52"/>
</g>
<!-- Node10 -->
<g id="node10" class="node">
<title>Node10</title>
<g id="a_node10"><a xlink:href="class_json_r_p_c_handler.html#a3e8fb04eef868d1e57b2de4e5be73c13" target="_top" xlink:title=" ">
<polygon fill="white" stroke="black" points="163.5,-88.5 163.5,-107.5 323.5,-107.5 323.5,-88.5 163.5,-88.5"/>
<text text-anchor="middle" x="243.5" y="-95.5" font-family="Helvetica,sans-Serif" font-size="10.00">JsonRPCHandler::putTransaction</text>
</a>
</g>
</g>
<!-- Node1&#45;&gt;Node10 -->
<g id="edge9" class="edge">
<title>Node1&#45;&gt;Node10</title>
<path fill="none" stroke="midnightblue" d="M396.58,-141.74C376.41,-133.91 349.96,-124.16 326,-117 314.45,-113.55 301.82,-110.34 290.02,-107.57"/>
<polygon fill="midnightblue" stroke="midnightblue" points="395.35,-145.01 405.94,-145.41 397.9,-138.5 395.35,-145.01"/>
</g>
<!-- Node11 -->
<g id="node11" class="node">
<title>Node11</title>
<g id="a_node11"><a xlink:href="class_iota_message_to_transaction_task.html#afc547eb27e6a9e33d9ec6777c764aa2e" target="_top" xlink:title="called from task scheduler, maybe from another thread">
<polygon fill="white" stroke="black" points="177,-39 177,-69 310,-69 310,-39 177,-39"/>
<text text-anchor="start" x="185" y="-57" font-family="Helvetica,sans-Serif" font-size="10.00">IotaMessageToTransaction</text>
<text text-anchor="middle" x="243.5" y="-46" font-family="Helvetica,sans-Serif" font-size="10.00">Task::run</text>
</a>
</g>
</g>
<!-- Node1&#45;&gt;Node11 -->
<g id="edge11" class="edge">
<title>Node1&#45;&gt;Node11</title>
<path fill="none" stroke="midnightblue" d="M411.53,-138.85C391.81,-121.86 358.6,-95.37 326,-79 318.59,-75.28 310.53,-71.99 302.45,-69.12"/>
<polygon fill="midnightblue" stroke="midnightblue" points="409.29,-141.54 419.11,-145.49 413.9,-136.27 409.29,-141.54"/>
</g>
<!-- Node12 -->
<g id="node12" class="node">
<title>Node12</title>
<g id="a_node12"><a xlink:href="class_main_server.html#a0238ddc77dbf38f0d9d6ddf544fecd59" target="_top" xlink:title=" ">
<polygon fill="white" stroke="black" points="185.5,-0.5 185.5,-19.5 301.5,-19.5 301.5,-0.5 185.5,-0.5"/>
<text text-anchor="middle" x="243.5" y="-7.5" font-family="Helvetica,sans-Serif" font-size="10.00">MainServer::uninitialize</text>
</a>
</g>
</g>
<!-- Node1&#45;&gt;Node12 -->
<g id="edge12" class="edge">
<title>Node1&#45;&gt;Node12</title>
<path fill="none" stroke="midnightblue" d="M419.44,-136.18C403.49,-108.23 369.68,-56.15 326,-29 318.6,-24.4 310.19,-20.91 301.65,-18.27"/>
<polygon fill="midnightblue" stroke="midnightblue" points="416.59,-138.24 424.49,-145.29 422.71,-134.85 416.59,-138.24"/>
</g>
<!-- Node3 -->
<g id="node3" class="node">
<title>Node3</title>
<g id="a_node3"><a xlink:href="classcontroller_1_1_block.html#aebf036aea9d902c0bee9673659cb737d" target="_top" xlink:title="load transaction from cache or file system">
<polygon fill="white" stroke="black" points="16,-301 16,-331 109,-331 109,-301 16,-301"/>
<text text-anchor="start" x="24" y="-319" font-family="Helvetica,sans-Serif" font-size="10.00">controller::Block::</text>
<text text-anchor="middle" x="62.5" y="-308" font-family="Helvetica,sans-Serif" font-size="10.00">getTransaction</text>
</a>
</g>
</g>
<!-- Node2&#45;&gt;Node3 -->
<g id="edge2" class="edge">
<title>Node2&#45;&gt;Node3</title>
<path fill="none" stroke="midnightblue" d="M186.8,-316C161.81,-316 132.71,-316 109.05,-316"/>
<polygon fill="midnightblue" stroke="midnightblue" points="186.87,-319.5 196.87,-316 186.87,-312.5 186.87,-319.5"/>
</g>
<!-- Node6 -->
<g id="node6" class="node">
<title>Node6</title>
<g id="a_node6"><a xlink:href="classcontroller_1_1_group.html#a290d7ff553429948078ee4f0dd563b5c" target="_top" xlink:title="Search for creation transactions from specific month and add balances together.">
<polygon fill="white" stroke="black" points="6.5,-203 6.5,-233 118.5,-233 118.5,-203 6.5,-203"/>
<text text-anchor="start" x="14.5" y="-221" font-family="Helvetica,sans-Serif" font-size="10.00">controller::Group::</text>
<text text-anchor="middle" x="62.5" y="-210" font-family="Helvetica,sans-Serif" font-size="10.00">calculateCreationSum</text>
</a>
</g>
</g>
<!-- Node5&#45;&gt;Node6 -->
<g id="edge5" class="edge">
<title>Node5&#45;&gt;Node6</title>
<path fill="none" stroke="midnightblue" d="M185.69,-218C164.29,-218 139.99,-218 118.74,-218"/>
<polygon fill="midnightblue" stroke="midnightblue" points="185.94,-221.5 195.94,-218 185.94,-214.5 185.94,-221.5"/>
</g>
<!-- Node8 -->
<g id="node8" class="node">
<title>Node8</title>
<g id="a_node8"><a xlink:href="class_json_r_p_c_handler.html#a4ff8c43e6411cabcd25f2e1978f43e49" target="_top" xlink:title=" ">
<polygon fill="white" stroke="black" points="0,-126.5 0,-145.5 125,-145.5 125,-126.5 0,-126.5"/>
<text text-anchor="middle" x="62.5" y="-133.5" font-family="Helvetica,sans-Serif" font-size="10.00">JsonRPCHandler::handle</text>
</a>
</g>
</g>
<!-- Node7&#45;&gt;Node8 -->
<g id="edge7" class="edge">
<title>Node7&#45;&gt;Node8</title>
<path fill="none" stroke="midnightblue" d="M187.48,-162.32C162.09,-156.93 132.34,-150.61 108.34,-145.52"/>
<polygon fill="midnightblue" stroke="midnightblue" points="186.82,-165.76 197.33,-164.41 188.28,-158.91 186.82,-165.76"/>
</g>
<!-- Node10&#45;&gt;Node8 -->
<g id="edge10" class="edge">
<title>Node10&#45;&gt;Node8</title>
<path fill="none" stroke="midnightblue" d="M187.48,-109.68C162.09,-115.07 132.34,-121.39 108.34,-126.48"/>
<polygon fill="midnightblue" stroke="midnightblue" points="188.28,-113.09 197.33,-107.59 186.82,-106.24 188.28,-113.09"/>
</g>
</g>
</svg>
