<?xml version="1.0" encoding="UTF-8" standalone="no"?>
<!DOCTYPE svg PUBLIC "-//W3C//DTD SVG 1.1//EN"
 "http://www.w3.org/Graphics/SVG/1.1/DTD/svg11.dtd">
<!-- Generated by graphviz version 2.50.0 (20211204.2007)
 -->
<!-- Title: CacheManager::getInstance Pages: 1 -->
<svg width="295pt" height="284pt"
 viewBox="0.00 0.00 295.00 284.00" xmlns="http://www.w3.org/2000/svg" xmlns:xlink="http://www.w3.org/1999/xlink">
<g id="graph0" class="graph" transform="scale(1 1) rotate(0) translate(4 280)">
<title>CacheManager::getInstance</title>
<polygon fill="white" stroke="transparent" points="-4,4 -4,-280 291,-280 291,4 -4,4"/>
<!-- Node1 -->
<g id="node1" class="node">
<title>Node1</title>
<g id="a_node1"><a xlink:title=" ">
<polygon fill="#bfbfbf" stroke="black" points="149,-128 149,-147 287,-147 287,-128 149,-128"/>
<text text-anchor="middle" x="218" y="-135" font-family="Helvetica,sans-Serif" font-size="10.00">CacheManager::getInstance</text>
</a>
</g>
</g>
<!-- Node2 -->
<g id="node2" class="node">
<title>Node2</title>
<g id="a_node2"><a xlink:href="classmodel_1_1files_1_1_block.html#ab450cd9c6be8eb28ba974cb67523d43d" target="_top" xlink:title=" ">
<polygon fill="white" stroke="black" points="8,-245.5 8,-275.5 105,-275.5 105,-245.5 8,-245.5"/>
<text text-anchor="start" x="16" y="-263.5" font-family="Helvetica,sans-Serif" font-size="10.00">model::files::Block</text>
<text text-anchor="middle" x="56.5" y="-252.5" font-family="Helvetica,sans-Serif" font-size="10.00">::Block</text>
</a>
</g>
</g>
<!-- Node1&#45;&gt;Node2 -->
<g id="edge1" class="edge">
<title>Node1&#45;&gt;Node2</title>
<path fill="none" stroke="midnightblue" d="M202.36,-154.79C183.47,-176.22 148.79,-212.82 113,-236.5 108.1,-239.74 102.68,-242.72 97.22,-245.38"/>
<polygon fill="midnightblue" stroke="midnightblue" points="205.1,-156.96 209,-147.12 199.81,-152.38 205.1,-156.96"/>
</g>
<!-- Node3 -->
<g id="node3" class="node">
<title>Node3</title>
<g id="a_node3"><a xlink:href="classcontroller_1_1_block.html#a89bfcaa37f1b125998dae15e3ce9425d" target="_top" xlink:title=" ">
<polygon fill="white" stroke="black" points="10,-196.5 10,-226.5 103,-226.5 103,-196.5 10,-196.5"/>
<text text-anchor="start" x="18" y="-214.5" font-family="Helvetica,sans-Serif" font-size="10.00">controller::Block::</text>
<text text-anchor="middle" x="56.5" y="-203.5" font-family="Helvetica,sans-Serif" font-size="10.00">Block</text>
</a>
</g>
</g>
<!-- Node1&#45;&gt;Node3 -->
<g id="edge2" class="edge">
<title>Node1&#45;&gt;Node3</title>
<path fill="none" stroke="midnightblue" d="M188.33,-151.67C167.52,-161.85 138.65,-175.8 113,-187.5 106.51,-190.46 99.55,-193.55 92.83,-196.48"/>
<polygon fill="midnightblue" stroke="midnightblue" points="190.12,-154.68 197.56,-147.13 187.04,-148.4 190.12,-154.68"/>
</g>
<!-- Node4 -->
<g id="node4" class="node">
<title>Node4</title>
<g id="a_node4"><a xlink:href="classiota_1_1_message_listener.html#a0bde52d2d1eed8ccd1454c42e74f4e55" target="_top" xlink:title=" ">
<polygon fill="white" stroke="black" points="0,-147.5 0,-177.5 113,-177.5 113,-147.5 0,-147.5"/>
<text text-anchor="start" x="8" y="-165.5" font-family="Helvetica,sans-Serif" font-size="10.00">iota::MessageListener</text>
<text text-anchor="middle" x="56.5" y="-154.5" font-family="Helvetica,sans-Serif" font-size="10.00">::MessageListener</text>
</a>
</g>
</g>
<!-- Node1&#45;&gt;Node4 -->
<g id="edge3" class="edge">
<title>Node1&#45;&gt;Node4</title>
<path fill="none" stroke="midnightblue" d="M146.16,-148.6C135.09,-150.34 123.78,-152.11 113.11,-153.78"/>
<polygon fill="midnightblue" stroke="midnightblue" points="146.91,-152.03 156.24,-147.02 145.82,-145.11 146.91,-152.03"/>
</g>
<!-- Node5 -->
<g id="node5" class="node">
<title>Node5</title>
<g id="a_node5"><a xlink:href="classcontroller_1_1_block.html#aaabd9b98e56415435d19557a63a9dda9" target="_top" xlink:title=" ">
<polygon fill="white" stroke="black" points="10,-98.5 10,-128.5 103,-128.5 103,-98.5 10,-98.5"/>
<text text-anchor="start" x="18" y="-116.5" font-family="Helvetica,sans-Serif" font-size="10.00">controller::Block::</text>
<text text-anchor="middle" x="56.5" y="-105.5" font-family="Helvetica,sans-Serif" font-size="10.00">~Block</text>
</a>
</g>
</g>
<!-- Node1&#45;&gt;Node5 -->
<g id="edge4" class="edge">
<title>Node1&#45;&gt;Node5</title>
<path fill="none" stroke="midnightblue" d="M143.54,-126.45C129.75,-124.37 115.72,-122.26 103.09,-120.36"/>
<polygon fill="midnightblue" stroke="midnightblue" points="143.09,-129.92 153.5,-127.95 144.14,-123 143.09,-129.92"/>
</g>
<!-- Node6 -->
<g id="node6" class="node">
<title>Node6</title>
<g id="a_node6"><a xlink:href="classmodel_1_1files_1_1_block.html#a8902b9eccd8106f304f206774cde86c5" target="_top" xlink:title=" ">
<polygon fill="white" stroke="black" points="8,-49.5 8,-79.5 105,-79.5 105,-49.5 8,-49.5"/>
<text text-anchor="start" x="16" y="-67.5" font-family="Helvetica,sans-Serif" font-size="10.00">model::files::Block</text>
<text text-anchor="middle" x="56.5" y="-56.5" font-family="Helvetica,sans-Serif" font-size="10.00">::~Block</text>
</a>
</g>
</g>
<!-- Node1&#45;&gt;Node6 -->
<g id="edge5" class="edge">
<title>Node1&#45;&gt;Node6</title>
<path fill="none" stroke="midnightblue" d="M187.05,-123.59C166.29,-113.97 137.99,-100.9 113,-89.5 105.88,-86.26 98.25,-82.8 90.98,-79.52"/>
<polygon fill="midnightblue" stroke="midnightblue" points="185.76,-126.85 196.31,-127.88 188.71,-120.5 185.76,-126.85"/>
</g>
<!-- Node7 -->
<g id="node7" class="node">
<title>Node7</title>
<g id="a_node7"><a xlink:href="classiota_1_1_message_listener.html#ab2bca21134fa2c9030dc4339f84d72ac" target="_top" xlink:title=" ">
<polygon fill="white" stroke="black" points="0,-0.5 0,-30.5 113,-30.5 113,-0.5 0,-0.5"/>
<text text-anchor="start" x="8" y="-18.5" font-family="Helvetica,sans-Serif" font-size="10.00">iota::MessageListener</text>
<text text-anchor="middle" x="56.5" y="-7.5" font-family="Helvetica,sans-Serif" font-size="10.00">::~MessageListener</text>
</a>
</g>
</g>
<!-- Node1&#45;&gt;Node7 -->
<g id="edge6" class="edge">
<title>Node1&#45;&gt;Node7</title>
<path fill="none" stroke="midnightblue" d="M201.93,-120.35C182.86,-99.42 148.21,-63.92 113,-40.5 107.54,-36.87 101.48,-33.53 95.41,-30.56"/>
<polygon fill="midnightblue" stroke="midnightblue" points="199.39,-122.75 208.67,-127.85 204.59,-118.08 199.39,-122.75"/>
</g>
</g>
</svg>
