<?xml version="1.0" encoding="UTF-8" standalone="no"?>
<!DOCTYPE svg PUBLIC "-//W3C//DTD SVG 1.1//EN"
 "http://www.w3.org/Graphics/SVG/1.1/DTD/svg11.dtd">
<!-- Generated by graphviz version 2.50.0 (20211204.2007)
 -->
<!-- Title: GlobalStateManager::GlobalStateManager Pages: 1 -->
<svg width="399pt" height="39pt"
 viewBox="0.00 0.00 399.00 39.00" xmlns="http://www.w3.org/2000/svg" xmlns:xlink="http://www.w3.org/1999/xlink">
<g id="graph0" class="graph" transform="scale(1 1) rotate(0) translate(4 35)">
<title>GlobalStateManager::GlobalStateManager</title>
<polygon fill="white" stroke="transparent" points="-4,4 -4,-35 395,-35 395,4 -4,4"/>
<!-- Node1 -->
<g id="node1" class="node">
<title>Node1</title>
<g id="a_node1"><a xlink:title=" ">
<polygon fill="#bfbfbf" stroke="black" points="0,-0.5 0,-30.5 111,-30.5 111,-0.5 0,-0.5"/>
<text text-anchor="start" x="8" y="-18.5" font-family="Helvetica,sans-Serif" font-size="10.00">GlobalStateManager</text>
<text text-anchor="middle" x="55.5" y="-7.5" font-family="Helvetica,sans-Serif" font-size="10.00">::GlobalStateManager</text>
</a>
</g>
</g>
<!-- Node2 -->
<g id="node2" class="node">
<title>Node2</title>
<g id="a_node2"><a xlink:href="classmodel_1_1files_1_1_state.html#aea0bf6dc774c0846f2b36cb8ffd5574b" target="_top" xlink:title=" ">
<polygon fill="white" stroke="black" points="147,-0.5 147,-30.5 260,-30.5 260,-0.5 147,-0.5"/>
<text text-anchor="start" x="155" y="-18.5" font-family="Helvetica,sans-Serif" font-size="10.00">model::files::State</text>
<text text-anchor="middle" x="203.5" y="-7.5" font-family="Helvetica,sans-Serif" font-size="10.00">::getInt32ValueForKey</text>
</a>
</g>
</g>
<!-- Node1&#45;&gt;Node2 -->
<g id="edge1" class="edge">
<title>Node1&#45;&gt;Node2</title>
<path fill="none" stroke="midnightblue" d="M111.28,-15.5C119.56,-15.5 128.18,-15.5 136.67,-15.5"/>
<polygon fill="midnightblue" stroke="midnightblue" points="136.93,-19 146.93,-15.5 136.93,-12 136.93,-19"/>
</g>
<!-- Node3 -->
<g id="node3" class="node">
<title>Node3</title>
<g id="a_node3"><a xlink:href="classmodel_1_1files_1_1_state.html#a79a8eda8772fae8f6b8a67fd3720952a" target="_top" xlink:title=" ">
<polygon fill="white" stroke="black" points="296,-0.5 296,-30.5 391,-30.5 391,-0.5 296,-0.5"/>
<text text-anchor="start" x="304" y="-18.5" font-family="Helvetica,sans-Serif" font-size="10.00">model::files::State</text>
<text text-anchor="middle" x="343.5" y="-7.5" font-family="Helvetica,sans-Serif" font-size="10.00">::getValueForKey</text>
</a>
</g>
</g>
<!-- Node2&#45;&gt;Node3 -->
<g id="edge2" class="edge">
<title>Node2&#45;&gt;Node3</title>
<path fill="none" stroke="midnightblue" d="M260.23,-15.5C268.63,-15.5 277.31,-15.5 285.73,-15.5"/>
<polygon fill="midnightblue" stroke="midnightblue" points="285.85,-19 295.85,-15.5 285.85,-12 285.85,-19"/>
</g>
</g>
</svg>
