<?xml version="1.0" encoding="UTF-8" standalone="no"?>
<!DOCTYPE svg PUBLIC "-//W3C//DTD SVG 1.1//EN"
 "http://www.w3.org/Graphics/SVG/1.1/DTD/svg11.dtd">
<!-- Generated by graphviz version 2.50.0 (20211204.2007)
 -->
<!-- Title: TimerCallback Pages: 1 -->
<svg width="453pt" height="358pt"
 viewBox="0.00 0.00 453.00 358.00" xmlns="http://www.w3.org/2000/svg" xmlns:xlink="http://www.w3.org/1999/xlink">
<g id="graph0" class="graph" transform="scale(1 1) rotate(0) translate(4 354)">
<title>TimerCallback</title>
<polygon fill="white" stroke="transparent" points="-4,4 -4,-354 449,-354 449,4 -4,4"/>
<!-- Node1 -->
<g id="node1" class="node">
<title>Node1</title>
<g id="a_node1"><a xlink:title=" ">
<polygon fill="#bfbfbf" stroke="black" points="163,-281.5 163,-349.5 270,-349.5 270,-281.5 163,-281.5"/>
<text text-anchor="middle" x="216.5" y="-337.5" font-family="Helvetica,sans-Serif" font-size="10.00">TimerCallback</text>
<polyline fill="none" stroke="black" points="163,-330.5 270,-330.5 "/>
<text text-anchor="middle" x="216.5" y="-318.5" font-family="Helvetica,sans-Serif" font-size="10.00"> </text>
<polyline fill="none" stroke="black" points="163,-311.5 270,-311.5 "/>
<text text-anchor="start" x="171" y="-299.5" font-family="Helvetica,sans-Serif" font-size="10.00">+ callFromTimer()</text>
<text text-anchor="start" x="171" y="-288.5" font-family="Helvetica,sans-Serif" font-size="10.00">+ getResourceType()</text>
</a>
</g>
</g>
<!-- Node2 -->
<g id="node2" class="node">
<title>Node2</title>
<g id="a_node2"><a xlink:href="classcontroller_1_1_block.html" target="_top" xlink:title="interface for adding and getting transactions from specific block">
<polygon fill="white" stroke="black" points="0,-0.5 0,-244.5 131,-244.5 131,-0.5 0,-0.5"/>
<text text-anchor="middle" x="65.5" y="-232.5" font-family="Helvetica,sans-Serif" font-size="10.00">controller::Block</text>
<polyline fill="none" stroke="black" points="0,-225.5 131,-225.5 "/>
<text text-anchor="start" x="8" y="-213.5" font-family="Helvetica,sans-Serif" font-size="10.00"># mBlockNr</text>
<text text-anchor="start" x="8" y="-202.5" font-family="Helvetica,sans-Serif" font-size="10.00"># mTaskObserver</text>
<text text-anchor="start" x="8" y="-191.5" font-family="Helvetica,sans-Serif" font-size="10.00"># mSerializedTransactions</text>
<text text-anchor="start" x="8" y="-180.5" font-family="Helvetica,sans-Serif" font-size="10.00"># mBlockIndex</text>
<text text-anchor="start" x="8" y="-169.5" font-family="Helvetica,sans-Serif" font-size="10.00"># mBlockFile</text>
<text text-anchor="start" x="8" y="-158.5" font-family="Helvetica,sans-Serif" font-size="10.00"># mTransactionWriteTask</text>
<text text-anchor="start" x="8" y="-147.5" font-family="Helvetica,sans-Serif" font-size="10.00"># mGroupAlias</text>
<text text-anchor="start" x="8" y="-136.5" font-family="Helvetica,sans-Serif" font-size="10.00"># mExitCalled</text>
<polyline fill="none" stroke="black" points="0,-129.5 131,-129.5 "/>
<text text-anchor="start" x="8" y="-117.5" font-family="Helvetica,sans-Serif" font-size="10.00">+ Block()</text>
<text text-anchor="start" x="8" y="-106.5" font-family="Helvetica,sans-Serif" font-size="10.00">+ ~Block()</text>
<text text-anchor="start" x="8" y="-95.5" font-family="Helvetica,sans-Serif" font-size="10.00">+ exit()</text>
<text text-anchor="start" x="8" y="-84.5" font-family="Helvetica,sans-Serif" font-size="10.00">+ pushTransaction()</text>
<text text-anchor="start" x="8" y="-73.5" font-family="Helvetica,sans-Serif" font-size="10.00">+ getTransaction()</text>
<text text-anchor="start" x="8" y="-62.5" font-family="Helvetica,sans-Serif" font-size="10.00">+ checkTimeout()</text>
<text text-anchor="start" x="8" y="-51.5" font-family="Helvetica,sans-Serif" font-size="10.00">+ getBlockIndex()</text>
<text text-anchor="start" x="8" y="-40.5" font-family="Helvetica,sans-Serif" font-size="10.00">+ hasSpaceLeft()</text>
<text text-anchor="start" x="8" y="-29.5" font-family="Helvetica,sans-Serif" font-size="10.00">+ callFromTimer()</text>
<text text-anchor="start" x="8" y="-18.5" font-family="Helvetica,sans-Serif" font-size="10.00">+ getResourceType()</text>
<text text-anchor="start" x="8" y="-7.5" font-family="Helvetica,sans-Serif" font-size="10.00"># addTransaction()</text>
</a>
</g>
</g>
<!-- Node1&#45;&gt;Node2 -->
<g id="edge1" class="edge">
<title>Node1&#45;&gt;Node2</title>
<path fill="none" stroke="midnightblue" d="M168.72,-274.56C158.88,-265.33 148.95,-255.21 140.5,-245 137.34,-241.18 134.21,-237.22 131.14,-233.15"/>
<polygon fill="none" stroke="midnightblue" points="166.47,-277.24 176.2,-281.43 171.2,-272.09 166.47,-277.24"/>
</g>
<!-- Node3 -->
<g id="node3" class="node">
<title>Node3</title>
<g id="a_node3"><a xlink:href="classiota_1_1_message_listener.html" target="_top" xlink:title="call iota regular and check if new message on the listening index are available">
<polygon fill="white" stroke="black" points="149.5,-55.5 149.5,-189.5 283.5,-189.5 283.5,-55.5 149.5,-55.5"/>
<text text-anchor="middle" x="216.5" y="-177.5" font-family="Helvetica,sans-Serif" font-size="10.00">iota::MessageListener</text>
<polyline fill="none" stroke="black" points="149.5,-170.5 283.5,-170.5 "/>
<text text-anchor="start" x="157.5" y="-158.5" font-family="Helvetica,sans-Serif" font-size="10.00"># mIndex</text>
<text text-anchor="start" x="157.5" y="-147.5" font-family="Helvetica,sans-Serif" font-size="10.00"># mErrorLog</text>
<text text-anchor="start" x="157.5" y="-136.5" font-family="Helvetica,sans-Serif" font-size="10.00"># mFirstRun</text>
<text text-anchor="start" x="157.5" y="-125.5" font-family="Helvetica,sans-Serif" font-size="10.00"># mStoredMessageIds</text>
<polyline fill="none" stroke="black" points="149.5,-118.5 283.5,-118.5 "/>
<text text-anchor="start" x="157.5" y="-106.5" font-family="Helvetica,sans-Serif" font-size="10.00">+ MessageListener()</text>
<text text-anchor="start" x="157.5" y="-95.5" font-family="Helvetica,sans-Serif" font-size="10.00">+ ~MessageListener()</text>
<text text-anchor="start" x="157.5" y="-84.5" font-family="Helvetica,sans-Serif" font-size="10.00">+ callFromTimer()</text>
<text text-anchor="start" x="157.5" y="-73.5" font-family="Helvetica,sans-Serif" font-size="10.00">+ getResourceType()</text>
<text text-anchor="start" x="157.5" y="-62.5" font-family="Helvetica,sans-Serif" font-size="10.00"># updateStoredMessages()</text>
</a>
</g>
</g>
<!-- Node1&#45;&gt;Node3 -->
<g id="edge2" class="edge">
<title>Node1&#45;&gt;Node3</title>
<path fill="none" stroke="midnightblue" d="M216.5,-271C216.5,-246.93 216.5,-216.54 216.5,-189.6"/>
<polygon fill="none" stroke="midnightblue" points="213,-271.23 216.5,-281.23 220,-271.23 213,-271.23"/>
</g>
<!-- Node4 -->
<g id="node4" class="node">
<title>Node4</title>
<g id="a_node4"><a xlink:href="classmodel_1_1files_1_1_block.html" target="_top" xlink:title=" ">
<polygon fill="white" stroke="black" points="302,-0.5 302,-244.5 445,-244.5 445,-0.5 302,-0.5"/>
<text text-anchor="middle" x="373.5" y="-232.5" font-family="Helvetica,sans-Serif" font-size="10.00">model::files::Block</text>
<polyline fill="none" stroke="black" points="302,-225.5 445,-225.5 "/>
<text text-anchor="start" x="310" y="-213.5" font-family="Helvetica,sans-Serif" font-size="10.00"># mBlockPath</text>
<text text-anchor="start" x="310" y="-202.5" font-family="Helvetica,sans-Serif" font-size="10.00"># mBlockNr</text>
<text text-anchor="start" x="310" y="-191.5" font-family="Helvetica,sans-Serif" font-size="10.00"># mLastWrittenTransactionNr</text>
<text text-anchor="start" x="310" y="-180.5" font-family="Helvetica,sans-Serif" font-size="10.00"># mLastUsed</text>
<text text-anchor="start" x="310" y="-169.5" font-family="Helvetica,sans-Serif" font-size="10.00"># mBlockFile</text>
<text text-anchor="start" x="310" y="-158.5" font-family="Helvetica,sans-Serif" font-size="10.00"># mFastMutex</text>
<text text-anchor="start" x="310" y="-147.5" font-family="Helvetica,sans-Serif" font-size="10.00"># mCurrentFileSize</text>
<polyline fill="none" stroke="black" points="302,-140.5 445,-140.5 "/>
<text text-anchor="start" x="310" y="-128.5" font-family="Helvetica,sans-Serif" font-size="10.00">+ Block()</text>
<text text-anchor="start" x="310" y="-117.5" font-family="Helvetica,sans-Serif" font-size="10.00">+ ~Block()</text>
<text text-anchor="start" x="310" y="-106.5" font-family="Helvetica,sans-Serif" font-size="10.00">+ callFromTimer()</text>
<text text-anchor="start" x="310" y="-95.5" font-family="Helvetica,sans-Serif" font-size="10.00">+ getResourceType()</text>
<text text-anchor="start" x="310" y="-84.5" font-family="Helvetica,sans-Serif" font-size="10.00">+ readLine()</text>
<text text-anchor="start" x="310" y="-73.5" font-family="Helvetica,sans-Serif" font-size="10.00">+ appendLine()</text>
<text text-anchor="start" x="310" y="-62.5" font-family="Helvetica,sans-Serif" font-size="10.00">+ appendLines()</text>
<text text-anchor="start" x="310" y="-51.5" font-family="Helvetica,sans-Serif" font-size="10.00">+ getCurrentFileSize()</text>
<text text-anchor="start" x="310" y="-40.5" font-family="Helvetica,sans-Serif" font-size="10.00">+ getBlockPath()</text>
<text text-anchor="start" x="310" y="-29.5" font-family="Helvetica,sans-Serif" font-size="10.00">+ validateHash()</text>
<text text-anchor="start" x="310" y="-18.5" font-family="Helvetica,sans-Serif" font-size="10.00"># getOpenFile()</text>
<text text-anchor="start" x="310" y="-7.5" font-family="Helvetica,sans-Serif" font-size="10.00"># calculateHash()</text>
</a>
</g>
</g>
<!-- Node1&#45;&gt;Node4 -->
<g id="edge3" class="edge">
<title>Node1&#45;&gt;Node4</title>
<path fill="none" stroke="midnightblue" d="M264.01,-274.33C273.87,-265.12 283.87,-255.06 292.5,-245 295.64,-241.34 298.75,-237.56 301.84,-233.69"/>
<polygon fill="none" stroke="midnightblue" points="261.53,-271.86 256.53,-281.2 266.26,-277.02 261.53,-271.86"/>
</g>
</g>
</svg>
