<?xml version="1.0" encoding="UTF-8" standalone="no"?>
<!DOCTYPE svg PUBLIC "-//W3C//DTD SVG 1.1//EN"
 "http://www.w3.org/Graphics/SVG/1.1/DTD/svg11.dtd">
<!-- Generated by graphviz version 2.50.0 (20211204.2007)
 -->
<!-- Title: TaskObserver::removeBlockWriteTask Pages: 1 -->
<svg width="434pt" height="39pt"
 viewBox="0.00 0.00 434.00 39.00" xmlns="http://www.w3.org/2000/svg" xmlns:xlink="http://www.w3.org/1999/xlink">
<g id="graph0" class="graph" transform="scale(1 1) rotate(0) translate(4 35)">
<title>TaskObserver::removeBlockWriteTask</title>
<polygon fill="white" stroke="transparent" points="-4,4 -4,-35 430,-35 430,4 -4,4"/>
<!-- Node1 -->
<g id="node1" class="node">
<title>Node1</title>
<g id="a_node1"><a xlink:title="remove WriteTransactionsToBlockTask from map and transactions">
<polygon fill="#bfbfbf" stroke="black" points="0,-0.5 0,-30.5 137,-30.5 137,-0.5 0,-0.5"/>
<text text-anchor="start" x="8" y="-18.5" font-family="Helvetica,sans-Serif" font-size="10.00">TaskObserver::removeBlock</text>
<text text-anchor="middle" x="68.5" y="-7.5" font-family="Helvetica,sans-Serif" font-size="10.00">WriteTask</text>
</a>
</g>
</g>
<!-- Node2 -->
<g id="node2" class="node">
<title>Node2</title>
<g id="a_node2"><a xlink:href="class_write_transactions_to_block_task.html#ac09321e307b6d017ac340e220e3cb8e9" target="_top" xlink:title="collect all transaction nrs from transactions">
<polygon fill="white" stroke="black" points="173,-0.5 173,-30.5 304,-30.5 304,-0.5 173,-0.5"/>
<text text-anchor="start" x="181" y="-18.5" font-family="Helvetica,sans-Serif" font-size="10.00">WriteTransactionsToBlock</text>
<text text-anchor="middle" x="238.5" y="-7.5" font-family="Helvetica,sans-Serif" font-size="10.00">Task::getTransactionNrs</text>
</a>
</g>
</g>
<!-- Node1&#45;&gt;Node2 -->
<g id="edge1" class="edge">
<title>Node1&#45;&gt;Node2</title>
<path fill="none" stroke="midnightblue" d="M137.35,-15.5C145.7,-15.5 154.27,-15.5 162.72,-15.5"/>
<polygon fill="midnightblue" stroke="midnightblue" points="162.94,-19 172.94,-15.5 162.94,-12 162.94,-19"/>
</g>
<!-- Node3 -->
<g id="node3" class="node">
<title>Node3</title>
<g id="a_node3"><a xlink:href="classtask_1_1_task.html#ae035d934c5935b5414ef6da14a265efd" target="_top" xlink:title=" ">
<polygon fill="white" stroke="black" points="340,-6 340,-25 426,-25 426,-6 340,-6"/>
<text text-anchor="middle" x="383" y="-13" font-family="Helvetica,sans-Serif" font-size="10.00">task::Task::lock</text>
</a>
</g>
</g>
<!-- Node2&#45;&gt;Node3 -->
<g id="edge2" class="edge">
<title>Node2&#45;&gt;Node3</title>
<path fill="none" stroke="midnightblue" d="M304.08,-15.5C312.57,-15.5 321.19,-15.5 329.45,-15.5"/>
<polygon fill="midnightblue" stroke="midnightblue" points="329.68,-19 339.68,-15.5 329.68,-12 329.68,-19"/>
</g>
</g>
</svg>
