<?xml version="1.0" encoding="UTF-8" standalone="no"?>
<!DOCTYPE svg PUBLIC "-//W3C//DTD SVG 1.1//EN"
 "http://www.w3.org/Graphics/SVG/1.1/DTD/svg11.dtd">
<!-- Generated by graphviz version 2.50.0 (20211204.2007)
 -->
<!-- Title: model::files::Block::appendLine Pages: 1 -->
<svg width="421pt" height="78pt"
 viewBox="0.00 0.00 421.00 77.50" xmlns="http://www.w3.org/2000/svg" xmlns:xlink="http://www.w3.org/1999/xlink">
<g id="graph0" class="graph" transform="scale(1 1) rotate(0) translate(4 73.5)">
<title>model::files::Block::appendLine</title>
<polygon fill="white" stroke="transparent" points="-4,4 -4,-73.5 417,-73.5 417,4 -4,4"/>
<!-- Node1 -->
<g id="node1" class="node">
<title>Node1</title>
<g id="a_node1"><a xlink:title="call appendLines">
<polygon fill="#bfbfbf" stroke="black" points="0,-22.5 0,-52.5 97,-52.5 97,-22.5 0,-22.5"/>
<text text-anchor="start" x="8" y="-40.5" font-family="Helvetica,sans-Serif" font-size="10.00">model::files::Block</text>
<text text-anchor="middle" x="48.5" y="-29.5" font-family="Helvetica,sans-Serif" font-size="10.00">::appendLine</text>
</a>
</g>
</g>
<!-- Node2 -->
<g id="node2" class="node">
<title>Node2</title>
<g id="a_node2"><a xlink:href="classmodel_1_1files_1_1_block.html#a62095335a15577b650ac8ecd9d438159" target="_top" xlink:title=" ">
<polygon fill="white" stroke="black" points="133,-22.5 133,-52.5 230,-52.5 230,-22.5 133,-22.5"/>
<text text-anchor="start" x="141" y="-40.5" font-family="Helvetica,sans-Serif" font-size="10.00">model::files::Block</text>
<text text-anchor="middle" x="181.5" y="-29.5" font-family="Helvetica,sans-Serif" font-size="10.00">::appendLines</text>
</a>
</g>
</g>
<!-- Node1&#45;&gt;Node2 -->
<g id="edge1" class="edge">
<title>Node1&#45;&gt;Node2</title>
<path fill="none" stroke="midnightblue" d="M97.16,-37.5C105.38,-37.5 114.01,-37.5 122.46,-37.5"/>
<polygon fill="midnightblue" stroke="midnightblue" points="122.65,-41 132.65,-37.5 122.65,-34 122.65,-41"/>
</g>
<!-- Node3 -->
<g id="node3" class="node">
<title>Node3</title>
<g id="a_node3"><a xlink:href="class_file_lock_manager.html#a8399a835b02b2013283423050efa52ba" target="_top" xlink:title=" ">
<polygon fill="white" stroke="black" points="266,-50 266,-69 413,-69 413,-50 266,-50"/>
<text text-anchor="middle" x="339.5" y="-57" font-family="Helvetica,sans-Serif" font-size="10.00">FileLockManager::getInstance</text>
</a>
</g>
</g>
<!-- Node2&#45;&gt;Node3 -->
<g id="edge2" class="edge">
<title>Node2&#45;&gt;Node3</title>
<path fill="none" stroke="midnightblue" d="M230.15,-44.22C239.93,-45.6 250.46,-47.08 260.98,-48.57"/>
<polygon fill="midnightblue" stroke="midnightblue" points="260.65,-52.06 271.04,-49.99 261.63,-45.12 260.65,-52.06"/>
</g>
<!-- Node4 -->
<g id="node4" class="node">
<title>Node4</title>
<g id="a_node4"><a xlink:href="classmodel_1_1files_1_1_block.html#ab5cd6a6f2c7ecc61d98a2f990bc59c5b" target="_top" xlink:title="open file stream if not already open and set mCurrentFileSize via tellg, update mLastUsed">
<polygon fill="white" stroke="black" points="291,-0.5 291,-30.5 388,-30.5 388,-0.5 291,-0.5"/>
<text text-anchor="start" x="299" y="-18.5" font-family="Helvetica,sans-Serif" font-size="10.00">model::files::Block</text>
<text text-anchor="middle" x="339.5" y="-7.5" font-family="Helvetica,sans-Serif" font-size="10.00">::getOpenFile</text>
</a>
</g>
</g>
<!-- Node2&#45;&gt;Node4 -->
<g id="edge3" class="edge">
<title>Node2&#45;&gt;Node4</title>
<path fill="none" stroke="midnightblue" d="M230.15,-30.78C246.11,-28.53 264.07,-26 280.71,-23.65"/>
<polygon fill="midnightblue" stroke="midnightblue" points="281.46,-27.08 290.87,-22.22 280.48,-20.15 281.46,-27.08"/>
</g>
</g>
</svg>
