<?xml version="1.0" encoding="UTF-8" standalone="no"?>
<!DOCTYPE svg PUBLIC "-//W3C//DTD SVG 1.1//EN"
 "http://www.w3.org/Graphics/SVG/1.1/DTD/svg11.dtd">
<!-- Generated by graphviz version 2.50.0 (20211204.2007)
 -->
<!-- Title: task::Task::unlock Pages: 1 -->
<svg width="421pt" height="116pt"
 viewBox="0.00 0.00 421.00 115.50" xmlns="http://www.w3.org/2000/svg" xmlns:xlink="http://www.w3.org/1999/xlink">
<g id="graph0" class="graph" transform="scale(1 1) rotate(0) translate(4 111.5)">
<title>task::Task::unlock</title>
<polygon fill="white" stroke="transparent" points="-4,4 -4,-111.5 417,-111.5 417,4 -4,4"/>
<!-- Node1 -->
<g id="node1" class="node">
<title>Node1</title>
<g id="a_node1"><a xlink:title=" ">
<polygon fill="#bfbfbf" stroke="black" points="316,-38.5 316,-57.5 413,-57.5 413,-38.5 316,-38.5"/>
<text text-anchor="middle" x="364.5" y="-45.5" font-family="Helvetica,sans-Serif" font-size="10.00">task::Task::unlock</text>
</a>
</g>
</g>
<!-- Node2 -->
<g id="node2" class="node">
<title>Node2</title>
<g id="a_node2"><a xlink:href="classtask_1_1_task.html#a83f2a80b04661d7e2732dc8934a2e8cc" target="_top" xlink:title="return true if all parent task finished or return false and schedule not already finished parent task...">
<polygon fill="white" stroke="black" points="149.5,-77 149.5,-107 270.5,-107 270.5,-77 149.5,-77"/>
<text text-anchor="start" x="157.5" y="-95" font-family="Helvetica,sans-Serif" font-size="10.00">task::Task::isAllParents</text>
<text text-anchor="middle" x="210" y="-84" font-family="Helvetica,sans-Serif" font-size="10.00">Ready</text>
</a>
</g>
</g>
<!-- Node1&#45;&gt;Node2 -->
<g id="edge1" class="edge">
<title>Node1&#45;&gt;Node2</title>
<path fill="none" stroke="midnightblue" d="M320.33,-60.46C302.56,-65.58 281.83,-71.56 263.22,-76.93"/>
<polygon fill="midnightblue" stroke="midnightblue" points="321.77,-63.68 330.41,-57.55 319.83,-56.96 321.77,-63.68"/>
</g>
<!-- Node4 -->
<g id="node4" class="node">
<title>Node4</title>
<g id="a_node4"><a xlink:href="classtask_1_1_task.html#aef3ee7384dd44e6274025f49e9405561" target="_top" xlink:title="return true if task has finished, else false automatic scheduling of task if he isn&#39;t finished and sh...">
<polygon fill="white" stroke="black" points="143,-38.5 143,-57.5 277,-57.5 277,-38.5 143,-38.5"/>
<text text-anchor="middle" x="210" y="-45.5" font-family="Helvetica,sans-Serif" font-size="10.00">task::Task::isTaskFinished</text>
</a>
</g>
</g>
<!-- Node1&#45;&gt;Node4 -->
<g id="edge3" class="edge">
<title>Node1&#45;&gt;Node4</title>
<path fill="none" stroke="midnightblue" d="M305.41,-48C296.16,-48 286.52,-48 277.1,-48"/>
<polygon fill="midnightblue" stroke="midnightblue" points="305.67,-51.5 315.67,-48 305.67,-44.5 305.67,-51.5"/>
</g>
<!-- Node5 -->
<g id="node5" class="node">
<title>Node5</title>
<g id="a_node5"><a xlink:href="classtask_1_1_task.html#a26788a6b9089c0fce798d9caf6fde4a4" target="_top" xlink:title=" ">
<polygon fill="white" stroke="black" points="140,-0.5 140,-19.5 280,-19.5 280,-0.5 140,-0.5"/>
<text text-anchor="middle" x="210" y="-7.5" font-family="Helvetica,sans-Serif" font-size="10.00">task::Task::setTaskFinished</text>
</a>
</g>
</g>
<!-- Node1&#45;&gt;Node5 -->
<g id="edge4" class="edge">
<title>Node1&#45;&gt;Node5</title>
<path fill="none" stroke="midnightblue" d="M315.18,-35.96C293.88,-30.65 269.2,-24.5 249.21,-19.52"/>
<polygon fill="midnightblue" stroke="midnightblue" points="314.47,-39.39 325.02,-38.41 316.16,-32.6 314.47,-39.39"/>
</g>
<!-- Node3 -->
<g id="node3" class="node">
<title>Node3</title>
<g id="a_node3"><a xlink:href="classtask_1_1_task.html#afe0f93bf727c643d86983d1142dd3117" target="_top" xlink:title=" ">
<polygon fill="white" stroke="black" points="0,-82.5 0,-101.5 104,-101.5 104,-82.5 0,-82.5"/>
<text text-anchor="middle" x="52" y="-89.5" font-family="Helvetica,sans-Serif" font-size="10.00">task::Task::isReady</text>
</a>
</g>
</g>
<!-- Node2&#45;&gt;Node3 -->
<g id="edge2" class="edge">
<title>Node2&#45;&gt;Node3</title>
<path fill="none" stroke="midnightblue" d="M138.97,-92C127.31,-92 115.41,-92 104.32,-92"/>
<polygon fill="midnightblue" stroke="midnightblue" points="139.13,-95.5 149.13,-92 139.13,-88.5 139.13,-95.5"/>
</g>
</g>
</svg>
