<?xml version="1.0" encoding="UTF-8" standalone="no"?>
<!DOCTYPE svg PUBLIC "-//W3C//DTD SVG 1.1//EN"
 "http://www.w3.org/Graphics/SVG/1.1/DTD/svg11.dtd">
<!-- Generated by graphviz version 2.50.0 (20211204.2007)
 -->
<!-- Title: GroupManager Pages: 1 -->
<svg width="274pt" height="441pt"
 viewBox="0.00 0.00 274.00 441.00" xmlns="http://www.w3.org/2000/svg" xmlns:xlink="http://www.w3.org/1999/xlink">
<g id="graph0" class="graph" transform="scale(1 1) rotate(0) translate(4 437)">
<title>GroupManager</title>
<polygon fill="white" stroke="transparent" points="-4,4 -4,-437 270,-437 270,4 -4,4"/>
<!-- Node1 -->
<g id="node1" class="node">
<title>Node1</title>
<g id="a_node1"><a xlink:title="for getting controller::Group for group public key">
<polygon fill="#bfbfbf" stroke="black" points="40,-0.5 40,-156.5 228,-156.5 228,-0.5 40,-0.5"/>
<text text-anchor="middle" x="134" y="-144.5" font-family="Helvetica,sans-Serif" font-size="10.00">GroupManager</text>
<polyline fill="none" stroke="black" points="40,-137.5 228,-137.5 "/>
<text text-anchor="start" x="48" y="-125.5" font-family="Helvetica,sans-Serif" font-size="10.00"># mInitalized</text>
<text text-anchor="start" x="48" y="-114.5" font-family="Helvetica,sans-Serif" font-size="10.00"># mGroupMap</text>
<text text-anchor="start" x="48" y="-103.5" font-family="Helvetica,sans-Serif" font-size="10.00"># mWorkMutex</text>
<polyline fill="none" stroke="black" points="40,-96.5 228,-96.5 "/>
<text text-anchor="start" x="48" y="-84.5" font-family="Helvetica,sans-Serif" font-size="10.00">+ ~GroupManager()</text>
<text text-anchor="start" x="48" y="-73.5" font-family="Helvetica,sans-Serif" font-size="10.00">+ init()</text>
<text text-anchor="start" x="48" y="-62.5" font-family="Helvetica,sans-Serif" font-size="10.00">+ findGroup()</text>
<text text-anchor="start" x="48" y="-51.5" font-family="Helvetica,sans-Serif" font-size="10.00">+ findAllGroupsWhichHaveTransactions</text>
<text text-anchor="start" x="48" y="-40.5" font-family="Helvetica,sans-Serif" font-size="10.00">ForPubkey()</text>
<text text-anchor="start" x="48" y="-29.5" font-family="Helvetica,sans-Serif" font-size="10.00">+ exit()</text>
<text text-anchor="start" x="48" y="-18.5" font-family="Helvetica,sans-Serif" font-size="10.00">+ getInstance()</text>
<text text-anchor="start" x="48" y="-7.5" font-family="Helvetica,sans-Serif" font-size="10.00"># GroupManager()</text>
</a>
</g>
</g>
<!-- Node2 -->
<g id="node2" class="node">
<title>Node2</title>
<g id="a_node2"><a xlink:href="classcontroller_1_1_group_index.html" target="_top" xlink:title="storing group folder name in memory in hash list for fast access">
<polygon fill="white" stroke="black" points="78,-204.5 78,-316.5 190,-316.5 190,-204.5 78,-204.5"/>
<text text-anchor="middle" x="134" y="-304.5" font-family="Helvetica,sans-Serif" font-size="10.00">controller::GroupIndex</text>
<polyline fill="none" stroke="black" points="78,-297.5 190,-297.5 "/>
<text text-anchor="start" x="86" y="-285.5" font-family="Helvetica,sans-Serif" font-size="10.00"># mGroups</text>
<polyline fill="none" stroke="black" points="78,-278.5 190,-278.5 "/>
<text text-anchor="start" x="86" y="-266.5" font-family="Helvetica,sans-Serif" font-size="10.00">+ GroupIndex()</text>
<text text-anchor="start" x="86" y="-255.5" font-family="Helvetica,sans-Serif" font-size="10.00">+ ~GroupIndex()</text>
<text text-anchor="start" x="86" y="-244.5" font-family="Helvetica,sans-Serif" font-size="10.00">+ update()</text>
<text text-anchor="start" x="86" y="-233.5" font-family="Helvetica,sans-Serif" font-size="10.00">+ getFolder()</text>
<text text-anchor="start" x="86" y="-222.5" font-family="Helvetica,sans-Serif" font-size="10.00">+ listGroupAliases()</text>
<text text-anchor="start" x="86" y="-211.5" font-family="Helvetica,sans-Serif" font-size="10.00"># clear()</text>
</a>
</g>
</g>
<!-- Node2&#45;&gt;Node1 -->
<g id="edge1" class="edge">
<title>Node2&#45;&gt;Node1</title>
<path fill="none" stroke="#404040" d="M134,-204.03C134,-192.79 134,-180.71 134,-168.65"/>
<polygon fill="none" stroke="#404040" points="134,-168.63 130,-162.63 134,-156.63 138,-162.63 134,-168.63"/>
<text text-anchor="middle" x="167.5" y="-178" font-family="Helvetica,sans-Serif" font-size="10.00"> #mGroupIndex</text>
</g>
<!-- Node3 -->
<g id="node3" class="node">
<title>Node3</title>
<g id="a_node3"><a xlink:href="classcontroller_1_1_controller_base.html" target="_top" xlink:title=" ">
<polygon fill="white" stroke="black" points="0,-370 0,-427 126,-427 126,-370 0,-370"/>
<text text-anchor="middle" x="63" y="-415" font-family="Helvetica,sans-Serif" font-size="10.00">controller::ControllerBase</text>
<polyline fill="none" stroke="black" points="0,-408 126,-408 "/>
<text text-anchor="start" x="8" y="-396" font-family="Helvetica,sans-Serif" font-size="10.00"># mWorkingMutex</text>
<polyline fill="none" stroke="black" points="0,-389 126,-389 "/>
<text text-anchor="middle" x="63" y="-377" font-family="Helvetica,sans-Serif" font-size="10.00"> </text>
</a>
</g>
</g>
<!-- Node3&#45;&gt;Node2 -->
<g id="edge2" class="edge">
<title>Node3&#45;&gt;Node2</title>
<path fill="none" stroke="midnightblue" d="M82.1,-360.91C89.22,-347.27 97.48,-331.46 105.28,-316.52"/>
<polygon fill="none" stroke="midnightblue" points="78.89,-359.49 77.37,-369.98 85.1,-362.73 78.89,-359.49"/>
</g>
<!-- Node4 -->
<g id="node4" class="node">
<title>Node4</title>
<g id="a_node4"><a xlink:href="classmodel_1_1files_1_1_group_index.html" target="_top" xlink:title="load group.index file with group alias = folder assignments">
<polygon fill="white" stroke="black" points="144,-364.5 144,-432.5 266,-432.5 266,-364.5 144,-364.5"/>
<text text-anchor="middle" x="205" y="-420.5" font-family="Helvetica,sans-Serif" font-size="10.00">model::files::GroupIndex</text>
<polyline fill="none" stroke="black" points="144,-413.5 266,-413.5 "/>
<text text-anchor="start" x="152" y="-401.5" font-family="Helvetica,sans-Serif" font-size="10.00"># mConfig</text>
<polyline fill="none" stroke="black" points="144,-394.5 266,-394.5 "/>
<text text-anchor="start" x="152" y="-382.5" font-family="Helvetica,sans-Serif" font-size="10.00">+ GroupIndex()</text>
<text text-anchor="start" x="152" y="-371.5" font-family="Helvetica,sans-Serif" font-size="10.00">+ getConfig()</text>
</a>
</g>
</g>
<!-- Node4&#45;&gt;Node2 -->
<g id="edge3" class="edge">
<title>Node4&#45;&gt;Node2</title>
<path fill="none" stroke="#404040" d="M187.63,-364.23C181.79,-353.05 175.06,-340.16 168.38,-327.36"/>
<polygon fill="none" stroke="#404040" points="168.36,-327.32 162.04,-323.85 162.81,-316.68 169.13,-320.15 168.36,-327.32"/>
<text text-anchor="middle" x="198.5" y="-338" font-family="Helvetica,sans-Serif" font-size="10.00"> #mModel</text>
</g>
</g>
</svg>
