<?xml version="1.0" encoding="UTF-8" standalone="no"?>
<!DOCTYPE svg PUBLIC "-//W3C//DTD SVG 1.1//EN"
 "http://www.w3.org/Graphics/SVG/1.1/DTD/svg11.dtd">
<!-- Generated by graphviz version 2.50.0 (20211204.2007)
 -->
<!-- Title: model::files::BlockAppendLineTask Pages: 1 -->
<svg width="146pt" height="529pt"
 viewBox="0.00 0.00 146.00 529.00" xmlns="http://www.w3.org/2000/svg" xmlns:xlink="http://www.w3.org/1999/xlink">
<g id="graph0" class="graph" transform="scale(1 1) rotate(0) translate(4 525)">
<title>model::files::BlockAppendLineTask</title>
<polygon fill="white" stroke="transparent" points="-4,4 -4,-525 142,-525 142,4 -4,4"/>
<!-- Node1 -->
<g id="node1" class="node">
<title>Node1</title>
<g id="a_node1"><a xlink:title=" ">
<polygon fill="#bfbfbf" stroke="black" points="4,-0.5 4,-112.5 134,-112.5 134,-0.5 4,-0.5"/>
<text text-anchor="start" x="12" y="-100.5" font-family="Helvetica,sans-Serif" font-size="10.00">model::files::BlockAppend</text>
<text text-anchor="middle" x="69" y="-89.5" font-family="Helvetica,sans-Serif" font-size="10.00">LineTask</text>
<polyline fill="none" stroke="black" points="4,-82.5 134,-82.5 "/>
<text text-anchor="start" x="12" y="-70.5" font-family="Helvetica,sans-Serif" font-size="10.00"># mTargetBlock</text>
<text text-anchor="start" x="12" y="-59.5" font-family="Helvetica,sans-Serif" font-size="10.00"># mLines</text>
<text text-anchor="start" x="12" y="-48.5" font-family="Helvetica,sans-Serif" font-size="10.00"># mCursorPositions</text>
<polyline fill="none" stroke="black" points="4,-41.5 134,-41.5 "/>
<text text-anchor="start" x="12" y="-29.5" font-family="Helvetica,sans-Serif" font-size="10.00">+ BlockAppendLineTask()</text>
<text text-anchor="start" x="12" y="-18.5" font-family="Helvetica,sans-Serif" font-size="10.00">+ getResourceType()</text>
<text text-anchor="start" x="12" y="-7.5" font-family="Helvetica,sans-Serif" font-size="10.00">+ run()</text>
</a>
</g>
</g>
<!-- Node2 -->
<g id="node2" class="node">
<title>Node2</title>
<g id="a_node2"><a xlink:href="classtask_1_1_c_p_u_task.html" target="_top" xlink:title=" ">
<polygon fill="white" stroke="black" points="15.5,-149.5 15.5,-272.5 122.5,-272.5 122.5,-149.5 15.5,-149.5"/>
<text text-anchor="middle" x="69" y="-260.5" font-family="Helvetica,sans-Serif" font-size="10.00">task::CPUTask</text>
<polyline fill="none" stroke="black" points="15.5,-253.5 122.5,-253.5 "/>
<text text-anchor="middle" x="69" y="-241.5" font-family="Helvetica,sans-Serif" font-size="10.00"> </text>
<polyline fill="none" stroke="black" points="15.5,-234.5 122.5,-234.5 "/>
<text text-anchor="start" x="23.5" y="-222.5" font-family="Helvetica,sans-Serif" font-size="10.00">+ CPUTask()</text>
<text text-anchor="start" x="23.5" y="-211.5" font-family="Helvetica,sans-Serif" font-size="10.00">+ CPUTask()</text>
<text text-anchor="start" x="23.5" y="-200.5" font-family="Helvetica,sans-Serif" font-size="10.00">+ CPUTask()</text>
<text text-anchor="start" x="23.5" y="-189.5" font-family="Helvetica,sans-Serif" font-size="10.00">+ ~CPUTask()</text>
<text text-anchor="start" x="23.5" y="-178.5" font-family="Helvetica,sans-Serif" font-size="10.00">+ getResourceType()</text>
<text text-anchor="start" x="23.5" y="-167.5" font-family="Helvetica,sans-Serif" font-size="10.00">+ scheduleTask()</text>
<text text-anchor="start" x="23.5" y="-156.5" font-family="Helvetica,sans-Serif" font-size="10.00"># triggerSheduler()</text>
</a>
</g>
</g>
<!-- Node2&#45;&gt;Node1 -->
<g id="edge1" class="edge">
<title>Node2&#45;&gt;Node1</title>
<path fill="none" stroke="#8b1a1a" d="M69,-139.25C69,-130.29 69,-121.23 69,-112.56"/>
<polygon fill="none" stroke="#8b1a1a" points="65.5,-139.29 69,-149.29 72.5,-139.29 65.5,-139.29"/>
</g>
<!-- Node3 -->
<g id="node3" class="node">
<title>Node3</title>
<g id="a_node3"><a xlink:href="classtask_1_1_task.html" target="_top" xlink:title=" ">
<polygon fill="white" stroke="black" points="0,-309.5 0,-520.5 138,-520.5 138,-309.5 0,-309.5"/>
<text text-anchor="middle" x="69" y="-508.5" font-family="Helvetica,sans-Serif" font-size="10.00">task::Task</text>
<polyline fill="none" stroke="black" points="0,-501.5 138,-501.5 "/>
<text text-anchor="start" x="8" y="-489.5" font-family="Helvetica,sans-Serif" font-size="10.00"># mTaskScheduled</text>
<text text-anchor="start" x="8" y="-478.5" font-family="Helvetica,sans-Serif" font-size="10.00"># mFinishCommand</text>
<polyline fill="none" stroke="black" points="0,-471.5 138,-471.5 "/>
<text text-anchor="start" x="8" y="-459.5" font-family="Helvetica,sans-Serif" font-size="10.00">+ Task()</text>
<text text-anchor="start" x="8" y="-448.5" font-family="Helvetica,sans-Serif" font-size="10.00">+ Task()</text>
<text text-anchor="start" x="8" y="-437.5" font-family="Helvetica,sans-Serif" font-size="10.00">+ ~Task()</text>
<text text-anchor="start" x="8" y="-426.5" font-family="Helvetica,sans-Serif" font-size="10.00">+ isReady()</text>
<text text-anchor="start" x="8" y="-415.5" font-family="Helvetica,sans-Serif" font-size="10.00">+ isAllParentsReady()</text>
<text text-anchor="start" x="8" y="-404.5" font-family="Helvetica,sans-Serif" font-size="10.00">+ isTaskFinished()</text>
<text text-anchor="start" x="8" y="-393.5" font-family="Helvetica,sans-Serif" font-size="10.00">+ run()</text>
<text text-anchor="start" x="8" y="-382.5" font-family="Helvetica,sans-Serif" font-size="10.00">+ lock()</text>
<text text-anchor="start" x="8" y="-371.5" font-family="Helvetica,sans-Serif" font-size="10.00">+ unlock()</text>
<text text-anchor="start" x="8" y="-360.5" font-family="Helvetica,sans-Serif" font-size="10.00">+ setParentTaskPtrInArray()</text>
<text text-anchor="start" x="8" y="-349.5" font-family="Helvetica,sans-Serif" font-size="10.00">and 10 more...</text>
<text text-anchor="start" x="8" y="-338.5" font-family="Helvetica,sans-Serif" font-size="10.00"># isTaskSheduled()</text>
<text text-anchor="start" x="8" y="-327.5" font-family="Helvetica,sans-Serif" font-size="10.00"># taskScheduled()</text>
<text text-anchor="start" x="8" y="-316.5" font-family="Helvetica,sans-Serif" font-size="10.00"># getParent()</text>
</a>
</g>
</g>
<!-- Node3&#45;&gt;Node2 -->
<g id="edge2" class="edge">
<title>Node3&#45;&gt;Node2</title>
<path fill="none" stroke="midnightblue" d="M69,-299.43C69,-290.24 69,-281.2 69,-272.63"/>
<polygon fill="none" stroke="midnightblue" points="65.5,-299.45 69,-309.45 72.5,-299.45 65.5,-299.45"/>
</g>
</g>
</svg>
