<?xml version="1.0" encoding="UTF-8" standalone="no"?>
<!DOCTYPE svg PUBLIC "-//W3C//DTD SVG 1.1//EN"
 "http://www.w3.org/Graphics/SVG/1.1/DTD/svg11.dtd">
<!-- Generated by graphviz version 2.50.0 (20211204.2007)
 -->
<!-- Title: OrderingManager::getInstance Pages: 1 -->
<svg width="527pt" height="214pt"
 viewBox="0.00 0.00 527.00 213.50" xmlns="http://www.w3.org/2000/svg" xmlns:xlink="http://www.w3.org/1999/xlink">
<g id="graph0" class="graph" transform="scale(1 1) rotate(0) translate(4 209.5)">
<title>OrderingManager::getInstance</title>
<polygon fill="white" stroke="transparent" points="-4,4 -4,-209.5 523,-209.5 523,4 -4,4"/>
<!-- Node1 -->
<g id="node1" class="node">
<title>Node1</title>
<g id="a_node1"><a xlink:title=" ">
<polygon fill="#bfbfbf" stroke="black" points="372,-104 372,-123 519,-123 519,-104 372,-104"/>
<text text-anchor="middle" x="445.5" y="-111" font-family="Helvetica,sans-Serif" font-size="10.00">OrderingManager::getInstance</text>
</a>
</g>
</g>
<!-- Node2 -->
<g id="node2" class="node">
<title>Node2</title>
<g id="a_node2"><a xlink:href="class_main_server.html#a09dcb399eb71be7dffe478bd64545d11" target="_top" xlink:title=" ">
<polygon fill="white" stroke="black" points="196.5,-186 196.5,-205 288.5,-205 288.5,-186 196.5,-186"/>
<text text-anchor="middle" x="242.5" y="-193" font-family="Helvetica,sans-Serif" font-size="10.00">MainServer::main</text>
</a>
</g>
</g>
<!-- Node1&#45;&gt;Node2 -->
<g id="edge1" class="edge">
<title>Node1&#45;&gt;Node2</title>
<path fill="none" stroke="midnightblue" d="M422.91,-128.87C401.74,-143.25 368.05,-164.28 336,-176.5 320.99,-182.22 303.91,-186.35 288.56,-189.26"/>
<polygon fill="midnightblue" stroke="midnightblue" points="424.94,-131.73 431.18,-123.17 420.96,-125.97 424.94,-131.73"/>
</g>
<!-- Node3 -->
<g id="node3" class="node">
<title>Node3</title>
<g id="a_node3"><a xlink:href="classiota_1_1_message_validator.html#ae40ebf08ab355e937f5120168c26f47b" target="_top" xlink:title=" ">
<polygon fill="white" stroke="black" points="174.5,-148 174.5,-167 310.5,-167 310.5,-148 174.5,-148"/>
<text text-anchor="middle" x="242.5" y="-155" font-family="Helvetica,sans-Serif" font-size="10.00">iota::MessageValidator::run</text>
</a>
</g>
</g>
<!-- Node1&#45;&gt;Node3 -->
<g id="edge2" class="edge">
<title>Node1&#45;&gt;Node3</title>
<path fill="none" stroke="midnightblue" d="M394.23,-125.35C375.92,-129.59 355.04,-134.35 336,-138.5 321.42,-141.68 305.52,-144.99 291.08,-147.95"/>
<polygon fill="midnightblue" stroke="midnightblue" points="395.16,-128.72 404.1,-123.05 393.57,-121.91 395.16,-128.72"/>
</g>
<!-- Node4 -->
<g id="node4" class="node">
<title>Node4</title>
<g id="a_node4"><a xlink:href="class_iota_message_to_transaction_task.html#afc547eb27e6a9e33d9ec6777c764aa2e" target="_top" xlink:title="called from task scheduler, maybe from another thread">
<polygon fill="white" stroke="black" points="176,-98.5 176,-128.5 309,-128.5 309,-98.5 176,-98.5"/>
<text text-anchor="start" x="184" y="-116.5" font-family="Helvetica,sans-Serif" font-size="10.00">IotaMessageToTransaction</text>
<text text-anchor="middle" x="242.5" y="-105.5" font-family="Helvetica,sans-Serif" font-size="10.00">Task::run</text>
</a>
</g>
</g>
<!-- Node1&#45;&gt;Node4 -->
<g id="edge3" class="edge">
<title>Node1&#45;&gt;Node4</title>
<path fill="none" stroke="midnightblue" d="M361.74,-113.5C344.26,-113.5 326.04,-113.5 309.28,-113.5"/>
<polygon fill="midnightblue" stroke="midnightblue" points="361.93,-117 371.93,-113.5 361.93,-110 361.93,-117"/>
</g>
<!-- Node5 -->
<g id="node5" class="node">
<title>Node5</title>
<g id="a_node5"><a xlink:href="classiota_1_1_message_listener.html#a926ee84ffd0a46cae70d8dc90baa8ab8" target="_top" xlink:title=" ">
<polygon fill="white" stroke="black" points="180,-49.5 180,-79.5 305,-79.5 305,-49.5 180,-49.5"/>
<text text-anchor="start" x="188" y="-67.5" font-family="Helvetica,sans-Serif" font-size="10.00">iota::MessageListener</text>
<text text-anchor="middle" x="242.5" y="-56.5" font-family="Helvetica,sans-Serif" font-size="10.00">::updateStoredMessages</text>
</a>
</g>
</g>
<!-- Node1&#45;&gt;Node5 -->
<g id="edge4" class="edge">
<title>Node1&#45;&gt;Node5</title>
<path fill="none" stroke="midnightblue" d="M395.22,-101.49C368.06,-94.86 334.09,-86.58 305.18,-79.54"/>
<polygon fill="midnightblue" stroke="midnightblue" points="394.72,-104.97 405.27,-103.94 396.38,-98.17 394.72,-104.97"/>
</g>
<!-- Node7 -->
<g id="node7" class="node">
<title>Node7</title>
<g id="a_node7"><a xlink:href="class_iota_message_to_transaction_task.html#ad5fc6d59bfc57d1220b9b8e9441bab35" target="_top" xlink:title=" ">
<polygon fill="white" stroke="black" points="149,-0.5 149,-30.5 336,-30.5 336,-0.5 149,-0.5"/>
<text text-anchor="start" x="157" y="-18.5" font-family="Helvetica,sans-Serif" font-size="10.00">IotaMessageToTransaction</text>
<text text-anchor="middle" x="242.5" y="-7.5" font-family="Helvetica,sans-Serif" font-size="10.00">Task::~IotaMessageToTransactionTask</text>
</a>
</g>
</g>
<!-- Node1&#45;&gt;Node7 -->
<g id="edge6" class="edge">
<title>Node1&#45;&gt;Node7</title>
<path fill="none" stroke="midnightblue" d="M424.84,-97.34C403.97,-80.91 369.43,-55.76 336,-40.5 327.68,-36.7 318.66,-33.38 309.63,-30.51"/>
<polygon fill="midnightblue" stroke="midnightblue" points="422.91,-100.28 432.91,-103.79 427.29,-94.81 422.91,-100.28"/>
</g>
<!-- Node6 -->
<g id="node6" class="node">
<title>Node6</title>
<g id="a_node6"><a xlink:href="classiota_1_1_message_listener.html#ac74a94a38ef22e72295d183ea71af35d" target="_top" xlink:title=" ">
<polygon fill="white" stroke="black" points="0,-49.5 0,-79.5 113,-79.5 113,-49.5 0,-49.5"/>
<text text-anchor="start" x="8" y="-67.5" font-family="Helvetica,sans-Serif" font-size="10.00">iota::MessageListener</text>
<text text-anchor="middle" x="56.5" y="-56.5" font-family="Helvetica,sans-Serif" font-size="10.00">::callFromTimer</text>
</a>
</g>
</g>
<!-- Node5&#45;&gt;Node6 -->
<g id="edge5" class="edge">
<title>Node5&#45;&gt;Node6</title>
<path fill="none" stroke="midnightblue" d="M169.93,-64.5C151.06,-64.5 130.97,-64.5 113.08,-64.5"/>
<polygon fill="midnightblue" stroke="midnightblue" points="169.97,-68 179.97,-64.5 169.97,-61 169.97,-68"/>
</g>
</g>
</svg>
