<?xml version="1.0" encoding="UTF-8" standalone="no"?>
<!DOCTYPE svg PUBLIC "-//W3C//DTD SVG 1.1//EN"
 "http://www.w3.org/Graphics/SVG/1.1/DTD/svg11.dtd">
<!-- Generated by graphviz version 2.50.0 (20211204.2007)
 -->
<!-- Title: model::files::AddressIndex::writeToFile Pages: 1 -->
<svg width="489pt" height="127pt"
 viewBox="0.00 0.00 489.00 126.50" xmlns="http://www.w3.org/2000/svg" xmlns:xlink="http://www.w3.org/1999/xlink">
<g id="graph0" class="graph" transform="scale(1 1) rotate(0) translate(4 122.5)">
<title>model::files::AddressIndex::writeToFile</title>
<polygon fill="white" stroke="transparent" points="-4,4 -4,-122.5 485,-122.5 485,4 -4,4"/>
<!-- Node1 -->
<g id="node1" class="node">
<title>Node1</title>
<g id="a_node1"><a xlink:title="Write new index file if checkFile return true, use Poco::FastMutex::ScopedLock, fileLock via FileLock...">
<polygon fill="#bfbfbf" stroke="black" points="0,-39 0,-69 131,-69 131,-39 0,-39"/>
<text text-anchor="start" x="8" y="-57" font-family="Helvetica,sans-Serif" font-size="10.00">model::files::AddressIndex</text>
<text text-anchor="middle" x="65.5" y="-46" font-family="Helvetica,sans-Serif" font-size="10.00">::writeToFile</text>
</a>
</g>
</g>
<!-- Node2 -->
<g id="node2" class="node">
<title>Node2</title>
<g id="a_node2"><a xlink:href="classmodel_1_1files_1_1_address_index.html#af0ff6103a23eaa7b57f9eb053bf5b8c1" target="_top" xlink:title="Calculate file hash from map entrys sorted by indices.">
<polygon fill="white" stroke="black" points="167,-88 167,-118 298,-118 298,-88 167,-88"/>
<text text-anchor="start" x="175" y="-106" font-family="Helvetica,sans-Serif" font-size="10.00">model::files::AddressIndex</text>
<text text-anchor="middle" x="232.5" y="-95" font-family="Helvetica,sans-Serif" font-size="10.00">::calculateHash</text>
</a>
</g>
</g>
<!-- Node1&#45;&gt;Node2 -->
<g id="edge1" class="edge">
<title>Node1&#45;&gt;Node2</title>
<path fill="none" stroke="midnightblue" d="M117.35,-69.1C134.37,-74.16 153.5,-79.84 171.17,-85.08"/>
<polygon fill="midnightblue" stroke="midnightblue" points="170.23,-88.46 180.82,-87.95 172.23,-81.75 170.23,-88.46"/>
</g>
<!-- Node3 -->
<g id="node3" class="node">
<title>Node3</title>
<g id="a_node3"><a xlink:href="classmodel_1_1files_1_1_address_index.html#af316cd9ce255efa0b2cfd80d6778d7b1" target="_top" xlink:title="Check if index file contains current indices (compare sizes), fileLock via FileLockManager,...">
<polygon fill="white" stroke="black" points="167,-39 167,-69 298,-69 298,-39 167,-39"/>
<text text-anchor="start" x="175" y="-57" font-family="Helvetica,sans-Serif" font-size="10.00">model::files::AddressIndex</text>
<text text-anchor="middle" x="232.5" y="-46" font-family="Helvetica,sans-Serif" font-size="10.00">::checkFile</text>
</a>
</g>
</g>
<!-- Node1&#45;&gt;Node3 -->
<g id="edge2" class="edge">
<title>Node1&#45;&gt;Node3</title>
<path fill="none" stroke="midnightblue" d="M131.24,-54C139.58,-54 148.18,-54 156.67,-54"/>
<polygon fill="midnightblue" stroke="midnightblue" points="156.95,-57.5 166.95,-54 156.95,-50.5 156.95,-57.5"/>
</g>
<!-- Node5 -->
<g id="node5" class="node">
<title>Node5</title>
<g id="a_node5"><a xlink:href="class_file_lock_manager.html#a8399a835b02b2013283423050efa52ba" target="_top" xlink:title=" ">
<polygon fill="white" stroke="black" points="334,-0.5 334,-19.5 481,-19.5 481,-0.5 334,-0.5"/>
<text text-anchor="middle" x="407.5" y="-7.5" font-family="Helvetica,sans-Serif" font-size="10.00">FileLockManager::getInstance</text>
</a>
</g>
</g>
<!-- Node1&#45;&gt;Node5 -->
<g id="edge5" class="edge">
<title>Node1&#45;&gt;Node5</title>
<path fill="none" stroke="midnightblue" d="M119.88,-38.99C135.01,-35.21 151.56,-31.52 167,-29 218.78,-20.57 277.49,-15.83 323.82,-13.2"/>
<polygon fill="midnightblue" stroke="midnightblue" points="324.02,-16.69 333.81,-12.65 323.64,-9.7 324.02,-16.69"/>
</g>
<!-- Node4 -->
<g id="node4" class="node">
<title>Node4</title>
<g id="a_node4"><a xlink:href="classmodel_1_1files_1_1_address_index.html#a45a9ec196ac5eea967c8eb11f77ac6cb" target="_top" xlink:title="Calculate file size from map entry count + space for hash, use Poco::FastMutex::ScopedLock.">
<polygon fill="white" stroke="black" points="342,-39 342,-69 473,-69 473,-39 342,-39"/>
<text text-anchor="start" x="350" y="-57" font-family="Helvetica,sans-Serif" font-size="10.00">model::files::AddressIndex</text>
<text text-anchor="middle" x="407.5" y="-46" font-family="Helvetica,sans-Serif" font-size="10.00">::calculateFileSize</text>
</a>
</g>
</g>
<!-- Node3&#45;&gt;Node4 -->
<g id="edge3" class="edge">
<title>Node3&#45;&gt;Node4</title>
<path fill="none" stroke="midnightblue" d="M298.41,-54C309.28,-54 320.62,-54 331.71,-54"/>
<polygon fill="midnightblue" stroke="midnightblue" points="331.8,-57.5 341.8,-54 331.8,-50.5 331.8,-57.5"/>
</g>
<!-- Node3&#45;&gt;Node5 -->
<g id="edge4" class="edge">
<title>Node3&#45;&gt;Node5</title>
<path fill="none" stroke="midnightblue" d="M292.55,-38.98C314.34,-33.44 338.72,-27.24 359.32,-22"/>
<polygon fill="midnightblue" stroke="midnightblue" points="360.27,-25.37 369.1,-19.51 358.54,-18.59 360.27,-25.37"/>
</g>
</g>
</svg>
