<?xml version="1.0" encoding="UTF-8" standalone="no"?>
<!DOCTYPE svg PUBLIC "-//W3C//DTD SVG 1.1//EN"
 "http://www.w3.org/Graphics/SVG/1.1/DTD/svg11.dtd">
<!-- Generated by graphviz version 2.50.0 (20211204.2007)
 -->
<!-- Title: JsonRPCHandler::getTransactions Pages: 1 -->
<svg width="346pt" height="127pt"
 viewBox="0.00 0.00 346.00 126.50" xmlns="http://www.w3.org/2000/svg" xmlns:xlink="http://www.w3.org/1999/xlink">
<g id="graph0" class="graph" transform="scale(1 1) rotate(0) translate(4 122.5)">
<title>JsonRPCHandler::getTransactions</title>
<polygon fill="white" stroke="transparent" points="-4,4 -4,-122.5 342,-122.5 342,4 -4,4"/>
<!-- Node1 -->
<g id="node1" class="node">
<title>Node1</title>
<g id="a_node1"><a xlink:title=" ">
<polygon fill="#bfbfbf" stroke="black" points="0,-55 0,-74 165,-74 165,-55 0,-55"/>
<text text-anchor="middle" x="82.5" y="-62" font-family="Helvetica,sans-Serif" font-size="10.00">JsonRPCHandler::getTransactions</text>
</a>
</g>
</g>
<!-- Node2 -->
<g id="node2" class="node">
<title>Node2</title>
<g id="a_node2"><a xlink:href="class_group_manager.html#a023ecd32edba5827e65a8228298fdffc" target="_top" xlink:title=" ">
<polygon fill="white" stroke="black" points="201,-99 201,-118 338,-118 338,-99 201,-99"/>
<text text-anchor="middle" x="269.5" y="-106" font-family="Helvetica,sans-Serif" font-size="10.00">GroupManager::getInstance</text>
</a>
</g>
</g>
<!-- Node1&#45;&gt;Node2 -->
<g id="edge1" class="edge">
<title>Node1&#45;&gt;Node2</title>
<path fill="none" stroke="midnightblue" d="M123.64,-74.05C151.52,-80.68 188.86,-89.56 218.65,-96.64"/>
<polygon fill="midnightblue" stroke="midnightblue" points="217.9,-100.06 228.44,-98.97 219.52,-93.25 217.9,-100.06"/>
</g>
<!-- Node3 -->
<g id="node3" class="node">
<title>Node3</title>
<g id="a_node3"><a xlink:href="class_json_request_handler.html#a1f0cd333c5fd72c0dd5d7899d9aa5926" target="_top" xlink:title=" ">
<polygon fill="white" stroke="black" points="216.5,-49.5 216.5,-79.5 322.5,-79.5 322.5,-49.5 216.5,-49.5"/>
<text text-anchor="start" x="224.5" y="-67.5" font-family="Helvetica,sans-Serif" font-size="10.00">JsonRequestHandler</text>
<text text-anchor="middle" x="269.5" y="-56.5" font-family="Helvetica,sans-Serif" font-size="10.00">::stateError</text>
</a>
</g>
</g>
<!-- Node1&#45;&gt;Node3 -->
<g id="edge2" class="edge">
<title>Node1&#45;&gt;Node3</title>
<path fill="none" stroke="midnightblue" d="M165.18,-64.5C178.93,-64.5 193,-64.5 206.16,-64.5"/>
<polygon fill="midnightblue" stroke="midnightblue" points="206.49,-68 216.49,-64.5 206.49,-61 206.49,-68"/>
</g>
<!-- Node4 -->
<g id="node4" class="node">
<title>Node4</title>
<g id="a_node4"><a xlink:href="class_json_request_handler.html#ac98c00cf75a53afb27cd5c223bfabeb6" target="_top" xlink:title=" ">
<polygon fill="white" stroke="black" points="216.5,-0.5 216.5,-30.5 322.5,-30.5 322.5,-0.5 216.5,-0.5"/>
<text text-anchor="start" x="224.5" y="-18.5" font-family="Helvetica,sans-Serif" font-size="10.00">JsonRequestHandler</text>
<text text-anchor="middle" x="269.5" y="-7.5" font-family="Helvetica,sans-Serif" font-size="10.00">::stateSuccess</text>
</a>
</g>
</g>
<!-- Node1&#45;&gt;Node4 -->
<g id="edge3" class="edge">
<title>Node1&#45;&gt;Node4</title>
<path fill="none" stroke="midnightblue" d="M119.61,-54.94C144.25,-48.41 177.53,-39.59 206.38,-31.95"/>
<polygon fill="midnightblue" stroke="midnightblue" points="207.61,-35.25 216.38,-29.31 205.81,-28.48 207.61,-35.25"/>
</g>
</g>
</svg>
