<?xml version="1.0" encoding="UTF-8" standalone="no"?>
<!DOCTYPE svg PUBLIC "-//W3C//DTD SVG 1.1//EN"
 "http://www.w3.org/Graphics/SVG/1.1/DTD/svg11.dtd">
<!-- Generated by graphviz version 2.50.0 (20211204.2007)
 -->
<!-- Title: controller::Block Pages: 1 -->
<!--zoomable 541 -->
<svg id="main" version="1.1" xmlns="http://www.w3.org/2000/svg" xmlns:xlink="http://www.w3.org/1999/xlink" xml:space="preserve" onload="init(evt)">
<style type="text/css"><![CDATA[
.edge:hover path { stroke: red; }
.edge:hover polygon { stroke: red; fill: red; }
]]></style>
<script type="text/javascript"><![CDATA[
var edges = document.getElementsByTagName('g');
if (edges && edges.length) {
  for (var i=0;i<edges.length;i++) {
    if (edges[i].id.substr(0,4)=='edge') {
      edges[i].setAttribute('class','edge');
    }
  }
}
]]></script>
        <defs>
                <circle id="rim" cx="0" cy="0" r="7"/>
                <circle id="rim2" cx="0" cy="0" r="3.5"/>
                <g id="zoomPlus">
                        <use xlink:href="#rim" fill="#404040">
                                <set attributeName="fill" to="#808080" begin="zoomplus.mouseover" end="zoomplus.mouseout"/>
                        </use>
                        <path d="M-4,0h8M0,-4v8" fill="none" stroke="white" stroke-width="1.5" pointer-events="none"/>
                </g>
                <g id="zoomMin">
                        <use xlink:href="#rim" fill="#404040">
                                <set attributeName="fill" to="#808080" begin="zoomminus.mouseover" end="zoomminus.mouseout"/>
                        </use>
                        <path d="M-4,0h8" fill="none" stroke="white" stroke-width="1.5" pointer-events="none"/>
                </g>
                <g id="dirArrow">
                        <path fill="none" stroke="white" stroke-width="1.5" d="M0,-3.0v7 M-2.5,-0.5L0,-3.0L2.5,-0.5"/>
                </g>
               <g id="resetDef">
                       <use xlink:href="#rim2" fill="#404040">
                               <set attributeName="fill" to="#808080" begin="reset.mouseover" end="reset.mouseout"/>
                       </use>
               </g>
        </defs>

<script type="text/javascript">
var viewWidth = 426;
var viewHeight = 541;
var sectionId = 'dynsection-1';
</script>
<script xlink:href="svgpan.js"/>
<svg id="graph" class="graph">
<g id="viewport">
<title>controller::Block</title>
<polygon fill="white" stroke="transparent" points="-4,4 -4,-537 422,-537 422,4 -4,4"/>
<!-- Node1 -->
<g id="node1" class="node">
<title>Node1</title>
<g id="a_node1"><a xlink:title="interface for adding and getting transactions from specific block">
<polygon fill="#bfbfbf" stroke="black" points="132.5,-0.5 132.5,-233.5 263.5,-233.5 263.5,-0.5 132.5,-0.5"/>
<text text-anchor="middle" x="198" y="-221.5" font-family="Helvetica,sans-Serif" font-size="10.00">controller::Block</text>
<polyline fill="none" stroke="black" points="132.5,-214.5 263.5,-214.5 "/>
<text text-anchor="start" x="140.5" y="-202.5" font-family="Helvetica,sans-Serif" font-size="10.00"># mBlockNr</text>
<text text-anchor="start" x="140.5" y="-191.5" font-family="Helvetica,sans-Serif" font-size="10.00"># mSerializedTransactions</text>
<text text-anchor="start" x="140.5" y="-180.5" font-family="Helvetica,sans-Serif" font-size="10.00"># mBlockIndex</text>
<text text-anchor="start" x="140.5" y="-169.5" font-family="Helvetica,sans-Serif" font-size="10.00"># mBlockFile</text>
<text text-anchor="start" x="140.5" y="-158.5" font-family="Helvetica,sans-Serif" font-size="10.00"># mTransactionWriteTask</text>
<text text-anchor="start" x="140.5" y="-147.5" font-family="Helvetica,sans-Serif" font-size="10.00"># mGroupAlias</text>
<text text-anchor="start" x="140.5" y="-136.5" font-family="Helvetica,sans-Serif" font-size="10.00"># mExitCalled</text>
<polyline fill="none" stroke="black" points="132.5,-129.5 263.5,-129.5 "/>
<text text-anchor="start" x="140.5" y="-117.5" font-family="Helvetica,sans-Serif" font-size="10.00">+ Block()</text>
<text text-anchor="start" x="140.5" y="-106.5" font-family="Helvetica,sans-Serif" font-size="10.00">+ ~Block()</text>
<text text-anchor="start" x="140.5" y="-95.5" font-family="Helvetica,sans-Serif" font-size="10.00">+ exit()</text>
<text text-anchor="start" x="140.5" y="-84.5" font-family="Helvetica,sans-Serif" font-size="10.00">+ pushTransaction()</text>
<text text-anchor="start" x="140.5" y="-73.5" font-family="Helvetica,sans-Serif" font-size="10.00">+ getTransaction()</text>
<text text-anchor="start" x="140.5" y="-62.5" font-family="Helvetica,sans-Serif" font-size="10.00">+ checkTimeout()</text>
<text text-anchor="start" x="140.5" y="-51.5" font-family="Helvetica,sans-Serif" font-size="10.00">+ getBlockIndex()</text>
<text text-anchor="start" x="140.5" y="-40.5" font-family="Helvetica,sans-Serif" font-size="10.00">+ hasSpaceLeft()</text>
<text text-anchor="start" x="140.5" y="-29.5" font-family="Helvetica,sans-Serif" font-size="10.00">+ callFromTimer()</text>
<text text-anchor="start" x="140.5" y="-18.5" font-family="Helvetica,sans-Serif" font-size="10.00">+ getResourceType()</text>
<text text-anchor="start" x="140.5" y="-7.5" font-family="Helvetica,sans-Serif" font-size="10.00"># addTransaction()</text>
</a>
</g>
</g>
<!-- Node2 -->
<g id="node2" class="node">
<title>Node2</title>
<g id="a_node2"><a xlink:href="classcontroller_1_1_controller_base.html" target="_top" xlink:title=" ">
<polygon fill="white" stroke="black" points="0,-331 0,-388 126,-388 126,-331 0,-331"/>
<text text-anchor="middle" x="63" y="-376" font-family="Helvetica,sans-Serif" font-size="10.00">controller::ControllerBase</text>
<polyline fill="none" stroke="black" points="0,-369 126,-369 "/>
<text text-anchor="start" x="8" y="-357" font-family="Helvetica,sans-Serif" font-size="10.00"># mWorkingMutex</text>
<polyline fill="none" stroke="black" points="0,-350 126,-350 "/>
<text text-anchor="middle" x="63" y="-338" font-family="Helvetica,sans-Serif" font-size="10.00"> </text>
</a>
</g>
</g>
<!-- Node2&#45;&gt;Node1 -->
<g id="edge1" class="edge">
<title>Node2&#45;&gt;Node1</title>
<path fill="none" stroke="midnightblue" d="M83.54,-321.91C96.91,-298.1 115.14,-265.61 133.13,-233.56"/>
<polygon fill="none" stroke="midnightblue" points="80.33,-320.48 78.49,-330.91 86.43,-323.9 80.33,-320.48"/>
</g>
<!-- Node3 -->
<g id="node3" class="node">
<title>Node3</title>
<g id="a_node3"><a xlink:href="class_timer_callback.html" target="_top" xlink:title=" ">
<polygon fill="white" stroke="black" points="144.5,-325.5 144.5,-393.5 251.5,-393.5 251.5,-325.5 144.5,-325.5"/>
<text text-anchor="middle" x="198" y="-381.5" font-family="Helvetica,sans-Serif" font-size="10.00">TimerCallback</text>
<polyline fill="none" stroke="black" points="144.5,-374.5 251.5,-374.5 "/>
<text text-anchor="middle" x="198" y="-362.5" font-family="Helvetica,sans-Serif" font-size="10.00"> </text>
<polyline fill="none" stroke="black" points="144.5,-355.5 251.5,-355.5 "/>
<text text-anchor="start" x="152.5" y="-343.5" font-family="Helvetica,sans-Serif" font-size="10.00">+ callFromTimer()</text>
<text text-anchor="start" x="152.5" y="-332.5" font-family="Helvetica,sans-Serif" font-size="10.00">+ getResourceType()</text>
</a>
</g>
</g>
<!-- Node3&#45;&gt;Node1 -->
<g id="edge2" class="edge">
<title>Node3&#45;&gt;Node1</title>
<path fill="none" stroke="midnightblue" d="M198,-315.23C198,-292.25 198,-262.79 198,-233.69"/>
<polygon fill="none" stroke="midnightblue" points="194.5,-315.31 198,-325.31 201.5,-315.31 194.5,-315.31"/>
</g>
<!-- Node4 -->
<g id="node4" class="node">
<title>Node4</title>
<g id="a_node4"><a xlink:href="class_task_observer.html" target="_top" xlink:title=" ">
<polygon fill="white" stroke="black" points="270,-281.5 270,-437.5 418,-437.5 418,-281.5 270,-281.5"/>
<text text-anchor="middle" x="344" y="-425.5" font-family="Helvetica,sans-Serif" font-size="10.00">TaskObserver</text>
<polyline fill="none" stroke="black" points="270,-418.5 418,-418.5 "/>
<text text-anchor="start" x="278" y="-406.5" font-family="Helvetica,sans-Serif" font-size="10.00"># mFastMutex</text>
<text text-anchor="start" x="278" y="-395.5" font-family="Helvetica,sans-Serif" font-size="10.00"># mBlockWriteTasks</text>
<text text-anchor="start" x="278" y="-384.5" font-family="Helvetica,sans-Serif" font-size="10.00"># mTransactionsForTasks</text>
<polyline fill="none" stroke="black" points="270,-377.5 418,-377.5 "/>
<text text-anchor="start" x="278" y="-365.5" font-family="Helvetica,sans-Serif" font-size="10.00">+ TaskObserver()</text>
<text text-anchor="start" x="278" y="-354.5" font-family="Helvetica,sans-Serif" font-size="10.00">+ ~TaskObserver()</text>
<text text-anchor="start" x="278" y="-343.5" font-family="Helvetica,sans-Serif" font-size="10.00">+ addBlockWriteTask()</text>
<text text-anchor="start" x="278" y="-332.5" font-family="Helvetica,sans-Serif" font-size="10.00">+ removeBlockWriteTask()</text>
<text text-anchor="start" x="278" y="-321.5" font-family="Helvetica,sans-Serif" font-size="10.00">+ removeTask()</text>
<text text-anchor="start" x="278" y="-310.5" font-family="Helvetica,sans-Serif" font-size="10.00">+ isTransactionPending()</text>
<text text-anchor="start" x="278" y="-299.5" font-family="Helvetica,sans-Serif" font-size="10.00">+ TaskObserverTypeToString()</text>
<text text-anchor="start" x="278" y="-288.5" font-family="Helvetica,sans-Serif" font-size="10.00">+ StringToTaskObserverType()</text>
</a>
</g>
</g>
<!-- Node4&#45;&gt;Node1 -->
<g id="edge3" class="edge">
<title>Node4&#45;&gt;Node1</title>
<path fill="none" stroke="#404040" d="M297.2,-281.41C288.53,-267.12 279.28,-251.9 270.06,-236.7"/>
<polygon fill="none" stroke="#404040" points="269.91,-236.46 263.38,-233.41 263.69,-226.2 270.22,-229.26 269.91,-236.46"/>
<text text-anchor="middle" x="322" y="-255" font-family="Helvetica,sans-Serif" font-size="10.00"> #mTaskObserver</text>
</g>
<!-- Node5 -->
<g id="node5" class="node">
<title>Node5</title>
<g id="a_node5"><a xlink:title=" ">
<polygon fill="white" stroke="black" points="291,-475.5 291,-532.5 397,-532.5 397,-475.5 291,-475.5"/>
<text text-anchor="middle" x="344" y="-520.5" font-family="Helvetica,sans-Serif" font-size="10.00">MultithreadContainer</text>
<polyline fill="none" stroke="black" points="291,-513.5 397,-513.5 "/>
<text text-anchor="middle" x="344" y="-501.5" font-family="Helvetica,sans-Serif" font-size="10.00"> </text>
<polyline fill="none" stroke="black" points="291,-494.5 397,-494.5 "/>
<text text-anchor="middle" x="344" y="-482.5" font-family="Helvetica,sans-Serif" font-size="10.00"> </text>
</a>
</g>
</g>
<!-- Node5&#45;&gt;Node4 -->
<g id="edge4" class="edge">
<title>Node5&#45;&gt;Node4</title>
<path fill="none" stroke="midnightblue" d="M344,-464.91C344,-456.42 344,-447.12 344,-437.69"/>
<polygon fill="none" stroke="midnightblue" points="340.5,-465.19 344,-475.19 347.5,-465.19 340.5,-465.19"/>
</g>
</g>
</svg>
        <g id="navigator" transform="translate(0 0)" fill="#404254">
                <rect fill="#f2f5e9" fill-opacity="0.5" stroke="#606060" stroke-width=".5" x="0" y="0" width="60" height="60"/>
                <use id="zoomplus" xlink:href="#zoomPlus" x="17" y="9" onmousedown="handleZoom(evt,'in')"/>
                <use id="zoomminus" xlink:href="#zoomMin" x="42" y="9" onmousedown="handleZoom(evt,'out')"/>
                <use id="reset" xlink:href="#resetDef" x="30" y="36" onmousedown="handleReset()"/>
                <g id="arrowUp" xlink:href="#dirArrow" transform="translate(30 24)" onmousedown="handlePan(0,-1)">
                  <use xlink:href="#rim" fill="#404040">
                        <set attributeName="fill" to="#808080" begin="arrowUp.mouseover" end="arrowUp.mouseout"/>
                  </use>
                  <path fill="none" stroke="white" stroke-width="1.5" d="M0,-3.0v7 M-2.5,-0.5L0,-3.0L2.5,-0.5"/>
                </g>
                <g id="arrowRight" xlink:href="#dirArrow" transform="rotate(90) translate(36 -43)" onmousedown="handlePan(1,0)">
                  <use xlink:href="#rim" fill="#404040">
                        <set attributeName="fill" to="#808080" begin="arrowRight.mouseover" end="arrowRight.mouseout"/>
                  </use>
                  <path fill="none" stroke="white" stroke-width="1.5" d="M0,-3.0v7 M-2.5,-0.5L0,-3.0L2.5,-0.5"/>
                </g>
                <g id="arrowDown" xlink:href="#dirArrow" transform="rotate(180) translate(-30 -48)" onmousedown="handlePan(0,1)">
                  <use xlink:href="#rim" fill="#404040">
                        <set attributeName="fill" to="#808080" begin="arrowDown.mouseover" end="arrowDown.mouseout"/>
                  </use>
                  <path fill="none" stroke="white" stroke-width="1.5" d="M0,-3.0v7 M-2.5,-0.5L0,-3.0L2.5,-0.5"/>
                </g>
                <g id="arrowLeft" xlink:href="#dirArrow" transform="rotate(270) translate(-36 17)" onmousedown="handlePan(-1,0)">
                  <use xlink:href="#rim" fill="#404040">
                        <set attributeName="fill" to="#808080" begin="arrowLeft.mouseover" end="arrowLeft.mouseout"/>
                  </use>
                  <path fill="none" stroke="white" stroke-width="1.5" d="M0,-3.0v7 M-2.5,-0.5L0,-3.0L2.5,-0.5"/>
                </g>
        </g>
        <svg viewBox="0 0 15 15" width="100%" height="30px" preserveAspectRatio="xMaxYMin meet">
         <g id="arrow_out" transform="scale(0.3 0.3)">
          <a xlink:href="classcontroller_1_1_block__coll__graph_org.svg" target="_base">
           <rect id="button" ry="5" rx="5" y="6" x="6" height="38" width="38"
                fill="#f2f5e9" fill-opacity="0.5" stroke="#606060" stroke-width="1.0"/>
           <path id="arrow"
             d="M 11.500037,31.436501 C 11.940474,20.09759 22.043105,11.32322 32.158766,21.979434 L 37.068811,17.246167 C 37.068811,17.246167 37.088388,32 37.088388,32 L 22.160133,31.978069 C 22.160133,31.978069 26.997745,27.140456 26.997745,27.140456 C 18.528582,18.264221 13.291696,25.230495 11.500037,31.436501 z"
             style="fill:#404040;"/>
          </a>
         </g>
        </svg>
</svg>
