<?xml version="1.0" encoding="UTF-8" standalone="no"?>
<!DOCTYPE svg PUBLIC "-//W3C//DTD SVG 1.1//EN"
 "http://www.w3.org/Graphics/SVG/1.1/DTD/svg11.dtd">
<!-- Generated by graphviz version 2.50.0 (20211204.2007)
 -->
<!-- Title: model::files::AddressIndex::~AddressIndex Pages: 1 -->
<svg width="656pt" height="127pt"
 viewBox="0.00 0.00 656.00 126.50" xmlns="http://www.w3.org/2000/svg" xmlns:xlink="http://www.w3.org/1999/xlink">
<g id="graph0" class="graph" transform="scale(1 1) rotate(0) translate(4 122.5)">
<title>model::files::AddressIndex::~AddressIndex</title>
<polygon fill="white" stroke="transparent" points="-4,4 -4,-122.5 652,-122.5 652,4 -4,4"/>
<!-- Node1 -->
<g id="node1" class="node">
<title>Node1</title>
<g id="a_node1"><a xlink:title=" ">
<polygon fill="#bfbfbf" stroke="black" points="0,-39 0,-69 131,-69 131,-39 0,-39"/>
<text text-anchor="start" x="8" y="-57" font-family="Helvetica,sans-Serif" font-size="10.00">model::files::AddressIndex</text>
<text text-anchor="middle" x="65.5" y="-46" font-family="Helvetica,sans-Serif" font-size="10.00">::~AddressIndex</text>
</a>
</g>
</g>
<!-- Node2 -->
<g id="node2" class="node">
<title>Node2</title>
<g id="a_node2"><a xlink:href="classmodel_1_1files_1_1_address_index.html#ac530703f10a574559e0885acd257a2ea" target="_top" xlink:title="Write new index file if checkFile return true, use Poco::FastMutex::ScopedLock, fileLock via FileLock...">
<polygon fill="white" stroke="black" points="167,-39 167,-69 298,-69 298,-39 167,-39"/>
<text text-anchor="start" x="175" y="-57" font-family="Helvetica,sans-Serif" font-size="10.00">model::files::AddressIndex</text>
<text text-anchor="middle" x="232.5" y="-46" font-family="Helvetica,sans-Serif" font-size="10.00">::writeToFile</text>
</a>
</g>
</g>
<!-- Node1&#45;&gt;Node2 -->
<g id="edge1" class="edge">
<title>Node1&#45;&gt;Node2</title>
<path fill="none" stroke="midnightblue" d="M131.24,-54C139.58,-54 148.18,-54 156.67,-54"/>
<polygon fill="midnightblue" stroke="midnightblue" points="156.95,-57.5 166.95,-54 156.95,-50.5 156.95,-57.5"/>
</g>
<!-- Node3 -->
<g id="node3" class="node">
<title>Node3</title>
<g id="a_node3"><a xlink:href="classmodel_1_1files_1_1_address_index.html#af0ff6103a23eaa7b57f9eb053bf5b8c1" target="_top" xlink:title="Calculate file hash from map entrys sorted by indices.">
<polygon fill="white" stroke="black" points="334,-88 334,-118 465,-118 465,-88 334,-88"/>
<text text-anchor="start" x="342" y="-106" font-family="Helvetica,sans-Serif" font-size="10.00">model::files::AddressIndex</text>
<text text-anchor="middle" x="399.5" y="-95" font-family="Helvetica,sans-Serif" font-size="10.00">::calculateHash</text>
</a>
</g>
</g>
<!-- Node2&#45;&gt;Node3 -->
<g id="edge2" class="edge">
<title>Node2&#45;&gt;Node3</title>
<path fill="none" stroke="midnightblue" d="M284.35,-69.1C301.37,-74.16 320.5,-79.84 338.17,-85.08"/>
<polygon fill="midnightblue" stroke="midnightblue" points="337.23,-88.46 347.82,-87.95 339.23,-81.75 337.23,-88.46"/>
</g>
<!-- Node4 -->
<g id="node4" class="node">
<title>Node4</title>
<g id="a_node4"><a xlink:href="classmodel_1_1files_1_1_address_index.html#af316cd9ce255efa0b2cfd80d6778d7b1" target="_top" xlink:title="Check if index file contains current indices (compare sizes), fileLock via FileLockManager,...">
<polygon fill="white" stroke="black" points="334,-39 334,-69 465,-69 465,-39 334,-39"/>
<text text-anchor="start" x="342" y="-57" font-family="Helvetica,sans-Serif" font-size="10.00">model::files::AddressIndex</text>
<text text-anchor="middle" x="399.5" y="-46" font-family="Helvetica,sans-Serif" font-size="10.00">::checkFile</text>
</a>
</g>
</g>
<!-- Node2&#45;&gt;Node4 -->
<g id="edge3" class="edge">
<title>Node2&#45;&gt;Node4</title>
<path fill="none" stroke="midnightblue" d="M298.24,-54C306.58,-54 315.18,-54 323.67,-54"/>
<polygon fill="midnightblue" stroke="midnightblue" points="323.95,-57.5 333.95,-54 323.95,-50.5 323.95,-57.5"/>
</g>
<!-- Node6 -->
<g id="node6" class="node">
<title>Node6</title>
<g id="a_node6"><a xlink:href="class_file_lock_manager.html#a8399a835b02b2013283423050efa52ba" target="_top" xlink:title=" ">
<polygon fill="white" stroke="black" points="501,-0.5 501,-19.5 648,-19.5 648,-0.5 501,-0.5"/>
<text text-anchor="middle" x="574.5" y="-7.5" font-family="Helvetica,sans-Serif" font-size="10.00">FileLockManager::getInstance</text>
</a>
</g>
</g>
<!-- Node2&#45;&gt;Node6 -->
<g id="edge6" class="edge">
<title>Node2&#45;&gt;Node6</title>
<path fill="none" stroke="midnightblue" d="M286.88,-38.99C302.01,-35.21 318.56,-31.52 334,-29 385.78,-20.57 444.49,-15.83 490.82,-13.2"/>
<polygon fill="midnightblue" stroke="midnightblue" points="491.02,-16.69 500.81,-12.65 490.64,-9.7 491.02,-16.69"/>
</g>
<!-- Node5 -->
<g id="node5" class="node">
<title>Node5</title>
<g id="a_node5"><a xlink:href="classmodel_1_1files_1_1_address_index.html#a45a9ec196ac5eea967c8eb11f77ac6cb" target="_top" xlink:title="Calculate file size from map entry count + space for hash, use Poco::FastMutex::ScopedLock.">
<polygon fill="white" stroke="black" points="509,-39 509,-69 640,-69 640,-39 509,-39"/>
<text text-anchor="start" x="517" y="-57" font-family="Helvetica,sans-Serif" font-size="10.00">model::files::AddressIndex</text>
<text text-anchor="middle" x="574.5" y="-46" font-family="Helvetica,sans-Serif" font-size="10.00">::calculateFileSize</text>
</a>
</g>
</g>
<!-- Node4&#45;&gt;Node5 -->
<g id="edge4" class="edge">
<title>Node4&#45;&gt;Node5</title>
<path fill="none" stroke="midnightblue" d="M465.41,-54C476.28,-54 487.62,-54 498.71,-54"/>
<polygon fill="midnightblue" stroke="midnightblue" points="498.8,-57.5 508.8,-54 498.8,-50.5 498.8,-57.5"/>
</g>
<!-- Node4&#45;&gt;Node6 -->
<g id="edge5" class="edge">
<title>Node4&#45;&gt;Node6</title>
<path fill="none" stroke="midnightblue" d="M459.55,-38.98C481.34,-33.44 505.72,-27.24 526.32,-22"/>
<polygon fill="midnightblue" stroke="midnightblue" points="527.27,-25.37 536.1,-19.51 525.54,-18.59 527.27,-25.37"/>
</g>
</g>
</svg>
