<?xml version="1.0" encoding="UTF-8" standalone="no"?>
<!DOCTYPE svg PUBLIC "-//W3C//DTD SVG 1.1//EN"
 "http://www.w3.org/Graphics/SVG/1.1/DTD/svg11.dtd">
<!-- Generated by graphviz version 2.50.0 (20211204.2007)
 -->
<!-- Title: VirtualFile::write Pages: 1 -->
<svg width="564pt" height="206pt"
 viewBox="0.00 0.00 564.00 206.00" xmlns="http://www.w3.org/2000/svg" xmlns:xlink="http://www.w3.org/1999/xlink">
<g id="graph0" class="graph" transform="scale(1 1) rotate(0) translate(4 202)">
<title>VirtualFile::write</title>
<polygon fill="white" stroke="transparent" points="-4,4 -4,-202 560,-202 560,4 -4,4"/>
<!-- Node1 -->
<g id="node1" class="node">
<title>Node1</title>
<g id="a_node1"><a xlink:title="copy to buffer from src, move cursor">
<polygon fill="#bfbfbf" stroke="black" points="470,-94 470,-113 556,-113 556,-94 470,-94"/>
<text text-anchor="middle" x="513" y="-101" font-family="Helvetica,sans-Serif" font-size="10.00">VirtualFile::write</text>
</a>
</g>
</g>
<!-- Node2 -->
<g id="node2" class="node">
<title>Node2</title>
<g id="a_node2"><a xlink:href="structmodel_1_1files_1_1_block_index_1_1_block.html#a36cc9bd13253a93f0be92b9f6cb9e127" target="_top" xlink:title=" ">
<polygon fill="white" stroke="black" points="314,-88.5 314,-118.5 434,-118.5 434,-88.5 314,-88.5"/>
<text text-anchor="start" x="322" y="-106.5" font-family="Helvetica,sans-Serif" font-size="10.00">model::files::BlockIndex</text>
<text text-anchor="middle" x="374" y="-95.5" font-family="Helvetica,sans-Serif" font-size="10.00">::Block::writeIntoFile</text>
</a>
</g>
</g>
<!-- Node1&#45;&gt;Node2 -->
<g id="edge1" class="edge">
<title>Node1&#45;&gt;Node2</title>
<path fill="none" stroke="midnightblue" d="M459.51,-103.5C451.23,-103.5 442.63,-103.5 434.21,-103.5"/>
<polygon fill="midnightblue" stroke="midnightblue" points="459.78,-107 469.78,-103.5 459.78,-100 459.78,-107"/>
</g>
<!-- Node3 -->
<g id="node3" class="node">
<title>Node3</title>
<g id="a_node3"><a xlink:href="structmodel_1_1files_1_1_block_index_1_1_year_block.html#a8951fabd8c15e19a917c7d8b783e8c93" target="_top" xlink:title=" ">
<polygon fill="white" stroke="black" points="149.5,-167.5 149.5,-197.5 274.5,-197.5 274.5,-167.5 149.5,-167.5"/>
<text text-anchor="start" x="157.5" y="-185.5" font-family="Helvetica,sans-Serif" font-size="10.00">model::files::BlockIndex</text>
<text text-anchor="middle" x="212" y="-174.5" font-family="Helvetica,sans-Serif" font-size="10.00">::YearBlock::writeIntoFile</text>
</a>
</g>
</g>
<!-- Node1&#45;&gt;Node3 -->
<g id="edge5" class="edge">
<title>Node1&#45;&gt;Node3</title>
<path fill="none" stroke="midnightblue" d="M489.08,-118.44C474,-127.6 453.52,-138.82 434,-145.5 381.92,-163.33 319.9,-172.76 274.83,-177.62"/>
<polygon fill="midnightblue" stroke="midnightblue" points="491.07,-121.32 497.71,-113.06 487.37,-115.38 491.07,-121.32"/>
</g>
<!-- Node4 -->
<g id="node4" class="node">
<title>Node4</title>
<g id="a_node4"><a xlink:href="structmodel_1_1files_1_1_block_index_1_1_month_block.html#a4a76fd27743f85bbe4f22248f7c198d0" target="_top" xlink:title=" ">
<polygon fill="white" stroke="black" points="146,-115.5 146,-145.5 278,-145.5 278,-115.5 146,-115.5"/>
<text text-anchor="start" x="154" y="-133.5" font-family="Helvetica,sans-Serif" font-size="10.00">model::files::BlockIndex</text>
<text text-anchor="middle" x="212" y="-122.5" font-family="Helvetica,sans-Serif" font-size="10.00">::MonthBlock::writeIntoFile</text>
</a>
</g>
</g>
<!-- Node1&#45;&gt;Node4 -->
<g id="edge6" class="edge">
<title>Node1&#45;&gt;Node4</title>
<path fill="none" stroke="midnightblue" d="M479.07,-116.48C465.36,-121.24 449.14,-126.06 434,-128.5 382.1,-136.85 322.46,-136.84 278.22,-135.02"/>
<polygon fill="midnightblue" stroke="midnightblue" points="480.34,-119.74 488.56,-113.06 477.96,-113.16 480.34,-119.74"/>
</g>
<!-- Node5 -->
<g id="node5" class="node">
<title>Node5</title>
<g id="a_node5"><a xlink:href="structmodel_1_1files_1_1_block_index_1_1_data_block.html#adaf5dc183b58f84f34c41cb9e76f1fd8" target="_top" xlink:title=" ">
<polygon fill="white" stroke="black" points="149.5,-60.5 149.5,-90.5 274.5,-90.5 274.5,-60.5 149.5,-60.5"/>
<text text-anchor="start" x="157.5" y="-78.5" font-family="Helvetica,sans-Serif" font-size="10.00">model::files::BlockIndex</text>
<text text-anchor="middle" x="212" y="-67.5" font-family="Helvetica,sans-Serif" font-size="10.00">::DataBlock::writeIntoFile</text>
</a>
</g>
</g>
<!-- Node1&#45;&gt;Node5 -->
<g id="edge7" class="edge">
<title>Node1&#45;&gt;Node5</title>
<path fill="none" stroke="midnightblue" d="M477.39,-90.57C464.03,-86.18 448.49,-81.81 434,-79.5 380.76,-71 319.39,-70.63 274.85,-72.02"/>
<polygon fill="midnightblue" stroke="midnightblue" points="476.54,-93.98 487.13,-93.89 478.8,-87.35 476.54,-93.98"/>
</g>
<!-- Node6 -->
<g id="node6" class="node">
<title>Node6</title>
<g id="a_node6"><a xlink:href="classmodel_1_1files_1_1_block_index.html#a87e5d8bb2faf36e3e770e593df3d85e4" target="_top" xlink:title="replace Index File with new one, clear blocks after writing into file">
<polygon fill="white" stroke="black" points="314,-0.5 314,-30.5 434,-30.5 434,-0.5 314,-0.5"/>
<text text-anchor="start" x="322" y="-18.5" font-family="Helvetica,sans-Serif" font-size="10.00">model::files::BlockIndex</text>
<text text-anchor="middle" x="374" y="-7.5" font-family="Helvetica,sans-Serif" font-size="10.00">::writeToFile</text>
</a>
</g>
</g>
<!-- Node1&#45;&gt;Node6 -->
<g id="edge8" class="edge">
<title>Node1&#45;&gt;Node6</title>
<path fill="none" stroke="midnightblue" d="M492.06,-87.21C476.68,-75 454.62,-58.28 434,-45.5 425.5,-40.23 415.97,-35.08 407.08,-30.57"/>
<polygon fill="midnightblue" stroke="midnightblue" points="490.3,-90.27 500.29,-93.8 494.68,-84.81 490.3,-90.27"/>
</g>
<!-- Node2&#45;&gt;Node3 -->
<g id="edge2" class="edge">
<title>Node2&#45;&gt;Node3</title>
<path fill="none" stroke="midnightblue" d="M338.31,-123.65C320.51,-133.69 298.36,-145.74 278,-155.5 269.41,-159.62 260.02,-163.74 251.11,-167.47"/>
<polygon fill="midnightblue" stroke="midnightblue" points="340.22,-126.6 347.18,-118.61 336.76,-120.51 340.22,-126.6"/>
</g>
<!-- Node2&#45;&gt;Node4 -->
<g id="edge3" class="edge">
<title>Node2&#45;&gt;Node4</title>
<path fill="none" stroke="midnightblue" d="M303.91,-115.16C295.33,-116.61 286.59,-118.08 278.07,-119.52"/>
<polygon fill="midnightblue" stroke="midnightblue" points="304.6,-118.59 313.88,-113.48 303.43,-111.69 304.6,-118.59"/>
</g>
<!-- Node2&#45;&gt;Node5 -->
<g id="edge4" class="edge">
<title>Node2&#45;&gt;Node5</title>
<path fill="none" stroke="midnightblue" d="M303.83,-91.4C294.1,-89.69 284.14,-87.95 274.56,-86.27"/>
<polygon fill="midnightblue" stroke="midnightblue" points="303.42,-94.88 313.88,-93.15 304.63,-87.98 303.42,-94.88"/>
</g>
<!-- Node7 -->
<g id="node7" class="node">
<title>Node7</title>
<g id="a_node7"><a xlink:href="classcontroller_1_1_block_index.html#a8a65562025348d7f62ed29a932aaf2df" target="_top" xlink:title="write block index into files">
<polygon fill="white" stroke="black" points="157,-0.5 157,-30.5 267,-30.5 267,-0.5 157,-0.5"/>
<text text-anchor="start" x="165" y="-18.5" font-family="Helvetica,sans-Serif" font-size="10.00">controller::BlockIndex</text>
<text text-anchor="middle" x="212" y="-7.5" font-family="Helvetica,sans-Serif" font-size="10.00">::writeIntoFile</text>
</a>
</g>
</g>
<!-- Node6&#45;&gt;Node7 -->
<g id="edge9" class="edge">
<title>Node6&#45;&gt;Node7</title>
<path fill="none" stroke="midnightblue" d="M303.7,-15.5C291.45,-15.5 278.87,-15.5 267.12,-15.5"/>
<polygon fill="midnightblue" stroke="midnightblue" points="303.88,-19 313.88,-15.5 303.88,-12 303.88,-19"/>
</g>
<!-- Node8 -->
<g id="node8" class="node">
<title>Node8</title>
<g id="a_node8"><a xlink:href="classcontroller_1_1_block_index.html#a2145f428edf21f487785f77dc34d49b6" target="_top" xlink:title=" ">
<polygon fill="white" stroke="black" points="0,-0.5 0,-30.5 110,-30.5 110,-0.5 0,-0.5"/>
<text text-anchor="start" x="8" y="-18.5" font-family="Helvetica,sans-Serif" font-size="10.00">controller::BlockIndex</text>
<text text-anchor="middle" x="55" y="-7.5" font-family="Helvetica,sans-Serif" font-size="10.00">::~BlockIndex</text>
</a>
</g>
</g>
<!-- Node7&#45;&gt;Node8 -->
<g id="edge10" class="edge">
<title>Node7&#45;&gt;Node8</title>
<path fill="none" stroke="midnightblue" d="M146.72,-15.5C134.57,-15.5 121.98,-15.5 110.18,-15.5"/>
<polygon fill="midnightblue" stroke="midnightblue" points="146.79,-19 156.79,-15.5 146.79,-12 146.79,-19"/>
</g>
</g>
</svg>
