<?xml version="1.0" encoding="UTF-8" standalone="no"?>
<!DOCTYPE svg PUBLIC "-//W3C//DTD SVG 1.1//EN"
 "http://www.w3.org/Graphics/SVG/1.1/DTD/svg11.dtd">
<!-- Generated by graphviz version 2.50.0 (20211204.2007)
 -->
<!-- Title: controller::GroupIndex Pages: 1 -->
<svg width="274pt" height="237pt"
 viewBox="0.00 0.00 274.00 237.00" xmlns="http://www.w3.org/2000/svg" xmlns:xlink="http://www.w3.org/1999/xlink">
<g id="graph0" class="graph" transform="scale(1 1) rotate(0) translate(4 233)">
<title>controller::GroupIndex</title>
<polygon fill="white" stroke="transparent" points="-4,4 -4,-233 270,-233 270,4 -4,4"/>
<!-- Node1 -->
<g id="node1" class="node">
<title>Node1</title>
<g id="a_node1"><a xlink:title="storing group folder name in memory in hash list for fast access">
<polygon fill="#bfbfbf" stroke="black" points="78,-0.5 78,-112.5 190,-112.5 190,-0.5 78,-0.5"/>
<text text-anchor="middle" x="134" y="-100.5" font-family="Helvetica,sans-Serif" font-size="10.00">controller::GroupIndex</text>
<polyline fill="none" stroke="black" points="78,-93.5 190,-93.5 "/>
<text text-anchor="start" x="86" y="-81.5" font-family="Helvetica,sans-Serif" font-size="10.00"># mGroups</text>
<polyline fill="none" stroke="black" points="78,-74.5 190,-74.5 "/>
<text text-anchor="start" x="86" y="-62.5" font-family="Helvetica,sans-Serif" font-size="10.00">+ GroupIndex()</text>
<text text-anchor="start" x="86" y="-51.5" font-family="Helvetica,sans-Serif" font-size="10.00">+ ~GroupIndex()</text>
<text text-anchor="start" x="86" y="-40.5" font-family="Helvetica,sans-Serif" font-size="10.00">+ update()</text>
<text text-anchor="start" x="86" y="-29.5" font-family="Helvetica,sans-Serif" font-size="10.00">+ getFolder()</text>
<text text-anchor="start" x="86" y="-18.5" font-family="Helvetica,sans-Serif" font-size="10.00">+ listGroupAliases()</text>
<text text-anchor="start" x="86" y="-7.5" font-family="Helvetica,sans-Serif" font-size="10.00"># clear()</text>
</a>
</g>
</g>
<!-- Node2 -->
<g id="node2" class="node">
<title>Node2</title>
<g id="a_node2"><a xlink:href="classcontroller_1_1_controller_base.html" target="_top" xlink:title=" ">
<polygon fill="white" stroke="black" points="0,-166 0,-223 126,-223 126,-166 0,-166"/>
<text text-anchor="middle" x="63" y="-211" font-family="Helvetica,sans-Serif" font-size="10.00">controller::ControllerBase</text>
<polyline fill="none" stroke="black" points="0,-204 126,-204 "/>
<text text-anchor="start" x="8" y="-192" font-family="Helvetica,sans-Serif" font-size="10.00"># mWorkingMutex</text>
<polyline fill="none" stroke="black" points="0,-185 126,-185 "/>
<text text-anchor="middle" x="63" y="-173" font-family="Helvetica,sans-Serif" font-size="10.00"> </text>
</a>
</g>
</g>
<!-- Node2&#45;&gt;Node1 -->
<g id="edge1" class="edge">
<title>Node2&#45;&gt;Node1</title>
<path fill="none" stroke="midnightblue" d="M82.1,-156.91C89.22,-143.27 97.48,-127.46 105.28,-112.52"/>
<polygon fill="none" stroke="midnightblue" points="78.89,-155.49 77.37,-165.98 85.1,-158.73 78.89,-155.49"/>
</g>
<!-- Node3 -->
<g id="node3" class="node">
<title>Node3</title>
<g id="a_node3"><a xlink:href="classmodel_1_1files_1_1_group_index.html" target="_top" xlink:title="load group.index file with group alias = folder assignments">
<polygon fill="white" stroke="black" points="144,-160.5 144,-228.5 266,-228.5 266,-160.5 144,-160.5"/>
<text text-anchor="middle" x="205" y="-216.5" font-family="Helvetica,sans-Serif" font-size="10.00">model::files::GroupIndex</text>
<polyline fill="none" stroke="black" points="144,-209.5 266,-209.5 "/>
<text text-anchor="start" x="152" y="-197.5" font-family="Helvetica,sans-Serif" font-size="10.00"># mConfig</text>
<polyline fill="none" stroke="black" points="144,-190.5 266,-190.5 "/>
<text text-anchor="start" x="152" y="-178.5" font-family="Helvetica,sans-Serif" font-size="10.00">+ GroupIndex()</text>
<text text-anchor="start" x="152" y="-167.5" font-family="Helvetica,sans-Serif" font-size="10.00">+ getConfig()</text>
</a>
</g>
</g>
<!-- Node3&#45;&gt;Node1 -->
<g id="edge2" class="edge">
<title>Node3&#45;&gt;Node1</title>
<path fill="none" stroke="#404040" d="M187.63,-160.23C181.79,-149.05 175.06,-136.16 168.38,-123.36"/>
<polygon fill="none" stroke="#404040" points="168.36,-123.32 162.04,-119.85 162.81,-112.68 169.13,-116.15 168.36,-123.32"/>
<text text-anchor="middle" x="198.5" y="-134" font-family="Helvetica,sans-Serif" font-size="10.00"> #mModel</text>
</g>
</g>
</svg>
