<?xml version="1.0" encoding="UTF-8" standalone="no"?>
<!DOCTYPE svg PUBLIC "-//W3C//DTD SVG 1.1//EN"
 "http://www.w3.org/Graphics/SVG/1.1/DTD/svg11.dtd">
<!-- Generated by graphviz version 2.50.0 (20211204.2007)
 -->
<!-- Title: task::CPUTask::scheduleTask Pages: 1 -->
<svg width="472pt" height="116pt"
 viewBox="0.00 0.00 472.00 116.00" xmlns="http://www.w3.org/2000/svg" xmlns:xlink="http://www.w3.org/1999/xlink">
<g id="graph0" class="graph" transform="scale(1 1) rotate(0) translate(4 112)">
<title>task::CPUTask::scheduleTask</title>
<polygon fill="white" stroke="transparent" points="-4,4 -4,-112 468,-112 468,4 -4,4"/>
<!-- Node1 -->
<g id="node1" class="node">
<title>Node1</title>
<g id="a_node1"><a xlink:title="return true if task has finished, else false automatic scheduling of task if he isn&#39;t finished and sh...">
<polygon fill="#bfbfbf" stroke="black" points="0,-44.5 0,-63.5 149,-63.5 149,-44.5 0,-44.5"/>
<text text-anchor="middle" x="74.5" y="-51.5" font-family="Helvetica,sans-Serif" font-size="10.00">task::CPUTask::scheduleTask</text>
</a>
</g>
</g>
<!-- Node2 -->
<g id="node2" class="node">
<title>Node2</title>
<g id="a_node2"><a xlink:href="classtask_1_1_task.html#ac99ce2eb5ddab8f15e0d733abd774491" target="_top" xlink:title=" ">
<polygon fill="white" stroke="black" points="185,-88.5 185,-107.5 322,-107.5 322,-88.5 185,-88.5"/>
<text text-anchor="middle" x="253.5" y="-95.5" font-family="Helvetica,sans-Serif" font-size="10.00">task::Task::isTaskSheduled</text>
</a>
</g>
</g>
<!-- Node1&#45;&gt;Node2 -->
<g id="edge1" class="edge">
<title>Node1&#45;&gt;Node2</title>
<path fill="none" stroke="midnightblue" d="M113.91,-63.55C140.46,-70.15 176,-78.98 204.43,-86.05"/>
<polygon fill="midnightblue" stroke="midnightblue" points="203.62,-89.46 214.17,-88.47 205.31,-82.66 203.62,-89.46"/>
</g>
<!-- Node3 -->
<g id="node3" class="node">
<title>Node3</title>
<g id="a_node3"><a xlink:href="classtask_1_1_c_p_u_sheduler.html#a48a6a79bed1a3bd44fed61bcffdb287b" target="_top" xlink:title=" ">
<polygon fill="white" stroke="black" points="200.5,-39 200.5,-69 306.5,-69 306.5,-39 200.5,-39"/>
<text text-anchor="start" x="208.5" y="-57" font-family="Helvetica,sans-Serif" font-size="10.00">task::CPUSheduler::</text>
<text text-anchor="middle" x="253.5" y="-46" font-family="Helvetica,sans-Serif" font-size="10.00">sheduleTask</text>
</a>
</g>
</g>
<!-- Node1&#45;&gt;Node3 -->
<g id="edge2" class="edge">
<title>Node1&#45;&gt;Node3</title>
<path fill="none" stroke="midnightblue" d="M149.03,-54C162.8,-54 177.08,-54 190.46,-54"/>
<polygon fill="midnightblue" stroke="midnightblue" points="190.5,-57.5 200.5,-54 190.5,-50.5 190.5,-57.5"/>
</g>
<!-- Node5 -->
<g id="node5" class="node">
<title>Node5</title>
<g id="a_node5"><a xlink:href="classtask_1_1_task.html#ad7551b38fb01a85a24f5bc0eb38398be" target="_top" xlink:title=" ">
<polygon fill="white" stroke="black" points="187,-0.5 187,-19.5 320,-19.5 320,-0.5 187,-0.5"/>
<text text-anchor="middle" x="253.5" y="-7.5" font-family="Helvetica,sans-Serif" font-size="10.00">task::Task::taskScheduled</text>
</a>
</g>
</g>
<!-- Node1&#45;&gt;Node5 -->
<g id="edge4" class="edge">
<title>Node1&#45;&gt;Node5</title>
<path fill="none" stroke="midnightblue" d="M113.91,-44.45C140.46,-37.85 176,-29.02 204.43,-21.95"/>
<polygon fill="midnightblue" stroke="midnightblue" points="205.31,-25.34 214.17,-19.53 203.62,-18.54 205.31,-25.34"/>
</g>
<!-- Node4 -->
<g id="node4" class="node">
<title>Node4</title>
<g id="a_node4"><a xlink:href="classtask_1_1_c_p_u_sheduler.html#ab85c18ac001362cabcb6d3688980cb80" target="_top" xlink:title=" ">
<polygon fill="white" stroke="black" points="358,-39 358,-69 464,-69 464,-39 358,-39"/>
<text text-anchor="start" x="366" y="-57" font-family="Helvetica,sans-Serif" font-size="10.00">task::CPUSheduler::</text>
<text text-anchor="middle" x="411" y="-46" font-family="Helvetica,sans-Serif" font-size="10.00">getThreadCount</text>
</a>
</g>
</g>
<!-- Node3&#45;&gt;Node4 -->
<g id="edge3" class="edge">
<title>Node3&#45;&gt;Node4</title>
<path fill="none" stroke="midnightblue" d="M306.71,-54C319.86,-54 334.1,-54 347.69,-54"/>
<polygon fill="midnightblue" stroke="midnightblue" points="347.93,-57.5 357.93,-54 347.93,-50.5 347.93,-57.5"/>
</g>
</g>
</svg>
