<?xml version="1.0" encoding="UTF-8" standalone="no"?>
<!DOCTYPE svg PUBLIC "-//W3C//DTD SVG 1.1//EN"
 "http://www.w3.org/Graphics/SVG/1.1/DTD/svg11.dtd">
<!-- Generated by graphviz version 2.50.0 (20211204.2007)
 -->
<!-- Title: JsonRPCHandler::handle Pages: 1 -->
<!--zoomable 331 -->
<svg id="main" version="1.1" xmlns="http://www.w3.org/2000/svg" xmlns:xlink="http://www.w3.org/1999/xlink" xml:space="preserve" onload="init(evt)">
<style type="text/css"><![CDATA[
.edge:hover path { stroke: red; }
.edge:hover polygon { stroke: red; fill: red; }
]]></style>
<script type="text/javascript"><![CDATA[
var edges = document.getElementsByTagName('g');
if (edges && edges.length) {
  for (var i=0;i<edges.length;i++) {
    if (edges[i].id.substr(0,4)=='edge') {
      edges[i].setAttribute('class','edge');
    }
  }
}
]]></script>
        <defs>
                <circle id="rim" cx="0" cy="0" r="7"/>
                <circle id="rim2" cx="0" cy="0" r="3.5"/>
                <g id="zoomPlus">
                        <use xlink:href="#rim" fill="#404040">
                                <set attributeName="fill" to="#808080" begin="zoomplus.mouseover" end="zoomplus.mouseout"/>
                        </use>
                        <path d="M-4,0h8M0,-4v8" fill="none" stroke="white" stroke-width="1.5" pointer-events="none"/>
                </g>
                <g id="zoomMin">
                        <use xlink:href="#rim" fill="#404040">
                                <set attributeName="fill" to="#808080" begin="zoomminus.mouseover" end="zoomminus.mouseout"/>
                        </use>
                        <path d="M-4,0h8" fill="none" stroke="white" stroke-width="1.5" pointer-events="none"/>
                </g>
                <g id="dirArrow">
                        <path fill="none" stroke="white" stroke-width="1.5" d="M0,-3.0v7 M-2.5,-0.5L0,-3.0L2.5,-0.5"/>
                </g>
               <g id="resetDef">
                       <use xlink:href="#rim2" fill="#404040">
                               <set attributeName="fill" to="#808080" begin="reset.mouseover" end="reset.mouseout"/>
                       </use>
               </g>
        </defs>

<script type="text/javascript">
var viewWidth = 596;
var viewHeight = 331;
var sectionId = 'dynsection-4';
</script>
<script xlink:href="svgpan.js"/>
<svg id="graph" class="graph">
<g id="viewport">
<title>JsonRPCHandler::handle</title>
<polygon fill="white" stroke="transparent" points="-4,4 -4,-327.17 592,-327.17 592,4 -4,4"/>
<!-- Node1 -->
<g id="node1" class="node">
<title>Node1</title>
<g id="a_node1"><a xlink:title=" ">
<polygon fill="#bfbfbf" stroke="black" points="0,-109.67 0,-128.67 125,-128.67 125,-109.67 0,-109.67"/>
<text text-anchor="middle" x="62.5" y="-116.67" font-family="Helvetica,sans-Serif" font-size="10.00">JsonRPCHandler::handle</text>
</a>
</g>
</g>
<!-- Node2 -->
<g id="node2" class="node">
<title>Node2</title>
<g id="a_node2"><a xlink:href="_bin_text_converter_8cpp.html#a5fa79eece2ed43855634d3558fff24ed" target="_top" xlink:title=" ">
<polygon fill="white" stroke="black" points="179.5,-241.17 179.5,-271.17 307.5,-271.17 307.5,-241.17 179.5,-241.17"/>
<text text-anchor="start" x="187.5" y="-259.17" font-family="Helvetica,sans-Serif" font-size="10.00">convertBinTransportString</text>
<text text-anchor="middle" x="243.5" y="-248.17" font-family="Helvetica,sans-Serif" font-size="10.00">ToBin</text>
</a>
</g>
</g>
<!-- Node1&#45;&gt;Node2 -->
<g id="edge1" class="edge">
<title>Node1&#45;&gt;Node2</title>
<path fill="none" stroke="midnightblue" d="M69.89,-128.88C83.97,-149.57 119.71,-198.39 161,-226.17 167.02,-230.22 173.66,-233.8 180.47,-236.96"/>
<polygon fill="midnightblue" stroke="midnightblue" points="179.25,-240.25 189.82,-241 182.02,-233.82 179.25,-240.25"/>
</g>
<!-- Node8 -->
<g id="node8" class="node">
<title>Node8</title>
<g id="a_node8"><a xlink:href="class_json_request_handler.html#aa3b049483a68b2f02dfa3c0ad092a5c5" target="_top" xlink:title=" ">
<polygon fill="white" stroke="black" points="190,-153.17 190,-183.17 297,-183.17 297,-153.17 190,-153.17"/>
<text text-anchor="start" x="198" y="-171.17" font-family="Helvetica,sans-Serif" font-size="10.00">JsonRequestHandler</text>
<text text-anchor="middle" x="243.5" y="-160.17" font-family="Helvetica,sans-Serif" font-size="10.00">::getStringParameter</text>
</a>
</g>
</g>
<!-- Node1&#45;&gt;Node8 -->
<g id="edge7" class="edge">
<title>Node1&#45;&gt;Node8</title>
<path fill="none" stroke="midnightblue" d="M98.44,-128.73C121.54,-135.05 152.5,-143.53 179.79,-151"/>
<polygon fill="midnightblue" stroke="midnightblue" points="179.09,-154.44 189.66,-153.7 180.94,-147.68 179.09,-154.44"/>
</g>
<!-- Node9 -->
<g id="node9" class="node">
<title>Node9</title>
<g id="a_node9"><a xlink:href="class_json_request_handler.html#a1f0cd333c5fd72c0dd5d7899d9aa5926" target="_top" xlink:title=" ">
<polygon fill="white" stroke="black" points="377.5,-104.17 377.5,-134.17 483.5,-134.17 483.5,-104.17 377.5,-104.17"/>
<text text-anchor="start" x="385.5" y="-122.17" font-family="Helvetica,sans-Serif" font-size="10.00">JsonRequestHandler</text>
<text text-anchor="middle" x="430.5" y="-111.17" font-family="Helvetica,sans-Serif" font-size="10.00">::stateError</text>
</a>
</g>
</g>
<!-- Node1&#45;&gt;Node9 -->
<g id="edge19" class="edge">
<title>Node1&#45;&gt;Node9</title>
<path fill="none" stroke="midnightblue" d="M71.97,-128.82C87.56,-145.76 122.73,-180.29 161,-193.17 230.5,-216.55 256.17,-215.56 326,-193.17 357.61,-183.03 387.78,-159.29 407.3,-141.41"/>
<polygon fill="midnightblue" stroke="midnightblue" points="409.86,-143.81 414.74,-134.41 405.06,-138.71 409.86,-143.81"/>
</g>
<!-- Node10 -->
<g id="node10" class="node">
<title>Node10</title>
<g id="a_node10"><a xlink:href="class_json_r_p_c_handler.html#a8f9e1cccf1262bc177baf477cf59d90b" target="_top" xlink:title=" ">
<polygon fill="white" stroke="black" points="161,-27.67 161,-46.67 326,-46.67 326,-27.67 161,-27.67"/>
<text text-anchor="middle" x="243.5" y="-34.67" font-family="Helvetica,sans-Serif" font-size="10.00">JsonRPCHandler::getTransactions</text>
</a>
</g>
</g>
<!-- Node1&#45;&gt;Node10 -->
<g id="edge9" class="edge">
<title>Node1&#45;&gt;Node10</title>
<path fill="none" stroke="midnightblue" d="M75.35,-109.55C92.97,-95.73 127.61,-70.34 161,-56.17 166.88,-53.67 173.15,-51.47 179.49,-49.54"/>
<polygon fill="midnightblue" stroke="midnightblue" points="180.8,-52.81 189.48,-46.72 178.9,-46.07 180.8,-52.81"/>
</g>
<!-- Node12 -->
<g id="node12" class="node">
<title>Node12</title>
<g id="a_node12"><a xlink:href="class_json_request_handler.html#ac98c00cf75a53afb27cd5c223bfabeb6" target="_top" xlink:title=" ">
<polygon fill="white" stroke="black" points="377.5,-16.17 377.5,-46.17 483.5,-46.17 483.5,-16.17 377.5,-16.17"/>
<text text-anchor="start" x="385.5" y="-34.17" font-family="Helvetica,sans-Serif" font-size="10.00">JsonRequestHandler</text>
<text text-anchor="middle" x="430.5" y="-23.17" font-family="Helvetica,sans-Serif" font-size="10.00">::stateSuccess</text>
</a>
</g>
</g>
<!-- Node1&#45;&gt;Node12 -->
<g id="edge20" class="edge">
<title>Node1&#45;&gt;Node12</title>
<path fill="none" stroke="midnightblue" d="M69.01,-109.52C81.86,-88.14 116.13,-37.21 161,-18.17 228.07,10.31 313.2,-0.78 369.41,-13.77"/>
<polygon fill="midnightblue" stroke="midnightblue" points="368.67,-17.19 379.21,-16.12 370.31,-10.39 368.67,-17.19"/>
</g>
<!-- Node13 -->
<g id="node13" class="node">
<title>Node13</title>
<g id="a_node13"><a xlink:href="class_json_request_handler.html#a79e72cb1c25aa9c7c174bd036d0946e3" target="_top" xlink:title=" ">
<polygon fill="white" stroke="black" points="189,-104.17 189,-134.17 298,-134.17 298,-104.17 189,-104.17"/>
<text text-anchor="start" x="197" y="-122.17" font-family="Helvetica,sans-Serif" font-size="10.00">JsonRequestHandler</text>
<text text-anchor="middle" x="243.5" y="-111.17" font-family="Helvetica,sans-Serif" font-size="10.00">::getUInt64Parameter</text>
</a>
</g>
</g>
<!-- Node1&#45;&gt;Node13 -->
<g id="edge13" class="edge">
<title>Node1&#45;&gt;Node13</title>
<path fill="none" stroke="midnightblue" d="M125.1,-119.17C142.43,-119.17 161.31,-119.17 178.76,-119.17"/>
<polygon fill="midnightblue" stroke="midnightblue" points="178.85,-122.67 188.85,-119.17 178.85,-115.67 178.85,-122.67"/>
</g>
<!-- Node14 -->
<g id="node14" class="node">
<title>Node14</title>
<g id="a_node14"><a xlink:href="class_json_r_p_c_handler.html#a3e8fb04eef868d1e57b2de4e5be73c13" target="_top" xlink:title=" ">
<polygon fill="white" stroke="black" points="163.5,-65.67 163.5,-84.67 323.5,-84.67 323.5,-65.67 163.5,-65.67"/>
<text text-anchor="middle" x="243.5" y="-72.67" font-family="Helvetica,sans-Serif" font-size="10.00">JsonRPCHandler::putTransaction</text>
</a>
</g>
</g>
<!-- Node1&#45;&gt;Node14 -->
<g id="edge15" class="edge">
<title>Node1&#45;&gt;Node14</title>
<path fill="none" stroke="midnightblue" d="M102.4,-109.58C120.26,-105.19 141.7,-99.91 161,-95.17 171.62,-92.56 183.01,-89.76 193.81,-87.11"/>
<polygon fill="midnightblue" stroke="midnightblue" points="194.65,-90.5 203.53,-84.72 192.98,-83.71 194.65,-90.5"/>
</g>
<!-- Node3 -->
<g id="node3" class="node">
<title>Node3</title>
<g id="a_node3"><a xlink:href="_bin_text_converter_8cpp.html#a82729a7fc72c60d4b9b86627f42aa788" target="_top" xlink:title=" ">
<polygon fill="white" stroke="black" points="378,-265.67 378,-284.67 483,-284.67 483,-265.67 378,-265.67"/>
<text text-anchor="middle" x="430.5" y="-272.67" font-family="Helvetica,sans-Serif" font-size="10.00">convertBase58ToBin</text>
</a>
</g>
</g>
<!-- Node2&#45;&gt;Node3 -->
<g id="edge2" class="edge">
<title>Node2&#45;&gt;Node3</title>
<path fill="none" stroke="midnightblue" d="M307.65,-262.65C327.08,-264.65 348.44,-266.84 367.77,-268.83"/>
<polygon fill="midnightblue" stroke="midnightblue" points="367.67,-272.33 377.98,-269.87 368.39,-265.37 367.67,-272.33"/>
</g>
<!-- Node5 -->
<g id="node5" class="node">
<title>Node5</title>
<g id="a_node5"><a xlink:href="_bin_text_converter_8cpp.html#a6aa1003f8879deb532ffdadedbc94673" target="_top" xlink:title=" ">
<polygon fill="white" stroke="black" points="378,-227.67 378,-246.67 483,-246.67 483,-227.67 378,-227.67"/>
<text text-anchor="middle" x="430.5" y="-234.67" font-family="Helvetica,sans-Serif" font-size="10.00">convertBase64ToBin</text>
</a>
</g>
</g>
<!-- Node2&#45;&gt;Node5 -->
<g id="edge4" class="edge">
<title>Node2&#45;&gt;Node5</title>
<path fill="none" stroke="midnightblue" d="M307.65,-249.68C327.08,-247.68 348.44,-245.49 367.77,-243.5"/>
<polygon fill="midnightblue" stroke="midnightblue" points="368.39,-246.96 377.98,-242.46 367.67,-240 368.39,-246.96"/>
</g>
<!-- Node6 -->
<g id="node6" class="node">
<title>Node6</title>
<g id="a_node6"><a xlink:href="_bin_text_converter_8cpp.html#abc148f267e9f9ce50b2bd6d5569db08a" target="_top" xlink:title=" ">
<polygon fill="white" stroke="black" points="386,-189.67 386,-208.67 475,-208.67 475,-189.67 386,-189.67"/>
<text text-anchor="middle" x="430.5" y="-196.67" font-family="Helvetica,sans-Serif" font-size="10.00">convertHexToBin</text>
</a>
</g>
</g>
<!-- Node2&#45;&gt;Node6 -->
<g id="edge5" class="edge">
<title>Node2&#45;&gt;Node6</title>
<path fill="none" stroke="midnightblue" d="M289.57,-241.14C311.38,-233.99 337.99,-225.42 362,-218.17 369.37,-215.94 377.23,-213.65 384.87,-211.47"/>
<polygon fill="midnightblue" stroke="midnightblue" points="386.07,-214.76 394.74,-208.67 384.16,-208.03 386.07,-214.76"/>
</g>
<!-- Node7 -->
<g id="node7" class="node">
<title>Node7</title>
<g id="a_node7"><a xlink:href="_bin_text_converter_8cpp.html#aa185e175e92b47a8887299c5769362dc" target="_top" xlink:title=" ">
<polygon fill="white" stroke="black" points="372,-303.67 372,-322.67 489,-322.67 489,-303.67 372,-303.67"/>
<text text-anchor="middle" x="430.5" y="-310.67" font-family="Helvetica,sans-Serif" font-size="10.00">getStringTransportType</text>
</a>
</g>
</g>
<!-- Node2&#45;&gt;Node7 -->
<g id="edge6" class="edge">
<title>Node2&#45;&gt;Node7</title>
<path fill="none" stroke="midnightblue" d="M289.57,-271.19C311.38,-278.34 337.99,-286.91 362,-294.17 369.37,-296.39 377.23,-298.68 384.87,-300.86"/>
<polygon fill="midnightblue" stroke="midnightblue" points="384.16,-304.3 394.74,-303.66 386.07,-297.57 384.16,-304.3"/>
</g>
<!-- Node4 -->
<g id="node4" class="node">
<title>Node4</title>
<g id="a_node4"><a xlink:href="base58_8c.html#ace0e1d88e939d18316cf7bd4962d5263" target="_top" xlink:title=" ">
<polygon fill="white" stroke="black" points="535,-265.67 535,-284.67 588,-284.67 588,-265.67 535,-265.67"/>
<text text-anchor="middle" x="561.5" y="-272.67" font-family="Helvetica,sans-Serif" font-size="10.00">b58tobin</text>
</a>
</g>
</g>
<!-- Node3&#45;&gt;Node4 -->
<g id="edge3" class="edge">
<title>Node3&#45;&gt;Node4</title>
<path fill="none" stroke="midnightblue" d="M483.23,-275.17C497.14,-275.17 511.87,-275.17 524.7,-275.17"/>
<polygon fill="midnightblue" stroke="midnightblue" points="524.97,-278.67 534.97,-275.17 524.97,-271.67 524.97,-278.67"/>
</g>
<!-- Node8&#45;&gt;Node9 -->
<g id="edge8" class="edge">
<title>Node8&#45;&gt;Node9</title>
<path fill="none" stroke="midnightblue" d="M297.02,-154.25C318.98,-148.44 344.66,-141.64 367.54,-135.58"/>
<polygon fill="midnightblue" stroke="midnightblue" points="368.72,-138.88 377.49,-132.94 366.93,-132.12 368.72,-138.88"/>
</g>
<!-- Node10&#45;&gt;Node9 -->
<g id="edge11" class="edge">
<title>Node10&#45;&gt;Node9</title>
<path fill="none" stroke="midnightblue" d="M303.94,-46.69C311.63,-49.16 319.19,-52.26 326,-56.17 346.18,-67.74 342.59,-81.35 362,-94.17 364.96,-96.12 368.09,-97.94 371.32,-99.65"/>
<polygon fill="midnightblue" stroke="midnightblue" points="370.09,-102.94 380.62,-104.14 373.13,-96.64 370.09,-102.94"/>
</g>
<!-- Node11 -->
<g id="node11" class="node">
<title>Node11</title>
<g id="a_node11"><a xlink:href="class_group_manager.html#a023ecd32edba5827e65a8228298fdffc" target="_top" xlink:title=" ">
<polygon fill="white" stroke="black" points="362,-65.67 362,-84.67 499,-84.67 499,-65.67 362,-65.67"/>
<text text-anchor="middle" x="430.5" y="-72.67" font-family="Helvetica,sans-Serif" font-size="10.00">GroupManager::getInstance</text>
</a>
</g>
</g>
<!-- Node10&#45;&gt;Node11 -->
<g id="edge10" class="edge">
<title>Node10&#45;&gt;Node11</title>
<path fill="none" stroke="midnightblue" d="M291.18,-46.75C316.15,-51.88 347.06,-58.23 373.33,-63.63"/>
<polygon fill="midnightblue" stroke="midnightblue" points="372.65,-67.06 383.15,-65.65 374.06,-60.2 372.65,-67.06"/>
</g>
<!-- Node10&#45;&gt;Node12 -->
<g id="edge12" class="edge">
<title>Node10&#45;&gt;Node12</title>
<path fill="none" stroke="midnightblue" d="M326.18,-34.52C339.93,-34.07 354,-33.61 367.16,-33.19"/>
<polygon fill="midnightblue" stroke="midnightblue" points="367.61,-36.67 377.49,-32.85 367.38,-29.68 367.61,-36.67"/>
</g>
<!-- Node13&#45;&gt;Node9 -->
<g id="edge14" class="edge">
<title>Node13&#45;&gt;Node9</title>
<path fill="none" stroke="midnightblue" d="M298.01,-119.17C319.66,-119.17 344.81,-119.17 367.27,-119.17"/>
<polygon fill="midnightblue" stroke="midnightblue" points="367.39,-122.67 377.39,-119.17 367.39,-115.67 367.39,-122.67"/>
</g>
<!-- Node14&#45;&gt;Node9 -->
<g id="edge17" class="edge">
<title>Node14&#45;&gt;Node9</title>
<path fill="none" stroke="midnightblue" d="M284.64,-84.71C308.87,-90.48 340.25,-97.94 367.6,-104.44"/>
<polygon fill="midnightblue" stroke="midnightblue" points="366.94,-107.88 377.47,-106.79 368.56,-101.07 366.94,-107.88"/>
</g>
<!-- Node14&#45;&gt;Node11 -->
<g id="edge16" class="edge">
<title>Node14&#45;&gt;Node11</title>
<path fill="none" stroke="midnightblue" d="M323.76,-75.17C332.95,-75.17 342.32,-75.17 351.5,-75.17"/>
<polygon fill="midnightblue" stroke="midnightblue" points="351.75,-78.67 361.75,-75.17 351.75,-71.67 351.75,-78.67"/>
</g>
<!-- Node14&#45;&gt;Node12 -->
<g id="edge18" class="edge">
<title>Node14&#45;&gt;Node12</title>
<path fill="none" stroke="midnightblue" d="M285.56,-65.66C298.5,-62.65 312.85,-59.29 326,-56.17 339.46,-52.97 353.9,-49.51 367.59,-46.21"/>
<polygon fill="midnightblue" stroke="midnightblue" points="368.5,-49.59 377.4,-43.84 366.85,-42.78 368.5,-49.59"/>
</g>
</g>
</svg>
        <g id="navigator" transform="translate(0 0)" fill="#404254">
                <rect fill="#f2f5e9" fill-opacity="0.5" stroke="#606060" stroke-width=".5" x="0" y="0" width="60" height="60"/>
                <use id="zoomplus" xlink:href="#zoomPlus" x="17" y="9" onmousedown="handleZoom(evt,'in')"/>
                <use id="zoomminus" xlink:href="#zoomMin" x="42" y="9" onmousedown="handleZoom(evt,'out')"/>
                <use id="reset" xlink:href="#resetDef" x="30" y="36" onmousedown="handleReset()"/>
                <g id="arrowUp" xlink:href="#dirArrow" transform="translate(30 24)" onmousedown="handlePan(0,-1)">
                  <use xlink:href="#rim" fill="#404040">
                        <set attributeName="fill" to="#808080" begin="arrowUp.mouseover" end="arrowUp.mouseout"/>
                  </use>
                  <path fill="none" stroke="white" stroke-width="1.5" d="M0,-3.0v7 M-2.5,-0.5L0,-3.0L2.5,-0.5"/>
                </g>
                <g id="arrowRight" xlink:href="#dirArrow" transform="rotate(90) translate(36 -43)" onmousedown="handlePan(1,0)">
                  <use xlink:href="#rim" fill="#404040">
                        <set attributeName="fill" to="#808080" begin="arrowRight.mouseover" end="arrowRight.mouseout"/>
                  </use>
                  <path fill="none" stroke="white" stroke-width="1.5" d="M0,-3.0v7 M-2.5,-0.5L0,-3.0L2.5,-0.5"/>
                </g>
                <g id="arrowDown" xlink:href="#dirArrow" transform="rotate(180) translate(-30 -48)" onmousedown="handlePan(0,1)">
                  <use xlink:href="#rim" fill="#404040">
                        <set attributeName="fill" to="#808080" begin="arrowDown.mouseover" end="arrowDown.mouseout"/>
                  </use>
                  <path fill="none" stroke="white" stroke-width="1.5" d="M0,-3.0v7 M-2.5,-0.5L0,-3.0L2.5,-0.5"/>
                </g>
                <g id="arrowLeft" xlink:href="#dirArrow" transform="rotate(270) translate(-36 17)" onmousedown="handlePan(-1,0)">
                  <use xlink:href="#rim" fill="#404040">
                        <set attributeName="fill" to="#808080" begin="arrowLeft.mouseover" end="arrowLeft.mouseout"/>
                  </use>
                  <path fill="none" stroke="white" stroke-width="1.5" d="M0,-3.0v7 M-2.5,-0.5L0,-3.0L2.5,-0.5"/>
                </g>
        </g>
        <svg viewBox="0 0 15 15" width="100%" height="30px" preserveAspectRatio="xMaxYMin meet">
         <g id="arrow_out" transform="scale(0.3 0.3)">
          <a xlink:href="class_json_r_p_c_handler_a4ff8c43e6411cabcd25f2e1978f43e49_cgraph_org.svg" target="_base">
           <rect id="button" ry="5" rx="5" y="6" x="6" height="38" width="38"
                fill="#f2f5e9" fill-opacity="0.5" stroke="#606060" stroke-width="1.0"/>
           <path id="arrow"
             d="M 11.500037,31.436501 C 11.940474,20.09759 22.043105,11.32322 32.158766,21.979434 L 37.068811,17.246167 C 37.068811,17.246167 37.088388,32 37.088388,32 L 22.160133,31.978069 C 22.160133,31.978069 26.997745,27.140456 26.997745,27.140456 C 18.528582,18.264221 13.291696,25.230495 11.500037,31.436501 z"
             style="fill:#404040;"/>
          </a>
         </g>
        </svg>
</svg>
