<?xml version="1.0" encoding="UTF-8" standalone="no"?>
<!DOCTYPE svg PUBLIC "-//W3C//DTD SVG 1.1//EN"
 "http://www.w3.org/Graphics/SVG/1.1/DTD/svg11.dtd">
<!-- Generated by graphviz version 2.50.0 (20211204.2007)
 -->
<!-- Title: model::files::FileBase Pages: 1 -->
<svg width="132pt" height="193pt"
 viewBox="0.00 0.00 132.00 193.00" xmlns="http://www.w3.org/2000/svg" xmlns:xlink="http://www.w3.org/1999/xlink">
<g id="graph0" class="graph" transform="scale(1 1) rotate(0) translate(4 189)">
<title>model::files::FileBase</title>
<polygon fill="white" stroke="transparent" points="-4,4 -4,-189 128,-189 128,4 -4,4"/>
<!-- Node1 -->
<g id="node1" class="node">
<title>Node1</title>
<g id="a_node1"><a xlink:title=" ">
<polygon fill="#bfbfbf" stroke="black" points="7,-0.5 7,-90.5 117,-90.5 117,-0.5 7,-0.5"/>
<text text-anchor="middle" x="62" y="-78.5" font-family="Helvetica,sans-Serif" font-size="10.00">model::files::FileBase</text>
<polyline fill="none" stroke="black" points="7,-71.5 117,-71.5 "/>
<text text-anchor="start" x="15" y="-59.5" font-family="Helvetica,sans-Serif" font-size="10.00"># mFastMutex</text>
<text text-anchor="start" x="15" y="-48.5" font-family="Helvetica,sans-Serif" font-size="10.00"># mReferenceMutex</text>
<text text-anchor="start" x="15" y="-37.5" font-family="Helvetica,sans-Serif" font-size="10.00"># mRefCount</text>
<polyline fill="none" stroke="black" points="7,-30.5 117,-30.5 "/>
<text text-anchor="start" x="15" y="-18.5" font-family="Helvetica,sans-Serif" font-size="10.00">+ FileBase()</text>
<text text-anchor="start" x="15" y="-7.5" font-family="Helvetica,sans-Serif" font-size="10.00"># ~FileBase()</text>
</a>
</g>
</g>
<!-- Node2 -->
<g id="node2" class="node">
<title>Node2</title>
<g id="a_node2"><a xlink:title=" ">
<polygon fill="white" stroke="black" points="0,-127.5 0,-184.5 124,-184.5 124,-127.5 0,-127.5"/>
<text text-anchor="middle" x="62" y="-172.5" font-family="Helvetica,sans-Serif" font-size="10.00">Poco::RefCountedObject</text>
<polyline fill="none" stroke="black" points="0,-165.5 124,-165.5 "/>
<text text-anchor="middle" x="62" y="-153.5" font-family="Helvetica,sans-Serif" font-size="10.00"> </text>
<polyline fill="none" stroke="black" points="0,-146.5 124,-146.5 "/>
<text text-anchor="middle" x="62" y="-134.5" font-family="Helvetica,sans-Serif" font-size="10.00"> </text>
</a>
</g>
</g>
<!-- Node2&#45;&gt;Node1 -->
<g id="edge1" class="edge">
<title>Node2&#45;&gt;Node1</title>
<path fill="none" stroke="midnightblue" d="M62,-117.21C62,-108.61 62,-99.39 62,-90.55"/>
<polygon fill="none" stroke="midnightblue" points="58.5,-117.34 62,-127.34 65.5,-117.34 58.5,-117.34"/>
</g>
</g>
</svg>
