<?xml version="1.0" encoding="UTF-8" standalone="no"?>
<!DOCTYPE svg PUBLIC "-//W3C//DTD SVG 1.1//EN"
 "http://www.w3.org/Graphics/SVG/1.1/DTD/svg11.dtd">
<!-- Generated by graphviz version 2.50.0 (20211204.2007)
 -->
<!-- Title: TaskObserverFinishCommand::taskFinished Pages: 1 -->
<svg width="786pt" height="39pt"
 viewBox="0.00 0.00 786.00 39.00" xmlns="http://www.w3.org/2000/svg" xmlns:xlink="http://www.w3.org/1999/xlink">
<g id="graph0" class="graph" transform="scale(1 1) rotate(0) translate(4 35)">
<title>TaskObserverFinishCommand::taskFinished</title>
<polygon fill="white" stroke="transparent" points="-4,4 -4,-35 782,-35 782,4 -4,4"/>
<!-- Node1 -->
<g id="node1" class="node">
<title>Node1</title>
<g id="a_node1"><a xlink:title=" ">
<polygon fill="#bfbfbf" stroke="black" points="0,-0.5 0,-30.5 146,-30.5 146,-0.5 0,-0.5"/>
<text text-anchor="start" x="8" y="-18.5" font-family="Helvetica,sans-Serif" font-size="10.00">TaskObserverFinishCommand</text>
<text text-anchor="middle" x="73" y="-7.5" font-family="Helvetica,sans-Serif" font-size="10.00">::taskFinished</text>
</a>
</g>
</g>
<!-- Node2 -->
<g id="node2" class="node">
<title>Node2</title>
<g id="a_node2"><a xlink:href="class_task_observer.html#aa0951519dd1424eaa6c1983fb186eb8f" target="_top" xlink:title="remove Tasks">
<polygon fill="white" stroke="black" points="182,-6 182,-25 316,-25 316,-6 182,-6"/>
<text text-anchor="middle" x="249" y="-13" font-family="Helvetica,sans-Serif" font-size="10.00">TaskObserver::removeTask</text>
</a>
</g>
</g>
<!-- Node1&#45;&gt;Node2 -->
<g id="edge1" class="edge">
<title>Node1&#45;&gt;Node2</title>
<path fill="none" stroke="midnightblue" d="M146.03,-15.5C154.47,-15.5 163.11,-15.5 171.6,-15.5"/>
<polygon fill="midnightblue" stroke="midnightblue" points="171.88,-19 181.88,-15.5 171.88,-12 171.88,-19"/>
</g>
<!-- Node3 -->
<g id="node3" class="node">
<title>Node3</title>
<g id="a_node3"><a xlink:href="class_task_observer.html#abb99f67e09fb4ef4144e983699e51bca" target="_top" xlink:title="remove WriteTransactionsToBlockTask from map and transactions">
<polygon fill="white" stroke="black" points="352,-0.5 352,-30.5 489,-30.5 489,-0.5 352,-0.5"/>
<text text-anchor="start" x="360" y="-18.5" font-family="Helvetica,sans-Serif" font-size="10.00">TaskObserver::removeBlock</text>
<text text-anchor="middle" x="420.5" y="-7.5" font-family="Helvetica,sans-Serif" font-size="10.00">WriteTask</text>
</a>
</g>
</g>
<!-- Node2&#45;&gt;Node3 -->
<g id="edge2" class="edge">
<title>Node2&#45;&gt;Node3</title>
<path fill="none" stroke="midnightblue" d="M316.02,-15.5C324.5,-15.5 333.25,-15.5 341.9,-15.5"/>
<polygon fill="midnightblue" stroke="midnightblue" points="341.99,-19 351.99,-15.5 341.99,-12 341.99,-19"/>
</g>
<!-- Node4 -->
<g id="node4" class="node">
<title>Node4</title>
<g id="a_node4"><a xlink:href="class_write_transactions_to_block_task.html#ac09321e307b6d017ac340e220e3cb8e9" target="_top" xlink:title="collect all transaction nrs from transactions">
<polygon fill="white" stroke="black" points="525,-0.5 525,-30.5 656,-30.5 656,-0.5 525,-0.5"/>
<text text-anchor="start" x="533" y="-18.5" font-family="Helvetica,sans-Serif" font-size="10.00">WriteTransactionsToBlock</text>
<text text-anchor="middle" x="590.5" y="-7.5" font-family="Helvetica,sans-Serif" font-size="10.00">Task::getTransactionNrs</text>
</a>
</g>
</g>
<!-- Node3&#45;&gt;Node4 -->
<g id="edge3" class="edge">
<title>Node3&#45;&gt;Node4</title>
<path fill="none" stroke="midnightblue" d="M489.35,-15.5C497.7,-15.5 506.27,-15.5 514.72,-15.5"/>
<polygon fill="midnightblue" stroke="midnightblue" points="514.94,-19 524.94,-15.5 514.94,-12 514.94,-19"/>
</g>
<!-- Node5 -->
<g id="node5" class="node">
<title>Node5</title>
<g id="a_node5"><a xlink:href="classtask_1_1_task.html#ae035d934c5935b5414ef6da14a265efd" target="_top" xlink:title=" ">
<polygon fill="white" stroke="black" points="692,-6 692,-25 778,-25 778,-6 692,-6"/>
<text text-anchor="middle" x="735" y="-13" font-family="Helvetica,sans-Serif" font-size="10.00">task::Task::lock</text>
</a>
</g>
</g>
<!-- Node4&#45;&gt;Node5 -->
<g id="edge4" class="edge">
<title>Node4&#45;&gt;Node5</title>
<path fill="none" stroke="midnightblue" d="M656.08,-15.5C664.57,-15.5 673.19,-15.5 681.45,-15.5"/>
<polygon fill="midnightblue" stroke="midnightblue" points="681.68,-19 691.68,-15.5 681.68,-12 681.68,-19"/>
</g>
</g>
</svg>
