<?xml version="1.0" encoding="UTF-8" standalone="no"?>
<!DOCTYPE svg PUBLIC "-//W3C//DTD SVG 1.1//EN"
 "http://www.w3.org/Graphics/SVG/1.1/DTD/svg11.dtd">
<!-- Generated by graphviz version 2.50.0 (20211204.2007)
 -->
<!-- Title: model::files::AddressIndex::calculateFileSize Pages: 1 -->
<svg width="662pt" height="78pt"
 viewBox="0.00 0.00 662.00 77.50" xmlns="http://www.w3.org/2000/svg" xmlns:xlink="http://www.w3.org/1999/xlink">
<g id="graph0" class="graph" transform="scale(1 1) rotate(0) translate(4 73.5)">
<title>model::files::AddressIndex::calculateFileSize</title>
<polygon fill="white" stroke="transparent" points="-4,4 -4,-73.5 658,-73.5 658,4 -4,4"/>
<!-- Node1 -->
<g id="node1" class="node">
<title>Node1</title>
<g id="a_node1"><a xlink:title="Calculate file size from map entry count + space for hash, use Poco::FastMutex::ScopedLock.">
<polygon fill="#bfbfbf" stroke="black" points="523,-22.5 523,-52.5 654,-52.5 654,-22.5 523,-22.5"/>
<text text-anchor="start" x="531" y="-40.5" font-family="Helvetica,sans-Serif" font-size="10.00">model::files::AddressIndex</text>
<text text-anchor="middle" x="588.5" y="-29.5" font-family="Helvetica,sans-Serif" font-size="10.00">::calculateFileSize</text>
</a>
</g>
</g>
<!-- Node2 -->
<g id="node2" class="node">
<title>Node2</title>
<g id="a_node2"><a xlink:href="classmodel_1_1files_1_1_address_index.html#af316cd9ce255efa0b2cfd80d6778d7b1" target="_top" xlink:title="Check if index file contains current indices (compare sizes), fileLock via FileLockManager,...">
<polygon fill="white" stroke="black" points="356,-22.5 356,-52.5 487,-52.5 487,-22.5 356,-22.5"/>
<text text-anchor="start" x="364" y="-40.5" font-family="Helvetica,sans-Serif" font-size="10.00">model::files::AddressIndex</text>
<text text-anchor="middle" x="421.5" y="-29.5" font-family="Helvetica,sans-Serif" font-size="10.00">::checkFile</text>
</a>
</g>
</g>
<!-- Node1&#45;&gt;Node2 -->
<g id="edge1" class="edge">
<title>Node1&#45;&gt;Node2</title>
<path fill="none" stroke="midnightblue" d="M512.76,-37.5C504.18,-37.5 495.48,-37.5 487.05,-37.5"/>
<polygon fill="midnightblue" stroke="midnightblue" points="512.76,-41 522.76,-37.5 512.76,-34 512.76,-41"/>
</g>
<!-- Node3 -->
<g id="node3" class="node">
<title>Node3</title>
<g id="a_node3"><a xlink:href="classmodel_1_1files_1_1_address_index.html#ac530703f10a574559e0885acd257a2ea" target="_top" xlink:title="Write new index file if checkFile return true, use Poco::FastMutex::ScopedLock, fileLock via FileLock...">
<polygon fill="white" stroke="black" points="189,-22.5 189,-52.5 320,-52.5 320,-22.5 189,-22.5"/>
<text text-anchor="start" x="197" y="-40.5" font-family="Helvetica,sans-Serif" font-size="10.00">model::files::AddressIndex</text>
<text text-anchor="middle" x="254.5" y="-29.5" font-family="Helvetica,sans-Serif" font-size="10.00">::writeToFile</text>
</a>
</g>
</g>
<!-- Node2&#45;&gt;Node3 -->
<g id="edge2" class="edge">
<title>Node2&#45;&gt;Node3</title>
<path fill="none" stroke="midnightblue" d="M345.76,-37.5C337.18,-37.5 328.48,-37.5 320.05,-37.5"/>
<polygon fill="midnightblue" stroke="midnightblue" points="345.76,-41 355.76,-37.5 345.76,-34 345.76,-41"/>
</g>
<!-- Node4 -->
<g id="node4" class="node">
<title>Node4</title>
<g id="a_node4"><a xlink:href="classmodel_1_1files_1_1_address_index.html#a4ae311bf893bc8b199071575a0610000" target="_top" xlink:title="Adding new index, account address public key pair into memory, use Poco::FastMutex::ScopedLock.">
<polygon fill="white" stroke="black" points="0,-50 0,-69 153,-69 153,-50 0,-50"/>
<text text-anchor="middle" x="76.5" y="-57" font-family="Helvetica,sans-Serif" font-size="10.00">model::files::AddressIndex::add</text>
</a>
</g>
</g>
<!-- Node3&#45;&gt;Node4 -->
<g id="edge3" class="edge">
<title>Node3&#45;&gt;Node4</title>
<path fill="none" stroke="midnightblue" d="M178.99,-46.81C170.41,-47.89 161.66,-48.98 153.06,-50.05"/>
<polygon fill="midnightblue" stroke="midnightblue" points="179.47,-50.28 188.96,-45.57 178.61,-43.33 179.47,-50.28"/>
</g>
<!-- Node5 -->
<g id="node5" class="node">
<title>Node5</title>
<g id="a_node5"><a xlink:href="classmodel_1_1files_1_1_address_index.html#a4e1f457f7f8715f2fda15df438de7ae9" target="_top" xlink:title=" ">
<polygon fill="white" stroke="black" points="11,-0.5 11,-30.5 142,-30.5 142,-0.5 11,-0.5"/>
<text text-anchor="start" x="19" y="-18.5" font-family="Helvetica,sans-Serif" font-size="10.00">model::files::AddressIndex</text>
<text text-anchor="middle" x="76.5" y="-7.5" font-family="Helvetica,sans-Serif" font-size="10.00">::~AddressIndex</text>
</a>
</g>
</g>
<!-- Node3&#45;&gt;Node5 -->
<g id="edge4" class="edge">
<title>Node3&#45;&gt;Node5</title>
<path fill="none" stroke="midnightblue" d="M178.79,-28.16C166.57,-26.63 153.99,-25.06 142.03,-23.57"/>
<polygon fill="midnightblue" stroke="midnightblue" points="178.61,-31.67 188.96,-29.43 179.47,-24.72 178.61,-31.67"/>
</g>
</g>
</svg>
