<?xml version="1.0" encoding="UTF-8" standalone="no"?>
<!DOCTYPE svg PUBLIC "-//W3C//DTD SVG 1.1//EN"
 "http://www.w3.org/Graphics/SVG/1.1/DTD/svg11.dtd">
<!-- Generated by graphviz version 2.50.0 (20211204.2007)
 -->
<!-- Title: controller::Group::getBlock Pages: 1 -->
<svg width="456pt" height="284pt"
 viewBox="0.00 0.00 456.00 284.00" xmlns="http://www.w3.org/2000/svg" xmlns:xlink="http://www.w3.org/1999/xlink">
<g id="graph0" class="graph" transform="scale(1 1) rotate(0) translate(4 280)">
<title>controller::Group::getBlock</title>
<polygon fill="white" stroke="transparent" points="-4,4 -4,-280 452,-280 452,4 -4,4"/>
<!-- Node1 -->
<g id="node1" class="node">
<title>Node1</title>
<g id="a_node1"><a xlink:title=" ">
<polygon fill="#bfbfbf" stroke="black" points="353,-122.5 353,-152.5 448,-152.5 448,-122.5 353,-122.5"/>
<text text-anchor="start" x="361" y="-140.5" font-family="Helvetica,sans-Serif" font-size="10.00">controller::Group::</text>
<text text-anchor="middle" x="400.5" y="-129.5" font-family="Helvetica,sans-Serif" font-size="10.00">getBlock</text>
</a>
</g>
</g>
<!-- Node2 -->
<g id="node2" class="node">
<title>Node2</title>
<g id="a_node2"><a xlink:href="classcontroller_1_1_group.html#a435aeeda6dd38bf86f72653d78869387" target="_top" xlink:title=" ">
<polygon fill="white" stroke="black" points="172,-245.5 172,-275.5 311,-275.5 311,-245.5 172,-245.5"/>
<text text-anchor="start" x="180" y="-263.5" font-family="Helvetica,sans-Serif" font-size="10.00">controller::Group::</text>
<text text-anchor="middle" x="241.5" y="-252.5" font-family="Helvetica,sans-Serif" font-size="10.00">fillSignatureCacheOnStartup</text>
</a>
</g>
</g>
<!-- Node1&#45;&gt;Node2 -->
<g id="edge1" class="edge">
<title>Node1&#45;&gt;Node2</title>
<path fill="none" stroke="midnightblue" d="M385.42,-161.13C370.92,-183.56 346.34,-216.69 317,-236.5 311.93,-239.92 306.34,-242.88 300.57,-245.44"/>
<polygon fill="midnightblue" stroke="midnightblue" points="388.47,-162.87 390.83,-152.54 382.54,-159.14 388.47,-162.87"/>
</g>
<!-- Node4 -->
<g id="node4" class="node">
<title>Node4</title>
<g id="a_node4"><a xlink:href="classcontroller_1_1_group.html#ae8e568b6229a699bfed1ecc781a1b162" target="_top" xlink:title="Find every transaction belonging to address account in memory or block chain, expensive.">
<polygon fill="white" stroke="black" points="194,-196.5 194,-226.5 289,-226.5 289,-196.5 194,-196.5"/>
<text text-anchor="start" x="202" y="-214.5" font-family="Helvetica,sans-Serif" font-size="10.00">controller::Group::</text>
<text text-anchor="middle" x="241.5" y="-203.5" font-family="Helvetica,sans-Serif" font-size="10.00">findTransactions</text>
</a>
</g>
</g>
<!-- Node1&#45;&gt;Node4 -->
<g id="edge3" class="edge">
<title>Node1&#45;&gt;Node4</title>
<path fill="none" stroke="midnightblue" d="M369.37,-158.09C354.14,-167.89 335.09,-179.24 317,-187.5 308.22,-191.51 298.58,-195.14 289.24,-198.29"/>
<polygon fill="midnightblue" stroke="midnightblue" points="371.41,-160.94 377.86,-152.54 367.58,-155.09 371.41,-160.94"/>
</g>
<!-- Node6 -->
<g id="node6" class="node">
<title>Node6</title>
<g id="a_node6"><a xlink:href="classcontroller_1_1_group.html#ae83f827a3864c473a8203e933457665c" target="_top" xlink:title=" ">
<polygon fill="white" stroke="black" points="166,-147.5 166,-177.5 317,-177.5 317,-147.5 166,-147.5"/>
<text text-anchor="start" x="174" y="-165.5" font-family="Helvetica,sans-Serif" font-size="10.00">controller::Group::</text>
<text text-anchor="middle" x="241.5" y="-154.5" font-family="Helvetica,sans-Serif" font-size="10.00">getBlockContainingTransaction</text>
</a>
</g>
</g>
<!-- Node1&#45;&gt;Node6 -->
<g id="edge5" class="edge">
<title>Node1&#45;&gt;Node6</title>
<path fill="none" stroke="midnightblue" d="M342.87,-146.52C334.54,-147.84 325.86,-149.23 317.23,-150.6"/>
<polygon fill="midnightblue" stroke="midnightblue" points="343.49,-149.96 352.82,-144.93 342.39,-143.05 343.49,-149.96"/>
</g>
<!-- Node8 -->
<g id="node8" class="node">
<title>Node8</title>
<g id="a_node8"><a xlink:href="classcontroller_1_1_group.html#a4a20b0f19b33b91503ecc8132cff4da9" target="_top" xlink:title="get current block to write more transactions in it">
<polygon fill="white" stroke="black" points="194,-98.5 194,-128.5 289,-128.5 289,-98.5 194,-98.5"/>
<text text-anchor="start" x="202" y="-116.5" font-family="Helvetica,sans-Serif" font-size="10.00">controller::Group::</text>
<text text-anchor="middle" x="241.5" y="-105.5" font-family="Helvetica,sans-Serif" font-size="10.00">getCurrentBlock</text>
</a>
</g>
</g>
<!-- Node1&#45;&gt;Node8 -->
<g id="edge7" class="edge">
<title>Node1&#45;&gt;Node8</title>
<path fill="none" stroke="midnightblue" d="M342.66,-128.81C325.03,-126.12 305.83,-123.18 289,-120.61"/>
<polygon fill="midnightblue" stroke="midnightblue" points="342.41,-132.31 352.82,-130.36 343.46,-125.39 342.41,-132.31"/>
</g>
<!-- Node10 -->
<g id="node10" class="node">
<title>Node10</title>
<g id="a_node10"><a xlink:href="classcontroller_1_1_group.html#a59aa216bd418564b8c56480a88ad5481" target="_top" xlink:title=" ">
<polygon fill="white" stroke="black" points="192,-49.5 192,-79.5 291,-79.5 291,-49.5 192,-49.5"/>
<text text-anchor="start" x="200" y="-67.5" font-family="Helvetica,sans-Serif" font-size="10.00">controller::Group::</text>
<text text-anchor="middle" x="241.5" y="-56.5" font-family="Helvetica,sans-Serif" font-size="10.00">getLastTransaction</text>
</a>
</g>
</g>
<!-- Node1&#45;&gt;Node10 -->
<g id="edge9" class="edge">
<title>Node1&#45;&gt;Node10</title>
<path fill="none" stroke="midnightblue" d="M368.67,-116.95C353.54,-107.44 334.77,-96.52 317,-88.5 308.82,-84.81 299.91,-81.43 291.19,-78.44"/>
<polygon fill="midnightblue" stroke="midnightblue" points="366.82,-119.91 377.13,-122.34 370.58,-114.01 366.82,-119.91"/>
</g>
<!-- Node11 -->
<g id="node11" class="node">
<title>Node11</title>
<g id="a_node11"><a xlink:href="classcontroller_1_1_group.html#a99b11874c6ddc1e1496ec35e062aff72" target="_top" xlink:title="Load group states via model::files::GroupState.">
<polygon fill="white" stroke="black" points="194,-0.5 194,-30.5 289,-30.5 289,-0.5 194,-0.5"/>
<text text-anchor="start" x="202" y="-18.5" font-family="Helvetica,sans-Serif" font-size="10.00">controller::Group::</text>
<text text-anchor="middle" x="241.5" y="-7.5" font-family="Helvetica,sans-Serif" font-size="10.00">Group</text>
</a>
</g>
</g>
<!-- Node1&#45;&gt;Node11 -->
<g id="edge11" class="edge">
<title>Node1&#45;&gt;Node11</title>
<path fill="none" stroke="midnightblue" d="M385.12,-113.74C370.55,-91.55 346.05,-59.01 317,-39.5 308.65,-33.89 298.91,-29.52 289.27,-26.14"/>
<polygon fill="midnightblue" stroke="midnightblue" points="382.23,-115.72 390.57,-122.26 388.13,-111.95 382.23,-115.72"/>
</g>
<!-- Node3 -->
<g id="node3" class="node">
<title>Node3</title>
<g id="a_node3"><a xlink:href="classcontroller_1_1_group.html#ab3bf91f13507fa2516b949a9b905ca61" target="_top" xlink:title=" ">
<polygon fill="white" stroke="black" points="11.5,-251 11.5,-270 118.5,-270 118.5,-251 11.5,-251"/>
<text text-anchor="middle" x="65" y="-258" font-family="Helvetica,sans-Serif" font-size="10.00">controller::Group::init</text>
</a>
</g>
</g>
<!-- Node2&#45;&gt;Node3 -->
<g id="edge2" class="edge">
<title>Node2&#45;&gt;Node3</title>
<path fill="none" stroke="midnightblue" d="M161.77,-260.5C147.2,-260.5 132.3,-260.5 118.74,-260.5"/>
<polygon fill="midnightblue" stroke="midnightblue" points="161.78,-264 171.78,-260.5 161.78,-257 161.78,-264"/>
</g>
<!-- Node5 -->
<g id="node5" class="node">
<title>Node5</title>
<g id="a_node5"><a xlink:href="classcontroller_1_1_group.html#a290d7ff553429948078ee4f0dd563b5c" target="_top" xlink:title="Search for creation transactions from specific month and add balances together.">
<polygon fill="white" stroke="black" points="9,-196.5 9,-226.5 121,-226.5 121,-196.5 9,-196.5"/>
<text text-anchor="start" x="17" y="-214.5" font-family="Helvetica,sans-Serif" font-size="10.00">controller::Group::</text>
<text text-anchor="middle" x="65" y="-203.5" font-family="Helvetica,sans-Serif" font-size="10.00">calculateCreationSum</text>
</a>
</g>
</g>
<!-- Node4&#45;&gt;Node5 -->
<g id="edge4" class="edge">
<title>Node4&#45;&gt;Node5</title>
<path fill="none" stroke="midnightblue" d="M183.53,-211.5C163.53,-211.5 141.12,-211.5 121.26,-211.5"/>
<polygon fill="midnightblue" stroke="midnightblue" points="183.74,-215 193.74,-211.5 183.74,-208 183.74,-215"/>
</g>
<!-- Node7 -->
<g id="node7" class="node">
<title>Node7</title>
<g id="a_node7"><a xlink:href="classcontroller_1_1_group.html#a40e6806b5d19e1c96a6e8915f27c2135" target="_top" xlink:title=" ">
<polygon fill="white" stroke="black" points="0,-147.5 0,-177.5 130,-177.5 130,-147.5 0,-147.5"/>
<text text-anchor="start" x="8" y="-165.5" font-family="Helvetica,sans-Serif" font-size="10.00">controller::Group::</text>
<text text-anchor="middle" x="65" y="-154.5" font-family="Helvetica,sans-Serif" font-size="10.00">findTransactionsSerialized</text>
</a>
</g>
</g>
<!-- Node6&#45;&gt;Node7 -->
<g id="edge6" class="edge">
<title>Node6&#45;&gt;Node7</title>
<path fill="none" stroke="midnightblue" d="M155.85,-162.5C147.18,-162.5 138.48,-162.5 130.09,-162.5"/>
<polygon fill="midnightblue" stroke="midnightblue" points="155.99,-166 165.99,-162.5 155.99,-159 155.99,-166"/>
</g>
<!-- Node9 -->
<g id="node9" class="node">
<title>Node9</title>
<g id="a_node9"><a xlink:href="classcontroller_1_1_group.html#a9d18405e4740fc3f2386e1ed68f3c94c" target="_top" xlink:title="add transaction from iota into blockchain, important! must be called in correct order">
<polygon fill="white" stroke="black" points="17.5,-74.5 17.5,-104.5 112.5,-104.5 112.5,-74.5 17.5,-74.5"/>
<text text-anchor="start" x="25.5" y="-92.5" font-family="Helvetica,sans-Serif" font-size="10.00">controller::Group::</text>
<text text-anchor="middle" x="65" y="-81.5" font-family="Helvetica,sans-Serif" font-size="10.00">addTransaction</text>
</a>
</g>
</g>
<!-- Node8&#45;&gt;Node9 -->
<g id="edge8" class="edge">
<title>Node8&#45;&gt;Node9</title>
<path fill="none" stroke="midnightblue" d="M183.75,-105.7C160.73,-102.53 134.46,-98.92 112.59,-95.91"/>
<polygon fill="midnightblue" stroke="midnightblue" points="183.35,-109.17 193.74,-107.07 184.31,-102.24 183.35,-109.17"/>
</g>
<!-- Node10&#45;&gt;Node9 -->
<g id="edge10" class="edge">
<title>Node10&#45;&gt;Node9</title>
<path fill="none" stroke="midnightblue" d="M181.76,-72.92C159.2,-76.15 133.8,-79.79 112.54,-82.83"/>
<polygon fill="midnightblue" stroke="midnightblue" points="182.49,-76.35 191.89,-71.46 181.5,-69.42 182.49,-76.35"/>
</g>
</g>
</svg>
