<?xml version="1.0" encoding="UTF-8" standalone="no"?>
<!DOCTYPE svg PUBLIC "-//W3C//DTD SVG 1.1//EN"
 "http://www.w3.org/Graphics/SVG/1.1/DTD/svg11.dtd">
<!-- Generated by graphviz version 2.50.0 (20211204.2007)
 -->
<!-- Title: model::files::Block::calculateHash Pages: 1 -->
<svg width="288pt" height="116pt"
 viewBox="0.00 0.00 288.00 115.50" xmlns="http://www.w3.org/2000/svg" xmlns:xlink="http://www.w3.org/1999/xlink">
<g id="graph0" class="graph" transform="scale(1 1) rotate(0) translate(4 111.5)">
<title>model::files::Block::calculateHash</title>
<polygon fill="white" stroke="transparent" points="-4,4 -4,-111.5 284,-111.5 284,4 -4,4"/>
<!-- Node1 -->
<g id="node1" class="node">
<title>Node1</title>
<g id="a_node1"><a xlink:title="very expensive, read in whole file and calculate hash">
<polygon fill="#bfbfbf" stroke="black" points="0,-44.5 0,-74.5 97,-74.5 97,-44.5 0,-44.5"/>
<text text-anchor="start" x="8" y="-62.5" font-family="Helvetica,sans-Serif" font-size="10.00">model::files::Block</text>
<text text-anchor="middle" x="48.5" y="-51.5" font-family="Helvetica,sans-Serif" font-size="10.00">::calculateHash</text>
</a>
</g>
</g>
<!-- Node2 -->
<g id="node2" class="node">
<title>Node2</title>
<g id="a_node2"><a xlink:href="class_file_lock_manager.html#a8399a835b02b2013283423050efa52ba" target="_top" xlink:title=" ">
<polygon fill="white" stroke="black" points="133,-88 133,-107 280,-107 280,-88 133,-88"/>
<text text-anchor="middle" x="206.5" y="-95" font-family="Helvetica,sans-Serif" font-size="10.00">FileLockManager::getInstance</text>
</a>
</g>
</g>
<!-- Node1&#45;&gt;Node2 -->
<g id="edge1" class="edge">
<title>Node1&#45;&gt;Node2</title>
<path fill="none" stroke="midnightblue" d="M97.15,-71.11C115.91,-75.68 137.45,-80.92 156.35,-85.53"/>
<polygon fill="midnightblue" stroke="midnightblue" points="155.71,-88.97 166.26,-87.94 157.37,-82.17 155.71,-88.97"/>
</g>
<!-- Node3 -->
<g id="node3" class="node">
<title>Node3</title>
<g id="a_node3"><a xlink:href="class_logger_manager.html#a88f5ea1c5a1bf96ccb17ffabc3fd9a9b" target="_top" xlink:title=" ">
<polygon fill="white" stroke="black" points="136.5,-50 136.5,-69 276.5,-69 276.5,-50 136.5,-50"/>
<text text-anchor="middle" x="206.5" y="-57" font-family="Helvetica,sans-Serif" font-size="10.00">LoggerManager::getInstance</text>
</a>
</g>
</g>
<!-- Node1&#45;&gt;Node3 -->
<g id="edge2" class="edge">
<title>Node1&#45;&gt;Node3</title>
<path fill="none" stroke="midnightblue" d="M97.15,-59.5C106.33,-59.5 116.17,-59.5 126.04,-59.5"/>
<polygon fill="midnightblue" stroke="midnightblue" points="126.32,-63 136.32,-59.5 126.32,-56 126.32,-63"/>
</g>
<!-- Node4 -->
<g id="node4" class="node">
<title>Node4</title>
<g id="a_node4"><a xlink:href="classmodel_1_1files_1_1_block.html#ab5cd6a6f2c7ecc61d98a2f990bc59c5b" target="_top" xlink:title="open file stream if not already open and set mCurrentFileSize via tellg, update mLastUsed">
<polygon fill="white" stroke="black" points="158,-0.5 158,-30.5 255,-30.5 255,-0.5 158,-0.5"/>
<text text-anchor="start" x="166" y="-18.5" font-family="Helvetica,sans-Serif" font-size="10.00">model::files::Block</text>
<text text-anchor="middle" x="206.5" y="-7.5" font-family="Helvetica,sans-Serif" font-size="10.00">::getOpenFile</text>
</a>
</g>
</g>
<!-- Node1&#45;&gt;Node4 -->
<g id="edge3" class="edge">
<title>Node1&#45;&gt;Node4</title>
<path fill="none" stroke="midnightblue" d="M97.15,-46.06C113.26,-41.52 131.41,-36.4 148.18,-31.67"/>
<polygon fill="midnightblue" stroke="midnightblue" points="149.2,-35.02 157.87,-28.93 147.3,-28.28 149.2,-35.02"/>
</g>
</g>
</svg>
