<?xml version="1.0" encoding="UTF-8" standalone="no"?>
<!DOCTYPE svg PUBLIC "-//W3C//DTD SVG 1.1//EN"
 "http://www.w3.org/Graphics/SVG/1.1/DTD/svg11.dtd">
<!-- Generated by graphviz version 2.50.0 (20211204.2007)
 -->
<!-- Title: model::files::Block Pages: 1 -->
<svg width="251pt" height="474pt"
 viewBox="0.00 0.00 250.50 474.00" xmlns="http://www.w3.org/2000/svg" xmlns:xlink="http://www.w3.org/1999/xlink">
<g id="graph0" class="graph" transform="scale(1 1) rotate(0) translate(4 470)">
<title>model::files::Block</title>
<polygon fill="white" stroke="transparent" points="-4,4 -4,-470 246.5,-470 246.5,4 -4,4"/>
<!-- Node1 -->
<g id="node1" class="node">
<title>Node1</title>
<g id="a_node1"><a xlink:title=" ">
<polygon fill="#bfbfbf" stroke="black" points="53.5,-0.5 53.5,-244.5 196.5,-244.5 196.5,-0.5 53.5,-0.5"/>
<text text-anchor="middle" x="125" y="-232.5" font-family="Helvetica,sans-Serif" font-size="10.00">model::files::Block</text>
<polyline fill="none" stroke="black" points="53.5,-225.5 196.5,-225.5 "/>
<text text-anchor="start" x="61.5" y="-213.5" font-family="Helvetica,sans-Serif" font-size="10.00"># mBlockPath</text>
<text text-anchor="start" x="61.5" y="-202.5" font-family="Helvetica,sans-Serif" font-size="10.00"># mBlockNr</text>
<text text-anchor="start" x="61.5" y="-191.5" font-family="Helvetica,sans-Serif" font-size="10.00"># mLastWrittenTransactionNr</text>
<text text-anchor="start" x="61.5" y="-180.5" font-family="Helvetica,sans-Serif" font-size="10.00"># mLastUsed</text>
<text text-anchor="start" x="61.5" y="-169.5" font-family="Helvetica,sans-Serif" font-size="10.00"># mBlockFile</text>
<text text-anchor="start" x="61.5" y="-158.5" font-family="Helvetica,sans-Serif" font-size="10.00"># mFastMutex</text>
<text text-anchor="start" x="61.5" y="-147.5" font-family="Helvetica,sans-Serif" font-size="10.00"># mCurrentFileSize</text>
<polyline fill="none" stroke="black" points="53.5,-140.5 196.5,-140.5 "/>
<text text-anchor="start" x="61.5" y="-128.5" font-family="Helvetica,sans-Serif" font-size="10.00">+ Block()</text>
<text text-anchor="start" x="61.5" y="-117.5" font-family="Helvetica,sans-Serif" font-size="10.00">+ ~Block()</text>
<text text-anchor="start" x="61.5" y="-106.5" font-family="Helvetica,sans-Serif" font-size="10.00">+ callFromTimer()</text>
<text text-anchor="start" x="61.5" y="-95.5" font-family="Helvetica,sans-Serif" font-size="10.00">+ getResourceType()</text>
<text text-anchor="start" x="61.5" y="-84.5" font-family="Helvetica,sans-Serif" font-size="10.00">+ readLine()</text>
<text text-anchor="start" x="61.5" y="-73.5" font-family="Helvetica,sans-Serif" font-size="10.00">+ appendLine()</text>
<text text-anchor="start" x="61.5" y="-62.5" font-family="Helvetica,sans-Serif" font-size="10.00">+ appendLines()</text>
<text text-anchor="start" x="61.5" y="-51.5" font-family="Helvetica,sans-Serif" font-size="10.00">+ getCurrentFileSize()</text>
<text text-anchor="start" x="61.5" y="-40.5" font-family="Helvetica,sans-Serif" font-size="10.00">+ getBlockPath()</text>
<text text-anchor="start" x="61.5" y="-29.5" font-family="Helvetica,sans-Serif" font-size="10.00">+ validateHash()</text>
<text text-anchor="start" x="61.5" y="-18.5" font-family="Helvetica,sans-Serif" font-size="10.00"># getOpenFile()</text>
<text text-anchor="start" x="61.5" y="-7.5" font-family="Helvetica,sans-Serif" font-size="10.00"># calculateHash()</text>
</a>
</g>
</g>
<!-- Node2 -->
<g id="node2" class="node">
<title>Node2</title>
<g id="a_node2"><a xlink:href="classmodel_1_1files_1_1_file_base.html" target="_top" xlink:title=" ">
<polygon fill="white" stroke="black" points="7,-281.5 7,-371.5 117,-371.5 117,-281.5 7,-281.5"/>
<text text-anchor="middle" x="62" y="-359.5" font-family="Helvetica,sans-Serif" font-size="10.00">model::files::FileBase</text>
<polyline fill="none" stroke="black" points="7,-352.5 117,-352.5 "/>
<text text-anchor="start" x="15" y="-340.5" font-family="Helvetica,sans-Serif" font-size="10.00"># mFastMutex</text>
<text text-anchor="start" x="15" y="-329.5" font-family="Helvetica,sans-Serif" font-size="10.00"># mReferenceMutex</text>
<text text-anchor="start" x="15" y="-318.5" font-family="Helvetica,sans-Serif" font-size="10.00"># mRefCount</text>
<polyline fill="none" stroke="black" points="7,-311.5 117,-311.5 "/>
<text text-anchor="start" x="15" y="-299.5" font-family="Helvetica,sans-Serif" font-size="10.00">+ FileBase()</text>
<text text-anchor="start" x="15" y="-288.5" font-family="Helvetica,sans-Serif" font-size="10.00"># ~FileBase()</text>
</a>
</g>
</g>
<!-- Node2&#45;&gt;Node1 -->
<g id="edge1" class="edge">
<title>Node2&#45;&gt;Node1</title>
<path fill="none" stroke="midnightblue" d="M78.85,-271.46C81.51,-262.95 84.34,-253.86 87.25,-244.54"/>
<polygon fill="none" stroke="midnightblue" points="75.46,-270.58 75.83,-281.17 82.14,-272.67 75.46,-270.58"/>
</g>
<!-- Node3 -->
<g id="node3" class="node">
<title>Node3</title>
<g id="a_node3"><a xlink:title=" ">
<polygon fill="white" stroke="black" points="0,-408.5 0,-465.5 124,-465.5 124,-408.5 0,-408.5"/>
<text text-anchor="middle" x="62" y="-453.5" font-family="Helvetica,sans-Serif" font-size="10.00">Poco::RefCountedObject</text>
<polyline fill="none" stroke="black" points="0,-446.5 124,-446.5 "/>
<text text-anchor="middle" x="62" y="-434.5" font-family="Helvetica,sans-Serif" font-size="10.00"> </text>
<polyline fill="none" stroke="black" points="0,-427.5 124,-427.5 "/>
<text text-anchor="middle" x="62" y="-415.5" font-family="Helvetica,sans-Serif" font-size="10.00"> </text>
</a>
</g>
</g>
<!-- Node3&#45;&gt;Node2 -->
<g id="edge2" class="edge">
<title>Node3&#45;&gt;Node2</title>
<path fill="none" stroke="midnightblue" d="M62,-398.21C62,-389.61 62,-380.39 62,-371.55"/>
<polygon fill="none" stroke="midnightblue" points="58.5,-398.34 62,-408.34 65.5,-398.34 58.5,-398.34"/>
</g>
<!-- Node4 -->
<g id="node4" class="node">
<title>Node4</title>
<g id="a_node4"><a xlink:href="class_timer_callback.html" target="_top" xlink:title=" ">
<polygon fill="white" stroke="black" points="135.5,-292.5 135.5,-360.5 242.5,-360.5 242.5,-292.5 135.5,-292.5"/>
<text text-anchor="middle" x="189" y="-348.5" font-family="Helvetica,sans-Serif" font-size="10.00">TimerCallback</text>
<polyline fill="none" stroke="black" points="135.5,-341.5 242.5,-341.5 "/>
<text text-anchor="middle" x="189" y="-329.5" font-family="Helvetica,sans-Serif" font-size="10.00"> </text>
<polyline fill="none" stroke="black" points="135.5,-322.5 242.5,-322.5 "/>
<text text-anchor="start" x="143.5" y="-310.5" font-family="Helvetica,sans-Serif" font-size="10.00">+ callFromTimer()</text>
<text text-anchor="start" x="143.5" y="-299.5" font-family="Helvetica,sans-Serif" font-size="10.00">+ getResourceType()</text>
</a>
</g>
</g>
<!-- Node4&#45;&gt;Node1 -->
<g id="edge3" class="edge">
<title>Node4&#45;&gt;Node1</title>
<path fill="none" stroke="midnightblue" d="M175.37,-282.49C171.74,-271.03 167.64,-258.07 163.37,-244.62"/>
<polygon fill="none" stroke="midnightblue" points="172.07,-283.67 178.43,-292.14 178.75,-281.55 172.07,-283.67"/>
</g>
</g>
</svg>
