<?xml version="1.0" encoding="UTF-8" standalone="no"?>
<!DOCTYPE svg PUBLIC "-//W3C//DTD SVG 1.1//EN"
 "http://www.w3.org/Graphics/SVG/1.1/DTD/svg11.dtd">
<!-- Generated by graphviz version 2.50.0 (20211204.2007)
 -->
<!-- Title: controller::BlockIndex::writeIntoFile Pages: 1 -->
<svg width="606pt" height="249pt"
 viewBox="0.00 0.00 606.00 248.50" xmlns="http://www.w3.org/2000/svg" xmlns:xlink="http://www.w3.org/1999/xlink">
<g id="graph0" class="graph" transform="scale(1 1) rotate(0) translate(4 244.5)">
<title>controller::BlockIndex::writeIntoFile</title>
<polygon fill="white" stroke="transparent" points="-4,4 -4,-244.5 602,-244.5 602,4 -4,4"/>
<!-- Node1 -->
<g id="node1" class="node">
<title>Node1</title>
<g id="a_node1"><a xlink:title="write block index into files">
<polygon fill="#bfbfbf" stroke="black" points="0,-112 0,-142 110,-142 110,-112 0,-112"/>
<text text-anchor="start" x="8" y="-130" font-family="Helvetica,sans-Serif" font-size="10.00">controller::BlockIndex</text>
<text text-anchor="middle" x="55" y="-119" font-family="Helvetica,sans-Serif" font-size="10.00">::writeIntoFile</text>
</a>
</g>
</g>
<!-- Node2 -->
<g id="node2" class="node">
<title>Node2</title>
<g id="a_node2"><a xlink:href="classmodel_1_1files_1_1_block_index.html#a3776dce7bd1ff0e514747259a856965f" target="_top" xlink:title=" ">
<polygon fill="white" stroke="black" points="146,-210 146,-240 266,-240 266,-210 146,-210"/>
<text text-anchor="start" x="154" y="-228" font-family="Helvetica,sans-Serif" font-size="10.00">model::files::BlockIndex</text>
<text text-anchor="middle" x="206" y="-217" font-family="Helvetica,sans-Serif" font-size="10.00">::addDataBlock</text>
</a>
</g>
</g>
<!-- Node1&#45;&gt;Node2 -->
<g id="edge1" class="edge">
<title>Node1&#45;&gt;Node2</title>
<path fill="none" stroke="midnightblue" d="M71.47,-142.22C88.58,-158.43 117.5,-184.02 146,-201 148.62,-202.56 151.37,-204.07 154.17,-205.51"/>
<polygon fill="midnightblue" stroke="midnightblue" points="152.76,-208.71 163.29,-209.89 155.79,-202.4 152.76,-208.71"/>
</g>
<!-- Node3 -->
<g id="node3" class="node">
<title>Node3</title>
<g id="a_node3"><a xlink:href="classmodel_1_1files_1_1_block_index.html#a5acae6b07dc18f1128f6b1533aebf4c2" target="_top" xlink:title=" ">
<polygon fill="white" stroke="black" points="146,-161 146,-191 266,-191 266,-161 146,-161"/>
<text text-anchor="start" x="154" y="-179" font-family="Helvetica,sans-Serif" font-size="10.00">model::files::BlockIndex</text>
<text text-anchor="middle" x="206" y="-168" font-family="Helvetica,sans-Serif" font-size="10.00">::addMonthBlock</text>
</a>
</g>
</g>
<!-- Node1&#45;&gt;Node3 -->
<g id="edge2" class="edge">
<title>Node1&#45;&gt;Node3</title>
<path fill="none" stroke="midnightblue" d="M101.92,-142.1C117,-147.06 133.93,-152.63 149.64,-157.79"/>
<polygon fill="midnightblue" stroke="midnightblue" points="148.64,-161.15 159.23,-160.95 150.82,-154.5 148.64,-161.15"/>
</g>
<!-- Node4 -->
<g id="node4" class="node">
<title>Node4</title>
<g id="a_node4"><a xlink:href="classmodel_1_1files_1_1_block_index.html#a68f5afa198574bc68866ca7306e61a37" target="_top" xlink:title=" ">
<polygon fill="white" stroke="black" points="146,-112 146,-142 266,-142 266,-112 146,-112"/>
<text text-anchor="start" x="154" y="-130" font-family="Helvetica,sans-Serif" font-size="10.00">model::files::BlockIndex</text>
<text text-anchor="middle" x="206" y="-119" font-family="Helvetica,sans-Serif" font-size="10.00">::addYearBlock</text>
</a>
</g>
</g>
<!-- Node1&#45;&gt;Node4 -->
<g id="edge3" class="edge">
<title>Node1&#45;&gt;Node4</title>
<path fill="none" stroke="midnightblue" d="M110.21,-127C118.53,-127 127.2,-127 135.79,-127"/>
<polygon fill="midnightblue" stroke="midnightblue" points="135.79,-130.5 145.79,-127 135.79,-123.5 135.79,-130.5"/>
</g>
<!-- Node5 -->
<g id="node5" class="node">
<title>Node5</title>
<g id="a_node5"><a xlink:href="classmodel_1_1files_1_1_block_index.html#a549ca850449c0c44243d2bea266fd4ce" target="_top" xlink:title="clear data blocks">
<polygon fill="white" stroke="black" points="146,-63 146,-93 266,-93 266,-63 146,-63"/>
<text text-anchor="start" x="154" y="-81" font-family="Helvetica,sans-Serif" font-size="10.00">model::files::BlockIndex</text>
<text text-anchor="middle" x="206" y="-70" font-family="Helvetica,sans-Serif" font-size="10.00">::reset</text>
</a>
</g>
</g>
<!-- Node1&#45;&gt;Node5 -->
<g id="edge4" class="edge">
<title>Node1&#45;&gt;Node5</title>
<path fill="none" stroke="midnightblue" d="M101.92,-111.9C117,-106.94 133.93,-101.37 149.64,-96.21"/>
<polygon fill="midnightblue" stroke="midnightblue" points="150.82,-99.5 159.23,-93.05 148.64,-92.85 150.82,-99.5"/>
</g>
<!-- Node6 -->
<g id="node6" class="node">
<title>Node6</title>
<g id="a_node6"><a xlink:href="classmodel_1_1files_1_1_block_index.html#a87e5d8bb2faf36e3e770e593df3d85e4" target="_top" xlink:title="replace Index File with new one, clear blocks after writing into file">
<polygon fill="white" stroke="black" points="146,-14 146,-44 266,-44 266,-14 146,-14"/>
<text text-anchor="start" x="154" y="-32" font-family="Helvetica,sans-Serif" font-size="10.00">model::files::BlockIndex</text>
<text text-anchor="middle" x="206" y="-21" font-family="Helvetica,sans-Serif" font-size="10.00">::writeToFile</text>
</a>
</g>
</g>
<!-- Node1&#45;&gt;Node6 -->
<g id="edge5" class="edge">
<title>Node1&#45;&gt;Node6</title>
<path fill="none" stroke="midnightblue" d="M71.87,-111.79C89.09,-95.87 117.89,-70.89 146,-54 149.19,-52.08 152.56,-50.24 156,-48.48"/>
<polygon fill="midnightblue" stroke="midnightblue" points="157.71,-51.54 165.2,-44.05 154.68,-45.23 157.71,-51.54"/>
</g>
<!-- Node7 -->
<g id="node7" class="node">
<title>Node7</title>
<g id="a_node7"><a xlink:href="class_virtual_file.html#ab6f997f913811412a1c85310ff7dd792" target="_top" xlink:title="copy to buffer from src, move cursor">
<polygon fill="white" stroke="black" points="315.5,-38.5 315.5,-57.5 401.5,-57.5 401.5,-38.5 315.5,-38.5"/>
<text text-anchor="middle" x="358.5" y="-45.5" font-family="Helvetica,sans-Serif" font-size="10.00">VirtualFile::write</text>
</a>
</g>
</g>
<!-- Node6&#45;&gt;Node7 -->
<g id="edge6" class="edge">
<title>Node6&#45;&gt;Node7</title>
<path fill="none" stroke="midnightblue" d="M266.05,-36.45C279.05,-38.1 292.72,-39.82 305.42,-41.42"/>
<polygon fill="midnightblue" stroke="midnightblue" points="305,-44.9 315.36,-42.68 305.88,-37.95 305,-44.9"/>
</g>
<!-- Node8 -->
<g id="node8" class="node">
<title>Node8</title>
<g id="a_node8"><a xlink:href="class_virtual_file.html#ae43cf874b04266d94e578b500c432e34" target="_top" xlink:title="write memory bin content to file, until cursor position">
<polygon fill="white" stroke="black" points="302,-0.5 302,-19.5 415,-19.5 415,-0.5 302,-0.5"/>
<text text-anchor="middle" x="358.5" y="-7.5" font-family="Helvetica,sans-Serif" font-size="10.00">VirtualFile::writeToFile</text>
</a>
</g>
</g>
<!-- Node6&#45;&gt;Node8 -->
<g id="edge7" class="edge">
<title>Node6&#45;&gt;Node8</title>
<path fill="none" stroke="midnightblue" d="M266.05,-21.55C274.36,-20.5 282.95,-19.41 291.39,-18.35"/>
<polygon fill="midnightblue" stroke="midnightblue" points="292.09,-21.79 301.57,-17.06 291.21,-14.84 292.09,-21.79"/>
</g>
<!-- Node9 -->
<g id="node9" class="node">
<title>Node9</title>
<g id="a_node9"><a xlink:href="class_file_lock_manager.html#a8399a835b02b2013283423050efa52ba" target="_top" xlink:title=" ">
<polygon fill="white" stroke="black" points="451,-0.5 451,-19.5 598,-19.5 598,-0.5 451,-0.5"/>
<text text-anchor="middle" x="524.5" y="-7.5" font-family="Helvetica,sans-Serif" font-size="10.00">FileLockManager::getInstance</text>
</a>
</g>
</g>
<!-- Node8&#45;&gt;Node9 -->
<g id="edge8" class="edge">
<title>Node8&#45;&gt;Node9</title>
<path fill="none" stroke="midnightblue" d="M415.02,-10C423.3,-10 431.99,-10 440.69,-10"/>
<polygon fill="midnightblue" stroke="midnightblue" points="440.88,-13.5 450.88,-10 440.88,-6.5 440.88,-13.5"/>
</g>
</g>
</svg>
