<?xml version="1.0" encoding="UTF-8" standalone="no"?>
<!DOCTYPE svg PUBLIC "-//W3C//DTD SVG 1.1//EN"
 "http://www.w3.org/Graphics/SVG/1.1/DTD/svg11.dtd">
<!-- Generated by graphviz version 2.50.0 (20211204.2007)
 -->
<!-- Title: iota::MessageValidator::run Pages: 1 -->
<svg width="493pt" height="116pt"
 viewBox="0.00 0.00 493.00 115.50" xmlns="http://www.w3.org/2000/svg" xmlns:xlink="http://www.w3.org/1999/xlink">
<g id="graph0" class="graph" transform="scale(1 1) rotate(0) translate(4 111.5)">
<title>iota::MessageValidator::run</title>
<polygon fill="white" stroke="transparent" points="-4,4 -4,-111.5 489,-111.5 489,4 -4,4"/>
<!-- Node1 -->
<g id="node1" class="node">
<title>Node1</title>
<g id="a_node1"><a xlink:title=" ">
<polygon fill="#bfbfbf" stroke="black" points="0,-50 0,-69 136,-69 136,-50 0,-50"/>
<text text-anchor="middle" x="68" y="-57" font-family="Helvetica,sans-Serif" font-size="10.00">iota::MessageValidator::run</text>
</a>
</g>
</g>
<!-- Node2 -->
<g id="node2" class="node">
<title>Node2</title>
<g id="a_node2"><a xlink:href="class_ordering_manager.html#a5a1b385caf1b32d3e9a6e02b91ff8442" target="_top" xlink:title=" ">
<polygon fill="white" stroke="black" points="178.5,-88 178.5,-107 325.5,-107 325.5,-88 178.5,-88"/>
<text text-anchor="middle" x="252" y="-95" font-family="Helvetica,sans-Serif" font-size="10.00">OrderingManager::getInstance</text>
</a>
</g>
</g>
<!-- Node1&#45;&gt;Node2 -->
<g id="edge1" class="edge">
<title>Node1&#45;&gt;Node2</title>
<path fill="none" stroke="midnightblue" d="M114.93,-69.09C139.38,-74.19 169.63,-80.51 195.4,-85.89"/>
<polygon fill="midnightblue" stroke="midnightblue" points="194.9,-89.36 205.4,-87.98 196.33,-82.51 194.9,-89.36"/>
</g>
<!-- Node3 -->
<g id="node3" class="node">
<title>Node3</title>
<g id="a_node3"><a xlink:href="namespaceiota.html#ade7c7d7c242afbe52d14b38a9e0dc44a" target="_top" xlink:title=" ">
<polygon fill="white" stroke="black" points="181.5,-50 181.5,-69 322.5,-69 322.5,-50 181.5,-50"/>
<text text-anchor="middle" x="252" y="-57" font-family="Helvetica,sans-Serif" font-size="10.00">iota::getMessageMilestoneId</text>
</a>
</g>
</g>
<!-- Node1&#45;&gt;Node3 -->
<g id="edge2" class="edge">
<title>Node1&#45;&gt;Node3</title>
<path fill="none" stroke="midnightblue" d="M136.25,-59.5C147.61,-59.5 159.5,-59.5 171.14,-59.5"/>
<polygon fill="midnightblue" stroke="midnightblue" points="171.28,-63 181.28,-59.5 171.28,-56 171.28,-63"/>
</g>
<!-- Node5 -->
<g id="node5" class="node">
<title>Node5</title>
<g id="a_node5"><a xlink:href="class_ordering_manager.html#a126675ba3626e86bff93f0f682e3d98a" target="_top" xlink:title=" ">
<polygon fill="white" stroke="black" points="172,-0.5 172,-30.5 332,-30.5 332,-0.5 172,-0.5"/>
<text text-anchor="start" x="180" y="-18.5" font-family="Helvetica,sans-Serif" font-size="10.00">OrderingManager::pushMilestone</text>
<text text-anchor="middle" x="252" y="-7.5" font-family="Helvetica,sans-Serif" font-size="10.00">TaskObserver</text>
</a>
</g>
</g>
<!-- Node1&#45;&gt;Node5 -->
<g id="edge4" class="edge">
<title>Node1&#45;&gt;Node5</title>
<path fill="none" stroke="midnightblue" d="M108.49,-49.95C129.07,-44.98 154.9,-38.73 178.89,-32.93"/>
<polygon fill="midnightblue" stroke="midnightblue" points="179.79,-36.32 188.68,-30.57 178.14,-29.51 179.79,-36.32"/>
</g>
<!-- Node4 -->
<g id="node4" class="node">
<title>Node4</title>
<g id="a_node4"><a xlink:href="classiota_1_1_message_id.html#a3578b169953e1ba9359f017601c8516f" target="_top" xlink:title=" ">
<polygon fill="white" stroke="black" points="368,-50 368,-69 485,-69 485,-50 368,-50"/>
<text text-anchor="middle" x="426.5" y="-57" font-family="Helvetica,sans-Serif" font-size="10.00">iota::MessageId::toHex</text>
</a>
</g>
</g>
<!-- Node3&#45;&gt;Node4 -->
<g id="edge3" class="edge">
<title>Node3&#45;&gt;Node4</title>
<path fill="none" stroke="midnightblue" d="M322.67,-59.5C334.12,-59.5 345.98,-59.5 357.4,-59.5"/>
<polygon fill="midnightblue" stroke="midnightblue" points="357.73,-63 367.73,-59.5 357.73,-56 357.73,-63"/>
</g>
</g>
</svg>
