<?xml version="1.0" encoding="UTF-8" standalone="no"?>
<!DOCTYPE svg PUBLIC "-//W3C//DTD SVG 1.1//EN"
 "http://www.w3.org/Graphics/SVG/1.1/DTD/svg11.dtd">
<!-- Generated by graphviz version 2.50.0 (20211204.2007)
 -->
<!-- Title: JsonRPCHandler Pages: 1 -->
<svg width="193pt" height="408pt"
 viewBox="0.00 0.00 193.00 408.00" xmlns="http://www.w3.org/2000/svg" xmlns:xlink="http://www.w3.org/1999/xlink">
<g id="graph0" class="graph" transform="scale(1 1) rotate(0) translate(4 404)">
<title>JsonRPCHandler</title>
<polygon fill="white" stroke="transparent" points="-4,4 -4,-404 189,-404 189,4 -4,4"/>
<!-- Node1 -->
<g id="node1" class="node">
<title>Node1</title>
<g id="a_node1"><a xlink:title=" ">
<polygon fill="#bfbfbf" stroke="black" points="42.5,-0.5 42.5,-79.5 142.5,-79.5 142.5,-0.5 42.5,-0.5"/>
<text text-anchor="middle" x="92.5" y="-67.5" font-family="Helvetica,sans-Serif" font-size="10.00">JsonRPCHandler</text>
<polyline fill="none" stroke="black" points="42.5,-60.5 142.5,-60.5 "/>
<text text-anchor="middle" x="92.5" y="-48.5" font-family="Helvetica,sans-Serif" font-size="10.00"> </text>
<polyline fill="none" stroke="black" points="42.5,-41.5 142.5,-41.5 "/>
<text text-anchor="start" x="50.5" y="-29.5" font-family="Helvetica,sans-Serif" font-size="10.00">+ handle()</text>
<text text-anchor="start" x="50.5" y="-18.5" font-family="Helvetica,sans-Serif" font-size="10.00"># putTransaction()</text>
<text text-anchor="start" x="50.5" y="-7.5" font-family="Helvetica,sans-Serif" font-size="10.00"># getTransactions()</text>
</a>
</g>
</g>
<!-- Node2 -->
<g id="node2" class="node">
<title>Node2</title>
<g id="a_node2"><a xlink:href="class_json_request_handler.html" target="_top" xlink:title=" ">
<polygon fill="white" stroke="black" points="0,-116.5 0,-305.5 185,-305.5 185,-116.5 0,-116.5"/>
<text text-anchor="middle" x="92.5" y="-293.5" font-family="Helvetica,sans-Serif" font-size="10.00">JsonRequestHandler</text>
<polyline fill="none" stroke="black" points="0,-286.5 185,-286.5 "/>
<text text-anchor="start" x="8" y="-274.5" font-family="Helvetica,sans-Serif" font-size="10.00"># mResponseJson</text>
<text text-anchor="start" x="8" y="-263.5" font-family="Helvetica,sans-Serif" font-size="10.00"># mResponseResult</text>
<polyline fill="none" stroke="black" points="0,-256.5 185,-256.5 "/>
<text text-anchor="start" x="8" y="-244.5" font-family="Helvetica,sans-Serif" font-size="10.00">+ JsonRequestHandler()</text>
<text text-anchor="start" x="8" y="-233.5" font-family="Helvetica,sans-Serif" font-size="10.00">+ handleRequest()</text>
<text text-anchor="start" x="8" y="-222.5" font-family="Helvetica,sans-Serif" font-size="10.00">+ handle()</text>
<text text-anchor="start" x="8" y="-211.5" font-family="Helvetica,sans-Serif" font-size="10.00">+ parseJsonWithErrorPrintFile()</text>
<text text-anchor="start" x="8" y="-200.5" font-family="Helvetica,sans-Serif" font-size="10.00">+ getIntParameter()</text>
<text text-anchor="start" x="8" y="-189.5" font-family="Helvetica,sans-Serif" font-size="10.00">+ getUIntParameter()</text>
<text text-anchor="start" x="8" y="-178.5" font-family="Helvetica,sans-Serif" font-size="10.00">+ getBoolParameter()</text>
<text text-anchor="start" x="8" y="-167.5" font-family="Helvetica,sans-Serif" font-size="10.00">+ getUInt64Parameter()</text>
<text text-anchor="start" x="8" y="-156.5" font-family="Helvetica,sans-Serif" font-size="10.00">+ getStringParameter()</text>
<text text-anchor="start" x="8" y="-145.5" font-family="Helvetica,sans-Serif" font-size="10.00">+ getStringIntParameter()</text>
<text text-anchor="start" x="8" y="-134.5" font-family="Helvetica,sans-Serif" font-size="10.00">and 8 more...</text>
<text text-anchor="start" x="8" y="-123.5" font-family="Helvetica,sans-Serif" font-size="10.00">+ parseQueryParametersToRapidjson()</text>
</a>
</g>
</g>
<!-- Node2&#45;&gt;Node1 -->
<g id="edge1" class="edge">
<title>Node2&#45;&gt;Node1</title>
<path fill="none" stroke="midnightblue" d="M92.5,-106.02C92.5,-96.82 92.5,-87.95 92.5,-79.87"/>
<polygon fill="none" stroke="midnightblue" points="89,-106.11 92.5,-116.11 96,-106.11 89,-106.11"/>
</g>
<!-- Node3 -->
<g id="node3" class="node">
<title>Node3</title>
<g id="a_node3"><a xlink:title=" ">
<polygon fill="white" stroke="black" points="13,-342.5 13,-399.5 172,-399.5 172,-342.5 13,-342.5"/>
<text text-anchor="middle" x="92.5" y="-387.5" font-family="Helvetica,sans-Serif" font-size="10.00">Poco::Net::HTTPRequestHandler</text>
<polyline fill="none" stroke="black" points="13,-380.5 172,-380.5 "/>
<text text-anchor="middle" x="92.5" y="-368.5" font-family="Helvetica,sans-Serif" font-size="10.00"> </text>
<polyline fill="none" stroke="black" points="13,-361.5 172,-361.5 "/>
<text text-anchor="middle" x="92.5" y="-349.5" font-family="Helvetica,sans-Serif" font-size="10.00"> </text>
</a>
</g>
</g>
<!-- Node3&#45;&gt;Node2 -->
<g id="edge2" class="edge">
<title>Node3&#45;&gt;Node2</title>
<path fill="none" stroke="midnightblue" d="M92.5,-332.22C92.5,-324.01 92.5,-314.99 92.5,-305.68"/>
<polygon fill="none" stroke="midnightblue" points="89,-332.48 92.5,-342.48 96,-332.48 89,-332.48"/>
</g>
</g>
</svg>
