<?xml version="1.0" encoding="UTF-8" standalone="no"?>
<!DOCTYPE svg PUBLIC "-//W3C//DTD SVG 1.1//EN"
 "http://www.w3.org/Graphics/SVG/1.1/DTD/svg11.dtd">
<!-- Generated by graphviz version 2.50.0 (20211204.2007)
 -->
<!-- Title: JsonRequestHandler::stateError Pages: 1 -->
<svg width="476pt" height="586pt"
 viewBox="0.00 0.00 476.00 585.50" xmlns="http://www.w3.org/2000/svg" xmlns:xlink="http://www.w3.org/1999/xlink">
<g id="graph0" class="graph" transform="scale(1 1) rotate(0) translate(4 581.5)">
<title>JsonRequestHandler::stateError</title>
<polygon fill="white" stroke="transparent" points="-4,4 -4,-581.5 472,-581.5 472,4 -4,4"/>
<!-- Node1 -->
<g id="node1" class="node">
<title>Node1</title>
<g id="a_node1"><a xlink:title=" ">
<polygon fill="#bfbfbf" stroke="black" points="362,-263 362,-293 468,-293 468,-263 362,-263"/>
<text text-anchor="start" x="370" y="-281" font-family="Helvetica,sans-Serif" font-size="10.00">JsonRequestHandler</text>
<text text-anchor="middle" x="415" y="-270" font-family="Helvetica,sans-Serif" font-size="10.00">::stateError</text>
</a>
</g>
</g>
<!-- Node2 -->
<g id="node2" class="node">
<title>Node2</title>
<g id="a_node2"><a xlink:href="class_json_request_handler.html#a556494e5ca265bff4839905d19309be0" target="_top" xlink:title=" ">
<polygon fill="white" stroke="black" points="185,-547 185,-577 302,-577 302,-547 185,-547"/>
<text text-anchor="start" x="193" y="-565" font-family="Helvetica,sans-Serif" font-size="10.00">JsonRequestHandler</text>
<text text-anchor="middle" x="243.5" y="-554" font-family="Helvetica,sans-Serif" font-size="10.00">::checkArrayParameter</text>
</a>
</g>
</g>
<!-- Node1&#45;&gt;Node2 -->
<g id="edge1" class="edge">
<title>Node1&#45;&gt;Node2</title>
<path fill="none" stroke="midnightblue" d="M412.87,-303.4C409.17,-355.13 393.39,-473.25 326,-538 319.3,-544.44 310.96,-549.16 302.2,-552.62"/>
<polygon fill="midnightblue" stroke="midnightblue" points="416.38,-303.33 413.5,-293.13 409.39,-302.9 416.38,-303.33"/>
</g>
<!-- Node3 -->
<g id="node3" class="node">
<title>Node3</title>
<g id="a_node3"><a xlink:href="class_json_request_handler.html#a1a5c97b4d44a7104a6194e7b5101cba2" target="_top" xlink:title=" ">
<polygon fill="white" stroke="black" points="165.5,-498 165.5,-528 321.5,-528 321.5,-498 165.5,-498"/>
<text text-anchor="start" x="173.5" y="-516" font-family="Helvetica,sans-Serif" font-size="10.00">JsonRequestHandler</text>
<text text-anchor="middle" x="243.5" y="-505" font-family="Helvetica,sans-Serif" font-size="10.00">::checkObjectOrArrayParameter</text>
</a>
</g>
</g>
<!-- Node1&#45;&gt;Node3 -->
<g id="edge2" class="edge">
<title>Node1&#45;&gt;Node3</title>
<path fill="none" stroke="midnightblue" d="M409.86,-303.06C401.54,-345.76 378.85,-432.87 326,-483 319.55,-489.12 311.74,-494.02 303.54,-497.92"/>
<polygon fill="midnightblue" stroke="midnightblue" points="413.31,-303.68 411.68,-293.21 406.42,-302.41 413.31,-303.68"/>
</g>
<!-- Node4 -->
<g id="node4" class="node">
<title>Node4</title>
<g id="a_node4"><a xlink:href="class_json_request_handler.html#af07b8ccf8e91b99684a2c1c922ec08b2" target="_top" xlink:title=" ">
<polygon fill="white" stroke="black" points="9.5,-383 9.5,-413 115.5,-413 115.5,-383 9.5,-383"/>
<text text-anchor="start" x="17.5" y="-401" font-family="Helvetica,sans-Serif" font-size="10.00">JsonRequestHandler</text>
<text text-anchor="middle" x="62.5" y="-390" font-family="Helvetica,sans-Serif" font-size="10.00">::handleRequest</text>
</a>
</g>
</g>
<!-- Node1&#45;&gt;Node4 -->
<g id="edge18" class="edge">
<title>Node1&#45;&gt;Node4</title>
<path fill="none" stroke="midnightblue" d="M409.67,-302.86C401.33,-342.19 378.95,-417.62 326,-450 263.44,-488.26 232.14,-467.79 161,-450 132.52,-442.88 103.26,-425.7 84.32,-413.02"/>
<polygon fill="midnightblue" stroke="midnightblue" points="413.11,-303.5 411.62,-293.01 406.24,-302.14 413.11,-303.5"/>
</g>
<!-- Node5 -->
<g id="node5" class="node">
<title>Node5</title>
<g id="a_node5"><a xlink:href="class_json_request_handler.html#a0519f9fb0c450affa15ec6da88cdc163" target="_top" xlink:title=" ">
<polygon fill="white" stroke="black" points="182.5,-410 182.5,-440 304.5,-440 304.5,-410 182.5,-410"/>
<text text-anchor="start" x="190.5" y="-428" font-family="Helvetica,sans-Serif" font-size="10.00">JsonRequestHandler</text>
<text text-anchor="middle" x="243.5" y="-417" font-family="Helvetica,sans-Serif" font-size="10.00">::checkObjectParameter</text>
</a>
</g>
</g>
<!-- Node1&#45;&gt;Node5 -->
<g id="edge4" class="edge">
<title>Node1&#45;&gt;Node5</title>
<path fill="none" stroke="midnightblue" d="M402.74,-302.46C388.67,-330.36 361.99,-375.41 326,-401 319.51,-405.62 312.13,-409.35 304.53,-412.37"/>
<polygon fill="midnightblue" stroke="midnightblue" points="405.94,-303.89 407.19,-293.37 399.65,-300.82 405.94,-303.89"/>
</g>
<!-- Node6 -->
<g id="node6" class="node">
<title>Node6</title>
<g id="a_node6"><a xlink:href="class_json_request_handler.html#af83af13d09e8426444aa952a269aa87f" target="_top" xlink:title=" ">
<polygon fill="white" stroke="black" points="190.5,-361 190.5,-391 296.5,-391 296.5,-361 190.5,-361"/>
<text text-anchor="start" x="198.5" y="-379" font-family="Helvetica,sans-Serif" font-size="10.00">JsonRequestHandler</text>
<text text-anchor="middle" x="243.5" y="-368" font-family="Helvetica,sans-Serif" font-size="10.00">::getBoolParameter</text>
</a>
</g>
</g>
<!-- Node1&#45;&gt;Node6 -->
<g id="edge5" class="edge">
<title>Node1&#45;&gt;Node6</title>
<path fill="none" stroke="midnightblue" d="M392.73,-300.31C375.99,-316.7 351.32,-338.41 326,-352 316.9,-356.88 306.69,-360.89 296.65,-364.14"/>
<polygon fill="midnightblue" stroke="midnightblue" points="395.25,-302.74 399.84,-293.19 390.3,-297.79 395.25,-302.74"/>
</g>
<!-- Node7 -->
<g id="node7" class="node">
<title>Node7</title>
<g id="a_node7"><a xlink:href="class_json_request_handler.html#ab0f3bdeef2d57f957ce44faf86ff77d7" target="_top" xlink:title=" ">
<polygon fill="white" stroke="black" points="190.5,-312 190.5,-342 296.5,-342 296.5,-312 190.5,-312"/>
<text text-anchor="start" x="198.5" y="-330" font-family="Helvetica,sans-Serif" font-size="10.00">JsonRequestHandler</text>
<text text-anchor="middle" x="243.5" y="-319" font-family="Helvetica,sans-Serif" font-size="10.00">::getIntParameter</text>
</a>
</g>
</g>
<!-- Node1&#45;&gt;Node7 -->
<g id="edge6" class="edge">
<title>Node1&#45;&gt;Node7</title>
<path fill="none" stroke="midnightblue" d="M352.1,-295.89C333.87,-301.16 314.11,-306.88 296.57,-311.95"/>
<polygon fill="midnightblue" stroke="midnightblue" points="353.13,-299.24 361.76,-293.1 351.18,-292.52 353.13,-299.24"/>
</g>
<!-- Node8 -->
<g id="node8" class="node">
<title>Node8</title>
<g id="a_node8"><a xlink:href="class_json_request_handler.html#a02943cd2392c7345043d328888a3c1ce" target="_top" xlink:title=" ">
<polygon fill="white" stroke="black" points="185,-263 185,-293 302,-293 302,-263 185,-263"/>
<text text-anchor="start" x="193" y="-281" font-family="Helvetica,sans-Serif" font-size="10.00">JsonRequestHandler</text>
<text text-anchor="middle" x="243.5" y="-270" font-family="Helvetica,sans-Serif" font-size="10.00">::getStringIntParameter</text>
</a>
</g>
</g>
<!-- Node1&#45;&gt;Node8 -->
<g id="edge8" class="edge">
<title>Node1&#45;&gt;Node8</title>
<path fill="none" stroke="midnightblue" d="M351.37,-278C335.27,-278 318.02,-278 302.18,-278"/>
<polygon fill="midnightblue" stroke="midnightblue" points="351.76,-281.5 361.76,-278 351.76,-274.5 351.76,-281.5"/>
</g>
<!-- Node9 -->
<g id="node9" class="node">
<title>Node9</title>
<g id="a_node9"><a xlink:href="class_json_request_handler.html#aa3b049483a68b2f02dfa3c0ad092a5c5" target="_top" xlink:title=" ">
<polygon fill="white" stroke="black" points="190,-214 190,-244 297,-244 297,-214 190,-214"/>
<text text-anchor="start" x="198" y="-232" font-family="Helvetica,sans-Serif" font-size="10.00">JsonRequestHandler</text>
<text text-anchor="middle" x="243.5" y="-221" font-family="Helvetica,sans-Serif" font-size="10.00">::getStringParameter</text>
</a>
</g>
</g>
<!-- Node1&#45;&gt;Node9 -->
<g id="edge9" class="edge">
<title>Node1&#45;&gt;Node9</title>
<path fill="none" stroke="midnightblue" d="M352.1,-260.11C333.87,-254.84 314.11,-249.12 296.57,-244.05"/>
<polygon fill="midnightblue" stroke="midnightblue" points="351.18,-263.48 361.76,-262.9 353.13,-256.76 351.18,-263.48"/>
</g>
<!-- Node10 -->
<g id="node10" class="node">
<title>Node10</title>
<g id="a_node10"><a xlink:href="class_json_r_p_c_handler.html#a4ff8c43e6411cabcd25f2e1978f43e49" target="_top" xlink:title=" ">
<polygon fill="white" stroke="black" points="0,-137.5 0,-156.5 125,-156.5 125,-137.5 0,-137.5"/>
<text text-anchor="middle" x="62.5" y="-144.5" font-family="Helvetica,sans-Serif" font-size="10.00">JsonRPCHandler::handle</text>
</a>
</g>
</g>
<!-- Node1&#45;&gt;Node10 -->
<g id="edge17" class="edge">
<title>Node1&#45;&gt;Node10</title>
<path fill="none" stroke="midnightblue" d="M393.23,-255.8C376.59,-239.33 351.82,-217.63 326,-205 306.98,-195.69 182.98,-170.43 112.42,-156.51"/>
<polygon fill="midnightblue" stroke="midnightblue" points="390.77,-258.29 400.28,-262.95 395.75,-253.37 390.77,-258.29"/>
</g>
<!-- Node11 -->
<g id="node11" class="node">
<title>Node11</title>
<g id="a_node11"><a xlink:href="class_json_r_p_c_handler.html#a8f9e1cccf1262bc177baf477cf59d90b" target="_top" xlink:title=" ">
<polygon fill="white" stroke="black" points="161,-137.5 161,-156.5 326,-156.5 326,-137.5 161,-137.5"/>
<text text-anchor="middle" x="243.5" y="-144.5" font-family="Helvetica,sans-Serif" font-size="10.00">JsonRPCHandler::getTransactions</text>
</a>
</g>
</g>
<!-- Node1&#45;&gt;Node11 -->
<g id="edge12" class="edge">
<title>Node1&#45;&gt;Node11</title>
<path fill="none" stroke="midnightblue" d="M400.34,-254.13C385.19,-229.76 358.55,-192.53 326,-171 316.53,-164.73 305.38,-160.07 294.42,-156.6"/>
<polygon fill="midnightblue" stroke="midnightblue" points="397.4,-256.04 405.57,-262.78 403.39,-252.42 397.4,-256.04"/>
</g>
<!-- Node12 -->
<g id="node12" class="node">
<title>Node12</title>
<g id="a_node12"><a xlink:href="class_json_request_handler.html#a79e72cb1c25aa9c7c174bd036d0946e3" target="_top" xlink:title=" ">
<polygon fill="white" stroke="black" points="189,-88 189,-118 298,-118 298,-88 189,-88"/>
<text text-anchor="start" x="197" y="-106" font-family="Helvetica,sans-Serif" font-size="10.00">JsonRequestHandler</text>
<text text-anchor="middle" x="243.5" y="-95" font-family="Helvetica,sans-Serif" font-size="10.00">::getUInt64Parameter</text>
</a>
</g>
</g>
<!-- Node1&#45;&gt;Node12 -->
<g id="edge14" class="edge">
<title>Node1&#45;&gt;Node12</title>
<path fill="none" stroke="midnightblue" d="M405.95,-253.27C393.86,-219.97 367.86,-161.09 326,-128 317.87,-121.58 308.1,-116.79 298.18,-113.24"/>
<polygon fill="midnightblue" stroke="midnightblue" points="402.65,-254.44 409.26,-262.73 409.26,-252.13 402.65,-254.44"/>
</g>
<!-- Node13 -->
<g id="node13" class="node">
<title>Node13</title>
<g id="a_node13"><a xlink:href="class_json_request_handler.html#a759436811e67095015c0f3bcaf4b43bd" target="_top" xlink:title=" ">
<polygon fill="white" stroke="black" points="190.5,-39 190.5,-69 296.5,-69 296.5,-39 190.5,-39"/>
<text text-anchor="start" x="198.5" y="-57" font-family="Helvetica,sans-Serif" font-size="10.00">JsonRequestHandler</text>
<text text-anchor="middle" x="243.5" y="-46" font-family="Helvetica,sans-Serif" font-size="10.00">::getUIntParameter</text>
</a>
</g>
</g>
<!-- Node1&#45;&gt;Node13 -->
<g id="edge16" class="edge">
<title>Node1&#45;&gt;Node13</title>
<path fill="none" stroke="midnightblue" d="M409.81,-252.78C401.48,-210.65 378.88,-125.95 326,-79 317.7,-71.63 307.27,-66.43 296.66,-62.77"/>
<polygon fill="midnightblue" stroke="midnightblue" points="406.4,-253.57 411.67,-262.76 413.28,-252.29 406.4,-253.57"/>
</g>
<!-- Node14 -->
<g id="node14" class="node">
<title>Node14</title>
<g id="a_node14"><a xlink:href="class_json_r_p_c_handler.html#a3e8fb04eef868d1e57b2de4e5be73c13" target="_top" xlink:title=" ">
<polygon fill="white" stroke="black" points="163.5,-0.5 163.5,-19.5 323.5,-19.5 323.5,-0.5 163.5,-0.5"/>
<text text-anchor="middle" x="243.5" y="-7.5" font-family="Helvetica,sans-Serif" font-size="10.00">JsonRPCHandler::putTransaction</text>
</a>
</g>
</g>
<!-- Node1&#45;&gt;Node14 -->
<g id="edge19" class="edge">
<title>Node1&#45;&gt;Node14</title>
<path fill="none" stroke="midnightblue" d="M412.78,-252.98C408.91,-202.64 392.84,-88.82 326,-29 321.78,-25.22 316.95,-22.15 311.8,-19.67"/>
<polygon fill="midnightblue" stroke="midnightblue" points="409.29,-253.25 413.45,-262.99 416.27,-252.78 409.29,-253.25"/>
</g>
<!-- Node3&#45;&gt;Node4 -->
<g id="edge3" class="edge">
<title>Node3&#45;&gt;Node4</title>
<path fill="none" stroke="midnightblue" d="M183.14,-494.07C175.49,-490.79 167.92,-487.1 161,-483 127.77,-463.31 95.18,-431.71 77.37,-413.09"/>
<polygon fill="midnightblue" stroke="midnightblue" points="181.89,-497.34 192.48,-497.86 184.53,-490.85 181.89,-497.34"/>
</g>
<!-- Node7&#45;&gt;Node4 -->
<g id="edge7" class="edge">
<title>Node7&#45;&gt;Node4</title>
<path fill="none" stroke="midnightblue" d="M180.63,-344.95C173.96,-347.19 167.31,-349.56 161,-352 137.44,-361.12 111.61,-373.41 92.46,-383"/>
<polygon fill="midnightblue" stroke="midnightblue" points="181.96,-348.2 190.38,-341.77 179.79,-341.55 181.96,-348.2"/>
</g>
<!-- Node9&#45;&gt;Node4 -->
<g id="edge11" class="edge">
<title>Node9&#45;&gt;Node4</title>
<path fill="none" stroke="midnightblue" d="M180.46,-243.06C173.55,-246.04 166.89,-249.64 161,-254 113.9,-288.82 82.19,-353.56 69.6,-382.88"/>
<polygon fill="midnightblue" stroke="midnightblue" points="181.93,-246.24 189.99,-239.36 179.4,-239.71 181.93,-246.24"/>
</g>
<!-- Node9&#45;&gt;Node10 -->
<g id="edge10" class="edge">
<title>Node9&#45;&gt;Node10</title>
<path fill="none" stroke="midnightblue" d="M188.52,-210.32C179.25,-206.77 169.78,-202.94 161,-199 131.59,-185.82 98.79,-167.54 79.72,-156.54"/>
<polygon fill="midnightblue" stroke="midnightblue" points="187.47,-213.66 198.07,-213.9 189.93,-207.11 187.47,-213.66"/>
</g>
<!-- Node11&#45;&gt;Node10 -->
<g id="edge13" class="edge">
<title>Node11&#45;&gt;Node10</title>
<path fill="none" stroke="midnightblue" d="M150.72,-147C142.08,-147 133.46,-147 125.2,-147"/>
<polygon fill="midnightblue" stroke="midnightblue" points="150.86,-150.5 160.86,-147 150.86,-143.5 150.86,-150.5"/>
</g>
<!-- Node12&#45;&gt;Node10 -->
<g id="edge15" class="edge">
<title>Node12&#45;&gt;Node10</title>
<path fill="none" stroke="midnightblue" d="M178.81,-118.65C153.29,-124.93 124.7,-131.96 102.38,-137.44"/>
<polygon fill="midnightblue" stroke="midnightblue" points="179.92,-121.99 188.79,-116.2 178.25,-115.19 179.92,-121.99"/>
</g>
<!-- Node14&#45;&gt;Node10 -->
<g id="edge20" class="edge">
<title>Node14&#45;&gt;Node10</title>
<path fill="none" stroke="midnightblue" d="M171.9,-23.29C168.11,-24.97 164.44,-26.87 161,-29 115.37,-57.27 81.04,-114.4 68.59,-137.24"/>
<polygon fill="midnightblue" stroke="midnightblue" points="173.49,-26.43 181.53,-19.53 170.94,-19.9 173.49,-26.43"/>
</g>
</g>
</svg>
