<?xml version="1.0" encoding="UTF-8" standalone="no"?>
<!DOCTYPE svg PUBLIC "-//W3C//DTD SVG 1.1//EN"
 "http://www.w3.org/Graphics/SVG/1.1/DTD/svg11.dtd">
<!-- Generated by graphviz version 2.50.0 (20211204.2007)
 -->
<!-- Title: model::files::State::setKeyValue Pages: 1 -->
<!--zoomable 230 -->
<svg id="main" version="1.1" xmlns="http://www.w3.org/2000/svg" xmlns:xlink="http://www.w3.org/1999/xlink" xml:space="preserve" onload="init(evt)">
<style type="text/css"><![CDATA[
.edge:hover path { stroke: red; }
.edge:hover polygon { stroke: red; fill: red; }
]]></style>
<script type="text/javascript"><![CDATA[
var edges = document.getElementsByTagName('g');
if (edges && edges.length) {
  for (var i=0;i<edges.length;i++) {
    if (edges[i].id.substr(0,4)=='edge') {
      edges[i].setAttribute('class','edge');
    }
  }
}
]]></script>
        <defs>
                <circle id="rim" cx="0" cy="0" r="7"/>
                <circle id="rim2" cx="0" cy="0" r="3.5"/>
                <g id="zoomPlus">
                        <use xlink:href="#rim" fill="#404040">
                                <set attributeName="fill" to="#808080" begin="zoomplus.mouseover" end="zoomplus.mouseout"/>
                        </use>
                        <path d="M-4,0h8M0,-4v8" fill="none" stroke="white" stroke-width="1.5" pointer-events="none"/>
                </g>
                <g id="zoomMin">
                        <use xlink:href="#rim" fill="#404040">
                                <set attributeName="fill" to="#808080" begin="zoomminus.mouseover" end="zoomminus.mouseout"/>
                        </use>
                        <path d="M-4,0h8" fill="none" stroke="white" stroke-width="1.5" pointer-events="none"/>
                </g>
                <g id="dirArrow">
                        <path fill="none" stroke="white" stroke-width="1.5" d="M0,-3.0v7 M-2.5,-0.5L0,-3.0L2.5,-0.5"/>
                </g>
               <g id="resetDef">
                       <use xlink:href="#rim2" fill="#404040">
                               <set attributeName="fill" to="#808080" begin="reset.mouseover" end="reset.mouseout"/>
                       </use>
               </g>
        </defs>

<script type="text/javascript">
var viewWidth = 558;
var viewHeight = 230;
var sectionId = 'dynsection-7';
</script>
<script xlink:href="svgpan.js"/>
<svg id="graph" class="graph">
<g id="viewport">
<title>model::files::State::setKeyValue</title>
<polygon fill="white" stroke="transparent" points="-4,4 -4,-226 554,-226 554,4 -4,4"/>
<!-- Node1 -->
<g id="node1" class="node">
<title>Node1</title>
<g id="a_node1"><a xlink:title=" ">
<polygon fill="#bfbfbf" stroke="black" points="455,-98.5 455,-128.5 550,-128.5 550,-98.5 455,-98.5"/>
<text text-anchor="start" x="463" y="-116.5" font-family="Helvetica,sans-Serif" font-size="10.00">model::files::State</text>
<text text-anchor="middle" x="502.5" y="-105.5" font-family="Helvetica,sans-Serif" font-size="10.00">::setKeyValue</text>
</a>
</g>
</g>
<!-- Node2 -->
<g id="node2" class="node">
<title>Node2</title>
<g id="a_node2"><a xlink:href="classcontroller_1_1_group.html#a0a2547c0b67e7a5b274595b132fb2fd8" target="_top" xlink:title=" ">
<polygon fill="white" stroke="black" points="131,-191.5 131,-221.5 255,-221.5 255,-191.5 131,-191.5"/>
<text text-anchor="start" x="139" y="-209.5" font-family="Helvetica,sans-Serif" font-size="10.00">controller::Group::</text>
<text text-anchor="middle" x="193" y="-198.5" font-family="Helvetica,sans-Serif" font-size="10.00">updateLastAddressIndex</text>
</a>
</g>
</g>
<!-- Node1&#45;&gt;Node2 -->
<g id="edge1" class="edge">
<title>Node1&#45;&gt;Node2</title>
<path fill="none" stroke="midnightblue" d="M483.21,-136.54C468.03,-153.83 444.81,-176.35 419,-187.5 367,-209.96 302.01,-213.12 255.27,-211.61"/>
<polygon fill="midnightblue" stroke="midnightblue" points="486.19,-138.44 489.99,-128.55 480.85,-133.91 486.19,-138.44"/>
</g>
<!-- Node4 -->
<g id="node4" class="node">
<title>Node4</title>
<g id="a_node4"><a xlink:href="classcontroller_1_1_group.html#a9c5730fd4a775de7001947369ef2d9c8" target="_top" xlink:title=" ">
<polygon fill="white" stroke="black" points="305.5,-147.5 305.5,-177.5 404.5,-177.5 404.5,-147.5 305.5,-147.5"/>
<text text-anchor="start" x="313.5" y="-165.5" font-family="Helvetica,sans-Serif" font-size="10.00">controller::Group::</text>
<text text-anchor="middle" x="355" y="-154.5" font-family="Helvetica,sans-Serif" font-size="10.00">updateLastBlockNr</text>
</a>
</g>
</g>
<!-- Node1&#45;&gt;Node4 -->
<g id="edge3" class="edge">
<title>Node1&#45;&gt;Node4</title>
<path fill="none" stroke="midnightblue" d="M446.85,-131.91C431.62,-137.03 415.27,-142.54 400.69,-147.45"/>
<polygon fill="midnightblue" stroke="midnightblue" points="448.3,-135.11 456.66,-128.6 446.06,-128.48 448.3,-135.11"/>
</g>
<!-- Node6 -->
<g id="node6" class="node">
<title>Node6</title>
<g id="a_node6"><a xlink:href="class_global_state_manager.html#a985d520aad76b4346eeb03215d6defcc" target="_top" xlink:title=" ">
<polygon fill="white" stroke="black" points="291,-98.5 291,-128.5 419,-128.5 419,-98.5 291,-98.5"/>
<text text-anchor="start" x="299" y="-116.5" font-family="Helvetica,sans-Serif" font-size="10.00">GlobalStateManager</text>
<text text-anchor="middle" x="355" y="-105.5" font-family="Helvetica,sans-Serif" font-size="10.00">::updateLastIotaMilestone</text>
</a>
</g>
</g>
<!-- Node1&#45;&gt;Node6 -->
<g id="edge6" class="edge">
<title>Node1&#45;&gt;Node6</title>
<path fill="none" stroke="midnightblue" d="M444.66,-113.5C436.31,-113.5 427.66,-113.5 419.2,-113.5"/>
<polygon fill="midnightblue" stroke="midnightblue" points="444.66,-117 454.66,-113.5 444.66,-110 444.66,-117"/>
</g>
<!-- Node7 -->
<g id="node7" class="node">
<title>Node7</title>
<g id="a_node7"><a xlink:href="classcontroller_1_1_group.html#a8450d18527db451b8ab35ac9c3d0b8f7" target="_top" xlink:title=" ">
<polygon fill="white" stroke="black" points="294,-49.5 294,-79.5 416,-79.5 416,-49.5 294,-49.5"/>
<text text-anchor="start" x="302" y="-67.5" font-family="Helvetica,sans-Serif" font-size="10.00">controller::Group::</text>
<text text-anchor="middle" x="355" y="-56.5" font-family="Helvetica,sans-Serif" font-size="10.00">updateLastTransactionId</text>
</a>
</g>
</g>
<!-- Node1&#45;&gt;Node7 -->
<g id="edge7" class="edge">
<title>Node1&#45;&gt;Node7</title>
<path fill="none" stroke="midnightblue" d="M446.85,-95.09C431.62,-89.97 415.27,-84.46 400.69,-79.55"/>
<polygon fill="midnightblue" stroke="midnightblue" points="446.06,-98.52 456.66,-98.4 448.3,-91.89 446.06,-98.52"/>
</g>
<!-- Node9 -->
<g id="node9" class="node">
<title>Node9</title>
<g id="a_node9"><a xlink:href="classcontroller_1_1_group.html#a581251a45c1233c9425de140ab5127fe" target="_top" xlink:title=" ">
<polygon fill="white" stroke="black" points="307.5,-0.5 307.5,-30.5 402.5,-30.5 402.5,-0.5 307.5,-0.5"/>
<text text-anchor="start" x="315.5" y="-18.5" font-family="Helvetica,sans-Serif" font-size="10.00">controller::Group::</text>
<text text-anchor="middle" x="355" y="-7.5" font-family="Helvetica,sans-Serif" font-size="10.00">~Group</text>
</a>
</g>
</g>
<!-- Node1&#45;&gt;Node9 -->
<g id="edge10" class="edge">
<title>Node1&#45;&gt;Node9</title>
<path fill="none" stroke="midnightblue" d="M480.8,-90.94C465.09,-74.88 442.29,-53.7 419,-39.5 413.6,-36.21 407.68,-33.24 401.69,-30.6"/>
<polygon fill="midnightblue" stroke="midnightblue" points="478.47,-93.56 487.91,-98.36 483.52,-88.72 478.47,-93.56"/>
</g>
<!-- Node3 -->
<g id="node3" class="node">
<title>Node3</title>
<g id="a_node3"><a xlink:href="classcontroller_1_1_group.html#a9d18405e4740fc3f2386e1ed68f3c94c" target="_top" xlink:title="add transaction from iota into blockchain, important! must be called in correct order">
<polygon fill="white" stroke="black" points="0,-142.5 0,-172.5 95,-172.5 95,-142.5 0,-142.5"/>
<text text-anchor="start" x="8" y="-160.5" font-family="Helvetica,sans-Serif" font-size="10.00">controller::Group::</text>
<text text-anchor="middle" x="47.5" y="-149.5" font-family="Helvetica,sans-Serif" font-size="10.00">addTransaction</text>
</a>
</g>
</g>
<!-- Node2&#45;&gt;Node3 -->
<g id="edge2" class="edge">
<title>Node2&#45;&gt;Node3</title>
<path fill="none" stroke="midnightblue" d="M138.14,-188.11C123.2,-183.01 107.16,-177.53 92.83,-172.64"/>
<polygon fill="midnightblue" stroke="midnightblue" points="137.18,-191.48 147.77,-191.4 139.44,-184.85 137.18,-191.48"/>
</g>
<!-- Node5 -->
<g id="node5" class="node">
<title>Node5</title>
<g id="a_node5"><a xlink:href="classcontroller_1_1_group.html#a4a20b0f19b33b91503ecc8132cff4da9" target="_top" xlink:title="get current block to write more transactions in it">
<polygon fill="white" stroke="black" points="145.5,-142.5 145.5,-172.5 240.5,-172.5 240.5,-142.5 145.5,-142.5"/>
<text text-anchor="start" x="153.5" y="-160.5" font-family="Helvetica,sans-Serif" font-size="10.00">controller::Group::</text>
<text text-anchor="middle" x="193" y="-149.5" font-family="Helvetica,sans-Serif" font-size="10.00">getCurrentBlock</text>
</a>
</g>
</g>
<!-- Node4&#45;&gt;Node5 -->
<g id="edge4" class="edge">
<title>Node4&#45;&gt;Node5</title>
<path fill="none" stroke="midnightblue" d="M295.06,-160.66C277.12,-160.1 257.67,-159.49 240.66,-158.96"/>
<polygon fill="midnightblue" stroke="midnightblue" points="295.02,-164.16 305.13,-160.97 295.24,-157.16 295.02,-164.16"/>
</g>
<!-- Node5&#45;&gt;Node3 -->
<g id="edge5" class="edge">
<title>Node5&#45;&gt;Node3</title>
<path fill="none" stroke="midnightblue" d="M135.04,-157.5C121.88,-157.5 108.02,-157.5 95.35,-157.5"/>
<polygon fill="midnightblue" stroke="midnightblue" points="135.41,-161 145.41,-157.5 135.41,-154 135.41,-161"/>
</g>
<!-- Node7&#45;&gt;Node3 -->
<g id="edge8" class="edge">
<title>Node7&#45;&gt;Node3</title>
<path fill="none" stroke="midnightblue" d="M294.78,-82.53C236.56,-100.25 148.87,-126.95 95.34,-143.24"/>
<polygon fill="midnightblue" stroke="midnightblue" points="296.03,-85.81 304.58,-79.55 293.99,-79.11 296.03,-85.81"/>
</g>
<!-- Node8 -->
<g id="node8" class="node">
<title>Node8</title>
<g id="a_node8"><a xlink:href="classcontroller_1_1_group.html#a99b11874c6ddc1e1496ec35e062aff72" target="_top" xlink:title="Load group states via model::files::GroupState.">
<polygon fill="white" stroke="black" points="145.5,-49.5 145.5,-79.5 240.5,-79.5 240.5,-49.5 145.5,-49.5"/>
<text text-anchor="start" x="153.5" y="-67.5" font-family="Helvetica,sans-Serif" font-size="10.00">controller::Group::</text>
<text text-anchor="middle" x="193" y="-56.5" font-family="Helvetica,sans-Serif" font-size="10.00">Group</text>
</a>
</g>
</g>
<!-- Node7&#45;&gt;Node8 -->
<g id="edge9" class="edge">
<title>Node7&#45;&gt;Node8</title>
<path fill="none" stroke="midnightblue" d="M283.92,-64.5C269.27,-64.5 254.16,-64.5 240.62,-64.5"/>
<polygon fill="midnightblue" stroke="midnightblue" points="283.97,-68 293.97,-64.5 283.97,-61 283.97,-68"/>
</g>
</g>
</svg>
        <g id="navigator" transform="translate(0 0)" fill="#404254">
                <rect fill="#f2f5e9" fill-opacity="0.5" stroke="#606060" stroke-width=".5" x="0" y="0" width="60" height="60"/>
                <use id="zoomplus" xlink:href="#zoomPlus" x="17" y="9" onmousedown="handleZoom(evt,'in')"/>
                <use id="zoomminus" xlink:href="#zoomMin" x="42" y="9" onmousedown="handleZoom(evt,'out')"/>
                <use id="reset" xlink:href="#resetDef" x="30" y="36" onmousedown="handleReset()"/>
                <g id="arrowUp" xlink:href="#dirArrow" transform="translate(30 24)" onmousedown="handlePan(0,-1)">
                  <use xlink:href="#rim" fill="#404040">
                        <set attributeName="fill" to="#808080" begin="arrowUp.mouseover" end="arrowUp.mouseout"/>
                  </use>
                  <path fill="none" stroke="white" stroke-width="1.5" d="M0,-3.0v7 M-2.5,-0.5L0,-3.0L2.5,-0.5"/>
                </g>
                <g id="arrowRight" xlink:href="#dirArrow" transform="rotate(90) translate(36 -43)" onmousedown="handlePan(1,0)">
                  <use xlink:href="#rim" fill="#404040">
                        <set attributeName="fill" to="#808080" begin="arrowRight.mouseover" end="arrowRight.mouseout"/>
                  </use>
                  <path fill="none" stroke="white" stroke-width="1.5" d="M0,-3.0v7 M-2.5,-0.5L0,-3.0L2.5,-0.5"/>
                </g>
                <g id="arrowDown" xlink:href="#dirArrow" transform="rotate(180) translate(-30 -48)" onmousedown="handlePan(0,1)">
                  <use xlink:href="#rim" fill="#404040">
                        <set attributeName="fill" to="#808080" begin="arrowDown.mouseover" end="arrowDown.mouseout"/>
                  </use>
                  <path fill="none" stroke="white" stroke-width="1.5" d="M0,-3.0v7 M-2.5,-0.5L0,-3.0L2.5,-0.5"/>
                </g>
                <g id="arrowLeft" xlink:href="#dirArrow" transform="rotate(270) translate(-36 17)" onmousedown="handlePan(-1,0)">
                  <use xlink:href="#rim" fill="#404040">
                        <set attributeName="fill" to="#808080" begin="arrowLeft.mouseover" end="arrowLeft.mouseout"/>
                  </use>
                  <path fill="none" stroke="white" stroke-width="1.5" d="M0,-3.0v7 M-2.5,-0.5L0,-3.0L2.5,-0.5"/>
                </g>
        </g>
        <svg viewBox="0 0 15 15" width="100%" height="30px" preserveAspectRatio="xMaxYMin meet">
         <g id="arrow_out" transform="scale(0.3 0.3)">
          <a xlink:href="classmodel_1_1files_1_1_state_a4d8631a2bf4fcc4dd95b563f9b204c02_icgraph_org.svg" target="_base">
           <rect id="button" ry="5" rx="5" y="6" x="6" height="38" width="38"
                fill="#f2f5e9" fill-opacity="0.5" stroke="#606060" stroke-width="1.0"/>
           <path id="arrow"
             d="M 11.500037,31.436501 C 11.940474,20.09759 22.043105,11.32322 32.158766,21.979434 L 37.068811,17.246167 C 37.068811,17.246167 37.088388,32 37.088388,32 L 22.160133,31.978069 C 22.160133,31.978069 26.997745,27.140456 26.997745,27.140456 C 18.528582,18.264221 13.291696,25.230495 11.500037,31.436501 z"
             style="fill:#404040;"/>
          </a>
         </g>
        </svg>
</svg>
