<?xml version="1.0" encoding="UTF-8" standalone="no"?>
<!DOCTYPE svg PUBLIC "-//W3C//DTD SVG 1.1//EN"
 "http://www.w3.org/Graphics/SVG/1.1/DTD/svg11.dtd">
<!-- Generated by graphviz version 2.50.0 (20211204.2007)
 -->
<!-- Title: GroupManager::init Pages: 1 -->
<svg width="429pt" height="159pt"
 viewBox="0.00 0.00 429.00 159.00" xmlns="http://www.w3.org/2000/svg" xmlns:xlink="http://www.w3.org/1999/xlink">
<g id="graph0" class="graph" transform="scale(1 1) rotate(0) translate(4 155)">
<title>GroupManager::init</title>
<polygon fill="white" stroke="transparent" points="-4,4 -4,-155 425,-155 425,4 -4,4"/>
<!-- Node1 -->
<g id="node1" class="node">
<title>Node1</title>
<g id="a_node1"><a xlink:title="load group index file and fill hash list with group public key = folder name pairs">
<polygon fill="#bfbfbf" stroke="black" points="0,-82 0,-101 99,-101 99,-82 0,-82"/>
<text text-anchor="middle" x="49.5" y="-89" font-family="Helvetica,sans-Serif" font-size="10.00">GroupManager::init</text>
</a>
</g>
</g>
<!-- Node2 -->
<g id="node2" class="node">
<title>Node2</title>
<g id="a_node2"><a xlink:href="class_group_manager.html#ac42a491ca23c0fec6a46f5cf9bee8a99" target="_top" xlink:title="getting group object from Poco::AccessExpireCache or create if not in cache and put in cache">
<polygon fill="white" stroke="black" points="135,-126 135,-145 263,-145 263,-126 135,-126"/>
<text text-anchor="middle" x="199" y="-133" font-family="Helvetica,sans-Serif" font-size="10.00">GroupManager::findGroup</text>
</a>
</g>
</g>
<!-- Node1&#45;&gt;Node2 -->
<g id="edge1" class="edge">
<title>Node1&#45;&gt;Node2</title>
<path fill="none" stroke="midnightblue" d="M82.51,-101.05C104.15,-107.51 132.96,-116.1 156.38,-123.09"/>
<polygon fill="midnightblue" stroke="midnightblue" points="155.47,-126.47 166.06,-125.97 157.47,-119.76 155.47,-126.47"/>
</g>
<!-- Node4 -->
<g id="node4" class="node">
<title>Node4</title>
<g id="a_node4"><a xlink:href="classcontroller_1_1_group_index.html#a15cb9709b6cf4cc522b312b551ee02d1" target="_top" xlink:title="collect all froup aliases from unordered map (not the fastest operation from unordered map)">
<polygon fill="white" stroke="black" points="143,-76.5 143,-106.5 255,-106.5 255,-76.5 143,-76.5"/>
<text text-anchor="start" x="151" y="-94.5" font-family="Helvetica,sans-Serif" font-size="10.00">controller::GroupIndex</text>
<text text-anchor="middle" x="199" y="-83.5" font-family="Helvetica,sans-Serif" font-size="10.00">::listGroupAliases</text>
</a>
</g>
</g>
<!-- Node1&#45;&gt;Node4 -->
<g id="edge3" class="edge">
<title>Node1&#45;&gt;Node4</title>
<path fill="none" stroke="midnightblue" d="M99.21,-91.5C109.93,-91.5 121.47,-91.5 132.73,-91.5"/>
<polygon fill="midnightblue" stroke="midnightblue" points="132.97,-95 142.97,-91.5 132.97,-88 132.97,-95"/>
</g>
<!-- Node5 -->
<g id="node5" class="node">
<title>Node5</title>
<g id="a_node5"><a xlink:href="classcontroller_1_1_group_index.html#ad3221f7b287c384f9942c98ad131fd5e" target="_top" xlink:title="clear and refill hash list and doublet&#39;s vector from mModel protected with fast mutex">
<polygon fill="white" stroke="black" points="143,-27.5 143,-57.5 255,-57.5 255,-27.5 143,-27.5"/>
<text text-anchor="start" x="151" y="-45.5" font-family="Helvetica,sans-Serif" font-size="10.00">controller::GroupIndex</text>
<text text-anchor="middle" x="199" y="-34.5" font-family="Helvetica,sans-Serif" font-size="10.00">::update</text>
</a>
</g>
</g>
<!-- Node1&#45;&gt;Node5 -->
<g id="edge4" class="edge">
<title>Node1&#45;&gt;Node5</title>
<path fill="none" stroke="midnightblue" d="M79.29,-81.94C97.39,-75.92 121.34,-67.97 142.98,-60.78"/>
<polygon fill="midnightblue" stroke="midnightblue" points="144.35,-64.01 152.74,-57.54 142.14,-57.37 144.35,-64.01"/>
</g>
<!-- Node3 -->
<g id="node3" class="node">
<title>Node3</title>
<g id="a_node3"><a xlink:href="classcontroller_1_1_group_index.html#a1cdd2b99d1d916c582200cae9545dd2e" target="_top" xlink:title="get full folder path for group public key if the hash from groupPublicKey exist multiple time,...">
<polygon fill="white" stroke="black" points="304,-120.5 304,-150.5 416,-150.5 416,-120.5 304,-120.5"/>
<text text-anchor="start" x="312" y="-138.5" font-family="Helvetica,sans-Serif" font-size="10.00">controller::GroupIndex</text>
<text text-anchor="middle" x="360" y="-127.5" font-family="Helvetica,sans-Serif" font-size="10.00">::getFolder</text>
</a>
</g>
</g>
<!-- Node2&#45;&gt;Node3 -->
<g id="edge2" class="edge">
<title>Node2&#45;&gt;Node3</title>
<path fill="none" stroke="midnightblue" d="M263.3,-135.5C273.26,-135.5 283.58,-135.5 293.59,-135.5"/>
<polygon fill="midnightblue" stroke="midnightblue" points="293.88,-139 303.88,-135.5 293.88,-132 293.88,-139"/>
</g>
<!-- Node6 -->
<g id="node6" class="node">
<title>Node6</title>
<g id="a_node6"><a xlink:href="classcontroller_1_1_group_index.html#a3b95071f1707657968efc8eb60260bc6" target="_top" xlink:title="clear hash list and doublet&#39;s vector">
<polygon fill="white" stroke="black" points="304,-49.5 304,-79.5 416,-79.5 416,-49.5 304,-49.5"/>
<text text-anchor="start" x="312" y="-67.5" font-family="Helvetica,sans-Serif" font-size="10.00">controller::GroupIndex</text>
<text text-anchor="middle" x="360" y="-56.5" font-family="Helvetica,sans-Serif" font-size="10.00">::clear</text>
</a>
</g>
</g>
<!-- Node5&#45;&gt;Node6 -->
<g id="edge5" class="edge">
<title>Node5&#45;&gt;Node6</title>
<path fill="none" stroke="midnightblue" d="M255.16,-50.13C267.62,-51.86 280.96,-53.7 293.78,-55.48"/>
<polygon fill="midnightblue" stroke="midnightblue" points="293.55,-58.98 303.93,-56.88 294.51,-52.04 293.55,-58.98"/>
</g>
<!-- Node7 -->
<g id="node7" class="node">
<title>Node7</title>
<g id="a_node7"><a xlink:href="classmodel_1_1files_1_1_group_index.html#a657138be96e3fef79390f01e2955b01b" target="_top" xlink:title=" ">
<polygon fill="white" stroke="black" points="299,-0.5 299,-30.5 421,-30.5 421,-0.5 299,-0.5"/>
<text text-anchor="start" x="307" y="-18.5" font-family="Helvetica,sans-Serif" font-size="10.00">model::files::GroupIndex</text>
<text text-anchor="middle" x="360" y="-7.5" font-family="Helvetica,sans-Serif" font-size="10.00">::getConfig</text>
</a>
</g>
</g>
<!-- Node5&#45;&gt;Node7 -->
<g id="edge6" class="edge">
<title>Node5&#45;&gt;Node7</title>
<path fill="none" stroke="midnightblue" d="M255.16,-33.13C265.95,-31.3 277.39,-29.36 288.59,-27.46"/>
<polygon fill="midnightblue" stroke="midnightblue" points="289.5,-30.85 298.78,-25.73 288.33,-23.95 289.5,-30.85"/>
</g>
</g>
</svg>
