<?xml version="1.0" encoding="UTF-8" standalone="no"?>
<!DOCTYPE svg PUBLIC "-//W3C//DTD SVG 1.1//EN"
 "http://www.w3.org/Graphics/SVG/1.1/DTD/svg11.dtd">
<!-- Generated by graphviz version 2.50.0 (20211204.2007)
 -->
<!-- Title: task::CPUSheduler::getNextUndoneTask Pages: 1 -->
<svg width="446pt" height="39pt"
 viewBox="0.00 0.00 446.00 39.00" xmlns="http://www.w3.org/2000/svg" xmlns:xlink="http://www.w3.org/1999/xlink">
<g id="graph0" class="graph" transform="scale(1 1) rotate(0) translate(4 35)">
<title>task::CPUSheduler::getNextUndoneTask</title>
<polygon fill="white" stroke="transparent" points="-4,4 -4,-35 442,-35 442,4 -4,4"/>
<!-- Node1 -->
<g id="node1" class="node">
<title>Node1</title>
<g id="a_node1"><a xlink:title=" ">
<polygon fill="#bfbfbf" stroke="black" points="332,-0.5 332,-30.5 438,-30.5 438,-0.5 332,-0.5"/>
<text text-anchor="start" x="340" y="-18.5" font-family="Helvetica,sans-Serif" font-size="10.00">task::CPUSheduler::</text>
<text text-anchor="middle" x="385" y="-7.5" font-family="Helvetica,sans-Serif" font-size="10.00">getNextUndoneTask</text>
</a>
</g>
</g>
<!-- Node2 -->
<g id="node2" class="node">
<title>Node2</title>
<g id="a_node2"><a xlink:href="classtask_1_1_c_p_u_sheduler.html#aca2ef864214de896bdfecd8fc52e3b5c" target="_top" xlink:title=" ">
<polygon fill="white" stroke="black" points="190,-0.5 190,-30.5 296,-30.5 296,-0.5 190,-0.5"/>
<text text-anchor="start" x="198" y="-18.5" font-family="Helvetica,sans-Serif" font-size="10.00">task::CPUSheduler::</text>
<text text-anchor="middle" x="243" y="-7.5" font-family="Helvetica,sans-Serif" font-size="10.00">checkPendingTasks</text>
</a>
</g>
</g>
<!-- Node1&#45;&gt;Node2 -->
<g id="edge1" class="edge">
<title>Node1&#45;&gt;Node2</title>
<path fill="none" stroke="midnightblue" d="M321.61,-15.5C313.12,-15.5 304.47,-15.5 296.17,-15.5"/>
<polygon fill="midnightblue" stroke="midnightblue" points="321.87,-19 331.87,-15.5 321.87,-12 321.87,-19"/>
</g>
<!-- Node3 -->
<g id="node3" class="node">
<title>Node3</title>
<g id="a_node3"><a xlink:href="classtask_1_1_c_p_u_task.html#a16dfb23f86b52e06a776d0db04af2899" target="_top" xlink:title=" ">
<polygon fill="white" stroke="black" points="0,-6 0,-25 154,-25 154,-6 0,-6"/>
<text text-anchor="middle" x="77" y="-13" font-family="Helvetica,sans-Serif" font-size="10.00">task::CPUTask::triggerSheduler</text>
</a>
</g>
</g>
<!-- Node2&#45;&gt;Node3 -->
<g id="edge2" class="edge">
<title>Node2&#45;&gt;Node3</title>
<path fill="none" stroke="midnightblue" d="M179.63,-15.5C171.27,-15.5 162.62,-15.5 154.05,-15.5"/>
<polygon fill="midnightblue" stroke="midnightblue" points="179.66,-19 189.66,-15.5 179.66,-12 179.66,-19"/>
</g>
</g>
</svg>
