<?xml version="1.0" encoding="UTF-8" standalone="no"?>
<!DOCTYPE svg PUBLIC "-//W3C//DTD SVG 1.1//EN"
 "http://www.w3.org/Graphics/SVG/1.1/DTD/svg11.dtd">
<!-- Generated by graphviz version 2.50.0 (20211204.2007)
 -->
<!-- Title: FileLockManager::getInstance Pages: 1 -->
<svg width="824pt" height="445pt"
 viewBox="0.00 0.00 824.00 445.00" xmlns="http://www.w3.org/2000/svg" xmlns:xlink="http://www.w3.org/1999/xlink">
<g id="graph0" class="graph" transform="scale(1 1) rotate(0) translate(4 441)">
<title>FileLockManager::getInstance</title>
<polygon fill="white" stroke="transparent" points="-4,4 -4,-441 820,-441 820,4 -4,4"/>
<!-- Node1 -->
<g id="node1" class="node">
<title>Node1</title>
<g id="a_node1"><a xlink:title=" ">
<polygon fill="#bfbfbf" stroke="black" points="669,-209 669,-228 816,-228 816,-209 669,-209"/>
<text text-anchor="middle" x="742.5" y="-216" font-family="Helvetica,sans-Serif" font-size="10.00">FileLockManager::getInstance</text>
</a>
</g>
</g>
<!-- Node2 -->
<g id="node2" class="node">
<title>Node2</title>
<g id="a_node2"><a xlink:href="classmodel_1_1files_1_1_block.html#a62095335a15577b650ac8ecd9d438159" target="_top" xlink:title=" ">
<polygon fill="white" stroke="black" points="519,-406.5 519,-436.5 616,-436.5 616,-406.5 519,-406.5"/>
<text text-anchor="start" x="527" y="-424.5" font-family="Helvetica,sans-Serif" font-size="10.00">model::files::Block</text>
<text text-anchor="middle" x="567.5" y="-413.5" font-family="Helvetica,sans-Serif" font-size="10.00">::appendLines</text>
</a>
</g>
</g>
<!-- Node1&#45;&gt;Node2 -->
<g id="edge1" class="edge">
<title>Node1&#45;&gt;Node2</title>
<path fill="none" stroke="midnightblue" d="M734.65,-238.06C720.96,-274.48 686.8,-353 633,-397.5 628.03,-401.61 622.28,-405.06 616.31,-407.93"/>
<polygon fill="midnightblue" stroke="midnightblue" points="738.11,-238.79 738.25,-228.19 731.54,-236.39 738.11,-238.79"/>
</g>
<!-- Node4 -->
<g id="node4" class="node">
<title>Node4</title>
<g id="a_node4"><a xlink:href="classmodel_1_1files_1_1_block.html#adc947669499b526c4c86ed5d50600128" target="_top" xlink:title="very expensive, read in whole file and calculate hash">
<polygon fill="white" stroke="black" points="519,-357.5 519,-387.5 616,-387.5 616,-357.5 519,-357.5"/>
<text text-anchor="start" x="527" y="-375.5" font-family="Helvetica,sans-Serif" font-size="10.00">model::files::Block</text>
<text text-anchor="middle" x="567.5" y="-364.5" font-family="Helvetica,sans-Serif" font-size="10.00">::calculateHash</text>
</a>
</g>
</g>
<!-- Node1&#45;&gt;Node4 -->
<g id="edge3" class="edge">
<title>Node1&#45;&gt;Node4</title>
<path fill="none" stroke="midnightblue" d="M729.35,-236.67C711.06,-262.9 674.17,-311.62 633,-342.5 625.39,-348.21 616.53,-353.19 607.85,-357.38"/>
<polygon fill="midnightblue" stroke="midnightblue" points="732.46,-238.32 735.22,-228.1 726.68,-234.37 732.46,-238.32"/>
</g>
<!-- Node5 -->
<g id="node5" class="node">
<title>Node5</title>
<g id="a_node5"><a xlink:href="classmodel_1_1files_1_1_block.html#a485cfc70b6d8f66107fb95908a266b36" target="_top" xlink:title=" ">
<polygon fill="white" stroke="black" points="352,-335.5 352,-365.5 449,-365.5 449,-335.5 352,-335.5"/>
<text text-anchor="start" x="360" y="-353.5" font-family="Helvetica,sans-Serif" font-size="10.00">model::files::Block</text>
<text text-anchor="middle" x="400.5" y="-342.5" font-family="Helvetica,sans-Serif" font-size="10.00">::validateHash</text>
</a>
</g>
</g>
<!-- Node1&#45;&gt;Node5 -->
<g id="edge16" class="edge">
<title>Node1&#45;&gt;Node5</title>
<path fill="none" stroke="midnightblue" d="M726.55,-235.63C707.19,-256.63 671.35,-291.6 633,-309.5 573.63,-337.2 497.71,-346.28 449.33,-349.2"/>
<polygon fill="midnightblue" stroke="midnightblue" points="729.26,-237.86 733.35,-228.09 724.06,-233.17 729.26,-237.86"/>
</g>
<!-- Node6 -->
<g id="node6" class="node">
<title>Node6</title>
<g id="a_node6"><a xlink:href="classmodel_1_1files_1_1_address_index.html#af316cd9ce255efa0b2cfd80d6778d7b1" target="_top" xlink:title="Check if index file contains current indices (compare sizes), fileLock via FileLockManager,...">
<polygon fill="white" stroke="black" points="502,-269.5 502,-299.5 633,-299.5 633,-269.5 502,-269.5"/>
<text text-anchor="start" x="510" y="-287.5" font-family="Helvetica,sans-Serif" font-size="10.00">model::files::AddressIndex</text>
<text text-anchor="middle" x="567.5" y="-276.5" font-family="Helvetica,sans-Serif" font-size="10.00">::checkFile</text>
</a>
</g>
</g>
<!-- Node1&#45;&gt;Node6 -->
<g id="edge5" class="edge">
<title>Node1&#45;&gt;Node6</title>
<path fill="none" stroke="midnightblue" d="M706.79,-231.74C678.27,-242.62 637.87,-258.03 608.1,-269.39"/>
<polygon fill="midnightblue" stroke="midnightblue" points="708.25,-234.93 716.34,-228.1 705.75,-228.39 708.25,-234.93"/>
</g>
<!-- Node7 -->
<g id="node7" class="node">
<title>Node7</title>
<g id="a_node7"><a xlink:href="classmodel_1_1files_1_1_address_index.html#ac530703f10a574559e0885acd257a2ea" target="_top" xlink:title="Write new index file if checkFile return true, use Poco::FastMutex::ScopedLock, fileLock via FileLock...">
<polygon fill="white" stroke="black" points="335,-247.5 335,-277.5 466,-277.5 466,-247.5 335,-247.5"/>
<text text-anchor="start" x="343" y="-265.5" font-family="Helvetica,sans-Serif" font-size="10.00">model::files::AddressIndex</text>
<text text-anchor="middle" x="400.5" y="-254.5" font-family="Helvetica,sans-Serif" font-size="10.00">::writeToFile</text>
</a>
</g>
</g>
<!-- Node1&#45;&gt;Node7 -->
<g id="edge17" class="edge">
<title>Node1&#45;&gt;Node7</title>
<path fill="none" stroke="midnightblue" d="M658.9,-229.19C599.62,-236.86 520.88,-247.05 466.16,-254.13"/>
<polygon fill="midnightblue" stroke="midnightblue" points="659.51,-232.64 668.98,-227.89 658.61,-225.7 659.51,-232.64"/>
</g>
<!-- Node10 -->
<g id="node10" class="node">
<title>Node10</title>
<g id="a_node10"><a xlink:href="classmodel_1_1files_1_1_group_index.html#a3cb88fba269e07278bbce30bf9110e92" target="_top" xlink:title="load group.index into memory as Poco Layered Configuration">
<polygon fill="white" stroke="black" points="506.5,-181.5 506.5,-211.5 628.5,-211.5 628.5,-181.5 506.5,-181.5"/>
<text text-anchor="start" x="514.5" y="-199.5" font-family="Helvetica,sans-Serif" font-size="10.00">model::files::GroupIndex</text>
<text text-anchor="middle" x="567.5" y="-188.5" font-family="Helvetica,sans-Serif" font-size="10.00">::GroupIndex</text>
</a>
</g>
</g>
<!-- Node1&#45;&gt;Node10 -->
<g id="edge9" class="edge">
<title>Node1&#45;&gt;Node10</title>
<path fill="none" stroke="midnightblue" d="M658.76,-207.98C648.6,-206.69 638.36,-205.38 628.62,-204.15"/>
<polygon fill="midnightblue" stroke="midnightblue" points="658.52,-211.48 668.88,-209.27 659.41,-204.53 658.52,-211.48"/>
</g>
<!-- Node11 -->
<g id="node11" class="node">
<title>Node11</title>
<g id="a_node11"><a xlink:href="classmodel_1_1files_1_1_address_index.html#a1fd0f56e79272681f80bf099238a485a" target="_top" xlink:title="Load index, public key pairs from file and check file integrity with sha256 hash at end of file,...">
<polygon fill="white" stroke="black" points="502,-132.5 502,-162.5 633,-162.5 633,-132.5 502,-132.5"/>
<text text-anchor="start" x="510" y="-150.5" font-family="Helvetica,sans-Serif" font-size="10.00">model::files::AddressIndex</text>
<text text-anchor="middle" x="567.5" y="-139.5" font-family="Helvetica,sans-Serif" font-size="10.00">::loadFromFile</text>
</a>
</g>
</g>
<!-- Node1&#45;&gt;Node11 -->
<g id="edge10" class="edge">
<title>Node1&#45;&gt;Node11</title>
<path fill="none" stroke="midnightblue" d="M710.22,-204.93C688.6,-195.63 659.14,-183.1 633,-172.5 624.88,-169.2 616.14,-165.76 607.8,-162.51"/>
<polygon fill="midnightblue" stroke="midnightblue" points="708.99,-208.21 719.56,-208.96 711.76,-201.79 708.99,-208.21"/>
</g>
<!-- Node13 -->
<g id="node13" class="node">
<title>Node13</title>
<g id="a_node13"><a xlink:href="class_virtual_file.html#abbdc300573ac1c30d2ae09b585af0a2b" target="_top" xlink:title="get memory bin in file size and fill it with file content">
<polygon fill="white" stroke="black" points="506,-94 506,-113 629,-113 629,-94 506,-94"/>
<text text-anchor="middle" x="567.5" y="-101" font-family="Helvetica,sans-Serif" font-size="10.00">VirtualFile::readFromFile</text>
</a>
</g>
</g>
<!-- Node1&#45;&gt;Node13 -->
<g id="edge12" class="edge">
<title>Node1&#45;&gt;Node13</title>
<path fill="none" stroke="midnightblue" d="M726.31,-201.37C706.71,-180.24 670.62,-144.54 633,-123.5 625.43,-119.27 616.84,-115.81 608.47,-113.03"/>
<polygon fill="midnightblue" stroke="midnightblue" points="723.89,-203.91 733.21,-208.95 729.07,-199.2 723.89,-203.91"/>
</g>
<!-- Node16 -->
<g id="node16" class="node">
<title>Node16</title>
<g id="a_node16"><a xlink:href="classmodel_1_1files_1_1_block.html#a1b1aa10bcf24bfbecf2deba6b65e428e" target="_top" xlink:title=" ">
<polygon fill="white" stroke="black" points="519,-44.5 519,-74.5 616,-74.5 616,-44.5 519,-44.5"/>
<text text-anchor="start" x="527" y="-62.5" font-family="Helvetica,sans-Serif" font-size="10.00">model::files::Block</text>
<text text-anchor="middle" x="567.5" y="-51.5" font-family="Helvetica,sans-Serif" font-size="10.00">::readLine</text>
</a>
</g>
</g>
<!-- Node1&#45;&gt;Node16 -->
<g id="edge15" class="edge">
<title>Node1&#45;&gt;Node16</title>
<path fill="none" stroke="midnightblue" d="M730.97,-200.08C713.84,-171.61 677.36,-116.84 633,-84.5 627.86,-80.75 622.08,-77.48 616.15,-74.66"/>
<polygon fill="midnightblue" stroke="midnightblue" points="728.11,-202.12 736.2,-208.97 734.15,-198.57 728.11,-202.12"/>
</g>
<!-- Node17 -->
<g id="node17" class="node">
<title>Node17</title>
<g id="a_node17"><a xlink:href="class_virtual_file.html#ae43cf874b04266d94e578b500c432e34" target="_top" xlink:title="write memory bin content to file, until cursor position">
<polygon fill="white" stroke="black" points="511,-6 511,-25 624,-25 624,-6 511,-6"/>
<text text-anchor="middle" x="567.5" y="-13" font-family="Helvetica,sans-Serif" font-size="10.00">VirtualFile::writeToFile</text>
</a>
</g>
</g>
<!-- Node1&#45;&gt;Node17 -->
<g id="edge18" class="edge">
<title>Node1&#45;&gt;Node17</title>
<path fill="none" stroke="midnightblue" d="M735.45,-199.05C722.74,-161.48 689.7,-78.71 633,-34.5 628.03,-30.62 622.28,-27.54 616.32,-25.08"/>
<polygon fill="midnightblue" stroke="midnightblue" points="732.19,-200.36 738.62,-208.78 738.85,-198.19 732.19,-200.36"/>
</g>
<!-- Node3 -->
<g id="node3" class="node">
<title>Node3</title>
<g id="a_node3"><a xlink:href="classmodel_1_1files_1_1_block.html#ac7237c328cb61dd2bb6139c2e173a9cf" target="_top" xlink:title="call appendLines">
<polygon fill="white" stroke="black" points="352,-406.5 352,-436.5 449,-436.5 449,-406.5 352,-406.5"/>
<text text-anchor="start" x="360" y="-424.5" font-family="Helvetica,sans-Serif" font-size="10.00">model::files::Block</text>
<text text-anchor="middle" x="400.5" y="-413.5" font-family="Helvetica,sans-Serif" font-size="10.00">::appendLine</text>
</a>
</g>
</g>
<!-- Node2&#45;&gt;Node3 -->
<g id="edge2" class="edge">
<title>Node2&#45;&gt;Node3</title>
<path fill="none" stroke="midnightblue" d="M508.52,-421.5C489.09,-421.5 467.66,-421.5 449.12,-421.5"/>
<polygon fill="midnightblue" stroke="midnightblue" points="508.78,-425 518.78,-421.5 508.78,-418 508.78,-425"/>
</g>
<!-- Node4&#45;&gt;Node5 -->
<g id="edge4" class="edge">
<title>Node4&#45;&gt;Node5</title>
<path fill="none" stroke="midnightblue" d="M508.79,-364.81C489.29,-362.2 467.75,-359.33 449.12,-356.85"/>
<polygon fill="midnightblue" stroke="midnightblue" points="508.4,-368.28 518.78,-366.14 509.33,-361.35 508.4,-368.28"/>
</g>
<!-- Node6&#45;&gt;Node7 -->
<g id="edge6" class="edge">
<title>Node6&#45;&gt;Node7</title>
<path fill="none" stroke="midnightblue" d="M491.76,-274.53C483.18,-273.39 474.48,-272.23 466.05,-271.11"/>
<polygon fill="midnightblue" stroke="midnightblue" points="491.39,-278.02 501.76,-275.87 492.31,-271.08 491.39,-278.02"/>
</g>
<!-- Node8 -->
<g id="node8" class="node">
<title>Node8</title>
<g id="a_node8"><a xlink:href="classmodel_1_1files_1_1_address_index.html#a4ae311bf893bc8b199071575a0610000" target="_top" xlink:title="Adding new index, account address public key pair into memory, use Poco::FastMutex::ScopedLock.">
<polygon fill="white" stroke="black" points="146,-275 146,-294 299,-294 299,-275 146,-275"/>
<text text-anchor="middle" x="222.5" y="-282" font-family="Helvetica,sans-Serif" font-size="10.00">model::files::AddressIndex::add</text>
</a>
</g>
</g>
<!-- Node7&#45;&gt;Node8 -->
<g id="edge7" class="edge">
<title>Node7&#45;&gt;Node8</title>
<path fill="none" stroke="midnightblue" d="M324.99,-271.81C316.41,-272.89 307.66,-273.98 299.06,-275.05"/>
<polygon fill="midnightblue" stroke="midnightblue" points="325.47,-275.28 334.96,-270.57 324.61,-268.33 325.47,-275.28"/>
</g>
<!-- Node9 -->
<g id="node9" class="node">
<title>Node9</title>
<g id="a_node9"><a xlink:href="classmodel_1_1files_1_1_address_index.html#a4e1f457f7f8715f2fda15df438de7ae9" target="_top" xlink:title=" ">
<polygon fill="white" stroke="black" points="157,-225.5 157,-255.5 288,-255.5 288,-225.5 157,-225.5"/>
<text text-anchor="start" x="165" y="-243.5" font-family="Helvetica,sans-Serif" font-size="10.00">model::files::AddressIndex</text>
<text text-anchor="middle" x="222.5" y="-232.5" font-family="Helvetica,sans-Serif" font-size="10.00">::~AddressIndex</text>
</a>
</g>
</g>
<!-- Node7&#45;&gt;Node9 -->
<g id="edge8" class="edge">
<title>Node7&#45;&gt;Node9</title>
<path fill="none" stroke="midnightblue" d="M324.79,-253.16C312.57,-251.63 299.99,-250.06 288.03,-248.57"/>
<polygon fill="midnightblue" stroke="midnightblue" points="324.61,-256.67 334.96,-254.43 325.47,-249.72 324.61,-256.67"/>
</g>
<!-- Node12 -->
<g id="node12" class="node">
<title>Node12</title>
<g id="a_node12"><a xlink:href="classmodel_1_1files_1_1_address_index.html#a41141dcd1983c745a3472e8ebbb191e5" target="_top" xlink:title="Load from file if exist, fileLock via FileLockManager, I/O read if exist.">
<polygon fill="white" stroke="black" points="335,-135.5 335,-165.5 466,-165.5 466,-135.5 335,-135.5"/>
<text text-anchor="start" x="343" y="-153.5" font-family="Helvetica,sans-Serif" font-size="10.00">model::files::AddressIndex</text>
<text text-anchor="middle" x="400.5" y="-142.5" font-family="Helvetica,sans-Serif" font-size="10.00">::AddressIndex</text>
</a>
</g>
</g>
<!-- Node11&#45;&gt;Node12 -->
<g id="edge11" class="edge">
<title>Node11&#45;&gt;Node12</title>
<path fill="none" stroke="midnightblue" d="M491.76,-148.86C483.18,-149.01 474.48,-149.17 466.05,-149.33"/>
<polygon fill="midnightblue" stroke="midnightblue" points="491.83,-152.36 501.76,-148.68 491.7,-145.36 491.83,-152.36"/>
</g>
<!-- Node14 -->
<g id="node14" class="node">
<title>Node14</title>
<g id="a_node14"><a xlink:href="classmodel_1_1files_1_1_block_index.html#ae197b4a43d106d58b23a102f2598ca0c" target="_top" xlink:title="read from file, put content into receiver">
<polygon fill="white" stroke="black" points="340.5,-86.5 340.5,-116.5 460.5,-116.5 460.5,-86.5 340.5,-86.5"/>
<text text-anchor="start" x="348.5" y="-104.5" font-family="Helvetica,sans-Serif" font-size="10.00">model::files::BlockIndex</text>
<text text-anchor="middle" x="400.5" y="-93.5" font-family="Helvetica,sans-Serif" font-size="10.00">::readFromFile</text>
</a>
</g>
</g>
<!-- Node13&#45;&gt;Node14 -->
<g id="edge13" class="edge">
<title>Node13&#45;&gt;Node14</title>
<path fill="none" stroke="midnightblue" d="M495.8,-102.64C484.07,-102.5 472.02,-102.35 460.62,-102.22"/>
<polygon fill="midnightblue" stroke="midnightblue" points="495.96,-106.15 506,-102.77 496.04,-99.15 495.96,-106.15"/>
</g>
<!-- Node15 -->
<g id="node15" class="node">
<title>Node15</title>
<g id="a_node15"><a xlink:href="classcontroller_1_1_block_index.html#a09afd2785b550c464e1173a4bb6e1bb7" target="_top" xlink:title="loading block index from file (or at least try to load)">
<polygon fill="white" stroke="black" points="167.5,-86.5 167.5,-116.5 277.5,-116.5 277.5,-86.5 167.5,-86.5"/>
<text text-anchor="start" x="175.5" y="-104.5" font-family="Helvetica,sans-Serif" font-size="10.00">controller::BlockIndex</text>
<text text-anchor="middle" x="222.5" y="-93.5" font-family="Helvetica,sans-Serif" font-size="10.00">::loadFromFile</text>
</a>
</g>
</g>
<!-- Node14&#45;&gt;Node15 -->
<g id="edge14" class="edge">
<title>Node14&#45;&gt;Node15</title>
<path fill="none" stroke="midnightblue" d="M330.26,-101.5C312.8,-101.5 294.3,-101.5 277.69,-101.5"/>
<polygon fill="midnightblue" stroke="midnightblue" points="330.4,-105 340.4,-101.5 330.4,-98 330.4,-105"/>
</g>
<!-- Node18 -->
<g id="node18" class="node">
<title>Node18</title>
<g id="a_node18"><a xlink:href="classmodel_1_1files_1_1_block_index.html#a87e5d8bb2faf36e3e770e593df3d85e4" target="_top" xlink:title="replace Index File with new one, clear blocks after writing into file">
<polygon fill="white" stroke="black" points="340.5,-0.5 340.5,-30.5 460.5,-30.5 460.5,-0.5 340.5,-0.5"/>
<text text-anchor="start" x="348.5" y="-18.5" font-family="Helvetica,sans-Serif" font-size="10.00">model::files::BlockIndex</text>
<text text-anchor="middle" x="400.5" y="-7.5" font-family="Helvetica,sans-Serif" font-size="10.00">::writeToFile</text>
</a>
</g>
</g>
<!-- Node17&#45;&gt;Node18 -->
<g id="edge19" class="edge">
<title>Node17&#45;&gt;Node18</title>
<path fill="none" stroke="midnightblue" d="M500.29,-15.5C487.19,-15.5 473.53,-15.5 460.69,-15.5"/>
<polygon fill="midnightblue" stroke="midnightblue" points="500.64,-19 510.64,-15.5 500.64,-12 500.64,-19"/>
</g>
<!-- Node19 -->
<g id="node19" class="node">
<title>Node19</title>
<g id="a_node19"><a xlink:href="classcontroller_1_1_block_index.html#a8a65562025348d7f62ed29a932aaf2df" target="_top" xlink:title="write block index into files">
<polygon fill="white" stroke="black" points="167.5,-0.5 167.5,-30.5 277.5,-30.5 277.5,-0.5 167.5,-0.5"/>
<text text-anchor="start" x="175.5" y="-18.5" font-family="Helvetica,sans-Serif" font-size="10.00">controller::BlockIndex</text>
<text text-anchor="middle" x="222.5" y="-7.5" font-family="Helvetica,sans-Serif" font-size="10.00">::writeIntoFile</text>
</a>
</g>
</g>
<!-- Node18&#45;&gt;Node19 -->
<g id="edge20" class="edge">
<title>Node18&#45;&gt;Node19</title>
<path fill="none" stroke="midnightblue" d="M330.26,-15.5C312.8,-15.5 294.3,-15.5 277.69,-15.5"/>
<polygon fill="midnightblue" stroke="midnightblue" points="330.4,-19 340.4,-15.5 330.4,-12 330.4,-19"/>
</g>
<!-- Node20 -->
<g id="node20" class="node">
<title>Node20</title>
<g id="a_node20"><a xlink:href="classcontroller_1_1_block_index.html#a2145f428edf21f487785f77dc34d49b6" target="_top" xlink:title=" ">
<polygon fill="white" stroke="black" points="0,-0.5 0,-30.5 110,-30.5 110,-0.5 0,-0.5"/>
<text text-anchor="start" x="8" y="-18.5" font-family="Helvetica,sans-Serif" font-size="10.00">controller::BlockIndex</text>
<text text-anchor="middle" x="55" y="-7.5" font-family="Helvetica,sans-Serif" font-size="10.00">::~BlockIndex</text>
</a>
</g>
</g>
<!-- Node19&#45;&gt;Node20 -->
<g id="edge21" class="edge">
<title>Node19&#45;&gt;Node20</title>
<path fill="none" stroke="midnightblue" d="M157.22,-15.5C141.62,-15.5 125.1,-15.5 110.03,-15.5"/>
<polygon fill="midnightblue" stroke="midnightblue" points="157.31,-19 167.31,-15.5 157.31,-12 157.31,-19"/>
</g>
</g>
</svg>
