<?xml version="1.0" encoding="UTF-8" standalone="no"?>
<!DOCTYPE svg PUBLIC "-//W3C//DTD SVG 1.1//EN"
 "http://www.w3.org/Graphics/SVG/1.1/DTD/svg11.dtd">
<!-- Generated by graphviz version 2.50.0 (20211204.2007)
 -->
<!-- Title: controller::BlockIndex Pages: 1 -->
<!--zoomable 658 -->
<svg id="main" version="1.1" xmlns="http://www.w3.org/2000/svg" xmlns:xlink="http://www.w3.org/1999/xlink" xml:space="preserve" onload="init(evt)">
<style type="text/css"><![CDATA[
.edge:hover path { stroke: red; }
.edge:hover polygon { stroke: red; fill: red; }
]]></style>
<script type="text/javascript"><![CDATA[
var edges = document.getElementsByTagName('g');
if (edges && edges.length) {
  for (var i=0;i<edges.length;i++) {
    if (edges[i].id.substr(0,4)=='edge') {
      edges[i].setAttribute('class','edge');
    }
  }
}
]]></script>
        <defs>
                <circle id="rim" cx="0" cy="0" r="7"/>
                <circle id="rim2" cx="0" cy="0" r="3.5"/>
                <g id="zoomPlus">
                        <use xlink:href="#rim" fill="#404040">
                                <set attributeName="fill" to="#808080" begin="zoomplus.mouseover" end="zoomplus.mouseout"/>
                        </use>
                        <path d="M-4,0h8M0,-4v8" fill="none" stroke="white" stroke-width="1.5" pointer-events="none"/>
                </g>
                <g id="zoomMin">
                        <use xlink:href="#rim" fill="#404040">
                                <set attributeName="fill" to="#808080" begin="zoomminus.mouseover" end="zoomminus.mouseout"/>
                        </use>
                        <path d="M-4,0h8" fill="none" stroke="white" stroke-width="1.5" pointer-events="none"/>
                </g>
                <g id="dirArrow">
                        <path fill="none" stroke="white" stroke-width="1.5" d="M0,-3.0v7 M-2.5,-0.5L0,-3.0L2.5,-0.5"/>
                </g>
               <g id="resetDef">
                       <use xlink:href="#rim2" fill="#404040">
                               <set attributeName="fill" to="#808080" begin="reset.mouseover" end="reset.mouseout"/>
                       </use>
               </g>
        </defs>

<script type="text/javascript">
var viewWidth = 436;
var viewHeight = 658;
var sectionId = 'dynsection-1';
</script>
<script xlink:href="svgpan.js"/>
<svg id="graph" class="graph">
<g id="viewport">
<title>controller::BlockIndex</title>
<polygon fill="white" stroke="transparent" points="-4,4 -4,-654 432,-654 432,4 -4,4"/>
<!-- Node1 -->
<g id="node1" class="node">
<title>Node1</title>
<g id="a_node1"><a xlink:title="store block index in memory for fast finding transactions">
<polygon fill="#bfbfbf" stroke="black" points="132,-0.5 132,-222.5 300,-222.5 300,-0.5 132,-0.5"/>
<text text-anchor="middle" x="216" y="-210.5" font-family="Helvetica,sans-Serif" font-size="10.00">controller::BlockIndex</text>
<polyline fill="none" stroke="black" points="132,-203.5 300,-203.5 "/>
<text text-anchor="start" x="140" y="-191.5" font-family="Helvetica,sans-Serif" font-size="10.00"># mMaxTransactionNr</text>
<text text-anchor="start" x="140" y="-180.5" font-family="Helvetica,sans-Serif" font-size="10.00"># mMinTransactionNr</text>
<text text-anchor="start" x="140" y="-169.5" font-family="Helvetica,sans-Serif" font-size="10.00"># mTransactionNrsFileCursors</text>
<text text-anchor="start" x="140" y="-158.5" font-family="Helvetica,sans-Serif" font-size="10.00"># mYearMonthAddressIndexEntrys</text>
<text text-anchor="start" x="140" y="-147.5" font-family="Helvetica,sans-Serif" font-size="10.00"># mSlowWorkingMutex</text>
<polyline fill="none" stroke="black" points="132,-140.5 300,-140.5 "/>
<text text-anchor="start" x="140" y="-128.5" font-family="Helvetica,sans-Serif" font-size="10.00">+ BlockIndex()</text>
<text text-anchor="start" x="140" y="-117.5" font-family="Helvetica,sans-Serif" font-size="10.00">+ ~BlockIndex()</text>
<text text-anchor="start" x="140" y="-106.5" font-family="Helvetica,sans-Serif" font-size="10.00">+ loadFromFile()</text>
<text text-anchor="start" x="140" y="-95.5" font-family="Helvetica,sans-Serif" font-size="10.00">+ writeIntoFile()</text>
<text text-anchor="start" x="140" y="-84.5" font-family="Helvetica,sans-Serif" font-size="10.00">+ addIndicesForTransaction()</text>
<text text-anchor="start" x="140" y="-73.5" font-family="Helvetica,sans-Serif" font-size="10.00">+ addIndicesForTransaction()</text>
<text text-anchor="start" x="140" y="-62.5" font-family="Helvetica,sans-Serif" font-size="10.00">+ addIndicesForTransaction()</text>
<text text-anchor="start" x="140" y="-51.5" font-family="Helvetica,sans-Serif" font-size="10.00">+ addFileCursorForTransaction()</text>
<text text-anchor="start" x="140" y="-40.5" font-family="Helvetica,sans-Serif" font-size="10.00">+ findTransactionsForAddress</text>
<text text-anchor="start" x="140" y="-29.5" font-family="Helvetica,sans-Serif" font-size="10.00">MonthYear()</text>
<text text-anchor="start" x="140" y="-18.5" font-family="Helvetica,sans-Serif" font-size="10.00">+ findTransactionsForAddress()</text>
<text text-anchor="start" x="140" y="-7.5" font-family="Helvetica,sans-Serif" font-size="10.00">and 8 more...</text>
</a>
</g>
</g>
<!-- Node2 -->
<g id="node2" class="node">
<title>Node2</title>
<g id="a_node2"><a xlink:href="classcontroller_1_1_controller_base.html" target="_top" xlink:title=" ">
<polygon fill="white" stroke="black" points="0,-320 0,-377 126,-377 126,-320 0,-320"/>
<text text-anchor="middle" x="63" y="-365" font-family="Helvetica,sans-Serif" font-size="10.00">controller::ControllerBase</text>
<polyline fill="none" stroke="black" points="0,-358 126,-358 "/>
<text text-anchor="start" x="8" y="-346" font-family="Helvetica,sans-Serif" font-size="10.00"># mWorkingMutex</text>
<polyline fill="none" stroke="black" points="0,-339 126,-339 "/>
<text text-anchor="middle" x="63" y="-327" font-family="Helvetica,sans-Serif" font-size="10.00"> </text>
</a>
</g>
</g>
<!-- Node2&#45;&gt;Node1 -->
<g id="edge1" class="edge">
<title>Node2&#45;&gt;Node1</title>
<path fill="none" stroke="midnightblue" d="M86.62,-311.23C102.18,-287.33 123.46,-254.64 144.27,-222.68"/>
<polygon fill="none" stroke="midnightblue" points="83.67,-309.33 81.15,-319.62 89.54,-313.15 83.67,-309.33"/>
</g>
<!-- Node3 -->
<g id="node3" class="node">
<title>Node3</title>
<g id="a_node3"><a xlink:href="classmodel_1_1files_1_1_i_block_index_receiver.html" target="_top" xlink:title=" ">
<polygon fill="white" stroke="black" points="144.5,-314.5 144.5,-382.5 287.5,-382.5 287.5,-314.5 144.5,-314.5"/>
<text text-anchor="start" x="152.5" y="-370.5" font-family="Helvetica,sans-Serif" font-size="10.00">model::files::IBlockIndex</text>
<text text-anchor="middle" x="216" y="-359.5" font-family="Helvetica,sans-Serif" font-size="10.00">Receiver</text>
<polyline fill="none" stroke="black" points="144.5,-352.5 287.5,-352.5 "/>
<text text-anchor="middle" x="216" y="-340.5" font-family="Helvetica,sans-Serif" font-size="10.00"> </text>
<polyline fill="none" stroke="black" points="144.5,-333.5 287.5,-333.5 "/>
<text text-anchor="start" x="152.5" y="-321.5" font-family="Helvetica,sans-Serif" font-size="10.00">+ addIndicesForTransaction()</text>
</a>
</g>
</g>
<!-- Node3&#45;&gt;Node1 -->
<g id="edge2" class="edge">
<title>Node3&#45;&gt;Node1</title>
<path fill="none" stroke="midnightblue" d="M216,-304.19C216,-281.09 216,-251.5 216,-222.53"/>
<polygon fill="none" stroke="midnightblue" points="212.5,-304.33 216,-314.33 219.5,-304.33 212.5,-304.33"/>
</g>
<!-- Node4 -->
<g id="node4" class="node">
<title>Node4</title>
<g id="a_node4"><a xlink:href="classmodel_1_1files_1_1_block_index.html" target="_top" xlink:title="Store Block Index Data in binary file.">
<polygon fill="white" stroke="black" points="306,-270.5 306,-426.5 426,-426.5 426,-270.5 306,-270.5"/>
<text text-anchor="middle" x="366" y="-414.5" font-family="Helvetica,sans-Serif" font-size="10.00">model::files::BlockIndex</text>
<polyline fill="none" stroke="black" points="306,-407.5 426,-407.5 "/>
<text text-anchor="start" x="314" y="-395.5" font-family="Helvetica,sans-Serif" font-size="10.00"># mFilename</text>
<text text-anchor="start" x="314" y="-384.5" font-family="Helvetica,sans-Serif" font-size="10.00"># mDataBlocks</text>
<text text-anchor="start" x="314" y="-373.5" font-family="Helvetica,sans-Serif" font-size="10.00"># mDataBlockSumSize</text>
<polyline fill="none" stroke="black" points="306,-366.5 426,-366.5 "/>
<text text-anchor="start" x="314" y="-354.5" font-family="Helvetica,sans-Serif" font-size="10.00">+ BlockIndex()</text>
<text text-anchor="start" x="314" y="-343.5" font-family="Helvetica,sans-Serif" font-size="10.00">+ ~BlockIndex()</text>
<text text-anchor="start" x="314" y="-332.5" font-family="Helvetica,sans-Serif" font-size="10.00">+ addMonthBlock()</text>
<text text-anchor="start" x="314" y="-321.5" font-family="Helvetica,sans-Serif" font-size="10.00">+ addYearBlock()</text>
<text text-anchor="start" x="314" y="-310.5" font-family="Helvetica,sans-Serif" font-size="10.00">+ addDataBlock()</text>
<text text-anchor="start" x="314" y="-299.5" font-family="Helvetica,sans-Serif" font-size="10.00">+ writeToFile()</text>
<text text-anchor="start" x="314" y="-288.5" font-family="Helvetica,sans-Serif" font-size="10.00">+ readFromFile()</text>
<text text-anchor="start" x="314" y="-277.5" font-family="Helvetica,sans-Serif" font-size="10.00">+ reset()</text>
</a>
</g>
</g>
<!-- Node4&#45;&gt;Node1 -->
<g id="edge3" class="edge">
<title>Node4&#45;&gt;Node1</title>
<path fill="none" stroke="#404040" d="M316.68,-270.23C309,-258.19 300.91,-245.52 292.79,-232.8"/>
<polygon fill="none" stroke="#404040" points="292.74,-232.72 286.14,-229.81 286.28,-222.6 292.88,-225.51 292.74,-232.72"/>
<text text-anchor="middle" x="344.5" y="-244" font-family="Helvetica,sans-Serif" font-size="10.00"> #mBlockIndexFile</text>
</g>
<!-- Node5 -->
<g id="node5" class="node">
<title>Node5</title>
<g id="a_node5"><a xlink:href="classmodel_1_1files_1_1_file_base.html" target="_top" xlink:title=" ">
<polygon fill="white" stroke="black" points="311,-464.5 311,-554.5 421,-554.5 421,-464.5 311,-464.5"/>
<text text-anchor="middle" x="366" y="-542.5" font-family="Helvetica,sans-Serif" font-size="10.00">model::files::FileBase</text>
<polyline fill="none" stroke="black" points="311,-535.5 421,-535.5 "/>
<text text-anchor="start" x="319" y="-523.5" font-family="Helvetica,sans-Serif" font-size="10.00"># mFastMutex</text>
<text text-anchor="start" x="319" y="-512.5" font-family="Helvetica,sans-Serif" font-size="10.00"># mReferenceMutex</text>
<text text-anchor="start" x="319" y="-501.5" font-family="Helvetica,sans-Serif" font-size="10.00"># mRefCount</text>
<polyline fill="none" stroke="black" points="311,-494.5 421,-494.5 "/>
<text text-anchor="start" x="319" y="-482.5" font-family="Helvetica,sans-Serif" font-size="10.00">+ FileBase()</text>
<text text-anchor="start" x="319" y="-471.5" font-family="Helvetica,sans-Serif" font-size="10.00"># ~FileBase()</text>
</a>
</g>
</g>
<!-- Node5&#45;&gt;Node4 -->
<g id="edge4" class="edge">
<title>Node5&#45;&gt;Node4</title>
<path fill="none" stroke="midnightblue" d="M366,-454.09C366,-445.27 366,-435.98 366,-426.74"/>
<polygon fill="none" stroke="midnightblue" points="362.5,-454.21 366,-464.21 369.5,-454.21 362.5,-454.21"/>
</g>
<!-- Node6 -->
<g id="node6" class="node">
<title>Node6</title>
<g id="a_node6"><a xlink:title=" ">
<polygon fill="white" stroke="black" points="304,-592.5 304,-649.5 428,-649.5 428,-592.5 304,-592.5"/>
<text text-anchor="middle" x="366" y="-637.5" font-family="Helvetica,sans-Serif" font-size="10.00">Poco::RefCountedObject</text>
<polyline fill="none" stroke="black" points="304,-630.5 428,-630.5 "/>
<text text-anchor="middle" x="366" y="-618.5" font-family="Helvetica,sans-Serif" font-size="10.00"> </text>
<polyline fill="none" stroke="black" points="304,-611.5 428,-611.5 "/>
<text text-anchor="middle" x="366" y="-599.5" font-family="Helvetica,sans-Serif" font-size="10.00"> </text>
</a>
</g>
</g>
<!-- Node6&#45;&gt;Node5 -->
<g id="edge5" class="edge">
<title>Node6&#45;&gt;Node5</title>
<path fill="none" stroke="midnightblue" d="M366,-582.31C366,-573.43 366,-563.88 366,-554.74"/>
<polygon fill="none" stroke="midnightblue" points="362.5,-582.37 366,-592.37 369.5,-582.37 362.5,-582.37"/>
</g>
</g>
</svg>
        <g id="navigator" transform="translate(0 0)" fill="#404254">
                <rect fill="#f2f5e9" fill-opacity="0.5" stroke="#606060" stroke-width=".5" x="0" y="0" width="60" height="60"/>
                <use id="zoomplus" xlink:href="#zoomPlus" x="17" y="9" onmousedown="handleZoom(evt,'in')"/>
                <use id="zoomminus" xlink:href="#zoomMin" x="42" y="9" onmousedown="handleZoom(evt,'out')"/>
                <use id="reset" xlink:href="#resetDef" x="30" y="36" onmousedown="handleReset()"/>
                <g id="arrowUp" xlink:href="#dirArrow" transform="translate(30 24)" onmousedown="handlePan(0,-1)">
                  <use xlink:href="#rim" fill="#404040">
                        <set attributeName="fill" to="#808080" begin="arrowUp.mouseover" end="arrowUp.mouseout"/>
                  </use>
                  <path fill="none" stroke="white" stroke-width="1.5" d="M0,-3.0v7 M-2.5,-0.5L0,-3.0L2.5,-0.5"/>
                </g>
                <g id="arrowRight" xlink:href="#dirArrow" transform="rotate(90) translate(36 -43)" onmousedown="handlePan(1,0)">
                  <use xlink:href="#rim" fill="#404040">
                        <set attributeName="fill" to="#808080" begin="arrowRight.mouseover" end="arrowRight.mouseout"/>
                  </use>
                  <path fill="none" stroke="white" stroke-width="1.5" d="M0,-3.0v7 M-2.5,-0.5L0,-3.0L2.5,-0.5"/>
                </g>
                <g id="arrowDown" xlink:href="#dirArrow" transform="rotate(180) translate(-30 -48)" onmousedown="handlePan(0,1)">
                  <use xlink:href="#rim" fill="#404040">
                        <set attributeName="fill" to="#808080" begin="arrowDown.mouseover" end="arrowDown.mouseout"/>
                  </use>
                  <path fill="none" stroke="white" stroke-width="1.5" d="M0,-3.0v7 M-2.5,-0.5L0,-3.0L2.5,-0.5"/>
                </g>
                <g id="arrowLeft" xlink:href="#dirArrow" transform="rotate(270) translate(-36 17)" onmousedown="handlePan(-1,0)">
                  <use xlink:href="#rim" fill="#404040">
                        <set attributeName="fill" to="#808080" begin="arrowLeft.mouseover" end="arrowLeft.mouseout"/>
                  </use>
                  <path fill="none" stroke="white" stroke-width="1.5" d="M0,-3.0v7 M-2.5,-0.5L0,-3.0L2.5,-0.5"/>
                </g>
        </g>
        <svg viewBox="0 0 15 15" width="100%" height="30px" preserveAspectRatio="xMaxYMin meet">
         <g id="arrow_out" transform="scale(0.3 0.3)">
          <a xlink:href="classcontroller_1_1_block_index__coll__graph_org.svg" target="_base">
           <rect id="button" ry="5" rx="5" y="6" x="6" height="38" width="38"
                fill="#f2f5e9" fill-opacity="0.5" stroke="#606060" stroke-width="1.0"/>
           <path id="arrow"
             d="M 11.500037,31.436501 C 11.940474,20.09759 22.043105,11.32322 32.158766,21.979434 L 37.068811,17.246167 C 37.068811,17.246167 37.088388,32 37.088388,32 L 22.160133,31.978069 C 22.160133,31.978069 26.997745,27.140456 26.997745,27.140456 C 18.528582,18.264221 13.291696,25.230495 11.500037,31.436501 z"
             style="fill:#404040;"/>
          </a>
         </g>
        </svg>
</svg>
