<?xml version="1.0" encoding="UTF-8" standalone="no"?>
<!DOCTYPE svg PUBLIC "-//W3C//DTD SVG 1.1//EN"
 "http://www.w3.org/Graphics/SVG/1.1/DTD/svg11.dtd">
<!-- Generated by graphviz version 2.50.0 (20211204.2007)
 -->
<!-- Title: controller::Group::addTransaction Pages: 1 -->
<!--zoomable 395 -->
<svg id="main" version="1.1" xmlns="http://www.w3.org/2000/svg" xmlns:xlink="http://www.w3.org/1999/xlink" xml:space="preserve" onload="init(evt)">
<style type="text/css"><![CDATA[
.edge:hover path { stroke: red; }
.edge:hover polygon { stroke: red; fill: red; }
]]></style>
<script type="text/javascript"><![CDATA[
var edges = document.getElementsByTagName('g');
if (edges && edges.length) {
  for (var i=0;i<edges.length;i++) {
    if (edges[i].id.substr(0,4)=='edge') {
      edges[i].setAttribute('class','edge');
    }
  }
}
]]></script>
        <defs>
                <circle id="rim" cx="0" cy="0" r="7"/>
                <circle id="rim2" cx="0" cy="0" r="3.5"/>
                <g id="zoomPlus">
                        <use xlink:href="#rim" fill="#404040">
                                <set attributeName="fill" to="#808080" begin="zoomplus.mouseover" end="zoomplus.mouseout"/>
                        </use>
                        <path d="M-4,0h8M0,-4v8" fill="none" stroke="white" stroke-width="1.5" pointer-events="none"/>
                </g>
                <g id="zoomMin">
                        <use xlink:href="#rim" fill="#404040">
                                <set attributeName="fill" to="#808080" begin="zoomminus.mouseover" end="zoomminus.mouseout"/>
                        </use>
                        <path d="M-4,0h8" fill="none" stroke="white" stroke-width="1.5" pointer-events="none"/>
                </g>
                <g id="dirArrow">
                        <path fill="none" stroke="white" stroke-width="1.5" d="M0,-3.0v7 M-2.5,-0.5L0,-3.0L2.5,-0.5"/>
                </g>
               <g id="resetDef">
                       <use xlink:href="#rim2" fill="#404040">
                               <set attributeName="fill" to="#808080" begin="reset.mouseover" end="reset.mouseout"/>
                       </use>
               </g>
        </defs>

<script type="text/javascript">
var viewWidth = 567;
var viewHeight = 395;
var sectionId = 'dynsection-5';
</script>
<script xlink:href="svgpan.js"/>
<svg id="graph" class="graph">
<g id="viewport">
<title>controller::Group::addTransaction</title>
<polygon fill="white" stroke="transparent" points="-4,4 -4,-391 563,-391 563,4 -4,4"/>
<!-- Node1 -->
<g id="node1" class="node">
<title>Node1</title>
<g id="a_node1"><a xlink:title="add transaction from iota into blockchain, important! must be called in correct order">
<polygon fill="#bfbfbf" stroke="black" points="0,-175.5 0,-205.5 95,-205.5 95,-175.5 0,-175.5"/>
<text text-anchor="start" x="8" y="-193.5" font-family="Helvetica,sans-Serif" font-size="10.00">controller::Group::</text>
<text text-anchor="middle" x="47.5" y="-182.5" font-family="Helvetica,sans-Serif" font-size="10.00">addTransaction</text>
</a>
</g>
</g>
<!-- Node2 -->
<g id="node2" class="node">
<title>Node2</title>
<g id="a_node2"><a xlink:href="classcontroller_1_1_group.html#a43e1e6d2ed6060d7b652e052f6e2bc37" target="_top" xlink:title=" ">
<polygon fill="white" stroke="black" points="143.5,-356.5 143.5,-386.5 255.5,-386.5 255.5,-356.5 143.5,-356.5"/>
<text text-anchor="start" x="151.5" y="-374.5" font-family="Helvetica,sans-Serif" font-size="10.00">controller::Group::</text>
<text text-anchor="middle" x="199.5" y="-363.5" font-family="Helvetica,sans-Serif" font-size="10.00">addSignatureToCache</text>
</a>
</g>
</g>
<!-- Node1&#45;&gt;Node2 -->
<g id="edge1" class="edge">
<title>Node1&#45;&gt;Node2</title>
<path fill="none" stroke="midnightblue" d="M52.46,-205.82C61.27,-236.94 85.4,-307.97 131,-347.5 132.36,-348.68 133.78,-349.8 135.24,-350.86"/>
<polygon fill="midnightblue" stroke="midnightblue" points="133.79,-354.08 144.13,-356.4 137.49,-348.14 133.79,-354.08"/>
</g>
<!-- Node3 -->
<g id="node3" class="node">
<title>Node3</title>
<g id="a_node3"><a xlink:href="classcontroller_1_1_group.html#a7c80fa6a0de211d3228f41f6360848ef" target="_top" xlink:title=" ">
<polygon fill="white" stroke="black" points="143.5,-307.5 143.5,-337.5 255.5,-337.5 255.5,-307.5 143.5,-307.5"/>
<text text-anchor="start" x="151.5" y="-325.5" font-family="Helvetica,sans-Serif" font-size="10.00">controller::Group::</text>
<text text-anchor="middle" x="199.5" y="-314.5" font-family="Helvetica,sans-Serif" font-size="10.00">calculateFinalBalance</text>
</a>
</g>
</g>
<!-- Node1&#45;&gt;Node3 -->
<g id="edge2" class="edge">
<title>Node1&#45;&gt;Node3</title>
<path fill="none" stroke="midnightblue" d="M56.58,-205.81C69.42,-228.79 96.61,-272.2 131,-297.5 133.49,-299.33 136.12,-301.04 138.85,-302.63"/>
<polygon fill="midnightblue" stroke="midnightblue" points="137.36,-305.8 147.84,-307.35 140.61,-299.6 137.36,-305.8"/>
</g>
<!-- Node4 -->
<g id="node4" class="node">
<title>Node4</title>
<g id="a_node4"><a xlink:href="class_group_manager.html#ac42a491ca23c0fec6a46f5cf9bee8a99" target="_top" xlink:title="getting group object from Poco::AccessExpireCache or create if not in cache and put in cache">
<polygon fill="white" stroke="black" points="135.5,-269 135.5,-288 263.5,-288 263.5,-269 135.5,-269"/>
<text text-anchor="middle" x="199.5" y="-276" font-family="Helvetica,sans-Serif" font-size="10.00">GroupManager::findGroup</text>
</a>
</g>
</g>
<!-- Node1&#45;&gt;Node4 -->
<g id="edge3" class="edge">
<title>Node1&#45;&gt;Node4</title>
<path fill="none" stroke="midnightblue" d="M62.59,-205.58C78,-221.21 104.08,-245.3 131,-259.5 135.28,-261.76 139.87,-263.78 144.55,-265.57"/>
<polygon fill="midnightblue" stroke="midnightblue" points="143.65,-268.96 154.25,-268.95 145.95,-262.35 143.65,-268.96"/>
</g>
<!-- Node6 -->
<g id="node6" class="node">
<title>Node6</title>
<g id="a_node6"><a xlink:href="classcontroller_1_1_group.html#a4a20b0f19b33b91503ecc8132cff4da9" target="_top" xlink:title="get current block to write more transactions in it">
<polygon fill="white" stroke="black" points="152,-219.5 152,-249.5 247,-249.5 247,-219.5 152,-219.5"/>
<text text-anchor="start" x="160" y="-237.5" font-family="Helvetica,sans-Serif" font-size="10.00">controller::Group::</text>
<text text-anchor="middle" x="199.5" y="-226.5" font-family="Helvetica,sans-Serif" font-size="10.00">getCurrentBlock</text>
</a>
</g>
</g>
<!-- Node1&#45;&gt;Node6 -->
<g id="edge5" class="edge">
<title>Node1&#45;&gt;Node6</title>
<path fill="none" stroke="midnightblue" d="M95.14,-204.18C109.95,-208.53 126.5,-213.38 141.94,-217.91"/>
<polygon fill="midnightblue" stroke="midnightblue" points="141.31,-221.37 151.89,-220.83 143.28,-214.65 141.31,-221.37"/>
</g>
<!-- Node10 -->
<g id="node10" class="node">
<title>Node10</title>
<g id="a_node10"><a xlink:href="class_group_manager.html#a023ecd32edba5827e65a8228298fdffc" target="_top" xlink:title=" ">
<polygon fill="white" stroke="black" points="131,-181 131,-200 268,-200 268,-181 131,-181"/>
<text text-anchor="middle" x="199.5" y="-188" font-family="Helvetica,sans-Serif" font-size="10.00">GroupManager::getInstance</text>
</a>
</g>
</g>
<!-- Node1&#45;&gt;Node10 -->
<g id="edge9" class="edge">
<title>Node1&#45;&gt;Node10</title>
<path fill="none" stroke="midnightblue" d="M95.14,-190.5C103.3,-190.5 111.98,-190.5 120.72,-190.5"/>
<polygon fill="midnightblue" stroke="midnightblue" points="120.97,-194 130.97,-190.5 120.97,-187 120.97,-194"/>
</g>
<!-- Node11 -->
<g id="node11" class="node">
<title>Node11</title>
<g id="a_node11"><a xlink:href="classcontroller_1_1_group.html#a59aa216bd418564b8c56480a88ad5481" target="_top" xlink:title=" ">
<polygon fill="white" stroke="black" points="150,-131.5 150,-161.5 249,-161.5 249,-131.5 150,-131.5"/>
<text text-anchor="start" x="158" y="-149.5" font-family="Helvetica,sans-Serif" font-size="10.00">controller::Group::</text>
<text text-anchor="middle" x="199.5" y="-138.5" font-family="Helvetica,sans-Serif" font-size="10.00">getLastTransaction</text>
</a>
</g>
</g>
<!-- Node1&#45;&gt;Node11 -->
<g id="edge10" class="edge">
<title>Node1&#45;&gt;Node11</title>
<path fill="none" stroke="midnightblue" d="M95.14,-176.82C109.39,-172.64 125.24,-167.99 140.17,-163.61"/>
<polygon fill="midnightblue" stroke="midnightblue" points="141.2,-166.95 149.82,-160.78 139.23,-160.24 141.2,-166.95"/>
</g>
<!-- Node12 -->
<g id="node12" class="node">
<title>Node12</title>
<g id="a_node12"><a xlink:href="classcontroller_1_1_group.html#a97c851d1f29d3fc1071603a70738ba09" target="_top" xlink:title=" ">
<polygon fill="white" stroke="black" points="134.5,-82.5 134.5,-112.5 264.5,-112.5 264.5,-82.5 134.5,-82.5"/>
<text text-anchor="start" x="142.5" y="-100.5" font-family="Helvetica,sans-Serif" font-size="10.00">controller::Group::</text>
<text text-anchor="middle" x="199.5" y="-89.5" font-family="Helvetica,sans-Serif" font-size="10.00">isTransactionAlreadyExist</text>
</a>
</g>
</g>
<!-- Node1&#45;&gt;Node12 -->
<g id="edge12" class="edge">
<title>Node1&#45;&gt;Node12</title>
<path fill="none" stroke="midnightblue" d="M63.74,-175.23C79.47,-160.17 105.26,-137.31 131,-122.5 134.59,-120.43 138.39,-118.48 142.28,-116.65"/>
<polygon fill="midnightblue" stroke="midnightblue" points="143.72,-119.84 151.46,-112.6 140.9,-113.43 143.72,-119.84"/>
</g>
<!-- Node13 -->
<g id="node13" class="node">
<title>Node13</title>
<g id="a_node13"><a xlink:href="classcontroller_1_1_group.html#a0a2547c0b67e7a5b274595b132fb2fd8" target="_top" xlink:title=" ">
<polygon fill="white" stroke="black" points="304,-49.5 304,-79.5 428,-79.5 428,-49.5 304,-49.5"/>
<text text-anchor="start" x="312" y="-67.5" font-family="Helvetica,sans-Serif" font-size="10.00">controller::Group::</text>
<text text-anchor="middle" x="366" y="-56.5" font-family="Helvetica,sans-Serif" font-size="10.00">updateLastAddressIndex</text>
</a>
</g>
</g>
<!-- Node1&#45;&gt;Node13 -->
<g id="edge13" class="edge">
<title>Node1&#45;&gt;Node13</title>
<path fill="none" stroke="midnightblue" d="M54.01,-175.26C64.43,-149.01 89.72,-95.92 131,-73.5 180.53,-46.6 245.04,-46.2 293.78,-51.48"/>
<polygon fill="midnightblue" stroke="midnightblue" points="293.59,-54.98 303.93,-52.69 294.42,-48.03 293.59,-54.98"/>
</g>
<!-- Node14 -->
<g id="node14" class="node">
<title>Node14</title>
<g id="a_node14"><a xlink:href="classcontroller_1_1_group.html#a8450d18527db451b8ab35ac9c3d0b8f7" target="_top" xlink:title=" ">
<polygon fill="white" stroke="black" points="305,-0.5 305,-30.5 427,-30.5 427,-0.5 305,-0.5"/>
<text text-anchor="start" x="313" y="-18.5" font-family="Helvetica,sans-Serif" font-size="10.00">controller::Group::</text>
<text text-anchor="middle" x="366" y="-7.5" font-family="Helvetica,sans-Serif" font-size="10.00">updateLastTransactionId</text>
</a>
</g>
</g>
<!-- Node1&#45;&gt;Node14 -->
<g id="edge15" class="edge">
<title>Node1&#45;&gt;Node14</title>
<path fill="none" stroke="midnightblue" d="M52.33,-175.08C60.77,-144.62 84.09,-76.95 131,-45.5 178.98,-13.34 245.12,-7.51 294.84,-8.76"/>
<polygon fill="midnightblue" stroke="midnightblue" points="294.75,-12.26 304.87,-9.11 295,-5.26 294.75,-12.26"/>
</g>
<!-- Node5 -->
<g id="node5" class="node">
<title>Node5</title>
<g id="a_node5"><a xlink:href="classcontroller_1_1_group_index.html#a1cdd2b99d1d916c582200cae9545dd2e" target="_top" xlink:title="get full folder path for group public key if the hash from groupPublicKey exist multiple time,...">
<polygon fill="white" stroke="black" points="310,-263.5 310,-293.5 422,-293.5 422,-263.5 310,-263.5"/>
<text text-anchor="start" x="318" y="-281.5" font-family="Helvetica,sans-Serif" font-size="10.00">controller::GroupIndex</text>
<text text-anchor="middle" x="366" y="-270.5" font-family="Helvetica,sans-Serif" font-size="10.00">::getFolder</text>
</a>
</g>
</g>
<!-- Node4&#45;&gt;Node5 -->
<g id="edge4" class="edge">
<title>Node4&#45;&gt;Node5</title>
<path fill="none" stroke="midnightblue" d="M263.63,-278.5C275.4,-278.5 287.73,-278.5 299.57,-278.5"/>
<polygon fill="midnightblue" stroke="midnightblue" points="299.82,-282 309.82,-278.5 299.82,-275 299.82,-282"/>
</g>
<!-- Node7 -->
<g id="node7" class="node">
<title>Node7</title>
<g id="a_node7"><a xlink:href="classcontroller_1_1_group.html#a2c4c4112f1d284eff307cb73d324e73f" target="_top" xlink:title=" ">
<polygon fill="white" stroke="black" points="318.5,-139.5 318.5,-169.5 413.5,-169.5 413.5,-139.5 318.5,-139.5"/>
<text text-anchor="start" x="326.5" y="-157.5" font-family="Helvetica,sans-Serif" font-size="10.00">controller::Group::</text>
<text text-anchor="middle" x="366" y="-146.5" font-family="Helvetica,sans-Serif" font-size="10.00">getBlock</text>
</a>
</g>
</g>
<!-- Node6&#45;&gt;Node7 -->
<g id="edge6" class="edge">
<title>Node6&#45;&gt;Node7</title>
<path fill="none" stroke="midnightblue" d="M244.53,-219.45C252.44,-216.39 260.54,-213.02 268,-209.5 284.75,-201.59 287.91,-197.68 304,-188.5 311.96,-183.96 320.53,-179.14 328.67,-174.6"/>
<polygon fill="midnightblue" stroke="midnightblue" points="330.57,-177.54 337.61,-169.62 327.17,-171.43 330.57,-177.54"/>
</g>
<!-- Node8 -->
<g id="node8" class="node">
<title>Node8</title>
<g id="a_node8"><a xlink:href="classcontroller_1_1_group.html#a9c5730fd4a775de7001947369ef2d9c8" target="_top" xlink:title=" ">
<polygon fill="white" stroke="black" points="316.5,-197.5 316.5,-227.5 415.5,-227.5 415.5,-197.5 316.5,-197.5"/>
<text text-anchor="start" x="324.5" y="-215.5" font-family="Helvetica,sans-Serif" font-size="10.00">controller::Group::</text>
<text text-anchor="middle" x="366" y="-204.5" font-family="Helvetica,sans-Serif" font-size="10.00">updateLastBlockNr</text>
</a>
</g>
</g>
<!-- Node6&#45;&gt;Node8 -->
<g id="edge7" class="edge">
<title>Node6&#45;&gt;Node8</title>
<path fill="none" stroke="midnightblue" d="M247.2,-228.25C265.64,-225.79 287.04,-222.93 306.49,-220.32"/>
<polygon fill="midnightblue" stroke="midnightblue" points="307.02,-223.79 316.46,-218.99 306.09,-216.85 307.02,-223.79"/>
</g>
<!-- Node9 -->
<g id="node9" class="node">
<title>Node9</title>
<g id="a_node9"><a xlink:href="classmodel_1_1files_1_1_state.html#a4d8631a2bf4fcc4dd95b563f9b204c02" target="_top" xlink:title=" ">
<polygon fill="white" stroke="black" points="464,-49.5 464,-79.5 559,-79.5 559,-49.5 464,-49.5"/>
<text text-anchor="start" x="472" y="-67.5" font-family="Helvetica,sans-Serif" font-size="10.00">model::files::State</text>
<text text-anchor="middle" x="511.5" y="-56.5" font-family="Helvetica,sans-Serif" font-size="10.00">::setKeyValue</text>
</a>
</g>
</g>
<!-- Node8&#45;&gt;Node9 -->
<g id="edge8" class="edge">
<title>Node8&#45;&gt;Node9</title>
<path fill="none" stroke="midnightblue" d="M401.38,-197.4C410.58,-192.45 420.14,-186.42 428,-179.5 458.08,-153 483.33,-113.57 497.69,-88.45"/>
<polygon fill="midnightblue" stroke="midnightblue" points="500.82,-90.02 502.64,-79.58 494.71,-86.6 500.82,-90.02"/>
</g>
<!-- Node11&#45;&gt;Node7 -->
<g id="edge11" class="edge">
<title>Node11&#45;&gt;Node7</title>
<path fill="none" stroke="midnightblue" d="M249.41,-148.88C267.87,-149.78 289.04,-150.81 308.17,-151.74"/>
<polygon fill="midnightblue" stroke="midnightblue" points="308.1,-155.24 318.25,-152.23 308.44,-148.24 308.1,-155.24"/>
</g>
<!-- Node13&#45;&gt;Node9 -->
<g id="edge14" class="edge">
<title>Node13&#45;&gt;Node9</title>
<path fill="none" stroke="midnightblue" d="M428.27,-64.5C436.72,-64.5 445.37,-64.5 453.73,-64.5"/>
<polygon fill="midnightblue" stroke="midnightblue" points="453.76,-68 463.76,-64.5 453.76,-61 453.76,-68"/>
</g>
<!-- Node14&#45;&gt;Node9 -->
<g id="edge16" class="edge">
<title>Node14&#45;&gt;Node9</title>
<path fill="none" stroke="midnightblue" d="M411.23,-30.6C425.55,-35.49 441.59,-40.97 456.54,-46.07"/>
<polygon fill="midnightblue" stroke="midnightblue" points="455.58,-49.44 466.17,-49.36 457.84,-42.82 455.58,-49.44"/>
</g>
</g>
</svg>
        <g id="navigator" transform="translate(0 0)" fill="#404254">
                <rect fill="#f2f5e9" fill-opacity="0.5" stroke="#606060" stroke-width=".5" x="0" y="0" width="60" height="60"/>
                <use id="zoomplus" xlink:href="#zoomPlus" x="17" y="9" onmousedown="handleZoom(evt,'in')"/>
                <use id="zoomminus" xlink:href="#zoomMin" x="42" y="9" onmousedown="handleZoom(evt,'out')"/>
                <use id="reset" xlink:href="#resetDef" x="30" y="36" onmousedown="handleReset()"/>
                <g id="arrowUp" xlink:href="#dirArrow" transform="translate(30 24)" onmousedown="handlePan(0,-1)">
                  <use xlink:href="#rim" fill="#404040">
                        <set attributeName="fill" to="#808080" begin="arrowUp.mouseover" end="arrowUp.mouseout"/>
                  </use>
                  <path fill="none" stroke="white" stroke-width="1.5" d="M0,-3.0v7 M-2.5,-0.5L0,-3.0L2.5,-0.5"/>
                </g>
                <g id="arrowRight" xlink:href="#dirArrow" transform="rotate(90) translate(36 -43)" onmousedown="handlePan(1,0)">
                  <use xlink:href="#rim" fill="#404040">
                        <set attributeName="fill" to="#808080" begin="arrowRight.mouseover" end="arrowRight.mouseout"/>
                  </use>
                  <path fill="none" stroke="white" stroke-width="1.5" d="M0,-3.0v7 M-2.5,-0.5L0,-3.0L2.5,-0.5"/>
                </g>
                <g id="arrowDown" xlink:href="#dirArrow" transform="rotate(180) translate(-30 -48)" onmousedown="handlePan(0,1)">
                  <use xlink:href="#rim" fill="#404040">
                        <set attributeName="fill" to="#808080" begin="arrowDown.mouseover" end="arrowDown.mouseout"/>
                  </use>
                  <path fill="none" stroke="white" stroke-width="1.5" d="M0,-3.0v7 M-2.5,-0.5L0,-3.0L2.5,-0.5"/>
                </g>
                <g id="arrowLeft" xlink:href="#dirArrow" transform="rotate(270) translate(-36 17)" onmousedown="handlePan(-1,0)">
                  <use xlink:href="#rim" fill="#404040">
                        <set attributeName="fill" to="#808080" begin="arrowLeft.mouseover" end="arrowLeft.mouseout"/>
                  </use>
                  <path fill="none" stroke="white" stroke-width="1.5" d="M0,-3.0v7 M-2.5,-0.5L0,-3.0L2.5,-0.5"/>
                </g>
        </g>
        <svg viewBox="0 0 15 15" width="100%" height="30px" preserveAspectRatio="xMaxYMin meet">
         <g id="arrow_out" transform="scale(0.3 0.3)">
          <a xlink:href="classcontroller_1_1_group_a9d18405e4740fc3f2386e1ed68f3c94c_cgraph_org.svg" target="_base">
           <rect id="button" ry="5" rx="5" y="6" x="6" height="38" width="38"
                fill="#f2f5e9" fill-opacity="0.5" stroke="#606060" stroke-width="1.0"/>
           <path id="arrow"
             d="M 11.500037,31.436501 C 11.940474,20.09759 22.043105,11.32322 32.158766,21.979434 L 37.068811,17.246167 C 37.068811,17.246167 37.088388,32 37.088388,32 L 22.160133,31.978069 C 22.160133,31.978069 26.997745,27.140456 26.997745,27.140456 C 18.528582,18.264221 13.291696,25.230495 11.500037,31.436501 z"
             style="fill:#404040;"/>
          </a>
         </g>
        </svg>
</svg>
