<?xml version="1.0" encoding="UTF-8" standalone="no"?>
<!DOCTYPE svg PUBLIC "-//W3C//DTD SVG 1.1//EN"
 "http://www.w3.org/Graphics/SVG/1.1/DTD/svg11.dtd">
<!-- Generated by graphviz version 2.50.0 (20211204.2007)
 -->
<!-- Title: JsonRequestHandler::stateSuccess Pages: 1 -->
<svg width="476pt" height="104pt"
 viewBox="0.00 0.00 476.00 104.00" xmlns="http://www.w3.org/2000/svg" xmlns:xlink="http://www.w3.org/1999/xlink">
<g id="graph0" class="graph" transform="scale(1 1) rotate(0) translate(4 100)">
<title>JsonRequestHandler::stateSuccess</title>
<polygon fill="white" stroke="transparent" points="-4,4 -4,-100 472,-100 472,4 -4,4"/>
<!-- Node1 -->
<g id="node1" class="node">
<title>Node1</title>
<g id="a_node1"><a xlink:title=" ">
<polygon fill="#bfbfbf" stroke="black" points="362,-33 362,-63 468,-63 468,-33 362,-33"/>
<text text-anchor="start" x="370" y="-51" font-family="Helvetica,sans-Serif" font-size="10.00">JsonRequestHandler</text>
<text text-anchor="middle" x="415" y="-40" font-family="Helvetica,sans-Serif" font-size="10.00">::stateSuccess</text>
</a>
</g>
</g>
<!-- Node2 -->
<g id="node2" class="node">
<title>Node2</title>
<g id="a_node2"><a xlink:href="class_json_r_p_c_handler.html#a8f9e1cccf1262bc177baf477cf59d90b" target="_top" xlink:title=" ">
<polygon fill="white" stroke="black" points="161,-76.5 161,-95.5 326,-95.5 326,-76.5 161,-76.5"/>
<text text-anchor="middle" x="243.5" y="-83.5" font-family="Helvetica,sans-Serif" font-size="10.00">JsonRPCHandler::getTransactions</text>
</a>
</g>
</g>
<!-- Node1&#45;&gt;Node2 -->
<g id="edge1" class="edge">
<title>Node1&#45;&gt;Node2</title>
<path fill="none" stroke="midnightblue" d="M351.99,-61.9C330.36,-66.75 306.59,-72.08 286.91,-76.49"/>
<polygon fill="midnightblue" stroke="midnightblue" points="352.77,-65.31 361.76,-59.71 351.24,-58.48 352.77,-65.31"/>
</g>
<!-- Node3 -->
<g id="node3" class="node">
<title>Node3</title>
<g id="a_node3"><a xlink:href="class_json_r_p_c_handler.html#a4ff8c43e6411cabcd25f2e1978f43e49" target="_top" xlink:title=" ">
<polygon fill="white" stroke="black" points="0,-38.5 0,-57.5 125,-57.5 125,-38.5 0,-38.5"/>
<text text-anchor="middle" x="62.5" y="-45.5" font-family="Helvetica,sans-Serif" font-size="10.00">JsonRPCHandler::handle</text>
</a>
</g>
</g>
<!-- Node1&#45;&gt;Node3 -->
<g id="edge3" class="edge">
<title>Node1&#45;&gt;Node3</title>
<path fill="none" stroke="midnightblue" d="M351.56,-48C287.57,-48 188.7,-48 125.04,-48"/>
<polygon fill="midnightblue" stroke="midnightblue" points="351.91,-51.5 361.91,-48 351.91,-44.5 351.91,-51.5"/>
</g>
<!-- Node4 -->
<g id="node4" class="node">
<title>Node4</title>
<g id="a_node4"><a xlink:href="class_json_r_p_c_handler.html#a3e8fb04eef868d1e57b2de4e5be73c13" target="_top" xlink:title=" ">
<polygon fill="white" stroke="black" points="163.5,-0.5 163.5,-19.5 323.5,-19.5 323.5,-0.5 163.5,-0.5"/>
<text text-anchor="middle" x="243.5" y="-7.5" font-family="Helvetica,sans-Serif" font-size="10.00">JsonRPCHandler::putTransaction</text>
</a>
</g>
</g>
<!-- Node1&#45;&gt;Node4 -->
<g id="edge4" class="edge">
<title>Node1&#45;&gt;Node4</title>
<path fill="none" stroke="midnightblue" d="M351.99,-34.1C330.36,-29.25 306.59,-23.92 286.91,-19.51"/>
<polygon fill="midnightblue" stroke="midnightblue" points="351.24,-37.52 361.76,-36.29 352.77,-30.69 351.24,-37.52"/>
</g>
<!-- Node2&#45;&gt;Node3 -->
<g id="edge2" class="edge">
<title>Node2&#45;&gt;Node3</title>
<path fill="none" stroke="midnightblue" d="M187.48,-74.32C162.09,-68.93 132.34,-62.61 108.34,-57.52"/>
<polygon fill="midnightblue" stroke="midnightblue" points="186.82,-77.76 197.33,-76.41 188.28,-70.91 186.82,-77.76"/>
</g>
<!-- Node4&#45;&gt;Node3 -->
<g id="edge5" class="edge">
<title>Node4&#45;&gt;Node3</title>
<path fill="none" stroke="midnightblue" d="M187.48,-21.68C162.09,-27.07 132.34,-33.39 108.34,-38.48"/>
<polygon fill="midnightblue" stroke="midnightblue" points="188.28,-25.09 197.33,-19.59 186.82,-18.24 188.28,-25.09"/>
</g>
</g>
</svg>
