<?xml version="1.0" encoding="UTF-8" standalone="no"?>
<!DOCTYPE svg PUBLIC "-//W3C//DTD SVG 1.1//EN"
 "http://www.w3.org/Graphics/SVG/1.1/DTD/svg11.dtd">
<!-- Generated by graphviz version 2.50.0 (20211204.2007)
 -->
<!-- Title: CacheManager Pages: 1 -->
<svg width="128pt" height="354pt"
 viewBox="0.00 0.00 127.50 354.00" xmlns="http://www.w3.org/2000/svg" xmlns:xlink="http://www.w3.org/1999/xlink">
<g id="graph0" class="graph" transform="scale(1 1) rotate(0) translate(4 350)">
<title>CacheManager</title>
<polygon fill="white" stroke="transparent" points="-4,4 -4,-350 123.5,-350 123.5,4 -4,4"/>
<!-- Node1 -->
<g id="node1" class="node">
<title>Node1</title>
<g id="a_node1"><a xlink:title=" ">
<polygon fill="#bfbfbf" stroke="black" points="0,-0.5 0,-90.5 103,-90.5 103,-0.5 0,-0.5"/>
<text text-anchor="middle" x="51.5" y="-78.5" font-family="Helvetica,sans-Serif" font-size="10.00">CacheManager</text>
<polyline fill="none" stroke="black" points="0,-71.5 103,-71.5 "/>
<text text-anchor="middle" x="51.5" y="-59.5" font-family="Helvetica,sans-Serif" font-size="10.00"> </text>
<polyline fill="none" stroke="black" points="0,-52.5 103,-52.5 "/>
<text text-anchor="start" x="8" y="-40.5" font-family="Helvetica,sans-Serif" font-size="10.00">+ ~CacheManager()</text>
<text text-anchor="start" x="8" y="-29.5" font-family="Helvetica,sans-Serif" font-size="10.00">+ getFuzzyTimer()</text>
<text text-anchor="start" x="8" y="-18.5" font-family="Helvetica,sans-Serif" font-size="10.00">+ getInstance()</text>
<text text-anchor="start" x="8" y="-7.5" font-family="Helvetica,sans-Serif" font-size="10.00"># CacheManager()</text>
</a>
</g>
</g>
<!-- Node2 -->
<g id="node2" class="node">
<title>Node2</title>
<g id="a_node2"><a xlink:href="class_fuzzy_timer.html" target="_top" xlink:title=" ">
<polygon fill="white" stroke="black" points="7,-138.5 7,-250.5 96,-250.5 96,-138.5 7,-138.5"/>
<text text-anchor="middle" x="51.5" y="-238.5" font-family="Helvetica,sans-Serif" font-size="10.00">FuzzyTimer</text>
<polyline fill="none" stroke="black" points="7,-231.5 96,-231.5 "/>
<text text-anchor="middle" x="51.5" y="-219.5" font-family="Helvetica,sans-Serif" font-size="10.00"> </text>
<polyline fill="none" stroke="black" points="7,-212.5 96,-212.5 "/>
<text text-anchor="start" x="15" y="-200.5" font-family="Helvetica,sans-Serif" font-size="10.00">+ FuzzyTimer()</text>
<text text-anchor="start" x="15" y="-189.5" font-family="Helvetica,sans-Serif" font-size="10.00">+ ~FuzzyTimer()</text>
<text text-anchor="start" x="15" y="-178.5" font-family="Helvetica,sans-Serif" font-size="10.00">+ addTimer()</text>
<text text-anchor="start" x="15" y="-167.5" font-family="Helvetica,sans-Serif" font-size="10.00">+ removeTimer()</text>
<text text-anchor="start" x="15" y="-156.5" font-family="Helvetica,sans-Serif" font-size="10.00">+ move()</text>
<text text-anchor="start" x="15" y="-145.5" font-family="Helvetica,sans-Serif" font-size="10.00">+ run()</text>
</a>
</g>
</g>
<!-- Node2&#45;&gt;Node1 -->
<g id="edge1" class="edge">
<title>Node2&#45;&gt;Node1</title>
<path fill="none" stroke="#404040" d="M51.5,-138.34C51.5,-126.86 51.5,-114.73 51.5,-103.19"/>
<polygon fill="none" stroke="#404040" points="51.5,-102.95 47.5,-96.95 51.5,-90.95 55.5,-96.95 51.5,-102.95"/>
<text text-anchor="middle" x="85.5" y="-112" font-family="Helvetica,sans-Serif" font-size="10.00"> #mFuzzyTimer</text>
</g>
<!-- Node3 -->
<g id="node3" class="node">
<title>Node3</title>
<g id="a_node3"><a xlink:title=" ">
<polygon fill="white" stroke="black" points="8.5,-288.5 8.5,-345.5 94.5,-345.5 94.5,-288.5 8.5,-288.5"/>
<text text-anchor="middle" x="51.5" y="-333.5" font-family="Helvetica,sans-Serif" font-size="10.00">Poco::Runnable</text>
<polyline fill="none" stroke="black" points="8.5,-326.5 94.5,-326.5 "/>
<text text-anchor="middle" x="51.5" y="-314.5" font-family="Helvetica,sans-Serif" font-size="10.00"> </text>
<polyline fill="none" stroke="black" points="8.5,-307.5 94.5,-307.5 "/>
<text text-anchor="middle" x="51.5" y="-295.5" font-family="Helvetica,sans-Serif" font-size="10.00"> </text>
</a>
</g>
</g>
<!-- Node3&#45;&gt;Node2 -->
<g id="edge2" class="edge">
<title>Node3&#45;&gt;Node2</title>
<path fill="none" stroke="midnightblue" d="M51.5,-278.11C51.5,-269.36 51.5,-259.88 51.5,-250.57"/>
<polygon fill="none" stroke="midnightblue" points="48,-278.35 51.5,-288.35 55,-278.35 48,-278.35"/>
</g>
</g>
</svg>
