<?xml version="1.0" encoding="UTF-8" standalone="no"?>
<!DOCTYPE svg PUBLIC "-//W3C//DTD SVG 1.1//EN"
 "http://www.w3.org/Graphics/SVG/1.1/DTD/svg11.dtd">
<!-- Generated by graphviz version 2.50.0 (20211204.2007)
 -->
<!-- Title: model::files::BlockAppendLineTask::run Pages: 1 -->
<svg width="314pt" height="66pt"
 viewBox="0.00 0.00 314.00 66.00" xmlns="http://www.w3.org/2000/svg" xmlns:xlink="http://www.w3.org/1999/xlink">
<g id="graph0" class="graph" transform="scale(1 1) rotate(0) translate(4 62)">
<title>model::files::BlockAppendLineTask::run</title>
<polygon fill="white" stroke="transparent" points="-4,4 -4,-62 310,-62 310,4 -4,4"/>
<!-- Node1 -->
<g id="node1" class="node">
<title>Node1</title>
<g id="a_node1"><a xlink:title="called from task scheduler, maybe from another thread">
<polygon fill="#bfbfbf" stroke="black" points="0,-14 0,-44 130,-44 130,-14 0,-14"/>
<text text-anchor="start" x="8" y="-32" font-family="Helvetica,sans-Serif" font-size="10.00">model::files::BlockAppend</text>
<text text-anchor="middle" x="65" y="-21" font-family="Helvetica,sans-Serif" font-size="10.00">LineTask::run</text>
</a>
</g>
</g>
<!-- Node2 -->
<g id="node2" class="node">
<title>Node2</title>
<g id="a_node2"><a xlink:href="class_logger_manager.html#a88f5ea1c5a1bf96ccb17ffabc3fd9a9b" target="_top" xlink:title=" ">
<polygon fill="white" stroke="black" points="166,-38.5 166,-57.5 306,-57.5 306,-38.5 166,-38.5"/>
<text text-anchor="middle" x="236" y="-45.5" font-family="Helvetica,sans-Serif" font-size="10.00">LoggerManager::getInstance</text>
</a>
</g>
</g>
<!-- Node1&#45;&gt;Node2 -->
<g id="edge1" class="edge">
<title>Node1&#45;&gt;Node2</title>
<path fill="none" stroke="midnightblue" d="M130.37,-36.24C138.69,-37.17 147.28,-38.14 155.79,-39.1"/>
<polygon fill="midnightblue" stroke="midnightblue" points="155.41,-42.57 165.74,-40.21 156.19,-35.62 155.41,-42.57"/>
</g>
<!-- Node3 -->
<g id="node3" class="node">
<title>Node3</title>
<g id="a_node3"><a xlink:href="classtask_1_1_task.html#a93ee58de12aea410c7b0ecd84584957b" target="_top" xlink:title=" ">
<polygon fill="white" stroke="black" points="182.5,-0.5 182.5,-19.5 289.5,-19.5 289.5,-0.5 182.5,-0.5"/>
<text text-anchor="middle" x="236" y="-7.5" font-family="Helvetica,sans-Serif" font-size="10.00">task::Task::setName</text>
</a>
</g>
</g>
<!-- Node1&#45;&gt;Node3 -->
<g id="edge2" class="edge">
<title>Node1&#45;&gt;Node3</title>
<path fill="none" stroke="midnightblue" d="M130.37,-21.76C144.05,-20.23 158.48,-18.6 172.1,-17.07"/>
<polygon fill="midnightblue" stroke="midnightblue" points="172.78,-20.52 182.33,-15.92 172,-13.56 172.78,-20.52"/>
</g>
</g>
</svg>
