<?xml version="1.0" encoding="UTF-8" standalone="no"?>
<!DOCTYPE svg PUBLIC "-//W3C//DTD SVG 1.1//EN"
 "http://www.w3.org/Graphics/SVG/1.1/DTD/svg11.dtd">
<!-- Generated by graphviz version 2.50.0 (20211204.2007)
 -->
<!-- Title: controller::AddressIndex Pages: 1 -->
<svg width="172pt" height="303pt"
 viewBox="0.00 0.00 172.00 303.00" xmlns="http://www.w3.org/2000/svg" xmlns:xlink="http://www.w3.org/1999/xlink">
<g id="graph0" class="graph" transform="scale(1 1) rotate(0) translate(4 299)">
<title>controller::AddressIndex</title>
<polygon fill="white" stroke="transparent" points="-4,4 -4,-299 168,-299 168,4 -4,4"/>
<!-- Node1 -->
<g id="node1" class="node">
<title>Node1</title>
<g id="a_node1"><a xlink:title="Manage address indices for user accounts.">
<polygon fill="#bfbfbf" stroke="black" points="0,-0.5 0,-200.5 164,-200.5 164,-0.5 0,-0.5"/>
<text text-anchor="middle" x="82" y="-188.5" font-family="Helvetica,sans-Serif" font-size="10.00">controller::AddressIndex</text>
<polyline fill="none" stroke="black" points="0,-181.5 164,-181.5 "/>
<text text-anchor="start" x="8" y="-169.5" font-family="Helvetica,sans-Serif" font-size="10.00"># mGroupPath</text>
<text text-anchor="start" x="8" y="-158.5" font-family="Helvetica,sans-Serif" font-size="10.00"># mLastIndex</text>
<text text-anchor="start" x="8" y="-147.5" font-family="Helvetica,sans-Serif" font-size="10.00"># mAddressIndicesCache</text>
<polyline fill="none" stroke="black" points="0,-140.5 164,-140.5 "/>
<text text-anchor="start" x="8" y="-128.5" font-family="Helvetica,sans-Serif" font-size="10.00">+ AddressIndex()</text>
<text text-anchor="start" x="8" y="-117.5" font-family="Helvetica,sans-Serif" font-size="10.00">+ getIndexForAddress()</text>
<text text-anchor="start" x="8" y="-106.5" font-family="Helvetica,sans-Serif" font-size="10.00">+ getOrAddIndexForAddress()</text>
<text text-anchor="start" x="8" y="-95.5" font-family="Helvetica,sans-Serif" font-size="10.00">+ getOrAddIndicesForAddresses()</text>
<text text-anchor="start" x="8" y="-84.5" font-family="Helvetica,sans-Serif" font-size="10.00">+ addAddressIndex()</text>
<text text-anchor="start" x="8" y="-73.5" font-family="Helvetica,sans-Serif" font-size="10.00">+ getLastIndex()</text>
<text text-anchor="start" x="8" y="-62.5" font-family="Helvetica,sans-Serif" font-size="10.00">+ getAddressIndexFilePathFor</text>
<text text-anchor="start" x="8" y="-51.5" font-family="Helvetica,sans-Serif" font-size="10.00">Address()</text>
<text text-anchor="start" x="8" y="-40.5" font-family="Helvetica,sans-Serif" font-size="10.00">+ getAddressIndexFilePathFor</text>
<text text-anchor="start" x="8" y="-29.5" font-family="Helvetica,sans-Serif" font-size="10.00">Address()</text>
<text text-anchor="start" x="8" y="-18.5" font-family="Helvetica,sans-Serif" font-size="10.00"># getAddressIndex()</text>
<text text-anchor="start" x="8" y="-7.5" font-family="Helvetica,sans-Serif" font-size="10.00"># getAddressIndex()</text>
</a>
</g>
</g>
<!-- Node2 -->
<g id="node2" class="node">
<title>Node2</title>
<g id="a_node2"><a xlink:href="classcontroller_1_1_controller_base.html" target="_top" xlink:title=" ">
<polygon fill="white" stroke="black" points="19,-237.5 19,-294.5 145,-294.5 145,-237.5 19,-237.5"/>
<text text-anchor="middle" x="82" y="-282.5" font-family="Helvetica,sans-Serif" font-size="10.00">controller::ControllerBase</text>
<polyline fill="none" stroke="black" points="19,-275.5 145,-275.5 "/>
<text text-anchor="start" x="27" y="-263.5" font-family="Helvetica,sans-Serif" font-size="10.00"># mWorkingMutex</text>
<polyline fill="none" stroke="black" points="19,-256.5 145,-256.5 "/>
<text text-anchor="middle" x="82" y="-244.5" font-family="Helvetica,sans-Serif" font-size="10.00"> </text>
</a>
</g>
</g>
<!-- Node2&#45;&gt;Node1 -->
<g id="edge1" class="edge">
<title>Node2&#45;&gt;Node1</title>
<path fill="none" stroke="midnightblue" d="M82,-227.04C82,-218.87 82,-209.87 82,-200.55"/>
<polygon fill="none" stroke="midnightblue" points="78.5,-227.26 82,-237.26 85.5,-227.26 78.5,-227.26"/>
</g>
</g>
</svg>
