<?xml version="1.0" encoding="UTF-8" standalone="no"?>
<!DOCTYPE svg PUBLIC "-//W3C//DTD SVG 1.1//EN"
 "http://www.w3.org/Graphics/SVG/1.1/DTD/svg11.dtd">
<!-- Generated by graphviz version 2.50.0 (20211204.2007)
 -->
<!-- Title: CacheManager::getFuzzyTimer Pages: 1 -->
<svg width="309pt" height="186pt"
 viewBox="0.00 0.00 309.00 186.00" xmlns="http://www.w3.org/2000/svg" xmlns:xlink="http://www.w3.org/1999/xlink">
<g id="graph0" class="graph" transform="scale(1 1) rotate(0) translate(4 182)">
<title>CacheManager::getFuzzyTimer</title>
<polygon fill="white" stroke="transparent" points="-4,4 -4,-182 305,-182 305,4 -4,4"/>
<!-- Node1 -->
<g id="node1" class="node">
<title>Node1</title>
<g id="a_node1"><a xlink:title=" ">
<polygon fill="#bfbfbf" stroke="black" points="149,-79 149,-98 301,-98 301,-79 149,-79"/>
<text text-anchor="middle" x="225" y="-86" font-family="Helvetica,sans-Serif" font-size="10.00">CacheManager::getFuzzyTimer</text>
</a>
</g>
</g>
<!-- Node2 -->
<g id="node2" class="node">
<title>Node2</title>
<g id="a_node2"><a xlink:href="classmodel_1_1files_1_1_block.html#ab450cd9c6be8eb28ba974cb67523d43d" target="_top" xlink:title=" ">
<polygon fill="white" stroke="black" points="8,-147.5 8,-177.5 105,-177.5 105,-147.5 8,-147.5"/>
<text text-anchor="start" x="16" y="-165.5" font-family="Helvetica,sans-Serif" font-size="10.00">model::files::Block</text>
<text text-anchor="middle" x="56.5" y="-154.5" font-family="Helvetica,sans-Serif" font-size="10.00">::Block</text>
</a>
</g>
</g>
<!-- Node1&#45;&gt;Node2 -->
<g id="edge1" class="edge">
<title>Node1&#45;&gt;Node2</title>
<path fill="none" stroke="midnightblue" d="M193.49,-102.39C171.22,-112.5 140.29,-126.46 113,-138.5 106.37,-141.43 99.29,-144.52 92.47,-147.47"/>
<polygon fill="midnightblue" stroke="midnightblue" points="195.11,-105.5 202.76,-98.18 192.21,-99.13 195.11,-105.5"/>
</g>
<!-- Node3 -->
<g id="node3" class="node">
<title>Node3</title>
<g id="a_node3"><a xlink:href="classcontroller_1_1_block.html#a89bfcaa37f1b125998dae15e3ce9425d" target="_top" xlink:title=" ">
<polygon fill="white" stroke="black" points="10,-98.5 10,-128.5 103,-128.5 103,-98.5 10,-98.5"/>
<text text-anchor="start" x="18" y="-116.5" font-family="Helvetica,sans-Serif" font-size="10.00">controller::Block::</text>
<text text-anchor="middle" x="56.5" y="-105.5" font-family="Helvetica,sans-Serif" font-size="10.00">Block</text>
</a>
</g>
</g>
<!-- Node1&#45;&gt;Node3 -->
<g id="edge2" class="edge">
<title>Node1&#45;&gt;Node3</title>
<path fill="none" stroke="midnightblue" d="M150.61,-99.52C134.47,-101.94 117.82,-104.44 103.15,-106.65"/>
<polygon fill="midnightblue" stroke="midnightblue" points="151.21,-102.97 160.58,-98.02 150.17,-96.05 151.21,-102.97"/>
</g>
<!-- Node4 -->
<g id="node4" class="node">
<title>Node4</title>
<g id="a_node4"><a xlink:href="classiota_1_1_message_listener.html#a0bde52d2d1eed8ccd1454c42e74f4e55" target="_top" xlink:title=" ">
<polygon fill="white" stroke="black" points="0,-49.5 0,-79.5 113,-79.5 113,-49.5 0,-49.5"/>
<text text-anchor="start" x="8" y="-67.5" font-family="Helvetica,sans-Serif" font-size="10.00">iota::MessageListener</text>
<text text-anchor="middle" x="56.5" y="-56.5" font-family="Helvetica,sans-Serif" font-size="10.00">::MessageListener</text>
</a>
</g>
</g>
<!-- Node1&#45;&gt;Node4 -->
<g id="edge3" class="edge">
<title>Node1&#45;&gt;Node4</title>
<path fill="none" stroke="midnightblue" d="M147.58,-77.48C135.96,-75.81 124.17,-74.11 113.11,-72.52"/>
<polygon fill="midnightblue" stroke="midnightblue" points="147.32,-80.98 157.72,-78.95 148.32,-74.05 147.32,-80.98"/>
</g>
<!-- Node5 -->
<g id="node5" class="node">
<title>Node5</title>
<g id="a_node5"><a xlink:href="classiota_1_1_message_listener.html#ab2bca21134fa2c9030dc4339f84d72ac" target="_top" xlink:title=" ">
<polygon fill="white" stroke="black" points="0,-0.5 0,-30.5 113,-30.5 113,-0.5 0,-0.5"/>
<text text-anchor="start" x="8" y="-18.5" font-family="Helvetica,sans-Serif" font-size="10.00">iota::MessageListener</text>
<text text-anchor="middle" x="56.5" y="-7.5" font-family="Helvetica,sans-Serif" font-size="10.00">::~MessageListener</text>
</a>
</g>
</g>
<!-- Node1&#45;&gt;Node5 -->
<g id="edge4" class="edge">
<title>Node1&#45;&gt;Node5</title>
<path fill="none" stroke="midnightblue" d="M192.71,-74.78C164.03,-62.21 121.66,-43.63 92.02,-30.63"/>
<polygon fill="midnightblue" stroke="midnightblue" points="191.67,-78.15 202.23,-78.96 194.48,-71.74 191.67,-78.15"/>
</g>
</g>
</svg>
