<?xml version="1.0" encoding="UTF-8" standalone="no"?>
<!DOCTYPE svg PUBLIC "-//W3C//DTD SVG 1.1//EN"
 "http://www.w3.org/Graphics/SVG/1.1/DTD/svg11.dtd">
<!-- Generated by graphviz version 2.50.0 (20211204.2007)
 -->
<!-- Title: FuzzyTimer::run Pages: 1 -->
<svg width="403pt" height="28pt"
 viewBox="0.00 0.00 403.00 28.00" xmlns="http://www.w3.org/2000/svg" xmlns:xlink="http://www.w3.org/1999/xlink">
<g id="graph0" class="graph" transform="scale(1 1) rotate(0) translate(4 24)">
<title>FuzzyTimer::run</title>
<polygon fill="white" stroke="transparent" points="-4,4 -4,-24 399,-24 399,4 -4,4"/>
<!-- Node1 -->
<g id="node1" class="node">
<title>Node1</title>
<g id="a_node1"><a xlink:title=" ">
<polygon fill="#bfbfbf" stroke="black" points="0,-0.5 0,-19.5 87,-19.5 87,-0.5 0,-0.5"/>
<text text-anchor="middle" x="43.5" y="-7.5" font-family="Helvetica,sans-Serif" font-size="10.00">FuzzyTimer::run</text>
</a>
</g>
</g>
<!-- Node2 -->
<g id="node2" class="node">
<title>Node2</title>
<g id="a_node2"><a xlink:href="class_fuzzy_timer.html#a2ae37f045bfac2261db0eb8ae191310b" target="_top" xlink:title=" ">
<polygon fill="white" stroke="black" points="123,-0.5 123,-19.5 219,-19.5 219,-0.5 123,-0.5"/>
<text text-anchor="middle" x="171" y="-7.5" font-family="Helvetica,sans-Serif" font-size="10.00">FuzzyTimer::move</text>
</a>
</g>
</g>
<!-- Node1&#45;&gt;Node2 -->
<g id="edge1" class="edge">
<title>Node1&#45;&gt;Node2</title>
<path fill="none" stroke="midnightblue" d="M87.34,-10C95.42,-10 103.98,-10 112.43,-10"/>
<polygon fill="midnightblue" stroke="midnightblue" points="112.62,-13.5 122.62,-10 112.62,-6.5 112.62,-13.5"/>
</g>
<!-- Node3 -->
<g id="node3" class="node">
<title>Node3</title>
<g id="a_node3"><a xlink:href="class_logger_manager.html#a88f5ea1c5a1bf96ccb17ffabc3fd9a9b" target="_top" xlink:title=" ">
<polygon fill="white" stroke="black" points="255,-0.5 255,-19.5 395,-19.5 395,-0.5 255,-0.5"/>
<text text-anchor="middle" x="325" y="-7.5" font-family="Helvetica,sans-Serif" font-size="10.00">LoggerManager::getInstance</text>
</a>
</g>
</g>
<!-- Node2&#45;&gt;Node3 -->
<g id="edge2" class="edge">
<title>Node2&#45;&gt;Node3</title>
<path fill="none" stroke="midnightblue" d="M219.26,-10C227.34,-10 235.93,-10 244.58,-10"/>
<polygon fill="midnightblue" stroke="midnightblue" points="244.73,-13.5 254.73,-10 244.73,-6.5 244.73,-13.5"/>
</g>
</g>
</svg>
