<?xml version="1.0" encoding="UTF-8" standalone="no"?>
<!DOCTYPE svg PUBLIC "-//W3C//DTD SVG 1.1//EN"
 "http://www.w3.org/Graphics/SVG/1.1/DTD/svg11.dtd">
<!-- Generated by graphviz version 2.50.0 (20211204.2007)
 -->
<!-- Title: task::Task::lock Pages: 1 -->
<!--zoomable 264 -->
<svg id="main" version="1.1" xmlns="http://www.w3.org/2000/svg" xmlns:xlink="http://www.w3.org/1999/xlink" xml:space="preserve" onload="init(evt)">
<style type="text/css"><![CDATA[
.edge:hover path { stroke: red; }
.edge:hover polygon { stroke: red; fill: red; }
]]></style>
<script type="text/javascript"><![CDATA[
var edges = document.getElementsByTagName('g');
if (edges && edges.length) {
  for (var i=0;i<edges.length;i++) {
    if (edges[i].id.substr(0,4)=='edge') {
      edges[i].setAttribute('class','edge');
    }
  }
}
]]></script>
        <defs>
                <circle id="rim" cx="0" cy="0" r="7"/>
                <circle id="rim2" cx="0" cy="0" r="3.5"/>
                <g id="zoomPlus">
                        <use xlink:href="#rim" fill="#404040">
                                <set attributeName="fill" to="#808080" begin="zoomplus.mouseover" end="zoomplus.mouseout"/>
                        </use>
                        <path d="M-4,0h8M0,-4v8" fill="none" stroke="white" stroke-width="1.5" pointer-events="none"/>
                </g>
                <g id="zoomMin">
                        <use xlink:href="#rim" fill="#404040">
                                <set attributeName="fill" to="#808080" begin="zoomminus.mouseover" end="zoomminus.mouseout"/>
                        </use>
                        <path d="M-4,0h8" fill="none" stroke="white" stroke-width="1.5" pointer-events="none"/>
                </g>
                <g id="dirArrow">
                        <path fill="none" stroke="white" stroke-width="1.5" d="M0,-3.0v7 M-2.5,-0.5L0,-3.0L2.5,-0.5"/>
                </g>
               <g id="resetDef">
                       <use xlink:href="#rim2" fill="#404040">
                               <set attributeName="fill" to="#808080" begin="reset.mouseover" end="reset.mouseout"/>
                       </use>
               </g>
        </defs>

<script type="text/javascript">
var viewWidth = 807;
var viewHeight = 264;
var sectionId = 'dynsection-7';
</script>
<script xlink:href="svgpan.js"/>
<svg id="graph" class="graph">
<g id="viewport">
<title>task::Task::lock</title>
<polygon fill="white" stroke="transparent" points="-4,4 -4,-259.5 803,-259.5 803,4 -4,4"/>
<!-- Node1 -->
<g id="node1" class="node">
<title>Node1</title>
<g id="a_node1"><a xlink:title=" ">
<polygon fill="#bfbfbf" stroke="black" points="713,-110.5 713,-129.5 799,-129.5 799,-110.5 713,-110.5"/>
<text text-anchor="middle" x="756" y="-117.5" font-family="Helvetica,sans-Serif" font-size="10.00">task::Task::lock</text>
</a>
</g>
</g>
<!-- Node2 -->
<g id="node2" class="node">
<title>Node2</title>
<g id="a_node2"><a xlink:href="class_write_transactions_to_block_task.html#a5b1d2e03789d93c9a940b46b52bb590e" target="_top" xlink:title=" ">
<polygon fill="white" stroke="black" points="525,-225 525,-255 677,-255 677,-225 525,-225"/>
<text text-anchor="start" x="533" y="-243" font-family="Helvetica,sans-Serif" font-size="10.00">WriteTransactionsToBlock</text>
<text text-anchor="middle" x="601" y="-232" font-family="Helvetica,sans-Serif" font-size="10.00">Task::addSerializedTransaction</text>
</a>
</g>
</g>
<!-- Node1&#45;&gt;Node2 -->
<g id="edge1" class="edge">
<title>Node1&#45;&gt;Node2</title>
<path fill="none" stroke="midnightblue" d="M744.51,-138.6C731.39,-160.21 706.99,-195.52 677,-216 672.03,-219.39 666.56,-222.33 660.89,-224.86"/>
<polygon fill="midnightblue" stroke="midnightblue" points="747.67,-140.13 749.72,-129.73 741.63,-136.58 747.67,-140.13"/>
</g>
<!-- Node3 -->
<g id="node3" class="node">
<title>Node3</title>
<g id="a_node3"><a xlink:href="class_write_transactions_to_block_task.html#ac09321e307b6d017ac340e220e3cb8e9" target="_top" xlink:title="collect all transaction nrs from transactions">
<polygon fill="white" stroke="black" points="535.5,-176 535.5,-206 666.5,-206 666.5,-176 535.5,-176"/>
<text text-anchor="start" x="543.5" y="-194" font-family="Helvetica,sans-Serif" font-size="10.00">WriteTransactionsToBlock</text>
<text text-anchor="middle" x="601" y="-183" font-family="Helvetica,sans-Serif" font-size="10.00">Task::getTransactionNrs</text>
</a>
</g>
</g>
<!-- Node1&#45;&gt;Node3 -->
<g id="edge2" class="edge">
<title>Node1&#45;&gt;Node3</title>
<path fill="none" stroke="midnightblue" d="M732.14,-135.22C716.95,-144.9 696.31,-157.21 677,-166 669.13,-169.58 660.59,-172.92 652.19,-175.91"/>
<polygon fill="midnightblue" stroke="midnightblue" points="734.34,-137.97 740.83,-129.6 730.53,-132.09 734.34,-137.97"/>
</g>
<!-- Node7 -->
<g id="node7" class="node">
<title>Node7</title>
<g id="a_node7"><a xlink:href="classtask_1_1_task.html#a83f2a80b04661d7e2732dc8934a2e8cc" target="_top" xlink:title="return true if all parent task finished or return false and schedule not already finished parent task...">
<polygon fill="white" stroke="black" points="540.5,-127 540.5,-157 661.5,-157 661.5,-127 540.5,-127"/>
<text text-anchor="start" x="548.5" y="-145" font-family="Helvetica,sans-Serif" font-size="10.00">task::Task::isAllParents</text>
<text text-anchor="middle" x="601" y="-134" font-family="Helvetica,sans-Serif" font-size="10.00">Ready</text>
</a>
</g>
</g>
<!-- Node1&#45;&gt;Node7 -->
<g id="edge6" class="edge">
<title>Node1&#45;&gt;Node7</title>
<path fill="none" stroke="midnightblue" d="M702.86,-127.5C689.57,-129.41 675.18,-131.48 661.54,-133.44"/>
<polygon fill="midnightblue" stroke="midnightblue" points="703.39,-130.96 712.79,-126.07 702.39,-124.03 703.39,-130.96"/>
</g>
<!-- Node9 -->
<g id="node9" class="node">
<title>Node9</title>
<g id="a_node9"><a xlink:href="classtask_1_1_task.html#aef3ee7384dd44e6274025f49e9405561" target="_top" xlink:title="return true if task has finished, else false automatic scheduling of task if he isn&#39;t finished and sh...">
<polygon fill="white" stroke="black" points="534,-88.5 534,-107.5 668,-107.5 668,-88.5 534,-88.5"/>
<text text-anchor="middle" x="601" y="-95.5" font-family="Helvetica,sans-Serif" font-size="10.00">task::Task::isTaskFinished</text>
</a>
</g>
</g>
<!-- Node1&#45;&gt;Node9 -->
<g id="edge8" class="edge">
<title>Node1&#45;&gt;Node9</title>
<path fill="none" stroke="midnightblue" d="M702.81,-112.5C691.67,-110.89 679.77,-109.18 668.19,-107.52"/>
<polygon fill="midnightblue" stroke="midnightblue" points="702.39,-115.97 712.79,-113.93 703.39,-109.04 702.39,-115.97"/>
</g>
<!-- Node10 -->
<g id="node10" class="node">
<title>Node10</title>
<g id="a_node10"><a xlink:href="class_write_transactions_to_block_task.html#acdece707eb9e0e3e49c78ef1c986917f" target="_top" xlink:title="called from task scheduler, maybe from another thread">
<polygon fill="white" stroke="black" points="535.5,-39 535.5,-69 666.5,-69 666.5,-39 535.5,-39"/>
<text text-anchor="start" x="543.5" y="-57" font-family="Helvetica,sans-Serif" font-size="10.00">WriteTransactionsToBlock</text>
<text text-anchor="middle" x="601" y="-46" font-family="Helvetica,sans-Serif" font-size="10.00">Task::run</text>
</a>
</g>
</g>
<!-- Node1&#45;&gt;Node10 -->
<g id="edge9" class="edge">
<title>Node1&#45;&gt;Node10</title>
<path fill="none" stroke="midnightblue" d="M729.93,-105.49C714.88,-97.12 695.18,-86.75 677,-79 668.67,-75.45 659.64,-72.07 650.84,-69"/>
<polygon fill="midnightblue" stroke="midnightblue" points="728.21,-108.54 738.64,-110.4 731.65,-102.44 728.21,-108.54"/>
</g>
<!-- Node11 -->
<g id="node11" class="node">
<title>Node11</title>
<g id="a_node11"><a xlink:href="classtask_1_1_task.html#a26788a6b9089c0fce798d9caf6fde4a4" target="_top" xlink:title=" ">
<polygon fill="white" stroke="black" points="531,-0.5 531,-19.5 671,-19.5 671,-0.5 531,-0.5"/>
<text text-anchor="middle" x="601" y="-7.5" font-family="Helvetica,sans-Serif" font-size="10.00">task::Task::setTaskFinished</text>
</a>
</g>
</g>
<!-- Node1&#45;&gt;Node11 -->
<g id="edge10" class="edge">
<title>Node1&#45;&gt;Node11</title>
<path fill="none" stroke="midnightblue" d="M744.27,-101.75C731.08,-80.95 706.75,-47.45 677,-29 670.72,-25.11 663.68,-22.01 656.49,-19.54"/>
<polygon fill="midnightblue" stroke="midnightblue" points="741.31,-103.62 749.53,-110.32 747.28,-99.96 741.31,-103.62"/>
</g>
<!-- Node4 -->
<g id="node4" class="node">
<title>Node4</title>
<g id="a_node4"><a xlink:href="class_task_observer.html#abb99f67e09fb4ef4144e983699e51bca" target="_top" xlink:title="remove WriteTransactionsToBlockTask from map and transactions">
<polygon fill="white" stroke="black" points="352,-176 352,-206 489,-206 489,-176 352,-176"/>
<text text-anchor="start" x="360" y="-194" font-family="Helvetica,sans-Serif" font-size="10.00">TaskObserver::removeBlock</text>
<text text-anchor="middle" x="420.5" y="-183" font-family="Helvetica,sans-Serif" font-size="10.00">WriteTask</text>
</a>
</g>
</g>
<!-- Node3&#45;&gt;Node4 -->
<g id="edge3" class="edge">
<title>Node3&#45;&gt;Node4</title>
<path fill="none" stroke="midnightblue" d="M525,-191C513.15,-191 500.95,-191 489.28,-191"/>
<polygon fill="midnightblue" stroke="midnightblue" points="525.31,-194.5 535.31,-191 525.3,-187.5 525.31,-194.5"/>
</g>
<!-- Node5 -->
<g id="node5" class="node">
<title>Node5</title>
<g id="a_node5"><a xlink:href="class_task_observer.html#aa0951519dd1424eaa6c1983fb186eb8f" target="_top" xlink:title="remove Tasks">
<polygon fill="white" stroke="black" points="182,-181.5 182,-200.5 316,-200.5 316,-181.5 182,-181.5"/>
<text text-anchor="middle" x="249" y="-188.5" font-family="Helvetica,sans-Serif" font-size="10.00">TaskObserver::removeTask</text>
</a>
</g>
</g>
<!-- Node4&#45;&gt;Node5 -->
<g id="edge4" class="edge">
<title>Node4&#45;&gt;Node5</title>
<path fill="none" stroke="midnightblue" d="M341.3,-191C332.86,-191 324.33,-191 316.05,-191"/>
<polygon fill="midnightblue" stroke="midnightblue" points="341.53,-194.5 351.53,-191 341.53,-187.5 341.53,-194.5"/>
</g>
<!-- Node6 -->
<g id="node6" class="node">
<title>Node6</title>
<g id="a_node6"><a xlink:href="class_task_observer_finish_command.html#af92d7b726676e451c85bbb84beb19e38" target="_top" xlink:title=" ">
<polygon fill="white" stroke="black" points="0,-176 0,-206 146,-206 146,-176 0,-176"/>
<text text-anchor="start" x="8" y="-194" font-family="Helvetica,sans-Serif" font-size="10.00">TaskObserverFinishCommand</text>
<text text-anchor="middle" x="73" y="-183" font-family="Helvetica,sans-Serif" font-size="10.00">::taskFinished</text>
</a>
</g>
</g>
<!-- Node5&#45;&gt;Node6 -->
<g id="edge5" class="edge">
<title>Node5&#45;&gt;Node6</title>
<path fill="none" stroke="midnightblue" d="M171.53,-191C163.11,-191 154.55,-191 146.18,-191"/>
<polygon fill="midnightblue" stroke="midnightblue" points="171.72,-194.5 181.72,-191 171.72,-187.5 171.72,-194.5"/>
</g>
<!-- Node8 -->
<g id="node8" class="node">
<title>Node8</title>
<g id="a_node8"><a xlink:href="classtask_1_1_task.html#afe0f93bf727c643d86983d1142dd3117" target="_top" xlink:title=" ">
<polygon fill="white" stroke="black" points="368.5,-132.5 368.5,-151.5 472.5,-151.5 472.5,-132.5 368.5,-132.5"/>
<text text-anchor="middle" x="420.5" y="-139.5" font-family="Helvetica,sans-Serif" font-size="10.00">task::Task::isReady</text>
</a>
</g>
</g>
<!-- Node7&#45;&gt;Node8 -->
<g id="edge7" class="edge">
<title>Node7&#45;&gt;Node8</title>
<path fill="none" stroke="midnightblue" d="M529.9,-142C510.8,-142 490.46,-142 472.63,-142"/>
<polygon fill="midnightblue" stroke="midnightblue" points="530.07,-145.5 540.07,-142 530.07,-138.5 530.07,-145.5"/>
</g>
</g>
</svg>
        <g id="navigator" transform="translate(0 0)" fill="#404254">
                <rect fill="#f2f5e9" fill-opacity="0.5" stroke="#606060" stroke-width=".5" x="0" y="0" width="60" height="60"/>
                <use id="zoomplus" xlink:href="#zoomPlus" x="17" y="9" onmousedown="handleZoom(evt,'in')"/>
                <use id="zoomminus" xlink:href="#zoomMin" x="42" y="9" onmousedown="handleZoom(evt,'out')"/>
                <use id="reset" xlink:href="#resetDef" x="30" y="36" onmousedown="handleReset()"/>
                <g id="arrowUp" xlink:href="#dirArrow" transform="translate(30 24)" onmousedown="handlePan(0,-1)">
                  <use xlink:href="#rim" fill="#404040">
                        <set attributeName="fill" to="#808080" begin="arrowUp.mouseover" end="arrowUp.mouseout"/>
                  </use>
                  <path fill="none" stroke="white" stroke-width="1.5" d="M0,-3.0v7 M-2.5,-0.5L0,-3.0L2.5,-0.5"/>
                </g>
                <g id="arrowRight" xlink:href="#dirArrow" transform="rotate(90) translate(36 -43)" onmousedown="handlePan(1,0)">
                  <use xlink:href="#rim" fill="#404040">
                        <set attributeName="fill" to="#808080" begin="arrowRight.mouseover" end="arrowRight.mouseout"/>
                  </use>
                  <path fill="none" stroke="white" stroke-width="1.5" d="M0,-3.0v7 M-2.5,-0.5L0,-3.0L2.5,-0.5"/>
                </g>
                <g id="arrowDown" xlink:href="#dirArrow" transform="rotate(180) translate(-30 -48)" onmousedown="handlePan(0,1)">
                  <use xlink:href="#rim" fill="#404040">
                        <set attributeName="fill" to="#808080" begin="arrowDown.mouseover" end="arrowDown.mouseout"/>
                  </use>
                  <path fill="none" stroke="white" stroke-width="1.5" d="M0,-3.0v7 M-2.5,-0.5L0,-3.0L2.5,-0.5"/>
                </g>
                <g id="arrowLeft" xlink:href="#dirArrow" transform="rotate(270) translate(-36 17)" onmousedown="handlePan(-1,0)">
                  <use xlink:href="#rim" fill="#404040">
                        <set attributeName="fill" to="#808080" begin="arrowLeft.mouseover" end="arrowLeft.mouseout"/>
                  </use>
                  <path fill="none" stroke="white" stroke-width="1.5" d="M0,-3.0v7 M-2.5,-0.5L0,-3.0L2.5,-0.5"/>
                </g>
        </g>
        <svg viewBox="0 0 15 15" width="100%" height="30px" preserveAspectRatio="xMaxYMin meet">
         <g id="arrow_out" transform="scale(0.3 0.3)">
          <a xlink:href="classtask_1_1_task_ae035d934c5935b5414ef6da14a265efd_icgraph_org.svg" target="_base">
           <rect id="button" ry="5" rx="5" y="6" x="6" height="38" width="38"
                fill="#f2f5e9" fill-opacity="0.5" stroke="#606060" stroke-width="1.0"/>
           <path id="arrow"
             d="M 11.500037,31.436501 C 11.940474,20.09759 22.043105,11.32322 32.158766,21.979434 L 37.068811,17.246167 C 37.068811,17.246167 37.088388,32 37.088388,32 L 22.160133,31.978069 C 22.160133,31.978069 26.997745,27.140456 26.997745,27.140456 C 18.528582,18.264221 13.291696,25.230495 11.500037,31.436501 z"
             style="fill:#404040;"/>
          </a>
         </g>
        </svg>
</svg>
