<?xml version="1.0" encoding="UTF-8" standalone="no"?>
<!DOCTYPE svg PUBLIC "-//W3C//DTD SVG 1.1//EN"
 "http://www.w3.org/Graphics/SVG/1.1/DTD/svg11.dtd">
<!-- Generated by graphviz version 2.50.0 (20211204.2007)
 -->
<!-- Title: task::Task::setTaskFinished Pages: 1 -->
<svg width="331pt" height="104pt"
 viewBox="0.00 0.00 331.00 104.00" xmlns="http://www.w3.org/2000/svg" xmlns:xlink="http://www.w3.org/1999/xlink">
<g id="graph0" class="graph" transform="scale(1 1) rotate(0) translate(4 100)">
<title>task::Task::setTaskFinished</title>
<polygon fill="white" stroke="transparent" points="-4,4 -4,-100 327,-100 327,4 -4,4"/>
<!-- Node1 -->
<g id="node1" class="node">
<title>Node1</title>
<g id="a_node1"><a xlink:title=" ">
<polygon fill="#bfbfbf" stroke="black" points="0,-38.5 0,-57.5 140,-57.5 140,-38.5 0,-38.5"/>
<text text-anchor="middle" x="70" y="-45.5" font-family="Helvetica,sans-Serif" font-size="10.00">task::Task::setTaskFinished</text>
</a>
</g>
</g>
<!-- Node2 -->
<g id="node2" class="node">
<title>Node2</title>
<g id="a_node2"><a xlink:href="classtask_1_1_task.html#ae035d934c5935b5414ef6da14a265efd" target="_top" xlink:title=" ">
<polygon fill="white" stroke="black" points="206.5,-76.5 206.5,-95.5 292.5,-95.5 292.5,-76.5 206.5,-76.5"/>
<text text-anchor="middle" x="249.5" y="-83.5" font-family="Helvetica,sans-Serif" font-size="10.00">task::Task::lock</text>
</a>
</g>
</g>
<!-- Node1&#45;&gt;Node2 -->
<g id="edge1" class="edge">
<title>Node1&#45;&gt;Node2</title>
<path fill="none" stroke="midnightblue" d="M115.79,-57.59C140.36,-62.85 170.95,-69.4 196.56,-74.88"/>
<polygon fill="midnightblue" stroke="midnightblue" points="195.96,-78.33 206.47,-77 197.42,-71.49 195.96,-78.33"/>
</g>
<!-- Node3 -->
<g id="node3" class="node">
<title>Node3</title>
<g id="a_node3"><a xlink:href="classtask_1_1_command.html#a7b705cdb6cd88d4cac76e9fd012058c2" target="_top" xlink:title=" ">
<polygon fill="white" stroke="black" points="176,-38.5 176,-57.5 323,-57.5 323,-38.5 176,-38.5"/>
<text text-anchor="middle" x="249.5" y="-45.5" font-family="Helvetica,sans-Serif" font-size="10.00">task::Command::taskFinished</text>
</a>
</g>
</g>
<!-- Node1&#45;&gt;Node3 -->
<g id="edge2" class="edge">
<title>Node1&#45;&gt;Node3</title>
<path fill="none" stroke="midnightblue" d="M140.13,-48C148.53,-48 157.17,-48 165.74,-48"/>
<polygon fill="midnightblue" stroke="midnightblue" points="165.74,-51.5 175.74,-48 165.74,-44.5 165.74,-51.5"/>
</g>
<!-- Node4 -->
<g id="node4" class="node">
<title>Node4</title>
<g id="a_node4"><a xlink:href="classtask_1_1_task.html#ad38ac7109457878f8d64dbc9582af4ac" target="_top" xlink:title=" ">
<polygon fill="white" stroke="black" points="201,-0.5 201,-19.5 298,-19.5 298,-0.5 201,-0.5"/>
<text text-anchor="middle" x="249.5" y="-7.5" font-family="Helvetica,sans-Serif" font-size="10.00">task::Task::unlock</text>
</a>
</g>
</g>
<!-- Node1&#45;&gt;Node4 -->
<g id="edge3" class="edge">
<title>Node1&#45;&gt;Node4</title>
<path fill="none" stroke="midnightblue" d="M115.79,-38.41C139.53,-33.33 168.88,-27.04 193.94,-21.68"/>
<polygon fill="midnightblue" stroke="midnightblue" points="194.99,-25.04 204.03,-19.52 193.52,-18.19 194.99,-25.04"/>
</g>
</g>
</svg>
