<?xml version="1.0" encoding="UTF-8" standalone="no"?>
<!DOCTYPE svg PUBLIC "-//W3C//DTD SVG 1.1//EN"
 "http://www.w3.org/Graphics/SVG/1.1/DTD/svg11.dtd">
<!-- Generated by graphviz version 2.50.0 (20211204.2007)
 -->
<!-- Title: src/controller/BlockIndex.cpp Pages: 1 -->
<svg width="2009pt" height="419pt"
 viewBox="0.00 0.00 2009.00 419.00" xmlns="http://www.w3.org/2000/svg" xmlns:xlink="http://www.w3.org/1999/xlink">
<g id="graph0" class="graph" transform="scale(1 1) rotate(0) translate(4 415)">
<title>src/controller/BlockIndex.cpp</title>
<polygon fill="white" stroke="transparent" points="-4,4 -4,-415 2005,-415 2005,4 -4,4"/>
<!-- Node1 -->
<g id="node1" class="node">
<title>Node1</title>
<g id="a_node1"><a xlink:title=" ">
<polygon fill="#bfbfbf" stroke="black" points="1464.5,-391.5 1464.5,-410.5 1607.5,-410.5 1607.5,-391.5 1464.5,-391.5"/>
<text text-anchor="middle" x="1536" y="-398.5" font-family="Helvetica,sans-Serif" font-size="10.00">src/controller/BlockIndex.cpp</text>
</a>
</g>
</g>
<!-- Node2 -->
<g id="node2" class="node">
<title>Node2</title>
<g id="a_node2"><a xlink:href="controller_2_block_index_8h.html" target="_top" xlink:title=" ">
<polygon fill="white" stroke="black" points="1227.5,-201.5 1227.5,-220.5 1300.5,-220.5 1300.5,-201.5 1227.5,-201.5"/>
<text text-anchor="middle" x="1264" y="-208.5" font-family="Helvetica,sans-Serif" font-size="10.00">BlockIndex.h</text>
</a>
</g>
</g>
<!-- Node1&#45;&gt;Node2 -->
<g id="edge1" class="edge">
<title>Node1&#45;&gt;Node2</title>
<path fill="none" stroke="midnightblue" d="M1523.61,-391.43C1480.77,-361.83 1338.67,-263.61 1284.88,-226.43"/>
<polygon fill="midnightblue" stroke="midnightblue" points="1286.68,-223.42 1276.47,-220.62 1282.7,-229.18 1286.68,-223.42"/>
</g>
<!-- Node18 -->
<g id="node18" class="node">
<title>Node18</title>
<g id="a_node18"><a xlink:title=" ">
<polygon fill="white" stroke="#bfbfbf" points="1872,-129 1872,-148 1952,-148 1952,-129 1872,-129"/>
<text text-anchor="middle" x="1912" y="-136" font-family="Helvetica,sans-Serif" font-size="10.00">Poco/Logger.h</text>
</a>
</g>
</g>
<!-- Node1&#45;&gt;Node18 -->
<g id="edge20" class="edge">
<title>Node1&#45;&gt;Node18</title>
<path fill="none" stroke="midnightblue" d="M1607.76,-394.7C1646.82,-389.18 1694.65,-377.91 1732,-355 1816.06,-303.42 1879.68,-198.77 1902.66,-157.15"/>
<polygon fill="midnightblue" stroke="midnightblue" points="1905.82,-158.67 1907.51,-148.21 1899.67,-155.33 1905.82,-158.67"/>
</g>
<!-- Node19 -->
<g id="node19" class="node">
<title>Node19</title>
<g id="a_node19"><a xlink:href="_logger_manager_8h.html" target="_top" xlink:title=" ">
<polygon fill="white" stroke="black" points="1619,-324.5 1619,-354.5 1723,-354.5 1723,-324.5 1619,-324.5"/>
<text text-anchor="start" x="1627" y="-342.5" font-family="Helvetica,sans-Serif" font-size="10.00">../SingletonManager</text>
<text text-anchor="middle" x="1671" y="-331.5" font-family="Helvetica,sans-Serif" font-size="10.00">/LoggerManager.h</text>
</a>
</g>
</g>
<!-- Node1&#45;&gt;Node19 -->
<g id="edge21" class="edge">
<title>Node1&#45;&gt;Node19</title>
<path fill="none" stroke="midnightblue" d="M1555.34,-391.48C1574.74,-382.93 1605.2,-369.5 1629.99,-358.57"/>
<polygon fill="midnightblue" stroke="midnightblue" points="1631.44,-361.76 1639.18,-354.52 1628.62,-355.35 1631.44,-361.76"/>
</g>
<!-- Node20 -->
<g id="node20" class="node">
<title>Node20</title>
<g id="a_node20"><a xlink:href="_transaction_entry_8h.html" target="_top" xlink:title=" ">
<polygon fill="white" stroke="black" points="461.5,-330 461.5,-349 598.5,-349 598.5,-330 461.5,-330"/>
<text text-anchor="middle" x="530" y="-337" font-family="Helvetica,sans-Serif" font-size="10.00">../model/TransactionEntry.h</text>
</a>
</g>
</g>
<!-- Node1&#45;&gt;Node20 -->
<g id="edge23" class="edge">
<title>Node1&#45;&gt;Node20</title>
<path fill="none" stroke="midnightblue" d="M1464.46,-395.77C1281.76,-384.96 799.01,-356.41 608.72,-345.16"/>
<polygon fill="midnightblue" stroke="midnightblue" points="608.7,-341.65 598.51,-344.55 608.29,-348.64 608.7,-341.65"/>
</g>
<!-- Node3 -->
<g id="node3" class="node">
<title>Node3</title>
<g id="a_node3"><a xlink:href="_controller_base_8h.html" target="_top" xlink:title=" ">
<polygon fill="white" stroke="black" points="304.5,-129 304.5,-148 393.5,-148 393.5,-129 304.5,-129"/>
<text text-anchor="middle" x="349" y="-136" font-family="Helvetica,sans-Serif" font-size="10.00">ControllerBase.h</text>
</a>
</g>
</g>
<!-- Node2&#45;&gt;Node3 -->
<g id="edge2" class="edge">
<title>Node2&#45;&gt;Node3</title>
<path fill="none" stroke="midnightblue" d="M1233.57,-201.42C1217.48,-197.24 1197.31,-192.58 1179,-190 853.82,-144.2 767.67,-187.61 441,-154 428.94,-152.76 416.05,-151 403.85,-149.13"/>
<polygon fill="midnightblue" stroke="midnightblue" points="404.22,-145.65 393.8,-147.55 403.13,-152.56 404.22,-145.65"/>
</g>
<!-- Node5 -->
<g id="node5" class="node">
<title>Node5</title>
<g id="a_node5"><a xlink:title=" ">
<polygon fill="white" stroke="#bfbfbf" points="1156,-129 1156,-148 1198,-148 1198,-129 1156,-129"/>
<text text-anchor="middle" x="1177" y="-136" font-family="Helvetica,sans-Serif" font-size="10.00">vector</text>
</a>
</g>
</g>
<!-- Node2&#45;&gt;Node5 -->
<g id="edge4" class="edge">
<title>Node2&#45;&gt;Node5</title>
<path fill="none" stroke="midnightblue" d="M1253.33,-201.36C1238.98,-189.73 1213.24,-168.86 1195.65,-154.61"/>
<polygon fill="midnightblue" stroke="midnightblue" points="1197.73,-151.79 1187.76,-148.22 1193.32,-157.23 1197.73,-151.79"/>
</g>
<!-- Node6 -->
<g id="node6" class="node">
<title>Node6</title>
<g id="a_node6"><a xlink:title=" ">
<polygon fill="white" stroke="#bfbfbf" points="1155.5,-67.5 1155.5,-86.5 1190.5,-86.5 1190.5,-67.5 1155.5,-67.5"/>
<text text-anchor="middle" x="1173" y="-74.5" font-family="Helvetica,sans-Serif" font-size="10.00">map</text>
</a>
</g>
</g>
<!-- Node2&#45;&gt;Node6 -->
<g id="edge5" class="edge">
<title>Node2&#45;&gt;Node6</title>
<path fill="none" stroke="midnightblue" d="M1258.68,-201.48C1248.81,-185.75 1226.86,-151.2 1207,-123 1200.22,-113.37 1192.31,-102.86 1185.83,-94.42"/>
<polygon fill="midnightblue" stroke="midnightblue" points="1188.58,-92.26 1179.69,-86.5 1183.05,-96.55 1188.58,-92.26"/>
</g>
<!-- Node7 -->
<g id="node7" class="node">
<title>Node7</title>
<g id="a_node7"><a xlink:title=" ">
<polygon fill="white" stroke="#bfbfbf" points="661.5,-6 661.5,-25 732.5,-25 732.5,-6 661.5,-6"/>
<text text-anchor="middle" x="697" y="-13" font-family="Helvetica,sans-Serif" font-size="10.00">Poco/Path.h</text>
</a>
</g>
</g>
<!-- Node2&#45;&gt;Node7 -->
<g id="edge6" class="edge">
<title>Node2&#45;&gt;Node7</title>
<path fill="none" stroke="midnightblue" d="M1263.24,-201.18C1260.44,-175.06 1248.26,-98.06 1200,-67 1114.15,-11.75 842.16,-50.79 742,-31 738.04,-30.22 733.93,-29.2 729.89,-28.07"/>
<polygon fill="midnightblue" stroke="midnightblue" points="730.67,-24.64 720.08,-25.08 728.63,-31.34 730.67,-24.64"/>
</g>
<!-- Node8 -->
<g id="node8" class="node">
<title>Node8</title>
<g id="a_node8"><a xlink:title=" ">
<polygon fill="white" stroke="#bfbfbf" points="1907,-67.5 1907,-86.5 2001,-86.5 2001,-67.5 1907,-67.5"/>
<text text-anchor="middle" x="1954" y="-74.5" font-family="Helvetica,sans-Serif" font-size="10.00">Poco/SharedPtr.h</text>
</a>
</g>
</g>
<!-- Node2&#45;&gt;Node8 -->
<g id="edge7" class="edge">
<title>Node2&#45;&gt;Node8</title>
<path fill="none" stroke="midnightblue" d="M1300.74,-204.76C1331.7,-200.45 1377.19,-194.36 1417,-190 1507.48,-180.1 1740.68,-188.28 1825,-154 1845.19,-145.79 1844.67,-134.79 1863,-123 1882.47,-110.47 1905.93,-98.95 1924.15,-90.7"/>
<polygon fill="midnightblue" stroke="midnightblue" points="1925.69,-93.84 1933.41,-86.58 1922.85,-87.45 1925.69,-93.84"/>
</g>
<!-- Node9 -->
<g id="node9" class="node">
<title>Node9</title>
<g id="a_node9"><a xlink:href="model_2files_2_block_index_8h.html" target="_top" xlink:title=" ">
<polygon fill="white" stroke="black" points="1684.5,-129 1684.5,-148 1815.5,-148 1815.5,-129 1684.5,-129"/>
<text text-anchor="middle" x="1750" y="-136" font-family="Helvetica,sans-Serif" font-size="10.00">../model/files/BlockIndex.h</text>
</a>
</g>
</g>
<!-- Node2&#45;&gt;Node9 -->
<g id="edge8" class="edge">
<title>Node2&#45;&gt;Node9</title>
<path fill="none" stroke="midnightblue" d="M1300.72,-205.12C1394.57,-192.62 1638.41,-160.03 1675,-154 1682.46,-152.77 1690.32,-151.37 1698.03,-149.94"/>
<polygon fill="midnightblue" stroke="midnightblue" points="1698.85,-153.34 1708.03,-148.04 1697.55,-146.46 1698.85,-153.34"/>
</g>
<!-- Node4 -->
<g id="node4" class="node">
<title>Node4</title>
<g id="a_node4"><a xlink:title=" ">
<polygon fill="white" stroke="#bfbfbf" points="356.5,-6 356.5,-25 433.5,-25 433.5,-6 356.5,-6"/>
<text text-anchor="middle" x="395" y="-13" font-family="Helvetica,sans-Serif" font-size="10.00">Poco/Mutex.h</text>
</a>
</g>
</g>
<!-- Node3&#45;&gt;Node4 -->
<g id="edge3" class="edge">
<title>Node3&#45;&gt;Node4</title>
<path fill="none" stroke="midnightblue" d="M352.31,-128.8C359.77,-109.18 378.03,-61.14 388.08,-34.69"/>
<polygon fill="midnightblue" stroke="midnightblue" points="391.44,-35.71 391.72,-25.12 384.9,-33.23 391.44,-35.71"/>
</g>
<!-- Node9&#45;&gt;Node8 -->
<g id="edge16" class="edge">
<title>Node9&#45;&gt;Node8</title>
<path fill="none" stroke="midnightblue" d="M1779.23,-128.98C1814.9,-118.57 1875.36,-100.94 1914.98,-89.38"/>
<polygon fill="midnightblue" stroke="midnightblue" points="1916.21,-92.67 1924.83,-86.51 1914.25,-85.95 1916.21,-92.67"/>
</g>
<!-- Node10 -->
<g id="node10" class="node">
<title>Node10</title>
<g id="a_node10"><a xlink:href="_file_base_8h.html" target="_top" xlink:title=" ">
<polygon fill="white" stroke="black" points="769.5,-67.5 769.5,-86.5 832.5,-86.5 832.5,-67.5 769.5,-67.5"/>
<text text-anchor="middle" x="801" y="-74.5" font-family="Helvetica,sans-Serif" font-size="10.00">FileBase.h</text>
</a>
</g>
</g>
<!-- Node9&#45;&gt;Node10 -->
<g id="edge9" class="edge">
<title>Node9&#45;&gt;Node10</title>
<path fill="none" stroke="midnightblue" d="M1711.24,-128.94C1699.64,-126.66 1686.85,-124.44 1675,-123 1510.96,-103.02 994.64,-84.5 843.17,-79.39"/>
<polygon fill="midnightblue" stroke="midnightblue" points="843.01,-75.88 832.9,-79.04 842.78,-82.88 843.01,-75.88"/>
</g>
<!-- Node12 -->
<g id="node12" class="node">
<title>Node12</title>
<g id="a_node12"><a xlink:href="_virtual_file_8h.html" target="_top" xlink:title=" ">
<polygon fill="white" stroke="black" points="1789.5,-67.5 1789.5,-86.5 1888.5,-86.5 1888.5,-67.5 1789.5,-67.5"/>
<text text-anchor="middle" x="1839" y="-74.5" font-family="Helvetica,sans-Serif" font-size="10.00">../../lib/VirtualFile.h</text>
</a>
</g>
</g>
<!-- Node9&#45;&gt;Node12 -->
<g id="edge13" class="edge">
<title>Node9&#45;&gt;Node12</title>
<path fill="none" stroke="midnightblue" d="M1762.75,-128.98C1777.03,-119.43 1800.4,-103.81 1817.51,-92.37"/>
<polygon fill="midnightblue" stroke="midnightblue" points="1819.9,-94.98 1826.27,-86.51 1816.01,-89.16 1819.9,-94.98"/>
</g>
<!-- Node15 -->
<g id="node15" class="node">
<title>Node15</title>
<g id="a_node15"><a xlink:title=" ">
<polygon fill="white" stroke="#bfbfbf" points="1654,-67.5 1654,-86.5 1710,-86.5 1710,-67.5 1654,-67.5"/>
<text text-anchor="middle" x="1682" y="-74.5" font-family="Helvetica,sans-Serif" font-size="10.00">sodium.h</text>
</a>
</g>
</g>
<!-- Node9&#45;&gt;Node15 -->
<g id="edge17" class="edge">
<title>Node9&#45;&gt;Node15</title>
<path fill="none" stroke="midnightblue" d="M1740.26,-128.98C1729.65,-119.7 1712.48,-104.67 1699.52,-93.33"/>
<polygon fill="midnightblue" stroke="midnightblue" points="1701.56,-90.46 1691.72,-86.51 1696.95,-95.73 1701.56,-90.46"/>
</g>
<!-- Node16 -->
<g id="node16" class="node">
<title>Node16</title>
<g id="a_node16"><a xlink:title=" ">
<polygon fill="white" stroke="#bfbfbf" points="1728.5,-67.5 1728.5,-86.5 1771.5,-86.5 1771.5,-67.5 1728.5,-67.5"/>
<text text-anchor="middle" x="1750" y="-74.5" font-family="Helvetica,sans-Serif" font-size="10.00">queue</text>
</a>
</g>
</g>
<!-- Node9&#45;&gt;Node16 -->
<g id="edge18" class="edge">
<title>Node9&#45;&gt;Node16</title>
<path fill="none" stroke="midnightblue" d="M1750,-128.98C1750,-120.58 1750,-107.48 1750,-96.66"/>
<polygon fill="midnightblue" stroke="midnightblue" points="1753.5,-96.51 1750,-86.51 1746.5,-96.51 1753.5,-96.51"/>
</g>
<!-- Node17 -->
<g id="node17" class="node">
<title>Node17</title>
<g id="a_node17"><a xlink:title=" ">
<polygon fill="white" stroke="#bfbfbf" points="1594.5,-67.5 1594.5,-86.5 1635.5,-86.5 1635.5,-67.5 1594.5,-67.5"/>
<text text-anchor="middle" x="1615" y="-74.5" font-family="Helvetica,sans-Serif" font-size="10.00">string</text>
</a>
</g>
</g>
<!-- Node9&#45;&gt;Node17 -->
<g id="edge19" class="edge">
<title>Node9&#45;&gt;Node17</title>
<path fill="none" stroke="midnightblue" d="M1730.66,-128.98C1707.9,-118.95 1669.91,-102.2 1643.71,-90.65"/>
<polygon fill="midnightblue" stroke="midnightblue" points="1644.87,-87.34 1634.31,-86.51 1642.05,-93.74 1644.87,-87.34"/>
</g>
<!-- Node10&#45;&gt;Node4 -->
<g id="edge11" class="edge">
<title>Node10&#45;&gt;Node4</title>
<path fill="none" stroke="midnightblue" d="M769.48,-71.38C698.92,-61.04 527.87,-35.97 443.58,-23.62"/>
<polygon fill="midnightblue" stroke="midnightblue" points="443.9,-20.13 433.5,-22.14 442.89,-27.06 443.9,-20.13"/>
</g>
<!-- Node10&#45;&gt;Node7 -->
<g id="edge10" class="edge">
<title>Node10&#45;&gt;Node7</title>
<path fill="none" stroke="midnightblue" d="M786.1,-67.48C769.03,-57.71 740.84,-41.58 720.74,-30.08"/>
<polygon fill="midnightblue" stroke="midnightblue" points="722.29,-26.94 711.87,-25.01 718.81,-33.01 722.29,-26.94"/>
</g>
<!-- Node11 -->
<g id="node11" class="node">
<title>Node11</title>
<g id="a_node11"><a xlink:title=" ">
<polygon fill="white" stroke="#bfbfbf" points="750.5,-6 750.5,-25 879.5,-25 879.5,-6 750.5,-6"/>
<text text-anchor="middle" x="815" y="-13" font-family="Helvetica,sans-Serif" font-size="10.00">Poco/RefCountedObject.h</text>
</a>
</g>
</g>
<!-- Node10&#45;&gt;Node11 -->
<g id="edge12" class="edge">
<title>Node10&#45;&gt;Node11</title>
<path fill="none" stroke="midnightblue" d="M803.01,-67.48C805,-58.99 808.13,-45.7 810.69,-34.82"/>
<polygon fill="midnightblue" stroke="midnightblue" points="814.11,-35.54 813,-25.01 807.3,-33.94 814.11,-35.54"/>
</g>
<!-- Node13 -->
<g id="node13" class="node">
<title>Node13</title>
<g id="a_node13"><a xlink:title=" ">
<polygon fill="white" stroke="#bfbfbf" points="1515.5,-0.5 1515.5,-30.5 1616.5,-30.5 1616.5,-0.5 1515.5,-0.5"/>
<text text-anchor="start" x="1523.5" y="-18.5" font-family="Helvetica,sans-Serif" font-size="10.00">gradido_blockchain</text>
<text text-anchor="middle" x="1566" y="-7.5" font-family="Helvetica,sans-Serif" font-size="10.00">/MemoryManager.h</text>
</a>
</g>
</g>
<!-- Node12&#45;&gt;Node13 -->
<g id="edge14" class="edge">
<title>Node12&#45;&gt;Node13</title>
<path fill="none" stroke="midnightblue" d="M1799.89,-67.48C1754.59,-57.6 1679.45,-41.23 1626.59,-29.7"/>
<polygon fill="midnightblue" stroke="midnightblue" points="1627.17,-26.25 1616.66,-27.54 1625.68,-33.09 1627.17,-26.25"/>
</g>
<!-- Node14 -->
<g id="node14" class="node">
<title>Node14</title>
<g id="a_node14"><a xlink:title=" ">
<polygon fill="white" stroke="#bfbfbf" points="1813,-6 1813,-25 1865,-25 1865,-6 1813,-6"/>
<text text-anchor="middle" x="1839" y="-13" font-family="Helvetica,sans-Serif" font-size="10.00">assert.h</text>
</a>
</g>
</g>
<!-- Node12&#45;&gt;Node14 -->
<g id="edge15" class="edge">
<title>Node12&#45;&gt;Node14</title>
<path fill="none" stroke="midnightblue" d="M1839,-67.48C1839,-59.08 1839,-45.98 1839,-35.16"/>
<polygon fill="midnightblue" stroke="midnightblue" points="1842.5,-35.01 1839,-25.01 1835.5,-35.01 1842.5,-35.01"/>
</g>
<!-- Node19&#45;&gt;Node18 -->
<g id="edge22" class="edge">
<title>Node19&#45;&gt;Node18</title>
<path fill="none" stroke="midnightblue" d="M1681.05,-324.12C1701.68,-295.47 1751.45,-230.51 1806,-190 1828,-173.66 1856.12,-160.56 1877.87,-151.8"/>
<polygon fill="midnightblue" stroke="midnightblue" points="1879.33,-154.98 1887.37,-148.08 1876.78,-148.47 1879.33,-154.98"/>
</g>
<!-- Node20&#45;&gt;Node4 -->
<g id="edge25" class="edge">
<title>Node20&#45;&gt;Node4</title>
<path fill="none" stroke="midnightblue" d="M461.26,-336.41C317.85,-330.17 0,-305.77 0,-212 0,-212 0,-212 0,-137.5 0,-65.83 240.72,-32.32 346.32,-21.07"/>
<polygon fill="midnightblue" stroke="midnightblue" points="346.82,-24.53 356.41,-20.02 346.1,-17.57 346.82,-24.53"/>
</g>
<!-- Node20&#45;&gt;Node5 -->
<g id="edge71" class="edge">
<title>Node20&#45;&gt;Node5</title>
<path fill="none" stroke="midnightblue" d="M598.69,-337.94C750.1,-335.1 1105.04,-319.08 1179,-232 1196.36,-211.56 1190.22,-178.42 1183.85,-157.86"/>
<polygon fill="midnightblue" stroke="midnightblue" points="1187.08,-156.46 1180.53,-148.13 1180.45,-158.73 1187.08,-156.46"/>
</g>
<!-- Node21 -->
<g id="node21" class="node">
<title>Node21</title>
<g id="a_node21"><a xlink:title=" ">
<polygon fill="white" stroke="#bfbfbf" points="314.5,-268.5 314.5,-287.5 391.5,-287.5 391.5,-268.5 314.5,-268.5"/>
<text text-anchor="middle" x="353" y="-275.5" font-family="Helvetica,sans-Serif" font-size="10.00">Poco/Types.h</text>
</a>
</g>
</g>
<!-- Node20&#45;&gt;Node21 -->
<g id="edge24" class="edge">
<title>Node20&#45;&gt;Node21</title>
<path fill="none" stroke="midnightblue" d="M504.64,-329.98C474.02,-319.68 422.34,-302.31 387.95,-290.75"/>
<polygon fill="midnightblue" stroke="midnightblue" points="388.91,-287.38 378.31,-287.51 386.68,-294.01 388.91,-287.38"/>
</g>
<!-- Node22 -->
<g id="node22" class="node">
<title>Node22</title>
<g id="a_node22"><a xlink:title=" ">
<polygon fill="white" stroke="#bfbfbf" points="410,-268.5 410,-287.5 502,-287.5 502,-268.5 410,-268.5"/>
<text text-anchor="middle" x="456" y="-275.5" font-family="Helvetica,sans-Serif" font-size="10.00">Poco/DateTime.h</text>
</a>
</g>
</g>
<!-- Node20&#45;&gt;Node22 -->
<g id="edge26" class="edge">
<title>Node20&#45;&gt;Node22</title>
<path fill="none" stroke="midnightblue" d="M519.4,-329.98C507.75,-320.61 488.81,-305.38 474.67,-294.01"/>
<polygon fill="midnightblue" stroke="midnightblue" points="476.57,-291.05 466.58,-287.51 472.18,-296.5 476.57,-291.05"/>
</g>
<!-- Node23 -->
<g id="node23" class="node">
<title>Node23</title>
<g id="a_node23"><a xlink:href="_group_8h.html" target="_top" xlink:title=" ">
<polygon fill="white" stroke="black" points="558.5,-268.5 558.5,-287.5 661.5,-287.5 661.5,-268.5 558.5,-268.5"/>
<text text-anchor="middle" x="610" y="-275.5" font-family="Helvetica,sans-Serif" font-size="10.00">../controller/Group.h</text>
</a>
</g>
</g>
<!-- Node20&#45;&gt;Node23 -->
<g id="edge27" class="edge">
<title>Node20&#45;&gt;Node23</title>
<path fill="none" stroke="midnightblue" d="M541.46,-329.98C554.17,-320.52 574.91,-305.1 590.25,-293.69"/>
<polygon fill="midnightblue" stroke="midnightblue" points="592.62,-296.29 598.56,-287.51 588.45,-290.67 592.62,-296.29"/>
</g>
<!-- Node33 -->
<g id="node33" class="node">
<title>Node33</title>
<g id="a_node33"><a xlink:title=" ">
<polygon fill="white" stroke="#bfbfbf" points="28,-190.5 28,-231.5 148,-231.5 148,-190.5 28,-190.5"/>
<text text-anchor="start" x="36" y="-219.5" font-family="Helvetica,sans-Serif" font-size="10.00">gradido_blockchain</text>
<text text-anchor="start" x="36" y="-208.5" font-family="Helvetica,sans-Serif" font-size="10.00">/model/protobufWrapper</text>
<text text-anchor="middle" x="88" y="-197.5" font-family="Helvetica,sans-Serif" font-size="10.00">/GradidoBlock.h</text>
</a>
</g>
</g>
<!-- Node20&#45;&gt;Node33 -->
<g id="edge70" class="edge">
<title>Node20&#45;&gt;Node33</title>
<path fill="none" stroke="midnightblue" d="M530.52,-329.97C530.92,-314.88 529.34,-283.61 511,-268 451.63,-217.46 238.66,-246.22 162,-232 160.75,-231.77 159.49,-231.53 158.22,-231.27"/>
<polygon fill="midnightblue" stroke="midnightblue" points="158.9,-227.84 148.39,-229.17 157.44,-234.69 158.9,-227.84"/>
</g>
<!-- Node23&#45;&gt;Node2 -->
<g id="edge39" class="edge">
<title>Node23&#45;&gt;Node2</title>
<path fill="none" stroke="midnightblue" d="M661.7,-275.54C762,-272.14 989.8,-261.56 1179,-232 1193.46,-229.74 1209.11,-226.34 1222.99,-222.98"/>
<polygon fill="midnightblue" stroke="midnightblue" points="1223.88,-226.37 1232.74,-220.56 1222.19,-219.57 1223.88,-226.37"/>
</g>
<!-- Node23&#45;&gt;Node3 -->
<g id="edge28" class="edge">
<title>Node23&#45;&gt;Node3</title>
<path fill="none" stroke="midnightblue" d="M558.18,-269.77C469.51,-257.36 298.07,-233.23 297,-232 284.78,-217.89 289.73,-207.19 297,-190 303.09,-175.59 315.53,-163.27 326.71,-154.4"/>
<polygon fill="midnightblue" stroke="midnightblue" points="328.96,-157.09 334.89,-148.32 324.78,-151.48 328.96,-157.09"/>
</g>
<!-- Node23&#45;&gt;Node7 -->
<g id="edge64" class="edge">
<title>Node23&#45;&gt;Node7</title>
<path fill="none" stroke="midnightblue" d="M661.85,-275.37C770.51,-271.43 1014.16,-259.58 1039,-232 1051.49,-218.13 1051.4,-203.95 1039,-190 993.81,-139.15 786.61,-198.32 735,-154 725.89,-146.17 708.76,-71.24 701,-35.41"/>
<polygon fill="midnightblue" stroke="midnightblue" points="704.35,-34.33 698.83,-25.28 697.51,-35.79 704.35,-34.33"/>
</g>
<!-- Node24 -->
<g id="node24" class="node">
<title>Node24</title>
<g id="a_node24"><a xlink:href="controller_2_address_index_8h.html" target="_top" xlink:title=" ">
<polygon fill="white" stroke="black" points="318,-201.5 318,-220.5 402,-220.5 402,-201.5 318,-201.5"/>
<text text-anchor="middle" x="360" y="-208.5" font-family="Helvetica,sans-Serif" font-size="10.00">AddressIndex.h</text>
</a>
</g>
</g>
<!-- Node23&#45;&gt;Node24 -->
<g id="edge29" class="edge">
<title>Node23&#45;&gt;Node24</title>
<path fill="none" stroke="midnightblue" d="M562.83,-268.43C522.18,-260.54 462.13,-247.71 411,-232 404.04,-229.86 396.67,-227.21 389.78,-224.55"/>
<polygon fill="midnightblue" stroke="midnightblue" points="390.69,-221.14 380.1,-220.7 388.1,-227.65 390.69,-221.14"/>
</g>
<!-- Node26 -->
<g id="node26" class="node">
<title>Node26</title>
<g id="a_node26"><a xlink:title=" ">
<polygon fill="white" stroke="#bfbfbf" points="46.5,-129 46.5,-148 185.5,-148 185.5,-129 46.5,-129"/>
<text text-anchor="middle" x="116" y="-136" font-family="Helvetica,sans-Serif" font-size="10.00">Poco/AccessExpireCache.h</text>
</a>
</g>
</g>
<!-- Node23&#45;&gt;Node26 -->
<g id="edge67" class="edge">
<title>Node23&#45;&gt;Node26</title>
<path fill="none" stroke="midnightblue" d="M558.34,-270.78C461.35,-259.06 261.07,-234.64 254,-232 205.91,-214 157.98,-176.31 133.23,-155.01"/>
<polygon fill="midnightblue" stroke="midnightblue" points="135.31,-152.18 125.48,-148.22 130.7,-157.45 135.31,-152.18"/>
</g>
<!-- Node28 -->
<g id="node28" class="node">
<title>Node28</title>
<g id="a_node28"><a xlink:href="_task_observer_8h.html" target="_top" xlink:title=" ">
<polygon fill="white" stroke="black" points="1086,-201.5 1086,-220.5 1170,-220.5 1170,-201.5 1086,-201.5"/>
<text text-anchor="middle" x="1128" y="-208.5" font-family="Helvetica,sans-Serif" font-size="10.00">TaskObserver.h</text>
</a>
</g>
</g>
<!-- Node23&#45;&gt;Node28 -->
<g id="edge40" class="edge">
<title>Node23&#45;&gt;Node28</title>
<path fill="none" stroke="midnightblue" d="M661.58,-276.1C747.64,-273.67 925.52,-264.76 1072,-232 1080.76,-230.04 1090.03,-227.1 1098.46,-224.08"/>
<polygon fill="midnightblue" stroke="midnightblue" points="1099.74,-227.34 1107.88,-220.54 1097.28,-220.78 1099.74,-227.34"/>
</g>
<!-- Node29 -->
<g id="node29" class="node">
<title>Node29</title>
<g id="a_node29"><a xlink:title=" ">
<polygon fill="white" stroke="#bfbfbf" points="203.5,-129 203.5,-148 286.5,-148 286.5,-129 203.5,-129"/>
<text text-anchor="middle" x="245" y="-136" font-family="Helvetica,sans-Serif" font-size="10.00">Poco/AutoPtr.h</text>
</a>
</g>
</g>
<!-- Node23&#45;&gt;Node29 -->
<g id="edge65" class="edge">
<title>Node23&#45;&gt;Node29</title>
<path fill="none" stroke="midnightblue" d="M558.43,-269.92C467.17,-257.37 286.68,-232.51 286,-232 262.34,-214.17 252.06,-179.67 247.8,-158.22"/>
<polygon fill="midnightblue" stroke="midnightblue" points="251.2,-157.34 246.04,-148.09 244.3,-158.54 251.2,-157.34"/>
</g>
<!-- Node23&#45;&gt;Node33 -->
<g id="edge48" class="edge">
<title>Node23&#45;&gt;Node33</title>
<path fill="none" stroke="midnightblue" d="M558.14,-269.72C553.37,-269.11 548.6,-268.53 544,-268 374.59,-248.48 329.81,-262.36 162,-232 160.75,-231.77 159.49,-231.54 158.22,-231.29"/>
<polygon fill="midnightblue" stroke="midnightblue" points="158.89,-227.85 148.39,-229.22 157.45,-234.7 158.89,-227.85"/>
</g>
<!-- Node34 -->
<g id="node34" class="node">
<title>Node34</title>
<g id="a_node34"><a xlink:title=" ">
<polygon fill="white" stroke="#bfbfbf" points="420,-190.5 420,-231.5 540,-231.5 540,-190.5 420,-190.5"/>
<text text-anchor="start" x="428" y="-219.5" font-family="Helvetica,sans-Serif" font-size="10.00">gradido_blockchain</text>
<text text-anchor="start" x="428" y="-208.5" font-family="Helvetica,sans-Serif" font-size="10.00">/model/protobufWrapper</text>
<text text-anchor="middle" x="480" y="-197.5" font-family="Helvetica,sans-Serif" font-size="10.00">/GradidoTransaction.h</text>
</a>
</g>
</g>
<!-- Node23&#45;&gt;Node34 -->
<g id="edge49" class="edge">
<title>Node23&#45;&gt;Node34</title>
<path fill="none" stroke="midnightblue" d="M592.74,-268.37C576.35,-260.17 550.93,-247.47 528.38,-236.19"/>
<polygon fill="midnightblue" stroke="midnightblue" points="529.76,-232.97 519.25,-231.63 526.63,-239.23 529.76,-232.97"/>
</g>
<!-- Node35 -->
<g id="node35" class="node">
<title>Node35</title>
<g id="a_node35"><a xlink:href="_state_8h.html" target="_top" xlink:title=" ">
<polygon fill="white" stroke="black" points="450.5,-129 450.5,-148 557.5,-148 557.5,-129 450.5,-129"/>
<text text-anchor="middle" x="504" y="-136" font-family="Helvetica,sans-Serif" font-size="10.00">../model/files/State.h</text>
</a>
</g>
</g>
<!-- Node23&#45;&gt;Node35 -->
<g id="edge50" class="edge">
<title>Node23&#45;&gt;Node35</title>
<path fill="none" stroke="midnightblue" d="M558.34,-269.71C472.84,-257.58 311.03,-234.35 309,-232 296.82,-217.86 297.57,-204.76 309,-190 325.15,-169.13 390.05,-155.31 440.59,-147.49"/>
<polygon fill="midnightblue" stroke="midnightblue" points="441.12,-150.95 450.49,-146 440.08,-144.03 441.12,-150.95"/>
</g>
<!-- Node37 -->
<g id="node37" class="node">
<title>Node37</title>
<g id="a_node37"><a xlink:title=" ">
<polygon fill="white" stroke="#bfbfbf" points="558,-196 558,-226 662,-226 662,-196 558,-196"/>
<text text-anchor="start" x="566" y="-214" font-family="Helvetica,sans-Serif" font-size="10.00">gradido_blockchain</text>
<text text-anchor="middle" x="610" y="-203" font-family="Helvetica,sans-Serif" font-size="10.00">/http/JsonRequest.h</text>
</a>
</g>
</g>
<!-- Node23&#45;&gt;Node37 -->
<g id="edge54" class="edge">
<title>Node23&#45;&gt;Node37</title>
<path fill="none" stroke="midnightblue" d="M610,-268.23C610,-260.04 610,-247.42 610,-236.21"/>
<polygon fill="midnightblue" stroke="midnightblue" points="613.5,-236.09 610,-226.09 606.5,-236.09 613.5,-236.09"/>
</g>
<!-- Node38 -->
<g id="node38" class="node">
<title>Node38</title>
<g id="a_node38"><a xlink:href="_message_listener_8h.html" target="_top" xlink:title=" ">
<polygon fill="white" stroke="black" points="1425.5,-201.5 1425.5,-220.5 1552.5,-220.5 1552.5,-201.5 1425.5,-201.5"/>
<text text-anchor="middle" x="1489" y="-208.5" font-family="Helvetica,sans-Serif" font-size="10.00">../iota/MessageListener.h</text>
</a>
</g>
</g>
<!-- Node23&#45;&gt;Node38 -->
<g id="edge55" class="edge">
<title>Node23&#45;&gt;Node38</title>
<path fill="none" stroke="midnightblue" d="M661.87,-274.5C778.06,-268.73 1067.99,-253.29 1310,-232 1344.57,-228.96 1382.81,-224.8 1415.04,-221.05"/>
<polygon fill="midnightblue" stroke="midnightblue" points="1415.76,-224.49 1425.28,-219.86 1414.94,-217.54 1415.76,-224.49"/>
</g>
<!-- Node42 -->
<g id="node42" class="node">
<title>Node42</title>
<g id="a_node42"><a xlink:title=" ">
<polygon fill="white" stroke="#bfbfbf" points="680,-201.5 680,-220.5 746,-220.5 746,-201.5 680,-201.5"/>
<text text-anchor="middle" x="713" y="-208.5" font-family="Helvetica,sans-Serif" font-size="10.00">Poco/URI.h</text>
</a>
</g>
</g>
<!-- Node23&#45;&gt;Node42 -->
<g id="edge66" class="edge">
<title>Node23&#45;&gt;Node42</title>
<path fill="none" stroke="midnightblue" d="M623.89,-268.23C641.03,-257.42 670.4,-238.88 690.71,-226.07"/>
<polygon fill="midnightblue" stroke="midnightblue" points="692.74,-228.92 699.33,-220.63 689,-223 692.74,-228.92"/>
</g>
<!-- Node43 -->
<g id="node43" class="node">
<title>Node43</title>
<g id="a_node43"><a xlink:title=" ">
<polygon fill="white" stroke="#bfbfbf" points="764,-201.5 764,-220.5 870,-220.5 870,-201.5 764,-201.5"/>
<text text-anchor="middle" x="817" y="-208.5" font-family="Helvetica,sans-Serif" font-size="10.00">Poco/ExpireCache.h</text>
</a>
</g>
</g>
<!-- Node23&#45;&gt;Node43 -->
<g id="edge68" class="edge">
<title>Node23&#45;&gt;Node43</title>
<path fill="none" stroke="midnightblue" d="M637.83,-268.46C667.04,-259.48 714.29,-244.88 755,-232 763.45,-229.33 772.53,-226.42 781.07,-223.66"/>
<polygon fill="midnightblue" stroke="midnightblue" points="782.33,-226.93 790.77,-220.53 780.18,-220.27 782.33,-226.93"/>
</g>
<!-- Node44 -->
<g id="node44" class="node">
<title>Node44</title>
<g id="a_node44"><a xlink:title=" ">
<polygon fill="white" stroke="#bfbfbf" points="888.5,-196 888.5,-226 1029.5,-226 1029.5,-196 888.5,-196"/>
<text text-anchor="start" x="896.5" y="-214" font-family="Helvetica,sans-Serif" font-size="10.00">gradido_blockchain</text>
<text text-anchor="middle" x="959" y="-203" font-family="Helvetica,sans-Serif" font-size="10.00">/model/IGradidoBlockchain.h</text>
</a>
</g>
</g>
<!-- Node23&#45;&gt;Node44 -->
<g id="edge69" class="edge">
<title>Node23&#45;&gt;Node44</title>
<path fill="none" stroke="midnightblue" d="M661.54,-269.62C715.86,-261.55 803.79,-247.67 879,-232 884.34,-230.89 889.87,-229.66 895.41,-228.38"/>
<polygon fill="midnightblue" stroke="midnightblue" points="896.42,-231.74 905.34,-226.03 894.81,-224.93 896.42,-231.74"/>
</g>
<!-- Node24&#45;&gt;Node3 -->
<g id="edge30" class="edge">
<title>Node24&#45;&gt;Node3</title>
<path fill="none" stroke="midnightblue" d="M358.65,-201.36C356.99,-190.68 354.1,-172.22 351.92,-158.23"/>
<polygon fill="midnightblue" stroke="midnightblue" points="355.36,-157.56 350.36,-148.22 348.44,-158.64 355.36,-157.56"/>
</g>
<!-- Node24&#45;&gt;Node7 -->
<g id="edge32" class="edge">
<title>Node24&#45;&gt;Node7</title>
<path fill="none" stroke="midnightblue" d="M380.11,-201.33C389.4,-197.53 400.65,-193.21 411,-190 478.54,-169.03 511.19,-198.69 566,-154 598.98,-127.11 577.07,-98.21 606,-67 621.69,-50.07 644.38,-37.47 663.18,-29.08"/>
<polygon fill="midnightblue" stroke="midnightblue" points="664.76,-32.21 672.59,-25.08 662.02,-25.77 664.76,-32.21"/>
</g>
<!-- Node25 -->
<g id="node25" class="node">
<title>Node25</title>
<g id="a_node25"><a xlink:title=" ">
<polygon fill="white" stroke="#bfbfbf" points="614.5,-67.5 614.5,-86.5 697.5,-86.5 697.5,-67.5 614.5,-67.5"/>
<text text-anchor="middle" x="656" y="-74.5" font-family="Helvetica,sans-Serif" font-size="10.00">unordered_map</text>
</a>
</g>
</g>
<!-- Node24&#45;&gt;Node25 -->
<g id="edge31" class="edge">
<title>Node24&#45;&gt;Node25</title>
<path fill="none" stroke="midnightblue" d="M379.57,-201.34C388.94,-197.45 400.4,-193.06 411,-190 493.16,-166.29 527.64,-199.57 600,-154 622.26,-139.98 638.62,-113.67 647.73,-95.99"/>
<polygon fill="midnightblue" stroke="midnightblue" points="651,-97.25 652.24,-86.73 644.71,-94.18 651,-97.25"/>
</g>
<!-- Node24&#45;&gt;Node26 -->
<g id="edge33" class="edge">
<title>Node24&#45;&gt;Node26</title>
<path fill="none" stroke="midnightblue" d="M330.57,-201.5C286.69,-188.82 204.07,-164.95 155.14,-150.81"/>
<polygon fill="midnightblue" stroke="midnightblue" points="156.12,-147.45 145.54,-148.03 154.17,-154.17 156.12,-147.45"/>
</g>
<!-- Node27 -->
<g id="node27" class="node">
<title>Node27</title>
<g id="a_node27"><a xlink:href="model_2files_2_address_index_8h.html" target="_top" xlink:title=" ">
<polygon fill="white" stroke="black" points="743.5,-129 743.5,-148 886.5,-148 886.5,-129 743.5,-129"/>
<text text-anchor="middle" x="815" y="-136" font-family="Helvetica,sans-Serif" font-size="10.00">../model/files/AddressIndex.h</text>
</a>
</g>
</g>
<!-- Node24&#45;&gt;Node27 -->
<g id="edge34" class="edge">
<title>Node24&#45;&gt;Node27</title>
<path fill="none" stroke="midnightblue" d="M378.52,-201.45C388.04,-197.38 399.94,-192.81 411,-190 470.11,-174.97 633.12,-157.25 733.08,-147.3"/>
<polygon fill="midnightblue" stroke="midnightblue" points="733.54,-150.78 743.15,-146.31 732.85,-143.81 733.54,-150.78"/>
</g>
<!-- Node27&#45;&gt;Node6 -->
<g id="edge38" class="edge">
<title>Node27&#45;&gt;Node6</title>
<path fill="none" stroke="midnightblue" d="M862.09,-128.94C873.21,-126.95 885.02,-124.88 896,-123 987.28,-107.42 1095.7,-90.17 1145.5,-82.32"/>
<polygon fill="midnightblue" stroke="midnightblue" points="1146.15,-85.76 1155.48,-80.75 1145.06,-78.84 1146.15,-85.76"/>
</g>
<!-- Node27&#45;&gt;Node10 -->
<g id="edge35" class="edge">
<title>Node27&#45;&gt;Node10</title>
<path fill="none" stroke="midnightblue" d="M812.99,-128.98C811,-120.49 807.87,-107.2 805.31,-96.32"/>
<polygon fill="midnightblue" stroke="midnightblue" points="808.7,-95.44 803,-86.51 801.89,-97.04 808.7,-95.44"/>
</g>
<!-- Node27&#45;&gt;Node13 -->
<g id="edge36" class="edge">
<title>Node27&#45;&gt;Node13</title>
<path fill="none" stroke="midnightblue" d="M850.18,-128.95C910.57,-114.51 1038.01,-85.1 1147,-67 1273.85,-45.93 1423.69,-30.02 1505.38,-22.09"/>
<polygon fill="midnightblue" stroke="midnightblue" points="1505.87,-25.56 1515.49,-21.12 1505.2,-18.59 1505.87,-25.56"/>
</g>
<!-- Node27&#45;&gt;Node25 -->
<g id="edge37" class="edge">
<title>Node27&#45;&gt;Node25</title>
<path fill="none" stroke="midnightblue" d="M792.22,-128.98C764.95,-118.77 719.09,-101.61 688.2,-90.05"/>
<polygon fill="midnightblue" stroke="midnightblue" points="689.33,-86.74 678.74,-86.51 686.88,-93.29 689.33,-86.74"/>
</g>
<!-- Node28&#45;&gt;Node4 -->
<g id="edge41" class="edge">
<title>Node28&#45;&gt;Node4</title>
<path fill="none" stroke="midnightblue" d="M1095.68,-201.42C1078.89,-197.3 1057.97,-192.69 1039,-190 973.09,-180.67 493.83,-194.5 441,-154 403.8,-125.48 396.38,-65.7 395.1,-35.23"/>
<polygon fill="midnightblue" stroke="midnightblue" points="398.59,-35.02 394.86,-25.11 391.6,-35.19 398.59,-35.02"/>
</g>
<!-- Node28&#45;&gt;Node5 -->
<g id="edge46" class="edge">
<title>Node28&#45;&gt;Node5</title>
<path fill="none" stroke="midnightblue" d="M1134.01,-201.36C1141.72,-190.26 1155.29,-170.74 1165.12,-156.59"/>
<polygon fill="midnightblue" stroke="midnightblue" points="1168.11,-158.42 1170.94,-148.22 1162.36,-154.43 1168.11,-158.42"/>
</g>
<!-- Node28&#45;&gt;Node6 -->
<g id="edge47" class="edge">
<title>Node28&#45;&gt;Node6</title>
<path fill="none" stroke="midnightblue" d="M1128.99,-201.35C1131.01,-185.41 1136.34,-150.54 1147,-123 1150.75,-113.32 1156.37,-103.26 1161.44,-95.11"/>
<polygon fill="midnightblue" stroke="midnightblue" points="1164.48,-96.86 1166.97,-86.56 1158.6,-93.05 1164.48,-96.86"/>
</g>
<!-- Node28&#45;&gt;Node29 -->
<g id="edge42" class="edge">
<title>Node28&#45;&gt;Node29</title>
<path fill="none" stroke="midnightblue" d="M1096.11,-201.43C1079.26,-197.26 1058.15,-192.59 1039,-190 710.95,-145.54 621.54,-208.48 295,-154 290.13,-153.19 285.06,-152.06 280.1,-150.79"/>
<polygon fill="midnightblue" stroke="midnightblue" points="280.74,-147.34 270.17,-148.04 278.87,-154.08 280.74,-147.34"/>
</g>
<!-- Node30 -->
<g id="node30" class="node">
<title>Node30</title>
<g id="a_node30"><a xlink:title=" ">
<polygon fill="white" stroke="#bfbfbf" points="1000,-123.5 1000,-153.5 1100,-153.5 1100,-123.5 1000,-123.5"/>
<text text-anchor="start" x="1008" y="-141.5" font-family="Helvetica,sans-Serif" font-size="10.00">gradido_blockchain</text>
<text text-anchor="middle" x="1050" y="-130.5" font-family="Helvetica,sans-Serif" font-size="10.00">/lib/DRHashList.h</text>
</a>
</g>
</g>
<!-- Node28&#45;&gt;Node30 -->
<g id="edge43" class="edge">
<title>Node28&#45;&gt;Node30</title>
<path fill="none" stroke="midnightblue" d="M1118.44,-201.36C1107.21,-191.21 1088.21,-174.04 1073.08,-160.36"/>
<polygon fill="midnightblue" stroke="midnightblue" points="1075.34,-157.69 1065.57,-153.58 1070.65,-162.88 1075.34,-157.69"/>
</g>
<!-- Node31 -->
<g id="node31" class="node">
<title>Node31</title>
<g id="a_node31"><a xlink:title=" ">
<polygon fill="white" stroke="#bfbfbf" points="1292,-123.5 1292,-153.5 1422,-153.5 1422,-123.5 1292,-123.5"/>
<text text-anchor="start" x="1300" y="-141.5" font-family="Helvetica,sans-Serif" font-size="10.00">gradido_blockchain</text>
<text text-anchor="middle" x="1357" y="-130.5" font-family="Helvetica,sans-Serif" font-size="10.00">/lib/MultithreadContainer.h</text>
</a>
</g>
</g>
<!-- Node28&#45;&gt;Node31 -->
<g id="edge44" class="edge">
<title>Node28&#45;&gt;Node31</title>
<path fill="none" stroke="midnightblue" d="M1155.62,-201.5C1191.72,-190.38 1255.75,-170.67 1301.94,-156.45"/>
<polygon fill="midnightblue" stroke="midnightblue" points="1302.98,-159.79 1311.51,-153.51 1300.92,-153.1 1302.98,-159.79"/>
</g>
<!-- Node32 -->
<g id="node32" class="node">
<title>Node32</title>
<g id="a_node32"><a xlink:href="_task_8h.html" target="_top" xlink:title=" ">
<polygon fill="white" stroke="black" points="904.5,-129 904.5,-148 981.5,-148 981.5,-129 904.5,-129"/>
<text text-anchor="middle" x="943" y="-136" font-family="Helvetica,sans-Serif" font-size="10.00">../task/Task.h</text>
</a>
</g>
</g>
<!-- Node28&#45;&gt;Node32 -->
<g id="edge45" class="edge">
<title>Node28&#45;&gt;Node32</title>
<path fill="none" stroke="midnightblue" d="M1105.68,-201.5C1073.04,-189.06 1012.12,-165.84 974.8,-151.62"/>
<polygon fill="midnightblue" stroke="midnightblue" points="975.99,-148.32 965.39,-148.03 973.49,-154.87 975.99,-148.32"/>
</g>
<!-- Node35&#45;&gt;Node7 -->
<g id="edge53" class="edge">
<title>Node35&#45;&gt;Node7</title>
<path fill="none" stroke="midnightblue" d="M510.59,-128.54C521.77,-113.89 545.78,-84.69 572,-67 597.86,-49.55 630.68,-36.58 656.2,-28.15"/>
<polygon fill="midnightblue" stroke="midnightblue" points="657.49,-31.42 665.95,-25.04 655.36,-24.75 657.49,-31.42"/>
</g>
<!-- Node35&#45;&gt;Node10 -->
<g id="edge51" class="edge">
<title>Node35&#45;&gt;Node10</title>
<path fill="none" stroke="midnightblue" d="M546.55,-128.98C603.33,-117.6 703.22,-97.59 759.47,-86.32"/>
<polygon fill="midnightblue" stroke="midnightblue" points="760.33,-89.72 769.44,-84.32 758.95,-82.85 760.33,-89.72"/>
</g>
<!-- Node36 -->
<g id="node36" class="node">
<title>Node36</title>
<g id="a_node36"><a xlink:title=" ">
<polygon fill="white" stroke="#bfbfbf" points="452,-67.5 452,-86.5 520,-86.5 520,-67.5 452,-67.5"/>
<text text-anchor="middle" x="486" y="-74.5" font-family="Helvetica,sans-Serif" font-size="10.00">leveldb/db.h</text>
</a>
</g>
</g>
<!-- Node35&#45;&gt;Node36 -->
<g id="edge52" class="edge">
<title>Node35&#45;&gt;Node36</title>
<path fill="none" stroke="midnightblue" d="M501.42,-128.98C498.85,-120.49 494.83,-107.2 491.54,-96.32"/>
<polygon fill="midnightblue" stroke="midnightblue" points="494.82,-95.07 488.57,-86.51 488.12,-97.09 494.82,-95.07"/>
</g>
<!-- Node38&#45;&gt;Node5 -->
<g id="edge62" class="edge">
<title>Node38&#45;&gt;Node5</title>
<path fill="none" stroke="midnightblue" d="M1451.37,-201.5C1389.11,-187.43 1265.86,-159.58 1208.16,-146.54"/>
<polygon fill="midnightblue" stroke="midnightblue" points="1208.7,-143.08 1198.18,-144.29 1207.16,-149.9 1208.7,-143.08"/>
</g>
<!-- Node38&#45;&gt;Node6 -->
<g id="edge63" class="edge">
<title>Node38&#45;&gt;Node6</title>
<path fill="none" stroke="midnightblue" d="M1502.4,-201.3C1525.94,-184.98 1570.13,-149.08 1547,-123 1524.05,-97.13 1283.74,-83.29 1200.89,-79.26"/>
<polygon fill="midnightblue" stroke="midnightblue" points="1200.87,-75.76 1190.72,-78.78 1200.54,-82.75 1200.87,-75.76"/>
</g>
<!-- Node38&#45;&gt;Node18 -->
<g id="edge56" class="edge">
<title>Node38&#45;&gt;Node18</title>
<path fill="none" stroke="midnightblue" d="M1552.72,-202.53C1626.58,-193.36 1751.77,-176.25 1858,-154 1862.79,-153 1867.8,-151.82 1872.74,-150.59"/>
<polygon fill="midnightblue" stroke="midnightblue" points="1873.92,-153.9 1882.72,-148 1872.16,-147.12 1873.92,-153.9"/>
</g>
<!-- Node38&#45;&gt;Node31 -->
<g id="edge57" class="edge">
<title>Node38&#45;&gt;Node31</title>
<path fill="none" stroke="midnightblue" d="M1473.08,-201.5C1453.2,-190.88 1418.63,-172.42 1392.38,-158.39"/>
<polygon fill="midnightblue" stroke="midnightblue" points="1393.94,-155.26 1383.47,-153.64 1390.64,-161.44 1393.94,-155.26"/>
</g>
<!-- Node39 -->
<g id="node39" class="node">
<title>Node39</title>
<g id="a_node39"><a xlink:href="_fuzzy_timer_8h.html" target="_top" xlink:title=" ">
<polygon fill="white" stroke="black" points="1440,-129 1440,-148 1538,-148 1538,-129 1440,-129"/>
<text text-anchor="middle" x="1489" y="-136" font-family="Helvetica,sans-Serif" font-size="10.00">../lib/FuzzyTimer.h</text>
</a>
</g>
</g>
<!-- Node38&#45;&gt;Node39 -->
<g id="edge58" class="edge">
<title>Node38&#45;&gt;Node39</title>
<path fill="none" stroke="midnightblue" d="M1489,-201.36C1489,-190.68 1489,-172.22 1489,-158.23"/>
<polygon fill="midnightblue" stroke="midnightblue" points="1492.5,-158.22 1489,-148.22 1485.5,-158.22 1492.5,-158.22"/>
</g>
<!-- Node40 -->
<g id="node40" class="node">
<title>Node40</title>
<g id="a_node40"><a xlink:href="_message_id_8h.html" target="_top" xlink:title=" ">
<polygon fill="white" stroke="black" points="1594,-129 1594,-148 1666,-148 1666,-129 1594,-129"/>
<text text-anchor="middle" x="1630" y="-136" font-family="Helvetica,sans-Serif" font-size="10.00">MessageId.h</text>
</a>
</g>
</g>
<!-- Node38&#45;&gt;Node40 -->
<g id="edge59" class="edge">
<title>Node38&#45;&gt;Node40</title>
<path fill="none" stroke="midnightblue" d="M1506.01,-201.5C1530.36,-189.32 1575.36,-166.82 1603.93,-152.54"/>
<polygon fill="midnightblue" stroke="midnightblue" points="1605.55,-155.64 1612.93,-148.03 1602.42,-149.38 1605.55,-155.64"/>
</g>
<!-- Node40&#45;&gt;Node13 -->
<g id="edge61" class="edge">
<title>Node40&#45;&gt;Node13</title>
<path fill="none" stroke="midnightblue" d="M1620.19,-128.77C1610.21,-119.39 1594.97,-103.56 1586,-87 1578.18,-72.56 1573.16,-54.76 1570.1,-40.65"/>
<polygon fill="midnightblue" stroke="midnightblue" points="1573.51,-39.84 1568.14,-30.71 1566.64,-41.19 1573.51,-39.84"/>
</g>
<!-- Node41 -->
<g id="node41" class="node">
<title>Node41</title>
<g id="a_node41"><a xlink:title=" ">
<polygon fill="white" stroke="#bfbfbf" points="1488.5,-67.5 1488.5,-86.5 1537.5,-86.5 1537.5,-67.5 1488.5,-67.5"/>
<text text-anchor="middle" x="1513" y="-74.5" font-family="Helvetica,sans-Serif" font-size="10.00">cassert</text>
</a>
</g>
</g>
<!-- Node40&#45;&gt;Node41 -->
<g id="edge60" class="edge">
<title>Node40&#45;&gt;Node41</title>
<path fill="none" stroke="midnightblue" d="M1613.24,-128.98C1593.78,-119.08 1561.45,-102.64 1538.79,-91.12"/>
<polygon fill="midnightblue" stroke="midnightblue" points="1540.23,-87.92 1529.73,-86.51 1537.06,-94.16 1540.23,-87.92"/>
</g>
</g>
</svg>
