<?xml version="1.0" encoding="UTF-8" standalone="no"?>
<!DOCTYPE svg PUBLIC "-//W3C//DTD SVG 1.1//EN"
 "http://www.w3.org/Graphics/SVG/1.1/DTD/svg11.dtd">
<!-- Generated by graphviz version 2.50.0 (20211204.2007)
 -->
<!-- Title: src/controller/BlockIndex.h Pages: 1 -->
<!--zoomable 207 -->
<svg id="main" version="1.1" xmlns="http://www.w3.org/2000/svg" xmlns:xlink="http://www.w3.org/1999/xlink" xml:space="preserve" onload="init(evt)">
<style type="text/css"><![CDATA[
.edge:hover path { stroke: red; }
.edge:hover polygon { stroke: red; fill: red; }
]]></style>
<script type="text/javascript"><![CDATA[
var edges = document.getElementsByTagName('g');
if (edges && edges.length) {
  for (var i=0;i<edges.length;i++) {
    if (edges[i].id.substr(0,4)=='edge') {
      edges[i].setAttribute('class','edge');
    }
  }
}
]]></script>
        <defs>
                <circle id="rim" cx="0" cy="0" r="7"/>
                <circle id="rim2" cx="0" cy="0" r="3.5"/>
                <g id="zoomPlus">
                        <use xlink:href="#rim" fill="#404040">
                                <set attributeName="fill" to="#808080" begin="zoomplus.mouseover" end="zoomplus.mouseout"/>
                        </use>
                        <path d="M-4,0h8M0,-4v8" fill="none" stroke="white" stroke-width="1.5" pointer-events="none"/>
                </g>
                <g id="zoomMin">
                        <use xlink:href="#rim" fill="#404040">
                                <set attributeName="fill" to="#808080" begin="zoomminus.mouseover" end="zoomminus.mouseout"/>
                        </use>
                        <path d="M-4,0h8" fill="none" stroke="white" stroke-width="1.5" pointer-events="none"/>
                </g>
                <g id="dirArrow">
                        <path fill="none" stroke="white" stroke-width="1.5" d="M0,-3.0v7 M-2.5,-0.5L0,-3.0L2.5,-0.5"/>
                </g>
               <g id="resetDef">
                       <use xlink:href="#rim2" fill="#404040">
                               <set attributeName="fill" to="#808080" begin="reset.mouseover" end="reset.mouseout"/>
                       </use>
               </g>
        </defs>

<script type="text/javascript">
var viewWidth = 641;
var viewHeight = 207;
var sectionId = 'dynsection-0';
</script>
<script xlink:href="svgpan.js"/>
<svg id="graph" class="graph">
<g id="viewport">
<title>src/controller/BlockIndex.h</title>
<polygon fill="white" stroke="transparent" points="-4,4 -4,-203 637,-203 637,4 -4,4"/>
<!-- Node1 -->
<g id="node1" class="node">
<title>Node1</title>
<g id="a_node1"><a xlink:title=" ">
<polygon fill="#bfbfbf" stroke="black" points="173.5,-179.5 173.5,-198.5 305.5,-198.5 305.5,-179.5 173.5,-179.5"/>
<text text-anchor="middle" x="239.5" y="-186.5" font-family="Helvetica,sans-Serif" font-size="10.00">src/controller/BlockIndex.h</text>
</a>
</g>
</g>
<!-- Node2 -->
<g id="node2" class="node">
<title>Node2</title>
<g id="a_node2"><a xlink:href="_controller_base_8h.html" target="_top" xlink:title=" ">
<polygon fill="white" stroke="black" points="0,-123.5 0,-142.5 89,-142.5 89,-123.5 0,-123.5"/>
<text text-anchor="middle" x="44.5" y="-130.5" font-family="Helvetica,sans-Serif" font-size="10.00">ControllerBase.h</text>
</a>
</g>
</g>
<!-- Node1&#45;&gt;Node2 -->
<g id="edge1" class="edge">
<title>Node1&#45;&gt;Node2</title>
<path fill="none" stroke="midnightblue" d="M208.6,-179.44C175.23,-170.2 121.91,-155.44 85.15,-145.26"/>
<polygon fill="midnightblue" stroke="midnightblue" points="85.83,-141.81 75.25,-142.52 83.96,-148.56 85.83,-141.81"/>
</g>
<!-- Node4 -->
<g id="node4" class="node">
<title>Node4</title>
<g id="a_node4"><a xlink:title=" ">
<polygon fill="white" stroke="#bfbfbf" points="370.5,-123.5 370.5,-142.5 412.5,-142.5 412.5,-123.5 370.5,-123.5"/>
<text text-anchor="middle" x="391.5" y="-130.5" font-family="Helvetica,sans-Serif" font-size="10.00">vector</text>
</a>
</g>
</g>
<!-- Node1&#45;&gt;Node4 -->
<g id="edge3" class="edge">
<title>Node1&#45;&gt;Node4</title>
<path fill="none" stroke="midnightblue" d="M263.58,-179.44C289.94,-170.08 332.26,-155.05 360.94,-144.86"/>
<polygon fill="midnightblue" stroke="midnightblue" points="362.21,-148.12 370.46,-141.47 359.87,-141.52 362.21,-148.12"/>
</g>
<!-- Node5 -->
<g id="node5" class="node">
<title>Node5</title>
<g id="a_node5"><a xlink:title=" ">
<polygon fill="white" stroke="#bfbfbf" points="431,-123.5 431,-142.5 466,-142.5 466,-123.5 431,-123.5"/>
<text text-anchor="middle" x="448.5" y="-130.5" font-family="Helvetica,sans-Serif" font-size="10.00">map</text>
</a>
</g>
</g>
<!-- Node1&#45;&gt;Node5 -->
<g id="edge4" class="edge">
<title>Node1&#45;&gt;Node5</title>
<path fill="none" stroke="midnightblue" d="M277.73,-179.48C312.62,-171.49 365.81,-158.81 420.9,-142.99"/>
<polygon fill="midnightblue" stroke="midnightblue" points="422.21,-146.26 430.84,-140.11 420.27,-139.53 422.21,-146.26"/>
</g>
<!-- Node6 -->
<g id="node6" class="node">
<title>Node6</title>
<g id="a_node6"><a xlink:title=" ">
<polygon fill="white" stroke="#bfbfbf" points="151,-6 151,-25 222,-25 222,-6 151,-6"/>
<text text-anchor="middle" x="186.5" y="-13" font-family="Helvetica,sans-Serif" font-size="10.00">Poco/Path.h</text>
</a>
</g>
</g>
<!-- Node1&#45;&gt;Node6 -->
<g id="edge5" class="edge">
<title>Node1&#45;&gt;Node6</title>
<path fill="none" stroke="midnightblue" d="M225.04,-179.35C201.23,-164.17 154.63,-130.18 136.5,-87 127.56,-65.72 147.42,-44.56 164.69,-31.06"/>
<polygon fill="midnightblue" stroke="midnightblue" points="166.84,-33.82 172.83,-25.08 162.7,-28.18 166.84,-33.82"/>
</g>
<!-- Node7 -->
<g id="node7" class="node">
<title>Node7</title>
<g id="a_node7"><a xlink:title=" ">
<polygon fill="white" stroke="#bfbfbf" points="145.5,-67.5 145.5,-86.5 239.5,-86.5 239.5,-67.5 145.5,-67.5"/>
<text text-anchor="middle" x="192.5" y="-74.5" font-family="Helvetica,sans-Serif" font-size="10.00">Poco/SharedPtr.h</text>
</a>
</g>
</g>
<!-- Node1&#45;&gt;Node7 -->
<g id="edge6" class="edge">
<title>Node1&#45;&gt;Node7</title>
<path fill="none" stroke="midnightblue" d="M233.18,-179.43C226.94,-170.66 217.51,-156.44 211.5,-143 204.75,-127.91 199.68,-109.78 196.49,-96.51"/>
<polygon fill="midnightblue" stroke="midnightblue" points="199.88,-95.65 194.25,-86.68 193.06,-97.2 199.88,-95.65"/>
</g>
<!-- Node8 -->
<g id="node8" class="node">
<title>Node8</title>
<g id="a_node8"><a xlink:href="model_2files_2_block_index_8h.html" target="_top" xlink:title=" ">
<polygon fill="white" stroke="black" points="221,-123.5 221,-142.5 352,-142.5 352,-123.5 221,-123.5"/>
<text text-anchor="middle" x="286.5" y="-130.5" font-family="Helvetica,sans-Serif" font-size="10.00">../model/files/BlockIndex.h</text>
</a>
</g>
</g>
<!-- Node1&#45;&gt;Node8 -->
<g id="edge7" class="edge">
<title>Node1&#45;&gt;Node8</title>
<path fill="none" stroke="midnightblue" d="M247.26,-179.08C254.04,-171.3 264.04,-159.8 272.26,-150.37"/>
<polygon fill="midnightblue" stroke="midnightblue" points="274.96,-152.59 278.88,-142.75 269.68,-148 274.96,-152.59"/>
</g>
<!-- Node3 -->
<g id="node3" class="node">
<title>Node3</title>
<g id="a_node3"><a xlink:title=" ">
<polygon fill="white" stroke="#bfbfbf" points="35,-6 35,-25 112,-25 112,-6 35,-6"/>
<text text-anchor="middle" x="73.5" y="-13" font-family="Helvetica,sans-Serif" font-size="10.00">Poco/Mutex.h</text>
</a>
</g>
</g>
<!-- Node2&#45;&gt;Node3 -->
<g id="edge2" class="edge">
<title>Node2&#45;&gt;Node3</title>
<path fill="none" stroke="midnightblue" d="M46.68,-123.32C51.36,-104.67 62.47,-60.44 68.82,-35.13"/>
<polygon fill="midnightblue" stroke="midnightblue" points="72.25,-35.83 71.29,-25.28 65.47,-34.13 72.25,-35.83"/>
</g>
<!-- Node8&#45;&gt;Node7 -->
<g id="edge15" class="edge">
<title>Node8&#45;&gt;Node7</title>
<path fill="none" stroke="midnightblue" d="M271.4,-123.32C256.6,-114.82 233.81,-101.73 216.52,-91.8"/>
<polygon fill="midnightblue" stroke="midnightblue" points="217.98,-88.6 207.57,-86.65 214.49,-94.67 217.98,-88.6"/>
</g>
<!-- Node9 -->
<g id="node9" class="node">
<title>Node9</title>
<g id="a_node9"><a xlink:href="_file_base_8h.html" target="_top" xlink:title=" ">
<polygon fill="white" stroke="black" points="317,-67.5 317,-86.5 380,-86.5 380,-67.5 317,-67.5"/>
<text text-anchor="middle" x="348.5" y="-74.5" font-family="Helvetica,sans-Serif" font-size="10.00">FileBase.h</text>
</a>
</g>
</g>
<!-- Node8&#45;&gt;Node9 -->
<g id="edge8" class="edge">
<title>Node8&#45;&gt;Node9</title>
<path fill="none" stroke="midnightblue" d="M296.46,-123.32C305.63,-115.34 319.44,-103.31 330.53,-93.65"/>
<polygon fill="midnightblue" stroke="midnightblue" points="333.12,-96.04 338.36,-86.83 328.52,-90.76 333.12,-96.04"/>
</g>
<!-- Node11 -->
<g id="node11" class="node">
<title>Node11</title>
<g id="a_node11"><a xlink:href="_virtual_file_8h.html" target="_top" xlink:title=" ">
<polygon fill="white" stroke="black" points="398,-67.5 398,-86.5 497,-86.5 497,-67.5 398,-67.5"/>
<text text-anchor="middle" x="447.5" y="-74.5" font-family="Helvetica,sans-Serif" font-size="10.00">../../lib/VirtualFile.h</text>
</a>
</g>
</g>
<!-- Node8&#45;&gt;Node11 -->
<g id="edge12" class="edge">
<title>Node8&#45;&gt;Node11</title>
<path fill="none" stroke="midnightblue" d="M312.01,-123.44C339.1,-114.36 382.09,-99.94 412.37,-89.78"/>
<polygon fill="midnightblue" stroke="midnightblue" points="413.74,-93.01 422.11,-86.52 411.51,-86.38 413.74,-93.01"/>
</g>
<!-- Node14 -->
<g id="node14" class="node">
<title>Node14</title>
<g id="a_node14"><a xlink:title=" ">
<polygon fill="white" stroke="#bfbfbf" points="515.5,-67.5 515.5,-86.5 571.5,-86.5 571.5,-67.5 515.5,-67.5"/>
<text text-anchor="middle" x="543.5" y="-74.5" font-family="Helvetica,sans-Serif" font-size="10.00">sodium.h</text>
</a>
</g>
</g>
<!-- Node8&#45;&gt;Node14 -->
<g id="edge16" class="edge">
<title>Node8&#45;&gt;Node14</title>
<path fill="none" stroke="midnightblue" d="M330.85,-123.43C373.27,-115.12 439.27,-101.89 505.48,-87.17"/>
<polygon fill="midnightblue" stroke="midnightblue" points="506.25,-90.58 515.24,-84.99 504.72,-83.75 506.25,-90.58"/>
</g>
<!-- Node15 -->
<g id="node15" class="node">
<title>Node15</title>
<g id="a_node15"><a xlink:title=" ">
<polygon fill="white" stroke="#bfbfbf" points="590,-67.5 590,-86.5 633,-86.5 633,-67.5 590,-67.5"/>
<text text-anchor="middle" x="611.5" y="-74.5" font-family="Helvetica,sans-Serif" font-size="10.00">queue</text>
</a>
</g>
</g>
<!-- Node8&#45;&gt;Node15 -->
<g id="edge17" class="edge">
<title>Node8&#45;&gt;Node15</title>
<path fill="none" stroke="midnightblue" d="M348.59,-123.47C417.11,-113.89 524.05,-98.43 580.07,-86.79"/>
<polygon fill="midnightblue" stroke="midnightblue" points="580.88,-90.19 589.91,-84.66 579.4,-83.35 580.88,-90.19"/>
</g>
<!-- Node16 -->
<g id="node16" class="node">
<title>Node16</title>
<g id="a_node16"><a xlink:title=" ">
<polygon fill="white" stroke="#bfbfbf" points="258,-67.5 258,-86.5 299,-86.5 299,-67.5 258,-67.5"/>
<text text-anchor="middle" x="278.5" y="-74.5" font-family="Helvetica,sans-Serif" font-size="10.00">string</text>
</a>
</g>
</g>
<!-- Node8&#45;&gt;Node16 -->
<g id="edge18" class="edge">
<title>Node8&#45;&gt;Node16</title>
<path fill="none" stroke="midnightblue" d="M285.18,-123.08C284.12,-115.93 282.59,-105.64 281.27,-96.69"/>
<polygon fill="midnightblue" stroke="midnightblue" points="284.72,-96.13 279.8,-86.75 277.8,-97.16 284.72,-96.13"/>
</g>
<!-- Node9&#45;&gt;Node3 -->
<g id="edge10" class="edge">
<title>Node9&#45;&gt;Node3</title>
<path fill="none" stroke="midnightblue" d="M316.72,-69.01C313.6,-68.33 310.49,-67.65 307.5,-67 243.37,-53.04 169.32,-37.09 121.99,-26.91"/>
<polygon fill="midnightblue" stroke="midnightblue" points="122.53,-23.45 112.02,-24.77 121.06,-30.29 122.53,-23.45"/>
</g>
<!-- Node9&#45;&gt;Node6 -->
<g id="edge9" class="edge">
<title>Node9&#45;&gt;Node6</title>
<path fill="none" stroke="midnightblue" d="M325.29,-67.48C297.5,-57.27 250.78,-40.11 219.31,-28.55"/>
<polygon fill="midnightblue" stroke="midnightblue" points="220.26,-25.17 209.67,-25.01 217.85,-31.74 220.26,-25.17"/>
</g>
<!-- Node10 -->
<g id="node10" class="node">
<title>Node10</title>
<g id="a_node10"><a xlink:title=" ">
<polygon fill="white" stroke="#bfbfbf" points="250,-6 250,-25 379,-25 379,-6 250,-6"/>
<text text-anchor="middle" x="314.5" y="-13" font-family="Helvetica,sans-Serif" font-size="10.00">Poco/RefCountedObject.h</text>
</a>
</g>
</g>
<!-- Node9&#45;&gt;Node10 -->
<g id="edge11" class="edge">
<title>Node9&#45;&gt;Node10</title>
<path fill="none" stroke="midnightblue" d="M343.63,-67.48C338.63,-58.73 330.71,-44.87 324.39,-33.81"/>
<polygon fill="midnightblue" stroke="midnightblue" points="327.36,-31.96 319.36,-25.01 321.28,-35.43 327.36,-31.96"/>
</g>
<!-- Node12 -->
<g id="node12" class="node">
<title>Node12</title>
<g id="a_node12"><a xlink:title=" ">
<polygon fill="white" stroke="#bfbfbf" points="397,-0.5 397,-30.5 498,-30.5 498,-0.5 397,-0.5"/>
<text text-anchor="start" x="405" y="-18.5" font-family="Helvetica,sans-Serif" font-size="10.00">gradido_blockchain</text>
<text text-anchor="middle" x="447.5" y="-7.5" font-family="Helvetica,sans-Serif" font-size="10.00">/MemoryManager.h</text>
</a>
</g>
</g>
<!-- Node11&#45;&gt;Node12 -->
<g id="edge13" class="edge">
<title>Node11&#45;&gt;Node12</title>
<path fill="none" stroke="midnightblue" d="M447.5,-67.48C447.5,-60.47 447.5,-50.19 447.5,-40.7"/>
<polygon fill="midnightblue" stroke="midnightblue" points="451,-40.52 447.5,-30.52 444,-40.52 451,-40.52"/>
</g>
<!-- Node13 -->
<g id="node13" class="node">
<title>Node13</title>
<g id="a_node13"><a xlink:title=" ">
<polygon fill="white" stroke="#bfbfbf" points="516.5,-6 516.5,-25 568.5,-25 568.5,-6 516.5,-6"/>
<text text-anchor="middle" x="542.5" y="-13" font-family="Helvetica,sans-Serif" font-size="10.00">assert.h</text>
</a>
</g>
</g>
<!-- Node11&#45;&gt;Node13 -->
<g id="edge14" class="edge">
<title>Node11&#45;&gt;Node13</title>
<path fill="none" stroke="midnightblue" d="M461.11,-67.48C476.56,-57.8 501.99,-41.87 520.32,-30.39"/>
<polygon fill="midnightblue" stroke="midnightblue" points="522.3,-33.28 528.91,-25.01 518.58,-27.35 522.3,-33.28"/>
</g>
</g>
</svg>
        <g id="navigator" transform="translate(0 0)" fill="#404254">
                <rect fill="#f2f5e9" fill-opacity="0.5" stroke="#606060" stroke-width=".5" x="0" y="0" width="60" height="60"/>
                <use id="zoomplus" xlink:href="#zoomPlus" x="17" y="9" onmousedown="handleZoom(evt,'in')"/>
                <use id="zoomminus" xlink:href="#zoomMin" x="42" y="9" onmousedown="handleZoom(evt,'out')"/>
                <use id="reset" xlink:href="#resetDef" x="30" y="36" onmousedown="handleReset()"/>
                <g id="arrowUp" xlink:href="#dirArrow" transform="translate(30 24)" onmousedown="handlePan(0,-1)">
                  <use xlink:href="#rim" fill="#404040">
                        <set attributeName="fill" to="#808080" begin="arrowUp.mouseover" end="arrowUp.mouseout"/>
                  </use>
                  <path fill="none" stroke="white" stroke-width="1.5" d="M0,-3.0v7 M-2.5,-0.5L0,-3.0L2.5,-0.5"/>
                </g>
                <g id="arrowRight" xlink:href="#dirArrow" transform="rotate(90) translate(36 -43)" onmousedown="handlePan(1,0)">
                  <use xlink:href="#rim" fill="#404040">
                        <set attributeName="fill" to="#808080" begin="arrowRight.mouseover" end="arrowRight.mouseout"/>
                  </use>
                  <path fill="none" stroke="white" stroke-width="1.5" d="M0,-3.0v7 M-2.5,-0.5L0,-3.0L2.5,-0.5"/>
                </g>
                <g id="arrowDown" xlink:href="#dirArrow" transform="rotate(180) translate(-30 -48)" onmousedown="handlePan(0,1)">
                  <use xlink:href="#rim" fill="#404040">
                        <set attributeName="fill" to="#808080" begin="arrowDown.mouseover" end="arrowDown.mouseout"/>
                  </use>
                  <path fill="none" stroke="white" stroke-width="1.5" d="M0,-3.0v7 M-2.5,-0.5L0,-3.0L2.5,-0.5"/>
                </g>
                <g id="arrowLeft" xlink:href="#dirArrow" transform="rotate(270) translate(-36 17)" onmousedown="handlePan(-1,0)">
                  <use xlink:href="#rim" fill="#404040">
                        <set attributeName="fill" to="#808080" begin="arrowLeft.mouseover" end="arrowLeft.mouseout"/>
                  </use>
                  <path fill="none" stroke="white" stroke-width="1.5" d="M0,-3.0v7 M-2.5,-0.5L0,-3.0L2.5,-0.5"/>
                </g>
        </g>
        <svg viewBox="0 0 15 15" width="100%" height="30px" preserveAspectRatio="xMaxYMin meet">
         <g id="arrow_out" transform="scale(0.3 0.3)">
          <a xlink:href="controller_2_block_index_8h__incl_org.svg" target="_base">
           <rect id="button" ry="5" rx="5" y="6" x="6" height="38" width="38"
                fill="#f2f5e9" fill-opacity="0.5" stroke="#606060" stroke-width="1.0"/>
           <path id="arrow"
             d="M 11.500037,31.436501 C 11.940474,20.09759 22.043105,11.32322 32.158766,21.979434 L 37.068811,17.246167 C 37.068811,17.246167 37.088388,32 37.088388,32 L 22.160133,31.978069 C 22.160133,31.978069 26.997745,27.140456 26.997745,27.140456 C 18.528582,18.264221 13.291696,25.230495 11.500037,31.436501 z"
             style="fill:#404040;"/>
          </a>
         </g>
        </svg>
</svg>
