<?xml version="1.0" encoding="UTF-8" standalone="no"?>
<!DOCTYPE svg PUBLIC "-//W3C//DTD SVG 1.1//EN"
 "http://www.w3.org/Graphics/SVG/1.1/DTD/svg11.dtd">
<!-- Generated by graphviz version 2.50.0 (20211204.2007)
 -->
<!-- Title: src/controller/GroupIndex.h Pages: 1 -->
<svg width="2297pt" height="162pt"
 viewBox="0.00 0.00 2296.50 162.00" xmlns="http://www.w3.org/2000/svg" xmlns:xlink="http://www.w3.org/1999/xlink">
<g id="graph0" class="graph" transform="scale(1 1) rotate(0) translate(4 158)">
<title>src/controller/GroupIndex.h</title>
<polygon fill="white" stroke="transparent" points="-4,4 -4,-158 2292.5,-158 2292.5,4 -4,4"/>
<!-- Node1 -->
<g id="node1" class="node">
<title>Node1</title>
<g id="a_node1"><a xlink:title=" ">
<polygon fill="#bfbfbf" stroke="black" points="957,-134.5 957,-153.5 1091,-153.5 1091,-134.5 957,-134.5"/>
<text text-anchor="middle" x="1024" y="-141.5" font-family="Helvetica,sans-Serif" font-size="10.00">src/controller/GroupIndex.h</text>
</a>
</g>
</g>
<!-- Node2 -->
<g id="node2" class="node">
<title>Node2</title>
<g id="a_node2"><a xlink:href="_server_globals_8h.html" target="_top" xlink:title=" ">
<polygon fill="white" stroke="black" points="973.5,-73 973.5,-92 1074.5,-92 1074.5,-73 973.5,-73"/>
<text text-anchor="middle" x="1024" y="-80" font-family="Helvetica,sans-Serif" font-size="10.00">src/ServerGlobals.h</text>
</a>
</g>
</g>
<!-- Node1&#45;&gt;Node2 -->
<g id="edge1" class="edge">
<title>Node1&#45;&gt;Node2</title>
<path fill="none" stroke="midnightblue" d="M1024,-124.32C1024,-113.5 1024,-100.4 1024,-92.01"/>
<polygon fill="midnightblue" stroke="midnightblue" points="1020.5,-124.48 1024,-134.48 1027.5,-124.48 1020.5,-124.48"/>
</g>
<!-- Node9 -->
<g id="node9" class="node">
<title>Node9</title>
<g id="a_node9"><a xlink:href="controller_2_group_index_8cpp.html" target="_top" xlink:title=" ">
<polygon fill="white" stroke="black" points="0,-6 0,-25 144,-25 144,-6 0,-6"/>
<text text-anchor="middle" x="72" y="-13" font-family="Helvetica,sans-Serif" font-size="10.00">src/controller/GroupIndex.cpp</text>
</a>
</g>
</g>
<!-- Node1&#45;&gt;Node9 -->
<g id="edge22" class="edge">
<title>Node1&#45;&gt;Node9</title>
<path fill="none" stroke="midnightblue" d="M946.73,-134.36C794.51,-117.05 445.22,-75.92 153,-31 141.42,-29.22 128.95,-27.09 117.35,-25.02"/>
<polygon fill="midnightblue" stroke="midnightblue" points="946.58,-137.86 956.91,-135.51 947.37,-130.91 946.58,-137.86"/>
</g>
<!-- Node17 -->
<g id="node17" class="node">
<title>Node17</title>
<g id="a_node17"><a xlink:href="_group_manager_8h.html" target="_top" xlink:title=" ">
<polygon fill="white" stroke="black" points="1781.5,-67.5 1781.5,-97.5 1892.5,-97.5 1892.5,-67.5 1781.5,-67.5"/>
<text text-anchor="start" x="1789.5" y="-85.5" font-family="Helvetica,sans-Serif" font-size="10.00">src/SingletonManager</text>
<text text-anchor="middle" x="1837" y="-74.5" font-family="Helvetica,sans-Serif" font-size="10.00">/GroupManager.h</text>
</a>
</g>
</g>
<!-- Node1&#45;&gt;Node17 -->
<g id="edge16" class="edge">
<title>Node1&#45;&gt;Node17</title>
<path fill="none" stroke="midnightblue" d="M1101.66,-137.32C1264.83,-125.37 1639.88,-97.93 1781.49,-87.56"/>
<polygon fill="midnightblue" stroke="midnightblue" points="1100.94,-133.86 1091.22,-138.08 1101.45,-140.84 1100.94,-133.86"/>
</g>
<!-- Node3 -->
<g id="node3" class="node">
<title>Node3</title>
<g id="a_node3"><a xlink:href="_main_server_8cpp.html" target="_top" xlink:title=" ">
<polygon fill="white" stroke="black" points="1596,-6 1596,-25 1696,-25 1696,-6 1596,-6"/>
<text text-anchor="middle" x="1646" y="-13" font-family="Helvetica,sans-Serif" font-size="10.00">src/MainServer.cpp</text>
</a>
</g>
</g>
<!-- Node2&#45;&gt;Node3 -->
<g id="edge2" class="edge">
<title>Node2&#45;&gt;Node3</title>
<path fill="none" stroke="midnightblue" d="M1085.08,-79.06C1188.84,-74.23 1405.91,-61.19 1587,-31 1596.16,-29.47 1605.99,-27.28 1614.95,-25.07"/>
<polygon fill="midnightblue" stroke="midnightblue" points="1084.62,-75.57 1074.79,-79.52 1084.94,-82.57 1084.62,-75.57"/>
</g>
<!-- Node4 -->
<g id="node4" class="node">
<title>Node4</title>
<g id="a_node4"><a xlink:href="_server_globals_8cpp.html" target="_top" xlink:title=" ">
<polygon fill="white" stroke="black" points="448,-6 448,-25 560,-25 560,-6 448,-6"/>
<text text-anchor="middle" x="504" y="-13" font-family="Helvetica,sans-Serif" font-size="10.00">src/ServerGlobals.cpp</text>
</a>
</g>
</g>
<!-- Node2&#45;&gt;Node4 -->
<g id="edge3" class="edge">
<title>Node2&#45;&gt;Node4</title>
<path fill="none" stroke="midnightblue" d="M963.38,-76.8C876.06,-69.58 710,-54.1 570,-31 560.05,-29.36 549.33,-27.18 539.49,-25.02"/>
<polygon fill="midnightblue" stroke="midnightblue" points="963.12,-80.29 973.37,-77.62 963.69,-73.32 963.12,-80.29"/>
</g>
<!-- Node5 -->
<g id="node5" class="node">
<title>Node5</title>
<g id="a_node5"><a xlink:href="_global_state_manager_8cpp.html" target="_top" xlink:title=" ">
<polygon fill="white" stroke="black" points="578.5,-0.5 578.5,-30.5 705.5,-30.5 705.5,-0.5 578.5,-0.5"/>
<text text-anchor="start" x="586.5" y="-18.5" font-family="Helvetica,sans-Serif" font-size="10.00">src/SingletonManager</text>
<text text-anchor="middle" x="642" y="-7.5" font-family="Helvetica,sans-Serif" font-size="10.00">/GlobalStateManager.cpp</text>
</a>
</g>
</g>
<!-- Node2&#45;&gt;Node5 -->
<g id="edge4" class="edge">
<title>Node2&#45;&gt;Node5</title>
<path fill="none" stroke="midnightblue" d="M963.27,-72.2C900.88,-62.5 801.01,-46.57 715,-31 711.95,-30.45 708.83,-29.87 705.68,-29.28"/>
<polygon fill="midnightblue" stroke="midnightblue" points="962.91,-75.69 973.33,-73.76 963.98,-68.77 962.91,-75.69"/>
</g>
<!-- Node6 -->
<g id="node6" class="node">
<title>Node6</title>
<g id="a_node6"><a xlink:href="_group_manager_8cpp.html" target="_top" xlink:title=" ">
<polygon fill="white" stroke="black" points="1714.5,-0.5 1714.5,-30.5 1825.5,-30.5 1825.5,-0.5 1714.5,-0.5"/>
<text text-anchor="start" x="1722.5" y="-18.5" font-family="Helvetica,sans-Serif" font-size="10.00">src/SingletonManager</text>
<text text-anchor="middle" x="1770" y="-7.5" font-family="Helvetica,sans-Serif" font-size="10.00">/GroupManager.cpp</text>
</a>
</g>
</g>
<!-- Node2&#45;&gt;Node6 -->
<g id="edge5" class="edge">
<title>Node2&#45;&gt;Node6</title>
<path fill="none" stroke="midnightblue" d="M1084.72,-79.96C1204.13,-76.27 1477.65,-64.61 1705,-31 1708.09,-30.54 1711.25,-30.02 1714.43,-29.45"/>
<polygon fill="midnightblue" stroke="midnightblue" points="1084.57,-76.46 1074.68,-80.26 1084.78,-83.46 1084.57,-76.46"/>
</g>
<!-- Node7 -->
<g id="node7" class="node">
<title>Node7</title>
<g id="a_node7"><a xlink:href="controller_2_address_index_8cpp.html" target="_top" xlink:title=" ">
<polygon fill="white" stroke="black" points="724,-6 724,-25 878,-25 878,-6 724,-6"/>
<text text-anchor="middle" x="801" y="-13" font-family="Helvetica,sans-Serif" font-size="10.00">src/controller/AddressIndex.cpp</text>
</a>
</g>
</g>
<!-- Node2&#45;&gt;Node7 -->
<g id="edge6" class="edge">
<title>Node2&#45;&gt;Node7</title>
<path fill="none" stroke="midnightblue" d="M984.58,-70.01C940.45,-57.15 869.94,-36.59 830.38,-25.06"/>
<polygon fill="midnightblue" stroke="midnightblue" points="983.81,-73.43 994.39,-72.87 985.77,-66.71 983.81,-73.43"/>
</g>
<!-- Node8 -->
<g id="node8" class="node">
<title>Node8</title>
<g id="a_node8"><a xlink:href="_group_8cpp.html" target="_top" xlink:title=" ">
<polygon fill="white" stroke="black" points="1843.5,-6 1843.5,-25 1964.5,-25 1964.5,-6 1843.5,-6"/>
<text text-anchor="middle" x="1904" y="-13" font-family="Helvetica,sans-Serif" font-size="10.00">src/controller/Group.cpp</text>
</a>
</g>
</g>
<!-- Node2&#45;&gt;Node8 -->
<g id="edge7" class="edge">
<title>Node2&#45;&gt;Node8</title>
<path fill="none" stroke="midnightblue" d="M1084.71,-80.72C1220.02,-78.33 1556.38,-68.75 1835,-31 1845.92,-29.52 1857.69,-27.29 1868.36,-25.02"/>
<polygon fill="midnightblue" stroke="midnightblue" points="1084.49,-77.22 1074.55,-80.89 1084.61,-84.22 1084.49,-77.22"/>
</g>
<!-- Node2&#45;&gt;Node9 -->
<g id="edge8" class="edge">
<title>Node2&#45;&gt;Node9</title>
<path fill="none" stroke="midnightblue" d="M962.99,-80.46C820.64,-77.49 455.68,-66.74 153,-31 140.37,-29.51 126.74,-27.3 114.32,-25.06"/>
<polygon fill="midnightblue" stroke="midnightblue" points="963.18,-83.97 973.25,-80.67 963.33,-76.97 963.18,-83.97"/>
</g>
<!-- Node10 -->
<g id="node10" class="node">
<title>Node10</title>
<g id="a_node10"><a xlink:href="_h_t_t_p_api_8cpp.html" target="_top" xlink:title=" ">
<polygon fill="white" stroke="black" points="896.5,-6 896.5,-25 1005.5,-25 1005.5,-6 896.5,-6"/>
<text text-anchor="middle" x="951" y="-13" font-family="Helvetica,sans-Serif" font-size="10.00">src/iota/HTTPApi.cpp</text>
</a>
</g>
</g>
<!-- Node2&#45;&gt;Node10 -->
<g id="edge9" class="edge">
<title>Node2&#45;&gt;Node10</title>
<path fill="none" stroke="midnightblue" d="M1006.43,-65.86C992.08,-53.08 972.33,-35.49 960.69,-25.13"/>
<polygon fill="midnightblue" stroke="midnightblue" points="1004.36,-68.7 1014.15,-72.73 1009.01,-63.47 1004.36,-68.7"/>
</g>
<!-- Node11 -->
<g id="node11" class="node">
<title>Node11</title>
<g id="a_node11"><a xlink:href="_message_validator_8cpp.html" target="_top" xlink:title=" ">
<polygon fill="white" stroke="black" points="1023.5,-6 1023.5,-25 1172.5,-25 1172.5,-6 1023.5,-6"/>
<text text-anchor="middle" x="1098" y="-13" font-family="Helvetica,sans-Serif" font-size="10.00">src/iota/MessageValidator.cpp</text>
</a>
</g>
</g>
<!-- Node2&#45;&gt;Node11 -->
<g id="edge10" class="edge">
<title>Node2&#45;&gt;Node11</title>
<path fill="none" stroke="midnightblue" d="M1041.81,-65.86C1056.36,-53.08 1076.38,-35.49 1088.18,-25.13"/>
<polygon fill="midnightblue" stroke="midnightblue" points="1039.18,-63.5 1033.98,-72.73 1043.8,-68.76 1039.18,-63.5"/>
</g>
<!-- Node12 -->
<g id="node12" class="node">
<title>Node12</title>
<g id="a_node12"><a xlink:href="main_8cpp.html" target="_top" xlink:title=" ">
<polygon fill="white" stroke="black" points="1190.5,-6 1190.5,-25 1263.5,-25 1263.5,-6 1190.5,-6"/>
<text text-anchor="middle" x="1227" y="-13" font-family="Helvetica,sans-Serif" font-size="10.00">src/main.cpp</text>
</a>
</g>
</g>
<!-- Node2&#45;&gt;Node12 -->
<g id="edge11" class="edge">
<title>Node2&#45;&gt;Node12</title>
<path fill="none" stroke="midnightblue" d="M1060.66,-69.81C1092.69,-59.59 1140.43,-44.34 1182,-31 1187.94,-29.09 1194.32,-27.04 1200.35,-25.1"/>
<polygon fill="midnightblue" stroke="midnightblue" points="1059.31,-66.57 1050.84,-72.94 1061.43,-73.24 1059.31,-66.57"/>
</g>
<!-- Node13 -->
<g id="node13" class="node">
<title>Node13</title>
<g id="a_node13"><a xlink:href="model_2files_2_block_8cpp.html" target="_top" xlink:title=" ">
<polygon fill="white" stroke="black" points="1282,-6 1282,-25 1408,-25 1408,-6 1282,-6"/>
<text text-anchor="middle" x="1345" y="-13" font-family="Helvetica,sans-Serif" font-size="10.00">src/model/files/Block.cpp</text>
</a>
</g>
</g>
<!-- Node2&#45;&gt;Node13 -->
<g id="edge12" class="edge">
<title>Node2&#45;&gt;Node13</title>
<path fill="none" stroke="midnightblue" d="M1076.45,-70.88C1139.67,-58.08 1244.65,-36.82 1302.87,-25.03"/>
<polygon fill="midnightblue" stroke="midnightblue" points="1075.4,-67.52 1066.3,-72.94 1076.79,-74.38 1075.4,-67.52"/>
</g>
<!-- Node14 -->
<g id="node14" class="node">
<title>Node14</title>
<g id="a_node14"><a xlink:href="model_2files_2_group_index_8cpp.html" target="_top" xlink:title=" ">
<polygon fill="white" stroke="black" points="1426.5,-6 1426.5,-25 1577.5,-25 1577.5,-6 1426.5,-6"/>
<text text-anchor="middle" x="1502" y="-13" font-family="Helvetica,sans-Serif" font-size="10.00">src/model/files/GroupIndex.cpp</text>
</a>
</g>
</g>
<!-- Node2&#45;&gt;Node14 -->
<g id="edge13" class="edge">
<title>Node2&#45;&gt;Node14</title>
<path fill="none" stroke="midnightblue" d="M1084.69,-74.49C1161.99,-65.37 1299.64,-48.54 1417,-31 1428.99,-29.21 1441.91,-27.1 1453.96,-25.05"/>
<polygon fill="midnightblue" stroke="midnightblue" points="1084.18,-71.02 1074.65,-75.67 1084.99,-77.98 1084.18,-71.02"/>
</g>
<!-- Node15 -->
<g id="node15" class="node">
<title>Node15</title>
<g id="a_node15"><a xlink:href="_c_p_u_task_8cpp.html" target="_top" xlink:title=" ">
<polygon fill="white" stroke="black" points="162.5,-6 162.5,-25 277.5,-25 277.5,-6 162.5,-6"/>
<text text-anchor="middle" x="220" y="-13" font-family="Helvetica,sans-Serif" font-size="10.00">src/task/CPUTask.cpp</text>
</a>
</g>
</g>
<!-- Node2&#45;&gt;Node15 -->
<g id="edge14" class="edge">
<title>Node2&#45;&gt;Node15</title>
<path fill="none" stroke="midnightblue" d="M962.99,-80.3C836.4,-77.16 536.18,-66.31 287,-31 276.51,-29.51 265.22,-27.31 254.95,-25.06"/>
<polygon fill="midnightblue" stroke="midnightblue" points="963.17,-83.81 973.25,-80.55 963.34,-76.81 963.17,-83.81"/>
</g>
<!-- Node16 -->
<g id="node16" class="node">
<title>Node16</title>
<g id="a_node16"><a xlink:href="_write_transactions_to_block_task_8cpp.html" target="_top" xlink:title=" ">
<polygon fill="white" stroke="black" points="296,-0.5 296,-30.5 430,-30.5 430,-0.5 296,-0.5"/>
<text text-anchor="start" x="304" y="-18.5" font-family="Helvetica,sans-Serif" font-size="10.00">src/task/WriteTransactions</text>
<text text-anchor="middle" x="363" y="-7.5" font-family="Helvetica,sans-Serif" font-size="10.00">ToBlockTask.cpp</text>
</a>
</g>
</g>
<!-- Node2&#45;&gt;Node16 -->
<g id="edge15" class="edge">
<title>Node2&#45;&gt;Node16</title>
<path fill="none" stroke="midnightblue" d="M963.09,-78.3C856.49,-72.25 629.32,-57.3 439,-31 436.07,-30.6 433.09,-30.15 430.08,-29.68"/>
<polygon fill="midnightblue" stroke="midnightblue" points="963.15,-81.81 973.33,-78.88 963.55,-74.82 963.15,-81.81"/>
</g>
<!-- Node17&#45;&gt;Node3 -->
<g id="edge18" class="edge">
<title>Node17&#45;&gt;Node3</title>
<path fill="none" stroke="midnightblue" d="M1785.89,-64.11C1748.74,-51.46 1700.05,-34.89 1671,-25.01"/>
<polygon fill="midnightblue" stroke="midnightblue" points="1784.96,-67.49 1795.56,-67.4 1787.22,-60.86 1784.96,-67.49"/>
</g>
<!-- Node17&#45;&gt;Node6 -->
<g id="edge19" class="edge">
<title>Node17&#45;&gt;Node6</title>
<path fill="none" stroke="midnightblue" d="M1815.16,-60.31C1805.11,-50.56 1793.46,-39.26 1784.51,-30.58"/>
<polygon fill="midnightblue" stroke="midnightblue" points="1812.85,-62.94 1822.46,-67.4 1817.72,-57.92 1812.85,-62.94"/>
</g>
<!-- Node17&#45;&gt;Node8 -->
<g id="edge20" class="edge">
<title>Node17&#45;&gt;Node8</title>
<path fill="none" stroke="midnightblue" d="M1858.82,-60.34C1871.12,-48.4 1885.82,-34.14 1895.04,-25.19"/>
<polygon fill="midnightblue" stroke="midnightblue" points="1856.28,-57.92 1851.54,-67.4 1861.15,-62.94 1856.28,-57.92"/>
</g>
<!-- Node18 -->
<g id="node18" class="node">
<title>Node18</title>
<g id="a_node18"><a xlink:href="_json_r_p_c_handler_8cpp.html" target="_top" xlink:title=" ">
<polygon fill="white" stroke="black" points="1983,-0.5 1983,-30.5 2099,-30.5 2099,-0.5 1983,-0.5"/>
<text text-anchor="start" x="1991" y="-18.5" font-family="Helvetica,sans-Serif" font-size="10.00">src/JSONRPCInterface</text>
<text text-anchor="middle" x="2041" y="-7.5" font-family="Helvetica,sans-Serif" font-size="10.00">/JsonRPCHandler.cpp</text>
</a>
</g>
</g>
<!-- Node17&#45;&gt;Node18 -->
<g id="edge17" class="edge">
<title>Node17&#45;&gt;Node18</title>
<path fill="none" stroke="midnightblue" d="M1890.96,-64.31C1923.96,-53.79 1965.66,-40.51 1996.71,-30.61"/>
<polygon fill="midnightblue" stroke="midnightblue" points="1889.48,-61.11 1881.01,-67.48 1891.6,-67.77 1889.48,-61.11"/>
</g>
<!-- Node19 -->
<g id="node19" class="node">
<title>Node19</title>
<g id="a_node19"><a xlink:href="_iota_message_to_transaction_task_8cpp.html" target="_top" xlink:title=" ">
<polygon fill="white" stroke="black" points="2117.5,-0.5 2117.5,-30.5 2288.5,-30.5 2288.5,-0.5 2117.5,-0.5"/>
<text text-anchor="start" x="2125.5" y="-18.5" font-family="Helvetica,sans-Serif" font-size="10.00">src/task/IotaMessageToTransaction</text>
<text text-anchor="middle" x="2203" y="-7.5" font-family="Helvetica,sans-Serif" font-size="10.00">Task.cpp</text>
</a>
</g>
</g>
<!-- Node17&#45;&gt;Node19 -->
<g id="edge21" class="edge">
<title>Node17&#45;&gt;Node19</title>
<path fill="none" stroke="midnightblue" d="M1902.66,-69.84C1964.75,-58.81 2058,-42.25 2124.11,-30.51"/>
<polygon fill="midnightblue" stroke="midnightblue" points="1901.82,-66.43 1892.59,-71.63 1903.05,-73.33 1901.82,-66.43"/>
</g>
</g>
</svg>
