<?xml version="1.0" encoding="UTF-8" standalone="no"?>
<!DOCTYPE svg PUBLIC "-//W3C//DTD SVG 1.1//EN"
 "http://www.w3.org/Graphics/SVG/1.1/DTD/svg11.dtd">
<!-- Generated by graphviz version 2.50.0 (20211204.2007)
 -->
<!-- Title: src/controller/AddressIndex.h Pages: 1 -->
<svg width="515pt" height="207pt"
 viewBox="0.00 0.00 515.00 207.00" xmlns="http://www.w3.org/2000/svg" xmlns:xlink="http://www.w3.org/1999/xlink">
<g id="graph0" class="graph" transform="scale(1 1) rotate(0) translate(4 203)">
<title>src/controller/AddressIndex.h</title>
<polygon fill="white" stroke="transparent" points="-4,4 -4,-203 511,-203 511,4 -4,4"/>
<!-- Node1 -->
<g id="node1" class="node">
<title>Node1</title>
<g id="a_node1"><a xlink:title=" ">
<polygon fill="#bfbfbf" stroke="black" points="107,-179.5 107,-198.5 250,-198.5 250,-179.5 107,-179.5"/>
<text text-anchor="middle" x="178.5" y="-186.5" font-family="Helvetica,sans-Serif" font-size="10.00">src/controller/AddressIndex.h</text>
</a>
</g>
</g>
<!-- Node2 -->
<g id="node2" class="node">
<title>Node2</title>
<g id="a_node2"><a xlink:href="_controller_base_8h.html" target="_top" xlink:title=" ">
<polygon fill="white" stroke="black" points="0,-123.5 0,-142.5 89,-142.5 89,-123.5 0,-123.5"/>
<text text-anchor="middle" x="44.5" y="-130.5" font-family="Helvetica,sans-Serif" font-size="10.00">ControllerBase.h</text>
</a>
</g>
</g>
<!-- Node1&#45;&gt;Node2 -->
<g id="edge1" class="edge">
<title>Node1&#45;&gt;Node2</title>
<path fill="none" stroke="midnightblue" d="M157.27,-179.44C135.12,-170.52 100.18,-156.44 75.06,-146.32"/>
<polygon fill="midnightblue" stroke="midnightblue" points="76.22,-143.01 65.63,-142.52 73.6,-149.5 76.22,-143.01"/>
</g>
<!-- Node4 -->
<g id="node4" class="node">
<title>Node4</title>
<g id="a_node4"><a xlink:title=" ">
<polygon fill="white" stroke="#bfbfbf" points="146,-62 146,-81 229,-81 229,-62 146,-62"/>
<text text-anchor="middle" x="187.5" y="-69" font-family="Helvetica,sans-Serif" font-size="10.00">unordered_map</text>
</a>
</g>
</g>
<!-- Node1&#45;&gt;Node4 -->
<g id="edge3" class="edge">
<title>Node1&#45;&gt;Node4</title>
<path fill="none" stroke="midnightblue" d="M179.18,-179.32C180.62,-160.76 184.05,-116.84 186.02,-91.47"/>
<polygon fill="midnightblue" stroke="midnightblue" points="189.53,-91.52 186.82,-81.28 182.55,-90.98 189.53,-91.52"/>
</g>
<!-- Node5 -->
<g id="node5" class="node">
<title>Node5</title>
<g id="a_node5"><a xlink:title=" ">
<polygon fill="white" stroke="#bfbfbf" points="122,-0.5 122,-19.5 193,-19.5 193,-0.5 122,-0.5"/>
<text text-anchor="middle" x="157.5" y="-7.5" font-family="Helvetica,sans-Serif" font-size="10.00">Poco/Path.h</text>
</a>
</g>
</g>
<!-- Node1&#45;&gt;Node5 -->
<g id="edge4" class="edge">
<title>Node1&#45;&gt;Node5</title>
<path fill="none" stroke="midnightblue" d="M173.57,-179.45C164.11,-162.5 143.71,-123.13 136.5,-87 133.8,-73.49 133.52,-69.45 136.5,-56 138.62,-46.43 143.01,-36.48 147.22,-28.37"/>
<polygon fill="midnightblue" stroke="midnightblue" points="150.32,-30 152.12,-19.56 144.2,-26.6 150.32,-30"/>
</g>
<!-- Node6 -->
<g id="node6" class="node">
<title>Node6</title>
<g id="a_node6"><a xlink:title=" ">
<polygon fill="white" stroke="#bfbfbf" points="368,-123.5 368,-142.5 507,-142.5 507,-123.5 368,-123.5"/>
<text text-anchor="middle" x="437.5" y="-130.5" font-family="Helvetica,sans-Serif" font-size="10.00">Poco/AccessExpireCache.h</text>
</a>
</g>
</g>
<!-- Node1&#45;&gt;Node6 -->
<g id="edge5" class="edge">
<title>Node1&#45;&gt;Node6</title>
<path fill="none" stroke="midnightblue" d="M219.54,-179.44C264.82,-170 337.73,-154.8 386.61,-144.61"/>
<polygon fill="midnightblue" stroke="midnightblue" points="387.58,-147.98 396.65,-142.52 386.15,-141.13 387.58,-147.98"/>
</g>
<!-- Node7 -->
<g id="node7" class="node">
<title>Node7</title>
<g id="a_node7"><a xlink:href="model_2files_2_address_index_8h.html" target="_top" xlink:title=" ">
<polygon fill="white" stroke="black" points="207,-123.5 207,-142.5 350,-142.5 350,-123.5 207,-123.5"/>
<text text-anchor="middle" x="278.5" y="-130.5" font-family="Helvetica,sans-Serif" font-size="10.00">../model/files/AddressIndex.h</text>
</a>
</g>
</g>
<!-- Node1&#45;&gt;Node7 -->
<g id="edge6" class="edge">
<title>Node1&#45;&gt;Node7</title>
<path fill="none" stroke="midnightblue" d="M194.57,-179.32C210.46,-170.74 235.01,-157.49 253.46,-147.52"/>
<polygon fill="midnightblue" stroke="midnightblue" points="255.34,-150.49 262.47,-142.65 252.01,-144.33 255.34,-150.49"/>
</g>
<!-- Node3 -->
<g id="node3" class="node">
<title>Node3</title>
<g id="a_node3"><a xlink:title=" ">
<polygon fill="white" stroke="#bfbfbf" points="21,-0.5 21,-19.5 98,-19.5 98,-0.5 21,-0.5"/>
<text text-anchor="middle" x="59.5" y="-7.5" font-family="Helvetica,sans-Serif" font-size="10.00">Poco/Mutex.h</text>
</a>
</g>
</g>
<!-- Node2&#45;&gt;Node3 -->
<g id="edge2" class="edge">
<title>Node2&#45;&gt;Node3</title>
<path fill="none" stroke="midnightblue" d="M45.58,-123.3C47.99,-103.85 53.86,-56.49 57.16,-29.9"/>
<polygon fill="midnightblue" stroke="midnightblue" points="60.67,-29.98 58.43,-19.62 53.73,-29.12 60.67,-29.98"/>
</g>
<!-- Node7&#45;&gt;Node4 -->
<g id="edge12" class="edge">
<title>Node7&#45;&gt;Node4</title>
<path fill="none" stroke="midnightblue" d="M265.46,-123.48C250.73,-113.84 226.53,-98.02 208.99,-86.55"/>
<polygon fill="midnightblue" stroke="midnightblue" points="210.8,-83.55 200.51,-81.01 206.97,-89.41 210.8,-83.55"/>
</g>
<!-- Node8 -->
<g id="node8" class="node">
<title>Node8</title>
<g id="a_node8"><a xlink:href="_file_base_8h.html" target="_top" xlink:title=" ">
<polygon fill="white" stroke="black" points="247,-62 247,-81 310,-81 310,-62 247,-62"/>
<text text-anchor="middle" x="278.5" y="-69" font-family="Helvetica,sans-Serif" font-size="10.00">FileBase.h</text>
</a>
</g>
</g>
<!-- Node7&#45;&gt;Node8 -->
<g id="edge7" class="edge">
<title>Node7&#45;&gt;Node8</title>
<path fill="none" stroke="midnightblue" d="M278.5,-123.48C278.5,-115.08 278.5,-101.98 278.5,-91.16"/>
<polygon fill="midnightblue" stroke="midnightblue" points="282,-91.01 278.5,-81.01 275,-91.01 282,-91.01"/>
</g>
<!-- Node10 -->
<g id="node10" class="node">
<title>Node10</title>
<g id="a_node10"><a xlink:title=" ">
<polygon fill="white" stroke="#bfbfbf" points="328,-56.5 328,-86.5 429,-86.5 429,-56.5 328,-56.5"/>
<text text-anchor="start" x="336" y="-74.5" font-family="Helvetica,sans-Serif" font-size="10.00">gradido_blockchain</text>
<text text-anchor="middle" x="378.5" y="-63.5" font-family="Helvetica,sans-Serif" font-size="10.00">/MemoryManager.h</text>
</a>
</g>
</g>
<!-- Node7&#45;&gt;Node10 -->
<g id="edge11" class="edge">
<title>Node7&#45;&gt;Node10</title>
<path fill="none" stroke="midnightblue" d="M292.83,-123.48C306.62,-115.27 327.98,-102.56 345.92,-91.88"/>
<polygon fill="midnightblue" stroke="midnightblue" points="348.13,-94.64 354.93,-86.52 344.55,-88.63 348.13,-94.64"/>
</g>
<!-- Node11 -->
<g id="node11" class="node">
<title>Node11</title>
<g id="a_node11"><a xlink:title=" ">
<polygon fill="white" stroke="#bfbfbf" points="447,-62 447,-81 482,-81 482,-62 447,-62"/>
<text text-anchor="middle" x="464.5" y="-69" font-family="Helvetica,sans-Serif" font-size="10.00">map</text>
</a>
</g>
</g>
<!-- Node7&#45;&gt;Node11 -->
<g id="edge13" class="edge">
<title>Node7&#45;&gt;Node11</title>
<path fill="none" stroke="midnightblue" d="M318.83,-123.43C351.72,-115.79 399.02,-103.29 438.5,-87 439.5,-86.59 440.52,-86.14 441.53,-85.68"/>
<polygon fill="midnightblue" stroke="midnightblue" points="443.18,-88.76 450.5,-81.1 440,-82.53 443.18,-88.76"/>
</g>
<!-- Node8&#45;&gt;Node3 -->
<g id="edge9" class="edge">
<title>Node8&#45;&gt;Node3</title>
<path fill="none" stroke="midnightblue" d="M255.64,-61.99C249.76,-59.92 243.43,-57.79 237.5,-56 193.86,-42.8 143.41,-30.3 107.39,-21.84"/>
<polygon fill="midnightblue" stroke="midnightblue" points="108.16,-18.43 97.63,-19.56 106.57,-25.24 108.16,-18.43"/>
</g>
<!-- Node8&#45;&gt;Node5 -->
<g id="edge8" class="edge">
<title>Node8&#45;&gt;Node5</title>
<path fill="none" stroke="midnightblue" d="M261.16,-61.98C240.95,-52.03 207.31,-35.49 183.86,-23.96"/>
<polygon fill="midnightblue" stroke="midnightblue" points="185.32,-20.78 174.8,-19.51 182.23,-27.06 185.32,-20.78"/>
</g>
<!-- Node9 -->
<g id="node9" class="node">
<title>Node9</title>
<g id="a_node9"><a xlink:title=" ">
<polygon fill="white" stroke="#bfbfbf" points="214,-0.5 214,-19.5 343,-19.5 343,-0.5 214,-0.5"/>
<text text-anchor="middle" x="278.5" y="-7.5" font-family="Helvetica,sans-Serif" font-size="10.00">Poco/RefCountedObject.h</text>
</a>
</g>
</g>
<!-- Node8&#45;&gt;Node9 -->
<g id="edge10" class="edge">
<title>Node8&#45;&gt;Node9</title>
<path fill="none" stroke="midnightblue" d="M278.5,-61.98C278.5,-53.58 278.5,-40.48 278.5,-29.66"/>
<polygon fill="midnightblue" stroke="midnightblue" points="282,-29.51 278.5,-19.51 275,-29.51 282,-29.51"/>
</g>
</g>
</svg>
