<?xml version="1.0" encoding="UTF-8" standalone="no"?>
<!DOCTYPE svg PUBLIC "-//W3C//DTD SVG 1.1//EN"
 "http://www.w3.org/Graphics/SVG/1.1/DTD/svg11.dtd">
<!-- Generated by graphviz version 2.50.0 (20211204.2007)
 -->
<!-- Title: src/controller/GroupIndex.cpp Pages: 1 -->
<svg width="962pt" height="274pt"
 viewBox="0.00 0.00 961.75 274.00" xmlns="http://www.w3.org/2000/svg" xmlns:xlink="http://www.w3.org/1999/xlink">
<g id="graph0" class="graph" transform="scale(1 1) rotate(0) translate(4 270)">
<title>src/controller/GroupIndex.cpp</title>
<polygon fill="white" stroke="transparent" points="-4,4 -4,-270 957.75,-270 957.75,4 -4,4"/>
<!-- Node1 -->
<g id="node1" class="node">
<title>Node1</title>
<g id="a_node1"><a xlink:title=" ">
<polygon fill="#bfbfbf" stroke="black" points="431,-246.5 431,-265.5 575,-265.5 575,-246.5 431,-246.5"/>
<text text-anchor="middle" x="503" y="-253.5" font-family="Helvetica,sans-Serif" font-size="10.00">src/controller/GroupIndex.cpp</text>
</a>
</g>
</g>
<!-- Node2 -->
<g id="node2" class="node">
<title>Node2</title>
<g id="a_node2"><a xlink:href="controller_2_group_index_8h.html" target="_top" xlink:title=" ">
<polygon fill="white" stroke="black" points="166,-129 166,-148 240,-148 240,-129 166,-129"/>
<text text-anchor="middle" x="203" y="-136" font-family="Helvetica,sans-Serif" font-size="10.00">GroupIndex.h</text>
</a>
</g>
</g>
<!-- Node1&#45;&gt;Node2 -->
<g id="edge1" class="edge">
<title>Node1&#45;&gt;Node2</title>
<path fill="none" stroke="midnightblue" d="M480.45,-246.32C427.66,-225.99 295.89,-175.26 234.9,-151.78"/>
<polygon fill="midnightblue" stroke="midnightblue" points="235.99,-148.45 225.4,-148.12 233.48,-154.98 235.99,-148.45"/>
</g>
<!-- Node10 -->
<g id="node10" class="node">
<title>Node10</title>
<g id="a_node10"><a xlink:href="_server_globals_8h.html" target="_top" xlink:title=" ">
<polygon fill="white" stroke="black" points="456,-190.5 456,-209.5 550,-209.5 550,-190.5 456,-190.5"/>
<text text-anchor="middle" x="503" y="-197.5" font-family="Helvetica,sans-Serif" font-size="10.00">../ServerGlobals.h</text>
</a>
</g>
</g>
<!-- Node1&#45;&gt;Node10 -->
<g id="edge9" class="edge">
<title>Node1&#45;&gt;Node10</title>
<path fill="none" stroke="midnightblue" d="M503,-246.08C503,-239.01 503,-228.86 503,-219.99"/>
<polygon fill="midnightblue" stroke="midnightblue" points="506.5,-219.75 503,-209.75 499.5,-219.75 506.5,-219.75"/>
</g>
<!-- Node17 -->
<g id="node17" class="node">
<title>Node17</title>
<g id="a_node17"><a xlink:title=" ">
<polygon fill="white" stroke="#bfbfbf" points="568,-190.5 568,-209.5 634,-209.5 634,-190.5 568,-190.5"/>
<text text-anchor="middle" x="601" y="-197.5" font-family="Helvetica,sans-Serif" font-size="10.00">Poco/File.h</text>
</a>
</g>
</g>
<!-- Node1&#45;&gt;Node17 -->
<g id="edge18" class="edge">
<title>Node1&#45;&gt;Node17</title>
<path fill="none" stroke="midnightblue" d="M518.75,-246.32C534.32,-237.74 558.38,-224.49 576.46,-214.52"/>
<polygon fill="midnightblue" stroke="midnightblue" points="578.22,-217.55 585.29,-209.65 574.85,-211.42 578.22,-217.55"/>
</g>
<!-- Node3 -->
<g id="node3" class="node">
<title>Node3</title>
<g id="a_node3"><a xlink:href="model_2files_2_group_index_8h.html" target="_top" xlink:title=" ">
<polygon fill="white" stroke="black" points="582.5,-62 582.5,-81 715.5,-81 715.5,-62 582.5,-62"/>
<text text-anchor="middle" x="649" y="-69" font-family="Helvetica,sans-Serif" font-size="10.00">../model/files/GroupIndex.h</text>
</a>
</g>
</g>
<!-- Node2&#45;&gt;Node3 -->
<g id="edge2" class="edge">
<title>Node2&#45;&gt;Node3</title>
<path fill="none" stroke="midnightblue" d="M228.15,-128.86C235.16,-126.69 242.82,-124.55 250,-123 360.78,-99.09 491.47,-85.2 572.3,-78.23"/>
<polygon fill="midnightblue" stroke="midnightblue" points="572.73,-81.71 582.39,-77.38 572.13,-74.74 572.73,-81.71"/>
</g>
<!-- Node5 -->
<g id="node5" class="node">
<title>Node5</title>
<g id="a_node5"><a xlink:title=" ">
<polygon fill="white" stroke="#bfbfbf" points="0,-56.5 0,-86.5 100,-86.5 100,-56.5 0,-56.5"/>
<text text-anchor="start" x="8" y="-74.5" font-family="Helvetica,sans-Serif" font-size="10.00">gradido_blockchain</text>
<text text-anchor="middle" x="50" y="-63.5" font-family="Helvetica,sans-Serif" font-size="10.00">/lib/DRHashList.h</text>
</a>
</g>
</g>
<!-- Node2&#45;&gt;Node5 -->
<g id="edge4" class="edge">
<title>Node2&#45;&gt;Node5</title>
<path fill="none" stroke="midnightblue" d="M182.68,-128.87C159.72,-119.12 121.72,-102.97 92.26,-90.45"/>
<polygon fill="midnightblue" stroke="midnightblue" points="93.59,-87.22 83.02,-86.53 90.86,-93.66 93.59,-87.22"/>
</g>
<!-- Node6 -->
<g id="node6" class="node">
<title>Node6</title>
<g id="a_node6"><a xlink:title=" ">
<polygon fill="white" stroke="#bfbfbf" points="118.5,-62 118.5,-81 189.5,-81 189.5,-62 118.5,-62"/>
<text text-anchor="middle" x="154" y="-69" font-family="Helvetica,sans-Serif" font-size="10.00">Poco/Path.h</text>
</a>
</g>
</g>
<!-- Node2&#45;&gt;Node6 -->
<g id="edge5" class="edge">
<title>Node2&#45;&gt;Node6</title>
<path fill="none" stroke="midnightblue" d="M196.39,-128.73C188.82,-118.7 176.25,-102.01 166.76,-89.42"/>
<polygon fill="midnightblue" stroke="midnightblue" points="169.32,-87.01 160.5,-81.13 163.73,-91.22 169.32,-87.01"/>
</g>
<!-- Node7 -->
<g id="node7" class="node">
<title>Node7</title>
<g id="a_node7"><a xlink:href="_controller_base_8h.html" target="_top" xlink:title=" ">
<polygon fill="white" stroke="black" points="207.5,-62 207.5,-81 296.5,-81 296.5,-62 207.5,-62"/>
<text text-anchor="middle" x="252" y="-69" font-family="Helvetica,sans-Serif" font-size="10.00">ControllerBase.h</text>
</a>
</g>
</g>
<!-- Node2&#45;&gt;Node7 -->
<g id="edge6" class="edge">
<title>Node2&#45;&gt;Node7</title>
<path fill="none" stroke="midnightblue" d="M209.61,-128.73C217.18,-118.7 229.75,-102.01 239.24,-89.42"/>
<polygon fill="midnightblue" stroke="midnightblue" points="242.27,-91.22 245.5,-81.13 236.68,-87.01 242.27,-91.22"/>
</g>
<!-- Node9 -->
<g id="node9" class="node">
<title>Node9</title>
<g id="a_node9"><a xlink:title=" ">
<polygon fill="white" stroke="#bfbfbf" points="314.5,-62 314.5,-81 397.5,-81 397.5,-62 314.5,-62"/>
<text text-anchor="middle" x="356" y="-69" font-family="Helvetica,sans-Serif" font-size="10.00">unordered_map</text>
</a>
</g>
</g>
<!-- Node2&#45;&gt;Node9 -->
<g id="edge8" class="edge">
<title>Node2&#45;&gt;Node9</title>
<path fill="none" stroke="midnightblue" d="M223.32,-128.87C249.72,-117.65 296.03,-97.98 326.36,-85.09"/>
<polygon fill="midnightblue" stroke="midnightblue" points="327.76,-88.3 335.6,-81.17 325.03,-81.86 327.76,-88.3"/>
</g>
<!-- Node4 -->
<g id="node4" class="node">
<title>Node4</title>
<g id="a_node4"><a xlink:title=" ">
<polygon fill="white" stroke="#bfbfbf" points="726,-0.5 726,-19.5 884,-19.5 884,-0.5 726,-0.5"/>
<text text-anchor="middle" x="805" y="-7.5" font-family="Helvetica,sans-Serif" font-size="10.00">Poco/Util/LayeredConfiguration.h</text>
</a>
</g>
</g>
<!-- Node3&#45;&gt;Node4 -->
<g id="edge3" class="edge">
<title>Node3&#45;&gt;Node4</title>
<path fill="none" stroke="midnightblue" d="M671.35,-61.98C697.99,-51.81 742.71,-34.76 773.01,-23.2"/>
<polygon fill="midnightblue" stroke="midnightblue" points="774.59,-26.34 782.69,-19.51 772.1,-19.8 774.59,-26.34"/>
</g>
<!-- Node8 -->
<g id="node8" class="node">
<title>Node8</title>
<g id="a_node8"><a xlink:title=" ">
<polygon fill="white" stroke="#bfbfbf" points="213.5,-0.5 213.5,-19.5 290.5,-19.5 290.5,-0.5 213.5,-0.5"/>
<text text-anchor="middle" x="252" y="-7.5" font-family="Helvetica,sans-Serif" font-size="10.00">Poco/Mutex.h</text>
</a>
</g>
</g>
<!-- Node7&#45;&gt;Node8 -->
<g id="edge7" class="edge">
<title>Node7&#45;&gt;Node8</title>
<path fill="none" stroke="midnightblue" d="M252,-61.98C252,-53.58 252,-40.48 252,-29.66"/>
<polygon fill="midnightblue" stroke="midnightblue" points="255.5,-29.51 252,-19.51 248.5,-29.51 255.5,-29.51"/>
</g>
<!-- Node10&#45;&gt;Node2 -->
<g id="edge17" class="edge">
<title>Node10&#45;&gt;Node2</title>
<path fill="none" stroke="midnightblue" d="M455.54,-192.35C404.43,-184.76 320.89,-171.17 250,-154 246.19,-153.08 242.23,-152.02 238.3,-150.9"/>
<polygon fill="midnightblue" stroke="midnightblue" points="239.28,-147.54 228.7,-148.05 237.29,-154.25 239.28,-147.54"/>
</g>
<!-- Node10&#45;&gt;Node4 -->
<g id="edge10" class="edge">
<title>Node10&#45;&gt;Node4</title>
<path fill="none" stroke="midnightblue" d="M550.02,-191.21C553.06,-190.78 556.07,-190.37 559,-190 601.4,-184.61 913.22,-185.61 942,-154 986.67,-104.94 886.13,-48.58 833.93,-23.81"/>
<polygon fill="midnightblue" stroke="midnightblue" points="835.34,-20.6 824.79,-19.56 832.39,-26.95 835.34,-20.6"/>
</g>
<!-- Node11 -->
<g id="node11" class="node">
<title>Node11</title>
<g id="a_node11"><a xlink:title=" ">
<polygon fill="white" stroke="#bfbfbf" points="258.5,-129 258.5,-148 335.5,-148 335.5,-129 258.5,-129"/>
<text text-anchor="middle" x="297" y="-136" font-family="Helvetica,sans-Serif" font-size="10.00">Poco/Types.h</text>
</a>
</g>
</g>
<!-- Node10&#45;&gt;Node11 -->
<g id="edge11" class="edge">
<title>Node10&#45;&gt;Node11</title>
<path fill="none" stroke="midnightblue" d="M472.37,-190.43C440.51,-181.48 389.2,-166.97 345,-154 341.64,-153.01 338.15,-151.98 334.66,-150.94"/>
<polygon fill="midnightblue" stroke="midnightblue" points="335.48,-147.53 324.9,-148.01 333.47,-154.24 335.48,-147.53"/>
</g>
<!-- Node12 -->
<g id="node12" class="node">
<title>Node12</title>
<g id="a_node12"><a xlink:title=" ">
<polygon fill="white" stroke="#bfbfbf" points="354,-129 354,-148 434,-148 434,-129 354,-129"/>
<text text-anchor="middle" x="394" y="-136" font-family="Helvetica,sans-Serif" font-size="10.00">Poco/Logger.h</text>
</a>
</g>
</g>
<!-- Node10&#45;&gt;Node12 -->
<g id="edge12" class="edge">
<title>Node10&#45;&gt;Node12</title>
<path fill="none" stroke="midnightblue" d="M487.38,-190.48C469.41,-180.67 439.68,-164.43 418.59,-152.92"/>
<polygon fill="midnightblue" stroke="midnightblue" points="420.04,-149.73 409.59,-148.01 416.69,-155.87 420.04,-149.73"/>
</g>
<!-- Node13 -->
<g id="node13" class="node">
<title>Node13</title>
<g id="a_node13"><a xlink:title=" ">
<polygon fill="white" stroke="#bfbfbf" points="452,-129 452,-148 554,-148 554,-129 452,-129"/>
<text text-anchor="middle" x="503" y="-136" font-family="Helvetica,sans-Serif" font-size="10.00">Poco/Net/Context.h</text>
</a>
</g>
</g>
<!-- Node10&#45;&gt;Node13 -->
<g id="edge13" class="edge">
<title>Node10&#45;&gt;Node13</title>
<path fill="none" stroke="midnightblue" d="M503,-190.48C503,-182.08 503,-168.98 503,-158.16"/>
<polygon fill="midnightblue" stroke="midnightblue" points="506.5,-158.01 503,-148.01 499.5,-158.01 506.5,-158.01"/>
</g>
<!-- Node14 -->
<g id="node14" class="node">
<title>Node14</title>
<g id="a_node14"><a xlink:title=" ">
<polygon fill="white" stroke="#bfbfbf" points="572.5,-129 572.5,-148 687.5,-148 687.5,-129 572.5,-129"/>
<text text-anchor="middle" x="630" y="-136" font-family="Helvetica,sans-Serif" font-size="10.00">Poco/AtomicCounter.h</text>
</a>
</g>
</g>
<!-- Node10&#45;&gt;Node14 -->
<g id="edge14" class="edge">
<title>Node10&#45;&gt;Node14</title>
<path fill="none" stroke="midnightblue" d="M521.2,-190.48C542.51,-180.49 578.03,-163.85 602.66,-152.31"/>
<polygon fill="midnightblue" stroke="midnightblue" points="604.27,-155.42 611.84,-148.01 601.3,-149.08 604.27,-155.42"/>
</g>
<!-- Node15 -->
<g id="node15" class="node">
<title>Node15</title>
<g id="a_node15"><a xlink:href="_c_p_u_sheduler_8h.html" target="_top" xlink:title=" ">
<polygon fill="white" stroke="black" points="705.5,-129 705.5,-148 810.5,-148 810.5,-129 705.5,-129"/>
<text text-anchor="middle" x="758" y="-136" font-family="Helvetica,sans-Serif" font-size="10.00">task/CPUSheduler.h</text>
</a>
</g>
</g>
<!-- Node10&#45;&gt;Node15 -->
<g id="edge15" class="edge">
<title>Node10&#45;&gt;Node15</title>
<path fill="none" stroke="midnightblue" d="M540.21,-190.43C579.27,-181.42 642.47,-166.8 697,-154 701.97,-152.83 707.17,-151.61 712.35,-150.38"/>
<polygon fill="midnightblue" stroke="midnightblue" points="713.28,-153.76 722.2,-148.04 711.67,-146.94 713.28,-153.76"/>
</g>
<!-- Node16 -->
<g id="node16" class="node">
<title>Node16</title>
<g id="a_node16"><a xlink:title=" ">
<polygon fill="white" stroke="#bfbfbf" points="829,-123.5 829,-153.5 933,-153.5 933,-123.5 829,-123.5"/>
<text text-anchor="start" x="837" y="-141.5" font-family="Helvetica,sans-Serif" font-size="10.00">gradido_blockchain</text>
<text text-anchor="middle" x="881" y="-130.5" font-family="Helvetica,sans-Serif" font-size="10.00">/http/JsonRequest.h</text>
</a>
</g>
</g>
<!-- Node10&#45;&gt;Node16 -->
<g id="edge16" class="edge">
<title>Node10&#45;&gt;Node16</title>
<path fill="none" stroke="midnightblue" d="M550.04,-191.36C553.07,-190.89 556.08,-190.44 559,-190 671.65,-173.18 703.19,-175.42 818.87,-154.11"/>
<polygon fill="midnightblue" stroke="midnightblue" points="819.64,-157.52 828.83,-152.25 818.36,-150.64 819.64,-157.52"/>
</g>
</g>
</svg>
