<?xml version="1.0" encoding="UTF-8" standalone="no"?>
<!DOCTYPE svg PUBLIC "-//W3C//DTD SVG 1.1//EN"
 "http://www.w3.org/Graphics/SVG/1.1/DTD/svg11.dtd">
<!-- Generated by graphviz version 2.50.0 (20211204.2007)
 -->
<!-- Title: src/controller/AddressIndex.h Pages: 1 -->
<svg width="1500pt" height="285pt"
 viewBox="0.00 0.00 1500.00 285.00" xmlns="http://www.w3.org/2000/svg" xmlns:xlink="http://www.w3.org/1999/xlink">
<g id="graph0" class="graph" transform="scale(1 1) rotate(0) translate(4 281)">
<title>src/controller/AddressIndex.h</title>
<polygon fill="white" stroke="transparent" points="-4,4 -4,-281 1496,-281 1496,4 -4,4"/>
<!-- Node1 -->
<g id="node1" class="node">
<title>Node1</title>
<g id="a_node1"><a xlink:title=" ">
<polygon fill="#bfbfbf" stroke="black" points="515.5,-257.5 515.5,-276.5 658.5,-276.5 658.5,-257.5 515.5,-257.5"/>
<text text-anchor="middle" x="587" y="-264.5" font-family="Helvetica,sans-Serif" font-size="10.00">src/controller/AddressIndex.h</text>
</a>
</g>
</g>
<!-- Node2 -->
<g id="node2" class="node">
<title>Node2</title>
<g id="a_node2"><a xlink:href="controller_2_address_index_8cpp.html" target="_top" xlink:title=" ">
<polygon fill="white" stroke="black" points="435,-201.5 435,-220.5 589,-220.5 589,-201.5 435,-201.5"/>
<text text-anchor="middle" x="512" y="-208.5" font-family="Helvetica,sans-Serif" font-size="10.00">src/controller/AddressIndex.cpp</text>
</a>
</g>
</g>
<!-- Node1&#45;&gt;Node2 -->
<g id="edge1" class="edge">
<title>Node1&#45;&gt;Node2</title>
<path fill="none" stroke="midnightblue" d="M566.69,-251.38C553.14,-241.62 535.76,-229.11 524.27,-220.83"/>
<polygon fill="midnightblue" stroke="midnightblue" points="564.79,-254.32 574.95,-257.32 568.88,-248.64 564.79,-254.32"/>
</g>
<!-- Node3 -->
<g id="node3" class="node">
<title>Node3</title>
<g id="a_node3"><a xlink:href="_group_8h.html" target="_top" xlink:title=" ">
<polygon fill="white" stroke="black" points="607,-201.5 607,-220.5 717,-220.5 717,-201.5 607,-201.5"/>
<text text-anchor="middle" x="662" y="-208.5" font-family="Helvetica,sans-Serif" font-size="10.00">src/controller/Group.h</text>
</a>
</g>
</g>
<!-- Node1&#45;&gt;Node3 -->
<g id="edge2" class="edge">
<title>Node1&#45;&gt;Node3</title>
<path fill="none" stroke="midnightblue" d="M607.31,-251.38C620.86,-241.62 638.24,-229.11 649.73,-220.83"/>
<polygon fill="midnightblue" stroke="midnightblue" points="605.12,-248.64 599.05,-257.32 609.21,-254.32 605.12,-248.64"/>
</g>
<!-- Node4 -->
<g id="node4" class="node">
<title>Node4</title>
<g id="a_node4"><a xlink:href="_group_manager_8h.html" target="_top" xlink:title=" ">
<polygon fill="white" stroke="black" points="294.5,-134.5 294.5,-164.5 405.5,-164.5 405.5,-134.5 294.5,-134.5"/>
<text text-anchor="start" x="302.5" y="-152.5" font-family="Helvetica,sans-Serif" font-size="10.00">src/SingletonManager</text>
<text text-anchor="middle" x="350" y="-141.5" font-family="Helvetica,sans-Serif" font-size="10.00">/GroupManager.h</text>
</a>
</g>
</g>
<!-- Node3&#45;&gt;Node4 -->
<g id="edge3" class="edge">
<title>Node3&#45;&gt;Node4</title>
<path fill="none" stroke="midnightblue" d="M607.45,-199.6C550.83,-188.8 462.73,-172 405.69,-161.12"/>
<polygon fill="midnightblue" stroke="midnightblue" points="606.82,-203.04 617.3,-201.48 608.13,-196.16 606.82,-203.04"/>
</g>
<!-- Node8 -->
<g id="node8" class="node">
<title>Node8</title>
<g id="a_node8"><a xlink:href="_group_8cpp.html" target="_top" xlink:title=" ">
<polygon fill="white" stroke="black" points="531.5,-6 531.5,-25 652.5,-25 652.5,-6 531.5,-6"/>
<text text-anchor="middle" x="592" y="-13" font-family="Helvetica,sans-Serif" font-size="10.00">src/controller/Group.cpp</text>
</a>
</g>
</g>
<!-- Node3&#45;&gt;Node8 -->
<g id="edge10" class="edge">
<title>Node3&#45;&gt;Node8</title>
<path fill="none" stroke="midnightblue" d="M652.1,-192.31C647.75,-184.15 642.79,-174.23 639,-165 617.74,-113.22 600.13,-48.08 594.17,-25.05"/>
<polygon fill="midnightblue" stroke="midnightblue" points="649.11,-194.14 656.97,-201.24 655.25,-190.79 649.11,-194.14"/>
</g>
<!-- Node10 -->
<g id="node10" class="node">
<title>Node10</title>
<g id="a_node10"><a xlink:href="_ordering_manager_8cpp.html" target="_top" xlink:title=" ">
<polygon fill="white" stroke="black" points="648.5,-134.5 648.5,-164.5 761.5,-164.5 761.5,-134.5 648.5,-134.5"/>
<text text-anchor="start" x="656.5" y="-152.5" font-family="Helvetica,sans-Serif" font-size="10.00">src/SingletonManager</text>
<text text-anchor="middle" x="705" y="-141.5" font-family="Helvetica,sans-Serif" font-size="10.00">/OrderingManager.cpp</text>
</a>
</g>
</g>
<!-- Node3&#45;&gt;Node10 -->
<g id="edge9" class="edge">
<title>Node3&#45;&gt;Node10</title>
<path fill="none" stroke="midnightblue" d="M674.11,-193.25C680.66,-184.19 688.65,-173.12 694.87,-164.52"/>
<polygon fill="midnightblue" stroke="midnightblue" points="671.18,-191.32 668.16,-201.48 676.86,-195.42 671.18,-191.32"/>
</g>
<!-- Node11 -->
<g id="node11" class="node">
<title>Node11</title>
<g id="a_node11"><a xlink:href="_transaction_entry_8h.html" target="_top" xlink:title=" ">
<polygon fill="white" stroke="black" points="861,-140 861,-159 1005,-159 1005,-140 861,-140"/>
<text text-anchor="middle" x="933" y="-147" font-family="Helvetica,sans-Serif" font-size="10.00">src/model/TransactionEntry.h</text>
</a>
</g>
</g>
<!-- Node3&#45;&gt;Node11 -->
<g id="edge11" class="edge">
<title>Node3&#45;&gt;Node11</title>
<path fill="none" stroke="midnightblue" d="M710.6,-199.33C763.15,-187.79 845.88,-169.63 894.24,-159.01"/>
<polygon fill="midnightblue" stroke="midnightblue" points="709.84,-195.91 700.83,-201.48 711.35,-202.75 709.84,-195.91"/>
</g>
<!-- Node5 -->
<g id="node5" class="node">
<title>Node5</title>
<g id="a_node5"><a xlink:href="_json_r_p_c_handler_8cpp.html" target="_top" xlink:title=" ">
<polygon fill="white" stroke="black" points="0,-67.5 0,-97.5 116,-97.5 116,-67.5 0,-67.5"/>
<text text-anchor="start" x="8" y="-85.5" font-family="Helvetica,sans-Serif" font-size="10.00">src/JSONRPCInterface</text>
<text text-anchor="middle" x="58" y="-74.5" font-family="Helvetica,sans-Serif" font-size="10.00">/JsonRPCHandler.cpp</text>
</a>
</g>
</g>
<!-- Node4&#45;&gt;Node5 -->
<g id="edge4" class="edge">
<title>Node4&#45;&gt;Node5</title>
<path fill="none" stroke="midnightblue" d="M284.55,-133.93C234.01,-122.68 164.75,-107.26 116.15,-96.45"/>
<polygon fill="midnightblue" stroke="midnightblue" points="283.87,-137.36 294.39,-136.12 285.39,-130.53 283.87,-137.36"/>
</g>
<!-- Node6 -->
<g id="node6" class="node">
<title>Node6</title>
<g id="a_node6"><a xlink:href="_main_server_8cpp.html" target="_top" xlink:title=" ">
<polygon fill="white" stroke="black" points="134,-73 134,-92 234,-92 234,-73 134,-73"/>
<text text-anchor="middle" x="184" y="-80" font-family="Helvetica,sans-Serif" font-size="10.00">src/MainServer.cpp</text>
</a>
</g>
</g>
<!-- Node4&#45;&gt;Node6 -->
<g id="edge5" class="edge">
<title>Node4&#45;&gt;Node6</title>
<path fill="none" stroke="midnightblue" d="M304.34,-130.62C272.21,-118.04 230.65,-101.77 205.73,-92.01"/>
<polygon fill="midnightblue" stroke="midnightblue" points="303.39,-134.01 313.98,-134.4 305.95,-127.49 303.39,-134.01"/>
</g>
<!-- Node7 -->
<g id="node7" class="node">
<title>Node7</title>
<g id="a_node7"><a xlink:href="_group_manager_8cpp.html" target="_top" xlink:title=" ">
<polygon fill="white" stroke="black" points="252.5,-67.5 252.5,-97.5 363.5,-97.5 363.5,-67.5 252.5,-67.5"/>
<text text-anchor="start" x="260.5" y="-85.5" font-family="Helvetica,sans-Serif" font-size="10.00">src/SingletonManager</text>
<text text-anchor="middle" x="308" y="-74.5" font-family="Helvetica,sans-Serif" font-size="10.00">/GroupManager.cpp</text>
</a>
</g>
</g>
<!-- Node4&#45;&gt;Node7 -->
<g id="edge6" class="edge">
<title>Node4&#45;&gt;Node7</title>
<path fill="none" stroke="midnightblue" d="M335.38,-125.87C329.3,-116.46 322.43,-105.83 317.1,-97.58"/>
<polygon fill="midnightblue" stroke="midnightblue" points="332.52,-127.9 340.89,-134.4 338.4,-124.1 332.52,-127.9"/>
</g>
<!-- Node4&#45;&gt;Node8 -->
<g id="edge7" class="edge">
<title>Node4&#45;&gt;Node8</title>
<path fill="none" stroke="midnightblue" d="M361.67,-125.49C372.16,-107.05 389.27,-81.88 411,-67 446.67,-42.59 493.91,-29.92 531.18,-23.37"/>
<polygon fill="midnightblue" stroke="midnightblue" points="358.51,-123.98 356.79,-134.43 364.65,-127.33 358.51,-123.98"/>
</g>
<!-- Node9 -->
<g id="node9" class="node">
<title>Node9</title>
<g id="a_node9"><a xlink:href="_iota_message_to_transaction_task_8cpp.html" target="_top" xlink:title=" ">
<polygon fill="white" stroke="black" points="420.5,-67.5 420.5,-97.5 591.5,-97.5 591.5,-67.5 420.5,-67.5"/>
<text text-anchor="start" x="428.5" y="-85.5" font-family="Helvetica,sans-Serif" font-size="10.00">src/task/IotaMessageToTransaction</text>
<text text-anchor="middle" x="506" y="-74.5" font-family="Helvetica,sans-Serif" font-size="10.00">Task.cpp</text>
</a>
</g>
</g>
<!-- Node4&#45;&gt;Node9 -->
<g id="edge8" class="edge">
<title>Node4&#45;&gt;Node9</title>
<path fill="none" stroke="midnightblue" d="M393.09,-130.54C418.06,-120.14 449.03,-107.24 472.22,-97.58"/>
<polygon fill="midnightblue" stroke="midnightblue" points="391.73,-127.32 383.85,-134.4 394.43,-133.78 391.73,-127.32"/>
</g>
<!-- Node12 -->
<g id="node12" class="node">
<title>Node12</title>
<g id="a_node12"><a xlink:href="controller_2_block_8h.html" target="_top" xlink:title=" ">
<polygon fill="white" stroke="black" points="648.5,-73 648.5,-92 757.5,-92 757.5,-73 648.5,-73"/>
<text text-anchor="middle" x="703" y="-80" font-family="Helvetica,sans-Serif" font-size="10.00">src/controller/Block.h</text>
</a>
</g>
</g>
<!-- Node11&#45;&gt;Node12 -->
<g id="edge12" class="edge">
<title>Node11&#45;&gt;Node12</title>
<path fill="none" stroke="midnightblue" d="M892.63,-137.09C847.13,-124.23 774.19,-103.62 733.3,-92.06"/>
<polygon fill="midnightblue" stroke="midnightblue" points="891.88,-140.52 902.46,-139.87 893.79,-133.78 891.88,-140.52"/>
</g>
<!-- Node14 -->
<g id="node14" class="node">
<title>Node14</title>
<g id="a_node14"><a xlink:href="controller_2_block_index_8cpp.html" target="_top" xlink:title=" ">
<polygon fill="white" stroke="black" points="775.5,-73 775.5,-92 918.5,-92 918.5,-73 775.5,-73"/>
<text text-anchor="middle" x="847" y="-80" font-family="Helvetica,sans-Serif" font-size="10.00">src/controller/BlockIndex.cpp</text>
</a>
</g>
</g>
<!-- Node11&#45;&gt;Node14 -->
<g id="edge15" class="edge">
<title>Node11&#45;&gt;Node14</title>
<path fill="none" stroke="midnightblue" d="M913.24,-133.57C896.27,-120.74 872.38,-102.69 858.41,-92.13"/>
<polygon fill="midnightblue" stroke="midnightblue" points="911.31,-136.5 921.4,-139.73 915.53,-130.91 911.31,-136.5"/>
</g>
<!-- Node15 -->
<g id="node15" class="node">
<title>Node15</title>
<g id="a_node15"><a xlink:href="_transaction_entry_8cpp.html" target="_top" xlink:title=" ">
<polygon fill="white" stroke="black" points="936.5,-73 936.5,-92 1091.5,-92 1091.5,-73 936.5,-73"/>
<text text-anchor="middle" x="1014" y="-80" font-family="Helvetica,sans-Serif" font-size="10.00">src/model/TransactionEntry.cpp</text>
</a>
</g>
</g>
<!-- Node11&#45;&gt;Node15 -->
<g id="edge16" class="edge">
<title>Node11&#45;&gt;Node15</title>
<path fill="none" stroke="midnightblue" d="M952.05,-133.21C968.01,-120.41 990.21,-102.59 1003.25,-92.13"/>
<polygon fill="midnightblue" stroke="midnightblue" points="949.53,-130.75 943.92,-139.73 953.91,-136.2 949.53,-130.75"/>
</g>
<!-- Node16 -->
<g id="node16" class="node">
<title>Node16</title>
<g id="a_node16"><a xlink:href="model_2files_2_block_index_8cpp.html" target="_top" xlink:title=" ">
<polygon fill="white" stroke="black" points="1109.5,-73 1109.5,-92 1258.5,-92 1258.5,-73 1109.5,-73"/>
<text text-anchor="middle" x="1184" y="-80" font-family="Helvetica,sans-Serif" font-size="10.00">src/model/files/BlockIndex.cpp</text>
</a>
</g>
</g>
<!-- Node11&#45;&gt;Node16 -->
<g id="edge17" class="edge">
<title>Node11&#45;&gt;Node16</title>
<path fill="none" stroke="midnightblue" d="M975.85,-137.4C1025.38,-124.58 1105.86,-103.74 1150.85,-92.08"/>
<polygon fill="midnightblue" stroke="midnightblue" points="974.88,-134.04 966.07,-139.94 976.63,-140.82 974.88,-134.04"/>
</g>
<!-- Node17 -->
<g id="node17" class="node">
<title>Node17</title>
<g id="a_node17"><a xlink:href="_write_transactions_to_block_task_8h.html" target="_top" xlink:title=" ">
<polygon fill="white" stroke="black" points="1277,-67.5 1277,-97.5 1411,-97.5 1411,-67.5 1277,-67.5"/>
<text text-anchor="start" x="1285" y="-85.5" font-family="Helvetica,sans-Serif" font-size="10.00">src/task/WriteTransactions</text>
<text text-anchor="middle" x="1344" y="-74.5" font-family="Helvetica,sans-Serif" font-size="10.00">ToBlockTask.h</text>
</a>
</g>
</g>
<!-- Node11&#45;&gt;Node17 -->
<g id="edge18" class="edge">
<title>Node11&#45;&gt;Node17</title>
<path fill="none" stroke="midnightblue" d="M1004.4,-138.56C1072.31,-128.91 1177.28,-113.49 1268,-98 1270.91,-97.5 1273.89,-96.98 1276.89,-96.45"/>
<polygon fill="midnightblue" stroke="midnightblue" points="1003.65,-135.13 994.24,-140 1004.64,-142.06 1003.65,-135.13"/>
</g>
<!-- Node12&#45;&gt;Node8 -->
<g id="edge14" class="edge">
<title>Node12&#45;&gt;Node8</title>
<path fill="none" stroke="midnightblue" d="M679.29,-67.62C657.3,-54.74 625.26,-35.98 606.73,-25.13"/>
<polygon fill="midnightblue" stroke="midnightblue" points="677.63,-70.7 688.03,-72.73 681.17,-64.66 677.63,-70.7"/>
</g>
<!-- Node13 -->
<g id="node13" class="node">
<title>Node13</title>
<g id="a_node13"><a xlink:href="controller_2_block_8cpp.html" target="_top" xlink:title=" ">
<polygon fill="white" stroke="black" points="670.5,-6 670.5,-25 789.5,-25 789.5,-6 670.5,-6"/>
<text text-anchor="middle" x="730" y="-13" font-family="Helvetica,sans-Serif" font-size="10.00">src/controller/Block.cpp</text>
</a>
</g>
</g>
<!-- Node12&#45;&gt;Node13 -->
<g id="edge13" class="edge">
<title>Node12&#45;&gt;Node13</title>
<path fill="none" stroke="midnightblue" d="M710.56,-63.29C715.75,-50.81 722.39,-34.81 726.42,-25.13"/>
<polygon fill="midnightblue" stroke="midnightblue" points="707.25,-62.16 706.64,-72.73 713.71,-64.84 707.25,-62.16"/>
</g>
<!-- Node18 -->
<g id="node18" class="node">
<title>Node18</title>
<g id="a_node18"><a xlink:href="_task_observer_8cpp.html" target="_top" xlink:title=" ">
<polygon fill="white" stroke="black" points="1186,-6 1186,-25 1340,-25 1340,-6 1186,-6"/>
<text text-anchor="middle" x="1263" y="-13" font-family="Helvetica,sans-Serif" font-size="10.00">src/controller/TaskObserver.cpp</text>
</a>
</g>
</g>
<!-- Node17&#45;&gt;Node18 -->
<g id="edge19" class="edge">
<title>Node17&#45;&gt;Node18</title>
<path fill="none" stroke="midnightblue" d="M1318.46,-61.01C1303.43,-48.94 1285.19,-34.3 1273.83,-25.19"/>
<polygon fill="midnightblue" stroke="midnightblue" points="1316.43,-63.87 1326.42,-67.4 1320.82,-58.41 1316.43,-63.87"/>
</g>
<!-- Node19 -->
<g id="node19" class="node">
<title>Node19</title>
<g id="a_node19"><a xlink:href="_write_transactions_to_block_task_8cpp.html" target="_top" xlink:title=" ">
<polygon fill="white" stroke="black" points="1358,-0.5 1358,-30.5 1492,-30.5 1492,-0.5 1358,-0.5"/>
<text text-anchor="start" x="1366" y="-18.5" font-family="Helvetica,sans-Serif" font-size="10.00">src/task/WriteTransactions</text>
<text text-anchor="middle" x="1425" y="-7.5" font-family="Helvetica,sans-Serif" font-size="10.00">ToBlockTask.cpp</text>
</a>
</g>
</g>
<!-- Node17&#45;&gt;Node19 -->
<g id="edge20" class="edge">
<title>Node17&#45;&gt;Node19</title>
<path fill="none" stroke="midnightblue" d="M1369.69,-60.88C1382,-51.01 1396.43,-39.43 1407.46,-30.58"/>
<polygon fill="midnightblue" stroke="midnightblue" points="1367.18,-58.41 1361.58,-67.4 1371.57,-63.87 1367.18,-58.41"/>
</g>
</g>
</svg>
