<?xml version="1.0" encoding="UTF-8" standalone="no"?>
<!DOCTYPE svg PUBLIC "-//W3C//DTD SVG 1.1//EN"
 "http://www.w3.org/Graphics/SVG/1.1/DTD/svg11.dtd">
<!-- Generated by graphviz version 2.50.0 (20211204.2007)
 -->
<!-- Title: src/controller/BlockIndex.h Pages: 1 -->
<svg width="1499pt" height="285pt"
 viewBox="0.00 0.00 1499.00 285.00" xmlns="http://www.w3.org/2000/svg" xmlns:xlink="http://www.w3.org/1999/xlink">
<g id="graph0" class="graph" transform="scale(1 1) rotate(0) translate(4 281)">
<title>src/controller/BlockIndex.h</title>
<polygon fill="white" stroke="transparent" points="-4,4 -4,-281 1495,-281 1495,4 -4,4"/>
<!-- Node1 -->
<g id="node1" class="node">
<title>Node1</title>
<g id="a_node1"><a xlink:title=" ">
<polygon fill="#bfbfbf" stroke="black" points="953,-257.5 953,-276.5 1085,-276.5 1085,-257.5 953,-257.5"/>
<text text-anchor="middle" x="1019" y="-264.5" font-family="Helvetica,sans-Serif" font-size="10.00">src/controller/BlockIndex.h</text>
</a>
</g>
</g>
<!-- Node2 -->
<g id="node2" class="node">
<title>Node2</title>
<g id="a_node2"><a xlink:href="controller_2_block_8h.html" target="_top" xlink:title=" ">
<polygon fill="white" stroke="black" points="647.5,-73 647.5,-92 756.5,-92 756.5,-73 647.5,-73"/>
<text text-anchor="middle" x="702" y="-80" font-family="Helvetica,sans-Serif" font-size="10.00">src/controller/Block.h</text>
</a>
</g>
</g>
<!-- Node1&#45;&gt;Node2 -->
<g id="edge1" class="edge">
<title>Node1&#45;&gt;Node2</title>
<path fill="none" stroke="midnightblue" d="M993.22,-252.48C957.25,-233.5 890.1,-197.6 834,-165 789.99,-139.42 739.02,-107.19 715.35,-92.07"/>
<polygon fill="midnightblue" stroke="midnightblue" points="992.02,-255.81 1002.5,-257.37 995.29,-249.62 992.02,-255.81"/>
</g>
<!-- Node5 -->
<g id="node5" class="node">
<title>Node5</title>
<g id="a_node5"><a xlink:href="controller_2_block_index_8cpp.html" target="_top" xlink:title=" ">
<polygon fill="white" stroke="black" points="947.5,-73 947.5,-92 1090.5,-92 1090.5,-73 947.5,-73"/>
<text text-anchor="middle" x="1019" y="-80" font-family="Helvetica,sans-Serif" font-size="10.00">src/controller/BlockIndex.cpp</text>
</a>
</g>
</g>
<!-- Node1&#45;&gt;Node5 -->
<g id="edge4" class="edge">
<title>Node1&#45;&gt;Node5</title>
<path fill="none" stroke="midnightblue" d="M1019,-246.72C1019,-207.56 1019,-120.09 1019,-92.21"/>
<polygon fill="midnightblue" stroke="midnightblue" points="1015.5,-247.2 1019,-257.2 1022.5,-247.2 1015.5,-247.2"/>
</g>
<!-- Node6 -->
<g id="node6" class="node">
<title>Node6</title>
<g id="a_node6"><a xlink:href="_group_8h.html" target="_top" xlink:title=" ">
<polygon fill="white" stroke="black" points="653,-201.5 653,-220.5 763,-220.5 763,-201.5 653,-201.5"/>
<text text-anchor="middle" x="708" y="-208.5" font-family="Helvetica,sans-Serif" font-size="10.00">src/controller/Group.h</text>
</a>
</g>
</g>
<!-- Node1&#45;&gt;Node6 -->
<g id="edge5" class="edge">
<title>Node1&#45;&gt;Node6</title>
<path fill="none" stroke="midnightblue" d="M959.84,-255.73C901.07,-245.52 812,-230.06 757.05,-220.52"/>
<polygon fill="midnightblue" stroke="midnightblue" points="959.27,-259.18 969.72,-257.44 960.47,-252.28 959.27,-259.18"/>
</g>
<!-- Node15 -->
<g id="node15" class="node">
<title>Node15</title>
<g id="a_node15"><a xlink:href="model_2files_2_block_index_8cpp.html" target="_top" xlink:title=" ">
<polygon fill="white" stroke="black" points="1108.5,-73 1108.5,-92 1257.5,-92 1257.5,-73 1108.5,-73"/>
<text text-anchor="middle" x="1183" y="-80" font-family="Helvetica,sans-Serif" font-size="10.00">src/model/files/BlockIndex.cpp</text>
</a>
</g>
</g>
<!-- Node1&#45;&gt;Node15 -->
<g id="edge22" class="edge">
<title>Node1&#45;&gt;Node15</title>
<path fill="none" stroke="midnightblue" d="M1033.69,-249.66C1067.41,-212.13 1149.47,-120.81 1175.17,-92.21"/>
<polygon fill="midnightblue" stroke="midnightblue" points="1030.99,-247.42 1026.91,-257.2 1036.2,-252.1 1030.99,-247.42"/>
</g>
<!-- Node16 -->
<g id="node16" class="node">
<title>Node16</title>
<g id="a_node16"><a xlink:href="_write_transactions_to_block_task_8h.html" target="_top" xlink:title=" ">
<polygon fill="white" stroke="black" points="1276,-67.5 1276,-97.5 1410,-97.5 1410,-67.5 1276,-67.5"/>
<text text-anchor="start" x="1284" y="-85.5" font-family="Helvetica,sans-Serif" font-size="10.00">src/task/WriteTransactions</text>
<text text-anchor="middle" x="1343" y="-74.5" font-family="Helvetica,sans-Serif" font-size="10.00">ToBlockTask.h</text>
</a>
</g>
</g>
<!-- Node1&#45;&gt;Node16 -->
<g id="edge23" class="edge">
<title>Node1&#45;&gt;Node16</title>
<path fill="none" stroke="midnightblue" d="M1043.27,-252.33C1103.03,-218.67 1256.86,-132.02 1317.69,-97.75"/>
<polygon fill="midnightblue" stroke="midnightblue" points="1041.19,-249.49 1034.19,-257.44 1044.62,-255.58 1041.19,-249.49"/>
</g>
<!-- Node3 -->
<g id="node3" class="node">
<title>Node3</title>
<g id="a_node3"><a xlink:href="controller_2_block_8cpp.html" target="_top" xlink:title=" ">
<polygon fill="white" stroke="black" points="678.5,-6 678.5,-25 797.5,-25 797.5,-6 678.5,-6"/>
<text text-anchor="middle" x="738" y="-13" font-family="Helvetica,sans-Serif" font-size="10.00">src/controller/Block.cpp</text>
</a>
</g>
</g>
<!-- Node2&#45;&gt;Node3 -->
<g id="edge2" class="edge">
<title>Node2&#45;&gt;Node3</title>
<path fill="none" stroke="midnightblue" d="M711.88,-63.66C718.82,-51.13 727.8,-34.91 733.22,-25.13"/>
<polygon fill="midnightblue" stroke="midnightblue" points="708.64,-62.29 706.86,-72.73 714.76,-65.68 708.64,-62.29"/>
</g>
<!-- Node4 -->
<g id="node4" class="node">
<title>Node4</title>
<g id="a_node4"><a xlink:href="_group_8cpp.html" target="_top" xlink:title=" ">
<polygon fill="white" stroke="black" points="539.5,-6 539.5,-25 660.5,-25 660.5,-6 539.5,-6"/>
<text text-anchor="middle" x="600" y="-13" font-family="Helvetica,sans-Serif" font-size="10.00">src/controller/Group.cpp</text>
</a>
</g>
</g>
<!-- Node2&#45;&gt;Node4 -->
<g id="edge3" class="edge">
<title>Node2&#45;&gt;Node4</title>
<path fill="none" stroke="midnightblue" d="M679.67,-67.27C659.48,-54.4 630.41,-35.88 613.54,-25.13"/>
<polygon fill="midnightblue" stroke="midnightblue" points="677.93,-70.31 688.24,-72.73 681.69,-64.41 677.93,-70.31"/>
</g>
<!-- Node6&#45;&gt;Node4 -->
<g id="edge13" class="edge">
<title>Node6&#45;&gt;Node4</title>
<path fill="none" stroke="midnightblue" d="M679.96,-196.72C666.69,-189.14 651.68,-178.44 642,-165 609.28,-119.56 601.99,-49.34 600.42,-25.08"/>
<polygon fill="midnightblue" stroke="midnightblue" points="678.31,-199.81 688.77,-201.47 681.63,-193.65 678.31,-199.81"/>
</g>
<!-- Node7 -->
<g id="node7" class="node">
<title>Node7</title>
<g id="a_node7"><a xlink:href="_group_manager_8h.html" target="_top" xlink:title=" ">
<polygon fill="white" stroke="black" points="332.5,-134.5 332.5,-164.5 443.5,-164.5 443.5,-134.5 332.5,-134.5"/>
<text text-anchor="start" x="340.5" y="-152.5" font-family="Helvetica,sans-Serif" font-size="10.00">src/SingletonManager</text>
<text text-anchor="middle" x="388" y="-141.5" font-family="Helvetica,sans-Serif" font-size="10.00">/GroupManager.h</text>
</a>
</g>
</g>
<!-- Node6&#45;&gt;Node7 -->
<g id="edge6" class="edge">
<title>Node6&#45;&gt;Node7</title>
<path fill="none" stroke="midnightblue" d="M651.98,-199.58C593.44,-188.7 502.14,-171.72 443.72,-160.86"/>
<polygon fill="midnightblue" stroke="midnightblue" points="651.68,-203.09 662.15,-201.48 652.96,-196.21 651.68,-203.09"/>
</g>
<!-- Node12 -->
<g id="node12" class="node">
<title>Node12</title>
<g id="a_node12"><a xlink:href="_ordering_manager_8cpp.html" target="_top" xlink:title=" ">
<polygon fill="white" stroke="black" points="651.5,-134.5 651.5,-164.5 764.5,-164.5 764.5,-134.5 651.5,-134.5"/>
<text text-anchor="start" x="659.5" y="-152.5" font-family="Helvetica,sans-Serif" font-size="10.00">src/SingletonManager</text>
<text text-anchor="middle" x="708" y="-141.5" font-family="Helvetica,sans-Serif" font-size="10.00">/OrderingManager.cpp</text>
</a>
</g>
</g>
<!-- Node6&#45;&gt;Node12 -->
<g id="edge12" class="edge">
<title>Node6&#45;&gt;Node12</title>
<path fill="none" stroke="midnightblue" d="M708,-191.23C708,-182.59 708,-172.5 708,-164.52"/>
<polygon fill="midnightblue" stroke="midnightblue" points="704.5,-191.48 708,-201.48 711.5,-191.48 704.5,-191.48"/>
</g>
<!-- Node13 -->
<g id="node13" class="node">
<title>Node13</title>
<g id="a_node13"><a xlink:href="_transaction_entry_8h.html" target="_top" xlink:title=" ">
<polygon fill="white" stroke="black" points="843,-140 843,-159 987,-159 987,-140 843,-140"/>
<text text-anchor="middle" x="915" y="-147" font-family="Helvetica,sans-Serif" font-size="10.00">src/model/TransactionEntry.h</text>
</a>
</g>
</g>
<!-- Node6&#45;&gt;Node13 -->
<g id="edge14" class="edge">
<title>Node6&#45;&gt;Node13</title>
<path fill="none" stroke="midnightblue" d="M747.4,-198.68C787.62,-187.11 849.15,-169.43 885.4,-159.01"/>
<polygon fill="midnightblue" stroke="midnightblue" points="746.3,-195.35 737.66,-201.48 748.24,-202.08 746.3,-195.35"/>
</g>
<!-- Node7&#45;&gt;Node4 -->
<g id="edge10" class="edge">
<title>Node7&#45;&gt;Node4</title>
<path fill="none" stroke="midnightblue" d="M454,-142.28C489.15,-135.99 531.16,-123.35 561,-98 584.19,-78.3 594.63,-41.65 598.33,-25.06"/>
<polygon fill="midnightblue" stroke="midnightblue" points="453.11,-138.88 443.81,-143.96 454.25,-145.78 453.11,-138.88"/>
</g>
<!-- Node8 -->
<g id="node8" class="node">
<title>Node8</title>
<g id="a_node8"><a xlink:href="_json_r_p_c_handler_8cpp.html" target="_top" xlink:title=" ">
<polygon fill="white" stroke="black" points="0,-67.5 0,-97.5 116,-97.5 116,-67.5 0,-67.5"/>
<text text-anchor="start" x="8" y="-85.5" font-family="Helvetica,sans-Serif" font-size="10.00">src/JSONRPCInterface</text>
<text text-anchor="middle" x="58" y="-74.5" font-family="Helvetica,sans-Serif" font-size="10.00">/JsonRPCHandler.cpp</text>
</a>
</g>
</g>
<!-- Node7&#45;&gt;Node8 -->
<g id="edge7" class="edge">
<title>Node7&#45;&gt;Node8</title>
<path fill="none" stroke="midnightblue" d="M322.27,-136.32C269.01,-126.35 192.08,-111.7 125,-98 122.08,-97.4 119.1,-96.79 116.09,-96.16"/>
<polygon fill="midnightblue" stroke="midnightblue" points="321.78,-139.79 332.26,-138.19 323.07,-132.91 321.78,-139.79"/>
</g>
<!-- Node9 -->
<g id="node9" class="node">
<title>Node9</title>
<g id="a_node9"><a xlink:href="_main_server_8cpp.html" target="_top" xlink:title=" ">
<polygon fill="white" stroke="black" points="134,-73 134,-92 234,-92 234,-73 134,-73"/>
<text text-anchor="middle" x="184" y="-80" font-family="Helvetica,sans-Serif" font-size="10.00">src/MainServer.cpp</text>
</a>
</g>
</g>
<!-- Node7&#45;&gt;Node9 -->
<g id="edge8" class="edge">
<title>Node7&#45;&gt;Node9</title>
<path fill="none" stroke="midnightblue" d="M334.43,-131.43C294.64,-118.75 242.06,-102 210.77,-92.03"/>
<polygon fill="midnightblue" stroke="midnightblue" points="333.4,-134.77 343.99,-134.48 335.52,-128.11 333.4,-134.77"/>
</g>
<!-- Node10 -->
<g id="node10" class="node">
<title>Node10</title>
<g id="a_node10"><a xlink:href="_group_manager_8cpp.html" target="_top" xlink:title=" ">
<polygon fill="white" stroke="black" points="252.5,-67.5 252.5,-97.5 363.5,-97.5 363.5,-67.5 252.5,-67.5"/>
<text text-anchor="start" x="260.5" y="-85.5" font-family="Helvetica,sans-Serif" font-size="10.00">src/SingletonManager</text>
<text text-anchor="middle" x="308" y="-74.5" font-family="Helvetica,sans-Serif" font-size="10.00">/GroupManager.cpp</text>
</a>
</g>
</g>
<!-- Node7&#45;&gt;Node10 -->
<g id="edge9" class="edge">
<title>Node7&#45;&gt;Node10</title>
<path fill="none" stroke="midnightblue" d="M362.63,-127.88C350.47,-118.01 336.22,-106.43 325.32,-97.58"/>
<polygon fill="midnightblue" stroke="midnightblue" points="360.67,-130.81 370.64,-134.4 365.09,-125.37 360.67,-130.81"/>
</g>
<!-- Node11 -->
<g id="node11" class="node">
<title>Node11</title>
<g id="a_node11"><a xlink:href="_iota_message_to_transaction_task_8cpp.html" target="_top" xlink:title=" ">
<polygon fill="white" stroke="black" points="381.5,-67.5 381.5,-97.5 552.5,-97.5 552.5,-67.5 381.5,-67.5"/>
<text text-anchor="start" x="389.5" y="-85.5" font-family="Helvetica,sans-Serif" font-size="10.00">src/task/IotaMessageToTransaction</text>
<text text-anchor="middle" x="467" y="-74.5" font-family="Helvetica,sans-Serif" font-size="10.00">Task.cpp</text>
</a>
</g>
</g>
<!-- Node7&#45;&gt;Node11 -->
<g id="edge11" class="edge">
<title>Node7&#45;&gt;Node11</title>
<path fill="none" stroke="midnightblue" d="M413.06,-127.88C425.06,-118.01 439.13,-106.43 449.89,-97.58"/>
<polygon fill="midnightblue" stroke="midnightblue" points="410.64,-125.34 405.14,-134.4 415.09,-130.75 410.64,-125.34"/>
</g>
<!-- Node13&#45;&gt;Node2 -->
<g id="edge15" class="edge">
<title>Node13&#45;&gt;Node2</title>
<path fill="none" stroke="midnightblue" d="M877.08,-136.93C834.91,-124.06 767.77,-103.57 730.06,-92.06"/>
<polygon fill="midnightblue" stroke="midnightblue" points="876.13,-140.3 886.72,-139.87 878.17,-133.6 876.13,-140.3"/>
</g>
<!-- Node13&#45;&gt;Node5 -->
<g id="edge16" class="edge">
<title>Node13&#45;&gt;Node5</title>
<path fill="none" stroke="midnightblue" d="M937.77,-134.27C958.36,-121.4 987.99,-102.88 1005.2,-92.13"/>
<polygon fill="midnightblue" stroke="midnightblue" points="935.65,-131.47 929.03,-139.73 939.36,-137.4 935.65,-131.47"/>
</g>
<!-- Node14 -->
<g id="node14" class="node">
<title>Node14</title>
<g id="a_node14"><a xlink:href="_transaction_entry_8cpp.html" target="_top" xlink:title=" ">
<polygon fill="white" stroke="black" points="774.5,-73 774.5,-92 929.5,-92 929.5,-73 774.5,-73"/>
<text text-anchor="middle" x="852" y="-80" font-family="Helvetica,sans-Serif" font-size="10.00">src/model/TransactionEntry.cpp</text>
</a>
</g>
</g>
<!-- Node13&#45;&gt;Node14 -->
<g id="edge17" class="edge">
<title>Node13&#45;&gt;Node14</title>
<path fill="none" stroke="midnightblue" d="M899.49,-132.5C887.13,-119.75 870.31,-102.39 860.36,-92.13"/>
<polygon fill="midnightblue" stroke="midnightblue" points="897.03,-134.99 906.5,-139.73 902.06,-130.12 897.03,-134.99"/>
</g>
<!-- Node13&#45;&gt;Node15 -->
<g id="edge18" class="edge">
<title>Node13&#45;&gt;Node15</title>
<path fill="none" stroke="midnightblue" d="M960.09,-137.56C1012.92,-124.75 1099.36,-103.78 1147.61,-92.08"/>
<polygon fill="midnightblue" stroke="midnightblue" points="959.21,-134.18 950.31,-139.94 960.86,-140.98 959.21,-134.18"/>
</g>
<!-- Node13&#45;&gt;Node16 -->
<g id="edge19" class="edge">
<title>Node13&#45;&gt;Node16</title>
<path fill="none" stroke="midnightblue" d="M990.36,-138.62C1061.54,-129.06 1171.21,-113.74 1266,-98 1269.22,-97.47 1272.51,-96.9 1275.84,-96.32"/>
<polygon fill="midnightblue" stroke="midnightblue" points="989.59,-135.19 980.14,-139.99 990.52,-142.13 989.59,-135.19"/>
</g>
<!-- Node17 -->
<g id="node17" class="node">
<title>Node17</title>
<g id="a_node17"><a xlink:href="_task_observer_8cpp.html" target="_top" xlink:title=" ">
<polygon fill="white" stroke="black" points="1185,-6 1185,-25 1339,-25 1339,-6 1185,-6"/>
<text text-anchor="middle" x="1262" y="-13" font-family="Helvetica,sans-Serif" font-size="10.00">src/controller/TaskObserver.cpp</text>
</a>
</g>
</g>
<!-- Node16&#45;&gt;Node17 -->
<g id="edge20" class="edge">
<title>Node16&#45;&gt;Node17</title>
<path fill="none" stroke="midnightblue" d="M1317.46,-61.01C1302.43,-48.94 1284.19,-34.3 1272.83,-25.19"/>
<polygon fill="midnightblue" stroke="midnightblue" points="1315.43,-63.87 1325.42,-67.4 1319.82,-58.41 1315.43,-63.87"/>
</g>
<!-- Node18 -->
<g id="node18" class="node">
<title>Node18</title>
<g id="a_node18"><a xlink:href="_write_transactions_to_block_task_8cpp.html" target="_top" xlink:title=" ">
<polygon fill="white" stroke="black" points="1357,-0.5 1357,-30.5 1491,-30.5 1491,-0.5 1357,-0.5"/>
<text text-anchor="start" x="1365" y="-18.5" font-family="Helvetica,sans-Serif" font-size="10.00">src/task/WriteTransactions</text>
<text text-anchor="middle" x="1424" y="-7.5" font-family="Helvetica,sans-Serif" font-size="10.00">ToBlockTask.cpp</text>
</a>
</g>
</g>
<!-- Node16&#45;&gt;Node18 -->
<g id="edge21" class="edge">
<title>Node16&#45;&gt;Node18</title>
<path fill="none" stroke="midnightblue" d="M1368.69,-60.88C1381,-51.01 1395.43,-39.43 1406.46,-30.58"/>
<polygon fill="midnightblue" stroke="midnightblue" points="1366.18,-58.41 1360.58,-67.4 1370.57,-63.87 1366.18,-58.41"/>
</g>
</g>
</svg>
