<?xml version="1.0" encoding="UTF-8" standalone="no"?>
<!DOCTYPE svg PUBLIC "-//W3C//DTD SVG 1.1//EN"
 "http://www.w3.org/Graphics/SVG/1.1/DTD/svg11.dtd">
<!-- Generated by graphviz version 2.50.0 (20211204.2007)
 -->
<!-- Title: src/controller/AddressIndex.cpp Pages: 1 -->
<svg width="1301pt" height="274pt"
 viewBox="0.00 0.00 1301.26 274.00" xmlns="http://www.w3.org/2000/svg" xmlns:xlink="http://www.w3.org/1999/xlink">
<g id="graph0" class="graph" transform="scale(1 1) rotate(0) translate(4 270)">
<title>src/controller/AddressIndex.cpp</title>
<polygon fill="white" stroke="transparent" points="-4,4 -4,-270 1297.26,-270 1297.26,4 -4,4"/>
<!-- Node1 -->
<g id="node1" class="node">
<title>Node1</title>
<g id="a_node1"><a xlink:title=" ">
<polygon fill="#bfbfbf" stroke="black" points="444.76,-246.5 444.76,-265.5 598.76,-265.5 598.76,-246.5 444.76,-246.5"/>
<text text-anchor="middle" x="521.76" y="-253.5" font-family="Helvetica,sans-Serif" font-size="10.00">src/controller/AddressIndex.cpp</text>
</a>
</g>
</g>
<!-- Node2 -->
<g id="node2" class="node">
<title>Node2</title>
<g id="a_node2"><a xlink:href="controller_2_address_index_8h.html" target="_top" xlink:title=" ">
<polygon fill="white" stroke="black" points="198.76,-190.5 198.76,-209.5 282.76,-209.5 282.76,-190.5 198.76,-190.5"/>
<text text-anchor="middle" x="240.76" y="-197.5" font-family="Helvetica,sans-Serif" font-size="10.00">AddressIndex.h</text>
</a>
</g>
</g>
<!-- Node1&#45;&gt;Node2 -->
<g id="edge1" class="edge">
<title>Node1&#45;&gt;Node2</title>
<path fill="none" stroke="midnightblue" d="M477.24,-246.44C427.08,-236.8 345.66,-221.16 292.66,-210.97"/>
<polygon fill="midnightblue" stroke="midnightblue" points="293.27,-207.53 282.79,-209.08 291.95,-214.4 293.27,-207.53"/>
</g>
<!-- Node13 -->
<g id="node13" class="node">
<title>Node13</title>
<g id="a_node13"><a xlink:title=" ">
<polygon fill="white" stroke="#bfbfbf" points="493.76,-190.5 493.76,-209.5 549.76,-209.5 549.76,-190.5 493.76,-190.5"/>
<text text-anchor="middle" x="521.76" y="-197.5" font-family="Helvetica,sans-Serif" font-size="10.00">sodium.h</text>
</a>
</g>
</g>
<!-- Node1&#45;&gt;Node13 -->
<g id="edge15" class="edge">
<title>Node1&#45;&gt;Node13</title>
<path fill="none" stroke="midnightblue" d="M521.76,-246.08C521.76,-239.01 521.76,-228.86 521.76,-219.99"/>
<polygon fill="midnightblue" stroke="midnightblue" points="525.26,-219.75 521.76,-209.75 518.26,-219.75 525.26,-219.75"/>
</g>
<!-- Node14 -->
<g id="node14" class="node">
<title>Node14</title>
<g id="a_node14"><a xlink:href="_server_globals_8h.html" target="_top" xlink:title=" ">
<polygon fill="white" stroke="black" points="761.76,-190.5 761.76,-209.5 855.76,-209.5 855.76,-190.5 761.76,-190.5"/>
<text text-anchor="middle" x="808.76" y="-197.5" font-family="Helvetica,sans-Serif" font-size="10.00">../ServerGlobals.h</text>
</a>
</g>
</g>
<!-- Node1&#45;&gt;Node14 -->
<g id="edge16" class="edge">
<title>Node1&#45;&gt;Node14</title>
<path fill="none" stroke="midnightblue" d="M567.24,-246.44C617.73,-236.94 699.22,-221.61 753.38,-211.42"/>
<polygon fill="midnightblue" stroke="midnightblue" points="754.32,-214.81 763.5,-209.52 753.03,-207.93 754.32,-214.81"/>
</g>
<!-- Node3 -->
<g id="node3" class="node">
<title>Node3</title>
<g id="a_node3"><a xlink:href="_controller_base_8h.html" target="_top" xlink:title=" ">
<polygon fill="white" stroke="black" points="375.26,-62 375.26,-81 464.26,-81 464.26,-62 375.26,-62"/>
<text text-anchor="middle" x="419.76" y="-69" font-family="Helvetica,sans-Serif" font-size="10.00">ControllerBase.h</text>
</a>
</g>
</g>
<!-- Node2&#45;&gt;Node3 -->
<g id="edge2" class="edge">
<title>Node2&#45;&gt;Node3</title>
<path fill="none" stroke="midnightblue" d="M242.79,-190.41C246.91,-174.8 257.68,-141.7 278.76,-123 293.75,-109.71 341.74,-94.13 377.6,-83.83"/>
<polygon fill="midnightblue" stroke="midnightblue" points="378.68,-87.16 387.35,-81.07 376.78,-80.43 378.68,-87.16"/>
</g>
<!-- Node5 -->
<g id="node5" class="node">
<title>Node5</title>
<g id="a_node5"><a xlink:title=" ">
<polygon fill="white" stroke="#bfbfbf" points="274.26,-62 274.26,-81 357.26,-81 357.26,-62 274.26,-62"/>
<text text-anchor="middle" x="315.76" y="-69" font-family="Helvetica,sans-Serif" font-size="10.00">unordered_map</text>
</a>
</g>
</g>
<!-- Node2&#45;&gt;Node5 -->
<g id="edge4" class="edge">
<title>Node2&#45;&gt;Node5</title>
<path fill="none" stroke="midnightblue" d="M239.09,-190.36C236.67,-175.54 233.72,-144.75 245.76,-123 254.84,-106.61 271.75,-94.18 286.68,-85.76"/>
<polygon fill="midnightblue" stroke="midnightblue" points="288.42,-88.79 295.63,-81.03 285.15,-82.6 288.42,-88.79"/>
</g>
<!-- Node6 -->
<g id="node6" class="node">
<title>Node6</title>
<g id="a_node6"><a xlink:title=" ">
<polygon fill="white" stroke="#bfbfbf" points="89.26,-0.5 89.26,-19.5 160.26,-19.5 160.26,-0.5 89.26,-0.5"/>
<text text-anchor="middle" x="124.76" y="-7.5" font-family="Helvetica,sans-Serif" font-size="10.00">Poco/Path.h</text>
</a>
</g>
</g>
<!-- Node2&#45;&gt;Node6 -->
<g id="edge5" class="edge">
<title>Node2&#45;&gt;Node6</title>
<path fill="none" stroke="midnightblue" d="M198.36,-194.01C146.99,-187.21 64.4,-173.58 40.76,-154 5.78,-125.02 -13.73,-93.59 11.76,-56 26.87,-33.73 54.94,-22.48 79.32,-16.8"/>
<polygon fill="midnightblue" stroke="midnightblue" points="80.07,-20.22 89.15,-14.75 78.64,-13.36 80.07,-20.22"/>
</g>
<!-- Node7 -->
<g id="node7" class="node">
<title>Node7</title>
<g id="a_node7"><a xlink:title=" ">
<polygon fill="white" stroke="#bfbfbf" points="288.26,-129 288.26,-148 427.26,-148 427.26,-129 288.26,-129"/>
<text text-anchor="middle" x="357.76" y="-136" font-family="Helvetica,sans-Serif" font-size="10.00">Poco/AccessExpireCache.h</text>
</a>
</g>
</g>
<!-- Node2&#45;&gt;Node7 -->
<g id="edge6" class="edge">
<title>Node2&#45;&gt;Node7</title>
<path fill="none" stroke="midnightblue" d="M257.53,-190.48C276.99,-180.58 309.31,-164.14 331.97,-152.62"/>
<polygon fill="midnightblue" stroke="midnightblue" points="333.71,-155.66 341.03,-148.01 330.53,-149.42 333.71,-155.66"/>
</g>
<!-- Node8 -->
<g id="node8" class="node">
<title>Node8</title>
<g id="a_node8"><a xlink:href="model_2files_2_address_index_8h.html" target="_top" xlink:title=" ">
<polygon fill="white" stroke="black" points="50.26,-129 50.26,-148 193.26,-148 193.26,-129 50.26,-129"/>
<text text-anchor="middle" x="121.76" y="-136" font-family="Helvetica,sans-Serif" font-size="10.00">../model/files/AddressIndex.h</text>
</a>
</g>
</g>
<!-- Node2&#45;&gt;Node8 -->
<g id="edge7" class="edge">
<title>Node2&#45;&gt;Node8</title>
<path fill="none" stroke="midnightblue" d="M223.71,-190.48C203.92,-180.58 171.05,-164.14 147.99,-152.62"/>
<polygon fill="midnightblue" stroke="midnightblue" points="149.29,-149.35 138.78,-148.01 146.16,-155.61 149.29,-149.35"/>
</g>
<!-- Node4 -->
<g id="node4" class="node">
<title>Node4</title>
<g id="a_node4"><a xlink:title=" ">
<polygon fill="white" stroke="#bfbfbf" points="344.26,-0.5 344.26,-19.5 421.26,-19.5 421.26,-0.5 344.26,-0.5"/>
<text text-anchor="middle" x="382.76" y="-7.5" font-family="Helvetica,sans-Serif" font-size="10.00">Poco/Mutex.h</text>
</a>
</g>
</g>
<!-- Node3&#45;&gt;Node4 -->
<g id="edge3" class="edge">
<title>Node3&#45;&gt;Node4</title>
<path fill="none" stroke="midnightblue" d="M414.46,-61.98C409.02,-53.23 400.41,-39.37 393.53,-28.31"/>
<polygon fill="midnightblue" stroke="midnightblue" points="396.31,-26.15 388.06,-19.51 390.36,-29.85 396.31,-26.15"/>
</g>
<!-- Node8&#45;&gt;Node5 -->
<g id="edge13" class="edge">
<title>Node8&#45;&gt;Node5</title>
<path fill="none" stroke="midnightblue" d="M147.53,-128.87C181.68,-117.42 242.1,-97.18 280.48,-84.32"/>
<polygon fill="midnightblue" stroke="midnightblue" points="281.83,-87.56 290.2,-81.06 279.61,-80.92 281.83,-87.56"/>
</g>
<!-- Node9 -->
<g id="node9" class="node">
<title>Node9</title>
<g id="a_node9"><a xlink:href="_file_base_8h.html" target="_top" xlink:title=" ">
<polygon fill="white" stroke="black" points="193.26,-62 193.26,-81 256.26,-81 256.26,-62 193.26,-62"/>
<text text-anchor="middle" x="224.76" y="-69" font-family="Helvetica,sans-Serif" font-size="10.00">FileBase.h</text>
</a>
</g>
</g>
<!-- Node8&#45;&gt;Node9 -->
<g id="edge8" class="edge">
<title>Node8&#45;&gt;Node9</title>
<path fill="none" stroke="midnightblue" d="M135.66,-128.73C152.8,-117.92 182.16,-99.38 202.48,-86.57"/>
<polygon fill="midnightblue" stroke="midnightblue" points="204.5,-89.42 211.09,-81.13 200.77,-83.5 204.5,-89.42"/>
</g>
<!-- Node11 -->
<g id="node11" class="node">
<title>Node11</title>
<g id="a_node11"><a xlink:title=" ">
<polygon fill="white" stroke="#bfbfbf" points="74.26,-56.5 74.26,-86.5 175.26,-86.5 175.26,-56.5 74.26,-56.5"/>
<text text-anchor="start" x="82.26" y="-74.5" font-family="Helvetica,sans-Serif" font-size="10.00">gradido_blockchain</text>
<text text-anchor="middle" x="124.76" y="-63.5" font-family="Helvetica,sans-Serif" font-size="10.00">/MemoryManager.h</text>
</a>
</g>
</g>
<!-- Node8&#45;&gt;Node11 -->
<g id="edge12" class="edge">
<title>Node8&#45;&gt;Node11</title>
<path fill="none" stroke="midnightblue" d="M122.17,-128.73C122.55,-120.54 123.13,-107.92 123.65,-96.71"/>
<polygon fill="midnightblue" stroke="midnightblue" points="127.15,-96.74 124.11,-86.59 120.16,-96.42 127.15,-96.74"/>
</g>
<!-- Node12 -->
<g id="node12" class="node">
<title>Node12</title>
<g id="a_node12"><a xlink:title=" ">
<polygon fill="white" stroke="#bfbfbf" points="21.26,-62 21.26,-81 56.26,-81 56.26,-62 21.26,-62"/>
<text text-anchor="middle" x="38.76" y="-69" font-family="Helvetica,sans-Serif" font-size="10.00">map</text>
</a>
</g>
</g>
<!-- Node8&#45;&gt;Node12 -->
<g id="edge14" class="edge">
<title>Node8&#45;&gt;Node12</title>
<path fill="none" stroke="midnightblue" d="M110.57,-128.73C97.13,-118.21 74.36,-100.38 58.07,-87.62"/>
<polygon fill="midnightblue" stroke="midnightblue" points="59.81,-84.54 49.78,-81.13 55.5,-90.05 59.81,-84.54"/>
</g>
<!-- Node9&#45;&gt;Node4 -->
<g id="edge10" class="edge">
<title>Node9&#45;&gt;Node4</title>
<path fill="none" stroke="midnightblue" d="M247.4,-61.98C274.5,-51.77 320.07,-34.61 350.77,-23.05"/>
<polygon fill="midnightblue" stroke="midnightblue" points="352.04,-26.31 360.17,-19.51 349.58,-19.76 352.04,-26.31"/>
</g>
<!-- Node9&#45;&gt;Node6 -->
<g id="edge9" class="edge">
<title>Node9&#45;&gt;Node6</title>
<path fill="none" stroke="midnightblue" d="M210.44,-61.98C194.1,-52.25 167.16,-36.23 147.85,-24.74"/>
<polygon fill="midnightblue" stroke="midnightblue" points="149.45,-21.61 139.07,-19.51 145.87,-27.63 149.45,-21.61"/>
</g>
<!-- Node10 -->
<g id="node10" class="node">
<title>Node10</title>
<g id="a_node10"><a xlink:title=" ">
<polygon fill="white" stroke="#bfbfbf" points="178.26,-0.5 178.26,-19.5 307.26,-19.5 307.26,-0.5 178.26,-0.5"/>
<text text-anchor="middle" x="242.76" y="-7.5" font-family="Helvetica,sans-Serif" font-size="10.00">Poco/RefCountedObject.h</text>
</a>
</g>
</g>
<!-- Node9&#45;&gt;Node10 -->
<g id="edge11" class="edge">
<title>Node9&#45;&gt;Node10</title>
<path fill="none" stroke="midnightblue" d="M227.34,-61.98C229.91,-53.49 233.93,-40.2 237.22,-29.32"/>
<polygon fill="midnightblue" stroke="midnightblue" points="240.64,-30.09 240.19,-19.51 233.94,-28.07 240.64,-30.09"/>
</g>
<!-- Node15 -->
<g id="node15" class="node">
<title>Node15</title>
<g id="a_node15"><a xlink:title=" ">
<polygon fill="white" stroke="#bfbfbf" points="681.76,-0.5 681.76,-19.5 839.76,-19.5 839.76,-0.5 681.76,-0.5"/>
<text text-anchor="middle" x="760.76" y="-7.5" font-family="Helvetica,sans-Serif" font-size="10.00">Poco/Util/LayeredConfiguration.h</text>
</a>
</g>
</g>
<!-- Node14&#45;&gt;Node15 -->
<g id="edge17" class="edge">
<title>Node14&#45;&gt;Node15</title>
<path fill="none" stroke="midnightblue" d="M808.91,-190.31C809.02,-167.51 807.57,-104.42 789.76,-56 786.08,-45.99 779.87,-35.9 774.14,-27.83"/>
<polygon fill="midnightblue" stroke="midnightblue" points="776.83,-25.58 768.03,-19.68 771.23,-29.78 776.83,-25.58"/>
</g>
<!-- Node16 -->
<g id="node16" class="node">
<title>Node16</title>
<g id="a_node16"><a xlink:title=" ">
<polygon fill="white" stroke="#bfbfbf" points="703.26,-129 703.26,-148 780.26,-148 780.26,-129 703.26,-129"/>
<text text-anchor="middle" x="741.76" y="-136" font-family="Helvetica,sans-Serif" font-size="10.00">Poco/Types.h</text>
</a>
</g>
</g>
<!-- Node14&#45;&gt;Node16 -->
<g id="edge18" class="edge">
<title>Node14&#45;&gt;Node16</title>
<path fill="none" stroke="midnightblue" d="M799.16,-190.48C788.72,-181.2 771.8,-166.17 759.03,-154.83"/>
<polygon fill="midnightblue" stroke="midnightblue" points="761.15,-152.03 751.35,-148.01 756.5,-157.27 761.15,-152.03"/>
</g>
<!-- Node17 -->
<g id="node17" class="node">
<title>Node17</title>
<g id="a_node17"><a xlink:title=" ">
<polygon fill="white" stroke="#bfbfbf" points="836.76,-129 836.76,-148 916.76,-148 916.76,-129 836.76,-129"/>
<text text-anchor="middle" x="876.76" y="-136" font-family="Helvetica,sans-Serif" font-size="10.00">Poco/Logger.h</text>
</a>
</g>
</g>
<!-- Node14&#45;&gt;Node17 -->
<g id="edge19" class="edge">
<title>Node14&#45;&gt;Node17</title>
<path fill="none" stroke="midnightblue" d="M818.51,-190.48C829.11,-181.2 846.28,-166.17 859.24,-154.83"/>
<polygon fill="midnightblue" stroke="midnightblue" points="861.82,-157.23 867.04,-148.01 857.21,-151.96 861.82,-157.23"/>
</g>
<!-- Node18 -->
<g id="node18" class="node">
<title>Node18</title>
<g id="a_node18"><a xlink:title=" ">
<polygon fill="white" stroke="#bfbfbf" points="934.76,-129 934.76,-148 1036.76,-148 1036.76,-129 934.76,-129"/>
<text text-anchor="middle" x="985.76" y="-136" font-family="Helvetica,sans-Serif" font-size="10.00">Poco/Net/Context.h</text>
</a>
</g>
</g>
<!-- Node14&#45;&gt;Node18 -->
<g id="edge20" class="edge">
<title>Node14&#45;&gt;Node18</title>
<path fill="none" stroke="midnightblue" d="M834.12,-190.48C864.75,-180.18 916.42,-162.81 950.81,-151.25"/>
<polygon fill="midnightblue" stroke="midnightblue" points="952.09,-154.51 960.45,-148.01 949.86,-147.88 952.09,-154.51"/>
</g>
<!-- Node19 -->
<g id="node19" class="node">
<title>Node19</title>
<g id="a_node19"><a xlink:title=" ">
<polygon fill="white" stroke="#bfbfbf" points="1055.26,-129 1055.26,-148 1170.26,-148 1170.26,-129 1055.26,-129"/>
<text text-anchor="middle" x="1112.76" y="-136" font-family="Helvetica,sans-Serif" font-size="10.00">Poco/AtomicCounter.h</text>
</a>
</g>
</g>
<!-- Node14&#45;&gt;Node19 -->
<g id="edge21" class="edge">
<title>Node14&#45;&gt;Node19</title>
<path fill="none" stroke="midnightblue" d="M855.6,-190.47C903.46,-181.67 979.89,-167.38 1045.76,-154 1051.67,-152.8 1057.85,-151.51 1063.98,-150.21"/>
<polygon fill="midnightblue" stroke="midnightblue" points="1065.14,-153.54 1074.18,-148.03 1063.67,-146.7 1065.14,-153.54"/>
</g>
<!-- Node20 -->
<g id="node20" class="node">
<title>Node20</title>
<g id="a_node20"><a xlink:href="_c_p_u_sheduler_8h.html" target="_top" xlink:title=" ">
<polygon fill="white" stroke="black" points="1188.26,-129 1188.26,-148 1293.26,-148 1293.26,-129 1188.26,-129"/>
<text text-anchor="middle" x="1240.76" y="-136" font-family="Helvetica,sans-Serif" font-size="10.00">task/CPUSheduler.h</text>
</a>
</g>
</g>
<!-- Node14&#45;&gt;Node20 -->
<g id="edge22" class="edge">
<title>Node14&#45;&gt;Node20</title>
<path fill="none" stroke="midnightblue" d="M855.87,-195C926.57,-188.61 1064.16,-174.68 1179.76,-154 1185.67,-152.94 1191.86,-151.67 1197.93,-150.32"/>
<polygon fill="midnightblue" stroke="midnightblue" points="1199.02,-153.66 1207.98,-148.01 1197.45,-146.84 1199.02,-153.66"/>
</g>
<!-- Node21 -->
<g id="node21" class="node">
<title>Node21</title>
<g id="a_node21"><a xlink:title=" ">
<polygon fill="white" stroke="#bfbfbf" points="445.76,-123.5 445.76,-153.5 549.76,-153.5 549.76,-123.5 445.76,-123.5"/>
<text text-anchor="start" x="453.76" y="-141.5" font-family="Helvetica,sans-Serif" font-size="10.00">gradido_blockchain</text>
<text text-anchor="middle" x="497.76" y="-130.5" font-family="Helvetica,sans-Serif" font-size="10.00">/http/JsonRequest.h</text>
</a>
</g>
</g>
<!-- Node14&#45;&gt;Node21 -->
<g id="edge23" class="edge">
<title>Node14&#45;&gt;Node21</title>
<path fill="none" stroke="midnightblue" d="M761.62,-191.31C713.41,-183.27 636.13,-169.9 560.18,-154.23"/>
<polygon fill="midnightblue" stroke="midnightblue" points="560.47,-150.72 549.97,-152.11 559.04,-157.57 560.47,-150.72"/>
</g>
<!-- Node22 -->
<g id="node22" class="node">
<title>Node22</title>
<g id="a_node22"><a xlink:href="controller_2_group_index_8h.html" target="_top" xlink:title=" ">
<polygon fill="white" stroke="black" points="568.26,-129 568.26,-148 685.26,-148 685.26,-129 568.26,-129"/>
<text text-anchor="middle" x="626.76" y="-136" font-family="Helvetica,sans-Serif" font-size="10.00">controller/GroupIndex.h</text>
</a>
</g>
</g>
<!-- Node14&#45;&gt;Node22 -->
<g id="edge24" class="edge">
<title>Node14&#45;&gt;Node22</title>
<path fill="none" stroke="midnightblue" d="M782.69,-190.48C751.2,-180.18 698.07,-162.81 662.71,-151.25"/>
<polygon fill="midnightblue" stroke="midnightblue" points="663.38,-147.79 652.79,-148.01 661.21,-154.44 663.38,-147.79"/>
</g>
<!-- Node22&#45;&gt;Node3 -->
<g id="edge29" class="edge">
<title>Node22&#45;&gt;Node3</title>
<path fill="none" stroke="midnightblue" d="M599.28,-128.87C562.6,-117.35 497.54,-96.92 456.63,-84.08"/>
<polygon fill="midnightblue" stroke="midnightblue" points="457.63,-80.72 447.04,-81.06 455.53,-87.4 457.63,-80.72"/>
</g>
<!-- Node22&#45;&gt;Node5 -->
<g id="edge30" class="edge">
<title>Node22&#45;&gt;Node5</title>
<path fill="none" stroke="midnightblue" d="M587.61,-128.97C578.17,-126.97 568.12,-124.87 558.76,-123 473.2,-105.9 450.66,-107.18 365.76,-87 361.66,-86.02 357.39,-84.92 353.15,-83.77"/>
<polygon fill="midnightblue" stroke="midnightblue" points="353.98,-80.37 343.41,-81.04 352.09,-87.11 353.98,-80.37"/>
</g>
<!-- Node22&#45;&gt;Node6 -->
<g id="edge28" class="edge">
<title>Node22&#45;&gt;Node6</title>
<path fill="none" stroke="midnightblue" d="M606.22,-128.84C584.35,-119.39 548.95,-103.4 519.76,-87 497.95,-74.74 496.27,-64.59 472.76,-56 348.1,-10.43 305.18,-40.12 170.99,-20.2"/>
<polygon fill="midnightblue" stroke="midnightblue" points="171.16,-16.69 160.74,-18.61 170.08,-23.61 171.16,-16.69"/>
</g>
<!-- Node23 -->
<g id="node23" class="node">
<title>Node23</title>
<g id="a_node23"><a xlink:href="model_2files_2_group_index_8h.html" target="_top" xlink:title=" ">
<polygon fill="white" stroke="black" points="647.26,-62 647.26,-81 780.26,-81 780.26,-62 647.26,-62"/>
<text text-anchor="middle" x="713.76" y="-69" font-family="Helvetica,sans-Serif" font-size="10.00">../model/files/GroupIndex.h</text>
</a>
</g>
</g>
<!-- Node22&#45;&gt;Node23 -->
<g id="edge25" class="edge">
<title>Node22&#45;&gt;Node23</title>
<path fill="none" stroke="midnightblue" d="M638.5,-128.73C652.72,-118.11 676.89,-100.05 694,-87.26"/>
<polygon fill="midnightblue" stroke="midnightblue" points="696.3,-89.92 702.22,-81.13 692.11,-84.31 696.3,-89.92"/>
</g>
<!-- Node24 -->
<g id="node24" class="node">
<title>Node24</title>
<g id="a_node24"><a xlink:title=" ">
<polygon fill="white" stroke="#bfbfbf" points="528.76,-56.5 528.76,-86.5 628.76,-86.5 628.76,-56.5 528.76,-56.5"/>
<text text-anchor="start" x="536.76" y="-74.5" font-family="Helvetica,sans-Serif" font-size="10.00">gradido_blockchain</text>
<text text-anchor="middle" x="578.76" y="-63.5" font-family="Helvetica,sans-Serif" font-size="10.00">/lib/DRHashList.h</text>
</a>
</g>
</g>
<!-- Node22&#45;&gt;Node24 -->
<g id="edge27" class="edge">
<title>Node22&#45;&gt;Node24</title>
<path fill="none" stroke="midnightblue" d="M620.29,-128.73C613.87,-120.03 603.76,-106.34 595.12,-94.65"/>
<polygon fill="midnightblue" stroke="midnightblue" points="597.92,-92.55 589.17,-86.59 592.29,-96.71 597.92,-92.55"/>
</g>
<!-- Node23&#45;&gt;Node15 -->
<g id="edge26" class="edge">
<title>Node23&#45;&gt;Node15</title>
<path fill="none" stroke="midnightblue" d="M720.5,-61.98C727.55,-53.05 738.8,-38.81 747.62,-27.64"/>
<polygon fill="midnightblue" stroke="midnightblue" points="750.59,-29.53 754.04,-19.51 745.1,-25.19 750.59,-29.53"/>
</g>
</g>
</svg>
