<?xml version="1.0" encoding="UTF-8" standalone="no"?>
<!DOCTYPE svg PUBLIC "-//W3C//DTD SVG 1.1//EN"
 "http://www.w3.org/Graphics/SVG/1.1/DTD/svg11.dtd">
<!-- Generated by graphviz version 2.50.0 (20211204.2007)
 -->
<!-- Title: src/model Pages: 1 -->
<svg width="354pt" height="175pt"
 viewBox="0.00 0.00 354.00 175.00" xmlns="http://www.w3.org/2000/svg" xmlns:xlink="http://www.w3.org/1999/xlink">
<g id="graph0" class="graph" transform="scale(1 1) rotate(0) translate(4 171)">
<title>src/model</title>
<polygon fill="white" stroke="transparent" points="-4,4 -4,-171 350,-171 350,4 -4,4"/>
<g id="clust1" class="cluster">
<title>clusterdir_68267d1309a1af8e8297ef4c3efbcdba</title>
<g id="a_clust1"><a xlink:href="dir_68267d1309a1af8e8297ef4c3efbcdba.html" target="_top" xlink:title="src">
<polygon fill="#edf0f7" stroke="#404040" stroke-dasharray="5,2" points="8,-8 8,-159 338,-159 338,-8 8,-8"/>
<text text-anchor="middle" x="173" y="-147" font-family="Helvetica,sans-Serif" font-size="10.00">src</text>
</a>
</g>
</g>
<g id="clust2" class="cluster">
<title>clusterdir_5dd65160827af56e6353642206b80129</title>
<g id="a_clust2"><a xlink:href="dir_5dd65160827af56e6353642206b80129.html" target="_top">
<polygon fill="#edf0f7" stroke="#404040" stroke-width="2" points="16,-80 16,-132 158,-132 158,-80 16,-80"/>
</a>
</g>
</g>
<!-- dir_2446a0d63b267fbc56c08872bbbb5182 -->
<g id="node1" class="node">
<title>dir_2446a0d63b267fbc56c08872bbbb5182</title>
<g id="a_node1"><a xlink:href="dir_2446a0d63b267fbc56c08872bbbb5182.html" target="_top" xlink:title="task">
<polygon fill="#a2b4d6" stroke="#404040" points="144,-52 90,-52 90,-16 144,-16 144,-52"/>
<text text-anchor="middle" x="117" y="-31.5" font-family="Helvetica,sans-Serif" font-size="10.00">task</text>
</a>
</g>
</g>
<!-- dir_fb24ec2bd7f4507aac0a18c22ae9bf9b -->
<g id="node2" class="node">
<title>dir_fb24ec2bd7f4507aac0a18c22ae9bf9b</title>
<g id="a_node2"><a xlink:href="dir_fb24ec2bd7f4507aac0a18c22ae9bf9b.html" target="_top" xlink:title="SingletonManager">
<polygon fill="#a2b4d6" stroke="#404040" points="257.5,-52 162.5,-52 162.5,-16 257.5,-16 257.5,-52"/>
<text text-anchor="middle" x="210" y="-31.5" font-family="Helvetica,sans-Serif" font-size="10.00">SingletonManager</text>
</a>
</g>
</g>
<!-- dir_c85d3e3c5052e9ad9ce18c6863244a25 -->
<g id="node3" class="node">
<title>dir_c85d3e3c5052e9ad9ce18c6863244a25</title>
<g id="a_node3"><a xlink:href="dir_c85d3e3c5052e9ad9ce18c6863244a25.html" target="_top" xlink:title="lib">
<polygon fill="#a2b4d6" stroke="#404040" points="330,-52 276,-52 276,-16 330,-16 330,-52"/>
<text text-anchor="middle" x="303" y="-31.5" font-family="Helvetica,sans-Serif" font-size="10.00">lib</text>
</a>
</g>
</g>
<!-- dir_41ef5d8a90b9cc03a02949a5c062e6f0 -->
<g id="node4" class="node">
<title>dir_41ef5d8a90b9cc03a02949a5c062e6f0</title>
<g id="a_node4"><a xlink:href="dir_41ef5d8a90b9cc03a02949a5c062e6f0.html" target="_top" xlink:title="controller">
<polygon fill="#a2b4d6" stroke="#404040" points="72,-52 16,-52 16,-16 72,-16 72,-52"/>
<text text-anchor="middle" x="44" y="-31.5" font-family="Helvetica,sans-Serif" font-size="10.00">controller</text>
</a>
</g>
</g>
<!-- dir_5dd65160827af56e6353642206b80129 -->
<g id="node5" class="node">
<title>dir_5dd65160827af56e6353642206b80129</title>
<text text-anchor="middle" x="51" y="-103.5" font-family="Helvetica,sans-Serif" font-size="10.00">model</text>
</g>
<!-- dir_5dd65160827af56e6353642206b80129&#45;&gt;dir_41ef5d8a90b9cc03a02949a5c062e6f0 -->
<g id="edge1" class="edge">
<title>dir_5dd65160827af56e6353642206b80129&#45;&gt;dir_41ef5d8a90b9cc03a02949a5c062e6f0</title>
<path fill="none" stroke="black" d="M49.27,-87.7C48.5,-79.98 47.57,-70.71 46.71,-62.11"/>
<polygon fill="black" stroke="black" points="50.19,-61.71 45.71,-52.1 43.22,-62.4 50.19,-61.71"/>
<g id="a_edge1&#45;headlabel"><a xlink:href="dir_000005_000000.html" target="_top" xlink:title="2">
<text text-anchor="middle" x="53.37" y="-62.5" font-family="Helvetica,sans-Serif" font-size="10.00">2</text>
</a>
</g>
</g>
<!-- dir_89356c07892b6ff3ab361b2626767945 -->
<g id="node6" class="node">
<title>dir_89356c07892b6ff3ab361b2626767945</title>
<g id="a_node6"><a xlink:href="dir_89356c07892b6ff3ab361b2626767945.html" target="_top" xlink:title="files">
<polygon fill="#a2b4d6" stroke="#404040" points="150,-124 96,-124 96,-88 150,-88 150,-124"/>
<text text-anchor="middle" x="123" y="-103.5" font-family="Helvetica,sans-Serif" font-size="10.00">files</text>
</a>
</g>
</g>
<!-- dir_89356c07892b6ff3ab361b2626767945&#45;&gt;dir_2446a0d63b267fbc56c08872bbbb5182 -->
<g id="edge2" class="edge">
<title>dir_89356c07892b6ff3ab361b2626767945&#45;&gt;dir_2446a0d63b267fbc56c08872bbbb5182</title>
<path fill="none" stroke="black" d="M121.52,-87.7C120.86,-79.98 120.06,-70.71 119.32,-62.11"/>
<polygon fill="black" stroke="black" points="122.81,-61.77 118.47,-52.1 115.83,-62.37 122.81,-61.77"/>
<g id="a_edge2&#45;headlabel"><a xlink:href="dir_000001_000008.html" target="_top" xlink:title="1">
<text text-anchor="middle" x="125.94" y="-62.61" font-family="Helvetica,sans-Serif" font-size="10.00">1</text>
</a>
</g>
</g>
<!-- dir_89356c07892b6ff3ab361b2626767945&#45;&gt;dir_fb24ec2bd7f4507aac0a18c22ae9bf9b -->
<g id="edge5" class="edge">
<title>dir_89356c07892b6ff3ab361b2626767945&#45;&gt;dir_fb24ec2bd7f4507aac0a18c22ae9bf9b</title>
<path fill="none" stroke="black" d="M144.51,-87.7C155.46,-78.88 168.95,-68.03 180.82,-58.47"/>
<polygon fill="black" stroke="black" points="183.14,-61.1 188.74,-52.1 178.76,-55.65 183.14,-61.1"/>
<g id="a_edge5&#45;headlabel"><a xlink:href="dir_000001_000006.html" target="_top" xlink:title="7">
<text text-anchor="middle" x="182.12" y="-63.07" font-family="Helvetica,sans-Serif" font-size="10.00">7</text>
</a>
</g>
</g>
<!-- dir_89356c07892b6ff3ab361b2626767945&#45;&gt;dir_c85d3e3c5052e9ad9ce18c6863244a25 -->
<g id="edge4" class="edge">
<title>dir_89356c07892b6ff3ab361b2626767945&#45;&gt;dir_c85d3e3c5052e9ad9ce18c6863244a25</title>
<path fill="none" stroke="black" d="M150.08,-95.84C177.35,-86.43 220.77,-70.99 266.51,-52.04"/>
<polygon fill="black" stroke="black" points="268.11,-55.16 275.99,-48.07 265.41,-48.7 268.11,-55.16"/>
<g id="a_edge4&#45;headlabel"><a xlink:href="dir_000001_000004.html" target="_top" xlink:title="4">
<text text-anchor="middle" x="265.89" y="-56.66" font-family="Helvetica,sans-Serif" font-size="10.00">4</text>
</a>
</g>
</g>
<!-- dir_89356c07892b6ff3ab361b2626767945&#45;&gt;dir_41ef5d8a90b9cc03a02949a5c062e6f0 -->
<g id="edge3" class="edge">
<title>dir_89356c07892b6ff3ab361b2626767945&#45;&gt;dir_41ef5d8a90b9cc03a02949a5c062e6f0</title>
<path fill="none" stroke="black" d="M103.47,-87.7C93.62,-78.97 81.51,-68.24 70.8,-58.75"/>
<polygon fill="black" stroke="black" points="73.11,-56.12 63.3,-52.1 68.47,-61.36 73.11,-56.12"/>
<g id="a_edge3&#45;headlabel"><a xlink:href="dir_000001_000000.html" target="_top" xlink:title="1">
<text text-anchor="middle" x="77.68" y="-53.88" font-family="Helvetica,sans-Serif" font-size="10.00">1</text>
</a>
</g>
</g>
</g>
</svg>
