<?xml version="1.0" encoding="UTF-8" standalone="no"?>
<!DOCTYPE svg PUBLIC "-//W3C//DTD SVG 1.1//EN"
 "http://www.w3.org/Graphics/SVG/1.1/DTD/svg11.dtd">
<!-- Generated by graphviz version 2.50.0 (20211204.2007)
 -->
<!-- Title: src/SingletonManager Pages: 1 -->
<svg width="384pt" height="167pt"
 viewBox="0.00 0.00 384.00 167.00" xmlns="http://www.w3.org/2000/svg" xmlns:xlink="http://www.w3.org/1999/xlink">
<g id="graph0" class="graph" transform="scale(1 1) rotate(0) translate(4 163)">
<title>src/SingletonManager</title>
<polygon fill="white" stroke="transparent" points="-4,4 -4,-163 380,-163 380,4 -4,4"/>
<g id="clust1" class="cluster">
<title>clusterdir_68267d1309a1af8e8297ef4c3efbcdba</title>
<g id="a_clust1"><a xlink:href="dir_68267d1309a1af8e8297ef4c3efbcdba.html" target="_top" xlink:title="src">
<polygon fill="#edf0f7" stroke="#404040" stroke-dasharray="5,2" points="8,-8 8,-151 368,-151 368,-8 8,-8"/>
<text text-anchor="middle" x="188" y="-139" font-family="Helvetica,sans-Serif" font-size="10.00">src</text>
</a>
</g>
</g>
<!-- dir_2446a0d63b267fbc56c08872bbbb5182 -->
<g id="node1" class="node">
<title>dir_2446a0d63b267fbc56c08872bbbb5182</title>
<g id="a_node1"><a xlink:href="dir_2446a0d63b267fbc56c08872bbbb5182.html" target="_top" xlink:title="task">
<polygon fill="#a2b4d6" stroke="#404040" points="70,-52 16,-52 16,-16 70,-16 70,-52"/>
<text text-anchor="middle" x="43" y="-31.5" font-family="Helvetica,sans-Serif" font-size="10.00">task</text>
</a>
</g>
</g>
<!-- dir_cdfff646a9c2058824cf358c996f10c4 -->
<g id="node2" class="node">
<title>dir_cdfff646a9c2058824cf358c996f10c4</title>
<g id="a_node2"><a xlink:href="dir_cdfff646a9c2058824cf358c996f10c4.html" target="_top" xlink:title="iota">
<polygon fill="#a2b4d6" stroke="#404040" points="142,-52 88,-52 88,-16 142,-16 142,-52"/>
<text text-anchor="middle" x="115" y="-31.5" font-family="Helvetica,sans-Serif" font-size="10.00">iota</text>
</a>
</g>
</g>
<!-- dir_c85d3e3c5052e9ad9ce18c6863244a25 -->
<g id="node3" class="node">
<title>dir_c85d3e3c5052e9ad9ce18c6863244a25</title>
<g id="a_node3"><a xlink:href="dir_c85d3e3c5052e9ad9ce18c6863244a25.html" target="_top" xlink:title="lib">
<polygon fill="#a2b4d6" stroke="#404040" points="214,-52 160,-52 160,-16 214,-16 214,-52"/>
<text text-anchor="middle" x="187" y="-31.5" font-family="Helvetica,sans-Serif" font-size="10.00">lib</text>
</a>
</g>
</g>
<!-- dir_41ef5d8a90b9cc03a02949a5c062e6f0 -->
<g id="node4" class="node">
<title>dir_41ef5d8a90b9cc03a02949a5c062e6f0</title>
<g id="a_node4"><a xlink:href="dir_41ef5d8a90b9cc03a02949a5c062e6f0.html" target="_top" xlink:title="controller">
<polygon fill="#a2b4d6" stroke="#404040" points="288,-52 232,-52 232,-16 288,-16 288,-52"/>
<text text-anchor="middle" x="260" y="-31.5" font-family="Helvetica,sans-Serif" font-size="10.00">controller</text>
</a>
</g>
</g>
<!-- dir_5dd65160827af56e6353642206b80129 -->
<g id="node5" class="node">
<title>dir_5dd65160827af56e6353642206b80129</title>
<g id="a_node5"><a xlink:href="dir_5dd65160827af56e6353642206b80129.html" target="_top" xlink:title="model">
<polygon fill="#a2b4d6" stroke="red" points="360,-52 306,-52 306,-16 360,-16 360,-52"/>
<text text-anchor="middle" x="333" y="-31.5" font-family="Helvetica,sans-Serif" font-size="10.00">model</text>
</a>
</g>
</g>
<!-- dir_fb24ec2bd7f4507aac0a18c22ae9bf9b -->
<g id="node6" class="node">
<title>dir_fb24ec2bd7f4507aac0a18c22ae9bf9b</title>
<g id="a_node6"><a xlink:href="dir_fb24ec2bd7f4507aac0a18c22ae9bf9b.html" target="_top" xlink:title="SingletonManager">
<polygon fill="#edf0f7" stroke="#404040" stroke-width="2" points="234.5,-124 139.5,-124 139.5,-88 234.5,-88 234.5,-124"/>
<text text-anchor="middle" x="187" y="-103.5" font-family="Helvetica,sans-Serif" font-size="10.00">SingletonManager</text>
</a>
</g>
</g>
<!-- dir_fb24ec2bd7f4507aac0a18c22ae9bf9b&#45;&gt;dir_2446a0d63b267fbc56c08872bbbb5182 -->
<g id="edge1" class="edge">
<title>dir_fb24ec2bd7f4507aac0a18c22ae9bf9b&#45;&gt;dir_2446a0d63b267fbc56c08872bbbb5182</title>
<path fill="none" stroke="black" d="M151.77,-87.88C129.77,-77.18 101.51,-63.44 79.3,-52.65"/>
<polygon fill="black" stroke="black" points="80.72,-49.44 70.2,-48.22 77.66,-55.74 80.72,-49.44"/>
<g id="a_edge1&#45;headlabel"><a xlink:href="dir_000006_000008.html" target="_top" xlink:title="1">
<text text-anchor="middle" x="85.19" y="-45.96" font-family="Helvetica,sans-Serif" font-size="10.00">1</text>
</a>
</g>
</g>
<!-- dir_fb24ec2bd7f4507aac0a18c22ae9bf9b&#45;&gt;dir_cdfff646a9c2058824cf358c996f10c4 -->
<g id="edge5" class="edge">
<title>dir_fb24ec2bd7f4507aac0a18c22ae9bf9b&#45;&gt;dir_cdfff646a9c2058824cf358c996f10c4</title>
<path fill="none" stroke="black" d="M169.2,-87.7C160.4,-79.14 149.62,-68.66 140,-59.3"/>
<polygon fill="black" stroke="black" points="142.2,-56.57 132.59,-52.1 137.32,-61.58 142.2,-56.57"/>
<g id="a_edge5&#45;headlabel"><a xlink:href="dir_000006_000002.html" target="_top" xlink:title="2">
<text text-anchor="middle" x="146.76" y="-54.54" font-family="Helvetica,sans-Serif" font-size="10.00">2</text>
</a>
</g>
</g>
<!-- dir_fb24ec2bd7f4507aac0a18c22ae9bf9b&#45;&gt;dir_c85d3e3c5052e9ad9ce18c6863244a25 -->
<g id="edge4" class="edge">
<title>dir_fb24ec2bd7f4507aac0a18c22ae9bf9b&#45;&gt;dir_c85d3e3c5052e9ad9ce18c6863244a25</title>
<path fill="none" stroke="black" d="M187,-87.7C187,-79.98 187,-70.71 187,-62.11"/>
<polygon fill="black" stroke="black" points="190.5,-62.1 187,-52.1 183.5,-62.1 190.5,-62.1"/>
<g id="a_edge4&#45;headlabel"><a xlink:href="dir_000006_000004.html" target="_top" xlink:title="1">
<text text-anchor="middle" x="193.34" y="-63.2" font-family="Helvetica,sans-Serif" font-size="10.00">1</text>
</a>
</g>
</g>
<!-- dir_fb24ec2bd7f4507aac0a18c22ae9bf9b&#45;&gt;dir_41ef5d8a90b9cc03a02949a5c062e6f0 -->
<g id="edge2" class="edge">
<title>dir_fb24ec2bd7f4507aac0a18c22ae9bf9b&#45;&gt;dir_41ef5d8a90b9cc03a02949a5c062e6f0</title>
<path fill="none" stroke="black" d="M205.04,-87.7C214.06,-79.05 225.12,-68.45 234.94,-59.03"/>
<polygon fill="black" stroke="black" points="237.37,-61.55 242.16,-52.1 232.52,-56.5 237.37,-61.55"/>
<g id="a_edge2&#45;headlabel"><a xlink:href="dir_000006_000000.html" target="_top" xlink:title="3">
<text text-anchor="middle" x="236.74" y="-63.59" font-family="Helvetica,sans-Serif" font-size="10.00">3</text>
</a>
</g>
</g>
<!-- dir_fb24ec2bd7f4507aac0a18c22ae9bf9b&#45;&gt;dir_5dd65160827af56e6353642206b80129 -->
<g id="edge3" class="edge">
<title>dir_fb24ec2bd7f4507aac0a18c22ae9bf9b&#45;&gt;dir_5dd65160827af56e6353642206b80129</title>
<path fill="none" stroke="black" d="M222.72,-87.88C245.17,-77.11 274.06,-63.26 296.64,-52.43"/>
<polygon fill="black" stroke="black" points="298.39,-55.48 305.89,-48 295.36,-49.16 298.39,-55.48"/>
<g id="a_edge3&#45;headlabel"><a xlink:href="dir_000006_000005.html" target="_top" xlink:title="2">
<text text-anchor="middle" x="296.37" y="-57.09" font-family="Helvetica,sans-Serif" font-size="10.00">2</text>
</a>
</g>
</g>
</g>
</svg>
