<?xml version="1.0" encoding="UTF-8" standalone="no"?>
<!DOCTYPE svg PUBLIC "-//W3C//DTD SVG 1.1//EN"
 "http://www.w3.org/Graphics/SVG/1.1/DTD/svg11.dtd">
<!-- Generated by graphviz version 2.50.0 (20211204.2007)
 -->
<!-- Title: src/JSONRPCInterface Pages: 1 -->
<svg width="208pt" height="167pt"
 viewBox="0.00 0.00 208.00 167.00" xmlns="http://www.w3.org/2000/svg" xmlns:xlink="http://www.w3.org/1999/xlink">
<g id="graph0" class="graph" transform="scale(1 1) rotate(0) translate(4 163)">
<title>src/JSONRPCInterface</title>
<polygon fill="white" stroke="transparent" points="-4,4 -4,-163 204,-163 204,4 -4,4"/>
<g id="clust1" class="cluster">
<title>clusterdir_68267d1309a1af8e8297ef4c3efbcdba</title>
<g id="a_clust1"><a xlink:href="dir_68267d1309a1af8e8297ef4c3efbcdba.html" target="_top" xlink:title="src">
<polygon fill="#edf0f7" stroke="#404040" stroke-dasharray="5,2" points="8,-8 8,-151 192,-151 192,-8 8,-8"/>
<text text-anchor="middle" x="100" y="-139" font-family="Helvetica,sans-Serif" font-size="10.00">src</text>
</a>
</g>
</g>
<!-- dir_c85d3e3c5052e9ad9ce18c6863244a25 -->
<g id="node1" class="node">
<title>dir_c85d3e3c5052e9ad9ce18c6863244a25</title>
<g id="a_node1"><a xlink:href="dir_c85d3e3c5052e9ad9ce18c6863244a25.html" target="_top" xlink:title="lib">
<polygon fill="#a2b4d6" stroke="#404040" points="70,-52 16,-52 16,-16 70,-16 70,-52"/>
<text text-anchor="middle" x="43" y="-31.5" font-family="Helvetica,sans-Serif" font-size="10.00">lib</text>
</a>
</g>
</g>
<!-- dir_fb24ec2bd7f4507aac0a18c22ae9bf9b -->
<g id="node2" class="node">
<title>dir_fb24ec2bd7f4507aac0a18c22ae9bf9b</title>
<g id="a_node2"><a xlink:href="dir_fb24ec2bd7f4507aac0a18c22ae9bf9b.html" target="_top" xlink:title="SingletonManager">
<polygon fill="#a2b4d6" stroke="#404040" points="183.5,-52 88.5,-52 88.5,-16 183.5,-16 183.5,-52"/>
<text text-anchor="middle" x="136" y="-31.5" font-family="Helvetica,sans-Serif" font-size="10.00">SingletonManager</text>
</a>
</g>
</g>
<!-- dir_157d4ecff99fd8e9941287f9a8f59efa -->
<g id="node3" class="node">
<title>dir_157d4ecff99fd8e9941287f9a8f59efa</title>
<g id="a_node3"><a xlink:href="dir_157d4ecff99fd8e9941287f9a8f59efa.html" target="_top" xlink:title="JSONRPCInterface">
<polygon fill="#edf0f7" stroke="#404040" stroke-width="2" points="149.5,-124 50.5,-124 50.5,-88 149.5,-88 149.5,-124"/>
<text text-anchor="middle" x="100" y="-103.5" font-family="Helvetica,sans-Serif" font-size="10.00">JSONRPCInterface</text>
</a>
</g>
</g>
<!-- dir_157d4ecff99fd8e9941287f9a8f59efa&#45;&gt;dir_c85d3e3c5052e9ad9ce18c6863244a25 -->
<g id="edge1" class="edge">
<title>dir_157d4ecff99fd8e9941287f9a8f59efa&#45;&gt;dir_c85d3e3c5052e9ad9ce18c6863244a25</title>
<path fill="none" stroke="black" d="M85.91,-87.7C79.08,-79.3 70.74,-69.07 63.24,-59.86"/>
<polygon fill="black" stroke="black" points="65.96,-57.65 56.93,-52.1 60.53,-62.07 65.96,-57.65"/>
<g id="a_edge1&#45;headlabel"><a xlink:href="dir_000003_000004.html" target="_top" xlink:title="1">
<text text-anchor="middle" x="70.43" y="-56.14" font-family="Helvetica,sans-Serif" font-size="10.00">1</text>
</a>
</g>
</g>
<!-- dir_157d4ecff99fd8e9941287f9a8f59efa&#45;&gt;dir_fb24ec2bd7f4507aac0a18c22ae9bf9b -->
<g id="edge2" class="edge">
<title>dir_157d4ecff99fd8e9941287f9a8f59efa&#45;&gt;dir_fb24ec2bd7f4507aac0a18c22ae9bf9b</title>
<path fill="none" stroke="black" d="M108.9,-87.7C113,-79.73 117.95,-70.1 122.49,-61.26"/>
<polygon fill="black" stroke="black" points="125.74,-62.6 127.2,-52.1 119.52,-59.4 125.74,-62.6"/>
<g id="a_edge2&#45;headlabel"><a xlink:href="dir_000003_000006.html" target="_top" xlink:title="1">
<text text-anchor="middle" x="126.62" y="-64.59" font-family="Helvetica,sans-Serif" font-size="10.00">1</text>
</a>
</g>
</g>
</g>
</svg>
