<?xml version="1.0" encoding="UTF-8" standalone="no"?>
<!DOCTYPE svg PUBLIC "-//W3C//DTD SVG 1.1//EN"
 "http://www.w3.org/Graphics/SVG/1.1/DTD/svg11.dtd">
<!-- Generated by graphviz version 2.50.0 (20211204.2007)
 -->
<!-- Title: src/task Pages: 1 -->
<svg width="426pt" height="167pt"
 viewBox="0.00 0.00 426.00 167.00" xmlns="http://www.w3.org/2000/svg" xmlns:xlink="http://www.w3.org/1999/xlink">
<g id="graph0" class="graph" transform="scale(1 1) rotate(0) translate(4 163)">
<title>src/task</title>
<polygon fill="white" stroke="transparent" points="-4,4 -4,-163 422,-163 422,4 -4,4"/>
<g id="clust1" class="cluster">
<title>clusterdir_68267d1309a1af8e8297ef4c3efbcdba</title>
<g id="a_clust1"><a xlink:href="dir_68267d1309a1af8e8297ef4c3efbcdba.html" target="_top" xlink:title="src">
<polygon fill="#edf0f7" stroke="#404040" stroke-dasharray="5,2" points="8,-8 8,-151 410,-151 410,-8 8,-8"/>
<text text-anchor="middle" x="209" y="-139" font-family="Helvetica,sans-Serif" font-size="10.00">src</text>
</a>
</g>
</g>
<!-- dir_41ef5d8a90b9cc03a02949a5c062e6f0 -->
<g id="node1" class="node">
<title>dir_41ef5d8a90b9cc03a02949a5c062e6f0</title>
<g id="a_node1"><a xlink:href="dir_41ef5d8a90b9cc03a02949a5c062e6f0.html" target="_top" xlink:title="controller">
<polygon fill="#a2b4d6" stroke="#404040" points="72,-52 16,-52 16,-16 72,-16 72,-52"/>
<text text-anchor="middle" x="44" y="-31.5" font-family="Helvetica,sans-Serif" font-size="10.00">controller</text>
</a>
</g>
</g>
<!-- dir_fb24ec2bd7f4507aac0a18c22ae9bf9b -->
<g id="node2" class="node">
<title>dir_fb24ec2bd7f4507aac0a18c22ae9bf9b</title>
<g id="a_node2"><a xlink:href="dir_fb24ec2bd7f4507aac0a18c22ae9bf9b.html" target="_top" xlink:title="SingletonManager">
<polygon fill="#a2b4d6" stroke="#404040" points="185.5,-52 90.5,-52 90.5,-16 185.5,-16 185.5,-52"/>
<text text-anchor="middle" x="138" y="-31.5" font-family="Helvetica,sans-Serif" font-size="10.00">SingletonManager</text>
</a>
</g>
</g>
<!-- dir_cdfff646a9c2058824cf358c996f10c4 -->
<g id="node3" class="node">
<title>dir_cdfff646a9c2058824cf358c996f10c4</title>
<g id="a_node3"><a xlink:href="dir_cdfff646a9c2058824cf358c996f10c4.html" target="_top" xlink:title="iota">
<polygon fill="#a2b4d6" stroke="#404040" points="258,-52 204,-52 204,-16 258,-16 258,-52"/>
<text text-anchor="middle" x="231" y="-31.5" font-family="Helvetica,sans-Serif" font-size="10.00">iota</text>
</a>
</g>
</g>
<!-- dir_c85d3e3c5052e9ad9ce18c6863244a25 -->
<g id="node4" class="node">
<title>dir_c85d3e3c5052e9ad9ce18c6863244a25</title>
<g id="a_node4"><a xlink:href="dir_c85d3e3c5052e9ad9ce18c6863244a25.html" target="_top" xlink:title="lib">
<polygon fill="#a2b4d6" stroke="#404040" points="330,-52 276,-52 276,-16 330,-16 330,-52"/>
<text text-anchor="middle" x="303" y="-31.5" font-family="Helvetica,sans-Serif" font-size="10.00">lib</text>
</a>
</g>
</g>
<!-- dir_5dd65160827af56e6353642206b80129 -->
<g id="node5" class="node">
<title>dir_5dd65160827af56e6353642206b80129</title>
<g id="a_node5"><a xlink:href="dir_5dd65160827af56e6353642206b80129.html" target="_top" xlink:title="model">
<polygon fill="#a2b4d6" stroke="red" points="402,-52 348,-52 348,-16 402,-16 402,-52"/>
<text text-anchor="middle" x="375" y="-31.5" font-family="Helvetica,sans-Serif" font-size="10.00">model</text>
</a>
</g>
</g>
<!-- dir_2446a0d63b267fbc56c08872bbbb5182 -->
<g id="node6" class="node">
<title>dir_2446a0d63b267fbc56c08872bbbb5182</title>
<g id="a_node6"><a xlink:href="dir_2446a0d63b267fbc56c08872bbbb5182.html" target="_top" xlink:title="task">
<polygon fill="#edf0f7" stroke="#404040" stroke-width="2" points="258,-124 204,-124 204,-88 258,-88 258,-124"/>
<text text-anchor="middle" x="231" y="-103.5" font-family="Helvetica,sans-Serif" font-size="10.00">task</text>
</a>
</g>
</g>
<!-- dir_2446a0d63b267fbc56c08872bbbb5182&#45;&gt;dir_41ef5d8a90b9cc03a02949a5c062e6f0 -->
<g id="edge1" class="edge">
<title>dir_2446a0d63b267fbc56c08872bbbb5182&#45;&gt;dir_41ef5d8a90b9cc03a02949a5c062e6f0</title>
<path fill="none" stroke="black" d="M203.84,-96.06C173.79,-86 124.05,-68.85 82,-52 81.8,-51.92 81.6,-51.84 81.39,-51.76"/>
<polygon fill="black" stroke="black" points="82.69,-48.51 72.12,-47.88 79.99,-54.96 82.69,-48.51"/>
<g id="a_edge1&#45;headlabel"><a xlink:href="dir_000008_000000.html" target="_top" xlink:title="1">
<text text-anchor="middle" x="87.1" y="-44.77" font-family="Helvetica,sans-Serif" font-size="10.00">1</text>
</a>
</g>
</g>
<!-- dir_2446a0d63b267fbc56c08872bbbb5182&#45;&gt;dir_fb24ec2bd7f4507aac0a18c22ae9bf9b -->
<g id="edge5" class="edge">
<title>dir_2446a0d63b267fbc56c08872bbbb5182&#45;&gt;dir_fb24ec2bd7f4507aac0a18c22ae9bf9b</title>
<path fill="none" stroke="black" d="M208.01,-87.7C196.19,-78.8 181.61,-67.82 168.82,-58.2"/>
<polygon fill="black" stroke="black" points="170.82,-55.32 160.72,-52.1 166.61,-60.91 170.82,-55.32"/>
<g id="a_edge5&#45;headlabel"><a xlink:href="dir_000008_000006.html" target="_top" xlink:title="3">
<text text-anchor="middle" x="175.4" y="-52.71" font-family="Helvetica,sans-Serif" font-size="10.00">3</text>
</a>
</g>
</g>
<!-- dir_2446a0d63b267fbc56c08872bbbb5182&#45;&gt;dir_cdfff646a9c2058824cf358c996f10c4 -->
<g id="edge4" class="edge">
<title>dir_2446a0d63b267fbc56c08872bbbb5182&#45;&gt;dir_cdfff646a9c2058824cf358c996f10c4</title>
<path fill="none" stroke="black" d="M231,-87.7C231,-79.98 231,-70.71 231,-62.11"/>
<polygon fill="black" stroke="black" points="234.5,-62.1 231,-52.1 227.5,-62.1 234.5,-62.1"/>
<g id="a_edge4&#45;headlabel"><a xlink:href="dir_000008_000002.html" target="_top" xlink:title="2">
<text text-anchor="middle" x="237.34" y="-63.2" font-family="Helvetica,sans-Serif" font-size="10.00">2</text>
</a>
</g>
</g>
<!-- dir_2446a0d63b267fbc56c08872bbbb5182&#45;&gt;dir_c85d3e3c5052e9ad9ce18c6863244a25 -->
<g id="edge3" class="edge">
<title>dir_2446a0d63b267fbc56c08872bbbb5182&#45;&gt;dir_c85d3e3c5052e9ad9ce18c6863244a25</title>
<path fill="none" stroke="black" d="M248.8,-87.7C257.6,-79.14 268.38,-68.66 278,-59.3"/>
<polygon fill="black" stroke="black" points="280.68,-61.58 285.41,-52.1 275.8,-56.57 280.68,-61.58"/>
<g id="a_edge3&#45;headlabel"><a xlink:href="dir_000008_000004.html" target="_top" xlink:title="1">
<text text-anchor="middle" x="280.08" y="-63.63" font-family="Helvetica,sans-Serif" font-size="10.00">1</text>
</a>
</g>
</g>
<!-- dir_2446a0d63b267fbc56c08872bbbb5182&#45;&gt;dir_5dd65160827af56e6353642206b80129 -->
<g id="edge2" class="edge">
<title>dir_2446a0d63b267fbc56c08872bbbb5182&#45;&gt;dir_5dd65160827af56e6353642206b80129</title>
<path fill="none" stroke="black" d="M258.09,-91.83C280.77,-80.81 313.36,-64.97 338.37,-52.81"/>
<polygon fill="black" stroke="black" points="340.08,-55.87 347.55,-48.35 337.02,-49.57 340.08,-55.87"/>
<g id="a_edge2&#45;headlabel"><a xlink:href="dir_000008_000005.html" target="_top" xlink:title="2">
<text text-anchor="middle" x="338.09" y="-57.49" font-family="Helvetica,sans-Serif" font-size="10.00">2</text>
</a>
</g>
</g>
</g>
</svg>
