<?xml version="1.0" encoding="UTF-8" standalone="no"?>
<!DOCTYPE svg PUBLIC "-//W3C//DTD SVG 1.1//EN"
 "http://www.w3.org/Graphics/SVG/1.1/DTD/svg11.dtd">
<!-- Generated by graphviz version 2.50.0 (20211204.2007)
 -->
<!-- Title: src Pages: 1 -->
<svg width="312pt" height="508pt"
 viewBox="0.00 0.00 312.00 508.00" xmlns="http://www.w3.org/2000/svg" xmlns:xlink="http://www.w3.org/1999/xlink">
<g id="graph0" class="graph" transform="scale(1 1) rotate(0) translate(4 504)">
<title>src</title>
<polygon fill="white" stroke="transparent" points="-4,4 -4,-504 308,-504 308,4 -4,4"/>
<g id="clust1" class="cluster">
<title>clusterdir_68267d1309a1af8e8297ef4c3efbcdba</title>
<g id="a_clust1"><a xlink:href="dir_68267d1309a1af8e8297ef4c3efbcdba.html" target="_top">
<polygon fill="#edf0f7" stroke="#404040" stroke-width="2" points="8,-8 8,-492 296,-492 296,-8 8,-8"/>
</a>
</g>
</g>
<!-- dir_68267d1309a1af8e8297ef4c3efbcdba -->
<g id="node1" class="node">
<title>dir_68267d1309a1af8e8297ef4c3efbcdba</title>
<text text-anchor="middle" x="123" y="-463.5" font-family="Helvetica,sans-Serif" font-size="10.00">src</text>
</g>
<!-- dir_41ef5d8a90b9cc03a02949a5c062e6f0 -->
<g id="node2" class="node">
<title>dir_41ef5d8a90b9cc03a02949a5c062e6f0</title>
<g id="a_node2"><a xlink:href="dir_41ef5d8a90b9cc03a02949a5c062e6f0.html" target="_top" xlink:title="controller">
<polygon fill="#a2b4d6" stroke="#404040" points="72,-412 16,-412 16,-376 72,-376 72,-412"/>
<text text-anchor="middle" x="44" y="-391.5" font-family="Helvetica,sans-Serif" font-size="10.00">controller</text>
</a>
</g>
</g>
<!-- dir_68267d1309a1af8e8297ef4c3efbcdba&#45;&gt;dir_41ef5d8a90b9cc03a02949a5c062e6f0 -->
<g id="edge3" class="edge">
<title>dir_68267d1309a1af8e8297ef4c3efbcdba&#45;&gt;dir_41ef5d8a90b9cc03a02949a5c062e6f0</title>
<path fill="none" stroke="black" d="M103.47,-447.7C93.62,-438.97 81.51,-428.24 70.8,-418.75"/>
<polygon fill="black" stroke="black" points="73.11,-416.12 63.3,-412.1 68.47,-421.36 73.11,-416.12"/>
<g id="a_edge3&#45;headlabel"><a xlink:href="dir_000007_000000.html" target="_top" xlink:title="7">
<text text-anchor="middle" x="77.68" y="-413.88" font-family="Helvetica,sans-Serif" font-size="10.00">7</text>
</a>
</g>
</g>
<!-- dir_cdfff646a9c2058824cf358c996f10c4 -->
<g id="node3" class="node">
<title>dir_cdfff646a9c2058824cf358c996f10c4</title>
<g id="a_node3"><a xlink:href="dir_cdfff646a9c2058824cf358c996f10c4.html" target="_top" xlink:title="iota">
<polygon fill="#a2b4d6" stroke="#404040" points="150,-340 96,-340 96,-304 150,-304 150,-340"/>
<text text-anchor="middle" x="123" y="-319.5" font-family="Helvetica,sans-Serif" font-size="10.00">iota</text>
</a>
</g>
</g>
<!-- dir_68267d1309a1af8e8297ef4c3efbcdba&#45;&gt;dir_cdfff646a9c2058824cf358c996f10c4 -->
<g id="edge4" class="edge">
<title>dir_68267d1309a1af8e8297ef4c3efbcdba&#45;&gt;dir_cdfff646a9c2058824cf358c996f10c4</title>
<path fill="none" stroke="black" d="M123,-447.87C123,-423.67 123,-379.21 123,-350.39"/>
<polygon fill="black" stroke="black" points="126.5,-350.19 123,-340.19 119.5,-350.19 126.5,-350.19"/>
<g id="a_edge4&#45;headlabel"><a xlink:href="dir_000007_000002.html" target="_top" xlink:title="6">
<text text-anchor="middle" x="129.34" y="-351.28" font-family="Helvetica,sans-Serif" font-size="10.00">6</text>
</a>
</g>
</g>
<!-- dir_157d4ecff99fd8e9941287f9a8f59efa -->
<g id="node4" class="node">
<title>dir_157d4ecff99fd8e9941287f9a8f59efa</title>
<g id="a_node4"><a xlink:href="dir_157d4ecff99fd8e9941287f9a8f59efa.html" target="_top" xlink:title="JSONRPCInterface">
<polygon fill="#a2b4d6" stroke="#404040" points="287.5,-340 188.5,-340 188.5,-304 287.5,-304 287.5,-340"/>
<text text-anchor="middle" x="238" y="-319.5" font-family="Helvetica,sans-Serif" font-size="10.00">JSONRPCInterface</text>
</a>
</g>
</g>
<!-- dir_68267d1309a1af8e8297ef4c3efbcdba&#45;&gt;dir_157d4ecff99fd8e9941287f9a8f59efa -->
<g id="edge1" class="edge">
<title>dir_68267d1309a1af8e8297ef4c3efbcdba&#45;&gt;dir_157d4ecff99fd8e9941287f9a8f59efa</title>
<path fill="none" stroke="black" d="M140.65,-447.92C150.79,-437.81 163.54,-424.56 174,-412 191.07,-391.52 208.62,-366.81 221.02,-348.62"/>
<polygon fill="black" stroke="black" points="223.96,-350.51 226.66,-340.27 218.16,-346.59 223.96,-350.51"/>
<g id="a_edge1&#45;headlabel"><a xlink:href="dir_000007_000003.html" target="_top" xlink:title="1">
<text text-anchor="middle" x="224.3" y="-352.58" font-family="Helvetica,sans-Serif" font-size="10.00">1</text>
</a>
</g>
</g>
<!-- dir_fb24ec2bd7f4507aac0a18c22ae9bf9b -->
<g id="node7" class="node">
<title>dir_fb24ec2bd7f4507aac0a18c22ae9bf9b</title>
<g id="a_node7"><a xlink:href="dir_fb24ec2bd7f4507aac0a18c22ae9bf9b.html" target="_top" xlink:title="SingletonManager">
<polygon fill="#a2b4d6" stroke="#404040" points="203.5,-196 108.5,-196 108.5,-160 203.5,-160 203.5,-196"/>
<text text-anchor="middle" x="156" y="-175.5" font-family="Helvetica,sans-Serif" font-size="10.00">SingletonManager</text>
</a>
</g>
</g>
<!-- dir_68267d1309a1af8e8297ef4c3efbcdba&#45;&gt;dir_fb24ec2bd7f4507aac0a18c22ae9bf9b -->
<g id="edge5" class="edge">
<title>dir_68267d1309a1af8e8297ef4c3efbcdba&#45;&gt;dir_fb24ec2bd7f4507aac0a18c22ae9bf9b</title>
<path fill="none" stroke="black" d="M129.57,-447.94C138.34,-424.18 153.41,-379.58 159,-340 165.6,-293.24 162.18,-238.1 159.1,-205.99"/>
<polygon fill="black" stroke="black" points="162.58,-205.62 158.08,-196.03 155.61,-206.33 162.58,-205.62"/>
<g id="a_edge5&#45;headlabel"><a xlink:href="dir_000007_000006.html" target="_top" xlink:title="23">
<text text-anchor="middle" x="165.77" y="-206.41" font-family="Helvetica,sans-Serif" font-size="10.00">23</text>
</a>
</g>
</g>
<!-- dir_2446a0d63b267fbc56c08872bbbb5182 -->
<g id="node8" class="node">
<title>dir_2446a0d63b267fbc56c08872bbbb5182</title>
<g id="a_node8"><a xlink:href="dir_2446a0d63b267fbc56c08872bbbb5182.html" target="_top" xlink:title="task">
<polygon fill="#a2b4d6" stroke="#404040" points="116,-124 62,-124 62,-88 116,-88 116,-124"/>
<text text-anchor="middle" x="89" y="-103.5" font-family="Helvetica,sans-Serif" font-size="10.00">task</text>
</a>
</g>
</g>
<!-- dir_68267d1309a1af8e8297ef4c3efbcdba&#45;&gt;dir_2446a0d63b267fbc56c08872bbbb5182 -->
<g id="edge2" class="edge">
<title>dir_68267d1309a1af8e8297ef4c3efbcdba&#45;&gt;dir_2446a0d63b267fbc56c08872bbbb5182</title>
<path fill="none" stroke="black" d="M116.43,-447.94C107.66,-424.18 92.59,-379.58 87,-340 76.58,-266.15 82.21,-177.81 86.17,-134.17"/>
<polygon fill="black" stroke="black" points="89.67,-134.36 87.13,-124.07 82.7,-133.69 89.67,-134.36"/>
<g id="a_edge2&#45;headlabel"><a xlink:href="dir_000007_000008.html" target="_top" xlink:title="7">
<text text-anchor="middle" x="92.15" y="-135.7" font-family="Helvetica,sans-Serif" font-size="10.00">7</text>
</a>
</g>
</g>
<!-- dir_41ef5d8a90b9cc03a02949a5c062e6f0&#45;&gt;dir_cdfff646a9c2058824cf358c996f10c4 -->
<g id="edge8" class="edge">
<title>dir_41ef5d8a90b9cc03a02949a5c062e6f0&#45;&gt;dir_cdfff646a9c2058824cf358c996f10c4</title>
<path fill="none" stroke="black" d="M63.53,-375.7C73.38,-366.97 85.49,-356.24 96.2,-346.75"/>
<polygon fill="black" stroke="black" points="98.53,-349.36 103.7,-340.1 93.89,-344.12 98.53,-349.36"/>
<g id="a_edge8&#45;headlabel"><a xlink:href="dir_000000_000002.html" target="_top" xlink:title="1">
<text text-anchor="middle" x="97.73" y="-351.36" font-family="Helvetica,sans-Serif" font-size="10.00">1</text>
</a>
</g>
</g>
<!-- dir_5dd65160827af56e6353642206b80129 -->
<g id="node6" class="node">
<title>dir_5dd65160827af56e6353642206b80129</title>
<g id="a_node6"><a xlink:href="dir_5dd65160827af56e6353642206b80129.html" target="_top" xlink:title="model">
<polygon fill="#a2b4d6" stroke="#404040" points="116,-52 62,-52 62,-16 116,-16 116,-52"/>
<text text-anchor="middle" x="89" y="-31.5" font-family="Helvetica,sans-Serif" font-size="10.00">model</text>
</a>
</g>
</g>
<!-- dir_41ef5d8a90b9cc03a02949a5c062e6f0&#45;&gt;dir_5dd65160827af56e6353642206b80129 -->
<g id="edge7" class="edge">
<title>dir_41ef5d8a90b9cc03a02949a5c062e6f0&#45;&gt;dir_5dd65160827af56e6353642206b80129</title>
<path fill="none" stroke="black" d="M32.77,-375.71C21.65,-349.18 8,-296.67 8,-251 8,-251 8,-251 8,-177 8,-131.97 37.16,-86.74 60.69,-59.81"/>
<polygon fill="black" stroke="black" points="63.3,-62.13 67.45,-52.38 58.13,-57.42 63.3,-62.13"/>
<g id="a_edge7&#45;headlabel"><a xlink:href="dir_000000_000005.html" target="_top" xlink:title="7">
<text text-anchor="middle" x="62.98" y="-64.2" font-family="Helvetica,sans-Serif" font-size="10.00">7</text>
</a>
</g>
</g>
<!-- dir_41ef5d8a90b9cc03a02949a5c062e6f0&#45;&gt;dir_fb24ec2bd7f4507aac0a18c22ae9bf9b -->
<g id="edge9" class="edge">
<title>dir_41ef5d8a90b9cc03a02949a5c062e6f0&#45;&gt;dir_fb24ec2bd7f4507aac0a18c22ae9bf9b</title>
<path fill="none" stroke="black" d="M45.25,-375.8C51.4,-357.77 65.23,-328.69 78,-304 95.95,-269.29 117.96,-229.93 134.32,-204.81"/>
<polygon fill="black" stroke="black" points="137.41,-206.48 140.07,-196.23 131.6,-202.58 137.41,-206.48"/>
<g id="a_edge9&#45;headlabel"><a xlink:href="dir_000000_000006.html" target="_top" xlink:title="3">
<text text-anchor="middle" x="137.76" y="-208.55" font-family="Helvetica,sans-Serif" font-size="10.00">3</text>
</a>
</g>
</g>
<!-- dir_41ef5d8a90b9cc03a02949a5c062e6f0&#45;&gt;dir_2446a0d63b267fbc56c08872bbbb5182 -->
<g id="edge6" class="edge">
<title>dir_41ef5d8a90b9cc03a02949a5c062e6f0&#45;&gt;dir_2446a0d63b267fbc56c08872bbbb5182</title>
<path fill="none" stroke="black" d="M36.67,-375.75C26.96,-336.3 17.33,-236.98 43,-160 46.3,-150.1 52.09,-140.4 58.55,-132.06"/>
<polygon fill="black" stroke="black" points="61.39,-134.11 65.17,-124.21 56.04,-129.6 61.39,-134.11"/>
<g id="a_edge6&#45;headlabel"><a xlink:href="dir_000000_000008.html" target="_top" xlink:title="2">
<text text-anchor="middle" x="61.24" y="-136.19" font-family="Helvetica,sans-Serif" font-size="10.00">2</text>
</a>
</g>
</g>
<!-- dir_c85d3e3c5052e9ad9ce18c6863244a25 -->
<g id="node5" class="node">
<title>dir_c85d3e3c5052e9ad9ce18c6863244a25</title>
<g id="a_node5"><a xlink:href="dir_c85d3e3c5052e9ad9ce18c6863244a25.html" target="_top" xlink:title="lib">
<polygon fill="#a2b4d6" stroke="#404040" points="262,-268 208,-268 208,-232 262,-232 262,-268"/>
<text text-anchor="middle" x="235" y="-247.5" font-family="Helvetica,sans-Serif" font-size="10.00">lib</text>
</a>
</g>
</g>
<!-- dir_cdfff646a9c2058824cf358c996f10c4&#45;&gt;dir_c85d3e3c5052e9ad9ce18c6863244a25 -->
<g id="edge11" class="edge">
<title>dir_cdfff646a9c2058824cf358c996f10c4&#45;&gt;dir_c85d3e3c5052e9ad9ce18c6863244a25</title>
<path fill="none" stroke="black" d="M150.11,-304.05C164.86,-294.84 183.29,-283.32 199.21,-273.37"/>
<polygon fill="black" stroke="black" points="201.12,-276.3 207.75,-268.03 197.41,-270.36 201.12,-276.3"/>
<g id="a_edge11&#45;headlabel"><a xlink:href="dir_000002_000004.html" target="_top" xlink:title="3">
<text text-anchor="middle" x="199.58" y="-278.11" font-family="Helvetica,sans-Serif" font-size="10.00">3</text>
</a>
</g>
</g>
<!-- dir_cdfff646a9c2058824cf358c996f10c4&#45;&gt;dir_fb24ec2bd7f4507aac0a18c22ae9bf9b -->
<g id="edge12" class="edge">
<title>dir_cdfff646a9c2058824cf358c996f10c4&#45;&gt;dir_fb24ec2bd7f4507aac0a18c22ae9bf9b</title>
<path fill="none" stroke="black" d="M122.4,-303.87C125.48,-279.56 135.59,-234.82 144.29,-206.01"/>
<polygon fill="black" stroke="black" points="147.72,-206.78 147.41,-196.19 141.05,-204.66 147.72,-206.78"/>
<g id="a_edge12&#45;headlabel"><a xlink:href="dir_000002_000006.html" target="_top" xlink:title="4">
<text text-anchor="middle" x="149.33" y="-208.57" font-family="Helvetica,sans-Serif" font-size="10.00">4</text>
</a>
</g>
</g>
<!-- dir_cdfff646a9c2058824cf358c996f10c4&#45;&gt;dir_2446a0d63b267fbc56c08872bbbb5182 -->
<g id="edge10" class="edge">
<title>dir_cdfff646a9c2058824cf358c996f10c4&#45;&gt;dir_2446a0d63b267fbc56c08872bbbb5182</title>
<path fill="none" stroke="black" d="M113.45,-303.66C105.66,-279.58 96.93,-234.6 91,-196 87.83,-175.36 84.96,-151.91 84.24,-134.26"/>
<polygon fill="black" stroke="black" points="87.74,-134.05 84.09,-124.1 80.74,-134.15 87.74,-134.05"/>
<g id="a_edge10&#45;headlabel"><a xlink:href="dir_000002_000008.html" target="_top" xlink:title="2">
<text text-anchor="middle" x="90.63" y="-135.1" font-family="Helvetica,sans-Serif" font-size="10.00">2</text>
</a>
</g>
</g>
<!-- dir_157d4ecff99fd8e9941287f9a8f59efa&#45;&gt;dir_c85d3e3c5052e9ad9ce18c6863244a25 -->
<g id="edge13" class="edge">
<title>dir_157d4ecff99fd8e9941287f9a8f59efa&#45;&gt;dir_c85d3e3c5052e9ad9ce18c6863244a25</title>
<path fill="none" stroke="black" d="M237.26,-303.7C236.93,-295.98 236.53,-286.71 236.16,-278.11"/>
<polygon fill="black" stroke="black" points="239.66,-277.95 235.73,-268.1 232.66,-278.25 239.66,-277.95"/>
<g id="a_edge13&#45;headlabel"><a xlink:href="dir_000003_000004.html" target="_top" xlink:title="1">
<text text-anchor="middle" x="242.65" y="-278.92" font-family="Helvetica,sans-Serif" font-size="10.00">1</text>
</a>
</g>
</g>
<!-- dir_157d4ecff99fd8e9941287f9a8f59efa&#45;&gt;dir_fb24ec2bd7f4507aac0a18c22ae9bf9b -->
<g id="edge14" class="edge">
<title>dir_157d4ecff99fd8e9941287f9a8f59efa&#45;&gt;dir_fb24ec2bd7f4507aac0a18c22ae9bf9b</title>
<path fill="none" stroke="black" d="M224.16,-303.89C216.3,-293.78 206.55,-280.53 199,-268 186.82,-247.78 175.32,-223.6 167.28,-205.55"/>
<polygon fill="black" stroke="black" points="170.41,-203.97 163.19,-196.22 164,-206.78 170.41,-203.97"/>
<g id="a_edge14&#45;headlabel"><a xlink:href="dir_000003_000006.html" target="_top" xlink:title="1">
<text text-anchor="middle" x="174.45" y="-203.62" font-family="Helvetica,sans-Serif" font-size="10.00">1</text>
</a>
</g>
</g>
<!-- dir_c85d3e3c5052e9ad9ce18c6863244a25&#45;&gt;dir_fb24ec2bd7f4507aac0a18c22ae9bf9b -->
<g id="edge15" class="edge">
<title>dir_c85d3e3c5052e9ad9ce18c6863244a25&#45;&gt;dir_fb24ec2bd7f4507aac0a18c22ae9bf9b</title>
<path fill="none" stroke="black" d="M209.56,-231.7C198.91,-223.05 186.76,-212.45 176.67,-203.03"/>
<polygon fill="black" stroke="black" points="179.06,-200.47 169.41,-196.1 174.23,-205.54 179.06,-200.47"/>
<g id="a_edge15&#45;headlabel"><a xlink:href="dir_000004_000006.html" target="_top" xlink:title="3">
<text text-anchor="middle" x="183.62" y="-198.4" font-family="Helvetica,sans-Serif" font-size="10.00">3</text>
</a>
</g>
</g>
<!-- dir_5dd65160827af56e6353642206b80129&#45;&gt;dir_41ef5d8a90b9cc03a02949a5c062e6f0 -->
<g id="edge17" class="edge">
<title>dir_5dd65160827af56e6353642206b80129&#45;&gt;dir_41ef5d8a90b9cc03a02949a5c062e6f0</title>
<path fill="none" stroke="black" d="M79.3,-52.38C61.2,-77.81 26,-127.52 26,-177 26,-251 26,-251 26,-251 26,-291.5 36.73,-337.37 42.41,-365.74"/>
<polygon fill="black" stroke="black" points="39,-366.54 44.3,-375.71 45.87,-365.24 39,-366.54"/>
<g id="a_edge17&#45;headlabel"><a xlink:href="dir_000005_000000.html" target="_top" xlink:title="2">
<text text-anchor="middle" x="35.54" y="-361.04" font-family="Helvetica,sans-Serif" font-size="10.00">2</text>
</a>
</g>
</g>
<!-- dir_5dd65160827af56e6353642206b80129&#45;&gt;dir_c85d3e3c5052e9ad9ce18c6863244a25 -->
<g id="edge18" class="edge">
<title>dir_5dd65160827af56e6353642206b80129&#45;&gt;dir_c85d3e3c5052e9ad9ce18c6863244a25</title>
<path fill="none" stroke="black" d="M116.1,-50.92C148.45,-71.56 201.26,-110.81 226,-160 235.62,-179.14 237.49,-203.49 237.16,-221.88"/>
<polygon fill="black" stroke="black" points="233.66,-221.8 236.76,-231.94 240.66,-222.08 233.66,-221.8"/>
<g id="a_edge18&#45;headlabel"><a xlink:href="dir_000005_000004.html" target="_top" xlink:title="4">
<text text-anchor="middle" x="230.97" y="-215.6" font-family="Helvetica,sans-Serif" font-size="10.00">4</text>
</a>
</g>
</g>
<!-- dir_5dd65160827af56e6353642206b80129&#45;&gt;dir_fb24ec2bd7f4507aac0a18c22ae9bf9b -->
<g id="edge19" class="edge">
<title>dir_5dd65160827af56e6353642206b80129&#45;&gt;dir_fb24ec2bd7f4507aac0a18c22ae9bf9b</title>
<path fill="none" stroke="black" d="M110.48,-52.43C118.88,-62.44 127.7,-75.48 134,-88 144.02,-107.92 152.15,-131.85 156.21,-149.87"/>
<polygon fill="black" stroke="black" points="152.79,-150.58 158.12,-159.73 159.66,-149.25 152.79,-150.58"/>
<g id="a_edge19&#45;headlabel"><a xlink:href="dir_000005_000006.html" target="_top" xlink:title="7">
<text text-anchor="middle" x="149.32" y="-145.09" font-family="Helvetica,sans-Serif" font-size="10.00">7</text>
</a>
</g>
</g>
<!-- dir_5dd65160827af56e6353642206b80129&#45;&gt;dir_2446a0d63b267fbc56c08872bbbb5182 -->
<g id="edge16" class="edge">
<title>dir_5dd65160827af56e6353642206b80129&#45;&gt;dir_2446a0d63b267fbc56c08872bbbb5182</title>
<path fill="none" stroke="black" d="M94.9,-52.1C95.7,-59.79 95.94,-69.05 95.6,-77.67"/>
<polygon fill="black" stroke="black" points="92.11,-77.48 94.92,-87.7 99.09,-77.96 92.11,-77.48"/>
<g id="a_edge16&#45;headlabel"><a xlink:href="dir_000005_000008.html" target="_top" xlink:title="1">
<text text-anchor="middle" x="89.52" y="-71.2" font-family="Helvetica,sans-Serif" font-size="10.00">1</text>
</a>
</g>
</g>
<!-- dir_fb24ec2bd7f4507aac0a18c22ae9bf9b&#45;&gt;dir_41ef5d8a90b9cc03a02949a5c062e6f0 -->
<g id="edge21" class="edge">
<title>dir_fb24ec2bd7f4507aac0a18c22ae9bf9b&#45;&gt;dir_41ef5d8a90b9cc03a02949a5c062e6f0</title>
<path fill="none" stroke="black" d="M152.13,-196.23C141.42,-220.19 116.15,-265.03 96,-304 85.13,-325.03 73.49,-349.24 63.65,-367.09"/>
<polygon fill="black" stroke="black" points="60.6,-365.38 58.69,-375.8 66.68,-368.85 60.6,-365.38"/>
<g id="a_edge21&#45;headlabel"><a xlink:href="dir_000006_000000.html" target="_top" xlink:title="3">
<text text-anchor="middle" x="59.91" y="-358.35" font-family="Helvetica,sans-Serif" font-size="10.00">3</text>
</a>
</g>
</g>
<!-- dir_fb24ec2bd7f4507aac0a18c22ae9bf9b&#45;&gt;dir_cdfff646a9c2058824cf358c996f10c4 -->
<g id="edge24" class="edge">
<title>dir_fb24ec2bd7f4507aac0a18c22ae9bf9b&#45;&gt;dir_cdfff646a9c2058824cf358c996f10c4</title>
<path fill="none" stroke="black" d="M156.6,-196.19C153.51,-220.53 143.38,-265.28 134.69,-294.06"/>
<polygon fill="black" stroke="black" points="131.26,-293.28 131.57,-303.87 137.93,-295.4 131.26,-293.28"/>
<g id="a_edge24&#45;headlabel"><a xlink:href="dir_000006_000002.html" target="_top" xlink:title="2">
<text text-anchor="middle" x="129.65" y="-286.49" font-family="Helvetica,sans-Serif" font-size="10.00">2</text>
</a>
</g>
</g>
<!-- dir_fb24ec2bd7f4507aac0a18c22ae9bf9b&#45;&gt;dir_c85d3e3c5052e9ad9ce18c6863244a25 -->
<g id="edge23" class="edge">
<title>dir_fb24ec2bd7f4507aac0a18c22ae9bf9b&#45;&gt;dir_c85d3e3c5052e9ad9ce18c6863244a25</title>
<path fill="none" stroke="black" d="M181.2,-196.1C191.83,-204.72 203.97,-215.32 214.1,-224.76"/>
<polygon fill="black" stroke="black" points="211.73,-227.34 221.39,-231.7 216.56,-222.27 211.73,-227.34"/>
<g id="a_edge23&#45;headlabel"><a xlink:href="dir_000006_000004.html" target="_top" xlink:title="1">
<text text-anchor="middle" x="207.17" y="-224.41" font-family="Helvetica,sans-Serif" font-size="10.00">1</text>
</a>
</g>
</g>
<!-- dir_fb24ec2bd7f4507aac0a18c22ae9bf9b&#45;&gt;dir_5dd65160827af56e6353642206b80129 -->
<g id="edge22" class="edge">
<title>dir_fb24ec2bd7f4507aac0a18c22ae9bf9b&#45;&gt;dir_5dd65160827af56e6353642206b80129</title>
<path fill="none" stroke="black" d="M144.77,-159.73C137.27,-141.39 127.98,-111.83 116,-88 111.38,-78.8 105.39,-69.33 100.06,-60.98"/>
<polygon fill="black" stroke="black" points="102.94,-59 94.62,-52.43 97.03,-62.75 102.94,-59"/>
<g id="a_edge22&#45;headlabel"><a xlink:href="dir_000006_000005.html" target="_top" xlink:title="2">
<text text-anchor="middle" x="107.27" y="-58.01" font-family="Helvetica,sans-Serif" font-size="10.00">2</text>
</a>
</g>
</g>
<!-- dir_fb24ec2bd7f4507aac0a18c22ae9bf9b&#45;&gt;dir_2446a0d63b267fbc56c08872bbbb5182 -->
<g id="edge20" class="edge">
<title>dir_fb24ec2bd7f4507aac0a18c22ae9bf9b&#45;&gt;dir_2446a0d63b267fbc56c08872bbbb5182</title>
<path fill="none" stroke="black" d="M133.52,-159.7C124.62,-151.3 114.64,-141.07 106.3,-131.86"/>
<polygon fill="black" stroke="black" points="108.71,-129.3 99.48,-124.1 103.46,-133.92 108.71,-129.3"/>
<g id="a_edge20&#45;headlabel"><a xlink:href="dir_000006_000008.html" target="_top" xlink:title="1">
<text text-anchor="middle" x="113.22" y="-127.62" font-family="Helvetica,sans-Serif" font-size="10.00">1</text>
</a>
</g>
</g>
<!-- dir_2446a0d63b267fbc56c08872bbbb5182&#45;&gt;dir_41ef5d8a90b9cc03a02949a5c062e6f0 -->
<g id="edge25" class="edge">
<title>dir_2446a0d63b267fbc56c08872bbbb5182&#45;&gt;dir_41ef5d8a90b9cc03a02949a5c062e6f0</title>
<path fill="none" stroke="black" d="M81.12,-124.21C74.22,-133.95 65.4,-146.8 61,-160 37.28,-231.12 43.7,-321.3 45.65,-365.73"/>
<polygon fill="black" stroke="black" points="42.15,-365.89 46.02,-375.75 49.15,-365.63 42.15,-365.89"/>
<g id="a_edge25&#45;headlabel"><a xlink:href="dir_000008_000000.html" target="_top" xlink:title="1">
<text text-anchor="middle" x="39.18" y="-359.9" font-family="Helvetica,sans-Serif" font-size="10.00">1</text>
</a>
</g>
</g>
<!-- dir_2446a0d63b267fbc56c08872bbbb5182&#45;&gt;dir_cdfff646a9c2058824cf358c996f10c4 -->
<g id="edge28" class="edge">
<title>dir_2446a0d63b267fbc56c08872bbbb5182&#45;&gt;dir_cdfff646a9c2058824cf358c996f10c4</title>
<path fill="none" stroke="black" d="M97.53,-124.1C101.78,-142.05 105.17,-171.07 109,-196 114.19,-229.78 121.52,-268.44 124.51,-293.71"/>
<polygon fill="black" stroke="black" points="121.02,-294.06 125.5,-303.66 127.99,-293.37 121.02,-294.06"/>
<g id="a_edge28&#45;headlabel"><a xlink:href="dir_000008_000002.html" target="_top" xlink:title="2">
<text text-anchor="middle" x="117.84" y="-288.27" font-family="Helvetica,sans-Serif" font-size="10.00">2</text>
</a>
</g>
</g>
<!-- dir_2446a0d63b267fbc56c08872bbbb5182&#45;&gt;dir_c85d3e3c5052e9ad9ce18c6863244a25 -->
<g id="edge27" class="edge">
<title>dir_2446a0d63b267fbc56c08872bbbb5182&#45;&gt;dir_c85d3e3c5052e9ad9ce18c6863244a25</title>
<path fill="none" stroke="black" d="M116.16,-111.34C144.5,-117.31 188.21,-130.84 213,-160 227.61,-177.19 232.79,-202.63 234.5,-221.91"/>
<polygon fill="black" stroke="black" points="231.01,-222.14 235.13,-231.9 237.99,-221.7 231.01,-222.14"/>
<g id="a_edge27&#45;headlabel"><a xlink:href="dir_000008_000004.html" target="_top" xlink:title="1">
<text text-anchor="middle" x="227.95" y="-216.23" font-family="Helvetica,sans-Serif" font-size="10.00">1</text>
</a>
</g>
</g>
<!-- dir_2446a0d63b267fbc56c08872bbbb5182&#45;&gt;dir_5dd65160827af56e6353642206b80129 -->
<g id="edge26" class="edge">
<title>dir_2446a0d63b267fbc56c08872bbbb5182&#45;&gt;dir_5dd65160827af56e6353642206b80129</title>
<path fill="none" stroke="black" d="M83.08,-87.7C82.29,-79.98 82.06,-70.71 82.4,-62.11"/>
<polygon fill="black" stroke="black" points="85.9,-62.32 83.1,-52.1 78.92,-61.84 85.9,-62.32"/>
<g id="a_edge26&#45;headlabel"><a xlink:href="dir_000008_000005.html" target="_top" xlink:title="2">
<text text-anchor="middle" x="88.48" y="-63.61" font-family="Helvetica,sans-Serif" font-size="10.00">2</text>
</a>
</g>
</g>
<!-- dir_2446a0d63b267fbc56c08872bbbb5182&#45;&gt;dir_fb24ec2bd7f4507aac0a18c22ae9bf9b -->
<g id="edge29" class="edge">
<title>dir_2446a0d63b267fbc56c08872bbbb5182&#45;&gt;dir_fb24ec2bd7f4507aac0a18c22ae9bf9b</title>
<path fill="none" stroke="black" d="M111.27,-124.1C120.15,-132.47 130.14,-142.69 138.5,-151.92"/>
<polygon fill="black" stroke="black" points="136.12,-154.51 145.35,-159.7 141.37,-149.88 136.12,-154.51"/>
<g id="a_edge29&#45;headlabel"><a xlink:href="dir_000008_000006.html" target="_top" xlink:title="3">
<text text-anchor="middle" x="131.61" y="-151.19" font-family="Helvetica,sans-Serif" font-size="10.00">3</text>
</a>
</g>
</g>
</g>
</svg>
