<?xml version="1.0" encoding="UTF-8" standalone="no"?>
<!DOCTYPE svg PUBLIC "-//W3C//DTD SVG 1.1//EN"
 "http://www.w3.org/Graphics/SVG/1.1/DTD/svg11.dtd">
<!-- Generated by graphviz version 2.50.0 (20211204.2007)
 -->
<!-- Title: src/iota Pages: 1 -->
<svg width="280pt" height="167pt"
 viewBox="0.00 0.00 280.00 167.00" xmlns="http://www.w3.org/2000/svg" xmlns:xlink="http://www.w3.org/1999/xlink">
<g id="graph0" class="graph" transform="scale(1 1) rotate(0) translate(4 163)">
<title>src/iota</title>
<polygon fill="white" stroke="transparent" points="-4,4 -4,-163 276,-163 276,4 -4,4"/>
<g id="clust1" class="cluster">
<title>clusterdir_68267d1309a1af8e8297ef4c3efbcdba</title>
<g id="a_clust1"><a xlink:href="dir_68267d1309a1af8e8297ef4c3efbcdba.html" target="_top" xlink:title="src">
<polygon fill="#edf0f7" stroke="#404040" stroke-dasharray="5,2" points="8,-8 8,-151 264,-151 264,-8 8,-8"/>
<text text-anchor="middle" x="136" y="-139" font-family="Helvetica,sans-Serif" font-size="10.00">src</text>
</a>
</g>
</g>
<!-- dir_2446a0d63b267fbc56c08872bbbb5182 -->
<g id="node1" class="node">
<title>dir_2446a0d63b267fbc56c08872bbbb5182</title>
<g id="a_node1"><a xlink:href="dir_2446a0d63b267fbc56c08872bbbb5182.html" target="_top" xlink:title="task">
<polygon fill="#a2b4d6" stroke="#404040" points="70,-52 16,-52 16,-16 70,-16 70,-52"/>
<text text-anchor="middle" x="43" y="-31.5" font-family="Helvetica,sans-Serif" font-size="10.00">task</text>
</a>
</g>
</g>
<!-- dir_fb24ec2bd7f4507aac0a18c22ae9bf9b -->
<g id="node2" class="node">
<title>dir_fb24ec2bd7f4507aac0a18c22ae9bf9b</title>
<g id="a_node2"><a xlink:href="dir_fb24ec2bd7f4507aac0a18c22ae9bf9b.html" target="_top" xlink:title="SingletonManager">
<polygon fill="#a2b4d6" stroke="#404040" points="183.5,-52 88.5,-52 88.5,-16 183.5,-16 183.5,-52"/>
<text text-anchor="middle" x="136" y="-31.5" font-family="Helvetica,sans-Serif" font-size="10.00">SingletonManager</text>
</a>
</g>
</g>
<!-- dir_c85d3e3c5052e9ad9ce18c6863244a25 -->
<g id="node3" class="node">
<title>dir_c85d3e3c5052e9ad9ce18c6863244a25</title>
<g id="a_node3"><a xlink:href="dir_c85d3e3c5052e9ad9ce18c6863244a25.html" target="_top" xlink:title="lib">
<polygon fill="#a2b4d6" stroke="#404040" points="256,-52 202,-52 202,-16 256,-16 256,-52"/>
<text text-anchor="middle" x="229" y="-31.5" font-family="Helvetica,sans-Serif" font-size="10.00">lib</text>
</a>
</g>
</g>
<!-- dir_cdfff646a9c2058824cf358c996f10c4 -->
<g id="node4" class="node">
<title>dir_cdfff646a9c2058824cf358c996f10c4</title>
<g id="a_node4"><a xlink:href="dir_cdfff646a9c2058824cf358c996f10c4.html" target="_top" xlink:title="iota">
<polygon fill="#edf0f7" stroke="#404040" stroke-width="2" points="163,-124 109,-124 109,-88 163,-88 163,-124"/>
<text text-anchor="middle" x="136" y="-103.5" font-family="Helvetica,sans-Serif" font-size="10.00">iota</text>
</a>
</g>
</g>
<!-- dir_cdfff646a9c2058824cf358c996f10c4&#45;&gt;dir_2446a0d63b267fbc56c08872bbbb5182 -->
<g id="edge1" class="edge">
<title>dir_cdfff646a9c2058824cf358c996f10c4&#45;&gt;dir_2446a0d63b267fbc56c08872bbbb5182</title>
<path fill="none" stroke="black" d="M113.01,-87.7C101.19,-78.8 86.61,-67.82 73.82,-58.2"/>
<polygon fill="black" stroke="black" points="75.82,-55.32 65.72,-52.1 71.61,-60.91 75.82,-55.32"/>
<g id="a_edge1&#45;headlabel"><a xlink:href="dir_000002_000008.html" target="_top" xlink:title="2">
<text text-anchor="middle" x="80.4" y="-52.71" font-family="Helvetica,sans-Serif" font-size="10.00">2</text>
</a>
</g>
</g>
<!-- dir_cdfff646a9c2058824cf358c996f10c4&#45;&gt;dir_fb24ec2bd7f4507aac0a18c22ae9bf9b -->
<g id="edge3" class="edge">
<title>dir_cdfff646a9c2058824cf358c996f10c4&#45;&gt;dir_fb24ec2bd7f4507aac0a18c22ae9bf9b</title>
<path fill="none" stroke="black" d="M136,-87.7C136,-79.98 136,-70.71 136,-62.11"/>
<polygon fill="black" stroke="black" points="139.5,-62.1 136,-52.1 132.5,-62.1 139.5,-62.1"/>
<g id="a_edge3&#45;headlabel"><a xlink:href="dir_000002_000006.html" target="_top" xlink:title="4">
<text text-anchor="middle" x="142.34" y="-63.2" font-family="Helvetica,sans-Serif" font-size="10.00">4</text>
</a>
</g>
</g>
<!-- dir_cdfff646a9c2058824cf358c996f10c4&#45;&gt;dir_c85d3e3c5052e9ad9ce18c6863244a25 -->
<g id="edge2" class="edge">
<title>dir_cdfff646a9c2058824cf358c996f10c4&#45;&gt;dir_c85d3e3c5052e9ad9ce18c6863244a25</title>
<path fill="none" stroke="black" d="M158.99,-87.7C170.81,-78.8 185.39,-67.82 198.18,-58.2"/>
<polygon fill="black" stroke="black" points="200.39,-60.91 206.28,-52.1 196.18,-55.32 200.39,-60.91"/>
<g id="a_edge2&#45;headlabel"><a xlink:href="dir_000002_000004.html" target="_top" xlink:title="3">
<text text-anchor="middle" x="199.23" y="-62.84" font-family="Helvetica,sans-Serif" font-size="10.00">3</text>
</a>
</g>
</g>
</g>
</svg>
