<?xml version="1.0" encoding="UTF-8" standalone="no"?>
<!DOCTYPE svg PUBLIC "-//W3C//DTD SVG 1.1//EN"
 "http://www.w3.org/Graphics/SVG/1.1/DTD/svg11.dtd">
<!-- Generated by graphviz version 2.50.0 (20211204.2007)
 -->
<!-- Title: src/controller Pages: 1 -->
<svg width="352pt" height="167pt"
 viewBox="0.00 0.00 352.00 167.00" xmlns="http://www.w3.org/2000/svg" xmlns:xlink="http://www.w3.org/1999/xlink">
<g id="graph0" class="graph" transform="scale(1 1) rotate(0) translate(4 163)">
<title>src/controller</title>
<polygon fill="white" stroke="transparent" points="-4,4 -4,-163 348,-163 348,4 -4,4"/>
<g id="clust1" class="cluster">
<title>clusterdir_68267d1309a1af8e8297ef4c3efbcdba</title>
<g id="a_clust1"><a xlink:href="dir_68267d1309a1af8e8297ef4c3efbcdba.html" target="_top" xlink:title="src">
<polygon fill="#edf0f7" stroke="#404040" stroke-dasharray="5,2" points="8,-8 8,-151 336,-151 336,-8 8,-8"/>
<text text-anchor="middle" x="172" y="-139" font-family="Helvetica,sans-Serif" font-size="10.00">src</text>
</a>
</g>
</g>
<!-- dir_2446a0d63b267fbc56c08872bbbb5182 -->
<g id="node1" class="node">
<title>dir_2446a0d63b267fbc56c08872bbbb5182</title>
<g id="a_node1"><a xlink:href="dir_2446a0d63b267fbc56c08872bbbb5182.html" target="_top" xlink:title="task">
<polygon fill="#a2b4d6" stroke="#404040" points="70,-52 16,-52 16,-16 70,-16 70,-52"/>
<text text-anchor="middle" x="43" y="-31.5" font-family="Helvetica,sans-Serif" font-size="10.00">task</text>
</a>
</g>
</g>
<!-- dir_fb24ec2bd7f4507aac0a18c22ae9bf9b -->
<g id="node2" class="node">
<title>dir_fb24ec2bd7f4507aac0a18c22ae9bf9b</title>
<g id="a_node2"><a xlink:href="dir_fb24ec2bd7f4507aac0a18c22ae9bf9b.html" target="_top" xlink:title="SingletonManager">
<polygon fill="#a2b4d6" stroke="#404040" points="183.5,-52 88.5,-52 88.5,-16 183.5,-16 183.5,-52"/>
<text text-anchor="middle" x="136" y="-31.5" font-family="Helvetica,sans-Serif" font-size="10.00">SingletonManager</text>
</a>
</g>
</g>
<!-- dir_cdfff646a9c2058824cf358c996f10c4 -->
<g id="node3" class="node">
<title>dir_cdfff646a9c2058824cf358c996f10c4</title>
<g id="a_node3"><a xlink:href="dir_cdfff646a9c2058824cf358c996f10c4.html" target="_top" xlink:title="iota">
<polygon fill="#a2b4d6" stroke="#404040" points="256,-52 202,-52 202,-16 256,-16 256,-52"/>
<text text-anchor="middle" x="229" y="-31.5" font-family="Helvetica,sans-Serif" font-size="10.00">iota</text>
</a>
</g>
</g>
<!-- dir_5dd65160827af56e6353642206b80129 -->
<g id="node4" class="node">
<title>dir_5dd65160827af56e6353642206b80129</title>
<g id="a_node4"><a xlink:href="dir_5dd65160827af56e6353642206b80129.html" target="_top" xlink:title="model">
<polygon fill="#a2b4d6" stroke="red" points="328,-52 274,-52 274,-16 328,-16 328,-52"/>
<text text-anchor="middle" x="301" y="-31.5" font-family="Helvetica,sans-Serif" font-size="10.00">model</text>
</a>
</g>
</g>
<!-- dir_41ef5d8a90b9cc03a02949a5c062e6f0 -->
<g id="node5" class="node">
<title>dir_41ef5d8a90b9cc03a02949a5c062e6f0</title>
<g id="a_node5"><a xlink:href="dir_41ef5d8a90b9cc03a02949a5c062e6f0.html" target="_top" xlink:title="controller">
<polygon fill="#edf0f7" stroke="#404040" stroke-width="2" points="210,-124 154,-124 154,-88 210,-88 210,-124"/>
<text text-anchor="middle" x="182" y="-103.5" font-family="Helvetica,sans-Serif" font-size="10.00">controller</text>
</a>
</g>
</g>
<!-- dir_41ef5d8a90b9cc03a02949a5c062e6f0&#45;&gt;dir_2446a0d63b267fbc56c08872bbbb5182 -->
<g id="edge1" class="edge">
<title>dir_41ef5d8a90b9cc03a02949a5c062e6f0&#45;&gt;dir_2446a0d63b267fbc56c08872bbbb5182</title>
<path fill="none" stroke="black" d="M153.87,-90.83C132.4,-80.02 102.64,-65.03 79.36,-53.31"/>
<polygon fill="black" stroke="black" points="80.65,-50.04 70.14,-48.67 77.5,-56.29 80.65,-50.04"/>
<g id="a_edge1&#45;headlabel"><a xlink:href="dir_000000_000008.html" target="_top" xlink:title="2">
<text text-anchor="middle" x="85.13" y="-46.62" font-family="Helvetica,sans-Serif" font-size="10.00">2</text>
</a>
</g>
</g>
<!-- dir_41ef5d8a90b9cc03a02949a5c062e6f0&#45;&gt;dir_fb24ec2bd7f4507aac0a18c22ae9bf9b -->
<g id="edge4" class="edge">
<title>dir_41ef5d8a90b9cc03a02949a5c062e6f0&#45;&gt;dir_fb24ec2bd7f4507aac0a18c22ae9bf9b</title>
<path fill="none" stroke="black" d="M170.63,-87.7C165.28,-79.56 158.8,-69.69 152.89,-60.7"/>
<polygon fill="black" stroke="black" points="155.66,-58.54 147.24,-52.1 149.81,-62.38 155.66,-58.54"/>
<g id="a_edge4&#45;headlabel"><a xlink:href="dir_000000_000006.html" target="_top" xlink:title="3">
<text text-anchor="middle" x="160" y="-57.48" font-family="Helvetica,sans-Serif" font-size="10.00">3</text>
</a>
</g>
</g>
<!-- dir_41ef5d8a90b9cc03a02949a5c062e6f0&#45;&gt;dir_cdfff646a9c2058824cf358c996f10c4 -->
<g id="edge3" class="edge">
<title>dir_41ef5d8a90b9cc03a02949a5c062e6f0&#45;&gt;dir_cdfff646a9c2058824cf358c996f10c4</title>
<path fill="none" stroke="black" d="M193.62,-87.7C199.14,-79.47 205.85,-69.48 211.93,-60.42"/>
<polygon fill="black" stroke="black" points="214.85,-62.36 217.52,-52.1 209.04,-58.46 214.85,-62.36"/>
<g id="a_edge3&#45;headlabel"><a xlink:href="dir_000000_000002.html" target="_top" xlink:title="1">
<text text-anchor="middle" x="215.2" y="-64.42" font-family="Helvetica,sans-Serif" font-size="10.00">1</text>
</a>
</g>
</g>
<!-- dir_41ef5d8a90b9cc03a02949a5c062e6f0&#45;&gt;dir_5dd65160827af56e6353642206b80129 -->
<g id="edge2" class="edge">
<title>dir_41ef5d8a90b9cc03a02949a5c062e6f0&#45;&gt;dir_5dd65160827af56e6353642206b80129</title>
<path fill="none" stroke="black" d="M210.2,-88.41C226.59,-78.77 247.41,-66.53 264.97,-56.19"/>
<polygon fill="black" stroke="black" points="266.98,-59.08 273.82,-50.99 263.43,-53.04 266.98,-59.08"/>
<g id="a_edge2&#45;headlabel"><a xlink:href="dir_000000_000005.html" target="_top" xlink:title="7">
<text text-anchor="middle" x="265.32" y="-60.84" font-family="Helvetica,sans-Serif" font-size="10.00">7</text>
</a>
</g>
</g>
</g>
</svg>
