<?xml version="1.0" encoding="UTF-8" standalone="no"?>
<!DOCTYPE svg PUBLIC "-//W3C//DTD SVG 1.1//EN"
 "http://www.w3.org/Graphics/SVG/1.1/DTD/svg11.dtd">
<!-- Generated by graphviz version 2.50.0 (20211204.2007)
 -->
<!-- Title: src/model/files Pages: 1 -->
<svg width="322pt" height="151pt"
 viewBox="0.00 0.00 322.00 151.00" xmlns="http://www.w3.org/2000/svg" xmlns:xlink="http://www.w3.org/1999/xlink">
<g id="graph0" class="graph" transform="scale(1 1) rotate(0) translate(4 147)">
<title>src/model/files</title>
<polygon fill="white" stroke="transparent" points="-4,4 -4,-147 318,-147 318,4 -4,4"/>
<g id="clust1" class="cluster">
<title>clusterdir_5dd65160827af56e6353642206b80129</title>
<g id="a_clust1"><a xlink:href="dir_5dd65160827af56e6353642206b80129.html" target="_top" xlink:title="model">
<polygon fill="#edf0f7" stroke="#7f7f7f" stroke-dasharray="5,2" points="131,-64 131,-135 201,-135 201,-64 131,-64"/>
<text text-anchor="middle" x="166" y="-123" font-family="Helvetica,sans-Serif" font-size="10.00">model</text>
</a>
</g>
</g>
<!-- dir_89356c07892b6ff3ab361b2626767945 -->
<g id="node1" class="node">
<title>dir_89356c07892b6ff3ab361b2626767945</title>
<g id="a_node1"><a xlink:href="dir_89356c07892b6ff3ab361b2626767945.html" target="_top" xlink:title="files">
<polygon fill="#edf0f7" stroke="#404040" stroke-width="2" points="193,-108 139,-108 139,-72 193,-72 193,-108"/>
<text text-anchor="middle" x="166" y="-87.5" font-family="Helvetica,sans-Serif" font-size="10.00">files</text>
</a>
</g>
</g>
<!-- dir_2446a0d63b267fbc56c08872bbbb5182 -->
<g id="node2" class="node">
<title>dir_2446a0d63b267fbc56c08872bbbb5182</title>
<g id="a_node2"><a xlink:href="dir_2446a0d63b267fbc56c08872bbbb5182.html" target="_top" xlink:title="task">
<polygon fill="none" stroke="#7f7f7f" points="54,-36 0,-36 0,0 54,0 54,-36"/>
<text text-anchor="middle" x="27" y="-15.5" font-family="Helvetica,sans-Serif" font-size="10.00">task</text>
</a>
</g>
</g>
<!-- dir_89356c07892b6ff3ab361b2626767945&#45;&gt;dir_2446a0d63b267fbc56c08872bbbb5182 -->
<g id="edge1" class="edge">
<title>dir_89356c07892b6ff3ab361b2626767945&#45;&gt;dir_2446a0d63b267fbc56c08872bbbb5182</title>
<path fill="none" stroke="black" d="M138.87,-75.34C117.25,-64.45 86.78,-49.1 63.1,-37.18"/>
<polygon fill="black" stroke="black" points="64.57,-34 54.06,-32.63 61.42,-40.25 64.57,-34"/>
<g id="a_edge1&#45;headlabel"><a xlink:href="dir_000001_000008.html" target="_top" xlink:title="1">
<text text-anchor="middle" x="69.06" y="-30.58" font-family="Helvetica,sans-Serif" font-size="10.00">1</text>
</a>
</g>
</g>
<!-- dir_fb24ec2bd7f4507aac0a18c22ae9bf9b -->
<g id="node3" class="node">
<title>dir_fb24ec2bd7f4507aac0a18c22ae9bf9b</title>
<g id="a_node3"><a xlink:href="dir_fb24ec2bd7f4507aac0a18c22ae9bf9b.html" target="_top" xlink:title="SingletonManager">
<polygon fill="none" stroke="#7f7f7f" points="167.5,-36 72.5,-36 72.5,0 167.5,0 167.5,-36"/>
<text text-anchor="middle" x="120" y="-15.5" font-family="Helvetica,sans-Serif" font-size="10.00">SingletonManager</text>
</a>
</g>
</g>
<!-- dir_89356c07892b6ff3ab361b2626767945&#45;&gt;dir_fb24ec2bd7f4507aac0a18c22ae9bf9b -->
<g id="edge4" class="edge">
<title>dir_89356c07892b6ff3ab361b2626767945&#45;&gt;dir_fb24ec2bd7f4507aac0a18c22ae9bf9b</title>
<path fill="none" stroke="black" d="M154.63,-71.7C149.28,-63.56 142.8,-53.69 136.89,-44.7"/>
<polygon fill="black" stroke="black" points="139.66,-42.54 131.24,-36.1 133.81,-46.38 139.66,-42.54"/>
<g id="a_edge4&#45;headlabel"><a xlink:href="dir_000001_000006.html" target="_top" xlink:title="7">
<text text-anchor="middle" x="144" y="-41.48" font-family="Helvetica,sans-Serif" font-size="10.00">7</text>
</a>
</g>
</g>
<!-- dir_c85d3e3c5052e9ad9ce18c6863244a25 -->
<g id="node4" class="node">
<title>dir_c85d3e3c5052e9ad9ce18c6863244a25</title>
<g id="a_node4"><a xlink:href="dir_c85d3e3c5052e9ad9ce18c6863244a25.html" target="_top" xlink:title="lib">
<polygon fill="none" stroke="#7f7f7f" points="240,-36 186,-36 186,0 240,0 240,-36"/>
<text text-anchor="middle" x="213" y="-15.5" font-family="Helvetica,sans-Serif" font-size="10.00">lib</text>
</a>
</g>
</g>
<!-- dir_89356c07892b6ff3ab361b2626767945&#45;&gt;dir_c85d3e3c5052e9ad9ce18c6863244a25 -->
<g id="edge3" class="edge">
<title>dir_89356c07892b6ff3ab361b2626767945&#45;&gt;dir_c85d3e3c5052e9ad9ce18c6863244a25</title>
<path fill="none" stroke="black" d="M177.62,-71.7C183.14,-63.47 189.85,-53.48 195.93,-44.42"/>
<polygon fill="black" stroke="black" points="198.85,-46.36 201.52,-36.1 193.04,-42.46 198.85,-46.36"/>
<g id="a_edge3&#45;headlabel"><a xlink:href="dir_000001_000004.html" target="_top" xlink:title="4">
<text text-anchor="middle" x="199.2" y="-48.42" font-family="Helvetica,sans-Serif" font-size="10.00">4</text>
</a>
</g>
</g>
<!-- dir_41ef5d8a90b9cc03a02949a5c062e6f0 -->
<g id="node5" class="node">
<title>dir_41ef5d8a90b9cc03a02949a5c062e6f0</title>
<g id="a_node5"><a xlink:href="dir_41ef5d8a90b9cc03a02949a5c062e6f0.html" target="_top" xlink:title="controller">
<polygon fill="none" stroke="#7f7f7f" points="314,-36 258,-36 258,0 314,0 314,-36"/>
<text text-anchor="middle" x="286" y="-15.5" font-family="Helvetica,sans-Serif" font-size="10.00">controller</text>
</a>
</g>
</g>
<!-- dir_89356c07892b6ff3ab361b2626767945&#45;&gt;dir_41ef5d8a90b9cc03a02949a5c062e6f0 -->
<g id="edge2" class="edge">
<title>dir_89356c07892b6ff3ab361b2626767945&#45;&gt;dir_41ef5d8a90b9cc03a02949a5c062e6f0</title>
<path fill="none" stroke="black" d="M193.23,-73.12C209.6,-63.57 230.67,-51.28 248.58,-40.83"/>
<polygon fill="black" stroke="black" points="250.75,-43.61 257.63,-35.55 247.22,-37.57 250.75,-43.61"/>
<g id="a_edge2&#45;headlabel"><a xlink:href="dir_000001_000000.html" target="_top" xlink:title="1">
<text text-anchor="middle" x="249.08" y="-45.38" font-family="Helvetica,sans-Serif" font-size="10.00">1</text>
</a>
</g>
</g>
</g>
</svg>
