<?xml version="1.0" encoding="UTF-8" standalone="no"?>
<!DOCTYPE svg PUBLIC "-//W3C//DTD SVG 1.1//EN"
 "http://www.w3.org/Graphics/SVG/1.1/DTD/svg11.dtd">
<!-- Generated by graphviz version 2.50.0 (20211204.2007)
 -->
<!-- Title: Graphical Class Hierarchy Pages: 1 -->
<svg width="468pt" height="452pt"
 viewBox="0.00 0.00 468.00 451.50" xmlns="http://www.w3.org/2000/svg" xmlns:xlink="http://www.w3.org/1999/xlink">
<g id="graph0" class="graph" transform="scale(1 1) rotate(0) translate(4 447.5)">
<title>Graphical Class Hierarchy</title>
<polygon fill="white" stroke="transparent" points="-4,4 -4,-447.5 464,-447.5 464,4 -4,4"/>
<!-- Node0 -->
<g id="node1" class="node">
<title>Node0</title>
<g id="a_node1"><a xlink:href="classcontroller_1_1_controller_base.html" target="_top" xlink:title=" ">
<polygon fill="white" stroke="black" points="163.5,-342.5 163.5,-361.5 289.5,-361.5 289.5,-342.5 163.5,-342.5"/>
<text text-anchor="middle" x="226.5" y="-349.5" font-family="Helvetica,sans-Serif" font-size="10.00">controller::ControllerBase</text>
</a>
</g>
</g>
<!-- Node1 -->
<g id="node2" class="node">
<title>Node1</title>
<g id="a_node2"><a xlink:href="classcontroller_1_1_address_index.html" target="_top" xlink:title="Manage address indices for user accounts.">
<polygon fill="white" stroke="black" points="333.5,-380.5 333.5,-399.5 455.5,-399.5 455.5,-380.5 333.5,-380.5"/>
<text text-anchor="middle" x="394.5" y="-387.5" font-family="Helvetica,sans-Serif" font-size="10.00">controller::AddressIndex</text>
</a>
</g>
</g>
<!-- Node0&#45;&gt;Node1 -->
<g id="edge1" class="edge">
<title>Node0&#45;&gt;Node1</title>
<path fill="none" stroke="midnightblue" d="M279.15,-363.82C302.56,-369.18 329.86,-375.43 351.91,-380.48"/>
<polygon fill="midnightblue" stroke="midnightblue" points="279.92,-360.41 269.39,-361.59 278.36,-367.23 279.92,-360.41"/>
</g>
<!-- Node2 -->
<g id="node3" class="node">
<title>Node2</title>
<g id="a_node3"><a xlink:href="classcontroller_1_1_block.html" target="_top" xlink:title="interface for adding and getting transactions from specific block">
<polygon fill="white" stroke="black" points="351,-266.5 351,-285.5 438,-285.5 438,-266.5 351,-266.5"/>
<text text-anchor="middle" x="394.5" y="-273.5" font-family="Helvetica,sans-Serif" font-size="10.00">controller::Block</text>
</a>
</g>
</g>
<!-- Node0&#45;&gt;Node2 -->
<g id="edge2" class="edge">
<title>Node0&#45;&gt;Node2</title>
<path fill="none" stroke="midnightblue" d="M250.57,-337.06C270.66,-324.53 300.9,-306.85 329,-295 337.5,-291.42 346.89,-288.24 355.82,-285.55"/>
<polygon fill="midnightblue" stroke="midnightblue" points="248.68,-334.11 242.1,-342.41 252.42,-340.03 248.68,-334.11"/>
</g>
<!-- Node13 -->
<g id="node4" class="node">
<title>Node13</title>
<g id="a_node4"><a xlink:href="classcontroller_1_1_block_index.html" target="_top" xlink:title="store block index in memory for fast finding transactions">
<polygon fill="white" stroke="black" points="339.5,-418.5 339.5,-437.5 449.5,-437.5 449.5,-418.5 339.5,-418.5"/>
<text text-anchor="middle" x="394.5" y="-425.5" font-family="Helvetica,sans-Serif" font-size="10.00">controller::BlockIndex</text>
</a>
</g>
</g>
<!-- Node0&#45;&gt;Node13 -->
<g id="edge3" class="edge">
<title>Node0&#45;&gt;Node13</title>
<path fill="none" stroke="midnightblue" d="M250.57,-366.94C270.66,-379.47 300.9,-397.15 329,-409 337.5,-412.58 346.89,-415.76 355.82,-418.45"/>
<polygon fill="midnightblue" stroke="midnightblue" points="252.42,-363.97 242.1,-361.59 248.68,-369.89 252.42,-363.97"/>
</g>
<!-- Node15 -->
<g id="node5" class="node">
<title>Node15</title>
<g id="a_node5"><a xlink:href="classcontroller_1_1_group.html" target="_top" xlink:title="Main entry point for adding and searching for transactions TODO: validate transaction on startup.">
<polygon fill="white" stroke="black" points="350,-304.5 350,-323.5 439,-323.5 439,-304.5 350,-304.5"/>
<text text-anchor="middle" x="394.5" y="-311.5" font-family="Helvetica,sans-Serif" font-size="10.00">controller::Group</text>
</a>
</g>
</g>
<!-- Node0&#45;&gt;Node15 -->
<g id="edge4" class="edge">
<title>Node0&#45;&gt;Node15</title>
<path fill="none" stroke="midnightblue" d="M279.15,-340.18C302.56,-334.82 329.86,-328.57 351.91,-323.52"/>
<polygon fill="midnightblue" stroke="midnightblue" points="278.36,-336.77 269.39,-342.41 279.92,-343.59 278.36,-336.77"/>
</g>
<!-- Node18 -->
<g id="node6" class="node">
<title>Node18</title>
<g id="a_node6"><a xlink:href="classcontroller_1_1_group_index.html" target="_top" xlink:title="storing group folder name in memory in hash list for fast access">
<polygon fill="white" stroke="black" points="338.5,-342.5 338.5,-361.5 450.5,-361.5 450.5,-342.5 338.5,-342.5"/>
<text text-anchor="middle" x="394.5" y="-349.5" font-family="Helvetica,sans-Serif" font-size="10.00">controller::GroupIndex</text>
</a>
</g>
</g>
<!-- Node0&#45;&gt;Node18 -->
<g id="edge5" class="edge">
<title>Node0&#45;&gt;Node18</title>
<path fill="none" stroke="midnightblue" d="M299.98,-352C312.81,-352 325.98,-352 338.24,-352"/>
<polygon fill="midnightblue" stroke="midnightblue" points="299.78,-348.5 289.78,-352 299.78,-355.5 299.78,-348.5"/>
</g>
<!-- Node14 -->
<g id="node7" class="node">
<title>Node14</title>
<g id="a_node7"><a xlink:href="classmodel_1_1files_1_1_i_block_index_receiver.html" target="_top" xlink:title=" ">
<polygon fill="white" stroke="black" points="165.5,-413 165.5,-443 287.5,-443 287.5,-413 165.5,-413"/>
<text text-anchor="start" x="173.5" y="-431" font-family="Helvetica,sans-Serif" font-size="10.00">model::files::IBlockIndex</text>
<text text-anchor="middle" x="226.5" y="-420" font-family="Helvetica,sans-Serif" font-size="10.00">Receiver</text>
</a>
</g>
</g>
<!-- Node14&#45;&gt;Node13 -->
<g id="edge6" class="edge">
<title>Node14&#45;&gt;Node13</title>
<path fill="none" stroke="midnightblue" d="M297.92,-428C311.82,-428 326.21,-428 339.47,-428"/>
<polygon fill="midnightblue" stroke="midnightblue" points="297.9,-424.5 287.9,-428 297.9,-431.5 297.9,-424.5"/>
</g>
<!-- Node16 -->
<g id="node8" class="node">
<title>Node16</title>
<g id="a_node8"><a xlink:title=" ">
<polygon fill="white" stroke="#bfbfbf" points="160,-266.5 160,-285.5 293,-285.5 293,-266.5 160,-266.5"/>
<text text-anchor="middle" x="226.5" y="-273.5" font-family="Helvetica,sans-Serif" font-size="10.00">model::IGradidoBlockchain</text>
</a>
</g>
</g>
<!-- Node16&#45;&gt;Node15 -->
<g id="edge7" class="edge">
<title>Node16&#45;&gt;Node15</title>
<path fill="none" stroke="midnightblue" d="M279.15,-287.82C302.56,-293.18 329.86,-299.43 351.91,-304.48"/>
<polygon fill="midnightblue" stroke="midnightblue" points="279.92,-284.41 269.39,-285.59 278.36,-291.23 279.92,-284.41"/>
</g>
<!-- Node17 -->
<g id="node9" class="node">
<title>Node17</title>
<g id="a_node9"><a xlink:href="classcontroller_1_1_remote_group.html" target="_top" xlink:title=" ">
<polygon fill="white" stroke="black" points="333.5,-228.5 333.5,-247.5 455.5,-247.5 455.5,-228.5 333.5,-228.5"/>
<text text-anchor="middle" x="394.5" y="-235.5" font-family="Helvetica,sans-Serif" font-size="10.00">controller::RemoteGroup</text>
</a>
</g>
</g>
<!-- Node16&#45;&gt;Node17 -->
<g id="edge8" class="edge">
<title>Node16&#45;&gt;Node17</title>
<path fill="none" stroke="midnightblue" d="M279.15,-264.18C302.56,-258.82 329.86,-252.57 351.91,-247.52"/>
<polygon fill="midnightblue" stroke="midnightblue" points="278.36,-260.77 269.39,-266.41 279.92,-267.59 278.36,-260.77"/>
</g>
<!-- Node5 -->
<g id="node10" class="node">
<title>Node5</title>
<g id="a_node10"><a xlink:title=" ">
<polygon fill="white" stroke="#bfbfbf" points="173.5,-133.5 173.5,-152.5 279.5,-152.5 279.5,-133.5 173.5,-133.5"/>
<text text-anchor="middle" x="226.5" y="-140.5" font-family="Helvetica,sans-Serif" font-size="10.00">MultithreadContainer</text>
</a>
</g>
</g>
<!-- Node6 -->
<g id="node11" class="node">
<title>Node6</title>
<g id="a_node11"><a xlink:href="class_task_observer.html" target="_top" xlink:title=" ">
<polygon fill="white" stroke="black" points="356.5,-114.5 356.5,-133.5 432.5,-133.5 432.5,-114.5 356.5,-114.5"/>
<text text-anchor="middle" x="394.5" y="-121.5" font-family="Helvetica,sans-Serif" font-size="10.00">TaskObserver</text>
</a>
</g>
</g>
<!-- Node5&#45;&gt;Node6 -->
<g id="edge9" class="edge">
<title>Node5&#45;&gt;Node6</title>
<path fill="none" stroke="midnightblue" d="M289.7,-135.88C312.13,-133.31 336.73,-130.5 356.35,-128.25"/>
<polygon fill="midnightblue" stroke="midnightblue" points="289.11,-132.43 279.57,-137.04 289.9,-139.38 289.11,-132.43"/>
</g>
<!-- Node4 -->
<g id="node12" class="node">
<title>Node4</title>
<g id="a_node12"><a xlink:href="classiota_1_1_message_listener.html" target="_top" xlink:title="call iota regular and check if new message on the listening index are available">
<polygon fill="white" stroke="black" points="338,-190.5 338,-209.5 451,-209.5 451,-190.5 338,-190.5"/>
<text text-anchor="middle" x="394.5" y="-197.5" font-family="Helvetica,sans-Serif" font-size="10.00">iota::MessageListener</text>
</a>
</g>
</g>
<!-- Node5&#45;&gt;Node4 -->
<g id="edge10" class="edge">
<title>Node5&#45;&gt;Node4</title>
<path fill="none" stroke="midnightblue" d="M260.97,-156.22C280.65,-163.82 306.1,-173.35 329,-181 338.85,-184.29 349.65,-187.59 359.55,-190.49"/>
<polygon fill="midnightblue" stroke="midnightblue" points="262.11,-152.91 251.53,-152.55 259.58,-159.44 262.11,-152.91"/>
</g>
<!-- Node12 -->
<g id="node13" class="node">
<title>Node12</title>
<g id="a_node13"><a xlink:title=" ">
<polygon fill="white" stroke="#bfbfbf" points="0,-57.5 0,-76.5 124,-76.5 124,-57.5 0,-57.5"/>
<text text-anchor="middle" x="62" y="-64.5" font-family="Helvetica,sans-Serif" font-size="10.00">Poco::RefCountedObject</text>
</a>
</g>
</g>
<!-- Node8 -->
<g id="node14" class="node">
<title>Node8</title>
<g id="a_node14"><a xlink:href="classmodel_1_1files_1_1_file_base.html" target="_top" xlink:title=" ">
<polygon fill="white" stroke="black" points="171.5,-57.5 171.5,-76.5 281.5,-76.5 281.5,-57.5 171.5,-57.5"/>
<text text-anchor="middle" x="226.5" y="-64.5" font-family="Helvetica,sans-Serif" font-size="10.00">model::files::FileBase</text>
</a>
</g>
</g>
<!-- Node12&#45;&gt;Node8 -->
<g id="edge11" class="edge">
<title>Node12&#45;&gt;Node8</title>
<path fill="none" stroke="midnightblue" d="M134.7,-67C147.03,-67 159.67,-67 171.44,-67"/>
<polygon fill="midnightblue" stroke="midnightblue" points="134.43,-63.5 124.43,-67 134.43,-70.5 134.43,-63.5"/>
</g>
<!-- Node9 -->
<g id="node15" class="node">
<title>Node9</title>
<g id="a_node15"><a xlink:href="classmodel_1_1files_1_1_address_index.html" target="_top" xlink:title="File for storing account address indices.">
<polygon fill="white" stroke="black" points="329,-76.5 329,-95.5 460,-95.5 460,-76.5 329,-76.5"/>
<text text-anchor="middle" x="394.5" y="-83.5" font-family="Helvetica,sans-Serif" font-size="10.00">model::files::AddressIndex</text>
</a>
</g>
</g>
<!-- Node8&#45;&gt;Node9 -->
<g id="edge12" class="edge">
<title>Node8&#45;&gt;Node9</title>
<path fill="none" stroke="midnightblue" d="M291.9,-74.37C304.05,-75.76 316.76,-77.22 328.91,-78.61"/>
<polygon fill="midnightblue" stroke="midnightblue" points="292.19,-70.88 281.85,-73.22 291.39,-77.84 292.19,-70.88"/>
</g>
<!-- Node7 -->
<g id="node16" class="node">
<title>Node7</title>
<g id="a_node16"><a xlink:href="classmodel_1_1files_1_1_block.html" target="_top" xlink:title=" ">
<polygon fill="white" stroke="black" points="346,-152.5 346,-171.5 443,-171.5 443,-152.5 346,-152.5"/>
<text text-anchor="middle" x="394.5" y="-159.5" font-family="Helvetica,sans-Serif" font-size="10.00">model::files::Block</text>
</a>
</g>
</g>
<!-- Node8&#45;&gt;Node7 -->
<g id="edge13" class="edge">
<title>Node8&#45;&gt;Node7</title>
<path fill="none" stroke="midnightblue" d="M245.29,-83.47C264.59,-100.54 296.94,-126.93 329,-143 336.51,-146.77 344.9,-149.92 353.08,-152.5"/>
<polygon fill="midnightblue" stroke="midnightblue" points="247.4,-80.66 237.63,-76.57 242.71,-85.86 247.4,-80.66"/>
</g>
<!-- Node10 -->
<g id="node17" class="node">
<title>Node10</title>
<g id="a_node17"><a xlink:href="classmodel_1_1files_1_1_block_index.html" target="_top" xlink:title="Store Block Index Data in binary file.">
<polygon fill="white" stroke="black" points="334.5,-38.5 334.5,-57.5 454.5,-57.5 454.5,-38.5 334.5,-38.5"/>
<text text-anchor="middle" x="394.5" y="-45.5" font-family="Helvetica,sans-Serif" font-size="10.00">model::files::BlockIndex</text>
</a>
</g>
</g>
<!-- Node8&#45;&gt;Node10 -->
<g id="edge14" class="edge">
<title>Node8&#45;&gt;Node10</title>
<path fill="none" stroke="midnightblue" d="M291.9,-59.63C305.9,-58.03 320.65,-56.34 334.44,-54.76"/>
<polygon fill="midnightblue" stroke="midnightblue" points="291.39,-56.16 281.85,-60.78 292.19,-63.12 291.39,-56.16"/>
</g>
<!-- Node11 -->
<g id="node18" class="node">
<title>Node11</title>
<g id="a_node18"><a xlink:href="classmodel_1_1files_1_1_state.html" target="_top" xlink:title=" ">
<polygon fill="white" stroke="black" points="347,-0.5 347,-19.5 442,-19.5 442,-0.5 347,-0.5"/>
<text text-anchor="middle" x="394.5" y="-7.5" font-family="Helvetica,sans-Serif" font-size="10.00">model::files::State</text>
</a>
</g>
</g>
<!-- Node8&#45;&gt;Node11 -->
<g id="edge15" class="edge">
<title>Node8&#45;&gt;Node11</title>
<path fill="none" stroke="midnightblue" d="M260.97,-53.78C280.65,-46.18 306.1,-36.65 329,-29 338.85,-25.71 349.65,-22.41 359.55,-19.51"/>
<polygon fill="midnightblue" stroke="midnightblue" points="259.58,-50.56 251.53,-57.45 262.11,-57.09 259.58,-50.56"/>
</g>
<!-- Node3 -->
<g id="node19" class="node">
<title>Node3</title>
<g id="a_node19"><a xlink:href="class_timer_callback.html" target="_top" xlink:title=" ">
<polygon fill="white" stroke="black" points="187.5,-190.5 187.5,-209.5 265.5,-209.5 265.5,-190.5 187.5,-190.5"/>
<text text-anchor="middle" x="226.5" y="-197.5" font-family="Helvetica,sans-Serif" font-size="10.00">TimerCallback</text>
</a>
</g>
</g>
<!-- Node3&#45;&gt;Node2 -->
<g id="edge16" class="edge">
<title>Node3&#45;&gt;Node2</title>
<path fill="none" stroke="midnightblue" d="M250.57,-214.94C270.66,-227.47 300.9,-245.15 329,-257 337.5,-260.58 346.89,-263.76 355.82,-266.45"/>
<polygon fill="midnightblue" stroke="midnightblue" points="252.42,-211.97 242.1,-209.59 248.68,-217.89 252.42,-211.97"/>
</g>
<!-- Node3&#45;&gt;Node4 -->
<g id="edge17" class="edge">
<title>Node3&#45;&gt;Node4</title>
<path fill="none" stroke="midnightblue" d="M275.75,-200C295.22,-200 317.81,-200 337.96,-200"/>
<polygon fill="midnightblue" stroke="midnightblue" points="275.58,-196.5 265.58,-200 275.58,-203.5 275.58,-196.5"/>
</g>
<!-- Node3&#45;&gt;Node7 -->
<g id="edge18" class="edge">
<title>Node3&#45;&gt;Node7</title>
<path fill="none" stroke="midnightblue" d="M275.6,-188.99C299.72,-183.47 328.64,-176.85 351.81,-171.54"/>
<polygon fill="midnightblue" stroke="midnightblue" points="274.55,-185.64 265.58,-191.28 276.11,-192.46 274.55,-185.64"/>
</g>
</g>
</svg>
