<?xml version="1.0" encoding="UTF-8" standalone="no"?>
<!DOCTYPE svg PUBLIC "-//W3C//DTD SVG 1.1//EN"
 "http://www.w3.org/Graphics/SVG/1.1/DTD/svg11.dtd">
<!-- Generated by graphviz version 2.50.0 (20211204.2007)
 -->
<!-- Title: Graphical Class Hierarchy Pages: 1 -->
<svg width="379pt" height="154pt"
 viewBox="0.00 0.00 379.00 153.50" xmlns="http://www.w3.org/2000/svg" xmlns:xlink="http://www.w3.org/1999/xlink">
<g id="graph0" class="graph" transform="scale(1 1) rotate(0) translate(4 149.5)">
<title>Graphical Class Hierarchy</title>
<polygon fill="white" stroke="transparent" points="-4,4 -4,-149.5 375,-149.5 375,4 -4,4"/>
<!-- Node0 -->
<g id="node1" class="node">
<title>Node0</title>
<g id="a_node1"><a xlink:href="classtask_1_1_task.html" target="_top" xlink:title=" ">
<polygon fill="white" stroke="black" points="0,-69 0,-88 62,-88 62,-69 0,-69"/>
<text text-anchor="middle" x="31" y="-76" font-family="Helvetica,sans-Serif" font-size="10.00">task::Task</text>
</a>
</g>
</g>
<!-- Node1 -->
<g id="node2" class="node">
<title>Node1</title>
<g id="a_node2"><a xlink:href="classtask_1_1_c_p_u_task.html" target="_top" xlink:title=" ">
<polygon fill="white" stroke="black" points="98,-69 98,-88 181,-88 181,-69 98,-69"/>
<text text-anchor="middle" x="139.5" y="-76" font-family="Helvetica,sans-Serif" font-size="10.00">task::CPUTask</text>
</a>
</g>
</g>
<!-- Node0&#45;&gt;Node1 -->
<g id="edge1" class="edge">
<title>Node0&#45;&gt;Node1</title>
<path fill="none" stroke="midnightblue" d="M72.46,-78.5C80.77,-78.5 89.53,-78.5 97.85,-78.5"/>
<polygon fill="midnightblue" stroke="midnightblue" points="72.23,-75 62.23,-78.5 72.23,-82 72.23,-75"/>
</g>
<!-- Node2 -->
<g id="node3" class="node">
<title>Node2</title>
<g id="a_node3"><a xlink:href="class_iota_message_to_transaction_task.html" target="_top" xlink:title=": Get confirmed transaction id from Iota, process it">
<polygon fill="white" stroke="black" points="217,-126 217,-145 371,-145 371,-126 217,-126"/>
<text text-anchor="middle" x="294" y="-133" font-family="Helvetica,sans-Serif" font-size="10.00">IotaMessageToTransactionTask</text>
</a>
</g>
</g>
<!-- Node1&#45;&gt;Node2 -->
<g id="edge2" class="edge">
<title>Node1&#45;&gt;Node2</title>
<path fill="none" stroke="midnightblue" d="M165.97,-92.89C180.56,-100.69 199.42,-110.02 217,-116.5 226.83,-120.12 237.62,-123.28 247.9,-125.93"/>
<polygon fill="midnightblue" stroke="midnightblue" points="167.51,-89.74 157.05,-88.03 164.16,-95.89 167.51,-89.74"/>
</g>
<!-- Node3 -->
<g id="node4" class="node">
<title>Node3</title>
<g id="a_node4"><a xlink:href="class_write_transactions_to_block_task.html" target="_top" xlink:title="Task for collecting transactions and write it to block chain after timeout.">
<polygon fill="white" stroke="black" points="218,-88 218,-107 370,-107 370,-88 218,-88"/>
<text text-anchor="middle" x="294" y="-95" font-family="Helvetica,sans-Serif" font-size="10.00">WriteTransactionsToBlockTask</text>
</a>
</g>
</g>
<!-- Node1&#45;&gt;Node3 -->
<g id="edge3" class="edge">
<title>Node1&#45;&gt;Node3</title>
<path fill="none" stroke="midnightblue" d="M191.46,-84.85C199.95,-85.91 208.92,-87.02 217.87,-88.14"/>
<polygon fill="midnightblue" stroke="midnightblue" points="191.72,-81.35 181.37,-83.59 190.86,-88.3 191.72,-81.35"/>
</g>
<!-- Node4 -->
<g id="node5" class="node">
<title>Node4</title>
<g id="a_node5"><a xlink:href="classiota_1_1_milestone_loading_task.html" target="_top" xlink:title=" ">
<polygon fill="white" stroke="black" points="226.5,-50 226.5,-69 361.5,-69 361.5,-50 226.5,-50"/>
<text text-anchor="middle" x="294" y="-57" font-family="Helvetica,sans-Serif" font-size="10.00">iota::MilestoneLoadingTask</text>
</a>
</g>
</g>
<!-- Node1&#45;&gt;Node4 -->
<g id="edge4" class="edge">
<title>Node1&#45;&gt;Node4</title>
<path fill="none" stroke="midnightblue" d="M191.4,-72.16C202.62,-70.76 214.66,-69.26 226.4,-67.8"/>
<polygon fill="midnightblue" stroke="midnightblue" points="190.86,-68.7 181.37,-73.41 191.72,-75.65 190.86,-68.7"/>
</g>
<!-- Node5 -->
<g id="node6" class="node">
<title>Node5</title>
<g id="a_node6"><a xlink:href="classmodel_1_1files_1_1_block_append_line_task.html" target="_top" xlink:title=" ">
<polygon fill="white" stroke="black" points="229,-0.5 229,-30.5 359,-30.5 359,-0.5 229,-0.5"/>
<text text-anchor="start" x="237" y="-18.5" font-family="Helvetica,sans-Serif" font-size="10.00">model::files::BlockAppend</text>
<text text-anchor="middle" x="294" y="-7.5" font-family="Helvetica,sans-Serif" font-size="10.00">LineTask</text>
</a>
</g>
</g>
<!-- Node1&#45;&gt;Node5 -->
<g id="edge5" class="edge">
<title>Node1&#45;&gt;Node5</title>
<path fill="none" stroke="#8b1a1a" d="M167.02,-64.15C181.55,-56.6 200.01,-47.47 217,-40.5 225.48,-37.02 234.64,-33.67 243.56,-30.62"/>
<polygon fill="#8b1a1a" stroke="#8b1a1a" points="165.31,-61.1 158.1,-68.86 168.57,-67.29 165.31,-61.1"/>
</g>
</g>
</svg>
