<?xml version="1.0" encoding="UTF-8" standalone="no"?>
<!DOCTYPE svg PUBLIC "-//W3C//DTD SVG 1.1//EN"
 "http://www.w3.org/Graphics/SVG/1.1/DTD/svg11.dtd">
<!-- Generated by graphviz version 2.50.0 (20211204.2007)
 -->
<!-- Title: Graphical Class Hierarchy Pages: 1 -->
<svg width="354pt" height="203pt"
 viewBox="0.00 0.00 354.00 203.00" xmlns="http://www.w3.org/2000/svg" xmlns:xlink="http://www.w3.org/1999/xlink">
<g id="graph0" class="graph" transform="scale(1 1) rotate(0) translate(4 199)">
<title>Graphical Class Hierarchy</title>
<polygon fill="white" stroke="transparent" points="-4,4 -4,-199 350,-199 350,4 -4,4"/>
<!-- Node0 -->
<g id="node1" class="node">
<title>Node0</title>
<g id="a_node1"><a xlink:title=" ">
<polygon fill="white" stroke="#bfbfbf" points="0,-93.5 0,-112.5 142,-112.5 142,-93.5 0,-93.5"/>
<text text-anchor="middle" x="71" y="-100.5" font-family="Helvetica,sans-Serif" font-size="10.00">GradidoBlockchainException</text>
</a>
</g>
</g>
<!-- Node1 -->
<g id="node2" class="node">
<title>Node1</title>
<g id="a_node2"><a xlink:href="class_level_d_b_key_already_exist_exception.html" target="_top" xlink:title=" ">
<polygon fill="white" stroke="black" points="178,-175.5 178,-194.5 346,-194.5 346,-175.5 178,-175.5"/>
<text text-anchor="middle" x="262" y="-182.5" font-family="Helvetica,sans-Serif" font-size="10.00">LevelDBKeyAlreadyExistException</text>
</a>
</g>
</g>
<!-- Node0&#45;&gt;Node1 -->
<g id="edge1" class="edge">
<title>Node0&#45;&gt;Node1</title>
<path fill="none" stroke="midnightblue" d="M93.38,-118.43C114.08,-132.7 146.84,-153.53 178,-166 187.47,-169.79 197.86,-172.92 208,-175.46"/>
<polygon fill="midnightblue" stroke="midnightblue" points="95.22,-115.45 85.02,-112.58 91.2,-121.18 95.22,-115.45"/>
</g>
<!-- Node2 -->
<g id="node3" class="node">
<title>Node2</title>
<g id="a_node3"><a xlink:href="class_level_d_b_put_exception.html" target="_top" xlink:title=" ">
<polygon fill="white" stroke="black" points="207,-137.5 207,-156.5 317,-156.5 317,-137.5 207,-137.5"/>
<text text-anchor="middle" x="262" y="-144.5" font-family="Helvetica,sans-Serif" font-size="10.00">LevelDBPutException</text>
</a>
</g>
</g>
<!-- Node0&#45;&gt;Node2 -->
<g id="edge2" class="edge">
<title>Node0&#45;&gt;Node2</title>
<path fill="none" stroke="midnightblue" d="M122.32,-114.94C139.93,-119.1 159.83,-123.78 178,-128 191.39,-131.11 206.01,-134.47 219.19,-137.49"/>
<polygon fill="midnightblue" stroke="midnightblue" points="122.79,-111.45 112.25,-112.56 121.18,-118.27 122.79,-111.45"/>
</g>
<!-- Node3 -->
<g id="node4" class="node">
<title>Node3</title>
<g id="a_node4"><a xlink:href="classmodel_1_1files_1_1_hash_mismatch_exception.html" target="_top" xlink:title=" ">
<polygon fill="white" stroke="black" points="193.5,-88 193.5,-118 330.5,-118 330.5,-88 193.5,-88"/>
<text text-anchor="start" x="201.5" y="-106" font-family="Helvetica,sans-Serif" font-size="10.00">model::files::HashMismatch</text>
<text text-anchor="middle" x="262" y="-95" font-family="Helvetica,sans-Serif" font-size="10.00">Exception</text>
</a>
</g>
</g>
<!-- Node0&#45;&gt;Node3 -->
<g id="edge3" class="edge">
<title>Node0&#45;&gt;Node3</title>
<path fill="none" stroke="midnightblue" d="M152.4,-103C165.99,-103 179.98,-103 193.2,-103"/>
<polygon fill="midnightblue" stroke="midnightblue" points="152.11,-99.5 142.11,-103 152.11,-106.5 152.11,-99.5"/>
</g>
<!-- Node4 -->
<g id="node5" class="node">
<title>Node4</title>
<g id="a_node5"><a xlink:href="classmodel_1_1files_1_1_index_address_pair_already_exist_exception.html" target="_top" xlink:title=" ">
<polygon fill="white" stroke="black" points="195.5,-39 195.5,-69 328.5,-69 328.5,-39 195.5,-39"/>
<text text-anchor="start" x="203.5" y="-57" font-family="Helvetica,sans-Serif" font-size="10.00">model::files::IndexAddress</text>
<text text-anchor="middle" x="262" y="-46" font-family="Helvetica,sans-Serif" font-size="10.00">PairAlreadyExistException</text>
</a>
</g>
</g>
<!-- Node0&#45;&gt;Node4 -->
<g id="edge4" class="edge">
<title>Node0&#45;&gt;Node4</title>
<path fill="none" stroke="midnightblue" d="M118.68,-90.9C144.16,-84.29 175.94,-76.05 203,-69.04"/>
<polygon fill="midnightblue" stroke="midnightblue" points="117.69,-87.54 108.89,-93.44 119.45,-94.31 117.69,-87.54"/>
</g>
<!-- Node5 -->
<g id="node6" class="node">
<title>Node5</title>
<g id="a_node6"><a xlink:href="classmodel_1_1files_1_1_lock_exception.html" target="_top" xlink:title=" ">
<polygon fill="white" stroke="black" points="193.5,-0.5 193.5,-19.5 330.5,-19.5 330.5,-0.5 193.5,-0.5"/>
<text text-anchor="middle" x="262" y="-7.5" font-family="Helvetica,sans-Serif" font-size="10.00">model::files::LockException</text>
</a>
</g>
</g>
<!-- Node0&#45;&gt;Node5 -->
<g id="edge5" class="edge">
<title>Node0&#45;&gt;Node5</title>
<path fill="none" stroke="midnightblue" d="M90.73,-86.9C110.97,-70.3 144.79,-44.82 178,-30 187.61,-25.71 198.27,-22.26 208.67,-19.52"/>
<polygon fill="midnightblue" stroke="midnightblue" points="88.36,-84.31 82.93,-93.41 92.85,-89.69 88.36,-84.31"/>
</g>
</g>
</svg>
