<?xml version="1.0" encoding="UTF-8" standalone="no"?>
<!DOCTYPE svg PUBLIC "-//W3C//DTD SVG 1.1//EN"
 "http://www.w3.org/Graphics/SVG/1.1/DTD/svg11.dtd">
<!-- Generated by graphviz version 2.50.0 (20211204.2007)
 -->
<!-- Title: Graphical Class Hierarchy Pages: 1 -->
<svg width="284pt" height="137pt"
 viewBox="0.00 0.00 284.00 137.00" xmlns="http://www.w3.org/2000/svg" xmlns:xlink="http://www.w3.org/1999/xlink">
<g id="graph0" class="graph" transform="scale(1 1) rotate(0) translate(4 133)">
<title>Graphical Class Hierarchy</title>
<polygon fill="white" stroke="transparent" points="-4,4 -4,-133 280,-133 280,4 -4,4"/>
<!-- Node0 -->
<g id="node1" class="node">
<title>Node0</title>
<g id="a_node1"><a xlink:href="structmodel_1_1files_1_1_block_index_1_1_block.html" target="_top" xlink:title=" ">
<polygon fill="white" stroke="black" points="0,-49.5 0,-79.5 120,-79.5 120,-49.5 0,-49.5"/>
<text text-anchor="start" x="8" y="-67.5" font-family="Helvetica,sans-Serif" font-size="10.00">model::files::BlockIndex</text>
<text text-anchor="middle" x="60" y="-56.5" font-family="Helvetica,sans-Serif" font-size="10.00">::Block</text>
</a>
</g>
</g>
<!-- Node1 -->
<g id="node2" class="node">
<title>Node1</title>
<g id="a_node2"><a xlink:href="structmodel_1_1files_1_1_block_index_1_1_data_block.html" target="_top" xlink:title=" ">
<polygon fill="white" stroke="black" points="156,-98.5 156,-128.5 276,-128.5 276,-98.5 156,-98.5"/>
<text text-anchor="start" x="164" y="-116.5" font-family="Helvetica,sans-Serif" font-size="10.00">model::files::BlockIndex</text>
<text text-anchor="middle" x="216" y="-105.5" font-family="Helvetica,sans-Serif" font-size="10.00">::DataBlock</text>
</a>
</g>
</g>
<!-- Node0&#45;&gt;Node1 -->
<g id="edge1" class="edge">
<title>Node0&#45;&gt;Node1</title>
<path fill="none" stroke="midnightblue" d="M118.39,-82.76C134.63,-87.93 152.12,-93.49 167.7,-98.45"/>
<polygon fill="midnightblue" stroke="midnightblue" points="119.05,-79.3 108.46,-79.6 116.93,-85.97 119.05,-79.3"/>
</g>
<!-- Node2 -->
<g id="node3" class="node">
<title>Node2</title>
<g id="a_node3"><a xlink:href="structmodel_1_1files_1_1_block_index_1_1_month_block.html" target="_top" xlink:title=" ">
<polygon fill="white" stroke="black" points="156,-49.5 156,-79.5 276,-79.5 276,-49.5 156,-49.5"/>
<text text-anchor="start" x="164" y="-67.5" font-family="Helvetica,sans-Serif" font-size="10.00">model::files::BlockIndex</text>
<text text-anchor="middle" x="216" y="-56.5" font-family="Helvetica,sans-Serif" font-size="10.00">::MonthBlock</text>
</a>
</g>
</g>
<!-- Node0&#45;&gt;Node2 -->
<g id="edge2" class="edge">
<title>Node0&#45;&gt;Node2</title>
<path fill="none" stroke="midnightblue" d="M130.37,-64.5C138.86,-64.5 147.48,-64.5 155.8,-64.5"/>
<polygon fill="midnightblue" stroke="midnightblue" points="130.1,-61 120.1,-64.5 130.1,-68 130.1,-61"/>
</g>
<!-- Node3 -->
<g id="node4" class="node">
<title>Node3</title>
<g id="a_node4"><a xlink:href="structmodel_1_1files_1_1_block_index_1_1_year_block.html" target="_top" xlink:title=" ">
<polygon fill="white" stroke="black" points="156,-0.5 156,-30.5 276,-30.5 276,-0.5 156,-0.5"/>
<text text-anchor="start" x="164" y="-18.5" font-family="Helvetica,sans-Serif" font-size="10.00">model::files::BlockIndex</text>
<text text-anchor="middle" x="216" y="-7.5" font-family="Helvetica,sans-Serif" font-size="10.00">::YearBlock</text>
</a>
</g>
</g>
<!-- Node0&#45;&gt;Node3 -->
<g id="edge3" class="edge">
<title>Node0&#45;&gt;Node3</title>
<path fill="none" stroke="midnightblue" d="M118.39,-46.24C134.63,-41.07 152.12,-35.51 167.7,-30.55"/>
<polygon fill="midnightblue" stroke="midnightblue" points="116.93,-43.03 108.46,-49.4 119.05,-49.7 116.93,-43.03"/>
</g>
</g>
</svg>
