<?xml version="1.0" encoding="UTF-8" standalone="no"?>
<!DOCTYPE svg PUBLIC "-//W3C//DTD SVG 1.1//EN"
 "http://www.w3.org/Graphics/SVG/1.1/DTD/svg11.dtd">
<!-- Generated by graphviz version 2.50.0 (20211204.2007)
 -->
<!-- Title: Graphical Class Hierarchy Pages: 1 -->
<svg width="392pt" height="104pt"
 viewBox="0.00 0.00 392.00 104.00" xmlns="http://www.w3.org/2000/svg" xmlns:xlink="http://www.w3.org/1999/xlink">
<g id="graph0" class="graph" transform="scale(1 1) rotate(0) translate(4 100)">
<title>Graphical Class Hierarchy</title>
<polygon fill="white" stroke="transparent" points="-4,4 -4,-100 388,-100 388,4 -4,4"/>
<!-- Node0 -->
<g id="node1" class="node">
<title>Node0</title>
<g id="a_node1"><a xlink:title=" ">
<polygon fill="white" stroke="#bfbfbf" points="0,-38.5 0,-57.5 86,-57.5 86,-38.5 0,-38.5"/>
<text text-anchor="middle" x="43" y="-45.5" font-family="Helvetica,sans-Serif" font-size="10.00">Poco::Runnable</text>
</a>
</g>
</g>
<!-- Node1 -->
<g id="node2" class="node">
<title>Node1</title>
<g id="a_node2"><a xlink:href="class_fuzzy_timer.html" target="_top" xlink:title=" ">
<polygon fill="white" stroke="black" points="146,-76.5 146,-95.5 214,-95.5 214,-76.5 146,-76.5"/>
<text text-anchor="middle" x="180" y="-83.5" font-family="Helvetica,sans-Serif" font-size="10.00">FuzzyTimer</text>
</a>
</g>
</g>
<!-- Node0&#45;&gt;Node1 -->
<g id="edge1" class="edge">
<title>Node0&#45;&gt;Node1</title>
<path fill="none" stroke="midnightblue" d="M87.92,-60.36C106.76,-65.67 128.41,-71.76 145.88,-76.68"/>
<polygon fill="midnightblue" stroke="midnightblue" points="88.64,-56.93 78.07,-57.59 86.74,-63.67 88.64,-56.93"/>
</g>
<!-- Node2 -->
<g id="node3" class="node">
<title>Node2</title>
<g id="a_node3"><a xlink:href="class_uni_lib_1_1lib_1_1_thread.html" target="_top" xlink:title=" ">
<polygon fill="white" stroke="black" points="132.5,-38.5 132.5,-57.5 227.5,-57.5 227.5,-38.5 132.5,-38.5"/>
<text text-anchor="middle" x="180" y="-45.5" font-family="Helvetica,sans-Serif" font-size="10.00">UniLib::lib::Thread</text>
</a>
</g>
</g>
<!-- Node0&#45;&gt;Node2 -->
<g id="edge2" class="edge">
<title>Node0&#45;&gt;Node2</title>
<path fill="none" stroke="midnightblue" d="M96.47,-48C108.22,-48 120.61,-48 132.11,-48"/>
<polygon fill="midnightblue" stroke="midnightblue" points="96.34,-44.5 86.34,-48 96.34,-51.5 96.34,-44.5"/>
</g>
<!-- Node5 -->
<g id="node6" class="node">
<title>Node5</title>
<g id="a_node6"><a xlink:href="classiota_1_1_message_validator.html" target="_top" xlink:title="get messages and milestones from listener and check if messages where confirmed">
<polygon fill="white" stroke="black" points="122,-0.5 122,-19.5 238,-19.5 238,-0.5 122,-0.5"/>
<text text-anchor="middle" x="180" y="-7.5" font-family="Helvetica,sans-Serif" font-size="10.00">iota::MessageValidator</text>
</a>
</g>
</g>
<!-- Node0&#45;&gt;Node5 -->
<g id="edge5" class="edge">
<title>Node0&#45;&gt;Node5</title>
<path fill="none" stroke="midnightblue" d="M87.76,-35.68C106.31,-30.46 127.6,-24.47 144.94,-19.59"/>
<polygon fill="midnightblue" stroke="midnightblue" points="86.74,-32.33 78.07,-38.41 88.64,-39.07 86.74,-32.33"/>
</g>
<!-- Node3 -->
<g id="node4" class="node">
<title>Node3</title>
<g id="a_node4"><a xlink:href="class_ordering_manager.html" target="_top" xlink:title=" ">
<polygon fill="white" stroke="black" points="283.5,-60.5 283.5,-79.5 374.5,-79.5 374.5,-60.5 283.5,-60.5"/>
<text text-anchor="middle" x="329" y="-67.5" font-family="Helvetica,sans-Serif" font-size="10.00">OrderingManager</text>
</a>
</g>
</g>
<!-- Node2&#45;&gt;Node3 -->
<g id="edge3" class="edge">
<title>Node2&#45;&gt;Node3</title>
<path fill="none" stroke="midnightblue" d="M237.77,-56.5C252.86,-58.75 268.95,-61.16 283.3,-63.31"/>
<polygon fill="midnightblue" stroke="midnightblue" points="237.92,-52.98 227.51,-54.96 236.88,-59.9 237.92,-52.98"/>
</g>
<!-- Node4 -->
<g id="node5" class="node">
<title>Node4</title>
<g id="a_node5"><a xlink:href="class_uni_lib_1_1controller_1_1_c_p_u_sheduler_thread.html" target="_top" xlink:title=" ">
<polygon fill="white" stroke="black" points="274,-11 274,-41 384,-41 384,-11 274,-11"/>
<text text-anchor="start" x="282" y="-29" font-family="Helvetica,sans-Serif" font-size="10.00">UniLib::controller</text>
<text text-anchor="middle" x="329" y="-18" font-family="Helvetica,sans-Serif" font-size="10.00">::CPUShedulerThread</text>
</a>
</g>
</g>
<!-- Node2&#45;&gt;Node4 -->
<g id="edge4" class="edge">
<title>Node2&#45;&gt;Node4</title>
<path fill="none" stroke="midnightblue" d="M237.74,-39.51C249.6,-37.73 262.07,-35.87 273.84,-34.11"/>
<polygon fill="midnightblue" stroke="midnightblue" points="236.88,-36.1 227.51,-41.04 237.92,-43.02 236.88,-36.1"/>
</g>
</g>
</svg>
