<?xml version="1.0" encoding="UTF-8" standalone="no"?>
<!DOCTYPE svg PUBLIC "-//W3C//DTD SVG 1.1//EN"
 "http://www.w3.org/Graphics/SVG/1.1/DTD/svg11.dtd">
<!-- Generated by graphviz version 2.50.0 (20211204.2007)
 -->
<!-- Title: src/main.cpp Pages: 1 -->
<svg width="1397pt" height="285pt"
 viewBox="0.00 0.00 1396.50 285.00" xmlns="http://www.w3.org/2000/svg" xmlns:xlink="http://www.w3.org/1999/xlink">
<g id="graph0" class="graph" transform="scale(1 1) rotate(0) translate(4 281)">
<title>src/main.cpp</title>
<polygon fill="white" stroke="transparent" points="-4,4 -4,-281 1392.5,-281 1392.5,4 -4,4"/>
<!-- Node1 -->
<g id="node1" class="node">
<title>Node1</title>
<g id="a_node1"><a xlink:title=" ">
<polygon fill="#bfbfbf" stroke="black" points="349.5,-257.5 349.5,-276.5 422.5,-276.5 422.5,-257.5 349.5,-257.5"/>
<text text-anchor="middle" x="386" y="-264.5" font-family="Helvetica,sans-Serif" font-size="10.00">src/main.cpp</text>
</a>
</g>
</g>
<!-- Node2 -->
<g id="node2" class="node">
<title>Node2</title>
<g id="a_node2"><a xlink:href="main_8h.html" target="_top" xlink:title=" ">
<polygon fill="white" stroke="black" points="0,-196 0,-215 46,-215 46,-196 0,-196"/>
<text text-anchor="middle" x="23" y="-203" font-family="Helvetica,sans-Serif" font-size="10.00">main.h</text>
</a>
</g>
</g>
<!-- Node1&#45;&gt;Node2 -->
<g id="edge1" class="edge">
<title>Node1&#45;&gt;Node2</title>
<path fill="none" stroke="midnightblue" d="M349.04,-264.47C287.11,-261.13 158.94,-250.92 55,-221 53.07,-220.44 51.1,-219.79 49.14,-219.07"/>
<polygon fill="midnightblue" stroke="midnightblue" points="50.17,-215.71 39.59,-215.12 47.49,-222.18 50.17,-215.71"/>
</g>
<!-- Node3 -->
<g id="node3" class="node">
<title>Node3</title>
<g id="a_node3"><a xlink:href="_main_server_8h.html" target="_top" xlink:title=" ">
<polygon fill="white" stroke="black" points="64.5,-196 64.5,-215 137.5,-215 137.5,-196 64.5,-196"/>
<text text-anchor="middle" x="101" y="-203" font-family="Helvetica,sans-Serif" font-size="10.00">MainServer.h</text>
</a>
</g>
</g>
<!-- Node1&#45;&gt;Node3 -->
<g id="edge2" class="edge">
<title>Node1&#45;&gt;Node3</title>
<path fill="none" stroke="midnightblue" d="M349.26,-260.48C302.09,-253.07 217.85,-238.77 147,-221 143.38,-220.09 139.62,-219.06 135.88,-217.97"/>
<polygon fill="midnightblue" stroke="midnightblue" points="136.74,-214.58 126.15,-215.02 134.71,-221.27 136.74,-214.58"/>
</g>
<!-- Node5 -->
<g id="node5" class="node">
<title>Node5</title>
<g id="a_node5"><a xlink:title=" ">
<polygon fill="white" stroke="#bfbfbf" points="156,-196 156,-215 302,-215 302,-196 156,-196"/>
<text text-anchor="middle" x="229" y="-203" font-family="Helvetica,sans-Serif" font-size="10.00">gradido/TransactionBody.pb.h</text>
</a>
</g>
</g>
<!-- Node1&#45;&gt;Node5 -->
<g id="edge4" class="edge">
<title>Node1&#45;&gt;Node5</title>
<path fill="none" stroke="midnightblue" d="M363.51,-257.48C336.69,-247.31 291.68,-230.26 261.19,-218.7"/>
<polygon fill="midnightblue" stroke="midnightblue" points="262.04,-215.28 251.45,-215.01 259.56,-221.83 262.04,-215.28"/>
</g>
<!-- Node6 -->
<g id="node6" class="node">
<title>Node6</title>
<g id="a_node6"><a xlink:title=" ">
<polygon fill="white" stroke="#bfbfbf" points="320,-196 320,-215 376,-215 376,-196 320,-196"/>
<text text-anchor="middle" x="348" y="-203" font-family="Helvetica,sans-Serif" font-size="10.00">sodium.h</text>
</a>
</g>
</g>
<!-- Node1&#45;&gt;Node6 -->
<g id="edge5" class="edge">
<title>Node1&#45;&gt;Node6</title>
<path fill="none" stroke="midnightblue" d="M380.56,-257.48C374.91,-248.64 365.94,-234.59 358.84,-223.48"/>
<polygon fill="midnightblue" stroke="midnightblue" points="361.77,-221.55 353.43,-215.01 355.87,-225.32 361.77,-221.55"/>
</g>
<!-- Node7 -->
<g id="node7" class="node">
<title>Node7</title>
<g id="a_node7"><a xlink:title=" ">
<polygon fill="white" stroke="#bfbfbf" points="394.5,-196 394.5,-215 453.5,-215 453.5,-196 394.5,-196"/>
<text text-anchor="middle" x="424" y="-203" font-family="Helvetica,sans-Serif" font-size="10.00">exception</text>
</a>
</g>
</g>
<!-- Node1&#45;&gt;Node7 -->
<g id="edge6" class="edge">
<title>Node1&#45;&gt;Node7</title>
<path fill="none" stroke="midnightblue" d="M391.44,-257.48C397.09,-248.64 406.06,-234.59 413.16,-223.48"/>
<polygon fill="midnightblue" stroke="midnightblue" points="416.13,-225.32 418.57,-215.01 410.23,-221.55 416.13,-225.32"/>
</g>
<!-- Node8 -->
<g id="node8" class="node">
<title>Node8</title>
<g id="a_node8"><a xlink:title=" ">
<polygon fill="white" stroke="#bfbfbf" points="472,-190.5 472,-220.5 572,-220.5 572,-190.5 472,-190.5"/>
<text text-anchor="start" x="480" y="-208.5" font-family="Helvetica,sans-Serif" font-size="10.00">gradido_blockchain</text>
<text text-anchor="middle" x="522" y="-197.5" font-family="Helvetica,sans-Serif" font-size="10.00">/lib/Profiler.h</text>
</a>
</g>
</g>
<!-- Node1&#45;&gt;Node8 -->
<g id="edge7" class="edge">
<title>Node1&#45;&gt;Node8</title>
<path fill="none" stroke="midnightblue" d="M405.49,-257.48C425.02,-248.93 455.71,-235.5 480.69,-224.57"/>
<polygon fill="midnightblue" stroke="midnightblue" points="482.19,-227.74 489.95,-220.52 479.38,-221.32 482.19,-227.74"/>
</g>
<!-- Node9 -->
<g id="node9" class="node">
<title>Node9</title>
<g id="a_node9"><a xlink:title=" ">
<polygon fill="white" stroke="#bfbfbf" points="590,-190.5 590,-220.5 690,-220.5 690,-190.5 590,-190.5"/>
<text text-anchor="start" x="598" y="-208.5" font-family="Helvetica,sans-Serif" font-size="10.00">gradido_blockchain</text>
<text text-anchor="middle" x="640" y="-197.5" font-family="Helvetica,sans-Serif" font-size="10.00">/lib/Decay.h</text>
</a>
</g>
</g>
<!-- Node1&#45;&gt;Node9 -->
<g id="edge8" class="edge">
<title>Node1&#45;&gt;Node9</title>
<path fill="none" stroke="midnightblue" d="M422.69,-257.7C459.93,-249.23 519.47,-235.6 580.07,-221.2"/>
<polygon fill="midnightblue" stroke="midnightblue" points="580.88,-224.61 589.8,-218.89 579.26,-217.8 580.88,-224.61"/>
</g>
<!-- Node10 -->
<g id="node10" class="node">
<title>Node10</title>
<g id="a_node10"><a xlink:href="_server_globals_8h.html" target="_top" xlink:title=" ">
<polygon fill="white" stroke="black" points="708.5,-196 708.5,-215 793.5,-215 793.5,-196 708.5,-196"/>
<text text-anchor="middle" x="751" y="-203" font-family="Helvetica,sans-Serif" font-size="10.00">ServerGlobals.h</text>
</a>
</g>
</g>
<!-- Node1&#45;&gt;Node10 -->
<g id="edge9" class="edge">
<title>Node1&#45;&gt;Node10</title>
<path fill="none" stroke="midnightblue" d="M422.89,-262.26C481.7,-255.95 600.15,-241.8 699,-221 703.51,-220.05 708.2,-218.93 712.84,-217.74"/>
<polygon fill="midnightblue" stroke="midnightblue" points="714.07,-221.04 722.83,-215.07 712.26,-214.28 714.07,-221.04"/>
</g>
<!-- Node4 -->
<g id="node4" class="node">
<title>Node4</title>
<g id="a_node4"><a xlink:title=" ">
<polygon fill="white" stroke="#bfbfbf" points="29.5,-129 29.5,-148 172.5,-148 172.5,-129 29.5,-129"/>
<text text-anchor="middle" x="101" y="-136" font-family="Helvetica,sans-Serif" font-size="10.00">Poco/Util/ServerApplication.h</text>
</a>
</g>
</g>
<!-- Node3&#45;&gt;Node4 -->
<g id="edge3" class="edge">
<title>Node3&#45;&gt;Node4</title>
<path fill="none" stroke="midnightblue" d="M101,-195.73C101,-186.18 101,-170.62 101,-158.28"/>
<polygon fill="midnightblue" stroke="midnightblue" points="104.5,-158.13 101,-148.13 97.5,-158.13 104.5,-158.13"/>
</g>
<!-- Node11 -->
<g id="node11" class="node">
<title>Node11</title>
<g id="a_node11"><a xlink:title=" ">
<polygon fill="white" stroke="#bfbfbf" points="495,-0.5 495,-19.5 653,-19.5 653,-0.5 495,-0.5"/>
<text text-anchor="middle" x="574" y="-7.5" font-family="Helvetica,sans-Serif" font-size="10.00">Poco/Util/LayeredConfiguration.h</text>
</a>
</g>
</g>
<!-- Node10&#45;&gt;Node11 -->
<g id="edge10" class="edge">
<title>Node10&#45;&gt;Node11</title>
<path fill="none" stroke="midnightblue" d="M723.11,-195.96C715.35,-193.8 706.89,-191.63 699,-190 640.58,-177.96 472.25,-198.92 433,-154 388.84,-103.46 490.84,-48.06 544.14,-23.69"/>
<polygon fill="midnightblue" stroke="midnightblue" points="545.78,-26.79 553.48,-19.51 542.92,-20.41 545.78,-26.79"/>
</g>
<!-- Node12 -->
<g id="node12" class="node">
<title>Node12</title>
<g id="a_node12"><a xlink:title=" ">
<polygon fill="white" stroke="#bfbfbf" points="442.5,-129 442.5,-148 519.5,-148 519.5,-129 442.5,-129"/>
<text text-anchor="middle" x="481" y="-136" font-family="Helvetica,sans-Serif" font-size="10.00">Poco/Types.h</text>
</a>
</g>
</g>
<!-- Node10&#45;&gt;Node12 -->
<g id="edge11" class="edge">
<title>Node10&#45;&gt;Node12</title>
<path fill="none" stroke="midnightblue" d="M721.66,-195.97C714.29,-193.92 706.37,-191.81 699,-190 623.99,-171.62 603.81,-173.18 529,-154 525.33,-153.06 521.51,-152.02 517.71,-150.94"/>
<polygon fill="midnightblue" stroke="midnightblue" points="518.38,-147.48 507.8,-148.03 516.41,-154.2 518.38,-147.48"/>
</g>
<!-- Node13 -->
<g id="node13" class="node">
<title>Node13</title>
<g id="a_node13"><a xlink:title=" ">
<polygon fill="white" stroke="#bfbfbf" points="538,-129 538,-148 618,-148 618,-129 538,-129"/>
<text text-anchor="middle" x="578" y="-136" font-family="Helvetica,sans-Serif" font-size="10.00">Poco/Logger.h</text>
</a>
</g>
</g>
<!-- Node10&#45;&gt;Node13 -->
<g id="edge12" class="edge">
<title>Node10&#45;&gt;Node13</title>
<path fill="none" stroke="midnightblue" d="M728.03,-195.87C697.83,-184.52 644.6,-164.52 610.34,-151.65"/>
<polygon fill="midnightblue" stroke="midnightblue" points="611.38,-148.3 600.79,-148.06 608.92,-154.86 611.38,-148.3"/>
</g>
<!-- Node14 -->
<g id="node14" class="node">
<title>Node14</title>
<g id="a_node14"><a xlink:title=" ">
<polygon fill="white" stroke="#bfbfbf" points="636,-129 636,-148 738,-148 738,-129 636,-129"/>
<text text-anchor="middle" x="687" y="-136" font-family="Helvetica,sans-Serif" font-size="10.00">Poco/Net/Context.h</text>
</a>
</g>
</g>
<!-- Node10&#45;&gt;Node14 -->
<g id="edge13" class="edge">
<title>Node10&#45;&gt;Node14</title>
<path fill="none" stroke="midnightblue" d="M742.37,-195.73C732.2,-185.4 715.1,-168.04 702.59,-155.33"/>
<polygon fill="midnightblue" stroke="midnightblue" points="705,-152.8 695.49,-148.13 700.02,-157.71 705,-152.8"/>
</g>
<!-- Node15 -->
<g id="node15" class="node">
<title>Node15</title>
<g id="a_node15"><a xlink:title=" ">
<polygon fill="white" stroke="#bfbfbf" points="756.5,-129 756.5,-148 871.5,-148 871.5,-129 756.5,-129"/>
<text text-anchor="middle" x="814" y="-136" font-family="Helvetica,sans-Serif" font-size="10.00">Poco/AtomicCounter.h</text>
</a>
</g>
</g>
<!-- Node10&#45;&gt;Node15 -->
<g id="edge14" class="edge">
<title>Node10&#45;&gt;Node15</title>
<path fill="none" stroke="midnightblue" d="M759.5,-195.73C769.51,-185.4 786.34,-168.04 798.66,-155.33"/>
<polygon fill="midnightblue" stroke="midnightblue" points="801.19,-157.74 805.64,-148.13 796.17,-152.87 801.19,-157.74"/>
</g>
<!-- Node16 -->
<g id="node16" class="node">
<title>Node16</title>
<g id="a_node16"><a xlink:href="_c_p_u_sheduler_8h.html" target="_top" xlink:title=" ">
<polygon fill="white" stroke="black" points="889.5,-129 889.5,-148 994.5,-148 994.5,-129 889.5,-129"/>
<text text-anchor="middle" x="942" y="-136" font-family="Helvetica,sans-Serif" font-size="10.00">task/CPUSheduler.h</text>
</a>
</g>
</g>
<!-- Node10&#45;&gt;Node16 -->
<g id="edge15" class="edge">
<title>Node10&#45;&gt;Node16</title>
<path fill="none" stroke="midnightblue" d="M776.36,-195.87C809.99,-184.42 869.48,-164.18 907.26,-151.32"/>
<polygon fill="midnightblue" stroke="midnightblue" points="908.5,-154.6 916.84,-148.06 906.24,-147.97 908.5,-154.6"/>
</g>
<!-- Node17 -->
<g id="node17" class="node">
<title>Node17</title>
<g id="a_node17"><a xlink:title=" ">
<polygon fill="white" stroke="#bfbfbf" points="1013,-123.5 1013,-153.5 1117,-153.5 1117,-123.5 1013,-123.5"/>
<text text-anchor="start" x="1021" y="-141.5" font-family="Helvetica,sans-Serif" font-size="10.00">gradido_blockchain</text>
<text text-anchor="middle" x="1065" y="-130.5" font-family="Helvetica,sans-Serif" font-size="10.00">/http/JsonRequest.h</text>
</a>
</g>
</g>
<!-- Node10&#45;&gt;Node17 -->
<g id="edge16" class="edge">
<title>Node10&#45;&gt;Node17</title>
<path fill="none" stroke="midnightblue" d="M793.89,-196.34C844.11,-186.68 929.74,-169.9 1003,-154 1003.1,-153.98 1003.2,-153.96 1003.3,-153.93"/>
<polygon fill="midnightblue" stroke="midnightblue" points="1003.92,-157.38 1012.93,-151.8 1002.41,-150.55 1003.92,-157.38"/>
</g>
<!-- Node18 -->
<g id="node18" class="node">
<title>Node18</title>
<g id="a_node18"><a xlink:href="controller_2_group_index_8h.html" target="_top" xlink:title=" ">
<polygon fill="white" stroke="black" points="1135.5,-129 1135.5,-148 1252.5,-148 1252.5,-129 1135.5,-129"/>
<text text-anchor="middle" x="1194" y="-136" font-family="Helvetica,sans-Serif" font-size="10.00">controller/GroupIndex.h</text>
</a>
</g>
</g>
<!-- Node10&#45;&gt;Node18 -->
<g id="edge17" class="edge">
<title>Node10&#45;&gt;Node18</title>
<path fill="none" stroke="midnightblue" d="M793.62,-199.83C863.36,-191.95 1006.1,-174.83 1126,-154 1132.63,-152.85 1139.6,-151.51 1146.45,-150.12"/>
<polygon fill="midnightblue" stroke="midnightblue" points="1147.25,-153.53 1156.33,-148.07 1145.83,-146.67 1147.25,-153.53"/>
</g>
<!-- Node19 -->
<g id="node19" class="node">
<title>Node19</title>
<g id="a_node19"><a xlink:href="model_2files_2_group_index_8h.html" target="_top" xlink:title=" ">
<polygon fill="white" stroke="black" points="728.5,-62 728.5,-81 861.5,-81 861.5,-62 728.5,-62"/>
<text text-anchor="middle" x="795" y="-69" font-family="Helvetica,sans-Serif" font-size="10.00">../model/files/GroupIndex.h</text>
</a>
</g>
</g>
<!-- Node18&#45;&gt;Node19 -->
<g id="edge18" class="edge">
<title>Node18&#45;&gt;Node19</title>
<path fill="none" stroke="midnightblue" d="M1155.96,-128.98C1146.21,-126.91 1135.74,-124.78 1126,-123 1037.75,-106.87 935.61,-91.84 868.4,-82.44"/>
<polygon fill="midnightblue" stroke="midnightblue" points="868.72,-78.95 858.33,-81.04 867.75,-85.88 868.72,-78.95"/>
</g>
<!-- Node20 -->
<g id="node20" class="node">
<title>Node20</title>
<g id="a_node20"><a xlink:title=" ">
<polygon fill="white" stroke="#bfbfbf" points="991,-56.5 991,-86.5 1091,-86.5 1091,-56.5 991,-56.5"/>
<text text-anchor="start" x="999" y="-74.5" font-family="Helvetica,sans-Serif" font-size="10.00">gradido_blockchain</text>
<text text-anchor="middle" x="1041" y="-63.5" font-family="Helvetica,sans-Serif" font-size="10.00">/lib/DRHashList.h</text>
</a>
</g>
</g>
<!-- Node18&#45;&gt;Node20 -->
<g id="edge20" class="edge">
<title>Node18&#45;&gt;Node20</title>
<path fill="none" stroke="midnightblue" d="M1173.68,-128.87C1150.72,-119.12 1112.72,-102.97 1083.26,-90.45"/>
<polygon fill="midnightblue" stroke="midnightblue" points="1084.59,-87.22 1074.02,-86.53 1081.86,-93.66 1084.59,-87.22"/>
</g>
<!-- Node21 -->
<g id="node21" class="node">
<title>Node21</title>
<g id="a_node21"><a xlink:title=" ">
<polygon fill="white" stroke="#bfbfbf" points="1109.5,-62 1109.5,-81 1180.5,-81 1180.5,-62 1109.5,-62"/>
<text text-anchor="middle" x="1145" y="-69" font-family="Helvetica,sans-Serif" font-size="10.00">Poco/Path.h</text>
</a>
</g>
</g>
<!-- Node18&#45;&gt;Node21 -->
<g id="edge21" class="edge">
<title>Node18&#45;&gt;Node21</title>
<path fill="none" stroke="midnightblue" d="M1187.39,-128.73C1179.82,-118.7 1167.25,-102.01 1157.76,-89.42"/>
<polygon fill="midnightblue" stroke="midnightblue" points="1160.32,-87.01 1151.5,-81.13 1154.73,-91.22 1160.32,-87.01"/>
</g>
<!-- Node22 -->
<g id="node22" class="node">
<title>Node22</title>
<g id="a_node22"><a xlink:href="_controller_base_8h.html" target="_top" xlink:title=" ">
<polygon fill="white" stroke="black" points="1198.5,-62 1198.5,-81 1287.5,-81 1287.5,-62 1198.5,-62"/>
<text text-anchor="middle" x="1243" y="-69" font-family="Helvetica,sans-Serif" font-size="10.00">ControllerBase.h</text>
</a>
</g>
</g>
<!-- Node18&#45;&gt;Node22 -->
<g id="edge22" class="edge">
<title>Node18&#45;&gt;Node22</title>
<path fill="none" stroke="midnightblue" d="M1200.61,-128.73C1208.18,-118.7 1220.75,-102.01 1230.24,-89.42"/>
<polygon fill="midnightblue" stroke="midnightblue" points="1233.27,-91.22 1236.5,-81.13 1227.68,-87.01 1233.27,-91.22"/>
</g>
<!-- Node24 -->
<g id="node24" class="node">
<title>Node24</title>
<g id="a_node24"><a xlink:title=" ">
<polygon fill="white" stroke="#bfbfbf" points="1305.5,-62 1305.5,-81 1388.5,-81 1388.5,-62 1305.5,-62"/>
<text text-anchor="middle" x="1347" y="-69" font-family="Helvetica,sans-Serif" font-size="10.00">unordered_map</text>
</a>
</g>
</g>
<!-- Node18&#45;&gt;Node24 -->
<g id="edge24" class="edge">
<title>Node18&#45;&gt;Node24</title>
<path fill="none" stroke="midnightblue" d="M1214.32,-128.87C1240.72,-117.65 1287.03,-97.98 1317.36,-85.09"/>
<polygon fill="midnightblue" stroke="midnightblue" points="1318.76,-88.3 1326.6,-81.17 1316.03,-81.86 1318.76,-88.3"/>
</g>
<!-- Node19&#45;&gt;Node11 -->
<g id="edge19" class="edge">
<title>Node19&#45;&gt;Node11</title>
<path fill="none" stroke="midnightblue" d="M763.34,-61.98C724.44,-51.5 658.36,-33.71 615.45,-22.16"/>
<polygon fill="midnightblue" stroke="midnightblue" points="616.17,-18.73 605.61,-19.51 614.35,-25.49 616.17,-18.73"/>
</g>
<!-- Node23 -->
<g id="node23" class="node">
<title>Node23</title>
<g id="a_node23"><a xlink:title=" ">
<polygon fill="white" stroke="#bfbfbf" points="1204.5,-0.5 1204.5,-19.5 1281.5,-19.5 1281.5,-0.5 1204.5,-0.5"/>
<text text-anchor="middle" x="1243" y="-7.5" font-family="Helvetica,sans-Serif" font-size="10.00">Poco/Mutex.h</text>
</a>
</g>
</g>
<!-- Node22&#45;&gt;Node23 -->
<g id="edge23" class="edge">
<title>Node22&#45;&gt;Node23</title>
<path fill="none" stroke="midnightblue" d="M1243,-61.98C1243,-53.58 1243,-40.48 1243,-29.66"/>
<polygon fill="midnightblue" stroke="midnightblue" points="1246.5,-29.51 1243,-19.51 1239.5,-29.51 1246.5,-29.51"/>
</g>
</g>
</svg>
