<?xml version="1.0" encoding="UTF-8" standalone="no"?>
<!DOCTYPE svg PUBLIC "-//W3C//DTD SVG 1.1//EN"
 "http://www.w3.org/Graphics/SVG/1.1/DTD/svg11.dtd">
<!-- Generated by graphviz version 2.50.0 (20211204.2007)
 -->
<!-- Title: src/model/files/GroupIndex.h Pages: 1 -->
<!--zoomable 218 -->
<svg id="main" version="1.1" xmlns="http://www.w3.org/2000/svg" xmlns:xlink="http://www.w3.org/1999/xlink" xml:space="preserve" onload="init(evt)">
<style type="text/css"><![CDATA[
.edge:hover path { stroke: red; }
.edge:hover polygon { stroke: red; fill: red; }
]]></style>
<script type="text/javascript"><![CDATA[
var edges = document.getElementsByTagName('g');
if (edges && edges.length) {
  for (var i=0;i<edges.length;i++) {
    if (edges[i].id.substr(0,4)=='edge') {
      edges[i].setAttribute('class','edge');
    }
  }
}
]]></script>
        <defs>
                <circle id="rim" cx="0" cy="0" r="7"/>
                <circle id="rim2" cx="0" cy="0" r="3.5"/>
                <g id="zoomPlus">
                        <use xlink:href="#rim" fill="#404040">
                                <set attributeName="fill" to="#808080" begin="zoomplus.mouseover" end="zoomplus.mouseout"/>
                        </use>
                        <path d="M-4,0h8M0,-4v8" fill="none" stroke="white" stroke-width="1.5" pointer-events="none"/>
                </g>
                <g id="zoomMin">
                        <use xlink:href="#rim" fill="#404040">
                                <set attributeName="fill" to="#808080" begin="zoomminus.mouseover" end="zoomminus.mouseout"/>
                        </use>
                        <path d="M-4,0h8" fill="none" stroke="white" stroke-width="1.5" pointer-events="none"/>
                </g>
                <g id="dirArrow">
                        <path fill="none" stroke="white" stroke-width="1.5" d="M0,-3.0v7 M-2.5,-0.5L0,-3.0L2.5,-0.5"/>
                </g>
               <g id="resetDef">
                       <use xlink:href="#rim2" fill="#404040">
                               <set attributeName="fill" to="#808080" begin="reset.mouseover" end="reset.mouseout"/>
                       </use>
               </g>
        </defs>

<script type="text/javascript">
var viewWidth = 2297;
var viewHeight = 218;
var sectionId = 'dynsection-1';
</script>
<script xlink:href="svgpan.js"/>
<svg id="graph" class="graph">
<g id="viewport">
<title>src/model/files/GroupIndex.h</title>
<polygon fill="white" stroke="transparent" points="-4,4 -4,-214 2292.5,-214 2292.5,4 -4,4"/>
<!-- Node1 -->
<g id="node1" class="node">
<title>Node1</title>
<g id="a_node1"><a xlink:title=" ">
<polygon fill="#bfbfbf" stroke="black" points="1179,-190.5 1179,-209.5 1319,-209.5 1319,-190.5 1179,-190.5"/>
<text text-anchor="middle" x="1249" y="-197.5" font-family="Helvetica,sans-Serif" font-size="10.00">src/model/files/GroupIndex.h</text>
</a>
</g>
</g>
<!-- Node2 -->
<g id="node2" class="node">
<title>Node2</title>
<g id="a_node2"><a xlink:href="controller_2_group_index_8h.html" target="_top" xlink:title=" ">
<polygon fill="white" stroke="black" points="1135,-134.5 1135,-153.5 1269,-153.5 1269,-134.5 1135,-134.5"/>
<text text-anchor="middle" x="1202" y="-141.5" font-family="Helvetica,sans-Serif" font-size="10.00">src/controller/GroupIndex.h</text>
</a>
</g>
</g>
<!-- Node1&#45;&gt;Node2 -->
<g id="edge1" class="edge">
<title>Node1&#45;&gt;Node2</title>
<path fill="none" stroke="midnightblue" d="M1234.58,-182.43C1226.34,-172.97 1216.35,-161.48 1209.62,-153.75"/>
<polygon fill="midnightblue" stroke="midnightblue" points="1232.03,-184.84 1241.24,-190.08 1237.31,-180.24 1232.03,-184.84"/>
</g>
<!-- Node15 -->
<g id="node15" class="node">
<title>Node15</title>
<g id="a_node15"><a xlink:href="model_2files_2_group_index_8cpp.html" target="_top" xlink:title=" ">
<polygon fill="white" stroke="black" points="2137.5,-6 2137.5,-25 2288.5,-25 2288.5,-6 2137.5,-6"/>
<text text-anchor="middle" x="2213" y="-13" font-family="Helvetica,sans-Serif" font-size="10.00">src/model/files/GroupIndex.cpp</text>
</a>
</g>
</g>
<!-- Node1&#45;&gt;Node15 -->
<g id="edge24" class="edge">
<title>Node1&#45;&gt;Node15</title>
<path fill="none" stroke="midnightblue" d="M1304.13,-188.56C1477.46,-155.75 2009.29,-55.07 2167.9,-25.04"/>
<polygon fill="midnightblue" stroke="midnightblue" points="1303.38,-185.14 1294.2,-190.44 1304.68,-192.02 1303.38,-185.14"/>
</g>
<!-- Node3 -->
<g id="node3" class="node">
<title>Node3</title>
<g id="a_node3"><a xlink:href="_server_globals_8h.html" target="_top" xlink:title=" ">
<polygon fill="white" stroke="black" points="1175.5,-73 1175.5,-92 1276.5,-92 1276.5,-73 1175.5,-73"/>
<text text-anchor="middle" x="1226" y="-80" font-family="Helvetica,sans-Serif" font-size="10.00">src/ServerGlobals.h</text>
</a>
</g>
</g>
<!-- Node2&#45;&gt;Node3 -->
<g id="edge2" class="edge">
<title>Node2&#45;&gt;Node3</title>
<path fill="none" stroke="midnightblue" d="M1209.26,-125C1213.68,-114.05 1219.11,-100.57 1222.57,-92.01"/>
<polygon fill="midnightblue" stroke="midnightblue" points="1205.93,-123.89 1205.44,-134.48 1212.43,-126.51 1205.93,-123.89"/>
</g>
<!-- Node10 -->
<g id="node10" class="node">
<title>Node10</title>
<g id="a_node10"><a xlink:href="controller_2_group_index_8cpp.html" target="_top" xlink:title=" ">
<polygon fill="white" stroke="black" points="711,-6 711,-25 855,-25 855,-6 711,-6"/>
<text text-anchor="middle" x="783" y="-13" font-family="Helvetica,sans-Serif" font-size="10.00">src/controller/GroupIndex.cpp</text>
</a>
</g>
</g>
<!-- Node2&#45;&gt;Node10 -->
<g id="edge23" class="edge">
<title>Node2&#45;&gt;Node10</title>
<path fill="none" stroke="midnightblue" d="M1163.71,-131.44C1080.44,-106.3 884.44,-47.12 811.23,-25.02"/>
<polygon fill="midnightblue" stroke="midnightblue" points="1162.95,-134.86 1173.53,-134.4 1164.97,-128.16 1162.95,-134.86"/>
</g>
<!-- Node18 -->
<g id="node18" class="node">
<title>Node18</title>
<g id="a_node18"><a xlink:href="_group_manager_8h.html" target="_top" xlink:title=" ">
<polygon fill="white" stroke="black" points="380.5,-67.5 380.5,-97.5 491.5,-97.5 491.5,-67.5 380.5,-67.5"/>
<text text-anchor="start" x="388.5" y="-85.5" font-family="Helvetica,sans-Serif" font-size="10.00">src/SingletonManager</text>
<text text-anchor="middle" x="436" y="-74.5" font-family="Helvetica,sans-Serif" font-size="10.00">/GroupManager.h</text>
</a>
</g>
</g>
<!-- Node2&#45;&gt;Node18 -->
<g id="edge17" class="edge">
<title>Node2&#45;&gt;Node18</title>
<path fill="none" stroke="midnightblue" d="M1124.33,-136.97C969.58,-124.95 626.11,-98.27 491.58,-87.82"/>
<polygon fill="midnightblue" stroke="midnightblue" points="1124.45,-140.49 1134.69,-137.77 1125,-133.51 1124.45,-140.49"/>
</g>
<!-- Node4 -->
<g id="node4" class="node">
<title>Node4</title>
<g id="a_node4"><a xlink:href="_main_server_8cpp.html" target="_top" xlink:title=" ">
<polygon fill="white" stroke="black" points="324,-6 324,-25 424,-25 424,-6 324,-6"/>
<text text-anchor="middle" x="374" y="-13" font-family="Helvetica,sans-Serif" font-size="10.00">src/MainServer.cpp</text>
</a>
</g>
</g>
<!-- Node3&#45;&gt;Node4 -->
<g id="edge3" class="edge">
<title>Node3&#45;&gt;Node4</title>
<path fill="none" stroke="midnightblue" d="M1165.07,-81.29C1031.62,-80.03 703.77,-72.56 433,-31 423.62,-29.56 413.54,-27.34 404.41,-25.07"/>
<polygon fill="midnightblue" stroke="midnightblue" points="1165.07,-84.79 1175.1,-81.38 1165.13,-77.79 1165.07,-84.79"/>
</g>
<!-- Node5 -->
<g id="node5" class="node">
<title>Node5</title>
<g id="a_node5"><a xlink:href="_server_globals_8cpp.html" target="_top" xlink:title=" ">
<polygon fill="white" stroke="black" points="873,-6 873,-25 985,-25 985,-6 873,-6"/>
<text text-anchor="middle" x="929" y="-13" font-family="Helvetica,sans-Serif" font-size="10.00">src/ServerGlobals.cpp</text>
</a>
</g>
</g>
<!-- Node3&#45;&gt;Node5 -->
<g id="edge4" class="edge">
<title>Node3&#45;&gt;Node5</title>
<path fill="none" stroke="midnightblue" d="M1176.67,-70.84C1129.69,-60.67 1057.01,-44.88 994,-31 985.31,-29.08 975.96,-27.01 967.14,-25.04"/>
<polygon fill="midnightblue" stroke="midnightblue" points="1176.06,-74.29 1186.58,-72.98 1177.55,-67.45 1176.06,-74.29"/>
</g>
<!-- Node6 -->
<g id="node6" class="node">
<title>Node6</title>
<g id="a_node6"><a xlink:href="_global_state_manager_8cpp.html" target="_top" xlink:title=" ">
<polygon fill="white" stroke="black" points="1003.5,-0.5 1003.5,-30.5 1130.5,-30.5 1130.5,-0.5 1003.5,-0.5"/>
<text text-anchor="start" x="1011.5" y="-18.5" font-family="Helvetica,sans-Serif" font-size="10.00">src/SingletonManager</text>
<text text-anchor="middle" x="1067" y="-7.5" font-family="Helvetica,sans-Serif" font-size="10.00">/GlobalStateManager.cpp</text>
</a>
</g>
</g>
<!-- Node3&#45;&gt;Node6 -->
<g id="edge5" class="edge">
<title>Node3&#45;&gt;Node6</title>
<path fill="none" stroke="midnightblue" d="M1195.56,-69.06C1168.63,-58.05 1129.36,-41.99 1101.31,-30.53"/>
<polygon fill="midnightblue" stroke="midnightblue" points="1194.31,-72.32 1204.89,-72.87 1196.95,-65.84 1194.31,-72.32"/>
</g>
<!-- Node7 -->
<g id="node7" class="node">
<title>Node7</title>
<g id="a_node7"><a xlink:href="_group_manager_8cpp.html" target="_top" xlink:title=" ">
<polygon fill="white" stroke="black" points="442.5,-0.5 442.5,-30.5 553.5,-30.5 553.5,-0.5 442.5,-0.5"/>
<text text-anchor="start" x="450.5" y="-18.5" font-family="Helvetica,sans-Serif" font-size="10.00">src/SingletonManager</text>
<text text-anchor="middle" x="498" y="-7.5" font-family="Helvetica,sans-Serif" font-size="10.00">/GroupManager.cpp</text>
</a>
</g>
</g>
<!-- Node3&#45;&gt;Node7 -->
<g id="edge6" class="edge">
<title>Node3&#45;&gt;Node7</title>
<path fill="none" stroke="midnightblue" d="M1165.11,-79.86C1047.8,-76.04 782.56,-64.19 562,-31 559.3,-30.59 556.54,-30.14 553.76,-29.64"/>
<polygon fill="midnightblue" stroke="midnightblue" points="1165.21,-83.36 1175.32,-80.18 1165.44,-76.37 1165.21,-83.36"/>
</g>
<!-- Node8 -->
<g id="node8" class="node">
<title>Node8</title>
<g id="a_node8"><a xlink:href="controller_2_address_index_8cpp.html" target="_top" xlink:title=" ">
<polygon fill="white" stroke="black" points="1149,-6 1149,-25 1303,-25 1303,-6 1149,-6"/>
<text text-anchor="middle" x="1226" y="-13" font-family="Helvetica,sans-Serif" font-size="10.00">src/controller/AddressIndex.cpp</text>
</a>
</g>
</g>
<!-- Node3&#45;&gt;Node8 -->
<g id="edge7" class="edge">
<title>Node3&#45;&gt;Node8</title>
<path fill="none" stroke="midnightblue" d="M1226,-62.54C1226,-50.17 1226,-34.62 1226,-25.13"/>
<polygon fill="midnightblue" stroke="midnightblue" points="1222.5,-62.73 1226,-72.73 1229.5,-62.73 1222.5,-62.73"/>
</g>
<!-- Node9 -->
<g id="node9" class="node">
<title>Node9</title>
<g id="a_node9"><a xlink:href="_group_8cpp.html" target="_top" xlink:title=" ">
<polygon fill="white" stroke="black" points="571.5,-6 571.5,-25 692.5,-25 692.5,-6 571.5,-6"/>
<text text-anchor="middle" x="632" y="-13" font-family="Helvetica,sans-Serif" font-size="10.00">src/controller/Group.cpp</text>
</a>
</g>
</g>
<!-- Node3&#45;&gt;Node9 -->
<g id="edge8" class="edge">
<title>Node3&#45;&gt;Node9</title>
<path fill="none" stroke="midnightblue" d="M1165.18,-77.78C1067.24,-71.32 868.7,-56.22 702,-31 691.32,-29.38 679.82,-27.19 669.28,-25"/>
<polygon fill="midnightblue" stroke="midnightblue" points="1164.98,-81.28 1175.19,-78.44 1165.44,-74.29 1164.98,-81.28"/>
</g>
<!-- Node3&#45;&gt;Node10 -->
<g id="edge9" class="edge">
<title>Node3&#45;&gt;Node10</title>
<path fill="none" stroke="midnightblue" d="M1165,-73.72C1092.96,-64.36 969.57,-47.81 864,-31 852.57,-29.18 840.27,-27.06 828.78,-25.01"/>
<polygon fill="midnightblue" stroke="midnightblue" points="1164.88,-77.23 1175.25,-75.05 1165.78,-70.29 1164.88,-77.23"/>
</g>
<!-- Node11 -->
<g id="node11" class="node">
<title>Node11</title>
<g id="a_node11"><a xlink:href="_h_t_t_p_api_8cpp.html" target="_top" xlink:title=" ">
<polygon fill="white" stroke="black" points="1321.5,-6 1321.5,-25 1430.5,-25 1430.5,-6 1321.5,-6"/>
<text text-anchor="middle" x="1376" y="-13" font-family="Helvetica,sans-Serif" font-size="10.00">src/iota/HTTPApi.cpp</text>
</a>
</g>
</g>
<!-- Node3&#45;&gt;Node11 -->
<g id="edge10" class="edge">
<title>Node3&#45;&gt;Node11</title>
<path fill="none" stroke="midnightblue" d="M1255.35,-68.78C1285.06,-55.91 1330.18,-36.35 1356,-25.17"/>
<polygon fill="midnightblue" stroke="midnightblue" points="1253.7,-65.68 1245.92,-72.87 1256.49,-72.1 1253.7,-65.68"/>
</g>
<!-- Node12 -->
<g id="node12" class="node">
<title>Node12</title>
<g id="a_node12"><a xlink:href="_message_validator_8cpp.html" target="_top" xlink:title=" ">
<polygon fill="white" stroke="black" points="1448.5,-6 1448.5,-25 1597.5,-25 1597.5,-6 1448.5,-6"/>
<text text-anchor="middle" x="1523" y="-13" font-family="Helvetica,sans-Serif" font-size="10.00">src/iota/MessageValidator.cpp</text>
</a>
</g>
</g>
<!-- Node3&#45;&gt;Node12 -->
<g id="edge11" class="edge">
<title>Node3&#45;&gt;Node12</title>
<path fill="none" stroke="midnightblue" d="M1275.24,-70.72C1333.72,-57.92 1430.09,-36.83 1483.78,-25.08"/>
<polygon fill="midnightblue" stroke="midnightblue" points="1274.15,-67.38 1265.13,-72.94 1275.65,-74.22 1274.15,-67.38"/>
</g>
<!-- Node13 -->
<g id="node13" class="node">
<title>Node13</title>
<g id="a_node13"><a xlink:href="main_8cpp.html" target="_top" xlink:title=" ">
<polygon fill="white" stroke="black" points="1615.5,-6 1615.5,-25 1688.5,-25 1688.5,-6 1615.5,-6"/>
<text text-anchor="middle" x="1652" y="-13" font-family="Helvetica,sans-Serif" font-size="10.00">src/main.cpp</text>
</a>
</g>
</g>
<!-- Node3&#45;&gt;Node13 -->
<g id="edge12" class="edge">
<title>Node3&#45;&gt;Node13</title>
<path fill="none" stroke="midnightblue" d="M1285.84,-71.3C1295.25,-69.8 1304.88,-68.31 1314,-67 1443.87,-48.33 1478.88,-59.25 1607,-31 1614.05,-29.44 1621.58,-27.25 1628.41,-25.03"/>
<polygon fill="midnightblue" stroke="midnightblue" points="1285.05,-67.88 1275.74,-72.94 1286.17,-74.79 1285.05,-67.88"/>
</g>
<!-- Node14 -->
<g id="node14" class="node">
<title>Node14</title>
<g id="a_node14"><a xlink:href="model_2files_2_block_8cpp.html" target="_top" xlink:title=" ">
<polygon fill="white" stroke="black" points="1707,-6 1707,-25 1833,-25 1833,-6 1707,-6"/>
<text text-anchor="middle" x="1770" y="-13" font-family="Helvetica,sans-Serif" font-size="10.00">src/model/files/Block.cpp</text>
</a>
</g>
</g>
<!-- Node3&#45;&gt;Node14 -->
<g id="edge13" class="edge">
<title>Node3&#45;&gt;Node14</title>
<path fill="none" stroke="midnightblue" d="M1283.78,-71.39C1293.84,-69.8 1304.21,-68.26 1314,-67 1484,-45.05 1528.41,-55.96 1698,-31 1708.98,-29.38 1720.81,-27.19 1731.64,-25"/>
<polygon fill="midnightblue" stroke="midnightblue" points="1283.18,-67.94 1273.87,-72.99 1284.3,-74.85 1283.18,-67.94"/>
</g>
<!-- Node3&#45;&gt;Node15 -->
<g id="edge14" class="edge">
<title>Node3&#45;&gt;Node15</title>
<path fill="none" stroke="midnightblue" d="M1281.63,-71.3C1292.34,-69.63 1303.5,-68.09 1314,-67 1674.18,-29.5 1767.92,-69.52 2128,-31 2141.4,-29.57 2155.88,-27.35 2169.03,-25.08"/>
<polygon fill="midnightblue" stroke="midnightblue" points="1280.85,-67.89 1271.53,-72.94 1281.96,-74.8 1280.85,-67.89"/>
</g>
<!-- Node16 -->
<g id="node16" class="node">
<title>Node16</title>
<g id="a_node16"><a xlink:href="_c_p_u_task_8cpp.html" target="_top" xlink:title=" ">
<polygon fill="white" stroke="black" points="1851.5,-6 1851.5,-25 1966.5,-25 1966.5,-6 1851.5,-6"/>
<text text-anchor="middle" x="1909" y="-13" font-family="Helvetica,sans-Serif" font-size="10.00">src/task/CPUTask.cpp</text>
</a>
</g>
</g>
<!-- Node3&#45;&gt;Node16 -->
<g id="edge15" class="edge">
<title>Node3&#45;&gt;Node16</title>
<path fill="none" stroke="midnightblue" d="M1282.37,-71.39C1292.86,-69.75 1303.74,-68.19 1314,-67 1547.64,-39.85 1609.11,-63.96 1842,-31 1852.49,-29.52 1863.78,-27.31 1874.05,-25.07"/>
<polygon fill="midnightblue" stroke="midnightblue" points="1281.78,-67.94 1272.47,-72.99 1282.9,-74.85 1281.78,-67.94"/>
</g>
<!-- Node17 -->
<g id="node17" class="node">
<title>Node17</title>
<g id="a_node17"><a xlink:href="_write_transactions_to_block_task_8cpp.html" target="_top" xlink:title=" ">
<polygon fill="white" stroke="black" points="1985,-0.5 1985,-30.5 2119,-30.5 2119,-0.5 1985,-0.5"/>
<text text-anchor="start" x="1993" y="-18.5" font-family="Helvetica,sans-Serif" font-size="10.00">src/task/WriteTransactions</text>
<text text-anchor="middle" x="2052" y="-7.5" font-family="Helvetica,sans-Serif" font-size="10.00">ToBlockTask.cpp</text>
</a>
</g>
</g>
<!-- Node3&#45;&gt;Node17 -->
<g id="edge16" class="edge">
<title>Node3&#45;&gt;Node17</title>
<path fill="none" stroke="midnightblue" d="M1282,-71.33C1292.6,-69.68 1303.62,-68.13 1314,-67 1606.91,-35 1683.51,-66.69 1976,-31 1978.93,-30.64 1981.92,-30.24 1984.94,-29.8"/>
<polygon fill="midnightblue" stroke="midnightblue" points="1281.31,-67.9 1272,-72.95 1282.43,-74.81 1281.31,-67.9"/>
</g>
<!-- Node18&#45;&gt;Node4 -->
<g id="edge19" class="edge">
<title>Node18&#45;&gt;Node4</title>
<path fill="none" stroke="midnightblue" d="M415.49,-60C404.17,-48.13 390.74,-34.05 382.29,-25.19"/>
<polygon fill="midnightblue" stroke="midnightblue" points="413.11,-62.58 422.55,-67.4 418.18,-57.74 413.11,-62.58"/>
</g>
<!-- Node18&#45;&gt;Node7 -->
<g id="edge20" class="edge">
<title>Node18&#45;&gt;Node7</title>
<path fill="none" stroke="midnightblue" d="M456.48,-60.02C465.72,-50.34 476.37,-39.17 484.57,-30.58"/>
<polygon fill="midnightblue" stroke="midnightblue" points="453.82,-57.74 449.45,-67.4 458.89,-62.58 453.82,-57.74"/>
</g>
<!-- Node18&#45;&gt;Node9 -->
<g id="edge21" class="edge">
<title>Node18&#45;&gt;Node9</title>
<path fill="none" stroke="midnightblue" d="M488.44,-64.11C526.58,-51.46 576.54,-34.89 606.35,-25.01"/>
<polygon fill="midnightblue" stroke="midnightblue" points="486.92,-60.93 478.53,-67.4 489.12,-67.57 486.92,-60.93"/>
</g>
<!-- Node19 -->
<g id="node19" class="node">
<title>Node19</title>
<g id="a_node19"><a xlink:href="_json_r_p_c_handler_8cpp.html" target="_top" xlink:title=" ">
<polygon fill="white" stroke="black" points="0,-0.5 0,-30.5 116,-30.5 116,-0.5 0,-0.5"/>
<text text-anchor="start" x="8" y="-18.5" font-family="Helvetica,sans-Serif" font-size="10.00">src/JSONRPCInterface</text>
<text text-anchor="middle" x="58" y="-7.5" font-family="Helvetica,sans-Serif" font-size="10.00">/JsonRPCHandler.cpp</text>
</a>
</g>
</g>
<!-- Node18&#45;&gt;Node19 -->
<g id="edge18" class="edge">
<title>Node18&#45;&gt;Node19</title>
<path fill="none" stroke="midnightblue" d="M370.03,-71.81C306.95,-62.3 209.26,-46.95 125,-31 122.08,-30.45 119.09,-29.86 116.07,-29.26"/>
<polygon fill="midnightblue" stroke="midnightblue" points="369.82,-75.32 380.23,-73.34 370.86,-68.39 369.82,-75.32"/>
</g>
<!-- Node20 -->
<g id="node20" class="node">
<title>Node20</title>
<g id="a_node20"><a xlink:href="_iota_message_to_transaction_task_8cpp.html" target="_top" xlink:title=" ">
<polygon fill="white" stroke="black" points="134.5,-0.5 134.5,-30.5 305.5,-30.5 305.5,-0.5 134.5,-0.5"/>
<text text-anchor="start" x="142.5" y="-18.5" font-family="Helvetica,sans-Serif" font-size="10.00">src/task/IotaMessageToTransaction</text>
<text text-anchor="middle" x="220" y="-7.5" font-family="Helvetica,sans-Serif" font-size="10.00">Task.cpp</text>
</a>
</g>
</g>
<!-- Node18&#45;&gt;Node20 -->
<g id="edge22" class="edge">
<title>Node18&#45;&gt;Node20</title>
<path fill="none" stroke="midnightblue" d="M379.77,-64.58C344.69,-54.02 300.06,-40.59 266.89,-30.61"/>
<polygon fill="midnightblue" stroke="midnightblue" points="378.81,-67.95 389.4,-67.48 380.83,-61.24 378.81,-67.95"/>
</g>
</g>
</svg>
        <g id="navigator" transform="translate(0 0)" fill="#404254">
                <rect fill="#f2f5e9" fill-opacity="0.5" stroke="#606060" stroke-width=".5" x="0" y="0" width="60" height="60"/>
                <use id="zoomplus" xlink:href="#zoomPlus" x="17" y="9" onmousedown="handleZoom(evt,'in')"/>
                <use id="zoomminus" xlink:href="#zoomMin" x="42" y="9" onmousedown="handleZoom(evt,'out')"/>
                <use id="reset" xlink:href="#resetDef" x="30" y="36" onmousedown="handleReset()"/>
                <g id="arrowUp" xlink:href="#dirArrow" transform="translate(30 24)" onmousedown="handlePan(0,-1)">
                  <use xlink:href="#rim" fill="#404040">
                        <set attributeName="fill" to="#808080" begin="arrowUp.mouseover" end="arrowUp.mouseout"/>
                  </use>
                  <path fill="none" stroke="white" stroke-width="1.5" d="M0,-3.0v7 M-2.5,-0.5L0,-3.0L2.5,-0.5"/>
                </g>
                <g id="arrowRight" xlink:href="#dirArrow" transform="rotate(90) translate(36 -43)" onmousedown="handlePan(1,0)">
                  <use xlink:href="#rim" fill="#404040">
                        <set attributeName="fill" to="#808080" begin="arrowRight.mouseover" end="arrowRight.mouseout"/>
                  </use>
                  <path fill="none" stroke="white" stroke-width="1.5" d="M0,-3.0v7 M-2.5,-0.5L0,-3.0L2.5,-0.5"/>
                </g>
                <g id="arrowDown" xlink:href="#dirArrow" transform="rotate(180) translate(-30 -48)" onmousedown="handlePan(0,1)">
                  <use xlink:href="#rim" fill="#404040">
                        <set attributeName="fill" to="#808080" begin="arrowDown.mouseover" end="arrowDown.mouseout"/>
                  </use>
                  <path fill="none" stroke="white" stroke-width="1.5" d="M0,-3.0v7 M-2.5,-0.5L0,-3.0L2.5,-0.5"/>
                </g>
                <g id="arrowLeft" xlink:href="#dirArrow" transform="rotate(270) translate(-36 17)" onmousedown="handlePan(-1,0)">
                  <use xlink:href="#rim" fill="#404040">
                        <set attributeName="fill" to="#808080" begin="arrowLeft.mouseover" end="arrowLeft.mouseout"/>
                  </use>
                  <path fill="none" stroke="white" stroke-width="1.5" d="M0,-3.0v7 M-2.5,-0.5L0,-3.0L2.5,-0.5"/>
                </g>
        </g>
        <svg viewBox="0 0 15 15" width="100%" height="30px" preserveAspectRatio="xMaxYMin meet">
         <g id="arrow_out" transform="scale(0.3 0.3)">
          <a xlink:href="model_2files_2_group_index_8h__dep__incl_org.svg" target="_base">
           <rect id="button" ry="5" rx="5" y="6" x="6" height="38" width="38"
                fill="#f2f5e9" fill-opacity="0.5" stroke="#606060" stroke-width="1.0"/>
           <path id="arrow"
             d="M 11.500037,31.436501 C 11.940474,20.09759 22.043105,11.32322 32.158766,21.979434 L 37.068811,17.246167 C 37.068811,17.246167 37.088388,32 37.088388,32 L 22.160133,31.978069 C 22.160133,31.978069 26.997745,27.140456 26.997745,27.140456 C 18.528582,18.264221 13.291696,25.230495 11.500037,31.436501 z"
             style="fill:#404040;"/>
          </a>
         </g>
        </svg>
</svg>
