<?xml version="1.0" encoding="UTF-8" standalone="no"?>
<!DOCTYPE svg PUBLIC "-//W3C//DTD SVG 1.1//EN"
 "http://www.w3.org/Graphics/SVG/1.1/DTD/svg11.dtd">
<!-- Generated by graphviz version 2.50.0 (20211204.2007)
 -->
<!-- Title: src/model/files/Block.h Pages: 1 -->
<svg width="655pt" height="162pt"
 viewBox="0.00 0.00 654.50 162.00" xmlns="http://www.w3.org/2000/svg" xmlns:xlink="http://www.w3.org/1999/xlink">
<g id="graph0" class="graph" transform="scale(1 1) rotate(0) translate(4 158)">
<title>src/model/files/Block.h</title>
<polygon fill="white" stroke="transparent" points="-4,4 -4,-158 650.5,-158 650.5,4 -4,4"/>
<!-- Node1 -->
<g id="node1" class="node">
<title>Node1</title>
<g id="a_node1"><a xlink:title=" ">
<polygon fill="#bfbfbf" stroke="black" points="243.5,-134.5 243.5,-153.5 359.5,-153.5 359.5,-134.5 243.5,-134.5"/>
<text text-anchor="middle" x="301.5" y="-141.5" font-family="Helvetica,sans-Serif" font-size="10.00">src/model/files/Block.h</text>
</a>
</g>
</g>
<!-- Node2 -->
<g id="node2" class="node">
<title>Node2</title>
<g id="a_node2"><a xlink:href="controller_2_block_8h.html" target="_top" xlink:title=" ">
<polygon fill="white" stroke="black" points="111,-73 111,-92 220,-92 220,-73 111,-73"/>
<text text-anchor="middle" x="165.5" y="-80" font-family="Helvetica,sans-Serif" font-size="10.00">src/controller/Block.h</text>
</a>
</g>
</g>
<!-- Node1&#45;&gt;Node2 -->
<g id="edge1" class="edge">
<title>Node1&#45;&gt;Node2</title>
<path fill="none" stroke="midnightblue" d="M272.53,-130.33C246.13,-118.78 207.86,-102.03 184.95,-92.01"/>
<polygon fill="midnightblue" stroke="midnightblue" points="271.45,-133.67 282.01,-134.48 274.26,-127.26 271.45,-133.67"/>
</g>
<!-- Node5 -->
<g id="node5" class="node">
<title>Node5</title>
<g id="a_node5"><a xlink:href="model_2files_2_block_8cpp.html" target="_top" xlink:title=" ">
<polygon fill="white" stroke="black" points="238.5,-73 238.5,-92 364.5,-92 364.5,-73 238.5,-73"/>
<text text-anchor="middle" x="301.5" y="-80" font-family="Helvetica,sans-Serif" font-size="10.00">src/model/files/Block.cpp</text>
</a>
</g>
</g>
<!-- Node1&#45;&gt;Node5 -->
<g id="edge4" class="edge">
<title>Node1&#45;&gt;Node5</title>
<path fill="none" stroke="midnightblue" d="M301.5,-124.32C301.5,-113.5 301.5,-100.4 301.5,-92.01"/>
<polygon fill="midnightblue" stroke="midnightblue" points="298,-124.48 301.5,-134.48 305,-124.48 298,-124.48"/>
</g>
<!-- Node6 -->
<g id="node6" class="node">
<title>Node6</title>
<g id="a_node6"><a xlink:href="_write_transactions_to_block_task_8h.html" target="_top" xlink:title=" ">
<polygon fill="white" stroke="black" points="382.5,-67.5 382.5,-97.5 516.5,-97.5 516.5,-67.5 382.5,-67.5"/>
<text text-anchor="start" x="390.5" y="-85.5" font-family="Helvetica,sans-Serif" font-size="10.00">src/task/WriteTransactions</text>
<text text-anchor="middle" x="449.5" y="-74.5" font-family="Helvetica,sans-Serif" font-size="10.00">ToBlockTask.h</text>
</a>
</g>
</g>
<!-- Node1&#45;&gt;Node6 -->
<g id="edge5" class="edge">
<title>Node1&#45;&gt;Node6</title>
<path fill="none" stroke="midnightblue" d="M332.05,-130.72C356.07,-121.06 389.55,-107.6 414.62,-97.52"/>
<polygon fill="midnightblue" stroke="midnightblue" points="330.68,-127.5 322.7,-134.48 333.29,-133.99 330.68,-127.5"/>
</g>
<!-- Node3 -->
<g id="node3" class="node">
<title>Node3</title>
<g id="a_node3"><a xlink:href="controller_2_block_8cpp.html" target="_top" xlink:title=" ">
<polygon fill="white" stroke="black" points="0,-6 0,-25 119,-25 119,-6 0,-6"/>
<text text-anchor="middle" x="59.5" y="-13" font-family="Helvetica,sans-Serif" font-size="10.00">src/controller/Block.cpp</text>
</a>
</g>
</g>
<!-- Node2&#45;&gt;Node3 -->
<g id="edge2" class="edge">
<title>Node2&#45;&gt;Node3</title>
<path fill="none" stroke="midnightblue" d="M142.58,-67.44C121.58,-54.57 91.18,-35.93 73.57,-25.13"/>
<polygon fill="midnightblue" stroke="midnightblue" points="140.85,-70.49 151.2,-72.73 144.51,-64.52 140.85,-70.49"/>
</g>
<!-- Node4 -->
<g id="node4" class="node">
<title>Node4</title>
<g id="a_node4"><a xlink:href="_group_8cpp.html" target="_top" xlink:title=" ">
<polygon fill="white" stroke="black" points="137,-6 137,-25 258,-25 258,-6 137,-6"/>
<text text-anchor="middle" x="197.5" y="-13" font-family="Helvetica,sans-Serif" font-size="10.00">src/controller/Group.cpp</text>
</a>
</g>
</g>
<!-- Node2&#45;&gt;Node4 -->
<g id="edge3" class="edge">
<title>Node2&#45;&gt;Node4</title>
<path fill="none" stroke="midnightblue" d="M174.28,-63.66C180.45,-51.13 188.44,-34.91 193.25,-25.13"/>
<polygon fill="midnightblue" stroke="midnightblue" points="171.09,-62.22 169.82,-72.73 177.37,-65.31 171.09,-62.22"/>
</g>
<!-- Node7 -->
<g id="node7" class="node">
<title>Node7</title>
<g id="a_node7"><a xlink:href="_task_observer_8cpp.html" target="_top" xlink:title=" ">
<polygon fill="white" stroke="black" points="340.5,-6 340.5,-25 494.5,-25 494.5,-6 340.5,-6"/>
<text text-anchor="middle" x="417.5" y="-13" font-family="Helvetica,sans-Serif" font-size="10.00">src/controller/TaskObserver.cpp</text>
</a>
</g>
</g>
<!-- Node6&#45;&gt;Node7 -->
<g id="edge6" class="edge">
<title>Node6&#45;&gt;Node7</title>
<path fill="none" stroke="midnightblue" d="M438.07,-58.29C432.42,-46.8 425.93,-33.63 421.78,-25.19"/>
<polygon fill="midnightblue" stroke="midnightblue" points="435,-59.97 442.56,-67.4 441.28,-56.88 435,-59.97"/>
</g>
<!-- Node8 -->
<g id="node8" class="node">
<title>Node8</title>
<g id="a_node8"><a xlink:href="_write_transactions_to_block_task_8cpp.html" target="_top" xlink:title=" ">
<polygon fill="white" stroke="black" points="512.5,-0.5 512.5,-30.5 646.5,-30.5 646.5,-0.5 512.5,-0.5"/>
<text text-anchor="start" x="520.5" y="-18.5" font-family="Helvetica,sans-Serif" font-size="10.00">src/task/WriteTransactions</text>
<text text-anchor="middle" x="579.5" y="-7.5" font-family="Helvetica,sans-Serif" font-size="10.00">ToBlockTask.cpp</text>
</a>
</g>
</g>
<!-- Node6&#45;&gt;Node8 -->
<g id="edge7" class="edge">
<title>Node6&#45;&gt;Node8</title>
<path fill="none" stroke="midnightblue" d="M486.79,-62.85C507.35,-52.58 532.45,-40.03 551.35,-30.58"/>
<polygon fill="midnightblue" stroke="midnightblue" points="485.09,-59.79 477.71,-67.4 488.22,-66.05 485.09,-59.79"/>
</g>
</g>
</svg>
