<?xml version="1.0" encoding="UTF-8" standalone="no"?>
<!DOCTYPE svg PUBLIC "-//W3C//DTD SVG 1.1//EN"
 "http://www.w3.org/Graphics/SVG/1.1/DTD/svg11.dtd">
<!-- Generated by graphviz version 2.50.0 (20211204.2007)
 -->
<!-- Title: src/model/files/AddressIndex.cpp Pages: 1 -->
<svg width="744pt" height="218pt"
 viewBox="0.00 0.00 743.50 218.00" xmlns="http://www.w3.org/2000/svg" xmlns:xlink="http://www.w3.org/1999/xlink">
<g id="graph0" class="graph" transform="scale(1 1) rotate(0) translate(4 214)">
<title>src/model/files/AddressIndex.cpp</title>
<polygon fill="white" stroke="transparent" points="-4,4 -4,-214 739.5,-214 739.5,4 -4,4"/>
<!-- Node1 -->
<g id="node1" class="node">
<title>Node1</title>
<g id="a_node1"><a xlink:title=" ">
<polygon fill="#bfbfbf" stroke="black" points="336,-190.5 336,-209.5 497,-209.5 497,-190.5 336,-190.5"/>
<text text-anchor="middle" x="416.5" y="-197.5" font-family="Helvetica,sans-Serif" font-size="10.00">src/model/files/AddressIndex.cpp</text>
</a>
</g>
</g>
<!-- Node2 -->
<g id="node2" class="node">
<title>Node2</title>
<g id="a_node2"><a xlink:href="model_2files_2_address_index_8h.html" target="_top" xlink:title=" ">
<polygon fill="white" stroke="black" points="223.5,-129 223.5,-148 307.5,-148 307.5,-129 223.5,-129"/>
<text text-anchor="middle" x="265.5" y="-136" font-family="Helvetica,sans-Serif" font-size="10.00">AddressIndex.h</text>
</a>
</g>
</g>
<!-- Node1&#45;&gt;Node2 -->
<g id="edge1" class="edge">
<title>Node1&#45;&gt;Node2</title>
<path fill="none" stroke="midnightblue" d="M394.87,-190.48C369.08,-180.31 325.79,-163.26 296.46,-151.7"/>
<polygon fill="midnightblue" stroke="midnightblue" points="297.68,-148.42 287.09,-148.01 295.12,-154.93 297.68,-148.42"/>
</g>
<!-- Node9 -->
<g id="node9" class="node">
<title>Node9</title>
<g id="a_node9"><a xlink:title=" ">
<polygon fill="white" stroke="#bfbfbf" points="334,-62 334,-81 369,-81 369,-62 334,-62"/>
<text text-anchor="middle" x="351.5" y="-69" font-family="Helvetica,sans-Serif" font-size="10.00">map</text>
</a>
</g>
</g>
<!-- Node1&#45;&gt;Node9 -->
<g id="edge12" class="edge">
<title>Node1&#45;&gt;Node9</title>
<path fill="none" stroke="midnightblue" d="M401.28,-190.39C388.97,-182.56 372.28,-169.83 363.5,-154 352.79,-134.69 350.63,-109.04 350.61,-91.71"/>
<polygon fill="midnightblue" stroke="midnightblue" points="354.12,-91.3 350.85,-81.22 347.12,-91.14 354.12,-91.3"/>
</g>
<!-- Node10 -->
<g id="node10" class="node">
<title>Node10</title>
<g id="a_node10"><a xlink:href="_file_exceptions_8h.html" target="_top" xlink:title=" ">
<polygon fill="white" stroke="black" points="372,-129 372,-148 461,-148 461,-129 372,-129"/>
<text text-anchor="middle" x="416.5" y="-136" font-family="Helvetica,sans-Serif" font-size="10.00">FileExceptions.h</text>
</a>
</g>
</g>
<!-- Node1&#45;&gt;Node10 -->
<g id="edge9" class="edge">
<title>Node1&#45;&gt;Node10</title>
<path fill="none" stroke="midnightblue" d="M416.5,-190.48C416.5,-182.08 416.5,-168.98 416.5,-158.16"/>
<polygon fill="midnightblue" stroke="midnightblue" points="420,-158.01 416.5,-148.01 413,-158.01 420,-158.01"/>
</g>
<!-- Node12 -->
<g id="node12" class="node">
<title>Node12</title>
<g id="a_node12"><a xlink:title=" ">
<polygon fill="white" stroke="#bfbfbf" points="479.5,-129 479.5,-148 535.5,-148 535.5,-129 479.5,-129"/>
<text text-anchor="middle" x="507.5" y="-136" font-family="Helvetica,sans-Serif" font-size="10.00">sodium.h</text>
</a>
</g>
</g>
<!-- Node1&#45;&gt;Node12 -->
<g id="edge11" class="edge">
<title>Node1&#45;&gt;Node12</title>
<path fill="none" stroke="midnightblue" d="M429.54,-190.48C444.27,-180.84 468.47,-165.02 486.01,-153.55"/>
<polygon fill="midnightblue" stroke="midnightblue" points="488.03,-156.41 494.49,-148.01 484.2,-150.55 488.03,-156.41"/>
</g>
<!-- Node13 -->
<g id="node13" class="node">
<title>Node13</title>
<g id="a_node13"><a xlink:title=" ">
<polygon fill="white" stroke="#bfbfbf" points="553.5,-129 553.5,-148 619.5,-148 619.5,-129 553.5,-129"/>
<text text-anchor="middle" x="586.5" y="-136" font-family="Helvetica,sans-Serif" font-size="10.00">Poco/File.h</text>
</a>
</g>
</g>
<!-- Node1&#45;&gt;Node13 -->
<g id="edge13" class="edge">
<title>Node1&#45;&gt;Node13</title>
<path fill="none" stroke="midnightblue" d="M440.86,-190.48C470.14,-180.22 519.47,-162.96 552.5,-151.4"/>
<polygon fill="midnightblue" stroke="midnightblue" points="553.91,-154.62 562.19,-148.01 551.59,-148.01 553.91,-154.62"/>
</g>
<!-- Node14 -->
<g id="node14" class="node">
<title>Node14</title>
<g id="a_node14"><a xlink:title=" ">
<polygon fill="white" stroke="#bfbfbf" points="637.5,-129 637.5,-148 735.5,-148 735.5,-129 637.5,-129"/>
<text text-anchor="middle" x="686.5" y="-136" font-family="Helvetica,sans-Serif" font-size="10.00">Poco/FileStream.h</text>
</a>
</g>
</g>
<!-- Node1&#45;&gt;Node14 -->
<g id="edge14" class="edge">
<title>Node1&#45;&gt;Node14</title>
<path fill="none" stroke="midnightblue" d="M458.83,-190.48C501.7,-181.74 569.84,-167.55 628.5,-154 633.24,-152.9 638.2,-151.72 643.12,-150.52"/>
<polygon fill="midnightblue" stroke="midnightblue" points="644.25,-153.85 653.12,-148.06 642.57,-147.06 644.25,-153.85"/>
</g>
<!-- Node15 -->
<g id="node15" class="node">
<title>Node15</title>
<g id="a_node15"><a xlink:href="_file_lock_manager_8h.html" target="_top" xlink:title=" ">
<polygon fill="white" stroke="black" points="18,-123.5 18,-153.5 131,-153.5 131,-123.5 18,-123.5"/>
<text text-anchor="start" x="26" y="-141.5" font-family="Helvetica,sans-Serif" font-size="10.00">../../SingletonManager</text>
<text text-anchor="middle" x="74.5" y="-130.5" font-family="Helvetica,sans-Serif" font-size="10.00">/FileLockManager.h</text>
</a>
</g>
</g>
<!-- Node1&#45;&gt;Node15 -->
<g id="edge15" class="edge">
<title>Node1&#45;&gt;Node15</title>
<path fill="none" stroke="midnightblue" d="M367.5,-190.48C308.03,-180.13 207.49,-162.64 141.05,-151.08"/>
<polygon fill="midnightblue" stroke="midnightblue" points="141.55,-147.61 131.1,-149.35 140.35,-154.51 141.55,-147.61"/>
</g>
<!-- Node3 -->
<g id="node3" class="node">
<title>Node3</title>
<g id="a_node3"><a xlink:href="_file_base_8h.html" target="_top" xlink:title=" ">
<polygon fill="white" stroke="black" points="134,-62 134,-81 197,-81 197,-62 134,-62"/>
<text text-anchor="middle" x="165.5" y="-69" font-family="Helvetica,sans-Serif" font-size="10.00">FileBase.h</text>
</a>
</g>
</g>
<!-- Node2&#45;&gt;Node3 -->
<g id="edge2" class="edge">
<title>Node2&#45;&gt;Node3</title>
<path fill="none" stroke="midnightblue" d="M252.01,-128.73C235.45,-117.96 207.12,-99.55 187.41,-86.74"/>
<polygon fill="midnightblue" stroke="midnightblue" points="189.06,-83.64 178.77,-81.13 185.25,-89.51 189.06,-83.64"/>
</g>
<!-- Node7 -->
<g id="node7" class="node">
<title>Node7</title>
<g id="a_node7"><a xlink:title=" ">
<polygon fill="white" stroke="#bfbfbf" points="215,-56.5 215,-86.5 316,-86.5 316,-56.5 215,-56.5"/>
<text text-anchor="start" x="223" y="-74.5" font-family="Helvetica,sans-Serif" font-size="10.00">gradido_blockchain</text>
<text text-anchor="middle" x="265.5" y="-63.5" font-family="Helvetica,sans-Serif" font-size="10.00">/MemoryManager.h</text>
</a>
</g>
</g>
<!-- Node2&#45;&gt;Node7 -->
<g id="edge6" class="edge">
<title>Node2&#45;&gt;Node7</title>
<path fill="none" stroke="midnightblue" d="M265.5,-128.73C265.5,-120.54 265.5,-107.92 265.5,-96.71"/>
<polygon fill="midnightblue" stroke="midnightblue" points="269,-96.59 265.5,-86.59 262,-96.59 269,-96.59"/>
</g>
<!-- Node8 -->
<g id="node8" class="node">
<title>Node8</title>
<g id="a_node8"><a xlink:title=" ">
<polygon fill="white" stroke="#bfbfbf" points="33,-62 33,-81 116,-81 116,-62 33,-62"/>
<text text-anchor="middle" x="74.5" y="-69" font-family="Helvetica,sans-Serif" font-size="10.00">unordered_map</text>
</a>
</g>
</g>
<!-- Node2&#45;&gt;Node8 -->
<g id="edge7" class="edge">
<title>Node2&#45;&gt;Node8</title>
<path fill="none" stroke="midnightblue" d="M240.14,-128.87C206.51,-117.42 147.02,-97.18 109.24,-84.32"/>
<polygon fill="midnightblue" stroke="midnightblue" points="110.26,-80.97 99.66,-81.06 108,-87.6 110.26,-80.97"/>
</g>
<!-- Node2&#45;&gt;Node9 -->
<g id="edge8" class="edge">
<title>Node2&#45;&gt;Node9</title>
<path fill="none" stroke="midnightblue" d="M277.1,-128.73C291.15,-118.11 315.05,-100.05 331.97,-87.26"/>
<polygon fill="midnightblue" stroke="midnightblue" points="334.22,-89.95 340.09,-81.13 330,-84.36 334.22,-89.95"/>
</g>
<!-- Node4 -->
<g id="node4" class="node">
<title>Node4</title>
<g id="a_node4"><a xlink:title=" ">
<polygon fill="white" stroke="#bfbfbf" points="112,-0.5 112,-19.5 183,-19.5 183,-0.5 112,-0.5"/>
<text text-anchor="middle" x="147.5" y="-7.5" font-family="Helvetica,sans-Serif" font-size="10.00">Poco/Path.h</text>
</a>
</g>
</g>
<!-- Node3&#45;&gt;Node4 -->
<g id="edge3" class="edge">
<title>Node3&#45;&gt;Node4</title>
<path fill="none" stroke="midnightblue" d="M162.92,-61.98C160.35,-53.49 156.33,-40.2 153.04,-29.32"/>
<polygon fill="midnightblue" stroke="midnightblue" points="156.32,-28.07 150.07,-19.51 149.62,-30.09 156.32,-28.07"/>
</g>
<!-- Node5 -->
<g id="node5" class="node">
<title>Node5</title>
<g id="a_node5"><a xlink:title=" ">
<polygon fill="white" stroke="#bfbfbf" points="0,-0.5 0,-19.5 77,-19.5 77,-0.5 0,-0.5"/>
<text text-anchor="middle" x="38.5" y="-7.5" font-family="Helvetica,sans-Serif" font-size="10.00">Poco/Mutex.h</text>
</a>
</g>
</g>
<!-- Node3&#45;&gt;Node5 -->
<g id="edge4" class="edge">
<title>Node3&#45;&gt;Node5</title>
<path fill="none" stroke="midnightblue" d="M147.3,-61.98C125.99,-51.99 90.47,-35.35 65.84,-23.81"/>
<polygon fill="midnightblue" stroke="midnightblue" points="67.2,-20.58 56.66,-19.51 64.23,-26.92 67.2,-20.58"/>
</g>
<!-- Node6 -->
<g id="node6" class="node">
<title>Node6</title>
<g id="a_node6"><a xlink:title=" ">
<polygon fill="white" stroke="#bfbfbf" points="201,-0.5 201,-19.5 330,-19.5 330,-0.5 201,-0.5"/>
<text text-anchor="middle" x="265.5" y="-7.5" font-family="Helvetica,sans-Serif" font-size="10.00">Poco/RefCountedObject.h</text>
</a>
</g>
</g>
<!-- Node3&#45;&gt;Node6 -->
<g id="edge5" class="edge">
<title>Node3&#45;&gt;Node6</title>
<path fill="none" stroke="midnightblue" d="M179.83,-61.98C196.16,-52.25 223.1,-36.23 242.41,-24.74"/>
<polygon fill="midnightblue" stroke="midnightblue" points="244.39,-27.63 251.2,-19.51 240.82,-21.61 244.39,-27.63"/>
</g>
<!-- Node11 -->
<g id="node11" class="node">
<title>Node11</title>
<g id="a_node11"><a xlink:title=" ">
<polygon fill="white" stroke="#bfbfbf" points="387,-56.5 387,-86.5 540,-86.5 540,-56.5 387,-56.5"/>
<text text-anchor="start" x="395" y="-74.5" font-family="Helvetica,sans-Serif" font-size="10.00">gradido_blockchain</text>
<text text-anchor="middle" x="463.5" y="-63.5" font-family="Helvetica,sans-Serif" font-size="10.00">/GradidoBlockchainException.h</text>
</a>
</g>
</g>
<!-- Node10&#45;&gt;Node11 -->
<g id="edge10" class="edge">
<title>Node10&#45;&gt;Node11</title>
<path fill="none" stroke="midnightblue" d="M422.84,-128.73C429.07,-120.12 438.84,-106.61 447.24,-94.99"/>
<polygon fill="midnightblue" stroke="midnightblue" points="450.29,-96.74 453.31,-86.59 444.62,-92.64 450.29,-96.74"/>
</g>
<!-- Node15&#45;&gt;Node5 -->
<g id="edge17" class="edge">
<title>Node15&#45;&gt;Node5</title>
<path fill="none" stroke="midnightblue" d="M53.87,-123.5C42.59,-114.54 29.69,-101.84 23.5,-87 15.6,-68.06 22.45,-44.7 29.27,-28.92"/>
<polygon fill="midnightblue" stroke="midnightblue" points="32.48,-30.3 33.59,-19.76 26.15,-27.31 32.48,-30.3"/>
</g>
<!-- Node15&#45;&gt;Node8 -->
<g id="edge16" class="edge">
<title>Node15&#45;&gt;Node8</title>
<path fill="none" stroke="midnightblue" d="M74.5,-123.4C74.5,-114.06 74.5,-101.71 74.5,-91.52"/>
<polygon fill="midnightblue" stroke="midnightblue" points="78,-91.19 74.5,-81.19 71,-91.19 78,-91.19"/>
</g>
</g>
</svg>
