<?xml version="1.0" encoding="UTF-8" standalone="no"?>
<!DOCTYPE svg PUBLIC "-//W3C//DTD SVG 1.1//EN"
 "http://www.w3.org/Graphics/SVG/1.1/DTD/svg11.dtd">
<!-- Generated by graphviz version 2.50.0 (20211204.2007)
 -->
<!-- Title: src/model/files/BlockIndex.h Pages: 1 -->
<svg width="746pt" height="151pt"
 viewBox="0.00 0.00 746.00 151.00" xmlns="http://www.w3.org/2000/svg" xmlns:xlink="http://www.w3.org/1999/xlink">
<g id="graph0" class="graph" transform="scale(1 1) rotate(0) translate(4 147)">
<title>src/model/files/BlockIndex.h</title>
<polygon fill="white" stroke="transparent" points="-4,4 -4,-147 742,-147 742,4 -4,4"/>
<!-- Node1 -->
<g id="node1" class="node">
<title>Node1</title>
<g id="a_node1"><a xlink:title=" ">
<polygon fill="#bfbfbf" stroke="black" points="473,-123.5 473,-142.5 612,-142.5 612,-123.5 473,-123.5"/>
<text text-anchor="middle" x="542.5" y="-130.5" font-family="Helvetica,sans-Serif" font-size="10.00">src/model/files/BlockIndex.h</text>
</a>
</g>
</g>
<!-- Node2 -->
<g id="node2" class="node">
<title>Node2</title>
<g id="a_node2"><a xlink:href="_file_base_8h.html" target="_top" xlink:title=" ">
<polygon fill="white" stroke="black" points="157,-67.5 157,-86.5 220,-86.5 220,-67.5 157,-67.5"/>
<text text-anchor="middle" x="188.5" y="-74.5" font-family="Helvetica,sans-Serif" font-size="10.00">FileBase.h</text>
</a>
</g>
</g>
<!-- Node1&#45;&gt;Node2 -->
<g id="edge1" class="edge">
<title>Node1&#45;&gt;Node2</title>
<path fill="none" stroke="midnightblue" d="M486.41,-123.44C415.12,-112.57 293.72,-94.05 230.14,-84.35"/>
<polygon fill="midnightblue" stroke="midnightblue" points="230.49,-80.86 220.07,-82.82 229.43,-87.78 230.49,-80.86"/>
</g>
<!-- Node6 -->
<g id="node6" class="node">
<title>Node6</title>
<g id="a_node6"><a xlink:href="_virtual_file_8h.html" target="_top" xlink:title=" ">
<polygon fill="white" stroke="black" points="332,-67.5 332,-86.5 431,-86.5 431,-67.5 332,-67.5"/>
<text text-anchor="middle" x="381.5" y="-74.5" font-family="Helvetica,sans-Serif" font-size="10.00">../../lib/VirtualFile.h</text>
</a>
</g>
</g>
<!-- Node1&#45;&gt;Node6 -->
<g id="edge5" class="edge">
<title>Node1&#45;&gt;Node6</title>
<path fill="none" stroke="midnightblue" d="M516.99,-123.44C489.9,-114.36 446.91,-99.94 416.63,-89.78"/>
<polygon fill="midnightblue" stroke="midnightblue" points="417.49,-86.38 406.89,-86.52 415.26,-93.01 417.49,-86.38"/>
</g>
<!-- Node9 -->
<g id="node9" class="node">
<title>Node9</title>
<g id="a_node9"><a xlink:title=" ">
<polygon fill="white" stroke="#bfbfbf" points="449.5,-67.5 449.5,-86.5 543.5,-86.5 543.5,-67.5 449.5,-67.5"/>
<text text-anchor="middle" x="496.5" y="-74.5" font-family="Helvetica,sans-Serif" font-size="10.00">Poco/SharedPtr.h</text>
</a>
</g>
</g>
<!-- Node1&#45;&gt;Node9 -->
<g id="edge8" class="edge">
<title>Node1&#45;&gt;Node9</title>
<path fill="none" stroke="midnightblue" d="M534.9,-123.08C528.27,-115.3 518.48,-103.8 510.44,-94.37"/>
<polygon fill="midnightblue" stroke="midnightblue" points="513.1,-92.09 503.95,-86.75 507.77,-96.63 513.1,-92.09"/>
</g>
<!-- Node10 -->
<g id="node10" class="node">
<title>Node10</title>
<g id="a_node10"><a xlink:title=" ">
<polygon fill="white" stroke="#bfbfbf" points="561.5,-67.5 561.5,-86.5 617.5,-86.5 617.5,-67.5 561.5,-67.5"/>
<text text-anchor="middle" x="589.5" y="-74.5" font-family="Helvetica,sans-Serif" font-size="10.00">sodium.h</text>
</a>
</g>
</g>
<!-- Node1&#45;&gt;Node10 -->
<g id="edge9" class="edge">
<title>Node1&#45;&gt;Node10</title>
<path fill="none" stroke="midnightblue" d="M550.26,-123.08C557.04,-115.3 567.04,-103.8 575.26,-94.37"/>
<polygon fill="midnightblue" stroke="midnightblue" points="577.96,-96.59 581.88,-86.75 572.68,-92 577.96,-96.59"/>
</g>
<!-- Node11 -->
<g id="node11" class="node">
<title>Node11</title>
<g id="a_node11"><a xlink:title=" ">
<polygon fill="white" stroke="#bfbfbf" points="636,-67.5 636,-86.5 679,-86.5 679,-67.5 636,-67.5"/>
<text text-anchor="middle" x="657.5" y="-74.5" font-family="Helvetica,sans-Serif" font-size="10.00">queue</text>
</a>
</g>
</g>
<!-- Node1&#45;&gt;Node11 -->
<g id="edge10" class="edge">
<title>Node1&#45;&gt;Node11</title>
<path fill="none" stroke="midnightblue" d="M560.72,-123.44C579.4,-114.68 608.66,-100.94 630.12,-90.86"/>
<polygon fill="midnightblue" stroke="midnightblue" points="631.8,-93.93 639.36,-86.52 628.82,-87.6 631.8,-93.93"/>
</g>
<!-- Node12 -->
<g id="node12" class="node">
<title>Node12</title>
<g id="a_node12"><a xlink:title=" ">
<polygon fill="white" stroke="#bfbfbf" points="697,-67.5 697,-86.5 738,-86.5 738,-67.5 697,-67.5"/>
<text text-anchor="middle" x="717.5" y="-74.5" font-family="Helvetica,sans-Serif" font-size="10.00">string</text>
</a>
</g>
</g>
<!-- Node1&#45;&gt;Node12 -->
<g id="edge11" class="edge">
<title>Node1&#45;&gt;Node12</title>
<path fill="none" stroke="midnightblue" d="M570.22,-123.47C597.7,-115.02 641.25,-101.61 687.35,-87.35"/>
<polygon fill="midnightblue" stroke="midnightblue" points="688.39,-90.69 696.91,-84.4 686.32,-84.01 688.39,-90.69"/>
</g>
<!-- Node3 -->
<g id="node3" class="node">
<title>Node3</title>
<g id="a_node3"><a xlink:title=" ">
<polygon fill="white" stroke="#bfbfbf" points="0,-6 0,-25 71,-25 71,-6 0,-6"/>
<text text-anchor="middle" x="35.5" y="-13" font-family="Helvetica,sans-Serif" font-size="10.00">Poco/Path.h</text>
</a>
</g>
</g>
<!-- Node2&#45;&gt;Node3 -->
<g id="edge2" class="edge">
<title>Node2&#45;&gt;Node3</title>
<path fill="none" stroke="midnightblue" d="M166.58,-67.48C140.45,-57.31 96.59,-40.26 66.87,-28.7"/>
<polygon fill="midnightblue" stroke="midnightblue" points="67.97,-25.37 57.38,-25.01 65.43,-31.9 67.97,-25.37"/>
</g>
<!-- Node4 -->
<g id="node4" class="node">
<title>Node4</title>
<g id="a_node4"><a xlink:title=" ">
<polygon fill="white" stroke="#bfbfbf" points="89,-6 89,-25 166,-25 166,-6 89,-6"/>
<text text-anchor="middle" x="127.5" y="-13" font-family="Helvetica,sans-Serif" font-size="10.00">Poco/Mutex.h</text>
</a>
</g>
</g>
<!-- Node2&#45;&gt;Node4 -->
<g id="edge3" class="edge">
<title>Node2&#45;&gt;Node4</title>
<path fill="none" stroke="midnightblue" d="M179.76,-67.48C170.34,-58.28 155.14,-43.46 143.55,-32.16"/>
<polygon fill="midnightblue" stroke="midnightblue" points="145.83,-29.49 136.22,-25.01 140.94,-34.5 145.83,-29.49"/>
</g>
<!-- Node5 -->
<g id="node5" class="node">
<title>Node5</title>
<g id="a_node5"><a xlink:title=" ">
<polygon fill="white" stroke="#bfbfbf" points="184,-6 184,-25 313,-25 313,-6 184,-6"/>
<text text-anchor="middle" x="248.5" y="-13" font-family="Helvetica,sans-Serif" font-size="10.00">Poco/RefCountedObject.h</text>
</a>
</g>
</g>
<!-- Node2&#45;&gt;Node5 -->
<g id="edge4" class="edge">
<title>Node2&#45;&gt;Node5</title>
<path fill="none" stroke="midnightblue" d="M197.1,-67.48C206.36,-58.28 221.32,-43.46 232.71,-32.16"/>
<polygon fill="midnightblue" stroke="midnightblue" points="235.28,-34.54 239.92,-25.01 230.35,-29.57 235.28,-34.54"/>
</g>
<!-- Node7 -->
<g id="node7" class="node">
<title>Node7</title>
<g id="a_node7"><a xlink:title=" ">
<polygon fill="white" stroke="#bfbfbf" points="331,-0.5 331,-30.5 432,-30.5 432,-0.5 331,-0.5"/>
<text text-anchor="start" x="339" y="-18.5" font-family="Helvetica,sans-Serif" font-size="10.00">gradido_blockchain</text>
<text text-anchor="middle" x="381.5" y="-7.5" font-family="Helvetica,sans-Serif" font-size="10.00">/MemoryManager.h</text>
</a>
</g>
</g>
<!-- Node6&#45;&gt;Node7 -->
<g id="edge6" class="edge">
<title>Node6&#45;&gt;Node7</title>
<path fill="none" stroke="midnightblue" d="M381.5,-67.48C381.5,-60.47 381.5,-50.19 381.5,-40.7"/>
<polygon fill="midnightblue" stroke="midnightblue" points="385,-40.52 381.5,-30.52 378,-40.52 385,-40.52"/>
</g>
<!-- Node8 -->
<g id="node8" class="node">
<title>Node8</title>
<g id="a_node8"><a xlink:title=" ">
<polygon fill="white" stroke="#bfbfbf" points="450.5,-6 450.5,-25 502.5,-25 502.5,-6 450.5,-6"/>
<text text-anchor="middle" x="476.5" y="-13" font-family="Helvetica,sans-Serif" font-size="10.00">assert.h</text>
</a>
</g>
</g>
<!-- Node6&#45;&gt;Node8 -->
<g id="edge7" class="edge">
<title>Node6&#45;&gt;Node8</title>
<path fill="none" stroke="midnightblue" d="M395.11,-67.48C410.56,-57.8 435.99,-41.87 454.32,-30.39"/>
<polygon fill="midnightblue" stroke="midnightblue" points="456.3,-33.28 462.91,-25.01 452.58,-27.35 456.3,-33.28"/>
</g>
</g>
</svg>
