<?xml version="1.0" encoding="UTF-8" standalone="no"?>
<!DOCTYPE svg PUBLIC "-//W3C//DTD SVG 1.1//EN"
 "http://www.w3.org/Graphics/SVG/1.1/DTD/svg11.dtd">
<!-- Generated by graphviz version 2.50.0 (20211204.2007)
 -->
<!-- Title: src/model/files/Block.h Pages: 1 -->
<svg width="853pt" height="151pt"
 viewBox="0.00 0.00 852.50 151.00" xmlns="http://www.w3.org/2000/svg" xmlns:xlink="http://www.w3.org/1999/xlink">
<g id="graph0" class="graph" transform="scale(1 1) rotate(0) translate(4 147)">
<title>src/model/files/Block.h</title>
<polygon fill="white" stroke="transparent" points="-4,4 -4,-147 848.5,-147 848.5,4 -4,4"/>
<!-- Node1 -->
<g id="node1" class="node">
<title>Node1</title>
<g id="a_node1"><a xlink:title=" ">
<polygon fill="#bfbfbf" stroke="black" points="328.5,-123.5 328.5,-142.5 444.5,-142.5 444.5,-123.5 328.5,-123.5"/>
<text text-anchor="middle" x="386.5" y="-130.5" font-family="Helvetica,sans-Serif" font-size="10.00">src/model/files/Block.h</text>
</a>
</g>
</g>
<!-- Node2 -->
<g id="node2" class="node">
<title>Node2</title>
<g id="a_node2"><a xlink:href="_file_base_8h.html" target="_top" xlink:title=" ">
<polygon fill="white" stroke="black" points="88,-62 88,-81 151,-81 151,-62 88,-62"/>
<text text-anchor="middle" x="119.5" y="-69" font-family="Helvetica,sans-Serif" font-size="10.00">FileBase.h</text>
</a>
</g>
</g>
<!-- Node1&#45;&gt;Node2 -->
<g id="edge1" class="edge">
<title>Node1&#45;&gt;Node2</title>
<path fill="none" stroke="midnightblue" d="M332.11,-123.42C286.01,-115.62 218.36,-102.9 160.5,-87 157.54,-86.19 154.48,-85.26 151.44,-84.29"/>
<polygon fill="midnightblue" stroke="midnightblue" points="152.47,-80.94 141.87,-81.06 150.23,-87.58 152.47,-80.94"/>
</g>
<!-- Node3 -->
<g id="node3" class="node">
<title>Node3</title>
<g id="a_node3"><a xlink:title=" ">
<polygon fill="white" stroke="#bfbfbf" points="0,-0.5 0,-19.5 71,-19.5 71,-0.5 0,-0.5"/>
<text text-anchor="middle" x="35.5" y="-7.5" font-family="Helvetica,sans-Serif" font-size="10.00">Poco/Path.h</text>
</a>
</g>
</g>
<!-- Node1&#45;&gt;Node3 -->
<g id="edge5" class="edge">
<title>Node1&#45;&gt;Node3</title>
<path fill="none" stroke="midnightblue" d="M328.21,-129.53C250.46,-125.22 118.01,-114.06 78.5,-87 58.52,-73.32 46.73,-47.12 40.69,-29.35"/>
<polygon fill="midnightblue" stroke="midnightblue" points="44.03,-28.3 37.72,-19.79 37.35,-30.38 44.03,-28.3"/>
</g>
<!-- Node6 -->
<g id="node6" class="node">
<title>Node6</title>
<g id="a_node6"><a xlink:title=" ">
<polygon fill="white" stroke="#bfbfbf" points="169.5,-62 169.5,-81 267.5,-81 267.5,-62 169.5,-62"/>
<text text-anchor="middle" x="218.5" y="-69" font-family="Helvetica,sans-Serif" font-size="10.00">Poco/FileStream.h</text>
</a>
</g>
</g>
<!-- Node1&#45;&gt;Node6 -->
<g id="edge6" class="edge">
<title>Node1&#45;&gt;Node6</title>
<path fill="none" stroke="midnightblue" d="M362.43,-123.48C333.49,-113.22 284.74,-95.96 252.1,-84.4"/>
<polygon fill="midnightblue" stroke="midnightblue" points="253.12,-81.05 242.53,-81.01 250.78,-87.65 253.12,-81.05"/>
</g>
<!-- Node7 -->
<g id="node7" class="node">
<title>Node7</title>
<g id="a_node7"><a xlink:title=" ">
<polygon fill="white" stroke="#bfbfbf" points="285.5,-62 285.5,-81 383.5,-81 383.5,-62 285.5,-62"/>
<text text-anchor="middle" x="334.5" y="-69" font-family="Helvetica,sans-Serif" font-size="10.00">Poco/Timestamp.h</text>
</a>
</g>
</g>
<!-- Node1&#45;&gt;Node7 -->
<g id="edge7" class="edge">
<title>Node1&#45;&gt;Node7</title>
<path fill="none" stroke="midnightblue" d="M379.05,-123.48C371.17,-114.46 358.56,-100.02 348.76,-88.81"/>
<polygon fill="midnightblue" stroke="midnightblue" points="351.15,-86.24 341.94,-81.01 345.88,-90.84 351.15,-86.24"/>
</g>
<!-- Node8 -->
<g id="node8" class="node">
<title>Node8</title>
<g id="a_node8"><a xlink:title=" ">
<polygon fill="white" stroke="#bfbfbf" points="401.5,-62 401.5,-81 475.5,-81 475.5,-62 401.5,-62"/>
<text text-anchor="middle" x="438.5" y="-69" font-family="Helvetica,sans-Serif" font-size="10.00">Poco/Timer.h</text>
</a>
</g>
</g>
<!-- Node1&#45;&gt;Node8 -->
<g id="edge8" class="edge">
<title>Node1&#45;&gt;Node8</title>
<path fill="none" stroke="midnightblue" d="M393.95,-123.48C401.83,-114.46 414.44,-100.02 424.24,-88.81"/>
<polygon fill="midnightblue" stroke="midnightblue" points="427.12,-90.84 431.06,-81.01 421.85,-86.24 427.12,-90.84"/>
</g>
<!-- Node9 -->
<g id="node9" class="node">
<title>Node9</title>
<g id="a_node9"><a xlink:title=" ">
<polygon fill="white" stroke="#bfbfbf" points="494,-56.5 494,-86.5 595,-86.5 595,-56.5 494,-56.5"/>
<text text-anchor="start" x="502" y="-74.5" font-family="Helvetica,sans-Serif" font-size="10.00">gradido_blockchain</text>
<text text-anchor="middle" x="544.5" y="-63.5" font-family="Helvetica,sans-Serif" font-size="10.00">/MemoryManager.h</text>
</a>
</g>
</g>
<!-- Node1&#45;&gt;Node9 -->
<g id="edge9" class="edge">
<title>Node1&#45;&gt;Node9</title>
<path fill="none" stroke="midnightblue" d="M409.14,-123.48C432.14,-114.81 468.43,-101.15 497.65,-90.14"/>
<polygon fill="midnightblue" stroke="midnightblue" points="499.14,-93.32 507.26,-86.52 496.67,-86.77 499.14,-93.32"/>
</g>
<!-- Node10 -->
<g id="node10" class="node">
<title>Node10</title>
<g id="a_node10"><a xlink:href="_fuzzy_timer_8h.html" target="_top" xlink:title=" ">
<polygon fill="white" stroke="black" points="613,-62 613,-81 720,-81 720,-62 613,-62"/>
<text text-anchor="middle" x="666.5" y="-69" font-family="Helvetica,sans-Serif" font-size="10.00">../../lib/FuzzyTimer.h</text>
</a>
</g>
</g>
<!-- Node1&#45;&gt;Node10 -->
<g id="edge10" class="edge">
<title>Node1&#45;&gt;Node10</title>
<path fill="none" stroke="midnightblue" d="M429.59,-123.45C473.62,-114.64 543.92,-100.33 604.5,-87 609.83,-85.83 615.41,-84.57 620.95,-83.3"/>
<polygon fill="midnightblue" stroke="midnightblue" points="621.85,-86.68 630.8,-81.02 620.27,-79.86 621.85,-86.68"/>
</g>
<!-- Node11 -->
<g id="node11" class="node">
<title>Node11</title>
<g id="a_node11"><a xlink:href="_c_p_u_task_8h.html" target="_top" xlink:title=" ">
<polygon fill="white" stroke="black" points="738.5,-62 738.5,-81 844.5,-81 844.5,-62 738.5,-62"/>
<text text-anchor="middle" x="791.5" y="-69" font-family="Helvetica,sans-Serif" font-size="10.00">../../task/CPUTask.h</text>
</a>
</g>
</g>
<!-- Node1&#45;&gt;Node11 -->
<g id="edge11" class="edge">
<title>Node1&#45;&gt;Node11</title>
<path fill="none" stroke="midnightblue" d="M444.73,-126.14C513.19,-118.85 630.09,-105.1 729.5,-87 735.42,-85.92 741.63,-84.65 747.73,-83.31"/>
<polygon fill="midnightblue" stroke="midnightblue" points="748.86,-86.64 757.84,-81.01 747.31,-79.81 748.86,-86.64"/>
</g>
<!-- Node2&#45;&gt;Node3 -->
<g id="edge2" class="edge">
<title>Node2&#45;&gt;Node3</title>
<path fill="none" stroke="midnightblue" d="M107.46,-61.98C93.99,-52.43 71.93,-36.81 55.78,-25.37"/>
<polygon fill="midnightblue" stroke="midnightblue" points="57.7,-22.43 47.51,-19.51 53.65,-28.15 57.7,-22.43"/>
</g>
<!-- Node4 -->
<g id="node4" class="node">
<title>Node4</title>
<g id="a_node4"><a xlink:title=" ">
<polygon fill="white" stroke="#bfbfbf" points="89,-0.5 89,-19.5 166,-19.5 166,-0.5 89,-0.5"/>
<text text-anchor="middle" x="127.5" y="-7.5" font-family="Helvetica,sans-Serif" font-size="10.00">Poco/Mutex.h</text>
</a>
</g>
</g>
<!-- Node2&#45;&gt;Node4 -->
<g id="edge3" class="edge">
<title>Node2&#45;&gt;Node4</title>
<path fill="none" stroke="midnightblue" d="M120.65,-61.98C121.77,-53.58 123.54,-40.48 124.99,-29.66"/>
<polygon fill="midnightblue" stroke="midnightblue" points="128.49,-29.89 126.36,-19.51 121.55,-28.95 128.49,-29.89"/>
</g>
<!-- Node5 -->
<g id="node5" class="node">
<title>Node5</title>
<g id="a_node5"><a xlink:title=" ">
<polygon fill="white" stroke="#bfbfbf" points="184,-0.5 184,-19.5 313,-19.5 313,-0.5 184,-0.5"/>
<text text-anchor="middle" x="248.5" y="-7.5" font-family="Helvetica,sans-Serif" font-size="10.00">Poco/RefCountedObject.h</text>
</a>
</g>
</g>
<!-- Node2&#45;&gt;Node5 -->
<g id="edge4" class="edge">
<title>Node2&#45;&gt;Node5</title>
<path fill="none" stroke="midnightblue" d="M137.98,-61.98C159.63,-51.99 195.71,-35.35 220.73,-23.81"/>
<polygon fill="midnightblue" stroke="midnightblue" points="222.44,-26.88 230.05,-19.51 219.51,-20.52 222.44,-26.88"/>
</g>
</g>
</svg>
