<?xml version="1.0" encoding="UTF-8" standalone="no"?>
<!DOCTYPE svg PUBLIC "-//W3C//DTD SVG 1.1//EN"
 "http://www.w3.org/Graphics/SVG/1.1/DTD/svg11.dtd">
<!-- Generated by graphviz version 2.50.0 (20211204.2007)
 -->
<!-- Title: src/model/files/BlockIndex.cpp Pages: 1 -->
<svg width="2013pt" height="419pt"
 viewBox="0.00 0.00 2012.96 419.00" xmlns="http://www.w3.org/2000/svg" xmlns:xlink="http://www.w3.org/1999/xlink">
<g id="graph0" class="graph" transform="scale(1 1) rotate(0) translate(4 415)">
<title>src/model/files/BlockIndex.cpp</title>
<polygon fill="white" stroke="transparent" points="-4,4 -4,-415 2008.96,-415 2008.96,4 -4,4"/>
<!-- Node1 -->
<g id="node1" class="node">
<title>Node1</title>
<g id="a_node1"><a xlink:title=" ">
<polygon fill="#bfbfbf" stroke="black" points="624.5,-391.5 624.5,-410.5 773.5,-410.5 773.5,-391.5 624.5,-391.5"/>
<text text-anchor="middle" x="699" y="-398.5" font-family="Helvetica,sans-Serif" font-size="10.00">src/model/files/BlockIndex.cpp</text>
</a>
</g>
</g>
<!-- Node2 -->
<g id="node2" class="node">
<title>Node2</title>
<g id="a_node2"><a xlink:href="model_2files_2_block_index_8h.html" target="_top" xlink:title=" ">
<polygon fill="white" stroke="black" points="177.5,-129 177.5,-148 250.5,-148 250.5,-129 177.5,-129"/>
<text text-anchor="middle" x="214" y="-136" font-family="Helvetica,sans-Serif" font-size="10.00">BlockIndex.h</text>
</a>
</g>
</g>
<!-- Node1&#45;&gt;Node2 -->
<g id="edge1" class="edge">
<title>Node1&#45;&gt;Node2</title>
<path fill="none" stroke="midnightblue" d="M624.37,-395.53C520,-385.03 332.25,-349.85 234,-232 216.59,-211.12 213.33,-178.59 213.2,-158.2"/>
<polygon fill="midnightblue" stroke="midnightblue" points="216.71,-158.08 213.39,-148.01 209.71,-157.95 216.71,-158.08"/>
</g>
<!-- Node14 -->
<g id="node14" class="node">
<title>Node14</title>
<g id="a_node14"><a xlink:title=" ">
<polygon fill="white" stroke="#bfbfbf" points="902,-330 902,-349 968,-349 968,-330 902,-330"/>
<text text-anchor="middle" x="935" y="-337" font-family="Helvetica,sans-Serif" font-size="10.00">Poco/File.h</text>
</a>
</g>
</g>
<!-- Node1&#45;&gt;Node14 -->
<g id="edge13" class="edge">
<title>Node1&#45;&gt;Node14</title>
<path fill="none" stroke="midnightblue" d="M741.71,-391.43C781.24,-383.19 841.5,-369.82 893,-355 895.94,-354.15 898.99,-353.22 902.02,-352.25"/>
<polygon fill="midnightblue" stroke="midnightblue" points="903.21,-355.54 911.59,-349.07 901,-348.9 903.21,-355.54"/>
</g>
<!-- Node15 -->
<g id="node15" class="node">
<title>Node15</title>
<g id="a_node15"><a xlink:href="_transaction_entry_8h.html" target="_top" xlink:title=" ">
<polygon fill="white" stroke="black" points="645.5,-330 645.5,-349 752.5,-349 752.5,-330 645.5,-330"/>
<text text-anchor="middle" x="699" y="-337" font-family="Helvetica,sans-Serif" font-size="10.00">../TransactionEntry.h</text>
</a>
</g>
</g>
<!-- Node1&#45;&gt;Node15 -->
<g id="edge14" class="edge">
<title>Node1&#45;&gt;Node15</title>
<path fill="none" stroke="midnightblue" d="M699,-391.48C699,-383.08 699,-369.98 699,-359.16"/>
<polygon fill="midnightblue" stroke="midnightblue" points="702.5,-359.01 699,-349.01 695.5,-359.01 702.5,-359.01"/>
</g>
<!-- Node25 -->
<g id="node25" class="node">
<title>Node25</title>
<g id="a_node25"><a xlink:href="controller_2_block_index_8h.html" target="_top" xlink:title=" ">
<polygon fill="white" stroke="black" points="243.5,-201.5 243.5,-220.5 316.5,-220.5 316.5,-201.5 243.5,-201.5"/>
<text text-anchor="middle" x="280" y="-208.5" font-family="Helvetica,sans-Serif" font-size="10.00">BlockIndex.h</text>
</a>
</g>
</g>
<!-- Node1&#45;&gt;Node25 -->
<g id="edge70" class="edge">
<title>Node1&#45;&gt;Node25</title>
<path fill="none" stroke="midnightblue" d="M679.91,-391.43C612.97,-361.4 388.66,-260.76 308.65,-224.86"/>
<polygon fill="midnightblue" stroke="midnightblue" points="309.76,-221.52 299.2,-220.62 306.9,-227.9 309.76,-221.52"/>
</g>
<!-- Node45 -->
<g id="node45" class="node">
<title>Node45</title>
<g id="a_node45"><a xlink:href="_logger_manager_8h.html" target="_top" xlink:title=" ">
<polygon fill="white" stroke="black" points="770.5,-324.5 770.5,-354.5 883.5,-354.5 883.5,-324.5 770.5,-324.5"/>
<text text-anchor="start" x="778.5" y="-342.5" font-family="Helvetica,sans-Serif" font-size="10.00">../../SingletonManager</text>
<text text-anchor="middle" x="827" y="-331.5" font-family="Helvetica,sans-Serif" font-size="10.00">/LoggerManager.h</text>
</a>
</g>
</g>
<!-- Node1&#45;&gt;Node45 -->
<g id="edge71" class="edge">
<title>Node1&#45;&gt;Node45</title>
<path fill="none" stroke="midnightblue" d="M717.34,-391.48C735.57,-383 764.1,-369.74 787.5,-358.86"/>
<polygon fill="midnightblue" stroke="midnightblue" points="789.24,-361.91 796.83,-354.52 786.29,-355.56 789.24,-361.91"/>
</g>
<!-- Node3 -->
<g id="node3" class="node">
<title>Node3</title>
<g id="a_node3"><a xlink:href="_file_base_8h.html" target="_top" xlink:title=" ">
<polygon fill="white" stroke="black" points="704.5,-67.5 704.5,-86.5 767.5,-86.5 767.5,-67.5 704.5,-67.5"/>
<text text-anchor="middle" x="736" y="-74.5" font-family="Helvetica,sans-Serif" font-size="10.00">FileBase.h</text>
</a>
</g>
</g>
<!-- Node2&#45;&gt;Node3 -->
<g id="edge2" class="edge">
<title>Node2&#45;&gt;Node3</title>
<path fill="none" stroke="midnightblue" d="M250.71,-133.32C344.95,-122.57 595.03,-94.07 694.42,-82.74"/>
<polygon fill="midnightblue" stroke="midnightblue" points="694.85,-86.21 704.39,-81.6 694.06,-79.26 694.85,-86.21"/>
</g>
<!-- Node7 -->
<g id="node7" class="node">
<title>Node7</title>
<g id="a_node7"><a xlink:href="_virtual_file_8h.html" target="_top" xlink:title=" ">
<polygon fill="white" stroke="black" points="442.5,-67.5 442.5,-86.5 541.5,-86.5 541.5,-67.5 442.5,-67.5"/>
<text text-anchor="middle" x="492" y="-74.5" font-family="Helvetica,sans-Serif" font-size="10.00">../../lib/VirtualFile.h</text>
</a>
</g>
</g>
<!-- Node2&#45;&gt;Node7 -->
<g id="edge6" class="edge">
<title>Node2&#45;&gt;Node7</title>
<path fill="none" stroke="midnightblue" d="M250.63,-129.66C299.76,-119.14 387.2,-100.43 442.25,-88.65"/>
<polygon fill="midnightblue" stroke="midnightblue" points="443.09,-92.05 452.14,-86.53 441.63,-85.2 443.09,-92.05"/>
</g>
<!-- Node10 -->
<g id="node10" class="node">
<title>Node10</title>
<g id="a_node10"><a xlink:title=" ">
<polygon fill="white" stroke="#bfbfbf" points="195,-67.5 195,-86.5 289,-86.5 289,-67.5 195,-67.5"/>
<text text-anchor="middle" x="242" y="-74.5" font-family="Helvetica,sans-Serif" font-size="10.00">Poco/SharedPtr.h</text>
</a>
</g>
</g>
<!-- Node2&#45;&gt;Node10 -->
<g id="edge9" class="edge">
<title>Node2&#45;&gt;Node10</title>
<path fill="none" stroke="midnightblue" d="M218.01,-128.98C222.09,-120.32 228.52,-106.65 233.7,-95.65"/>
<polygon fill="midnightblue" stroke="midnightblue" points="236.9,-97.05 238,-86.51 230.57,-94.07 236.9,-97.05"/>
</g>
<!-- Node11 -->
<g id="node11" class="node">
<title>Node11</title>
<g id="a_node11"><a xlink:title=" ">
<polygon fill="white" stroke="#bfbfbf" points="0,-67.5 0,-86.5 56,-86.5 56,-67.5 0,-67.5"/>
<text text-anchor="middle" x="28" y="-74.5" font-family="Helvetica,sans-Serif" font-size="10.00">sodium.h</text>
</a>
</g>
</g>
<!-- Node2&#45;&gt;Node11 -->
<g id="edge10" class="edge">
<title>Node2&#45;&gt;Node11</title>
<path fill="none" stroke="midnightblue" d="M187.35,-128.98C155.03,-118.64 100.4,-101.16 64.27,-89.6"/>
<polygon fill="midnightblue" stroke="midnightblue" points="65.19,-86.22 54.6,-86.51 63.06,-92.89 65.19,-86.22"/>
</g>
<!-- Node12 -->
<g id="node12" class="node">
<title>Node12</title>
<g id="a_node12"><a xlink:title=" ">
<polygon fill="white" stroke="#bfbfbf" points="74.5,-67.5 74.5,-86.5 117.5,-86.5 117.5,-67.5 74.5,-67.5"/>
<text text-anchor="middle" x="96" y="-74.5" font-family="Helvetica,sans-Serif" font-size="10.00">queue</text>
</a>
</g>
</g>
<!-- Node2&#45;&gt;Node12 -->
<g id="edge11" class="edge">
<title>Node2&#45;&gt;Node12</title>
<path fill="none" stroke="midnightblue" d="M197.09,-128.98C177.47,-119.08 144.87,-102.64 122.01,-91.12"/>
<polygon fill="midnightblue" stroke="midnightblue" points="123.38,-87.89 112.88,-86.51 120.23,-94.14 123.38,-87.89"/>
</g>
<!-- Node13 -->
<g id="node13" class="node">
<title>Node13</title>
<g id="a_node13"><a xlink:title=" ">
<polygon fill="white" stroke="#bfbfbf" points="135.5,-67.5 135.5,-86.5 176.5,-86.5 176.5,-67.5 135.5,-67.5"/>
<text text-anchor="middle" x="156" y="-74.5" font-family="Helvetica,sans-Serif" font-size="10.00">string</text>
</a>
</g>
</g>
<!-- Node2&#45;&gt;Node13 -->
<g id="edge12" class="edge">
<title>Node2&#45;&gt;Node13</title>
<path fill="none" stroke="midnightblue" d="M205.69,-128.98C196.82,-119.87 182.55,-105.24 171.58,-93.98"/>
<polygon fill="midnightblue" stroke="midnightblue" points="173.78,-91.23 164.29,-86.51 168.77,-96.11 173.78,-91.23"/>
</g>
<!-- Node4 -->
<g id="node4" class="node">
<title>Node4</title>
<g id="a_node4"><a xlink:title=" ">
<polygon fill="white" stroke="#bfbfbf" points="376.5,-6 376.5,-25 447.5,-25 447.5,-6 376.5,-6"/>
<text text-anchor="middle" x="412" y="-13" font-family="Helvetica,sans-Serif" font-size="10.00">Poco/Path.h</text>
</a>
</g>
</g>
<!-- Node3&#45;&gt;Node4 -->
<g id="edge3" class="edge">
<title>Node3&#45;&gt;Node4</title>
<path fill="none" stroke="midnightblue" d="M704.36,-69.64C699.55,-68.72 694.65,-67.81 690,-67 586.78,-48.94 558.96,-55.14 457,-31 453.35,-30.14 449.57,-29.12 445.82,-28.03"/>
<polygon fill="midnightblue" stroke="midnightblue" points="446.68,-24.63 436.09,-25.04 444.62,-31.32 446.68,-24.63"/>
</g>
<!-- Node5 -->
<g id="node5" class="node">
<title>Node5</title>
<g id="a_node5"><a xlink:title=" ">
<polygon fill="white" stroke="#bfbfbf" points="1333.5,-6 1333.5,-25 1410.5,-25 1410.5,-6 1333.5,-6"/>
<text text-anchor="middle" x="1372" y="-13" font-family="Helvetica,sans-Serif" font-size="10.00">Poco/Mutex.h</text>
</a>
</g>
</g>
<!-- Node3&#45;&gt;Node5 -->
<g id="edge4" class="edge">
<title>Node3&#45;&gt;Node5</title>
<path fill="none" stroke="midnightblue" d="M767.54,-73.05C870.66,-63.4 1198.38,-32.74 1323.14,-21.07"/>
<polygon fill="midnightblue" stroke="midnightblue" points="1323.54,-24.55 1333.17,-20.13 1322.88,-17.58 1323.54,-24.55"/>
</g>
<!-- Node6 -->
<g id="node6" class="node">
<title>Node6</title>
<g id="a_node6"><a xlink:title=" ">
<polygon fill="white" stroke="#bfbfbf" points="646.5,-6 646.5,-25 775.5,-25 775.5,-6 646.5,-6"/>
<text text-anchor="middle" x="711" y="-13" font-family="Helvetica,sans-Serif" font-size="10.00">Poco/RefCountedObject.h</text>
</a>
</g>
</g>
<!-- Node3&#45;&gt;Node6 -->
<g id="edge5" class="edge">
<title>Node3&#45;&gt;Node6</title>
<path fill="none" stroke="midnightblue" d="M732.42,-67.48C728.82,-58.9 723.15,-45.43 718.56,-34.48"/>
<polygon fill="midnightblue" stroke="midnightblue" points="721.68,-32.87 714.58,-25.01 715.22,-35.58 721.68,-32.87"/>
</g>
<!-- Node8 -->
<g id="node8" class="node">
<title>Node8</title>
<g id="a_node8"><a xlink:title=" ">
<polygon fill="white" stroke="#bfbfbf" points="793.5,-0.5 793.5,-30.5 894.5,-30.5 894.5,-0.5 793.5,-0.5"/>
<text text-anchor="start" x="801.5" y="-18.5" font-family="Helvetica,sans-Serif" font-size="10.00">gradido_blockchain</text>
<text text-anchor="middle" x="844" y="-7.5" font-family="Helvetica,sans-Serif" font-size="10.00">/MemoryManager.h</text>
</a>
</g>
</g>
<!-- Node7&#45;&gt;Node8 -->
<g id="edge7" class="edge">
<title>Node7&#45;&gt;Node8</title>
<path fill="none" stroke="midnightblue" d="M541.75,-68.39C614.54,-57.25 744.99,-37.27 783.11,-31.02"/>
<polygon fill="midnightblue" stroke="midnightblue" points="783.95,-34.43 793.22,-29.28 782.77,-27.53 783.95,-34.43"/>
</g>
<!-- Node9 -->
<g id="node9" class="node">
<title>Node9</title>
<g id="a_node9"><a xlink:title=" ">
<polygon fill="white" stroke="#bfbfbf" points="466,-6 466,-25 518,-25 518,-6 466,-6"/>
<text text-anchor="middle" x="492" y="-13" font-family="Helvetica,sans-Serif" font-size="10.00">assert.h</text>
</a>
</g>
</g>
<!-- Node7&#45;&gt;Node9 -->
<g id="edge8" class="edge">
<title>Node7&#45;&gt;Node9</title>
<path fill="none" stroke="midnightblue" d="M492,-67.48C492,-59.08 492,-45.98 492,-35.16"/>
<polygon fill="midnightblue" stroke="midnightblue" points="495.5,-35.01 492,-25.01 488.5,-35.01 495.5,-35.01"/>
</g>
<!-- Node15&#45;&gt;Node5 -->
<g id="edge16" class="edge">
<title>Node15&#45;&gt;Node5</title>
<path fill="none" stroke="midnightblue" d="M732.19,-330C741.76,-327.78 752.25,-325.58 762,-324 1189.93,-254.79 1308.02,-317.46 1733,-232 1847.11,-209.05 1914.03,-247.76 1983,-154 2052.04,-60.14 1577.22,-27.06 1420.79,-18.78"/>
<polygon fill="midnightblue" stroke="midnightblue" points="1420.69,-15.27 1410.53,-18.25 1420.33,-22.26 1420.69,-15.27"/>
</g>
<!-- Node16 -->
<g id="node16" class="node">
<title>Node16</title>
<g id="a_node16"><a xlink:title=" ">
<polygon fill="white" stroke="#bfbfbf" points="1905.5,-268.5 1905.5,-287.5 1982.5,-287.5 1982.5,-268.5 1905.5,-268.5"/>
<text text-anchor="middle" x="1944" y="-275.5" font-family="Helvetica,sans-Serif" font-size="10.00">Poco/Types.h</text>
</a>
</g>
</g>
<!-- Node15&#45;&gt;Node16 -->
<g id="edge15" class="edge">
<title>Node15&#45;&gt;Node16</title>
<path fill="none" stroke="midnightblue" d="M730.51,-329.98C740.5,-327.62 751.65,-325.34 762,-324 1259.86,-259.39 1391.48,-338.14 1891,-288 1892.31,-287.87 1893.63,-287.73 1894.96,-287.57"/>
<polygon fill="midnightblue" stroke="midnightblue" points="1895.84,-290.98 1905.3,-286.2 1894.92,-284.04 1895.84,-290.98"/>
</g>
<!-- Node17 -->
<g id="node17" class="node">
<title>Node17</title>
<g id="a_node17"><a xlink:title=" ">
<polygon fill="white" stroke="#bfbfbf" points="541,-268.5 541,-287.5 633,-287.5 633,-268.5 541,-268.5"/>
<text text-anchor="middle" x="587" y="-275.5" font-family="Helvetica,sans-Serif" font-size="10.00">Poco/DateTime.h</text>
</a>
</g>
</g>
<!-- Node15&#45;&gt;Node17 -->
<g id="edge17" class="edge">
<title>Node15&#45;&gt;Node17</title>
<path fill="none" stroke="midnightblue" d="M682.95,-329.98C664.41,-320.12 633.66,-303.79 611.98,-292.27"/>
<polygon fill="midnightblue" stroke="midnightblue" points="613.49,-289.11 603.02,-287.51 610.21,-295.29 613.49,-289.11"/>
</g>
<!-- Node18 -->
<g id="node18" class="node">
<title>Node18</title>
<g id="a_node18"><a xlink:href="_group_8h.html" target="_top" xlink:title=" ">
<polygon fill="white" stroke="black" points="800.5,-268.5 800.5,-287.5 903.5,-287.5 903.5,-268.5 800.5,-268.5"/>
<text text-anchor="middle" x="852" y="-275.5" font-family="Helvetica,sans-Serif" font-size="10.00">../controller/Group.h</text>
</a>
</g>
</g>
<!-- Node15&#45;&gt;Node18 -->
<g id="edge18" class="edge">
<title>Node15&#45;&gt;Node18</title>
<path fill="none" stroke="midnightblue" d="M720.92,-329.98C747.05,-319.81 790.91,-302.76 820.63,-291.2"/>
<polygon fill="midnightblue" stroke="midnightblue" points="822.07,-294.4 830.12,-287.51 819.53,-287.87 822.07,-294.4"/>
</g>
<!-- Node26 -->
<g id="node26" class="node">
<title>Node26</title>
<g id="a_node26"><a xlink:title=" ">
<polygon fill="white" stroke="#bfbfbf" points="1050,-129 1050,-148 1092,-148 1092,-129 1050,-129"/>
<text text-anchor="middle" x="1071" y="-136" font-family="Helvetica,sans-Serif" font-size="10.00">vector</text>
</a>
</g>
</g>
<!-- Node15&#45;&gt;Node26 -->
<g id="edge69" class="edge">
<title>Node15&#45;&gt;Node26</title>
<path fill="none" stroke="midnightblue" d="M696.93,-329.91C691.35,-304.4 678.91,-228.46 718,-190 769.48,-139.35 971.6,-174 1041,-154 1042.88,-153.46 1044.78,-152.81 1046.67,-152.09"/>
<polygon fill="midnightblue" stroke="midnightblue" points="1048.08,-155.29 1055.83,-148.06 1045.26,-148.88 1048.08,-155.29"/>
</g>
<!-- Node32 -->
<g id="node32" class="node">
<title>Node32</title>
<g id="a_node32"><a xlink:title=" ">
<polygon fill="white" stroke="#bfbfbf" points="335,-190.5 335,-231.5 455,-231.5 455,-190.5 335,-190.5"/>
<text text-anchor="start" x="343" y="-219.5" font-family="Helvetica,sans-Serif" font-size="10.00">gradido_blockchain</text>
<text text-anchor="start" x="343" y="-208.5" font-family="Helvetica,sans-Serif" font-size="10.00">/model/protobufWrapper</text>
<text text-anchor="middle" x="395" y="-197.5" font-family="Helvetica,sans-Serif" font-size="10.00">/GradidoBlock.h</text>
</a>
</g>
</g>
<!-- Node15&#45;&gt;Node32 -->
<g id="edge68" class="edge">
<title>Node15&#45;&gt;Node32</title>
<path fill="none" stroke="midnightblue" d="M694.68,-329.97C686.56,-314.87 667.53,-283.58 642,-268 574.97,-227.08 545.39,-250.25 469,-232 467.73,-231.7 466.44,-231.38 465.15,-231.07"/>
<polygon fill="midnightblue" stroke="midnightblue" points="465.65,-227.59 455.1,-228.56 463.95,-234.38 465.65,-227.59"/>
</g>
<!-- Node18&#45;&gt;Node4 -->
<g id="edge62" class="edge">
<title>Node18&#45;&gt;Node4</title>
<path fill="none" stroke="midnightblue" d="M800.23,-275.23C714.56,-271.5 547.67,-260.71 497,-232 476.35,-220.3 483,-204.23 464,-190 429.51,-164.18 398.15,-189.67 374,-154 348.18,-115.86 379.93,-60.57 399.23,-33.17"/>
<polygon fill="midnightblue" stroke="midnightblue" points="402.12,-35.16 405.2,-25.02 396.47,-31.02 402.12,-35.16"/>
</g>
<!-- Node19 -->
<g id="node19" class="node">
<title>Node19</title>
<g id="a_node19"><a xlink:href="_controller_base_8h.html" target="_top" xlink:title=" ">
<polygon fill="white" stroke="black" points="942.5,-129 942.5,-148 1031.5,-148 1031.5,-129 942.5,-129"/>
<text text-anchor="middle" x="987" y="-136" font-family="Helvetica,sans-Serif" font-size="10.00">ControllerBase.h</text>
</a>
</g>
</g>
<!-- Node18&#45;&gt;Node19 -->
<g id="edge19" class="edge">
<title>Node18&#45;&gt;Node19</title>
<path fill="none" stroke="midnightblue" d="M903.86,-276.14C1024.61,-273.61 1316.6,-264.2 1346,-232 1422.43,-148.29 1387.31,-220.57 1041,-154 1035.95,-153.03 1030.67,-151.84 1025.48,-150.56"/>
<polygon fill="midnightblue" stroke="midnightblue" points="1026.24,-147.14 1015.69,-148.03 1024.49,-153.92 1026.24,-147.14"/>
</g>
<!-- Node20 -->
<g id="node20" class="node">
<title>Node20</title>
<g id="a_node20"><a xlink:href="controller_2_address_index_8h.html" target="_top" xlink:title=" ">
<polygon fill="white" stroke="black" points="587,-201.5 587,-220.5 671,-220.5 671,-201.5 587,-201.5"/>
<text text-anchor="middle" x="629" y="-208.5" font-family="Helvetica,sans-Serif" font-size="10.00">AddressIndex.h</text>
</a>
</g>
</g>
<!-- Node18&#45;&gt;Node20 -->
<g id="edge21" class="edge">
<title>Node18&#45;&gt;Node20</title>
<path fill="none" stroke="midnightblue" d="M822.39,-268.37C782.71,-256.8 712.19,-236.25 668.16,-223.41"/>
<polygon fill="midnightblue" stroke="midnightblue" points="668.96,-220 658.38,-220.56 667,-226.72 668.96,-220"/>
</g>
<!-- Node22 -->
<g id="node22" class="node">
<title>Node22</title>
<g id="a_node22"><a xlink:title=" ">
<polygon fill="white" stroke="#bfbfbf" points="508.5,-129 508.5,-148 647.5,-148 647.5,-129 508.5,-129"/>
<text text-anchor="middle" x="578" y="-136" font-family="Helvetica,sans-Serif" font-size="10.00">Poco/AccessExpireCache.h</text>
</a>
</g>
</g>
<!-- Node18&#45;&gt;Node22 -->
<g id="edge65" class="edge">
<title>Node18&#45;&gt;Node22</title>
<path fill="none" stroke="midnightblue" d="M800.42,-276.17C729.1,-273.81 605.97,-264.93 578,-232 560.64,-211.56 565.93,-178.43 571.7,-157.86"/>
<polygon fill="midnightblue" stroke="midnightblue" points="575.1,-158.72 574.74,-148.13 568.42,-156.64 575.1,-158.72"/>
</g>
<!-- Node18&#45;&gt;Node25 -->
<g id="edge31" class="edge">
<title>Node18&#45;&gt;Node25</title>
<path fill="none" stroke="midnightblue" d="M800.26,-274.71C685.92,-269.3 414.85,-254.47 326,-232 319.08,-230.25 311.88,-227.57 305.28,-224.74"/>
<polygon fill="midnightblue" stroke="midnightblue" points="306.7,-221.54 296.15,-220.56 303.79,-227.9 306.7,-221.54"/>
</g>
<!-- Node27 -->
<g id="node27" class="node">
<title>Node27</title>
<g id="a_node27"><a xlink:href="_task_observer_8h.html" target="_top" xlink:title=" ">
<polygon fill="white" stroke="black" points="1431,-201.5 1431,-220.5 1515,-220.5 1515,-201.5 1431,-201.5"/>
<text text-anchor="middle" x="1473" y="-208.5" font-family="Helvetica,sans-Serif" font-size="10.00">TaskObserver.h</text>
</a>
</g>
</g>
<!-- Node18&#45;&gt;Node27 -->
<g id="edge38" class="edge">
<title>Node18&#45;&gt;Node27</title>
<path fill="none" stroke="midnightblue" d="M903.68,-277.4C1003.89,-277.19 1231.07,-271.87 1417,-232 1425.85,-230.1 1435.21,-227.16 1443.69,-224.11"/>
<polygon fill="midnightblue" stroke="midnightblue" points="1445.04,-227.34 1453.16,-220.53 1442.56,-220.79 1445.04,-227.34"/>
</g>
<!-- Node28 -->
<g id="node28" class="node">
<title>Node28</title>
<g id="a_node28"><a xlink:title=" ">
<polygon fill="white" stroke="#bfbfbf" points="1110.5,-129 1110.5,-148 1193.5,-148 1193.5,-129 1110.5,-129"/>
<text text-anchor="middle" x="1152" y="-136" font-family="Helvetica,sans-Serif" font-size="10.00">Poco/AutoPtr.h</text>
</a>
</g>
</g>
<!-- Node18&#45;&gt;Node28 -->
<g id="edge63" class="edge">
<title>Node18&#45;&gt;Node28</title>
<path fill="none" stroke="midnightblue" d="M903.72,-276.44C1029.69,-274.53 1344.47,-266.35 1376,-232 1388.62,-218.25 1387.74,-204.52 1376,-190 1327.99,-130.62 1282.31,-171.57 1208,-154 1203.36,-152.9 1198.51,-151.71 1193.69,-150.5"/>
<polygon fill="midnightblue" stroke="midnightblue" points="1194.48,-147.09 1183.93,-148.02 1192.75,-153.87 1194.48,-147.09"/>
</g>
<!-- Node18&#45;&gt;Node32 -->
<g id="edge46" class="edge">
<title>Node18&#45;&gt;Node32</title>
<path fill="none" stroke="midnightblue" d="M800.21,-273.34C726.26,-267.58 586.35,-254.62 469,-232 467.71,-231.75 466.42,-231.49 465.11,-231.23"/>
<polygon fill="midnightblue" stroke="midnightblue" points="465.52,-227.73 455,-229.01 464.02,-234.57 465.52,-227.73"/>
</g>
<!-- Node33 -->
<g id="node33" class="node">
<title>Node33</title>
<g id="a_node33"><a xlink:title=" ">
<polygon fill="white" stroke="#bfbfbf" points="727,-190.5 727,-231.5 847,-231.5 847,-190.5 727,-190.5"/>
<text text-anchor="start" x="735" y="-219.5" font-family="Helvetica,sans-Serif" font-size="10.00">gradido_blockchain</text>
<text text-anchor="start" x="735" y="-208.5" font-family="Helvetica,sans-Serif" font-size="10.00">/model/protobufWrapper</text>
<text text-anchor="middle" x="787" y="-197.5" font-family="Helvetica,sans-Serif" font-size="10.00">/GradidoTransaction.h</text>
</a>
</g>
</g>
<!-- Node18&#45;&gt;Node33 -->
<g id="edge47" class="edge">
<title>Node18&#45;&gt;Node33</title>
<path fill="none" stroke="midnightblue" d="M843.23,-268.23C835.63,-260.63 824.22,-249.22 813.66,-238.66"/>
<polygon fill="midnightblue" stroke="midnightblue" points="816.09,-236.14 806.54,-231.54 811.14,-241.09 816.09,-236.14"/>
</g>
<!-- Node34 -->
<g id="node34" class="node">
<title>Node34</title>
<g id="a_node34"><a xlink:href="_state_8h.html" target="_top" xlink:title=" ">
<polygon fill="white" stroke="black" points="383.5,-129 383.5,-148 490.5,-148 490.5,-129 383.5,-129"/>
<text text-anchor="middle" x="437" y="-136" font-family="Helvetica,sans-Serif" font-size="10.00">../model/files/State.h</text>
</a>
</g>
</g>
<!-- Node18&#45;&gt;Node34 -->
<g id="edge48" class="edge">
<title>Node18&#45;&gt;Node34</title>
<path fill="none" stroke="midnightblue" d="M800.49,-276.38C740.9,-274.03 640.87,-264.93 562,-232 538.97,-222.39 484.01,-178.42 455.25,-154.73"/>
<polygon fill="midnightblue" stroke="midnightblue" points="457.17,-151.77 447.23,-148.09 452.7,-157.16 457.17,-151.77"/>
</g>
<!-- Node36 -->
<g id="node36" class="node">
<title>Node36</title>
<g id="a_node36"><a xlink:title=" ">
<polygon fill="white" stroke="#bfbfbf" points="865,-196 865,-226 969,-226 969,-196 865,-196"/>
<text text-anchor="start" x="873" y="-214" font-family="Helvetica,sans-Serif" font-size="10.00">gradido_blockchain</text>
<text text-anchor="middle" x="917" y="-203" font-family="Helvetica,sans-Serif" font-size="10.00">/http/JsonRequest.h</text>
</a>
</g>
</g>
<!-- Node18&#45;&gt;Node36 -->
<g id="edge52" class="edge">
<title>Node18&#45;&gt;Node36</title>
<path fill="none" stroke="midnightblue" d="M860.77,-268.23C869.64,-259.36 883.69,-245.31 895.53,-233.47"/>
<polygon fill="midnightblue" stroke="midnightblue" points="898.31,-235.63 902.91,-226.09 893.37,-230.69 898.31,-235.63"/>
</g>
<!-- Node37 -->
<g id="node37" class="node">
<title>Node37</title>
<g id="a_node37"><a xlink:href="_message_listener_8h.html" target="_top" xlink:title=" ">
<polygon fill="white" stroke="black" points="1596.5,-201.5 1596.5,-220.5 1723.5,-220.5 1723.5,-201.5 1596.5,-201.5"/>
<text text-anchor="middle" x="1660" y="-208.5" font-family="Helvetica,sans-Serif" font-size="10.00">../iota/MessageListener.h</text>
</a>
</g>
</g>
<!-- Node18&#45;&gt;Node37 -->
<g id="edge53" class="edge">
<title>Node18&#45;&gt;Node37</title>
<path fill="none" stroke="midnightblue" d="M903.55,-274.94C1016.3,-270.13 1293.21,-256.66 1524,-232 1548.5,-229.38 1575.35,-225.62 1598.68,-222.07"/>
<polygon fill="midnightblue" stroke="midnightblue" points="1599.43,-225.5 1608.78,-220.51 1598.36,-218.58 1599.43,-225.5"/>
</g>
<!-- Node42 -->
<g id="node42" class="node">
<title>Node42</title>
<g id="a_node42"><a xlink:title=" ">
<polygon fill="white" stroke="#bfbfbf" points="987,-201.5 987,-220.5 1053,-220.5 1053,-201.5 987,-201.5"/>
<text text-anchor="middle" x="1020" y="-208.5" font-family="Helvetica,sans-Serif" font-size="10.00">Poco/URI.h</text>
</a>
</g>
</g>
<!-- Node18&#45;&gt;Node42 -->
<g id="edge64" class="edge">
<title>Node18&#45;&gt;Node42</title>
<path fill="none" stroke="midnightblue" d="M878.36,-268.46C904.06,-259.92 944.11,-246.08 978,-232 983.22,-229.83 988.73,-227.35 993.97,-224.9"/>
<polygon fill="midnightblue" stroke="midnightblue" points="995.5,-228.04 1003.01,-220.57 992.48,-221.73 995.5,-228.04"/>
</g>
<!-- Node43 -->
<g id="node43" class="node">
<title>Node43</title>
<g id="a_node43"><a xlink:title=" ">
<polygon fill="white" stroke="#bfbfbf" points="1071,-201.5 1071,-220.5 1177,-220.5 1177,-201.5 1071,-201.5"/>
<text text-anchor="middle" x="1124" y="-208.5" font-family="Helvetica,sans-Serif" font-size="10.00">Poco/ExpireCache.h</text>
</a>
</g>
</g>
<!-- Node18&#45;&gt;Node43 -->
<g id="edge66" class="edge">
<title>Node18&#45;&gt;Node43</title>
<path fill="none" stroke="midnightblue" d="M898.2,-268.49C940.96,-260.29 1006.17,-246.95 1062,-232 1071.05,-229.58 1080.73,-226.63 1089.69,-223.75"/>
<polygon fill="midnightblue" stroke="midnightblue" points="1091.02,-227 1099.43,-220.56 1088.84,-220.35 1091.02,-227"/>
</g>
<!-- Node44 -->
<g id="node44" class="node">
<title>Node44</title>
<g id="a_node44"><a xlink:title=" ">
<polygon fill="white" stroke="#bfbfbf" points="1195.5,-196 1195.5,-226 1336.5,-226 1336.5,-196 1195.5,-196"/>
<text text-anchor="start" x="1203.5" y="-214" font-family="Helvetica,sans-Serif" font-size="10.00">gradido_blockchain</text>
<text text-anchor="middle" x="1266" y="-203" font-family="Helvetica,sans-Serif" font-size="10.00">/model/IGradidoBlockchain.h</text>
</a>
</g>
</g>
<!-- Node18&#45;&gt;Node44 -->
<g id="edge67" class="edge">
<title>Node18&#45;&gt;Node44</title>
<path fill="none" stroke="midnightblue" d="M903.78,-271.83C969.69,-264.83 1086.88,-251.01 1186,-232 1191.67,-230.91 1197.55,-229.67 1203.42,-228.35"/>
<polygon fill="midnightblue" stroke="midnightblue" points="1204.3,-231.74 1213.25,-226.07 1202.72,-224.92 1204.3,-231.74"/>
</g>
<!-- Node19&#45;&gt;Node5 -->
<g id="edge20" class="edge">
<title>Node19&#45;&gt;Node5</title>
<path fill="none" stroke="midnightblue" d="M1014.07,-128.99C1081.64,-107.76 1257.81,-52.39 1334.93,-28.15"/>
<polygon fill="midnightblue" stroke="midnightblue" points="1336.21,-31.42 1344.7,-25.08 1334.11,-24.74 1336.21,-31.42"/>
</g>
<!-- Node20&#45;&gt;Node4 -->
<g id="edge24" class="edge">
<title>Node20&#45;&gt;Node4</title>
<path fill="none" stroke="midnightblue" d="M634.92,-201.38C641.8,-190.78 652.75,-171.98 657,-154 666.12,-115.39 667.02,-92.94 637,-67 575.27,-13.66 535.96,-51.54 457,-31 453.64,-30.13 450.16,-29.15 446.7,-28.12"/>
<polygon fill="midnightblue" stroke="midnightblue" points="447.67,-24.75 437.08,-25.14 445.6,-31.44 447.67,-24.75"/>
</g>
<!-- Node20&#45;&gt;Node19 -->
<g id="edge22" class="edge">
<title>Node20&#45;&gt;Node19</title>
<path fill="none" stroke="midnightblue" d="M649.97,-201.41C660.36,-197.44 673.18,-192.96 685,-190 790.92,-163.51 820.87,-175.05 928,-154 933.43,-152.93 939.12,-151.69 944.73,-150.4"/>
<polygon fill="midnightblue" stroke="midnightblue" points="945.75,-153.75 954.66,-148.03 944.12,-146.94 945.75,-153.75"/>
</g>
<!-- Node21 -->
<g id="node21" class="node">
<title>Node21</title>
<g id="a_node21"><a xlink:title=" ">
<polygon fill="white" stroke="#bfbfbf" points="860.5,-67.5 860.5,-86.5 943.5,-86.5 943.5,-67.5 860.5,-67.5"/>
<text text-anchor="middle" x="902" y="-74.5" font-family="Helvetica,sans-Serif" font-size="10.00">unordered_map</text>
</a>
</g>
</g>
<!-- Node20&#45;&gt;Node21 -->
<g id="edge23" class="edge">
<title>Node20&#45;&gt;Node21</title>
<path fill="none" stroke="midnightblue" d="M650.85,-201.41C661.11,-197.58 673.57,-193.22 685,-190 760.17,-168.82 793.49,-199.46 857,-154 876.83,-139.81 889.38,-113.93 896.05,-96.35"/>
<polygon fill="midnightblue" stroke="midnightblue" points="899.45,-97.26 899.46,-86.66 892.84,-94.94 899.45,-97.26"/>
</g>
<!-- Node20&#45;&gt;Node22 -->
<g id="edge25" class="edge">
<title>Node20&#45;&gt;Node22</title>
<path fill="none" stroke="midnightblue" d="M622.75,-201.36C614.72,-190.26 600.6,-170.74 590.37,-156.59"/>
<polygon fill="midnightblue" stroke="midnightblue" points="593,-154.27 584.3,-148.22 587.33,-158.37 593,-154.27"/>
</g>
<!-- Node23 -->
<g id="node23" class="node">
<title>Node23</title>
<g id="a_node23"><a xlink:href="model_2files_2_address_index_8h.html" target="_top" xlink:title=" ">
<polygon fill="white" stroke="black" points="704.5,-129 704.5,-148 847.5,-148 847.5,-129 704.5,-129"/>
<text text-anchor="middle" x="776" y="-136" font-family="Helvetica,sans-Serif" font-size="10.00">../model/files/AddressIndex.h</text>
</a>
</g>
</g>
<!-- Node20&#45;&gt;Node23 -->
<g id="edge26" class="edge">
<title>Node20&#45;&gt;Node23</title>
<path fill="none" stroke="midnightblue" d="M646.73,-201.5C672.12,-189.32 719.03,-166.82 748.82,-152.54"/>
<polygon fill="midnightblue" stroke="midnightblue" points="750.7,-155.51 758.21,-148.03 747.68,-149.2 750.7,-155.51"/>
</g>
<!-- Node23&#45;&gt;Node3 -->
<g id="edge27" class="edge">
<title>Node23&#45;&gt;Node3</title>
<path fill="none" stroke="midnightblue" d="M770.27,-128.98C764.33,-120.14 754.88,-106.09 747.41,-94.98"/>
<polygon fill="midnightblue" stroke="midnightblue" points="750.2,-92.86 741.72,-86.51 744.39,-96.76 750.2,-92.86"/>
</g>
<!-- Node23&#45;&gt;Node8 -->
<g id="edge28" class="edge">
<title>Node23&#45;&gt;Node8</title>
<path fill="none" stroke="midnightblue" d="M780.89,-128.8C791.3,-110.28 815.92,-66.46 831.15,-39.36"/>
<polygon fill="midnightblue" stroke="midnightblue" points="834.26,-40.97 836.11,-30.54 828.16,-37.54 834.26,-40.97"/>
</g>
<!-- Node23&#45;&gt;Node21 -->
<g id="edge29" class="edge">
<title>Node23&#45;&gt;Node21</title>
<path fill="none" stroke="midnightblue" d="M794.05,-128.98C815.2,-118.99 850.44,-102.35 874.88,-90.81"/>
<polygon fill="midnightblue" stroke="midnightblue" points="876.43,-93.94 883.98,-86.51 873.44,-87.61 876.43,-93.94"/>
</g>
<!-- Node24 -->
<g id="node24" class="node">
<title>Node24</title>
<g id="a_node24"><a xlink:title=" ">
<polygon fill="white" stroke="#bfbfbf" points="1076.5,-67.5 1076.5,-86.5 1111.5,-86.5 1111.5,-67.5 1076.5,-67.5"/>
<text text-anchor="middle" x="1094" y="-74.5" font-family="Helvetica,sans-Serif" font-size="10.00">map</text>
</a>
</g>
</g>
<!-- Node23&#45;&gt;Node24 -->
<g id="edge30" class="edge">
<title>Node23&#45;&gt;Node24</title>
<path fill="none" stroke="midnightblue" d="M821.56,-128.98C888.54,-116.44 1011.55,-93.43 1066.37,-83.17"/>
<polygon fill="midnightblue" stroke="midnightblue" points="1067.21,-86.57 1076.39,-81.29 1065.92,-79.69 1067.21,-86.57"/>
</g>
<!-- Node25&#45;&gt;Node2 -->
<g id="edge37" class="edge">
<title>Node25&#45;&gt;Node2</title>
<path fill="none" stroke="midnightblue" d="M271.91,-201.36C261.32,-190.04 242.55,-170 229.25,-155.79"/>
<polygon fill="midnightblue" stroke="midnightblue" points="231.55,-153.12 222.16,-148.22 226.44,-157.91 231.55,-153.12"/>
</g>
<!-- Node25&#45;&gt;Node4 -->
<g id="edge35" class="edge">
<title>Node25&#45;&gt;Node4</title>
<path fill="none" stroke="midnightblue" d="M281.92,-201.42C287.53,-177.8 305.79,-110.73 341,-67 353.33,-51.68 371.45,-38.9 386.3,-30.02"/>
<polygon fill="midnightblue" stroke="midnightblue" points="388.1,-33.02 395.04,-25.02 384.62,-26.95 388.1,-33.02"/>
</g>
<!-- Node25&#45;&gt;Node10 -->
<g id="edge36" class="edge">
<title>Node25&#45;&gt;Node10</title>
<path fill="none" stroke="midnightblue" d="M278.27,-201.26C275.05,-185.47 267.7,-151.21 259,-123 256.2,-113.91 252.52,-104 249.31,-95.8"/>
<polygon fill="midnightblue" stroke="midnightblue" points="252.56,-94.49 245.58,-86.52 246.06,-97.1 252.56,-94.49"/>
</g>
<!-- Node25&#45;&gt;Node19 -->
<g id="edge32" class="edge">
<title>Node25&#45;&gt;Node19</title>
<path fill="none" stroke="midnightblue" d="M296.13,-201.35C304.74,-197.15 315.67,-192.49 326,-190 570.16,-131.04 640.23,-180.59 890,-154 903.63,-152.55 918.27,-150.58 931.95,-148.56"/>
<polygon fill="midnightblue" stroke="midnightblue" points="932.82,-151.96 942.19,-147.01 931.78,-145.04 932.82,-151.96"/>
</g>
<!-- Node25&#45;&gt;Node24 -->
<g id="edge34" class="edge">
<title>Node25&#45;&gt;Node24</title>
<path fill="none" stroke="midnightblue" d="M296.13,-201.36C304.75,-197.17 315.68,-192.51 326,-190 555.82,-134.02 626.43,-206.82 857,-154 892.96,-145.76 899.08,-134.9 934,-123 979.64,-107.45 1033.87,-93.02 1066.03,-84.88"/>
<polygon fill="midnightblue" stroke="midnightblue" points="1067.2,-88.2 1076.05,-82.37 1065.5,-81.41 1067.2,-88.2"/>
</g>
<!-- Node25&#45;&gt;Node26 -->
<g id="edge33" class="edge">
<title>Node25&#45;&gt;Node26</title>
<path fill="none" stroke="midnightblue" d="M295.69,-201.5C304.37,-197.23 315.49,-192.46 326,-190 635.79,-117.39 732.73,-232.8 1041,-154 1042.93,-153.51 1044.89,-152.88 1046.83,-152.17"/>
<polygon fill="midnightblue" stroke="midnightblue" points="1048.41,-155.3 1056.19,-148.11 1045.62,-148.88 1048.41,-155.3"/>
</g>
<!-- Node27&#45;&gt;Node5 -->
<g id="edge39" class="edge">
<title>Node27&#45;&gt;Node5</title>
<path fill="none" stroke="midnightblue" d="M1472.52,-201.45C1471.34,-185.38 1467.43,-149.88 1455,-123 1438.31,-86.91 1407.3,-51.89 1388.27,-32.36"/>
<polygon fill="midnightblue" stroke="midnightblue" points="1390.69,-29.83 1381.16,-25.21 1385.73,-34.77 1390.69,-29.83"/>
</g>
<!-- Node27&#45;&gt;Node24 -->
<g id="edge45" class="edge">
<title>Node27&#45;&gt;Node24</title>
<path fill="none" stroke="midnightblue" d="M1439.59,-201.42C1425.52,-197.84 1408.98,-193.67 1394,-190 1326.57,-173.48 1304.45,-184.33 1242,-154 1222.08,-144.33 1222.09,-134.22 1203,-123 1176.68,-107.52 1144.03,-94.8 1121.36,-86.88"/>
<polygon fill="midnightblue" stroke="midnightblue" points="1122.3,-83.51 1111.7,-83.59 1120.04,-90.13 1122.3,-83.51"/>
</g>
<!-- Node27&#45;&gt;Node26 -->
<g id="edge44" class="edge">
<title>Node27&#45;&gt;Node26</title>
<path fill="none" stroke="midnightblue" d="M1436.08,-201.43C1418.8,-197.6 1397.91,-193.24 1379,-190 1256.63,-169.07 1221.2,-188.71 1102,-154 1100.12,-153.45 1098.21,-152.8 1096.3,-152.09"/>
<polygon fill="midnightblue" stroke="midnightblue" points="1097.62,-148.85 1087.04,-148.15 1094.87,-155.29 1097.62,-148.85"/>
</g>
<!-- Node27&#45;&gt;Node28 -->
<g id="edge40" class="edge">
<title>Node27&#45;&gt;Node28</title>
<path fill="none" stroke="midnightblue" d="M1451.73,-201.43C1441.38,-197.51 1428.68,-193.07 1417,-190 1325.83,-166.06 1300.15,-173.83 1208,-154 1203.03,-152.93 1197.84,-151.72 1192.71,-150.46"/>
<polygon fill="midnightblue" stroke="midnightblue" points="1193.54,-147.06 1182.99,-148.01 1191.84,-153.85 1193.54,-147.06"/>
</g>
<!-- Node29 -->
<g id="node29" class="node">
<title>Node29</title>
<g id="a_node29"><a xlink:title=" ">
<polygon fill="white" stroke="#bfbfbf" points="1346,-123.5 1346,-153.5 1446,-153.5 1446,-123.5 1346,-123.5"/>
<text text-anchor="start" x="1354" y="-141.5" font-family="Helvetica,sans-Serif" font-size="10.00">gradido_blockchain</text>
<text text-anchor="middle" x="1396" y="-130.5" font-family="Helvetica,sans-Serif" font-size="10.00">/lib/DRHashList.h</text>
</a>
</g>
</g>
<!-- Node27&#45;&gt;Node29 -->
<g id="edge41" class="edge">
<title>Node27&#45;&gt;Node29</title>
<path fill="none" stroke="midnightblue" d="M1463.56,-201.36C1452.48,-191.21 1433.72,-174.04 1418.78,-160.36"/>
<polygon fill="midnightblue" stroke="midnightblue" points="1421.11,-157.75 1411.37,-153.58 1416.39,-162.91 1421.11,-157.75"/>
</g>
<!-- Node30 -->
<g id="node30" class="node">
<title>Node30</title>
<g id="a_node30"><a xlink:title=" ">
<polygon fill="white" stroke="#bfbfbf" points="1502,-123.5 1502,-153.5 1632,-153.5 1632,-123.5 1502,-123.5"/>
<text text-anchor="start" x="1510" y="-141.5" font-family="Helvetica,sans-Serif" font-size="10.00">gradido_blockchain</text>
<text text-anchor="middle" x="1567" y="-130.5" font-family="Helvetica,sans-Serif" font-size="10.00">/lib/MultithreadContainer.h</text>
</a>
</g>
</g>
<!-- Node27&#45;&gt;Node30 -->
<g id="edge42" class="edge">
<title>Node27&#45;&gt;Node30</title>
<path fill="none" stroke="midnightblue" d="M1484.53,-201.36C1498.3,-191.02 1521.79,-173.4 1540.19,-159.61"/>
<polygon fill="midnightblue" stroke="midnightblue" points="1542.33,-162.38 1548.23,-153.58 1538.13,-156.78 1542.33,-162.38"/>
</g>
<!-- Node31 -->
<g id="node31" class="node">
<title>Node31</title>
<g id="a_node31"><a xlink:href="_task_8h.html" target="_top" xlink:title=" ">
<polygon fill="white" stroke="black" points="1250.5,-129 1250.5,-148 1327.5,-148 1327.5,-129 1250.5,-129"/>
<text text-anchor="middle" x="1289" y="-136" font-family="Helvetica,sans-Serif" font-size="10.00">../task/Task.h</text>
</a>
</g>
</g>
<!-- Node27&#45;&gt;Node31 -->
<g id="edge43" class="edge">
<title>Node27&#45;&gt;Node31</title>
<path fill="none" stroke="midnightblue" d="M1450.81,-201.5C1418.34,-189.06 1357.74,-165.84 1320.62,-151.62"/>
<polygon fill="midnightblue" stroke="midnightblue" points="1321.86,-148.34 1311.27,-148.03 1319.36,-154.88 1321.86,-148.34"/>
</g>
<!-- Node34&#45;&gt;Node3 -->
<g id="edge49" class="edge">
<title>Node34&#45;&gt;Node3</title>
<path fill="none" stroke="midnightblue" d="M472.35,-128.96C481.05,-126.94 490.35,-124.83 499,-123 567.33,-108.53 647.21,-93.82 694.59,-85.32"/>
<polygon fill="midnightblue" stroke="midnightblue" points="695.25,-88.75 704.48,-83.55 694.02,-81.86 695.25,-88.75"/>
</g>
<!-- Node34&#45;&gt;Node4 -->
<g id="edge51" class="edge">
<title>Node34&#45;&gt;Node4</title>
<path fill="none" stroke="midnightblue" d="M435.2,-128.8C431.17,-109.26 421.31,-61.56 415.83,-35.05"/>
<polygon fill="midnightblue" stroke="midnightblue" points="419.23,-34.21 413.78,-25.12 412.38,-35.62 419.23,-34.21"/>
</g>
<!-- Node35 -->
<g id="node35" class="node">
<title>Node35</title>
<g id="a_node35"><a xlink:title=" ">
<polygon fill="white" stroke="#bfbfbf" points="560,-67.5 560,-86.5 628,-86.5 628,-67.5 560,-67.5"/>
<text text-anchor="middle" x="594" y="-74.5" font-family="Helvetica,sans-Serif" font-size="10.00">leveldb/db.h</text>
</a>
</g>
</g>
<!-- Node34&#45;&gt;Node35 -->
<g id="edge50" class="edge">
<title>Node34&#45;&gt;Node35</title>
<path fill="none" stroke="midnightblue" d="M459.49,-128.98C486.31,-118.81 531.32,-101.76 561.81,-90.2"/>
<polygon fill="midnightblue" stroke="midnightblue" points="563.44,-93.33 571.55,-86.51 560.96,-86.78 563.44,-93.33"/>
</g>
<!-- Node37&#45;&gt;Node24 -->
<g id="edge61" class="edge">
<title>Node37&#45;&gt;Node24</title>
<path fill="none" stroke="midnightblue" d="M1661.09,-201.46C1662.82,-183.77 1663.92,-143.06 1641,-123 1601.66,-88.57 1227.7,-80.1 1121.81,-78.38"/>
<polygon fill="midnightblue" stroke="midnightblue" points="1121.66,-74.88 1111.61,-78.23 1121.55,-81.88 1121.66,-74.88"/>
</g>
<!-- Node37&#45;&gt;Node26 -->
<g id="edge60" class="edge">
<title>Node37&#45;&gt;Node26</title>
<path fill="none" stroke="midnightblue" d="M1607.14,-201.46C1582,-197.6 1551.5,-193.19 1524,-190 1337.02,-168.3 1283.85,-202.63 1102,-154 1100.06,-153.48 1098.1,-152.85 1096.15,-152.14"/>
<polygon fill="midnightblue" stroke="midnightblue" points="1097.26,-148.81 1086.68,-148.14 1094.53,-155.26 1097.26,-148.81"/>
</g>
<!-- Node37&#45;&gt;Node30 -->
<g id="edge55" class="edge">
<title>Node37&#45;&gt;Node30</title>
<path fill="none" stroke="midnightblue" d="M1648.6,-201.36C1635.09,-191.12 1612.14,-173.72 1594.02,-159.98"/>
<polygon fill="midnightblue" stroke="midnightblue" points="1595.65,-156.83 1585.57,-153.58 1591.42,-162.41 1595.65,-156.83"/>
</g>
<!-- Node38 -->
<g id="node38" class="node">
<title>Node38</title>
<g id="a_node38"><a xlink:title=" ">
<polygon fill="white" stroke="#bfbfbf" points="1894,-129 1894,-148 1974,-148 1974,-129 1894,-129"/>
<text text-anchor="middle" x="1934" y="-136" font-family="Helvetica,sans-Serif" font-size="10.00">Poco/Logger.h</text>
</a>
</g>
</g>
<!-- Node37&#45;&gt;Node38 -->
<g id="edge54" class="edge">
<title>Node37&#45;&gt;Node38</title>
<path fill="none" stroke="midnightblue" d="M1696.37,-201.47C1740.96,-190.88 1818.78,-172.03 1885,-154 1888.59,-153.02 1892.32,-151.97 1896.05,-150.91"/>
<polygon fill="midnightblue" stroke="midnightblue" points="1897.19,-154.22 1905.82,-148.07 1895.24,-147.5 1897.19,-154.22"/>
</g>
<!-- Node39 -->
<g id="node39" class="node">
<title>Node39</title>
<g id="a_node39"><a xlink:href="_fuzzy_timer_8h.html" target="_top" xlink:title=" ">
<polygon fill="white" stroke="black" points="1778,-129 1778,-148 1876,-148 1876,-129 1778,-129"/>
<text text-anchor="middle" x="1827" y="-136" font-family="Helvetica,sans-Serif" font-size="10.00">../lib/FuzzyTimer.h</text>
</a>
</g>
</g>
<!-- Node37&#45;&gt;Node39 -->
<g id="edge56" class="edge">
<title>Node37&#45;&gt;Node39</title>
<path fill="none" stroke="midnightblue" d="M1680.14,-201.5C1709.36,-189.16 1763.67,-166.23 1797.43,-151.98"/>
<polygon fill="midnightblue" stroke="midnightblue" points="1798.93,-155.15 1806.78,-148.03 1796.21,-148.7 1798.93,-155.15"/>
</g>
<!-- Node40 -->
<g id="node40" class="node">
<title>Node40</title>
<g id="a_node40"><a xlink:href="_message_id_8h.html" target="_top" xlink:title=" ">
<polygon fill="white" stroke="black" points="1688,-129 1688,-148 1760,-148 1760,-129 1688,-129"/>
<text text-anchor="middle" x="1724" y="-136" font-family="Helvetica,sans-Serif" font-size="10.00">MessageId.h</text>
</a>
</g>
</g>
<!-- Node37&#45;&gt;Node40 -->
<g id="edge57" class="edge">
<title>Node37&#45;&gt;Node40</title>
<path fill="none" stroke="midnightblue" d="M1667.85,-201.36C1678.12,-190.04 1696.32,-170 1709.21,-155.79"/>
<polygon fill="midnightblue" stroke="midnightblue" points="1711.96,-157.97 1716.09,-148.22 1706.78,-153.27 1711.96,-157.97"/>
</g>
<!-- Node40&#45;&gt;Node8 -->
<g id="edge59" class="edge">
<title>Node40&#45;&gt;Node8</title>
<path fill="none" stroke="midnightblue" d="M1690.89,-128.97C1681.88,-126.83 1672.1,-124.67 1663,-123 1381.57,-71.4 1041.25,-35.53 904.85,-22.22"/>
<polygon fill="midnightblue" stroke="midnightblue" points="904.9,-18.71 894.61,-21.23 904.23,-25.68 904.9,-18.71"/>
</g>
<!-- Node41 -->
<g id="node41" class="node">
<title>Node41</title>
<g id="a_node41"><a xlink:title=" ">
<polygon fill="white" stroke="#bfbfbf" points="1699.5,-67.5 1699.5,-86.5 1748.5,-86.5 1748.5,-67.5 1699.5,-67.5"/>
<text text-anchor="middle" x="1724" y="-74.5" font-family="Helvetica,sans-Serif" font-size="10.00">cassert</text>
</a>
</g>
</g>
<!-- Node40&#45;&gt;Node41 -->
<g id="edge58" class="edge">
<title>Node40&#45;&gt;Node41</title>
<path fill="none" stroke="midnightblue" d="M1724,-128.98C1724,-120.58 1724,-107.48 1724,-96.66"/>
<polygon fill="midnightblue" stroke="midnightblue" points="1727.5,-96.51 1724,-86.51 1720.5,-96.51 1727.5,-96.51"/>
</g>
<!-- Node45&#45;&gt;Node38 -->
<g id="edge72" class="edge">
<title>Node45&#45;&gt;Node38</title>
<path fill="none" stroke="midnightblue" d="M883.77,-325.34C886.88,-324.83 889.97,-324.38 893,-324 953.62,-316.41 1949.52,-331.9 1992,-288 2028.95,-249.82 1977.88,-185.41 1950.01,-155.56"/>
<polygon fill="midnightblue" stroke="midnightblue" points="1952.31,-152.91 1942.86,-148.12 1947.26,-157.75 1952.31,-152.91"/>
</g>
</g>
</svg>
