<?xml version="1.0" encoding="UTF-8" standalone="no"?>
<!DOCTYPE svg PUBLIC "-//W3C//DTD SVG 1.1//EN"
 "http://www.w3.org/Graphics/SVG/1.1/DTD/svg11.dtd">
<!-- Generated by graphviz version 2.50.0 (20211204.2007)
 -->
<!-- Title: src/model/files/GroupIndex.cpp Pages: 1 -->
<!--zoomable 274 -->
<svg id="main" version="1.1" xmlns="http://www.w3.org/2000/svg" xmlns:xlink="http://www.w3.org/1999/xlink" xml:space="preserve" onload="init(evt)">
<style type="text/css"><![CDATA[
.edge:hover path { stroke: red; }
.edge:hover polygon { stroke: red; fill: red; }
]]></style>
<script type="text/javascript"><![CDATA[
var edges = document.getElementsByTagName('g');
if (edges && edges.length) {
  for (var i=0;i<edges.length;i++) {
    if (edges[i].id.substr(0,4)=='edge') {
      edges[i].setAttribute('class','edge');
    }
  }
}
]]></script>
        <defs>
                <circle id="rim" cx="0" cy="0" r="7"/>
                <circle id="rim2" cx="0" cy="0" r="3.5"/>
                <g id="zoomPlus">
                        <use xlink:href="#rim" fill="#404040">
                                <set attributeName="fill" to="#808080" begin="zoomplus.mouseover" end="zoomplus.mouseout"/>
                        </use>
                        <path d="M-4,0h8M0,-4v8" fill="none" stroke="white" stroke-width="1.5" pointer-events="none"/>
                </g>
                <g id="zoomMin">
                        <use xlink:href="#rim" fill="#404040">
                                <set attributeName="fill" to="#808080" begin="zoomminus.mouseover" end="zoomminus.mouseout"/>
                        </use>
                        <path d="M-4,0h8" fill="none" stroke="white" stroke-width="1.5" pointer-events="none"/>
                </g>
                <g id="dirArrow">
                        <path fill="none" stroke="white" stroke-width="1.5" d="M0,-3.0v7 M-2.5,-0.5L0,-3.0L2.5,-0.5"/>
                </g>
               <g id="resetDef">
                       <use xlink:href="#rim2" fill="#404040">
                               <set attributeName="fill" to="#808080" begin="reset.mouseover" end="reset.mouseout"/>
                       </use>
               </g>
        </defs>

<script type="text/javascript">
var viewWidth = 1244;
var viewHeight = 274;
var sectionId = 'dynsection-0';
</script>
<script xlink:href="svgpan.js"/>
<svg id="graph" class="graph">
<g id="viewport">
<title>src/model/files/GroupIndex.cpp</title>
<polygon fill="white" stroke="transparent" points="-4,4 -4,-270 1239.95,-270 1239.95,4 -4,4"/>
<!-- Node1 -->
<g id="node1" class="node">
<title>Node1</title>
<g id="a_node1"><a xlink:title=" ">
<polygon fill="#bfbfbf" stroke="black" points="839.45,-246.5 839.45,-265.5 990.45,-265.5 990.45,-246.5 839.45,-246.5"/>
<text text-anchor="middle" x="914.95" y="-253.5" font-family="Helvetica,sans-Serif" font-size="10.00">src/model/files/GroupIndex.cpp</text>
</a>
</g>
</g>
<!-- Node2 -->
<g id="node2" class="node">
<title>Node2</title>
<g id="a_node2"><a xlink:href="model_2files_2_group_index_8h.html" target="_top" xlink:title=" ">
<polygon fill="white" stroke="black" points="172.95,-62 172.95,-81 246.95,-81 246.95,-62 172.95,-62"/>
<text text-anchor="middle" x="209.95" y="-69" font-family="Helvetica,sans-Serif" font-size="10.00">GroupIndex.h</text>
</a>
</g>
</g>
<!-- Node1&#45;&gt;Node2 -->
<g id="edge1" class="edge">
<title>Node1&#45;&gt;Node2</title>
<path fill="none" stroke="midnightblue" d="M839.38,-252.3C631.72,-244.12 64.16,-216.2 9.95,-154 -35.78,-101.53 89.95,-82.3 162.54,-75.7"/>
<polygon fill="midnightblue" stroke="midnightblue" points="163.18,-79.15 172.84,-74.81 162.58,-72.18 163.18,-79.15"/>
</g>
<!-- Node4 -->
<g id="node4" class="node">
<title>Node4</title>
<g id="a_node4"><a xlink:title=" ">
<polygon fill="white" stroke="#bfbfbf" points="961.95,-190.5 961.95,-209.5 1137.95,-209.5 1137.95,-190.5 961.95,-190.5"/>
<text text-anchor="middle" x="1049.95" y="-197.5" font-family="Helvetica,sans-Serif" font-size="10.00">Poco/Util/PropertyFileConfiguration.h</text>
</a>
</g>
</g>
<!-- Node1&#45;&gt;Node4 -->
<g id="edge3" class="edge">
<title>Node1&#45;&gt;Node4</title>
<path fill="none" stroke="midnightblue" d="M936.34,-246.44C958.65,-237.52 993.85,-223.44 1019.16,-213.32"/>
<polygon fill="midnightblue" stroke="midnightblue" points="1020.67,-216.48 1028.66,-209.52 1018.07,-209.98 1020.67,-216.48"/>
</g>
<!-- Node5 -->
<g id="node5" class="node">
<title>Node5</title>
<g id="a_node5"><a xlink:href="_server_globals_8h.html" target="_top" xlink:title=" ">
<polygon fill="white" stroke="black" points="425.45,-190.5 425.45,-209.5 528.45,-209.5 528.45,-190.5 425.45,-190.5"/>
<text text-anchor="middle" x="476.95" y="-197.5" font-family="Helvetica,sans-Serif" font-size="10.00">../../ServerGlobals.h</text>
</a>
</g>
</g>
<!-- Node1&#45;&gt;Node5 -->
<g id="edge4" class="edge">
<title>Node1&#45;&gt;Node5</title>
<path fill="none" stroke="midnightblue" d="M845.55,-246.44C761,-236.02 619.46,-218.57 538.59,-208.6"/>
<polygon fill="midnightblue" stroke="midnightblue" points="538.91,-205.11 528.56,-207.36 538.05,-212.06 538.91,-205.11"/>
</g>
<!-- Node14 -->
<g id="node14" class="node">
<title>Node14</title>
<g id="a_node14"><a xlink:title=" ">
<polygon fill="white" stroke="#bfbfbf" points="719.45,-62 719.45,-81 790.45,-81 790.45,-62 719.45,-62"/>
<text text-anchor="middle" x="754.95" y="-69" font-family="Helvetica,sans-Serif" font-size="10.00">Poco/Path.h</text>
</a>
</g>
</g>
<!-- Node1&#45;&gt;Node14 -->
<g id="edge22" class="edge">
<title>Node1&#45;&gt;Node14</title>
<path fill="none" stroke="midnightblue" d="M914.84,-246.39C914.09,-223.4 908.98,-159.82 875.95,-123 856.35,-101.16 825.82,-88.51 800.32,-81.34"/>
<polygon fill="midnightblue" stroke="midnightblue" points="801.04,-77.9 790.48,-78.76 799.26,-84.68 801.04,-77.9"/>
</g>
<!-- Node18 -->
<g id="node18" class="node">
<title>Node18</title>
<g id="a_node18"><a xlink:href="_file_lock_manager_8h.html" target="_top" xlink:title=" ">
<polygon fill="white" stroke="black" points="924.45,-123.5 924.45,-153.5 1037.45,-153.5 1037.45,-123.5 924.45,-123.5"/>
<text text-anchor="start" x="932.45" y="-141.5" font-family="Helvetica,sans-Serif" font-size="10.00">../../SingletonManager</text>
<text text-anchor="middle" x="980.95" y="-130.5" font-family="Helvetica,sans-Serif" font-size="10.00">/FileLockManager.h</text>
</a>
</g>
</g>
<!-- Node1&#45;&gt;Node18 -->
<g id="edge19" class="edge">
<title>Node1&#45;&gt;Node18</title>
<path fill="none" stroke="midnightblue" d="M919.91,-246.32C930,-228.66 953.21,-188.04 967.93,-162.29"/>
<polygon fill="midnightblue" stroke="midnightblue" points="971,-163.96 972.92,-153.55 964.92,-160.49 971,-163.96"/>
</g>
<!-- Node19 -->
<g id="node19" class="node">
<title>Node19</title>
<g id="a_node19"><a xlink:title=" ">
<polygon fill="white" stroke="#bfbfbf" points="1155.95,-190.5 1155.95,-209.5 1235.95,-209.5 1235.95,-190.5 1155.95,-190.5"/>
<text text-anchor="middle" x="1195.95" y="-197.5" font-family="Helvetica,sans-Serif" font-size="10.00">Poco/Thread.h</text>
</a>
</g>
</g>
<!-- Node1&#45;&gt;Node19 -->
<g id="edge23" class="edge">
<title>Node1&#45;&gt;Node19</title>
<path fill="none" stroke="midnightblue" d="M959.47,-246.44C1010.21,-236.69 1092.94,-220.8 1145.88,-210.62"/>
<polygon fill="midnightblue" stroke="midnightblue" points="1146.57,-214.05 1155.73,-208.73 1145.25,-207.18 1146.57,-214.05"/>
</g>
<!-- Node3 -->
<g id="node3" class="node">
<title>Node3</title>
<g id="a_node3"><a xlink:title=" ">
<polygon fill="white" stroke="#bfbfbf" points="163.95,-0.5 163.95,-19.5 321.95,-19.5 321.95,-0.5 163.95,-0.5"/>
<text text-anchor="middle" x="242.95" y="-7.5" font-family="Helvetica,sans-Serif" font-size="10.00">Poco/Util/LayeredConfiguration.h</text>
</a>
</g>
</g>
<!-- Node2&#45;&gt;Node3 -->
<g id="edge2" class="edge">
<title>Node2&#45;&gt;Node3</title>
<path fill="none" stroke="midnightblue" d="M214.68,-61.98C219.53,-53.23 227.21,-39.37 233.35,-28.31"/>
<polygon fill="midnightblue" stroke="midnightblue" points="236.44,-29.95 238.23,-19.51 230.32,-26.56 236.44,-29.95"/>
</g>
<!-- Node5&#45;&gt;Node3 -->
<g id="edge5" class="edge">
<title>Node5&#45;&gt;Node3</title>
<path fill="none" stroke="midnightblue" d="M425.08,-199.01C384.68,-196.29 329.64,-186.24 293.95,-154 284.38,-145.35 259.62,-66.32 248.5,-29.6"/>
<polygon fill="midnightblue" stroke="midnightblue" points="251.75,-28.25 245.52,-19.68 245.05,-30.27 251.75,-28.25"/>
</g>
<!-- Node6 -->
<g id="node6" class="node">
<title>Node6</title>
<g id="a_node6"><a xlink:title=" ">
<polygon fill="white" stroke="#bfbfbf" points="438.45,-129 438.45,-148 515.45,-148 515.45,-129 438.45,-129"/>
<text text-anchor="middle" x="476.95" y="-136" font-family="Helvetica,sans-Serif" font-size="10.00">Poco/Types.h</text>
</a>
</g>
</g>
<!-- Node5&#45;&gt;Node6 -->
<g id="edge6" class="edge">
<title>Node5&#45;&gt;Node6</title>
<path fill="none" stroke="midnightblue" d="M476.95,-190.48C476.95,-182.08 476.95,-168.98 476.95,-158.16"/>
<polygon fill="midnightblue" stroke="midnightblue" points="480.45,-158.01 476.95,-148.01 473.45,-158.01 480.45,-158.01"/>
</g>
<!-- Node7 -->
<g id="node7" class="node">
<title>Node7</title>
<g id="a_node7"><a xlink:title=" ">
<polygon fill="white" stroke="#bfbfbf" points="533.95,-129 533.95,-148 613.95,-148 613.95,-129 533.95,-129"/>
<text text-anchor="middle" x="573.95" y="-136" font-family="Helvetica,sans-Serif" font-size="10.00">Poco/Logger.h</text>
</a>
</g>
</g>
<!-- Node5&#45;&gt;Node7 -->
<g id="edge7" class="edge">
<title>Node5&#45;&gt;Node7</title>
<path fill="none" stroke="midnightblue" d="M490.85,-190.48C506.62,-180.8 532.58,-164.87 551.3,-153.39"/>
<polygon fill="midnightblue" stroke="midnightblue" points="553.38,-156.22 560.08,-148.01 549.72,-150.25 553.38,-156.22"/>
</g>
<!-- Node8 -->
<g id="node8" class="node">
<title>Node8</title>
<g id="a_node8"><a xlink:title=" ">
<polygon fill="white" stroke="#bfbfbf" points="631.95,-129 631.95,-148 733.95,-148 733.95,-129 631.95,-129"/>
<text text-anchor="middle" x="682.95" y="-136" font-family="Helvetica,sans-Serif" font-size="10.00">Poco/Net/Context.h</text>
</a>
</g>
</g>
<!-- Node5&#45;&gt;Node8 -->
<g id="edge8" class="edge">
<title>Node5&#45;&gt;Node8</title>
<path fill="none" stroke="midnightblue" d="M506.46,-190.48C542.56,-180.05 603.8,-162.36 643.8,-150.81"/>
<polygon fill="midnightblue" stroke="midnightblue" points="644.85,-154.15 653.49,-148.01 642.91,-147.42 644.85,-154.15"/>
</g>
<!-- Node9 -->
<g id="node9" class="node">
<title>Node9</title>
<g id="a_node9"><a xlink:title=" ">
<polygon fill="white" stroke="#bfbfbf" points="752.45,-129 752.45,-148 867.45,-148 867.45,-129 752.45,-129"/>
<text text-anchor="middle" x="809.95" y="-136" font-family="Helvetica,sans-Serif" font-size="10.00">Poco/AtomicCounter.h</text>
</a>
</g>
</g>
<!-- Node5&#45;&gt;Node9 -->
<g id="edge9" class="edge">
<title>Node5&#45;&gt;Node9</title>
<path fill="none" stroke="midnightblue" d="M528.56,-190.98C582.25,-182.48 668.67,-168.31 742.95,-154 749.16,-152.8 755.68,-151.48 762.11,-150.13"/>
<polygon fill="midnightblue" stroke="midnightblue" points="763.04,-153.51 772.1,-148.01 761.59,-146.66 763.04,-153.51"/>
</g>
<!-- Node10 -->
<g id="node10" class="node">
<title>Node10</title>
<g id="a_node10"><a xlink:href="_c_p_u_sheduler_8h.html" target="_top" xlink:title=" ">
<polygon fill="white" stroke="black" points="19.45,-129 19.45,-148 124.45,-148 124.45,-129 19.45,-129"/>
<text text-anchor="middle" x="71.95" y="-136" font-family="Helvetica,sans-Serif" font-size="10.00">task/CPUSheduler.h</text>
</a>
</g>
</g>
<!-- Node5&#45;&gt;Node10 -->
<g id="edge10" class="edge">
<title>Node5&#45;&gt;Node10</title>
<path fill="none" stroke="midnightblue" d="M425.27,-193.84C357.92,-186.74 236.61,-172.69 133.95,-154 128.03,-152.92 121.82,-151.65 115.71,-150.31"/>
<polygon fill="midnightblue" stroke="midnightblue" points="116.13,-146.81 105.61,-148.01 114.58,-153.64 116.13,-146.81"/>
</g>
<!-- Node11 -->
<g id="node11" class="node">
<title>Node11</title>
<g id="a_node11"><a xlink:title=" ">
<polygon fill="white" stroke="#bfbfbf" points="142.95,-123.5 142.95,-153.5 246.95,-153.5 246.95,-123.5 142.95,-123.5"/>
<text text-anchor="start" x="150.95" y="-141.5" font-family="Helvetica,sans-Serif" font-size="10.00">gradido_blockchain</text>
<text text-anchor="middle" x="194.95" y="-130.5" font-family="Helvetica,sans-Serif" font-size="10.00">/http/JsonRequest.h</text>
</a>
</g>
</g>
<!-- Node5&#45;&gt;Node11 -->
<g id="edge11" class="edge">
<title>Node5&#45;&gt;Node11</title>
<path fill="none" stroke="midnightblue" d="M435.11,-190.42C391.57,-181.47 321.44,-166.95 260.95,-154 259.69,-153.73 258.42,-153.46 257.14,-153.18"/>
<polygon fill="midnightblue" stroke="midnightblue" points="257.69,-149.72 247.17,-151.03 256.21,-156.56 257.69,-149.72"/>
</g>
<!-- Node12 -->
<g id="node12" class="node">
<title>Node12</title>
<g id="a_node12"><a xlink:href="controller_2_group_index_8h.html" target="_top" xlink:title=" ">
<polygon fill="white" stroke="black" points="303.45,-129 303.45,-148 420.45,-148 420.45,-129 303.45,-129"/>
<text text-anchor="middle" x="361.95" y="-136" font-family="Helvetica,sans-Serif" font-size="10.00">controller/GroupIndex.h</text>
</a>
</g>
</g>
<!-- Node5&#45;&gt;Node12 -->
<g id="edge12" class="edge">
<title>Node5&#45;&gt;Node12</title>
<path fill="none" stroke="midnightblue" d="M460.47,-190.48C441.34,-180.58 409.57,-164.14 387.3,-152.62"/>
<polygon fill="midnightblue" stroke="midnightblue" points="388.88,-149.5 378.39,-148.01 385.67,-155.71 388.88,-149.5"/>
</g>
<!-- Node12&#45;&gt;Node2 -->
<g id="edge13" class="edge">
<title>Node12&#45;&gt;Node2</title>
<path fill="none" stroke="midnightblue" d="M341.76,-128.87C315.64,-117.7 269.92,-98.15 239.79,-85.26"/>
<polygon fill="midnightblue" stroke="midnightblue" points="240.79,-81.88 230.22,-81.17 238.03,-88.32 240.79,-81.88"/>
</g>
<!-- Node13 -->
<g id="node13" class="node">
<title>Node13</title>
<g id="a_node13"><a xlink:title=" ">
<polygon fill="white" stroke="#bfbfbf" points="311.95,-56.5 311.95,-86.5 411.95,-86.5 411.95,-56.5 311.95,-56.5"/>
<text text-anchor="start" x="319.95" y="-74.5" font-family="Helvetica,sans-Serif" font-size="10.00">gradido_blockchain</text>
<text text-anchor="middle" x="361.95" y="-63.5" font-family="Helvetica,sans-Serif" font-size="10.00">/lib/DRHashList.h</text>
</a>
</g>
</g>
<!-- Node12&#45;&gt;Node13 -->
<g id="edge14" class="edge">
<title>Node12&#45;&gt;Node13</title>
<path fill="none" stroke="midnightblue" d="M361.95,-128.73C361.95,-120.54 361.95,-107.92 361.95,-96.71"/>
<polygon fill="midnightblue" stroke="midnightblue" points="365.45,-96.59 361.95,-86.59 358.45,-96.59 365.45,-96.59"/>
</g>
<!-- Node12&#45;&gt;Node14 -->
<g id="edge15" class="edge">
<title>Node12&#45;&gt;Node14</title>
<path fill="none" stroke="midnightblue" d="M399.43,-128.98C409.03,-126.91 419.35,-124.78 428.95,-123 528.43,-104.55 645.86,-87.51 709.09,-78.73"/>
<polygon fill="midnightblue" stroke="midnightblue" points="709.71,-82.18 719.13,-77.34 708.75,-75.24 709.71,-82.18"/>
</g>
<!-- Node15 -->
<g id="node15" class="node">
<title>Node15</title>
<g id="a_node15"><a xlink:href="_controller_base_8h.html" target="_top" xlink:title=" ">
<polygon fill="white" stroke="black" points="551.45,-62 551.45,-81 640.45,-81 640.45,-62 551.45,-62"/>
<text text-anchor="middle" x="595.95" y="-69" font-family="Helvetica,sans-Serif" font-size="10.00">ControllerBase.h</text>
</a>
</g>
</g>
<!-- Node12&#45;&gt;Node15 -->
<g id="edge16" class="edge">
<title>Node12&#45;&gt;Node15</title>
<path fill="none" stroke="midnightblue" d="M393.02,-128.87C434.83,-117.25 509.27,-96.58 555.44,-83.75"/>
<polygon fill="midnightblue" stroke="midnightblue" points="556.42,-87.11 565.12,-81.06 554.55,-80.37 556.42,-87.11"/>
</g>
<!-- Node17 -->
<g id="node17" class="node">
<title>Node17</title>
<g id="a_node17"><a xlink:title=" ">
<polygon fill="white" stroke="#bfbfbf" points="838.45,-62 838.45,-81 921.45,-81 921.45,-62 838.45,-62"/>
<text text-anchor="middle" x="879.95" y="-69" font-family="Helvetica,sans-Serif" font-size="10.00">unordered_map</text>
</a>
</g>
</g>
<!-- Node12&#45;&gt;Node17 -->
<g id="edge18" class="edge">
<title>Node12&#45;&gt;Node17</title>
<path fill="none" stroke="midnightblue" d="M397.62,-128.98C407.7,-126.79 418.72,-124.6 428.95,-123 592.19,-97.48 635.28,-109.58 798.95,-87 808.51,-85.68 818.66,-84.05 828.43,-82.36"/>
<polygon fill="midnightblue" stroke="midnightblue" points="829.19,-85.78 838.43,-80.59 827.97,-78.89 829.19,-85.78"/>
</g>
<!-- Node16 -->
<g id="node16" class="node">
<title>Node16</title>
<g id="a_node16"><a xlink:title=" ">
<polygon fill="white" stroke="#bfbfbf" points="741.45,-0.5 741.45,-19.5 818.45,-19.5 818.45,-0.5 741.45,-0.5"/>
<text text-anchor="middle" x="779.95" y="-7.5" font-family="Helvetica,sans-Serif" font-size="10.00">Poco/Mutex.h</text>
</a>
</g>
</g>
<!-- Node15&#45;&gt;Node16 -->
<g id="edge17" class="edge">
<title>Node15&#45;&gt;Node16</title>
<path fill="none" stroke="midnightblue" d="M622.31,-61.98C654.28,-51.64 708.32,-34.16 744.07,-22.6"/>
<polygon fill="midnightblue" stroke="midnightblue" points="745.2,-25.92 753.63,-19.51 743.04,-19.26 745.2,-25.92"/>
</g>
<!-- Node18&#45;&gt;Node16 -->
<g id="edge21" class="edge">
<title>Node18&#45;&gt;Node16</title>
<path fill="none" stroke="midnightblue" d="M975.71,-123.19C968.3,-104.93 953.04,-73.61 929.95,-56 900.49,-33.54 859.9,-22.24 828.37,-16.58"/>
<polygon fill="midnightblue" stroke="midnightblue" points="828.91,-13.12 818.48,-14.94 827.77,-20.03 828.91,-13.12"/>
</g>
<!-- Node18&#45;&gt;Node17 -->
<g id="edge20" class="edge">
<title>Node18&#45;&gt;Node17</title>
<path fill="none" stroke="midnightblue" d="M959.03,-123.4C942.09,-112.5 918.76,-97.48 901.83,-86.58"/>
<polygon fill="midnightblue" stroke="midnightblue" points="903.47,-83.48 893.17,-81.01 899.68,-89.36 903.47,-83.48"/>
</g>
</g>
</svg>
        <g id="navigator" transform="translate(0 0)" fill="#404254">
                <rect fill="#f2f5e9" fill-opacity="0.5" stroke="#606060" stroke-width=".5" x="0" y="0" width="60" height="60"/>
                <use id="zoomplus" xlink:href="#zoomPlus" x="17" y="9" onmousedown="handleZoom(evt,'in')"/>
                <use id="zoomminus" xlink:href="#zoomMin" x="42" y="9" onmousedown="handleZoom(evt,'out')"/>
                <use id="reset" xlink:href="#resetDef" x="30" y="36" onmousedown="handleReset()"/>
                <g id="arrowUp" xlink:href="#dirArrow" transform="translate(30 24)" onmousedown="handlePan(0,-1)">
                  <use xlink:href="#rim" fill="#404040">
                        <set attributeName="fill" to="#808080" begin="arrowUp.mouseover" end="arrowUp.mouseout"/>
                  </use>
                  <path fill="none" stroke="white" stroke-width="1.5" d="M0,-3.0v7 M-2.5,-0.5L0,-3.0L2.5,-0.5"/>
                </g>
                <g id="arrowRight" xlink:href="#dirArrow" transform="rotate(90) translate(36 -43)" onmousedown="handlePan(1,0)">
                  <use xlink:href="#rim" fill="#404040">
                        <set attributeName="fill" to="#808080" begin="arrowRight.mouseover" end="arrowRight.mouseout"/>
                  </use>
                  <path fill="none" stroke="white" stroke-width="1.5" d="M0,-3.0v7 M-2.5,-0.5L0,-3.0L2.5,-0.5"/>
                </g>
                <g id="arrowDown" xlink:href="#dirArrow" transform="rotate(180) translate(-30 -48)" onmousedown="handlePan(0,1)">
                  <use xlink:href="#rim" fill="#404040">
                        <set attributeName="fill" to="#808080" begin="arrowDown.mouseover" end="arrowDown.mouseout"/>
                  </use>
                  <path fill="none" stroke="white" stroke-width="1.5" d="M0,-3.0v7 M-2.5,-0.5L0,-3.0L2.5,-0.5"/>
                </g>
                <g id="arrowLeft" xlink:href="#dirArrow" transform="rotate(270) translate(-36 17)" onmousedown="handlePan(-1,0)">
                  <use xlink:href="#rim" fill="#404040">
                        <set attributeName="fill" to="#808080" begin="arrowLeft.mouseover" end="arrowLeft.mouseout"/>
                  </use>
                  <path fill="none" stroke="white" stroke-width="1.5" d="M0,-3.0v7 M-2.5,-0.5L0,-3.0L2.5,-0.5"/>
                </g>
        </g>
        <svg viewBox="0 0 15 15" width="100%" height="30px" preserveAspectRatio="xMaxYMin meet">
         <g id="arrow_out" transform="scale(0.3 0.3)">
          <a xlink:href="model_2files_2_group_index_8cpp__incl_org.svg" target="_base">
           <rect id="button" ry="5" rx="5" y="6" x="6" height="38" width="38"
                fill="#f2f5e9" fill-opacity="0.5" stroke="#606060" stroke-width="1.0"/>
           <path id="arrow"
             d="M 11.500037,31.436501 C 11.940474,20.09759 22.043105,11.32322 32.158766,21.979434 L 37.068811,17.246167 C 37.068811,17.246167 37.088388,32 37.088388,32 L 22.160133,31.978069 C 22.160133,31.978069 26.997745,27.140456 26.997745,27.140456 C 18.528582,18.264221 13.291696,25.230495 11.500037,31.436501 z"
             style="fill:#404040;"/>
          </a>
         </g>
        </svg>
</svg>
