<?xml version="1.0" encoding="UTF-8" standalone="no"?>
<!DOCTYPE svg PUBLIC "-//W3C//DTD SVG 1.1//EN"
 "http://www.w3.org/Graphics/SVG/1.1/DTD/svg11.dtd">
<!-- Generated by graphviz version 2.50.0 (20211204.2007)
 -->
<!-- Title: src/model/files/AddressIndex.h Pages: 1 -->
<svg width="440pt" height="151pt"
 viewBox="0.00 0.00 440.00 151.00" xmlns="http://www.w3.org/2000/svg" xmlns:xlink="http://www.w3.org/1999/xlink">
<g id="graph0" class="graph" transform="scale(1 1) rotate(0) translate(4 147)">
<title>src/model/files/AddressIndex.h</title>
<polygon fill="white" stroke="transparent" points="-4,4 -4,-147 436,-147 436,4 -4,4"/>
<!-- Node1 -->
<g id="node1" class="node">
<title>Node1</title>
<g id="a_node1"><a xlink:title=" ">
<polygon fill="#bfbfbf" stroke="black" points="207.5,-123.5 207.5,-142.5 357.5,-142.5 357.5,-123.5 207.5,-123.5"/>
<text text-anchor="middle" x="282.5" y="-130.5" font-family="Helvetica,sans-Serif" font-size="10.00">src/model/files/AddressIndex.h</text>
</a>
</g>
</g>
<!-- Node2 -->
<g id="node2" class="node">
<title>Node2</title>
<g id="a_node2"><a xlink:href="_file_base_8h.html" target="_top" xlink:title=" ">
<polygon fill="white" stroke="black" points="96,-62 96,-81 159,-81 159,-62 96,-62"/>
<text text-anchor="middle" x="127.5" y="-69" font-family="Helvetica,sans-Serif" font-size="10.00">FileBase.h</text>
</a>
</g>
</g>
<!-- Node1&#45;&gt;Node2 -->
<g id="edge1" class="edge">
<title>Node1&#45;&gt;Node2</title>
<path fill="none" stroke="midnightblue" d="M260.29,-123.48C233.82,-113.31 189.39,-96.26 159.28,-84.7"/>
<polygon fill="midnightblue" stroke="midnightblue" points="160.26,-81.33 149.67,-81.01 157.75,-87.86 160.26,-81.33"/>
</g>
<!-- Node6 -->
<g id="node6" class="node">
<title>Node6</title>
<g id="a_node6"><a xlink:title=" ">
<polygon fill="white" stroke="#bfbfbf" points="177,-56.5 177,-86.5 278,-86.5 278,-56.5 177,-56.5"/>
<text text-anchor="start" x="185" y="-74.5" font-family="Helvetica,sans-Serif" font-size="10.00">gradido_blockchain</text>
<text text-anchor="middle" x="227.5" y="-63.5" font-family="Helvetica,sans-Serif" font-size="10.00">/MemoryManager.h</text>
</a>
</g>
</g>
<!-- Node1&#45;&gt;Node6 -->
<g id="edge5" class="edge">
<title>Node1&#45;&gt;Node6</title>
<path fill="none" stroke="midnightblue" d="M274.62,-123.48C267.52,-115.79 256.78,-104.17 247.34,-93.96"/>
<polygon fill="midnightblue" stroke="midnightblue" points="249.82,-91.49 240.46,-86.52 244.68,-96.24 249.82,-91.49"/>
</g>
<!-- Node7 -->
<g id="node7" class="node">
<title>Node7</title>
<g id="a_node7"><a xlink:title=" ">
<polygon fill="white" stroke="#bfbfbf" points="296,-62 296,-81 379,-81 379,-62 296,-62"/>
<text text-anchor="middle" x="337.5" y="-69" font-family="Helvetica,sans-Serif" font-size="10.00">unordered_map</text>
</a>
</g>
</g>
<!-- Node1&#45;&gt;Node7 -->
<g id="edge6" class="edge">
<title>Node1&#45;&gt;Node7</title>
<path fill="none" stroke="midnightblue" d="M290.38,-123.48C298.79,-114.37 312.32,-99.74 322.73,-88.48"/>
<polygon fill="midnightblue" stroke="midnightblue" points="325.42,-90.73 329.63,-81.01 320.28,-85.98 325.42,-90.73"/>
</g>
<!-- Node8 -->
<g id="node8" class="node">
<title>Node8</title>
<g id="a_node8"><a xlink:title=" ">
<polygon fill="white" stroke="#bfbfbf" points="397,-62 397,-81 432,-81 432,-62 397,-62"/>
<text text-anchor="middle" x="414.5" y="-69" font-family="Helvetica,sans-Serif" font-size="10.00">map</text>
</a>
</g>
</g>
<!-- Node1&#45;&gt;Node8 -->
<g id="edge7" class="edge">
<title>Node1&#45;&gt;Node8</title>
<path fill="none" stroke="midnightblue" d="M304.73,-123.37C326.4,-114.77 360.13,-100.88 388.5,-87 389.31,-86.6 390.14,-86.19 390.96,-85.77"/>
<polygon fill="midnightblue" stroke="midnightblue" points="392.62,-88.85 399.8,-81.06 389.33,-82.68 392.62,-88.85"/>
</g>
<!-- Node3 -->
<g id="node3" class="node">
<title>Node3</title>
<g id="a_node3"><a xlink:title=" ">
<polygon fill="white" stroke="#bfbfbf" points="0,-0.5 0,-19.5 71,-19.5 71,-0.5 0,-0.5"/>
<text text-anchor="middle" x="35.5" y="-7.5" font-family="Helvetica,sans-Serif" font-size="10.00">Poco/Path.h</text>
</a>
</g>
</g>
<!-- Node2&#45;&gt;Node3 -->
<g id="edge2" class="edge">
<title>Node2&#45;&gt;Node3</title>
<path fill="none" stroke="midnightblue" d="M114.32,-61.98C99.43,-52.34 74.96,-36.52 57.23,-25.05"/>
<polygon fill="midnightblue" stroke="midnightblue" points="58.95,-22 48.66,-19.51 55.15,-27.88 58.95,-22"/>
</g>
<!-- Node4 -->
<g id="node4" class="node">
<title>Node4</title>
<g id="a_node4"><a xlink:title=" ">
<polygon fill="white" stroke="#bfbfbf" points="89,-0.5 89,-19.5 166,-19.5 166,-0.5 89,-0.5"/>
<text text-anchor="middle" x="127.5" y="-7.5" font-family="Helvetica,sans-Serif" font-size="10.00">Poco/Mutex.h</text>
</a>
</g>
</g>
<!-- Node2&#45;&gt;Node4 -->
<g id="edge3" class="edge">
<title>Node2&#45;&gt;Node4</title>
<path fill="none" stroke="midnightblue" d="M127.5,-61.98C127.5,-53.58 127.5,-40.48 127.5,-29.66"/>
<polygon fill="midnightblue" stroke="midnightblue" points="131,-29.51 127.5,-19.51 124,-29.51 131,-29.51"/>
</g>
<!-- Node5 -->
<g id="node5" class="node">
<title>Node5</title>
<g id="a_node5"><a xlink:title=" ">
<polygon fill="white" stroke="#bfbfbf" points="184,-0.5 184,-19.5 313,-19.5 313,-0.5 184,-0.5"/>
<text text-anchor="middle" x="248.5" y="-7.5" font-family="Helvetica,sans-Serif" font-size="10.00">Poco/RefCountedObject.h</text>
</a>
</g>
</g>
<!-- Node2&#45;&gt;Node5 -->
<g id="edge4" class="edge">
<title>Node2&#45;&gt;Node5</title>
<path fill="none" stroke="midnightblue" d="M144.84,-61.98C165.05,-52.03 198.69,-35.49 222.14,-23.96"/>
<polygon fill="midnightblue" stroke="midnightblue" points="223.77,-27.06 231.2,-19.51 220.68,-20.78 223.77,-27.06"/>
</g>
</g>
</svg>
