<?xml version="1.0" encoding="UTF-8" standalone="no"?>
<!DOCTYPE svg PUBLIC "-//W3C//DTD SVG 1.1//EN"
 "http://www.w3.org/Graphics/SVG/1.1/DTD/svg11.dtd">
<!-- Generated by graphviz version 2.50.0 (20211204.2007)
 -->
<!-- Title: src/model/files/Block.cpp Pages: 1 -->
<!--zoomable 285 -->
<svg id="main" version="1.1" xmlns="http://www.w3.org/2000/svg" xmlns:xlink="http://www.w3.org/1999/xlink" xml:space="preserve" onload="init(evt)">
<style type="text/css"><![CDATA[
.edge:hover path { stroke: red; }
.edge:hover polygon { stroke: red; fill: red; }
]]></style>
<script type="text/javascript"><![CDATA[
var edges = document.getElementsByTagName('g');
if (edges && edges.length) {
  for (var i=0;i<edges.length;i++) {
    if (edges[i].id.substr(0,4)=='edge') {
      edges[i].setAttribute('class','edge');
    }
  }
}
]]></script>
        <defs>
                <circle id="rim" cx="0" cy="0" r="7"/>
                <circle id="rim2" cx="0" cy="0" r="3.5"/>
                <g id="zoomPlus">
                        <use xlink:href="#rim" fill="#404040">
                                <set attributeName="fill" to="#808080" begin="zoomplus.mouseover" end="zoomplus.mouseout"/>
                        </use>
                        <path d="M-4,0h8M0,-4v8" fill="none" stroke="white" stroke-width="1.5" pointer-events="none"/>
                </g>
                <g id="zoomMin">
                        <use xlink:href="#rim" fill="#404040">
                                <set attributeName="fill" to="#808080" begin="zoomminus.mouseover" end="zoomminus.mouseout"/>
                        </use>
                        <path d="M-4,0h8" fill="none" stroke="white" stroke-width="1.5" pointer-events="none"/>
                </g>
                <g id="dirArrow">
                        <path fill="none" stroke="white" stroke-width="1.5" d="M0,-3.0v7 M-2.5,-0.5L0,-3.0L2.5,-0.5"/>
                </g>
               <g id="resetDef">
                       <use xlink:href="#rim2" fill="#404040">
                               <set attributeName="fill" to="#808080" begin="reset.mouseover" end="reset.mouseout"/>
                       </use>
               </g>
        </defs>

<script type="text/javascript">
var viewWidth = 1961;
var viewHeight = 285;
var sectionId = 'dynsection-0';
</script>
<script xlink:href="svgpan.js"/>
<svg id="graph" class="graph">
<g id="viewport">
<title>src/model/files/Block.cpp</title>
<polygon fill="white" stroke="transparent" points="-4,4 -4,-281 1956.5,-281 1956.5,4 -4,4"/>
<!-- Node1 -->
<g id="node1" class="node">
<title>Node1</title>
<g id="a_node1"><a xlink:title=" ">
<polygon fill="#bfbfbf" stroke="black" points="1408.5,-257.5 1408.5,-276.5 1534.5,-276.5 1534.5,-257.5 1408.5,-257.5"/>
<text text-anchor="middle" x="1471.5" y="-264.5" font-family="Helvetica,sans-Serif" font-size="10.00">src/model/files/Block.cpp</text>
</a>
</g>
</g>
<!-- Node2 -->
<g id="node2" class="node">
<title>Node2</title>
<g id="a_node2"><a xlink:href="model_2files_2_block_8h.html" target="_top" xlink:title=" ">
<polygon fill="white" stroke="black" points="1346.5,-196 1346.5,-215 1396.5,-215 1396.5,-196 1346.5,-196"/>
<text text-anchor="middle" x="1371.5" y="-203" font-family="Helvetica,sans-Serif" font-size="10.00">Block.h</text>
</a>
</g>
</g>
<!-- Node1&#45;&gt;Node2 -->
<g id="edge1" class="edge">
<title>Node1&#45;&gt;Node2</title>
<path fill="none" stroke="midnightblue" d="M1457.17,-257.48C1440.84,-247.75 1413.9,-231.73 1394.59,-220.24"/>
<polygon fill="midnightblue" stroke="midnightblue" points="1396.18,-217.11 1385.8,-215.01 1392.61,-223.13 1396.18,-217.11"/>
</g>
<!-- Node13 -->
<g id="node13" class="node">
<title>Node13</title>
<g id="a_node13"><a xlink:href="_file_lock_manager_8h.html" target="_top" xlink:title=" ">
<polygon fill="white" stroke="black" points="927,-123.5 927,-153.5 1040,-153.5 1040,-123.5 927,-123.5"/>
<text text-anchor="start" x="935" y="-141.5" font-family="Helvetica,sans-Serif" font-size="10.00">../../SingletonManager</text>
<text text-anchor="middle" x="983.5" y="-130.5" font-family="Helvetica,sans-Serif" font-size="10.00">/FileLockManager.h</text>
</a>
</g>
</g>
<!-- Node1&#45;&gt;Node13 -->
<g id="edge13" class="edge">
<title>Node1&#45;&gt;Node13</title>
<path fill="none" stroke="midnightblue" d="M1438.34,-257.4C1358.12,-236.61 1152.46,-183.3 1047.38,-156.06"/>
<polygon fill="midnightblue" stroke="midnightblue" points="1048.09,-152.63 1037.54,-153.51 1046.34,-159.4 1048.09,-152.63"/>
</g>
<!-- Node15 -->
<g id="node15" class="node">
<title>Node15</title>
<g id="a_node15"><a xlink:href="_logger_manager_8h.html" target="_top" xlink:title=" ">
<polygon fill="white" stroke="black" points="904,-190.5 904,-220.5 1017,-220.5 1017,-190.5 904,-190.5"/>
<text text-anchor="start" x="912" y="-208.5" font-family="Helvetica,sans-Serif" font-size="10.00">../../SingletonManager</text>
<text text-anchor="middle" x="960.5" y="-197.5" font-family="Helvetica,sans-Serif" font-size="10.00">/LoggerManager.h</text>
</a>
</g>
</g>
<!-- Node1&#45;&gt;Node15 -->
<g id="edge16" class="edge">
<title>Node1&#45;&gt;Node15</title>
<path fill="none" stroke="midnightblue" d="M1408.33,-258.64C1311.36,-247.35 1126.66,-225.85 1027.46,-214.3"/>
<polygon fill="midnightblue" stroke="midnightblue" points="1027.59,-210.79 1017.25,-213.11 1026.78,-217.74 1027.59,-210.79"/>
</g>
<!-- Node17 -->
<g id="node17" class="node">
<title>Node17</title>
<g id="a_node17"><a xlink:href="_cache_manager_8h.html" target="_top" xlink:title=" ">
<polygon fill="white" stroke="black" points="1415,-190.5 1415,-220.5 1528,-220.5 1528,-190.5 1415,-190.5"/>
<text text-anchor="start" x="1423" y="-208.5" font-family="Helvetica,sans-Serif" font-size="10.00">../../SingletonManager</text>
<text text-anchor="middle" x="1471.5" y="-197.5" font-family="Helvetica,sans-Serif" font-size="10.00">/CacheManager.h</text>
</a>
</g>
</g>
<!-- Node1&#45;&gt;Node17 -->
<g id="edge18" class="edge">
<title>Node1&#45;&gt;Node17</title>
<path fill="none" stroke="midnightblue" d="M1471.5,-257.48C1471.5,-250.47 1471.5,-240.19 1471.5,-230.7"/>
<polygon fill="midnightblue" stroke="midnightblue" points="1475,-230.52 1471.5,-220.52 1468,-230.52 1475,-230.52"/>
</g>
<!-- Node18 -->
<g id="node18" class="node">
<title>Node18</title>
<g id="a_node18"><a xlink:href="_server_globals_8h.html" target="_top" xlink:title=" ">
<polygon fill="white" stroke="black" points="473,-196 473,-215 576,-215 576,-196 473,-196"/>
<text text-anchor="middle" x="524.5" y="-203" font-family="Helvetica,sans-Serif" font-size="10.00">../../ServerGlobals.h</text>
</a>
</g>
</g>
<!-- Node1&#45;&gt;Node18 -->
<g id="edge20" class="edge">
<title>Node1&#45;&gt;Node18</title>
<path fill="none" stroke="midnightblue" d="M1408.26,-262.03C1235.47,-251.17 756.9,-221.1 586.08,-210.37"/>
<polygon fill="midnightblue" stroke="midnightblue" points="586.2,-206.87 576,-209.74 585.76,-213.86 586.2,-206.87"/>
</g>
<!-- Node29 -->
<g id="node29" class="node">
<title>Node29</title>
<g id="a_node29"><a xlink:title=" ">
<polygon fill="white" stroke="#bfbfbf" points="1546.5,-190.5 1546.5,-220.5 1646.5,-220.5 1646.5,-190.5 1546.5,-190.5"/>
<text text-anchor="start" x="1554.5" y="-208.5" font-family="Helvetica,sans-Serif" font-size="10.00">gradido_blockchain</text>
<text text-anchor="middle" x="1596.5" y="-197.5" font-family="Helvetica,sans-Serif" font-size="10.00">/lib/Profiler.h</text>
</a>
</g>
</g>
<!-- Node1&#45;&gt;Node29 -->
<g id="edge36" class="edge">
<title>Node1&#45;&gt;Node29</title>
<path fill="none" stroke="midnightblue" d="M1489.41,-257.48C1507.21,-249 1535.08,-235.74 1557.92,-224.86"/>
<polygon fill="midnightblue" stroke="midnightblue" points="1559.51,-227.98 1567.04,-220.52 1556.51,-221.66 1559.51,-227.98"/>
</g>
<!-- Node30 -->
<g id="node30" class="node">
<title>Node30</title>
<g id="a_node30"><a xlink:href="_bin_text_converter_8h.html" target="_top" xlink:title=" ">
<polygon fill="white" stroke="black" points="1665,-196 1665,-215 1794,-215 1794,-196 1665,-196"/>
<text text-anchor="middle" x="1729.5" y="-203" font-family="Helvetica,sans-Serif" font-size="10.00">../../lib/BinTextConverter.h</text>
</a>
</g>
</g>
<!-- Node1&#45;&gt;Node30 -->
<g id="edge37" class="edge">
<title>Node1&#45;&gt;Node30</title>
<path fill="none" stroke="midnightblue" d="M1508.47,-257.48C1554.35,-246.89 1632.65,-228.84 1682.68,-217.3"/>
<polygon fill="midnightblue" stroke="midnightblue" points="1683.65,-220.67 1692.6,-215.01 1682.07,-213.85 1683.65,-220.67"/>
</g>
<!-- Node32 -->
<g id="node32" class="node">
<title>Node32</title>
<g id="a_node32"><a xlink:title=" ">
<polygon fill="white" stroke="#bfbfbf" points="1812.5,-196 1812.5,-215 1878.5,-215 1878.5,-196 1812.5,-196"/>
<text text-anchor="middle" x="1845.5" y="-203" font-family="Helvetica,sans-Serif" font-size="10.00">Poco/File.h</text>
</a>
</g>
</g>
<!-- Node1&#45;&gt;Node32 -->
<g id="edge39" class="edge">
<title>Node1&#45;&gt;Node32</title>
<path fill="none" stroke="midnightblue" d="M1534.59,-261.19C1601.89,-255.19 1711.26,-242.94 1803.5,-221 1806.91,-220.19 1810.42,-219.21 1813.91,-218.15"/>
<polygon fill="midnightblue" stroke="midnightblue" points="1815.09,-221.44 1823.51,-215.01 1812.92,-214.79 1815.09,-221.44"/>
</g>
<!-- Node33 -->
<g id="node33" class="node">
<title>Node33</title>
<g id="a_node33"><a xlink:title=" ">
<polygon fill="white" stroke="#bfbfbf" points="1896.5,-196 1896.5,-215 1952.5,-215 1952.5,-196 1896.5,-196"/>
<text text-anchor="middle" x="1924.5" y="-203" font-family="Helvetica,sans-Serif" font-size="10.00">sodium.h</text>
</a>
</g>
</g>
<!-- Node1&#45;&gt;Node33 -->
<g id="edge40" class="edge">
<title>Node1&#45;&gt;Node33</title>
<path fill="none" stroke="midnightblue" d="M1534.77,-264.36C1617.1,-261.06 1764.92,-251.08 1887.5,-221 1890.33,-220.31 1893.23,-219.45 1896.1,-218.5"/>
<polygon fill="midnightblue" stroke="midnightblue" points="1897.42,-221.74 1905.61,-215.02 1895.02,-215.17 1897.42,-221.74"/>
</g>
<!-- Node3 -->
<g id="node3" class="node">
<title>Node3</title>
<g id="a_node3"><a xlink:href="_file_base_8h.html" target="_top" xlink:title=" ">
<polygon fill="white" stroke="black" points="1340,-129 1340,-148 1403,-148 1403,-129 1340,-129"/>
<text text-anchor="middle" x="1371.5" y="-136" font-family="Helvetica,sans-Serif" font-size="10.00">FileBase.h</text>
</a>
</g>
</g>
<!-- Node2&#45;&gt;Node3 -->
<g id="edge2" class="edge">
<title>Node2&#45;&gt;Node3</title>
<path fill="none" stroke="midnightblue" d="M1371.5,-195.73C1371.5,-186.18 1371.5,-170.62 1371.5,-158.28"/>
<polygon fill="midnightblue" stroke="midnightblue" points="1375,-158.13 1371.5,-148.13 1368,-158.13 1375,-158.13"/>
</g>
<!-- Node4 -->
<g id="node4" class="node">
<title>Node4</title>
<g id="a_node4"><a xlink:title=" ">
<polygon fill="white" stroke="#bfbfbf" points="1171,-62 1171,-81 1242,-81 1242,-62 1171,-62"/>
<text text-anchor="middle" x="1206.5" y="-69" font-family="Helvetica,sans-Serif" font-size="10.00">Poco/Path.h</text>
</a>
</g>
</g>
<!-- Node2&#45;&gt;Node4 -->
<g id="edge6" class="edge">
<title>Node2&#45;&gt;Node4</title>
<path fill="none" stroke="midnightblue" d="M1364.53,-195.9C1351.5,-180.18 1322.1,-146.25 1292.5,-123 1274.01,-108.47 1250.92,-95.14 1233.33,-85.83"/>
<polygon fill="midnightblue" stroke="midnightblue" points="1234.67,-82.58 1224.18,-81.09 1231.45,-88.8 1234.67,-82.58"/>
</g>
<!-- Node7 -->
<g id="node7" class="node">
<title>Node7</title>
<g id="a_node7"><a xlink:title=" ">
<polygon fill="white" stroke="#bfbfbf" points="1421.5,-129 1421.5,-148 1519.5,-148 1519.5,-129 1421.5,-129"/>
<text text-anchor="middle" x="1470.5" y="-136" font-family="Helvetica,sans-Serif" font-size="10.00">Poco/FileStream.h</text>
</a>
</g>
</g>
<!-- Node2&#45;&gt;Node7 -->
<g id="edge7" class="edge">
<title>Node2&#45;&gt;Node7</title>
<path fill="none" stroke="midnightblue" d="M1384.85,-195.73C1401.25,-184.96 1429.3,-166.55 1448.81,-153.74"/>
<polygon fill="midnightblue" stroke="midnightblue" points="1450.92,-156.54 1457.36,-148.13 1447.08,-150.69 1450.92,-156.54"/>
</g>
<!-- Node8 -->
<g id="node8" class="node">
<title>Node8</title>
<g id="a_node8"><a xlink:title=" ">
<polygon fill="white" stroke="#bfbfbf" points="1537.5,-129 1537.5,-148 1635.5,-148 1635.5,-129 1537.5,-129"/>
<text text-anchor="middle" x="1586.5" y="-136" font-family="Helvetica,sans-Serif" font-size="10.00">Poco/Timestamp.h</text>
</a>
</g>
</g>
<!-- Node2&#45;&gt;Node8 -->
<g id="edge8" class="edge">
<title>Node2&#45;&gt;Node8</title>
<path fill="none" stroke="midnightblue" d="M1390.39,-195.93C1395.26,-193.86 1400.53,-191.74 1405.5,-190 1430.97,-181.06 1499.14,-162.58 1544.17,-150.62"/>
<polygon fill="midnightblue" stroke="midnightblue" points="1545.19,-153.97 1553.96,-148.03 1543.4,-147.21 1545.19,-153.97"/>
</g>
<!-- Node9 -->
<g id="node9" class="node">
<title>Node9</title>
<g id="a_node9"><a xlink:title=" ">
<polygon fill="white" stroke="#bfbfbf" points="1653.5,-129 1653.5,-148 1727.5,-148 1727.5,-129 1653.5,-129"/>
<text text-anchor="middle" x="1690.5" y="-136" font-family="Helvetica,sans-Serif" font-size="10.00">Poco/Timer.h</text>
</a>
</g>
</g>
<!-- Node2&#45;&gt;Node9 -->
<g id="edge9" class="edge">
<title>Node2&#45;&gt;Node9</title>
<path fill="none" stroke="midnightblue" d="M1389.19,-195.95C1394.35,-193.74 1400.07,-191.54 1405.5,-190 1508.85,-160.69 1539.85,-178.22 1644.5,-154 1648.34,-153.11 1652.32,-152.06 1656.26,-150.94"/>
<polygon fill="midnightblue" stroke="midnightblue" points="1657.3,-154.28 1665.87,-148.04 1655.28,-147.57 1657.3,-154.28"/>
</g>
<!-- Node10 -->
<g id="node10" class="node">
<title>Node10</title>
<g id="a_node10"><a xlink:title=" ">
<polygon fill="white" stroke="#bfbfbf" points="1058,-123.5 1058,-153.5 1159,-153.5 1159,-123.5 1058,-123.5"/>
<text text-anchor="start" x="1066" y="-141.5" font-family="Helvetica,sans-Serif" font-size="10.00">gradido_blockchain</text>
<text text-anchor="middle" x="1108.5" y="-130.5" font-family="Helvetica,sans-Serif" font-size="10.00">/MemoryManager.h</text>
</a>
</g>
</g>
<!-- Node2&#45;&gt;Node10 -->
<g id="edge10" class="edge">
<title>Node2&#45;&gt;Node10</title>
<path fill="none" stroke="midnightblue" d="M1346.28,-198.27C1305.77,-188.26 1225.07,-168.31 1168.99,-154.45"/>
<polygon fill="midnightblue" stroke="midnightblue" points="1169.71,-151.02 1159.17,-152.02 1168.03,-157.82 1169.71,-151.02"/>
</g>
<!-- Node11 -->
<g id="node11" class="node">
<title>Node11</title>
<g id="a_node11"><a xlink:href="_fuzzy_timer_8h.html" target="_top" xlink:title=" ">
<polygon fill="white" stroke="black" points="1746,-129 1746,-148 1853,-148 1853,-129 1746,-129"/>
<text text-anchor="middle" x="1799.5" y="-136" font-family="Helvetica,sans-Serif" font-size="10.00">../../lib/FuzzyTimer.h</text>
</a>
</g>
</g>
<!-- Node2&#45;&gt;Node11 -->
<g id="edge11" class="edge">
<title>Node2&#45;&gt;Node11</title>
<path fill="none" stroke="midnightblue" d="M1388.8,-195.96C1394.05,-193.69 1399.91,-191.46 1405.5,-190 1548.67,-152.57 1590.59,-178.64 1736.5,-154 1742.75,-152.95 1749.3,-151.65 1755.72,-150.27"/>
<polygon fill="midnightblue" stroke="midnightblue" points="1756.64,-153.65 1765.64,-148.06 1755.12,-146.82 1756.64,-153.65"/>
</g>
<!-- Node12 -->
<g id="node12" class="node">
<title>Node12</title>
<g id="a_node12"><a xlink:href="_c_p_u_task_8h.html" target="_top" xlink:title=" ">
<polygon fill="white" stroke="black" points="1177.5,-129 1177.5,-148 1283.5,-148 1283.5,-129 1177.5,-129"/>
<text text-anchor="middle" x="1230.5" y="-136" font-family="Helvetica,sans-Serif" font-size="10.00">../../task/CPUTask.h</text>
</a>
</g>
</g>
<!-- Node2&#45;&gt;Node12 -->
<g id="edge12" class="edge">
<title>Node2&#45;&gt;Node12</title>
<path fill="none" stroke="midnightblue" d="M1352.78,-195.87C1328.65,-184.75 1286.5,-165.32 1258.55,-152.43"/>
<polygon fill="midnightblue" stroke="midnightblue" points="1259.85,-149.18 1249.3,-148.17 1256.92,-155.53 1259.85,-149.18"/>
</g>
<!-- Node3&#45;&gt;Node4 -->
<g id="edge3" class="edge">
<title>Node3&#45;&gt;Node4</title>
<path fill="none" stroke="midnightblue" d="M1349.59,-128.87C1320.91,-117.57 1270.46,-97.7 1237.77,-84.82"/>
<polygon fill="midnightblue" stroke="midnightblue" points="1238.83,-81.47 1228.24,-81.06 1236.26,-87.99 1238.83,-81.47"/>
</g>
<!-- Node5 -->
<g id="node5" class="node">
<title>Node5</title>
<g id="a_node5"><a xlink:title=" ">
<polygon fill="white" stroke="#bfbfbf" points="1083,-0.5 1083,-19.5 1160,-19.5 1160,-0.5 1083,-0.5"/>
<text text-anchor="middle" x="1121.5" y="-7.5" font-family="Helvetica,sans-Serif" font-size="10.00">Poco/Mutex.h</text>
</a>
</g>
</g>
<!-- Node3&#45;&gt;Node5 -->
<g id="edge4" class="edge">
<title>Node3&#45;&gt;Node5</title>
<path fill="none" stroke="midnightblue" d="M1379.03,-128.84C1392.11,-112.71 1415.97,-77.73 1397.5,-56 1368.88,-22.33 1241.39,-13.79 1170.12,-11.67"/>
<polygon fill="midnightblue" stroke="midnightblue" points="1170.13,-8.17 1160.04,-11.4 1169.94,-15.16 1170.13,-8.17"/>
</g>
<!-- Node6 -->
<g id="node6" class="node">
<title>Node6</title>
<g id="a_node6"><a xlink:title=" ">
<polygon fill="white" stroke="#bfbfbf" points="1260,-62 1260,-81 1389,-81 1389,-62 1260,-62"/>
<text text-anchor="middle" x="1324.5" y="-69" font-family="Helvetica,sans-Serif" font-size="10.00">Poco/RefCountedObject.h</text>
</a>
</g>
</g>
<!-- Node3&#45;&gt;Node6 -->
<g id="edge5" class="edge">
<title>Node3&#45;&gt;Node6</title>
<path fill="none" stroke="midnightblue" d="M1365.16,-128.73C1357.9,-118.7 1345.84,-102.01 1336.74,-89.42"/>
<polygon fill="midnightblue" stroke="midnightblue" points="1339.43,-87.18 1330.74,-81.13 1333.76,-91.28 1339.43,-87.18"/>
</g>
<!-- Node13&#45;&gt;Node5 -->
<g id="edge15" class="edge">
<title>Node13&#45;&gt;Node5</title>
<path fill="none" stroke="midnightblue" d="M1040.15,-124.76C1062.1,-117.17 1085.71,-105.31 1101.5,-87 1115.26,-71.05 1119.7,-46.7 1121.05,-29.88"/>
<polygon fill="midnightblue" stroke="midnightblue" points="1124.56,-29.8 1121.57,-19.64 1117.57,-29.44 1124.56,-29.8"/>
</g>
<!-- Node14 -->
<g id="node14" class="node">
<title>Node14</title>
<g id="a_node14"><a xlink:title=" ">
<polygon fill="white" stroke="#bfbfbf" points="1010,-62 1010,-81 1093,-81 1093,-62 1010,-62"/>
<text text-anchor="middle" x="1051.5" y="-69" font-family="Helvetica,sans-Serif" font-size="10.00">unordered_map</text>
</a>
</g>
</g>
<!-- Node13&#45;&gt;Node14 -->
<g id="edge14" class="edge">
<title>Node13&#45;&gt;Node14</title>
<path fill="none" stroke="midnightblue" d="M998.25,-123.4C1009.07,-113.06 1023.75,-99.02 1034.96,-88.31"/>
<polygon fill="midnightblue" stroke="midnightblue" points="1037.59,-90.63 1042.4,-81.19 1032.76,-85.57 1037.59,-90.63"/>
</g>
<!-- Node16 -->
<g id="node16" class="node">
<title>Node16</title>
<g id="a_node16"><a xlink:title=" ">
<polygon fill="white" stroke="#bfbfbf" points="828.5,-129 828.5,-148 908.5,-148 908.5,-129 828.5,-129"/>
<text text-anchor="middle" x="868.5" y="-136" font-family="Helvetica,sans-Serif" font-size="10.00">Poco/Logger.h</text>
</a>
</g>
</g>
<!-- Node15&#45;&gt;Node16 -->
<g id="edge17" class="edge">
<title>Node15&#45;&gt;Node16</title>
<path fill="none" stroke="midnightblue" d="M940.54,-190.4C925.25,-179.6 904.25,-164.76 888.86,-153.89"/>
<polygon fill="midnightblue" stroke="midnightblue" points="890.73,-150.92 880.54,-148.01 886.69,-156.64 890.73,-150.92"/>
</g>
<!-- Node17&#45;&gt;Node11 -->
<g id="edge19" class="edge">
<title>Node17&#45;&gt;Node11</title>
<path fill="none" stroke="midnightblue" d="M1528.35,-191.87C1531.45,-191.23 1534.51,-190.6 1537.5,-190 1625.63,-172.35 1648.46,-172.08 1736.5,-154 1742,-152.87 1747.75,-151.63 1753.45,-150.36"/>
<polygon fill="midnightblue" stroke="midnightblue" points="1754.6,-153.69 1763.58,-148.08 1753.06,-146.86 1754.6,-153.69"/>
</g>
<!-- Node18&#45;&gt;Node16 -->
<g id="edge23" class="edge">
<title>Node18&#45;&gt;Node16</title>
<path fill="none" stroke="midnightblue" d="M576.1,-197.43C635.08,-188.93 734.34,-173.37 818.5,-154 822.66,-153.04 826.99,-151.94 831.28,-150.79"/>
<polygon fill="midnightblue" stroke="midnightblue" points="832.45,-154.1 841.14,-148.04 830.56,-147.36 832.45,-154.1"/>
</g>
<!-- Node19 -->
<g id="node19" class="node">
<title>Node19</title>
<g id="a_node19"><a xlink:title=" ">
<polygon fill="white" stroke="#bfbfbf" points="573.5,-0.5 573.5,-19.5 731.5,-19.5 731.5,-0.5 573.5,-0.5"/>
<text text-anchor="middle" x="652.5" y="-7.5" font-family="Helvetica,sans-Serif" font-size="10.00">Poco/Util/LayeredConfiguration.h</text>
</a>
</g>
</g>
<!-- Node18&#45;&gt;Node19 -->
<g id="edge21" class="edge">
<title>Node18&#45;&gt;Node19</title>
<path fill="none" stroke="midnightblue" d="M538.63,-195.88C552.28,-186.92 572.72,-171.73 585.5,-154 612.82,-116.1 602.29,-97.62 623.5,-56 628.4,-46.37 634.83,-36.21 640.39,-27.98"/>
<polygon fill="midnightblue" stroke="midnightblue" points="643.35,-29.86 646.17,-19.65 637.6,-25.87 643.35,-29.86"/>
</g>
<!-- Node20 -->
<g id="node20" class="node">
<title>Node20</title>
<g id="a_node20"><a xlink:title=" ">
<polygon fill="white" stroke="#bfbfbf" points="0,-129 0,-148 77,-148 77,-129 0,-129"/>
<text text-anchor="middle" x="38.5" y="-136" font-family="Helvetica,sans-Serif" font-size="10.00">Poco/Types.h</text>
</a>
</g>
</g>
<!-- Node18&#45;&gt;Node20 -->
<g id="edge22" class="edge">
<title>Node18&#45;&gt;Node20</title>
<path fill="none" stroke="midnightblue" d="M472.78,-201.54C390.35,-196.14 224.42,-182.54 86.5,-154 82.28,-153.13 77.9,-152.05 73.57,-150.88"/>
<polygon fill="midnightblue" stroke="midnightblue" points="74.27,-147.44 63.69,-148.03 72.33,-154.16 74.27,-147.44"/>
</g>
<!-- Node21 -->
<g id="node21" class="node">
<title>Node21</title>
<g id="a_node21"><a xlink:title=" ">
<polygon fill="white" stroke="#bfbfbf" points="95.5,-129 95.5,-148 197.5,-148 197.5,-129 95.5,-129"/>
<text text-anchor="middle" x="146.5" y="-136" font-family="Helvetica,sans-Serif" font-size="10.00">Poco/Net/Context.h</text>
</a>
</g>
</g>
<!-- Node18&#45;&gt;Node21 -->
<g id="edge24" class="edge">
<title>Node18&#45;&gt;Node21</title>
<path fill="none" stroke="midnightblue" d="M472.78,-197.58C409.66,-188.83 299.82,-172.66 206.5,-154 201.05,-152.91 195.34,-151.67 189.71,-150.38"/>
<polygon fill="midnightblue" stroke="midnightblue" points="190.25,-146.91 179.72,-148.03 188.65,-153.72 190.25,-146.91"/>
</g>
<!-- Node22 -->
<g id="node22" class="node">
<title>Node22</title>
<g id="a_node22"><a xlink:title=" ">
<polygon fill="white" stroke="#bfbfbf" points="216,-129 216,-148 331,-148 331,-129 216,-129"/>
<text text-anchor="middle" x="273.5" y="-136" font-family="Helvetica,sans-Serif" font-size="10.00">Poco/AtomicCounter.h</text>
</a>
</g>
</g>
<!-- Node18&#45;&gt;Node22 -->
<g id="edge25" class="edge">
<title>Node18&#45;&gt;Node22</title>
<path fill="none" stroke="midnightblue" d="M491.43,-195.94C446.47,-184.29 366,-163.45 316.43,-150.62"/>
<polygon fill="midnightblue" stroke="midnightblue" points="317.2,-147.2 306.65,-148.08 315.45,-153.98 317.2,-147.2"/>
</g>
<!-- Node23 -->
<g id="node23" class="node">
<title>Node23</title>
<g id="a_node23"><a xlink:href="_c_p_u_sheduler_8h.html" target="_top" xlink:title=" ">
<polygon fill="white" stroke="black" points="349,-129 349,-148 454,-148 454,-129 349,-129"/>
<text text-anchor="middle" x="401.5" y="-136" font-family="Helvetica,sans-Serif" font-size="10.00">task/CPUSheduler.h</text>
</a>
</g>
</g>
<!-- Node18&#45;&gt;Node23 -->
<g id="edge26" class="edge">
<title>Node18&#45;&gt;Node23</title>
<path fill="none" stroke="midnightblue" d="M508.17,-195.87C487.4,-184.89 451.31,-165.82 426.93,-152.94"/>
<polygon fill="midnightblue" stroke="midnightblue" points="428.38,-149.75 417.9,-148.17 425.11,-155.93 428.38,-149.75"/>
</g>
<!-- Node24 -->
<g id="node24" class="node">
<title>Node24</title>
<g id="a_node24"><a xlink:title=" ">
<polygon fill="white" stroke="#bfbfbf" points="472.5,-123.5 472.5,-153.5 576.5,-153.5 576.5,-123.5 472.5,-123.5"/>
<text text-anchor="start" x="480.5" y="-141.5" font-family="Helvetica,sans-Serif" font-size="10.00">gradido_blockchain</text>
<text text-anchor="middle" x="524.5" y="-130.5" font-family="Helvetica,sans-Serif" font-size="10.00">/http/JsonRequest.h</text>
</a>
</g>
</g>
<!-- Node18&#45;&gt;Node24 -->
<g id="edge27" class="edge">
<title>Node18&#45;&gt;Node24</title>
<path fill="none" stroke="midnightblue" d="M524.5,-195.73C524.5,-187.54 524.5,-174.92 524.5,-163.71"/>
<polygon fill="midnightblue" stroke="midnightblue" points="528,-163.59 524.5,-153.59 521,-163.59 528,-163.59"/>
</g>
<!-- Node25 -->
<g id="node25" class="node">
<title>Node25</title>
<g id="a_node25"><a xlink:href="controller_2_group_index_8h.html" target="_top" xlink:title=" ">
<polygon fill="white" stroke="black" points="693,-129 693,-148 810,-148 810,-129 693,-129"/>
<text text-anchor="middle" x="751.5" y="-136" font-family="Helvetica,sans-Serif" font-size="10.00">controller/GroupIndex.h</text>
</a>
</g>
</g>
<!-- Node18&#45;&gt;Node25 -->
<g id="edge28" class="edge">
<title>Node18&#45;&gt;Node25</title>
<path fill="none" stroke="midnightblue" d="M554.64,-195.87C595.12,-184.28 667.12,-163.66 711.92,-150.83"/>
<polygon fill="midnightblue" stroke="midnightblue" points="712.94,-154.18 721.59,-148.06 711.02,-147.45 712.94,-154.18"/>
</g>
<!-- Node25&#45;&gt;Node4 -->
<g id="edge32" class="edge">
<title>Node25&#45;&gt;Node4</title>
<path fill="none" stroke="midnightblue" d="M788.8,-128.96C798.75,-126.85 809.5,-124.7 819.5,-123 944.06,-101.81 976.25,-103.64 1101.5,-87 1120.8,-84.44 1142.09,-81.51 1160.42,-78.97"/>
<polygon fill="midnightblue" stroke="midnightblue" points="1161.13,-82.4 1170.55,-77.56 1160.16,-75.47 1161.13,-82.4"/>
</g>
<!-- Node25&#45;&gt;Node14 -->
<g id="edge35" class="edge">
<title>Node25&#45;&gt;Node14</title>
<path fill="none" stroke="midnightblue" d="M791.03,-128.97C800.36,-126.99 810.28,-124.9 819.5,-123 899.83,-106.45 920.77,-106.23 1000.5,-87 1004.63,-86 1008.92,-84.9 1013.19,-83.75"/>
<polygon fill="midnightblue" stroke="midnightblue" points="1014.31,-87.07 1023.02,-81.04 1012.44,-80.33 1014.31,-87.07"/>
</g>
<!-- Node26 -->
<g id="node26" class="node">
<title>Node26</title>
<g id="a_node26"><a xlink:href="model_2files_2_group_index_8h.html" target="_top" xlink:title=" ">
<polygon fill="white" stroke="black" points="633,-62 633,-81 766,-81 766,-62 633,-62"/>
<text text-anchor="middle" x="699.5" y="-69" font-family="Helvetica,sans-Serif" font-size="10.00">../model/files/GroupIndex.h</text>
</a>
</g>
</g>
<!-- Node25&#45;&gt;Node26 -->
<g id="edge29" class="edge">
<title>Node25&#45;&gt;Node26</title>
<path fill="none" stroke="midnightblue" d="M744.49,-128.73C736.38,-118.6 722.85,-101.69 712.74,-89.06"/>
<polygon fill="midnightblue" stroke="midnightblue" points="715.38,-86.75 706.4,-81.13 709.92,-91.12 715.38,-86.75"/>
</g>
<!-- Node27 -->
<g id="node27" class="node">
<title>Node27</title>
<g id="a_node27"><a xlink:title=" ">
<polygon fill="white" stroke="#bfbfbf" points="784.5,-56.5 784.5,-86.5 884.5,-86.5 884.5,-56.5 784.5,-56.5"/>
<text text-anchor="start" x="792.5" y="-74.5" font-family="Helvetica,sans-Serif" font-size="10.00">gradido_blockchain</text>
<text text-anchor="middle" x="834.5" y="-63.5" font-family="Helvetica,sans-Serif" font-size="10.00">/lib/DRHashList.h</text>
</a>
</g>
</g>
<!-- Node25&#45;&gt;Node27 -->
<g id="edge31" class="edge">
<title>Node25&#45;&gt;Node27</title>
<path fill="none" stroke="midnightblue" d="M762.69,-128.73C774.34,-119.61 793,-105 808.37,-92.96"/>
<polygon fill="midnightblue" stroke="midnightblue" points="810.79,-95.51 816.51,-86.59 806.48,-90 810.79,-95.51"/>
</g>
<!-- Node28 -->
<g id="node28" class="node">
<title>Node28</title>
<g id="a_node28"><a xlink:href="_controller_base_8h.html" target="_top" xlink:title=" ">
<polygon fill="white" stroke="black" points="903,-62 903,-81 992,-81 992,-62 903,-62"/>
<text text-anchor="middle" x="947.5" y="-69" font-family="Helvetica,sans-Serif" font-size="10.00">ControllerBase.h</text>
</a>
</g>
</g>
<!-- Node25&#45;&gt;Node28 -->
<g id="edge33" class="edge">
<title>Node25&#45;&gt;Node28</title>
<path fill="none" stroke="midnightblue" d="M777.53,-128.87C812.04,-117.42 873.08,-97.18 911.85,-84.32"/>
<polygon fill="midnightblue" stroke="midnightblue" points="913.29,-87.53 921.68,-81.06 911.08,-80.89 913.29,-87.53"/>
</g>
<!-- Node26&#45;&gt;Node19 -->
<g id="edge30" class="edge">
<title>Node26&#45;&gt;Node19</title>
<path fill="none" stroke="midnightblue" d="M692.77,-61.98C685.72,-53.05 674.47,-38.81 665.65,-27.64"/>
<polygon fill="midnightblue" stroke="midnightblue" points="668.17,-25.19 659.22,-19.51 662.67,-29.53 668.17,-25.19"/>
</g>
<!-- Node28&#45;&gt;Node5 -->
<g id="edge34" class="edge">
<title>Node28&#45;&gt;Node5</title>
<path fill="none" stroke="midnightblue" d="M972.43,-61.98C1002.54,-51.68 1053.33,-34.31 1087.14,-22.75"/>
<polygon fill="midnightblue" stroke="midnightblue" points="1088.29,-26.06 1096.62,-19.51 1086.02,-19.43 1088.29,-26.06"/>
</g>
<!-- Node31 -->
<g id="node31" class="node">
<title>Node31</title>
<g id="a_node31"><a xlink:title=" ">
<polygon fill="white" stroke="#bfbfbf" points="1871,-129 1871,-148 1912,-148 1912,-129 1871,-129"/>
<text text-anchor="middle" x="1891.5" y="-136" font-family="Helvetica,sans-Serif" font-size="10.00">string</text>
</a>
</g>
</g>
<!-- Node30&#45;&gt;Node31 -->
<g id="edge38" class="edge">
<title>Node30&#45;&gt;Node31</title>
<path fill="none" stroke="midnightblue" d="M1754.31,-195.92C1781.25,-186.42 1825.4,-170.27 1862.5,-154 1863.66,-153.49 1864.84,-152.96 1866.03,-152.41"/>
<polygon fill="midnightblue" stroke="midnightblue" points="1867.57,-155.55 1875.07,-148.07 1864.54,-149.24 1867.57,-155.55"/>
</g>
</g>
</svg>
        <g id="navigator" transform="translate(0 0)" fill="#404254">
                <rect fill="#f2f5e9" fill-opacity="0.5" stroke="#606060" stroke-width=".5" x="0" y="0" width="60" height="60"/>
                <use id="zoomplus" xlink:href="#zoomPlus" x="17" y="9" onmousedown="handleZoom(evt,'in')"/>
                <use id="zoomminus" xlink:href="#zoomMin" x="42" y="9" onmousedown="handleZoom(evt,'out')"/>
                <use id="reset" xlink:href="#resetDef" x="30" y="36" onmousedown="handleReset()"/>
                <g id="arrowUp" xlink:href="#dirArrow" transform="translate(30 24)" onmousedown="handlePan(0,-1)">
                  <use xlink:href="#rim" fill="#404040">
                        <set attributeName="fill" to="#808080" begin="arrowUp.mouseover" end="arrowUp.mouseout"/>
                  </use>
                  <path fill="none" stroke="white" stroke-width="1.5" d="M0,-3.0v7 M-2.5,-0.5L0,-3.0L2.5,-0.5"/>
                </g>
                <g id="arrowRight" xlink:href="#dirArrow" transform="rotate(90) translate(36 -43)" onmousedown="handlePan(1,0)">
                  <use xlink:href="#rim" fill="#404040">
                        <set attributeName="fill" to="#808080" begin="arrowRight.mouseover" end="arrowRight.mouseout"/>
                  </use>
                  <path fill="none" stroke="white" stroke-width="1.5" d="M0,-3.0v7 M-2.5,-0.5L0,-3.0L2.5,-0.5"/>
                </g>
                <g id="arrowDown" xlink:href="#dirArrow" transform="rotate(180) translate(-30 -48)" onmousedown="handlePan(0,1)">
                  <use xlink:href="#rim" fill="#404040">
                        <set attributeName="fill" to="#808080" begin="arrowDown.mouseover" end="arrowDown.mouseout"/>
                  </use>
                  <path fill="none" stroke="white" stroke-width="1.5" d="M0,-3.0v7 M-2.5,-0.5L0,-3.0L2.5,-0.5"/>
                </g>
                <g id="arrowLeft" xlink:href="#dirArrow" transform="rotate(270) translate(-36 17)" onmousedown="handlePan(-1,0)">
                  <use xlink:href="#rim" fill="#404040">
                        <set attributeName="fill" to="#808080" begin="arrowLeft.mouseover" end="arrowLeft.mouseout"/>
                  </use>
                  <path fill="none" stroke="white" stroke-width="1.5" d="M0,-3.0v7 M-2.5,-0.5L0,-3.0L2.5,-0.5"/>
                </g>
        </g>
        <svg viewBox="0 0 15 15" width="100%" height="30px" preserveAspectRatio="xMaxYMin meet">
         <g id="arrow_out" transform="scale(0.3 0.3)">
          <a xlink:href="model_2files_2_block_8cpp__incl_org.svg" target="_base">
           <rect id="button" ry="5" rx="5" y="6" x="6" height="38" width="38"
                fill="#f2f5e9" fill-opacity="0.5" stroke="#606060" stroke-width="1.0"/>
           <path id="arrow"
             d="M 11.500037,31.436501 C 11.940474,20.09759 22.043105,11.32322 32.158766,21.979434 L 37.068811,17.246167 C 37.068811,17.246167 37.088388,32 37.088388,32 L 22.160133,31.978069 C 22.160133,31.978069 26.997745,27.140456 26.997745,27.140456 C 18.528582,18.264221 13.291696,25.230495 11.500037,31.436501 z"
             style="fill:#404040;"/>
          </a>
         </g>
        </svg>
</svg>
