<?xml version="1.0" encoding="UTF-8" standalone="no"?>
<!DOCTYPE svg PUBLIC "-//W3C//DTD SVG 1.1//EN"
 "http://www.w3.org/Graphics/SVG/1.1/DTD/svg11.dtd">
<!-- Generated by graphviz version 2.50.0 (20211204.2007)
 -->
<!-- Title: iota::getIndexiationMessageDataIndex Pages: 1 -->
<svg width="447pt" height="66pt"
 viewBox="0.00 0.00 447.00 66.00" xmlns="http://www.w3.org/2000/svg" xmlns:xlink="http://www.w3.org/1999/xlink">
<g id="graph0" class="graph" transform="scale(1 1) rotate(0) translate(4 62)">
<title>iota::getIndexiationMessageDataIndex</title>
<polygon fill="white" stroke="transparent" points="-4,4 -4,-62 443,-62 443,4 -4,4"/>
<!-- Node1 -->
<g id="node1" class="node">
<title>Node1</title>
<g id="a_node1"><a xlink:title=" ">
<polygon fill="#bfbfbf" stroke="black" points="0,-14 0,-44 138,-44 138,-14 0,-14"/>
<text text-anchor="start" x="8" y="-32" font-family="Helvetica,sans-Serif" font-size="10.00">iota::getIndexiationMessage</text>
<text text-anchor="middle" x="69" y="-21" font-family="Helvetica,sans-Serif" font-size="10.00">DataIndex</text>
</a>
</g>
</g>
<!-- Node2 -->
<g id="node2" class="node">
<title>Node2</title>
<g id="a_node2"><a xlink:href="_bin_text_converter_8cpp.html#abc148f267e9f9ce50b2bd6d5569db08a" target="_top" xlink:title=" ">
<polygon fill="white" stroke="black" points="185.5,-38.5 185.5,-57.5 274.5,-57.5 274.5,-38.5 185.5,-38.5"/>
<text text-anchor="middle" x="230" y="-45.5" font-family="Helvetica,sans-Serif" font-size="10.00">convertHexToBin</text>
</a>
</g>
</g>
<!-- Node1&#45;&gt;Node2 -->
<g id="edge1" class="edge">
<title>Node1&#45;&gt;Node2</title>
<path fill="none" stroke="midnightblue" d="M138.35,-37.17C150.59,-38.63 163.19,-40.14 174.96,-41.54"/>
<polygon fill="midnightblue" stroke="midnightblue" points="174.71,-45.04 185.05,-42.75 175.54,-38.09 174.71,-45.04"/>
</g>
<!-- Node3 -->
<g id="node3" class="node">
<title>Node3</title>
<g id="a_node3"><a xlink:href="namespaceiota.html#a694d99480f403a3c9e8ce63f06bd7f3f" target="_top" xlink:title=" ">
<polygon fill="white" stroke="black" points="174,-0.5 174,-19.5 286,-19.5 286,-0.5 174,-0.5"/>
<text text-anchor="middle" x="230" y="-7.5" font-family="Helvetica,sans-Serif" font-size="10.00">iota::getMessageJson</text>
</a>
</g>
</g>
<!-- Node1&#45;&gt;Node3 -->
<g id="edge2" class="edge">
<title>Node1&#45;&gt;Node3</title>
<path fill="none" stroke="midnightblue" d="M138.35,-20.83C146.73,-19.83 155.28,-18.81 163.61,-17.81"/>
<polygon fill="midnightblue" stroke="midnightblue" points="164.13,-21.28 173.64,-16.62 163.3,-14.33 164.13,-21.28"/>
</g>
<!-- Node4 -->
<g id="node4" class="node">
<title>Node4</title>
<g id="a_node4"><a xlink:href="classiota_1_1_message_id.html#a3578b169953e1ba9359f017601c8516f" target="_top" xlink:title=" ">
<polygon fill="white" stroke="black" points="322,-0.5 322,-19.5 439,-19.5 439,-0.5 322,-0.5"/>
<text text-anchor="middle" x="380.5" y="-7.5" font-family="Helvetica,sans-Serif" font-size="10.00">iota::MessageId::toHex</text>
</a>
</g>
</g>
<!-- Node3&#45;&gt;Node4 -->
<g id="edge3" class="edge">
<title>Node3&#45;&gt;Node4</title>
<path fill="none" stroke="midnightblue" d="M286.3,-10C294.5,-10 303.04,-10 311.47,-10"/>
<polygon fill="midnightblue" stroke="midnightblue" points="311.67,-13.5 321.67,-10 311.67,-6.5 311.67,-13.5"/>
</g>
</g>
</svg>
