<?xml version="1.0" encoding="UTF-8" standalone="no"?>
<!DOCTYPE svg PUBLIC "-//W3C//DTD SVG 1.1//EN"
 "http://www.w3.org/Graphics/SVG/1.1/DTD/svg11.dtd">
<!-- Generated by graphviz version 2.50.0 (20211204.2007)
 -->
<!-- Title: iota::getMilestoneByIndex Pages: 1 -->
<svg width="468pt" height="78pt"
 viewBox="0.00 0.00 468.00 77.50" xmlns="http://www.w3.org/2000/svg" xmlns:xlink="http://www.w3.org/1999/xlink">
<g id="graph0" class="graph" transform="scale(1 1) rotate(0) translate(4 73.5)">
<title>iota::getMilestoneByIndex</title>
<polygon fill="white" stroke="transparent" points="-4,4 -4,-73.5 464,-73.5 464,4 -4,4"/>
<!-- Node1 -->
<g id="node1" class="node">
<title>Node1</title>
<g id="a_node1"><a xlink:title=" ">
<polygon fill="#bfbfbf" stroke="black" points="0,-28 0,-47 129,-47 129,-28 0,-28"/>
<text text-anchor="middle" x="64.5" y="-35" font-family="Helvetica,sans-Serif" font-size="10.00">iota::getMilestoneByIndex</text>
</a>
</g>
</g>
<!-- Node2 -->
<g id="node2" class="node">
<title>Node2</title>
<g id="a_node2"><a xlink:href="classiota_1_1_message_id.html#a3d240c5e3ecad4f54f8e290b27fb2841" target="_top" xlink:title=" ">
<polygon fill="white" stroke="black" points="165,-28 165,-47 293,-47 293,-28 165,-28"/>
<text text-anchor="middle" x="229" y="-35" font-family="Helvetica,sans-Serif" font-size="10.00">iota::MessageId::fromHex</text>
</a>
</g>
</g>
<!-- Node1&#45;&gt;Node2 -->
<g id="edge1" class="edge">
<title>Node1&#45;&gt;Node2</title>
<path fill="none" stroke="midnightblue" d="M129.26,-37.5C137.6,-37.5 146.2,-37.5 154.69,-37.5"/>
<polygon fill="midnightblue" stroke="midnightblue" points="154.96,-41 164.96,-37.5 154.96,-34 154.96,-41"/>
</g>
<!-- Node3 -->
<g id="node3" class="node">
<title>Node3</title>
<g id="a_node3"><a xlink:href="_bin_text_converter_8cpp.html#abc148f267e9f9ce50b2bd6d5569db08a" target="_top" xlink:title=" ">
<polygon fill="white" stroke="black" points="350,-50 350,-69 439,-69 439,-50 350,-50"/>
<text text-anchor="middle" x="394.5" y="-57" font-family="Helvetica,sans-Serif" font-size="10.00">convertHexToBin</text>
</a>
</g>
</g>
<!-- Node2&#45;&gt;Node3 -->
<g id="edge2" class="edge">
<title>Node2&#45;&gt;Node3</title>
<path fill="none" stroke="midnightblue" d="M293.21,-46.01C308.55,-48.07 324.8,-50.26 339.65,-52.25"/>
<polygon fill="midnightblue" stroke="midnightblue" points="339.31,-55.74 349.68,-53.6 340.24,-48.8 339.31,-55.74"/>
</g>
<!-- Node4 -->
<g id="node4" class="node">
<title>Node4</title>
<g id="a_node4"><a xlink:href="classiota_1_1_message_id.html#a389b606d6350ab97ddfaacd33c747d69" target="_top" xlink:title=" ">
<polygon fill="white" stroke="black" points="329,-0.5 329,-30.5 460,-30.5 460,-0.5 329,-0.5"/>
<text text-anchor="start" x="337" y="-18.5" font-family="Helvetica,sans-Serif" font-size="10.00">iota::MessageId::fromByte</text>
<text text-anchor="middle" x="394.5" y="-7.5" font-family="Helvetica,sans-Serif" font-size="10.00">Array</text>
</a>
</g>
</g>
<!-- Node2&#45;&gt;Node4 -->
<g id="edge3" class="edge">
<title>Node2&#45;&gt;Node4</title>
<path fill="none" stroke="midnightblue" d="M293.21,-28.99C301.61,-27.86 310.28,-26.7 318.85,-25.54"/>
<polygon fill="midnightblue" stroke="midnightblue" points="319.39,-29 328.83,-24.2 318.46,-22.07 319.39,-29"/>
</g>
</g>
</svg>
