<?xml version="1.0" encoding="UTF-8" standalone="no"?>
<!DOCTYPE svg PUBLIC "-//W3C//DTD SVG 1.1//EN"
 "http://www.w3.org/Graphics/SVG/1.1/DTD/svg11.dtd">
<!-- Generated by graphviz version 2.50.0 (20211204.2007)
 -->
<!-- Title: iota::findByIndex Pages: 1 -->
<svg width="428pt" height="94pt"
 viewBox="0.00 0.00 428.00 93.50" xmlns="http://www.w3.org/2000/svg" xmlns:xlink="http://www.w3.org/1999/xlink">
<g id="graph0" class="graph" transform="scale(1 1) rotate(0) translate(4 89.5)">
<title>iota::findByIndex</title>
<polygon fill="white" stroke="transparent" points="-4,4 -4,-89.5 424,-89.5 424,4 -4,4"/>
<!-- Node1 -->
<g id="node1" class="node">
<title>Node1</title>
<g id="a_node1"><a xlink:title=" ">
<polygon fill="#bfbfbf" stroke="black" points="0,-47 0,-66 89,-66 89,-47 0,-47"/>
<text text-anchor="middle" x="44.5" y="-54" font-family="Helvetica,sans-Serif" font-size="10.00">iota::findByIndex</text>
</a>
</g>
</g>
<!-- Node2 -->
<g id="node2" class="node">
<title>Node2</title>
<g id="a_node2"><a xlink:href="_bin_text_converter_8cpp.html#a40d88b99095afc4dad6038d92b083c5c" target="_top" xlink:title=" ">
<polygon fill="white" stroke="black" points="144.5,-66 144.5,-85 233.5,-85 233.5,-66 144.5,-66"/>
<text text-anchor="middle" x="189" y="-73" font-family="Helvetica,sans-Serif" font-size="10.00">convertBinToHex</text>
</a>
</g>
</g>
<!-- Node1&#45;&gt;Node2 -->
<g id="edge1" class="edge">
<title>Node1&#45;&gt;Node2</title>
<path fill="none" stroke="midnightblue" d="M89.03,-62.3C103.26,-64.2 119.24,-66.33 134.14,-68.32"/>
<polygon fill="midnightblue" stroke="midnightblue" points="133.87,-71.81 144.25,-69.67 134.8,-64.88 133.87,-71.81"/>
</g>
<!-- Node3 -->
<g id="node3" class="node">
<title>Node3</title>
<g id="a_node3"><a xlink:href="classiota_1_1_message_id.html#a3d240c5e3ecad4f54f8e290b27fb2841" target="_top" xlink:title=" ">
<polygon fill="white" stroke="black" points="125,-28 125,-47 253,-47 253,-28 125,-28"/>
<text text-anchor="middle" x="189" y="-35" font-family="Helvetica,sans-Serif" font-size="10.00">iota::MessageId::fromHex</text>
</a>
</g>
</g>
<!-- Node1&#45;&gt;Node3 -->
<g id="edge2" class="edge">
<title>Node1&#45;&gt;Node3</title>
<path fill="none" stroke="midnightblue" d="M89.03,-50.7C97.24,-49.6 106.02,-48.43 114.85,-47.25"/>
<polygon fill="midnightblue" stroke="midnightblue" points="115.35,-50.72 124.8,-45.93 114.43,-43.78 115.35,-50.72"/>
</g>
<!-- Node4 -->
<g id="node4" class="node">
<title>Node4</title>
<g id="a_node4"><a xlink:href="_bin_text_converter_8cpp.html#abc148f267e9f9ce50b2bd6d5569db08a" target="_top" xlink:title=" ">
<polygon fill="white" stroke="black" points="310,-50 310,-69 399,-69 399,-50 310,-50"/>
<text text-anchor="middle" x="354.5" y="-57" font-family="Helvetica,sans-Serif" font-size="10.00">convertHexToBin</text>
</a>
</g>
</g>
<!-- Node3&#45;&gt;Node4 -->
<g id="edge3" class="edge">
<title>Node3&#45;&gt;Node4</title>
<path fill="none" stroke="midnightblue" d="M253.21,-46.01C268.55,-48.07 284.8,-50.26 299.65,-52.25"/>
<polygon fill="midnightblue" stroke="midnightblue" points="299.31,-55.74 309.68,-53.6 300.24,-48.8 299.31,-55.74"/>
</g>
<!-- Node5 -->
<g id="node5" class="node">
<title>Node5</title>
<g id="a_node5"><a xlink:href="classiota_1_1_message_id.html#a389b606d6350ab97ddfaacd33c747d69" target="_top" xlink:title=" ">
<polygon fill="white" stroke="black" points="289,-0.5 289,-30.5 420,-30.5 420,-0.5 289,-0.5"/>
<text text-anchor="start" x="297" y="-18.5" font-family="Helvetica,sans-Serif" font-size="10.00">iota::MessageId::fromByte</text>
<text text-anchor="middle" x="354.5" y="-7.5" font-family="Helvetica,sans-Serif" font-size="10.00">Array</text>
</a>
</g>
</g>
<!-- Node3&#45;&gt;Node5 -->
<g id="edge4" class="edge">
<title>Node3&#45;&gt;Node5</title>
<path fill="none" stroke="midnightblue" d="M253.21,-28.99C261.61,-27.86 270.28,-26.7 278.85,-25.54"/>
<polygon fill="midnightblue" stroke="midnightblue" points="279.39,-29 288.83,-24.2 278.46,-22.07 279.39,-29"/>
</g>
</g>
</svg>
