<?xml version="1.0" encoding="UTF-8" standalone="no"?>
<!DOCTYPE svg PUBLIC "-//W3C//DTD SVG 1.1//EN"
 "http://www.w3.org/Graphics/SVG/1.1/DTD/svg11.dtd">
<!-- Generated by graphviz version 2.50.0 (20211204.2007)
 -->
<!-- Title: model::files::BlockIndex::Block::updateHash Pages: 1 -->
<svg width="442pt" height="186pt"
 viewBox="0.00 0.00 442.00 186.00" xmlns="http://www.w3.org/2000/svg" xmlns:xlink="http://www.w3.org/1999/xlink">
<g id="graph0" class="graph" transform="scale(1 1) rotate(0) translate(4 182)">
<title>model::files::BlockIndex::Block::updateHash</title>
<polygon fill="white" stroke="transparent" points="-4,4 -4,-182 438,-182 438,4 -4,4"/>
<!-- Node1 -->
<g id="node1" class="node">
<title>Node1</title>
<g id="a_node1"><a xlink:title=" ">
<polygon fill="#bfbfbf" stroke="black" points="314,-73.5 314,-103.5 434,-103.5 434,-73.5 314,-73.5"/>
<text text-anchor="start" x="322" y="-91.5" font-family="Helvetica,sans-Serif" font-size="10.00">model::files::BlockIndex</text>
<text text-anchor="middle" x="374" y="-80.5" font-family="Helvetica,sans-Serif" font-size="10.00">::Block::updateHash</text>
</a>
</g>
</g>
<!-- Node2 -->
<g id="node2" class="node">
<title>Node2</title>
<g id="a_node2"><a xlink:href="classmodel_1_1files_1_1_block_index.html#ae197b4a43d106d58b23a102f2598ca0c" target="_top" xlink:title="read from file, put content into receiver">
<polygon fill="white" stroke="black" points="152,-147.5 152,-177.5 272,-177.5 272,-147.5 152,-147.5"/>
<text text-anchor="start" x="160" y="-165.5" font-family="Helvetica,sans-Serif" font-size="10.00">model::files::BlockIndex</text>
<text text-anchor="middle" x="212" y="-154.5" font-family="Helvetica,sans-Serif" font-size="10.00">::readFromFile</text>
</a>
</g>
</g>
<!-- Node1&#45;&gt;Node2 -->
<g id="edge1" class="edge">
<title>Node1&#45;&gt;Node2</title>
<path fill="none" stroke="midnightblue" d="M337.62,-108.53C319.98,-118.16 298.15,-129.52 278,-138.5 271.08,-141.58 263.63,-144.6 256.32,-147.4"/>
<polygon fill="midnightblue" stroke="midnightblue" points="339.37,-111.57 346.44,-103.68 335.99,-105.44 339.37,-111.57"/>
</g>
<!-- Node4 -->
<g id="node4" class="node">
<title>Node4</title>
<g id="a_node4"><a xlink:href="structmodel_1_1files_1_1_block_index_1_1_year_block.html#a9781ad453ea6929dfc08863064ec64b4" target="_top" xlink:title=" ">
<polygon fill="white" stroke="black" points="149.5,-98.5 149.5,-128.5 274.5,-128.5 274.5,-98.5 149.5,-98.5"/>
<text text-anchor="start" x="157.5" y="-116.5" font-family="Helvetica,sans-Serif" font-size="10.00">model::files::BlockIndex</text>
<text text-anchor="middle" x="212" y="-105.5" font-family="Helvetica,sans-Serif" font-size="10.00">::YearBlock::updateHash</text>
</a>
</g>
</g>
<!-- Node1&#45;&gt;Node4 -->
<g id="edge3" class="edge">
<title>Node1&#45;&gt;Node4</title>
<path fill="none" stroke="midnightblue" d="M303.83,-99.31C294.1,-100.83 284.14,-102.38 274.56,-103.88"/>
<polygon fill="midnightblue" stroke="midnightblue" points="304.54,-102.74 313.88,-97.74 303.46,-95.82 304.54,-102.74"/>
</g>
<!-- Node5 -->
<g id="node5" class="node">
<title>Node5</title>
<g id="a_node5"><a xlink:href="structmodel_1_1files_1_1_block_index_1_1_month_block.html#acb90a61d145458d80ddcce57804fd059" target="_top" xlink:title=" ">
<polygon fill="white" stroke="black" points="146,-49.5 146,-79.5 278,-79.5 278,-49.5 146,-49.5"/>
<text text-anchor="start" x="154" y="-67.5" font-family="Helvetica,sans-Serif" font-size="10.00">model::files::BlockIndex</text>
<text text-anchor="middle" x="212" y="-56.5" font-family="Helvetica,sans-Serif" font-size="10.00">::MonthBlock::updateHash</text>
</a>
</g>
</g>
<!-- Node1&#45;&gt;Node5 -->
<g id="edge4" class="edge">
<title>Node1&#45;&gt;Node5</title>
<path fill="none" stroke="midnightblue" d="M303.91,-78.14C295.33,-76.85 286.59,-75.54 278.07,-74.26"/>
<polygon fill="midnightblue" stroke="midnightblue" points="303.47,-81.61 313.88,-79.63 304.51,-74.69 303.47,-81.61"/>
</g>
<!-- Node6 -->
<g id="node6" class="node">
<title>Node6</title>
<g id="a_node6"><a xlink:href="structmodel_1_1files_1_1_block_index_1_1_data_block.html#a0dafb095bffca3bb439bddddf9cb3140" target="_top" xlink:title=" ">
<polygon fill="white" stroke="black" points="149.5,-0.5 149.5,-30.5 274.5,-30.5 274.5,-0.5 149.5,-0.5"/>
<text text-anchor="start" x="157.5" y="-18.5" font-family="Helvetica,sans-Serif" font-size="10.00">model::files::BlockIndex</text>
<text text-anchor="middle" x="212" y="-7.5" font-family="Helvetica,sans-Serif" font-size="10.00">::DataBlock::updateHash</text>
</a>
</g>
</g>
<!-- Node1&#45;&gt;Node6 -->
<g id="edge5" class="edge">
<title>Node1&#45;&gt;Node6</title>
<path fill="none" stroke="midnightblue" d="M335.85,-68.64C318.48,-59.63 297.38,-49.1 278,-40.5 270.37,-37.12 262.14,-33.74 254.17,-30.62"/>
<polygon fill="midnightblue" stroke="midnightblue" points="334.61,-71.94 345.09,-73.46 337.85,-65.73 334.61,-71.94"/>
</g>
<!-- Node3 -->
<g id="node3" class="node">
<title>Node3</title>
<g id="a_node3"><a xlink:href="classcontroller_1_1_block_index.html#a09afd2785b550c464e1173a4bb6e1bb7" target="_top" xlink:title="loading block index from file (or at least try to load)">
<polygon fill="white" stroke="black" points="0,-147.5 0,-177.5 110,-177.5 110,-147.5 0,-147.5"/>
<text text-anchor="start" x="8" y="-165.5" font-family="Helvetica,sans-Serif" font-size="10.00">controller::BlockIndex</text>
<text text-anchor="middle" x="55" y="-154.5" font-family="Helvetica,sans-Serif" font-size="10.00">::loadFromFile</text>
</a>
</g>
</g>
<!-- Node2&#45;&gt;Node3 -->
<g id="edge2" class="edge">
<title>Node2&#45;&gt;Node3</title>
<path fill="none" stroke="midnightblue" d="M141.83,-162.5C131.18,-162.5 120.3,-162.5 110.04,-162.5"/>
<polygon fill="midnightblue" stroke="midnightblue" points="141.96,-166 151.96,-162.5 141.96,-159 141.96,-166"/>
</g>
</g>
</svg>
