<?xml version="1.0" encoding="UTF-8" standalone="no"?>
<!DOCTYPE svg PUBLIC "-//W3C//DTD SVG 1.1//EN"
 "http://www.w3.org/Graphics/SVG/1.1/DTD/svg11.dtd">
<!-- Generated by graphviz version 2.50.0 (20211204.2007)
 -->
<!-- Title: model::files::BlockIndex::Block Pages: 1 -->
<svg width="416pt" height="358pt"
 viewBox="0.00 0.00 416.00 358.00" xmlns="http://www.w3.org/2000/svg" xmlns:xlink="http://www.w3.org/1999/xlink">
<g id="graph0" class="graph" transform="scale(1 1) rotate(0) translate(4 354)">
<title>model::files::BlockIndex::Block</title>
<polygon fill="white" stroke="transparent" points="-4,4 -4,-354 412,-354 412,4 -4,4"/>
<!-- Node1 -->
<g id="node1" class="node">
<title>Node1</title>
<g id="a_node1"><a xlink:title=" ">
<polygon fill="#bfbfbf" stroke="black" points="150,-226.5 150,-349.5 270,-349.5 270,-226.5 150,-226.5"/>
<text text-anchor="start" x="158" y="-337.5" font-family="Helvetica,sans-Serif" font-size="10.00">model::files::BlockIndex</text>
<text text-anchor="middle" x="210" y="-326.5" font-family="Helvetica,sans-Serif" font-size="10.00">::Block</text>
<polyline fill="none" stroke="black" points="150,-319.5 270,-319.5 "/>
<text text-anchor="start" x="158" y="-307.5" font-family="Helvetica,sans-Serif" font-size="10.00">+ type</text>
<polyline fill="none" stroke="black" points="150,-300.5 270,-300.5 "/>
<text text-anchor="start" x="158" y="-288.5" font-family="Helvetica,sans-Serif" font-size="10.00">+ Block()</text>
<text text-anchor="start" x="158" y="-277.5" font-family="Helvetica,sans-Serif" font-size="10.00">+ ~Block()</text>
<text text-anchor="start" x="158" y="-266.5" font-family="Helvetica,sans-Serif" font-size="10.00">+ size()</text>
<text text-anchor="start" x="158" y="-255.5" font-family="Helvetica,sans-Serif" font-size="10.00">+ writeIntoFile()</text>
<text text-anchor="start" x="158" y="-244.5" font-family="Helvetica,sans-Serif" font-size="10.00">+ readFromFile()</text>
<text text-anchor="start" x="158" y="-233.5" font-family="Helvetica,sans-Serif" font-size="10.00">+ updateHash()</text>
</a>
</g>
</g>
<!-- Node2 -->
<g id="node2" class="node">
<title>Node2</title>
<g id="a_node2"><a xlink:href="structmodel_1_1files_1_1_block_index_1_1_data_block.html" target="_top" xlink:title=" ">
<polygon fill="white" stroke="black" points="0,-0.5 0,-189.5 132,-189.5 132,-0.5 0,-0.5"/>
<text text-anchor="start" x="8" y="-177.5" font-family="Helvetica,sans-Serif" font-size="10.00">model::files::BlockIndex</text>
<text text-anchor="middle" x="66" y="-166.5" font-family="Helvetica,sans-Serif" font-size="10.00">::DataBlock</text>
<polyline fill="none" stroke="black" points="0,-159.5 132,-159.5 "/>
<text text-anchor="start" x="8" y="-147.5" font-family="Helvetica,sans-Serif" font-size="10.00">+ transactionNr</text>
<text text-anchor="start" x="8" y="-136.5" font-family="Helvetica,sans-Serif" font-size="10.00">+ fileCursor</text>
<text text-anchor="start" x="8" y="-125.5" font-family="Helvetica,sans-Serif" font-size="10.00">+ coinColor</text>
<text text-anchor="start" x="8" y="-114.5" font-family="Helvetica,sans-Serif" font-size="10.00">+ addressIndicesCount</text>
<text text-anchor="start" x="8" y="-103.5" font-family="Helvetica,sans-Serif" font-size="10.00">+ addressIndices</text>
<polyline fill="none" stroke="black" points="0,-96.5 132,-96.5 "/>
<text text-anchor="start" x="8" y="-84.5" font-family="Helvetica,sans-Serif" font-size="10.00">+ DataBlock()</text>
<text text-anchor="start" x="8" y="-73.5" font-family="Helvetica,sans-Serif" font-size="10.00">+ DataBlock()</text>
<text text-anchor="start" x="8" y="-62.5" font-family="Helvetica,sans-Serif" font-size="10.00">+ ~DataBlock()</text>
<text text-anchor="start" x="8" y="-51.5" font-family="Helvetica,sans-Serif" font-size="10.00">+ size()</text>
<text text-anchor="start" x="8" y="-40.5" font-family="Helvetica,sans-Serif" font-size="10.00">+ writeIntoFile()</text>
<text text-anchor="start" x="8" y="-29.5" font-family="Helvetica,sans-Serif" font-size="10.00">+ readFromFile()</text>
<text text-anchor="start" x="8" y="-18.5" font-family="Helvetica,sans-Serif" font-size="10.00">+ updateHash()</text>
<text text-anchor="start" x="8" y="-7.5" font-family="Helvetica,sans-Serif" font-size="10.00">+ createTransactionEntry()</text>
</a>
</g>
</g>
<!-- Node1&#45;&gt;Node2 -->
<g id="edge1" class="edge">
<title>Node1&#45;&gt;Node2</title>
<path fill="none" stroke="midnightblue" d="M158.17,-218.25C149.73,-207.05 140.88,-195.32 132.15,-183.74"/>
<polygon fill="none" stroke="midnightblue" points="155.42,-220.43 164.24,-226.3 161.01,-216.21 155.42,-220.43"/>
</g>
<!-- Node3 -->
<g id="node3" class="node">
<title>Node3</title>
<g id="a_node3"><a xlink:href="structmodel_1_1files_1_1_block_index_1_1_month_block.html" target="_top" xlink:title=" ">
<polygon fill="white" stroke="black" points="150,-33.5 150,-156.5 270,-156.5 270,-33.5 150,-33.5"/>
<text text-anchor="start" x="158" y="-144.5" font-family="Helvetica,sans-Serif" font-size="10.00">model::files::BlockIndex</text>
<text text-anchor="middle" x="210" y="-133.5" font-family="Helvetica,sans-Serif" font-size="10.00">::MonthBlock</text>
<polyline fill="none" stroke="black" points="150,-126.5 270,-126.5 "/>
<text text-anchor="start" x="158" y="-114.5" font-family="Helvetica,sans-Serif" font-size="10.00">+ month</text>
<polyline fill="none" stroke="black" points="150,-107.5 270,-107.5 "/>
<text text-anchor="start" x="158" y="-95.5" font-family="Helvetica,sans-Serif" font-size="10.00">+ MonthBlock()</text>
<text text-anchor="start" x="158" y="-84.5" font-family="Helvetica,sans-Serif" font-size="10.00">+ MonthBlock()</text>
<text text-anchor="start" x="158" y="-73.5" font-family="Helvetica,sans-Serif" font-size="10.00">+ size()</text>
<text text-anchor="start" x="158" y="-62.5" font-family="Helvetica,sans-Serif" font-size="10.00">+ readFromFile()</text>
<text text-anchor="start" x="158" y="-51.5" font-family="Helvetica,sans-Serif" font-size="10.00">+ writeIntoFile()</text>
<text text-anchor="start" x="158" y="-40.5" font-family="Helvetica,sans-Serif" font-size="10.00">+ updateHash()</text>
</a>
</g>
</g>
<!-- Node1&#45;&gt;Node3 -->
<g id="edge2" class="edge">
<title>Node1&#45;&gt;Node3</title>
<path fill="none" stroke="midnightblue" d="M210,-216.21C210,-196.6 210,-175.5 210,-156.54"/>
<polygon fill="none" stroke="midnightblue" points="206.5,-216.3 210,-226.3 213.5,-216.3 206.5,-216.3"/>
</g>
<!-- Node4 -->
<g id="node4" class="node">
<title>Node4</title>
<g id="a_node4"><a xlink:href="structmodel_1_1files_1_1_block_index_1_1_year_block.html" target="_top" xlink:title=" ">
<polygon fill="white" stroke="black" points="288,-33.5 288,-156.5 408,-156.5 408,-33.5 288,-33.5"/>
<text text-anchor="start" x="296" y="-144.5" font-family="Helvetica,sans-Serif" font-size="10.00">model::files::BlockIndex</text>
<text text-anchor="middle" x="348" y="-133.5" font-family="Helvetica,sans-Serif" font-size="10.00">::YearBlock</text>
<polyline fill="none" stroke="black" points="288,-126.5 408,-126.5 "/>
<text text-anchor="start" x="296" y="-114.5" font-family="Helvetica,sans-Serif" font-size="10.00">+ year</text>
<polyline fill="none" stroke="black" points="288,-107.5 408,-107.5 "/>
<text text-anchor="start" x="296" y="-95.5" font-family="Helvetica,sans-Serif" font-size="10.00">+ YearBlock()</text>
<text text-anchor="start" x="296" y="-84.5" font-family="Helvetica,sans-Serif" font-size="10.00">+ YearBlock()</text>
<text text-anchor="start" x="296" y="-73.5" font-family="Helvetica,sans-Serif" font-size="10.00">+ size()</text>
<text text-anchor="start" x="296" y="-62.5" font-family="Helvetica,sans-Serif" font-size="10.00">+ readFromFile()</text>
<text text-anchor="start" x="296" y="-51.5" font-family="Helvetica,sans-Serif" font-size="10.00">+ writeIntoFile()</text>
<text text-anchor="start" x="296" y="-40.5" font-family="Helvetica,sans-Serif" font-size="10.00">+ updateHash()</text>
</a>
</g>
</g>
<!-- Node1&#45;&gt;Node4 -->
<g id="edge3" class="edge">
<title>Node1&#45;&gt;Node4</title>
<path fill="none" stroke="midnightblue" d="M259.79,-218.09C274.33,-197.96 290.12,-176.11 304.26,-156.54"/>
<polygon fill="none" stroke="midnightblue" points="256.87,-216.15 253.85,-226.3 262.55,-220.25 256.87,-216.15"/>
</g>
</g>
</svg>
