<?xml version="1.0" encoding="UTF-8" standalone="no"?>
<!DOCTYPE svg PUBLIC "-//W3C//DTD SVG 1.1//EN"
 "http://www.w3.org/Graphics/SVG/1.1/DTD/svg11.dtd">
<!-- Generated by graphviz version 2.50.0 (20211204.2007)
 -->
<!-- Title: model::files::BlockIndex::DataBlock::writeIntoFile Pages: 1 -->
<svg width="411pt" height="61pt"
 viewBox="0.00 0.00 411.00 61.00" xmlns="http://www.w3.org/2000/svg" xmlns:xlink="http://www.w3.org/1999/xlink">
<g id="graph0" class="graph" transform="scale(1 1) rotate(0) translate(4 57)">
<title>model::files::BlockIndex::DataBlock::writeIntoFile</title>
<polygon fill="white" stroke="transparent" points="-4,4 -4,-57 407,-57 407,4 -4,4"/>
<!-- Node1 -->
<g id="node1" class="node">
<title>Node1</title>
<g id="a_node1"><a xlink:title=" ">
<polygon fill="#bfbfbf" stroke="black" points="0,-22.5 0,-52.5 125,-52.5 125,-22.5 0,-22.5"/>
<text text-anchor="start" x="8" y="-40.5" font-family="Helvetica,sans-Serif" font-size="10.00">model::files::BlockIndex</text>
<text text-anchor="middle" x="62.5" y="-29.5" font-family="Helvetica,sans-Serif" font-size="10.00">::DataBlock::writeIntoFile</text>
</a>
</g>
</g>
<!-- Node2 -->
<g id="node2" class="node">
<title>Node2</title>
<g id="a_node2"><a xlink:href="class_virtual_file.html#ab6f997f913811412a1c85310ff7dd792" target="_top" xlink:title="copy to buffer from src, move cursor">
<polygon fill="white" stroke="black" points="317,-28 317,-47 403,-47 403,-28 317,-28"/>
<text text-anchor="middle" x="360" y="-35" font-family="Helvetica,sans-Serif" font-size="10.00">VirtualFile::write</text>
</a>
</g>
</g>
<!-- Node1&#45;&gt;Node2 -->
<g id="edge1" class="edge">
<title>Node1&#45;&gt;Node2</title>
<path fill="none" stroke="midnightblue" d="M125.13,-39.68C137.03,-40.02 149.4,-40.32 161,-40.5 214.33,-41.32 227.68,-41.53 281,-40.5 289.38,-40.34 298.25,-40.08 306.9,-39.78"/>
<polygon fill="midnightblue" stroke="midnightblue" points="307.04,-43.28 316.91,-39.42 306.79,-36.28 307.04,-43.28"/>
</g>
<!-- Node3 -->
<g id="node3" class="node">
<title>Node3</title>
<g id="a_node3"><a xlink:href="structmodel_1_1files_1_1_block_index_1_1_block.html#a36cc9bd13253a93f0be92b9f6cb9e127" target="_top" xlink:title=" ">
<polygon fill="white" stroke="black" points="161,-0.5 161,-30.5 281,-30.5 281,-0.5 161,-0.5"/>
<text text-anchor="start" x="169" y="-18.5" font-family="Helvetica,sans-Serif" font-size="10.00">model::files::BlockIndex</text>
<text text-anchor="middle" x="221" y="-7.5" font-family="Helvetica,sans-Serif" font-size="10.00">::Block::writeIntoFile</text>
</a>
</g>
</g>
<!-- Node1&#45;&gt;Node3 -->
<g id="edge2" class="edge">
<title>Node1&#45;&gt;Node3</title>
<path fill="none" stroke="midnightblue" d="M125.35,-28.81C133.77,-27.62 142.44,-26.4 150.97,-25.2"/>
<polygon fill="midnightblue" stroke="midnightblue" points="151.48,-28.67 160.89,-23.81 150.5,-21.74 151.48,-28.67"/>
</g>
<!-- Node3&#45;&gt;Node2 -->
<g id="edge3" class="edge">
<title>Node3&#45;&gt;Node2</title>
<path fill="none" stroke="midnightblue" d="M281.29,-25.02C289.83,-26.39 298.56,-27.79 306.94,-29.14"/>
<polygon fill="midnightblue" stroke="midnightblue" points="306.52,-32.62 316.95,-30.75 307.63,-25.71 306.52,-32.62"/>
</g>
</g>
</svg>
