<?xml version="1.0" encoding="UTF-8" standalone="no"?>
<!DOCTYPE svg PUBLIC "-//W3C//DTD SVG 1.1//EN"
 "http://www.w3.org/Graphics/SVG/1.1/DTD/svg11.dtd">
<!-- Generated by graphviz version 2.50.0 (20211204.2007)
 -->
<!-- Title: model::files::BlockIndex::MonthBlock::writeIntoFile Pages: 1 -->
<svg width="418pt" height="61pt"
 viewBox="0.00 0.00 418.00 61.00" xmlns="http://www.w3.org/2000/svg" xmlns:xlink="http://www.w3.org/1999/xlink">
<g id="graph0" class="graph" transform="scale(1 1) rotate(0) translate(4 57)">
<title>model::files::BlockIndex::MonthBlock::writeIntoFile</title>
<polygon fill="white" stroke="transparent" points="-4,4 -4,-57 414,-57 414,4 -4,4"/>
<!-- Node1 -->
<g id="node1" class="node">
<title>Node1</title>
<g id="a_node1"><a xlink:title=" ">
<polygon fill="#bfbfbf" stroke="black" points="0,-22.5 0,-52.5 132,-52.5 132,-22.5 0,-22.5"/>
<text text-anchor="start" x="8" y="-40.5" font-family="Helvetica,sans-Serif" font-size="10.00">model::files::BlockIndex</text>
<text text-anchor="middle" x="66" y="-29.5" font-family="Helvetica,sans-Serif" font-size="10.00">::MonthBlock::writeIntoFile</text>
</a>
</g>
</g>
<!-- Node2 -->
<g id="node2" class="node">
<title>Node2</title>
<g id="a_node2"><a xlink:href="class_virtual_file.html#ab6f997f913811412a1c85310ff7dd792" target="_top" xlink:title="copy to buffer from src, move cursor">
<polygon fill="white" stroke="black" points="324,-28 324,-47 410,-47 410,-28 324,-28"/>
<text text-anchor="middle" x="367" y="-35" font-family="Helvetica,sans-Serif" font-size="10.00">VirtualFile::write</text>
</a>
</g>
</g>
<!-- Node1&#45;&gt;Node2 -->
<g id="edge1" class="edge">
<title>Node1&#45;&gt;Node2</title>
<path fill="none" stroke="midnightblue" d="M132.19,-39.72C144.1,-40.05 156.42,-40.33 168,-40.5 221.33,-41.29 234.68,-41.53 288,-40.5 296.38,-40.34 305.25,-40.08 313.9,-39.78"/>
<polygon fill="midnightblue" stroke="midnightblue" points="314.04,-43.28 323.91,-39.42 313.79,-36.28 314.04,-43.28"/>
</g>
<!-- Node3 -->
<g id="node3" class="node">
<title>Node3</title>
<g id="a_node3"><a xlink:href="structmodel_1_1files_1_1_block_index_1_1_block.html#a36cc9bd13253a93f0be92b9f6cb9e127" target="_top" xlink:title=" ">
<polygon fill="white" stroke="black" points="168,-0.5 168,-30.5 288,-30.5 288,-0.5 168,-0.5"/>
<text text-anchor="start" x="176" y="-18.5" font-family="Helvetica,sans-Serif" font-size="10.00">model::files::BlockIndex</text>
<text text-anchor="middle" x="228" y="-7.5" font-family="Helvetica,sans-Serif" font-size="10.00">::Block::writeIntoFile</text>
</a>
</g>
</g>
<!-- Node1&#45;&gt;Node3 -->
<g id="edge2" class="edge">
<title>Node1&#45;&gt;Node3</title>
<path fill="none" stroke="midnightblue" d="M132.08,-28.55C140.6,-27.38 149.35,-26.18 157.93,-25"/>
<polygon fill="midnightblue" stroke="midnightblue" points="158.47,-28.46 167.9,-23.63 157.52,-21.52 158.47,-28.46"/>
</g>
<!-- Node3&#45;&gt;Node2 -->
<g id="edge3" class="edge">
<title>Node3&#45;&gt;Node2</title>
<path fill="none" stroke="midnightblue" d="M288.29,-25.02C296.83,-26.39 305.56,-27.79 313.94,-29.14"/>
<polygon fill="midnightblue" stroke="midnightblue" points="313.52,-32.62 323.95,-30.75 314.63,-25.71 313.52,-32.62"/>
</g>
</g>
</svg>
